<?xml version="1.0" encoding="UTF-8" standalone="no"?>
<!DOCTYPE svg PUBLIC "-//W3C//DTD SVG 1.1//EN"
 "http://www.w3.org/Graphics/SVG/1.1/DTD/svg11.dtd">
<!-- Generated by graphviz version 2.28.0 (20121015.0031)
 -->
<!-- Title: include/fa/atomic.h Pages: 1 -->
<svg width="749pt" height="152pt"
 viewBox="0.00 0.00 749.00 152.00" xmlns="http://www.w3.org/2000/svg" xmlns:xlink="http://www.w3.org/1999/xlink">
<g id="graph1" class="graph" transform="scale(1 1) rotate(0) translate(4 148)">
<title>include/fa/atomic.h</title>
<!-- Node1 -->
<g id="node1" class="node"><title>Node1</title>
<polygon fill="#bfbfbf" stroke="black" points="471.374,-120.695 471.374,-143.305 586.626,-143.305 586.626,-120.695 471.374,-120.695"/>
<text text-anchor="middle" x="529" y="-128.305" font-family="Futura" font-size="11.00">include/fa/atomic.h</text>
</g>
<!-- Node2 -->
<g id="node3" class="node"><title>Node2</title>
<a xlink:href="fa_2fa_8h.html" target="_top" xlink:title="fa.h">
<polygon fill="none" stroke="red" points="511.273,-60.6953 511.273,-83.3047 546.727,-83.3047 546.727,-60.6953 511.273,-60.6953"/>
<text text-anchor="middle" x="529" y="-68.3047" font-family="Futura" font-size="11.00">fa.h</text>
</a>
</g>
<!-- Node1&#45;&gt;Node2 -->
<g id="edge2" class="edge"><title>Node1&#45;&gt;Node2</title>
<path fill="none" stroke="midnightblue" d="M523.684,-120.631C522.323,-113.137 521.931,-102.764 522.508,-93.6107"/>
<polygon fill="midnightblue" stroke="midnightblue" points="525.986,-94.0015 523.63,-83.6719 519.03,-93.2159 525.986,-94.0015"/>
</g>
<!-- Node10 -->
<g id="node22" class="node"><title>Node10</title>
<a xlink:href="std_8h.html" target="_top" xlink:title="fa/std.h">
<polygon fill="none" stroke="red" points="564.39,-60.6953 564.39,-83.3047 619.61,-83.3047 619.61,-60.6953 564.39,-60.6953"/>
<text text-anchor="middle" x="592" y="-68.3047" font-family="Futura" font-size="11.00">fa/std.h</text>
</a>
</g>
<!-- Node1&#45;&gt;Node10 -->
<g id="edge24" class="edge"><title>Node1&#45;&gt;Node10</title>
<path fill="none" stroke="midnightblue" d="M540.263,-120.631C549.288,-112.322 562.157,-100.475 572.802,-90.6745"/>
<polygon fill="midnightblue" stroke="midnightblue" points="575.422,-93.0199 580.408,-83.6719 570.681,-87.87 575.422,-93.0199"/>
</g>
<!-- Node2&#45;&gt;Node1 -->
<g id="edge4" class="edge"><title>Node2&#45;&gt;Node1</title>
<path fill="none" stroke="midnightblue" d="M534.37,-83.6719C535.691,-91.1602 536.064,-101.411 535.488,-110.459"/>
<polygon fill="midnightblue" stroke="midnightblue" points="531.984,-110.296 534.316,-120.631 538.938,-111.097 531.984,-110.296"/>
</g>
<!-- Node3 -->
<g id="node6" class="node"><title>Node3</title>
<a xlink:href="queue_8h.html" target="_top" xlink:title="fa/atomic/queue.h">
<polygon fill="none" stroke="red" points="-0.351562,-0.695312 -0.351562,-23.3047 110.352,-23.3047 110.352,-0.695312 -0.351562,-0.695312"/>
<text text-anchor="middle" x="55" y="-8.30469" font-family="Futura" font-size="11.00">fa/atomic/queue.h</text>
</a>
</g>
<!-- Node2&#45;&gt;Node3 -->
<g id="edge6" class="edge"><title>Node2&#45;&gt;Node3</title>
<path fill="none" stroke="midnightblue" d="M510.97,-69.2976C454.815,-63.9193 277.895,-46.399 120.791,-24.1992"/>
<polygon fill="midnightblue" stroke="midnightblue" points="120.866,-20.6747 110.473,-22.7302 119.88,-27.6049 120.866,-20.6747"/>
</g>
<!-- Node4 -->
<g id="node8" class="node"><title>Node4</title>
<a xlink:href="stack_8h.html" target="_top" xlink:title="fa/atomic/stack.h">
<polygon fill="none" stroke="red" points="128.42,-0.695312 128.42,-23.3047 233.58,-23.3047 233.58,-0.695312 128.42,-0.695312"/>
<text text-anchor="middle" x="181" y="-8.30469" font-family="Futura" font-size="11.00">fa/atomic/stack.h</text>
</a>
</g>
<!-- Node2&#45;&gt;Node4 -->
<g id="edge8" class="edge"><title>Node2&#45;&gt;Node4</title>
<path fill="none" stroke="midnightblue" d="M511.248,-68.1633C467.675,-61.1831 351.741,-42.509 243.837,-24.1275"/>
<polygon fill="midnightblue" stroke="midnightblue" points="244.204,-20.6395 233.757,-22.4072 243.026,-27.5397 244.204,-20.6395"/>
</g>
<!-- Node5 -->
<g id="node10" class="node"><title>Node5</title>
<a xlink:href="ring__buffer_8h.html" target="_top" xlink:title="fa/atomic/ring_buffer.h">
<polygon fill="none" stroke="red" points="251.526,-0.695312 251.526,-23.3047 386.474,-23.3047 386.474,-0.695312 251.526,-0.695312"/>
<text text-anchor="middle" x="319" y="-8.30469" font-family="Futura" font-size="11.00">fa/atomic/ring_buffer.h</text>
</a>
</g>
<!-- Node2&#45;&gt;Node5 -->
<g id="edge10" class="edge"><title>Node2&#45;&gt;Node5</title>
<path fill="none" stroke="midnightblue" d="M511.096,-66.055C479.308,-57.2754 412.05,-38.6995 366.182,-26.0312"/>
<polygon fill="midnightblue" stroke="midnightblue" points="367.024,-22.6328 356.453,-23.3442 365.16,-29.3802 367.024,-22.6328"/>
</g>
<!-- Node6 -->
<g id="node12" class="node"><title>Node6</title>
<a xlink:href="system_8h.html" target="_top" xlink:title="fa/system.h">
<polygon fill="none" stroke="red" points="404.026,-0.695312 404.026,-23.3047 477.974,-23.3047 477.974,-0.695312 404.026,-0.695312"/>
<text text-anchor="middle" x="441" y="-8.30469" font-family="Futura" font-size="11.00">fa/system.h</text>
</a>
</g>
<!-- Node2&#45;&gt;Node6 -->
<g id="edge12" class="edge"><title>Node2&#45;&gt;Node6</title>
<path fill="none" stroke="midnightblue" d="M513.267,-60.6308C499.96,-51.8601 480.671,-39.1468 465.368,-29.0605"/>
<polygon fill="midnightblue" stroke="midnightblue" points="467.169,-26.0558 456.893,-23.475 463.317,-31.9006 467.169,-26.0558"/>
</g>
<!-- Node7 -->
<g id="node14" class="node"><title>Node7</title>
<a xlink:href="error_8h.html" target="_top" xlink:title="fa/error.h">
<polygon fill="none" stroke="red" points="496.161,-0.695312 496.161,-23.3047 561.839,-23.3047 561.839,-0.695312 496.161,-0.695312"/>
<text text-anchor="middle" x="529" y="-8.30469" font-family="Futura" font-size="11.00">fa/error.h</text>
</a>
</g>
<!-- Node2&#45;&gt;Node7 -->
<g id="edge14" class="edge"><title>Node2&#45;&gt;Node7</title>
<path fill="none" stroke="midnightblue" d="M523.684,-60.6308C522.323,-53.1365 521.931,-42.7636 522.508,-33.6107"/>
<polygon fill="midnightblue" stroke="midnightblue" points="525.986,-34.0015 523.63,-23.6719 519.03,-33.2159 525.986,-34.0015"/>
</g>
<!-- Node8 -->
<g id="node17" class="node"><title>Node8</title>
<a xlink:href="pair_8h.html" target="_top" xlink:title="fa/pair.h">
<polygon fill="none" stroke="red" points="579.694,-0.695312 579.694,-23.3047 640.306,-23.3047 640.306,-0.695312 579.694,-0.695312"/>
<text text-anchor="middle" x="610" y="-8.30469" font-family="Futura" font-size="11.00">fa/pair.h</text>
</a>
</g>
<!-- Node2&#45;&gt;Node8 -->
<g id="edge18" class="edge"><title>Node2&#45;&gt;Node8</title>
<path fill="none" stroke="midnightblue" d="M538.165,-60.6308C548.821,-51.8601 566.31,-39.1468 581.457,-29.0605"/>
<polygon fill="midnightblue" stroke="midnightblue" points="583.566,-31.8644 590.036,-23.475 579.746,-25.9982 583.566,-31.8644"/>
</g>
<!-- Node9 -->
<g id="node20" class="node"><title>Node9</title>
<polygon fill="none" stroke="#bfbfbf" points="658.804,-0.695312 658.804,-23.3047 741.196,-23.3047 741.196,-0.695312 658.804,-0.695312"/>
<text text-anchor="middle" x="700" y="-8.30469" font-family="Futura" font-size="11.00">fa/pair/left.h</text>
</g>
<!-- Node2&#45;&gt;Node9 -->
<g id="edge22" class="edge"><title>Node2&#45;&gt;Node9</title>
<path fill="none" stroke="midnightblue" d="M546.821,-63.2202C549.545,-62.1007 552.336,-60.993 555,-60 588.271,-47.5963 626.5,-35.2832 655.348,-26.3733"/>
<polygon fill="midnightblue" stroke="midnightblue" points="656.605,-29.6489 665.138,-23.3691 654.551,-22.9569 656.605,-29.6489"/>
</g>
<!-- Node7&#45;&gt;Node2 -->
<g id="edge16" class="edge"><title>Node7&#45;&gt;Node2</title>
<path fill="none" stroke="midnightblue" d="M534.37,-23.6719C535.691,-31.1602 536.064,-41.4112 535.488,-50.4586"/>
<polygon fill="midnightblue" stroke="midnightblue" points="531.984,-50.2958 534.316,-60.6308 538.938,-51.0972 531.984,-50.2958"/>
</g>
<!-- Node8&#45;&gt;Node2 -->
<g id="edge20" class="edge"><title>Node8&#45;&gt;Node2</title>
<path fill="none" stroke="midnightblue" d="M600.464,-23.674C589.352,-32.7803 571.134,-45.9711 555.77,-56.1149"/>
<polygon fill="midnightblue" stroke="midnightblue" points="553.64,-53.3235 547.129,-61.6813 557.431,-59.2082 553.64,-53.3235"/>
</g>
</g>
</svg>
