<?xml version="1.0" encoding="UTF-8" standalone="no"?>
<!DOCTYPE svg PUBLIC "-//W3C//DTD SVG 1.1//EN"
 "http://www.w3.org/Graphics/SVG/1.1/DTD/svg11.dtd">
<!-- Generated by graphviz version 2.28.0 (20121015.0031)
 -->
<!-- Title: include/fa/system/directory.h Pages: 1 -->
<svg width="905pt" height="212pt"
 viewBox="0.00 0.00 905.00 212.00" xmlns="http://www.w3.org/2000/svg" xmlns:xlink="http://www.w3.org/1999/xlink">
<g id="graph1" class="graph" transform="scale(1 1) rotate(0) translate(4 208)">
<title>include/fa/system/directory.h</title>
<!-- Node1 -->
<g id="node1" class="node"><title>Node1</title>
<polygon fill="#bfbfbf" stroke="black" points="364.452,-180.695 364.452,-203.305 529.548,-203.305 529.548,-180.695 364.452,-180.695"/>
<text text-anchor="middle" x="447" y="-188.305" font-family="Futura" font-size="11.00">include/fa/system/directory.h</text>
</g>
<!-- Node2 -->
<g id="node3" class="node"><title>Node2</title>
<a xlink:href="system_8h.html" target="_top" xlink:title="include/fa/system.h">
<polygon fill="none" stroke="black" points="389.462,-120.695 389.462,-143.305 504.538,-143.305 504.538,-120.695 389.462,-120.695"/>
<text text-anchor="middle" x="447" y="-128.305" font-family="Futura" font-size="11.00">include/fa/system.h</text>
</a>
</g>
<!-- Node1&#45;&gt;Node2 -->
<g id="edge2" class="edge"><title>Node1&#45;&gt;Node2</title>
<path fill="none" stroke="midnightblue" d="M447,-170.459C447,-161.411 447,-151.16 447,-143.672"/>
<polygon fill="midnightblue" stroke="midnightblue" points="443.5,-170.631 447,-180.631 450.5,-170.631 443.5,-170.631"/>
</g>
<!-- Node3 -->
<g id="node5" class="node"><title>Node3</title>
<a xlink:href="fa_2fa_8h.html" target="_top" xlink:title="include/fa/fa.h">
<polygon fill="none" stroke="red" points="400.846,-60.6953 400.846,-83.3047 493.154,-83.3047 493.154,-60.6953 400.846,-60.6953"/>
<text text-anchor="middle" x="447" y="-68.3047" font-family="Futura" font-size="11.00">include/fa/fa.h</text>
</a>
</g>
<!-- Node2&#45;&gt;Node3 -->
<g id="edge4" class="edge"><title>Node2&#45;&gt;Node3</title>
<path fill="none" stroke="midnightblue" d="M447,-110.459C447,-101.411 447,-91.1602 447,-83.6719"/>
<polygon fill="midnightblue" stroke="midnightblue" points="443.5,-110.631 447,-120.631 450.5,-110.631 443.5,-110.631"/>
</g>
<!-- Node4 -->
<g id="node7" class="node"><title>Node4</title>
<a xlink:href="action_8h.html" target="_top" xlink:title="include/fa/action.h">
<polygon fill="none" stroke="red" points="-0.253906,-0.695312 -0.253906,-23.3047 112.254,-23.3047 112.254,-0.695312 -0.253906,-0.695312"/>
<text text-anchor="middle" x="56" y="-8.30469" font-family="Futura" font-size="11.00">include/fa/action.h</text>
</a>
</g>
<!-- Node3&#45;&gt;Node4 -->
<g id="edge6" class="edge"><title>Node3&#45;&gt;Node4</title>
<path fill="none" stroke="midnightblue" d="M390.458,-64.1374C323.617,-55.3041 209.462,-39.2701 112,-24 110.643,-23.7874 109.271,-23.5706 107.888,-23.3504"/>
<polygon fill="midnightblue" stroke="midnightblue" points="390.398,-67.6596 400.769,-65.4921 391.31,-60.7193 390.398,-67.6596"/>
</g>
<!-- Node5 -->
<g id="node10" class="node"><title>Node5</title>
<a xlink:href="atomic_8h.html" target="_top" xlink:title="include/fa/atomic.h">
<polygon fill="none" stroke="black" points="130.374,-0.695312 130.374,-23.3047 245.626,-23.3047 245.626,-0.695312 130.374,-0.695312"/>
<text text-anchor="middle" x="188" y="-8.30469" font-family="Futura" font-size="11.00">include/fa/atomic.h</text>
</a>
</g>
<!-- Node3&#45;&gt;Node5 -->
<g id="edge10" class="edge"><title>Node3&#45;&gt;Node5</title>
<path fill="none" stroke="midnightblue" d="M390.504,-59.5795C341.796,-49.0586 272.735,-33.5802 229.107,-23.3971"/>
<polygon fill="midnightblue" stroke="midnightblue" points="390.06,-63.064 400.572,-61.7456 391.532,-56.2205 390.06,-63.064"/>
</g>
<!-- Node6 -->
<g id="node13" class="node"><title>Node6</title>
<a xlink:href="buffer_8h.html" target="_top" xlink:title="include/fa/buffer.h">
<polygon fill="none" stroke="red" points="263.227,-0.695312 263.227,-23.3047 374.773,-23.3047 374.773,-0.695312 263.227,-0.695312"/>
<text text-anchor="middle" x="319" y="-8.30469" font-family="Futura" font-size="11.00">include/fa/buffer.h</text>
</a>
</g>
<!-- Node3&#45;&gt;Node6 -->
<g id="edge14" class="edge"><title>Node3&#45;&gt;Node6</title>
<path fill="none" stroke="midnightblue" d="M414.898,-56.4538C392.253,-46.1929 362.45,-32.6885 342.117,-23.475"/>
<polygon fill="midnightblue" stroke="midnightblue" points="413.563,-59.6914 424.116,-60.6308 416.452,-53.3154 413.563,-59.6914"/>
</g>
<!-- Node7 -->
<g id="node15" class="node"><title>Node7</title>
<a xlink:href="clock_8h.html" target="_top" xlink:title="include/fa/clock.h">
<polygon fill="none" stroke="red" points="392.978,-0.695312 392.978,-23.3047 501.022,-23.3047 501.022,-0.695312 392.978,-0.695312"/>
<text text-anchor="middle" x="447" y="-8.30469" font-family="Futura" font-size="11.00">include/fa/clock.h</text>
</a>
</g>
<!-- Node3&#45;&gt;Node7 -->
<g id="edge16" class="edge"><title>Node3&#45;&gt;Node7</title>
<path fill="none" stroke="midnightblue" d="M447,-50.4586C447,-41.4112 447,-31.1602 447,-23.6719"/>
<polygon fill="midnightblue" stroke="midnightblue" points="443.5,-50.6307 447,-60.6308 450.5,-50.6308 443.5,-50.6307"/>
</g>
<!-- Node8 -->
<g id="node17" class="node"><title>Node8</title>
<a xlink:href="dynamic_8h.html" target="_top" xlink:title="include/fa/dynamic.h">
<polygon fill="none" stroke="black" points="518.918,-0.695312 518.918,-23.3047 643.082,-23.3047 643.082,-0.695312 518.918,-0.695312"/>
<text text-anchor="middle" x="581" y="-8.30469" font-family="Futura" font-size="11.00">include/fa/dynamic.h</text>
</a>
</g>
<!-- Node3&#45;&gt;Node8 -->
<g id="edge18" class="edge"><title>Node3&#45;&gt;Node8</title>
<path fill="none" stroke="midnightblue" d="M480.29,-56.591C504.034,-46.3135 535.418,-32.7296 556.799,-23.475"/>
<polygon fill="midnightblue" stroke="midnightblue" points="478.743,-53.4464 470.957,-60.6308 481.524,-59.8705 478.743,-53.4464"/>
</g>
<!-- Node9 -->
<g id="node19" class="node"><title>Node9</title>
<a xlink:href="error_8h.html" target="_top" xlink:title="include/fa/error.h">
<polygon fill="none" stroke="red" points="660.598,-0.695312 660.598,-23.3047 767.402,-23.3047 767.402,-0.695312 660.598,-0.695312"/>
<text text-anchor="middle" x="714" y="-8.30469" font-family="Futura" font-size="11.00">include/fa/error.h</text>
</a>
</g>
<!-- Node3&#45;&gt;Node9 -->
<g id="edge20" class="edge"><title>Node3&#45;&gt;Node9</title>
<path fill="none" stroke="midnightblue" d="M499.339,-58.3964C546.04,-47.9177 613.983,-33.1848 660.912,-23.3771"/>
<polygon fill="midnightblue" stroke="midnightblue" points="498.405,-55.019 489.418,-60.6308 499.943,-61.8479 498.405,-55.019"/>
</g>
<!-- Node10 -->
<g id="node22" class="node"><title>Node10</title>
<a xlink:href="graph_8h.html" target="_top" xlink:title="include/fa/graph.h">
<polygon fill="none" stroke="black" points="784.937,-0.695312 784.937,-23.3047 897.063,-23.3047 897.063,-0.695312 784.937,-0.695312"/>
<text text-anchor="middle" x="841" y="-8.30469" font-family="Futura" font-size="11.00">include/fa/graph.h</text>
</a>
</g>
<!-- Node3&#45;&gt;Node10 -->
<g id="edge24" class="edge"><title>Node3&#45;&gt;Node10</title>
<path fill="none" stroke="midnightblue" d="M503.445,-62.4682C567.453,-53.3994 674.657,-38.4072 767,-24 772.767,-23.1002 778.816,-22.1224 784.877,-21.1333"/>
<polygon fill="midnightblue" stroke="midnightblue" points="502.576,-59.0564 493.167,-63.9265 503.559,-65.9869 502.576,-59.0564"/>
</g>
<!-- Node4&#45;&gt;Node3 -->
<g id="edge8" class="edge"><title>Node4&#45;&gt;Node3</title>
<path fill="none" stroke="midnightblue" d="M122.445,-22.8004C125.001,-23.2108 127.527,-23.6125 130,-24 226.321,-39.0913 338.945,-54.9286 400.772,-63.8241"/>
<polygon fill="midnightblue" stroke="midnightblue" points="122.912,-19.3304 112.48,-21.1844 121.791,-26.2401 122.912,-19.3304"/>
</g>
<!-- Node5&#45;&gt;Node3 -->
<g id="edge12" class="edge"><title>Node5&#45;&gt;Node3</title>
<path fill="none" stroke="midnightblue" d="M249.697,-25.5461C298.066,-36.0312 363.92,-50.8051 406.012,-60.6308"/>
<polygon fill="midnightblue" stroke="midnightblue" points="250.17,-22.0675 239.656,-23.3771 248.692,-28.9097 250.17,-22.0675"/>
</g>
<!-- Node9&#45;&gt;Node3 -->
<g id="edge22" class="edge"><title>Node9&#45;&gt;Node3</title>
<path fill="none" stroke="midnightblue" d="M662.028,-25.5212C612.973,-36.5311 540.244,-52.284 493.17,-62.0646"/>
<polygon fill="midnightblue" stroke="midnightblue" points="662.827,-28.929 671.814,-23.3168 661.289,-22.1001 662.827,-28.929"/>
</g>
<!-- Node10&#45;&gt;Node3 -->
<g id="edge26" class="edge"><title>Node10&#45;&gt;Node3</title>
<path fill="none" stroke="midnightblue" d="M778.959,-24.931C673.643,-41.2372 556.686,-57.3773 493.336,-65.5466"/>
<polygon fill="midnightblue" stroke="midnightblue" points="779.769,-28.3473 789.112,-23.3528 778.693,-21.4304 779.769,-28.3473"/>
</g>
</g>
</svg>
