<?xml version="1.0" encoding="UTF-8" standalone="no"?>
<!DOCTYPE svg PUBLIC "-//W3C//DTD SVG 1.1//EN"
 "http://www.w3.org/Graphics/SVG/1.1/DTD/svg11.dtd">
<!-- Generated by graphviz version 2.28.0 (20121015.0031)
 -->
<!-- Title: include/fa/graph.h Pages: 1 -->
<svg width="724pt" height="272pt"
 viewBox="0.00 0.00 724.03 272.00" xmlns="http://www.w3.org/2000/svg" xmlns:xlink="http://www.w3.org/1999/xlink">
<g id="graph1" class="graph" transform="scale(1 1) rotate(0) translate(4 268)">
<title>include/fa/graph.h</title>
<!-- Node1 -->
<g id="node1" class="node"><title>Node1</title>
<polygon fill="#bfbfbf" stroke="black" points="549.937,-240.695 549.937,-263.305 662.063,-263.305 662.063,-240.695 549.937,-240.695"/>
<text text-anchor="middle" x="606" y="-248.305" font-family="Futura" font-size="11.00">include/fa/graph.h</text>
</g>
<!-- Node2 -->
<g id="node3" class="node"><title>Node2</title>
<a xlink:href="fa_2fa_8h.html" target="_top" xlink:title="fa.h">
<polygon fill="none" stroke="red" points="517.273,-120.695 517.273,-143.305 552.727,-143.305 552.727,-120.695 517.273,-120.695"/>
<text text-anchor="middle" x="535" y="-128.305" font-family="Futura" font-size="11.00">fa.h</text>
</a>
</g>
<!-- Node1&#45;&gt;Node2 -->
<g id="edge2" class="edge"><title>Node1&#45;&gt;Node2</title>
<path fill="none" stroke="midnightblue" d="M586.867,-240.375C575.688,-231.422 562.671,-217.883 554,-204 544.155,-188.238 536.693,-168.437 533.438,-153.753"/>
<polygon fill="midnightblue" stroke="midnightblue" points="536.859,-152.981 531.799,-143.673 529.95,-154.105 536.859,-152.981"/>
</g>
<!-- Node8 -->
<g id="node16" class="node"><title>Node8</title>
<a xlink:href="pair_8h.html" target="_top" xlink:title="fa/pair.h">
<polygon fill="none" stroke="black" points="643.694,-60.6953 643.694,-83.3047 704.306,-83.3047 704.306,-60.6953 643.694,-60.6953"/>
<text text-anchor="middle" x="674" y="-68.3047" font-family="Futura" font-size="11.00">fa/pair.h</text>
</a>
</g>
<!-- Node1&#45;&gt;Node8 -->
<g id="edge28" class="edge"><title>Node1&#45;&gt;Node8</title>
<path fill="none" stroke="midnightblue" d="M618.986,-240.419C628.794,-231.691 641.763,-218.434 649,-204 667.071,-167.961 672.125,-120.342 673.509,-93.5688"/>
<polygon fill="midnightblue" stroke="midnightblue" points="677.011,-93.5949 673.905,-83.4655 670.016,-93.3207 677.011,-93.5949"/>
</g>
<!-- Node9 -->
<g id="node19" class="node"><title>Node9</title>
<a xlink:href="list_8h.html" target="_top" xlink:title="fa/list.h">
<polygon fill="none" stroke="black" points="612.949,-0.695312 612.949,-23.3047 667.051,-23.3047 667.051,-0.695312 612.949,-0.695312"/>
<text text-anchor="middle" x="640" y="-8.30469" font-family="Futura" font-size="11.00">fa/list.h</text>
</a>
</g>
<!-- Node1&#45;&gt;Node9 -->
<g id="edge30" class="edge"><title>Node1&#45;&gt;Node9</title>
<path fill="none" stroke="midnightblue" d="M624.829,-240.665C638.465,-232.338 656.458,-219.487 668,-204 702.037,-158.328 702.837,-140.046 713,-84 714.903,-73.5045 718.108,-69.364 713,-60 705.065,-45.4547 690.486,-34.735 676.431,-27.2374"/>
<polygon fill="midnightblue" stroke="midnightblue" points="677.863,-24.0415 667.345,-22.7678 674.773,-30.3226 677.863,-24.0415"/>
</g>
<!-- Node10 -->
<g id="node26" class="node"><title>Node10</title>
<a xlink:href="string_8h.html" target="_top" xlink:title="fa/string.h">
<polygon fill="none" stroke="black" points="571.87,-180.695 571.87,-203.305 640.13,-203.305 640.13,-180.695 571.87,-180.695"/>
<text text-anchor="middle" x="606" y="-188.305" font-family="Futura" font-size="11.00">fa/string.h</text>
</a>
</g>
<!-- Node1&#45;&gt;Node10 -->
<g id="edge32" class="edge"><title>Node1&#45;&gt;Node10</title>
<path fill="none" stroke="midnightblue" d="M606,-240.631C606,-233.218 606,-222.989 606,-213.91"/>
<polygon fill="midnightblue" stroke="midnightblue" points="609.5,-213.672 606,-203.672 602.5,-213.672 609.5,-213.672"/>
</g>
<!-- Node2&#45;&gt;Node1 -->
<g id="edge26" class="edge"><title>Node2&#45;&gt;Node1</title>
<path fill="none" stroke="midnightblue" d="M543.95,-143.673C551.044,-158.079 559.646,-184.221 572,-204 578.503,-214.412 587.451,-224.631 594.767,-232.867"/>
<polygon fill="midnightblue" stroke="midnightblue" points="592.15,-235.19 601.389,-240.375 597.4,-230.56 592.15,-235.19"/>
</g>
<!-- Node3 -->
<g id="node5" class="node"><title>Node3</title>
<a xlink:href="atomic_8h.html" target="_top" xlink:title="fa/atomic.h">
<polygon fill="none" stroke="red" points="-0.0629883,-60.6953 -0.0629883,-83.3047 74.063,-83.3047 74.063,-60.6953 -0.0629883,-60.6953"/>
<text text-anchor="middle" x="37" y="-68.3047" font-family="Futura" font-size="11.00">fa/atomic.h</text>
</a>
</g>
<!-- Node2&#45;&gt;Node3 -->
<g id="edge4" class="edge"><title>Node2&#45;&gt;Node3</title>
<path fill="none" stroke="midnightblue" d="M517.138,-130.184C456.159,-126.93 252.658,-113.674 80.5523,-85.0693"/>
<polygon fill="midnightblue" stroke="midnightblue" points="81.0086,-81.597 70.5659,-83.386 79.8451,-88.4996 81.0086,-81.597"/>
</g>
<!-- Node4 -->
<g id="node8" class="node"><title>Node4</title>
<a xlink:href="queue_8h.html" target="_top" xlink:title="fa/atomic/queue.h">
<polygon fill="none" stroke="red" points="91.6484,-60.6953 91.6484,-83.3047 202.352,-83.3047 202.352,-60.6953 91.6484,-60.6953"/>
<text text-anchor="middle" x="147" y="-68.3047" font-family="Futura" font-size="11.00">fa/atomic/queue.h</text>
</a>
</g>
<!-- Node2&#45;&gt;Node4 -->
<g id="edge8" class="edge"><title>Node2&#45;&gt;Node4</title>
<path fill="none" stroke="midnightblue" d="M517.062,-128.566C469.295,-122.048 334.834,-103.471 212.406,-84.1957"/>
<polygon fill="midnightblue" stroke="midnightblue" points="212.912,-80.7323 202.488,-82.6284 211.819,-87.6465 212.912,-80.7323"/>
</g>
<!-- Node5 -->
<g id="node10" class="node"><title>Node5</title>
<a xlink:href="stack_8h.html" target="_top" xlink:title="fa/atomic/stack.h">
<polygon fill="none" stroke="red" points="220.42,-60.6953 220.42,-83.3047 325.58,-83.3047 325.58,-60.6953 220.42,-60.6953"/>
<text text-anchor="middle" x="273" y="-68.3047" font-family="Futura" font-size="11.00">fa/atomic/stack.h</text>
</a>
</g>
<!-- Node2&#45;&gt;Node5 -->
<g id="edge10" class="edge"><title>Node2&#45;&gt;Node5</title>
<path fill="none" stroke="midnightblue" d="M516.992,-127.013C478.959,-118.594 389.073,-98.6955 329.668,-85.5448"/>
<polygon fill="midnightblue" stroke="midnightblue" points="330.2,-82.0779 319.68,-83.3337 328.687,-88.9125 330.2,-82.0779"/>
</g>
<!-- Node6 -->
<g id="node12" class="node"><title>Node6</title>
<a xlink:href="ring__buffer_8h.html" target="_top" xlink:title="fa/atomic/ring_buffer.h">
<polygon fill="none" stroke="red" points="343.526,-60.6953 343.526,-83.3047 478.474,-83.3047 478.474,-60.6953 343.526,-60.6953"/>
<text text-anchor="middle" x="411" y="-68.3047" font-family="Futura" font-size="11.00">fa/atomic/ring_buffer.h</text>
</a>
</g>
<!-- Node2&#45;&gt;Node6 -->
<g id="edge12" class="edge"><title>Node2&#45;&gt;Node6</title>
<path fill="none" stroke="midnightblue" d="M517.234,-122.69C497.811,-113.605 466.303,-98.8674 442.634,-87.7967"/>
<polygon fill="midnightblue" stroke="midnightblue" points="443.891,-84.5206 433.35,-83.454 440.925,-90.8613 443.891,-84.5206"/>
</g>
<!-- Node7 -->
<g id="node14" class="node"><title>Node7</title>
<a xlink:href="system_8h.html" target="_top" xlink:title="fa/system.h">
<polygon fill="none" stroke="red" points="496.026,-60.6953 496.026,-83.3047 569.974,-83.3047 569.974,-60.6953 496.026,-60.6953"/>
<text text-anchor="middle" x="533" y="-68.3047" font-family="Futura" font-size="11.00">fa/system.h</text>
</a>
</g>
<!-- Node2&#45;&gt;Node7 -->
<g id="edge14" class="edge"><title>Node2&#45;&gt;Node7</title>
<path fill="none" stroke="midnightblue" d="M534.642,-120.631C534.387,-113.218 534.034,-102.989 533.721,-93.9096"/>
<polygon fill="midnightblue" stroke="midnightblue" points="537.211,-93.5453 533.368,-83.6719 530.215,-93.7866 537.211,-93.5453"/>
</g>
<!-- Node2&#45;&gt;Node8 -->
<g id="edge16" class="edge"><title>Node2&#45;&gt;Node8</title>
<path fill="none" stroke="midnightblue" d="M552.787,-121.422C573.34,-112.081 607.414,-97.7624 634.283,-87.1158"/>
<polygon fill="midnightblue" stroke="midnightblue" points="635.786,-90.2857 643.818,-83.3755 633.23,-83.7692 635.786,-90.2857"/>
</g>
<!-- Node2&#45;&gt;Node9 -->
<g id="edge24" class="edge"><title>Node2&#45;&gt;Node9</title>
<path fill="none" stroke="midnightblue" d="M537.593,-120.609C544.394,-111.127 557.65,-96.6982 569,-84 585.103,-65.9845 603.256,-45.1309 617.464,-30.7065"/>
<polygon fill="midnightblue" stroke="midnightblue" points="620.217,-32.91 624.914,-23.4133 615.32,-27.9081 620.217,-32.91"/>
</g>
<!-- Node3&#45;&gt;Node2 -->
<g id="edge6" class="edge"><title>Node3&#45;&gt;Node2</title>
<path fill="none" stroke="midnightblue" d="M74.1523,-80.3932C80.1558,-81.7352 86.2532,-83.0185 92,-84 247.76,-110.604 436.464,-124.348 506.914,-129.071"/>
<polygon fill="midnightblue" stroke="midnightblue" points="506.973,-132.582 517.183,-129.752 507.436,-125.598 506.973,-132.582"/>
</g>
<!-- Node8&#45;&gt;Node2 -->
<g id="edge18" class="edge"><title>Node8&#45;&gt;Node2</title>
<path fill="none" stroke="midnightblue" d="M654.245,-83.4687C630.118,-94.3533 589.596,-111.231 562.47,-121.673"/>
<polygon fill="midnightblue" stroke="midnightblue" points="560.907,-118.522 552.792,-125.333 563.384,-125.069 560.907,-118.522"/>
</g>
<!-- Node8&#45;&gt;Node9 -->
<g id="edge20" class="edge"><title>Node8&#45;&gt;Node9</title>
<path fill="none" stroke="midnightblue" d="M667.921,-60.6308C663.337,-52.8107 656.916,-41.8562 651.387,-32.4241"/>
<polygon fill="midnightblue" stroke="midnightblue" points="654.333,-30.5288 646.256,-23.6719 648.294,-34.0689 654.333,-30.5288"/>
</g>
<!-- Node9&#45;&gt;Node2 -->
<g id="edge22" class="edge"><title>Node9&#45;&gt;Node2</title>
<path fill="none" stroke="midnightblue" d="M637.006,-23.6526C627.799,-37.5995 605.976,-62.7703 587,-84 578.133,-93.9205 568.102,-104.897 559.027,-113.746"/>
<polygon fill="midnightblue" stroke="midnightblue" points="556.596,-111.227 551.674,-120.609 561.373,-116.344 556.596,-111.227"/>
</g>
<!-- Node10&#45;&gt;Node2 -->
<g id="edge34" class="edge"><title>Node10&#45;&gt;Node2</title>
<path fill="none" stroke="midnightblue" d="M593.307,-180.631C582.936,-172.159 568.062,-160.009 555.933,-150.1"/>
<polygon fill="midnightblue" stroke="midnightblue" points="558.023,-147.288 548.064,-143.672 553.594,-152.709 558.023,-147.288"/>
</g>
</g>
</svg>
