<?xml version="1.0" encoding="UTF-8" standalone="no"?>
<!DOCTYPE svg PUBLIC "-//W3C//DTD SVG 1.1//EN"
 "http://www.w3.org/Graphics/SVG/1.1/DTD/svg11.dtd">
<!-- Generated by graphviz version 2.28.0 (20121015.0031)
 -->
<!-- Title: include/fa/audio/device.h Pages: 1 -->
<svg width="379pt" height="392pt"
 viewBox="0.00 0.00 378.84 392.00" xmlns="http://www.w3.org/2000/svg" xmlns:xlink="http://www.w3.org/1999/xlink">
<g id="graph1" class="graph" transform="scale(1 1) rotate(0) translate(4 388)">
<title>include/fa/audio/device.h</title>
<!-- Node1 -->
<g id="node1" class="node"><title>Node1</title>
<polygon fill="#bfbfbf" stroke="black" points="204.544,-360.695 204.544,-383.305 353.145,-383.305 353.145,-360.695 204.544,-360.695"/>
<text text-anchor="middle" x="278.844" y="-368.305" font-family="Futura" font-size="11.00">include/fa/audio/device.h</text>
</g>
<!-- Node2 -->
<g id="node3" class="node"><title>Node2</title>
<a xlink:href="action_8h.html" target="_top" xlink:title="fa/action.h">
<polygon fill="none" stroke="black" points="92.1538,-240.695 92.1538,-263.305 163.535,-263.305 163.535,-240.695 92.1538,-240.695"/>
<text text-anchor="middle" x="127.844" y="-248.305" font-family="Futura" font-size="11.00">fa/action.h</text>
</a>
</g>
<!-- Node1&#45;&gt;Node2 -->
<g id="edge2" class="edge"><title>Node1&#45;&gt;Node2</title>
<path fill="none" stroke="midnightblue" d="M242.896,-360.674C221.156,-353.112 193.865,-341.152 173.844,-324 157.375,-309.89 144.601,-288.437 136.739,-272.805"/>
<polygon fill="midnightblue" stroke="midnightblue" points="139.764,-271.02 132.292,-263.509 133.45,-274.041 139.764,-271.02"/>
</g>
<!-- Node6 -->
<g id="node14" class="node"><title>Node6</title>
<a xlink:href="time_8h.html" target="_top" xlink:title="fa/time.h">
<polygon fill="none" stroke="red" points="223.001,-60.6953 223.001,-83.3047 284.688,-83.3047 284.688,-60.6953 223.001,-60.6953"/>
<text text-anchor="middle" x="253.844" y="-68.3047" font-family="Futura" font-size="11.00">fa/time.h</text>
</a>
</g>
<!-- Node1&#45;&gt;Node6 -->
<g id="edge38" class="edge"><title>Node1&#45;&gt;Node6</title>
<path fill="none" stroke="midnightblue" d="M295.292,-360.491C321.755,-342.149 370.844,-301.577 370.844,-253 370.844,-253 370.844,-253 370.844,-191 370.844,-142.537 320.464,-106.866 285.822,-88.0669"/>
<polygon fill="midnightblue" stroke="midnightblue" points="287.444,-84.965 276.96,-83.4343 284.201,-91.1686 287.444,-84.965"/>
</g>
<!-- Node9 -->
<g id="node29" class="node"><title>Node9</title>
<a xlink:href="clock_8h.html" target="_top" xlink:title="fa/clock.h">
<polygon fill="none" stroke="black" points="276.385,-240.695 276.385,-263.305 343.303,-263.305 343.303,-240.695 276.385,-240.695"/>
<text text-anchor="middle" x="309.844" y="-248.305" font-family="Futura" font-size="11.00">fa/clock.h</text>
</a>
</g>
<!-- Node1&#45;&gt;Node9 -->
<g id="edge40" class="edge"><title>Node1&#45;&gt;Node9</title>
<path fill="none" stroke="midnightblue" d="M285.235,-360.595C290.596,-351.34 297.98,-337.256 301.844,-324 306.666,-307.462 308.61,-287.973 309.381,-273.601"/>
<polygon fill="midnightblue" stroke="midnightblue" points="312.889,-273.455 309.779,-263.327 305.894,-273.184 312.889,-273.455"/>
</g>
<!-- Node10 -->
<g id="node33" class="node"><title>Node10</title>
<a xlink:href="audio_2session_8h.html" target="_top" xlink:title="fa/audio/session.h">
<polygon fill="none" stroke="red" points="182.721,-300.695 182.721,-323.305 292.968,-323.305 292.968,-300.695 182.721,-300.695"/>
<text text-anchor="middle" x="237.844" y="-308.305" font-family="Futura" font-size="11.00">fa/audio/session.h</text>
</a>
</g>
<!-- Node1&#45;&gt;Node10 -->
<g id="edge46" class="edge"><title>Node1&#45;&gt;Node10</title>
<path fill="none" stroke="midnightblue" d="M271.515,-360.631C265.929,-352.729 258.081,-341.628 251.367,-332.13"/>
<polygon fill="midnightblue" stroke="midnightblue" points="254.019,-329.817 245.388,-323.672 248.303,-333.858 254.019,-329.817"/>
</g>
<!-- Node3 -->
<g id="node5" class="node"><title>Node3</title>
<a xlink:href="fa_2fa_8h.html" target="_top" xlink:title="fa.h">
<polygon fill="none" stroke="red" points="110.117,-180.695 110.117,-203.305 145.572,-203.305 145.572,-180.695 110.117,-180.695"/>
<text text-anchor="middle" x="127.844" y="-188.305" font-family="Futura" font-size="11.00">fa.h</text>
</a>
</g>
<!-- Node2&#45;&gt;Node3 -->
<g id="edge4" class="edge"><title>Node2&#45;&gt;Node3</title>
<path fill="none" stroke="midnightblue" d="M122.529,-240.631C121.167,-233.137 120.775,-222.764 121.352,-213.611"/>
<polygon fill="midnightblue" stroke="midnightblue" points="124.83,-214.001 122.474,-203.672 117.874,-213.216 124.83,-214.001"/>
</g>
<!-- Node4 -->
<g id="node7" class="node"><title>Node4</title>
<a xlink:href="pair_8h.html" target="_top" xlink:title="fa/pair.h">
<polygon fill="none" stroke="black" points="71.5383,-60.6953 71.5383,-83.3047 132.151,-83.3047 132.151,-60.6953 71.5383,-60.6953"/>
<text text-anchor="middle" x="101.844" y="-68.3047" font-family="Futura" font-size="11.00">fa/pair.h</text>
</a>
</g>
<!-- Node2&#45;&gt;Node4 -->
<g id="edge32" class="edge"><title>Node2&#45;&gt;Node4</title>
<path fill="none" stroke="midnightblue" d="M109.091,-240.482C81.8796,-224.005 32.552,-189.255 12.8445,-144 8.58571,-134.22 7.33783,-129.135 12.8445,-120 23.5495,-102.241 43.4549,-90.8466 61.7303,-83.7328"/>
<polygon fill="midnightblue" stroke="midnightblue" points="63.1183,-86.9538 71.363,-80.2998 60.7683,-80.36 63.1183,-86.9538"/>
</g>
<!-- Node5 -->
<g id="node10" class="node"><title>Node5</title>
<a xlink:href="list_8h.html" target="_top" xlink:title="fa/list.h">
<polygon fill="none" stroke="black" points="107.793,-0.695312 107.793,-23.3047 161.896,-23.3047 161.896,-0.695312 107.793,-0.695312"/>
<text text-anchor="middle" x="134.844" y="-8.30469" font-family="Futura" font-size="11.00">fa/list.h</text>
</a>
</g>
<!-- Node2&#45;&gt;Node5 -->
<g id="edge34" class="edge"><title>Node2&#45;&gt;Node5</title>
<path fill="none" stroke="midnightblue" d="M94.4208,-240.577C74.7395,-233.034 50.5158,-221.128 33.8445,-204 6.39633,-175.8 -8.74794,-156.547 5.84448,-120 23.3245,-76.2207 70.3435,-44.9998 102.514,-27.9755"/>
<polygon fill="midnightblue" stroke="midnightblue" points="104.252,-31.0178 111.564,-23.3505 101.067,-24.7846 104.252,-31.0178"/>
</g>
<!-- Node8 -->
<g id="node20" class="node"><title>Node8</title>
<a xlink:href="signal_8h.html" target="_top" xlink:title="signal.h">
<polygon fill="none" stroke="red" points="21.5542,-120.695 21.5542,-143.305 76.1348,-143.305 76.1348,-120.695 21.5542,-120.695"/>
<text text-anchor="middle" x="48.8445" y="-128.305" font-family="Futura" font-size="11.00">signal.h</text>
</a>
</g>
<!-- Node2&#45;&gt;Node8 -->
<g id="edge36" class="edge"><title>Node2&#45;&gt;Node8</title>
<path fill="none" stroke="midnightblue" d="M120.834,-240.528C107.515,-220.635 78.3864,-177.126 61.5484,-151.975"/>
<polygon fill="midnightblue" stroke="midnightblue" points="64.4247,-149.98 55.9531,-143.618 58.608,-153.875 64.4247,-149.98"/>
</g>
<!-- Node3&#45;&gt;Node2 -->
<g id="edge22" class="edge"><title>Node3&#45;&gt;Node2</title>
<path fill="none" stroke="midnightblue" d="M133.215,-203.672C134.535,-211.16 134.908,-221.411 134.333,-230.459"/>
<polygon fill="midnightblue" stroke="midnightblue" points="130.828,-230.296 133.16,-240.631 137.782,-231.097 130.828,-230.296"/>
</g>
<!-- Node3&#45;&gt;Node4 -->
<g id="edge6" class="edge"><title>Node3&#45;&gt;Node4</title>
<path fill="none" stroke="midnightblue" d="M121.49,-180.528C114.07,-161.071 104.396,-119.023 101.12,-93.6561"/>
<polygon fill="midnightblue" stroke="midnightblue" points="104.593,-93.219 100.114,-83.6179 97.6284,-93.9171 104.593,-93.219"/>
</g>
<!-- Node3&#45;&gt;Node5 -->
<g id="edge14" class="edge"><title>Node3&#45;&gt;Node5</title>
<path fill="none" stroke="midnightblue" d="M123.509,-180.629C123.901,-171.16 127.182,-156.739 128.844,-144 133.68,-106.957 134.215,-97.2819 131.844,-60 131.292,-51.3083 130.17,-41.7669 129.681,-33.5653"/>
<polygon fill="midnightblue" stroke="midnightblue" points="133.178,-33.3602 129.519,-23.4173 126.179,-33.4718 133.178,-33.3602"/>
</g>
<!-- Node3&#45;&gt;Node6 -->
<g id="edge16" class="edge"><title>Node3&#45;&gt;Node6</title>
<path fill="none" stroke="midnightblue" d="M137.123,-180.334C148.779,-171.357 167.822,-157.805 182.844,-144 200.738,-127.557 218.735,-106.299 232.45,-91.346"/>
<polygon fill="midnightblue" stroke="midnightblue" points="235.291,-93.4356 239.602,-83.7578 230.196,-88.6345 235.291,-93.4356"/>
</g>
<!-- Node3&#45;&gt;Node8 -->
<g id="edge24" class="edge"><title>Node3&#45;&gt;Node8</title>
<path fill="none" stroke="midnightblue" d="M110.037,-181.681C96.729,-173.17 78.9385,-160.378 65.8447,-150.042"/>
<polygon fill="midnightblue" stroke="midnightblue" points="67.9799,-147.267 58.0128,-143.674 63.5639,-152.698 67.9799,-147.267"/>
</g>
<!-- Node4&#45;&gt;Node3 -->
<g id="edge8" class="edge"><title>Node4&#45;&gt;Node3</title>
<path fill="none" stroke="midnightblue" d="M108.254,-83.6179C115.685,-103.187 125.35,-145.25 128.594,-170.534"/>
<polygon fill="midnightblue" stroke="midnightblue" points="125.115,-170.922 129.584,-180.528 132.081,-170.232 125.115,-170.922"/>
</g>
<!-- Node4&#45;&gt;Node5 -->
<g id="edge10" class="edge"><title>Node4&#45;&gt;Node5</title>
<path fill="none" stroke="midnightblue" d="M107.744,-60.6308C112.194,-52.8107 118.426,-41.8562 123.793,-32.4241"/>
<polygon fill="midnightblue" stroke="midnightblue" points="126.869,-34.0944 128.773,-23.6719 120.785,-30.6327 126.869,-34.0944"/>
</g>
<!-- Node5&#45;&gt;Node3 -->
<g id="edge12" class="edge"><title>Node5&#45;&gt;Node3</title>
<path fill="none" stroke="midnightblue" d="M143.601,-23.4173C147.033,-32.9173 149.041,-47.3576 149.844,-60 152.215,-97.2819 151.68,-106.957 146.844,-144 145.675,-152.957 143.706,-162.746 141.142,-171.06"/>
<polygon fill="midnightblue" stroke="midnightblue" points="137.789,-170.036 137.591,-180.629 144.351,-172.471 137.789,-170.036"/>
</g>
<!-- Node6&#45;&gt;Node3 -->
<g id="edge18" class="edge"><title>Node6&#45;&gt;Node3</title>
<path fill="none" stroke="midnightblue" d="M251.753,-83.7578C243.404,-98.2611 222.052,-124.511 200.844,-144 186.723,-156.977 169.048,-169.731 154.408,-178.671"/>
<polygon fill="midnightblue" stroke="midnightblue" points="152.627,-175.658 145.744,-183.712 156.148,-181.708 152.627,-175.658"/>
</g>
<!-- Node7 -->
<g id="node17" class="node"><title>Node7</title>
<a xlink:href="ratio_8h.html" target="_top" xlink:title="fa/ratio.h">
<polygon fill="none" stroke="red" points="221.771,-0.695312 221.771,-23.3047 285.918,-23.3047 285.918,-0.695312 221.771,-0.695312"/>
<text text-anchor="middle" x="253.844" y="-8.30469" font-family="Futura" font-size="11.00">fa/ratio.h</text>
</a>
</g>
<!-- Node6&#45;&gt;Node7 -->
<g id="edge20" class="edge"><title>Node6&#45;&gt;Node7</title>
<path fill="none" stroke="midnightblue" d="M253.844,-60.6308C253.844,-53.218 253.844,-42.9888 253.844,-33.9096"/>
<polygon fill="midnightblue" stroke="midnightblue" points="257.345,-33.6718 253.844,-23.6719 250.345,-33.6719 257.345,-33.6718"/>
</g>
<!-- Node8&#45;&gt;Node3 -->
<g id="edge26" class="edge"><title>Node8&#45;&gt;Node3</title>
<path fill="none" stroke="midnightblue" d="M68.4472,-143.475C81.6383,-152.03 98.6148,-164.286 111.16,-174.208"/>
<polygon fill="midnightblue" stroke="midnightblue" points="109.075,-177.024 119.037,-180.631 113.499,-171.599 109.075,-177.024"/>
</g>
<!-- Node8&#45;&gt;Node4 -->
<g id="edge28" class="edge"><title>Node8&#45;&gt;Node4</title>
<path fill="none" stroke="midnightblue" d="M58.3198,-120.631C65.7635,-112.485 76.3151,-100.938 85.1647,-91.2533"/>
<polygon fill="midnightblue" stroke="midnightblue" points="87.9306,-93.415 92.0926,-83.6719 82.7631,-88.693 87.9306,-93.415"/>
</g>
<!-- Node8&#45;&gt;Node6 -->
<g id="edge30" class="edge"><title>Node8&#45;&gt;Node6</title>
<path fill="none" stroke="midnightblue" d="M76.4917,-123.178C111.654,-113.23 172.657,-95.9702 213.14,-84.5165"/>
<polygon fill="midnightblue" stroke="midnightblue" points="214.292,-87.8279 222.961,-81.7376 212.386,-81.0923 214.292,-87.8279"/>
</g>
<!-- Node9&#45;&gt;Node3 -->
<g id="edge42" class="edge"><title>Node9&#45;&gt;Node3</title>
<path fill="none" stroke="midnightblue" d="M277.307,-240.631C242.617,-229.576 188.271,-212.257 155.552,-201.83"/>
<polygon fill="midnightblue" stroke="midnightblue" points="156.332,-198.405 145.741,-198.703 154.206,-205.075 156.332,-198.405"/>
</g>
<!-- Node9&#45;&gt;Node6 -->
<g id="edge44" class="edge"><title>Node9&#45;&gt;Node6</title>
<path fill="none" stroke="midnightblue" d="M309.384,-240.396C308.078,-217.556 303.228,-162.352 285.844,-120 281.716,-109.94 275.215,-99.8357 269.148,-91.5873"/>
<polygon fill="midnightblue" stroke="midnightblue" points="271.751,-89.2308 262.868,-83.4555 266.21,-93.5094 271.751,-89.2308"/>
</g>
<!-- Node10&#45;&gt;Node2 -->
<g id="edge48" class="edge"><title>Node10&#45;&gt;Node2</title>
<path fill="none" stroke="midnightblue" d="M218.179,-300.631C201.078,-291.614 176.075,-278.431 156.707,-268.218"/>
<polygon fill="midnightblue" stroke="midnightblue" points="158.189,-265.043 147.711,-263.475 154.924,-271.235 158.189,-265.043"/>
</g>
<!-- Node10&#45;&gt;Node6 -->
<g id="edge50" class="edge"><title>Node10&#45;&gt;Node6</title>
<path fill="none" stroke="midnightblue" d="M238.553,-300.466C241.01,-263.911 249.199,-142.104 252.474,-93.3903"/>
<polygon fill="midnightblue" stroke="midnightblue" points="255.966,-93.6243 253.145,-83.412 248.982,-93.1547 255.966,-93.6243"/>
</g>
<!-- Node10&#45;&gt;Node9 -->
<g id="edge52" class="edge"><title>Node10&#45;&gt;Node9</title>
<path fill="none" stroke="midnightblue" d="M250.717,-300.631C261.233,-292.159 276.316,-280.009 288.616,-270.1"/>
<polygon fill="midnightblue" stroke="midnightblue" points="291.005,-272.671 296.597,-263.672 286.613,-267.22 291.005,-272.671"/>
</g>
</g>
</svg>
