<?xml version="1.0" encoding="UTF-8" standalone="no"?>
<!DOCTYPE svg PUBLIC "-//W3C//DTD SVG 1.1//EN"
 "http://www.w3.org/Graphics/SVG/1.1/DTD/svg11.dtd">
<!-- Generated by graphviz version 2.28.0 (20121015.0031)
 -->
<!-- Title: include/fa/list.h Pages: 1 -->
<svg width="841pt" height="152pt"
 viewBox="0.00 0.00 841.00 152.00" xmlns="http://www.w3.org/2000/svg" xmlns:xlink="http://www.w3.org/1999/xlink">
<g id="graph1" class="graph" transform="scale(1 1) rotate(0) translate(4 148)">
<title>include/fa/list.h</title>
<!-- Node1 -->
<g id="node1" class="node"><title>Node1</title>
<polygon fill="#bfbfbf" stroke="black" points="529.385,-120.695 529.385,-143.305 624.615,-143.305 624.615,-120.695 529.385,-120.695"/>
<text text-anchor="middle" x="577" y="-128.305" font-family="Futura" font-size="11.00">include/fa/list.h</text>
</g>
<!-- Node2 -->
<g id="node3" class="node"><title>Node2</title>
<a xlink:href="fa_2fa_8h.html" target="_top" xlink:title="fa.h">
<polygon fill="none" stroke="red" points="559.273,-60.6953 559.273,-83.3047 594.727,-83.3047 594.727,-60.6953 559.273,-60.6953"/>
<text text-anchor="middle" x="577" y="-68.3047" font-family="Futura" font-size="11.00">fa.h</text>
</a>
</g>
<!-- Node1&#45;&gt;Node2 -->
<g id="edge2" class="edge"><title>Node1&#45;&gt;Node2</title>
<path fill="none" stroke="midnightblue" d="M571.684,-120.631C570.323,-113.137 569.931,-102.764 570.508,-93.6107"/>
<polygon fill="midnightblue" stroke="midnightblue" points="573.986,-94.0015 571.63,-83.6719 567.03,-93.2159 573.986,-94.0015"/>
</g>
<!-- Node2&#45;&gt;Node1 -->
<g id="edge28" class="edge"><title>Node2&#45;&gt;Node1</title>
<path fill="none" stroke="midnightblue" d="M582.37,-83.6719C583.691,-91.1602 584.064,-101.411 583.488,-110.459"/>
<polygon fill="midnightblue" stroke="midnightblue" points="579.984,-110.296 582.316,-120.631 586.938,-111.097 579.984,-110.296"/>
</g>
<!-- Node3 -->
<g id="node5" class="node"><title>Node3</title>
<a xlink:href="atomic_8h.html" target="_top" xlink:title="fa/atomic.h">
<polygon fill="none" stroke="red" points="-0.0629883,-0.695312 -0.0629883,-23.3047 74.063,-23.3047 74.063,-0.695312 -0.0629883,-0.695312"/>
<text text-anchor="middle" x="37" y="-8.30469" font-family="Futura" font-size="11.00">fa/atomic.h</text>
</a>
</g>
<!-- Node2&#45;&gt;Node3 -->
<g id="edge4" class="edge"><title>Node2&#45;&gt;Node3</title>
<path fill="none" stroke="midnightblue" d="M559.146,-70.3561C494.665,-67.6163 269.909,-55.6638 80.2159,-24.9736"/>
<polygon fill="midnightblue" stroke="midnightblue" points="80.5032,-21.474 70.0684,-23.3082 79.3695,-28.3816 80.5032,-21.474"/>
</g>
<!-- Node4 -->
<g id="node8" class="node"><title>Node4</title>
<a xlink:href="queue_8h.html" target="_top" xlink:title="fa/atomic/queue.h">
<polygon fill="none" stroke="red" points="91.6484,-0.695312 91.6484,-23.3047 202.352,-23.3047 202.352,-0.695312 91.6484,-0.695312"/>
<text text-anchor="middle" x="147" y="-8.30469" font-family="Futura" font-size="11.00">fa/atomic/queue.h</text>
</a>
</g>
<!-- Node2&#45;&gt;Node4 -->
<g id="edge8" class="edge"><title>Node2&#45;&gt;Node4</title>
<path fill="none" stroke="midnightblue" d="M559.063,-68.9704C507.112,-63.0345 351.871,-44.892 212.486,-24.1796"/>
<polygon fill="midnightblue" stroke="midnightblue" points="212.887,-20.7007 202.48,-22.684 211.852,-27.6238 212.887,-20.7007"/>
</g>
<!-- Node5 -->
<g id="node10" class="node"><title>Node5</title>
<a xlink:href="stack_8h.html" target="_top" xlink:title="fa/atomic/stack.h">
<polygon fill="none" stroke="red" points="220.42,-0.695312 220.42,-23.3047 325.58,-23.3047 325.58,-0.695312 220.42,-0.695312"/>
<text text-anchor="middle" x="273" y="-8.30469" font-family="Futura" font-size="11.00">fa/atomic/stack.h</text>
</a>
</g>
<!-- Node2&#45;&gt;Node5 -->
<g id="edge10" class="edge"><title>Node2&#45;&gt;Node5</title>
<path fill="none" stroke="midnightblue" d="M558.894,-67.5455C515.948,-59.352 406.258,-38.4242 335.911,-25.0029"/>
<polygon fill="midnightblue" stroke="midnightblue" points="336.309,-21.5157 325.831,-23.0795 334.998,-28.3917 336.309,-21.5157"/>
</g>
<!-- Node6 -->
<g id="node12" class="node"><title>Node6</title>
<a xlink:href="ring__buffer_8h.html" target="_top" xlink:title="fa/atomic/ring_buffer.h">
<polygon fill="none" stroke="red" points="343.526,-0.695312 343.526,-23.3047 478.474,-23.3047 478.474,-0.695312 343.526,-0.695312"/>
<text text-anchor="middle" x="411" y="-8.30469" font-family="Futura" font-size="11.00">fa/atomic/ring_buffer.h</text>
</a>
</g>
<!-- Node2&#45;&gt;Node6 -->
<g id="edge12" class="edge"><title>Node2&#45;&gt;Node6</title>
<path fill="none" stroke="midnightblue" d="M559.235,-64.793C533.429,-55.7763 484.893,-38.8181 450.394,-26.7643"/>
<polygon fill="midnightblue" stroke="midnightblue" points="451.218,-23.3448 440.624,-23.3504 448.91,-29.9531 451.218,-23.3448"/>
</g>
<!-- Node7 -->
<g id="node14" class="node"><title>Node7</title>
<a xlink:href="system_8h.html" target="_top" xlink:title="fa/system.h">
<polygon fill="none" stroke="red" points="496.026,-0.695312 496.026,-23.3047 569.974,-23.3047 569.974,-0.695312 496.026,-0.695312"/>
<text text-anchor="middle" x="533" y="-8.30469" font-family="Futura" font-size="11.00">fa/system.h</text>
</a>
</g>
<!-- Node2&#45;&gt;Node7 -->
<g id="edge14" class="edge"><title>Node2&#45;&gt;Node7</title>
<path fill="none" stroke="midnightblue" d="M569.134,-60.6308C563.078,-52.6478 554.544,-41.3984 547.29,-31.8366"/>
<polygon fill="midnightblue" stroke="midnightblue" points="549.928,-29.5234 541.096,-23.6719 544.351,-33.7542 549.928,-29.5234"/>
</g>
<!-- Node8 -->
<g id="node16" class="node"><title>Node8</title>
<a xlink:href="error_8h.html" target="_top" xlink:title="fa/error.h">
<polygon fill="none" stroke="red" points="588.161,-0.695312 588.161,-23.3047 653.839,-23.3047 653.839,-0.695312 588.161,-0.695312"/>
<text text-anchor="middle" x="621" y="-8.30469" font-family="Futura" font-size="11.00">fa/error.h</text>
</a>
</g>
<!-- Node2&#45;&gt;Node8 -->
<g id="edge16" class="edge"><title>Node2&#45;&gt;Node8</title>
<path fill="none" stroke="midnightblue" d="M579.55,-60.6308C584.25,-52.4848 592.676,-40.9379 600.833,-31.2533"/>
<polygon fill="midnightblue" stroke="midnightblue" points="603.534,-33.4825 607.534,-23.6719 598.289,-28.8465 603.534,-33.4825"/>
</g>
<!-- Node9 -->
<g id="node19" class="node"><title>Node9</title>
<a xlink:href="pair_8h.html" target="_top" xlink:title="fa/pair.h">
<polygon fill="none" stroke="black" points="772.694,-0.695312 772.694,-23.3047 833.306,-23.3047 833.306,-0.695312 772.694,-0.695312"/>
<text text-anchor="middle" x="803" y="-8.30469" font-family="Futura" font-size="11.00">fa/pair.h</text>
</a>
</g>
<!-- Node2&#45;&gt;Node9 -->
<g id="edge20" class="edge"><title>Node2&#45;&gt;Node9</title>
<path fill="none" stroke="midnightblue" d="M594.978,-65.1488C627.245,-56.4108 695.87,-39.3354 754,-24 756.742,-23.2766 759.587,-22.5155 762.471,-21.7454"/>
<polygon fill="midnightblue" stroke="midnightblue" points="763.562,-25.0771 772.334,-19.1343 761.771,-18.3102 763.562,-25.0771"/>
</g>
<!-- Node10 -->
<g id="node23" class="node"><title>Node10</title>
<polygon fill="none" stroke="#bfbfbf" points="671.804,-0.695312 671.804,-23.3047 754.196,-23.3047 754.196,-0.695312 671.804,-0.695312"/>
<text text-anchor="middle" x="713" y="-8.30469" font-family="Futura" font-size="11.00">fa/pair/left.h</text>
</g>
<!-- Node2&#45;&gt;Node10 -->
<g id="edge26" class="edge"><title>Node2&#45;&gt;Node10</title>
<path fill="none" stroke="midnightblue" d="M594.78,-63.4175C616.198,-54.2834 652.634,-38.7444 679.408,-27.3261"/>
<polygon fill="midnightblue" stroke="midnightblue" points="680.963,-30.4677 688.789,-23.3254 678.217,-24.0288 680.963,-30.4677"/>
</g>
<!-- Node3&#45;&gt;Node2 -->
<g id="edge6" class="edge"><title>Node3&#45;&gt;Node2</title>
<path fill="none" stroke="midnightblue" d="M74.1456,-20.4326C80.1497,-21.7716 86.249,-23.0436 92,-24 264.531,-52.6915 474.092,-65.4347 548.959,-69.4806"/>
<polygon fill="midnightblue" stroke="midnightblue" points="548.835,-72.9788 559.007,-70.0153 549.207,-65.9887 548.835,-72.9788"/>
</g>
<!-- Node8&#45;&gt;Node2 -->
<g id="edge18" class="edge"><title>Node8&#45;&gt;Node2</title>
<path fill="none" stroke="midnightblue" d="M618.274,-23.6719C613.483,-31.9008 605.016,-43.4659 596.866,-53.1038"/>
<polygon fill="midnightblue" stroke="midnightblue" points="594.205,-50.8293 590.182,-60.6308 599.439,-55.4772 594.205,-50.8293"/>
</g>
<!-- Node9&#45;&gt;Node1 -->
<g id="edge24" class="edge"><title>Node9&#45;&gt;Node1</title>
<path fill="none" stroke="midnightblue" d="M782.989,-23.4482C742.903,-44.3779 652.621,-91.5163 606.032,-115.842"/>
<polygon fill="midnightblue" stroke="midnightblue" points="604.301,-112.797 597.056,-120.528 607.54,-119.002 604.301,-112.797"/>
</g>
<!-- Node9&#45;&gt;Node2 -->
<g id="edge22" class="edge"><title>Node9&#45;&gt;Node2</title>
<path fill="none" stroke="midnightblue" d="M774.532,-23.3289C773.681,-23.5556 772.836,-23.7795 772,-24 712.831,-39.6095 642.789,-57.0219 604.629,-65.6094"/>
<polygon fill="midnightblue" stroke="midnightblue" points="603.759,-62.2171 594.747,-67.7886 605.266,-69.0529 603.759,-62.2171"/>
</g>
</g>
</svg>
