<?xml version="1.0" encoding="UTF-8" standalone="no"?>
<!DOCTYPE svg PUBLIC "-//W3C//DTD SVG 1.1//EN"
 "http://www.w3.org/Graphics/SVG/1.1/DTD/svg11.dtd">
<!-- Generated by graphviz version 2.28.0 (20121015.0031)
 -->
<!-- Title: include/fa/audio.h Pages: 1 -->
<svg width="449pt" height="392pt"
 viewBox="0.00 0.00 449.00 392.00" xmlns="http://www.w3.org/2000/svg" xmlns:xlink="http://www.w3.org/1999/xlink">
<g id="graph1" class="graph" transform="scale(1 1) rotate(0) translate(4 388)">
<title>include/fa/audio.h</title>
<!-- Node1 -->
<g id="node1" class="node"><title>Node1</title>
<polygon fill="#bfbfbf" stroke="black" points="250.592,-360.695 250.592,-383.305 361.408,-383.305 361.408,-360.695 250.592,-360.695"/>
<text text-anchor="middle" x="306" y="-368.305" font-family="Futura" font-size="11.00">include/fa/audio.h</text>
</g>
<!-- Node2 -->
<g id="node3" class="node"><title>Node2</title>
<a xlink:href="audio_2session_8h.html" target="_top" xlink:title="fa/audio/session.h">
<polygon fill="none" stroke="black" points="231.877,-180.695 231.877,-203.305 342.123,-203.305 342.123,-180.695 231.877,-180.695"/>
<text text-anchor="middle" x="287" y="-188.305" font-family="Futura" font-size="11.00">fa/audio/session.h</text>
</a>
</g>
<!-- Node1&#45;&gt;Node2 -->
<g id="edge2" class="edge"><title>Node1&#45;&gt;Node2</title>
<path fill="none" stroke="midnightblue" d="M304.896,-360.661C301.853,-332.15 293.298,-252.001 289.218,-213.78"/>
<polygon fill="midnightblue" stroke="midnightblue" points="292.648,-212.94 288.107,-203.368 285.688,-213.683 292.648,-212.94"/>
</g>
<!-- Node9 -->
<g id="node19" class="node"><title>Node9</title>
<a xlink:href="audio_2device_8h.html" target="_top" xlink:title="fa/audio/device.h">
<polygon fill="none" stroke="black" points="334.262,-240.695 334.262,-263.305 441.738,-263.305 441.738,-240.695 334.262,-240.695"/>
<text text-anchor="middle" x="388" y="-248.305" font-family="Futura" font-size="11.00">fa/audio/device.h</text>
</a>
</g>
<!-- Node1&#45;&gt;Node9 -->
<g id="edge20" class="edge"><title>Node1&#45;&gt;Node9</title>
<path fill="none" stroke="midnightblue" d="M313.277,-360.528C327.101,-340.635 357.336,-297.126 374.814,-271.975"/>
<polygon fill="midnightblue" stroke="midnightblue" points="377.789,-273.827 380.621,-263.618 372.041,-269.832 377.789,-273.827"/>
</g>
<!-- Node10 -->
<g id="node25" class="node"><title>Node10</title>
<a xlink:href="audio_2stream_8h.html" target="_top" xlink:title="fa/audio/stream.h">
<polygon fill="none" stroke="red" points="92.8596,-300.695 92.8596,-323.305 201.14,-323.305 201.14,-300.695 92.8596,-300.695"/>
<text text-anchor="middle" x="147" y="-308.305" font-family="Futura" font-size="11.00">fa/audio/stream.h</text>
</a>
</g>
<!-- Node1&#45;&gt;Node10 -->
<g id="edge30" class="edge"><title>Node1&#45;&gt;Node10</title>
<path fill="none" stroke="midnightblue" d="M277.574,-360.631C251.765,-351.216 213.503,-337.259 185.061,-326.884"/>
<polygon fill="midnightblue" stroke="midnightblue" points="186.041,-323.516 175.448,-323.377 183.643,-330.092 186.041,-323.516"/>
</g>
<!-- Node3 -->
<g id="node5" class="node"><title>Node3</title>
<a xlink:href="action_8h.html" target="_top" xlink:title="fa/action.h">
<polygon fill="none" stroke="red" points="73.3093,-120.695 73.3093,-143.305 144.691,-143.305 144.691,-120.695 73.3093,-120.695"/>
<text text-anchor="middle" x="109" y="-128.305" font-family="Futura" font-size="11.00">fa/action.h</text>
</a>
</g>
<!-- Node2&#45;&gt;Node3 -->
<g id="edge4" class="edge"><title>Node2&#45;&gt;Node3</title>
<path fill="none" stroke="midnightblue" d="M255.177,-180.631C225.906,-171.093 182.325,-156.892 150.364,-146.478"/>
<polygon fill="midnightblue" stroke="midnightblue" points="151.439,-143.147 140.847,-143.377 149.271,-149.803 151.439,-143.147"/>
</g>
<!-- Node6 -->
<g id="node12" class="node"><title>Node6</title>
<a xlink:href="time_8h.html" target="_top" xlink:title="fa/time.h">
<polygon fill="none" stroke="red" points="305.157,-60.6953 305.157,-83.3047 366.843,-83.3047 366.843,-60.6953 305.157,-60.6953"/>
<text text-anchor="middle" x="336" y="-68.3047" font-family="Futura" font-size="11.00">fa/time.h</text>
</a>
</g>
<!-- Node2&#45;&gt;Node6 -->
<g id="edge12" class="edge"><title>Node2&#45;&gt;Node6</title>
<path fill="none" stroke="midnightblue" d="M291.348,-180.528C299.5,-160.897 317.203,-118.267 327.704,-92.9777"/>
<polygon fill="midnightblue" stroke="midnightblue" points="330.988,-94.1956 331.591,-83.6179 324.523,-91.511 330.988,-94.1956"/>
</g>
<!-- Node7 -->
<g id="node14" class="node"><title>Node7</title>
<a xlink:href="clock_8h.html" target="_top" xlink:title="fa/clock.h">
<polygon fill="none" stroke="red" points="334.541,-120.695 334.541,-143.305 401.459,-143.305 401.459,-120.695 334.541,-120.695"/>
<text text-anchor="middle" x="368" y="-128.305" font-family="Futura" font-size="11.00">fa/clock.h</text>
</a>
</g>
<!-- Node2&#45;&gt;Node7 -->
<g id="edge14" class="edge"><title>Node2&#45;&gt;Node7</title>
<path fill="none" stroke="midnightblue" d="M301.481,-180.631C313.615,-171.942 331.153,-159.384 345.175,-149.344"/>
<polygon fill="midnightblue" stroke="midnightblue" points="347.278,-152.143 353.371,-143.475 343.203,-146.451 347.278,-152.143"/>
</g>
<!-- Node8 -->
<g id="node17" class="node"><title>Node8</title>
<a xlink:href="error_8h.html" target="_top" xlink:title="fa/error.h">
<polygon fill="none" stroke="red" points="208.161,-120.695 208.161,-143.305 273.839,-143.305 273.839,-120.695 208.161,-120.695"/>
<text text-anchor="middle" x="241" y="-128.305" font-family="Futura" font-size="11.00">fa/error.h</text>
</a>
</g>
<!-- Node2&#45;&gt;Node8 -->
<g id="edge18" class="edge"><title>Node2&#45;&gt;Node8</title>
<path fill="none" stroke="midnightblue" d="M278.776,-180.631C272.38,-172.566 263.341,-161.168 255.708,-151.544"/>
<polygon fill="midnightblue" stroke="midnightblue" points="258.42,-149.332 249.464,-143.672 252.936,-153.682 258.42,-149.332"/>
</g>
<!-- Node4 -->
<g id="node7" class="node"><title>Node4</title>
<a xlink:href="pair_8h.html" target="_top" xlink:title="fa/pair.h">
<polygon fill="none" stroke="red" points="27.6938,-60.6953 27.6938,-83.3047 88.3062,-83.3047 88.3062,-60.6953 27.6938,-60.6953"/>
<text text-anchor="middle" x="58" y="-68.3047" font-family="Futura" font-size="11.00">fa/pair.h</text>
</a>
</g>
<!-- Node3&#45;&gt;Node4 -->
<g id="edge6" class="edge"><title>Node3&#45;&gt;Node4</title>
<path fill="none" stroke="midnightblue" d="M99.8822,-120.631C92.7194,-112.485 82.566,-100.938 74.0503,-91.2533"/>
<polygon fill="midnightblue" stroke="midnightblue" points="76.6157,-88.8704 67.3839,-83.6719 71.3589,-93.4928 76.6157,-88.8704"/>
</g>
<!-- Node5 -->
<g id="node9" class="node"><title>Node5</title>
<a xlink:href="list_8h.html" target="_top" xlink:title="fa/list.h">
<polygon fill="none" stroke="red" points="30.9487,-0.695312 30.9487,-23.3047 85.0513,-23.3047 85.0513,-0.695312 30.9487,-0.695312"/>
<text text-anchor="middle" x="58" y="-8.30469" font-family="Futura" font-size="11.00">fa/list.h</text>
</a>
</g>
<!-- Node3&#45;&gt;Node5 -->
<g id="edge10" class="edge"><title>Node3&#45;&gt;Node5</title>
<path fill="none" stroke="midnightblue" d="M108.904,-120.392C108.405,-106.058 106.173,-79.9988 97,-60 92.0933,-49.3022 84.1095,-39.0452 76.6395,-30.858"/>
<polygon fill="midnightblue" stroke="midnightblue" points="78.9327,-28.1938 69.4737,-23.4211 73.8919,-33.0508 78.9327,-28.1938"/>
</g>
<!-- Node4&#45;&gt;Node5 -->
<g id="edge8" class="edge"><title>Node4&#45;&gt;Node5</title>
<path fill="none" stroke="midnightblue" d="M58,-60.6308C58,-53.218 58,-42.9888 58,-33.9096"/>
<polygon fill="midnightblue" stroke="midnightblue" points="61.5001,-33.6718 58,-23.6719 54.5001,-33.6719 61.5001,-33.6718"/>
</g>
<!-- Node7&#45;&gt;Node6 -->
<g id="edge16" class="edge"><title>Node7&#45;&gt;Node6</title>
<path fill="none" stroke="midnightblue" d="M362.279,-120.631C358.009,-112.892 352.046,-102.084 346.88,-92.7193"/>
<polygon fill="midnightblue" stroke="midnightblue" points="349.783,-90.7369 341.888,-83.6719 343.654,-94.1184 349.783,-90.7369"/>
</g>
<!-- Node9&#45;&gt;Node2 -->
<g id="edge28" class="edge"><title>Node9&#45;&gt;Node2</title>
<path fill="none" stroke="midnightblue" d="M369.943,-240.631C354.385,-231.696 331.702,-218.67 313.987,-208.498"/>
<polygon fill="midnightblue" stroke="midnightblue" points="315.656,-205.42 305.241,-203.475 312.17,-211.49 315.656,-205.42"/>
</g>
<!-- Node9&#45;&gt;Node3 -->
<g id="edge22" class="edge"><title>Node9&#45;&gt;Node3</title>
<path fill="none" stroke="midnightblue" d="M338.369,-240.694C304.937,-232.835 260.305,-220.537 223,-204 189.09,-188.968 153.303,-165.201 131.066,-149.36"/>
<polygon fill="midnightblue" stroke="midnightblue" points="132.842,-146.326 122.686,-143.307 128.743,-152 132.842,-146.326"/>
</g>
<!-- Node9&#45;&gt;Node6 -->
<g id="edge24" class="edge"><title>Node9&#45;&gt;Node6</title>
<path fill="none" stroke="midnightblue" d="M394.073,-240.391C406.548,-217.069 432.101,-160.22 410,-120 402.184,-105.776 388.038,-95.2467 374.193,-87.8022"/>
<polygon fill="midnightblue" stroke="midnightblue" points="375.722,-84.6536 365.208,-83.3477 372.613,-90.9252 375.722,-84.6536"/>
</g>
<!-- Node9&#45;&gt;Node7 -->
<g id="edge26" class="edge"><title>Node9&#45;&gt;Node7</title>
<path fill="none" stroke="midnightblue" d="M388.295,-240.303C388.477,-226.309 388.103,-201.086 384,-180 382.24,-170.957 379.161,-161.273 376.171,-153.06"/>
<polygon fill="midnightblue" stroke="midnightblue" points="379.391,-151.68 372.537,-143.601 372.856,-154.191 379.391,-151.68"/>
</g>
<!-- Node10&#45;&gt;Node3 -->
<g id="edge32" class="edge"><title>Node10&#45;&gt;Node3</title>
<path fill="none" stroke="midnightblue" d="M136.853,-300.429C129.007,-291.507 118.714,-277.983 114,-264 101.404,-226.635 103.567,-179.846 106.281,-153.502"/>
<polygon fill="midnightblue" stroke="midnightblue" points="109.76,-153.887 107.437,-143.55 102.807,-153.08 109.76,-153.887"/>
</g>
<!-- Node10&#45;&gt;Node4 -->
<g id="edge40" class="edge"><title>Node10&#45;&gt;Node4</title>
<path fill="none" stroke="midnightblue" d="M135.248,-300.427C125.937,-291.504 113.177,-277.98 105,-264 76.5442,-215.351 75.5707,-199.16 64,-144 60.5132,-127.378 59.0406,-108.163 58.4247,-93.9176"/>
<polygon fill="midnightblue" stroke="midnightblue" points="61.9158,-93.5839 58.0923,-83.703 54.9195,-93.8116 61.9158,-93.5839"/>
</g>
<!-- Node10&#45;&gt;Node5 -->
<g id="edge38" class="edge"><title>Node10&#45;&gt;Node5</title>
<path fill="none" stroke="midnightblue" d="M113.275,-300.64C69.8758,-284.966 0,-250.761 0,-193 0,-193 0,-193 0,-131 0,-98.3341 4.0008,-89.0187 19,-60 24.4042,-49.5447 32.454,-39.3199 39.8393,-31.0914"/>
<polygon fill="midnightblue" stroke="midnightblue" points="42.5861,-33.2792 46.8804,-23.5937 37.4834,-28.4873 42.5861,-33.2792"/>
</g>
<!-- Node10&#45;&gt;Node6 -->
<g id="edge34" class="edge"><title>Node10&#45;&gt;Node6</title>
<path fill="none" stroke="midnightblue" d="M146.659,-300.274C146.24,-268.353 149.41,-172.906 199,-120 223.952,-93.3802 264.63,-81.8373 295.191,-76.832"/>
<polygon fill="midnightblue" stroke="midnightblue" points="295.745,-80.2884 305.131,-75.3729 294.728,-73.3626 295.745,-80.2884"/>
</g>
<!-- Node10&#45;&gt;Node7 -->
<g id="edge36" class="edge"><title>Node10&#45;&gt;Node7</title>
<path fill="none" stroke="midnightblue" d="M187.699,-300.682C234.327,-286.709 309.61,-257.179 351,-204 362.213,-189.593 366.19,-168.921 367.524,-153.595"/>
<polygon fill="midnightblue" stroke="midnightblue" points="371.022,-153.729 368.093,-143.547 364.033,-153.332 371.022,-153.729"/>
</g>
<!-- Node10&#45;&gt;Node8 -->
<g id="edge42" class="edge"><title>Node10&#45;&gt;Node8</title>
<path fill="none" stroke="midnightblue" d="M152.46,-300.661C167.711,-271.781 210.941,-189.92 230.798,-152.319"/>
<polygon fill="midnightblue" stroke="midnightblue" points="233.95,-153.845 235.525,-143.368 227.76,-150.576 233.95,-153.845"/>
</g>
<!-- Node10&#45;&gt;Node9 -->
<g id="edge44" class="edge"><title>Node10&#45;&gt;Node9</title>
<path fill="none" stroke="midnightblue" d="M190.086,-300.631C230.657,-290.867 291.532,-276.216 335.047,-265.744"/>
<polygon fill="midnightblue" stroke="midnightblue" points="335.978,-269.12 344.881,-263.377 334.34,-262.314 335.978,-269.12"/>
</g>
</g>
</svg>
