<?xml version="1.0" encoding="UTF-8" standalone="no"?>
<!DOCTYPE svg PUBLIC "-//W3C//DTD SVG 1.1//EN"
 "http://www.w3.org/Graphics/SVG/1.1/DTD/svg11.dtd">
<!-- Generated by graphviz version 2.28.0 (20121015.0031)
 -->
<!-- Title: include/fa/buffer.h Pages: 1 -->
<svg width="687pt" height="332pt"
 viewBox="0.00 0.00 686.95 332.00" xmlns="http://www.w3.org/2000/svg" xmlns:xlink="http://www.w3.org/1999/xlink">
<g id="graph1" class="graph" transform="scale(1 1) rotate(0) translate(4 328)">
<title>include/fa/buffer.h</title>
<!-- Node1 -->
<g id="node1" class="node"><title>Node1</title>
<polygon fill="#bfbfbf" stroke="black" points="388.227,-300.695 388.227,-323.305 499.773,-323.305 499.773,-300.695 388.227,-300.695"/>
<text text-anchor="middle" x="444" y="-308.305" font-family="Futura" font-size="11.00">include/fa/buffer.h</text>
</g>
<!-- Node2 -->
<g id="node3" class="node"><title>Node2</title>
<a xlink:href="fa_2fa_8h.html" target="_top" xlink:title="fa.h">
<polygon fill="none" stroke="red" points="426.273,-180.695 426.273,-203.305 461.727,-203.305 461.727,-180.695 426.273,-180.695"/>
<text text-anchor="middle" x="444" y="-188.305" font-family="Futura" font-size="11.00">fa.h</text>
</a>
</g>
<!-- Node1&#45;&gt;Node2 -->
<g id="edge2" class="edge"><title>Node1&#45;&gt;Node2</title>
<path fill="none" stroke="midnightblue" d="M444,-300.528C444,-281.071 444,-239.023 444,-213.656"/>
<polygon fill="midnightblue" stroke="midnightblue" points="447.5,-213.618 444,-203.618 440.5,-213.618 447.5,-213.618"/>
</g>
<!-- Node4 -->
<g id="node8" class="node"><title>Node4</title>
<a xlink:href="std_8h.html" target="_top" xlink:title="fa/std.h">
<polygon fill="none" stroke="red" points="75.3901,-60.6953 75.3901,-83.3047 130.61,-83.3047 130.61,-60.6953 75.3901,-60.6953"/>
<text text-anchor="middle" x="103" y="-68.3047" font-family="Futura" font-size="11.00">fa/std.h</text>
</a>
</g>
<!-- Node1&#45;&gt;Node4 -->
<g id="edge24" class="edge"><title>Node1&#45;&gt;Node4</title>
<path fill="none" stroke="midnightblue" d="M388.015,-305.642C299.906,-293.854 131.282,-256.957 57,-144 44.8635,-125.545 62.8617,-104.27 79.777,-89.8576"/>
<polygon fill="midnightblue" stroke="midnightblue" points="82.2466,-92.3635 87.8571,-83.3761 77.8666,-86.9031 82.2466,-92.3635"/>
</g>
<!-- Node5 -->
<g id="node10" class="node"><title>Node5</title>
<a xlink:href="string_8h.html" target="_top" xlink:title="fa/string.h">
<polygon fill="none" stroke="black" points="238.87,-0.695312 238.87,-23.3047 307.13,-23.3047 307.13,-0.695312 238.87,-0.695312"/>
<text text-anchor="middle" x="273" y="-8.30469" font-family="Futura" font-size="11.00">fa/string.h</text>
</a>
</g>
<!-- Node1&#45;&gt;Node5 -->
<g id="edge28" class="edge"><title>Node1&#45;&gt;Node5</title>
<path fill="none" stroke="midnightblue" d="M388.217,-307.889C268.967,-299.712 0,-272.46 0,-193 0,-193 0,-193 0,-131 0,-32.7413 150.854,-15.3608 228.286,-12.9115"/>
<polygon fill="midnightblue" stroke="midnightblue" points="228.789,-16.4004 238.701,-12.6581 228.619,-9.40244 228.789,-16.4004"/>
</g>
<!-- Node9 -->
<g id="node19" class="node"><title>Node9</title>
<a xlink:href="pair_8h.html" target="_top" xlink:title="fa/pair.h">
<polygon fill="none" stroke="red" points="600.694,-120.695 600.694,-143.305 661.306,-143.305 661.306,-120.695 600.694,-120.695"/>
<text text-anchor="middle" x="631" y="-128.305" font-family="Futura" font-size="11.00">fa/pair.h</text>
</a>
</g>
<!-- Node1&#45;&gt;Node9 -->
<g id="edge26" class="edge"><title>Node1&#45;&gt;Node9</title>
<path fill="none" stroke="midnightblue" d="M454.862,-300.661C485.718,-271.29 574.146,-187.118 612.681,-150.437"/>
<polygon fill="midnightblue" stroke="midnightblue" points="615.278,-152.798 620.108,-143.368 610.451,-147.727 615.278,-152.798"/>
</g>
<!-- Node10 -->
<g id="node25" class="node"><title>Node10</title>
<a xlink:href="map_8h.html" target="_top" xlink:title="fa/map.h">
<polygon fill="none" stroke="red" points="549.477,-240.695 549.477,-263.305 612.523,-263.305 612.523,-240.695 549.477,-240.695"/>
<text text-anchor="middle" x="581" y="-248.305" font-family="Futura" font-size="11.00">fa/map.h</text>
</a>
</g>
<!-- Node1&#45;&gt;Node10 -->
<g id="edge30" class="edge"><title>Node1&#45;&gt;Node10</title>
<path fill="none" stroke="midnightblue" d="M468.493,-300.631C490.371,-291.368 522.636,-277.709 547.011,-267.39"/>
<polygon fill="midnightblue" stroke="midnightblue" points="548.413,-270.597 556.257,-263.475 545.684,-264.151 548.413,-270.597"/>
</g>
<!-- Node3 -->
<g id="node5" class="node"><title>Node3</title>
<a xlink:href="atomic_8h.html" target="_top" xlink:title="fa/atomic.h">
<polygon fill="none" stroke="black" points="65.937,-120.695 65.937,-143.305 140.063,-143.305 140.063,-120.695 65.937,-120.695"/>
<text text-anchor="middle" x="103" y="-128.305" font-family="Futura" font-size="11.00">fa/atomic.h</text>
</a>
</g>
<!-- Node2&#45;&gt;Node3 -->
<g id="edge4" class="edge"><title>Node2&#45;&gt;Node3</title>
<path fill="none" stroke="midnightblue" d="M426.185,-189.173C380.191,-183.691 255.444,-166.485 147.163,-145.392"/>
<polygon fill="midnightblue" stroke="midnightblue" points="147.561,-141.904 137.073,-143.406 146.209,-148.772 147.561,-141.904"/>
</g>
<!-- Node6 -->
<g id="node13" class="node"><title>Node6</title>
<a xlink:href="queue_8h.html" target="_top" xlink:title="fa/atomic/queue.h">
<polygon fill="none" stroke="red" points="471.648,-120.695 471.648,-143.305 582.352,-143.305 582.352,-120.695 471.648,-120.695"/>
<text text-anchor="middle" x="527" y="-128.305" font-family="Futura" font-size="11.00">fa/atomic/queue.h</text>
</a>
</g>
<!-- Node2&#45;&gt;Node6 -->
<g id="edge14" class="edge"><title>Node2&#45;&gt;Node6</title>
<path fill="none" stroke="midnightblue" d="M458.839,-180.631C471.272,-171.942 489.243,-159.384 503.611,-149.344"/>
<polygon fill="midnightblue" stroke="midnightblue" points="505.818,-152.072 512.01,-143.475 501.808,-146.334 505.818,-152.072"/>
</g>
<!-- Node7 -->
<g id="node15" class="node"><title>Node7</title>
<a xlink:href="stack_8h.html" target="_top" xlink:title="fa/atomic/stack.h">
<polygon fill="none" stroke="red" points="158.42,-120.695 158.42,-143.305 263.58,-143.305 263.58,-120.695 158.42,-120.695"/>
<text text-anchor="middle" x="211" y="-128.305" font-family="Futura" font-size="11.00">fa/atomic/stack.h</text>
</a>
</g>
<!-- Node2&#45;&gt;Node7 -->
<g id="edge16" class="edge"><title>Node2&#45;&gt;Node7</title>
<path fill="none" stroke="midnightblue" d="M426.104,-186.545C391.538,-177.941 314.432,-158.747 262.562,-145.835"/>
<polygon fill="midnightblue" stroke="midnightblue" points="263.094,-142.361 252.544,-143.342 261.403,-149.154 263.094,-142.361"/>
</g>
<!-- Node8 -->
<g id="node17" class="node"><title>Node8</title>
<a xlink:href="ring__buffer_8h.html" target="_top" xlink:title="fa/atomic/ring_buffer.h">
<polygon fill="none" stroke="red" points="281.526,-120.695 281.526,-143.305 416.474,-143.305 416.474,-120.695 281.526,-120.695"/>
<text text-anchor="middle" x="349" y="-128.305" font-family="Futura" font-size="11.00">fa/atomic/ring_buffer.h</text>
</a>
</g>
<!-- Node2&#45;&gt;Node8 -->
<g id="edge18" class="edge"><title>Node2&#45;&gt;Node8</title>
<path fill="none" stroke="midnightblue" d="M427.016,-180.631C412.516,-171.778 391.437,-158.909 374.844,-148.778"/>
<polygon fill="midnightblue" stroke="midnightblue" points="376.516,-145.699 366.157,-143.475 372.869,-151.673 376.516,-145.699"/>
</g>
<!-- Node2&#45;&gt;Node9 -->
<g id="edge20" class="edge"><title>Node2&#45;&gt;Node9</title>
<path fill="none" stroke="midnightblue" d="M461.972,-184.004C491.623,-174.005 550.891,-155.539 590.843,-143.784"/>
<polygon fill="midnightblue" stroke="midnightblue" points="591.935,-147.111 600.554,-140.949 589.974,-140.391 591.935,-147.111"/>
</g>
<!-- Node3&#45;&gt;Node2 -->
<g id="edge6" class="edge"><title>Node3&#45;&gt;Node2</title>
<path fill="none" stroke="midnightblue" d="M140.197,-140.149C146.197,-141.51 152.282,-142.863 158,-144 252.261,-162.751 364.64,-178.984 416.096,-186.518"/>
<polygon fill="midnightblue" stroke="midnightblue" points="415.721,-190 426.123,-187.992 416.738,-183.075 415.721,-190"/>
</g>
<!-- Node3&#45;&gt;Node4 -->
<g id="edge8" class="edge"><title>Node3&#45;&gt;Node4</title>
<path fill="none" stroke="midnightblue" d="M103,-120.631C103,-113.218 103,-102.989 103,-93.9096"/>
<polygon fill="midnightblue" stroke="midnightblue" points="106.5,-93.6718 103,-83.6719 99.5001,-93.6719 106.5,-93.6718"/>
</g>
<!-- Node4&#45;&gt;Node5 -->
<g id="edge10" class="edge"><title>Node4&#45;&gt;Node5</title>
<path fill="none" stroke="midnightblue" d="M130.692,-61.5522C158.453,-52.0807 201.481,-37.4008 232.958,-26.6613"/>
<polygon fill="midnightblue" stroke="midnightblue" points="234.404,-29.8662 242.738,-23.3246 232.144,-23.2411 234.404,-29.8662"/>
</g>
<!-- Node5&#45;&gt;Node2 -->
<g id="edge12" class="edge"><title>Node5&#45;&gt;Node2</title>
<path fill="none" stroke="midnightblue" d="M297.007,-23.3619C330.795,-39.1933 391.934,-72.634 425,-120 435.36,-134.841 440.073,-155.033 442.216,-170.09"/>
<polygon fill="midnightblue" stroke="midnightblue" points="438.785,-170.895 443.404,-180.43 445.739,-170.095 438.785,-170.895"/>
</g>
<!-- Node9&#45;&gt;Node2 -->
<g id="edge22" class="edge"><title>Node9&#45;&gt;Node2</title>
<path fill="none" stroke="midnightblue" d="M602.836,-143.385C567.254,-155.079 506.763,-173.768 471.489,-183.904"/>
<polygon fill="midnightblue" stroke="midnightblue" points="470.496,-180.547 461.829,-186.641 472.404,-187.282 470.496,-180.547"/>
</g>
<!-- Node10&#45;&gt;Node2 -->
<g id="edge32" class="edge"><title>Node10&#45;&gt;Node2</title>
<path fill="none" stroke="midnightblue" d="M556.507,-240.631C532.454,-230.448 495.848,-214.95 470.974,-204.42"/>
<polygon fill="midnightblue" stroke="midnightblue" points="472.319,-201.188 461.746,-200.513 469.59,-207.635 472.319,-201.188"/>
</g>
<!-- Node10&#45;&gt;Node5 -->
<g id="edge36" class="edge"><title>Node10&#45;&gt;Node5</title>
<path fill="none" stroke="midnightblue" d="M597.734,-240.529C631.763,-217.947 703.11,-163.215 670,-120 626.9,-63.7451 411.833,-30.3857 317.486,-18.2473"/>
<polygon fill="midnightblue" stroke="midnightblue" points="317.76,-14.7542 307.4,-16.9715 316.882,-21.6988 317.76,-14.7542"/>
</g>
<!-- Node10&#45;&gt;Node9 -->
<g id="edge34" class="edge"><title>Node10&#45;&gt;Node9</title>
<path fill="none" stroke="midnightblue" d="M585.437,-240.528C593.756,-220.897 611.819,-178.267 622.535,-152.978"/>
<polygon fill="midnightblue" stroke="midnightblue" points="625.822,-154.191 626.501,-143.618 619.377,-151.46 625.822,-154.191"/>
</g>
</g>
</svg>
