<?xml version="1.0" encoding="UTF-8" standalone="no"?>
<!DOCTYPE svg PUBLIC "-//W3C//DTD SVG 1.1//EN"
 "http://www.w3.org/Graphics/SVG/1.1/DTD/svg11.dtd">
<!-- Generated by graphviz version 2.28.0 (20121015.0031)
 -->
<!-- Title: Graph Legend Pages: 1 -->
<svg width="536pt" height="184pt"
 viewBox="0.00 0.00 536.00 184.00" xmlns="http://www.w3.org/2000/svg" xmlns:xlink="http://www.w3.org/1999/xlink">
<g id="graph1" class="graph" transform="scale(1 1) rotate(0) translate(4 180)">
<title>Graph Legend</title>
<!-- Node9 -->
<g id="node1" class="node"><title>Node9</title>
<polygon fill="#bfbfbf" stroke="black" points="308.149,-23.1127 247.851,-23.1127 247.851,-0.887308 308.149,-0.887308 308.149,-23.1127"/>
<text text-anchor="middle" x="278" y="-8.30469" font-family="Futura" font-size="11.00">Inherited</text>
</g>
<!-- Node10 -->
<g id="node2" class="node"><title>Node10</title>
<a xlink:href="$classPublicBase.html" xlink:title="PublicBase">
<polygon fill="none" stroke="black" points="68.1753,-99.1127 -0.175326,-99.1127 -0.175326,-76.8873 68.1753,-76.8873 68.1753,-99.1127"/>
<text text-anchor="middle" x="34" y="-84.3047" font-family="Futura" font-size="11.00">PublicBase</text>
</a>
</g>
<!-- Node10&#45;&gt;Node9 -->
<g id="edge2" class="edge"><title>Node10&#45;&gt;Node9</title>
<path fill="none" stroke="midnightblue" d="M77.0929,-73.9308C126.066,-59.0783 204.75,-35.2152 247.672,-22.1978"/>
<polygon fill="midnightblue" stroke="midnightblue" points="75.9693,-70.6141 67.4155,-76.8658 78.0009,-77.3128 75.9693,-70.6141"/>
</g>
<!-- Node11 -->
<g id="node4" class="node"><title>Node11</title>
<a xlink:href="$classTruncated.html" xlink:title="Truncated">
<polygon fill="none" stroke="red" points="66.1462,-175.113 1.85376,-175.113 1.85376,-152.887 66.1462,-152.887 66.1462,-175.113"/>
<text text-anchor="middle" x="34" y="-160.305" font-family="Futura" font-size="11.00">Truncated</text>
</a>
</g>
<!-- Node11&#45;&gt;Node10 -->
<g id="edge4" class="edge"><title>Node11&#45;&gt;Node10</title>
<path fill="none" stroke="midnightblue" d="M34,-142.486C34,-128.406 34,-110.321 34,-99.202"/>
<polygon fill="midnightblue" stroke="midnightblue" points="30.5001,-142.711 34,-152.711 37.5001,-142.711 30.5001,-142.711"/>
</g>
<!-- Node13 -->
<g id="node6" class="node"><title>Node13</title>
<a xlink:href="$classProtectedBase.html" xlink:title="ProtectedBase">
<polygon fill="none" stroke="black" points="172.878,-99.1127 87.1221,-99.1127 87.1221,-76.8873 172.878,-76.8873 172.878,-99.1127"/>
<text text-anchor="middle" x="130" y="-84.3047" font-family="Futura" font-size="11.00">ProtectedBase</text>
</a>
</g>
<!-- Node13&#45;&gt;Node9 -->
<g id="edge6" class="edge"><title>Node13&#45;&gt;Node9</title>
<path fill="none" stroke="darkgreen" d="M159.507,-72.2467C188.528,-57.7361 232.071,-35.9647 257.501,-23.2493"/>
<polygon fill="darkgreen" stroke="darkgreen" points="157.647,-69.2631 150.268,-76.8658 160.778,-75.5241 157.647,-69.2631"/>
</g>
<!-- Node14 -->
<g id="node8" class="node"><title>Node14</title>
<a xlink:href="$classPrivateBase.html" xlink:title="PrivateBase">
<polygon fill="none" stroke="black" points="264.302,-99.1127 191.698,-99.1127 191.698,-76.8873 264.302,-76.8873 264.302,-99.1127"/>
<text text-anchor="middle" x="228" y="-84.3047" font-family="Futura" font-size="11.00">PrivateBase</text>
</a>
</g>
<!-- Node14&#45;&gt;Node9 -->
<g id="edge8" class="edge"><title>Node14&#45;&gt;Node9</title>
<path fill="none" stroke="#8b1a1a" d="M240.743,-68.1398C250.399,-53.8493 263.296,-34.7617 271.107,-23.202"/>
<polygon fill="#8b1a1a" stroke="#8b1a1a" points="237.651,-66.4652 234.952,-76.7106 243.451,-70.3842 237.651,-66.4652"/>
</g>
<!-- Node15 -->
<g id="node10" class="node"><title>Node15</title>
<polygon fill="none" stroke="#bfbfbf" points="374.46,-99.1127 283.54,-99.1127 283.54,-76.8873 374.46,-76.8873 374.46,-99.1127"/>
<text text-anchor="middle" x="329" y="-84.3047" font-family="Futura" font-size="11.00">Undocumented</text>
</g>
<!-- Node15&#45;&gt;Node9 -->
<g id="edge10" class="edge"><title>Node15&#45;&gt;Node9</title>
<path fill="none" stroke="midnightblue" d="M316.002,-68.1398C306.153,-53.8493 292.998,-34.7617 285.031,-23.202"/>
<polygon fill="midnightblue" stroke="midnightblue" points="313.352,-70.4628 321.909,-76.7106 319.116,-66.4905 313.352,-70.4628"/>
</g>
<!-- Node16 -->
<g id="node12" class="node"><title>Node16</title>
<a xlink:href="$classTempl.html" xlink:title="Templ&lt; int &gt;">
<polygon fill="none" stroke="black" points="469.442,-99.1127 392.558,-99.1127 392.558,-76.8873 469.442,-76.8873 469.442,-99.1127"/>
<text text-anchor="middle" x="431" y="-84.3047" font-family="Futura" font-size="11.00">Templ&lt; int &gt;</text>
</a>
</g>
<!-- Node16&#45;&gt;Node9 -->
<g id="edge12" class="edge"><title>Node16&#45;&gt;Node9</title>
<path fill="none" stroke="midnightblue" d="M400.887,-72.4356C370.887,-57.9256 325.595,-36.02 299.191,-23.2493"/>
<polygon fill="midnightblue" stroke="midnightblue" points="399.521,-75.6625 410.047,-76.8658 402.568,-69.3608 399.521,-75.6625"/>
</g>
<!-- Node17 -->
<g id="node14" class="node"><title>Node17</title>
<a xlink:href="$classTempl.html" xlink:title="Templ&lt; T &gt;">
<polygon fill="none" stroke="black" points="466.09,-175.113 395.91,-175.113 395.91,-152.887 466.09,-152.887 466.09,-175.113"/>
<text text-anchor="middle" x="431" y="-160.305" font-family="Futura" font-size="11.00">Templ&lt; T &gt;</text>
</a>
</g>
<!-- Node17&#45;&gt;Node16 -->
<g id="edge14" class="edge"><title>Node17&#45;&gt;Node16</title>
<path fill="none" stroke="orange" stroke-dasharray="5,2" d="M431,-142.486C431,-128.406 431,-110.321 431,-99.202"/>
<polygon fill="orange" stroke="orange" points="427.5,-142.711 431,-152.711 434.5,-142.711 427.5,-142.711"/>
<text text-anchor="middle" x="447.073" y="-122.305" font-family="Futura" font-size="11.00">&lt; int &gt;</text>
</g>
<!-- Node18 -->
<g id="node16" class="node"><title>Node18</title>
<a xlink:href="$classUsed.html" xlink:title="Used">
<polygon fill="none" stroke="black" points="528.452,-99.1127 487.548,-99.1127 487.548,-76.8873 528.452,-76.8873 528.452,-99.1127"/>
<text text-anchor="middle" x="508" y="-84.3047" font-family="Futura" font-size="11.00">Used</text>
</a>
</g>
<!-- Node18&#45;&gt;Node9 -->
<g id="edge16" class="edge"><title>Node18&#45;&gt;Node9</title>
<path fill="none" stroke="#9a32cd" stroke-dasharray="5,2" d="M477.654,-75.9857C411.661,-53.6219 345.758,-33.38 308.298,-22.0663"/>
<polygon fill="#9a32cd" stroke="#9a32cd" points="476.793,-79.39 487.388,-79.2999 479.049,-72.7635 476.793,-79.39"/>
<text text-anchor="middle" x="456.014" y="-46.3047" font-family="Futura" font-size="11.00">m_usedClass</text>
</g>
</g>
</svg>
