<?xml version="1.0" encoding="UTF-8" standalone="no"?>
<!DOCTYPE svg PUBLIC "-//W3C//DTD SVG 1.1//EN"
 "http://www.w3.org/Graphics/SVG/1.1/DTD/svg11.dtd">
<!-- Generated by graphviz version 2.28.0 (20121015.0031)
 -->
<!-- Title: include/fa/action.h Pages: 1 -->
<svg width="715pt" height="272pt"
 viewBox="0.00 0.00 714.61 272.00" xmlns="http://www.w3.org/2000/svg" xmlns:xlink="http://www.w3.org/1999/xlink">
<g id="graph1" class="graph" transform="scale(1 1) rotate(0) translate(4 268)">
<title>include/fa/action.h</title>
<!-- Node1 -->
<g id="node1" class="node"><title>Node1</title>
<polygon fill="#bfbfbf" stroke="black" points="277.352,-240.695 277.352,-263.305 389.86,-263.305 389.86,-240.695 277.352,-240.695"/>
<text text-anchor="middle" x="333.606" y="-248.305" font-family="Futura" font-size="11.00">include/fa/action.h</text>
</g>
<!-- Node2 -->
<g id="node3" class="node"><title>Node2</title>
<a xlink:href="audio_8h.html" target="_top" xlink:title="include/fa/audio.h">
<polygon fill="none" stroke="black" points="186.198,-180.695 186.198,-203.305 297.014,-203.305 297.014,-180.695 186.198,-180.695"/>
<text text-anchor="middle" x="241.606" y="-188.305" font-family="Futura" font-size="11.00">include/fa/audio.h</text>
</a>
</g>
<!-- Node1&#45;&gt;Node2 -->
<g id="edge2" class="edge"><title>Node1&#45;&gt;Node2</title>
<path fill="none" stroke="midnightblue" d="M308.323,-235.061C292.357,-224.996 272.183,-212.277 258.221,-203.475"/>
<polygon fill="midnightblue" stroke="midnightblue" points="306.832,-238.258 317.158,-240.631 310.565,-232.337 306.832,-238.258"/>
</g>
<!-- Node3 -->
<g id="node5" class="node"><title>Node3</title>
<a xlink:href="fa_2fa_8h.html" target="_top" xlink:title="include/fa/fa.h">
<polygon fill="none" stroke="red" points="287.452,-120.695 287.452,-143.305 379.759,-143.305 379.759,-120.695 287.452,-120.695"/>
<text text-anchor="middle" x="333.606" y="-128.305" font-family="Futura" font-size="11.00">include/fa/fa.h</text>
</a>
</g>
<!-- Node1&#45;&gt;Node3 -->
<g id="edge40" class="edge"><title>Node1&#45;&gt;Node3</title>
<path fill="none" stroke="midnightblue" d="M328.347,-230.534C326.02,-205.25 326.416,-163.187 329.535,-143.618"/>
<polygon fill="midnightblue" stroke="midnightblue" points="324.88,-231.022 329.559,-240.528 331.829,-230.18 324.88,-231.022"/>
</g>
<!-- Node8 -->
<g id="node19" class="node"><title>Node8</title>
<a xlink:href="midi_8h.html" target="_top" xlink:title="include/fa/midi.h">
<polygon fill="none" stroke="black" points="181.078,-0.695312 181.078,-23.3047 284.133,-23.3047 284.133,-0.695312 181.078,-0.695312"/>
<text text-anchor="middle" x="232.606" y="-8.30469" font-family="Futura" font-size="11.00">include/fa/midi.h</text>
</a>
</g>
<!-- Node1&#45;&gt;Node8 -->
<g id="edge42" class="edge"><title>Node1&#45;&gt;Node8</title>
<path fill="none" stroke="midnightblue" d="M267.28,-240.429C186.858,-223.512 55.7355,-181.692 4.60565,-84 -0.340562,-74.5495 -2.13254,-68.2689 4.60565,-60 26.4026,-33.2516 120.555,-21.2758 180.845,-16.2661"/>
<polygon fill="midnightblue" stroke="midnightblue" points="266.814,-243.905 277.31,-242.465 268.206,-237.045 266.814,-243.905"/>
</g>
<!-- Node2&#45;&gt;Node3 -->
<g id="edge4" class="edge"><title>Node2&#45;&gt;Node3</title>
<path fill="none" stroke="midnightblue" d="M266.888,-175.061C282.854,-164.996 303.028,-152.277 316.99,-143.475"/>
<polygon fill="midnightblue" stroke="midnightblue" points="264.646,-172.337 258.053,-180.631 268.379,-178.258 264.646,-172.337"/>
</g>
<!-- Node3&#45;&gt;Node1 -->
<g id="edge6" class="edge"><title>Node3&#45;&gt;Node1</title>
<path fill="none" stroke="midnightblue" d="M338.882,-153.656C341.195,-179.023 340.785,-221.071 337.653,-240.528"/>
<polygon fill="midnightblue" stroke="midnightblue" points="342.344,-153.129 337.676,-143.618 335.394,-153.964 342.344,-153.129"/>
</g>
<!-- Node4 -->
<g id="node8" class="node"><title>Node4</title>
<a xlink:href="buffer_8h.html" target="_top" xlink:title="include/fa/buffer.h">
<polygon fill="none" stroke="red" points="301.832,-60.6953 301.832,-83.3047 413.379,-83.3047 413.379,-60.6953 301.832,-60.6953"/>
<text text-anchor="middle" x="357.606" y="-68.3047" font-family="Futura" font-size="11.00">include/fa/buffer.h</text>
</a>
</g>
<!-- Node3&#45;&gt;Node4 -->
<g id="edge8" class="edge"><title>Node3&#45;&gt;Node4</title>
<path fill="none" stroke="midnightblue" d="M341.737,-111.349C345.568,-102.09 349.989,-91.4071 353.19,-83.6719"/>
<polygon fill="midnightblue" stroke="midnightblue" points="338.486,-110.052 337.896,-120.631 344.954,-112.729 338.486,-110.052"/>
</g>
<!-- Node5 -->
<g id="node10" class="node"><title>Node5</title>
<a xlink:href="clock_8h.html" target="_top" xlink:title="include/fa/clock.h">
<polygon fill="none" stroke="black" points="13.5834,-60.6953 13.5834,-83.3047 121.628,-83.3047 121.628,-60.6953 13.5834,-60.6953"/>
<text text-anchor="middle" x="67.6057" y="-68.3047" font-family="Futura" font-size="11.00">include/fa/clock.h</text>
</a>
</g>
<!-- Node3&#45;&gt;Node5 -->
<g id="edge10" class="edge"><title>Node3&#45;&gt;Node5</title>
<path fill="none" stroke="midnightblue" d="M277.324,-118.728C229.18,-108.23 160.656,-93.2892 115.199,-83.3776"/>
<polygon fill="midnightblue" stroke="midnightblue" points="276.756,-122.186 287.272,-120.897 278.247,-115.347 276.756,-122.186"/>
</g>
<!-- Node6 -->
<g id="node13" class="node"><title>Node6</title>
<a xlink:href="dynamic_8h.html" target="_top" xlink:title="include/fa/dynamic.h">
<polygon fill="none" stroke="black" points="431.524,-60.6953 431.524,-83.3047 555.687,-83.3047 555.687,-60.6953 431.524,-60.6953"/>
<text text-anchor="middle" x="493.606" y="-68.3047" font-family="Futura" font-size="11.00">include/fa/dynamic.h</text>
</a>
</g>
<!-- Node3&#45;&gt;Node6 -->
<g id="edge14" class="edge"><title>Node3&#45;&gt;Node6</title>
<path fill="none" stroke="midnightblue" d="M371.883,-117.125C400.497,-106.752 439.001,-92.7941 464.979,-83.3771"/>
<polygon fill="midnightblue" stroke="midnightblue" points="370.419,-113.932 362.21,-120.631 372.805,-120.513 370.419,-113.932"/>
</g>
<!-- Node7 -->
<g id="node15" class="node"><title>Node7</title>
<a xlink:href="error_8h.html" target="_top" xlink:title="include/fa/error.h">
<polygon fill="none" stroke="black" points="139.204,-60.6953 139.204,-83.3047 246.008,-83.3047 246.008,-60.6953 139.204,-60.6953"/>
<text text-anchor="middle" x="192.606" y="-68.3047" font-family="Futura" font-size="11.00">include/fa/error.h</text>
</a>
</g>
<!-- Node3&#45;&gt;Node7 -->
<g id="edge16" class="edge"><title>Node3&#45;&gt;Node7</title>
<path fill="none" stroke="midnightblue" d="M293.699,-117C267.274,-106.677 233.848,-92.853 212.736,-83.475"/>
<polygon fill="midnightblue" stroke="midnightblue" points="292.493,-120.286 303.082,-120.631 295.019,-113.758 292.493,-120.286"/>
</g>
<!-- Node9 -->
<g id="node22" class="node"><title>Node9</title>
<a xlink:href="list_8h.html" target="_top" xlink:title="include/fa/list.h">
<polygon fill="none" stroke="red" points="611.991,-60.6953 611.991,-83.3047 707.22,-83.3047 707.22,-60.6953 611.991,-60.6953"/>
<text text-anchor="middle" x="659.606" y="-68.3047" font-family="Futura" font-size="11.00">include/fa/list.h</text>
</a>
</g>
<!-- Node3&#45;&gt;Node9 -->
<g id="edge26" class="edge"><title>Node3&#45;&gt;Node9</title>
<path fill="none" stroke="midnightblue" d="M389.944,-120.011C452.696,-108.497 552.895,-90.71 611.925,-80.6389"/>
<polygon fill="midnightblue" stroke="midnightblue" points="389.027,-116.621 379.826,-121.874 390.295,-123.506 389.027,-116.621"/>
</g>
<!-- Node10 -->
<g id="node27" class="node"><title>Node10</title>
<a xlink:href="map_8h.html" target="_top" xlink:title="include/fa/map.h">
<polygon fill="none" stroke="red" points="569.52,-0.695312 569.52,-23.3047 673.692,-23.3047 673.692,-0.695312 569.52,-0.695312"/>
<text text-anchor="middle" x="621.606" y="-8.30469" font-family="Futura" font-size="11.00">include/fa/map.h</text>
</a>
</g>
<!-- Node3&#45;&gt;Node10 -->
<g id="edge38" class="edge"><title>Node3&#45;&gt;Node10</title>
<path fill="none" stroke="midnightblue" d="M390.08,-130.106C439.41,-126.97 511.268,-116.521 564.606,-84 589.304,-68.9411 607.819,-39.1306 616.369,-23.3538"/>
<polygon fill="midnightblue" stroke="midnightblue" points="389.702,-126.621 379.911,-130.669 390.089,-133.611 389.702,-126.621"/>
</g>
<!-- Node5&#45;&gt;Node2 -->
<g id="edge12" class="edge"><title>Node5&#45;&gt;Node2</title>
<path fill="none" stroke="midnightblue" d="M91.7852,-89.3976C128.127,-114.044 195.801,-159.937 226.164,-180.528"/>
<polygon fill="midnightblue" stroke="midnightblue" points="93.5033,-86.3339 83.2625,-83.6179 89.5744,-92.1273 93.5033,-86.3339"/>
</g>
<!-- Node7&#45;&gt;Node2 -->
<g id="edge18" class="edge"><title>Node7&#45;&gt;Node2</title>
<path fill="none" stroke="midnightblue" d="M200.901,-92.9777C211.403,-118.267 229.105,-160.897 237.257,-180.528"/>
<polygon fill="midnightblue" stroke="midnightblue" points="204.082,-91.511 197.015,-83.6179 197.617,-94.1956 204.082,-91.511"/>
</g>
<!-- Node7&#45;&gt;Node3 -->
<g id="edge20" class="edge"><title>Node7&#45;&gt;Node3</title>
<path fill="none" stroke="midnightblue" d="M232.565,-87.0202C259.081,-97.3807 292.629,-111.257 313.714,-120.631"/>
<polygon fill="midnightblue" stroke="midnightblue" points="233.739,-83.7218 223.15,-83.3771 231.213,-90.2501 233.739,-83.7218"/>
</g>
<!-- Node7&#45;&gt;Node8 -->
<g id="edge22" class="edge"><title>Node7&#45;&gt;Node8</title>
<path fill="none" stroke="midnightblue" d="M205.55,-52.2313C212.071,-42.775 219.741,-31.6539 225.246,-23.6719"/>
<polygon fill="midnightblue" stroke="midnightblue" points="202.553,-50.4115 199.757,-60.6308 208.315,-54.3857 202.553,-50.4115"/>
</g>
<!-- Node8&#45;&gt;Node3 -->
<g id="edge24" class="edge"><title>Node8&#45;&gt;Node3</title>
<path fill="none" stroke="midnightblue" d="M247.953,-31.3212C260.03,-45.6982 277.314,-66.1903 292.606,-84 303.468,-96.6516 316.099,-111.09 324.439,-120.587"/>
<polygon fill="midnightblue" stroke="midnightblue" points="250.608,-29.0403 241.499,-23.6294 245.246,-33.5397 250.608,-29.0403"/>
</g>
<!-- Node9&#45;&gt;Node1 -->
<g id="edge28" class="edge"><title>Node9&#45;&gt;Node1</title>
<path fill="none" stroke="midnightblue" d="M631.77,-88.1986C566.985,-123.572 407.459,-210.675 352.542,-240.661"/>
<polygon fill="midnightblue" stroke="midnightblue" points="633.518,-91.2322 640.617,-83.368 630.163,-85.0884 633.518,-91.2322"/>
</g>
<!-- Node9&#45;&gt;Node2 -->
<g id="edge30" class="edge"><title>Node9&#45;&gt;Node2</title>
<path fill="none" stroke="midnightblue" d="M613.048,-86.143C529.191,-109.816 354.43,-159.15 278.334,-180.632"/>
<polygon fill="midnightblue" stroke="midnightblue" points="614.138,-89.4722 622.811,-83.3869 612.236,-82.7354 614.138,-89.4722"/>
</g>
<!-- Node9&#45;&gt;Node3 -->
<g id="edge32" class="edge"><title>Node9&#45;&gt;Node3</title>
<path fill="none" stroke="midnightblue" d="M601.546,-84.3043C538.202,-95.917 438.22,-113.658 379.913,-123.595"/>
<polygon fill="midnightblue" stroke="midnightblue" points="602.569,-87.675 611.771,-82.4242 601.303,-80.7904 602.569,-87.675"/>
</g>
<!-- Node9&#45;&gt;Node8 -->
<g id="edge36" class="edge"><title>Node9&#45;&gt;Node8</title>
<path fill="none" stroke="midnightblue" d="M601.769,-63.144C518.078,-51.7761 364.481,-30.9128 284.346,-20.0279"/>
<polygon fill="midnightblue" stroke="midnightblue" points="601.486,-66.6376 611.866,-64.5155 602.428,-59.7013 601.486,-66.6376"/>
</g>
<!-- Node9&#45;&gt;Node10 -->
<g id="edge34" class="edge"><title>Node9&#45;&gt;Node10</title>
<path fill="none" stroke="midnightblue" d="M647.309,-52.2313C641.113,-42.775 633.827,-31.6539 628.598,-23.6719"/>
<polygon fill="midnightblue" stroke="midnightblue" points="644.404,-54.1842 652.812,-60.6308 650.259,-50.348 644.404,-54.1842"/>
</g>
</g>
</svg>
