<?xml version="1.0" encoding="UTF-8" standalone="no"?>
<!DOCTYPE svg PUBLIC "-//W3C//DTD SVG 1.1//EN"
 "http://www.w3.org/Graphics/SVG/1.1/DTD/svg11.dtd">
<!-- Generated by graphviz version 2.28.0 (20121015.0031)
 -->
<!-- Title: include/fa/buffer.h Pages: 1 -->
<svg width="602pt" height="332pt"
 viewBox="0.00 0.00 601.75 332.00" xmlns="http://www.w3.org/2000/svg" xmlns:xlink="http://www.w3.org/1999/xlink">
<g id="graph1" class="graph" transform="scale(1 1) rotate(0) translate(4 328)">
<title>include/fa/buffer.h</title>
<!-- Node1 -->
<g id="node1" class="node"><title>Node1</title>
<polygon fill="#bfbfbf" stroke="black" points="293.977,-300.695 293.977,-323.305 405.523,-323.305 405.523,-300.695 293.977,-300.695"/>
<text text-anchor="middle" x="349.75" y="-308.305" font-family="Futura" font-size="11.00">include/fa/buffer.h</text>
</g>
<!-- Node2 -->
<g id="node3" class="node"><title>Node2</title>
<a xlink:href="message_8h.html" target="_top" xlink:title="include/fa/midi/message.h">
<polygon fill="none" stroke="black" points="273.883,-240.695 273.883,-263.305 425.616,-263.305 425.616,-240.695 273.883,-240.695"/>
<text text-anchor="middle" x="349.75" y="-248.305" font-family="Futura" font-size="11.00">include/fa/midi/message.h</text>
</a>
</g>
<!-- Node1&#45;&gt;Node2 -->
<g id="edge2" class="edge"><title>Node1&#45;&gt;Node2</title>
<path fill="none" stroke="midnightblue" d="M349.75,-290.459C349.75,-281.411 349.75,-271.16 349.75,-263.672"/>
<polygon fill="midnightblue" stroke="midnightblue" points="346.25,-290.631 349.75,-300.631 353.25,-290.631 346.25,-290.631"/>
</g>
<!-- Node10 -->
<g id="node28" class="node"><title>Node10</title>
<a xlink:href="signal_8h.html" target="_top" xlink:title="include/fa/signal.h">
<polygon fill="none" stroke="black" points="482.033,-120.695 482.033,-143.305 593.467,-143.305 593.467,-120.695 482.033,-120.695"/>
<text text-anchor="middle" x="537.75" y="-128.305" font-family="Futura" font-size="11.00">include/fa/signal.h</text>
</a>
</g>
<!-- Node1&#45;&gt;Node10 -->
<g id="edge44" class="edge"><title>Node1&#45;&gt;Node10</title>
<path fill="none" stroke="midnightblue" d="M382.939,-296.208C399.214,-288.048 418.535,-276.945 433.75,-264 477.984,-226.366 516.579,-167.579 531.347,-143.661"/>
<polygon fill="midnightblue" stroke="midnightblue" points="381.229,-293.147 373.762,-300.663 384.287,-299.444 381.229,-293.147"/>
</g>
<!-- Node3 -->
<g id="node5" class="node"><title>Node3</title>
<a xlink:href="fa_2fa_8h.html" target="_top" xlink:title="include/fa/fa.h">
<polygon fill="none" stroke="red" points="199.596,-180.695 199.596,-203.305 291.903,-203.305 291.903,-180.695 199.596,-180.695"/>
<text text-anchor="middle" x="245.75" y="-188.305" font-family="Futura" font-size="11.00">include/fa/fa.h</text>
</a>
</g>
<!-- Node2&#45;&gt;Node3 -->
<g id="edge4" class="edge"><title>Node2&#45;&gt;Node3</title>
<path fill="none" stroke="midnightblue" d="M322.176,-235.622C303.976,-225.472 280.611,-212.442 264.533,-203.475"/>
<polygon fill="midnightblue" stroke="midnightblue" points="320.718,-238.817 331.157,-240.631 324.128,-232.703 320.718,-238.817"/>
</g>
<!-- Node3&#45;&gt;Node1 -->
<g id="edge14" class="edge"><title>Node3&#45;&gt;Node1</title>
<path fill="none" stroke="midnightblue" d="M246.977,-213.554C248.833,-228.858 253.429,-249.521 264.75,-264 278.252,-281.269 299.961,-293.12 318.059,-300.601"/>
<polygon fill="midnightblue" stroke="midnightblue" points="250.456,-213.159 246.054,-203.522 243.485,-213.801 250.456,-213.159"/>
</g>
<!-- Node4 -->
<g id="node7" class="node"><title>Node4</title>
<a xlink:href="action_8h.html" target="_top" xlink:title="include/fa/action.h">
<polygon fill="none" stroke="red" points="388.496,-60.6953 388.496,-83.3047 501.004,-83.3047 501.004,-60.6953 388.496,-60.6953"/>
<text text-anchor="middle" x="444.75" y="-68.3047" font-family="Futura" font-size="11.00">include/fa/action.h</text>
</a>
</g>
<!-- Node3&#45;&gt;Node4 -->
<g id="edge6" class="edge"><title>Node3&#45;&gt;Node4</title>
<path fill="none" stroke="midnightblue" d="M302.289,-187.11C336.428,-181.873 378.685,-170.099 407.75,-144 425.693,-127.888 432.275,-98.7994 437.815,-83.329"/>
<polygon fill="midnightblue" stroke="midnightblue" points="301.406,-183.699 291.979,-188.534 302.364,-190.633 301.406,-183.699"/>
</g>
<!-- Node6 -->
<g id="node14" class="node"><title>Node6</title>
<a xlink:href="clock_8h.html" target="_top" xlink:title="include/fa/clock.h">
<polygon fill="none" stroke="black" points="12.7276,-60.6953 12.7276,-83.3047 120.772,-83.3047 120.772,-60.6953 12.7276,-60.6953"/>
<text text-anchor="middle" x="66.7498" y="-68.3047" font-family="Futura" font-size="11.00">include/fa/clock.h</text>
</a>
</g>
<!-- Node3&#45;&gt;Node6 -->
<g id="edge16" class="edge"><title>Node3&#45;&gt;Node6</title>
<path fill="none" stroke="midnightblue" d="M189.44,-186.149C134.189,-180.083 55.5607,-167.511 36.7498,-144 21.869,-125.401 42.1856,-98.3407 55.9475,-83.5774"/>
<polygon fill="midnightblue" stroke="midnightblue" points="189.152,-189.638 199.464,-187.207 189.887,-182.676 189.152,-189.638"/>
</g>
<!-- Node7 -->
<g id="node17" class="node"><title>Node7</title>
<a xlink:href="dynamic_8h.html" target="_top" xlink:title="include/fa/dynamic.h">
<polygon fill="none" stroke="black" points="283.668,-120.695 283.668,-143.305 407.831,-143.305 407.831,-120.695 283.668,-120.695"/>
<text text-anchor="middle" x="345.75" y="-128.305" font-family="Futura" font-size="11.00">include/fa/dynamic.h</text>
</a>
</g>
<!-- Node3&#45;&gt;Node7 -->
<g id="edge20" class="edge"><title>Node3&#45;&gt;Node7</title>
<path fill="none" stroke="midnightblue" d="M272.746,-175.342C290.174,-165.234 312.371,-152.359 327.689,-143.475"/>
<polygon fill="midnightblue" stroke="midnightblue" points="270.522,-172.586 263.628,-180.631 274.034,-178.641 270.522,-172.586"/>
</g>
<!-- Node8 -->
<g id="node19" class="node"><title>Node8</title>
<a xlink:href="error_8h.html" target="_top" xlink:title="include/fa/error.h">
<polygon fill="none" stroke="red" points="45.3479,-120.695 45.3479,-143.305 152.152,-143.305 152.152,-120.695 45.3479,-120.695"/>
<text text-anchor="middle" x="98.7498" y="-128.305" font-family="Futura" font-size="11.00">include/fa/error.h</text>
</a>
</g>
<!-- Node3&#45;&gt;Node8 -->
<g id="edge22" class="edge"><title>Node3&#45;&gt;Node8</title>
<path fill="none" stroke="midnightblue" d="M204.756,-177.136C177.208,-166.798 142.143,-152.894 119.964,-143.475"/>
<polygon fill="midnightblue" stroke="midnightblue" points="203.56,-180.425 214.153,-180.631 206,-173.864 203.56,-180.425"/>
</g>
<!-- Node9 -->
<g id="node23" class="node"><title>Node9</title>
<a xlink:href="list_8h.html" target="_top" xlink:title="include/fa/list.h">
<polygon fill="none" stroke="red" points="170.135,-120.695 170.135,-143.305 265.364,-143.305 265.364,-120.695 170.135,-120.695"/>
<text text-anchor="middle" x="217.75" y="-128.305" font-family="Futura" font-size="11.00">include/fa/list.h</text>
</a>
</g>
<!-- Node3&#45;&gt;Node9 -->
<g id="edge28" class="edge"><title>Node3&#45;&gt;Node9</title>
<path fill="none" stroke="midnightblue" d="M230.163,-171.938C224.912,-162.546 219.952,-151.572 217.532,-143.672"/>
<polygon fill="midnightblue" stroke="midnightblue" points="227.254,-173.891 235.428,-180.631 233.241,-170.264 227.254,-173.891"/>
</g>
<!-- Node3&#45;&gt;Node10 -->
<g id="edge36" class="edge"><title>Node3&#45;&gt;Node10</title>
<path fill="none" stroke="midnightblue" d="M302.018,-178.704C353.868,-168.087 430.269,-152.936 481.968,-143.036"/>
<polygon fill="midnightblue" stroke="midnightblue" points="301.081,-175.323 291.99,-180.764 302.49,-182.18 301.081,-175.323"/>
</g>
<!-- Node4&#45;&gt;Node3 -->
<g id="edge12" class="edge"><title>Node4&#45;&gt;Node3</title>
<path fill="none" stroke="midnightblue" d="M449.003,-93.754C447.271,-109.667 440.188,-131.035 425.75,-144 389.326,-176.707 332.183,-186.917 291.952,-189.958"/>
<polygon fill="midnightblue" stroke="midnightblue" points="452.515,-93.4392 449.347,-83.329 445.519,-93.2079 452.515,-93.4392"/>
</g>
<!-- Node5 -->
<g id="node9" class="node"><title>Node5</title>
<a xlink:href="audio_8h.html" target="_top" xlink:title="include/fa/audio.h">
<polygon fill="none" stroke="black" points="123.342,-0.695312 123.342,-23.3047 234.158,-23.3047 234.158,-0.695312 123.342,-0.695312"/>
<text text-anchor="middle" x="178.75" y="-8.30469" font-family="Futura" font-size="11.00">include/fa/audio.h</text>
</a>
</g>
<!-- Node4&#45;&gt;Node5 -->
<g id="edge8" class="edge"><title>Node4&#45;&gt;Node5</title>
<path fill="none" stroke="midnightblue" d="M387.249,-58.4623C339.173,-47.9794 271.416,-33.2054 226.341,-23.3771"/>
<polygon fill="midnightblue" stroke="midnightblue" points="386.678,-61.9199 397.194,-60.6308 388.17,-55.0806 386.678,-61.9199"/>
</g>
<!-- Node5&#45;&gt;Node3 -->
<g id="edge10" class="edge"><title>Node5&#45;&gt;Node3</title>
<path fill="none" stroke="midnightblue" d="M113.15,-22.1999C69.3155,-29.8456 17.2919,-42.341 3.74979,-60 -2.74121,-68.4643 1.73264,-73.5258 3.74979,-84 9.18112,-112.203 5.80725,-125.469 27.7498,-144 53.262,-165.546 143.374,-179.396 199.444,-186.138"/>
<polygon fill="midnightblue" stroke="midnightblue" points="113.944,-25.6156 123.223,-20.5014 112.78,-18.713 113.944,-25.6156"/>
</g>
<!-- Node6&#45;&gt;Node5 -->
<g id="edge18" class="edge"><title>Node6&#45;&gt;Node5</title>
<path fill="none" stroke="midnightblue" d="M95.9064,-55.901C115.582,-45.7119 141.048,-32.524 158.522,-23.475"/>
<polygon fill="midnightblue" stroke="midnightblue" points="94.0436,-52.9242 86.7731,-60.6308 97.2626,-59.1402 94.0436,-52.9242"/>
</g>
<!-- Node8&#45;&gt;Node3 -->
<g id="edge26" class="edge"><title>Node8&#45;&gt;Node3</title>
<path fill="none" stroke="midnightblue" d="M139.797,-146.884C167.44,-157.259 202.634,-171.216 224.785,-180.631"/>
<polygon fill="midnightblue" stroke="midnightblue" points="140.96,-143.583 130.368,-143.377 138.52,-150.144 140.96,-143.583"/>
</g>
<!-- Node8&#45;&gt;Node5 -->
<g id="edge24" class="edge"><title>Node8&#45;&gt;Node5</title>
<path fill="none" stroke="midnightblue" d="M111.49,-112.208C128.48,-87.148 157.986,-43.6261 171.551,-23.6179"/>
<polygon fill="midnightblue" stroke="midnightblue" points="108.564,-110.287 105.849,-120.528 114.358,-114.215 108.564,-110.287"/>
</g>
<!-- Node9&#45;&gt;Node3 -->
<g id="edge34" class="edge"><title>Node9&#45;&gt;Node3</title>
<path fill="none" stroke="midnightblue" d="M233.539,-152.424C238.782,-161.856 243.705,-172.811 246.06,-180.631"/>
<polygon fill="midnightblue" stroke="midnightblue" points="236.427,-150.435 228.272,-143.672 230.429,-154.045 236.427,-150.435"/>
</g>
<!-- Node9&#45;&gt;Node4 -->
<g id="edge30" class="edge"><title>Node9&#45;&gt;Node4</title>
<path fill="none" stroke="midnightblue" d="M268.113,-118.132C309.055,-107.671 366.073,-93.1025 404.136,-83.3771"/>
<polygon fill="midnightblue" stroke="midnightblue" points="267.155,-114.764 258.333,-120.631 268.888,-121.546 267.155,-114.764"/>
</g>
<!-- Node9&#45;&gt;Node5 -->
<g id="edge32" class="edge"><title>Node9&#45;&gt;Node5</title>
<path fill="none" stroke="midnightblue" d="M211.098,-110.873C202.754,-85.6281 188.756,-43.275 182.259,-23.6179"/>
<polygon fill="midnightblue" stroke="midnightblue" points="207.827,-112.132 214.289,-120.528 214.474,-109.935 207.827,-112.132"/>
</g>
<!-- Node10&#45;&gt;Node3 -->
<g id="edge42" class="edge"><title>Node10&#45;&gt;Node3</title>
<path fill="none" stroke="midnightblue" d="M480.877,-145.42C425.795,-156.695 343.421,-173.006 292.163,-182.752"/>
<polygon fill="midnightblue" stroke="midnightblue" points="481.739,-148.816 490.831,-143.376 480.331,-141.959 481.739,-148.816"/>
</g>
<!-- Node10&#45;&gt;Node4 -->
<g id="edge38" class="edge"><title>Node10&#45;&gt;Node4</title>
<path fill="none" stroke="midnightblue" d="M512.192,-115.061C496.053,-104.996 475.66,-92.2772 461.546,-83.475"/>
<polygon fill="midnightblue" stroke="midnightblue" points="510.786,-118.309 521.123,-120.631 514.49,-112.369 510.786,-118.309"/>
</g>
<!-- Node10&#45;&gt;Node5 -->
<g id="edge40" class="edge"><title>Node10&#45;&gt;Node5</title>
<path fill="none" stroke="midnightblue" d="M535.267,-110.465C532.161,-94.1837 525.215,-72.2051 509.75,-60 468.117,-27.1445 317.245,-17.2464 234.315,-14.2721"/>
<polygon fill="midnightblue" stroke="midnightblue" points="531.855,-111.3 536.861,-120.637 538.771,-110.216 531.855,-111.3"/>
</g>
</g>
</svg>
