<?xml version="1.0" encoding="UTF-8" standalone="no"?>
<!DOCTYPE svg PUBLIC "-//W3C//DTD SVG 1.1//EN"
 "http://www.w3.org/Graphics/SVG/1.1/DTD/svg11.dtd">
<!-- Generated by graphviz version 2.28.0 (20121015.0031)
 -->
<!-- Title: include/fa/clock.h Pages: 1 -->
<svg width="557pt" height="332pt"
 viewBox="0.00 0.00 557.18 332.00" xmlns="http://www.w3.org/2000/svg" xmlns:xlink="http://www.w3.org/1999/xlink">
<g id="graph1" class="graph" transform="scale(1 1) rotate(0) translate(4 328)">
<title>include/fa/clock.h</title>
<!-- Node1 -->
<g id="node1" class="node"><title>Node1</title>
<polygon fill="#bfbfbf" stroke="black" points="196.058,-300.695 196.058,-323.305 304.102,-323.305 304.102,-300.695 196.058,-300.695"/>
<text text-anchor="middle" x="250.08" y="-308.305" font-family="Futura" font-size="11.00">include/fa/clock.h</text>
</g>
<!-- Node2 -->
<g id="node3" class="node"><title>Node2</title>
<a xlink:href="audio_8h.html" target="_top" xlink:title="include/fa/audio.h">
<polygon fill="none" stroke="black" points="153.672,-240.695 153.672,-263.305 264.488,-263.305 264.488,-240.695 153.672,-240.695"/>
<text text-anchor="middle" x="209.08" y="-248.305" font-family="Futura" font-size="11.00">include/fa/audio.h</text>
</a>
</g>
<!-- Node1&#45;&gt;Node2 -->
<g id="edge2" class="edge"><title>Node1&#45;&gt;Node2</title>
<path fill="none" stroke="midnightblue" d="M236.812,-292.231C230.128,-282.775 222.266,-271.654 216.624,-263.672"/>
<polygon fill="midnightblue" stroke="midnightblue" points="234.12,-294.485 242.75,-300.631 239.836,-290.445 234.12,-294.485"/>
</g>
<!-- Node3 -->
<g id="node5" class="node"><title>Node3</title>
<a xlink:href="fa_2fa_8h.html" target="_top" xlink:title="include/fa/fa.h">
<polygon fill="none" stroke="red" points="204.926,-180.695 204.926,-203.305 297.234,-203.305 297.234,-180.695 204.926,-180.695"/>
<text text-anchor="middle" x="251.08" y="-188.305" font-family="Futura" font-size="11.00">include/fa/fa.h</text>
</a>
</g>
<!-- Node2&#45;&gt;Node3 -->
<g id="edge4" class="edge"><title>Node2&#45;&gt;Node3</title>
<path fill="none" stroke="midnightblue" d="M222.46,-232.523C229.352,-223.005 237.512,-211.736 243.352,-203.672"/>
<polygon fill="midnightblue" stroke="midnightblue" points="219.619,-230.479 216.589,-240.631 225.289,-234.584 219.619,-230.479"/>
</g>
<!-- Node3&#45;&gt;Node1 -->
<g id="edge14" class="edge"><title>Node3&#45;&gt;Node1</title>
<path fill="none" stroke="midnightblue" d="M262.373,-212.155C266.623,-220.425 270.943,-230.392 273.08,-240 275.396,-250.412 275.486,-253.608 273.08,-264 269.965,-277.452 262.441,-291.499 256.841,-300.692"/>
<polygon fill="midnightblue" stroke="midnightblue" points="265.423,-210.439 257.55,-203.35 259.284,-213.802 265.423,-210.439"/>
</g>
<!-- Node4 -->
<g id="node7" class="node"><title>Node4</title>
<a xlink:href="action_8h.html" target="_top" xlink:title="include/fa/action.h">
<polygon fill="none" stroke="red" points="331.826,-0.695312 331.826,-23.3047 444.334,-23.3047 444.334,-0.695312 331.826,-0.695312"/>
<text text-anchor="middle" x="388.08" y="-8.30469" font-family="Futura" font-size="11.00">include/fa/action.h</text>
</a>
</g>
<!-- Node3&#45;&gt;Node4 -->
<g id="edge6" class="edge"><title>Node3&#45;&gt;Node4</title>
<path fill="none" stroke="midnightblue" d="M283.55,-176.286C299.036,-168.737 316.705,-158.108 329.08,-144 361.346,-107.216 373.768,-47.4366 381.972,-23.4482"/>
<polygon fill="midnightblue" stroke="midnightblue" points="281.859,-173.212 274.258,-180.592 284.802,-179.563 281.859,-173.212"/>
</g>
<!-- Node5 -->
<g id="node11" class="node"><title>Node5</title>
<a xlink:href="buffer_8h.html" target="_top" xlink:title="include/fa/buffer.h">
<polygon fill="none" stroke="red" points="170.307,-0.695312 170.307,-23.3047 281.853,-23.3047 281.853,-0.695312 170.307,-0.695312"/>
<text text-anchor="middle" x="226.08" y="-8.30469" font-family="Futura" font-size="11.00">include/fa/buffer.h</text>
</a>
</g>
<!-- Node3&#45;&gt;Node5 -->
<g id="edge12" class="edge"><title>Node3&#45;&gt;Node5</title>
<path fill="none" stroke="midnightblue" d="M287.84,-175.81C301.105,-168.32 314.633,-157.86 322.08,-144 327.128,-134.604 325.894,-129.962 322.08,-120 305.661,-77.1143 263.251,-40.6004 240.693,-23.4537"/>
<polygon fill="midnightblue" stroke="midnightblue" points="286.031,-172.806 278.777,-180.527 289.263,-179.016 286.031,-172.806"/>
</g>
<!-- Node6 -->
<g id="node14" class="node"><title>Node6</title>
<a xlink:href="dynamic_8h.html" target="_top" xlink:title="include/fa/dynamic.h">
<polygon fill="none" stroke="black" points="188.998,-120.695 188.998,-143.305 313.161,-143.305 313.161,-120.695 188.998,-120.695"/>
<text text-anchor="middle" x="251.08" y="-128.305" font-family="Futura" font-size="11.00">include/fa/dynamic.h</text>
</a>
</g>
<!-- Node3&#45;&gt;Node6 -->
<g id="edge16" class="edge"><title>Node3&#45;&gt;Node6</title>
<path fill="none" stroke="midnightblue" d="M251.08,-170.459C251.08,-161.411 251.08,-151.16 251.08,-143.672"/>
<polygon fill="midnightblue" stroke="midnightblue" points="247.58,-170.631 251.08,-180.631 254.58,-170.631 247.58,-170.631"/>
</g>
<!-- Node7 -->
<g id="node16" class="node"><title>Node7</title>
<a xlink:href="error_8h.html" target="_top" xlink:title="include/fa/error.h">
<polygon fill="none" stroke="red" points="424.678,-120.695 424.678,-143.305 531.482,-143.305 531.482,-120.695 424.678,-120.695"/>
<text text-anchor="middle" x="478.08" y="-128.305" font-family="Futura" font-size="11.00">include/fa/error.h</text>
</a>
</g>
<!-- Node3&#45;&gt;Node7 -->
<g id="edge18" class="edge"><title>Node3&#45;&gt;Node7</title>
<path fill="none" stroke="midnightblue" d="M296.225,-177.999C335.652,-167.548 392.489,-153.061 432.149,-143.377"/>
<polygon fill="midnightblue" stroke="midnightblue" points="295.109,-174.674 286.347,-180.631 296.911,-181.438 295.109,-174.674"/>
</g>
<!-- Node8 -->
<g id="node20" class="node"><title>Node8</title>
<a xlink:href="list_8h.html" target="_top" xlink:title="include/fa/list.h">
<polygon fill="none" stroke="red" points="19.4654,-120.695 19.4654,-143.305 114.694,-143.305 114.694,-120.695 19.4654,-120.695"/>
<text text-anchor="middle" x="67.0799" y="-128.305" font-family="Futura" font-size="11.00">include/fa/list.h</text>
</a>
</g>
<!-- Node3&#45;&gt;Node8 -->
<g id="edge24" class="edge"><title>Node3&#45;&gt;Node8</title>
<path fill="none" stroke="midnightblue" d="M202.99,-177.665C168.494,-167.241 123.341,-152.959 94.683,-143.377"/>
<polygon fill="midnightblue" stroke="midnightblue" points="202.284,-181.107 212.869,-180.631 204.297,-174.403 202.284,-181.107"/>
</g>
<!-- Node9 -->
<g id="node25" class="node"><title>Node9</title>
<a xlink:href="map_8h.html" target="_top" xlink:title="include/fa/map.h">
<polygon fill="none" stroke="red" points="14.994,-0.695312 14.994,-23.3047 119.166,-23.3047 119.166,-0.695312 14.994,-0.695312"/>
<text text-anchor="middle" x="67.0799" y="-8.30469" font-family="Futura" font-size="11.00">include/fa/map.h</text>
</a>
</g>
<!-- Node3&#45;&gt;Node9 -->
<g id="edge46" class="edge"><title>Node3&#45;&gt;Node9</title>
<path fill="none" stroke="midnightblue" d="M194.53,-188.045C130.777,-183.391 32.9954,-171.816 10.0799,-144 -21.4612,-105.714 31.0708,-47.2936 55.5628,-23.567"/>
<polygon fill="midnightblue" stroke="midnightblue" points="194.625,-191.56 204.843,-188.759 195.109,-184.576 194.625,-191.56"/>
</g>
<!-- Node10 -->
<g id="node27" class="node"><title>Node10</title>
<a xlink:href="pair_8h.html" target="_top" xlink:title="include/fa/pair.h">
<polygon fill="none" stroke="red" points="101.211,-60.6953 101.211,-83.3047 202.949,-83.3047 202.949,-60.6953 101.211,-60.6953"/>
<text text-anchor="middle" x="152.08" y="-68.3047" font-family="Futura" font-size="11.00">include/fa/pair.h</text>
</a>
</g>
<!-- Node3&#45;&gt;Node10 -->
<g id="edge48" class="edge"><title>Node3&#45;&gt;Node10</title>
<path fill="none" stroke="midnightblue" d="M211.374,-175.752C196.933,-167.852 181.69,-157.097 171.08,-144 156.234,-125.673 148.496,-98.5064 148.185,-83.6531"/>
<polygon fill="midnightblue" stroke="midnightblue" points="210.195,-179.08 220.69,-180.527 213.388,-172.851 210.195,-179.08"/>
</g>
<!-- Node4&#45;&gt;Node2 -->
<g id="edge8" class="edge"><title>Node4&#45;&gt;Node2</title>
<path fill="none" stroke="midnightblue" d="M428.621,-26.8091C485.243,-48.3324 577.135,-92.7668 540.08,-144 476.991,-231.227 341.284,-248.859 264.671,-251.523"/>
<polygon fill="midnightblue" stroke="midnightblue" points="429.773,-23.5034 419.18,-23.3068 427.338,-30.0664 429.773,-23.5034"/>
</g>
<!-- Node4&#45;&gt;Node3 -->
<g id="edge10" class="edge"><title>Node4&#45;&gt;Node3</title>
<path fill="none" stroke="midnightblue" d="M390.863,-33.6328C388.468,-61.5772 375.438,-111.67 347.08,-144 332.137,-161.036 309.473,-172.999 289.79,-180.592"/>
<polygon fill="midnightblue" stroke="midnightblue" points="394.368,-33.5768 391.26,-23.4482 387.373,-33.3044 394.368,-33.5768"/>
</g>
<!-- Node7&#45;&gt;Node2 -->
<g id="edge20" class="edge"><title>Node7&#45;&gt;Node2</title>
<path fill="none" stroke="midnightblue" d="M444.963,-147.527C389.97,-171.65 281.108,-219.404 232.952,-240.528"/>
<polygon fill="midnightblue" stroke="midnightblue" points="446.51,-150.671 454.261,-143.448 443.698,-144.26 446.51,-150.671"/>
</g>
<!-- Node7&#45;&gt;Node3 -->
<g id="edge22" class="edge"><title>Node7&#45;&gt;Node3</title>
<path fill="none" stroke="midnightblue" d="M432.903,-146.009C393.467,-156.463 336.63,-170.949 296.979,-180.631"/>
<polygon fill="midnightblue" stroke="midnightblue" points="434.022,-149.334 442.784,-143.377 432.219,-142.57 434.022,-149.334"/>
</g>
<!-- Node8&#45;&gt;Node2 -->
<g id="edge28" class="edge"><title>Node8&#45;&gt;Node2</title>
<path fill="none" stroke="midnightblue" d="M87.5722,-150.029C117.405,-174.82 171.909,-220.112 196.478,-240.528"/>
<polygon fill="midnightblue" stroke="midnightblue" points="89.7854,-147.317 79.8574,-143.618 85.3116,-152.701 89.7854,-147.317"/>
</g>
<!-- Node8&#45;&gt;Node3 -->
<g id="edge30" class="edge"><title>Node8&#45;&gt;Node3</title>
<path fill="none" stroke="midnightblue" d="M115.198,-146.344C149.7,-156.77 194.852,-171.052 223.5,-180.631"/>
<polygon fill="midnightblue" stroke="midnightblue" points="115.902,-142.901 105.318,-143.377 113.889,-149.605 115.902,-142.901"/>
</g>
<!-- Node8&#45;&gt;Node4 -->
<g id="edge26" class="edge"><title>Node8&#45;&gt;Node4</title>
<path fill="none" stroke="midnightblue" d="M110.769,-117.566C139.449,-108.544 177.693,-96.1297 211.08,-84 266.161,-63.9885 329.689,-37.7081 363.652,-23.3939"/>
<polygon fill="midnightblue" stroke="midnightblue" points="109.544,-114.282 101.046,-120.609 111.635,-120.962 109.544,-114.282"/>
</g>
<!-- Node8&#45;&gt;Node9 -->
<g id="edge32" class="edge"><title>Node8&#45;&gt;Node9</title>
<path fill="none" stroke="midnightblue" d="M67.0799,-110.192C67.0799,-84.8736 67.0799,-43.0995 67.0799,-23.6179"/>
<polygon fill="midnightblue" stroke="midnightblue" points="63.58,-110.528 67.0799,-120.528 70.58,-110.528 63.58,-110.528"/>
</g>
<!-- Node8&#45;&gt;Node10 -->
<g id="edge34" class="edge"><title>Node8&#45;&gt;Node10</title>
<path fill="none" stroke="midnightblue" d="M90.8537,-114.778C105.538,-104.758 123.949,-92.1949 136.729,-83.475"/>
<polygon fill="midnightblue" stroke="midnightblue" points="88.5637,-112.103 82.2762,-120.631 92.5092,-117.885 88.5637,-112.103"/>
</g>
<!-- Node10&#45;&gt;Node2 -->
<g id="edge38" class="edge"><title>Node10&#45;&gt;Node2</title>
<path fill="none" stroke="midnightblue" d="M90.7746,-80.7149C43.1352,-89.5969 -11.505,-107.887 10.0799,-144 42.8832,-198.882 114.59,-227.254 162.361,-240.626"/>
<polygon fill="midnightblue" stroke="midnightblue" points="91.5574,-84.1312 100.804,-78.9594 90.3504,-77.236 91.5574,-84.1312"/>
</g>
<!-- Node10&#45;&gt;Node3 -->
<g id="edge42" class="edge"><title>Node10&#45;&gt;Node3</title>
<path fill="none" stroke="midnightblue" d="M163.896,-93.1673C169.648,-108.383 177.018,-129.109 189.08,-144 202.014,-159.966 221.834,-172.451 235.809,-180.527"/>
<polygon fill="midnightblue" stroke="midnightblue" points="167.066,-91.6657 160.134,-83.6531 160.556,-94.2395 167.066,-91.6657"/>
</g>
<!-- Node10&#45;&gt;Node4 -->
<g id="edge36" class="edge"><title>Node10&#45;&gt;Node4</title>
<path fill="none" stroke="midnightblue" d="M204.17,-58.1982C246.754,-47.7325 306.2,-33.1231 345.856,-23.3771"/>
<polygon fill="midnightblue" stroke="midnightblue" points="203.148,-54.8452 194.272,-60.6308 204.818,-61.6429 203.148,-54.8452"/>
</g>
<!-- Node10&#45;&gt;Node5 -->
<g id="edge40" class="edge"><title>Node10&#45;&gt;Node5</title>
<path fill="none" stroke="midnightblue" d="M173.45,-54.2508C186.022,-44.3965 201.545,-32.23 212.464,-23.6719"/>
<polygon fill="midnightblue" stroke="midnightblue" points="171.021,-51.7072 165.31,-60.6308 175.339,-57.2166 171.021,-51.7072"/>
</g>
<!-- Node10&#45;&gt;Node9 -->
<g id="edge44" class="edge"><title>Node10&#45;&gt;Node9</title>
<path fill="none" stroke="midnightblue" d="M128.306,-54.7779C113.622,-44.7583 95.2104,-32.1949 82.4313,-23.475"/>
<polygon fill="midnightblue" stroke="midnightblue" points="126.651,-57.8854 136.884,-60.6308 130.596,-52.1033 126.651,-57.8854"/>
</g>
</g>
</svg>
