<?xml version="1.0" encoding="UTF-8" standalone="no"?>
<!DOCTYPE svg PUBLIC "-//W3C//DTD SVG 1.1//EN"
 "http://www.w3.org/Graphics/SVG/1.1/DTD/svg11.dtd">
<!-- Generated by graphviz version 2.28.0 (20121015.0031)
 -->
<!-- Title: include/fa/list.h Pages: 1 -->
<svg width="492pt" height="392pt"
 viewBox="0.00 0.00 492.00 392.00" xmlns="http://www.w3.org/2000/svg" xmlns:xlink="http://www.w3.org/1999/xlink">
<g id="graph1" class="graph" transform="scale(1 1) rotate(0) translate(4 388)">
<title>include/fa/list.h</title>
<!-- Node1 -->
<g id="node1" class="node"><title>Node1</title>
<polygon fill="#bfbfbf" stroke="black" points="265.385,-360.695 265.385,-383.305 360.615,-383.305 360.615,-360.695 265.385,-360.695"/>
<text text-anchor="middle" x="313" y="-368.305" font-family="Futura" font-size="11.00">include/fa/list.h</text>
</g>
<!-- Node2 -->
<g id="node3" class="node"><title>Node2</title>
<a xlink:href="action_8h.html" target="_top" xlink:title="include/fa/action.h">
<polygon fill="none" stroke="black" points="107.746,-300.695 107.746,-323.305 220.254,-323.305 220.254,-300.695 107.746,-300.695"/>
<text text-anchor="middle" x="164" y="-308.305" font-family="Futura" font-size="11.00">include/fa/action.h</text>
</a>
</g>
<!-- Node1&#45;&gt;Node2 -->
<g id="edge2" class="edge"><title>Node1&#45;&gt;Node2</title>
<path fill="none" stroke="midnightblue" d="M277.005,-356.989C250.394,-346.63 214.745,-332.753 190.658,-323.377"/>
<polygon fill="midnightblue" stroke="midnightblue" points="275.773,-360.265 286.362,-360.631 278.313,-353.742 275.773,-360.265"/>
</g>
<!-- Node3 -->
<g id="node5" class="node"><title>Node3</title>
<a xlink:href="audio_8h.html" target="_top" xlink:title="include/fa/audio.h">
<polygon fill="none" stroke="black" points="200.592,-240.695 200.592,-263.305 311.408,-263.305 311.408,-240.695 200.592,-240.695"/>
<text text-anchor="middle" x="256" y="-248.305" font-family="Futura" font-size="11.00">include/fa/audio.h</text>
</a>
</g>
<!-- Node1&#45;&gt;Node3 -->
<g id="edge42" class="edge"><title>Node1&#45;&gt;Node3</title>
<path fill="none" stroke="midnightblue" d="M303.44,-351.21C291.266,-326.007 270.667,-283.363 261.129,-263.618"/>
<polygon fill="midnightblue" stroke="midnightblue" points="300.44,-353.046 307.942,-360.528 306.744,-350.001 300.44,-353.046"/>
</g>
<!-- Node4 -->
<g id="node7" class="node"><title>Node4</title>
<a xlink:href="fa_2fa_8h.html" target="_top" xlink:title="include/fa/fa.h">
<polygon fill="none" stroke="red" points="187.846,-180.695 187.846,-203.305 280.154,-203.305 280.154,-180.695 187.846,-180.695"/>
<text text-anchor="middle" x="234" y="-188.305" font-family="Futura" font-size="11.00">include/fa/fa.h</text>
</a>
</g>
<!-- Node1&#45;&gt;Node4 -->
<g id="edge44" class="edge"><title>Node1&#45;&gt;Node4</title>
<path fill="none" stroke="midnightblue" d="M314.561,-350.616C320.499,-323.345 331.422,-274.434 311,-240 300.411,-222.146 280.383,-210.635 263.292,-203.476"/>
<polygon fill="midnightblue" stroke="midnightblue" points="311.102,-350.057 312.486,-360.561 317.955,-351.487 311.102,-350.057"/>
</g>
<!-- Node7 -->
<g id="node16" class="node"><title>Node7</title>
<a xlink:href="map_8h.html" target="_top" xlink:title="include/fa/map.h">
<polygon fill="none" stroke="black" points="307.914,-60.6953 307.914,-83.3047 412.086,-83.3047 412.086,-60.6953 307.914,-60.6953"/>
<text text-anchor="middle" x="360" y="-68.3047" font-family="Futura" font-size="11.00">include/fa/map.h</text>
</a>
</g>
<!-- Node1&#45;&gt;Node7 -->
<g id="edge46" class="edge"><title>Node1&#45;&gt;Node7</title>
<path fill="none" stroke="midnightblue" d="M347.216,-356.073C383.613,-337.606 436,-302.439 436,-253 436,-253 436,-253 436,-191 436,-158.334 434.665,-147.477 417,-120 407.081,-104.572 390.458,-91.7147 377.716,-83.3701"/>
<polygon fill="midnightblue" stroke="midnightblue" points="345.344,-353.092 337.891,-360.621 348.413,-359.383 345.344,-353.092"/>
</g>
<!-- Node8 -->
<g id="node18" class="node"><title>Node8</title>
<a xlink:href="literals_8h.html" target="_top" xlink:title="include/fa/util/literals.h">
<polygon fill="none" stroke="red" points="349.518,-0.695312 349.518,-23.3047 484.482,-23.3047 484.482,-0.695312 349.518,-0.695312"/>
<text text-anchor="middle" x="417" y="-8.30469" font-family="Futura" font-size="11.00">include/fa/util/literals.h</text>
</a>
</g>
<!-- Node1&#45;&gt;Node8 -->
<g id="edge52" class="edge"><title>Node1&#45;&gt;Node8</title>
<path fill="none" stroke="midnightblue" d="M362.723,-357.477C410.018,-341.235 474,-308.927 474,-253 474,-253 474,-253 474,-131 474,-87.5456 442.271,-43.2479 426.158,-23.5544"/>
<polygon fill="midnightblue" stroke="midnightblue" points="361.616,-354.156 353.212,-360.608 363.805,-360.805 361.616,-354.156"/>
</g>
<!-- Node9 -->
<g id="node20" class="node"><title>Node9</title>
<a xlink:href="pair_8h.html" target="_top" xlink:title="include/fa/pair.h">
<polygon fill="none" stroke="red" points="66.1306,-120.695 66.1306,-143.305 167.869,-143.305 167.869,-120.695 66.1306,-120.695"/>
<text text-anchor="middle" x="117" y="-128.305" font-family="Futura" font-size="11.00">include/fa/pair.h</text>
</a>
</g>
<!-- Node1&#45;&gt;Node9 -->
<g id="edge50" class="edge"><title>Node1&#45;&gt;Node9</title>
<path fill="none" stroke="midnightblue" d="M254.865,-366.294C198.332,-360.369 118.244,-347.929 99,-324 54.9579,-269.235 95.7445,-174.994 111.444,-143.554"/>
<polygon fill="midnightblue" stroke="midnightblue" points="254.826,-369.808 265.126,-367.326 255.527,-362.843 254.826,-369.808"/>
</g>
<!-- Node10 -->
<g id="node27" class="node"><title>Node10</title>
<a xlink:href="midi_8h.html" target="_top" xlink:title="include/fa/midi.h">
<polygon fill="none" stroke="black" points="4.47266,-60.6953 4.47266,-83.3047 107.527,-83.3047 107.527,-60.6953 4.47266,-60.6953"/>
<text text-anchor="middle" x="56" y="-68.3047" font-family="Futura" font-size="11.00">include/fa/midi.h</text>
</a>
</g>
<!-- Node1&#45;&gt;Node10 -->
<g id="edge48" class="edge"><title>Node1&#45;&gt;Node10</title>
<path fill="none" stroke="midnightblue" d="M254.701,-367.213C206.58,-362.222 137.581,-350.676 83,-324 39.3861,-302.684 0,-301.544 0,-253 0,-253 0,-253 0,-191 0,-147.689 31.1727,-103.321 47.0026,-83.5821"/>
<polygon fill="midnightblue" stroke="midnightblue" points="254.651,-370.724 264.943,-368.209 255.328,-363.757 254.651,-370.724"/>
</g>
<!-- Node2&#45;&gt;Node3 -->
<g id="edge4" class="edge"><title>Node2&#45;&gt;Node3</title>
<path fill="none" stroke="midnightblue" d="M189.283,-295.061C205.248,-284.996 225.422,-272.277 239.384,-263.475"/>
<polygon fill="midnightblue" stroke="midnightblue" points="187.04,-292.337 180.448,-300.631 190.774,-298.258 187.04,-292.337"/>
</g>
<!-- Node2&#45;&gt;Node4 -->
<g id="edge38" class="edge"><title>Node2&#45;&gt;Node4</title>
<path fill="none" stroke="midnightblue" d="M162.495,-290.283C165.777,-275.615 173.248,-255.819 183,-240 191.614,-226.027 204.553,-212.293 215.602,-203.314"/>
<polygon fill="midnightblue" stroke="midnightblue" points="159.009,-289.912 160.833,-300.349 165.915,-291.052 159.009,-289.912"/>
</g>
<!-- Node2&#45;&gt;Node10 -->
<g id="edge40" class="edge"><title>Node2&#45;&gt;Node10</title>
<path fill="none" stroke="midnightblue" d="M147.26,-292.7C121.991,-263.716 75.131,-204.328 57,-144 50.7552,-123.222 52.6244,-97.4549 54.4024,-83.3798"/>
<polygon fill="midnightblue" stroke="midnightblue" points="144.808,-295.21 154.064,-300.366 150.044,-290.563 144.808,-295.21"/>
</g>
<!-- Node3&#45;&gt;Node4 -->
<g id="edge6" class="edge"><title>Node3&#45;&gt;Node4</title>
<path fill="none" stroke="midnightblue" d="M248.434,-231.053C244.948,-221.863 240.951,-211.325 238.048,-203.672"/>
<polygon fill="midnightblue" stroke="midnightblue" points="245.248,-232.522 252.067,-240.631 251.793,-230.039 245.248,-232.522"/>
</g>
<!-- Node4&#45;&gt;Node1 -->
<g id="edge16" class="edge"><title>Node4&#45;&gt;Node1</title>
<path fill="none" stroke="midnightblue" d="M288.748,-207.36C304.701,-214.583 320.148,-225.075 329,-240 352.236,-279.179 334.893,-337.097 321.902,-360.561"/>
<polygon fill="midnightblue" stroke="midnightblue" points="289.922,-204.058 279.343,-203.476 287.25,-210.528 289.922,-204.058"/>
</g>
<!-- Node4&#45;&gt;Node2 -->
<g id="edge8" class="edge"><title>Node4&#45;&gt;Node2</title>
<path fill="none" stroke="midnightblue" d="M223.306,-211.13C216.169,-219.39 207.393,-229.63 201,-240 188.762,-259.851 180.117,-285.966 172.984,-300.349"/>
<polygon fill="midnightblue" stroke="midnightblue" points="226.147,-213.191 229.981,-203.314 220.825,-208.645 226.147,-213.191"/>
</g>
<!-- Node5 -->
<g id="node10" class="node"><title>Node5</title>
<a xlink:href="buffer_8h.html" target="_top" xlink:title="include/fa/buffer.h">
<polygon fill="none" stroke="red" points="143.227,-60.6953 143.227,-83.3047 254.773,-83.3047 254.773,-60.6953 143.227,-60.6953"/>
<text text-anchor="middle" x="199" y="-68.3047" font-family="Futura" font-size="11.00">include/fa/buffer.h</text>
</a>
</g>
<!-- Node4&#45;&gt;Node5 -->
<g id="edge10" class="edge"><title>Node4&#45;&gt;Node5</title>
<path fill="none" stroke="midnightblue" d="M228.03,-170.873C220.542,-145.628 207.98,-103.275 202.149,-83.6179"/>
<polygon fill="midnightblue" stroke="midnightblue" points="224.695,-171.936 230.894,-180.528 231.406,-169.946 224.695,-171.936"/>
</g>
<!-- Node6 -->
<g id="node12" class="node"><title>Node6</title>
<a xlink:href="clock_8h.html" target="_top" xlink:title="include/fa/clock.h">
<polygon fill="none" stroke="black" points="299.978,-120.695 299.978,-143.305 408.022,-143.305 408.022,-120.695 299.978,-120.695"/>
<text text-anchor="middle" x="354" y="-128.305" font-family="Futura" font-size="11.00">include/fa/clock.h</text>
</a>
</g>
<!-- Node4&#45;&gt;Node6 -->
<g id="edge12" class="edge"><title>Node4&#45;&gt;Node6</title>
<path fill="none" stroke="midnightblue" d="M264.666,-176.178C285.823,-165.952 313.435,-152.606 332.328,-143.475"/>
<polygon fill="midnightblue" stroke="midnightblue" points="262.934,-173.128 255.454,-180.631 265.98,-179.43 262.934,-173.128"/>
</g>
<!-- Node4&#45;&gt;Node7 -->
<g id="edge18" class="edge"><title>Node4&#45;&gt;Node7</title>
<path fill="none" stroke="midnightblue" d="M246.832,-172.05C257.586,-156.959 273.89,-135.817 291,-120 306.645,-105.537 327.074,-92.1865 341.634,-83.4399"/>
<polygon fill="midnightblue" stroke="midnightblue" points="243.745,-170.358 240.896,-180.562 249.487,-174.362 243.745,-170.358"/>
</g>
<!-- Node4&#45;&gt;Node9 -->
<g id="edge22" class="edge"><title>Node4&#45;&gt;Node9</title>
<path fill="none" stroke="midnightblue" d="M198.421,-176.316C176.523,-166.072 149.649,-152.647 132.796,-143.475"/>
<polygon fill="midnightblue" stroke="midnightblue" points="197.221,-179.617 207.767,-180.631 200.155,-173.262 197.221,-179.617"/>
</g>
<!-- Node6&#45;&gt;Node3 -->
<g id="edge14" class="edge"><title>Node6&#45;&gt;Node3</title>
<path fill="none" stroke="midnightblue" d="M338.787,-151.318C317.989,-176.361 281.363,-220.461 264.697,-240.528"/>
<polygon fill="midnightblue" stroke="midnightblue" points="341.485,-153.547 345.182,-143.618 336.1,-149.075 341.485,-153.547"/>
</g>
<!-- Node7&#45;&gt;Node8 -->
<g id="edge20" class="edge"><title>Node7&#45;&gt;Node8</title>
<path fill="none" stroke="midnightblue" d="M377.304,-53.3924C386.832,-43.6976 398.344,-31.9831 406.512,-23.6719"/>
<polygon fill="midnightblue" stroke="midnightblue" points="374.703,-51.0452 370.19,-60.6308 379.696,-55.9517 374.703,-51.0452"/>
</g>
<!-- Node9&#45;&gt;Node2 -->
<g id="edge24" class="edge"><title>Node9&#45;&gt;Node2</title>
<path fill="none" stroke="midnightblue" d="M122.357,-153.288C132.396,-191.309 153.709,-272.027 161.27,-300.661"/>
<polygon fill="midnightblue" stroke="midnightblue" points="125.675,-152.143 119.738,-143.368 118.907,-153.93 125.675,-152.143"/>
</g>
<!-- Node9&#45;&gt;Node3 -->
<g id="edge26" class="edge"><title>Node9&#45;&gt;Node3</title>
<path fill="none" stroke="midnightblue" d="M130.718,-151.667C142.463,-166.868 160.384,-188.304 179,-204 196.482,-218.739 219.068,-231.954 235.25,-240.588"/>
<polygon fill="midnightblue" stroke="midnightblue" points="133.383,-149.389 124.558,-143.528 127.802,-153.614 133.383,-149.389"/>
</g>
<!-- Node9&#45;&gt;Node4 -->
<g id="edge30" class="edge"><title>Node9&#45;&gt;Node4</title>
<path fill="none" stroke="midnightblue" d="M152.832,-147.802C174.768,-158.071 201.622,-171.491 218.399,-180.631"/>
<polygon fill="midnightblue" stroke="midnightblue" points="154.012,-144.492 143.466,-143.475 151.076,-150.846 154.012,-144.492"/>
</g>
<!-- Node9&#45;&gt;Node5 -->
<g id="edge28" class="edge"><title>Node9&#45;&gt;Node5</title>
<path fill="none" stroke="midnightblue" d="M139.935,-114.778C154.1,-104.758 171.862,-92.1949 184.19,-83.475"/>
<polygon fill="midnightblue" stroke="midnightblue" points="137.803,-111.999 131.66,-120.631 141.845,-117.714 137.803,-111.999"/>
</g>
<!-- Node9&#45;&gt;Node7 -->
<g id="edge32" class="edge"><title>Node9&#45;&gt;Node7</title>
<path fill="none" stroke="midnightblue" d="M170.358,-118.264C214.224,-107.794 275.605,-93.1437 316.524,-83.3771"/>
<polygon fill="midnightblue" stroke="midnightblue" points="169.358,-114.905 160.444,-120.631 170.983,-121.713 169.358,-114.905"/>
</g>
<!-- Node9&#45;&gt;Node10 -->
<g id="edge34" class="edge"><title>Node9&#45;&gt;Node10</title>
<path fill="none" stroke="midnightblue" d="M98.7838,-113.68C88.5297,-103.93 76.0515,-92.0654 67.2239,-83.6719"/>
<polygon fill="midnightblue" stroke="midnightblue" points="96.4356,-116.277 106.094,-120.631 101.259,-111.204 96.4356,-116.277"/>
</g>
<!-- Node10&#45;&gt;Node4 -->
<g id="edge36" class="edge"><title>Node10&#45;&gt;Node4</title>
<path fill="none" stroke="midnightblue" d="M106.707,-86.4553C129.28,-93.9971 155.363,-104.967 176,-120 199.286,-136.962 218.638,-165.431 227.978,-180.656"/>
<polygon fill="midnightblue" stroke="midnightblue" points="107.537,-83.0459 96.9459,-83.3302 105.403,-89.7126 107.537,-83.0459"/>
</g>
</g>
</svg>
