<?xml version="1.0" encoding="UTF-8" standalone="no"?>
<!DOCTYPE svg PUBLIC "-//W3C//DTD SVG 1.1//EN"
 "http://www.w3.org/Graphics/SVG/1.1/DTD/svg11.dtd">
<!-- Generated by graphviz version 2.28.0 (20121015.0031)
 -->
<!-- Title: include/fa/string.h Pages: 1 -->
<svg width="840pt" height="152pt"
 viewBox="0.00 0.00 840.00 152.00" xmlns="http://www.w3.org/2000/svg" xmlns:xlink="http://www.w3.org/1999/xlink">
<g id="graph1" class="graph" transform="scale(1 1) rotate(0) translate(4 148)">
<title>include/fa/string.h</title>
<!-- Node1 -->
<g id="node1" class="node"><title>Node1</title>
<polygon fill="#bfbfbf" stroke="black" points="620.306,-120.695 620.306,-143.305 729.694,-143.305 729.694,-120.695 620.306,-120.695"/>
<text text-anchor="middle" x="675" y="-128.305" font-family="Futura" font-size="11.00">include/fa/string.h</text>
</g>
<!-- Node2 -->
<g id="node3" class="node"><title>Node2</title>
<a xlink:href="fa_2fa_8h.html" target="_top" xlink:title="fa.h">
<polygon fill="none" stroke="red" points="600.273,-60.6953 600.273,-83.3047 635.727,-83.3047 635.727,-60.6953 600.273,-60.6953"/>
<text text-anchor="middle" x="618" y="-68.3047" font-family="Futura" font-size="11.00">fa.h</text>
</a>
</g>
<!-- Node1&#45;&gt;Node2 -->
<g id="edge2" class="edge"><title>Node1&#45;&gt;Node2</title>
<path fill="none" stroke="midnightblue" d="M664.81,-120.631C656.724,-112.403 645.229,-100.707 635.654,-90.9633"/>
<polygon fill="midnightblue" stroke="midnightblue" points="637.994,-88.3509 628.488,-83.6719 633.001,-93.2575 637.994,-88.3509"/>
</g>
<!-- Node3 -->
<g id="node5" class="node"><title>Node3</title>
<polygon fill="none" stroke="#bfbfbf" points="-0.0629883,-0.695312 -0.0629883,-23.3047 74.063,-23.3047 74.063,-0.695312 -0.0629883,-0.695312"/>
<text text-anchor="middle" x="37" y="-8.30469" font-family="Futura" font-size="11.00">fa/atomic.h</text>
</g>
<!-- Node2&#45;&gt;Node3 -->
<g id="edge4" class="edge"><title>Node2&#45;&gt;Node3</title>
<path fill="none" stroke="midnightblue" d="M599.868,-70.3745C532.753,-67.8584 292.02,-57.05 84.4824,-24.0476"/>
<polygon fill="midnightblue" stroke="midnightblue" points="84.743,-20.5445 74.3134,-22.4082 83.6289,-27.4553 84.743,-20.5445"/>
</g>
<!-- Node4 -->
<g id="node7" class="node"><title>Node4</title>
<polygon fill="none" stroke="#bfbfbf" points="91.6484,-0.695312 91.6484,-23.3047 202.352,-23.3047 202.352,-0.695312 91.6484,-0.695312"/>
<text text-anchor="middle" x="147" y="-8.30469" font-family="Futura" font-size="11.00">fa/atomic/queue.h</text>
</g>
<!-- Node2&#45;&gt;Node4 -->
<g id="edge6" class="edge"><title>Node2&#45;&gt;Node4</title>
<path fill="none" stroke="midnightblue" d="M600.102,-69.2897C544.36,-63.8884 368.738,-46.308 212.72,-24.1907"/>
<polygon fill="midnightblue" stroke="midnightblue" points="212.868,-20.6764 202.473,-22.7274 211.878,-27.6061 212.868,-20.6764"/>
</g>
<!-- Node5 -->
<g id="node9" class="node"><title>Node5</title>
<polygon fill="none" stroke="#bfbfbf" points="220.42,-0.695312 220.42,-23.3047 325.58,-23.3047 325.58,-0.695312 220.42,-0.695312"/>
<text text-anchor="middle" x="273" y="-8.30469" font-family="Futura" font-size="11.00">fa/atomic/stack.h</text>
</g>
<!-- Node2&#45;&gt;Node5 -->
<g id="edge8" class="edge"><title>Node2&#45;&gt;Node5</title>
<path fill="none" stroke="midnightblue" d="M600.109,-68.0989C556.742,-61.052 442.348,-42.3751 335.719,-24.1101"/>
<polygon fill="midnightblue" stroke="midnightblue" points="336.206,-20.6426 325.758,-22.4011 335.022,-27.5418 336.206,-20.6426"/>
</g>
<!-- Node6 -->
<g id="node11" class="node"><title>Node6</title>
<polygon fill="none" stroke="#bfbfbf" points="343.526,-0.695312 343.526,-23.3047 478.474,-23.3047 478.474,-0.695312 343.526,-0.695312"/>
<text text-anchor="middle" x="411" y="-8.30469" font-family="Futura" font-size="11.00">fa/atomic/ring_buffer.h</text>
</g>
<!-- Node2&#45;&gt;Node6 -->
<g id="edge10" class="edge"><title>Node2&#45;&gt;Node6</title>
<path fill="none" stroke="midnightblue" d="M599.992,-65.9543C568.626,-57.1657 503.02,-38.7834 457.992,-26.1668"/>
<polygon fill="midnightblue" stroke="midnightblue" points="458.726,-22.7377 448.152,-23.4098 456.837,-29.4781 458.726,-22.7377"/>
</g>
<!-- Node7 -->
<g id="node13" class="node"><title>Node7</title>
<polygon fill="none" stroke="#bfbfbf" points="496.026,-0.695312 496.026,-23.3047 569.974,-23.3047 569.974,-0.695312 496.026,-0.695312"/>
<text text-anchor="middle" x="533" y="-8.30469" font-family="Futura" font-size="11.00">fa/system.h</text>
</g>
<!-- Node2&#45;&gt;Node7 -->
<g id="edge12" class="edge"><title>Node2&#45;&gt;Node7</title>
<path fill="none" stroke="midnightblue" d="M602.804,-60.6308C590.07,-51.9421 571.666,-39.3841 556.952,-29.344"/>
<polygon fill="midnightblue" stroke="midnightblue" points="558.584,-26.2204 548.351,-23.475 554.639,-32.0025 558.584,-26.2204"/>
</g>
<!-- Node8 -->
<g id="node15" class="node"><title>Node8</title>
<a xlink:href="error_8h.html" target="_top" xlink:title="fa/error.h">
<polygon fill="none" stroke="black" points="767.161,-0.695312 767.161,-23.3047 832.839,-23.3047 832.839,-0.695312 767.161,-0.695312"/>
<text text-anchor="middle" x="800" y="-8.30469" font-family="Futura" font-size="11.00">fa/error.h</text>
</a>
</g>
<!-- Node2&#45;&gt;Node8 -->
<g id="edge14" class="edge"><title>Node2&#45;&gt;Node8</title>
<path fill="none" stroke="midnightblue" d="M636.039,-63.7715C664.115,-54.0428 718.505,-36.6104 757.004,-24.9242"/>
<polygon fill="midnightblue" stroke="midnightblue" points="758.349,-28.1745 766.915,-21.9386 756.33,-21.4721 758.349,-28.1745"/>
</g>
<!-- Node9 -->
<g id="node19" class="node"><title>Node9</title>
<a xlink:href="pair_8h.html" target="_top" xlink:title="fa/pair.h">
<polygon fill="none" stroke="red" points="587.694,-0.695312 587.694,-23.3047 648.306,-23.3047 648.306,-0.695312 587.694,-0.695312"/>
<text text-anchor="middle" x="618" y="-8.30469" font-family="Futura" font-size="11.00">fa/pair.h</text>
</a>
</g>
<!-- Node2&#45;&gt;Node9 -->
<g id="edge20" class="edge"><title>Node2&#45;&gt;Node9</title>
<path fill="none" stroke="midnightblue" d="M612.684,-60.6308C611.323,-53.1365 610.931,-42.7636 611.508,-33.6107"/>
<polygon fill="midnightblue" stroke="midnightblue" points="614.986,-34.0015 612.63,-23.6719 608.03,-33.2159 614.986,-34.0015"/>
</g>
<!-- Node10 -->
<g id="node22" class="node"><title>Node10</title>
<polygon fill="none" stroke="#bfbfbf" points="666.804,-0.695312 666.804,-23.3047 749.196,-23.3047 749.196,-0.695312 666.804,-0.695312"/>
<text text-anchor="middle" x="708" y="-8.30469" font-family="Futura" font-size="11.00">fa/pair/left.h</text>
</g>
<!-- Node2&#45;&gt;Node10 -->
<g id="edge24" class="edge"><title>Node2&#45;&gt;Node10</title>
<path fill="none" stroke="midnightblue" d="M634.09,-60.6308C647.7,-51.8601 667.427,-39.1468 683.079,-29.0605"/>
<polygon fill="midnightblue" stroke="midnightblue" points="685.236,-31.8341 691.746,-23.475 681.444,-25.9501 685.236,-31.8341"/>
</g>
<!-- Node8&#45;&gt;Node1 -->
<g id="edge18" class="edge"><title>Node8&#45;&gt;Node1</title>
<path fill="none" stroke="midnightblue" d="M788.752,-23.6179C767.185,-43.9771 719.828,-88.6823 693.527,-113.51"/>
<polygon fill="midnightblue" stroke="midnightblue" points="690.962,-111.119 686.093,-120.528 695.767,-116.209 690.962,-111.119"/>
</g>
<!-- Node8&#45;&gt;Node2 -->
<g id="edge16" class="edge"><title>Node8&#45;&gt;Node2</title>
<path fill="none" stroke="midnightblue" d="M772.86,-23.3415C738.575,-34.9408 680.246,-53.4612 645.694,-63.663"/>
<polygon fill="midnightblue" stroke="midnightblue" points="644.412,-60.3909 635.787,-66.5451 646.367,-67.1123 644.412,-60.3909"/>
</g>
<!-- Node9&#45;&gt;Node2 -->
<g id="edge22" class="edge"><title>Node9&#45;&gt;Node2</title>
<path fill="none" stroke="midnightblue" d="M623.37,-23.6719C624.691,-31.1602 625.064,-41.4112 624.488,-50.4586"/>
<polygon fill="midnightblue" stroke="midnightblue" points="620.984,-50.2958 623.316,-60.6308 627.938,-51.0972 620.984,-50.2958"/>
</g>
</g>
</svg>
