<?xml version="1.0" encoding="UTF-8" standalone="no"?>
<!DOCTYPE svg PUBLIC "-//W3C//DTD SVG 1.1//EN"
 "http://www.w3.org/Graphics/SVG/1.1/DTD/svg11.dtd">
<!-- Generated by graphviz version 2.28.0 (20121015.0031)
 -->
<!-- Title: include/fa/util/literals.h Pages: 1 -->
<svg width="414pt" height="272pt"
 viewBox="0.00 0.00 414.00 272.00" xmlns="http://www.w3.org/2000/svg" xmlns:xlink="http://www.w3.org/1999/xlink">
<g id="graph1" class="graph" transform="scale(1 1) rotate(0) translate(4 268)">
<title>include/fa/util/literals.h</title>
<!-- Node1 -->
<g id="node1" class="node"><title>Node1</title>
<polygon fill="#bfbfbf" stroke="black" points="170.518,-240.695 170.518,-263.305 305.482,-263.305 305.482,-240.695 170.518,-240.695"/>
<text text-anchor="middle" x="238" y="-248.305" font-family="Futura" font-size="11.00">include/fa/util/literals.h</text>
</g>
<!-- Node2 -->
<g id="node3" class="node"><title>Node2</title>
<a xlink:href="list_8h.html" target="_top" xlink:title="fa/list.h">
<polygon fill="none" stroke="black" points="183.949,-120.695 183.949,-143.305 238.051,-143.305 238.051,-120.695 183.949,-120.695"/>
<text text-anchor="middle" x="211" y="-128.305" font-family="Futura" font-size="11.00">fa/list.h</text>
</a>
</g>
<!-- Node1&#45;&gt;Node2 -->
<g id="edge2" class="edge"><title>Node1&#45;&gt;Node2</title>
<path fill="none" stroke="midnightblue" d="M235.604,-240.528C231.152,-221.071 221.531,-179.023 215.726,-153.656"/>
<polygon fill="midnightblue" stroke="midnightblue" points="219.072,-152.585 213.43,-143.618 212.248,-154.147 219.072,-152.585"/>
</g>
<!-- Node7 -->
<g id="node16" class="node"><title>Node7</title>
<polygon fill="none" stroke="#bfbfbf" points="238.597,-180.695 238.597,-203.305 293.403,-203.305 293.403,-180.695 238.597,-180.695"/>
<text text-anchor="middle" x="266" y="-188.305" font-family="Futura" font-size="11.00">fa/set.h</text>
</g>
<!-- Node1&#45;&gt;Node7 -->
<g id="edge18" class="edge"><title>Node1&#45;&gt;Node7</title>
<path fill="none" stroke="midnightblue" d="M243.006,-240.631C246.742,-232.892 251.959,-222.084 256.48,-212.719"/>
<polygon fill="midnightblue" stroke="midnightblue" points="259.652,-214.199 260.848,-203.672 253.349,-211.156 259.652,-214.199"/>
</g>
<!-- Node8 -->
<g id="node18" class="node"><title>Node8</title>
<a xlink:href="map_8h.html" target="_top" xlink:title="fa/map.h">
<polygon fill="none" stroke="black" points="119.477,-180.695 119.477,-203.305 182.523,-203.305 182.523,-180.695 119.477,-180.695"/>
<text text-anchor="middle" x="151" y="-188.305" font-family="Futura" font-size="11.00">fa/map.h</text>
</a>
</g>
<!-- Node1&#45;&gt;Node8 -->
<g id="edge20" class="edge"><title>Node1&#45;&gt;Node8</title>
<path fill="none" stroke="midnightblue" d="M222.446,-240.631C209.29,-231.86 190.22,-219.147 175.091,-209.06"/>
<polygon fill="midnightblue" stroke="midnightblue" points="176.975,-206.11 166.713,-203.475 173.092,-211.934 176.975,-206.11"/>
</g>
<!-- Node10 -->
<g id="node26" class="node"><title>Node10</title>
<a xlink:href="vararg_8h.html" target="_top" xlink:title="fa/util/vararg.h">
<polygon fill="none" stroke="black" points="311.7,-180.695 311.7,-203.305 406.3,-203.305 406.3,-180.695 311.7,-180.695"/>
<text text-anchor="middle" x="359" y="-188.305" font-family="Futura" font-size="11.00">fa/util/vararg.h</text>
</a>
</g>
<!-- Node1&#45;&gt;Node10 -->
<g id="edge32" class="edge"><title>Node1&#45;&gt;Node10</title>
<path fill="none" stroke="midnightblue" d="M259.632,-240.631C278.699,-231.491 306.698,-218.071 328.119,-207.802"/>
<polygon fill="midnightblue" stroke="midnightblue" points="329.642,-210.954 337.147,-203.475 326.616,-204.641 329.642,-210.954"/>
</g>
<!-- Node3 -->
<g id="node5" class="node"><title>Node3</title>
<a xlink:href="fa_2fa_8h.html" target="_top" xlink:title="fa.h">
<polygon fill="none" stroke="red" points="142.273,-60.6953 142.273,-83.3047 177.727,-83.3047 177.727,-60.6953 142.273,-60.6953"/>
<text text-anchor="middle" x="160" y="-68.3047" font-family="Futura" font-size="11.00">fa.h</text>
</a>
</g>
<!-- Node2&#45;&gt;Node3 -->
<g id="edge4" class="edge"><title>Node2&#45;&gt;Node3</title>
<path fill="none" stroke="midnightblue" d="M196.566,-120.631C188.097,-112.648 177.855,-101.398 170.196,-91.8366"/>
<polygon fill="midnightblue" stroke="midnightblue" points="172.841,-89.5315 164.014,-83.6719 167.26,-93.7571 172.841,-89.5315"/>
</g>
<!-- Node3&#45;&gt;Node2 -->
<g id="edge16" class="edge"><title>Node3&#45;&gt;Node2</title>
<path fill="none" stroke="midnightblue" d="M174.754,-83.6719C183.267,-91.7362 193.499,-103.005 201.092,-112.523"/>
<polygon fill="midnightblue" stroke="midnightblue" points="198.386,-114.749 207.198,-120.631 203.977,-110.537 198.386,-114.749"/>
</g>
<!-- Node4 -->
<g id="node7" class="node"><title>Node4</title>
<polygon fill="none" stroke="#bfbfbf" points="-0.0629883,-0.695312 -0.0629883,-23.3047 74.063,-23.3047 74.063,-0.695312 -0.0629883,-0.695312"/>
<text text-anchor="middle" x="37" y="-8.30469" font-family="Futura" font-size="11.00">fa/atomic.h</text>
</g>
<!-- Node3&#45;&gt;Node4 -->
<g id="edge6" class="edge"><title>Node3&#45;&gt;Node4</title>
<path fill="none" stroke="midnightblue" d="M142.115,-62.5663C122.79,-53.4538 91.6278,-38.7595 68.2411,-27.7316"/>
<polygon fill="midnightblue" stroke="midnightblue" points="69.6063,-24.5058 59.0687,-23.4064 66.6208,-30.8372 69.6063,-24.5058"/>
</g>
<!-- Node5 -->
<g id="node9" class="node"><title>Node5</title>
<polygon fill="none" stroke="#bfbfbf" points="91.6484,-0.695312 91.6484,-23.3047 202.352,-23.3047 202.352,-0.695312 91.6484,-0.695312"/>
<text text-anchor="middle" x="147" y="-8.30469" font-family="Futura" font-size="11.00">fa/atomic/queue.h</text>
</g>
<!-- Node3&#45;&gt;Node5 -->
<g id="edge8" class="edge"><title>Node3&#45;&gt;Node5</title>
<path fill="none" stroke="midnightblue" d="M157.676,-60.6308C155.996,-53.1365 153.671,-42.7636 151.62,-33.6107"/>
<polygon fill="midnightblue" stroke="midnightblue" points="154.994,-32.6643 149.392,-23.6719 148.164,-34.1953 154.994,-32.6643"/>
</g>
<!-- Node6 -->
<g id="node11" class="node"><title>Node6</title>
<a xlink:href="pair_8h.html" target="_top" xlink:title="fa/pair.h">
<polygon fill="none" stroke="black" points="220.694,-0.695312 220.694,-23.3047 281.306,-23.3047 281.306,-0.695312 220.694,-0.695312"/>
<text text-anchor="middle" x="251" y="-8.30469" font-family="Futura" font-size="11.00">fa/pair.h</text>
</a>
</g>
<!-- Node3&#45;&gt;Node6 -->
<g id="edge10" class="edge"><title>Node3&#45;&gt;Node6</title>
<path fill="none" stroke="midnightblue" d="M170.953,-60.6308C183.235,-51.7782 203.17,-38.9089 220.161,-28.7784"/>
<polygon fill="midnightblue" stroke="midnightblue" points="222.365,-31.5444 229.23,-23.475 218.831,-25.5017 222.365,-31.5444"/>
</g>
<!-- Node6&#45;&gt;Node2 -->
<g id="edge14" class="edge"><title>Node6&#45;&gt;Node2</title>
<path fill="none" stroke="midnightblue" d="M247.401,-23.6179C240.737,-43.275 226.38,-85.6281 217.823,-110.873"/>
<polygon fill="midnightblue" stroke="midnightblue" points="214.445,-109.934 214.55,-120.528 221.075,-112.181 214.445,-109.934"/>
</g>
<!-- Node6&#45;&gt;Node3 -->
<g id="edge12" class="edge"><title>Node6&#45;&gt;Node3</title>
<path fill="none" stroke="midnightblue" d="M239.929,-23.454C226.63,-33.0299 204.466,-47.2534 186.736,-57.6482"/>
<polygon fill="midnightblue" stroke="midnightblue" points="184.874,-54.6808 177.939,-62.69 188.355,-60.7541 184.874,-54.6808"/>
</g>
<!-- Node8&#45;&gt;Node2 -->
<g id="edge26" class="edge"><title>Node8&#45;&gt;Node2</title>
<path fill="none" stroke="midnightblue" d="M161.727,-180.631C170.322,-172.322 182.578,-160.475 192.716,-150.675"/>
<polygon fill="midnightblue" stroke="midnightblue" points="195.203,-153.139 199.96,-143.672 190.338,-148.106 195.203,-153.139"/>
</g>
<!-- Node8&#45;&gt;Node3 -->
<g id="edge22" class="edge"><title>Node8&#45;&gt;Node3</title>
<path fill="none" stroke="midnightblue" d="M130.252,-180.643C107.494,-167.775 75.833,-144.507 89,-120 98.2703,-102.746 116.964,-90.7618 132.844,-83.2146"/>
<polygon fill="midnightblue" stroke="midnightblue" points="134.508,-86.3062 142.258,-79.0813 131.694,-79.8968 134.508,-86.3062"/>
</g>
<!-- Node8&#45;&gt;Node6 -->
<g id="edge24" class="edge"><title>Node8&#45;&gt;Node6</title>
<path fill="none" stroke="midnightblue" d="M182.657,-184.512C204.739,-178.181 232.713,-166.142 247,-144 268.685,-110.392 262.476,-61.1735 256.456,-33.6277"/>
<polygon fill="midnightblue" stroke="midnightblue" points="259.781,-32.4856 254.051,-23.5739 252.973,-34.1137 259.781,-32.4856"/>
</g>
<!-- Node9 -->
<g id="node23" class="node"><title>Node9</title>
<a xlink:href="string_8h.html" target="_top" xlink:title="fa/string.h">
<polygon fill="none" stroke="black" points="97.8696,-120.695 97.8696,-143.305 166.13,-143.305 166.13,-120.695 97.8696,-120.695"/>
<text text-anchor="middle" x="132" y="-128.305" font-family="Futura" font-size="11.00">fa/string.h</text>
</a>
</g>
<!-- Node8&#45;&gt;Node9 -->
<g id="edge28" class="edge"><title>Node8&#45;&gt;Node9</title>
<path fill="none" stroke="midnightblue" d="M147.603,-180.631C145.121,-173.055 141.676,-162.538 138.654,-153.313"/>
<polygon fill="midnightblue" stroke="midnightblue" points="141.935,-152.085 135.496,-143.672 135.283,-154.265 141.935,-152.085"/>
</g>
<!-- Node9&#45;&gt;Node3 -->
<g id="edge30" class="edge"><title>Node9&#45;&gt;Node3</title>
<path fill="none" stroke="midnightblue" d="M137.006,-120.631C140.742,-112.892 145.959,-102.084 150.48,-92.7193"/>
<polygon fill="midnightblue" stroke="midnightblue" points="153.652,-94.199 154.848,-83.6719 147.349,-91.1558 153.652,-94.199"/>
</g>
</g>
</svg>
