<?xml version="1.0" encoding="UTF-8" standalone="no"?>
<!DOCTYPE svg PUBLIC "-//W3C//DTD SVG 1.1//EN"
 "http://www.w3.org/Graphics/SVG/1.1/DTD/svg11.dtd">
<!-- Generated by graphviz version 2.28.0 (20121015.0031)
 -->
<!-- Title: include/fa/audio/stream.h Pages: 1 -->
<svg width="522pt" height="392pt"
 viewBox="0.00 0.00 522.00 392.00" xmlns="http://www.w3.org/2000/svg" xmlns:xlink="http://www.w3.org/1999/xlink">
<g id="graph1" class="graph" transform="scale(1 1) rotate(0) translate(4 388)">
<title>include/fa/audio/stream.h</title>
<!-- Node1 -->
<g id="node1" class="node"><title>Node1</title>
<polygon fill="#bfbfbf" stroke="black" points="218.296,-360.695 218.296,-383.305 367.704,-383.305 367.704,-360.695 218.296,-360.695"/>
<text text-anchor="middle" x="293" y="-368.305" font-family="Futura" font-size="11.00">include/fa/audio/stream.h</text>
</g>
<!-- Node2 -->
<g id="node3" class="node"><title>Node2</title>
<a xlink:href="action_8h.html" target="_top" xlink:title="fa/action.h">
<polygon fill="none" stroke="black" points="174.309,-240.695 174.309,-263.305 245.691,-263.305 245.691,-240.695 174.309,-240.695"/>
<text text-anchor="middle" x="210" y="-248.305" font-family="Futura" font-size="11.00">fa/action.h</text>
</a>
</g>
<!-- Node1&#45;&gt;Node2 -->
<g id="edge2" class="edge"><title>Node1&#45;&gt;Node2</title>
<path fill="none" stroke="midnightblue" d="M285.634,-360.528C271.642,-340.635 241.038,-297.126 223.347,-271.975"/>
<polygon fill="midnightblue" stroke="midnightblue" points="226.085,-269.784 217.469,-263.618 220.359,-273.811 226.085,-269.784"/>
</g>
<!-- Node4 -->
<g id="node7" class="node"><title>Node4</title>
<a xlink:href="error_8h.html" target="_top" xlink:title="fa/error.h">
<polygon fill="none" stroke="red" points="306.161,-120.695 306.161,-143.305 371.839,-143.305 371.839,-120.695 306.161,-120.695"/>
<text text-anchor="middle" x="339" y="-128.305" font-family="Futura" font-size="11.00">fa/error.h</text>
</a>
</g>
<!-- Node1&#45;&gt;Node4 -->
<g id="edge52" class="edge"><title>Node1&#45;&gt;Node4</title>
<path fill="none" stroke="midnightblue" d="M294.437,-360.427C297.527,-338.097 305.242,-284.523 314,-240 319.958,-209.715 328.371,-174.97 333.756,-153.501"/>
<polygon fill="midnightblue" stroke="midnightblue" points="337.207,-154.13 336.267,-143.577 330.421,-152.413 337.207,-154.13"/>
</g>
<!-- Node5 -->
<g id="node10" class="node"><title>Node5</title>
<a xlink:href="pair_8h.html" target="_top" xlink:title="fa/pair.h">
<polygon fill="none" stroke="black" points="89.6938,-60.6953 89.6938,-83.3047 150.306,-83.3047 150.306,-60.6953 89.6938,-60.6953"/>
<text text-anchor="middle" x="120" y="-68.3047" font-family="Futura" font-size="11.00">fa/pair.h</text>
</a>
</g>
<!-- Node1&#45;&gt;Node5 -->
<g id="edge50" class="edge"><title>Node1&#45;&gt;Node5</title>
<path fill="none" stroke="midnightblue" d="M238.576,-360.654C153.842,-342.971 0,-303.863 0,-253 0,-253 0,-253 0,-191 0,-142.051 51.3905,-106.633 86.9105,-87.9998"/>
<polygon fill="midnightblue" stroke="midnightblue" points="88.655,-91.0399 96.0046,-83.4088 85.5003,-84.791 88.655,-91.0399"/>
</g>
<!-- Node6 -->
<g id="node13" class="node"><title>Node6</title>
<a xlink:href="list_8h.html" target="_top" xlink:title="fa/list.h">
<polygon fill="none" stroke="black" points="185.949,-0.695312 185.949,-23.3047 240.051,-23.3047 240.051,-0.695312 185.949,-0.695312"/>
<text text-anchor="middle" x="213" y="-8.30469" font-family="Futura" font-size="11.00">fa/list.h</text>
</a>
</g>
<!-- Node1&#45;&gt;Node6 -->
<g id="edge48" class="edge"><title>Node1&#45;&gt;Node6</title>
<path fill="none" stroke="midnightblue" d="M367.878,-366.344C404.369,-360.735 446.958,-348.855 478,-324 505.618,-301.887 514,-288.38 514,-253 514,-253 514,-253 514,-131 514,-74.9998 331.126,-34.6078 250.464,-19.5153"/>
<polygon fill="midnightblue" stroke="midnightblue" points="250.711,-16.0021 240.243,-17.6363 249.445,-22.8868 250.711,-16.0021"/>
</g>
<!-- Node7 -->
<g id="node17" class="node"><title>Node7</title>
<a xlink:href="time_8h.html" target="_top" xlink:title="fa/time.h">
<polygon fill="none" stroke="red" points="310.157,-60.6953 310.157,-83.3047 371.843,-83.3047 371.843,-60.6953 310.157,-60.6953"/>
<text text-anchor="middle" x="341" y="-68.3047" font-family="Futura" font-size="11.00">fa/time.h</text>
</a>
</g>
<!-- Node1&#45;&gt;Node7 -->
<g id="edge40" class="edge"><title>Node1&#45;&gt;Node7</title>
<path fill="none" stroke="midnightblue" d="M368.045,-365.244C398.946,-359.21 432.851,-347.292 456,-324 479.11,-300.747 476,-285.784 476,-253 476,-253 476,-253 476,-191 476,-139.271 419.115,-104.978 379.196,-87.2816"/>
<polygon fill="midnightblue" stroke="midnightblue" points="380.532,-84.0465 369.961,-83.3451 377.788,-90.4859 380.532,-84.0465"/>
</g>
<!-- Node8 -->
<g id="node21" class="node"><title>Node8</title>
<a xlink:href="signal_8h.html" target="_top" xlink:title="signal.h">
<polygon fill="none" stroke="red" points="65.7097,-120.695 65.7097,-143.305 120.29,-143.305 120.29,-120.695 65.7097,-120.695"/>
<text text-anchor="middle" x="93" y="-128.305" font-family="Futura" font-size="11.00">signal.h</text>
</a>
</g>
<!-- Node1&#45;&gt;Node8 -->
<g id="edge54" class="edge"><title>Node1&#45;&gt;Node8</title>
<path fill="none" stroke="midnightblue" d="M276.781,-360.422C250.731,-342.829 199.047,-305.376 165,-264 135.885,-228.618 112.682,-179.727 101.085,-152.792"/>
<polygon fill="midnightblue" stroke="midnightblue" points="104.199,-151.169 97.0942,-143.31 97.7476,-153.884 104.199,-151.169"/>
</g>
<!-- Node9 -->
<g id="node30" class="node"><title>Node9</title>
<a xlink:href="clock_8h.html" target="_top" xlink:title="fa/clock.h">
<polygon fill="none" stroke="black" points="322.541,-240.695 322.541,-263.305 389.459,-263.305 389.459,-240.695 322.541,-240.695"/>
<text text-anchor="middle" x="356" y="-248.305" font-family="Futura" font-size="11.00">fa/clock.h</text>
</a>
</g>
<!-- Node1&#45;&gt;Node9 -->
<g id="edge42" class="edge"><title>Node1&#45;&gt;Node9</title>
<path fill="none" stroke="midnightblue" d="M298.591,-360.528C309.119,-340.81 332.035,-297.887 345.513,-272.641"/>
<polygon fill="midnightblue" stroke="midnightblue" points="348.709,-274.088 350.331,-263.618 342.534,-270.791 348.709,-274.088"/>
</g>
<!-- Node10 -->
<g id="node38" class="node"><title>Node10</title>
<a xlink:href="audio_2device_8h.html" target="_top" xlink:title="fa/audio/device.h">
<polygon fill="none" stroke="red" points="340.262,-300.695 340.262,-323.305 447.738,-323.305 447.738,-300.695 340.262,-300.695"/>
<text text-anchor="middle" x="394" y="-308.305" font-family="Futura" font-size="11.00">fa/audio/device.h</text>
</a>
</g>
<!-- Node1&#45;&gt;Node10 -->
<g id="edge56" class="edge"><title>Node1&#45;&gt;Node10</title>
<path fill="none" stroke="midnightblue" d="M311.057,-360.631C326.615,-351.696 349.298,-338.67 367.013,-328.498"/>
<polygon fill="midnightblue" stroke="midnightblue" points="368.83,-331.49 375.759,-323.475 365.344,-325.42 368.83,-331.49"/>
</g>
<!-- Node3 -->
<g id="node5" class="node"><title>Node3</title>
<a xlink:href="fa_2fa_8h.html" target="_top" xlink:title="fa.h">
<polygon fill="none" stroke="red" points="195.273,-180.695 195.273,-203.305 230.727,-203.305 230.727,-180.695 195.273,-180.695"/>
<text text-anchor="middle" x="213" y="-188.305" font-family="Futura" font-size="11.00">fa.h</text>
</a>
</g>
<!-- Node2&#45;&gt;Node3 -->
<g id="edge4" class="edge"><title>Node2&#45;&gt;Node3</title>
<path fill="none" stroke="midnightblue" d="M205.22,-240.631C204.247,-233.137 204.391,-222.764 205.442,-213.611"/>
<polygon fill="midnightblue" stroke="midnightblue" points="208.907,-214.108 207.078,-203.672 202,-212.97 208.907,-214.108"/>
</g>
<!-- Node2&#45;&gt;Node5 -->
<g id="edge34" class="edge"><title>Node2&#45;&gt;Node5</title>
<path fill="none" stroke="midnightblue" d="M190.792,-240.638C152.966,-219.777 71.254,-172.297 57,-144 52.2013,-134.474 52.2176,-129.534 57,-120 63.6955,-106.651 76.1796,-96.1264 88.2796,-88.4504"/>
<polygon fill="midnightblue" stroke="midnightblue" points="90.0856,-91.4488 96.9341,-83.3649 86.5392,-85.4136 90.0856,-91.4488"/>
</g>
<!-- Node2&#45;&gt;Node6 -->
<g id="edge36" class="edge"><title>Node2&#45;&gt;Node6</title>
<path fill="none" stroke="midnightblue" d="M174.183,-242.597C149.228,-235.42 116.207,-223.16 92,-204 59.2719,-178.095 40.1413,-160.559 50,-120 57.0895,-90.8336 58.3942,-79.7463 81,-60 107.76,-36.6252 146.954,-24.6235 175.683,-18.6263"/>
<polygon fill="midnightblue" stroke="midnightblue" points="176.598,-22.0143 185.751,-16.6785 175.268,-15.1417 176.598,-22.0143"/>
</g>
<!-- Node2&#45;&gt;Node8 -->
<g id="edge38" class="edge"><title>Node2&#45;&gt;Node8</title>
<path fill="none" stroke="midnightblue" d="M199.617,-240.528C179.633,-220.373 135.613,-175.977 110.84,-150.992"/>
<polygon fill="midnightblue" stroke="midnightblue" points="113.054,-148.255 103.528,-143.618 108.083,-153.183 113.054,-148.255"/>
</g>
<!-- Node3&#45;&gt;Node2 -->
<g id="edge24" class="edge"><title>Node3&#45;&gt;Node2</title>
<path fill="none" stroke="midnightblue" d="M217.818,-203.672C218.762,-211.242 218.59,-221.637 217.516,-230.756"/>
<polygon fill="midnightblue" stroke="midnightblue" points="214.062,-230.188 215.852,-240.631 220.965,-231.351 214.062,-230.188"/>
</g>
<!-- Node3&#45;&gt;Node4 -->
<g id="edge6" class="edge"><title>Node3&#45;&gt;Node4</title>
<path fill="none" stroke="midnightblue" d="M230.21,-180.631C248.568,-171.409 277.862,-157.829 301.503,-147.527"/>
<polygon fill="midnightblue" stroke="midnightblue" points="303.109,-150.646 310.909,-143.475 300.34,-144.217 303.109,-150.646"/>
</g>
<!-- Node3&#45;&gt;Node5 -->
<g id="edge10" class="edge"><title>Node3&#45;&gt;Node5</title>
<path fill="none" stroke="midnightblue" d="M200.7,-180.528C181.819,-160.635 147.171,-117.126 129.839,-91.9754"/>
<polygon fill="midnightblue" stroke="midnightblue" points="132.741,-90.0186 124.298,-83.6179 126.906,-93.8866 132.741,-90.0186"/>
</g>
<!-- Node3&#45;&gt;Node6 -->
<g id="edge18" class="edge"><title>Node3&#45;&gt;Node6</title>
<path fill="none" stroke="midnightblue" d="M209.624,-180.661C205.548,-152.15 205.165,-72.0012 208.475,-33.78"/>
<polygon fill="midnightblue" stroke="midnightblue" points="212.005,-33.6908 209.62,-23.368 205.047,-32.9251 212.005,-33.6908"/>
</g>
<!-- Node3&#45;&gt;Node7 -->
<g id="edge20" class="edge"><title>Node3&#45;&gt;Node7</title>
<path fill="none" stroke="midnightblue" d="M220.312,-180.528C239.172,-160.112 288.013,-114.82 317.614,-90.0288"/>
<polygon fill="midnightblue" stroke="midnightblue" points="319.91,-92.6722 325.412,-83.6179 315.465,-87.265 319.91,-92.6722"/>
</g>
<!-- Node3&#45;&gt;Node8 -->
<g id="edge26" class="edge"><title>Node3&#45;&gt;Node8</title>
<path fill="none" stroke="midnightblue" d="M195.267,-184.571C174.713,-175.81 141.179,-159.854 118.042,-148.002"/>
<polygon fill="midnightblue" stroke="midnightblue" points="119.618,-144.876 109.132,-143.366 116.388,-151.086 119.618,-144.876"/>
</g>
<!-- Node4&#45;&gt;Node3 -->
<g id="edge8" class="edge"><title>Node4&#45;&gt;Node3</title>
<path fill="none" stroke="midnightblue" d="M321.614,-143.457C300.513,-154.048 265.142,-170.323 240.407,-180.815"/>
<polygon fill="midnightblue" stroke="midnightblue" points="238.741,-177.718 230.855,-184.793 241.432,-184.18 238.741,-177.718"/>
</g>
<!-- Node5&#45;&gt;Node3 -->
<g id="edge12" class="edge"><title>Node5&#45;&gt;Node3</title>
<path fill="none" stroke="midnightblue" d="M132.439,-83.6179C151.314,-103.538 185.737,-146.767 203.06,-171.878"/>
<polygon fill="midnightblue" stroke="midnightblue" points="200.352,-174.127 208.794,-180.528 206.186,-170.259 200.352,-174.127"/>
</g>
<!-- Node5&#45;&gt;Node6 -->
<g id="edge14" class="edge"><title>Node5&#45;&gt;Node6</title>
<path fill="none" stroke="midnightblue" d="M136.627,-60.6308C150.821,-51.7782 171.456,-38.9089 187.7,-28.7784"/>
<polygon fill="midnightblue" stroke="midnightblue" points="189.571,-31.7366 196.204,-23.475 185.867,-25.7971 189.571,-31.7366"/>
</g>
<!-- Node6&#45;&gt;Node3 -->
<g id="edge16" class="edge"><title>Node6&#45;&gt;Node3</title>
<path fill="none" stroke="midnightblue" d="M216.38,-23.368C220.453,-51.9131 220.834,-132.065 217.522,-170.258"/>
<polygon fill="midnightblue" stroke="midnightblue" points="213.992,-170.337 216.376,-180.661 220.95,-171.104 213.992,-170.337"/>
</g>
<!-- Node7&#45;&gt;Node3 -->
<g id="edge22" class="edge"><title>Node7&#45;&gt;Node3</title>
<path fill="none" stroke="midnightblue" d="M333.553,-83.6179C314.551,-104.153 265.684,-149.455 236.175,-174.148"/>
<polygon fill="midnightblue" stroke="midnightblue" points="233.913,-171.477 228.406,-180.528 238.355,-176.886 233.913,-171.477"/>
</g>
<!-- Node8&#45;&gt;Node3 -->
<g id="edge28" class="edge"><title>Node8&#45;&gt;Node3</title>
<path fill="none" stroke="midnightblue" d="M120.007,-143.475C140.356,-152.524 167.866,-165.712 187.768,-175.901"/>
<polygon fill="midnightblue" stroke="midnightblue" points="186.375,-179.122 196.862,-180.631 189.605,-172.911 186.375,-179.122"/>
</g>
<!-- Node8&#45;&gt;Node5 -->
<g id="edge30" class="edge"><title>Node8&#45;&gt;Node5</title>
<path fill="none" stroke="midnightblue" d="M97.8271,-120.631C101.392,-112.974 106.355,-102.311 110.682,-93.0155"/>
<polygon fill="midnightblue" stroke="midnightblue" points="113.985,-94.2148 115.032,-83.6719 107.639,-91.2606 113.985,-94.2148"/>
</g>
<!-- Node8&#45;&gt;Node7 -->
<g id="edge32" class="edge"><title>Node8&#45;&gt;Node7</title>
<path fill="none" stroke="midnightblue" d="M120.488,-124.571C164.024,-114.389 249.1,-94.4928 299.907,-82.6106"/>
<polygon fill="midnightblue" stroke="midnightblue" points="300.954,-85.96 309.895,-80.2746 299.36,-79.1439 300.954,-85.96"/>
</g>
<!-- Node9&#45;&gt;Node3 -->
<g id="edge44" class="edge"><title>Node9&#45;&gt;Node3</title>
<path fill="none" stroke="midnightblue" d="M330.434,-240.631C305.075,-230.345 266.346,-214.637 240.373,-204.102"/>
<polygon fill="midnightblue" stroke="midnightblue" points="241.68,-200.855 231.097,-200.34 239.049,-207.342 241.68,-200.855"/>
</g>
<!-- Node9&#45;&gt;Node7 -->
<g id="edge46" class="edge"><title>Node9&#45;&gt;Node7</title>
<path fill="none" stroke="midnightblue" d="M361.531,-240.505C372.685,-217.878 395.54,-163.063 380,-120 376.059,-109.079 368.354,-98.9016 360.826,-90.8297"/>
<polygon fill="midnightblue" stroke="midnightblue" points="363.05,-88.1042 353.503,-83.5102 358.102,-93.0551 363.05,-88.1042"/>
</g>
<!-- Node10&#45;&gt;Node2 -->
<g id="edge58" class="edge"><title>Node10&#45;&gt;Node2</title>
<path fill="none" stroke="midnightblue" d="M361.104,-300.631C330.846,-291.093 285.796,-276.892 252.758,-266.478"/>
<polygon fill="midnightblue" stroke="midnightblue" points="253.51,-263.045 242.92,-263.377 251.406,-269.722 253.51,-263.045"/>
</g>
<!-- Node10&#45;&gt;Node7 -->
<g id="edge60" class="edge"><title>Node10&#45;&gt;Node7</title>
<path fill="none" stroke="midnightblue" d="M397.164,-300.39C405.51,-270.328 425.531,-182.701 396,-120 390.088,-107.448 379.037,-96.9765 368.383,-89.128"/>
<polygon fill="midnightblue" stroke="midnightblue" points="370.257,-86.1696 360.029,-83.4061 366.301,-91.9448 370.257,-86.1696"/>
</g>
<!-- Node10&#45;&gt;Node9 -->
<g id="edge62" class="edge"><title>Node10&#45;&gt;Node9</title>
<path fill="none" stroke="midnightblue" d="M387.206,-300.631C382.029,-292.729 374.756,-281.628 368.533,-272.13"/>
<polygon fill="midnightblue" stroke="midnightblue" points="371.4,-270.118 362.992,-263.672 365.545,-273.955 371.4,-270.118"/>
</g>
</g>
</svg>
