<?xml version="1.0" encoding="UTF-8" standalone="no"?>
<!DOCTYPE svg PUBLIC "-//W3C//DTD SVG 1.1//EN"
 "http://www.w3.org/Graphics/SVG/1.1/DTD/svg11.dtd">
<!-- Generated by graphviz version 2.28.0 (20121015.0031)
 -->
<!-- Title: include/fa/audio/session.h Pages: 1 -->
<svg width="651pt" height="332pt"
 viewBox="0.00 0.00 651.00 332.00" xmlns="http://www.w3.org/2000/svg" xmlns:xlink="http://www.w3.org/1999/xlink">
<g id="graph1" class="graph" transform="scale(1 1) rotate(0) translate(4 328)">
<title>include/fa/audio/session.h</title>
<!-- Node1 -->
<g id="node1" class="node"><title>Node1</title>
<polygon fill="#bfbfbf" stroke="black" points="424.313,-300.695 424.313,-323.305 575.687,-323.305 575.687,-300.695 424.313,-300.695"/>
<text text-anchor="middle" x="500" y="-308.305" font-family="Futura" font-size="11.00">include/fa/audio/session.h</text>
</g>
<!-- Node2 -->
<g id="node3" class="node"><title>Node2</title>
<a xlink:href="audio_2device_8h.html" target="_top" xlink:title="include/fa/audio/device.h">
<polygon fill="none" stroke="black" points="374.699,-240.695 374.699,-263.305 523.301,-263.305 523.301,-240.695 374.699,-240.695"/>
<text text-anchor="middle" x="449" y="-248.305" font-family="Futura" font-size="11.00">include/fa/audio/device.h</text>
</a>
</g>
<!-- Node1&#45;&gt;Node2 -->
<g id="edge2" class="edge"><title>Node1&#45;&gt;Node2</title>
<path fill="none" stroke="midnightblue" d="M484.264,-293.104C475.789,-283.466 465.62,-271.901 458.384,-263.672"/>
<polygon fill="midnightblue" stroke="midnightblue" points="481.65,-295.432 490.882,-300.631 486.907,-290.81 481.65,-295.432"/>
</g>
<!-- Node4 -->
<g id="node7" class="node"><title>Node4</title>
<a xlink:href="audio_8h.html" target="_top" xlink:title="include/fa/audio.h">
<polygon fill="none" stroke="black" points="374.592,-120.695 374.592,-143.305 485.408,-143.305 485.408,-120.695 374.592,-120.695"/>
<text text-anchor="middle" x="430" y="-128.305" font-family="Futura" font-size="11.00">include/fa/audio.h</text>
</a>
</g>
<!-- Node1&#45;&gt;Node4 -->
<g id="edge38" class="edge"><title>Node1&#45;&gt;Node4</title>
<path fill="none" stroke="midnightblue" d="M517.149,-292.529C528.191,-278.307 539.24,-258.087 532,-240 514.547,-196.397 469.924,-160.456 445.894,-143.503"/>
<polygon fill="midnightblue" stroke="midnightblue" points="514.179,-290.623 510.437,-300.536 519.543,-295.12 514.179,-290.623"/>
</g>
<!-- Node3 -->
<g id="node5" class="node"><title>Node3</title>
<a xlink:href="audio_2stream_8h.html" target="_top" xlink:title="include/fa/audio/stream.h">
<polygon fill="none" stroke="black" points="272.296,-180.695 272.296,-203.305 421.704,-203.305 421.704,-180.695 272.296,-180.695"/>
<text text-anchor="middle" x="347" y="-188.305" font-family="Futura" font-size="11.00">include/fa/audio/stream.h</text>
</a>
</g>
<!-- Node2&#45;&gt;Node3 -->
<g id="edge4" class="edge"><title>Node2&#45;&gt;Node3</title>
<path fill="none" stroke="midnightblue" d="M421.957,-235.622C404.107,-225.472 381.191,-212.442 365.422,-203.475"/>
<polygon fill="midnightblue" stroke="midnightblue" points="420.341,-238.73 430.764,-240.631 423.802,-232.645 420.341,-238.73"/>
</g>
<!-- Node2&#45;&gt;Node4 -->
<g id="edge36" class="edge"><title>Node2&#45;&gt;Node4</title>
<path fill="none" stroke="midnightblue" d="M445.705,-230.534C441.634,-205.25 434.861,-163.187 431.71,-143.618"/>
<polygon fill="midnightblue" stroke="midnightblue" points="442.269,-231.212 447.314,-240.528 449.18,-230.099 442.269,-231.212"/>
</g>
<!-- Node3&#45;&gt;Node4 -->
<g id="edge6" class="edge"><title>Node3&#45;&gt;Node4</title>
<path fill="none" stroke="midnightblue" d="M370.214,-174.778C384.553,-164.758 402.531,-152.195 415.01,-143.475"/>
<polygon fill="midnightblue" stroke="midnightblue" points="368.031,-172.034 361.839,-180.631 372.041,-177.772 368.031,-172.034"/>
</g>
<!-- Node5 -->
<g id="node9" class="node"><title>Node5</title>
<a xlink:href="fa_2fa_8h.html" target="_top" xlink:title="include/fa/fa.h">
<polygon fill="none" stroke="red" points="226.846,-60.6953 226.846,-83.3047 319.154,-83.3047 319.154,-60.6953 226.846,-60.6953"/>
<text text-anchor="middle" x="273" y="-68.3047" font-family="Futura" font-size="11.00">include/fa/fa.h</text>
</a>
</g>
<!-- Node4&#45;&gt;Node5 -->
<g id="edge8" class="edge"><title>Node4&#45;&gt;Node5</title>
<path fill="none" stroke="midnightblue" d="M392.441,-117.125C364.363,-106.752 326.581,-92.7941 301.09,-83.3771"/>
<polygon fill="midnightblue" stroke="midnightblue" points="391.338,-120.448 401.932,-120.631 393.764,-113.882 391.338,-120.448"/>
</g>
<!-- Node6 -->
<g id="node11" class="node"><title>Node6</title>
<a xlink:href="action_8h.html" target="_top" xlink:title="include/fa/action.h">
<polygon fill="none" stroke="red" points="-0.253906,-0.695312 -0.253906,-23.3047 112.254,-23.3047 112.254,-0.695312 -0.253906,-0.695312"/>
<text text-anchor="middle" x="56" y="-8.30469" font-family="Futura" font-size="11.00">include/fa/action.h</text>
</a>
</g>
<!-- Node5&#45;&gt;Node6 -->
<g id="edge10" class="edge"><title>Node5&#45;&gt;Node6</title>
<path fill="none" stroke="midnightblue" d="M219.136,-58.1319C178.5,-47.6709 124.129,-33.1025 89.5073,-23.3771"/>
<polygon fill="midnightblue" stroke="midnightblue" points="218.333,-61.5391 228.889,-60.6308 220.071,-54.7582 218.333,-61.5391"/>
</g>
<!-- Node7 -->
<g id="node17" class="node"><title>Node7</title>
<a xlink:href="atomic_8h.html" target="_top" xlink:title="include/fa/atomic.h">
<polygon fill="none" stroke="black" points="272.374,-0.695312 272.374,-23.3047 387.626,-23.3047 387.626,-0.695312 272.374,-0.695312"/>
<text text-anchor="middle" x="330" y="-8.30469" font-family="Futura" font-size="11.00">include/fa/atomic.h</text>
</a>
</g>
<!-- Node5&#45;&gt;Node7 -->
<g id="edge20" class="edge"><title>Node5&#45;&gt;Node7</title>
<path fill="none" stroke="midnightblue" d="M284.558,-52.8141C293.165,-43.235 304.699,-31.8185 314.142,-23.6719"/>
<polygon fill="midnightblue" stroke="midnightblue" points="281.713,-50.7557 277.875,-60.6308 287.033,-55.3048 281.713,-50.7557"/>
</g>
<!-- Node8 -->
<g id="node20" class="node"><title>Node8</title>
<a xlink:href="buffer_8h.html" target="_top" xlink:title="include/fa/buffer.h">
<polygon fill="none" stroke="red" points="405.227,-0.695312 405.227,-23.3047 516.773,-23.3047 516.773,-0.695312 405.227,-0.695312"/>
<text text-anchor="middle" x="461" y="-8.30469" font-family="Futura" font-size="11.00">include/fa/buffer.h</text>
</a>
</g>
<!-- Node5&#45;&gt;Node8 -->
<g id="edge24" class="edge"><title>Node5&#45;&gt;Node8</title>
<path fill="none" stroke="midnightblue" d="M316.224,-57.6648C350.013,-47.2408 396.307,-32.9586 427.364,-23.3771"/>
<polygon fill="midnightblue" stroke="midnightblue" points="315.134,-54.3382 306.611,-60.6308 317.198,-61.0271 315.134,-54.3382"/>
</g>
<!-- Node9 -->
<g id="node22" class="node"><title>Node9</title>
<a xlink:href="clock_8h.html" target="_top" xlink:title="include/fa/clock.h">
<polygon fill="none" stroke="red" points="534.978,-0.695312 534.978,-23.3047 643.022,-23.3047 643.022,-0.695312 534.978,-0.695312"/>
<text text-anchor="middle" x="589" y="-8.30469" font-family="Futura" font-size="11.00">include/fa/clock.h</text>
</a>
</g>
<!-- Node5&#45;&gt;Node9 -->
<g id="edge26" class="edge"><title>Node5&#45;&gt;Node9</title>
<path fill="none" stroke="midnightblue" d="M329.404,-60.6473C387.562,-49.9728 477.608,-33.4454 534.904,-22.929"/>
<polygon fill="midnightblue" stroke="midnightblue" points="328.491,-57.2563 319.288,-62.5042 329.755,-64.1413 328.491,-57.2563"/>
</g>
<!-- Node10 -->
<g id="node27" class="node"><title>Node10</title>
<a xlink:href="dynamic_8h.html" target="_top" xlink:title="include/fa/dynamic.h">
<polygon fill="none" stroke="black" points="129.918,-0.695312 129.918,-23.3047 254.082,-23.3047 254.082,-0.695312 129.918,-0.695312"/>
<text text-anchor="middle" x="192" y="-8.30469" font-family="Futura" font-size="11.00">include/fa/dynamic.h</text>
</a>
</g>
<!-- Node5&#45;&gt;Node10 -->
<g id="edge34" class="edge"><title>Node5&#45;&gt;Node10</title>
<path fill="none" stroke="midnightblue" d="M250.345,-54.7779C236.352,-44.7583 218.807,-32.1949 206.629,-23.475"/>
<polygon fill="midnightblue" stroke="midnightblue" points="248.351,-57.6545 258.519,-60.6308 252.426,-51.9631 248.351,-57.6545"/>
</g>
<!-- Node6&#45;&gt;Node1 -->
<g id="edge14" class="edge"><title>Node6&#45;&gt;Node1</title>
<path fill="none" stroke="midnightblue" d="M58.2404,-33.555C60.607,-57.0762 64,-96.7674 64,-131 64,-193 64,-193 64,-193 64,-266.713 299.138,-295.798 424.055,-306.049"/>
<polygon fill="midnightblue" stroke="midnightblue" points="61.7,-32.9844 57.1804,-23.4019 54.7378,-33.7113 61.7,-32.9844"/>
</g>
<!-- Node6&#45;&gt;Node2 -->
<g id="edge12" class="edge"><title>Node6&#45;&gt;Node2</title>
<path fill="none" stroke="midnightblue" d="M70.7675,-31.8794C101.949,-70.4066 178.611,-158.296 263,-204 297.266,-222.558 339.062,-233.97 374.348,-240.892"/>
<polygon fill="midnightblue" stroke="midnightblue" points="73.1401,-29.2416 64.1645,-23.6123 67.6706,-33.6102 73.1401,-29.2416"/>
</g>
<!-- Node6&#45;&gt;Node3 -->
<g id="edge16" class="edge"><title>Node6&#45;&gt;Node3</title>
<path fill="none" stroke="midnightblue" d="M87.2323,-27.6559C105.514,-36.512 128.885,-48.3163 149,-60 219.926,-101.197 300.228,-157.504 332.472,-180.536"/>
<polygon fill="midnightblue" stroke="midnightblue" points="88.7101,-24.483 78.1805,-23.3098 85.6803,-30.7933 88.7101,-24.483"/>
</g>
<!-- Node6&#45;&gt;Node5 -->
<g id="edge18" class="edge"><title>Node6&#45;&gt;Node5</title>
<path fill="none" stroke="midnightblue" d="M109.897,-25.8765C150.54,-36.3397 204.91,-50.9079 239.521,-60.6308"/>
<polygon fill="midnightblue" stroke="midnightblue" points="110.698,-22.4688 100.142,-23.3771 108.96,-29.2497 110.698,-22.4688"/>
</g>
<!-- Node7&#45;&gt;Node5 -->
<g id="edge22" class="edge"><title>Node7&#45;&gt;Node5</title>
<path fill="none" stroke="midnightblue" d="M318.119,-31.5444C309.441,-41.1685 297.897,-52.5663 288.506,-60.6308"/>
<polygon fill="midnightblue" stroke="midnightblue" points="321.021,-33.538 324.882,-23.6719 315.711,-28.9766 321.021,-33.538"/>
</g>
<!-- Node9&#45;&gt;Node1 -->
<g id="edge30" class="edge"><title>Node9&#45;&gt;Node1</title>
<path fill="none" stroke="midnightblue" d="M589,-33.5836C589,-57.1309 589,-96.8458 589,-131 589,-193 589,-193 589,-193 589,-241.24 541.002,-282.266 515.503,-300.657"/>
<polygon fill="midnightblue" stroke="midnightblue" points="592.5,-33.4179 589,-23.4179 585.5,-33.418 592.5,-33.4179"/>
</g>
<!-- Node9&#45;&gt;Node2 -->
<g id="edge28" class="edge"><title>Node9&#45;&gt;Node2</title>
<path fill="none" stroke="midnightblue" d="M577.72,-32.1753C549.561,-80.0464 476.881,-203.603 455.196,-240.466"/>
<polygon fill="midnightblue" stroke="midnightblue" points="580.822,-33.806 582.875,-23.412 574.788,-30.2568 580.822,-33.806"/>
</g>
<!-- Node9&#45;&gt;Node3 -->
<g id="edge32" class="edge"><title>Node9&#45;&gt;Node3</title>
<path fill="none" stroke="midnightblue" d="M531.329,-26.1206C480.547,-40.6385 408.279,-69.0288 366,-120 351.337,-137.678 347.9,-165.598 347.152,-180.617"/>
<polygon fill="midnightblue" stroke="midnightblue" points="532.476,-29.4349 541.183,-23.3994 530.612,-22.6874 532.476,-29.4349"/>
</g>
</g>
</svg>
