<?xml version="1.0" encoding="UTF-8" standalone="no"?>
<!DOCTYPE svg PUBLIC "-//W3C//DTD SVG 1.1//EN"
 "http://www.w3.org/Graphics/SVG/1.1/DTD/svg11.dtd">
<!-- Generated by graphviz version 2.28.0 (20121015.0031)
 -->
<!-- Title: include/fa.h Pages: 1 -->
<svg width="947pt" height="166pt"
 viewBox="0.00 0.00 947.00 166.00" xmlns="http://www.w3.org/2000/svg" xmlns:xlink="http://www.w3.org/1999/xlink">
<g id="graph1" class="graph" transform="scale(1 1) rotate(0) translate(4 162)">
<title>include/fa.h</title>
<!-- Node1 -->
<g id="node1" class="node"><title>Node1</title>
<polygon fill="#bfbfbf" stroke="black" points="411.71,-134.695 411.71,-157.305 488.29,-157.305 488.29,-134.695 411.71,-134.695"/>
<text text-anchor="middle" x="450" y="-142.305" font-family="Futura" font-size="11.00">include/fa.h</text>
</g>
<!-- Node2 -->
<g id="node3" class="node"><title>Node2</title>
<a xlink:href="queue_8h.html" target="_top" xlink:title="include/fa/atomic/queue.h">
<polygon fill="none" stroke="red" points="100.085,-67.6953 100.085,-90.3047 251.915,-90.3047 251.915,-67.6953 100.085,-67.6953"/>
<text text-anchor="middle" x="176" y="-75.3047" font-family="Futura" font-size="11.00">include/fa/atomic/queue.h</text>
</a>
</g>
<!-- Node1&#45;&gt;Node2 -->
<g id="edge2" class="edge"><title>Node1&#45;&gt;Node2</title>
<path fill="none" stroke="midnightblue" d="M401.713,-133.545C350.162,-121.316 269.211,-102.112 219.553,-90.3318"/>
<polygon fill="midnightblue" stroke="midnightblue" points="401.075,-136.991 411.613,-135.894 402.691,-130.18 401.075,-136.991"/>
</g>
<!-- Node3 -->
<g id="node5" class="node"><title>Node3</title>
<a xlink:href="ring__buffer_8h.html" target="_top" xlink:title="include/fa/atomic/ring\l_buffer.h">
<polygon fill="none" stroke="red" points="384.419,-60.3906 384.419,-97.6094 515.581,-97.6094 515.581,-60.3906 384.419,-60.3906"/>
<text text-anchor="start" x="392.419" y="-82.6094" font-family="Futura" font-size="11.00">include/fa/atomic/ring</text>
<text text-anchor="middle" x="450" y="-68" font-family="Futura" font-size="11.00">_buffer.h</text>
</a>
</g>
<!-- Node1&#45;&gt;Node3 -->
<g id="edge4" class="edge"><title>Node1&#45;&gt;Node3</title>
<path fill="none" stroke="midnightblue" d="M450,-124.301C450,-115.767 450,-105.978 450,-97.775"/>
<polygon fill="midnightblue" stroke="midnightblue" points="446.5,-124.557 450,-134.557 453.5,-124.557 446.5,-124.557"/>
</g>
<!-- Node4 -->
<g id="node7" class="node"><title>Node4</title>
<a xlink:href="analysis_8h.html" target="_top" xlink:title="include/fa/signal/analysis.h">
<polygon fill="none" stroke="black" points="-0.417725,-0.695312 -0.417725,-23.3047 156.418,-23.3047 156.418,-0.695312 -0.417725,-0.695312"/>
<text text-anchor="middle" x="78" y="-8.30469" font-family="Futura" font-size="11.00">include/fa/signal/analysis.h</text>
</a>
</g>
<!-- Node1&#45;&gt;Node4 -->
<g id="edge18" class="edge"><title>Node1&#45;&gt;Node4</title>
<path fill="none" stroke="midnightblue" d="M401.512,-133.219C373.519,-125.36 338.188,-113.594 309,-98 284.693,-85.0132 284.741,-72.1403 260,-60 223.672,-42.1741 179.836,-30.5899 144.289,-23.3831"/>
<polygon fill="midnightblue" stroke="midnightblue" points="400.9,-136.68 411.469,-135.938 402.744,-129.927 400.9,-136.68"/>
</g>
<!-- Node5 -->
<g id="node9" class="node"><title>Node5</title>
<a xlink:href="basic_8h.html" target="_top" xlink:title="include/fa/signal/basic.h">
<polygon fill="none" stroke="black" points="174.616,-0.695312 174.616,-23.3047 317.384,-23.3047 317.384,-0.695312 174.616,-0.695312"/>
<text text-anchor="middle" x="246" y="-8.30469" font-family="Futura" font-size="11.00">include/fa/signal/basic.h</text>
</a>
</g>
<!-- Node1&#45;&gt;Node5 -->
<g id="edge20" class="edge"><title>Node1&#45;&gt;Node5</title>
<path fill="none" stroke="midnightblue" d="M420.877,-129.694C404.505,-120.845 383.836,-109.262 366,-98 326.28,-72.9195 281.665,-39.9811 259.711,-23.4371"/>
<polygon fill="midnightblue" stroke="midnightblue" points="419.499,-132.926 429.966,-134.565 422.806,-126.756 419.499,-132.926"/>
</g>
<!-- Node6 -->
<g id="node11" class="node"><title>Node6</title>
<a xlink:href="external_8h.html" target="_top" xlink:title="include/fa/signal/external.h">
<polygon fill="none" stroke="black" points="335.008,-0.695312 335.008,-23.3047 492.992,-23.3047 492.992,-0.695312 335.008,-0.695312"/>
<text text-anchor="middle" x="414" y="-8.30469" font-family="Futura" font-size="11.00">include/fa/signal/external.h</text>
</a>
</g>
<!-- Node1&#45;&gt;Node6 -->
<g id="edge22" class="edge"><title>Node1&#45;&gt;Node6</title>
<path fill="none" stroke="midnightblue" d="M410.98,-130.142C397.054,-122.723 382.874,-112.227 375,-98 366.822,-83.2234 369.267,-75.8862 375,-60 380.255,-45.4386 392.201,-32.1993 401.497,-23.5102"/>
<polygon fill="midnightblue" stroke="midnightblue" points="409.507,-133.317 420.027,-134.58 412.591,-127.033 409.507,-133.317"/>
</g>
<!-- Node7 -->
<g id="node13" class="node"><title>Node7</title>
<a xlink:href="filter_8h.html" target="_top" xlink:title="include/fa/signal/filter.h">
<polygon fill="none" stroke="black" points="510.786,-0.695312 510.786,-23.3047 649.214,-23.3047 649.214,-0.695312 510.786,-0.695312"/>
<text text-anchor="middle" x="580" y="-8.30469" font-family="Futura" font-size="11.00">include/fa/signal/filter.h</text>
</a>
</g>
<!-- Node1&#45;&gt;Node7 -->
<g id="edge24" class="edge"><title>Node1&#45;&gt;Node7</title>
<path fill="none" stroke="midnightblue" d="M480.418,-129.585C494.67,-121.433 511.271,-110.518 524,-98 547.435,-74.9527 566.378,-40.5251 574.985,-23.4207"/>
<polygon fill="midnightblue" stroke="midnightblue" points="478.519,-126.635 471.456,-134.532 481.902,-132.763 478.519,-126.635"/>
</g>
<!-- Node8 -->
<g id="node15" class="node"><title>Node8</title>
<a xlink:href="synth_8h.html" target="_top" xlink:title="include/fa/signal/synth.h">
<polygon fill="none" stroke="black" points="667.567,-0.695312 667.567,-23.3047 810.433,-23.3047 810.433,-0.695312 667.567,-0.695312"/>
<text text-anchor="middle" x="739" y="-8.30469" font-family="Futura" font-size="11.00">include/fa/signal/synth.h</text>
</a>
</g>
<!-- Node1&#45;&gt;Node8 -->
<g id="edge26" class="edge"><title>Node1&#45;&gt;Node8</title>
<path fill="none" stroke="midnightblue" d="M487.033,-130.665C507.147,-122.253 532.105,-110.778 553,-98 576.213,-83.8044 577.108,-73.0197 601,-60 631.336,-43.4688 668.556,-31.2042 696.693,-23.3562"/>
<polygon fill="midnightblue" stroke="midnightblue" points="485.51,-127.506 477.587,-134.541 488.167,-133.983 485.51,-127.506"/>
</g>
<!-- Node9 -->
<g id="node17" class="node"><title>Node9</title>
<a xlink:href="stack_8h.html" target="_top" xlink:title="include/fa/atomic/stack.h">
<polygon fill="none" stroke="red" points="609.857,-67.6953 609.857,-90.3047 756.143,-90.3047 756.143,-67.6953 609.857,-67.6953"/>
<text text-anchor="middle" x="683" y="-75.3047" font-family="Futura" font-size="11.00">include/fa/atomic/stack.h</text>
</a>
</g>
<!-- Node1&#45;&gt;Node9 -->
<g id="edge16" class="edge"><title>Node1&#45;&gt;Node9</title>
<path fill="none" stroke="midnightblue" d="M497.04,-131.877C540.951,-119.627 605.601,-101.592 645.955,-90.3344"/>
<polygon fill="midnightblue" stroke="midnightblue" points="495.869,-128.57 487.177,-134.629 497.75,-135.313 495.869,-128.57"/>
</g>
<!-- Node10 -->
<g id="node24" class="node"><title>Node10</title>
<a xlink:href="directory_8h.html" target="_top" xlink:title="include/fa/system/directory.h">
<polygon fill="none" stroke="red" points="774.452,-67.6953 774.452,-90.3047 939.548,-90.3047 939.548,-67.6953 774.452,-67.6953"/>
<text text-anchor="middle" x="857" y="-75.3047" font-family="Futura" font-size="11.00">include/fa/system/directory.h</text>
</a>
</g>
<!-- Node1&#45;&gt;Node10 -->
<g id="edge28" class="edge"><title>Node1&#45;&gt;Node10</title>
<path fill="none" stroke="midnightblue" d="M498.654,-138.434C560.634,-129.911 670.995,-114.201 765,-98 778.472,-95.6782 793.009,-92.9421 806.461,-90.3135"/>
<polygon fill="midnightblue" stroke="midnightblue" points="497.828,-135.015 488.396,-139.84 498.779,-141.95 497.828,-135.015"/>
</g>
<!-- Node3&#45;&gt;Node4 -->
<g id="edge6" class="edge"><title>Node3&#45;&gt;Node4</title>
<path fill="none" stroke="midnightblue" d="M374.255,-64.765C304.17,-52.5189 201.402,-34.5622 137.169,-23.3386"/>
<polygon fill="midnightblue" stroke="midnightblue" points="373.897,-68.2554 384.35,-66.5289 375.102,-61.3599 373.897,-68.2554"/>
</g>
<!-- Node3&#45;&gt;Node5 -->
<g id="edge8" class="edge"><title>Node3&#45;&gt;Node5</title>
<path fill="none" stroke="midnightblue" d="M384.729,-57.2027C349.292,-45.9115 307.028,-32.4453 278.538,-23.3675"/>
<polygon fill="midnightblue" stroke="midnightblue" points="383.935,-60.6232 394.526,-60.3243 386.06,-53.9536 383.935,-60.6232"/>
</g>
<!-- Node3&#45;&gt;Node6 -->
<g id="edge10" class="edge"><title>Node3&#45;&gt;Node6</title>
<path fill="none" stroke="midnightblue" d="M435.192,-51.2641C429.815,-41.554 424.044,-31.1346 419.884,-23.6243"/>
<polygon fill="midnightblue" stroke="midnightblue" points="432.256,-53.1863 440.163,-60.2385 438.38,-49.7948 432.256,-53.1863"/>
</g>
<!-- Node3&#45;&gt;Node7 -->
<g id="edge12" class="edge"><title>Node3&#45;&gt;Node7</title>
<path fill="none" stroke="midnightblue" d="M494.651,-55.6747C516.513,-44.7434 541.792,-32.1042 559.131,-23.4344"/>
<polygon fill="midnightblue" stroke="midnightblue" points="492.902,-52.6358 485.523,-60.2385 496.033,-58.8968 492.902,-52.6358"/>
</g>
<!-- Node3&#45;&gt;Node8 -->
<g id="edge14" class="edge"><title>Node3&#45;&gt;Node8</title>
<path fill="none" stroke="midnightblue" d="M525.996,-60.9074C579.098,-48.964 648.259,-33.4089 693.137,-23.3153"/>
<polygon fill="midnightblue" stroke="midnightblue" points="524.928,-57.5601 515.94,-63.1692 526.465,-64.3895 524.928,-57.5601"/>
</g>
</g>
</svg>
