<?xml version="1.0" encoding="UTF-8" standalone="no"?>
<!DOCTYPE svg PUBLIC "-//W3C//DTD SVG 1.1//EN"
 "http://www.w3.org/Graphics/SVG/1.1/DTD/svg11.dtd">
<!-- Generated by graphviz version 2.28.0 (20121015.0031)
 -->
<!-- Title: include/fa/options.h Pages: 1 -->
<svg width="670pt" height="272pt"
 viewBox="0.00 0.00 669.94 272.00" xmlns="http://www.w3.org/2000/svg" xmlns:xlink="http://www.w3.org/1999/xlink">
<g id="graph1" class="graph" transform="scale(1 1) rotate(0) translate(4 268)">
<title>include/fa/options.h</title>
<!-- Node1 -->
<g id="node1" class="node"><title>Node1</title>
<polygon fill="#bfbfbf" stroke="black" points="396.725,-240.695 396.725,-263.305 515.163,-263.305 515.163,-240.695 396.725,-240.695"/>
<text text-anchor="middle" x="455.944" y="-248.305" font-family="Futura" font-size="11.00">include/fa/options.h</text>
</g>
<!-- Node2 -->
<g id="node3" class="node"><title>Node2</title>
<a xlink:href="fa_2fa_8h.html" target="_top" xlink:title="fa.h">
<polygon fill="none" stroke="red" points="452.217,-120.695 452.217,-143.305 487.671,-143.305 487.671,-120.695 452.217,-120.695"/>
<text text-anchor="middle" x="469.944" y="-128.305" font-family="Futura" font-size="11.00">fa.h</text>
</a>
</g>
<!-- Node1&#45;&gt;Node2 -->
<g id="edge2" class="edge"><title>Node1&#45;&gt;Node2</title>
<path fill="none" stroke="midnightblue" d="M451.366,-240.296C446.005,-226.293 438.507,-201.062 443.944,-180 446.485,-170.16 451.574,-160.18 456.582,-151.962"/>
<polygon fill="midnightblue" stroke="midnightblue" points="459.545,-153.827 462.061,-143.535 453.676,-150.011 459.545,-153.827"/>
</g>
<!-- Node4 -->
<g id="node8" class="node"><title>Node4</title>
<polygon fill="none" stroke="#bfbfbf" points="238.334,-0.695312 238.334,-23.3047 293.554,-23.3047 293.554,-0.695312 238.334,-0.695312"/>
<text text-anchor="middle" x="265.944" y="-8.30469" font-family="Futura" font-size="11.00">fa/std.h</text>
</g>
<!-- Node1&#45;&gt;Node4 -->
<g id="edge22" class="edge"><title>Node1&#45;&gt;Node4</title>
<path fill="none" stroke="midnightblue" d="M396.368,-249.181C295.812,-242.506 94.6196,-212.832 4.94422,-84 -1.14958,-75.2454 -1.89732,-68.1836 4.94422,-60 32.9176,-26.5393 162.431,-16.8631 227.874,-14.0935"/>
<polygon fill="midnightblue" stroke="midnightblue" points="228.324,-17.5788 238.18,-13.6923 228.051,-10.5841 228.324,-17.5788"/>
</g>
<!-- Node9 -->
<g id="node18" class="node"><title>Node9</title>
<a xlink:href="pair_8h.html" target="_top" xlink:title="fa/pair.h">
<polygon fill="none" stroke="red" points="601.638,-60.6953 601.638,-83.3047 662.25,-83.3047 662.25,-60.6953 601.638,-60.6953"/>
<text text-anchor="middle" x="631.944" y="-68.3047" font-family="Futura" font-size="11.00">fa/pair.h</text>
</a>
</g>
<!-- Node1&#45;&gt;Node9 -->
<g id="edge28" class="edge"><title>Node1&#45;&gt;Node9</title>
<path fill="none" stroke="midnightblue" d="M476.404,-240.524C492.04,-231.948 513.611,-218.84 529.944,-204 568.111,-169.322 602.748,-119.134 620.149,-92.0508"/>
<polygon fill="midnightblue" stroke="midnightblue" points="623.171,-93.8196 625.562,-83.498 617.256,-90.0758 623.171,-93.8196"/>
</g>
<!-- Node10 -->
<g id="node22" class="node"><title>Node10</title>
<a xlink:href="string_8h.html" target="_top" xlink:title="fa/string.h">
<polygon fill="none" stroke="black" points="452.814,-180.695 452.814,-203.305 521.075,-203.305 521.075,-180.695 452.814,-180.695"/>
<text text-anchor="middle" x="486.944" y="-188.305" font-family="Futura" font-size="11.00">fa/string.h</text>
</a>
</g>
<!-- Node1&#45;&gt;Node10 -->
<g id="edge24" class="edge"><title>Node1&#45;&gt;Node10</title>
<path fill="none" stroke="midnightblue" d="M461.486,-240.631C465.623,-232.892 471.399,-222.084 476.405,-212.719"/>
<polygon fill="midnightblue" stroke="midnightblue" points="479.613,-214.141 481.24,-203.672 473.44,-210.841 479.613,-214.141"/>
</g>
<!-- Node3 -->
<g id="node5" class="node"><title>Node3</title>
<a xlink:href="atomic_8h.html" target="_top" xlink:title="fa/atomic.h">
<polygon fill="none" stroke="black" points="509.881,-60.6953 509.881,-83.3047 584.007,-83.3047 584.007,-60.6953 509.881,-60.6953"/>
<text text-anchor="middle" x="546.944" y="-68.3047" font-family="Futura" font-size="11.00">fa/atomic.h</text>
</a>
</g>
<!-- Node2&#45;&gt;Node3 -->
<g id="edge4" class="edge"><title>Node2&#45;&gt;Node3</title>
<path fill="none" stroke="midnightblue" d="M478.394,-120.631C488.351,-111.942 504.747,-99.3841 519.103,-89.344"/>
<polygon fill="midnightblue" stroke="midnightblue" points="521.416,-92.0031 527.703,-83.475 517.47,-86.2213 521.416,-92.0031"/>
</g>
<!-- Node5 -->
<g id="node10" class="node"><title>Node5</title>
<a xlink:href="queue_8h.html" target="_top" xlink:title="fa/atomic/queue.h">
<polygon fill="none" stroke="red" points="381.593,-60.6953 381.593,-83.3047 492.296,-83.3047 492.296,-60.6953 381.593,-60.6953"/>
<text text-anchor="middle" x="436.944" y="-68.3047" font-family="Futura" font-size="11.00">fa/atomic/queue.h</text>
</a>
</g>
<!-- Node2&#45;&gt;Node5 -->
<g id="edge10" class="edge"><title>Node2&#45;&gt;Node5</title>
<path fill="none" stroke="midnightblue" d="M464.044,-120.631C459.595,-112.811 453.362,-101.856 447.996,-92.4241"/>
<polygon fill="midnightblue" stroke="midnightblue" points="451.004,-90.6327 443.016,-83.6719 444.919,-94.0944 451.004,-90.6327"/>
</g>
<!-- Node6 -->
<g id="node12" class="node"><title>Node6</title>
<a xlink:href="stack_8h.html" target="_top" xlink:title="fa/atomic/stack.h">
<polygon fill="none" stroke="red" points="14.3641,-60.6953 14.3641,-83.3047 119.524,-83.3047 119.524,-60.6953 14.3641,-60.6953"/>
<text text-anchor="middle" x="66.9442" y="-68.3047" font-family="Futura" font-size="11.00">fa/atomic/stack.h</text>
</a>
</g>
<!-- Node2&#45;&gt;Node6 -->
<g id="edge12" class="edge"><title>Node2&#45;&gt;Node6</title>
<path fill="none" stroke="midnightblue" d="M452.159,-128.795C402.816,-122.625 259.836,-104.398 129.82,-84.0914"/>
<polygon fill="midnightblue" stroke="midnightblue" points="130.108,-80.5939 119.686,-82.5003 129.022,-87.5092 130.108,-80.5939"/>
</g>
<!-- Node7 -->
<g id="node14" class="node"><title>Node7</title>
<a xlink:href="ring__buffer_8h.html" target="_top" xlink:title="fa/atomic/ring_buffer.h">
<polygon fill="none" stroke="red" points="137.47,-60.6953 137.47,-83.3047 272.418,-83.3047 272.418,-60.6953 137.47,-60.6953"/>
<text text-anchor="middle" x="204.944" y="-68.3047" font-family="Futura" font-size="11.00">fa/atomic/ring_buffer.h</text>
</a>
</g>
<!-- Node2&#45;&gt;Node7 -->
<g id="edge14" class="edge"><title>Node2&#45;&gt;Node7</title>
<path fill="none" stroke="midnightblue" d="M452.145,-127.104C413.915,-118.737 322.537,-98.7373 262.235,-85.539"/>
<polygon fill="midnightblue" stroke="midnightblue" points="262.614,-82.0393 252.097,-83.3203 261.118,-88.8775 262.614,-82.0393"/>
</g>
<!-- Node8 -->
<g id="node16" class="node"><title>Node8</title>
<polygon fill="none" stroke="#bfbfbf" points="289.97,-60.6953 289.97,-83.3047 363.919,-83.3047 363.919,-60.6953 289.97,-60.6953"/>
<text text-anchor="middle" x="326.944" y="-68.3047" font-family="Futura" font-size="11.00">fa/system.h</text>
</g>
<!-- Node2&#45;&gt;Node8 -->
<g id="edge16" class="edge"><title>Node2&#45;&gt;Node8</title>
<path fill="none" stroke="midnightblue" d="M452.122,-123.772C429.686,-114.672 390.632,-98.8313 362.098,-87.2582"/>
<polygon fill="midnightblue" stroke="midnightblue" points="363.071,-83.8759 352.488,-83.3606 360.44,-90.3626 363.071,-83.8759"/>
</g>
<!-- Node2&#45;&gt;Node9 -->
<g id="edge18" class="edge"><title>Node2&#45;&gt;Node9</title>
<path fill="none" stroke="midnightblue" d="M487.938,-122.813C512.922,-113.078 558.322,-96.7304 591.565,-85.4318"/>
<polygon fill="midnightblue" stroke="midnightblue" points="593.096,-88.6094 601.456,-82.1004 590.862,-81.9757 593.096,-88.6094"/>
</g>
<!-- Node3&#45;&gt;Node2 -->
<g id="edge6" class="edge"><title>Node3&#45;&gt;Node2</title>
<path fill="none" stroke="midnightblue" d="M538.258,-83.5749C527.976,-92.5195 511.033,-105.456 496.49,-115.559"/>
<polygon fill="midnightblue" stroke="midnightblue" points="494.146,-112.919 487.826,-121.422 498.069,-118.716 494.146,-112.919"/>
</g>
<!-- Node3&#45;&gt;Node4 -->
<g id="edge8" class="edge"><title>Node3&#45;&gt;Node4</title>
<path fill="none" stroke="midnightblue" d="M509.814,-61.9955C506.816,-61.3067 503.832,-60.6337 500.944,-60 431.615,-44.7832 350.327,-28.9753 303.807,-20.1216"/>
<polygon fill="midnightblue" stroke="midnightblue" points="304.347,-16.6615 293.869,-18.2354 303.041,-23.5388 304.347,-16.6615"/>
</g>
<!-- Node9&#45;&gt;Node2 -->
<g id="edge20" class="edge"><title>Node9&#45;&gt;Node2</title>
<path fill="none" stroke="midnightblue" d="M608.363,-83.3442C578.861,-94.6435 528.813,-112.508 497.558,-122.855"/>
<polygon fill="midnightblue" stroke="midnightblue" points="496.16,-119.629 487.736,-126.055 498.328,-126.285 496.16,-119.629"/>
</g>
<!-- Node10&#45;&gt;Node2 -->
<g id="edge26" class="edge"><title>Node10&#45;&gt;Node2</title>
<path fill="none" stroke="midnightblue" d="M483.905,-180.631C481.684,-173.055 478.602,-162.538 475.898,-153.313"/>
<polygon fill="midnightblue" stroke="midnightblue" points="479.244,-152.284 473.072,-143.672 472.526,-154.253 479.244,-152.284"/>
</g>
</g>
</svg>
