<?xml version="1.0" encoding="UTF-8" standalone="no"?>
<!DOCTYPE svg PUBLIC "-//W3C//DTD SVG 1.1//EN"
 "http://www.w3.org/Graphics/SVG/1.1/DTD/svg11.dtd">
<!-- Generated by graphviz version 2.28.0 (20121015.0031)
 -->
<!-- Title: include/fa/priority_queue.h Pages: 1 -->
<svg width="841pt" height="166pt"
 viewBox="0.00 0.00 841.00 166.00" xmlns="http://www.w3.org/2000/svg" xmlns:xlink="http://www.w3.org/1999/xlink">
<g id="graph1" class="graph" transform="scale(1 1) rotate(0) translate(4 162)">
<title>include/fa/priority_queue.h</title>
<!-- Node1 -->
<g id="node1" class="node"><title>Node1</title>
<polygon fill="#bfbfbf" stroke="black" points="478.457,-120.391 478.457,-157.609 587.543,-157.609 587.543,-120.391 478.457,-120.391"/>
<text text-anchor="start" x="486.457" y="-142.609" font-family="Futura" font-size="11.00">include/fa/priority</text>
<text text-anchor="middle" x="533" y="-128" font-family="Futura" font-size="11.00">_queue.h</text>
</g>
<!-- Node2 -->
<g id="node3" class="node"><title>Node2</title>
<a xlink:href="fa_2fa_8h.html" target="_top" xlink:title="fa.h">
<polygon fill="none" stroke="red" points="515.273,-60.6953 515.273,-83.3047 550.727,-83.3047 550.727,-60.6953 515.273,-60.6953"/>
<text text-anchor="middle" x="533" y="-68.3047" font-family="Futura" font-size="11.00">fa.h</text>
</a>
</g>
<!-- Node1&#45;&gt;Node2 -->
<g id="edge2" class="edge"><title>Node1&#45;&gt;Node2</title>
<path fill="none" stroke="midnightblue" d="M526.909,-120.238C526.118,-111.992 526.039,-102.141 526.671,-93.5727"/>
<polygon fill="midnightblue" stroke="midnightblue" points="530.149,-93.9673 527.853,-83.6243 523.198,-93.1417 530.149,-93.9673"/>
</g>
<!-- Node2&#45;&gt;Node1 -->
<g id="edge26" class="edge"><title>Node2&#45;&gt;Node1</title>
<path fill="none" stroke="midnightblue" d="M538.147,-83.6243C539.421,-90.8249 539.936,-100.7 539.691,-110.06"/>
<polygon fill="midnightblue" stroke="midnightblue" points="536.185,-110.05 539.091,-120.238 543.173,-110.462 536.185,-110.05"/>
</g>
<!-- Node3 -->
<g id="node5" class="node"><title>Node3</title>
<a xlink:href="atomic_8h.html" target="_top" xlink:title="fa/atomic.h">
<polygon fill="none" stroke="red" points="-0.0629883,-0.695312 -0.0629883,-23.3047 74.063,-23.3047 74.063,-0.695312 -0.0629883,-0.695312"/>
<text text-anchor="middle" x="37" y="-8.30469" font-family="Futura" font-size="11.00">fa/atomic.h</text>
</a>
</g>
<!-- Node2&#45;&gt;Node3 -->
<g id="edge4" class="edge"><title>Node2&#45;&gt;Node3</title>
<path fill="none" stroke="midnightblue" d="M515.203,-70.1788C454.469,-66.9053 251.869,-53.5879 80.5091,-25.0638"/>
<polygon fill="midnightblue" stroke="midnightblue" points="81.0092,-21.5987 70.5661,-23.3853 79.844,-28.5011 81.0092,-21.5987"/>
</g>
<!-- Node4 -->
<g id="node8" class="node"><title>Node4</title>
<a xlink:href="queue_8h.html" target="_top" xlink:title="fa/atomic/queue.h">
<polygon fill="none" stroke="red" points="91.6484,-0.695312 91.6484,-23.3047 202.352,-23.3047 202.352,-0.695312 91.6484,-0.695312"/>
<text text-anchor="middle" x="147" y="-8.30469" font-family="Futura" font-size="11.00">fa/atomic/queue.h</text>
</a>
</g>
<!-- Node2&#45;&gt;Node4 -->
<g id="edge8" class="edge"><title>Node2&#45;&gt;Node4</title>
<path fill="none" stroke="midnightblue" d="M515.173,-68.5592C467.751,-62.0321 334.344,-43.4501 212.716,-24.2462"/>
<polygon fill="midnightblue" stroke="midnightblue" points="212.913,-20.7338 202.489,-22.6254 211.818,-27.6476 212.913,-20.7338"/>
</g>
<!-- Node5 -->
<g id="node10" class="node"><title>Node5</title>
<a xlink:href="stack_8h.html" target="_top" xlink:title="fa/atomic/stack.h">
<polygon fill="none" stroke="red" points="220.42,-0.695312 220.42,-23.3047 325.58,-23.3047 325.58,-0.695312 220.42,-0.695312"/>
<text text-anchor="middle" x="273" y="-8.30469" font-family="Futura" font-size="11.00">fa/atomic/stack.h</text>
</a>
</g>
<!-- Node2&#45;&gt;Node5 -->
<g id="edge10" class="edge"><title>Node2&#45;&gt;Node5</title>
<path fill="none" stroke="midnightblue" d="M515.129,-67.0134C477.387,-58.594 388.187,-38.6955 329.235,-25.5448"/>
<polygon fill="midnightblue" stroke="midnightblue" points="329.846,-22.095 319.324,-23.3337 328.322,-28.9271 329.846,-22.095"/>
</g>
<!-- Node6 -->
<g id="node12" class="node"><title>Node6</title>
<a xlink:href="ring__buffer_8h.html" target="_top" xlink:title="fa/atomic/ring_buffer.h">
<polygon fill="none" stroke="red" points="343.526,-0.695312 343.526,-23.3047 478.474,-23.3047 478.474,-0.695312 343.526,-0.695312"/>
<text text-anchor="middle" x="411" y="-8.30469" font-family="Futura" font-size="11.00">fa/atomic/ring_buffer.h</text>
</a>
</g>
<!-- Node2&#45;&gt;Node6 -->
<g id="edge12" class="edge"><title>Node2&#45;&gt;Node6</title>
<path fill="none" stroke="midnightblue" d="M515.26,-62.5663C496.092,-53.4538 465.184,-38.7595 441.987,-27.7316"/>
<polygon fill="midnightblue" stroke="midnightblue" points="443.423,-24.539 432.889,-23.4064 440.418,-30.861 443.423,-24.539"/>
</g>
<!-- Node7 -->
<g id="node14" class="node"><title>Node7</title>
<a xlink:href="system_8h.html" target="_top" xlink:title="fa/system.h">
<polygon fill="none" stroke="red" points="496.026,-0.695312 496.026,-23.3047 569.974,-23.3047 569.974,-0.695312 496.026,-0.695312"/>
<text text-anchor="middle" x="533" y="-8.30469" font-family="Futura" font-size="11.00">fa/system.h</text>
</a>
</g>
<!-- Node2&#45;&gt;Node7 -->
<g id="edge14" class="edge"><title>Node2&#45;&gt;Node7</title>
<path fill="none" stroke="midnightblue" d="M533,-60.6308C533,-53.218 533,-42.9888 533,-33.9096"/>
<polygon fill="midnightblue" stroke="midnightblue" points="536.5,-33.6718 533,-23.6719 529.5,-33.6719 536.5,-33.6718"/>
</g>
<!-- Node8 -->
<g id="node16" class="node"><title>Node8</title>
<a xlink:href="error_8h.html" target="_top" xlink:title="fa/error.h">
<polygon fill="none" stroke="red" points="588.161,-0.695312 588.161,-23.3047 653.839,-23.3047 653.839,-0.695312 588.161,-0.695312"/>
<text text-anchor="middle" x="621" y="-8.30469" font-family="Futura" font-size="11.00">fa/error.h</text>
</a>
</g>
<!-- Node2&#45;&gt;Node8 -->
<g id="edge16" class="edge"><title>Node2&#45;&gt;Node8</title>
<path fill="none" stroke="midnightblue" d="M543.417,-60.6308C555.24,-51.7782 574.51,-38.9089 590.977,-28.7784"/>
<polygon fill="midnightblue" stroke="midnightblue" points="593.016,-31.6362 599.772,-23.475 589.401,-25.6418 593.016,-31.6362"/>
</g>
<!-- Node9 -->
<g id="node19" class="node"><title>Node9</title>
<a xlink:href="pair_8h.html" target="_top" xlink:title="fa/pair.h">
<polygon fill="none" stroke="red" points="671.694,-0.695312 671.694,-23.3047 732.306,-23.3047 732.306,-0.695312 671.694,-0.695312"/>
<text text-anchor="middle" x="702" y="-8.30469" font-family="Futura" font-size="11.00">fa/pair.h</text>
</a>
</g>
<!-- Node2&#45;&gt;Node9 -->
<g id="edge20" class="edge"><title>Node2&#45;&gt;Node9</title>
<path fill="none" stroke="midnightblue" d="M551.004,-63.1779C577.306,-53.356 626.425,-36.4079 661.579,-24.9561"/>
<polygon fill="midnightblue" stroke="midnightblue" points="663.106,-28.1413 671.546,-21.7376 660.954,-21.4799 663.106,-28.1413"/>
</g>
<!-- Node10 -->
<g id="node22" class="node"><title>Node10</title>
<polygon fill="none" stroke="#bfbfbf" points="750.804,-0.695312 750.804,-23.3047 833.196,-23.3047 833.196,-0.695312 750.804,-0.695312"/>
<text text-anchor="middle" x="792" y="-8.30469" font-family="Futura" font-size="11.00">fa/pair/left.h</text>
</g>
<!-- Node2&#45;&gt;Node10 -->
<g id="edge24" class="edge"><title>Node2&#45;&gt;Node10</title>
<path fill="none" stroke="midnightblue" d="M550.802,-67.0134C589.48,-58.352 682.405,-37.5425 740.967,-24.4283"/>
<polygon fill="midnightblue" stroke="midnightblue" points="741.775,-27.8341 750.768,-22.2333 740.245,-21.0033 741.775,-27.8341"/>
</g>
<!-- Node3&#45;&gt;Node2 -->
<g id="edge6" class="edge"><title>Node3&#45;&gt;Node2</title>
<path fill="none" stroke="midnightblue" d="M74.1526,-20.3911C80.1561,-21.7334 86.2534,-23.0171 92,-24 246.705,-50.4597 434.05,-64.2475 504.559,-69.0253"/>
<polygon fill="midnightblue" stroke="midnightblue" points="504.637,-72.5384 514.849,-69.7153 505.106,-65.554 504.637,-72.5384"/>
</g>
<!-- Node8&#45;&gt;Node2 -->
<g id="edge18" class="edge"><title>Node8&#45;&gt;Node2</title>
<path fill="none" stroke="midnightblue" d="M610.597,-23.3588C598.033,-32.7676 577.046,-46.7199 559.956,-57.0965"/>
<polygon fill="midnightblue" stroke="midnightblue" points="557.757,-54.3312 550.94,-62.4419 561.327,-60.3524 557.757,-54.3312"/>
</g>
<!-- Node9&#45;&gt;Node2 -->
<g id="edge22" class="edge"><title>Node9&#45;&gt;Node2</title>
<path fill="none" stroke="midnightblue" d="M677.232,-23.3217C646.022,-34.7485 592.928,-52.9098 560.493,-63.2057"/>
<polygon fill="midnightblue" stroke="midnightblue" points="559.242,-59.9296 550.742,-66.2536 561.331,-66.6108 559.242,-59.9296"/>
</g>
</g>
</svg>
