<?xml version="1.0" encoding="UTF-8" standalone="no"?>
<!DOCTYPE svg PUBLIC "-//W3C//DTD SVG 1.1//EN"
 "http://www.w3.org/Graphics/SVG/1.1/DTD/svg11.dtd">
<!-- Generated by graphviz version 2.28.0 (20121015.0031)
 -->
<!-- Title: include/fa/ratio.h Pages: 1 -->
<svg width="567pt" height="152pt"
 viewBox="0.00 0.00 567.00 152.00" xmlns="http://www.w3.org/2000/svg" xmlns:xlink="http://www.w3.org/1999/xlink">
<g id="graph1" class="graph" transform="scale(1 1) rotate(0) translate(4 148)">
<title>include/fa/ratio.h</title>
<!-- Node1 -->
<g id="node1" class="node"><title>Node1</title>
<polygon fill="#bfbfbf" stroke="black" points="235.364,-120.695 235.364,-143.305 340.636,-143.305 340.636,-120.695 235.364,-120.695"/>
<text text-anchor="middle" x="288" y="-128.305" font-family="Futura" font-size="11.00">include/fa/ratio.h</text>
</g>
<!-- Node2 -->
<g id="node3" class="node"><title>Node2</title>
<a xlink:href="std_8h.html" target="_top" xlink:title="fa/std.h">
<polygon fill="none" stroke="red" points="260.39,-60.6953 260.39,-83.3047 315.61,-83.3047 315.61,-60.6953 260.39,-60.6953"/>
<text text-anchor="middle" x="288" y="-68.3047" font-family="Futura" font-size="11.00">fa/std.h</text>
</a>
</g>
<!-- Node1&#45;&gt;Node2 -->
<g id="edge2" class="edge"><title>Node1&#45;&gt;Node2</title>
<path fill="none" stroke="midnightblue" d="M288,-120.631C288,-113.218 288,-102.989 288,-93.9096"/>
<polygon fill="midnightblue" stroke="midnightblue" points="291.5,-93.6718 288,-83.6719 284.5,-93.6719 291.5,-93.6718"/>
</g>
<!-- Node3 -->
<g id="node5" class="node"><title>Node3</title>
<polygon fill="none" stroke="#bfbfbf" points="-0.276855,-0.695312 -0.276855,-23.3047 54.2769,-23.3047 54.2769,-0.695312 -0.276855,-0.695312"/>
<text text-anchor="middle" x="27" y="-8.30469" font-family="Futura" font-size="11.00">assert.h</text>
</g>
<!-- Node2&#45;&gt;Node3 -->
<g id="edge4" class="edge"><title>Node2&#45;&gt;Node3</title>
<path fill="none" stroke="midnightblue" d="M260.102,-66.0149C219.144,-58.5145 140.173,-43.3654 64.1764,-24.1532"/>
<polygon fill="midnightblue" stroke="midnightblue" points="65.0001,-20.7513 54.4449,-21.6661 63.2668,-27.5333 65.0001,-20.7513"/>
</g>
<!-- Node4 -->
<g id="node7" class="node"><title>Node4</title>
<polygon fill="none" stroke="#bfbfbf" points="72.2671,-0.695312 72.2671,-23.3047 139.733,-23.3047 139.733,-0.695312 72.2671,-0.695312"/>
<text text-anchor="middle" x="106" y="-8.30469" font-family="Futura" font-size="11.00">complex.h</text>
</g>
<!-- Node2&#45;&gt;Node4 -->
<g id="edge6" class="edge"><title>Node2&#45;&gt;Node4</title>
<path fill="none" stroke="midnightblue" d="M260.358,-62.191C230.581,-52.7017 182.837,-37.4864 148.326,-26.4886"/>
<polygon fill="midnightblue" stroke="midnightblue" points="149.114,-23.0662 138.523,-23.3645 146.988,-29.7357 149.114,-23.0662"/>
</g>
<!-- Node5 -->
<g id="node9" class="node"><title>Node5</title>
<polygon fill="none" stroke="#bfbfbf" points="157.832,-0.695312 157.832,-23.3047 210.168,-23.3047 210.168,-0.695312 157.832,-0.695312"/>
<text text-anchor="middle" x="184" y="-8.30469" font-family="Futura" font-size="11.00">ctype.h</text>
</g>
<!-- Node2&#45;&gt;Node5 -->
<g id="edge8" class="edge"><title>Node2&#45;&gt;Node5</title>
<path fill="none" stroke="midnightblue" d="M269.407,-60.6308C253.313,-51.6552 229.815,-38.5506 211.538,-28.3579"/>
<polygon fill="midnightblue" stroke="midnightblue" points="213.221,-25.289 202.783,-23.475 209.812,-31.4025 213.221,-25.289"/>
</g>
<!-- Node6 -->
<g id="node11" class="node"><title>Node6</title>
<polygon fill="none" stroke="#bfbfbf" points="228.642,-0.695312 228.642,-23.3047 281.358,-23.3047 281.358,-0.695312 228.642,-0.695312"/>
<text text-anchor="middle" x="255" y="-8.30469" font-family="Futura" font-size="11.00">errno.h</text>
</g>
<!-- Node2&#45;&gt;Node6 -->
<g id="edge10" class="edge"><title>Node2&#45;&gt;Node6</title>
<path fill="none" stroke="midnightblue" d="M282.1,-60.6308C277.651,-52.8107 271.418,-41.8562 266.052,-32.4241"/>
<polygon fill="midnightblue" stroke="midnightblue" points="269.059,-30.6327 261.072,-23.6719 262.975,-34.0944 269.059,-30.6327"/>
</g>
<!-- Node7 -->
<g id="node13" class="node"><title>Node7</title>
<polygon fill="none" stroke="#bfbfbf" points="299.135,-0.695312 299.135,-23.3047 344.865,-23.3047 344.865,-0.695312 299.135,-0.695312"/>
<text text-anchor="middle" x="322" y="-8.30469" font-family="Futura" font-size="11.00">fenv.h</text>
</g>
<!-- Node2&#45;&gt;Node7 -->
<g id="edge12" class="edge"><title>Node2&#45;&gt;Node7</title>
<path fill="none" stroke="midnightblue" d="M294.079,-60.6308C298.663,-52.8107 305.084,-41.8562 310.613,-32.4241"/>
<polygon fill="midnightblue" stroke="midnightblue" points="313.706,-34.0689 315.744,-23.6719 307.667,-30.5288 313.706,-34.0689"/>
</g>
<!-- Node8 -->
<g id="node15" class="node"><title>Node8</title>
<polygon fill="none" stroke="#bfbfbf" points="363.26,-0.695312 363.26,-23.3047 410.74,-23.3047 410.74,-0.695312 363.26,-0.695312"/>
<text text-anchor="middle" x="387" y="-8.30469" font-family="Futura" font-size="11.00">float.h</text>
</g>
<!-- Node2&#45;&gt;Node8 -->
<g id="edge14" class="edge"><title>Node2&#45;&gt;Node8</title>
<path fill="none" stroke="midnightblue" d="M305.699,-60.6308C320.81,-51.7782 342.776,-38.9089 360.068,-28.7784"/>
<polygon fill="midnightblue" stroke="midnightblue" points="362.261,-31.5499 369.12,-23.475 358.723,-25.5101 362.261,-31.5499"/>
</g>
<!-- Node9 -->
<g id="node17" class="node"><title>Node9</title>
<polygon fill="none" stroke="#bfbfbf" points="428.332,-0.695312 428.332,-23.3047 491.668,-23.3047 491.668,-0.695312 428.332,-0.695312"/>
<text text-anchor="middle" x="460" y="-8.30469" font-family="Futura" font-size="11.00">inttypes.h</text>
</g>
<!-- Node2&#45;&gt;Node9 -->
<g id="edge16" class="edge"><title>Node2&#45;&gt;Node9</title>
<path fill="none" stroke="midnightblue" d="M315.635,-61.6813C343.776,-52.1918 387.704,-37.3788 419.717,-26.5837"/>
<polygon fill="midnightblue" stroke="midnightblue" points="420.882,-29.8848 429.239,-23.3729 418.645,-23.2518 420.882,-29.8848"/>
</g>
<!-- Node10 -->
<g id="node19" class="node"><title>Node10</title>
<polygon fill="none" stroke="#bfbfbf" points="510.092,-0.695312 510.092,-23.3047 559.908,-23.3047 559.908,-0.695312 510.092,-0.695312"/>
<text text-anchor="middle" x="535" y="-8.30469" font-family="Futura" font-size="11.00">limits.h</text>
</g>
<!-- Node2&#45;&gt;Node10 -->
<g id="edge18" class="edge"><title>Node2&#45;&gt;Node10</title>
<path fill="none" stroke="midnightblue" d="M315.627,-65.6683C356.268,-57.6463 434.446,-41.533 500,-24 500.1,-23.9733 500.2,-23.9464 500.3,-23.9195"/>
<polygon fill="midnightblue" stroke="midnightblue" points="501.188,-27.306 509.841,-21.1925 499.264,-20.5755 501.188,-27.306"/>
</g>
</g>
</svg>
