<?xml version="1.0" encoding="UTF-8" standalone="no"?>
<!DOCTYPE svg PUBLIC "-//W3C//DTD SVG 1.1//EN"
 "http://www.w3.org/Graphics/SVG/1.1/DTD/svg11.dtd">
<!-- Generated by graphviz version 2.28.0 (20121015.0031)
 -->
<!-- Title: include/fa/action.h Pages: 1 -->
<svg width="715pt" height="272pt"
 viewBox="0.00 0.00 714.91 272.00" xmlns="http://www.w3.org/2000/svg" xmlns:xlink="http://www.w3.org/1999/xlink">
<g id="graph1" class="graph" transform="scale(1 1) rotate(0) translate(4 268)">
<title>include/fa/action.h</title>
<!-- Node1 -->
<g id="node1" class="node"><title>Node1</title>
<polygon fill="#bfbfbf" stroke="black" points="332.659,-240.695 332.659,-263.305 445.167,-263.305 445.167,-240.695 332.659,-240.695"/>
<text text-anchor="middle" x="388.913" y="-248.305" font-family="Futura" font-size="11.00">include/fa/action.h</text>
</g>
<!-- Node2 -->
<g id="node3" class="node"><title>Node2</title>
<a xlink:href="audio_8h.html" target="_top" xlink:title="include/fa/audio.h">
<polygon fill="none" stroke="black" points="425.505,-180.695 425.505,-203.305 536.321,-203.305 536.321,-180.695 425.505,-180.695"/>
<text text-anchor="middle" x="480.913" y="-188.305" font-family="Futura" font-size="11.00">include/fa/audio.h</text>
</a>
</g>
<!-- Node1&#45;&gt;Node2 -->
<g id="edge2" class="edge"><title>Node1&#45;&gt;Node2</title>
<path fill="none" stroke="midnightblue" d="M414.196,-235.061C430.161,-224.996 450.335,-212.277 464.297,-203.475"/>
<polygon fill="midnightblue" stroke="midnightblue" points="411.953,-232.337 405.361,-240.631 415.686,-238.258 411.953,-232.337"/>
</g>
<!-- Node3 -->
<g id="node5" class="node"><title>Node3</title>
<a xlink:href="fa_2fa_8h.html" target="_top" xlink:title="include/fa/fa.h">
<polygon fill="none" stroke="red" points="342.759,-120.695 342.759,-143.305 435.066,-143.305 435.066,-120.695 342.759,-120.695"/>
<text text-anchor="middle" x="388.913" y="-128.305" font-family="Futura" font-size="11.00">include/fa/fa.h</text>
</a>
</g>
<!-- Node1&#45;&gt;Node3 -->
<g id="edge42" class="edge"><title>Node1&#45;&gt;Node3</title>
<path fill="none" stroke="midnightblue" d="M383.654,-230.534C381.327,-205.25 381.723,-163.187 384.842,-143.618"/>
<polygon fill="midnightblue" stroke="midnightblue" points="380.188,-231.022 384.866,-240.528 387.137,-230.18 380.188,-231.022"/>
</g>
<!-- Node6 -->
<g id="node13" class="node"><title>Node6</title>
<a xlink:href="midi_8h.html" target="_top" xlink:title="include/fa/midi.h">
<polygon fill="none" stroke="black" points="238.385,-0.695312 238.385,-23.3047 341.44,-23.3047 341.44,-0.695312 238.385,-0.695312"/>
<text text-anchor="middle" x="289.913" y="-8.30469" font-family="Futura" font-size="11.00">include/fa/midi.h</text>
</a>
</g>
<!-- Node1&#45;&gt;Node6 -->
<g id="edge44" class="edge"><title>Node1&#45;&gt;Node6</title>
<path fill="none" stroke="midnightblue" d="M322.56,-243.944C232.753,-230.43 75.6257,-191.863 4.91284,-84 -0.935305,-75.0794 -1.98877,-68.133 4.91284,-60 34.2366,-25.4444 164.228,-16.2549 238.115,-13.8383"/>
<polygon fill="midnightblue" stroke="midnightblue" points="322.237,-247.433 332.635,-245.397 323.237,-240.505 322.237,-247.433"/>
</g>
<!-- Node2&#45;&gt;Node3 -->
<g id="edge4" class="edge"><title>Node2&#45;&gt;Node3</title>
<path fill="none" stroke="midnightblue" d="M455.63,-175.061C439.665,-164.996 419.49,-152.277 405.528,-143.475"/>
<polygon fill="midnightblue" stroke="midnightblue" points="454.139,-178.258 464.465,-180.631 457.872,-172.337 454.139,-178.258"/>
</g>
<!-- Node3&#45;&gt;Node1 -->
<g id="edge6" class="edge"><title>Node3&#45;&gt;Node1</title>
<path fill="none" stroke="midnightblue" d="M394.189,-153.656C396.502,-179.023 396.092,-221.071 392.96,-240.528"/>
<polygon fill="midnightblue" stroke="midnightblue" points="397.651,-153.129 392.983,-143.618 390.701,-153.964 397.651,-153.129"/>
</g>
<!-- Node4 -->
<g id="node8" class="node"><title>Node4</title>
<a xlink:href="buffer_8h.html" target="_top" xlink:title="include/fa/buffer.h">
<polygon fill="none" stroke="red" points="318.14,-60.6953 318.14,-83.3047 429.686,-83.3047 429.686,-60.6953 318.14,-60.6953"/>
<text text-anchor="middle" x="373.913" y="-68.3047" font-family="Futura" font-size="11.00">include/fa/buffer.h</text>
</a>
</g>
<!-- Node3&#45;&gt;Node4 -->
<g id="edge8" class="edge"><title>Node3&#45;&gt;Node4</title>
<path fill="none" stroke="midnightblue" d="M383.677,-110.756C381.319,-101.637 378.631,-91.2425 376.673,-83.6719"/>
<polygon fill="midnightblue" stroke="midnightblue" points="380.339,-111.826 386.231,-120.631 387.116,-110.073 380.339,-111.826"/>
</g>
<!-- Node5 -->
<g id="node10" class="node"><title>Node5</title>
<a xlink:href="clock_8h.html" target="_top" xlink:title="include/fa/clock.h">
<polygon fill="none" stroke="black" points="447.891,-60.6953 447.891,-83.3047 555.935,-83.3047 555.935,-60.6953 447.891,-60.6953"/>
<text text-anchor="middle" x="501.913" y="-68.3047" font-family="Futura" font-size="11.00">include/fa/clock.h</text>
</a>
</g>
<!-- Node3&#45;&gt;Node5 -->
<g id="edge10" class="edge"><title>Node3&#45;&gt;Node5</title>
<path fill="none" stroke="midnightblue" d="M418.059,-116.04C437.947,-105.832 463.795,-92.5651 481.505,-83.475"/>
<polygon fill="midnightblue" stroke="midnightblue" points="416.413,-112.951 409.115,-120.631 419.61,-119.178 416.413,-112.951"/>
</g>
<!-- Node7 -->
<g id="node16" class="node"><title>Node7</title>
<a xlink:href="dynamic_8h.html" target="_top" xlink:title="include/fa/dynamic.h">
<polygon fill="none" stroke="black" points="137.831,-60.6953 137.831,-83.3047 261.994,-83.3047 261.994,-60.6953 137.831,-60.6953"/>
<text text-anchor="middle" x="199.913" y="-68.3047" font-family="Futura" font-size="11.00">include/fa/dynamic.h</text>
</a>
</g>
<!-- Node3&#45;&gt;Node7 -->
<g id="edge18" class="edge"><title>Node3&#45;&gt;Node7</title>
<path fill="none" stroke="midnightblue" d="M345.459,-117.665C311.491,-107.241 264.95,-92.9586 233.728,-83.3771"/>
<polygon fill="midnightblue" stroke="midnightblue" points="344.537,-121.043 355.123,-120.631 346.59,-114.351 344.537,-121.043"/>
</g>
<!-- Node8 -->
<g id="node18" class="node"><title>Node8</title>
<a xlink:href="error_8h.html" target="_top" xlink:title="include/fa/error.h">
<polygon fill="none" stroke="black" points="13.511,-60.6953 13.511,-83.3047 120.315,-83.3047 120.315,-60.6953 13.511,-60.6953"/>
<text text-anchor="middle" x="66.9128" y="-68.3047" font-family="Futura" font-size="11.00">include/fa/error.h</text>
</a>
</g>
<!-- Node3&#45;&gt;Node8 -->
<g id="edge20" class="edge"><title>Node3&#45;&gt;Node8</title>
<path fill="none" stroke="midnightblue" d="M332.326,-121.727C272.048,-111.252 177.578,-94.2476 119.053,-83.3486"/>
<polygon fill="midnightblue" stroke="midnightblue" points="331.98,-125.219 342.43,-123.477 333.174,-118.322 331.98,-125.219"/>
</g>
<!-- Node9 -->
<g id="node23" class="node"><title>Node9</title>
<a xlink:href="list_8h.html" target="_top" xlink:title="include/fa/list.h">
<polygon fill="none" stroke="red" points="612.298,-60.6953 612.298,-83.3047 707.527,-83.3047 707.527,-60.6953 612.298,-60.6953"/>
<text text-anchor="middle" x="659.913" y="-68.3047" font-family="Futura" font-size="11.00">include/fa/list.h</text>
</a>
</g>
<!-- Node3&#45;&gt;Node9 -->
<g id="edge28" class="edge"><title>Node3&#45;&gt;Node9</title>
<path fill="none" stroke="midnightblue" d="M441.92,-118.441C491.396,-107.507 564.438,-91.9171 612.156,-82.1343"/>
<polygon fill="midnightblue" stroke="midnightblue" points="441.051,-115.048 432.046,-120.631 442.567,-121.882 441.051,-115.048"/>
</g>
<!-- Node10 -->
<g id="node28" class="node"><title>Node10</title>
<a xlink:href="map_8h.html" target="_top" xlink:title="include/fa/map.h">
<polygon fill="none" stroke="red" points="569.827,-0.695312 569.827,-23.3047 673.999,-23.3047 673.999,-0.695312 569.827,-0.695312"/>
<text text-anchor="middle" x="621.913" y="-8.30469" font-family="Futura" font-size="11.00">include/fa/map.h</text>
</a>
</g>
<!-- Node3&#45;&gt;Node10 -->
<g id="edge40" class="edge"><title>Node3&#45;&gt;Node10</title>
<path fill="none" stroke="midnightblue" d="M445.132,-125.148C481.642,-119.238 528.949,-107.442 564.913,-84 589.014,-68.2905 607.656,-39.0323 616.42,-23.43"/>
<polygon fill="midnightblue" stroke="midnightblue" points="444.501,-121.704 435.139,-126.664 445.551,-128.625 444.501,-121.704"/>
</g>
<!-- Node5&#45;&gt;Node2 -->
<g id="edge12" class="edge"><title>Node5&#45;&gt;Node2</title>
<path fill="none" stroke="midnightblue" d="M498.237,-93.6561C493.722,-119.023 486.239,-161.071 482.776,-180.528"/>
<polygon fill="midnightblue" stroke="midnightblue" points="501.717,-94.0764 500.023,-83.6179 494.825,-92.8499 501.717,-94.0764"/>
</g>
<!-- Node5&#45;&gt;Node6 -->
<g id="edge14" class="edge"><title>Node5&#45;&gt;Node6</title>
<path fill="none" stroke="midnightblue" d="M454.149,-57.9324C415.966,-47.4863 363.166,-33.0409 327.843,-23.3771"/>
<polygon fill="midnightblue" stroke="midnightblue" points="453.442,-61.3678 464.011,-60.6308 455.29,-54.6159 453.442,-61.3678"/>
</g>
<!-- Node6&#45;&gt;Node3 -->
<g id="edge16" class="edge"><title>Node6&#45;&gt;Node3</title>
<path fill="none" stroke="midnightblue" d="M291.282,-33.7263C293.213,-48.9605 297.844,-69.4561 308.913,-84 321.888,-101.048 342.974,-113.068 360.241,-120.683"/>
<polygon fill="midnightblue" stroke="midnightblue" points="294.76,-33.3332 290.299,-23.7236 287.794,-34.018 294.76,-33.3332"/>
</g>
<!-- Node8&#45;&gt;Node2 -->
<g id="edge22" class="edge"><title>Node8&#45;&gt;Node2</title>
<path fill="none" stroke="midnightblue" d="M113.025,-86.143C196.079,-109.816 369.168,-159.15 444.536,-180.632"/>
<polygon fill="midnightblue" stroke="midnightblue" points="113.932,-82.7621 103.355,-83.3869 112.013,-89.494 113.932,-82.7621"/>
</g>
<!-- Node8&#45;&gt;Node3 -->
<g id="edge24" class="edge"><title>Node8&#45;&gt;Node3</title>
<path fill="none" stroke="midnightblue" d="M130.611,-83.5114C193.143,-94.4229 286.893,-111.324 342.637,-121.746"/>
<polygon fill="midnightblue" stroke="midnightblue" points="130.922,-80.013 120.47,-81.747 129.722,-86.9094 130.922,-80.013"/>
</g>
<!-- Node8&#45;&gt;Node6 -->
<g id="edge26" class="edge"><title>Node8&#45;&gt;Node6</title>
<path fill="none" stroke="midnightblue" d="M116.644,-58.0655C156.846,-47.6093 212.701,-33.082 250.015,-23.3771"/>
<polygon fill="midnightblue" stroke="midnightblue" points="115.578,-54.7262 106.781,-60.6308 117.34,-61.5008 115.578,-54.7262"/>
</g>
<!-- Node9&#45;&gt;Node1 -->
<g id="edge30" class="edge"><title>Node9&#45;&gt;Node1</title>
<path fill="none" stroke="midnightblue" d="M648.096,-92.285C629.601,-120.869 591.108,-174.293 544.913,-204 514.817,-223.354 476.373,-235.057 445.18,-241.944"/>
<polygon fill="midnightblue" stroke="midnightblue" points="651.194,-93.9354 653.584,-83.6137 645.279,-90.1919 651.194,-93.9354"/>
</g>
<!-- Node9&#45;&gt;Node2 -->
<g id="edge32" class="edge"><title>Node9&#45;&gt;Node2</title>
<path fill="none" stroke="midnightblue" d="M625.149,-87.454C606.389,-95.8792 583.193,-107.328 563.913,-120 535.548,-138.643 506.27,-165.927 491.224,-180.654"/>
<polygon fill="midnightblue" stroke="midnightblue" points="626.769,-90.5653 634.512,-83.3333 623.949,-84.1584 626.769,-90.5653"/>
</g>
<!-- Node9&#45;&gt;Node3 -->
<g id="edge34" class="edge"><title>Node9&#45;&gt;Node3</title>
<path fill="none" stroke="midnightblue" d="M606.82,-85.5782C556.793,-96.633 482.728,-112.437 435.081,-122.191"/>
<polygon fill="midnightblue" stroke="midnightblue" points="607.796,-88.9469 616.8,-83.3645 606.28,-82.113 607.796,-88.9469"/>
</g>
<!-- Node9&#45;&gt;Node6 -->
<g id="edge38" class="edge"><title>Node9&#45;&gt;Node6</title>
<path fill="none" stroke="midnightblue" d="M601.741,-61.8812C530.268,-50.6774 410.099,-31.84 341.688,-21.1161"/>
<polygon fill="midnightblue" stroke="midnightblue" points="601.5,-65.386 611.921,-63.477 602.584,-58.4705 601.5,-65.386"/>
</g>
<!-- Node9&#45;&gt;Node10 -->
<g id="edge36" class="edge"><title>Node9&#45;&gt;Node10</title>
<path fill="none" stroke="midnightblue" d="M647.616,-52.2313C641.421,-42.775 634.134,-31.6539 628.905,-23.6719"/>
<polygon fill="midnightblue" stroke="midnightblue" points="644.711,-54.1842 653.119,-60.6308 650.567,-50.348 644.711,-54.1842"/>
</g>
</g>
</svg>
