<?xml version="1.0" encoding="UTF-8" standalone="no"?>
<!DOCTYPE svg PUBLIC "-//W3C//DTD SVG 1.1//EN"
 "http://www.w3.org/Graphics/SVG/1.1/DTD/svg11.dtd">
<!-- Generated by graphviz version 2.28.0 (20121015.0031)
 -->
<!-- Title: include/fa/error.h Pages: 1 -->
<svg width="700pt" height="332pt"
 viewBox="0.00 0.00 700.00 332.00" xmlns="http://www.w3.org/2000/svg" xmlns:xlink="http://www.w3.org/1999/xlink">
<g id="graph1" class="graph" transform="scale(1 1) rotate(0) translate(4 328)">
<title>include/fa/error.h</title>
<!-- Node1 -->
<g id="node1" class="node"><title>Node1</title>
<polygon fill="#bfbfbf" stroke="black" points="214.598,-300.695 214.598,-323.305 321.402,-323.305 321.402,-300.695 214.598,-300.695"/>
<text text-anchor="middle" x="268" y="-308.305" font-family="Futura" font-size="11.00">include/fa/error.h</text>
</g>
<!-- Node2 -->
<g id="node3" class="node"><title>Node2</title>
<a xlink:href="audio_8h.html" target="_top" xlink:title="include/fa/audio.h">
<polygon fill="none" stroke="black" points="120.592,-240.695 120.592,-263.305 231.408,-263.305 231.408,-240.695 120.592,-240.695"/>
<text text-anchor="middle" x="176" y="-248.305" font-family="Futura" font-size="11.00">include/fa/audio.h</text>
</a>
</g>
<!-- Node1&#45;&gt;Node2 -->
<g id="edge2" class="edge"><title>Node1&#45;&gt;Node2</title>
<path fill="none" stroke="midnightblue" d="M242.717,-295.061C226.752,-284.996 206.578,-272.277 192.616,-263.475"/>
<polygon fill="midnightblue" stroke="midnightblue" points="241.226,-298.258 251.552,-300.631 244.96,-292.337 241.226,-298.258"/>
</g>
<!-- Node3 -->
<g id="node5" class="node"><title>Node3</title>
<a xlink:href="fa_2fa_8h.html" target="_top" xlink:title="include/fa/fa.h">
<polygon fill="none" stroke="red" points="221.846,-180.695 221.846,-203.305 314.154,-203.305 314.154,-180.695 221.846,-180.695"/>
<text text-anchor="middle" x="268" y="-188.305" font-family="Futura" font-size="11.00">include/fa/fa.h</text>
</a>
</g>
<!-- Node1&#45;&gt;Node3 -->
<g id="edge42" class="edge"><title>Node1&#45;&gt;Node3</title>
<path fill="none" stroke="midnightblue" d="M262.741,-290.534C260.414,-265.25 260.811,-223.187 263.93,-203.618"/>
<polygon fill="midnightblue" stroke="midnightblue" points="259.275,-291.022 263.953,-300.528 266.224,-290.18 259.275,-291.022"/>
</g>
<!-- Node5 -->
<g id="node11" class="node"><title>Node5</title>
<a xlink:href="midi_8h.html" target="_top" xlink:title="include/fa/midi.h">
<polygon fill="none" stroke="black" points="216.473,-0.695312 216.473,-23.3047 319.527,-23.3047 319.527,-0.695312 216.473,-0.695312"/>
<text text-anchor="middle" x="268" y="-8.30469" font-family="Futura" font-size="11.00">include/fa/midi.h</text>
</a>
</g>
<!-- Node1&#45;&gt;Node5 -->
<g id="edge44" class="edge"><title>Node1&#45;&gt;Node5</title>
<path fill="none" stroke="midnightblue" d="M331.726,-306.532C450.099,-296.471 692,-266.873 692,-193 692,-193 692,-193 692,-131 692,-54.4959 432.564,-25.4772 319.567,-16.4665"/>
<polygon fill="midnightblue" stroke="midnightblue" points="331.377,-303.049 321.7,-307.362 331.955,-310.025 331.377,-303.049"/>
</g>
<!-- Node2&#45;&gt;Node3 -->
<g id="edge4" class="edge"><title>Node2&#45;&gt;Node3</title>
<path fill="none" stroke="midnightblue" d="M201.283,-235.061C217.248,-224.996 237.422,-212.277 251.384,-203.475"/>
<polygon fill="midnightblue" stroke="midnightblue" points="199.04,-232.337 192.448,-240.631 202.774,-238.258 199.04,-232.337"/>
</g>
<!-- Node3&#45;&gt;Node1 -->
<g id="edge26" class="edge"><title>Node3&#45;&gt;Node1</title>
<path fill="none" stroke="midnightblue" d="M273.276,-213.656C275.589,-239.023 275.18,-281.071 272.047,-300.528"/>
<polygon fill="midnightblue" stroke="midnightblue" points="276.738,-213.129 272.07,-203.618 269.788,-213.964 276.738,-213.129"/>
</g>
<!-- Node4 -->
<g id="node7" class="node"><title>Node4</title>
<a xlink:href="action_8h.html" target="_top" xlink:title="include/fa/action.h">
<polygon fill="none" stroke="black" points="126.746,-60.6953 126.746,-83.3047 239.254,-83.3047 239.254,-60.6953 126.746,-60.6953"/>
<text text-anchor="middle" x="183" y="-68.3047" font-family="Futura" font-size="11.00">include/fa/action.h</text>
</a>
</g>
<!-- Node3&#45;&gt;Node4 -->
<g id="edge6" class="edge"><title>Node3&#45;&gt;Node4</title>
<path fill="none" stroke="midnightblue" d="M235.398,-175.147C223.417,-166.94 210.798,-156.106 202,-144 188.134,-124.921 180.014,-98.0479 179.378,-83.4436"/>
<polygon fill="midnightblue" stroke="midnightblue" points="233.641,-178.178 243.946,-180.639 237.425,-172.289 233.641,-178.178"/>
</g>
<!-- Node6 -->
<g id="node14" class="node"><title>Node6</title>
<a xlink:href="buffer_8h.html" target="_top" xlink:title="include/fa/buffer.h">
<polygon fill="none" stroke="red" points="552.227,-120.695 552.227,-143.305 663.773,-143.305 663.773,-120.695 552.227,-120.695"/>
<text text-anchor="middle" x="608" y="-128.305" font-family="Futura" font-size="11.00">include/fa/buffer.h</text>
</a>
</g>
<!-- Node3&#45;&gt;Node6 -->
<g id="edge16" class="edge"><title>Node3&#45;&gt;Node6</title>
<path fill="none" stroke="midnightblue" d="M324.373,-181.383C387.464,-170.621 489.066,-153.289 552.003,-142.552"/>
<polygon fill="midnightblue" stroke="midnightblue" points="323.477,-177.986 314.208,-183.118 324.654,-184.886 323.477,-177.986"/>
</g>
<!-- Node7 -->
<g id="node16" class="node"><title>Node7</title>
<a xlink:href="clock_8h.html" target="_top" xlink:title="include/fa/clock.h">
<polygon fill="none" stroke="black" points="-0.0222168,-120.695 -0.0222168,-143.305 108.022,-143.305 108.022,-120.695 -0.0222168,-120.695"/>
<text text-anchor="middle" x="54" y="-128.305" font-family="Futura" font-size="11.00">include/fa/clock.h</text>
</a>
</g>
<!-- Node3&#45;&gt;Node7 -->
<g id="edge18" class="edge"><title>Node3&#45;&gt;Node7</title>
<path fill="none" stroke="midnightblue" d="M219.785,-177.932C181.243,-167.486 127.944,-153.041 92.2878,-143.377"/>
<polygon fill="midnightblue" stroke="midnightblue" points="219.174,-181.393 229.741,-180.631 221.005,-174.637 219.174,-181.393"/>
</g>
<!-- Node8 -->
<g id="node20" class="node"><title>Node8</title>
<a xlink:href="dynamic_8h.html" target="_top" xlink:title="include/fa/dynamic.h">
<polygon fill="none" stroke="black" points="333.918,-120.695 333.918,-143.305 458.082,-143.305 458.082,-120.695 333.918,-120.695"/>
<text text-anchor="middle" x="396" y="-128.305" font-family="Futura" font-size="11.00">include/fa/dynamic.h</text>
</a>
</g>
<!-- Node3&#45;&gt;Node8 -->
<g id="edge24" class="edge"><title>Node3&#45;&gt;Node8</title>
<path fill="none" stroke="midnightblue" d="M300.102,-176.454C322.747,-166.193 352.55,-152.688 372.883,-143.475"/>
<polygon fill="midnightblue" stroke="midnightblue" points="298.548,-173.315 290.884,-180.631 301.437,-179.691 298.548,-173.315"/>
</g>
<!-- Node9 -->
<g id="node23" class="node"><title>Node9</title>
<a xlink:href="list_8h.html" target="_top" xlink:title="include/fa/list.h">
<polygon fill="none" stroke="red" points="220.385,-120.695 220.385,-143.305 315.615,-143.305 315.615,-120.695 220.385,-120.695"/>
<text text-anchor="middle" x="268" y="-128.305" font-family="Futura" font-size="11.00">include/fa/list.h</text>
</a>
</g>
<!-- Node3&#45;&gt;Node9 -->
<g id="edge28" class="edge"><title>Node3&#45;&gt;Node9</title>
<path fill="none" stroke="midnightblue" d="M261.512,-170.459C260.936,-161.411 261.309,-151.16 262.63,-143.672"/>
<polygon fill="midnightblue" stroke="midnightblue" points="258.062,-171.097 262.684,-180.631 265.016,-170.296 258.062,-171.097"/>
</g>
<!-- Node10 -->
<g id="node28" class="node"><title>Node10</title>
<a xlink:href="map_8h.html" target="_top" xlink:title="include/fa/map.h">
<polygon fill="none" stroke="red" points="343.914,-60.6953 343.914,-83.3047 448.086,-83.3047 448.086,-60.6953 343.914,-60.6953"/>
<text text-anchor="middle" x="396" y="-68.3047" font-family="Futura" font-size="11.00">include/fa/map.h</text>
</a>
</g>
<!-- Node3&#45;&gt;Node10 -->
<g id="edge40" class="edge"><title>Node3&#45;&gt;Node10</title>
<path fill="none" stroke="midnightblue" d="M324.61,-185.391C377.048,-178.887 449.498,-166.118 467,-144 485.606,-120.488 447.16,-96.5196 419.926,-83.3219"/>
<polygon fill="midnightblue" stroke="midnightblue" points="323.926,-181.947 314.411,-186.609 324.756,-188.898 323.926,-181.947"/>
</g>
<!-- Node4&#45;&gt;Node2 -->
<g id="edge8" class="edge"><title>Node4&#45;&gt;Node2</title>
<path fill="none" stroke="midnightblue" d="M182.183,-93.78C180.68,-132.001 177.528,-212.15 176.407,-240.661"/>
<polygon fill="midnightblue" stroke="midnightblue" points="185.697,-93.4978 182.592,-83.368 178.702,-93.2227 185.697,-93.4978"/>
</g>
<!-- Node4&#45;&gt;Node3 -->
<g id="edge10" class="edge"><title>Node4&#45;&gt;Node3</title>
<path fill="none" stroke="midnightblue" d="M195.268,-92.8202C201.261,-107.851 208.734,-128.498 220,-144 230.858,-158.941 247.536,-171.944 258.449,-180.463"/>
<polygon fill="midnightblue" stroke="midnightblue" points="198.428,-91.3063 191.327,-83.4436 191.975,-94.0186 198.428,-91.3063"/>
</g>
<!-- Node4&#45;&gt;Node5 -->
<g id="edge12" class="edge"><title>Node4&#45;&gt;Node5</title>
<path fill="none" stroke="midnightblue" d="M206.774,-54.7779C221.458,-44.7583 239.87,-32.1949 252.649,-23.475"/>
<polygon fill="midnightblue" stroke="midnightblue" points="204.484,-52.1033 198.196,-60.6308 208.429,-57.8854 204.484,-52.1033"/>
</g>
<!-- Node5&#45;&gt;Node3 -->
<g id="edge14" class="edge"><title>Node5&#45;&gt;Node3</title>
<path fill="none" stroke="midnightblue" d="M329.592,-14.7861C369.895,-18.9504 421.473,-30.3281 457,-60 470.514,-71.2872 503.658,-119.605 484,-144 463.111,-169.923 371.322,-182.297 314.331,-187.579"/>
<polygon fill="midnightblue" stroke="midnightblue" points="329.882,-11.2981 319.606,-13.876 329.247,-18.2692 329.882,-11.2981"/>
</g>
<!-- Node7&#45;&gt;Node2 -->
<g id="edge20" class="edge"><title>Node7&#45;&gt;Node2</title>
<path fill="none" stroke="midnightblue" d="M70.198,-150.792C83.7128,-165.42 103.656,-186.51 122,-204 135.673,-217.037 152.146,-231.162 163.274,-240.487"/>
<polygon fill="midnightblue" stroke="midnightblue" points="72.7448,-148.391 63.4021,-143.394 67.5897,-153.126 72.7448,-148.391"/>
</g>
<!-- Node7&#45;&gt;Node5 -->
<g id="edge22" class="edge"><title>Node7&#45;&gt;Node5</title>
<path fill="none" stroke="midnightblue" d="M66.7533,-111.891C78.3575,-95.8919 96.8663,-73.5586 118,-60 147.86,-40.8427 186.075,-29.022 216.458,-22.0268"/>
<polygon fill="midnightblue" stroke="midnightblue" points="63.6187,-110.266 60.7511,-120.465 69.3533,-114.28 63.6187,-110.266"/>
</g>
<!-- Node9&#45;&gt;Node2 -->
<g id="edge32" class="edge"><title>Node9&#45;&gt;Node2</title>
<path fill="none" stroke="midnightblue" d="M244.565,-149.737C234.047,-158.027 222.009,-168.677 213,-180 197.596,-199.362 185.725,-226.124 179.922,-240.635"/>
<polygon fill="midnightblue" stroke="midnightblue" points="246.752,-152.471 252.586,-143.627 242.51,-146.902 246.752,-152.471"/>
</g>
<!-- Node9&#45;&gt;Node3 -->
<g id="edge34" class="edge"><title>Node9&#45;&gt;Node3</title>
<path fill="none" stroke="midnightblue" d="M274.492,-153.611C275.069,-162.764 274.677,-173.137 273.316,-180.631"/>
<polygon fill="midnightblue" stroke="midnightblue" points="277.97,-153.216 273.37,-143.672 271.014,-154.001 277.97,-153.216"/>
</g>
<!-- Node9&#45;&gt;Node4 -->
<g id="edge30" class="edge"><title>Node9&#45;&gt;Node4</title>
<path fill="none" stroke="midnightblue" d="M244.226,-114.778C229.542,-104.758 211.13,-92.1949 198.351,-83.475"/>
<polygon fill="midnightblue" stroke="midnightblue" points="242.571,-117.885 252.804,-120.631 246.516,-112.103 242.571,-117.885"/>
</g>
<!-- Node9&#45;&gt;Node5 -->
<g id="edge38" class="edge"><title>Node9&#45;&gt;Node5</title>
<path fill="none" stroke="midnightblue" d="M268,-110.192C268,-84.8736 268,-43.0995 268,-23.6179"/>
<polygon fill="midnightblue" stroke="midnightblue" points="264.5,-110.528 268,-120.528 271.5,-110.528 264.5,-110.528"/>
</g>
<!-- Node9&#45;&gt;Node10 -->
<g id="edge36" class="edge"><title>Node9&#45;&gt;Node10</title>
<path fill="none" stroke="midnightblue" d="M300.102,-116.454C322.747,-106.193 352.55,-92.6885 372.883,-83.475"/>
<polygon fill="midnightblue" stroke="midnightblue" points="298.548,-113.315 290.884,-120.631 301.437,-119.691 298.548,-113.315"/>
</g>
</g>
</svg>
