<?xml version="1.0" encoding="UTF-8" standalone="no"?>
<!DOCTYPE svg PUBLIC "-//W3C//DTD SVG 1.1//EN"
 "http://www.w3.org/Graphics/SVG/1.1/DTD/svg11.dtd">
<!-- Generated by graphviz version 2.28.0 (20121015.0031)
 -->
<!-- Title: include/fa/system/event.h Pages: 1 -->
<svg width="555pt" height="272pt"
 viewBox="0.00 0.00 554.53 272.00" xmlns="http://www.w3.org/2000/svg" xmlns:xlink="http://www.w3.org/1999/xlink">
<g id="graph1" class="graph" transform="scale(1 1) rotate(0) translate(4 268)">
<title>include/fa/system/event.h</title>
<!-- Node1 -->
<g id="node1" class="node"><title>Node1</title>
<polygon fill="#bfbfbf" stroke="black" points="46.9601,-240.695 46.9601,-263.305 194.095,-263.305 194.095,-240.695 46.9601,-240.695"/>
<text text-anchor="middle" x="120.528" y="-248.305" font-family="Futura" font-size="11.00">include/fa/system/event.h</text>
</g>
<!-- Node2 -->
<g id="node3" class="node"><title>Node2</title>
<polygon fill="none" stroke="#bfbfbf" points="260.801,-0.695312 260.801,-23.3047 296.255,-23.3047 296.255,-0.695312 260.801,-0.695312"/>
<text text-anchor="middle" x="278.528" y="-8.30469" font-family="Futura" font-size="11.00">fa.h</text>
</g>
<!-- Node1&#45;&gt;Node2 -->
<g id="edge2" class="edge"><title>Node1&#45;&gt;Node2</title>
<path fill="none" stroke="midnightblue" d="M74.6089,-240.645C55.0377,-233.714 34.0875,-222.364 22.5277,-204 -3.21281,-163.107 -22.6778,-135.296 59.5277,-60 87.2941,-34.5674 198.376,-20.717 250.831,-15.4795"/>
<polygon fill="midnightblue" stroke="midnightblue" points="251.173,-18.9628 260.791,-14.5187 250.501,-11.9952 251.173,-18.9628"/>
</g>
<!-- Node3 -->
<g id="node5" class="node"><title>Node3</title>
<polygon fill="none" stroke="#bfbfbf" points="31.4616,-180.695 31.4616,-203.305 115.594,-203.305 115.594,-180.695 31.4616,-180.695"/>
<text text-anchor="middle" x="73.5277" y="-188.305" font-family="Futura" font-size="11.00">fa/message.h</text>
</g>
<!-- Node1&#45;&gt;Node3 -->
<g id="edge4" class="edge"><title>Node1&#45;&gt;Node3</title>
<path fill="none" stroke="midnightblue" d="M112.125,-240.631C105.59,-232.566 96.3539,-221.168 88.5551,-211.544"/>
<polygon fill="midnightblue" stroke="midnightblue" points="91.1908,-209.238 82.1756,-203.672 85.7522,-213.645 91.1908,-209.238"/>
</g>
<!-- Node4 -->
<g id="node7" class="node"><title>Node4</title>
<polygon fill="none" stroke="#bfbfbf" points="133.771,-180.695 133.771,-203.305 201.285,-203.305 201.285,-180.695 133.771,-180.695"/>
<text text-anchor="middle" x="167.528" y="-188.305" font-family="Futura" font-size="11.00">fa/event.h</text>
</g>
<!-- Node1&#45;&gt;Node4 -->
<g id="edge6" class="edge"><title>Node1&#45;&gt;Node4</title>
<path fill="none" stroke="midnightblue" d="M128.93,-240.631C135.465,-232.566 144.702,-221.168 152.5,-211.544"/>
<polygon fill="midnightblue" stroke="midnightblue" points="155.303,-213.645 158.88,-203.672 149.865,-209.238 155.303,-213.645"/>
</g>
<!-- Node5 -->
<g id="node9" class="node"><title>Node5</title>
<a xlink:href="string_8h.html" target="_top" xlink:title="fa/string.h">
<polygon fill="none" stroke="black" points="219.397,-180.695 219.397,-203.305 287.658,-203.305 287.658,-180.695 219.397,-180.695"/>
<text text-anchor="middle" x="253.528" y="-188.305" font-family="Futura" font-size="11.00">fa/string.h</text>
</a>
</g>
<!-- Node1&#45;&gt;Node5 -->
<g id="edge8" class="edge"><title>Node1&#45;&gt;Node5</title>
<path fill="none" stroke="midnightblue" d="M144.305,-240.631C165.451,-231.409 196.591,-217.829 220.216,-207.527"/>
<polygon fill="midnightblue" stroke="midnightblue" points="221.74,-210.681 229.507,-203.475 218.942,-204.264 221.74,-210.681"/>
</g>
<!-- Node6 -->
<g id="node11" class="node"><title>Node6</title>
<a xlink:href="fa_2fa_8h.html" target="_top" xlink:title="fa.h">
<polygon fill="none" stroke="red" points="216.801,-120.695 216.801,-143.305 252.255,-143.305 252.255,-120.695 216.801,-120.695"/>
<text text-anchor="middle" x="234.528" y="-128.305" font-family="Futura" font-size="11.00">fa.h</text>
</a>
</g>
<!-- Node5&#45;&gt;Node6 -->
<g id="edge10" class="edge"><title>Node5&#45;&gt;Node6</title>
<path fill="none" stroke="midnightblue" d="M250.131,-180.631C247.649,-173.055 244.204,-162.538 241.182,-153.313"/>
<polygon fill="midnightblue" stroke="midnightblue" points="244.463,-152.085 238.024,-143.672 237.811,-154.265 244.463,-152.085"/>
</g>
<!-- Node7 -->
<g id="node13" class="node"><title>Node7</title>
<a xlink:href="atomic_8h.html" target="_top" xlink:title="fa/atomic.h">
<polygon fill="none" stroke="red" points="68.4648,-60.6953 68.4648,-83.3047 142.591,-83.3047 142.591,-60.6953 68.4648,-60.6953"/>
<text text-anchor="middle" x="105.528" y="-68.3047" font-family="Futura" font-size="11.00">fa/atomic.h</text>
</a>
</g>
<!-- Node6&#45;&gt;Node7 -->
<g id="edge12" class="edge"><title>Node6&#45;&gt;Node7</title>
<path fill="none" stroke="midnightblue" d="M216.627,-124.903C194.724,-116.186 157.931,-99.889 132.628,-87.8735"/>
<polygon fill="midnightblue" stroke="midnightblue" points="134.076,-84.6864 123.548,-83.5028 131.04,-90.9937 134.076,-84.6864"/>
</g>
<!-- Node8 -->
<g id="node16" class="node"><title>Node8</title>
<a xlink:href="queue_8h.html" target="_top" xlink:title="fa/atomic/queue.h">
<polygon fill="none" stroke="black" points="160.176,-60.6953 160.176,-83.3047 270.879,-83.3047 270.879,-60.6953 160.176,-60.6953"/>
<text text-anchor="middle" x="215.528" y="-68.3047" font-family="Futura" font-size="11.00">fa/atomic/queue.h</text>
</a>
</g>
<!-- Node6&#45;&gt;Node8 -->
<g id="edge16" class="edge"><title>Node6&#45;&gt;Node8</title>
<path fill="none" stroke="midnightblue" d="M231.131,-120.631C228.649,-113.055 225.204,-102.538 222.182,-93.3126"/>
<polygon fill="midnightblue" stroke="midnightblue" points="225.463,-92.0854 219.024,-83.6719 218.811,-94.2646 225.463,-92.0854"/>
</g>
<!-- Node9 -->
<g id="node19" class="node"><title>Node9</title>
<a xlink:href="stack_8h.html" target="_top" xlink:title="fa/atomic/stack.h">
<polygon fill="none" stroke="black" points="288.948,-60.6953 288.948,-83.3047 394.108,-83.3047 394.108,-60.6953 288.948,-60.6953"/>
<text text-anchor="middle" x="341.528" y="-68.3047" font-family="Futura" font-size="11.00">fa/atomic/stack.h</text>
</a>
</g>
<!-- Node6&#45;&gt;Node9 -->
<g id="edge20" class="edge"><title>Node6&#45;&gt;Node9</title>
<path fill="none" stroke="midnightblue" d="M252.679,-121.161C269.28,-112.162 294.102,-98.7075 313.293,-88.3048"/>
<polygon fill="midnightblue" stroke="midnightblue" points="315.078,-91.3186 322.201,-83.4761 311.742,-85.1646 315.078,-91.3186"/>
</g>
<!-- Node10 -->
<g id="node22" class="node"><title>Node10</title>
<a xlink:href="ring__buffer_8h.html" target="_top" xlink:title="fa/atomic/ring_buffer.h">
<polygon fill="none" stroke="black" points="412.054,-60.6953 412.054,-83.3047 547.002,-83.3047 547.002,-60.6953 412.054,-60.6953"/>
<text text-anchor="middle" x="479.528" y="-68.3047" font-family="Futura" font-size="11.00">fa/atomic/ring_buffer.h</text>
</a>
</g>
<!-- Node6&#45;&gt;Node10 -->
<g id="edge24" class="edge"><title>Node6&#45;&gt;Node10</title>
<path fill="none" stroke="midnightblue" d="M252.543,-126.735C288.642,-118.189 371.077,-98.6741 426.025,-85.6658"/>
<polygon fill="midnightblue" stroke="midnightblue" points="427.024,-89.0264 435.948,-83.3168 425.411,-82.2146 427.024,-89.0264"/>
</g>
<!-- Node7&#45;&gt;Node6 -->
<g id="edge14" class="edge"><title>Node7&#45;&gt;Node6</title>
<path fill="none" stroke="midnightblue" d="M134.161,-83.475C156.111,-92.6062 186.007,-105.952 207.537,-116.178"/>
<polygon fill="midnightblue" stroke="midnightblue" points="206.253,-119.445 216.781,-120.631 209.29,-113.138 206.253,-119.445"/>
</g>
<!-- Node8&#45;&gt;Node2 -->
<g id="edge18" class="edge"><title>Node8&#45;&gt;Node2</title>
<path fill="none" stroke="midnightblue" d="M226.791,-60.6308C235.816,-52.3219 248.685,-40.4746 259.33,-30.6745"/>
<polygon fill="midnightblue" stroke="midnightblue" points="261.949,-33.0199 266.936,-23.6719 257.208,-27.87 261.949,-33.0199"/>
</g>
<!-- Node9&#45;&gt;Node2 -->
<g id="edge22" class="edge"><title>Node9&#45;&gt;Node2</title>
<path fill="none" stroke="midnightblue" d="M330.265,-60.6308C321.239,-52.3219 308.371,-40.4746 297.726,-30.6745"/>
<polygon fill="midnightblue" stroke="midnightblue" points="299.847,-27.87 290.12,-23.6719 295.106,-33.0199 299.847,-27.87"/>
</g>
<!-- Node10&#45;&gt;Node2 -->
<g id="edge26" class="edge"><title>Node10&#45;&gt;Node2</title>
<path fill="none" stroke="midnightblue" d="M443.593,-60.6308C404.23,-49.2724 341.952,-31.3016 306.208,-20.9875"/>
<polygon fill="midnightblue" stroke="midnightblue" points="307.025,-17.5803 296.447,-18.1706 305.084,-24.3059 307.025,-17.5803"/>
</g>
</g>
</svg>
