<?xml version="1.0" encoding="UTF-8" standalone="no"?>
<!DOCTYPE svg PUBLIC "-//W3C//DTD SVG 1.1//EN"
 "http://www.w3.org/Graphics/SVG/1.1/DTD/svg11.dtd">
<!-- Generated by graphviz version 2.28.0 (20121015.0031)
 -->
<!-- Title: include/fa/midi.h Pages: 1 -->
<svg width="464pt" height="392pt"
 viewBox="0.00 0.00 464.00 392.00" xmlns="http://www.w3.org/2000/svg" xmlns:xlink="http://www.w3.org/1999/xlink">
<g id="graph1" class="graph" transform="scale(1 1) rotate(0) translate(4 388)">
<title>include/fa/midi.h</title>
<!-- Node1 -->
<g id="node1" class="node"><title>Node1</title>
<polygon fill="#bfbfbf" stroke="black" points="183.473,-360.695 183.473,-383.305 286.527,-383.305 286.527,-360.695 183.473,-360.695"/>
<text text-anchor="middle" x="235" y="-368.305" font-family="Futura" font-size="11.00">include/fa/midi.h</text>
</g>
<!-- Node2 -->
<g id="node3" class="node"><title>Node2</title>
<a xlink:href="list_8h.html" target="_top" xlink:title="fa/list.h">
<polygon fill="none" stroke="black" points="152.949,-300.695 152.949,-323.305 207.051,-323.305 207.051,-300.695 152.949,-300.695"/>
<text text-anchor="middle" x="180" y="-308.305" font-family="Futura" font-size="11.00">fa/list.h</text>
</a>
</g>
<!-- Node1&#45;&gt;Node2 -->
<g id="edge2" class="edge"><title>Node1&#45;&gt;Node2</title>
<path fill="none" stroke="midnightblue" d="M225.167,-360.631C217.365,-352.403 206.273,-340.707 197.034,-330.963"/>
<polygon fill="midnightblue" stroke="midnightblue" points="199.541,-328.52 190.12,-323.672 194.461,-333.336 199.541,-328.52"/>
</g>
<!-- Node4 -->
<g id="node7" class="node"><title>Node4</title>
<a xlink:href="error_8h.html" target="_top" xlink:title="fa/error.h">
<polygon fill="none" stroke="red" points="324.161,-180.695 324.161,-203.305 389.839,-203.305 389.839,-180.695 324.161,-180.695"/>
<text text-anchor="middle" x="357" y="-188.305" font-family="Futura" font-size="11.00">fa/error.h</text>
</a>
</g>
<!-- Node1&#45;&gt;Node4 -->
<g id="edge56" class="edge"><title>Node1&#45;&gt;Node4</title>
<path fill="none" stroke="midnightblue" d="M242.087,-360.661C261.965,-331.658 318.466,-249.222 344.087,-211.841"/>
<polygon fill="midnightblue" stroke="midnightblue" points="347.127,-213.595 349.894,-203.368 341.353,-209.638 347.127,-213.595"/>
</g>
<!-- Node5 -->
<g id="node10" class="node"><title>Node5</title>
<a xlink:href="pair_8h.html" target="_top" xlink:title="fa/pair.h">
<polygon fill="none" stroke="black" points="99.6938,-60.6953 99.6938,-83.3047 160.306,-83.3047 160.306,-60.6953 99.6938,-60.6953"/>
<text text-anchor="middle" x="130" y="-68.3047" font-family="Futura" font-size="11.00">fa/pair.h</text>
</a>
</g>
<!-- Node1&#45;&gt;Node5 -->
<g id="edge44" class="edge"><title>Node1&#45;&gt;Node5</title>
<path fill="none" stroke="midnightblue" d="M183.428,-367.51C114.252,-359.709 0,-334.491 0,-253 0,-253 0,-253 0,-191 0,-140.281 54.924,-105.642 93.3714,-87.6076"/>
<polygon fill="midnightblue" stroke="midnightblue" points="95.0697,-90.6812 102.748,-83.3806 92.1928,-84.2997 95.0697,-90.6812"/>
</g>
<!-- Node6 -->
<g id="node16" class="node"><title>Node6</title>
<a xlink:href="time_8h.html" target="_top" xlink:title="fa/time.h">
<polygon fill="none" stroke="red" points="269.157,-60.6953 269.157,-83.3047 330.843,-83.3047 330.843,-60.6953 269.157,-60.6953"/>
<text text-anchor="middle" x="300" y="-68.3047" font-family="Futura" font-size="11.00">fa/time.h</text>
</a>
</g>
<!-- Node1&#45;&gt;Node6 -->
<g id="edge48" class="edge"><title>Node1&#45;&gt;Node6</title>
<path fill="none" stroke="midnightblue" d="M286.536,-366.018C351.84,-356.541 456,-329.442 456,-253 456,-253 456,-253 456,-191 456,-133.262 387.188,-100.168 340.967,-84.4513"/>
<polygon fill="midnightblue" stroke="midnightblue" points="341.786,-81.0372 331.194,-81.2695 339.619,-87.6933 341.786,-81.0372"/>
</g>
<!-- Node8 -->
<g id="node21" class="node"><title>Node8</title>
<a xlink:href="action_8h.html" target="_top" xlink:title="fa/action.h">
<polygon fill="none" stroke="black" points="66.3093,-180.695 66.3093,-203.305 137.691,-203.305 137.691,-180.695 66.3093,-180.695"/>
<text text-anchor="middle" x="102" y="-188.305" font-family="Futura" font-size="11.00">fa/action.h</text>
</a>
</g>
<!-- Node1&#45;&gt;Node8 -->
<g id="edge46" class="edge"><title>Node1&#45;&gt;Node8</title>
<path fill="none" stroke="midnightblue" d="M200.525,-360.532C181.45,-353.126 158.7,-341.376 144,-324 116.75,-291.788 107.108,-241.65 103.75,-213.667"/>
<polygon fill="midnightblue" stroke="midnightblue" points="107.205,-213.051 102.69,-203.467 100.242,-213.775 107.205,-213.051"/>
</g>
<!-- Node10 -->
<g id="node35" class="node"><title>Node10</title>
<a xlink:href="clock_8h.html" target="_top" xlink:title="fa/clock.h">
<polygon fill="none" stroke="black" points="304.541,-300.695 304.541,-323.305 371.459,-323.305 371.459,-300.695 304.541,-300.695"/>
<text text-anchor="middle" x="338" y="-308.305" font-family="Futura" font-size="11.00">fa/clock.h</text>
</a>
</g>
<!-- Node1&#45;&gt;Node10 -->
<g id="edge50" class="edge"><title>Node1&#45;&gt;Node10</title>
<path fill="none" stroke="midnightblue" d="M253.414,-360.631C269.281,-351.696 292.413,-338.67 310.478,-328.498"/>
<polygon fill="midnightblue" stroke="midnightblue" points="312.402,-331.431 319.398,-323.475 308.967,-325.332 312.402,-331.431"/>
</g>
<!-- Node3 -->
<g id="node5" class="node"><title>Node3</title>
<a xlink:href="fa_2fa_8h.html" target="_top" xlink:title="fa.h">
<polygon fill="none" stroke="red" points="213.273,-240.695 213.273,-263.305 248.727,-263.305 248.727,-240.695 213.273,-240.695"/>
<text text-anchor="middle" x="231" y="-248.305" font-family="Futura" font-size="11.00">fa.h</text>
</a>
</g>
<!-- Node2&#45;&gt;Node3 -->
<g id="edge4" class="edge"><title>Node2&#45;&gt;Node3</title>
<path fill="none" stroke="midnightblue" d="M183.802,-300.631C189.542,-292.403 199.501,-280.707 208.909,-270.963"/>
<polygon fill="midnightblue" stroke="midnightblue" points="211.62,-273.204 216.246,-263.672 206.686,-268.239 211.62,-273.204"/>
</g>
<!-- Node3&#45;&gt;Node1 -->
<g id="edge18" class="edge"><title>Node3&#45;&gt;Node1</title>
<path fill="none" stroke="midnightblue" d="M231.36,-263.618C232.023,-283.187 233.449,-325.25 234.306,-350.534"/>
<polygon fill="midnightblue" stroke="midnightblue" points="230.808,-350.653 234.645,-360.528 237.804,-350.415 230.808,-350.653"/>
</g>
<!-- Node3&#45;&gt;Node2 -->
<g id="edge16" class="edge"><title>Node3&#45;&gt;Node2</title>
<path fill="none" stroke="midnightblue" d="M226.986,-263.672C221.144,-271.983 211.141,-283.698 201.747,-293.392"/>
<polygon fill="midnightblue" stroke="midnightblue" points="199.079,-291.108 194.434,-300.631 204.003,-296.083 199.079,-291.108"/>
</g>
<!-- Node3&#45;&gt;Node4 -->
<g id="edge6" class="edge"><title>Node3&#45;&gt;Node4</title>
<path fill="none" stroke="midnightblue" d="M248.21,-240.631C266.568,-231.409 295.862,-217.829 319.503,-207.527"/>
<polygon fill="midnightblue" stroke="midnightblue" points="321.109,-210.646 328.909,-203.475 318.34,-204.217 321.109,-210.646"/>
</g>
<!-- Node3&#45;&gt;Node5 -->
<g id="edge10" class="edge"><title>Node3&#45;&gt;Node5</title>
<path fill="none" stroke="midnightblue" d="M221.758,-240.661C201.329,-211.904 154.851,-130.615 136.796,-92.801"/>
<polygon fill="midnightblue" stroke="midnightblue" points="139.831,-91.0198 132.503,-83.368 133.46,-93.9195 139.831,-91.0198"/>
</g>
<!-- Node3&#45;&gt;Node6 -->
<g id="edge20" class="edge"><title>Node3&#45;&gt;Node6</title>
<path fill="none" stroke="midnightblue" d="M229.135,-240.67C231.824,-231.229 238.711,-216.827 244,-204 260.102,-164.954 276.127,-118.155 287.538,-92.3943"/>
<polygon fill="midnightblue" stroke="midnightblue" points="290.721,-93.8519 291.828,-83.3151 284.392,-90.8614 290.721,-93.8519"/>
</g>
<!-- Node3&#45;&gt;Node8 -->
<g id="edge26" class="edge"><title>Node3&#45;&gt;Node8</title>
<path fill="none" stroke="midnightblue" d="M213.1,-244.903C191.197,-236.186 154.403,-219.889 129.1,-207.874"/>
<polygon fill="midnightblue" stroke="midnightblue" points="130.548,-204.686 120.02,-203.503 127.512,-210.994 130.548,-204.686"/>
</g>
<!-- Node9 -->
<g id="node26" class="node"><title>Node9</title>
<a xlink:href="signal_8h.html" target="_top" xlink:title="fa/signal.h">
<polygon fill="none" stroke="red" points="192.846,-120.695 192.846,-143.305 263.154,-143.305 263.154,-120.695 192.846,-120.695"/>
<text text-anchor="middle" x="228" y="-128.305" font-family="Futura" font-size="11.00">fa/signal.h</text>
</a>
</g>
<!-- Node3&#45;&gt;Node9 -->
<g id="edge42" class="edge"><title>Node3&#45;&gt;Node9</title>
<path fill="none" stroke="midnightblue" d="M226.687,-240.528C223.059,-221.071 221.581,-179.023 223.249,-153.656"/>
<polygon fill="midnightblue" stroke="midnightblue" points="226.741,-153.903 224.2,-143.618 219.772,-153.243 226.741,-153.903"/>
</g>
<!-- Node4&#45;&gt;Node3 -->
<g id="edge8" class="edge"><title>Node4&#45;&gt;Node3</title>
<path fill="none" stroke="midnightblue" d="M339.614,-203.457C318.513,-214.048 283.142,-230.323 258.407,-240.815"/>
<polygon fill="midnightblue" stroke="midnightblue" points="256.741,-237.718 248.855,-244.793 259.432,-244.18 256.741,-237.718"/>
</g>
<!-- Node5&#45;&gt;Node2 -->
<g id="edge14" class="edge"><title>Node5&#45;&gt;Node2</title>
<path fill="none" stroke="midnightblue" d="M116.364,-83.562C89.8755,-105.442 35.8464,-157.561 57,-204 76.1388,-246.016 120.829,-277.932 150.736,-295.559"/>
<polygon fill="midnightblue" stroke="midnightblue" points="149.08,-298.644 159.499,-300.567 152.553,-292.566 149.08,-298.644"/>
</g>
<!-- Node5&#45;&gt;Node3 -->
<g id="edge12" class="edge"><title>Node5&#45;&gt;Node3</title>
<path fill="none" stroke="midnightblue" d="M139.263,-83.368C159.708,-112.159 206.186,-193.451 224.222,-231.237"/>
<polygon fill="midnightblue" stroke="midnightblue" points="221.182,-233.008 228.509,-240.661 227.554,-230.109 221.182,-233.008"/>
</g>
<!-- Node6&#45;&gt;Node3 -->
<g id="edge22" class="edge"><title>Node6&#45;&gt;Node3</title>
<path fill="none" stroke="midnightblue" d="M301.5,-83.3151C298.38,-105.594 280.239,-159.771 262,-204 258.157,-213.319 253.47,-223.471 248.661,-231.947"/>
<polygon fill="midnightblue" stroke="midnightblue" points="245.541,-230.334 243.216,-240.67 251.48,-234.04 245.541,-230.334"/>
</g>
<!-- Node7 -->
<g id="node19" class="node"><title>Node7</title>
<a xlink:href="ratio_8h.html" target="_top" xlink:title="fa/ratio.h">
<polygon fill="none" stroke="red" points="267.927,-0.695312 267.927,-23.3047 332.073,-23.3047 332.073,-0.695312 267.927,-0.695312"/>
<text text-anchor="middle" x="300" y="-8.30469" font-family="Futura" font-size="11.00">fa/ratio.h</text>
</a>
</g>
<!-- Node6&#45;&gt;Node7 -->
<g id="edge24" class="edge"><title>Node6&#45;&gt;Node7</title>
<path fill="none" stroke="midnightblue" d="M300,-60.6308C300,-53.218 300,-42.9888 300,-33.9096"/>
<polygon fill="midnightblue" stroke="midnightblue" points="303.5,-33.6718 300,-23.6719 296.5,-33.6719 303.5,-33.6718"/>
</g>
<!-- Node8&#45;&gt;Node2 -->
<g id="edge32" class="edge"><title>Node8&#45;&gt;Node2</title>
<path fill="none" stroke="midnightblue" d="M109.019,-203.618C122.186,-223.538 150.761,-266.767 167.36,-291.878"/>
<polygon fill="midnightblue" stroke="midnightblue" points="164.644,-294.116 173.078,-300.528 170.483,-290.256 164.644,-294.116"/>
</g>
<!-- Node8&#45;&gt;Node3 -->
<g id="edge28" class="edge"><title>Node8&#45;&gt;Node3</title>
<path fill="none" stroke="midnightblue" d="M130.633,-203.475C152.584,-212.606 182.48,-225.952 204.009,-236.178"/>
<polygon fill="midnightblue" stroke="midnightblue" points="202.725,-239.445 213.253,-240.631 205.763,-233.138 202.725,-239.445"/>
</g>
<!-- Node8&#45;&gt;Node5 -->
<g id="edge30" class="edge"><title>Node8&#45;&gt;Node5</title>
<path fill="none" stroke="midnightblue" d="M104.485,-180.528C109.102,-161.071 119.079,-119.023 125.099,-93.6561"/>
<polygon fill="midnightblue" stroke="midnightblue" points="128.577,-94.1558 127.481,-83.6179 121.766,-92.5396 128.577,-94.1558"/>
</g>
<!-- Node8&#45;&gt;Node9 -->
<g id="edge34" class="edge"><title>Node8&#45;&gt;Node9</title>
<path fill="none" stroke="midnightblue" d="M124.526,-180.631C144.47,-171.45 173.798,-157.95 196.143,-147.664"/>
<polygon fill="midnightblue" stroke="midnightblue" points="197.624,-150.836 205.244,-143.475 194.697,-144.477 197.624,-150.836"/>
</g>
<!-- Node9&#45;&gt;Node3 -->
<g id="edge36" class="edge"><title>Node9&#45;&gt;Node3</title>
<path fill="none" stroke="midnightblue" d="M232.34,-143.618C235.957,-163.187 237.422,-205.25 235.738,-230.534"/>
<polygon fill="midnightblue" stroke="midnightblue" points="232.251,-230.24 234.781,-240.528 239.219,-230.908 232.251,-230.24"/>
</g>
<!-- Node9&#45;&gt;Node5 -->
<g id="edge38" class="edge"><title>Node9&#45;&gt;Node5</title>
<path fill="none" stroke="midnightblue" d="M210.48,-120.631C195.522,-111.778 173.777,-98.9089 156.66,-88.7784"/>
<polygon fill="midnightblue" stroke="midnightblue" points="158.088,-85.5563 147.699,-83.475 154.522,-91.5803 158.088,-85.5563"/>
</g>
<!-- Node9&#45;&gt;Node6 -->
<g id="edge40" class="edge"><title>Node9&#45;&gt;Node6</title>
<path fill="none" stroke="midnightblue" d="M240.872,-120.631C251.389,-112.159 266.472,-100.009 278.772,-90.1004"/>
<polygon fill="midnightblue" stroke="midnightblue" points="281.16,-92.6708 286.752,-83.6719 276.769,-87.2196 281.16,-92.6708"/>
</g>
<!-- Node10&#45;&gt;Node3 -->
<g id="edge52" class="edge"><title>Node10&#45;&gt;Node3</title>
<path fill="none" stroke="midnightblue" d="M318.871,-300.631C301.901,-291.432 276.93,-277.897 257.941,-267.604"/>
<polygon fill="midnightblue" stroke="midnightblue" points="259.356,-264.389 248.896,-262.701 256.02,-270.543 259.356,-264.389"/>
</g>
<!-- Node10&#45;&gt;Node6 -->
<g id="edge54" class="edge"><title>Node10&#45;&gt;Node6</title>
<path fill="none" stroke="midnightblue" d="M348.937,-300.652C370.699,-278.747 415.855,-225.931 398,-180 383.043,-141.524 347.077,-108.462 323.128,-89.649"/>
<polygon fill="midnightblue" stroke="midnightblue" points="324.983,-86.662 314.91,-83.3789 320.737,-92.2272 324.983,-86.662"/>
</g>
</g>
</svg>
