<?xml version="1.0" encoding="UTF-8" standalone="no"?>
<!DOCTYPE svg PUBLIC "-//W3C//DTD SVG 1.1//EN"
 "http://www.w3.org/Graphics/SVG/1.1/DTD/svg11.dtd">
<!-- Generated by graphviz version 2.28.0 (20121015.0031)
 -->
<!-- Title: include/fa/pair.h Pages: 1 -->
<svg width="709pt" height="332pt"
 viewBox="0.00 0.00 708.85 332.00" xmlns="http://www.w3.org/2000/svg" xmlns:xlink="http://www.w3.org/1999/xlink">
<g id="graph1" class="graph" transform="scale(1 1) rotate(0) translate(4 328)">
<title>include/fa/pair.h</title>
<!-- Node1 -->
<g id="node1" class="node"><title>Node1</title>
<polygon fill="#bfbfbf" stroke="black" points="358.131,-300.695 358.131,-323.305 459.869,-323.305 459.869,-300.695 358.131,-300.695"/>
<text text-anchor="middle" x="409" y="-308.305" font-family="Futura" font-size="11.00">include/fa/pair.h</text>
</g>
<!-- Node2 -->
<g id="node3" class="node"><title>Node2</title>
<a xlink:href="action_8h.html" target="_top" xlink:title="include/fa/action.h">
<polygon fill="none" stroke="black" points="255.746,-240.695 255.746,-263.305 368.254,-263.305 368.254,-240.695 255.746,-240.695"/>
<text text-anchor="middle" x="312" y="-248.305" font-family="Futura" font-size="11.00">include/fa/action.h</text>
</a>
</g>
<!-- Node1&#45;&gt;Node2 -->
<g id="edge2" class="edge"><title>Node1&#45;&gt;Node2</title>
<path fill="none" stroke="midnightblue" d="M382.814,-295.342C365.908,-285.234 344.377,-272.359 329.519,-263.475"/>
<polygon fill="midnightblue" stroke="midnightblue" points="381.279,-298.503 391.658,-300.631 384.872,-292.495 381.279,-298.503"/>
</g>
<!-- Node3 -->
<g id="node5" class="node"><title>Node3</title>
<a xlink:href="audio_8h.html" target="_top" xlink:title="include/fa/audio.h">
<polygon fill="none" stroke="black" points="167.592,-180.695 167.592,-203.305 278.408,-203.305 278.408,-180.695 167.592,-180.695"/>
<text text-anchor="middle" x="223" y="-188.305" font-family="Futura" font-size="11.00">include/fa/audio.h</text>
</a>
</g>
<!-- Node1&#45;&gt;Node3 -->
<g id="edge42" class="edge"><title>Node1&#45;&gt;Node3</title>
<path fill="none" stroke="midnightblue" d="M347.776,-306.858C314.152,-301.548 273.935,-289.785 247,-264 229.988,-247.714 225.035,-218.965 223.592,-203.518"/>
<polygon fill="midnightblue" stroke="midnightblue" points="347.584,-310.365 357.977,-308.307 348.569,-303.435 347.584,-310.365"/>
</g>
<!-- Node4 -->
<g id="node7" class="node"><title>Node4</title>
<a xlink:href="fa_2fa_8h.html" target="_top" xlink:title="include/fa/fa.h">
<polygon fill="none" stroke="red" points="333.846,-120.695 333.846,-143.305 426.154,-143.305 426.154,-120.695 333.846,-120.695"/>
<text text-anchor="middle" x="380" y="-128.305" font-family="Futura" font-size="11.00">include/fa/fa.h</text>
</a>
</g>
<!-- Node1&#45;&gt;Node4 -->
<g id="edge46" class="edge"><title>Node1&#45;&gt;Node4</title>
<path fill="none" stroke="midnightblue" d="M401.222,-290.75C391.674,-252.757 378.889,-172.036 378.309,-143.368"/>
<polygon fill="midnightblue" stroke="midnightblue" points="397.919,-291.942 403.94,-300.661 404.67,-290.091 397.919,-291.942"/>
</g>
<!-- Node5 -->
<g id="node10" class="node"><title>Node5</title>
<a xlink:href="buffer_8h.html" target="_top" xlink:title="include/fa/buffer.h">
<polygon fill="none" stroke="black" points="400.227,-60.6953 400.227,-83.3047 511.773,-83.3047 511.773,-60.6953 400.227,-60.6953"/>
<text text-anchor="middle" x="456" y="-68.3047" font-family="Futura" font-size="11.00">include/fa/buffer.h</text>
</a>
</g>
<!-- Node1&#45;&gt;Node5 -->
<g id="edge44" class="edge"><title>Node1&#45;&gt;Node5</title>
<path fill="none" stroke="midnightblue" d="M415.503,-291.078C418.067,-282.767 420.896,-272.976 423,-264 438.977,-195.854 450.777,-112.355 454.64,-83.4392"/>
<polygon fill="midnightblue" stroke="midnightblue" points="412.157,-290.051 412.471,-300.641 418.829,-292.167 412.157,-290.051"/>
</g>
<!-- Node6 -->
<g id="node12" class="node"><title>Node6</title>
<a xlink:href="message_8h.html" target="_top" xlink:title="include/fa/midi/message.h">
<polygon fill="none" stroke="black" points="464.134,-0.695312 464.134,-23.3047 615.866,-23.3047 615.866,-0.695312 464.134,-0.695312"/>
<text text-anchor="middle" x="540" y="-8.30469" font-family="Futura" font-size="11.00">include/fa/midi/message.h</text>
</a>
</g>
<!-- Node1&#45;&gt;Node6 -->
<g id="edge50" class="edge"><title>Node1&#45;&gt;Node6</title>
<path fill="none" stroke="midnightblue" d="M469.862,-299.132C555.174,-280.725 700,-242.228 700,-193 700,-193 700,-193 700,-131 700,-98.3341 703.392,-83.7838 681,-60 663.489,-41.4007 638.435,-30.1579 614.291,-23.3633"/>
<polygon fill="midnightblue" stroke="midnightblue" points="469.075,-295.721 460.021,-301.223 470.53,-302.568 469.075,-295.721"/>
</g>
<!-- Node7 -->
<g id="node15" class="node"><title>Node7</title>
<a xlink:href="signal_8h.html" target="_top" xlink:title="include/fa/signal.h">
<polygon fill="none" stroke="black" points="283.283,-0.695312 283.283,-23.3047 394.717,-23.3047 394.717,-0.695312 283.283,-0.695312"/>
<text text-anchor="middle" x="339" y="-8.30469" font-family="Futura" font-size="11.00">include/fa/signal.h</text>
</a>
</g>
<!-- Node1&#45;&gt;Node7 -->
<g id="edge54" class="edge"><title>Node1&#45;&gt;Node7</title>
<path fill="none" stroke="midnightblue" d="M348.173,-302.192C252.094,-286.549 76,-250.091 76,-193 76,-193 76,-193 76,-131 76,-40.9192 206.023,-19.1771 283.224,-14.207"/>
<polygon fill="midnightblue" stroke="midnightblue" points="347.634,-305.651 358.062,-303.775 348.741,-298.739 347.634,-305.651"/>
</g>
<!-- Node9 -->
<g id="node23" class="node"><title>Node9</title>
<a xlink:href="midi_8h.html" target="_top" xlink:title="include/fa/midi.h">
<polygon fill="none" stroke="black" points="65.4727,-0.695312 65.4727,-23.3047 168.527,-23.3047 168.527,-0.695312 65.4727,-0.695312"/>
<text text-anchor="middle" x="117" y="-8.30469" font-family="Futura" font-size="11.00">include/fa/midi.h</text>
</a>
</g>
<!-- Node1&#45;&gt;Node9 -->
<g id="edge52" class="edge"><title>Node1&#45;&gt;Node9</title>
<path fill="none" stroke="midnightblue" d="M348.043,-306.146C234.046,-295.378 0,-264.559 0,-193 0,-193 0,-193 0,-131 0,-78.2059 59.7872,-40.5927 93.8846,-23.4343"/>
<polygon fill="midnightblue" stroke="midnightblue" points="347.748,-309.633 358.027,-307.066 348.391,-302.663 347.748,-309.633"/>
</g>
<!-- Node10 -->
<g id="node26" class="node"><title>Node10</title>
<a xlink:href="map_8h.html" target="_top" xlink:title="include/fa/map.h">
<polygon fill="none" stroke="red" points="567.914,-60.6953 567.914,-83.3047 672.086,-83.3047 672.086,-60.6953 567.914,-60.6953"/>
<text text-anchor="middle" x="620" y="-68.3047" font-family="Futura" font-size="11.00">include/fa/map.h</text>
</a>
</g>
<!-- Node1&#45;&gt;Node10 -->
<g id="edge48" class="edge"><title>Node1&#45;&gt;Node10</title>
<path fill="none" stroke="midnightblue" d="M425.088,-292.854C466.894,-245.698 577.986,-120.39 610.769,-83.412"/>
<polygon fill="midnightblue" stroke="midnightblue" points="422.354,-290.662 418.339,-300.466 427.592,-295.305 422.354,-290.662"/>
</g>
<!-- Node2&#45;&gt;Node3 -->
<g id="edge4" class="edge"><title>Node2&#45;&gt;Node3</title>
<path fill="none" stroke="midnightblue" d="M287.542,-235.061C272.097,-224.996 252.58,-212.277 239.074,-203.475"/>
<polygon fill="midnightblue" stroke="midnightblue" points="285.8,-238.103 296.089,-240.631 289.622,-232.239 285.8,-238.103"/>
</g>
<!-- Node2&#45;&gt;Node4 -->
<g id="edge38" class="edge"><title>Node2&#45;&gt;Node4</title>
<path fill="none" stroke="midnightblue" d="M318.209,-231.21C330.336,-206.007 355.285,-163.363 369.811,-143.618"/>
<polygon fill="midnightblue" stroke="midnightblue" points="314.926,-229.975 313.988,-240.528 321.302,-232.864 314.926,-229.975"/>
</g>
<!-- Node2&#45;&gt;Node9 -->
<g id="edge40" class="edge"><title>Node2&#45;&gt;Node9</title>
<path fill="none" stroke="midnightblue" d="M245.766,-243.552C216.201,-237.234 182.755,-225.561 159,-204 105.702,-155.624 111.876,-56.3848 115.572,-23.7003"/>
<polygon fill="midnightblue" stroke="midnightblue" points="245.135,-246.995 255.624,-245.496 246.49,-240.127 245.135,-246.995"/>
</g>
<!-- Node3&#45;&gt;Node4 -->
<g id="edge6" class="edge"><title>Node3&#45;&gt;Node4</title>
<path fill="none" stroke="midnightblue" d="M260.559,-177.125C288.637,-166.752 326.419,-152.794 351.91,-143.377"/>
<polygon fill="midnightblue" stroke="midnightblue" points="259.236,-173.882 251.068,-180.631 261.662,-180.448 259.236,-173.882"/>
</g>
<!-- Node4&#45;&gt;Node1 -->
<g id="edge34" class="edge"><title>Node4&#45;&gt;Node1</title>
<path fill="none" stroke="midnightblue" d="M387.788,-153.288C397.338,-191.309 410.12,-272.027 410.691,-300.661"/>
<polygon fill="midnightblue" stroke="midnightblue" points="391.088,-152.087 385.069,-143.368 384.337,-153.937 391.088,-152.087"/>
</g>
<!-- Node4&#45;&gt;Node2 -->
<g id="edge8" class="edge"><title>Node4&#45;&gt;Node2</title>
<path fill="none" stroke="midnightblue" d="M373.701,-152.978C361.511,-178.267 336.555,-220.897 322.081,-240.528"/>
<polygon fill="midnightblue" stroke="midnightblue" points="377.003,-154.17 377.952,-143.618 370.63,-151.276 377.003,-154.17"/>
</g>
<!-- Node4&#45;&gt;Node5 -->
<g id="edge10" class="edge"><title>Node4&#45;&gt;Node5</title>
<path fill="none" stroke="midnightblue" d="M401.629,-114.494C414.696,-104.522 430.956,-92.1126 442.274,-83.475"/>
<polygon fill="midnightblue" stroke="midnightblue" points="399.413,-111.782 393.587,-120.631 403.66,-117.346 399.413,-111.782"/>
</g>
<!-- Node4&#45;&gt;Node7 -->
<g id="edge36" class="edge"><title>Node4&#45;&gt;Node7</title>
<path fill="none" stroke="midnightblue" d="M367.928,-111.21C356.774,-86.0067 342.332,-43.3628 338.619,-23.6179"/>
<polygon fill="midnightblue" stroke="midnightblue" points="364.889,-112.971 372.315,-120.528 371.222,-109.99 364.889,-112.971"/>
</g>
<!-- Node8 -->
<g id="node20" class="node"><title>Node8</title>
<a xlink:href="clock_8h.html" target="_top" xlink:title="include/fa/clock.h">
<polygon fill="none" stroke="black" points="141.978,-60.6953 141.978,-83.3047 250.022,-83.3047 250.022,-60.6953 141.978,-60.6953"/>
<text text-anchor="middle" x="196" y="-68.3047" font-family="Futura" font-size="11.00">include/fa/clock.h</text>
</a>
</g>
<!-- Node4&#45;&gt;Node8 -->
<g id="edge24" class="edge"><title>Node4&#45;&gt;Node8</title>
<path fill="none" stroke="midnightblue" d="M337.269,-117.53C304.237,-107.118 259.187,-92.9175 228.92,-83.3771"/>
<polygon fill="midnightblue" stroke="midnightblue" points="336.515,-120.962 347.104,-120.631 338.619,-114.286 336.515,-120.962"/>
</g>
<!-- Node4&#45;&gt;Node10 -->
<g id="edge32" class="edge"><title>Node4&#45;&gt;Node10</title>
<path fill="none" stroke="midnightblue" d="M432.699,-118.264C476.024,-107.794 536.647,-93.1437 577.06,-83.3771"/>
<polygon fill="midnightblue" stroke="midnightblue" points="431.805,-114.88 422.907,-120.631 433.45,-121.684 431.805,-114.88"/>
</g>
<!-- Node5&#45;&gt;Node6 -->
<g id="edge12" class="edge"><title>Node5&#45;&gt;Node6</title>
<path fill="none" stroke="midnightblue" d="M479.494,-54.7779C494.005,-44.7583 512.2,-32.1949 524.829,-23.475"/>
<polygon fill="midnightblue" stroke="midnightblue" points="477.258,-52.0687 471.018,-60.6308 481.235,-57.829 477.258,-52.0687"/>
</g>
<!-- Node5&#45;&gt;Node7 -->
<g id="edge16" class="edge"><title>Node5&#45;&gt;Node7</title>
<path fill="none" stroke="midnightblue" d="M426.101,-56.1782C405.472,-45.952 378.55,-32.6062 360.131,-23.475"/>
<polygon fill="midnightblue" stroke="midnightblue" points="424.569,-59.3251 435.083,-60.6308 427.678,-53.0534 424.569,-59.3251"/>
</g>
<!-- Node6&#45;&gt;Node4 -->
<g id="edge14" class="edge"><title>Node6&#45;&gt;Node4</title>
<path fill="none" stroke="midnightblue" d="M539.224,-33.6735C537.56,-49.3706 532.86,-70.49 520,-84 495.606,-109.628 456.829,-121.283 426.265,-126.583"/>
<polygon fill="midnightblue" stroke="midnightblue" points="542.737,-33.6156 539.971,-23.3882 535.755,-33.1082 542.737,-33.6156"/>
</g>
<!-- Node7&#45;&gt;Node2 -->
<g id="edge18" class="edge"><title>Node7&#45;&gt;Node2</title>
<path fill="none" stroke="midnightblue" d="M336.162,-33.2315C333.19,-54.7302 328.482,-89.7278 325,-120 319.856,-164.729 314.93,-218.193 312.934,-240.46"/>
<polygon fill="midnightblue" stroke="midnightblue" points="339.63,-33.703 337.541,-23.316 332.697,-32.7382 339.63,-33.703"/>
</g>
<!-- Node7&#45;&gt;Node3 -->
<g id="edge20" class="edge"><title>Node7&#45;&gt;Node3</title>
<path fill="none" stroke="midnightblue" d="M272.942,-19.2125C219.493,-25.7672 150.351,-38.2439 133,-60 98.8481,-102.822 171.769,-157.997 206.249,-180.623"/>
<polygon fill="midnightblue" stroke="midnightblue" points="273.542,-22.6661 283.063,-18.0181 272.721,-15.7144 273.542,-22.6661"/>
</g>
<!-- Node7&#45;&gt;Node4 -->
<g id="edge22" class="edge"><title>Node7&#45;&gt;Node4</title>
<path fill="none" stroke="midnightblue" d="M351.155,-32.9777C362.325,-58.2668 376.748,-100.897 380.408,-120.528"/>
<polygon fill="midnightblue" stroke="midnightblue" points="354.178,-31.182 346.76,-23.6179 347.842,-34.1573 354.178,-31.182"/>
</g>
<!-- Node8&#45;&gt;Node3 -->
<g id="edge26" class="edge"><title>Node8&#45;&gt;Node3</title>
<path fill="none" stroke="midnightblue" d="M200.726,-93.6561C206.531,-119.023 216.152,-161.071 220.604,-180.528"/>
<polygon fill="midnightblue" stroke="midnightblue" points="204.072,-92.5852 198.43,-83.6179 197.248,-94.1466 204.072,-92.5852"/>
</g>
<!-- Node8&#45;&gt;Node9 -->
<g id="edge28" class="edge"><title>Node8&#45;&gt;Node9</title>
<path fill="none" stroke="midnightblue" d="M173.517,-54.4937C159.935,-44.5216 143.033,-32.1126 131.268,-23.475"/>
<polygon fill="midnightblue" stroke="midnightblue" points="171.744,-57.534 181.876,-60.6308 175.887,-51.8914 171.744,-57.534"/>
</g>
<!-- Node9&#45;&gt;Node4 -->
<g id="edge30" class="edge"><title>Node9&#45;&gt;Node4</title>
<path fill="none" stroke="midnightblue" d="M165.418,-26.2561C193.328,-34.5765 228.766,-46.3116 259,-60 298.717,-77.9818 342.05,-105.53 364.524,-120.474"/>
<polygon fill="midnightblue" stroke="midnightblue" points="166.08,-22.803 155.499,-23.3479 164.11,-29.5202 166.08,-22.803"/>
</g>
</g>
</svg>
