<?xml version="1.0" encoding="UTF-8" standalone="no"?>
<!DOCTYPE svg PUBLIC "-//W3C//DTD SVG 1.1//EN"
 "http://www.w3.org/Graphics/SVG/1.1/DTD/svg11.dtd">
<!-- Generated by graphviz version 2.28.0 (20121015.0031)
 -->
<!-- Title: include/fa/ratio.h Pages: 1 -->
<svg width="564pt" height="512pt"
 viewBox="0.00 0.00 564.00 512.00" xmlns="http://www.w3.org/2000/svg" xmlns:xlink="http://www.w3.org/1999/xlink">
<g id="graph1" class="graph" transform="scale(1 1) rotate(0) translate(4 508)">
<title>include/fa/ratio.h</title>
<!-- Node1 -->
<g id="node1" class="node"><title>Node1</title>
<polygon fill="#bfbfbf" stroke="black" points="183.364,-480.695 183.364,-503.305 288.636,-503.305 288.636,-480.695 183.364,-480.695"/>
<text text-anchor="middle" x="236" y="-488.305" font-family="Futura" font-size="11.00">include/fa/ratio.h</text>
</g>
<!-- Node2 -->
<g id="node3" class="node"><title>Node2</title>
<a xlink:href="time_8h.html" target="_top" xlink:title="include/fa/time.h">
<polygon fill="none" stroke="black" points="184.594,-420.695 184.594,-443.305 287.406,-443.305 287.406,-420.695 184.594,-420.695"/>
<text text-anchor="middle" x="236" y="-428.305" font-family="Futura" font-size="11.00">include/fa/time.h</text>
</a>
</g>
<!-- Node1&#45;&gt;Node2 -->
<g id="edge2" class="edge"><title>Node1&#45;&gt;Node2</title>
<path fill="none" stroke="midnightblue" d="M236,-470.459C236,-461.411 236,-451.16 236,-443.672"/>
<polygon fill="midnightblue" stroke="midnightblue" points="232.5,-470.631 236,-480.631 239.5,-470.631 232.5,-470.631"/>
</g>
<!-- Node3 -->
<g id="node5" class="node"><title>Node3</title>
<a xlink:href="clock_8h.html" target="_top" xlink:title="include/fa/clock.h">
<polygon fill="none" stroke="black" points="237.978,-360.695 237.978,-383.305 346.022,-383.305 346.022,-360.695 237.978,-360.695"/>
<text text-anchor="middle" x="292" y="-368.305" font-family="Futura" font-size="11.00">include/fa/clock.h</text>
</a>
</g>
<!-- Node2&#45;&gt;Node3 -->
<g id="edge4" class="edge"><title>Node2&#45;&gt;Node3</title>
<path fill="none" stroke="midnightblue" d="M253,-413.392C262.361,-403.698 273.671,-391.983 281.696,-383.672"/>
<polygon fill="midnightblue" stroke="midnightblue" points="250.44,-411.006 246.012,-420.631 255.476,-415.868 250.44,-411.006"/>
</g>
<!-- Node5 -->
<g id="node9" class="node"><title>Node5</title>
<a xlink:href="fa_2fa_8h.html" target="_top" xlink:title="include/fa/fa.h">
<polygon fill="none" stroke="red" points="168.846,-240.695 168.846,-263.305 261.154,-263.305 261.154,-240.695 168.846,-240.695"/>
<text text-anchor="middle" x="215" y="-248.305" font-family="Futura" font-size="11.00">include/fa/fa.h</text>
</a>
</g>
<!-- Node2&#45;&gt;Node5 -->
<g id="edge38" class="edge"><title>Node2&#45;&gt;Node5</title>
<path fill="none" stroke="midnightblue" d="M224.445,-410.685C222.528,-402.417 221.12,-392.762 220,-384 214.286,-339.305 209.076,-285.823 211.079,-263.545"/>
<polygon fill="midnightblue" stroke="midnightblue" points="221.157,-411.916 227.278,-420.563 227.886,-409.986 221.157,-411.916"/>
</g>
<!-- Node7 -->
<g id="node15" class="node"><title>Node7</title>
<a xlink:href="midi_8h.html" target="_top" xlink:title="include/fa/midi.h">
<polygon fill="none" stroke="black" points="280.473,-0.695312 280.473,-23.3047 383.527,-23.3047 383.527,-0.695312 280.473,-0.695312"/>
<text text-anchor="middle" x="332" y="-8.30469" font-family="Futura" font-size="11.00">include/fa/midi.h</text>
</a>
</g>
<!-- Node2&#45;&gt;Node7 -->
<g id="edge40" class="edge"><title>Node2&#45;&gt;Node7</title>
<path fill="none" stroke="midnightblue" d="M297.26,-420.654C354.763,-407.021 432,-376.829 432,-313 432,-313 432,-313 432,-131 432,-81.0532 379.211,-41.394 350.342,-23.4397"/>
<polygon fill="midnightblue" stroke="midnightblue" points="296.481,-417.242 287.497,-422.857 298.022,-424.07 296.481,-417.242"/>
</g>
<!-- Node9 -->
<g id="node20" class="node"><title>Node9</title>
<a xlink:href="signal_8h.html" target="_top" xlink:title="include/fa/signal.h">
<polygon fill="none" stroke="black" points="122.283,-120.695 122.283,-143.305 233.717,-143.305 233.717,-120.695 122.283,-120.695"/>
<text text-anchor="middle" x="178" y="-128.305" font-family="Futura" font-size="11.00">include/fa/signal.h</text>
</a>
</g>
<!-- Node2&#45;&gt;Node9 -->
<g id="edge42" class="edge"><title>Node2&#45;&gt;Node9</title>
<path fill="none" stroke="midnightblue" d="M174.451,-426.421C104.526,-417.473 0,-391.044 0,-313 0,-313 0,-313 0,-251 0,-189.082 75.7483,-157.733 128.417,-143.419"/>
<polygon fill="midnightblue" stroke="midnightblue" points="174.157,-429.91 184.5,-427.618 174.985,-422.96 174.157,-429.91"/>
</g>
<!-- Node10 -->
<g id="node32" class="node"><title>Node10</title>
<a xlink:href="util_8h.html" target="_top" xlink:title="include/fa/util.h">
<polygon fill="none" stroke="black" points="459.62,-360.695 459.62,-383.305 556.38,-383.305 556.38,-360.695 459.62,-360.695"/>
<text text-anchor="middle" x="508" y="-368.305" font-family="Futura" font-size="11.00">include/fa/util.h</text>
</a>
</g>
<!-- Node2&#45;&gt;Node10 -->
<g id="edge44" class="edge"><title>Node2&#45;&gt;Node10</title>
<path fill="none" stroke="midnightblue" d="M294.489,-418.528C343.668,-408.041 413.147,-393.226 459.335,-383.377"/>
<polygon fill="midnightblue" stroke="midnightblue" points="293.678,-415.122 284.628,-420.631 295.138,-421.968 293.678,-415.122"/>
</g>
<!-- Node4 -->
<g id="node7" class="node"><title>Node4</title>
<a xlink:href="audio_8h.html" target="_top" xlink:title="include/fa/audio.h">
<polygon fill="none" stroke="black" points="255.592,-300.695 255.592,-323.305 366.408,-323.305 366.408,-300.695 255.592,-300.695"/>
<text text-anchor="middle" x="311" y="-308.305" font-family="Futura" font-size="11.00">include/fa/audio.h</text>
</a>
</g>
<!-- Node3&#45;&gt;Node4 -->
<g id="edge6" class="edge"><title>Node3&#45;&gt;Node4</title>
<path fill="none" stroke="midnightblue" d="M298.534,-351.053C301.545,-341.863 304.997,-331.325 307.504,-323.672"/>
<polygon fill="midnightblue" stroke="midnightblue" points="295.184,-350.038 295.397,-360.631 301.836,-352.217 295.184,-350.038"/>
</g>
<!-- Node3&#45;&gt;Node7 -->
<g id="edge36" class="edge"><title>Node3&#45;&gt;Node7</title>
<path fill="none" stroke="midnightblue" d="M331.967,-356.321C347.426,-348.815 364.007,-338.208 375,-324 394.99,-298.164 394,-285.666 394,-253 394,-253 394,-253 394,-131 394,-86.7992 359.487,-42.8689 341.961,-23.4101"/>
<polygon fill="midnightblue" stroke="midnightblue" points="330.205,-353.277 322.546,-360.598 333.099,-359.65 330.205,-353.277"/>
</g>
<!-- Node4&#45;&gt;Node5 -->
<g id="edge8" class="edge"><title>Node4&#45;&gt;Node5</title>
<path fill="none" stroke="midnightblue" d="M285.084,-295.342C268.352,-285.234 247.043,-272.359 232.338,-263.475"/>
<polygon fill="midnightblue" stroke="midnightblue" points="283.468,-298.455 293.837,-300.631 287.088,-292.464 283.468,-298.455"/>
</g>
<!-- Node5&#45;&gt;Node2 -->
<g id="edge34" class="edge"><title>Node5&#45;&gt;Node2</title>
<path fill="none" stroke="midnightblue" d="M223.158,-273.284C228.386,-299.056 233,-344.892 238,-384 239.611,-396.602 241.817,-411.05 241.36,-420.563"/>
<polygon fill="midnightblue" stroke="midnightblue" points="226.565,-272.483 220.876,-263.545 219.749,-274.08 226.565,-272.483"/>
</g>
<!-- Node5&#45;&gt;Node3 -->
<g id="edge30" class="edge"><title>Node5&#45;&gt;Node3</title>
<path fill="none" stroke="midnightblue" d="M222.042,-273.348C227.636,-288.086 236.29,-308.127 247,-324 256.351,-337.86 269.93,-351.403 279.723,-360.363"/>
<polygon fill="midnightblue" stroke="midnightblue" points="225.234,-271.886 218.523,-263.688 218.657,-274.282 225.234,-271.886"/>
</g>
<!-- Node6 -->
<g id="node11" class="node"><title>Node6</title>
<a xlink:href="action_8h.html" target="_top" xlink:title="include/fa/action.h">
<polygon fill="none" stroke="black" points="214.746,-60.6953 214.746,-83.3047 327.254,-83.3047 327.254,-60.6953 214.746,-60.6953"/>
<text text-anchor="middle" x="271" y="-68.3047" font-family="Futura" font-size="11.00">include/fa/action.h</text>
</a>
</g>
<!-- Node5&#45;&gt;Node6 -->
<g id="edge10" class="edge"><title>Node5&#45;&gt;Node6</title>
<path fill="none" stroke="midnightblue" d="M216.892,-230.75C225.486,-192.757 251.248,-112.036 264.358,-83.368"/>
<polygon fill="midnightblue" stroke="midnightblue" points="213.439,-230.164 214.877,-240.661 220.299,-231.558 213.439,-230.164"/>
</g>
<!-- Node8 -->
<g id="node18" class="node"><title>Node8</title>
<a xlink:href="buffer_8h.html" target="_top" xlink:title="include/fa/buffer.h">
<polygon fill="none" stroke="red" points="66.2268,-180.695 66.2268,-203.305 177.773,-203.305 177.773,-180.695 66.2268,-180.695"/>
<text text-anchor="middle" x="122" y="-188.305" font-family="Futura" font-size="11.00">include/fa/buffer.h</text>
</a>
</g>
<!-- Node5&#45;&gt;Node8 -->
<g id="edge20" class="edge"><title>Node5&#45;&gt;Node8</title>
<path fill="none" stroke="midnightblue" d="M189.442,-235.061C173.303,-224.996 152.91,-212.277 138.796,-203.475"/>
<polygon fill="midnightblue" stroke="midnightblue" points="188.036,-238.309 198.373,-240.631 191.74,-232.369 188.036,-238.309"/>
</g>
<!-- Node5&#45;&gt;Node9 -->
<g id="edge32" class="edge"><title>Node5&#45;&gt;Node9</title>
<path fill="none" stroke="midnightblue" d="M203.599,-231.21C193.299,-206.007 180.303,-163.363 177.259,-143.618"/>
<polygon fill="midnightblue" stroke="midnightblue" points="200.459,-232.765 207.67,-240.528 206.874,-229.963 200.459,-232.765"/>
</g>
<!-- Node6&#45;&gt;Node4 -->
<g id="edge12" class="edge"><title>Node6&#45;&gt;Node4</title>
<path fill="none" stroke="midnightblue" d="M274.427,-93.3903C282.614,-142.104 303.086,-263.911 309.23,-300.466"/>
<polygon fill="midnightblue" stroke="midnightblue" points="277.859,-92.6936 272.75,-83.412 270.956,-93.8538 277.859,-92.6936"/>
</g>
<!-- Node6&#45;&gt;Node5 -->
<g id="edge14" class="edge"><title>Node6&#45;&gt;Node5</title>
<path fill="none" stroke="midnightblue" d="M269.1,-93.2881C260.494,-131.309 234.73,-212.027 221.629,-240.661"/>
<polygon fill="midnightblue" stroke="midnightblue" points="272.554,-93.865 271.118,-83.368 265.694,-92.4694 272.554,-93.865"/>
</g>
<!-- Node6&#45;&gt;Node7 -->
<g id="edge16" class="edge"><title>Node6&#45;&gt;Node7</title>
<path fill="none" stroke="midnightblue" d="M289.216,-53.6797C299.47,-43.9299 311.948,-32.0654 320.776,-23.6719"/>
<polygon fill="midnightblue" stroke="midnightblue" points="286.741,-51.2036 281.906,-60.6308 291.564,-56.2766 286.741,-51.2036"/>
</g>
<!-- Node7&#45;&gt;Node5 -->
<g id="edge18" class="edge"><title>Node7&#45;&gt;Node5</title>
<path fill="none" stroke="midnightblue" d="M274.9,-26.0138C205.243,-45.5665 92.3852,-90.2271 57,-180 38.0872,-227.982 115.424,-243.54 168.539,-248.583"/>
<polygon fill="midnightblue" stroke="midnightblue" points="276.118,-29.3098 284.849,-23.3088 274.281,-22.555 276.118,-29.3098"/>
</g>
<!-- Node8&#45;&gt;Node9 -->
<g id="edge22" class="edge"><title>Node8&#45;&gt;Node9</title>
<path fill="none" stroke="midnightblue" d="M139,-173.392C148.361,-163.698 159.671,-151.983 167.696,-143.672"/>
<polygon fill="midnightblue" stroke="midnightblue" points="136.44,-171.006 132.012,-180.631 141.476,-175.868 136.44,-171.006"/>
</g>
<!-- Node9&#45;&gt;Node4 -->
<g id="edge26" class="edge"><title>Node9&#45;&gt;Node4</title>
<path fill="none" stroke="midnightblue" d="M194.362,-151.015C202.191,-159.711 211.656,-170.332 220,-180 242.679,-206.279 250.137,-211.533 270,-240 284.335,-260.545 298.338,-286.399 305.69,-300.552"/>
<polygon fill="midnightblue" stroke="midnightblue" points="196.747,-148.435 187.446,-143.362 191.554,-153.128 196.747,-148.435"/>
</g>
<!-- Node9&#45;&gt;Node5 -->
<g id="edge28" class="edge"><title>Node9&#45;&gt;Node5</title>
<path fill="none" stroke="midnightblue" d="M189.477,-152.978C199.79,-178.267 212.769,-220.897 215.763,-240.528"/>
<polygon fill="midnightblue" stroke="midnightblue" points="192.603,-151.388 185.4,-143.618 186.185,-154.184 192.603,-151.388"/>
</g>
<!-- Node9&#45;&gt;Node6 -->
<g id="edge24" class="edge"><title>Node9&#45;&gt;Node6</title>
<path fill="none" stroke="midnightblue" d="M203.558,-115.061C219.697,-104.996 240.09,-92.2772 254.204,-83.475"/>
<polygon fill="midnightblue" stroke="midnightblue" points="201.26,-112.369 194.627,-120.631 204.964,-118.309 201.26,-112.369"/>
</g>
</g>
</svg>
