<?xml version="1.0" encoding="UTF-8" standalone="no"?>
<!DOCTYPE svg PUBLIC "-//W3C//DTD SVG 1.1//EN"
 "http://www.w3.org/Graphics/SVG/1.1/DTD/svg11.dtd">
<!-- Generated by graphviz version 2.28.0 (20121015.0031)
 -->
<!-- Title: include/fa/option.h Pages: 1 -->
<svg width="754pt" height="272pt"
 viewBox="0.00 0.00 754.00 272.00" xmlns="http://www.w3.org/2000/svg" xmlns:xlink="http://www.w3.org/1999/xlink">
<g id="graph1" class="graph" transform="scale(1 1) rotate(0) translate(4 268)">
<title>include/fa/option.h</title>
<!-- Node1 -->
<g id="node1" class="node"><title>Node1</title>
<polygon fill="#bfbfbf" stroke="black" points="633.013,-240.695 633.013,-263.305 746.987,-263.305 746.987,-240.695 633.013,-240.695"/>
<text text-anchor="middle" x="690" y="-248.305" font-family="Futura" font-size="11.00">include/fa/option.h</text>
</g>
<!-- Node2 -->
<g id="node3" class="node"><title>Node2</title>
<a xlink:href="fa_2fa_8h.html" target="_top" xlink:title="fa.h">
<polygon fill="none" stroke="red" points="356.273,-180.695 356.273,-203.305 391.727,-203.305 391.727,-180.695 356.273,-180.695"/>
<text text-anchor="middle" x="374" y="-188.305" font-family="Futura" font-size="11.00">fa.h</text>
</a>
</g>
<!-- Node1&#45;&gt;Node2 -->
<g id="edge2" class="edge"><title>Node1&#45;&gt;Node2</title>
<path fill="none" stroke="midnightblue" d="M633.506,-240.631C565.388,-228.128 453.62,-207.614 401.884,-198.118"/>
<polygon fill="midnightblue" stroke="midnightblue" points="402.261,-194.629 391.793,-196.266 400.997,-201.514 402.261,-194.629"/>
</g>
<!-- Node4 -->
<g id="node8" class="node"><title>Node4</title>
<a xlink:href="std_8h.html" target="_top" xlink:title="fa/std.h">
<polygon fill="none" stroke="red" points="479.39,-60.6953 479.39,-83.3047 534.61,-83.3047 534.61,-60.6953 479.39,-60.6953"/>
<text text-anchor="middle" x="507" y="-68.3047" font-family="Futura" font-size="11.00">fa/std.h</text>
</a>
</g>
<!-- Node1&#45;&gt;Node4 -->
<g id="edge26" class="edge"><title>Node1&#45;&gt;Node4</title>
<path fill="none" stroke="midnightblue" d="M694.492,-240.451C704.015,-216.251 723.153,-156.058 695,-120 676.733,-96.6047 594.334,-83.1316 544.887,-77.0174"/>
<polygon fill="midnightblue" stroke="midnightblue" points="545.215,-73.5318 534.871,-75.8234 544.386,-80.4826 545.215,-73.5318"/>
</g>
<!-- Node5 -->
<g id="node10" class="node"><title>Node5</title>
<a xlink:href="string_8h.html" target="_top" xlink:title="fa/string.h">
<polygon fill="none" stroke="black" points="472.87,-0.695312 472.87,-23.3047 541.13,-23.3047 541.13,-0.695312 472.87,-0.695312"/>
<text text-anchor="middle" x="507" y="-8.30469" font-family="Futura" font-size="11.00">fa/string.h</text>
</a>
</g>
<!-- Node1&#45;&gt;Node5 -->
<g id="edge28" class="edge"><title>Node1&#45;&gt;Node5</title>
<path fill="none" stroke="midnightblue" d="M699.984,-240.418C707.675,-231.489 717.698,-217.962 722,-204 728.167,-183.986 719.952,-127.147 715,-120 676.459,-64.3734 599.955,-35.827 551.245,-22.6763"/>
<polygon fill="midnightblue" stroke="midnightblue" points="551.854,-19.2187 541.296,-20.0995 550.099,-25.9951 551.854,-19.2187"/>
</g>
<!-- Node10 -->
<g id="node21" class="node"><title>Node10</title>
<a xlink:href="pair_8h.html" target="_top" xlink:title="fa/pair.h">
<polygon fill="none" stroke="red" points="625.694,-120.695 625.694,-143.305 686.306,-143.305 686.306,-120.695 625.694,-120.695"/>
<text text-anchor="middle" x="656" y="-128.305" font-family="Futura" font-size="11.00">fa/pair.h</text>
</a>
</g>
<!-- Node1&#45;&gt;Node10 -->
<g id="edge30" class="edge"><title>Node1&#45;&gt;Node10</title>
<path fill="none" stroke="midnightblue" d="M686.983,-240.528C681.351,-220.984 669.152,-178.645 661.854,-153.316"/>
<polygon fill="midnightblue" stroke="midnightblue" points="665.191,-152.258 659.059,-143.618 658.465,-154.196 665.191,-152.258"/>
</g>
<!-- Node3 -->
<g id="node5" class="node"><title>Node3</title>
<a xlink:href="atomic_8h.html" target="_top" xlink:title="fa/atomic.h">
<polygon fill="none" stroke="black" points="281.937,-120.695 281.937,-143.305 356.063,-143.305 356.063,-120.695 281.937,-120.695"/>
<text text-anchor="middle" x="319" y="-128.305" font-family="Futura" font-size="11.00">fa/atomic.h</text>
</a>
</g>
<!-- Node2&#45;&gt;Node3 -->
<g id="edge4" class="edge"><title>Node2&#45;&gt;Node3</title>
<path fill="none" stroke="midnightblue" d="M358.851,-180.631C349.739,-172.566 338.588,-161.168 330.241,-151.544"/>
<polygon fill="midnightblue" stroke="midnightblue" points="332.812,-149.161 323.75,-143.672 327.411,-153.614 332.812,-149.161"/>
</g>
<!-- Node6 -->
<g id="node13" class="node"><title>Node6</title>
<a xlink:href="queue_8h.html" target="_top" xlink:title="fa/atomic/queue.h">
<polygon fill="none" stroke="red" points="373.648,-120.695 373.648,-143.305 484.352,-143.305 484.352,-120.695 373.648,-120.695"/>
<text text-anchor="middle" x="429" y="-128.305" font-family="Futura" font-size="11.00">fa/atomic/queue.h</text>
</a>
</g>
<!-- Node2&#45;&gt;Node6 -->
<g id="edge14" class="edge"><title>Node2&#45;&gt;Node6</title>
<path fill="none" stroke="midnightblue" d="M383.833,-180.631C391.635,-172.403 402.727,-160.707 411.966,-150.963"/>
<polygon fill="midnightblue" stroke="midnightblue" points="414.539,-153.336 418.88,-143.672 409.459,-148.52 414.539,-153.336"/>
</g>
<!-- Node7 -->
<g id="node15" class="node"><title>Node7</title>
<a xlink:href="stack_8h.html" target="_top" xlink:title="fa/atomic/stack.h">
<polygon fill="none" stroke="red" points="502.42,-120.695 502.42,-143.305 607.58,-143.305 607.58,-120.695 502.42,-120.695"/>
<text text-anchor="middle" x="555" y="-128.305" font-family="Futura" font-size="11.00">fa/atomic/stack.h</text>
</a>
</g>
<!-- Node2&#45;&gt;Node7 -->
<g id="edge16" class="edge"><title>Node2&#45;&gt;Node7</title>
<path fill="none" stroke="midnightblue" d="M392.017,-185.227C420.007,-176.257 474.693,-158.734 512.97,-146.468"/>
<polygon fill="midnightblue" stroke="midnightblue" points="514.352,-149.701 522.807,-143.316 512.216,-143.035 514.352,-149.701"/>
</g>
<!-- Node8 -->
<g id="node17" class="node"><title>Node8</title>
<a xlink:href="ring__buffer_8h.html" target="_top" xlink:title="fa/atomic/ring_buffer.h">
<polygon fill="none" stroke="red" points="-0.474121,-120.695 -0.474121,-143.305 134.474,-143.305 134.474,-120.695 -0.474121,-120.695"/>
<text text-anchor="middle" x="67" y="-128.305" font-family="Futura" font-size="11.00">fa/atomic/ring_buffer.h</text>
</a>
</g>
<!-- Node2&#45;&gt;Node8 -->
<g id="edge18" class="edge"><title>Node2&#45;&gt;Node8</title>
<path fill="none" stroke="midnightblue" d="M356.167,-187.631C313.416,-179.554 203.346,-158.759 132.006,-145.281"/>
<polygon fill="midnightblue" stroke="midnightblue" points="132.25,-141.766 121.774,-143.348 130.951,-148.644 132.25,-141.766"/>
</g>
<!-- Node9 -->
<g id="node19" class="node"><title>Node9</title>
<a xlink:href="system_8h.html" target="_top" xlink:title="fa/system.h">
<polygon fill="none" stroke="red" points="152.026,-120.695 152.026,-143.305 225.974,-143.305 225.974,-120.695 152.026,-120.695"/>
<text text-anchor="middle" x="189" y="-128.305" font-family="Futura" font-size="11.00">fa/system.h</text>
</a>
</g>
<!-- Node2&#45;&gt;Node9 -->
<g id="edge20" class="edge"><title>Node2&#45;&gt;Node9</title>
<path fill="none" stroke="midnightblue" d="M356.261,-185.439C327.832,-176.526 271.259,-158.789 231.82,-146.425"/>
<polygon fill="midnightblue" stroke="midnightblue" points="232.779,-143.057 222.189,-143.405 230.684,-149.737 232.779,-143.057"/>
</g>
<!-- Node2&#45;&gt;Node10 -->
<g id="edge22" class="edge"><title>Node2&#45;&gt;Node10</title>
<path fill="none" stroke="midnightblue" d="M391.916,-187.113C431.371,-179.719 527.2,-162.693 607,-144 609.761,-143.353 612.619,-142.645 615.512,-141.91"/>
<polygon fill="midnightblue" stroke="midnightblue" points="616.584,-145.248 625.389,-139.356 614.831,-138.471 616.584,-145.248"/>
</g>
<!-- Node3&#45;&gt;Node2 -->
<g id="edge6" class="edge"><title>Node3&#45;&gt;Node2</title>
<path fill="none" stroke="midnightblue" d="M334.49,-143.672C343.652,-151.819 354.793,-163.235 363.069,-172.814"/>
<polygon fill="midnightblue" stroke="midnightblue" points="360.434,-175.12 369.483,-180.631 365.845,-170.68 360.434,-175.12"/>
</g>
<!-- Node3&#45;&gt;Node4 -->
<g id="edge8" class="edge"><title>Node3&#45;&gt;Node4</title>
<path fill="none" stroke="midnightblue" d="M352.611,-120.631C385.486,-110.488 435.452,-95.0734 469.576,-84.5456"/>
<polygon fill="midnightblue" stroke="midnightblue" points="470.663,-87.8731 479.187,-81.5805 468.6,-81.1841 470.663,-87.8731"/>
</g>
<!-- Node4&#45;&gt;Node5 -->
<g id="edge10" class="edge"><title>Node4&#45;&gt;Node5</title>
<path fill="none" stroke="midnightblue" d="M507,-60.6308C507,-53.218 507,-42.9888 507,-33.9096"/>
<polygon fill="midnightblue" stroke="midnightblue" points="510.5,-33.6718 507,-23.6719 503.5,-33.6719 510.5,-33.6718"/>
</g>
<!-- Node5&#45;&gt;Node2 -->
<g id="edge12" class="edge"><title>Node5&#45;&gt;Node2</title>
<path fill="none" stroke="midnightblue" d="M472.859,-17.1497C419.423,-25.6873 317.542,-50.6553 273,-120 252.336,-152.171 309.515,-173.982 346.083,-184.251"/>
<polygon fill="midnightblue" stroke="midnightblue" points="345.651,-187.758 356.215,-186.953 347.455,-180.994 345.651,-187.758"/>
</g>
<!-- Node10&#45;&gt;Node2 -->
<g id="edge24" class="edge"><title>Node10&#45;&gt;Node2</title>
<path fill="none" stroke="midnightblue" d="M627.548,-143.393C626.692,-143.6 625.841,-143.803 625,-144 544.975,-162.746 448.83,-179.816 401.984,-187.175"/>
<polygon fill="midnightblue" stroke="midnightblue" points="401.318,-183.736 391.965,-188.714 402.381,-190.655 401.318,-183.736"/>
</g>
</g>
</svg>
