<?xml version="1.0" encoding="UTF-8" standalone="no"?>
<!DOCTYPE svg PUBLIC "-//W3C//DTD SVG 1.1//EN"
 "http://www.w3.org/Graphics/SVG/1.1/DTD/svg11.dtd">
<!-- Generated by graphviz version 2.28.0 (20121015.0031)
 -->
<!-- Title: include/fa/audio/device.h Pages: 1 -->
<svg width="775pt" height="272pt"
 viewBox="0.00 0.00 775.00 272.00" xmlns="http://www.w3.org/2000/svg" xmlns:xlink="http://www.w3.org/1999/xlink">
<g id="graph1" class="graph" transform="scale(1 1) rotate(0) translate(4 268)">
<title>include/fa/audio/device.h</title>
<!-- Node1 -->
<g id="node1" class="node"><title>Node1</title>
<polygon fill="#bfbfbf" stroke="black" points="153.699,-240.695 153.699,-263.305 302.301,-263.305 302.301,-240.695 153.699,-240.695"/>
<text text-anchor="middle" x="228" y="-248.305" font-family="Futura" font-size="11.00">include/fa/audio/device.h</text>
</g>
<!-- Node2 -->
<g id="node3" class="node"><title>Node2</title>
<a xlink:href="audio_2stream_8h.html" target="_top" xlink:title="include/fa/audio/stream.h">
<polygon fill="none" stroke="black" points="205.296,-180.695 205.296,-203.305 354.704,-203.305 354.704,-180.695 205.296,-180.695"/>
<text text-anchor="middle" x="280" y="-188.305" font-family="Futura" font-size="11.00">include/fa/audio/stream.h</text>
</a>
</g>
<!-- Node1&#45;&gt;Node2 -->
<g id="edge2" class="edge"><title>Node1&#45;&gt;Node2</title>
<path fill="none" stroke="midnightblue" d="M244.045,-233.104C252.686,-223.466 263.054,-211.901 270.432,-203.672"/>
<polygon fill="midnightblue" stroke="midnightblue" points="241.366,-230.849 237.297,-240.631 246.578,-235.521 241.366,-230.849"/>
</g>
<!-- Node3 -->
<g id="node5" class="node"><title>Node3</title>
<a xlink:href="audio_8h.html" target="_top" xlink:title="include/fa/audio.h">
<polygon fill="none" stroke="black" points="121.592,-120.695 121.592,-143.305 232.408,-143.305 232.408,-120.695 121.592,-120.695"/>
<text text-anchor="middle" x="177" y="-128.305" font-family="Futura" font-size="11.00">include/fa/audio.h</text>
</a>
</g>
<!-- Node1&#45;&gt;Node3 -->
<g id="edge36" class="edge"><title>Node1&#45;&gt;Node3</title>
<path fill="none" stroke="midnightblue" d="M213.086,-232.243C207.086,-223.966 200.529,-213.886 196,-204 186.646,-183.583 181.173,-157.681 178.666,-143.486"/>
<polygon fill="midnightblue" stroke="midnightblue" points="210.44,-234.548 219.257,-240.423 216.028,-230.332 210.44,-234.548"/>
</g>
<!-- Node2&#45;&gt;Node3 -->
<g id="edge4" class="edge"><title>Node2&#45;&gt;Node3</title>
<path fill="none" stroke="midnightblue" d="M252.691,-175.622C234.667,-165.472 211.526,-152.442 195.602,-143.475"/>
<polygon fill="midnightblue" stroke="midnightblue" points="251.155,-178.774 261.586,-180.631 254.589,-172.674 251.155,-178.774"/>
</g>
<!-- Node4 -->
<g id="node7" class="node"><title>Node4</title>
<a xlink:href="fa_2fa_8h.html" target="_top" xlink:title="include/fa/fa.h">
<polygon fill="none" stroke="red" points="287.846,-60.6953 287.846,-83.3047 380.154,-83.3047 380.154,-60.6953 287.846,-60.6953"/>
<text text-anchor="middle" x="334" y="-68.3047" font-family="Futura" font-size="11.00">include/fa/fa.h</text>
</a>
</g>
<!-- Node3&#45;&gt;Node4 -->
<g id="edge6" class="edge"><title>Node3&#45;&gt;Node4</title>
<path fill="none" stroke="midnightblue" d="M214.559,-117.125C242.637,-106.752 280.419,-92.7941 305.91,-83.3771"/>
<polygon fill="midnightblue" stroke="midnightblue" points="213.236,-113.882 205.068,-120.631 215.662,-120.448 213.236,-113.882"/>
</g>
<!-- Node5 -->
<g id="node9" class="node"><title>Node5</title>
<a xlink:href="action_8h.html" target="_top" xlink:title="include/fa/action.h">
<polygon fill="none" stroke="red" points="-0.253906,-0.695312 -0.253906,-23.3047 112.254,-23.3047 112.254,-0.695312 -0.253906,-0.695312"/>
<text text-anchor="middle" x="56" y="-8.30469" font-family="Futura" font-size="11.00">include/fa/action.h</text>
</a>
</g>
<!-- Node4&#45;&gt;Node5 -->
<g id="edge8" class="edge"><title>Node4&#45;&gt;Node5</title>
<path fill="none" stroke="midnightblue" d="M277.9,-60.4129C225.49,-49.8696 148.429,-33.789 100.227,-23.335"/>
<polygon fill="midnightblue" stroke="midnightblue" points="277.219,-63.846 287.712,-62.3794 278.595,-56.9825 277.219,-63.846"/>
</g>
<!-- Node6 -->
<g id="node14" class="node"><title>Node6</title>
<a xlink:href="atomic_8h.html" target="_top" xlink:title="include/fa/atomic.h">
<polygon fill="none" stroke="black" points="130.374,-0.695312 130.374,-23.3047 245.626,-23.3047 245.626,-0.695312 130.374,-0.695312"/>
<text text-anchor="middle" x="188" y="-8.30469" font-family="Futura" font-size="11.00">include/fa/atomic.h</text>
</a>
</g>
<!-- Node4&#45;&gt;Node6 -->
<g id="edge16" class="edge"><title>Node4&#45;&gt;Node6</title>
<path fill="none" stroke="midnightblue" d="M292.886,-57.0003C265.572,-46.6765 230.954,-32.853 209.033,-23.475"/>
<polygon fill="midnightblue" stroke="midnightblue" points="291.99,-60.4019 302.582,-60.6308 294.445,-53.8464 291.99,-60.4019"/>
</g>
<!-- Node7 -->
<g id="node17" class="node"><title>Node7</title>
<a xlink:href="buffer_8h.html" target="_top" xlink:title="include/fa/buffer.h">
<polygon fill="none" stroke="red" points="263.227,-0.695312 263.227,-23.3047 374.773,-23.3047 374.773,-0.695312 263.227,-0.695312"/>
<text text-anchor="middle" x="319" y="-8.30469" font-family="Futura" font-size="11.00">include/fa/buffer.h</text>
</a>
</g>
<!-- Node4&#45;&gt;Node7 -->
<g id="edge20" class="edge"><title>Node4&#45;&gt;Node7</title>
<path fill="none" stroke="midnightblue" d="M328.765,-50.7564C326.406,-41.6369 323.718,-31.2425 321.76,-23.6719"/>
<polygon fill="midnightblue" stroke="midnightblue" points="325.426,-51.8257 331.318,-60.6308 332.203,-50.0729 325.426,-51.8257"/>
</g>
<!-- Node8 -->
<g id="node19" class="node"><title>Node8</title>
<a xlink:href="clock_8h.html" target="_top" xlink:title="include/fa/clock.h">
<polygon fill="none" stroke="red" points="658.978,-0.695312 658.978,-23.3047 767.022,-23.3047 767.022,-0.695312 658.978,-0.695312"/>
<text text-anchor="middle" x="713" y="-8.30469" font-family="Futura" font-size="11.00">include/fa/clock.h</text>
</a>
</g>
<!-- Node4&#45;&gt;Node8 -->
<g id="edge22" class="edge"><title>Node4&#45;&gt;Node8</title>
<path fill="none" stroke="midnightblue" d="M390.539,-63.0291C453.817,-54.0061 559.363,-38.6507 650,-24 652.85,-23.5394 655.771,-23.0588 658.718,-22.5672"/>
<polygon fill="midnightblue" stroke="midnightblue" points="389.781,-59.6016 380.374,-64.4759 390.767,-66.5318 389.781,-59.6016"/>
</g>
<!-- Node9 -->
<g id="node23" class="node"><title>Node9</title>
<a xlink:href="dynamic_8h.html" target="_top" xlink:title="include/fa/dynamic.h">
<polygon fill="none" stroke="black" points="392.918,-0.695312 392.918,-23.3047 517.082,-23.3047 517.082,-0.695312 392.918,-0.695312"/>
<text text-anchor="middle" x="455" y="-8.30469" font-family="Futura" font-size="11.00">include/fa/dynamic.h</text>
</a>
</g>
<!-- Node4&#45;&gt;Node9 -->
<g id="edge28" class="edge"><title>Node4&#45;&gt;Node9</title>
<path fill="none" stroke="midnightblue" d="M364.921,-56.1782C386.255,-45.952 414.097,-32.6062 433.147,-23.475"/>
<polygon fill="midnightblue" stroke="midnightblue" points="363.137,-53.1521 355.632,-60.6308 366.163,-59.4644 363.137,-53.1521"/>
</g>
<!-- Node10 -->
<g id="node25" class="node"><title>Node10</title>
<a xlink:href="error_8h.html" target="_top" xlink:title="include/fa/error.h">
<polygon fill="none" stroke="red" points="534.598,-0.695312 534.598,-23.3047 641.402,-23.3047 641.402,-0.695312 534.598,-0.695312"/>
<text text-anchor="middle" x="588" y="-8.30469" font-family="Futura" font-size="11.00">include/fa/error.h</text>
</a>
</g>
<!-- Node4&#45;&gt;Node10 -->
<g id="edge30" class="edge"><title>Node4&#45;&gt;Node10</title>
<path fill="none" stroke="midnightblue" d="M384.073,-58.2644C428.408,-47.7942 492.695,-33.1437 537.238,-23.3771"/>
<polygon fill="midnightblue" stroke="midnightblue" points="383.017,-54.9177 374.094,-60.6308 384.632,-61.7288 383.017,-54.9177"/>
</g>
<!-- Node5&#45;&gt;Node1 -->
<g id="edge10" class="edge"><title>Node5&#45;&gt;Node1</title>
<path fill="none" stroke="midnightblue" d="M61.9915,-33.4496C70.5155,-60.4176 87.9389,-108.591 113,-144 142.303,-185.403 189.733,-223.127 213.48,-240.661"/>
<polygon fill="midnightblue" stroke="midnightblue" points="65.2504,-32.1381 58.9783,-23.5993 58.5566,-34.1858 65.2504,-32.1381"/>
</g>
<!-- Node5&#45;&gt;Node2 -->
<g id="edge12" class="edge"><title>Node5&#45;&gt;Node2</title>
<path fill="none" stroke="midnightblue" d="M93.0137,-27.2457C133.427,-44.2956 198.096,-76.1388 241,-120 258.603,-137.996 270.657,-165.538 276.315,-180.478"/>
<polygon fill="midnightblue" stroke="midnightblue" points="94.1165,-23.9144 83.5377,-23.3316 91.444,-30.3842 94.1165,-23.9144"/>
</g>
<!-- Node5&#45;&gt;Node4 -->
<g id="edge14" class="edge"><title>Node5&#45;&gt;Node4</title>
<path fill="none" stroke="midnightblue" d="M121.158,-25.4147C173.018,-35.9075 244.115,-50.764 289.615,-60.6308"/>
<polygon fill="midnightblue" stroke="midnightblue" points="121.55,-21.9234 111.056,-23.3771 120.166,-28.7852 121.55,-21.9234"/>
</g>
<!-- Node6&#45;&gt;Node4 -->
<g id="edge18" class="edge"><title>Node6&#45;&gt;Node4</title>
<path fill="none" stroke="midnightblue" d="M228.808,-26.884C256.272,-37.2588 291.225,-51.2162 313.214,-60.6308"/>
<polygon fill="midnightblue" stroke="midnightblue" points="230.031,-23.605 219.439,-23.3771 227.577,-30.1607 230.031,-23.605"/>
</g>
<!-- Node8&#45;&gt;Node1 -->
<g id="edge24" class="edge"><title>Node8&#45;&gt;Node1</title>
<path fill="none" stroke="midnightblue" d="M687.76,-28.7148C631.19,-63.4968 489.298,-148.311 363,-204 329.733,-218.668 290.33,-231.94 262.709,-240.61"/>
<polygon fill="midnightblue" stroke="midnightblue" points="689.725,-31.6149 696.397,-23.3847 686.048,-25.658 689.725,-31.6149"/>
</g>
<!-- Node8&#45;&gt;Node2 -->
<g id="edge26" class="edge"><title>Node8&#45;&gt;Node2</title>
<path fill="none" stroke="midnightblue" d="M678.635,-27.3915C620.651,-51.6418 499.658,-102.104 397,-144 365.788,-156.738 329.789,-171.159 306.056,-180.628"/>
<polygon fill="midnightblue" stroke="midnightblue" points="680.176,-30.541 688.05,-23.4527 677.474,-24.0833 680.176,-30.541"/>
</g>
<!-- Node10&#45;&gt;Node2 -->
<g id="edge32" class="edge"><title>Node10&#45;&gt;Node2</title>
<path fill="none" stroke="midnightblue" d="M561.324,-28.4167C499.877,-63.9285 349.669,-150.737 297.891,-180.661"/>
<polygon fill="midnightblue" stroke="midnightblue" points="563.153,-31.4021 570.06,-23.368 559.651,-25.3414 563.153,-31.4021"/>
</g>
<!-- Node10&#45;&gt;Node4 -->
<g id="edge34" class="edge"><title>Node10&#45;&gt;Node4</title>
<path fill="none" stroke="midnightblue" d="M538.26,-25.6571C492.387,-36.4933 424.95,-51.8495 380.22,-61.6168"/>
<polygon fill="midnightblue" stroke="midnightblue" points="539.07,-29.0622 547.992,-23.3487 537.454,-22.2511 539.07,-29.0622"/>
</g>
</g>
</svg>
