<?xml version="1.0" encoding="UTF-8" standalone="no"?>
<!DOCTYPE svg PUBLIC "-//W3C//DTD SVG 1.1//EN"
 "http://www.w3.org/Graphics/SVG/1.1/DTD/svg11.dtd">
<!-- Generated by graphviz version 2.28.0 (20121015.0031)
 -->
<!-- Title: include/fa/buffer.h Pages: 1 -->
<svg width="1069pt" height="212pt"
 viewBox="0.00 0.00 1069.38 212.00" xmlns="http://www.w3.org/2000/svg" xmlns:xlink="http://www.w3.org/1999/xlink">
<g id="graph1" class="graph" transform="scale(1 1) rotate(0) translate(4 208)">
<title>include/fa/buffer.h</title>
<!-- Node1 -->
<g id="node1" class="node"><title>Node1</title>
<polygon fill="#bfbfbf" stroke="black" points="427.227,-180.695 427.227,-203.305 538.773,-203.305 538.773,-180.695 427.227,-180.695"/>
<text text-anchor="middle" x="483" y="-188.305" font-family="Futura" font-size="11.00">include/fa/buffer.h</text>
</g>
<!-- Node2 -->
<g id="node3" class="node"><title>Node2</title>
<a xlink:href="io_8h.html" target="_top" xlink:title="include/fa/io.h">
<polygon fill="none" stroke="black" points="-0.815186,-0.695312 -0.815186,-23.3047 90.8152,-23.3047 90.8152,-0.695312 -0.815186,-0.695312"/>
<text text-anchor="middle" x="45" y="-8.30469" font-family="Futura" font-size="11.00">include/fa/io.h</text>
</a>
</g>
<!-- Node1&#45;&gt;Node2 -->
<g id="edge2" class="edge"><title>Node1&#45;&gt;Node2</title>
<path fill="none" stroke="midnightblue" d="M416.74,-189.093C295.078,-184.904 46.0872,-172.869 20,-144 -11.357,-109.299 22.3368,-47.7972 37.9465,-23.3953"/>
<polygon fill="midnightblue" stroke="midnightblue" points="416.932,-192.601 427.044,-189.44 417.168,-185.605 416.932,-192.601"/>
</g>
<!-- Node3 -->
<g id="node5" class="node"><title>Node3</title>
<a xlink:href="message_8h.html" target="_top" xlink:title="include/fa/midi/message.h">
<polygon fill="none" stroke="black" points="29.1335,-120.695 29.1335,-143.305 180.866,-143.305 180.866,-120.695 29.1335,-120.695"/>
<text text-anchor="middle" x="105" y="-128.305" font-family="Futura" font-size="11.00">include/fa/midi/message.h</text>
</a>
</g>
<!-- Node1&#45;&gt;Node3 -->
<g id="edge4" class="edge"><title>Node1&#45;&gt;Node3</title>
<path fill="none" stroke="midnightblue" d="M416.959,-180.867C348.268,-170.327 241.291,-153.912 172.181,-143.308"/>
<polygon fill="midnightblue" stroke="midnightblue" points="416.81,-184.385 427.225,-182.442 417.871,-177.466 416.81,-184.385"/>
</g>
<!-- Node5 -->
<g id="node11" class="node"><title>Node5</title>
<a xlink:href="signal_8h.html" target="_top" xlink:title="include/fa/signal.h">
<polygon fill="none" stroke="red" points="131.283,-0.695312 131.283,-23.3047 242.717,-23.3047 242.717,-0.695312 131.283,-0.695312"/>
<text text-anchor="middle" x="187" y="-8.30469" font-family="Futura" font-size="11.00">include/fa/signal.h</text>
</a>
</g>
<!-- Node1&#45;&gt;Node5 -->
<g id="edge26" class="edge"><title>Node1&#45;&gt;Node5</title>
<path fill="none" stroke="midnightblue" d="M549.204,-190.496C692.699,-188.714 1022.25,-180.635 1056,-144 1063.23,-136.155 1063.07,-127.99 1056,-120 1001.9,-58.8337 426.393,-24.9646 242.885,-15.6613"/>
<polygon fill="midnightblue" stroke="midnightblue" points="548.747,-187.001 538.788,-190.618 548.829,-194.001 548.747,-187.001"/>
</g>
<!-- Node6 -->
<g id="node14" class="node"><title>Node6</title>
<a xlink:href="analysis_8h.html" target="_top" xlink:title="include/fa/signal/analysis.h">
<polygon fill="none" stroke="black" points="236.582,-120.695 236.582,-143.305 393.418,-143.305 393.418,-120.695 236.582,-120.695"/>
<text text-anchor="middle" x="315" y="-128.305" font-family="Futura" font-size="11.00">include/fa/signal/analysis.h</text>
</a>
</g>
<!-- Node1&#45;&gt;Node6 -->
<g id="edge16" class="edge"><title>Node1&#45;&gt;Node6</title>
<path fill="none" stroke="midnightblue" d="M443.202,-177.26C413.117,-166.874 372.454,-152.835 345.058,-143.377"/>
<polygon fill="midnightblue" stroke="midnightblue" points="442.37,-180.676 452.965,-180.631 444.655,-174.059 442.37,-180.676"/>
</g>
<!-- Node7 -->
<g id="node16" class="node"><title>Node7</title>
<a xlink:href="basic_8h.html" target="_top" xlink:title="include/fa/signal/basic.h">
<polygon fill="none" stroke="black" points="411.616,-120.695 411.616,-143.305 554.384,-143.305 554.384,-120.695 411.616,-120.695"/>
<text text-anchor="middle" x="483" y="-128.305" font-family="Futura" font-size="11.00">include/fa/signal/basic.h</text>
</a>
</g>
<!-- Node1&#45;&gt;Node7 -->
<g id="edge18" class="edge"><title>Node1&#45;&gt;Node7</title>
<path fill="none" stroke="midnightblue" d="M483,-170.459C483,-161.411 483,-151.16 483,-143.672"/>
<polygon fill="midnightblue" stroke="midnightblue" points="479.5,-170.631 483,-180.631 486.5,-170.631 479.5,-170.631"/>
</g>
<!-- Node8 -->
<g id="node18" class="node"><title>Node8</title>
<a xlink:href="external_8h.html" target="_top" xlink:title="include/fa/signal/external.h">
<polygon fill="none" stroke="black" points="572.008,-120.695 572.008,-143.305 729.992,-143.305 729.992,-120.695 572.008,-120.695"/>
<text text-anchor="middle" x="651" y="-128.305" font-family="Futura" font-size="11.00">include/fa/signal/external.h</text>
</a>
</g>
<!-- Node1&#45;&gt;Node8 -->
<g id="edge20" class="edge"><title>Node1&#45;&gt;Node8</title>
<path fill="none" stroke="midnightblue" d="M522.798,-177.26C552.883,-166.874 593.546,-152.835 620.942,-143.377"/>
<polygon fill="midnightblue" stroke="midnightblue" points="521.345,-174.059 513.035,-180.631 523.63,-180.676 521.345,-174.059"/>
</g>
<!-- Node9 -->
<g id="node20" class="node"><title>Node9</title>
<a xlink:href="filter_8h.html" target="_top" xlink:title="include/fa/signal/filter.h">
<polygon fill="none" stroke="black" points="747.786,-120.695 747.786,-143.305 886.214,-143.305 886.214,-120.695 747.786,-120.695"/>
<text text-anchor="middle" x="817" y="-128.305" font-family="Futura" font-size="11.00">include/fa/signal/filter.h</text>
</a>
</g>
<!-- Node1&#45;&gt;Node9 -->
<g id="edge22" class="edge"><title>Node1&#45;&gt;Node9</title>
<path fill="none" stroke="midnightblue" d="M548.769,-179.579C609.494,-169.034 698.898,-153.509 757.531,-143.327"/>
<polygon fill="midnightblue" stroke="midnightblue" points="548.158,-176.133 538.904,-181.292 549.355,-183.029 548.158,-176.133"/>
</g>
<!-- Node10 -->
<g id="node22" class="node"><title>Node10</title>
<a xlink:href="synth_8h.html" target="_top" xlink:title="include/fa/signal/synth.h">
<polygon fill="none" stroke="black" points="904.567,-120.695 904.567,-143.305 1047.43,-143.305 1047.43,-120.695 904.567,-120.695"/>
<text text-anchor="middle" x="976" y="-128.305" font-family="Futura" font-size="11.00">include/fa/signal/synth.h</text>
</a>
</g>
<!-- Node1&#45;&gt;Node10 -->
<g id="edge24" class="edge"><title>Node1&#45;&gt;Node10</title>
<path fill="none" stroke="midnightblue" d="M549.129,-183.897C630.556,-175.049 773.059,-159.234 895,-144 898.098,-143.613 901.262,-143.211 904.457,-142.8"/>
<polygon fill="midnightblue" stroke="midnightblue" points="548.587,-180.435 539.023,-184.993 549.342,-187.394 548.587,-180.435"/>
</g>
<!-- Node4 -->
<g id="node7" class="node"><title>Node4</title>
<a xlink:href="fa_2fa_8h.html" target="_top" xlink:title="include/fa/fa.h">
<polygon fill="none" stroke="red" points="140.846,-60.6953 140.846,-83.3047 233.154,-83.3047 233.154,-60.6953 140.846,-60.6953"/>
<text text-anchor="middle" x="187" y="-68.3047" font-family="Futura" font-size="11.00">include/fa/fa.h</text>
</a>
</g>
<!-- Node3&#45;&gt;Node4 -->
<g id="edge6" class="edge"><title>Node3&#45;&gt;Node4</title>
<path fill="none" stroke="midnightblue" d="M127.935,-114.778C142.1,-104.758 159.862,-92.1949 172.19,-83.475"/>
<polygon fill="midnightblue" stroke="midnightblue" points="125.803,-111.999 119.66,-120.631 129.845,-117.714 125.803,-111.999"/>
</g>
<!-- Node4&#45;&gt;Node1 -->
<g id="edge8" class="edge"><title>Node4&#45;&gt;Node1</title>
<path fill="none" stroke="midnightblue" d="M193.281,-93.0663C199.462,-109.392 210.544,-131.677 228,-144 259.352,-166.132 362.054,-179.632 427.159,-186.18"/>
<polygon fill="midnightblue" stroke="midnightblue" points="196.498,-91.66 189.909,-83.3628 189.885,-93.9576 196.498,-91.66"/>
</g>
<!-- Node4&#45;&gt;Node2 -->
<g id="edge10" class="edge"><title>Node4&#45;&gt;Node2</title>
<path fill="none" stroke="midnightblue" d="M152.058,-56.7278C126.856,-46.4343 93.4043,-32.7708 70.6457,-23.475"/>
<polygon fill="midnightblue" stroke="midnightblue" points="151.032,-60.0896 161.613,-60.6308 153.679,-53.6093 151.032,-60.0896"/>
</g>
<!-- Node4&#45;&gt;Node5 -->
<g id="edge12" class="edge"><title>Node4&#45;&gt;Node5</title>
<path fill="none" stroke="midnightblue" d="M180.512,-50.4586C179.936,-41.4112 180.309,-31.1602 181.63,-23.6719"/>
<polygon fill="midnightblue" stroke="midnightblue" points="177.062,-51.0972 181.684,-60.6308 184.016,-50.2958 177.062,-51.0972"/>
</g>
<!-- Node5&#45;&gt;Node4 -->
<g id="edge14" class="edge"><title>Node5&#45;&gt;Node4</title>
<path fill="none" stroke="midnightblue" d="M193.492,-33.6107C194.069,-42.7636 193.677,-53.1365 192.316,-60.6308"/>
<polygon fill="midnightblue" stroke="midnightblue" points="196.97,-33.2159 192.37,-23.6719 190.014,-34.0015 196.97,-33.2159"/>
</g>
</g>
</svg>
