<?xml version="1.0" encoding="UTF-8" standalone="no"?>
<!DOCTYPE svg PUBLIC "-//W3C//DTD SVG 1.1//EN"
 "http://www.w3.org/Graphics/SVG/1.1/DTD/svg11.dtd">
<!-- Generated by graphviz version 2.28.0 (20121015.0031)
 -->
<!-- Title: include/fa/error.h Pages: 1 -->
<svg width="505pt" height="452pt"
 viewBox="0.00 0.00 505.00 452.00" xmlns="http://www.w3.org/2000/svg" xmlns:xlink="http://www.w3.org/1999/xlink">
<g id="graph1" class="graph" transform="scale(1 1) rotate(0) translate(4 448)">
<title>include/fa/error.h</title>
<!-- Node1 -->
<g id="node1" class="node"><title>Node1</title>
<polygon fill="#bfbfbf" stroke="black" points="164.598,-420.695 164.598,-443.305 271.402,-443.305 271.402,-420.695 164.598,-420.695"/>
<text text-anchor="middle" x="218" y="-428.305" font-family="Futura" font-size="11.00">include/fa/error.h</text>
</g>
<!-- Node2 -->
<g id="node3" class="node"><title>Node2</title>
<a xlink:href="audio_2session_8h.html" target="_top" xlink:title="include/fa/audio/session.h">
<polygon fill="none" stroke="black" points="142.313,-360.695 142.313,-383.305 293.687,-383.305 293.687,-360.695 142.313,-360.695"/>
<text text-anchor="middle" x="218" y="-368.305" font-family="Futura" font-size="11.00">include/fa/audio/session.h</text>
</a>
</g>
<!-- Node1&#45;&gt;Node2 -->
<g id="edge2" class="edge"><title>Node1&#45;&gt;Node2</title>
<path fill="none" stroke="midnightblue" d="M218,-410.459C218,-401.411 218,-391.16 218,-383.672"/>
<polygon fill="midnightblue" stroke="midnightblue" points="214.5,-410.631 218,-420.631 221.5,-410.631 214.5,-410.631"/>
</g>
<!-- Node4 -->
<g id="node7" class="node"><title>Node4</title>
<a xlink:href="audio_2stream_8h.html" target="_top" xlink:title="include/fa/audio/stream.h">
<polygon fill="none" stroke="black" points="66.2964,-240.695 66.2964,-263.305 215.704,-263.305 215.704,-240.695 66.2964,-240.695"/>
<text text-anchor="middle" x="141" y="-248.305" font-family="Futura" font-size="11.00">include/fa/audio/stream.h</text>
</a>
</g>
<!-- Node1&#45;&gt;Node4 -->
<g id="edge38" class="edge"><title>Node1&#45;&gt;Node4</title>
<path fill="none" stroke="midnightblue" d="M172.152,-416.492C156.964,-409.257 141.725,-398.795 133,-384 109.85,-344.747 127.755,-286.871 136.696,-263.428"/>
<polygon fill="midnightblue" stroke="midnightblue" points="170.977,-419.799 181.543,-420.59 173.777,-413.383 170.977,-419.799"/>
</g>
<!-- Node6 -->
<g id="node11" class="node"><title>Node6</title>
<a xlink:href="fa_2fa_8h.html" target="_top" xlink:title="include/fa/fa.h">
<polygon fill="none" stroke="red" points="264.846,-120.695 264.846,-143.305 357.154,-143.305 357.154,-120.695 264.846,-120.695"/>
<text text-anchor="middle" x="311" y="-128.305" font-family="Futura" font-size="11.00">include/fa/fa.h</text>
</a>
</g>
<!-- Node1&#45;&gt;Node6 -->
<g id="edge40" class="edge"><title>Node1&#45;&gt;Node6</title>
<path fill="none" stroke="midnightblue" d="M259.123,-417.135C302.71,-400.559 365,-367.933 365,-313 365,-313 365,-313 365,-251 365,-206.644 329.931,-162.79 315.86,-143.38"/>
<polygon fill="midnightblue" stroke="midnightblue" points="257.778,-413.9 249.589,-420.623 260.183,-420.474 257.778,-413.9"/>
</g>
<!-- Node8 -->
<g id="node19" class="node"><title>Node8</title>
<a xlink:href="midi_8h.html" target="_top" xlink:title="include/fa/midi.h">
<polygon fill="none" stroke="black" points="89.4727,-0.695312 89.4727,-23.3047 192.527,-23.3047 192.527,-0.695312 89.4727,-0.695312"/>
<text text-anchor="middle" x="141" y="-8.30469" font-family="Futura" font-size="11.00">include/fa/midi.h</text>
</a>
</g>
<!-- Node1&#45;&gt;Node8 -->
<g id="edge42" class="edge"><title>Node1&#45;&gt;Node8</title>
<path fill="none" stroke="midnightblue" d="M154.303,-423.674C89.9613,-412.313 0,-383.774 0,-313 0,-313 0,-313 0,-131 0,-74.1817 68.1678,-39.3282 109.708,-23.3639"/>
<polygon fill="midnightblue" stroke="midnightblue" points="153.953,-427.164 164.392,-425.354 155.103,-420.259 153.953,-427.164"/>
</g>
<!-- Node3 -->
<g id="node5" class="node"><title>Node3</title>
<a xlink:href="audio_2device_8h.html" target="_top" xlink:title="include/fa/audio/device.h">
<polygon fill="none" stroke="black" points="143.699,-300.695 143.699,-323.305 292.301,-323.305 292.301,-300.695 143.699,-300.695"/>
<text text-anchor="middle" x="218" y="-308.305" font-family="Futura" font-size="11.00">include/fa/audio/device.h</text>
</a>
</g>
<!-- Node2&#45;&gt;Node3 -->
<g id="edge4" class="edge"><title>Node2&#45;&gt;Node3</title>
<path fill="none" stroke="midnightblue" d="M218,-350.459C218,-341.411 218,-331.16 218,-323.672"/>
<polygon fill="midnightblue" stroke="midnightblue" points="214.5,-350.631 218,-360.631 221.5,-350.631 214.5,-350.631"/>
</g>
<!-- Node5 -->
<g id="node9" class="node"><title>Node5</title>
<a xlink:href="audio_8h.html" target="_top" xlink:title="include/fa/audio.h">
<polygon fill="none" stroke="black" points="226.592,-180.695 226.592,-203.305 337.408,-203.305 337.408,-180.695 226.592,-180.695"/>
<text text-anchor="middle" x="282" y="-188.305" font-family="Futura" font-size="11.00">include/fa/audio.h</text>
</a>
</g>
<!-- Node2&#45;&gt;Node5 -->
<g id="edge36" class="edge"><title>Node2&#45;&gt;Node5</title>
<path fill="none" stroke="midnightblue" d="M262.435,-356.427C277.388,-349.158 292.436,-338.691 301,-324 324.147,-284.292 299.53,-226.672 287.653,-203.363"/>
<polygon fill="midnightblue" stroke="midnightblue" points="260.903,-353.278 253.196,-360.548 263.755,-359.671 260.903,-353.278"/>
</g>
<!-- Node3&#45;&gt;Node4 -->
<g id="edge6" class="edge"><title>Node3&#45;&gt;Node4</title>
<path fill="none" stroke="midnightblue" d="M196.086,-294.494C182.848,-284.522 166.374,-272.113 154.906,-263.475"/>
<polygon fill="midnightblue" stroke="midnightblue" points="194.141,-297.41 204.234,-300.631 198.352,-291.818 194.141,-297.41"/>
</g>
<!-- Node3&#45;&gt;Node5 -->
<g id="edge34" class="edge"><title>Node3&#45;&gt;Node5</title>
<path fill="none" stroke="midnightblue" d="M235.776,-293.397C243.437,-285.049 251.995,-274.597 258,-264 269.29,-244.076 276.4,-217.989 279.741,-203.63"/>
<polygon fill="midnightblue" stroke="midnightblue" points="233.188,-291.039 228.819,-300.691 238.254,-295.87 233.188,-291.039"/>
</g>
<!-- Node4&#45;&gt;Node5 -->
<g id="edge8" class="edge"><title>Node4&#45;&gt;Node5</title>
<path fill="none" stroke="midnightblue" d="M175.696,-236.728C200.72,-226.434 233.937,-212.771 256.535,-203.475"/>
<polygon fill="midnightblue" stroke="midnightblue" points="174.125,-233.59 166.208,-240.631 176.788,-240.063 174.125,-233.59"/>
</g>
<!-- Node5&#45;&gt;Node6 -->
<g id="edge10" class="edge"><title>Node5&#45;&gt;Node6</title>
<path fill="none" stroke="midnightblue" d="M291.678,-171.644C296.341,-162.318 301.755,-151.489 305.664,-143.672"/>
<polygon fill="midnightblue" stroke="midnightblue" points="288.526,-170.121 287.185,-180.631 294.787,-173.252 288.526,-170.121"/>
</g>
<!-- Node6&#45;&gt;Node1 -->
<g id="edge32" class="edge"><title>Node6&#45;&gt;Node1</title>
<path fill="none" stroke="midnightblue" d="M333.596,-150.309C354.938,-172.046 383,-211.322 383,-251 383,-313 383,-313 383,-313 383,-372.088 310.932,-405.366 261.937,-420.623"/>
<polygon fill="midnightblue" stroke="midnightblue" points="336.02,-147.785 326.384,-143.38 331.17,-152.832 336.02,-147.785"/>
</g>
<!-- Node7 -->
<g id="node13" class="node"><title>Node7</title>
<a xlink:href="action_8h.html" target="_top" xlink:title="include/fa/action.h">
<polygon fill="none" stroke="black" points="84.7461,-60.6953 84.7461,-83.3047 197.254,-83.3047 197.254,-60.6953 84.7461,-60.6953"/>
<text text-anchor="middle" x="141" y="-68.3047" font-family="Futura" font-size="11.00">include/fa/action.h</text>
</a>
</g>
<!-- Node6&#45;&gt;Node7 -->
<g id="edge12" class="edge"><title>Node6&#45;&gt;Node7</title>
<path fill="none" stroke="midnightblue" d="M265.717,-117.53C233.791,-107.118 192.33,-92.9175 166.098,-83.3771"/>
<polygon fill="midnightblue" stroke="midnightblue" points="264.7,-120.88 275.292,-120.631 266.856,-114.22 264.7,-120.88"/>
</g>
<!-- Node9 -->
<g id="node22" class="node"><title>Node9</title>
<a xlink:href="atomic_8h.html" target="_top" xlink:title="include/fa/atomic.h">
<polygon fill="none" stroke="black" points="253.374,-60.6953 253.374,-83.3047 368.626,-83.3047 368.626,-60.6953 253.374,-60.6953"/>
<text text-anchor="middle" x="311" y="-68.3047" font-family="Futura" font-size="11.00">include/fa/atomic.h</text>
</a>
</g>
<!-- Node6&#45;&gt;Node9 -->
<g id="edge26" class="edge"><title>Node6&#45;&gt;Node9</title>
<path fill="none" stroke="midnightblue" d="M304.512,-110.459C303.936,-101.411 304.309,-91.1602 305.63,-83.6719"/>
<polygon fill="midnightblue" stroke="midnightblue" points="301.062,-111.097 305.684,-120.631 308.016,-110.296 301.062,-111.097"/>
</g>
<!-- Node10 -->
<g id="node25" class="node"><title>Node10</title>
<a xlink:href="buffer_8h.html" target="_top" xlink:title="include/fa/buffer.h">
<polygon fill="none" stroke="red" points="386.227,-60.6953 386.227,-83.3047 497.773,-83.3047 497.773,-60.6953 386.227,-60.6953"/>
<text text-anchor="middle" x="442" y="-68.3047" font-family="Futura" font-size="11.00">include/fa/buffer.h</text>
</a>
</g>
<!-- Node6&#45;&gt;Node10 -->
<g id="edge30" class="edge"><title>Node6&#45;&gt;Node10</title>
<path fill="none" stroke="midnightblue" d="M343.854,-116.454C367.03,-106.193 397.531,-92.6885 418.341,-83.475"/>
<polygon fill="midnightblue" stroke="midnightblue" points="342.147,-113.382 334.42,-120.631 344.981,-119.783 342.147,-113.382"/>
</g>
<!-- Node7&#45;&gt;Node2 -->
<g id="edge16" class="edge"><title>Node7&#45;&gt;Node2</title>
<path fill="none" stroke="midnightblue" d="M122.405,-90.8446C89.2554,-124.917 26.1854,-201.42 57,-264 82.4262,-315.637 146.041,-346.11 185.267,-360.6"/>
<polygon fill="midnightblue" stroke="midnightblue" points="125.151,-93.0479 129.738,-83.4971 120.196,-88.1033 125.151,-93.0479"/>
</g>
<!-- Node7&#45;&gt;Node3 -->
<g id="edge14" class="edge"><title>Node7&#45;&gt;Node3</title>
<path fill="none" stroke="midnightblue" d="M154.331,-92.2801C174.153,-122.248 210.51,-182.549 224,-240 228.92,-260.954 224.38,-286.224 220.967,-300.263"/>
<polygon fill="midnightblue" stroke="midnightblue" points="157.014,-89.9986 148.526,-83.6582 151.207,-93.9081 157.014,-89.9986"/>
</g>
<!-- Node7&#45;&gt;Node4 -->
<g id="edge18" class="edge"><title>Node7&#45;&gt;Node4</title>
<path fill="none" stroke="midnightblue" d="M141,-93.78C141,-132.001 141,-212.15 141,-240.661"/>
<polygon fill="midnightblue" stroke="midnightblue" points="144.5,-93.3679 141,-83.368 137.5,-93.368 144.5,-93.3679"/>
</g>
<!-- Node7&#45;&gt;Node6 -->
<g id="edge20" class="edge"><title>Node7&#45;&gt;Node6</title>
<path fill="none" stroke="midnightblue" d="M186.309,-86.4782C218.241,-96.8924 259.7,-111.093 285.923,-120.631"/>
<polygon fill="midnightblue" stroke="midnightblue" points="187.325,-83.1281 176.733,-83.3771 185.168,-89.7877 187.325,-83.1281"/>
</g>
<!-- Node7&#45;&gt;Node8 -->
<g id="edge22" class="edge"><title>Node7&#45;&gt;Node8</title>
<path fill="none" stroke="midnightblue" d="M141,-50.4586C141,-41.4112 141,-31.1602 141,-23.6719"/>
<polygon fill="midnightblue" stroke="midnightblue" points="137.5,-50.6307 141,-60.6308 144.5,-50.6308 137.5,-50.6307"/>
</g>
<!-- Node8&#45;&gt;Node6 -->
<g id="edge24" class="edge"><title>Node8&#45;&gt;Node6</title>
<path fill="none" stroke="midnightblue" d="M164.624,-29.3976C200.13,-54.0435 266.248,-99.9372 295.914,-120.528"/>
<polygon fill="midnightblue" stroke="midnightblue" points="166.508,-26.4448 156.297,-23.6179 162.516,-32.1953 166.508,-26.4448"/>
</g>
<!-- Node9&#45;&gt;Node6 -->
<g id="edge28" class="edge"><title>Node9&#45;&gt;Node6</title>
<path fill="none" stroke="midnightblue" d="M317.492,-93.6107C318.069,-102.764 317.677,-113.137 316.316,-120.631"/>
<polygon fill="midnightblue" stroke="midnightblue" points="320.97,-93.2159 316.37,-83.6719 314.014,-94.0015 320.97,-93.2159"/>
</g>
</g>
</svg>
