<?xml version="1.0" encoding="UTF-8" standalone="no"?>
<!DOCTYPE svg PUBLIC "-//W3C//DTD SVG 1.1//EN"
 "http://www.w3.org/Graphics/SVG/1.1/DTD/svg11.dtd">
<!-- Generated by graphviz version 2.28.0 (20121015.0031)
 -->
<!-- Title: include/fa/action.h Pages: 1 -->
<svg width="682pt" height="272pt"
 viewBox="0.00 0.00 681.99 272.00" xmlns="http://www.w3.org/2000/svg" xmlns:xlink="http://www.w3.org/1999/xlink">
<g id="graph1" class="graph" transform="scale(1 1) rotate(0) translate(4 268)">
<title>include/fa/action.h</title>
<!-- Node1 -->
<g id="node1" class="node"><title>Node1</title>
<polygon fill="#bfbfbf" stroke="black" points="555.746,-240.695 555.746,-263.305 668.254,-263.305 668.254,-240.695 555.746,-240.695"/>
<text text-anchor="middle" x="612" y="-248.305" font-family="Futura" font-size="11.00">include/fa/action.h</text>
</g>
<!-- Node2 -->
<g id="node3" class="node"><title>Node2</title>
<a xlink:href="fa_2fa_8h.html" target="_top" xlink:title="fa.h">
<polygon fill="none" stroke="red" points="415.273,-180.695 415.273,-203.305 450.727,-203.305 450.727,-180.695 415.273,-180.695"/>
<text text-anchor="middle" x="433" y="-188.305" font-family="Futura" font-size="11.00">fa.h</text>
</a>
</g>
<!-- Node1&#45;&gt;Node2 -->
<g id="edge2" class="edge"><title>Node1&#45;&gt;Node2</title>
<path fill="none" stroke="midnightblue" d="M574.683,-240.631C540.626,-230.209 491.263,-214.221 460.61,-203.687"/>
<polygon fill="midnightblue" stroke="midnightblue" points="461.576,-200.318 450.982,-200.34 459.278,-206.93 461.576,-200.318"/>
</g>
<!-- Node8 -->
<g id="node16" class="node"><title>Node8</title>
<a xlink:href="pair_8h.html" target="_top" xlink:title="fa/pair.h">
<polygon fill="none" stroke="black" points="551.694,-60.6953 551.694,-83.3047 612.306,-83.3047 612.306,-60.6953 551.694,-60.6953"/>
<text text-anchor="middle" x="582" y="-68.3047" font-family="Futura" font-size="11.00">fa/pair.h</text>
</a>
</g>
<!-- Node1&#45;&gt;Node8 -->
<g id="edge36" class="edge"><title>Node1&#45;&gt;Node8</title>
<path fill="none" stroke="midnightblue" d="M619.758,-240.614C635.824,-217.737 669.507,-161.719 648,-120 641.05,-106.518 628.245,-96.0551 615.751,-88.4597"/>
<polygon fill="midnightblue" stroke="midnightblue" points="617.23,-85.2761 606.797,-83.4337 613.804,-91.3803 617.23,-85.2761"/>
</g>
<!-- Node9 -->
<g id="node19" class="node"><title>Node9</title>
<a xlink:href="list_8h.html" target="_top" xlink:title="fa/list.h">
<polygon fill="none" stroke="black" points="444.949,-0.695312 444.949,-23.3047 499.051,-23.3047 499.051,-0.695312 444.949,-0.695312"/>
<text text-anchor="middle" x="472" y="-8.30469" font-family="Futura" font-size="11.00">fa/list.h</text>
</a>
</g>
<!-- Node1&#45;&gt;Node9 -->
<g id="edge38" class="edge"><title>Node1&#45;&gt;Node9</title>
<path fill="none" stroke="midnightblue" d="M627.348,-240.576C638.45,-232.118 652.728,-219.139 660,-204 676.206,-170.262 677.836,-155.508 666,-120 655.459,-88.3772 648.198,-79.2708 621,-60 587.349,-36.1574 541.111,-24.0571 509.108,-18.1615"/>
<polygon fill="midnightblue" stroke="midnightblue" points="509.701,-14.7122 499.251,-16.4583 508.509,-21.61 509.701,-14.7122"/>
</g>
<!-- Node10 -->
<g id="node24" class="node"><title>Node10</title>
<a xlink:href="signal_8h.html" target="_top" xlink:title="signal.h">
<polygon fill="none" stroke="red" points="584.71,-120.695 584.71,-143.305 639.29,-143.305 639.29,-120.695 584.71,-120.695"/>
<text text-anchor="middle" x="612" y="-128.305" font-family="Futura" font-size="11.00">signal.h</text>
</a>
</g>
<!-- Node1&#45;&gt;Node10 -->
<g id="edge40" class="edge"><title>Node1&#45;&gt;Node10</title>
<path fill="none" stroke="midnightblue" d="M612,-240.528C612,-221.071 612,-179.023 612,-153.656"/>
<polygon fill="midnightblue" stroke="midnightblue" points="615.5,-153.618 612,-143.618 608.5,-153.618 615.5,-153.618"/>
</g>
<!-- Node2&#45;&gt;Node1 -->
<g id="edge26" class="edge"><title>Node2&#45;&gt;Node1</title>
<path fill="none" stroke="midnightblue" d="M450.774,-197.518C479.892,-205.968 537.661,-224.471 575.641,-237.33"/>
<polygon fill="midnightblue" stroke="midnightblue" points="574.72,-240.714 585.314,-240.631 576.98,-234.089 574.72,-240.714"/>
</g>
<!-- Node3 -->
<g id="node5" class="node"><title>Node3</title>
<a xlink:href="atomic_8h.html" target="_top" xlink:title="fa/atomic.h">
<polygon fill="none" stroke="red" points="122.937,-120.695 122.937,-143.305 197.063,-143.305 197.063,-120.695 122.937,-120.695"/>
<text text-anchor="middle" x="160" y="-128.305" font-family="Futura" font-size="11.00">fa/atomic.h</text>
</a>
</g>
<!-- Node2&#45;&gt;Node3 -->
<g id="edge4" class="edge"><title>Node2&#45;&gt;Node3</title>
<path fill="none" stroke="midnightblue" d="M415.064,-188.337C376.682,-181.66 285.243,-163.499 203.946,-145.534"/>
<polygon fill="midnightblue" stroke="midnightblue" points="204.607,-142.096 194.086,-143.345 203.09,-148.929 204.607,-142.096"/>
</g>
<!-- Node4 -->
<g id="node8" class="node"><title>Node4</title>
<a xlink:href="queue_8h.html" target="_top" xlink:title="fa/atomic/queue.h">
<polygon fill="none" stroke="red" points="214.648,-120.695 214.648,-143.305 325.352,-143.305 325.352,-120.695 214.648,-120.695"/>
<text text-anchor="middle" x="270" y="-128.305" font-family="Futura" font-size="11.00">fa/atomic/queue.h</text>
</a>
</g>
<!-- Node2&#45;&gt;Node4 -->
<g id="edge8" class="edge"><title>Node2&#45;&gt;Node4</title>
<path fill="none" stroke="midnightblue" d="M415.246,-184.683C389.787,-175.624 342.266,-158.714 308.518,-146.706"/>
<polygon fill="midnightblue" stroke="midnightblue" points="309.556,-143.36 298.961,-143.305 307.209,-149.955 309.556,-143.36"/>
</g>
<!-- Node5 -->
<g id="node10" class="node"><title>Node5</title>
<a xlink:href="stack_8h.html" target="_top" xlink:title="fa/atomic/stack.h">
<polygon fill="none" stroke="red" points="-0.580078,-120.695 -0.580078,-143.305 104.58,-143.305 104.58,-120.695 -0.580078,-120.695"/>
<text text-anchor="middle" x="52" y="-128.305" font-family="Futura" font-size="11.00">fa/atomic/stack.h</text>
</a>
</g>
<!-- Node2&#45;&gt;Node5 -->
<g id="edge10" class="edge"><title>Node2&#45;&gt;Node5</title>
<path fill="none" stroke="midnightblue" d="M414.984,-188.534C367.686,-182.021 235.86,-163.613 114.919,-144.114"/>
<polygon fill="midnightblue" stroke="midnightblue" points="115.178,-140.61 104.747,-142.467 114.059,-147.52 115.178,-140.61"/>
</g>
<!-- Node6 -->
<g id="node12" class="node"><title>Node6</title>
<a xlink:href="ring__buffer_8h.html" target="_top" xlink:title="fa/atomic/ring_buffer.h">
<polygon fill="none" stroke="red" points="398.526,-60.6953 398.526,-83.3047 533.474,-83.3047 533.474,-60.6953 398.526,-60.6953"/>
<text text-anchor="middle" x="466" y="-68.3047" font-family="Futura" font-size="11.00">fa/atomic/ring_buffer.h</text>
</a>
</g>
<!-- Node2&#45;&gt;Node6 -->
<g id="edge12" class="edge"><title>Node2&#45;&gt;Node6</title>
<path fill="none" stroke="midnightblue" d="M431.085,-180.593C428.914,-166.487 426.463,-140.686 433,-120 436.3,-109.557 442.844,-99.4231 449.24,-91.2551"/>
<polygon fill="midnightblue" stroke="midnightblue" points="451.976,-93.4395 455.71,-83.5245 446.608,-88.9468 451.976,-93.4395"/>
</g>
<!-- Node7 -->
<g id="node14" class="node"><title>Node7</title>
<a xlink:href="system_8h.html" target="_top" xlink:title="fa/system.h">
<polygon fill="none" stroke="red" points="493.026,-120.695 493.026,-143.305 566.974,-143.305 566.974,-120.695 493.026,-120.695"/>
<text text-anchor="middle" x="530" y="-128.305" font-family="Futura" font-size="11.00">fa/system.h</text>
</a>
</g>
<!-- Node2&#45;&gt;Node7 -->
<g id="edge14" class="edge"><title>Node2&#45;&gt;Node7</title>
<path fill="none" stroke="midnightblue" d="M450.342,-180.631C465.147,-171.778 486.67,-158.909 503.612,-148.778"/>
<polygon fill="midnightblue" stroke="midnightblue" points="505.695,-151.611 512.481,-143.475 502.102,-145.603 505.695,-151.611"/>
</g>
<!-- Node2&#45;&gt;Node8 -->
<g id="edge16" class="edge"><title>Node2&#45;&gt;Node8</title>
<path fill="none" stroke="midnightblue" d="M432.408,-180.582C437.355,-165.52 454.063,-137.547 475,-120 494.314,-103.814 520.146,-91.7246 541.718,-83.8629"/>
<polygon fill="midnightblue" stroke="midnightblue" points="542.986,-87.1278 551.291,-80.5488 540.696,-80.513 542.986,-87.1278"/>
</g>
<!-- Node2&#45;&gt;Node9 -->
<g id="edge24" class="edge"><title>Node2&#45;&gt;Node9</title>
<path fill="none" stroke="midnightblue" d="M419.23,-180.539C396.348,-157.512 357.118,-101.215 381,-60 392.312,-40.4784 415.128,-28.3684 435.222,-21.3401"/>
<polygon fill="midnightblue" stroke="midnightblue" points="436.339,-24.6576 444.805,-18.2878 434.214,-17.9877 436.339,-24.6576"/>
</g>
<!-- Node2&#45;&gt;Node10 -->
<g id="edge28" class="edge"><title>Node2&#45;&gt;Node10</title>
<path fill="none" stroke="midnightblue" d="M450.997,-183.654C479.978,-173.441 536.982,-154.902 574.882,-143.308"/>
<polygon fill="midnightblue" stroke="midnightblue" points="575.996,-146.628 584.551,-140.377 573.965,-139.929 575.996,-146.628"/>
</g>
<!-- Node3&#45;&gt;Node2 -->
<g id="edge6" class="edge"><title>Node3&#45;&gt;Node2</title>
<path fill="none" stroke="midnightblue" d="M197.241,-139.943C203.238,-141.32 209.31,-142.731 215,-144 283.295,-159.232 363.529,-175.453 405.164,-184.294"/>
<polygon fill="midnightblue" stroke="midnightblue" points="404.615,-187.756 415.126,-186.43 406.082,-180.911 404.615,-187.756"/>
</g>
<!-- Node8&#45;&gt;Node2 -->
<g id="edge18" class="edge"><title>Node8&#45;&gt;Node2</title>
<path fill="none" stroke="midnightblue" d="M558.203,-83.434C539.097,-91.2818 512.668,-103.516 493,-120 475.498,-134.669 460.951,-156.622 450.104,-172.229"/>
<polygon fill="midnightblue" stroke="midnightblue" points="447.105,-170.408 444.151,-180.582 452.805,-174.47 447.105,-170.408"/>
</g>
<!-- Node8&#45;&gt;Node9 -->
<g id="edge20" class="edge"><title>Node8&#45;&gt;Node9</title>
<path fill="none" stroke="midnightblue" d="M562.334,-60.6308C545.234,-51.6142 520.231,-38.4308 500.863,-28.2184"/>
<polygon fill="midnightblue" stroke="midnightblue" points="502.345,-25.0432 491.866,-23.475 499.08,-31.2352 502.345,-25.0432"/>
</g>
<!-- Node9&#45;&gt;Node2 -->
<g id="edge22" class="edge"><title>Node9&#45;&gt;Node2</title>
<path fill="none" stroke="midnightblue" d="M445.589,-23.3846C429.075,-30.6315 409.283,-42.2531 399,-60 377.73,-96.7073 406.522,-145.378 423.266,-171.852"/>
<polygon fill="midnightblue" stroke="midnightblue" points="420.463,-173.968 428.775,-180.539 426.375,-170.219 420.463,-173.968"/>
</g>
<!-- Node10&#45;&gt;Node2 -->
<g id="edge30" class="edge"><title>Node10&#45;&gt;Node2</title>
<path fill="none" stroke="midnightblue" d="M585.199,-143.409C551.599,-154.974 494.651,-173.359 460.652,-183.562"/>
<polygon fill="midnightblue" stroke="midnightblue" points="459.486,-180.257 450.889,-186.449 461.471,-186.969 459.486,-180.257"/>
</g>
<!-- Node10&#45;&gt;Node6 -->
<g id="edge34" class="edge"><title>Node10&#45;&gt;Node6</title>
<path fill="none" stroke="midnightblue" d="M585.898,-120.631C562.479,-111.327 527.893,-97.5877 501.878,-87.2529"/>
<polygon fill="midnightblue" stroke="midnightblue" points="502.954,-83.9143 492.368,-83.475 500.369,-90.4198 502.954,-83.9143"/>
</g>
<!-- Node10&#45;&gt;Node8 -->
<g id="edge32" class="edge"><title>Node10&#45;&gt;Node8</title>
<path fill="none" stroke="midnightblue" d="M606.637,-120.631C602.634,-112.892 597.043,-102.084 592.2,-92.7193"/>
<polygon fill="midnightblue" stroke="midnightblue" points="595.223,-90.9461 587.52,-83.6719 589.005,-94.1621 595.223,-90.9461"/>
</g>
</g>
</svg>
