<?xml version="1.0" encoding="UTF-8" standalone="no"?>
<!DOCTYPE svg PUBLIC "-//W3C//DTD SVG 1.1//EN"
 "http://www.w3.org/Graphics/SVG/1.1/DTD/svg11.dtd">
<!-- Generated by graphviz version 2.28.0 (20121015.0031)
 -->
<!-- Title: include/fa/clock.h Pages: 1 -->
<svg width="592pt" height="392pt"
 viewBox="0.00 0.00 592.10 392.00" xmlns="http://www.w3.org/2000/svg" xmlns:xlink="http://www.w3.org/1999/xlink">
<g id="graph1" class="graph" transform="scale(1 1) rotate(0) translate(4 388)">
<title>include/fa/clock.h</title>
<!-- Node1 -->
<g id="node1" class="node"><title>Node1</title>
<polygon fill="#bfbfbf" stroke="black" points="162.978,-360.695 162.978,-383.305 271.022,-383.305 271.022,-360.695 162.978,-360.695"/>
<text text-anchor="middle" x="217" y="-368.305" font-family="Futura" font-size="11.00">include/fa/clock.h</text>
</g>
<!-- Node2 -->
<g id="node3" class="node"><title>Node2</title>
<a xlink:href="audio_2device_8h.html" target="_top" xlink:title="include/fa/audio/device.h">
<polygon fill="none" stroke="black" points="39.6992,-300.695 39.6992,-323.305 188.301,-323.305 188.301,-300.695 39.6992,-300.695"/>
<text text-anchor="middle" x="114" y="-308.305" font-family="Futura" font-size="11.00">include/fa/audio/device.h</text>
</a>
</g>
<!-- Node1&#45;&gt;Node2 -->
<g id="edge2" class="edge"><title>Node1&#45;&gt;Node2</title>
<path fill="none" stroke="midnightblue" d="M189.691,-355.622C171.667,-345.472 148.526,-332.442 132.602,-323.475"/>
<polygon fill="midnightblue" stroke="midnightblue" points="188.155,-358.774 198.586,-360.631 191.589,-352.674 188.155,-358.774"/>
</g>
<!-- Node3 -->
<g id="node5" class="node"><title>Node3</title>
<a xlink:href="audio_2stream_8h.html" target="_top" xlink:title="include/fa/audio/stream.h">
<polygon fill="none" stroke="black" points="142.296,-240.695 142.296,-263.305 291.704,-263.305 291.704,-240.695 142.296,-240.695"/>
<text text-anchor="middle" x="217" y="-248.305" font-family="Futura" font-size="11.00">include/fa/audio/stream.h</text>
</a>
</g>
<!-- Node1&#45;&gt;Node3 -->
<g id="edge40" class="edge"><title>Node1&#45;&gt;Node3</title>
<path fill="none" stroke="midnightblue" d="M217,-350.192C217,-324.874 217,-283.1 217,-263.618"/>
<polygon fill="midnightblue" stroke="midnightblue" points="213.5,-350.528 217,-360.528 220.5,-350.528 213.5,-350.528"/>
</g>
<!-- Node7 -->
<g id="node14" class="node"><title>Node7</title>
<a xlink:href="audio_2session_8h.html" target="_top" xlink:title="include/fa/audio/session.h">
<polygon fill="none" stroke="black" points="0.313477,-0.695312 0.313477,-23.3047 151.687,-23.3047 151.687,-0.695312 0.313477,-0.695312"/>
<text text-anchor="middle" x="76" y="-8.30469" font-family="Futura" font-size="11.00">include/fa/audio/session.h</text>
</a>
</g>
<!-- Node1&#45;&gt;Node7 -->
<g id="edge38" class="edge"><title>Node1&#45;&gt;Node7</title>
<path fill="none" stroke="midnightblue" d="M152.532,-368.682C113.41,-364.155 64.6962,-352.573 31,-324 4.73846,-301.731 0,-287.432 0,-253 0,-253 0,-253 0,-131 0,-84.9455 41.4245,-42.5763 63.1076,-23.5533"/>
<polygon fill="midnightblue" stroke="midnightblue" points="152.468,-372.193 162.773,-369.733 153.183,-365.23 152.468,-372.193"/>
</g>
<!-- Node8 -->
<g id="node20" class="node"><title>Node8</title>
<a xlink:href="midi_8h.html" target="_top" xlink:title="include/fa/midi.h">
<polygon fill="none" stroke="black" points="230.473,-0.695312 230.473,-23.3047 333.527,-23.3047 333.527,-0.695312 230.473,-0.695312"/>
<text text-anchor="middle" x="282" y="-8.30469" font-family="Futura" font-size="11.00">include/fa/midi.h</text>
</a>
</g>
<!-- Node1&#45;&gt;Node8 -->
<g id="edge42" class="edge"><title>Node1&#45;&gt;Node8</title>
<path fill="none" stroke="midnightblue" d="M281.581,-363.621C386.65,-349.798 583,-315.592 583,-253 583,-253 583,-253 583,-131 583,-98.2164 587.408,-81.8862 563,-60 529.995,-30.4051 405.443,-19.2117 333.727,-15.1602"/>
<polygon fill="midnightblue" stroke="midnightblue" points="280.869,-360.184 271.399,-364.934 281.764,-367.126 280.869,-360.184"/>
</g>
<!-- Node2&#45;&gt;Node3 -->
<g id="edge4" class="edge"><title>Node2&#45;&gt;Node3</title>
<path fill="none" stroke="midnightblue" d="M141.309,-295.622C159.333,-285.472 182.474,-272.442 198.398,-263.475"/>
<polygon fill="midnightblue" stroke="midnightblue" points="139.411,-292.674 132.414,-300.631 142.845,-298.774 139.411,-292.674"/>
</g>
<!-- Node4 -->
<g id="node7" class="node"><title>Node4</title>
<a xlink:href="audio_8h.html" target="_top" xlink:title="include/fa/audio.h">
<polygon fill="none" stroke="black" points="103.592,-180.695 103.592,-203.305 214.408,-203.305 214.408,-180.695 103.592,-180.695"/>
<text text-anchor="middle" x="159" y="-188.305" font-family="Futura" font-size="11.00">include/fa/audio.h</text>
</a>
</g>
<!-- Node2&#45;&gt;Node4 -->
<g id="edge36" class="edge"><title>Node2&#45;&gt;Node4</title>
<path fill="none" stroke="midnightblue" d="M118.035,-290.76C121.244,-276.319 126.306,-256.597 133,-240 138.302,-226.855 146.474,-212.75 152.238,-203.46"/>
<polygon fill="midnightblue" stroke="midnightblue" points="114.591,-290.127 115.946,-300.635 121.44,-291.576 114.591,-290.127"/>
</g>
<!-- Node3&#45;&gt;Node4 -->
<g id="edge6" class="edge"><title>Node3&#45;&gt;Node4</title>
<path fill="none" stroke="midnightblue" d="M199.392,-233.392C189.698,-223.698 177.983,-211.983 169.672,-203.672"/>
<polygon fill="midnightblue" stroke="midnightblue" points="197.085,-236.035 206.631,-240.631 202.035,-231.085 197.085,-236.035"/>
</g>
<!-- Node5 -->
<g id="node9" class="node"><title>Node5</title>
<a xlink:href="fa_2fa_8h.html" target="_top" xlink:title="include/fa/fa.h">
<polygon fill="none" stroke="red" points="271.846,-120.695 271.846,-143.305 364.154,-143.305 364.154,-120.695 271.846,-120.695"/>
<text text-anchor="middle" x="318" y="-128.305" font-family="Futura" font-size="11.00">include/fa/fa.h</text>
</a>
</g>
<!-- Node4&#45;&gt;Node5 -->
<g id="edge8" class="edge"><title>Node4&#45;&gt;Node5</title>
<path fill="none" stroke="midnightblue" d="M197.038,-177.125C225.474,-166.752 263.737,-152.794 289.552,-143.377"/>
<polygon fill="midnightblue" stroke="midnightblue" points="195.621,-173.916 187.426,-180.631 198.02,-180.492 195.621,-173.916"/>
</g>
<!-- Node5&#45;&gt;Node1 -->
<g id="edge34" class="edge"><title>Node5&#45;&gt;Node1</title>
<path fill="none" stroke="midnightblue" d="M318.408,-153.677C318.216,-180.248 315.429,-227.318 300,-264 283.046,-304.308 246.913,-342.528 228.421,-360.416"/>
<polygon fill="midnightblue" stroke="midnightblue" points="321.906,-153.31 318.355,-143.328 314.906,-153.346 321.906,-153.31"/>
</g>
<!-- Node6 -->
<g id="node11" class="node"><title>Node6</title>
<a xlink:href="action_8h.html" target="_top" xlink:title="include/fa/action.h">
<polygon fill="none" stroke="black" points="141.746,-60.6953 141.746,-83.3047 254.254,-83.3047 254.254,-60.6953 141.746,-60.6953"/>
<text text-anchor="middle" x="198" y="-68.3047" font-family="Futura" font-size="11.00">include/fa/action.h</text>
</a>
</g>
<!-- Node5&#45;&gt;Node6 -->
<g id="edge10" class="edge"><title>Node5&#45;&gt;Node6</title>
<path fill="none" stroke="midnightblue" d="M281.963,-116.454C259.481,-106.193 231.743,-92.6885 214.337,-83.475"/>
<polygon fill="midnightblue" stroke="midnightblue" points="280.676,-119.713 291.231,-120.631 283.552,-113.331 280.676,-119.713"/>
</g>
<!-- Node9 -->
<g id="node23" class="node"><title>Node9</title>
<a xlink:href="atomic_8h.html" target="_top" xlink:title="include/fa/atomic.h">
<polygon fill="none" stroke="black" points="310.374,-60.6953 310.374,-83.3047 425.626,-83.3047 425.626,-60.6953 310.374,-60.6953"/>
<text text-anchor="middle" x="368" y="-68.3047" font-family="Futura" font-size="11.00">include/fa/atomic.h</text>
</a>
</g>
<!-- Node5&#45;&gt;Node9 -->
<g id="edge28" class="edge"><title>Node5&#45;&gt;Node9</title>
<path fill="none" stroke="midnightblue" d="M327.59,-112.523C335.019,-103.005 345.056,-91.7362 353.43,-83.6719"/>
<polygon fill="midnightblue" stroke="midnightblue" points="324.732,-110.502 321.623,-120.631 330.369,-114.651 324.732,-110.502"/>
</g>
<!-- Node10 -->
<g id="node26" class="node"><title>Node10</title>
<a xlink:href="buffer_8h.html" target="_top" xlink:title="include/fa/buffer.h">
<polygon fill="none" stroke="red" points="443.227,-60.6953 443.227,-83.3047 554.773,-83.3047 554.773,-60.6953 443.227,-60.6953"/>
<text text-anchor="middle" x="499" y="-68.3047" font-family="Futura" font-size="11.00">include/fa/buffer.h</text>
</a>
</g>
<!-- Node5&#45;&gt;Node10 -->
<g id="edge32" class="edge"><title>Node5&#45;&gt;Node10</title>
<path fill="none" stroke="midnightblue" d="M360.034,-117.53C392.527,-107.118 436.844,-92.9175 466.616,-83.3771"/>
<polygon fill="midnightblue" stroke="midnightblue" points="358.814,-114.246 350.359,-120.631 360.95,-120.912 358.814,-114.246"/>
</g>
<!-- Node6&#45;&gt;Node2 -->
<g id="edge12" class="edge"><title>Node6&#45;&gt;Node2</title>
<path fill="none" stroke="midnightblue" d="M173.641,-89.4312C148.496,-108.018 110.781,-140.852 95,-180 77.9881,-222.203 98.6574,-277.488 108.896,-300.373"/>
<polygon fill="midnightblue" stroke="midnightblue" points="175.871,-92.1386 181.954,-83.4639 171.789,-86.4519 175.871,-92.1386"/>
</g>
<!-- Node6&#45;&gt;Node3 -->
<g id="edge20" class="edge"><title>Node6&#45;&gt;Node3</title>
<path fill="none" stroke="midnightblue" d="M204.229,-93.3473C210.413,-114.693 219.466,-149.338 223,-180 224.221,-190.596 223.677,-193.355 223,-204 222.196,-216.642 220.188,-231.083 218.716,-240.583"/>
<polygon fill="midnightblue" stroke="midnightblue" points="207.503,-92.0786 201.301,-83.489 200.793,-94.0716 207.503,-92.0786"/>
</g>
<!-- Node6&#45;&gt;Node5 -->
<g id="edge22" class="edge"><title>Node6&#45;&gt;Node5</title>
<path fill="none" stroke="midnightblue" d="M234.296,-87.6644C256.818,-97.9501 284.536,-111.45 301.862,-120.631"/>
<polygon fill="midnightblue" stroke="midnightblue" points="235.562,-84.396 225.007,-83.475 232.684,-90.777 235.562,-84.396"/>
</g>
<!-- Node6&#45;&gt;Node7 -->
<g id="edge14" class="edge"><title>Node6&#45;&gt;Node7</title>
<path fill="none" stroke="midnightblue" d="M167.113,-56.3162C145.566,-46.0724 117.327,-32.6474 98.0337,-23.475"/>
<polygon fill="midnightblue" stroke="midnightblue" points="165.655,-59.4981 176.189,-60.6308 168.66,-53.1761 165.655,-59.4981"/>
</g>
<!-- Node6&#45;&gt;Node8 -->
<g id="edge24" class="edge"><title>Node6&#45;&gt;Node8</title>
<path fill="none" stroke="midnightblue" d="M221.494,-54.7779C236.005,-44.7583 254.2,-32.1949 266.829,-23.475"/>
<polygon fill="midnightblue" stroke="midnightblue" points="219.258,-52.0687 213.018,-60.6308 223.235,-57.829 219.258,-52.0687"/>
</g>
<!-- Node7&#45;&gt;Node2 -->
<g id="edge16" class="edge"><title>Node7&#45;&gt;Node2</title>
<path fill="none" stroke="midnightblue" d="M65.6407,-32.3771C54.3888,-55.2666 38,-94.8167 38,-131 38,-193 38,-193 38,-193 38,-239.055 79.4245,-281.424 101.108,-300.447"/>
<polygon fill="midnightblue" stroke="midnightblue" points="68.8062,-33.8737 70.2286,-23.3748 62.5694,-30.6952 68.8062,-33.8737"/>
</g>
<!-- Node7&#45;&gt;Node4 -->
<g id="edge18" class="edge"><title>Node7&#45;&gt;Node4</title>
<path fill="none" stroke="midnightblue" d="M85.233,-32.801C102.866,-70.6154 140.77,-151.904 154.179,-180.661"/>
<polygon fill="midnightblue" stroke="midnightblue" points="88.2327,-30.952 80.8345,-23.368 81.8885,-33.9102 88.2327,-30.952"/>
</g>
<!-- Node8&#45;&gt;Node5 -->
<g id="edge26" class="edge"><title>Node8&#45;&gt;Node5</title>
<path fill="none" stroke="midnightblue" d="M286.975,-33.4373C290.567,-47.6968 295.699,-67.12 301,-84 305.003,-96.7489 310.342,-111.168 313.961,-120.633"/>
<polygon fill="midnightblue" stroke="midnightblue" points="290.356,-32.5304 284.552,-23.6671 283.562,-34.2156 290.356,-32.5304"/>
</g>
<!-- Node9&#45;&gt;Node5 -->
<g id="edge30" class="edge"><title>Node9&#45;&gt;Node5</title>
<path fill="none" stroke="midnightblue" d="M358.129,-91.8366C350.635,-101.398 340.587,-112.648 332.255,-120.631"/>
<polygon fill="midnightblue" stroke="midnightblue" points="361.036,-93.7924 364.17,-83.6719 355.408,-89.6287 361.036,-93.7924"/>
</g>
</g>
</svg>
