<?xml version="1.0" encoding="UTF-8" standalone="no"?>
<!DOCTYPE svg PUBLIC "-//W3C//DTD SVG 1.1//EN"
 "http://www.w3.org/Graphics/SVG/1.1/DTD/svg11.dtd">
<!-- Generated by graphviz version 2.28.0 (20121015.0031)
 -->
<!-- Title: include/fa/audio/device.h Pages: 1 -->
<svg width="363pt" height="332pt"
 viewBox="0.00 0.00 362.50 332.00" xmlns="http://www.w3.org/2000/svg" xmlns:xlink="http://www.w3.org/1999/xlink">
<g id="graph1" class="graph" transform="scale(1 1) rotate(0) translate(4 328)">
<title>include/fa/audio/device.h</title>
<!-- Node1 -->
<g id="node1" class="node"><title>Node1</title>
<polygon fill="#bfbfbf" stroke="black" points="206.201,-300.695 206.201,-323.305 354.802,-323.305 354.802,-300.695 206.201,-300.695"/>
<text text-anchor="middle" x="280.501" y="-308.305" font-family="Futura" font-size="11.00">include/fa/audio/device.h</text>
</g>
<!-- Node2 -->
<g id="node3" class="node"><title>Node2</title>
<a xlink:href="action_8h.html" target="_top" xlink:title="fa/action.h">
<polygon fill="none" stroke="black" points="109.811,-240.695 109.811,-263.305 181.192,-263.305 181.192,-240.695 109.811,-240.695"/>
<text text-anchor="middle" x="145.501" y="-248.305" font-family="Futura" font-size="11.00">fa/action.h</text>
</a>
</g>
<!-- Node1&#45;&gt;Node2 -->
<g id="edge2" class="edge"><title>Node1&#45;&gt;Node2</title>
<path fill="none" stroke="midnightblue" d="M256.366,-300.631C234.902,-291.409 203.294,-277.829 179.314,-267.527"/>
<polygon fill="midnightblue" stroke="midnightblue" points="180.452,-264.207 169.883,-263.475 177.689,-270.638 180.452,-264.207"/>
</g>
<!-- Node6 -->
<g id="node14" class="node"><title>Node6</title>
<a xlink:href="time_8h.html" target="_top" xlink:title="fa/time.h">
<polygon fill="none" stroke="black" points="261.658,-60.6953 261.658,-83.3047 323.345,-83.3047 323.345,-60.6953 261.658,-60.6953"/>
<text text-anchor="middle" x="292.501" y="-68.3047" font-family="Futura" font-size="11.00">fa/time.h</text>
</a>
</g>
<!-- Node1&#45;&gt;Node6 -->
<g id="edge42" class="edge"><title>Node1&#45;&gt;Node6</title>
<path fill="none" stroke="midnightblue" d="M293.945,-300.692C303.944,-292.114 316.804,-278.926 322.501,-264 345.271,-204.347 317.638,-127.888 301.935,-92.5345"/>
<polygon fill="midnightblue" stroke="midnightblue" points="305.055,-90.942 297.693,-83.3225 298.697,-93.8697 305.055,-90.942"/>
</g>
<!-- Node10 -->
<g id="node32" class="node"><title>Node10</title>
<a xlink:href="clock_8h.html" target="_top" xlink:title="fa/clock.h">
<polygon fill="none" stroke="black" points="247.042,-240.695 247.042,-263.305 313.96,-263.305 313.96,-240.695 247.042,-240.695"/>
<text text-anchor="middle" x="280.501" y="-248.305" font-family="Futura" font-size="11.00">fa/clock.h</text>
</a>
</g>
<!-- Node1&#45;&gt;Node10 -->
<g id="edge44" class="edge"><title>Node1&#45;&gt;Node10</title>
<path fill="none" stroke="midnightblue" d="M280.501,-300.631C280.501,-293.218 280.501,-282.989 280.501,-273.91"/>
<polygon fill="midnightblue" stroke="midnightblue" points="284.001,-273.672 280.501,-263.672 277.001,-273.672 284.001,-273.672"/>
</g>
<!-- Node3 -->
<g id="node5" class="node"><title>Node3</title>
<a xlink:href="fa_2fa_8h.html" target="_top" xlink:title="fa.h">
<polygon fill="none" stroke="red" points="162.774,-180.695 162.774,-203.305 198.228,-203.305 198.228,-180.695 162.774,-180.695"/>
<text text-anchor="middle" x="180.501" y="-188.305" font-family="Futura" font-size="11.00">fa.h</text>
</a>
</g>
<!-- Node2&#45;&gt;Node3 -->
<g id="edge4" class="edge"><title>Node2&#45;&gt;Node3</title>
<path fill="none" stroke="midnightblue" d="M146.443,-240.631C149.81,-232.648 156.248,-221.398 162.767,-211.837"/>
<polygon fill="midnightblue" stroke="midnightblue" points="165.651,-213.821 168.691,-203.672 159.986,-209.71 165.651,-213.821"/>
</g>
<!-- Node4 -->
<g id="node7" class="node"><title>Node4</title>
<a xlink:href="pair_8h.html" target="_top" xlink:title="fa/pair.h">
<polygon fill="none" stroke="black" points="12.1952,-60.6953 12.1952,-83.3047 72.8075,-83.3047 72.8075,-60.6953 12.1952,-60.6953"/>
<text text-anchor="middle" x="42.5014" y="-68.3047" font-family="Futura" font-size="11.00">fa/pair.h</text>
</a>
</g>
<!-- Node2&#45;&gt;Node4 -->
<g id="edge36" class="edge"><title>Node2&#45;&gt;Node4</title>
<path fill="none" stroke="midnightblue" d="M132.367,-240.435C111.545,-222.86 71.3882,-185.431 52.5014,-144 45.2597,-128.114 42.9513,-108.325 42.3444,-93.6765"/>
<polygon fill="midnightblue" stroke="midnightblue" points="45.8429,-93.5604 42.1583,-83.627 38.8441,-93.6901 45.8429,-93.5604"/>
</g>
<!-- Node5 -->
<g id="node10" class="node"><title>Node5</title>
<a xlink:href="list_8h.html" target="_top" xlink:title="fa/list.h">
<polygon fill="none" stroke="black" points="71.4501,-0.695312 71.4501,-23.3047 125.553,-23.3047 125.553,-0.695312 71.4501,-0.695312"/>
<text text-anchor="middle" x="98.5014" y="-8.30469" font-family="Futura" font-size="11.00">fa/list.h</text>
</a>
</g>
<!-- Node2&#45;&gt;Node5 -->
<g id="edge38" class="edge"><title>Node2&#45;&gt;Node5</title>
<path fill="none" stroke="midnightblue" d="M123.741,-240.567C108.099,-232.274 87.2517,-219.51 72.5014,-204 30.1045,-159.42 19.3719,-143.439 3.50138,-84 0.74973,-73.6944 -2.12555,-69.0618 3.50138,-60 16.1551,-39.6222 40.5543,-27.8107 61.4566,-21.1254"/>
<polygon fill="midnightblue" stroke="midnightblue" points="62.4451,-24.4829 71.0638,-18.3211 60.4837,-17.7633 62.4451,-24.4829"/>
</g>
<!-- Node9 -->
<g id="node23" class="node"><title>Node9</title>
<a xlink:href="signal_8h.html" target="_top" xlink:title="fa/signal.h">
<polygon fill="none" stroke="red" points="79.3478,-120.695 79.3478,-143.305 149.655,-143.305 149.655,-120.695 79.3478,-120.695"/>
<text text-anchor="middle" x="114.501" y="-128.305" font-family="Futura" font-size="11.00">fa/signal.h</text>
</a>
</g>
<!-- Node2&#45;&gt;Node9 -->
<g id="edge40" class="edge"><title>Node2&#45;&gt;Node9</title>
<path fill="none" stroke="midnightblue" d="M142.75,-240.528C137.616,-220.984 126.493,-178.645 119.839,-153.316"/>
<polygon fill="midnightblue" stroke="midnightblue" points="123.217,-152.4 117.291,-143.618 116.447,-154.179 123.217,-152.4"/>
</g>
<!-- Node3&#45;&gt;Node2 -->
<g id="edge26" class="edge"><title>Node3&#45;&gt;Node2</title>
<path fill="none" stroke="midnightblue" d="M179.431,-203.672C175.987,-211.736 169.51,-223.005 162.99,-232.523"/>
<polygon fill="midnightblue" stroke="midnightblue" points="160.141,-230.489 157.075,-240.631 165.796,-234.615 160.141,-230.489"/>
</g>
<!-- Node3&#45;&gt;Node4 -->
<g id="edge6" class="edge"><title>Node3&#45;&gt;Node4</title>
<path fill="none" stroke="midnightblue" d="M162.501,-188.88C136.277,-184.477 89.0069,-172.291 61.5014,-144 48.1228,-130.239 40.9198,-109.321 38.8171,-93.7502"/>
<polygon fill="midnightblue" stroke="midnightblue" points="42.2955,-93.2953 38.1721,-83.5358 35.3094,-93.7365 42.2955,-93.2953"/>
</g>
<!-- Node3&#45;&gt;Node5 -->
<g id="edge14" class="edge"><title>Node3&#45;&gt;Node5</title>
<path fill="none" stroke="midnightblue" d="M171.95,-180.646C165.503,-166.601 158.466,-140.868 149.501,-120 135.847,-88.2169 115.367,-53.6922 104.517,-32.6988"/>
<polygon fill="midnightblue" stroke="midnightblue" points="107.578,-30.9923 100.036,-23.5512 101.292,-34.0714 107.578,-30.9923"/>
</g>
<!-- Node3&#45;&gt;Node6 -->
<g id="edge16" class="edge"><title>Node3&#45;&gt;Node6</title>
<path fill="none" stroke="midnightblue" d="M191.98,-180.561C204.673,-172.004 224.278,-158.905 238.501,-144 253.352,-128.437 266.021,-107.256 275.814,-92.0872"/>
<polygon fill="midnightblue" stroke="midnightblue" points="278.89,-93.7829 281.534,-83.5232 273.069,-89.8949 278.89,-93.7829"/>
</g>
<!-- Node3&#45;&gt;Node9 -->
<g id="edge28" class="edge"><title>Node3&#45;&gt;Node9</title>
<path fill="none" stroke="midnightblue" d="M163.386,-180.631C152.529,-172.403 138.893,-160.707 128.647,-150.963"/>
<polygon fill="midnightblue" stroke="midnightblue" points="130.846,-148.216 121.275,-143.672 125.924,-153.192 130.846,-148.216"/>
</g>
<!-- Node4&#45;&gt;Node3 -->
<g id="edge8" class="edge"><title>Node4&#45;&gt;Node3</title>
<path fill="none" stroke="midnightblue" d="M49.915,-83.5358C55.787,-98.7452 62.8756,-126.899 79.5014,-144 99.7132,-164.789 130.597,-176.882 153.041,-183.58"/>
<polygon fill="midnightblue" stroke="midnightblue" points="152.116,-186.956 162.69,-186.291 154.009,-180.217 152.116,-186.956"/>
</g>
<!-- Node4&#45;&gt;Node5 -->
<g id="edge10" class="edge"><title>Node4&#45;&gt;Node5</title>
<path fill="none" stroke="midnightblue" d="M52.5131,-60.6308C60.4567,-52.4034 71.7502,-40.7066 81.1575,-30.9633"/>
<polygon fill="midnightblue" stroke="midnightblue" points="83.7694,-33.297 88.1975,-23.6719 78.7336,-28.4348 83.7694,-33.297"/>
</g>
<!-- Node5&#45;&gt;Node3 -->
<g id="edge12" class="edge"><title>Node5&#45;&gt;Node3</title>
<path fill="none" stroke="midnightblue" d="M110.793,-23.5512C126.481,-42.3198 151.613,-83.016 167.501,-120 174.575,-136.466 180.449,-155.961 182.905,-170.353"/>
<polygon fill="midnightblue" stroke="midnightblue" points="179.47,-171.117 184.101,-180.646 186.424,-170.309 179.47,-171.117"/>
</g>
<!-- Node6&#45;&gt;Node3 -->
<g id="edge18" class="edge"><title>Node6&#45;&gt;Node3</title>
<path fill="none" stroke="midnightblue" d="M293.484,-83.5232C289.185,-98.2222 274.435,-125.207 256.501,-144 242.53,-158.642 223.364,-171.54 207.559,-180.103"/>
<polygon fill="midnightblue" stroke="midnightblue" points="205.554,-177.196 198.229,-184.851 208.729,-183.435 205.554,-177.196"/>
</g>
<!-- Node7 -->
<g id="node17" class="node"><title>Node7</title>
<a xlink:href="ratio_8h.html" target="_top" xlink:title="fa/ratio.h">
<polygon fill="none" stroke="red" points="285.428,-0.695312 285.428,-23.3047 349.575,-23.3047 349.575,-0.695312 285.428,-0.695312"/>
<text text-anchor="middle" x="317.501" y="-8.30469" font-family="Futura" font-size="11.00">fa/ratio.h</text>
</a>
</g>
<!-- Node6&#45;&gt;Node7 -->
<g id="edge20" class="edge"><title>Node6&#45;&gt;Node7</title>
<path fill="none" stroke="midnightblue" d="M296.971,-60.6308C300.271,-52.9736 304.867,-42.3113 308.874,-33.0155"/>
<polygon fill="midnightblue" stroke="midnightblue" points="312.157,-34.2405 312.901,-23.6719 305.729,-31.4697 312.157,-34.2405"/>
</g>
<!-- Node8 -->
<g id="node19" class="node"><title>Node8</title>
<a xlink:href="string_8h.html" target="_top" xlink:title="fa/string.h">
<polygon fill="none" stroke="black" points="199.371,-0.695312 199.371,-23.3047 267.632,-23.3047 267.632,-0.695312 199.371,-0.695312"/>
<text text-anchor="middle" x="233.501" y="-8.30469" font-family="Futura" font-size="11.00">fa/string.h</text>
</a>
</g>
<!-- Node6&#45;&gt;Node8 -->
<g id="edge22" class="edge"><title>Node6&#45;&gt;Node8</title>
<path fill="none" stroke="midnightblue" d="M281.953,-60.6308C273.584,-52.4034 261.686,-40.7066 251.774,-30.9633"/>
<polygon fill="midnightblue" stroke="midnightblue" points="253.942,-28.1863 244.357,-23.6719 249.035,-33.1782 253.942,-28.1863"/>
</g>
<!-- Node8&#45;&gt;Node3 -->
<g id="edge24" class="edge"><title>Node8&#45;&gt;Node3</title>
<path fill="none" stroke="midnightblue" d="M232.894,-23.5456C231.302,-46.2722 225.929,-101.268 209.501,-144 205.752,-153.753 199.939,-163.721 194.499,-171.952"/>
<polygon fill="midnightblue" stroke="midnightblue" points="191.462,-170.19 188.646,-180.404 197.216,-174.175 191.462,-170.19"/>
</g>
<!-- Node9&#45;&gt;Node3 -->
<g id="edge30" class="edge"><title>Node9&#45;&gt;Node3</title>
<path fill="none" stroke="midnightblue" d="M131.756,-143.475C142.705,-151.784 156.441,-163.582 166.678,-173.344"/>
<polygon fill="midnightblue" stroke="midnightblue" points="164.455,-176.069 174.018,-180.631 169.387,-171.101 164.455,-176.069"/>
</g>
<!-- Node9&#45;&gt;Node4 -->
<g id="edge32" class="edge"><title>Node9&#45;&gt;Node4</title>
<path fill="none" stroke="midnightblue" d="M101.629,-120.631C91.1125,-112.159 76.0294,-100.009 63.7295,-90.1004"/>
<polygon fill="midnightblue" stroke="midnightblue" points="65.7324,-87.2196 55.7492,-83.6719 61.3411,-92.6708 65.7324,-87.2196"/>
</g>
<!-- Node9&#45;&gt;Node6 -->
<g id="edge34" class="edge"><title>Node9&#45;&gt;Node6</title>
<path fill="none" stroke="midnightblue" d="M146.324,-120.631C175.867,-111.004 219.987,-96.6282 252.025,-86.189"/>
<polygon fill="midnightblue" stroke="midnightblue" points="253.127,-89.5112 261.55,-83.0852 250.958,-82.8556 253.127,-89.5112"/>
</g>
<!-- Node10&#45;&gt;Node3 -->
<g id="edge46" class="edge"><title>Node10&#45;&gt;Node3</title>
<path fill="none" stroke="midnightblue" d="M262.623,-240.631C247.219,-231.696 224.76,-218.67 207.222,-208.498"/>
<polygon fill="midnightblue" stroke="midnightblue" points="208.968,-205.465 198.562,-203.475 205.456,-211.52 208.968,-205.465"/>
</g>
<!-- Node10&#45;&gt;Node6 -->
<g id="edge48" class="edge"><title>Node10&#45;&gt;Node6</title>
<path fill="none" stroke="midnightblue" d="M281.198,-240.661C283.12,-212.15 288.524,-132.001 291.1,-93.78"/>
<polygon fill="midnightblue" stroke="midnightblue" points="294.622,-93.5808 291.802,-83.368 287.638,-93.1099 294.622,-93.5808"/>
</g>
</g>
</svg>
