<?xml version="1.0" encoding="UTF-8" standalone="no"?>
<!DOCTYPE svg PUBLIC "-//W3C//DTD SVG 1.1//EN"
 "http://www.w3.org/Graphics/SVG/1.1/DTD/svg11.dtd">
<!-- Generated by graphviz version 2.28.0 (20121015.0031)
 -->
<!-- Title: include/fa/error.h Pages: 1 -->
<svg width="757pt" height="212pt"
 viewBox="0.00 0.00 757.00 212.00" xmlns="http://www.w3.org/2000/svg" xmlns:xlink="http://www.w3.org/1999/xlink">
<g id="graph1" class="graph" transform="scale(1 1) rotate(0) translate(4 208)">
<title>include/fa/error.h</title>
<!-- Node1 -->
<g id="node1" class="node"><title>Node1</title>
<polygon fill="#bfbfbf" stroke="black" points="357.598,-180.695 357.598,-203.305 464.402,-203.305 464.402,-180.695 357.598,-180.695"/>
<text text-anchor="middle" x="411" y="-188.305" font-family="Futura" font-size="11.00">include/fa/error.h</text>
</g>
<!-- Node2 -->
<g id="node3" class="node"><title>Node2</title>
<a xlink:href="fa_2fa_8h.html" target="_top" xlink:title="fa.h">
<polygon fill="none" stroke="red" points="393.273,-60.6953 393.273,-83.3047 428.727,-83.3047 428.727,-60.6953 393.273,-60.6953"/>
<text text-anchor="middle" x="411" y="-68.3047" font-family="Futura" font-size="11.00">fa.h</text>
</a>
</g>
<!-- Node1&#45;&gt;Node2 -->
<g id="edge2" class="edge"><title>Node1&#45;&gt;Node2</title>
<path fill="none" stroke="midnightblue" d="M406.953,-180.528C403.82,-161.071 403.411,-119.023 405.724,-93.6561"/>
<polygon fill="midnightblue" stroke="midnightblue" points="409.212,-93.964 406.93,-83.6179 402.262,-93.129 409.212,-93.964"/>
</g>
<!-- Node10 -->
<g id="node22" class="node"><title>Node10</title>
<a xlink:href="string_8h.html" target="_top" xlink:title="fa/string.h">
<polygon fill="none" stroke="black" points="447.87,-120.695 447.87,-143.305 516.13,-143.305 516.13,-120.695 447.87,-120.695"/>
<text text-anchor="middle" x="482" y="-128.305" font-family="Futura" font-size="11.00">fa/string.h</text>
</a>
</g>
<!-- Node1&#45;&gt;Node10 -->
<g id="edge24" class="edge"><title>Node1&#45;&gt;Node10</title>
<path fill="none" stroke="midnightblue" d="M423.693,-180.631C434.064,-172.159 448.938,-160.009 461.067,-150.1"/>
<polygon fill="midnightblue" stroke="midnightblue" points="463.406,-152.709 468.936,-143.672 458.977,-147.288 463.406,-152.709"/>
</g>
<!-- Node2&#45;&gt;Node1 -->
<g id="edge16" class="edge"><title>Node2&#45;&gt;Node1</title>
<path fill="none" stroke="midnightblue" d="M415.07,-83.6179C418.189,-103.187 418.586,-145.25 416.259,-170.534"/>
<polygon fill="midnightblue" stroke="midnightblue" points="412.776,-170.18 415.047,-180.528 419.725,-171.022 412.776,-170.18"/>
</g>
<!-- Node3 -->
<g id="node5" class="node"><title>Node3</title>
<a xlink:href="atomic_8h.html" target="_top" xlink:title="fa/atomic.h">
<polygon fill="none" stroke="red" points="-0.0629883,-0.695312 -0.0629883,-23.3047 74.063,-23.3047 74.063,-0.695312 -0.0629883,-0.695312"/>
<text text-anchor="middle" x="37" y="-8.30469" font-family="Futura" font-size="11.00">fa/atomic.h</text>
</a>
</g>
<!-- Node2&#45;&gt;Node3 -->
<g id="edge4" class="edge"><title>Node2&#45;&gt;Node3</title>
<path fill="none" stroke="midnightblue" d="M393.077,-69.4471C343.532,-64.4672 202.356,-47.9218 80.4371,-25.1878"/>
<polygon fill="midnightblue" stroke="midnightblue" points="81.0521,-21.7422 70.5766,-23.3273 79.7542,-28.6208 81.0521,-21.7422"/>
</g>
<!-- Node4 -->
<g id="node8" class="node"><title>Node4</title>
<a xlink:href="queue_8h.html" target="_top" xlink:title="fa/atomic/queue.h">
<polygon fill="none" stroke="red" points="91.6484,-0.695312 91.6484,-23.3047 202.352,-23.3047 202.352,-0.695312 91.6484,-0.695312"/>
<text text-anchor="middle" x="147" y="-8.30469" font-family="Futura" font-size="11.00">fa/atomic/queue.h</text>
</a>
</g>
<!-- Node2&#45;&gt;Node4 -->
<g id="edge8" class="edge"><title>Node2&#45;&gt;Node4</title>
<path fill="none" stroke="midnightblue" d="M393.268,-67.1044C355.182,-58.7369 264.149,-38.7373 204.074,-25.539"/>
<polygon fill="midnightblue" stroke="midnightblue" points="204.493,-22.0477 193.975,-23.3203 202.991,-28.8846 204.493,-22.0477"/>
</g>
<!-- Node5 -->
<g id="node10" class="node"><title>Node5</title>
<a xlink:href="stack_8h.html" target="_top" xlink:title="fa/atomic/stack.h">
<polygon fill="none" stroke="red" points="220.42,-0.695312 220.42,-23.3047 325.58,-23.3047 325.58,-0.695312 220.42,-0.695312"/>
<text text-anchor="middle" x="273" y="-8.30469" font-family="Futura" font-size="11.00">fa/atomic/stack.h</text>
</a>
</g>
<!-- Node2&#45;&gt;Node5 -->
<g id="edge10" class="edge"><title>Node2&#45;&gt;Node5</title>
<path fill="none" stroke="midnightblue" d="M393.241,-63.5363C371.587,-54.4351 334.507,-38.8506 307.235,-27.3886"/>
<polygon fill="midnightblue" stroke="midnightblue" points="308.253,-24.0199 297.678,-23.3719 305.541,-30.4731 308.253,-24.0199"/>
</g>
<!-- Node6 -->
<g id="node12" class="node"><title>Node6</title>
<a xlink:href="ring__buffer_8h.html" target="_top" xlink:title="fa/atomic/ring_buffer.h">
<polygon fill="none" stroke="red" points="343.526,-0.695312 343.526,-23.3047 478.474,-23.3047 478.474,-0.695312 343.526,-0.695312"/>
<text text-anchor="middle" x="411" y="-8.30469" font-family="Futura" font-size="11.00">fa/atomic/ring_buffer.h</text>
</a>
</g>
<!-- Node2&#45;&gt;Node6 -->
<g id="edge12" class="edge"><title>Node2&#45;&gt;Node6</title>
<path fill="none" stroke="midnightblue" d="M411,-60.6308C411,-53.218 411,-42.9888 411,-33.9096"/>
<polygon fill="midnightblue" stroke="midnightblue" points="414.5,-33.6718 411,-23.6719 407.5,-33.6719 414.5,-33.6718"/>
</g>
<!-- Node7 -->
<g id="node14" class="node"><title>Node7</title>
<a xlink:href="system_8h.html" target="_top" xlink:title="fa/system.h">
<polygon fill="none" stroke="red" points="496.026,-0.695312 496.026,-23.3047 569.974,-23.3047 569.974,-0.695312 496.026,-0.695312"/>
<text text-anchor="middle" x="533" y="-8.30469" font-family="Futura" font-size="11.00">fa/system.h</text>
</a>
</g>
<!-- Node2&#45;&gt;Node7 -->
<g id="edge14" class="edge"><title>Node2&#45;&gt;Node7</title>
<path fill="none" stroke="midnightblue" d="M428.74,-62.5663C447.908,-53.4538 478.816,-38.7595 502.013,-27.7316"/>
<polygon fill="midnightblue" stroke="midnightblue" points="503.582,-30.861 511.111,-23.4064 500.577,-24.539 503.582,-30.861"/>
</g>
<!-- Node8 -->
<g id="node17" class="node"><title>Node8</title>
<a xlink:href="pair_8h.html" target="_top" xlink:title="fa/pair.h">
<polygon fill="none" stroke="red" points="587.694,-0.695312 587.694,-23.3047 648.306,-23.3047 648.306,-0.695312 587.694,-0.695312"/>
<text text-anchor="middle" x="618" y="-8.30469" font-family="Futura" font-size="11.00">fa/pair.h</text>
</a>
</g>
<!-- Node2&#45;&gt;Node8 -->
<g id="edge18" class="edge"><title>Node2&#45;&gt;Node8</title>
<path fill="none" stroke="midnightblue" d="M428.782,-64.793C461.798,-54.7406 532.622,-34.8174 577.724,-22.8241"/>
<polygon fill="midnightblue" stroke="midnightblue" points="578.713,-26.1831 587.488,-20.2467 576.926,-19.4149 578.713,-26.1831"/>
</g>
<!-- Node9 -->
<g id="node20" class="node"><title>Node9</title>
<polygon fill="none" stroke="#bfbfbf" points="666.804,-0.695312 666.804,-23.3047 749.196,-23.3047 749.196,-0.695312 666.804,-0.695312"/>
<text text-anchor="middle" x="708" y="-8.30469" font-family="Futura" font-size="11.00">fa/pair/left.h</text>
</g>
<!-- Node2&#45;&gt;Node9 -->
<g id="edge22" class="edge"><title>Node2&#45;&gt;Node9</title>
<path fill="none" stroke="midnightblue" d="M428.931,-67.7244C468.142,-60.5298 564.672,-42.6458 656.526,-24.0609"/>
<polygon fill="midnightblue" stroke="midnightblue" points="657.441,-27.4466 666.545,-22.027 656.049,-20.5865 657.441,-27.4466"/>
</g>
<!-- Node3&#45;&gt;Node2 -->
<g id="edge6" class="edge"><title>Node3&#45;&gt;Node2</title>
<path fill="none" stroke="midnightblue" d="M74.1837,-20.2192C80.1848,-21.5747 86.2733,-22.9074 92,-24 199.01,-44.4163 327.189,-60.3464 383.016,-67.2553"/>
<polygon fill="midnightblue" stroke="midnightblue" points="382.835,-70.7595 393.189,-68.5154 383.695,-63.8126 382.835,-70.7595"/>
</g>
<!-- Node8&#45;&gt;Node2 -->
<g id="edge20" class="edge"><title>Node8&#45;&gt;Node2</title>
<path fill="none" stroke="midnightblue" d="M587.562,-22.9989C547.452,-34.8634 477.801,-54.3071 438.95,-64.4219"/>
<polygon fill="midnightblue" stroke="midnightblue" points="437.675,-61.1359 428.86,-67.0134 439.416,-67.9159 437.675,-61.1359"/>
</g>
<!-- Node10&#45;&gt;Node2 -->
<g id="edge26" class="edge"><title>Node10&#45;&gt;Node2</title>
<path fill="none" stroke="midnightblue" d="M469.307,-120.631C458.936,-112.159 444.062,-100.009 431.933,-90.1004"/>
<polygon fill="midnightblue" stroke="midnightblue" points="434.023,-87.2878 424.064,-83.6719 429.594,-92.7089 434.023,-87.2878"/>
</g>
</g>
</svg>
