<?xml version="1.0" encoding="UTF-8" standalone="no"?>
<!DOCTYPE svg PUBLIC "-//W3C//DTD SVG 1.1//EN"
 "http://www.w3.org/Graphics/SVG/1.1/DTD/svg11.dtd">
<!-- Generated by graphviz version 2.28.0 (20121015.0031)
 -->
<!-- Title: include/fa.h Pages: 1 -->
<svg width="444pt" height="152pt"
 viewBox="0.00 0.00 444.00 152.00" xmlns="http://www.w3.org/2000/svg" xmlns:xlink="http://www.w3.org/1999/xlink">
<g id="graph1" class="graph" transform="scale(1 1) rotate(0) translate(4 148)">
<title>include/fa.h</title>
<!-- Node1 -->
<g id="node1" class="node"><title>Node1</title>
<polygon fill="#bfbfbf" stroke="black" points="258.71,-120.695 258.71,-143.305 335.29,-143.305 335.29,-120.695 258.71,-120.695"/>
<text text-anchor="middle" x="297" y="-128.305" font-family="Futura" font-size="11.00">include/fa.h</text>
</g>
<!-- Node2 -->
<g id="node3" class="node"><title>Node2</title>
<a xlink:href="std_8h.html" target="_top" xlink:title="fa/std.h">
<polygon fill="none" stroke="red" points="191.39,-60.6953 191.39,-83.3047 246.61,-83.3047 246.61,-60.6953 191.39,-60.6953"/>
<text text-anchor="middle" x="219" y="-68.3047" font-family="Futura" font-size="11.00">fa/std.h</text>
</a>
</g>
<!-- Node1&#45;&gt;Node2 -->
<g id="edge2" class="edge"><title>Node1&#45;&gt;Node2</title>
<path fill="none" stroke="midnightblue" d="M283.055,-120.631C271.481,-112.024 254.8,-99.6207 241.363,-89.6288"/>
<polygon fill="midnightblue" stroke="midnightblue" points="243.2,-86.6335 233.087,-83.475 239.023,-92.2507 243.2,-86.6335"/>
</g>
<!-- Node9 -->
<g id="node17" class="node"><title>Node9</title>
<a xlink:href="alloc_8h.html" target="_top" xlink:title="fa/alloc.h">
<polygon fill="none" stroke="black" points="264.459,-60.6953 264.459,-83.3047 329.541,-83.3047 329.541,-60.6953 264.459,-60.6953"/>
<text text-anchor="middle" x="297" y="-68.3047" font-family="Futura" font-size="11.00">fa/alloc.h</text>
</a>
</g>
<!-- Node1&#45;&gt;Node9 -->
<g id="edge16" class="edge"><title>Node1&#45;&gt;Node9</title>
<path fill="none" stroke="midnightblue" d="M297,-120.631C297,-113.218 297,-102.989 297,-93.9096"/>
<polygon fill="midnightblue" stroke="midnightblue" points="300.5,-93.6718 297,-83.6719 293.5,-93.6719 300.5,-93.6718"/>
</g>
<!-- Node10 -->
<g id="node19" class="node"><title>Node10</title>
<a xlink:href="interfaces_8h.html" target="_top" xlink:title="fa/interfaces.h">
<polygon fill="none" stroke="black" points="347.294,-60.6953 347.294,-83.3047 436.706,-83.3047 436.706,-60.6953 347.294,-60.6953"/>
<text text-anchor="middle" x="392" y="-68.3047" font-family="Futura" font-size="11.00">fa/interfaces.h</text>
</a>
</g>
<!-- Node1&#45;&gt;Node10 -->
<g id="edge18" class="edge"><title>Node1&#45;&gt;Node10</title>
<path fill="none" stroke="midnightblue" d="M313.984,-120.631C328.484,-111.778 349.563,-98.9089 366.156,-88.7784"/>
<polygon fill="midnightblue" stroke="midnightblue" points="368.131,-91.6732 374.843,-83.475 364.484,-85.6987 368.131,-91.6732"/>
</g>
<!-- Node3 -->
<g id="node5" class="node"><title>Node3</title>
<polygon fill="none" stroke="#bfbfbf" points="-0.276855,-0.695312 -0.276855,-23.3047 54.2769,-23.3047 54.2769,-0.695312 -0.276855,-0.695312"/>
<text text-anchor="middle" x="27" y="-8.30469" font-family="Futura" font-size="11.00">assert.h</text>
</g>
<!-- Node2&#45;&gt;Node3 -->
<g id="edge4" class="edge"><title>Node2&#45;&gt;Node3</title>
<path fill="none" stroke="midnightblue" d="M191.374,-62.7124C162.074,-53.9149 114.182,-39.5128 64.1996,-24.3575"/>
<polygon fill="midnightblue" stroke="midnightblue" points="65.0994,-20.973 54.514,-21.4192 63.0673,-27.6715 65.0994,-20.973"/>
</g>
<!-- Node4 -->
<g id="node7" class="node"><title>Node4</title>
<polygon fill="none" stroke="#bfbfbf" points="72.2671,-0.695312 72.2671,-23.3047 139.733,-23.3047 139.733,-0.695312 72.2671,-0.695312"/>
<text text-anchor="middle" x="106" y="-8.30469" font-family="Futura" font-size="11.00">complex.h</text>
</g>
<!-- Node2&#45;&gt;Node4 -->
<g id="edge6" class="edge"><title>Node2&#45;&gt;Node4</title>
<path fill="none" stroke="midnightblue" d="M198.798,-60.6308C181.151,-51.5733 155.313,-38.3109 135.379,-28.0794"/>
<polygon fill="midnightblue" stroke="midnightblue" points="136.903,-24.9276 126.408,-23.475 133.707,-31.1552 136.903,-24.9276"/>
</g>
<!-- Node5 -->
<g id="node9" class="node"><title>Node5</title>
<polygon fill="none" stroke="#bfbfbf" points="157.832,-0.695312 157.832,-23.3047 210.168,-23.3047 210.168,-0.695312 157.832,-0.695312"/>
<text text-anchor="middle" x="184" y="-8.30469" font-family="Futura" font-size="11.00">ctype.h</text>
</g>
<!-- Node2&#45;&gt;Node5 -->
<g id="edge8" class="edge"><title>Node2&#45;&gt;Node5</title>
<path fill="none" stroke="midnightblue" d="M212.743,-60.6308C208.024,-52.8107 201.413,-41.8562 195.721,-32.4241"/>
<polygon fill="midnightblue" stroke="midnightblue" points="198.603,-30.4254 190.44,-23.6719 192.61,-34.0421 198.603,-30.4254"/>
</g>
<!-- Node6 -->
<g id="node11" class="node"><title>Node6</title>
<polygon fill="none" stroke="#bfbfbf" points="228.642,-0.695312 228.642,-23.3047 281.358,-23.3047 281.358,-0.695312 228.642,-0.695312"/>
<text text-anchor="middle" x="255" y="-8.30469" font-family="Futura" font-size="11.00">errno.h</text>
</g>
<!-- Node2&#45;&gt;Node6 -->
<g id="edge10" class="edge"><title>Node2&#45;&gt;Node6</title>
<path fill="none" stroke="midnightblue" d="M225.436,-60.6308C230.29,-52.8107 237.089,-41.8562 242.944,-32.4241"/>
<polygon fill="midnightblue" stroke="midnightblue" points="246.076,-34.0141 248.376,-23.6719 240.129,-30.3225 246.076,-34.0141"/>
</g>
<!-- Node7 -->
<g id="node13" class="node"><title>Node7</title>
<polygon fill="none" stroke="#bfbfbf" points="299.135,-0.695312 299.135,-23.3047 344.865,-23.3047 344.865,-0.695312 299.135,-0.695312"/>
<text text-anchor="middle" x="322" y="-8.30469" font-family="Futura" font-size="11.00">fenv.h</text>
</g>
<!-- Node2&#45;&gt;Node7 -->
<g id="edge12" class="edge"><title>Node2&#45;&gt;Node7</title>
<path fill="none" stroke="midnightblue" d="M237.414,-60.6308C253.281,-51.6962 276.413,-38.6702 294.478,-28.4977"/>
<polygon fill="midnightblue" stroke="midnightblue" points="296.402,-31.4314 303.398,-23.475 292.967,-25.332 296.402,-31.4314"/>
</g>
<!-- Node8 -->
<g id="node15" class="node"><title>Node8</title>
<polygon fill="none" stroke="#bfbfbf" points="363.26,-0.695312 363.26,-23.3047 410.74,-23.3047 410.74,-0.695312 363.26,-0.695312"/>
<text text-anchor="middle" x="387" y="-8.30469" font-family="Futura" font-size="11.00">float.h</text>
</g>
<!-- Node2&#45;&gt;Node8 -->
<g id="edge14" class="edge"><title>Node2&#45;&gt;Node8</title>
<path fill="none" stroke="midnightblue" d="M246.742,-61.4225C276.007,-51.319 322.133,-35.3945 353.43,-24.5896"/>
<polygon fill="midnightblue" stroke="midnightblue" points="354.72,-27.8471 363.03,-21.2753 352.435,-21.2304 354.72,-27.8471"/>
</g>
</g>
</svg>
