<?xml version="1.0" encoding="UTF-8" standalone="no"?>
<!DOCTYPE svg PUBLIC "-//W3C//DTD SVG 1.1//EN"
 "http://www.w3.org/Graphics/SVG/1.1/DTD/svg11.dtd">
<!-- Generated by graphviz version 2.28.0 (20121015.0031)
 -->
<!-- Title: include/fa/list.h Pages: 1 -->
<svg width="608pt" height="332pt"
 viewBox="0.00 0.00 608.00 332.00" xmlns="http://www.w3.org/2000/svg" xmlns:xlink="http://www.w3.org/1999/xlink">
<g id="graph1" class="graph" transform="scale(1 1) rotate(0) translate(4 328)">
<title>include/fa/list.h</title>
<!-- Node1 -->
<g id="node1" class="node"><title>Node1</title>
<polygon fill="#bfbfbf" stroke="black" points="375.385,-300.695 375.385,-323.305 470.615,-323.305 470.615,-300.695 375.385,-300.695"/>
<text text-anchor="middle" x="423" y="-308.305" font-family="Futura" font-size="11.00">include/fa/list.h</text>
</g>
<!-- Node2 -->
<g id="node3" class="node"><title>Node2</title>
<a xlink:href="action_8h.html" target="_top" xlink:title="include/fa/action.h">
<polygon fill="none" stroke="black" points="234.746,-240.695 234.746,-263.305 347.254,-263.305 347.254,-240.695 234.746,-240.695"/>
<text text-anchor="middle" x="291" y="-248.305" font-family="Futura" font-size="11.00">include/fa/action.h</text>
</a>
</g>
<!-- Node1&#45;&gt;Node2 -->
<g id="edge2" class="edge"><title>Node1&#45;&gt;Node2</title>
<path fill="none" stroke="midnightblue" d="M390.207,-296.591C366.817,-286.314 335.902,-272.73 314.84,-263.475"/>
<polygon fill="midnightblue" stroke="midnightblue" points="388.838,-299.812 399.401,-300.631 391.654,-293.404 388.838,-299.812"/>
</g>
<!-- Node4 -->
<g id="node7" class="node"><title>Node4</title>
<a xlink:href="audio_2stream_8h.html" target="_top" xlink:title="include/fa/audio/stream.h">
<polygon fill="none" stroke="red" points="-0.703613,-60.6953 -0.703613,-83.3047 148.704,-83.3047 148.704,-60.6953 -0.703613,-60.6953"/>
<text text-anchor="middle" x="74" y="-68.3047" font-family="Futura" font-size="11.00">include/fa/audio/stream.h</text>
</a>
</g>
<!-- Node1&#45;&gt;Node4 -->
<g id="edge40" class="edge"><title>Node1&#45;&gt;Node4</title>
<path fill="none" stroke="midnightblue" d="M365.255,-303.912C266.399,-290.443 71.536,-257.611 32,-204 25.5132,-195.204 20.7961,-154.122 34,-120 39.6455,-105.411 51.8619,-92.1752 61.318,-83.4947"/>
<polygon fill="midnightblue" stroke="midnightblue" points="365.003,-307.41 375.379,-305.27 365.933,-300.472 365.003,-307.41"/>
</g>
<!-- Node6 -->
<g id="node13" class="node"><title>Node6</title>
<a xlink:href="fa_2fa_8h.html" target="_top" xlink:title="include/fa/fa.h">
<polygon fill="none" stroke="red" points="333.846,-180.695 333.846,-203.305 426.154,-203.305 426.154,-180.695 333.846,-180.695"/>
<text text-anchor="middle" x="380" y="-188.305" font-family="Futura" font-size="11.00">include/fa/fa.h</text>
</a>
</g>
<!-- Node1&#45;&gt;Node6 -->
<g id="edge42" class="edge"><title>Node1&#45;&gt;Node6</title>
<path fill="none" stroke="midnightblue" d="M410.593,-291.21C399.012,-266.007 383.847,-223.363 379.799,-203.618"/>
<polygon fill="midnightblue" stroke="midnightblue" points="407.608,-293.074 415.137,-300.528 413.9,-290.006 407.608,-293.074"/>
</g>
<!-- Node7 -->
<g id="node17" class="node"><title>Node7</title>
<a xlink:href="map_8h.html" target="_top" xlink:title="include/fa/map.h">
<polygon fill="none" stroke="red" points="423.914,-60.6953 423.914,-83.3047 528.086,-83.3047 528.086,-60.6953 423.914,-60.6953"/>
<text text-anchor="middle" x="476" y="-68.3047" font-family="Futura" font-size="11.00">include/fa/map.h</text>
</a>
</g>
<!-- Node1&#45;&gt;Node7 -->
<g id="edge44" class="edge"><title>Node1&#45;&gt;Node7</title>
<path fill="none" stroke="midnightblue" d="M471.191,-296.504C486.655,-289.318 502.075,-278.885 511,-264 543.912,-209.111 531.135,-180.75 511,-120 506.263,-105.708 495.305,-92.232 486.903,-83.4058"/>
<polygon fill="midnightblue" stroke="midnightblue" points="469.452,-293.44 461.615,-300.57 472.187,-299.883 469.452,-293.44"/>
</g>
<!-- Node8 -->
<g id="node19" class="node"><title>Node8</title>
<a xlink:href="literals_8h.html" target="_top" xlink:title="include/fa/util/literals.h">
<polygon fill="none" stroke="red" points="465.518,-0.695312 465.518,-23.3047 600.482,-23.3047 600.482,-0.695312 465.518,-0.695312"/>
<text text-anchor="middle" x="533" y="-8.30469" font-family="Futura" font-size="11.00">include/fa/util/literals.h</text>
</a>
</g>
<!-- Node1&#45;&gt;Node8 -->
<g id="edge50" class="edge"><title>Node1&#45;&gt;Node8</title>
<path fill="none" stroke="midnightblue" d="M472.395,-297.279C492.558,-289.865 515.064,-279.068 532,-264 559.224,-239.779 573,-229.439 573,-193 573,-193 573,-193 573,-131 573,-89.2519 550.265,-43.3839 539.075,-23.3366"/>
<polygon fill="midnightblue" stroke="midnightblue" points="471.011,-294.054 462.72,-300.65 473.315,-300.665 471.011,-294.054"/>
</g>
<!-- Node9 -->
<g id="node21" class="node"><title>Node9</title>
<a xlink:href="pair_8h.html" target="_top" xlink:title="include/fa/pair.h">
<polygon fill="none" stroke="red" points="329.131,-120.695 329.131,-143.305 430.869,-143.305 430.869,-120.695 329.131,-120.695"/>
<text text-anchor="middle" x="380" y="-128.305" font-family="Futura" font-size="11.00">include/fa/pair.h</text>
</a>
</g>
<!-- Node1&#45;&gt;Node9 -->
<g id="edge48" class="edge"><title>Node1&#45;&gt;Node9</title>
<path fill="none" stroke="midnightblue" d="M430.883,-290.812C439.991,-264.133 451.718,-216.278 435,-180 427.64,-164.03 411.881,-151.471 399.111,-143.368"/>
<polygon fill="midnightblue" stroke="midnightblue" points="427.471,-289.954 427.349,-300.548 434.051,-292.342 427.471,-289.954"/>
</g>
<!-- Node10 -->
<g id="node27" class="node"><title>Node10</title>
<a xlink:href="midi_8h.html" target="_top" xlink:title="include/fa/midi.h">
<polygon fill="none" stroke="black" points="275.473,-60.6953 275.473,-83.3047 378.527,-83.3047 378.527,-60.6953 275.473,-60.6953"/>
<text text-anchor="middle" x="327" y="-68.3047" font-family="Futura" font-size="11.00">include/fa/midi.h</text>
</a>
</g>
<!-- Node1&#45;&gt;Node10 -->
<g id="edge46" class="edge"><title>Node1&#45;&gt;Node10</title>
<path fill="none" stroke="midnightblue" d="M439.455,-292.407C445.596,-284.272 451.841,-274.253 455,-264 473.961,-202.461 480.55,-169.195 439,-120 423.489,-101.635 399.582,-90.3057 377.833,-83.3882"/>
<polygon fill="midnightblue" stroke="midnightblue" points="436.546,-290.44 432.984,-300.418 441.991,-294.839 436.546,-290.44"/>
</g>
<!-- Node3 -->
<g id="node5" class="node"><title>Node3</title>
<a xlink:href="audio_2device_8h.html" target="_top" xlink:title="include/fa/audio/device.h">
<polygon fill="none" stroke="red" points="51.6992,-120.695 51.6992,-143.305 200.301,-143.305 200.301,-120.695 51.6992,-120.695"/>
<text text-anchor="middle" x="126" y="-128.305" font-family="Futura" font-size="11.00">include/fa/audio/device.h</text>
</a>
</g>
<!-- Node2&#45;&gt;Node3 -->
<g id="edge4" class="edge"><title>Node2&#45;&gt;Node3</title>
<path fill="none" stroke="midnightblue" d="M273.12,-233.36C257.286,-218.231 233.153,-196.352 210,-180 189.798,-165.732 164.88,-152.253 147.45,-143.419"/>
<polygon fill="midnightblue" stroke="midnightblue" points="270.975,-236.154 280.596,-240.591 275.841,-231.122 270.975,-236.154"/>
</g>
<!-- Node2&#45;&gt;Node4 -->
<g id="edge12" class="edge"><title>Node2&#45;&gt;Node4</title>
<path fill="none" stroke="midnightblue" d="M224.257,-247.807C158.253,-243.085 63.8833,-231.586 41,-204 34.9651,-196.725 30.9264,-157.926 43,-120 47.4477,-106.029 57.3262,-92.2938 64.7444,-83.315"/>
<polygon fill="midnightblue" stroke="midnightblue" points="224.378,-251.323 234.592,-248.508 224.852,-244.339 224.378,-251.323"/>
</g>
<!-- Node5 -->
<g id="node9" class="node"><title>Node5</title>
<a xlink:href="audio_2session_8h.html" target="_top" xlink:title="include/fa/audio/session.h">
<polygon fill="none" stroke="red" points="50.3135,-180.695 50.3135,-203.305 201.687,-203.305 201.687,-180.695 50.3135,-180.695"/>
<text text-anchor="middle" x="126" y="-188.305" font-family="Futura" font-size="11.00">include/fa/audio/session.h</text>
</a>
</g>
<!-- Node2&#45;&gt;Node5 -->
<g id="edge8" class="edge"><title>Node2&#45;&gt;Node5</title>
<path fill="none" stroke="midnightblue" d="M251.913,-237.26C222.365,-226.874 182.428,-212.835 155.521,-203.377"/>
<polygon fill="midnightblue" stroke="midnightblue" points="250.906,-240.616 261.501,-240.631 253.228,-234.013 250.906,-240.616"/>
</g>
<!-- Node2&#45;&gt;Node6 -->
<g id="edge14" class="edge"><title>Node2&#45;&gt;Node6</title>
<path fill="none" stroke="midnightblue" d="M309.762,-234.778C324.1,-224.758 343.643,-212.195 358.591,-203.475"/>
<polygon fill="midnightblue" stroke="midnightblue" points="307.685,-231.961 301.596,-240.631 311.763,-237.65 307.685,-231.961"/>
</g>
<!-- Node2&#45;&gt;Node10 -->
<g id="edge38" class="edge"><title>Node2&#45;&gt;Node10</title>
<path fill="none" stroke="midnightblue" d="M293.355,-230.212C296.522,-204.216 302.837,-158.45 312,-120 315.058,-107.169 319.865,-92.767 323.21,-83.3274"/>
<polygon fill="midnightblue" stroke="midnightblue" points="289.852,-230.025 292.156,-240.366 296.804,-230.846 289.852,-230.025"/>
</g>
<!-- Node3&#45;&gt;Node4 -->
<g id="edge6" class="edge"><title>Node3&#45;&gt;Node4</title>
<path fill="none" stroke="midnightblue" d="M109.955,-113.104C101.314,-103.466 90.9455,-91.9008 83.5679,-83.6719"/>
<polygon fill="midnightblue" stroke="midnightblue" points="107.422,-115.521 116.703,-120.631 112.634,-110.849 107.422,-115.521"/>
</g>
<!-- Node5&#45;&gt;Node3 -->
<g id="edge10" class="edge"><title>Node5&#45;&gt;Node3</title>
<path fill="none" stroke="midnightblue" d="M126,-170.459C126,-161.411 126,-151.16 126,-143.672"/>
<polygon fill="midnightblue" stroke="midnightblue" points="122.5,-170.631 126,-180.631 129.5,-170.631 122.5,-170.631"/>
</g>
<!-- Node6&#45;&gt;Node1 -->
<g id="edge18" class="edge"><title>Node6&#45;&gt;Node1</title>
<path fill="none" stroke="midnightblue" d="M392.339,-212.641C403.957,-237.887 419.22,-280.81 423.231,-300.528"/>
<polygon fill="midnightblue" stroke="midnightblue" points="395.468,-211.073 387.94,-203.618 389.176,-214.14 395.468,-211.073"/>
</g>
<!-- Node6&#45;&gt;Node2 -->
<g id="edge16" class="edge"><title>Node6&#45;&gt;Node2</title>
<path fill="none" stroke="midnightblue" d="M361.063,-209.344C346.684,-219.384 327.138,-231.942 312.227,-240.631"/>
<polygon fill="midnightblue" stroke="midnightblue" points="363.167,-212.142 369.261,-203.475 359.093,-206.45 363.167,-212.142"/>
</g>
<!-- Node6&#45;&gt;Node7 -->
<g id="edge20" class="edge"><title>Node6&#45;&gt;Node7</title>
<path fill="none" stroke="midnightblue" d="M404.867,-174.797C416.242,-166.536 429.31,-155.758 439,-144 454.735,-124.907 466.476,-98.0394 472.171,-83.4396"/>
<polygon fill="midnightblue" stroke="midnightblue" points="402.767,-171.994 396.583,-180.597 406.782,-177.728 402.767,-171.994"/>
</g>
<!-- Node6&#45;&gt;Node9 -->
<g id="edge24" class="edge"><title>Node6&#45;&gt;Node9</title>
<path fill="none" stroke="midnightblue" d="M373.512,-170.459C372.936,-161.411 373.309,-151.16 374.63,-143.672"/>
<polygon fill="midnightblue" stroke="midnightblue" points="370.062,-171.097 374.684,-180.631 377.016,-170.296 370.062,-171.097"/>
</g>
<!-- Node7&#45;&gt;Node8 -->
<g id="edge22" class="edge"><title>Node7&#45;&gt;Node8</title>
<path fill="none" stroke="midnightblue" d="M493.304,-53.3924C502.832,-43.6976 514.344,-31.9831 522.512,-23.6719"/>
<polygon fill="midnightblue" stroke="midnightblue" points="490.703,-51.0452 486.19,-60.6308 495.696,-55.9517 490.703,-51.0452"/>
</g>
<!-- Node9&#45;&gt;Node2 -->
<g id="edge26" class="edge"><title>Node9&#45;&gt;Node2</title>
<path fill="none" stroke="midnightblue" d="M356.39,-149.6C345.835,-157.861 333.816,-168.526 325,-180 310.178,-199.29 299.53,-226.081 294.418,-240.615"/>
<polygon fill="midnightblue" stroke="midnightblue" points="358.574,-152.337 364.451,-143.521 354.359,-146.748 358.574,-152.337"/>
</g>
<!-- Node9&#45;&gt;Node4 -->
<g id="edge28" class="edge"><title>Node9&#45;&gt;Node4</title>
<path fill="none" stroke="midnightblue" d="M319.062,-119.45C263.487,-108.916 182.112,-93.4919 128.612,-83.3512"/>
<polygon fill="midnightblue" stroke="midnightblue" points="318.65,-122.934 329.127,-121.357 319.954,-116.056 318.65,-122.934"/>
</g>
<!-- Node9&#45;&gt;Node6 -->
<g id="edge30" class="edge"><title>Node9&#45;&gt;Node6</title>
<path fill="none" stroke="midnightblue" d="M386.492,-153.611C387.069,-162.764 386.677,-173.137 385.316,-180.631"/>
<polygon fill="midnightblue" stroke="midnightblue" points="389.97,-153.216 385.37,-143.672 383.014,-154.001 389.97,-153.216"/>
</g>
<!-- Node9&#45;&gt;Node7 -->
<g id="edge32" class="edge"><title>Node9&#45;&gt;Node7</title>
<path fill="none" stroke="midnightblue" d="M405.916,-115.342C422.648,-105.234 443.957,-92.3594 458.662,-83.475"/>
<polygon fill="midnightblue" stroke="midnightblue" points="403.912,-112.464 397.163,-120.631 407.532,-118.455 403.912,-112.464"/>
</g>
<!-- Node9&#45;&gt;Node10 -->
<g id="edge34" class="edge"><title>Node9&#45;&gt;Node10</title>
<path fill="none" stroke="midnightblue" d="M363.647,-113.104C354.84,-103.466 344.271,-91.9008 336.752,-83.6719"/>
<polygon fill="midnightblue" stroke="midnightblue" points="361.195,-115.61 370.525,-120.631 366.363,-110.888 361.195,-115.61"/>
</g>
<!-- Node10&#45;&gt;Node6 -->
<g id="edge36" class="edge"><title>Node10&#45;&gt;Node6</title>
<path fill="none" stroke="midnightblue" d="M319.458,-93.4088C315.28,-108.177 312.32,-128.229 320,-144 327.936,-160.298 344.562,-172.613 358.304,-180.54"/>
<polygon fill="midnightblue" stroke="midnightblue" points="322.842,-94.3169 322.58,-83.7253 316.18,-92.1685 322.842,-94.3169"/>
</g>
</g>
</svg>
