<?xml version="1.0" encoding="UTF-8" standalone="no"?>
<!DOCTYPE svg PUBLIC "-//W3C//DTD SVG 1.1//EN"
 "http://www.w3.org/Graphics/SVG/1.1/DTD/svg11.dtd">
<!-- Generated by graphviz version 2.28.0 (20121015.0031)
 -->
<!-- Title: include/fa/util/literals.h Pages: 1 -->
<svg width="414pt" height="272pt"
 viewBox="0.00 0.00 414.00 272.00" xmlns="http://www.w3.org/2000/svg" xmlns:xlink="http://www.w3.org/1999/xlink">
<g id="graph1" class="graph" transform="scale(1 1) rotate(0) translate(4 268)">
<title>include/fa/util/literals.h</title>
<!-- Node1 -->
<g id="node1" class="node"><title>Node1</title>
<polygon fill="#bfbfbf" stroke="black" points="170.518,-240.695 170.518,-263.305 305.482,-263.305 305.482,-240.695 170.518,-240.695"/>
<text text-anchor="middle" x="238" y="-248.305" font-family="Futura" font-size="11.00">include/fa/util/literals.h</text>
</g>
<!-- Node2 -->
<g id="node3" class="node"><title>Node2</title>
<a xlink:href="list_8h.html" target="_top" xlink:title="fa/list.h">
<polygon fill="none" stroke="black" points="183.949,-120.695 183.949,-143.305 238.051,-143.305 238.051,-120.695 183.949,-120.695"/>
<text text-anchor="middle" x="211" y="-128.305" font-family="Futura" font-size="11.00">fa/list.h</text>
</a>
</g>
<!-- Node1&#45;&gt;Node2 -->
<g id="edge2" class="edge"><title>Node1&#45;&gt;Node2</title>
<path fill="none" stroke="midnightblue" d="M235.604,-240.528C231.152,-221.071 221.531,-179.023 215.726,-153.656"/>
<polygon fill="midnightblue" stroke="midnightblue" points="219.072,-152.585 213.43,-143.618 212.248,-154.147 219.072,-152.585"/>
</g>
<!-- Node7 -->
<g id="node17" class="node"><title>Node7</title>
<polygon fill="none" stroke="#bfbfbf" points="238.597,-180.695 238.597,-203.305 293.403,-203.305 293.403,-180.695 238.597,-180.695"/>
<text text-anchor="middle" x="266" y="-188.305" font-family="Futura" font-size="11.00">fa/set.h</text>
</g>
<!-- Node1&#45;&gt;Node7 -->
<g id="edge20" class="edge"><title>Node1&#45;&gt;Node7</title>
<path fill="none" stroke="midnightblue" d="M243.006,-240.631C246.742,-232.892 251.959,-222.084 256.48,-212.719"/>
<polygon fill="midnightblue" stroke="midnightblue" points="259.652,-214.199 260.848,-203.672 253.349,-211.156 259.652,-214.199"/>
</g>
<!-- Node8 -->
<g id="node19" class="node"><title>Node8</title>
<a xlink:href="map_8h.html" target="_top" xlink:title="fa/map.h">
<polygon fill="none" stroke="black" points="119.477,-180.695 119.477,-203.305 182.523,-203.305 182.523,-180.695 119.477,-180.695"/>
<text text-anchor="middle" x="151" y="-188.305" font-family="Futura" font-size="11.00">fa/map.h</text>
</a>
</g>
<!-- Node1&#45;&gt;Node8 -->
<g id="edge22" class="edge"><title>Node1&#45;&gt;Node8</title>
<path fill="none" stroke="midnightblue" d="M222.446,-240.631C209.29,-231.86 190.22,-219.147 175.091,-209.06"/>
<polygon fill="midnightblue" stroke="midnightblue" points="176.975,-206.11 166.713,-203.475 173.092,-211.934 176.975,-206.11"/>
</g>
<!-- Node10 -->
<g id="node27" class="node"><title>Node10</title>
<a xlink:href="vararg_8h.html" target="_top" xlink:title="fa/util/vararg.h">
<polygon fill="none" stroke="black" points="311.7,-180.695 311.7,-203.305 406.3,-203.305 406.3,-180.695 311.7,-180.695"/>
<text text-anchor="middle" x="359" y="-188.305" font-family="Futura" font-size="11.00">fa/util/vararg.h</text>
</a>
</g>
<!-- Node1&#45;&gt;Node10 -->
<g id="edge34" class="edge"><title>Node1&#45;&gt;Node10</title>
<path fill="none" stroke="midnightblue" d="M259.632,-240.631C278.699,-231.491 306.698,-218.071 328.119,-207.802"/>
<polygon fill="midnightblue" stroke="midnightblue" points="329.642,-210.954 337.147,-203.475 326.616,-204.641 329.642,-210.954"/>
</g>
<!-- Node3 -->
<g id="node5" class="node"><title>Node3</title>
<a xlink:href="fa_2fa_8h.html" target="_top" xlink:title="fa.h">
<polygon fill="none" stroke="red" points="129.273,-60.6953 129.273,-83.3047 164.727,-83.3047 164.727,-60.6953 129.273,-60.6953"/>
<text text-anchor="middle" x="147" y="-68.3047" font-family="Futura" font-size="11.00">fa.h</text>
</a>
</g>
<!-- Node2&#45;&gt;Node3 -->
<g id="edge4" class="edge"><title>Node2&#45;&gt;Node3</title>
<path fill="none" stroke="midnightblue" d="M194.242,-120.631C183.669,-112.403 170.436,-100.707 160.526,-90.9633"/>
<polygon fill="midnightblue" stroke="midnightblue" points="162.897,-88.381 153.406,-83.6719 157.888,-93.2717 162.897,-88.381"/>
</g>
<!-- Node3&#45;&gt;Node2 -->
<g id="edge18" class="edge"><title>Node3&#45;&gt;Node2</title>
<path fill="none" stroke="midnightblue" d="M164.146,-83.6719C174.783,-91.9831 188.007,-103.698 197.835,-113.392"/>
<polygon fill="midnightblue" stroke="midnightblue" points="195.393,-115.902 204.874,-120.631 200.411,-111.022 195.393,-115.902"/>
</g>
<!-- Node4 -->
<g id="node7" class="node"><title>Node4</title>
<a xlink:href="atomic_8h.html" target="_top" xlink:title="fa/atomic.h">
<polygon fill="none" stroke="red" points="-0.0629883,-0.695312 -0.0629883,-23.3047 74.063,-23.3047 74.063,-0.695312 -0.0629883,-0.695312"/>
<text text-anchor="middle" x="37" y="-8.30469" font-family="Futura" font-size="11.00">fa/atomic.h</text>
</a>
</g>
<!-- Node3&#45;&gt;Node4 -->
<g id="edge6" class="edge"><title>Node3&#45;&gt;Node4</title>
<path fill="none" stroke="midnightblue" d="M128.898,-63.8881C110.044,-55.1266 80.8619,-39.9927 60.3439,-28.5"/>
<polygon fill="midnightblue" stroke="midnightblue" points="62.0154,-25.4241 51.5945,-23.5118 58.5483,-31.5052 62.0154,-25.4241"/>
</g>
<!-- Node5 -->
<g id="node10" class="node"><title>Node5</title>
<a xlink:href="queue_8h.html" target="_top" xlink:title="fa/atomic/queue.h">
<polygon fill="none" stroke="red" points="91.6484,-0.695312 91.6484,-23.3047 202.352,-23.3047 202.352,-0.695312 91.6484,-0.695312"/>
<text text-anchor="middle" x="147" y="-8.30469" font-family="Futura" font-size="11.00">fa/atomic/queue.h</text>
</a>
</g>
<!-- Node3&#45;&gt;Node5 -->
<g id="edge10" class="edge"><title>Node3&#45;&gt;Node5</title>
<path fill="none" stroke="midnightblue" d="M147,-60.6308C147,-53.218 147,-42.9888 147,-33.9096"/>
<polygon fill="midnightblue" stroke="midnightblue" points="150.5,-33.6718 147,-23.6719 143.5,-33.6719 150.5,-33.6718"/>
</g>
<!-- Node6 -->
<g id="node12" class="node"><title>Node6</title>
<a xlink:href="pair_8h.html" target="_top" xlink:title="fa/pair.h">
<polygon fill="none" stroke="black" points="220.694,-0.695312 220.694,-23.3047 281.306,-23.3047 281.306,-0.695312 220.694,-0.695312"/>
<text text-anchor="middle" x="251" y="-8.30469" font-family="Futura" font-size="11.00">fa/pair.h</text>
</a>
</g>
<!-- Node3&#45;&gt;Node6 -->
<g id="edge12" class="edge"><title>Node3&#45;&gt;Node6</title>
<path fill="none" stroke="midnightblue" d="M160.277,-60.6308C174.873,-51.5733 198.424,-38.3109 217.956,-28.0794"/>
<polygon fill="midnightblue" stroke="midnightblue" points="219.599,-31.17 226.882,-23.475 216.39,-24.9489 219.599,-31.17"/>
</g>
<!-- Node4&#45;&gt;Node3 -->
<g id="edge8" class="edge"><title>Node4&#45;&gt;Node3</title>
<path fill="none" stroke="midnightblue" d="M62.2014,-23.475C80.8192,-32.4417 105.767,-45.4725 123.875,-55.6224"/>
<polygon fill="midnightblue" stroke="midnightblue" points="122.23,-58.7137 132.65,-60.6308 125.7,-52.6342 122.23,-58.7137"/>
</g>
<!-- Node6&#45;&gt;Node2 -->
<g id="edge16" class="edge"><title>Node6&#45;&gt;Node2</title>
<path fill="none" stroke="midnightblue" d="M247.401,-23.6179C240.737,-43.275 226.38,-85.6281 217.823,-110.873"/>
<polygon fill="midnightblue" stroke="midnightblue" points="214.445,-109.934 214.55,-120.528 221.075,-112.181 214.445,-109.934"/>
</g>
<!-- Node6&#45;&gt;Node3 -->
<g id="edge14" class="edge"><title>Node6&#45;&gt;Node3</title>
<path fill="none" stroke="midnightblue" d="M237.643,-23.4184C221.496,-33.4331 194.467,-48.5552 174.004,-59.0532"/>
<polygon fill="midnightblue" stroke="midnightblue" points="172.209,-56.0376 164.845,-63.6543 175.352,-62.2927 172.209,-56.0376"/>
</g>
<!-- Node8&#45;&gt;Node2 -->
<g id="edge28" class="edge"><title>Node8&#45;&gt;Node2</title>
<path fill="none" stroke="midnightblue" d="M161.727,-180.631C170.322,-172.322 182.578,-160.475 192.716,-150.675"/>
<polygon fill="midnightblue" stroke="midnightblue" points="195.203,-153.139 199.96,-143.672 190.338,-148.106 195.203,-153.139"/>
</g>
<!-- Node8&#45;&gt;Node3 -->
<g id="edge24" class="edge"><title>Node8&#45;&gt;Node3</title>
<path fill="none" stroke="midnightblue" d="M128.29,-180.545C114.16,-172.688 97.1729,-160.451 89,-144 84.2543,-134.447 84.4095,-129.628 89,-120 95.5782,-106.203 108.405,-95.1427 120.327,-87.2264"/>
<polygon fill="midnightblue" stroke="midnightblue" points="122.47,-90.017 129.149,-81.7922 118.799,-84.0569 122.47,-90.017"/>
</g>
<!-- Node8&#45;&gt;Node6 -->
<g id="edge26" class="edge"><title>Node8&#45;&gt;Node6</title>
<path fill="none" stroke="midnightblue" d="M182.657,-184.512C204.739,-178.181 232.713,-166.142 247,-144 268.685,-110.392 262.476,-61.1735 256.456,-33.6277"/>
<polygon fill="midnightblue" stroke="midnightblue" points="259.781,-32.4856 254.051,-23.5739 252.973,-34.1137 259.781,-32.4856"/>
</g>
<!-- Node9 -->
<g id="node24" class="node"><title>Node9</title>
<a xlink:href="string_8h.html" target="_top" xlink:title="fa/string.h">
<polygon fill="none" stroke="black" points="97.8696,-120.695 97.8696,-143.305 166.13,-143.305 166.13,-120.695 97.8696,-120.695"/>
<text text-anchor="middle" x="132" y="-128.305" font-family="Futura" font-size="11.00">fa/string.h</text>
</a>
</g>
<!-- Node8&#45;&gt;Node9 -->
<g id="edge30" class="edge"><title>Node8&#45;&gt;Node9</title>
<path fill="none" stroke="midnightblue" d="M147.603,-180.631C145.121,-173.055 141.676,-162.538 138.654,-153.313"/>
<polygon fill="midnightblue" stroke="midnightblue" points="141.935,-152.085 135.496,-143.672 135.283,-154.265 141.935,-152.085"/>
</g>
<!-- Node9&#45;&gt;Node3 -->
<g id="edge32" class="edge"><title>Node9&#45;&gt;Node3</title>
<path fill="none" stroke="midnightblue" d="M134.682,-120.631C136.62,-113.137 139.303,-102.764 141.67,-93.6107"/>
<polygon fill="midnightblue" stroke="midnightblue" points="145.125,-94.2297 144.24,-83.6719 138.348,-92.477 145.125,-94.2297"/>
</g>
</g>
</svg>
