<?xml version="1.0" encoding="UTF-8" standalone="no"?>
<!DOCTYPE svg PUBLIC "-//W3C//DTD SVG 1.1//EN"
 "http://www.w3.org/Graphics/SVG/1.1/DTD/svg11.dtd">
<!-- Generated by graphviz version 2.28.0 (20121015.0031)
 -->
<!-- Title: include/fa/map.h Pages: 1 -->
<svg width="1097pt" height="152pt"
 viewBox="0.00 0.00 1097.00 152.00" xmlns="http://www.w3.org/2000/svg" xmlns:xlink="http://www.w3.org/1999/xlink">
<g id="graph1" class="graph" transform="scale(1 1) rotate(0) translate(4 148)">
<title>include/fa/map.h</title>
<!-- Node1 -->
<g id="node1" class="node"><title>Node1</title>
<polygon fill="#bfbfbf" stroke="black" points="542.914,-120.695 542.914,-143.305 647.086,-143.305 647.086,-120.695 542.914,-120.695"/>
<text text-anchor="middle" x="595" y="-128.305" font-family="Futura" font-size="11.00">include/fa/map.h</text>
</g>
<!-- Node2 -->
<g id="node3" class="node"><title>Node2</title>
<a xlink:href="buffer_8h.html" target="_top" xlink:title="include/fa/buffer.h">
<polygon fill="none" stroke="red" points="469.227,-60.6953 469.227,-83.3047 580.773,-83.3047 580.773,-60.6953 469.227,-60.6953"/>
<text text-anchor="middle" x="525" y="-68.3047" font-family="Futura" font-size="11.00">include/fa/buffer.h</text>
</a>
</g>
<!-- Node1&#45;&gt;Node2 -->
<g id="edge2" class="edge"><title>Node1&#45;&gt;Node2</title>
<path fill="none" stroke="midnightblue" d="M574.442,-113.966C562.61,-104.163 548.109,-92.1477 537.88,-83.6719"/>
<polygon fill="midnightblue" stroke="midnightblue" points="572.552,-116.946 582.485,-120.631 577.018,-111.555 572.552,-116.946"/>
</g>
<!-- Node10 -->
<g id="node19" class="node"><title>Node10</title>
<a xlink:href="literals_8h.html" target="_top" xlink:title="include/fa/util/literals.h">
<polygon fill="none" stroke="red" points="598.518,-60.6953 598.518,-83.3047 733.482,-83.3047 733.482,-60.6953 598.518,-60.6953"/>
<text text-anchor="middle" x="666" y="-68.3047" font-family="Futura" font-size="11.00">include/fa/util/literals.h</text>
</a>
</g>
<!-- Node1&#45;&gt;Node10 -->
<g id="edge18" class="edge"><title>Node1&#45;&gt;Node10</title>
<path fill="none" stroke="midnightblue" d="M615.503,-114.251C627.566,-104.396 642.46,-92.23 652.936,-83.6719"/>
<polygon fill="midnightblue" stroke="midnightblue" points="613.224,-111.594 607.693,-120.631 617.652,-117.015 613.224,-111.594"/>
</g>
<!-- Node3 -->
<g id="node5" class="node"><title>Node3</title>
<a xlink:href="io_8h.html" target="_top" xlink:title="include/fa/io.h">
<polygon fill="none" stroke="black" points="-0.815186,-0.695312 -0.815186,-23.3047 90.8152,-23.3047 90.8152,-0.695312 -0.815186,-0.695312"/>
<text text-anchor="middle" x="45" y="-8.30469" font-family="Futura" font-size="11.00">include/fa/io.h</text>
</a>
</g>
<!-- Node2&#45;&gt;Node3 -->
<g id="edge4" class="edge"><title>Node2&#45;&gt;Node3</title>
<path fill="none" stroke="midnightblue" d="M458.967,-65.4969C375.196,-58.1031 226.406,-43.5919 100,-24 97.0169,-23.5376 93.9498,-23.026 90.8628,-22.4837"/>
<polygon fill="midnightblue" stroke="midnightblue" points="458.836,-68.9988 469.103,-66.3848 459.446,-62.0255 458.836,-68.9988"/>
</g>
<!-- Node4 -->
<g id="node7" class="node"><title>Node4</title>
<a xlink:href="message_8h.html" target="_top" xlink:title="include/fa/midi/message.h">
<polygon fill="none" stroke="red" points="109.134,-0.695312 109.134,-23.3047 260.866,-23.3047 260.866,-0.695312 109.134,-0.695312"/>
<text text-anchor="middle" x="185" y="-8.30469" font-family="Futura" font-size="11.00">include/fa/midi/message.h</text>
</a>
</g>
<!-- Node2&#45;&gt;Node4 -->
<g id="edge6" class="edge"><title>Node2&#45;&gt;Node4</title>
<path fill="none" stroke="midnightblue" d="M458.816,-59.7098C396.986,-49.1623 305.465,-33.5499 245.531,-23.3259"/>
<polygon fill="midnightblue" stroke="midnightblue" points="458.41,-63.191 468.856,-61.4225 459.587,-56.2906 458.41,-63.191"/>
</g>
<!-- Node5 -->
<g id="node9" class="node"><title>Node5</title>
<a xlink:href="analysis_8h.html" target="_top" xlink:title="include/fa/signal/analysis.h">
<polygon fill="none" stroke="black" points="278.582,-0.695312 278.582,-23.3047 435.418,-23.3047 435.418,-0.695312 278.582,-0.695312"/>
<text text-anchor="middle" x="357" y="-8.30469" font-family="Futura" font-size="11.00">include/fa/signal/analysis.h</text>
</a>
</g>
<!-- Node2&#45;&gt;Node5 -->
<g id="edge8" class="edge"><title>Node2&#45;&gt;Node5</title>
<path fill="none" stroke="midnightblue" d="M485.202,-57.2603C455.117,-46.8738 414.454,-32.8353 387.058,-23.3771"/>
<polygon fill="midnightblue" stroke="midnightblue" points="484.37,-60.6757 494.965,-60.6308 486.655,-54.0589 484.37,-60.6757"/>
</g>
<!-- Node6 -->
<g id="node11" class="node"><title>Node6</title>
<a xlink:href="basic_8h.html" target="_top" xlink:title="include/fa/signal/basic.h">
<polygon fill="none" stroke="black" points="453.616,-0.695312 453.616,-23.3047 596.384,-23.3047 596.384,-0.695312 453.616,-0.695312"/>
<text text-anchor="middle" x="525" y="-8.30469" font-family="Futura" font-size="11.00">include/fa/signal/basic.h</text>
</a>
</g>
<!-- Node2&#45;&gt;Node6 -->
<g id="edge10" class="edge"><title>Node2&#45;&gt;Node6</title>
<path fill="none" stroke="midnightblue" d="M525,-50.4586C525,-41.4112 525,-31.1602 525,-23.6719"/>
<polygon fill="midnightblue" stroke="midnightblue" points="521.5,-50.6307 525,-60.6308 528.5,-50.6308 521.5,-50.6307"/>
</g>
<!-- Node7 -->
<g id="node13" class="node"><title>Node7</title>
<a xlink:href="external_8h.html" target="_top" xlink:title="include/fa/signal/external.h">
<polygon fill="none" stroke="black" points="614.008,-0.695312 614.008,-23.3047 771.992,-23.3047 771.992,-0.695312 614.008,-0.695312"/>
<text text-anchor="middle" x="693" y="-8.30469" font-family="Futura" font-size="11.00">include/fa/signal/external.h</text>
</a>
</g>
<!-- Node2&#45;&gt;Node7 -->
<g id="edge12" class="edge"><title>Node2&#45;&gt;Node7</title>
<path fill="none" stroke="midnightblue" d="M564.798,-57.2603C594.883,-46.8738 635.546,-32.8353 662.942,-23.3771"/>
<polygon fill="midnightblue" stroke="midnightblue" points="563.345,-54.0589 555.035,-60.6308 565.63,-60.6757 563.345,-54.0589"/>
</g>
<!-- Node8 -->
<g id="node15" class="node"><title>Node8</title>
<a xlink:href="filter_8h.html" target="_top" xlink:title="include/fa/signal/filter.h">
<polygon fill="none" stroke="black" points="789.786,-0.695312 789.786,-23.3047 928.214,-23.3047 928.214,-0.695312 789.786,-0.695312"/>
<text text-anchor="middle" x="859" y="-8.30469" font-family="Futura" font-size="11.00">include/fa/signal/filter.h</text>
</a>
</g>
<!-- Node2&#45;&gt;Node8 -->
<g id="edge14" class="edge"><title>Node2&#45;&gt;Node8</title>
<path fill="none" stroke="midnightblue" d="M590.769,-59.5791C651.494,-49.034 740.898,-33.5088 799.531,-23.3269"/>
<polygon fill="midnightblue" stroke="midnightblue" points="590.158,-56.1327 580.904,-61.2921 591.355,-63.0295 590.158,-56.1327"/>
</g>
<!-- Node9 -->
<g id="node17" class="node"><title>Node9</title>
<a xlink:href="synth_8h.html" target="_top" xlink:title="include/fa/signal/synth.h">
<polygon fill="none" stroke="black" points="946.567,-0.695312 946.567,-23.3047 1089.43,-23.3047 1089.43,-0.695312 946.567,-0.695312"/>
<text text-anchor="middle" x="1018" y="-8.30469" font-family="Futura" font-size="11.00">include/fa/signal/synth.h</text>
</a>
</g>
<!-- Node2&#45;&gt;Node9 -->
<g id="edge16" class="edge"><title>Node2&#45;&gt;Node9</title>
<path fill="none" stroke="midnightblue" d="M591.299,-59.8926C745.375,-39.1887 786.357,-42.0386 937,-24 940.1,-23.6288 943.265,-23.2401 946.462,-22.8398"/>
<polygon fill="midnightblue" stroke="midnightblue" points="590.424,-56.4792 580.985,-61.2908 591.364,-63.4157 590.424,-56.4792"/>
</g>
</g>
</svg>
