<?xml version="1.0" encoding="UTF-8" standalone="no"?>
<!DOCTYPE svg PUBLIC "-//W3C//DTD SVG 1.1//EN"
 "http://www.w3.org/Graphics/SVG/1.1/DTD/svg11.dtd">
<!-- Generated by graphviz version 2.28.0 (20121015.0031)
 -->
<!-- Title: include/fa/midi.h Pages: 1 -->
<svg width="464pt" height="392pt"
 viewBox="0.00 0.00 464.00 392.00" xmlns="http://www.w3.org/2000/svg" xmlns:xlink="http://www.w3.org/1999/xlink">
<g id="graph1" class="graph" transform="scale(1 1) rotate(0) translate(4 388)">
<title>include/fa/midi.h</title>
<!-- Node1 -->
<g id="node1" class="node"><title>Node1</title>
<polygon fill="#bfbfbf" stroke="black" points="183.473,-360.695 183.473,-383.305 286.527,-383.305 286.527,-360.695 183.473,-360.695"/>
<text text-anchor="middle" x="235" y="-368.305" font-family="Futura" font-size="11.00">include/fa/midi.h</text>
</g>
<!-- Node2 -->
<g id="node3" class="node"><title>Node2</title>
<a xlink:href="list_8h.html" target="_top" xlink:title="fa/list.h">
<polygon fill="none" stroke="black" points="152.949,-300.695 152.949,-323.305 207.051,-323.305 207.051,-300.695 152.949,-300.695"/>
<text text-anchor="middle" x="180" y="-308.305" font-family="Futura" font-size="11.00">fa/list.h</text>
</a>
</g>
<!-- Node1&#45;&gt;Node2 -->
<g id="edge2" class="edge"><title>Node1&#45;&gt;Node2</title>
<path fill="none" stroke="midnightblue" d="M225.167,-360.631C217.365,-352.403 206.273,-340.707 197.034,-330.963"/>
<polygon fill="midnightblue" stroke="midnightblue" points="199.541,-328.52 190.12,-323.672 194.461,-333.336 199.541,-328.52"/>
</g>
<!-- Node4 -->
<g id="node7" class="node"><title>Node4</title>
<a xlink:href="error_8h.html" target="_top" xlink:title="fa/error.h">
<polygon fill="none" stroke="red" points="324.161,-180.695 324.161,-203.305 389.839,-203.305 389.839,-180.695 324.161,-180.695"/>
<text text-anchor="middle" x="357" y="-188.305" font-family="Futura" font-size="11.00">fa/error.h</text>
</a>
</g>
<!-- Node1&#45;&gt;Node4 -->
<g id="edge56" class="edge"><title>Node1&#45;&gt;Node4</title>
<path fill="none" stroke="midnightblue" d="M242.087,-360.661C261.965,-331.658 318.466,-249.222 344.087,-211.841"/>
<polygon fill="midnightblue" stroke="midnightblue" points="347.127,-213.595 349.894,-203.368 341.353,-209.638 347.127,-213.595"/>
</g>
<!-- Node5 -->
<g id="node10" class="node"><title>Node5</title>
<a xlink:href="pair_8h.html" target="_top" xlink:title="fa/pair.h">
<polygon fill="none" stroke="black" points="105.694,-60.6953 105.694,-83.3047 166.306,-83.3047 166.306,-60.6953 105.694,-60.6953"/>
<text text-anchor="middle" x="136" y="-68.3047" font-family="Futura" font-size="11.00">fa/pair.h</text>
</a>
</g>
<!-- Node1&#45;&gt;Node5 -->
<g id="edge44" class="edge"><title>Node1&#45;&gt;Node5</title>
<path fill="none" stroke="midnightblue" d="M183.428,-367.51C114.252,-359.709 0,-334.491 0,-253 0,-253 0,-253 0,-191 0,-139.198 56.9878,-105.016 97.1843,-87.3489"/>
<polygon fill="midnightblue" stroke="midnightblue" points="98.6403,-90.5334 106.49,-83.4177 95.9162,-84.0851 98.6403,-90.5334"/>
</g>
<!-- Node6 -->
<g id="node16" class="node"><title>Node6</title>
<a xlink:href="time_8h.html" target="_top" xlink:title="fa/time.h">
<polygon fill="none" stroke="red" points="260.157,-60.6953 260.157,-83.3047 321.843,-83.3047 321.843,-60.6953 260.157,-60.6953"/>
<text text-anchor="middle" x="291" y="-68.3047" font-family="Futura" font-size="11.00">fa/time.h</text>
</a>
</g>
<!-- Node1&#45;&gt;Node6 -->
<g id="edge48" class="edge"><title>Node1&#45;&gt;Node6</title>
<path fill="none" stroke="midnightblue" d="M286.536,-366.018C351.84,-356.541 456,-329.442 456,-253 456,-253 456,-253 456,-191 456,-130.047 380.581,-97.5764 331.722,-82.936"/>
<polygon fill="midnightblue" stroke="midnightblue" points="332.612,-79.5503 322.035,-80.1605 330.684,-86.2796 332.612,-79.5503"/>
</g>
<!-- Node8 -->
<g id="node21" class="node"><title>Node8</title>
<a xlink:href="action_8h.html" target="_top" xlink:title="fa/action.h">
<polygon fill="none" stroke="black" points="66.3093,-180.695 66.3093,-203.305 137.691,-203.305 137.691,-180.695 66.3093,-180.695"/>
<text text-anchor="middle" x="102" y="-188.305" font-family="Futura" font-size="11.00">fa/action.h</text>
</a>
</g>
<!-- Node1&#45;&gt;Node8 -->
<g id="edge46" class="edge"><title>Node1&#45;&gt;Node8</title>
<path fill="none" stroke="midnightblue" d="M200.525,-360.532C181.45,-353.126 158.7,-341.376 144,-324 116.75,-291.788 107.108,-241.65 103.75,-213.667"/>
<polygon fill="midnightblue" stroke="midnightblue" points="107.205,-213.051 102.69,-203.467 100.242,-213.775 107.205,-213.051"/>
</g>
<!-- Node10 -->
<g id="node35" class="node"><title>Node10</title>
<a xlink:href="clock_8h.html" target="_top" xlink:title="fa/clock.h">
<polygon fill="none" stroke="black" points="304.541,-300.695 304.541,-323.305 371.459,-323.305 371.459,-300.695 304.541,-300.695"/>
<text text-anchor="middle" x="338" y="-308.305" font-family="Futura" font-size="11.00">fa/clock.h</text>
</a>
</g>
<!-- Node1&#45;&gt;Node10 -->
<g id="edge50" class="edge"><title>Node1&#45;&gt;Node10</title>
<path fill="none" stroke="midnightblue" d="M253.414,-360.631C269.281,-351.696 292.413,-338.67 310.478,-328.498"/>
<polygon fill="midnightblue" stroke="midnightblue" points="312.402,-331.431 319.398,-323.475 308.967,-325.332 312.402,-331.431"/>
</g>
<!-- Node3 -->
<g id="node5" class="node"><title>Node3</title>
<a xlink:href="fa_2fa_8h.html" target="_top" xlink:title="fa.h">
<polygon fill="none" stroke="red" points="213.273,-240.695 213.273,-263.305 248.727,-263.305 248.727,-240.695 213.273,-240.695"/>
<text text-anchor="middle" x="231" y="-248.305" font-family="Futura" font-size="11.00">fa.h</text>
</a>
</g>
<!-- Node2&#45;&gt;Node3 -->
<g id="edge4" class="edge"><title>Node2&#45;&gt;Node3</title>
<path fill="none" stroke="midnightblue" d="M183.802,-300.631C189.542,-292.403 199.501,-280.707 208.909,-270.963"/>
<polygon fill="midnightblue" stroke="midnightblue" points="211.62,-273.204 216.246,-263.672 206.686,-268.239 211.62,-273.204"/>
</g>
<!-- Node3&#45;&gt;Node1 -->
<g id="edge18" class="edge"><title>Node3&#45;&gt;Node1</title>
<path fill="none" stroke="midnightblue" d="M231.36,-263.618C232.023,-283.187 233.449,-325.25 234.306,-350.534"/>
<polygon fill="midnightblue" stroke="midnightblue" points="230.808,-350.653 234.645,-360.528 237.804,-350.415 230.808,-350.653"/>
</g>
<!-- Node3&#45;&gt;Node2 -->
<g id="edge16" class="edge"><title>Node3&#45;&gt;Node2</title>
<path fill="none" stroke="midnightblue" d="M226.986,-263.672C221.144,-271.983 211.141,-283.698 201.747,-293.392"/>
<polygon fill="midnightblue" stroke="midnightblue" points="199.079,-291.108 194.434,-300.631 204.003,-296.083 199.079,-291.108"/>
</g>
<!-- Node3&#45;&gt;Node4 -->
<g id="edge6" class="edge"><title>Node3&#45;&gt;Node4</title>
<path fill="none" stroke="midnightblue" d="M248.21,-240.631C266.568,-231.409 295.862,-217.829 319.503,-207.527"/>
<polygon fill="midnightblue" stroke="midnightblue" points="321.109,-210.646 328.909,-203.475 318.34,-204.217 321.109,-210.646"/>
</g>
<!-- Node3&#45;&gt;Node5 -->
<g id="edge10" class="edge"><title>Node3&#45;&gt;Node5</title>
<path fill="none" stroke="midnightblue" d="M222.106,-240.661C202.647,-211.904 158.908,-130.615 142.129,-92.801"/>
<polygon fill="midnightblue" stroke="midnightblue" points="145.262,-91.2239 138.154,-83.368 138.812,-93.9423 145.262,-91.2239"/>
</g>
<!-- Node3&#45;&gt;Node6 -->
<g id="edge20" class="edge"><title>Node3&#45;&gt;Node6</title>
<path fill="none" stroke="midnightblue" d="M229.129,-240.339C231.763,-230.919 238.281,-216.739 243,-204 257.345,-165.277 270.209,-118.665 279.804,-92.7836"/>
<polygon fill="midnightblue" stroke="midnightblue" points="283.116,-93.9261 283.579,-83.3413 276.617,-91.3274 283.116,-93.9261"/>
</g>
<!-- Node3&#45;&gt;Node8 -->
<g id="edge26" class="edge"><title>Node3&#45;&gt;Node8</title>
<path fill="none" stroke="midnightblue" d="M213.1,-244.903C191.197,-236.186 154.403,-219.889 129.1,-207.874"/>
<polygon fill="midnightblue" stroke="midnightblue" points="130.548,-204.686 120.02,-203.503 127.512,-210.994 130.548,-204.686"/>
</g>
<!-- Node9 -->
<g id="node26" class="node"><title>Node9</title>
<a xlink:href="signal_8h.html" target="_top" xlink:title="signal.h">
<polygon fill="none" stroke="red" points="199.71,-120.695 199.71,-143.305 254.29,-143.305 254.29,-120.695 199.71,-120.695"/>
<text text-anchor="middle" x="227" y="-128.305" font-family="Futura" font-size="11.00">signal.h</text>
</a>
</g>
<!-- Node3&#45;&gt;Node9 -->
<g id="edge42" class="edge"><title>Node3&#45;&gt;Node9</title>
<path fill="none" stroke="midnightblue" d="M226.598,-240.528C222.806,-221.071 220.971,-179.023 222.424,-153.656"/>
<polygon fill="midnightblue" stroke="midnightblue" points="225.917,-153.882 223.29,-143.618 218.943,-153.28 225.917,-153.882"/>
</g>
<!-- Node4&#45;&gt;Node3 -->
<g id="edge8" class="edge"><title>Node4&#45;&gt;Node3</title>
<path fill="none" stroke="midnightblue" d="M339.614,-203.457C318.513,-214.048 283.142,-230.323 258.407,-240.815"/>
<polygon fill="midnightblue" stroke="midnightblue" points="256.741,-237.718 248.855,-244.793 259.432,-244.18 256.741,-237.718"/>
</g>
<!-- Node5&#45;&gt;Node2 -->
<g id="edge14" class="edge"><title>Node5&#45;&gt;Node2</title>
<path fill="none" stroke="midnightblue" d="M121.459,-83.4084C93.1936,-105.005 35.4218,-156.628 57,-204 76.1388,-246.016 120.829,-277.932 150.736,-295.559"/>
<polygon fill="midnightblue" stroke="midnightblue" points="149.08,-298.644 159.499,-300.567 152.553,-292.566 149.08,-298.644"/>
</g>
<!-- Node5&#45;&gt;Node3 -->
<g id="edge12" class="edge"><title>Node5&#45;&gt;Node3</title>
<path fill="none" stroke="midnightblue" d="M144.913,-83.368C164.388,-112.159 208.126,-193.451 224.888,-231.237"/>
<polygon fill="midnightblue" stroke="midnightblue" points="221.75,-232.804 228.857,-240.661 228.201,-230.086 221.75,-232.804"/>
</g>
<!-- Node6&#45;&gt;Node3 -->
<g id="edge22" class="edge"><title>Node6&#45;&gt;Node3</title>
<path fill="none" stroke="midnightblue" d="M293.251,-83.3413C291.726,-105.671 277.321,-159.942 261,-204 257.571,-213.255 253.193,-223.272 248.599,-231.671"/>
<polygon fill="midnightblue" stroke="midnightblue" points="245.538,-229.97 243.361,-240.339 251.529,-233.591 245.538,-229.97"/>
</g>
<!-- Node7 -->
<g id="node19" class="node"><title>Node7</title>
<a xlink:href="ratio_8h.html" target="_top" xlink:title="fa/ratio.h">
<polygon fill="none" stroke="red" points="258.927,-0.695312 258.927,-23.3047 323.073,-23.3047 323.073,-0.695312 258.927,-0.695312"/>
<text text-anchor="middle" x="291" y="-8.30469" font-family="Futura" font-size="11.00">fa/ratio.h</text>
</a>
</g>
<!-- Node6&#45;&gt;Node7 -->
<g id="edge24" class="edge"><title>Node6&#45;&gt;Node7</title>
<path fill="none" stroke="midnightblue" d="M291,-60.6308C291,-53.218 291,-42.9888 291,-33.9096"/>
<polygon fill="midnightblue" stroke="midnightblue" points="294.5,-33.6718 291,-23.6719 287.5,-33.6719 294.5,-33.6718"/>
</g>
<!-- Node8&#45;&gt;Node2 -->
<g id="edge32" class="edge"><title>Node8&#45;&gt;Node2</title>
<path fill="none" stroke="midnightblue" d="M109.019,-203.618C122.186,-223.538 150.761,-266.767 167.36,-291.878"/>
<polygon fill="midnightblue" stroke="midnightblue" points="164.644,-294.116 173.078,-300.528 170.483,-290.256 164.644,-294.116"/>
</g>
<!-- Node8&#45;&gt;Node3 -->
<g id="edge28" class="edge"><title>Node8&#45;&gt;Node3</title>
<path fill="none" stroke="midnightblue" d="M130.633,-203.475C152.584,-212.606 182.48,-225.952 204.009,-236.178"/>
<polygon fill="midnightblue" stroke="midnightblue" points="202.725,-239.445 213.253,-240.631 205.763,-233.138 202.725,-239.445"/>
</g>
<!-- Node8&#45;&gt;Node5 -->
<g id="edge30" class="edge"><title>Node8&#45;&gt;Node5</title>
<path fill="none" stroke="midnightblue" d="M105.017,-180.528C110.649,-160.984 122.848,-118.645 130.146,-93.3159"/>
<polygon fill="midnightblue" stroke="midnightblue" points="133.535,-94.196 132.941,-83.6179 126.809,-92.2579 133.535,-94.196"/>
</g>
<!-- Node8&#45;&gt;Node9 -->
<g id="edge34" class="edge"><title>Node8&#45;&gt;Node9</title>
<path fill="none" stroke="midnightblue" d="M124.347,-180.631C144.045,-171.491 172.969,-158.071 195.098,-147.802"/>
<polygon fill="midnightblue" stroke="midnightblue" points="196.827,-150.859 204.425,-143.475 193.88,-144.509 196.827,-150.859"/>
</g>
<!-- Node9&#45;&gt;Node3 -->
<g id="edge36" class="edge"><title>Node9&#45;&gt;Node3</title>
<path fill="none" stroke="midnightblue" d="M231.43,-143.618C235.213,-163.187 237.035,-205.25 235.565,-230.534"/>
<polygon fill="midnightblue" stroke="midnightblue" points="232.076,-230.262 234.692,-240.528 239.049,-230.871 232.076,-230.262"/>
</g>
<!-- Node9&#45;&gt;Node5 -->
<g id="edge38" class="edge"><title>Node9&#45;&gt;Node5</title>
<path fill="none" stroke="midnightblue" d="M210.731,-120.631C196.97,-111.86 177.023,-99.1468 161.198,-89.0605"/>
<polygon fill="midnightblue" stroke="midnightblue" points="162.749,-85.8983 152.435,-83.475 158.987,-91.8013 162.749,-85.8983"/>
</g>
<!-- Node9&#45;&gt;Node6 -->
<g id="edge40" class="edge"><title>Node9&#45;&gt;Node6</title>
<path fill="none" stroke="midnightblue" d="M238.442,-120.631C247.61,-112.322 260.683,-100.475 271.497,-90.6745"/>
<polygon fill="midnightblue" stroke="midnightblue" points="274.165,-92.9806 279.224,-83.6719 269.464,-87.7936 274.165,-92.9806"/>
</g>
<!-- Node10&#45;&gt;Node3 -->
<g id="edge52" class="edge"><title>Node10&#45;&gt;Node3</title>
<path fill="none" stroke="midnightblue" d="M318.871,-300.631C301.901,-291.432 276.93,-277.897 257.941,-267.604"/>
<polygon fill="midnightblue" stroke="midnightblue" points="259.356,-264.389 248.896,-262.701 256.02,-270.543 259.356,-264.389"/>
</g>
<!-- Node10&#45;&gt;Node6 -->
<g id="edge54" class="edge"><title>Node10&#45;&gt;Node6</title>
<path fill="none" stroke="midnightblue" d="M349.097,-300.588C371.162,-278.561 416.859,-225.528 398,-180 381.471,-140.095 342.038,-107.312 315.939,-88.9635"/>
<polygon fill="midnightblue" stroke="midnightblue" points="317.884,-86.0533 307.652,-83.3047 313.937,-91.8342 317.884,-86.0533"/>
</g>
</g>
</svg>
