<?xml version="1.0" encoding="UTF-8" standalone="no"?>
<!DOCTYPE svg PUBLIC "-//W3C//DTD SVG 1.1//EN"
 "http://www.w3.org/Graphics/SVG/1.1/DTD/svg11.dtd">
<!-- Generated by graphviz version 2.28.0 (20121015.0031)
 -->
<!-- Title: include/fa/midi.h Pages: 1 -->
<svg width="868pt" height="212pt"
 viewBox="0.00 0.00 868.29 212.00" xmlns="http://www.w3.org/2000/svg" xmlns:xlink="http://www.w3.org/1999/xlink">
<g id="graph1" class="graph" transform="scale(1 1) rotate(0) translate(4 208)">
<title>include/fa/midi.h</title>
<!-- Node1 -->
<g id="node1" class="node"><title>Node1</title>
<polygon fill="#bfbfbf" stroke="black" points="364.761,-180.695 364.761,-203.305 467.816,-203.305 467.816,-180.695 364.761,-180.695"/>
<text text-anchor="middle" x="416.289" y="-188.305" font-family="Futura" font-size="11.00">include/fa/midi.h</text>
</g>
<!-- Node2 -->
<g id="node3" class="node"><title>Node2</title>
<a xlink:href="fa_2fa_8h.html" target="_top" xlink:title="include/fa/fa.h">
<polygon fill="none" stroke="red" points="370.135,-120.695 370.135,-143.305 462.442,-143.305 462.442,-120.695 370.135,-120.695"/>
<text text-anchor="middle" x="416.289" y="-128.305" font-family="Futura" font-size="11.00">include/fa/fa.h</text>
</a>
</g>
<!-- Node1&#45;&gt;Node2 -->
<g id="edge2" class="edge"><title>Node1&#45;&gt;Node2</title>
<path fill="none" stroke="midnightblue" d="M416.289,-170.459C416.289,-161.411 416.289,-151.16 416.289,-143.672"/>
<polygon fill="midnightblue" stroke="midnightblue" points="412.789,-170.631 416.289,-180.631 419.789,-170.631 412.789,-170.631"/>
</g>
<!-- Node3 -->
<g id="node5" class="node"><title>Node3</title>
<a xlink:href="action_8h.html" target="_top" xlink:title="include/fa/action.h">
<polygon fill="none" stroke="red" points="48.0349,-0.695312 48.0349,-23.3047 160.543,-23.3047 160.543,-0.695312 48.0349,-0.695312"/>
<text text-anchor="middle" x="104.289" y="-8.30469" font-family="Futura" font-size="11.00">include/fa/action.h</text>
</a>
</g>
<!-- Node2&#45;&gt;Node3 -->
<g id="edge4" class="edge"><title>Node2&#45;&gt;Node3</title>
<path fill="none" stroke="midnightblue" d="M359.873,-129.72C306.825,-126.549 226.971,-116.289 166.289,-84 138.127,-69.0148 113.946,-39.1726 105.734,-23.3718"/>
<polygon fill="midnightblue" stroke="midnightblue" points="359.939,-133.229 370.111,-130.265 360.311,-126.239 359.939,-133.229"/>
</g>
<!-- Node4 -->
<g id="node9" class="node"><title>Node4</title>
<a xlink:href="atomic_8h.html" target="_top" xlink:title="include/fa/atomic.h">
<polygon fill="none" stroke="black" points="494.663,-60.6953 494.663,-83.3047 609.915,-83.3047 609.915,-60.6953 494.663,-60.6953"/>
<text text-anchor="middle" x="552.289" y="-68.3047" font-family="Futura" font-size="11.00">include/fa/atomic.h</text>
</a>
</g>
<!-- Node2&#45;&gt;Node4 -->
<g id="edge10" class="edge"><title>Node2&#45;&gt;Node4</title>
<path fill="none" stroke="midnightblue" d="M444.456,-116.454C467.264,-106.193 499.131,-92.6885 522.392,-83.475"/>
<polygon fill="midnightblue" stroke="midnightblue" points="442.936,-113.3 435.287,-120.631 445.838,-119.67 442.936,-113.3"/>
</g>
<!-- Node5 -->
<g id="node12" class="node"><title>Node5</title>
<a xlink:href="buffer_8h.html" target="_top" xlink:title="include/fa/buffer.h">
<polygon fill="none" stroke="red" points="184.516,-60.6953 184.516,-83.3047 296.062,-83.3047 296.062,-60.6953 184.516,-60.6953"/>
<text text-anchor="middle" x="240.289" y="-68.3047" font-family="Futura" font-size="11.00">include/fa/buffer.h</text>
</a>
</g>
<!-- Node2&#45;&gt;Node5 -->
<g id="edge14" class="edge"><title>Node2&#45;&gt;Node5</title>
<path fill="none" stroke="midnightblue" d="M375.006,-117.396C343.449,-106.996 300.603,-92.8764 271.778,-83.3771"/>
<polygon fill="midnightblue" stroke="midnightblue" points="374.23,-120.825 384.824,-120.631 376.421,-114.177 374.23,-120.825"/>
</g>
<!-- Node6 -->
<g id="node14" class="node"><title>Node6</title>
<a xlink:href="io_8h.html" target="_top" xlink:title="include/fa/io.h">
<polygon fill="none" stroke="black" points="307.474,-0.695312 307.474,-23.3047 399.104,-23.3047 399.104,-0.695312 307.474,-0.695312"/>
<text text-anchor="middle" x="353.289" y="-8.30469" font-family="Futura" font-size="11.00">include/fa/io.h</text>
</a>
</g>
<!-- Node2&#45;&gt;Node6 -->
<g id="edge30" class="edge"><title>Node2&#45;&gt;Node6</title>
<path fill="none" stroke="midnightblue" d="M433.986,-112.531C445.899,-97.7684 457.692,-76.8331 447.289,-60 436.066,-41.8408 415.467,-30.463 396.406,-23.461"/>
<polygon fill="midnightblue" stroke="midnightblue" points="431.039,-110.587 427.125,-120.432 436.324,-115.176 431.039,-110.587"/>
</g>
<!-- Node7 -->
<g id="node16" class="node"><title>Node7</title>
<a xlink:href="clock_8h.html" target="_top" xlink:title="include/fa/clock.h">
<polygon fill="none" stroke="red" points="752.267,-60.6953 752.267,-83.3047 860.311,-83.3047 860.311,-60.6953 752.267,-60.6953"/>
<text text-anchor="middle" x="806.289" y="-68.3047" font-family="Futura" font-size="11.00">include/fa/clock.h</text>
</a>
</g>
<!-- Node2&#45;&gt;Node7 -->
<g id="edge18" class="edge"><title>Node2&#45;&gt;Node7</title>
<path fill="none" stroke="midnightblue" d="M472.727,-123.414C537.966,-114.522 648.528,-99.0794 743.289,-84 746.14,-83.5463 749.061,-83.0714 752.01,-82.5841"/>
<polygon fill="midnightblue" stroke="midnightblue" points="472.092,-119.968 462.655,-124.783 473.035,-126.904 472.092,-119.968"/>
</g>
<!-- Node8 -->
<g id="node19" class="node"><title>Node8</title>
<a xlink:href="dynamic_8h.html" target="_top" xlink:title="include/fa/dynamic.h">
<polygon fill="none" stroke="black" points="314.207,-60.6953 314.207,-83.3047 438.37,-83.3047 438.37,-60.6953 314.207,-60.6953"/>
<text text-anchor="middle" x="376.289" y="-68.3047" font-family="Futura" font-size="11.00">include/fa/dynamic.h</text>
</a>
</g>
<!-- Node2&#45;&gt;Node8 -->
<g id="edge22" class="edge"><title>Node2&#45;&gt;Node8</title>
<path fill="none" stroke="midnightblue" d="M403.345,-112.231C396.823,-102.775 389.154,-91.6539 383.649,-83.6719"/>
<polygon fill="midnightblue" stroke="midnightblue" points="400.579,-114.386 409.138,-120.631 406.341,-110.412 400.579,-114.386"/>
</g>
<!-- Node9 -->
<g id="node21" class="node"><title>Node9</title>
<a xlink:href="error_8h.html" target="_top" xlink:title="include/fa/error.h">
<polygon fill="none" stroke="red" points="627.887,-60.6953 627.887,-83.3047 734.691,-83.3047 734.691,-60.6953 627.887,-60.6953"/>
<text text-anchor="middle" x="681.289" y="-68.3047" font-family="Futura" font-size="11.00">include/fa/error.h</text>
</a>
</g>
<!-- Node2&#45;&gt;Node9 -->
<g id="edge24" class="edge"><title>Node2&#45;&gt;Node9</title>
<path fill="none" stroke="midnightblue" d="M468.193,-118.396C514.533,-107.918 581.968,-93.1848 628.559,-83.3771"/>
<polygon fill="midnightblue" stroke="midnightblue" points="467.327,-115.004 458.35,-120.631 468.876,-121.83 467.327,-115.004"/>
</g>
<!-- Node10 -->
<g id="node26" class="node"><title>Node10</title>
<a xlink:href="list_8h.html" target="_top" xlink:title="include/fa/list.h">
<polygon fill="none" stroke="red" points="14.6743,-60.6953 14.6743,-83.3047 109.903,-83.3047 109.903,-60.6953 14.6743,-60.6953"/>
<text text-anchor="middle" x="62.2888" y="-68.3047" font-family="Futura" font-size="11.00">include/fa/list.h</text>
</a>
</g>
<!-- Node2&#45;&gt;Node10 -->
<g id="edge32" class="edge"><title>Node2&#45;&gt;Node10</title>
<path fill="none" stroke="midnightblue" d="M359.969,-123.224C299.273,-114.095 200.238,-98.3716 115.289,-84 113.564,-83.7082 111.813,-83.41 110.047,-83.1072"/>
<polygon fill="midnightblue" stroke="midnightblue" points="359.7,-126.723 370.108,-124.741 360.735,-119.8 359.7,-126.723"/>
</g>
<!-- Node3&#45;&gt;Node1 -->
<g id="edge8" class="edge"><title>Node3&#45;&gt;Node1</title>
<path fill="none" stroke="midnightblue" d="M56.5711,-26.7431C22.7993,-38.9737 -13.4243,-58.8126 5.28882,-84 48.1619,-141.706 264.189,-173.584 364.705,-185.499"/>
<polygon fill="midnightblue" stroke="midnightblue" points="58.1281,-29.9089 66.4453,-23.3458 55.8506,-23.2897 58.1281,-29.9089"/>
</g>
<!-- Node3&#45;&gt;Node2 -->
<g id="edge6" class="edge"><title>Node3&#45;&gt;Node2</title>
<path fill="none" stroke="midnightblue" d="M123.939,-30.7904C138.826,-47.2719 160.087,-71.1221 184.289,-84 243.56,-115.539 321.122,-126.06 369.937,-129.488"/>
<polygon fill="midnightblue" stroke="midnightblue" points="126.489,-28.3917 117.159,-23.3718 121.322,-33.1144 126.489,-28.3917"/>
</g>
<!-- Node4&#45;&gt;Node2 -->
<g id="edge12" class="edge"><title>Node4&#45;&gt;Node2</title>
<path fill="none" stroke="midnightblue" d="M523.859,-87.6644C500.982,-97.9501 469.113,-111.45 445.919,-120.631"/>
<polygon fill="midnightblue" stroke="midnightblue" points="525.411,-90.8038 533.062,-83.475 522.51,-84.4329 525.411,-90.8038"/>
</g>
<!-- Node5&#45;&gt;Node6 -->
<g id="edge16" class="edge"><title>Node5&#45;&gt;Node6</title>
<path fill="none" stroke="midnightblue" d="M269.435,-56.0398C289.323,-45.8319 315.171,-32.5651 332.881,-23.475"/>
<polygon fill="midnightblue" stroke="midnightblue" points="267.789,-52.9506 260.491,-60.6308 270.986,-59.1781 267.789,-52.9506"/>
</g>
<!-- Node7&#45;&gt;Node1 -->
<g id="edge20" class="edge"><title>Node7&#45;&gt;Node1</title>
<path fill="none" stroke="midnightblue" d="M762.372,-86.2877C683.948,-110.016 521.411,-159.194 450.557,-180.632"/>
<polygon fill="midnightblue" stroke="midnightblue" points="763.401,-89.633 771.959,-83.3869 761.374,-82.933 763.401,-89.633"/>
</g>
<!-- Node9&#45;&gt;Node1 -->
<g id="edge28" class="edge"><title>Node9&#45;&gt;Node1</title>
<path fill="none" stroke="midnightblue" d="M648.665,-87.527C594.49,-111.65 487.246,-159.404 439.806,-180.528"/>
<polygon fill="midnightblue" stroke="midnightblue" points="650.113,-90.7134 657.825,-83.4482 647.266,-84.3187 650.113,-90.7134"/>
</g>
<!-- Node9&#45;&gt;Node2 -->
<g id="edge26" class="edge"><title>Node9&#45;&gt;Node2</title>
<path fill="none" stroke="midnightblue" d="M629.126,-85.662C580.565,-96.6411 509,-112.258 462.454,-122.001"/>
<polygon fill="midnightblue" stroke="midnightblue" points="630.145,-89.0199 639.122,-83.3933 628.596,-82.1935 630.145,-89.0199"/>
</g>
<!-- Node10&#45;&gt;Node1 -->
<g id="edge38" class="edge"><title>Node10&#45;&gt;Node1</title>
<path fill="none" stroke="midnightblue" d="M103.026,-86.5789C174.537,-110.416 321.132,-159.281 385.184,-180.632"/>
<polygon fill="midnightblue" stroke="midnightblue" points="104.043,-83.2289 93.4497,-83.3869 101.83,-89.8697 104.043,-83.2289"/>
</g>
<!-- Node10&#45;&gt;Node2 -->
<g id="edge36" class="edge"><title>Node10&#45;&gt;Node2</title>
<path fill="none" stroke="midnightblue" d="M120.015,-81.7268C124.524,-82.5048 128.989,-83.2726 133.289,-84 216.824,-98.1324 313.98,-113.572 370.087,-122.763"/>
<polygon fill="midnightblue" stroke="midnightblue" points="120.572,-78.2713 110.123,-80.0193 119.382,-85.1693 120.572,-78.2713"/>
</g>
<!-- Node10&#45;&gt;Node3 -->
<g id="edge34" class="edge"><title>Node10&#45;&gt;Node3</title>
<path fill="none" stroke="midnightblue" d="M75.6685,-52.5233C82.5613,-43.0047 90.7212,-31.7362 96.5609,-23.6719"/>
<polygon fill="midnightblue" stroke="midnightblue" points="72.8279,-50.4785 69.7976,-60.6308 78.4975,-54.5841 72.8279,-50.4785"/>
</g>
</g>
</svg>
