<?xml version="1.0" encoding="UTF-8" standalone="no"?>
<!DOCTYPE svg PUBLIC "-//W3C//DTD SVG 1.1//EN"
 "http://www.w3.org/Graphics/SVG/1.1/DTD/svg11.dtd">
<!-- Generated by graphviz version 2.28.0 (20121015.0031)
 -->
<!-- Title: include/fa/pair.h Pages: 1 -->
<svg width="603pt" height="392pt"
 viewBox="0.00 0.00 603.00 392.00" xmlns="http://www.w3.org/2000/svg" xmlns:xlink="http://www.w3.org/1999/xlink">
<g id="graph1" class="graph" transform="scale(1 1) rotate(0) translate(4 388)">
<title>include/fa/pair.h</title>
<!-- Node1 -->
<g id="node1" class="node"><title>Node1</title>
<polygon fill="#bfbfbf" stroke="black" points="216.131,-360.695 216.131,-383.305 317.869,-383.305 317.869,-360.695 216.131,-360.695"/>
<text text-anchor="middle" x="267" y="-368.305" font-family="Futura" font-size="11.00">include/fa/pair.h</text>
</g>
<!-- Node2 -->
<g id="node3" class="node"><title>Node2</title>
<a xlink:href="action_8h.html" target="_top" xlink:title="include/fa/action.h">
<polygon fill="none" stroke="red" points="252.746,-300.695 252.746,-323.305 365.254,-323.305 365.254,-300.695 252.746,-300.695"/>
<text text-anchor="middle" x="309" y="-308.305" font-family="Futura" font-size="11.00">include/fa/action.h</text>
</a>
</g>
<!-- Node1&#45;&gt;Node2 -->
<g id="edge2" class="edge"><title>Node1&#45;&gt;Node2</title>
<path fill="none" stroke="midnightblue" d="M280.38,-352.523C287.272,-343.005 295.432,-331.736 301.272,-323.672"/>
<polygon fill="midnightblue" stroke="midnightblue" points="277.539,-350.479 274.509,-360.631 283.209,-354.584 277.539,-350.479"/>
</g>
<!-- Node3 -->
<g id="node5" class="node"><title>Node3</title>
<a xlink:href="audio_2stream_8h.html" target="_top" xlink:title="include/fa/audio/stream.h">
<polygon fill="none" stroke="red" points="122.296,-240.695 122.296,-263.305 271.704,-263.305 271.704,-240.695 122.296,-240.695"/>
<text text-anchor="middle" x="197" y="-248.305" font-family="Futura" font-size="11.00">include/fa/audio/stream.h</text>
</a>
</g>
<!-- Node1&#45;&gt;Node3 -->
<g id="edge30" class="edge"><title>Node1&#45;&gt;Node3</title>
<path fill="none" stroke="midnightblue" d="M255.656,-351.878C240.76,-326.767 215.116,-283.538 203.299,-263.618"/>
<polygon fill="midnightblue" stroke="midnightblue" points="252.676,-353.713 260.788,-360.528 258.696,-350.142 252.676,-353.713"/>
</g>
<!-- Node4 -->
<g id="node7" class="node"><title>Node4</title>
<a xlink:href="fa_2fa_8h.html" target="_top" xlink:title="include/fa/fa.h">
<polygon fill="none" stroke="red" points="262.846,-180.695 262.846,-203.305 355.154,-203.305 355.154,-180.695 262.846,-180.695"/>
<text text-anchor="middle" x="309" y="-188.305" font-family="Futura" font-size="11.00">include/fa/fa.h</text>
</a>
</g>
<!-- Node1&#45;&gt;Node4 -->
<g id="edge34" class="edge"><title>Node1&#45;&gt;Node4</title>
<path fill="none" stroke="midnightblue" d="M220.883,-357.325C159.723,-335.571 64.2859,-290.363 104,-240 123.013,-215.889 208.072,-202.747 262.586,-196.867"/>
<polygon fill="midnightblue" stroke="midnightblue" points="219.784,-360.648 230.379,-360.612 222.074,-354.033 219.784,-360.648"/>
</g>
<!-- Node5 -->
<g id="node10" class="node"><title>Node5</title>
<a xlink:href="buffer_8h.html" target="_top" xlink:title="include/fa/buffer.h">
<polygon fill="none" stroke="red" points="336.227,-60.6953 336.227,-83.3047 447.773,-83.3047 447.773,-60.6953 336.227,-60.6953"/>
<text text-anchor="middle" x="392" y="-68.3047" font-family="Futura" font-size="11.00">include/fa/buffer.h</text>
</a>
</g>
<!-- Node1&#45;&gt;Node5 -->
<g id="edge32" class="edge"><title>Node1&#45;&gt;Node5</title>
<path fill="none" stroke="midnightblue" d="M328.108,-367.974C401.83,-360.652 516,-335.925 516,-253 516,-253 516,-253 516,-191 516,-158.216 517.381,-144.852 496,-120 480.429,-101.901 456.474,-90.427 435.478,-83.3514"/>
<polygon fill="midnightblue" stroke="midnightblue" points="327.631,-364.503 317.99,-368.896 328.266,-371.474 327.631,-364.503"/>
</g>
<!-- Node6 -->
<g id="node12" class="node"><title>Node6</title>
<a xlink:href="message_8h.html" target="_top" xlink:title="include/fa/midi/message.h">
<polygon fill="none" stroke="black" points="232.134,-0.695312 232.134,-23.3047 383.866,-23.3047 383.866,-0.695312 232.134,-0.695312"/>
<text text-anchor="middle" x="308" y="-8.30469" font-family="Futura" font-size="11.00">include/fa/midi/message.h</text>
</a>
</g>
<!-- Node1&#45;&gt;Node6 -->
<g id="edge38" class="edge"><title>Node1&#45;&gt;Node6</title>
<path fill="none" stroke="midnightblue" d="M205.521,-369.793C126.677,-364.605 0,-342.364 0,-253 0,-253 0,-253 0,-131 0,-78.3904 158.681,-40.5109 248.249,-23.3201"/>
<polygon fill="midnightblue" stroke="midnightblue" points="205.649,-373.306 215.836,-370.393 206.056,-366.318 205.649,-373.306"/>
</g>
<!-- Node7 -->
<g id="node15" class="node"><title>Node7</title>
<a xlink:href="analysis_8h.html" target="_top" xlink:title="include/fa/signal/analysis.h">
<polygon fill="none" stroke="black" points="438.582,-0.695312 438.582,-23.3047 595.418,-23.3047 595.418,-0.695312 438.582,-0.695312"/>
<text text-anchor="middle" x="517" y="-8.30469" font-family="Futura" font-size="11.00">include/fa/signal/analysis.h</text>
</a>
</g>
<!-- Node1&#45;&gt;Node7 -->
<g id="edge44" class="edge"><title>Node1&#45;&gt;Node7</title>
<path fill="none" stroke="midnightblue" d="M328.436,-371.123C379.249,-368.496 451.359,-358.226 504,-324 536.357,-302.962 554,-291.595 554,-253 554,-253 554,-253 554,-131 554,-89.5637 532.97,-43.5374 522.62,-23.3932"/>
<polygon fill="midnightblue" stroke="midnightblue" points="328.09,-367.635 318.25,-371.563 328.392,-374.629 328.09,-367.635"/>
</g>
<!-- Node8 -->
<g id="node17" class="node"><title>Node8</title>
<a xlink:href="map_8h.html" target="_top" xlink:title="include/fa/map.h">
<polygon fill="none" stroke="red" points="175.914,-120.695 175.914,-143.305 280.086,-143.305 280.086,-120.695 175.914,-120.695"/>
<text text-anchor="middle" x="228" y="-128.305" font-family="Futura" font-size="11.00">include/fa/map.h</text>
</a>
</g>
<!-- Node1&#45;&gt;Node8 -->
<g id="edge36" class="edge"><title>Node1&#45;&gt;Node8</title>
<path fill="none" stroke="midnightblue" d="M205.786,-364.028C176.815,-357.828 143.682,-346.117 121,-324 100.772,-304.276 104.734,-291.853 100,-264 98.2129,-253.484 95.4831,-249.663 100,-240 122.016,-192.901 176.088,-159.245 206.439,-143.337"/>
<polygon fill="midnightblue" stroke="midnightblue" points="205.349,-367.509 215.836,-365.999 206.697,-360.64 205.349,-367.509"/>
</g>
<!-- Node9 -->
<g id="node20" class="node"><title>Node9</title>
<a xlink:href="option_8h.html" target="_top" xlink:title="include/fa/option.h">
<polygon fill="none" stroke="black" points="374.013,-120.695 374.013,-143.305 487.987,-143.305 487.987,-120.695 374.013,-120.695"/>
<text text-anchor="middle" x="431" y="-128.305" font-family="Futura" font-size="11.00">include/fa/option.h</text>
</a>
</g>
<!-- Node1&#45;&gt;Node9 -->
<g id="edge42" class="edge"><title>Node1&#45;&gt;Node9</title>
<path fill="none" stroke="midnightblue" d="M327.604,-357.803C374.723,-343.727 435.705,-316.022 458,-264 476.112,-221.74 450.055,-166.486 437.319,-143.618"/>
<polygon fill="midnightblue" stroke="midnightblue" points="326.436,-354.496 317.779,-360.604 328.355,-361.228 326.436,-354.496"/>
</g>
<!-- Node10 -->
<g id="node23" class="node"><title>Node10</title>
<a xlink:href="midi_8h.html" target="_top" xlink:title="include/fa/midi.h">
<polygon fill="none" stroke="black" points="346.473,-240.695 346.473,-263.305 449.527,-263.305 449.527,-240.695 346.473,-240.695"/>
<text text-anchor="middle" x="398" y="-248.305" font-family="Futura" font-size="11.00">include/fa/midi.h</text>
</a>
</g>
<!-- Node1&#45;&gt;Node10 -->
<g id="edge40" class="edge"><title>Node1&#45;&gt;Node10</title>
<path fill="none" stroke="midnightblue" d="M320.568,-357.325C339.609,-350.136 359.816,-339.489 374,-324 389.817,-306.727 395.257,-278.643 397.092,-263.49"/>
<polygon fill="midnightblue" stroke="midnightblue" points="319.32,-354.054 311.052,-360.679 321.647,-360.656 319.32,-354.054"/>
</g>
<!-- Node2&#45;&gt;Node3 -->
<g id="edge4" class="edge"><title>Node2&#45;&gt;Node3</title>
<path fill="none" stroke="midnightblue" d="M279.843,-295.901C260.168,-285.712 234.701,-272.524 217.228,-263.475"/>
<polygon fill="midnightblue" stroke="midnightblue" points="278.487,-299.14 288.977,-300.631 281.706,-292.924 278.487,-299.14"/>
</g>
<!-- Node2&#45;&gt;Node4 -->
<g id="edge6" class="edge"><title>Node2&#45;&gt;Node4</title>
<path fill="none" stroke="midnightblue" d="M303.741,-290.534C301.414,-265.25 301.811,-223.187 304.93,-203.618"/>
<polygon fill="midnightblue" stroke="midnightblue" points="300.275,-291.022 304.953,-300.528 307.224,-290.18 300.275,-291.022"/>
</g>
<!-- Node2&#45;&gt;Node10 -->
<g id="edge26" class="edge"><title>Node2&#45;&gt;Node10</title>
<path fill="none" stroke="midnightblue" d="M333.458,-295.061C348.903,-284.996 368.42,-272.277 381.926,-263.475"/>
<polygon fill="midnightblue" stroke="midnightblue" points="331.378,-292.239 324.911,-300.631 335.2,-298.103 331.378,-292.239"/>
</g>
<!-- Node4&#45;&gt;Node1 -->
<g id="edge24" class="edge"><title>Node4&#45;&gt;Node1</title>
<path fill="none" stroke="midnightblue" d="M252.32,-199.795C203.417,-206.668 138.334,-219.286 122,-240 80.1613,-293.058 188.321,-340.393 240.726,-360.612"/>
<polygon fill="midnightblue" stroke="midnightblue" points="253.049,-203.228 262.487,-198.415 252.107,-196.292 253.049,-203.228"/>
</g>
<!-- Node4&#45;&gt;Node2 -->
<g id="edge8" class="edge"><title>Node4&#45;&gt;Node2</title>
<path fill="none" stroke="midnightblue" d="M314.276,-213.656C316.589,-239.023 316.18,-281.071 313.047,-300.528"/>
<polygon fill="midnightblue" stroke="midnightblue" points="317.738,-213.129 313.07,-203.618 310.788,-213.964 317.738,-213.129"/>
</g>
<!-- Node4&#45;&gt;Node5 -->
<g id="edge10" class="edge"><title>Node4&#45;&gt;Node5</title>
<path fill="none" stroke="midnightblue" d="M322.218,-172.208C339.845,-147.148 370.458,-103.626 384.531,-83.6179"/>
<polygon fill="midnightblue" stroke="midnightblue" points="319.256,-170.335 316.366,-180.528 324.982,-174.363 319.256,-170.335"/>
</g>
<!-- Node4&#45;&gt;Node8 -->
<g id="edge18" class="edge"><title>Node4&#45;&gt;Node8</title>
<path fill="none" stroke="midnightblue" d="M286.345,-174.778C272.352,-164.758 254.807,-152.195 242.629,-143.475"/>
<polygon fill="midnightblue" stroke="midnightblue" points="284.351,-177.655 294.519,-180.631 288.426,-171.963 284.351,-177.655"/>
</g>
<!-- Node4&#45;&gt;Node9 -->
<g id="edge22" class="edge"><title>Node4&#45;&gt;Node9</title>
<path fill="none" stroke="midnightblue" d="M339.887,-176.316C361.434,-166.072 389.673,-152.647 408.966,-143.475"/>
<polygon fill="midnightblue" stroke="midnightblue" points="338.34,-173.176 330.811,-180.631 341.345,-179.498 338.34,-173.176"/>
</g>
<!-- Node5&#45;&gt;Node6 -->
<g id="edge12" class="edge"><title>Node5&#45;&gt;Node6</title>
<path fill="none" stroke="midnightblue" d="M368.506,-54.7779C353.995,-44.7583 335.8,-32.1949 323.171,-23.475"/>
<polygon fill="midnightblue" stroke="midnightblue" points="366.765,-57.829 376.982,-60.6308 370.742,-52.0687 366.765,-57.829"/>
</g>
<!-- Node5&#45;&gt;Node7 -->
<g id="edge16" class="edge"><title>Node5&#45;&gt;Node7</title>
<path fill="none" stroke="midnightblue" d="M423.646,-56.3162C445.723,-46.0724 474.657,-32.6474 494.425,-23.475"/>
<polygon fill="midnightblue" stroke="midnightblue" points="421.945,-53.2468 414.347,-60.6308 424.892,-59.5966 421.945,-53.2468"/>
</g>
<!-- Node6&#45;&gt;Node4 -->
<g id="edge14" class="edge"><title>Node6&#45;&gt;Node4</title>
<path fill="none" stroke="midnightblue" d="M308.117,-33.78C308.331,-72.0012 308.782,-152.15 308.942,-180.661"/>
<polygon fill="midnightblue" stroke="midnightblue" points="311.614,-33.3481 308.058,-23.368 304.615,-33.3875 311.614,-33.3481"/>
</g>
<!-- Node8&#45;&gt;Node5 -->
<g id="edge20" class="edge"><title>Node8&#45;&gt;Node5</title>
<path fill="none" stroke="midnightblue" d="M266.85,-117.26C296.219,-106.874 335.914,-92.8353 362.658,-83.3771"/>
<polygon fill="midnightblue" stroke="midnightblue" points="265.581,-113.997 257.32,-120.631 267.915,-120.596 265.581,-113.997"/>
</g>
<!-- Node10&#45;&gt;Node4 -->
<g id="edge28" class="edge"><title>Node10&#45;&gt;Node4</title>
<path fill="none" stroke="midnightblue" d="M373.542,-235.061C358.097,-224.996 338.58,-212.277 325.074,-203.475"/>
<polygon fill="midnightblue" stroke="midnightblue" points="371.8,-238.103 382.089,-240.631 375.622,-232.239 371.8,-238.103"/>
</g>
</g>
</svg>
