<?xml version="1.0" encoding="UTF-8" standalone="no"?>
<!DOCTYPE svg PUBLIC "-//W3C//DTD SVG 1.1//EN"
 "http://www.w3.org/Graphics/SVG/1.1/DTD/svg11.dtd">
<!-- Generated by graphviz version 2.28.0 (20121015.0031)
 -->
<!-- Title: include/fa/ratio.h Pages: 1 -->
<svg width="812pt" height="332pt"
 viewBox="0.00 0.00 812.48 332.00" xmlns="http://www.w3.org/2000/svg" xmlns:xlink="http://www.w3.org/1999/xlink">
<g id="graph1" class="graph" transform="scale(1 1) rotate(0) translate(4 328)">
<title>include/fa/ratio.h</title>
<!-- Node1 -->
<g id="node1" class="node"><title>Node1</title>
<polygon fill="#bfbfbf" stroke="black" points="308.846,-300.695 308.846,-323.305 414.119,-323.305 414.119,-300.695 308.846,-300.695"/>
<text text-anchor="middle" x="361.483" y="-308.305" font-family="Futura" font-size="11.00">include/fa/ratio.h</text>
</g>
<!-- Node2 -->
<g id="node3" class="node"><title>Node2</title>
<a xlink:href="time_8h.html" target="_top" xlink:title="include/fa/time.h">
<polygon fill="none" stroke="red" points="310.076,-240.695 310.076,-263.305 412.889,-263.305 412.889,-240.695 310.076,-240.695"/>
<text text-anchor="middle" x="361.483" y="-248.305" font-family="Futura" font-size="11.00">include/fa/time.h</text>
</a>
</g>
<!-- Node1&#45;&gt;Node2 -->
<g id="edge2" class="edge"><title>Node1&#45;&gt;Node2</title>
<path fill="none" stroke="midnightblue" d="M361.483,-290.459C361.483,-281.411 361.483,-271.16 361.483,-263.672"/>
<polygon fill="midnightblue" stroke="midnightblue" points="357.983,-290.631 361.483,-300.631 364.983,-290.631 357.983,-290.631"/>
</g>
<!-- Node3 -->
<g id="node5" class="node"><title>Node3</title>
<a xlink:href="audio_2device_8h.html" target="_top" xlink:title="include/fa/audio/device.h">
<polygon fill="none" stroke="red" points="27.1821,-60.6953 27.1821,-83.3047 175.784,-83.3047 175.784,-60.6953 27.1821,-60.6953"/>
<text text-anchor="middle" x="101.483" y="-68.3047" font-family="Futura" font-size="11.00">include/fa/audio/device.h</text>
</a>
</g>
<!-- Node2&#45;&gt;Node3 -->
<g id="edge4" class="edge"><title>Node2&#45;&gt;Node3</title>
<path fill="none" stroke="midnightblue" d="M299.865,-241.358C209.385,-225.732 47.8745,-191.742 16.4828,-144 -1.00028,-117.411 39.6468,-95.5268 70.5705,-83.377"/>
<polygon fill="midnightblue" stroke="midnightblue" points="299.552,-244.855 309.998,-243.083 300.727,-237.954 299.552,-244.855"/>
</g>
<!-- Node4 -->
<g id="node7" class="node"><title>Node4</title>
<a xlink:href="audio_2stream_8h.html" target="_top" xlink:title="include/fa/audio/stream.h">
<polygon fill="none" stroke="red" points="26.7792,-0.695312 26.7792,-23.3047 176.186,-23.3047 176.186,-0.695312 26.7792,-0.695312"/>
<text text-anchor="middle" x="101.483" y="-8.30469" font-family="Futura" font-size="11.00">include/fa/audio/stream.h</text>
</a>
</g>
<!-- Node2&#45;&gt;Node4 -->
<g id="edge12" class="edge"><title>Node2&#45;&gt;Node4</title>
<path fill="none" stroke="midnightblue" d="M299.78,-245.887C225.305,-238.913 105.121,-224.851 65.4828,-204 5.90066,-172.658 -20.1034,-115.167 18.4828,-60 30.6316,-42.6307 51.3816,-30.8807 69.0944,-23.473"/>
<polygon fill="midnightblue" stroke="midnightblue" points="299.693,-249.394 309.972,-246.824 300.334,-242.423 299.693,-249.394"/>
</g>
<!-- Node5 -->
<g id="node9" class="node"><title>Node5</title>
<a xlink:href="audio_2session_8h.html" target="_top" xlink:title="include/fa/audio/session.h">
<polygon fill="none" stroke="red" points="25.7963,-120.695 25.7963,-143.305 177.169,-143.305 177.169,-120.695 25.7963,-120.695"/>
<text text-anchor="middle" x="101.483" y="-128.305" font-family="Futura" font-size="11.00">include/fa/audio/session.h</text>
</a>
</g>
<!-- Node2&#45;&gt;Node5 -->
<g id="edge8" class="edge"><title>Node2&#45;&gt;Node5</title>
<path fill="none" stroke="midnightblue" d="M299.926,-238.658C268.583,-231.045 230.451,-219.691 198.483,-204 164.574,-187.356 130.125,-158.755 112.85,-143.426"/>
<polygon fill="midnightblue" stroke="midnightblue" points="299.311,-242.109 309.847,-240.999 300.918,-235.296 299.311,-242.109"/>
</g>
<!-- Node6 -->
<g id="node13" class="node"><title>Node6</title>
<a xlink:href="clock_8h.html" target="_top" xlink:title="include/fa/clock.h">
<polygon fill="none" stroke="black" points="207.461,-180.695 207.461,-203.305 315.505,-203.305 315.505,-180.695 207.461,-180.695"/>
<text text-anchor="middle" x="261.483" y="-188.305" font-family="Futura" font-size="11.00">include/fa/clock.h</text>
</a>
</g>
<!-- Node2&#45;&gt;Node6 -->
<g id="edge14" class="edge"><title>Node2&#45;&gt;Node6</title>
<path fill="none" stroke="midnightblue" d="M334.487,-235.342C317.058,-225.234 294.861,-212.359 279.543,-203.475"/>
<polygon fill="midnightblue" stroke="midnightblue" points="333.198,-238.641 343.605,-240.631 336.711,-232.586 333.198,-238.641"/>
</g>
<!-- Node7 -->
<g id="node18" class="node"><title>Node7</title>
<a xlink:href="midi_8h.html" target="_top" xlink:title="include/fa/midi.h">
<polygon fill="none" stroke="black" points="309.956,-120.695 309.956,-143.305 413.01,-143.305 413.01,-120.695 309.956,-120.695"/>
<text text-anchor="middle" x="361.483" y="-128.305" font-family="Futura" font-size="11.00">include/fa/midi.h</text>
</a>
</g>
<!-- Node2&#45;&gt;Node7 -->
<g id="edge32" class="edge"><title>Node2&#45;&gt;Node7</title>
<path fill="none" stroke="midnightblue" d="M361.483,-230.192C361.483,-204.874 361.483,-163.1 361.483,-143.618"/>
<polygon fill="midnightblue" stroke="midnightblue" points="357.983,-230.528 361.483,-240.528 364.983,-230.528 357.983,-230.528"/>
</g>
<!-- Node8 -->
<g id="node20" class="node"><title>Node8</title>
<a xlink:href="fa_2fa_8h.html" target="_top" xlink:title="include/fa/fa.h">
<polygon fill="none" stroke="red" points="359.329,-60.6953 359.329,-83.3047 451.636,-83.3047 451.636,-60.6953 359.329,-60.6953"/>
<text text-anchor="middle" x="405.483" y="-68.3047" font-family="Futura" font-size="11.00">include/fa/fa.h</text>
</a>
</g>
<!-- Node2&#45;&gt;Node8 -->
<g id="edge30" class="edge"><title>Node2&#45;&gt;Node8</title>
<path fill="none" stroke="midnightblue" d="M369.496,-231.93C381.972,-211.488 403.746,-177.443 412.483,-144 418.04,-122.728 408.651,-97.5725 404.892,-83.6396"/>
<polygon fill="midnightblue" stroke="midnightblue" points="366.465,-230.179 364.356,-240.562 372.479,-233.76 366.465,-230.179"/>
</g>
<!-- Node9 -->
<g id="node26" class="node"><title>Node9</title>
<a xlink:href="analysis_8h.html" target="_top" xlink:title="include/fa/signal/analysis.h">
<polygon fill="none" stroke="black" points="487.065,-180.695 487.065,-203.305 643.901,-203.305 643.901,-180.695 487.065,-180.695"/>
<text text-anchor="middle" x="565.483" y="-188.305" font-family="Futura" font-size="11.00">include/fa/signal/analysis.h</text>
</a>
</g>
<!-- Node2&#45;&gt;Node9 -->
<g id="edge34" class="edge"><title>Node2&#45;&gt;Node9</title>
<path fill="none" stroke="midnightblue" d="M407.915,-237.799C444.618,-227.363 495.139,-213 528.984,-203.377"/>
<polygon fill="midnightblue" stroke="midnightblue" points="406.616,-234.529 397.954,-240.631 408.53,-241.263 406.616,-234.529"/>
</g>
<!-- Node10 -->
<g id="node28" class="node"><title>Node10</title>
<a xlink:href="basic_8h.html" target="_top" xlink:title="include/fa/signal/basic.h">
<polygon fill="none" stroke="black" points="662.099,-180.695 662.099,-203.305 804.867,-203.305 804.867,-180.695 662.099,-180.695"/>
<text text-anchor="middle" x="733.483" y="-188.305" font-family="Futura" font-size="11.00">include/fa/signal/basic.h</text>
</a>
</g>
<!-- Node2&#45;&gt;Node10 -->
<g id="edge36" class="edge"><title>Node2&#45;&gt;Node10</title>
<path fill="none" stroke="midnightblue" d="M423.255,-241.369C490.617,-230.866 598.025,-214.12 667.138,-203.344"/>
<polygon fill="midnightblue" stroke="midnightblue" points="422.549,-237.937 413.208,-242.935 423.628,-244.853 422.549,-237.937"/>
</g>
<!-- Node3&#45;&gt;Node4 -->
<g id="edge6" class="edge"><title>Node3&#45;&gt;Node4</title>
<path fill="none" stroke="midnightblue" d="M101.483,-50.4586C101.483,-41.4112 101.483,-31.1602 101.483,-23.6719"/>
<polygon fill="midnightblue" stroke="midnightblue" points="97.9829,-50.6307 101.483,-60.6308 104.983,-50.6308 97.9829,-50.6307"/>
</g>
<!-- Node5&#45;&gt;Node3 -->
<g id="edge10" class="edge"><title>Node5&#45;&gt;Node3</title>
<path fill="none" stroke="midnightblue" d="M101.483,-110.459C101.483,-101.411 101.483,-91.1602 101.483,-83.6719"/>
<polygon fill="midnightblue" stroke="midnightblue" points="97.9829,-110.631 101.483,-120.631 104.983,-110.631 97.9829,-110.631"/>
</g>
<!-- Node6&#45;&gt;Node3 -->
<g id="edge16" class="edge"><title>Node6&#45;&gt;Node3</title>
<path fill="none" stroke="midnightblue" d="M244.896,-173.255C230.159,-158.06 207.586,-136.141 185.483,-120 165.645,-105.513 140.892,-92.1658 123.411,-83.4267"/>
<polygon fill="midnightblue" stroke="midnightblue" points="242.404,-175.713 251.845,-180.522 247.464,-170.875 242.404,-175.713"/>
</g>
<!-- Node6&#45;&gt;Node4 -->
<g id="edge20" class="edge"><title>Node6&#45;&gt;Node4</title>
<path fill="none" stroke="midnightblue" d="M253.761,-171.207C242.168,-143.534 217.997,-92.9778 184.483,-60 168.076,-43.8558 145.016,-31.3869 127.365,-23.3617"/>
<polygon fill="midnightblue" stroke="midnightblue" points="250.574,-172.661 257.581,-180.608 257.059,-170.026 250.574,-172.661"/>
</g>
<!-- Node6&#45;&gt;Node5 -->
<g id="edge18" class="edge"><title>Node6&#45;&gt;Node5</title>
<path fill="none" stroke="midnightblue" d="M223.206,-177.125C194.591,-166.752 156.087,-152.794 130.109,-143.377"/>
<polygon fill="midnightblue" stroke="midnightblue" points="222.284,-180.513 232.878,-180.631 224.67,-173.932 222.284,-180.513"/>
</g>
<!-- Node6&#45;&gt;Node7 -->
<g id="edge22" class="edge"><title>Node6&#45;&gt;Node7</title>
<path fill="none" stroke="midnightblue" d="M288.479,-175.342C305.907,-165.234 328.105,-152.359 343.422,-143.475"/>
<polygon fill="midnightblue" stroke="midnightblue" points="286.255,-172.586 279.361,-180.631 289.767,-178.641 286.255,-172.586"/>
</g>
<!-- Node7&#45;&gt;Node8 -->
<g id="edge24" class="edge"><title>Node7&#45;&gt;Node8</title>
<path fill="none" stroke="midnightblue" d="M375.5,-112.523C382.721,-103.005 391.269,-91.7362 397.387,-83.6719"/>
<polygon fill="midnightblue" stroke="midnightblue" points="372.605,-110.548 369.349,-120.631 378.181,-114.779 372.605,-110.548"/>
</g>
<!-- Node8&#45;&gt;Node2 -->
<g id="edge28" class="edge"><title>Node8&#45;&gt;Node2</title>
<path fill="none" stroke="midnightblue" d="M422.433,-92.5609C429.647,-106.869 434.998,-126.717 430.483,-144 420.363,-182.739 392.748,-222.286 375.227,-240.562"/>
<polygon fill="midnightblue" stroke="midnightblue" points="425.296,-90.5214 417.24,-83.6396 419.246,-94.0429 425.296,-90.5214"/>
</g>
<!-- Node8&#45;&gt;Node6 -->
<g id="edge26" class="edge"><title>Node8&#45;&gt;Node6</title>
<path fill="none" stroke="midnightblue" d="M357.933,-86.8237C338.435,-94.2695 316.689,-105.062 300.483,-120 281.869,-137.157 270.15,-165.288 264.832,-180.479"/>
<polygon fill="midnightblue" stroke="midnightblue" points="359.372,-90.0251 367.585,-83.3325 356.991,-83.4425 359.372,-90.0251"/>
</g>
</g>
</svg>
