<?xml version="1.0" encoding="UTF-8" standalone="no"?>
<!DOCTYPE svg PUBLIC "-//W3C//DTD SVG 1.1//EN"
 "http://www.w3.org/Graphics/SVG/1.1/DTD/svg11.dtd">
<!-- Generated by graphviz version 2.28.0 (20121015.0031)
 -->
<!-- Title: include/fa/signal.h Pages: 1 -->
<svg width="686pt" height="452pt"
 viewBox="0.00 0.00 686.00 452.00" xmlns="http://www.w3.org/2000/svg" xmlns:xlink="http://www.w3.org/1999/xlink">
<g id="graph1" class="graph" transform="scale(1 1) rotate(0) translate(4 448)">
<title>include/fa/signal.h</title>
<!-- Node1 -->
<g id="node1" class="node"><title>Node1</title>
<polygon fill="#bfbfbf" stroke="black" points="489.283,-420.695 489.283,-443.305 600.717,-443.305 600.717,-420.695 489.283,-420.695"/>
<text text-anchor="middle" x="545" y="-428.305" font-family="Futura" font-size="11.00">include/fa/signal.h</text>
</g>
<!-- Node2 -->
<g id="node3" class="node"><title>Node2</title>
<a xlink:href="action_8h.html" target="_top" xlink:title="include/fa/action.h">
<polygon fill="none" stroke="black" points="310.746,-360.695 310.746,-383.305 423.254,-383.305 423.254,-360.695 310.746,-360.695"/>
<text text-anchor="middle" x="367" y="-368.305" font-family="Futura" font-size="11.00">include/fa/action.h</text>
</a>
</g>
<!-- Node1&#45;&gt;Node2 -->
<g id="edge2" class="edge"><title>Node1&#45;&gt;Node2</title>
<path fill="none" stroke="midnightblue" d="M503.662,-417.53C471.708,-407.118 428.126,-392.917 398.847,-383.377"/>
<polygon fill="midnightblue" stroke="midnightblue" points="502.585,-420.86 513.177,-420.631 504.754,-414.205 502.585,-420.86"/>
</g>
<!-- Node4 -->
<g id="node7" class="node"><title>Node4</title>
<a xlink:href="audio_2stream_8h.html" target="_top" xlink:title="include/fa/audio/stream.h">
<polygon fill="none" stroke="black" points="-0.703613,-180.695 -0.703613,-203.305 148.704,-203.305 148.704,-180.695 -0.703613,-180.695"/>
<text text-anchor="middle" x="74" y="-188.305" font-family="Futura" font-size="11.00">include/fa/audio/stream.h</text>
</a>
</g>
<!-- Node1&#45;&gt;Node4 -->
<g id="edge36" class="edge"><title>Node1&#45;&gt;Node4</title>
<path fill="none" stroke="midnightblue" d="M478.877,-422.695C371.004,-407.874 163.856,-373.692 111,-324 76.2191,-291.301 73.2899,-228.642 73.6017,-203.663"/>
<polygon fill="midnightblue" stroke="midnightblue" points="478.618,-426.192 488.998,-424.069 479.559,-419.255 478.618,-426.192"/>
</g>
<!-- Node6 -->
<g id="node11" class="node"><title>Node6</title>
<a xlink:href="fa_2fa_8h.html" target="_top" xlink:title="include/fa/fa.h">
<polygon fill="none" stroke="red" points="409.846,-60.6953 409.846,-83.3047 502.154,-83.3047 502.154,-60.6953 409.846,-60.6953"/>
<text text-anchor="middle" x="456" y="-68.3047" font-family="Futura" font-size="11.00">include/fa/fa.h</text>
</a>
</g>
<!-- Node1&#45;&gt;Node6 -->
<g id="edge38" class="edge"><title>Node1&#45;&gt;Node6</title>
<path fill="none" stroke="midnightblue" d="M538.486,-410.416C536,-386.869 536,-347.154 536,-313 536,-313 536,-313 536,-191 536,-142.76 488.002,-101.734 466.067,-83.343"/>
<polygon fill="midnightblue" stroke="midnightblue" points="535.057,-411.168 539.917,-420.582 541.989,-410.192 535.057,-411.168"/>
</g>
<!-- Node10 -->
<g id="node30" class="node"><title>Node10</title>
<a xlink:href="std_8h.html" target="_top" xlink:title="include/fa/std.h">
<polygon fill="none" stroke="red" points="581.827,-240.695 581.827,-263.305 678.173,-263.305 678.173,-240.695 581.827,-240.695"/>
<text text-anchor="middle" x="630" y="-248.305" font-family="Futura" font-size="11.00">include/fa/std.h</text>
</a>
</g>
<!-- Node1&#45;&gt;Node10 -->
<g id="edge40" class="edge"><title>Node1&#45;&gt;Node10</title>
<path fill="none" stroke="midnightblue" d="M554.604,-411.519C558.75,-403.072 563.639,-393.06 568,-384 589.497,-339.336 614.624,-285.837 625.064,-263.55"/>
<polygon fill="midnightblue" stroke="midnightblue" points="551.427,-410.047 550.155,-420.565 557.709,-413.137 551.427,-410.047"/>
</g>
<!-- Node3 -->
<g id="node5" class="node"><title>Node3</title>
<a xlink:href="audio_2device_8h.html" target="_top" xlink:title="include/fa/audio/device.h">
<polygon fill="none" stroke="black" points="181.699,-240.695 181.699,-263.305 330.301,-263.305 330.301,-240.695 181.699,-240.695"/>
<text text-anchor="middle" x="256" y="-248.305" font-family="Futura" font-size="11.00">include/fa/audio/device.h</text>
</a>
</g>
<!-- Node2&#45;&gt;Node3 -->
<g id="edge4" class="edge"><title>Node2&#45;&gt;Node3</title>
<path fill="none" stroke="midnightblue" d="M350.245,-353.188C326.831,-328.297 285.057,-283.889 265.988,-263.618"/>
<polygon fill="midnightblue" stroke="midnightblue" points="347.748,-355.643 357.149,-360.528 352.847,-350.846 347.748,-355.643"/>
</g>
<!-- Node2&#45;&gt;Node4 -->
<g id="edge28" class="edge"><title>Node2&#45;&gt;Node4</title>
<path fill="none" stroke="midnightblue" d="M300.325,-364.637C239.927,-357.662 156.596,-344.634 131,-324 110.918,-307.811 85.8404,-231.449 77.1422,-203.382"/>
<polygon fill="midnightblue" stroke="midnightblue" points="300.233,-368.148 310.561,-365.787 301.015,-361.192 300.233,-368.148"/>
</g>
<!-- Node2&#45;&gt;Node6 -->
<g id="edge30" class="edge"><title>Node2&#45;&gt;Node6</title>
<path fill="none" stroke="midnightblue" d="M360.486,-350.416C358,-326.869 358,-287.154 358,-253 358,-253 358,-253 358,-191 358,-142.76 405.998,-101.734 435.062,-83.343"/>
<polygon fill="midnightblue" stroke="midnightblue" points="357.057,-351.168 361.917,-360.582 363.989,-350.192 357.057,-351.168"/>
</g>
<!-- Node8 -->
<g id="node19" class="node"><title>Node8</title>
<a xlink:href="audio_2session_8h.html" target="_top" xlink:title="include/fa/audio/session.h">
<polygon fill="none" stroke="black" points="140.313,-300.695 140.313,-323.305 291.687,-323.305 291.687,-300.695 140.313,-300.695"/>
<text text-anchor="middle" x="216" y="-308.305" font-family="Futura" font-size="11.00">include/fa/audio/session.h</text>
</a>
</g>
<!-- Node2&#45;&gt;Node8 -->
<g id="edge22" class="edge"><title>Node2&#45;&gt;Node8</title>
<path fill="none" stroke="midnightblue" d="M330.522,-356.989C303.554,-346.63 267.426,-332.753 243.016,-323.377"/>
<polygon fill="midnightblue" stroke="midnightblue" points="329.414,-360.312 340.004,-360.631 331.924,-353.778 329.414,-360.312"/>
</g>
<!-- Node9 -->
<g id="node25" class="node"><title>Node9</title>
<a xlink:href="midi_8h.html" target="_top" xlink:title="include/fa/midi.h">
<polygon fill="none" stroke="black" points="404.473,-180.695 404.473,-203.305 507.527,-203.305 507.527,-180.695 404.473,-180.695"/>
<text text-anchor="middle" x="456" y="-188.305" font-family="Futura" font-size="11.00">include/fa/midi.h</text>
</a>
</g>
<!-- Node2&#45;&gt;Node9 -->
<g id="edge32" class="edge"><title>Node2&#45;&gt;Node9</title>
<path fill="none" stroke="midnightblue" d="M376.882,-351.237C395.775,-313.451 436.42,-232.159 450.816,-203.368"/>
<polygon fill="midnightblue" stroke="midnightblue" points="373.511,-350.151 372.17,-360.661 379.772,-353.282 373.511,-350.151"/>
</g>
<!-- Node3&#45;&gt;Node4 -->
<g id="edge6" class="edge"><title>Node3&#45;&gt;Node4</title>
<path fill="none" stroke="midnightblue" d="M213.733,-237.53C181.061,-227.118 136.5,-212.917 106.563,-203.377"/>
<polygon fill="midnightblue" stroke="midnightblue" points="212.871,-240.929 223.462,-240.631 214.997,-234.26 212.871,-240.929"/>
</g>
<!-- Node5 -->
<g id="node9" class="node"><title>Node5</title>
<a xlink:href="audio_8h.html" target="_top" xlink:title="include/fa/audio.h">
<polygon fill="none" stroke="black" points="141.592,-120.695 141.592,-143.305 252.408,-143.305 252.408,-120.695 141.592,-120.695"/>
<text text-anchor="middle" x="197" y="-128.305" font-family="Futura" font-size="11.00">include/fa/audio.h</text>
</a>
</g>
<!-- Node3&#45;&gt;Node5 -->
<g id="edge20" class="edge"><title>Node3&#45;&gt;Node5</title>
<path fill="none" stroke="midnightblue" d="M246.272,-231.545C233.693,-206.386 212.225,-163.451 202.309,-143.618"/>
<polygon fill="midnightblue" stroke="midnightblue" points="243.161,-233.149 250.764,-240.528 249.422,-230.019 243.161,-233.149"/>
</g>
<!-- Node4&#45;&gt;Node5 -->
<g id="edge8" class="edge"><title>Node4&#45;&gt;Node5</title>
<path fill="none" stroke="midnightblue" d="M105.14,-176.316C126.864,-166.072 155.334,-152.647 174.786,-143.475"/>
<polygon fill="midnightblue" stroke="midnightblue" points="103.542,-173.2 95.9899,-180.631 106.528,-179.531 103.542,-173.2"/>
</g>
<!-- Node5&#45;&gt;Node6 -->
<g id="edge10" class="edge"><title>Node5&#45;&gt;Node6</title>
<path fill="none" stroke="midnightblue" d="M253.281,-118.396C300.075,-107.918 365.864,-93.1848 409.661,-83.3771"/>
<polygon fill="midnightblue" stroke="midnightblue" points="252.297,-115.03 243.304,-120.631 253.827,-121.861 252.297,-115.03"/>
</g>
<!-- Node6&#45;&gt;Node1 -->
<g id="edge18" class="edge"><title>Node6&#45;&gt;Node1</title>
<path fill="none" stroke="midnightblue" d="M485.556,-89.0996C514.58,-109.49 554,-147.282 554,-191 554,-313 554,-313 554,-313 554,-352.743 554,-400.016 550.083,-420.582"/>
<polygon fill="midnightblue" stroke="midnightblue" points="487.198,-85.987 476.938,-83.343 483.31,-91.8079 487.198,-85.987"/>
</g>
<!-- Node6&#45;&gt;Node2 -->
<g id="edge12" class="edge"><title>Node6&#45;&gt;Node2</title>
<path fill="none" stroke="midnightblue" d="M438.21,-89.8993C414.408,-110.468 376,-147.847 376,-191 376,-253 376,-253 376,-253 376,-292.743 376,-340.016 372.083,-360.582"/>
<polygon fill="midnightblue" stroke="midnightblue" points="440.575,-92.4829 445.933,-83.343 436.044,-87.1465 440.575,-92.4829"/>
</g>
<!-- Node7 -->
<g id="node14" class="node"><title>Node7</title>
<a xlink:href="atomic_8h.html" target="_top" xlink:title="include/fa/atomic.h">
<polygon fill="none" stroke="black" points="398.374,-0.695312 398.374,-23.3047 513.626,-23.3047 513.626,-0.695312 398.374,-0.695312"/>
<text text-anchor="middle" x="456" y="-8.30469" font-family="Futura" font-size="11.00">include/fa/atomic.h</text>
</a>
</g>
<!-- Node6&#45;&gt;Node7 -->
<g id="edge14" class="edge"><title>Node6&#45;&gt;Node7</title>
<path fill="none" stroke="midnightblue" d="M449.512,-50.4586C448.936,-41.4112 449.309,-31.1602 450.63,-23.6719"/>
<polygon fill="midnightblue" stroke="midnightblue" points="446.062,-51.0972 450.684,-60.6308 453.016,-50.2958 446.062,-51.0972"/>
</g>
<!-- Node7&#45;&gt;Node6 -->
<g id="edge16" class="edge"><title>Node7&#45;&gt;Node6</title>
<path fill="none" stroke="midnightblue" d="M462.492,-33.6107C463.069,-42.7636 462.677,-53.1365 461.316,-60.6308"/>
<polygon fill="midnightblue" stroke="midnightblue" points="465.97,-33.2159 461.37,-23.6719 459.014,-34.0015 465.97,-33.2159"/>
</g>
<!-- Node8&#45;&gt;Node3 -->
<g id="edge24" class="edge"><title>Node8&#45;&gt;Node3</title>
<path fill="none" stroke="midnightblue" d="M228.944,-292.231C235.465,-282.775 243.135,-271.654 248.64,-263.672"/>
<polygon fill="midnightblue" stroke="midnightblue" points="225.947,-290.412 223.151,-300.631 231.71,-294.386 225.947,-290.412"/>
</g>
<!-- Node8&#45;&gt;Node5 -->
<g id="edge26" class="edge"><title>Node8&#45;&gt;Node5</title>
<path fill="none" stroke="midnightblue" d="M194.35,-293.696C186.002,-285.659 177.415,-275.366 173,-264 156.424,-221.326 179.846,-166.298 191.31,-143.554"/>
<polygon fill="midnightblue" stroke="midnightblue" points="192.043,-296.329 201.821,-300.408 196.721,-291.121 192.043,-296.329"/>
</g>
<!-- Node9&#45;&gt;Node6 -->
<g id="edge34" class="edge"><title>Node9&#45;&gt;Node6</title>
<path fill="none" stroke="midnightblue" d="M456,-170.192C456,-144.874 456,-103.1 456,-83.6179"/>
<polygon fill="midnightblue" stroke="midnightblue" points="452.5,-170.528 456,-180.528 459.5,-170.528 452.5,-170.528"/>
</g>
<!-- Node10&#45;&gt;Node7 -->
<g id="edge42" class="edge"><title>Node10&#45;&gt;Node7</title>
<path fill="none" stroke="midnightblue" d="M622.767,-230.818C612.705,-204.146 592.882,-156.299 568,-120 547.204,-89.6616 537.684,-85.3151 511,-60 497.15,-46.8603 480.357,-32.7546 468.999,-23.4624"/>
<polygon fill="midnightblue" stroke="midnightblue" points="619.613,-232.381 626.358,-240.551 626.18,-229.958 619.613,-232.381"/>
</g>
</g>
</svg>
