<?xml version="1.0" encoding="UTF-8" standalone="no"?>
<!DOCTYPE svg PUBLIC "-//W3C//DTD SVG 1.1//EN"
 "http://www.w3.org/Graphics/SVG/1.1/DTD/svg11.dtd">
<!-- Generated by graphviz version 2.28.0 (20121015.0031)
 -->
<!-- Title: include/fa/std.h Pages: 1 -->
<svg width="715pt" height="272pt"
 viewBox="0.00 0.00 715.00 272.00" xmlns="http://www.w3.org/2000/svg" xmlns:xlink="http://www.w3.org/1999/xlink">
<g id="graph1" class="graph" transform="scale(1 1) rotate(0) translate(4 268)">
<title>include/fa/std.h</title>
<!-- Node1 -->
<g id="node1" class="node"><title>Node1</title>
<polygon fill="#bfbfbf" stroke="black" points="345.827,-240.695 345.827,-263.305 442.173,-263.305 442.173,-240.695 345.827,-240.695"/>
<text text-anchor="middle" x="394" y="-248.305" font-family="Futura" font-size="11.00">include/fa/std.h</text>
</g>
<!-- Node2 -->
<g id="node3" class="node"><title>Node2</title>
<a xlink:href="atomic_8h.html" target="_top" xlink:title="include/fa/atomic.h">
<polygon fill="none" stroke="black" points="204.374,-180.695 204.374,-203.305 319.626,-203.305 319.626,-180.695 204.374,-180.695"/>
<text text-anchor="middle" x="262" y="-188.305" font-family="Futura" font-size="11.00">include/fa/atomic.h</text>
</a>
</g>
<!-- Node1&#45;&gt;Node2 -->
<g id="edge2" class="edge"><title>Node1&#45;&gt;Node2</title>
<path fill="none" stroke="midnightblue" d="M361.207,-236.591C337.817,-226.314 306.902,-212.73 285.84,-203.475"/>
<polygon fill="midnightblue" stroke="midnightblue" points="359.838,-239.812 370.401,-240.631 362.654,-233.404 359.838,-239.812"/>
</g>
<!-- Node4 -->
<g id="node8" class="node"><title>Node4</title>
<a xlink:href="buffer_8h.html" target="_top" xlink:title="include/fa/buffer.h">
<polygon fill="none" stroke="red" points="-0.773193,-60.6953 -0.773193,-83.3047 110.773,-83.3047 110.773,-60.6953 -0.773193,-60.6953"/>
<text text-anchor="middle" x="55" y="-68.3047" font-family="Futura" font-size="11.00">include/fa/buffer.h</text>
</a>
</g>
<!-- Node1&#45;&gt;Node4 -->
<g id="edge24" class="edge"><title>Node1&#45;&gt;Node4</title>
<path fill="none" stroke="midnightblue" d="M335.542,-245.274C294.31,-239.356 238.842,-227.501 195,-204 135.445,-172.076 82.3085,-108.409 62.8594,-83.4148"/>
<polygon fill="midnightblue" stroke="midnightblue" points="335.323,-248.776 345.703,-246.654 336.265,-241.84 335.323,-248.776"/>
</g>
<!-- Node6 -->
<g id="node12" class="node"><title>Node6</title>
<a xlink:href="message_8h.html" target="_top" xlink:title="include/fa/midi/message.h">
<polygon fill="none" stroke="black" points="119.134,-0.695312 119.134,-23.3047 270.866,-23.3047 270.866,-0.695312 119.134,-0.695312"/>
<text text-anchor="middle" x="195" y="-8.30469" font-family="Futura" font-size="11.00">include/fa/midi/message.h</text>
</a>
</g>
<!-- Node1&#45;&gt;Node6 -->
<g id="edge26" class="edge"><title>Node1&#45;&gt;Node6</title>
<path fill="none" stroke="midnightblue" d="M410.62,-232.745C441.977,-196.065 502.938,-112.451 459,-60 435.383,-31.8072 340.355,-20.5116 271.061,-15.995"/>
<polygon fill="midnightblue" stroke="midnightblue" points="407.676,-230.794 403.719,-240.621 412.941,-235.407 407.676,-230.794"/>
</g>
<!-- Node7 -->
<g id="node16" class="node"><title>Node7</title>
<a xlink:href="option_8h.html" target="_top" xlink:title="include/fa/option.h">
<polygon fill="none" stroke="black" points="337.013,-60.6953 337.013,-83.3047 450.987,-83.3047 450.987,-60.6953 337.013,-60.6953"/>
<text text-anchor="middle" x="394" y="-68.3047" font-family="Futura" font-size="11.00">include/fa/option.h</text>
</a>
</g>
<!-- Node1&#45;&gt;Node7 -->
<g id="edge28" class="edge"><title>Node1&#45;&gt;Node7</title>
<path fill="none" stroke="midnightblue" d="M394,-230.258C394,-192.065 394,-111.913 394,-83.368"/>
<polygon fill="midnightblue" stroke="midnightblue" points="390.5,-230.661 394,-240.661 397.5,-230.661 390.5,-230.661"/>
</g>
<!-- Node8 -->
<g id="node18" class="node"><title>Node8</title>
<a xlink:href="thread_8h.html" target="_top" xlink:title="include/fa/thread.h">
<polygon fill="none" stroke="black" points="204.573,-60.6953 204.573,-83.3047 319.427,-83.3047 319.427,-60.6953 204.573,-60.6953"/>
<text text-anchor="middle" x="262" y="-68.3047" font-family="Futura" font-size="11.00">include/fa/thread.h</text>
</a>
</g>
<!-- Node1&#45;&gt;Node8 -->
<g id="edge32" class="edge"><title>Node1&#45;&gt;Node8</title>
<path fill="none" stroke="midnightblue" d="M384.978,-231.251C372.165,-204.411 346.901,-155.678 317,-120 305.06,-105.753 288.543,-92.2702 276.732,-83.4299"/>
<polygon fill="midnightblue" stroke="midnightblue" points="381.85,-232.824 389.263,-240.393 388.188,-229.853 381.85,-232.824"/>
</g>
<!-- Node9 -->
<g id="node24" class="node"><title>Node9</title>
<a xlink:href="ratio_8h.html" target="_top" xlink:title="include/fa/ratio.h">
<polygon fill="none" stroke="red" points="507.364,-180.695 507.364,-203.305 612.636,-203.305 612.636,-180.695 507.364,-180.695"/>
<text text-anchor="middle" x="560" y="-188.305" font-family="Futura" font-size="11.00">include/fa/ratio.h</text>
</a>
</g>
<!-- Node1&#45;&gt;Node9 -->
<g id="edge30" class="edge"><title>Node1&#45;&gt;Node9</title>
<path fill="none" stroke="midnightblue" d="M433.324,-237.26C463.051,-226.874 503.23,-212.835 530.3,-203.377"/>
<polygon fill="midnightblue" stroke="midnightblue" points="431.963,-234.028 423.677,-240.631 434.272,-240.636 431.963,-234.028"/>
</g>
<!-- Node10 -->
<g id="node27" class="node"><title>Node10</title>
<a xlink:href="fa_8h.html" target="_top" xlink:title="include/fa.h">
<polygon fill="none" stroke="red" points="630.71,-180.695 630.71,-203.305 707.29,-203.305 707.29,-180.695 630.71,-180.695"/>
<text text-anchor="middle" x="669" y="-188.305" font-family="Futura" font-size="11.00">include/fa.h</text>
</a>
</g>
<!-- Node1&#45;&gt;Node10 -->
<g id="edge34" class="edge"><title>Node1&#45;&gt;Node10</title>
<path fill="none" stroke="midnightblue" d="M452.394,-239.262C498.285,-229.953 563.789,-216.477 621,-204 624.091,-203.326 627.291,-202.617 630.504,-201.897"/>
<polygon fill="midnightblue" stroke="midnightblue" points="451.436,-235.885 442.33,-241.301 452.826,-242.746 451.436,-235.885"/>
</g>
<!-- Node3 -->
<g id="node5" class="node"><title>Node3</title>
<a xlink:href="fa_2fa_8h.html" target="_top" xlink:title="include/fa/fa.h">
<polygon fill="none" stroke="red" points="215.846,-120.695 215.846,-143.305 308.154,-143.305 308.154,-120.695 215.846,-120.695"/>
<text text-anchor="middle" x="262" y="-128.305" font-family="Futura" font-size="11.00">include/fa/fa.h</text>
</a>
</g>
<!-- Node2&#45;&gt;Node3 -->
<g id="edge4" class="edge"><title>Node2&#45;&gt;Node3</title>
<path fill="none" stroke="midnightblue" d="M255.512,-170.459C254.936,-161.411 255.309,-151.16 256.63,-143.672"/>
<polygon fill="midnightblue" stroke="midnightblue" points="252.062,-171.097 256.684,-180.631 259.016,-170.296 252.062,-171.097"/>
</g>
<!-- Node3&#45;&gt;Node2 -->
<g id="edge6" class="edge"><title>Node3&#45;&gt;Node2</title>
<path fill="none" stroke="midnightblue" d="M268.492,-153.611C269.069,-162.764 268.677,-173.137 267.316,-180.631"/>
<polygon fill="midnightblue" stroke="midnightblue" points="271.97,-153.216 267.37,-143.672 265.014,-154.001 271.97,-153.216"/>
</g>
<!-- Node3&#45;&gt;Node4 -->
<g id="edge8" class="edge"><title>Node3&#45;&gt;Node4</title>
<path fill="none" stroke="midnightblue" d="M215.362,-117.932C178.08,-107.486 126.525,-93.0409 92.0354,-83.3771"/>
<polygon fill="midnightblue" stroke="midnightblue" points="214.419,-121.303 224.993,-120.631 216.308,-114.562 214.419,-121.303"/>
</g>
<!-- Node5 -->
<g id="node10" class="node"><title>Node5</title>
<a xlink:href="io_8h.html" target="_top" xlink:title="include/fa/io.h">
<polygon fill="none" stroke="black" points="9.18481,-0.695312 9.18481,-23.3047 100.815,-23.3047 100.815,-0.695312 9.18481,-0.695312"/>
<text text-anchor="middle" x="55" y="-8.30469" font-family="Futura" font-size="11.00">include/fa/io.h</text>
</a>
</g>
<!-- Node3&#45;&gt;Node5 -->
<g id="edge16" class="edge"><title>Node3&#45;&gt;Node5</title>
<path fill="none" stroke="midnightblue" d="M234.872,-115.536C192.046,-91.1231 109.891,-44.2905 73.3287,-23.4482"/>
<polygon fill="midnightblue" stroke="midnightblue" points="233.209,-118.617 243.63,-120.528 236.676,-112.535 233.209,-118.617"/>
</g>
<!-- Node3&#45;&gt;Node7 -->
<g id="edge18" class="edge"><title>Node3&#45;&gt;Node7</title>
<path fill="none" stroke="midnightblue" d="M294.793,-116.591C318.183,-106.314 349.098,-92.7296 370.16,-83.475"/>
<polygon fill="midnightblue" stroke="midnightblue" points="293.346,-113.404 285.599,-120.631 296.162,-119.812 293.346,-113.404"/>
</g>
<!-- Node3&#45;&gt;Node8 -->
<g id="edge20" class="edge"><title>Node3&#45;&gt;Node8</title>
<path fill="none" stroke="midnightblue" d="M255.512,-110.459C254.936,-101.411 255.309,-91.1602 256.63,-83.6719"/>
<polygon fill="midnightblue" stroke="midnightblue" points="252.062,-111.097 256.684,-120.631 259.016,-110.296 252.062,-111.097"/>
</g>
<!-- Node4&#45;&gt;Node5 -->
<g id="edge10" class="edge"><title>Node4&#45;&gt;Node5</title>
<path fill="none" stroke="midnightblue" d="M55,-50.4586C55,-41.4112 55,-31.1602 55,-23.6719"/>
<polygon fill="midnightblue" stroke="midnightblue" points="51.5001,-50.6307 55,-60.6308 58.5001,-50.6308 51.5001,-50.6307"/>
</g>
<!-- Node4&#45;&gt;Node6 -->
<g id="edge12" class="edge"><title>Node4&#45;&gt;Node6</title>
<path fill="none" stroke="midnightblue" d="M89.4501,-56.7278C114.296,-46.4343 147.277,-32.7708 169.715,-23.475"/>
<polygon fill="midnightblue" stroke="midnightblue" points="87.9281,-53.5698 80.0292,-60.6308 90.6074,-60.0368 87.9281,-53.5698"/>
</g>
<!-- Node6&#45;&gt;Node3 -->
<g id="edge14" class="edge"><title>Node6&#45;&gt;Node3</title>
<path fill="none" stroke="midnightblue" d="M190.574,-33.5256C188.45,-48.3923 187.878,-68.5146 196,-84 204.755,-100.693 222.428,-112.788 237.284,-120.525"/>
<polygon fill="midnightblue" stroke="midnightblue" points="194.08,-33.8033 192.383,-23.3451 187.188,-32.5785 194.08,-33.8033"/>
</g>
<!-- Node8&#45;&gt;Node3 -->
<g id="edge22" class="edge"><title>Node8&#45;&gt;Node3</title>
<path fill="none" stroke="midnightblue" d="M268.492,-93.6107C269.069,-102.764 268.677,-113.137 267.316,-120.631"/>
<polygon fill="midnightblue" stroke="midnightblue" points="271.97,-93.2159 267.37,-83.6719 265.014,-94.0015 271.97,-93.2159"/>
</g>
</g>
</svg>
