<?xml version="1.0" encoding="UTF-8" standalone="no"?>
<!DOCTYPE svg PUBLIC "-//W3C//DTD SVG 1.1//EN"
 "http://www.w3.org/Graphics/SVG/1.1/DTD/svg11.dtd">
<!-- Generated by graphviz version 2.28.0 (20121015.0031)
 -->
<!-- Title: include/fa/string.h Pages: 1 -->
<svg width="840pt" height="152pt"
 viewBox="0.00 0.00 840.00 152.00" xmlns="http://www.w3.org/2000/svg" xmlns:xlink="http://www.w3.org/1999/xlink">
<g id="graph1" class="graph" transform="scale(1 1) rotate(0) translate(4 148)">
<title>include/fa/string.h</title>
<!-- Node1 -->
<g id="node1" class="node"><title>Node1</title>
<polygon fill="#bfbfbf" stroke="black" points="598.306,-120.695 598.306,-143.305 707.694,-143.305 707.694,-120.695 598.306,-120.695"/>
<text text-anchor="middle" x="653" y="-128.305" font-family="Futura" font-size="11.00">include/fa/string.h</text>
</g>
<!-- Node2 -->
<g id="node3" class="node"><title>Node2</title>
<a xlink:href="fa_2fa_8h.html" target="_top" xlink:title="fa.h">
<polygon fill="none" stroke="red" points="557.273,-60.6953 557.273,-83.3047 592.727,-83.3047 592.727,-60.6953 557.273,-60.6953"/>
<text text-anchor="middle" x="575" y="-68.3047" font-family="Futura" font-size="11.00">fa.h</text>
</a>
</g>
<!-- Node1&#45;&gt;Node2 -->
<g id="edge2" class="edge"><title>Node1&#45;&gt;Node2</title>
<path fill="none" stroke="midnightblue" d="M639.055,-120.631C627.481,-112.024 610.8,-99.6207 597.363,-89.6288"/>
<polygon fill="midnightblue" stroke="midnightblue" points="599.2,-86.6335 589.087,-83.475 595.023,-92.2507 599.2,-86.6335"/>
</g>
<!-- Node3 -->
<g id="node5" class="node"><title>Node3</title>
<a xlink:href="atomic_8h.html" target="_top" xlink:title="fa/atomic.h">
<polygon fill="none" stroke="red" points="-0.0629883,-0.695312 -0.0629883,-23.3047 74.063,-23.3047 74.063,-0.695312 -0.0629883,-0.695312"/>
<text text-anchor="middle" x="37" y="-8.30469" font-family="Futura" font-size="11.00">fa/atomic.h</text>
</a>
</g>
<!-- Node2&#45;&gt;Node3 -->
<g id="edge4" class="edge"><title>Node2&#45;&gt;Node3</title>
<path fill="none" stroke="midnightblue" d="M557.205,-70.3511C492.963,-67.5922 269.117,-55.5766 80.1758,-24.9684"/>
<polygon fill="midnightblue" stroke="midnightblue" points="80.5037,-21.4754 70.0685,-23.3075 79.3686,-28.3828 80.5037,-21.4754"/>
</g>
<!-- Node4 -->
<g id="node8" class="node"><title>Node4</title>
<a xlink:href="queue_8h.html" target="_top" xlink:title="fa/atomic/queue.h">
<polygon fill="none" stroke="red" points="91.6484,-0.695312 91.6484,-23.3047 202.352,-23.3047 202.352,-0.695312 91.6484,-0.695312"/>
<text text-anchor="middle" x="147" y="-8.30469" font-family="Futura" font-size="11.00">fa/atomic/queue.h</text>
</a>
</g>
<!-- Node2&#45;&gt;Node4 -->
<g id="edge8" class="edge"><title>Node2&#45;&gt;Node4</title>
<path fill="none" stroke="midnightblue" d="M557.161,-68.9645C505.496,-63.013 351.106,-44.8323 212.436,-24.1732"/>
<polygon fill="midnightblue" stroke="midnightblue" points="212.888,-20.7021 202.48,-22.6816 211.851,-27.6248 212.888,-20.7021"/>
</g>
<!-- Node5 -->
<g id="node10" class="node"><title>Node5</title>
<a xlink:href="stack_8h.html" target="_top" xlink:title="fa/atomic/stack.h">
<polygon fill="none" stroke="red" points="220.42,-0.695312 220.42,-23.3047 325.58,-23.3047 325.58,-0.695312 220.42,-0.695312"/>
<text text-anchor="middle" x="273" y="-8.30469" font-family="Futura" font-size="11.00">fa/atomic/stack.h</text>
</a>
</g>
<!-- Node2&#45;&gt;Node5 -->
<g id="edge10" class="edge"><title>Node2&#45;&gt;Node5</title>
<path fill="none" stroke="midnightblue" d="M557.013,-67.5455C514.41,-59.3636 405.69,-38.4835 335.795,-25.06"/>
<polygon fill="midnightblue" stroke="midnightblue" points="336.258,-21.585 325.777,-23.136 334.937,-28.4593 336.258,-21.585"/>
</g>
<!-- Node6 -->
<g id="node12" class="node"><title>Node6</title>
<a xlink:href="ring__buffer_8h.html" target="_top" xlink:title="fa/atomic/ring_buffer.h">
<polygon fill="none" stroke="red" points="343.526,-0.695312 343.526,-23.3047 478.474,-23.3047 478.474,-0.695312 343.526,-0.695312"/>
<text text-anchor="middle" x="411" y="-8.30469" font-family="Futura" font-size="11.00">fa/atomic/ring_buffer.h</text>
</a>
</g>
<!-- Node2&#45;&gt;Node6 -->
<g id="edge12" class="edge"><title>Node2&#45;&gt;Node6</title>
<path fill="none" stroke="midnightblue" d="M557.137,-64.6826C531.522,-55.6237 483.709,-38.7143 449.755,-26.7059"/>
<polygon fill="midnightblue" stroke="midnightblue" points="450.734,-23.3398 440.139,-23.3053 448.4,-29.9393 450.734,-23.3398"/>
</g>
<!-- Node7 -->
<g id="node14" class="node"><title>Node7</title>
<a xlink:href="system_8h.html" target="_top" xlink:title="fa/system.h">
<polygon fill="none" stroke="red" points="496.026,-0.695312 496.026,-23.3047 569.974,-23.3047 569.974,-0.695312 496.026,-0.695312"/>
<text text-anchor="middle" x="533" y="-8.30469" font-family="Futura" font-size="11.00">fa/system.h</text>
</a>
</g>
<!-- Node2&#45;&gt;Node7 -->
<g id="edge14" class="edge"><title>Node2&#45;&gt;Node7</title>
<path fill="none" stroke="midnightblue" d="M567.491,-60.6308C561.71,-52.6478 553.564,-41.3984 546.64,-31.8366"/>
<polygon fill="midnightblue" stroke="midnightblue" points="549.428,-29.7185 540.728,-23.6719 543.758,-33.8241 549.428,-29.7185"/>
</g>
<!-- Node8 -->
<g id="node16" class="node"><title>Node8</title>
<a xlink:href="error_8h.html" target="_top" xlink:title="fa/error.h">
<polygon fill="none" stroke="black" points="767.161,-0.695312 767.161,-23.3047 832.839,-23.3047 832.839,-0.695312 767.161,-0.695312"/>
<text text-anchor="middle" x="800" y="-8.30469" font-family="Futura" font-size="11.00">fa/error.h</text>
</a>
</g>
<!-- Node2&#45;&gt;Node8 -->
<g id="edge16" class="edge"><title>Node2&#45;&gt;Node8</title>
<path fill="none" stroke="midnightblue" d="M592.827,-64.9519C624.593,-56.0375 691.848,-38.8234 749,-24 751.579,-23.3312 754.246,-22.6373 756.952,-21.9382"/>
<polygon fill="midnightblue" stroke="midnightblue" points="758.006,-25.2815 766.83,-19.4179 756.275,-18.4988 758.006,-25.2815"/>
</g>
<!-- Node9 -->
<g id="node20" class="node"><title>Node9</title>
<a xlink:href="pair_8h.html" target="_top" xlink:title="fa/pair.h">
<polygon fill="none" stroke="red" points="587.694,-0.695312 587.694,-23.3047 648.306,-23.3047 648.306,-0.695312 587.694,-0.695312"/>
<text text-anchor="middle" x="618" y="-8.30469" font-family="Futura" font-size="11.00">fa/pair.h</text>
</a>
</g>
<!-- Node2&#45;&gt;Node9 -->
<g id="edge22" class="edge"><title>Node2&#45;&gt;Node9</title>
<path fill="none" stroke="midnightblue" d="M577.372,-60.6308C581.931,-52.4848 590.157,-40.9379 598.147,-31.2533"/>
<polygon fill="midnightblue" stroke="midnightblue" points="600.814,-33.521 604.718,-23.6719 595.524,-28.9365 600.814,-33.521"/>
</g>
<!-- Node10 -->
<g id="node23" class="node"><title>Node10</title>
<polygon fill="none" stroke="#bfbfbf" points="666.804,-0.695312 666.804,-23.3047 749.196,-23.3047 749.196,-0.695312 666.804,-0.695312"/>
<text text-anchor="middle" x="708" y="-8.30469" font-family="Futura" font-size="11.00">fa/pair/left.h</text>
</g>
<!-- Node2&#45;&gt;Node10 -->
<g id="edge26" class="edge"><title>Node2&#45;&gt;Node10</title>
<path fill="none" stroke="midnightblue" d="M592.937,-63.1779C613.811,-54.075 648.721,-38.8511 674.625,-27.5546"/>
<polygon fill="midnightblue" stroke="midnightblue" points="676.297,-30.6439 684.064,-23.4383 673.498,-24.2275 676.297,-30.6439"/>
</g>
<!-- Node3&#45;&gt;Node2 -->
<g id="edge6" class="edge"><title>Node3&#45;&gt;Node2</title>
<path fill="none" stroke="midnightblue" d="M74.1459,-20.4309C80.1499,-21.77 86.2492,-23.0425 92,-24 263.833,-52.6093 472.546,-65.4007 547.091,-69.47"/>
<polygon fill="midnightblue" stroke="midnightblue" points="546.922,-72.9659 557.095,-70.008 547.298,-65.976 546.922,-72.9659"/>
</g>
<!-- Node8&#45;&gt;Node1 -->
<g id="edge20" class="edge"><title>Node8&#45;&gt;Node1</title>
<path fill="none" stroke="midnightblue" d="M786.773,-23.6179C761.191,-44.1526 704.755,-89.4549 673.994,-114.148"/>
<polygon fill="midnightblue" stroke="midnightblue" points="671.653,-111.539 666.045,-120.528 676.035,-116.998 671.653,-111.539"/>
</g>
<!-- Node8&#45;&gt;Node2 -->
<g id="edge18" class="edge"><title>Node8&#45;&gt;Node2</title>
<path fill="none" stroke="midnightblue" d="M769.653,-23.3109C768.761,-23.5429 767.876,-23.7729 767,-24 708.809,-39.0927 640.147,-56.6636 602.527,-65.4294"/>
<polygon fill="midnightblue" stroke="midnightblue" points="601.742,-62.0183 592.774,-67.6589 603.302,-68.8423 601.742,-62.0183"/>
</g>
<!-- Node9&#45;&gt;Node2 -->
<g id="edge24" class="edge"><title>Node9&#45;&gt;Node2</title>
<path fill="none" stroke="midnightblue" d="M615.458,-23.6719C610.855,-31.8185 602.706,-43.235 594.797,-52.8141"/>
<polygon fill="midnightblue" stroke="midnightblue" points="591.922,-50.787 588.003,-60.6308 597.205,-55.3789 591.922,-50.787"/>
</g>
</g>
</svg>
