<?xml version="1.0" encoding="UTF-8" standalone="no"?>
<!DOCTYPE svg PUBLIC "-//W3C//DTD SVG 1.1//EN"
 "http://www.w3.org/Graphics/SVG/1.1/DTD/svg11.dtd">
<!-- Generated by graphviz version 2.28.0 (20121015.0031)
 -->
<!-- Title: include/fa/string.h Pages: 1 -->
<svg width="680pt" height="272pt"
 viewBox="0.00 0.00 679.64 272.00" xmlns="http://www.w3.org/2000/svg" xmlns:xlink="http://www.w3.org/1999/xlink">
<g id="graph1" class="graph" transform="scale(1 1) rotate(0) translate(4 268)">
<title>include/fa/string.h</title>
<!-- Node1 -->
<g id="node1" class="node"><title>Node1</title>
<polygon fill="#bfbfbf" stroke="black" points="283.849,-240.695 283.849,-263.305 393.237,-263.305 393.237,-240.695 283.849,-240.695"/>
<text text-anchor="middle" x="338.543" y="-248.305" font-family="Futura" font-size="11.00">include/fa/string.h</text>
</g>
<!-- Node2 -->
<g id="node3" class="node"><title>Node2</title>
<a xlink:href="buffer_8h.html" target="_top" xlink:title="include/fa/buffer.h">
<polygon fill="none" stroke="red" points="243.77,-60.6953 243.77,-83.3047 355.316,-83.3047 355.316,-60.6953 243.77,-60.6953"/>
<text text-anchor="middle" x="299.543" y="-68.3047" font-family="Futura" font-size="11.00">include/fa/buffer.h</text>
</a>
</g>
<!-- Node1&#45;&gt;Node2 -->
<g id="edge2" class="edge"><title>Node1&#45;&gt;Node2</title>
<path fill="none" stroke="midnightblue" d="M273.465,-251.187C188.672,-249.884 47.3359,-241.893 14.543,-204 -54.2327,-124.528 142.679,-90.4276 243.762,-78.457"/>
<polygon fill="midnightblue" stroke="midnightblue" points="273.471,-254.687 283.515,-251.315 273.56,-247.688 273.471,-254.687"/>
</g>
<!-- Node4 -->
<g id="node7" class="node"><title>Node4</title>
<a xlink:href="dynamic_8h.html" target="_top" xlink:title="include/fa/dynamic.h">
<polygon fill="none" stroke="black" points="23.4615,-180.695 23.4615,-203.305 147.625,-203.305 147.625,-180.695 23.4615,-180.695"/>
<text text-anchor="middle" x="85.543" y="-188.305" font-family="Futura" font-size="11.00">include/fa/dynamic.h</text>
</a>
</g>
<!-- Node1&#45;&gt;Node4 -->
<g id="edge6" class="edge"><title>Node1&#45;&gt;Node4</title>
<path fill="none" stroke="midnightblue" d="M283.278,-238.33C237.587,-227.856 173.501,-213.164 130.809,-203.377"/>
<polygon fill="midnightblue" stroke="midnightblue" points="282.782,-241.808 293.312,-240.631 284.347,-234.985 282.782,-241.808"/>
</g>
<!-- Node5 -->
<g id="node9" class="node"><title>Node5</title>
<a xlink:href="error_8h.html" target="_top" xlink:title="include/fa/error.h">
<polygon fill="none" stroke="red" points="165.141,-180.695 165.141,-203.305 271.945,-203.305 271.945,-180.695 165.141,-180.695"/>
<text text-anchor="middle" x="218.543" y="-188.305" font-family="Futura" font-size="11.00">include/fa/error.h</text>
</a>
</g>
<!-- Node1&#45;&gt;Node5 -->
<g id="edge8" class="edge"><title>Node1&#45;&gt;Node5</title>
<path fill="none" stroke="midnightblue" d="M307.877,-236.178C286.72,-225.952 259.108,-212.606 240.215,-203.475"/>
<polygon fill="midnightblue" stroke="midnightblue" points="306.563,-239.43 317.089,-240.631 309.609,-233.128 306.563,-239.43"/>
</g>
<!-- Node6 -->
<g id="node11" class="node"><title>Node6</title>
<a xlink:href="map_8h.html" target="_top" xlink:title="include/fa/map.h">
<polygon fill="none" stroke="red" points="247.457,-120.695 247.457,-143.305 351.629,-143.305 351.629,-120.695 247.457,-120.695"/>
<text text-anchor="middle" x="299.543" y="-128.305" font-family="Futura" font-size="11.00">include/fa/map.h</text>
</a>
</g>
<!-- Node1&#45;&gt;Node6 -->
<g id="edge10" class="edge"><title>Node1&#45;&gt;Node6</title>
<path fill="none" stroke="midnightblue" d="M329.354,-231.13C325.716,-222.846 321.665,-213.06 318.543,-204 311.309,-183.009 305.131,-157.752 301.916,-143.726"/>
<polygon fill="midnightblue" stroke="midnightblue" points="326.203,-232.657 333.497,-240.341 332.587,-229.786 326.203,-232.657"/>
</g>
<!-- Node7 -->
<g id="node14" class="node"><title>Node7</title>
<a xlink:href="option_8h.html" target="_top" xlink:title="include/fa/option.h">
<polygon fill="none" stroke="black" points="386.556,-60.6953 386.556,-83.3047 500.53,-83.3047 500.53,-60.6953 386.556,-60.6953"/>
<text text-anchor="middle" x="443.543" y="-68.3047" font-family="Futura" font-size="11.00">include/fa/option.h</text>
</a>
</g>
<!-- Node1&#45;&gt;Node7 -->
<g id="edge14" class="edge"><title>Node1&#45;&gt;Node7</title>
<path fill="none" stroke="midnightblue" d="M403.624,-251.083C487.703,-249.644 627.15,-241.482 659.543,-204 712.74,-142.446 575.43,-101.315 495.768,-83.3284"/>
<polygon fill="midnightblue" stroke="midnightblue" points="403.353,-247.587 393.404,-251.23 403.453,-254.586 403.353,-247.587"/>
</g>
<!-- Node8 -->
<g id="node16" class="node"><title>Node8</title>
<a xlink:href="std_8h.html" target="_top" xlink:title="include/fa/std.h">
<polygon fill="none" stroke="red" points="382.37,-120.695 382.37,-143.305 478.716,-143.305 478.716,-120.695 382.37,-120.695"/>
<text text-anchor="middle" x="430.543" y="-128.305" font-family="Futura" font-size="11.00">include/fa/std.h</text>
</a>
</g>
<!-- Node1&#45;&gt;Node8 -->
<g id="edge16" class="edge"><title>Node1&#45;&gt;Node8</title>
<path fill="none" stroke="midnightblue" d="M395.923,-236.841C412.527,-229.797 428.787,-219.365 438.543,-204 450.378,-185.36 441.887,-158.316 435.615,-143.566"/>
<polygon fill="midnightblue" stroke="midnightblue" points="394.225,-233.745 386.154,-240.61 396.744,-240.276 394.225,-233.745"/>
</g>
<!-- Node9 -->
<g id="node20" class="node"><title>Node9</title>
<a xlink:href="directory_8h.html" target="_top" xlink:title="include/fa/system/directory.h">
<polygon fill="none" stroke="red" points="485.995,-180.695 485.995,-203.305 651.091,-203.305 651.091,-180.695 485.995,-180.695"/>
<text text-anchor="middle" x="568.543" y="-188.305" font-family="Futura" font-size="11.00">include/fa/system/directory.h</text>
</a>
</g>
<!-- Node1&#45;&gt;Node9 -->
<g id="edge22" class="edge"><title>Node1&#45;&gt;Node9</title>
<path fill="none" stroke="midnightblue" d="M389.572,-238.132C431.055,-227.671 488.826,-213.103 527.393,-203.377"/>
<polygon fill="midnightblue" stroke="midnightblue" points="388.503,-234.792 379.662,-240.631 390.215,-241.579 388.503,-234.792"/>
</g>
<!-- Node10 -->
<g id="node22" class="node"><title>Node10</title>
<a xlink:href="time_8h.html" target="_top" xlink:title="include/fa/time.h">
<polygon fill="none" stroke="red" points="327.137,-180.695 327.137,-203.305 429.95,-203.305 429.95,-180.695 327.137,-180.695"/>
<text text-anchor="middle" x="378.543" y="-188.305" font-family="Futura" font-size="11.00">include/fa/time.h</text>
</a>
</g>
<!-- Node1&#45;&gt;Node10 -->
<g id="edge24" class="edge"><title>Node1&#45;&gt;Node10</title>
<path fill="none" stroke="midnightblue" d="M351.487,-232.231C358.009,-222.775 365.678,-211.654 371.183,-203.672"/>
<polygon fill="midnightblue" stroke="midnightblue" points="348.49,-230.412 345.694,-240.631 354.253,-234.386 348.49,-230.412"/>
</g>
<!-- Node3 -->
<g id="node5" class="node"><title>Node3</title>
<a xlink:href="io_8h.html" target="_top" xlink:title="include/fa/io.h">
<polygon fill="none" stroke="black" points="253.728,-0.695312 253.728,-23.3047 345.358,-23.3047 345.358,-0.695312 253.728,-0.695312"/>
<text text-anchor="middle" x="299.543" y="-8.30469" font-family="Futura" font-size="11.00">include/fa/io.h</text>
</a>
</g>
<!-- Node2&#45;&gt;Node3 -->
<g id="edge4" class="edge"><title>Node2&#45;&gt;Node3</title>
<path fill="none" stroke="midnightblue" d="M299.543,-50.4586C299.543,-41.4112 299.543,-31.1602 299.543,-23.6719"/>
<polygon fill="midnightblue" stroke="midnightblue" points="296.043,-50.6307 299.543,-60.6308 303.043,-50.6308 296.043,-50.6307"/>
</g>
<!-- Node6&#45;&gt;Node2 -->
<g id="edge12" class="edge"><title>Node6&#45;&gt;Node2</title>
<path fill="none" stroke="midnightblue" d="M299.543,-110.459C299.543,-101.411 299.543,-91.1602 299.543,-83.6719"/>
<polygon fill="midnightblue" stroke="midnightblue" points="296.043,-110.631 299.543,-120.631 303.043,-110.631 296.043,-110.631"/>
</g>
<!-- Node8&#45;&gt;Node2 -->
<g id="edge18" class="edge"><title>Node8&#45;&gt;Node2</title>
<path fill="none" stroke="midnightblue" d="M397.689,-116.454C374.513,-106.193 344.012,-92.6885 323.202,-83.475"/>
<polygon fill="midnightblue" stroke="midnightblue" points="396.562,-119.783 407.123,-120.631 399.396,-113.382 396.562,-119.783"/>
</g>
<!-- Node8&#45;&gt;Node7 -->
<g id="edge20" class="edge"><title>Node8&#45;&gt;Node7</title>
<path fill="none" stroke="midnightblue" d="M435.08,-110.756C437.124,-101.637 439.454,-91.2425 441.151,-83.6719"/>
<polygon fill="midnightblue" stroke="midnightblue" points="431.639,-110.107 432.867,-120.631 438.47,-111.638 431.639,-110.107"/>
</g>
<!-- Node10&#45;&gt;Node8 -->
<g id="edge26" class="edge"><title>Node10&#45;&gt;Node8</title>
<path fill="none" stroke="midnightblue" d="M394.588,-173.104C403.229,-163.466 413.597,-151.901 420.975,-143.672"/>
<polygon fill="midnightblue" stroke="midnightblue" points="391.909,-170.849 387.84,-180.631 397.121,-175.521 391.909,-170.849"/>
</g>
</g>
</svg>
