<?xml version="1.0" encoding="UTF-8" standalone="no"?>
<!DOCTYPE svg PUBLIC "-//W3C//DTD SVG 1.1//EN"
 "http://www.w3.org/Graphics/SVG/1.1/DTD/svg11.dtd">
<!-- Generated by graphviz version 2.28.0 (20121015.0031)
 -->
<!-- Title: include/fa/time.h Pages: 1 -->
<svg width="820pt" height="212pt"
 viewBox="0.00 0.00 820.00 212.00" xmlns="http://www.w3.org/2000/svg" xmlns:xlink="http://www.w3.org/1999/xlink">
<g id="graph1" class="graph" transform="scale(1 1) rotate(0) translate(4 208)">
<title>include/fa/time.h</title>
<!-- Node1 -->
<g id="node1" class="node"><title>Node1</title>
<polygon fill="#bfbfbf" stroke="black" points="574.594,-180.695 574.594,-203.305 677.406,-203.305 677.406,-180.695 574.594,-180.695"/>
<text text-anchor="middle" x="626" y="-188.305" font-family="Futura" font-size="11.00">include/fa/time.h</text>
</g>
<!-- Node2 -->
<g id="node3" class="node"><title>Node2</title>
<a xlink:href="fa_2fa_8h.html" target="_top" xlink:title="fa.h">
<polygon fill="none" stroke="red" points="515.273,-120.695 515.273,-143.305 550.727,-143.305 550.727,-120.695 515.273,-120.695"/>
<text text-anchor="middle" x="533" y="-128.305" font-family="Futura" font-size="11.00">fa.h</text>
</a>
</g>
<!-- Node1&#45;&gt;Node2 -->
<g id="edge2" class="edge"><title>Node1&#45;&gt;Node2</title>
<path fill="none" stroke="midnightblue" d="M604.058,-180.631C588.548,-171.942 568.136,-159.384 553.064,-149.344"/>
<polygon fill="midnightblue" stroke="midnightblue" points="554.694,-146.219 544.461,-143.475 550.749,-152.002 554.694,-146.219"/>
</g>
<!-- Node9 -->
<g id="node19" class="node"><title>Node9</title>
<a xlink:href="string_8h.html" target="_top" xlink:title="fa/string.h">
<polygon fill="none" stroke="black" points="647.87,-0.695312 647.87,-23.3047 716.13,-23.3047 716.13,-0.695312 647.87,-0.695312"/>
<text text-anchor="middle" x="682" y="-8.30469" font-family="Futura" font-size="11.00">fa/string.h</text>
</a>
</g>
<!-- Node1&#45;&gt;Node9 -->
<g id="edge28" class="edge"><title>Node1&#45;&gt;Node9</title>
<path fill="none" stroke="midnightblue" d="M633.762,-180.464C646.799,-162.041 672.589,-122.278 682,-84 686.041,-67.5657 685.747,-48.3373 684.606,-34.0389"/>
<polygon fill="midnightblue" stroke="midnightblue" points="688.057,-33.3768 683.576,-23.7764 681.092,-34.0759 688.057,-33.3768"/>
</g>
<!-- Node10 -->
<g id="node23" class="node"><title>Node10</title>
<a xlink:href="ratio_8h.html" target="_top" xlink:title="fa/ratio.h">
<polygon fill="none" stroke="red" points="747.927,-120.695 747.927,-143.305 812.073,-143.305 812.073,-120.695 747.927,-120.695"/>
<text text-anchor="middle" x="780" y="-128.305" font-family="Futura" font-size="11.00">fa/ratio.h</text>
</a>
</g>
<!-- Node1&#45;&gt;Node10 -->
<g id="edge26" class="edge"><title>Node1&#45;&gt;Node10</title>
<path fill="none" stroke="midnightblue" d="M653.532,-180.631C678.42,-171.257 715.265,-157.381 742.774,-147.02"/>
<polygon fill="midnightblue" stroke="midnightblue" points="744.322,-150.177 752.447,-143.377 741.855,-143.626 744.322,-150.177"/>
</g>
<!-- Node2&#45;&gt;Node1 -->
<g id="edge24" class="edge"><title>Node2&#45;&gt;Node1</title>
<path fill="none" stroke="midnightblue" d="M550.731,-141.04C566.702,-149.75 589.777,-163.874 606.283,-174.887"/>
<polygon fill="midnightblue" stroke="midnightblue" points="604.458,-177.879 614.689,-180.631 608.407,-172.1 604.458,-177.879"/>
</g>
<!-- Node3 -->
<g id="node5" class="node"><title>Node3</title>
<a xlink:href="atomic_8h.html" target="_top" xlink:title="fa/atomic.h">
<polygon fill="none" stroke="red" points="-0.0629883,-60.6953 -0.0629883,-83.3047 74.063,-83.3047 74.063,-60.6953 -0.0629883,-60.6953"/>
<text text-anchor="middle" x="37" y="-68.3047" font-family="Futura" font-size="11.00">fa/atomic.h</text>
</a>
</g>
<!-- Node2&#45;&gt;Node3 -->
<g id="edge4" class="edge"><title>Node2&#45;&gt;Node3</title>
<path fill="none" stroke="midnightblue" d="M515.203,-130.179C454.469,-126.905 251.869,-113.588 80.5091,-85.0638"/>
<polygon fill="midnightblue" stroke="midnightblue" points="81.0092,-81.5987 70.5661,-83.3853 79.844,-88.5011 81.0092,-81.5987"/>
</g>
<!-- Node4 -->
<g id="node8" class="node"><title>Node4</title>
<a xlink:href="queue_8h.html" target="_top" xlink:title="fa/atomic/queue.h">
<polygon fill="none" stroke="red" points="91.6484,-60.6953 91.6484,-83.3047 202.352,-83.3047 202.352,-60.6953 91.6484,-60.6953"/>
<text text-anchor="middle" x="147" y="-68.3047" font-family="Futura" font-size="11.00">fa/atomic/queue.h</text>
</a>
</g>
<!-- Node2&#45;&gt;Node4 -->
<g id="edge8" class="edge"><title>Node2&#45;&gt;Node4</title>
<path fill="none" stroke="midnightblue" d="M515.173,-128.559C467.751,-122.032 334.344,-103.45 212.716,-84.2462"/>
<polygon fill="midnightblue" stroke="midnightblue" points="212.913,-80.7338 202.489,-82.6254 211.818,-87.6476 212.913,-80.7338"/>
</g>
<!-- Node5 -->
<g id="node10" class="node"><title>Node5</title>
<a xlink:href="stack_8h.html" target="_top" xlink:title="fa/atomic/stack.h">
<polygon fill="none" stroke="red" points="220.42,-60.6953 220.42,-83.3047 325.58,-83.3047 325.58,-60.6953 220.42,-60.6953"/>
<text text-anchor="middle" x="273" y="-68.3047" font-family="Futura" font-size="11.00">fa/atomic/stack.h</text>
</a>
</g>
<!-- Node2&#45;&gt;Node5 -->
<g id="edge10" class="edge"><title>Node2&#45;&gt;Node5</title>
<path fill="none" stroke="midnightblue" d="M515.129,-127.013C477.387,-118.594 388.187,-98.6955 329.235,-85.5448"/>
<polygon fill="midnightblue" stroke="midnightblue" points="329.846,-82.095 319.324,-83.3337 328.322,-88.9271 329.846,-82.095"/>
</g>
<!-- Node6 -->
<g id="node12" class="node"><title>Node6</title>
<a xlink:href="ring__buffer_8h.html" target="_top" xlink:title="fa/atomic/ring_buffer.h">
<polygon fill="none" stroke="red" points="343.526,-60.6953 343.526,-83.3047 478.474,-83.3047 478.474,-60.6953 343.526,-60.6953"/>
<text text-anchor="middle" x="411" y="-68.3047" font-family="Futura" font-size="11.00">fa/atomic/ring_buffer.h</text>
</a>
</g>
<!-- Node2&#45;&gt;Node6 -->
<g id="edge12" class="edge"><title>Node2&#45;&gt;Node6</title>
<path fill="none" stroke="midnightblue" d="M515.26,-122.566C496.092,-113.454 465.184,-98.7595 441.987,-87.7316"/>
<polygon fill="midnightblue" stroke="midnightblue" points="443.423,-84.539 432.889,-83.4064 440.418,-90.861 443.423,-84.539"/>
</g>
<!-- Node7 -->
<g id="node14" class="node"><title>Node7</title>
<a xlink:href="system_8h.html" target="_top" xlink:title="fa/system.h">
<polygon fill="none" stroke="red" points="496.026,-60.6953 496.026,-83.3047 569.974,-83.3047 569.974,-60.6953 496.026,-60.6953"/>
<text text-anchor="middle" x="533" y="-68.3047" font-family="Futura" font-size="11.00">fa/system.h</text>
</a>
</g>
<!-- Node2&#45;&gt;Node7 -->
<g id="edge14" class="edge"><title>Node2&#45;&gt;Node7</title>
<path fill="none" stroke="midnightblue" d="M533,-120.631C533,-113.218 533,-102.989 533,-93.9096"/>
<polygon fill="midnightblue" stroke="midnightblue" points="536.5,-93.6718 533,-83.6719 529.5,-93.6719 536.5,-93.6718"/>
</g>
<!-- Node8 -->
<g id="node16" class="node"><title>Node8</title>
<a xlink:href="error_8h.html" target="_top" xlink:title="fa/error.h">
<polygon fill="none" stroke="black" points="588.161,-60.6953 588.161,-83.3047 653.839,-83.3047 653.839,-60.6953 588.161,-60.6953"/>
<text text-anchor="middle" x="621" y="-68.3047" font-family="Futura" font-size="11.00">fa/error.h</text>
</a>
</g>
<!-- Node2&#45;&gt;Node8 -->
<g id="edge16" class="edge"><title>Node2&#45;&gt;Node8</title>
<path fill="none" stroke="midnightblue" d="M543.417,-120.631C555.24,-111.778 574.51,-98.9089 590.977,-88.7784"/>
<polygon fill="midnightblue" stroke="midnightblue" points="593.016,-91.6362 599.772,-83.475 589.401,-85.6418 593.016,-91.6362"/>
</g>
<!-- Node3&#45;&gt;Node2 -->
<g id="edge6" class="edge"><title>Node3&#45;&gt;Node2</title>
<path fill="none" stroke="midnightblue" d="M74.1526,-80.3911C80.1561,-81.7334 86.2534,-83.0171 92,-84 246.705,-110.46 434.05,-124.248 504.559,-129.025"/>
<polygon fill="midnightblue" stroke="midnightblue" points="504.637,-132.538 514.849,-129.715 505.106,-125.554 504.637,-132.538"/>
</g>
<!-- Node8&#45;&gt;Node2 -->
<g id="edge18" class="edge"><title>Node8&#45;&gt;Node2</title>
<path fill="none" stroke="midnightblue" d="M610.597,-83.3588C598.033,-92.7676 577.046,-106.72 559.956,-117.097"/>
<polygon fill="midnightblue" stroke="midnightblue" points="557.757,-114.331 550.94,-122.442 561.327,-120.352 557.757,-114.331"/>
</g>
<!-- Node8&#45;&gt;Node9 -->
<g id="edge20" class="edge"><title>Node8&#45;&gt;Node9</title>
<path fill="none" stroke="midnightblue" d="M631.906,-60.6308C640.644,-52.3219 653.104,-40.4746 663.411,-30.6745"/>
<polygon fill="midnightblue" stroke="midnightblue" points="665.941,-33.099 670.776,-23.6719 661.117,-28.026 665.941,-33.099"/>
</g>
<!-- Node9&#45;&gt;Node2 -->
<g id="edge22" class="edge"><title>Node9&#45;&gt;Node2</title>
<path fill="none" stroke="midnightblue" d="M681.916,-23.336C681.236,-38.5516 677.766,-67.0084 662,-84 635.432,-112.634 590.017,-123.868 560.772,-128.245"/>
<polygon fill="midnightblue" stroke="midnightblue" points="560.247,-124.784 550.793,-129.567 561.167,-131.724 560.247,-124.784"/>
</g>
</g>
</svg>
