<?xml version="1.0" encoding="UTF-8" standalone="no"?>
<!DOCTYPE svg PUBLIC "-//W3C//DTD SVG 1.1//EN"
 "http://www.w3.org/Graphics/SVG/1.1/DTD/svg11.dtd">
<!-- Generated by graphviz version 2.28.0 (20121015.0031)
 -->
<!-- Title: include/fa/clock.h Pages: 1 -->
<svg width="819pt" height="152pt"
 viewBox="0.00 0.00 819.00 152.00" xmlns="http://www.w3.org/2000/svg" xmlns:xlink="http://www.w3.org/1999/xlink">
<g id="graph1" class="graph" transform="scale(1 1) rotate(0) translate(4 148)">
<title>include/fa/clock.h</title>
<!-- Node1 -->
<g id="node1" class="node"><title>Node1</title>
<polygon fill="#bfbfbf" stroke="black" points="617.978,-120.695 617.978,-143.305 726.022,-143.305 726.022,-120.695 617.978,-120.695"/>
<text text-anchor="middle" x="672" y="-128.305" font-family="Futura" font-size="11.00">include/fa/clock.h</text>
</g>
<!-- Node2 -->
<g id="node3" class="node"><title>Node2</title>
<a xlink:href="fa_2fa_8h.html" target="_top" xlink:title="fa.h">
<polygon fill="none" stroke="red" points="603.273,-60.6953 603.273,-83.3047 638.727,-83.3047 638.727,-60.6953 603.273,-60.6953"/>
<text text-anchor="middle" x="621" y="-68.3047" font-family="Futura" font-size="11.00">fa.h</text>
</a>
</g>
<!-- Node1&#45;&gt;Node2 -->
<g id="edge2" class="edge"><title>Node1&#45;&gt;Node2</title>
<path fill="none" stroke="midnightblue" d="M662.882,-120.631C655.719,-112.485 645.566,-100.938 637.05,-91.2533"/>
<polygon fill="midnightblue" stroke="midnightblue" points="639.616,-88.8704 630.384,-83.6719 634.359,-93.4928 639.616,-88.8704"/>
</g>
<!-- Node10 -->
<g id="node21" class="node"><title>Node10</title>
<a xlink:href="time_8h.html" target="_top" xlink:title="fa/time.h">
<polygon fill="none" stroke="red" points="750.157,-0.695312 750.157,-23.3047 811.843,-23.3047 811.843,-0.695312 750.157,-0.695312"/>
<text text-anchor="middle" x="781" y="-8.30469" font-family="Futura" font-size="11.00">fa/time.h</text>
</a>
</g>
<!-- Node1&#45;&gt;Node10 -->
<g id="edge26" class="edge"><title>Node1&#45;&gt;Node10</title>
<path fill="none" stroke="midnightblue" d="M681.673,-120.528C700.291,-100.373 741.301,-55.9768 764.38,-30.9923"/>
<polygon fill="midnightblue" stroke="midnightblue" points="766.978,-33.3384 771.192,-23.6179 761.836,-28.5886 766.978,-33.3384"/>
</g>
<!-- Node3 -->
<g id="node5" class="node"><title>Node3</title>
<polygon fill="none" stroke="#bfbfbf" points="-0.0629883,-0.695312 -0.0629883,-23.3047 74.063,-23.3047 74.063,-0.695312 -0.0629883,-0.695312"/>
<text text-anchor="middle" x="37" y="-8.30469" font-family="Futura" font-size="11.00">fa/atomic.h</text>
</g>
<!-- Node2&#45;&gt;Node3 -->
<g id="edge4" class="edge"><title>Node2&#45;&gt;Node3</title>
<path fill="none" stroke="midnightblue" d="M603.235,-70.4003C536.371,-67.9455 293.435,-57.2435 84.2481,-24.0095"/>
<polygon fill="midnightblue" stroke="midnightblue" points="84.7424,-20.544 74.3132,-22.4098 83.6296,-27.455 84.7424,-20.544"/>
</g>
<!-- Node4 -->
<g id="node7" class="node"><title>Node4</title>
<polygon fill="none" stroke="#bfbfbf" points="91.6484,-0.695312 91.6484,-23.3047 202.352,-23.3047 202.352,-0.695312 91.6484,-0.695312"/>
<text text-anchor="middle" x="147" y="-8.30469" font-family="Futura" font-size="11.00">fa/atomic/queue.h</text>
</g>
<!-- Node2&#45;&gt;Node4 -->
<g id="edge6" class="edge"><title>Node2&#45;&gt;Node4</title>
<path fill="none" stroke="midnightblue" d="M602.97,-69.2976C546.815,-63.9193 369.895,-46.399 212.791,-24.1992"/>
<polygon fill="midnightblue" stroke="midnightblue" points="212.866,-20.6747 202.473,-22.7302 211.88,-27.6049 212.866,-20.6747"/>
</g>
<!-- Node5 -->
<g id="node9" class="node"><title>Node5</title>
<polygon fill="none" stroke="#bfbfbf" points="220.42,-0.695312 220.42,-23.3047 325.58,-23.3047 325.58,-0.695312 220.42,-0.695312"/>
<text text-anchor="middle" x="273" y="-8.30469" font-family="Futura" font-size="11.00">fa/atomic/stack.h</text>
</g>
<!-- Node2&#45;&gt;Node5 -->
<g id="edge8" class="edge"><title>Node2&#45;&gt;Node5</title>
<path fill="none" stroke="midnightblue" d="M603.248,-68.1633C559.675,-61.1831 443.741,-42.509 335.837,-24.1275"/>
<polygon fill="midnightblue" stroke="midnightblue" points="336.204,-20.6395 325.757,-22.4072 335.026,-27.5397 336.204,-20.6395"/>
</g>
<!-- Node6 -->
<g id="node11" class="node"><title>Node6</title>
<polygon fill="none" stroke="#bfbfbf" points="343.526,-0.695312 343.526,-23.3047 478.474,-23.3047 478.474,-0.695312 343.526,-0.695312"/>
<text text-anchor="middle" x="411" y="-8.30469" font-family="Futura" font-size="11.00">fa/atomic/ring_buffer.h</text>
</g>
<!-- Node2&#45;&gt;Node6 -->
<g id="edge10" class="edge"><title>Node2&#45;&gt;Node6</title>
<path fill="none" stroke="midnightblue" d="M603.096,-66.055C571.308,-57.2754 504.05,-38.6995 458.182,-26.0312"/>
<polygon fill="midnightblue" stroke="midnightblue" points="459.024,-22.6328 448.453,-23.3442 457.16,-29.3802 459.024,-22.6328"/>
</g>
<!-- Node7 -->
<g id="node13" class="node"><title>Node7</title>
<polygon fill="none" stroke="#bfbfbf" points="496.026,-0.695312 496.026,-23.3047 569.974,-23.3047 569.974,-0.695312 496.026,-0.695312"/>
<text text-anchor="middle" x="533" y="-8.30469" font-family="Futura" font-size="11.00">fa/system.h</text>
</g>
<!-- Node2&#45;&gt;Node7 -->
<g id="edge12" class="edge"><title>Node2&#45;&gt;Node7</title>
<path fill="none" stroke="midnightblue" d="M605.267,-60.6308C591.96,-51.8601 572.671,-39.1468 557.368,-29.0605"/>
<polygon fill="midnightblue" stroke="midnightblue" points="559.169,-26.0558 548.893,-23.475 555.317,-31.9006 559.169,-26.0558"/>
</g>
<!-- Node8 -->
<g id="node15" class="node"><title>Node8</title>
<a xlink:href="error_8h.html" target="_top" xlink:title="fa/error.h">
<polygon fill="none" stroke="red" points="588.161,-0.695312 588.161,-23.3047 653.839,-23.3047 653.839,-0.695312 588.161,-0.695312"/>
<text text-anchor="middle" x="621" y="-8.30469" font-family="Futura" font-size="11.00">fa/error.h</text>
</a>
</g>
<!-- Node2&#45;&gt;Node8 -->
<g id="edge14" class="edge"><title>Node2&#45;&gt;Node8</title>
<path fill="none" stroke="midnightblue" d="M615.684,-60.6308C614.323,-53.1365 613.931,-42.7636 614.508,-33.6107"/>
<polygon fill="midnightblue" stroke="midnightblue" points="617.986,-34.0015 615.63,-23.6719 611.03,-33.2159 617.986,-34.0015"/>
</g>
<!-- Node9 -->
<g id="node18" class="node"><title>Node9</title>
<a xlink:href="pair_8h.html" target="_top" xlink:title="fa/pair.h">
<polygon fill="none" stroke="red" points="671.694,-0.695312 671.694,-23.3047 732.306,-23.3047 732.306,-0.695312 671.694,-0.695312"/>
<text text-anchor="middle" x="702" y="-8.30469" font-family="Futura" font-size="11.00">fa/pair.h</text>
</a>
</g>
<!-- Node2&#45;&gt;Node9 -->
<g id="edge18" class="edge"><title>Node2&#45;&gt;Node9</title>
<path fill="none" stroke="midnightblue" d="M630.165,-60.6308C640.821,-51.8601 658.31,-39.1468 673.457,-29.0605"/>
<polygon fill="midnightblue" stroke="midnightblue" points="675.566,-31.8644 682.036,-23.475 671.746,-25.9982 675.566,-31.8644"/>
</g>
<!-- Node2&#45;&gt;Node10 -->
<g id="edge22" class="edge"><title>Node2&#45;&gt;Node10</title>
<path fill="none" stroke="midnightblue" d="M639.024,-62.69C663.561,-53.0101 707.703,-36.9131 740.352,-25.6717"/>
<polygon fill="midnightblue" stroke="midnightblue" points="741.748,-28.8937 750.082,-22.3514 739.487,-22.2689 741.748,-28.8937"/>
</g>
<!-- Node8&#45;&gt;Node2 -->
<g id="edge16" class="edge"><title>Node8&#45;&gt;Node2</title>
<path fill="none" stroke="midnightblue" d="M626.37,-23.6719C627.691,-31.1602 628.064,-41.4112 627.488,-50.4586"/>
<polygon fill="midnightblue" stroke="midnightblue" points="623.984,-50.2958 626.316,-60.6308 630.938,-51.0972 623.984,-50.2958"/>
</g>
<!-- Node9&#45;&gt;Node2 -->
<g id="edge20" class="edge"><title>Node9&#45;&gt;Node2</title>
<path fill="none" stroke="midnightblue" d="M692.464,-23.674C681.352,-32.7803 663.134,-45.9711 647.77,-56.1149"/>
<polygon fill="midnightblue" stroke="midnightblue" points="645.64,-53.3235 639.129,-61.6813 649.431,-59.2082 645.64,-53.3235"/>
</g>
<!-- Node10&#45;&gt;Node2 -->
<g id="edge24" class="edge"><title>Node10&#45;&gt;Node2</title>
<path fill="none" stroke="midnightblue" d="M757.607,-23.4098C728.569,-34.6746 679.502,-52.4089 648.644,-62.7506"/>
<polygon fill="midnightblue" stroke="midnightblue" points="647.333,-59.4976 638.933,-65.9543 649.526,-66.1452 647.333,-59.4976"/>
</g>
</g>
</svg>
