<?xml version="1.0" encoding="UTF-8" standalone="no"?>
<!DOCTYPE svg PUBLIC "-//W3C//DTD SVG 1.1//EN"
 "http://www.w3.org/Graphics/SVG/1.1/DTD/svg11.dtd">
<!-- Generated by graphviz version 2.28.0 (20121015.0031)
 -->
<!-- Title: include/fa/priority_queue.h Pages: 1 -->
<svg width="818pt" height="226pt"
 viewBox="0.00 0.00 818.00 226.00" xmlns="http://www.w3.org/2000/svg" xmlns:xlink="http://www.w3.org/1999/xlink">
<g id="graph1" class="graph" transform="scale(1 1) rotate(0) translate(4 222)">
<title>include/fa/priority_queue.h</title>
<!-- Node1 -->
<g id="node1" class="node"><title>Node1</title>
<polygon fill="#bfbfbf" stroke="black" points="478.457,-180.391 478.457,-217.609 587.543,-217.609 587.543,-180.391 478.457,-180.391"/>
<text text-anchor="start" x="486.457" y="-202.609" font-family="Futura" font-size="11.00">include/fa/priority</text>
<text text-anchor="middle" x="533" y="-188" font-family="Futura" font-size="11.00">_queue.h</text>
</g>
<!-- Node2 -->
<g id="node3" class="node"><title>Node2</title>
<a xlink:href="fa_2fa_8h.html" target="_top" xlink:title="fa.h">
<polygon fill="none" stroke="red" points="515.273,-120.695 515.273,-143.305 550.727,-143.305 550.727,-120.695 515.273,-120.695"/>
<text text-anchor="middle" x="533" y="-128.305" font-family="Futura" font-size="11.00">fa.h</text>
</a>
</g>
<!-- Node1&#45;&gt;Node2 -->
<g id="edge2" class="edge"><title>Node1&#45;&gt;Node2</title>
<path fill="none" stroke="midnightblue" d="M526.909,-180.238C526.118,-171.992 526.039,-162.141 526.671,-153.573"/>
<polygon fill="midnightblue" stroke="midnightblue" points="530.149,-153.967 527.853,-143.624 523.198,-153.142 530.149,-153.967"/>
</g>
<!-- Node2&#45;&gt;Node1 -->
<g id="edge28" class="edge"><title>Node2&#45;&gt;Node1</title>
<path fill="none" stroke="midnightblue" d="M538.147,-143.624C539.421,-150.825 539.936,-160.7 539.691,-170.06"/>
<polygon fill="midnightblue" stroke="midnightblue" points="536.185,-170.05 539.091,-180.238 543.173,-170.462 536.185,-170.05"/>
</g>
<!-- Node3 -->
<g id="node5" class="node"><title>Node3</title>
<a xlink:href="atomic_8h.html" target="_top" xlink:title="fa/atomic.h">
<polygon fill="none" stroke="red" points="-0.0629883,-60.6953 -0.0629883,-83.3047 74.063,-83.3047 74.063,-60.6953 -0.0629883,-60.6953"/>
<text text-anchor="middle" x="37" y="-68.3047" font-family="Futura" font-size="11.00">fa/atomic.h</text>
</a>
</g>
<!-- Node2&#45;&gt;Node3 -->
<g id="edge4" class="edge"><title>Node2&#45;&gt;Node3</title>
<path fill="none" stroke="midnightblue" d="M515.203,-130.179C454.469,-126.905 251.869,-113.588 80.5091,-85.0638"/>
<polygon fill="midnightblue" stroke="midnightblue" points="81.0092,-81.5987 70.5661,-83.3853 79.844,-88.5011 81.0092,-81.5987"/>
</g>
<!-- Node4 -->
<g id="node8" class="node"><title>Node4</title>
<a xlink:href="queue_8h.html" target="_top" xlink:title="fa/atomic/queue.h">
<polygon fill="none" stroke="red" points="91.6484,-60.6953 91.6484,-83.3047 202.352,-83.3047 202.352,-60.6953 91.6484,-60.6953"/>
<text text-anchor="middle" x="147" y="-68.3047" font-family="Futura" font-size="11.00">fa/atomic/queue.h</text>
</a>
</g>
<!-- Node2&#45;&gt;Node4 -->
<g id="edge8" class="edge"><title>Node2&#45;&gt;Node4</title>
<path fill="none" stroke="midnightblue" d="M515.173,-128.559C467.751,-122.032 334.344,-103.45 212.716,-84.2462"/>
<polygon fill="midnightblue" stroke="midnightblue" points="212.913,-80.7338 202.489,-82.6254 211.818,-87.6476 212.913,-80.7338"/>
</g>
<!-- Node5 -->
<g id="node10" class="node"><title>Node5</title>
<a xlink:href="stack_8h.html" target="_top" xlink:title="fa/atomic/stack.h">
<polygon fill="none" stroke="red" points="220.42,-60.6953 220.42,-83.3047 325.58,-83.3047 325.58,-60.6953 220.42,-60.6953"/>
<text text-anchor="middle" x="273" y="-68.3047" font-family="Futura" font-size="11.00">fa/atomic/stack.h</text>
</a>
</g>
<!-- Node2&#45;&gt;Node5 -->
<g id="edge10" class="edge"><title>Node2&#45;&gt;Node5</title>
<path fill="none" stroke="midnightblue" d="M515.129,-127.013C477.387,-118.594 388.187,-98.6955 329.235,-85.5448"/>
<polygon fill="midnightblue" stroke="midnightblue" points="329.846,-82.095 319.324,-83.3337 328.322,-88.9271 329.846,-82.095"/>
</g>
<!-- Node6 -->
<g id="node12" class="node"><title>Node6</title>
<a xlink:href="ring__buffer_8h.html" target="_top" xlink:title="fa/atomic/ring_buffer.h">
<polygon fill="none" stroke="red" points="343.526,-60.6953 343.526,-83.3047 478.474,-83.3047 478.474,-60.6953 343.526,-60.6953"/>
<text text-anchor="middle" x="411" y="-68.3047" font-family="Futura" font-size="11.00">fa/atomic/ring_buffer.h</text>
</a>
</g>
<!-- Node2&#45;&gt;Node6 -->
<g id="edge12" class="edge"><title>Node2&#45;&gt;Node6</title>
<path fill="none" stroke="midnightblue" d="M515.26,-122.566C496.092,-113.454 465.184,-98.7595 441.987,-87.7316"/>
<polygon fill="midnightblue" stroke="midnightblue" points="443.423,-84.539 432.889,-83.4064 440.418,-90.861 443.423,-84.539"/>
</g>
<!-- Node7 -->
<g id="node14" class="node"><title>Node7</title>
<a xlink:href="system_8h.html" target="_top" xlink:title="fa/system.h">
<polygon fill="none" stroke="red" points="496.026,-60.6953 496.026,-83.3047 569.974,-83.3047 569.974,-60.6953 496.026,-60.6953"/>
<text text-anchor="middle" x="533" y="-68.3047" font-family="Futura" font-size="11.00">fa/system.h</text>
</a>
</g>
<!-- Node2&#45;&gt;Node7 -->
<g id="edge14" class="edge"><title>Node2&#45;&gt;Node7</title>
<path fill="none" stroke="midnightblue" d="M533,-120.631C533,-113.218 533,-102.989 533,-93.9096"/>
<polygon fill="midnightblue" stroke="midnightblue" points="536.5,-93.6718 533,-83.6719 529.5,-93.6719 536.5,-93.6718"/>
</g>
<!-- Node8 -->
<g id="node16" class="node"><title>Node8</title>
<a xlink:href="error_8h.html" target="_top" xlink:title="fa/error.h">
<polygon fill="none" stroke="red" points="588.161,-60.6953 588.161,-83.3047 653.839,-83.3047 653.839,-60.6953 588.161,-60.6953"/>
<text text-anchor="middle" x="621" y="-68.3047" font-family="Futura" font-size="11.00">fa/error.h</text>
</a>
</g>
<!-- Node2&#45;&gt;Node8 -->
<g id="edge16" class="edge"><title>Node2&#45;&gt;Node8</title>
<path fill="none" stroke="midnightblue" d="M543.417,-120.631C555.24,-111.778 574.51,-98.9089 590.977,-88.7784"/>
<polygon fill="midnightblue" stroke="midnightblue" points="593.016,-91.6362 599.772,-83.475 589.401,-85.6418 593.016,-91.6362"/>
</g>
<!-- Node9 -->
<g id="node19" class="node"><title>Node9</title>
<a xlink:href="pair_8h.html" target="_top" xlink:title="fa/pair.h">
<polygon fill="none" stroke="red" points="660.694,-0.695312 660.694,-23.3047 721.306,-23.3047 721.306,-0.695312 660.694,-0.695312"/>
<text text-anchor="middle" x="691" y="-8.30469" font-family="Futura" font-size="11.00">fa/pair.h</text>
</a>
</g>
<!-- Node2&#45;&gt;Node9 -->
<g id="edge20" class="edge"><title>Node2&#45;&gt;Node9</title>
<path fill="none" stroke="midnightblue" d="M551.102,-128.083C577.053,-123.468 623.974,-111.932 653,-84 667.109,-70.4221 674.578,-49.0137 680.086,-33.2522"/>
<polygon fill="midnightblue" stroke="midnightblue" points="683.536,-34.0025 683.644,-23.4082 676.953,-31.6234 683.536,-34.0025"/>
</g>
<!-- Node10 -->
<g id="node22" class="node"><title>Node10</title>
<a xlink:href="left_8h.html" target="_top" xlink:title="fa/pair/left.h">
<polygon fill="none" stroke="red" points="727.804,-60.6953 727.804,-83.3047 810.196,-83.3047 810.196,-60.6953 727.804,-60.6953"/>
<text text-anchor="middle" x="769" y="-68.3047" font-family="Futura" font-size="11.00">fa/pair/left.h</text>
</a>
</g>
<!-- Node2&#45;&gt;Node10 -->
<g id="edge24" class="edge"><title>Node2&#45;&gt;Node10</title>
<path fill="none" stroke="midnightblue" d="M550.738,-126.641C585.784,-118.028 665.065,-98.5434 717.801,-85.5829"/>
<polygon fill="midnightblue" stroke="midnightblue" points="718.772,-88.9485 727.647,-83.163 717.101,-82.1508 718.772,-88.9485"/>
</g>
<!-- Node3&#45;&gt;Node2 -->
<g id="edge6" class="edge"><title>Node3&#45;&gt;Node2</title>
<path fill="none" stroke="midnightblue" d="M74.1526,-80.3911C80.1561,-81.7334 86.2534,-83.0171 92,-84 246.705,-110.46 434.05,-124.248 504.559,-129.025"/>
<polygon fill="midnightblue" stroke="midnightblue" points="504.637,-132.538 514.849,-129.715 505.106,-125.554 504.637,-132.538"/>
</g>
<!-- Node8&#45;&gt;Node2 -->
<g id="edge18" class="edge"><title>Node8&#45;&gt;Node2</title>
<path fill="none" stroke="midnightblue" d="M610.597,-83.3588C598.033,-92.7676 577.046,-106.72 559.956,-117.097"/>
<polygon fill="midnightblue" stroke="midnightblue" points="557.757,-114.331 550.94,-122.442 561.327,-120.352 557.757,-114.331"/>
</g>
<!-- Node9&#45;&gt;Node2 -->
<g id="edge22" class="edge"><title>Node9&#45;&gt;Node2</title>
<path fill="none" stroke="midnightblue" d="M695.282,-23.4082C695.672,-38.7159 688.365,-67.2888 671,-84 641.041,-112.831 592.017,-124.193 560.971,-128.507"/>
<polygon fill="midnightblue" stroke="midnightblue" points="560.299,-125.063 550.8,-129.756 561.152,-132.011 560.299,-125.063"/>
</g>
<!-- Node10&#45;&gt;Node9 -->
<g id="edge26" class="edge"><title>Node10&#45;&gt;Node9</title>
<path fill="none" stroke="midnightblue" d="M755.055,-60.6308C743.481,-52.0241 726.8,-39.6207 713.363,-29.6288"/>
<polygon fill="midnightblue" stroke="midnightblue" points="715.2,-26.6335 705.087,-23.475 711.023,-32.2507 715.2,-26.6335"/>
</g>
</g>
</svg>
