<?xml version="1.0" encoding="UTF-8" standalone="no"?>
<!DOCTYPE svg PUBLIC "-//W3C//DTD SVG 1.1//EN"
 "http://www.w3.org/Graphics/SVG/1.1/DTD/svg11.dtd">
<!-- Generated by graphviz version 2.28.0 (20121015.0031)
 -->
<!-- Title: include/fa/action.h Pages: 1 -->
<svg width="820pt" height="272pt"
 viewBox="0.00 0.00 820.29 272.00" xmlns="http://www.w3.org/2000/svg" xmlns:xlink="http://www.w3.org/1999/xlink">
<g id="graph1" class="graph" transform="scale(1 1) rotate(0) translate(4 268)">
<title>include/fa/action.h</title>
<!-- Node1 -->
<g id="node1" class="node"><title>Node1</title>
<polygon fill="#bfbfbf" stroke="black" points="678.746,-240.695 678.746,-263.305 791.254,-263.305 791.254,-240.695 678.746,-240.695"/>
<text text-anchor="middle" x="735" y="-248.305" font-family="Futura" font-size="11.00">include/fa/action.h</text>
</g>
<!-- Node2 -->
<g id="node3" class="node"><title>Node2</title>
<a xlink:href="fa_2fa_8h.html" target="_top" xlink:title="fa.h">
<polygon fill="none" stroke="red" points="375.273,-180.695 375.273,-203.305 410.727,-203.305 410.727,-180.695 375.273,-180.695"/>
<text text-anchor="middle" x="393" y="-188.305" font-family="Futura" font-size="11.00">fa.h</text>
</a>
</g>
<!-- Node1&#45;&gt;Node2 -->
<g id="edge2" class="edge"><title>Node1&#45;&gt;Node2</title>
<path fill="none" stroke="midnightblue" d="M678.433,-242.254C604.134,-230.094 476.772,-208.446 420.707,-198.399"/>
<polygon fill="midnightblue" stroke="midnightblue" points="421.251,-194.941 410.788,-196.607 420.007,-201.829 421.251,-194.941"/>
</g>
<!-- Node8 -->
<g id="node15" class="node"><title>Node8</title>
<a xlink:href="pair_8h.html" target="_top" xlink:title="fa/pair.h">
<polygon fill="none" stroke="black" points="299.694,-60.6953 299.694,-83.3047 360.306,-83.3047 360.306,-60.6953 299.694,-60.6953"/>
<text text-anchor="middle" x="330" y="-68.3047" font-family="Futura" font-size="11.00">fa/pair.h</text>
</a>
</g>
<!-- Node1&#45;&gt;Node8 -->
<g id="edge32" class="edge"><title>Node1&#45;&gt;Node8</title>
<path fill="none" stroke="midnightblue" d="M744.689,-240.42C765.744,-216.153 811.275,-155.83 779,-120 751.899,-89.9141 475.969,-77.7744 370.598,-74.2122"/>
<polygon fill="midnightblue" stroke="midnightblue" points="370.472,-70.7062 360.362,-73.8751 370.241,-77.7024 370.472,-70.7062"/>
</g>
<!-- Node9 -->
<g id="node18" class="node"><title>Node9</title>
<a xlink:href="list_8h.html" target="_top" xlink:title="fa/list.h">
<polygon fill="none" stroke="black" points="268.949,-0.695312 268.949,-23.3047 323.051,-23.3047 323.051,-0.695312 268.949,-0.695312"/>
<text text-anchor="middle" x="296" y="-8.30469" font-family="Futura" font-size="11.00">fa/list.h</text>
</a>
</g>
<!-- Node1&#45;&gt;Node9 -->
<g id="edge34" class="edge"><title>Node1&#45;&gt;Node9</title>
<path fill="none" stroke="midnightblue" d="M753.937,-240.683C766.937,-232.527 783.35,-219.882 792,-204 809.918,-171.1 822.574,-149.116 799,-120 740.068,-47.2134 439.913,-21.8646 333.483,-15.0854"/>
<polygon fill="midnightblue" stroke="midnightblue" points="333.418,-11.5747 323.221,-14.4515 332.986,-18.5614 333.418,-11.5747"/>
</g>
<!-- Node10 -->
<g id="node23" class="node"><title>Node10</title>
<a xlink:href="signal_8h.html" target="_top" xlink:title="fa/signal.h">
<polygon fill="none" stroke="red" points="699.846,-120.695 699.846,-143.305 770.154,-143.305 770.154,-120.695 699.846,-120.695"/>
<text text-anchor="middle" x="735" y="-128.305" font-family="Futura" font-size="11.00">fa/signal.h</text>
</a>
</g>
<!-- Node1&#45;&gt;Node10 -->
<g id="edge36" class="edge"><title>Node1&#45;&gt;Node10</title>
<path fill="none" stroke="midnightblue" d="M735,-240.528C735,-221.071 735,-179.023 735,-153.656"/>
<polygon fill="midnightblue" stroke="midnightblue" points="738.5,-153.618 735,-143.618 731.5,-153.618 738.5,-153.618"/>
</g>
<!-- Node2&#45;&gt;Node1 -->
<g id="edge24" class="edge"><title>Node2&#45;&gt;Node1</title>
<path fill="none" stroke="midnightblue" d="M410.783,-195.513C458.256,-202.901 588.892,-224.906 669.161,-238.883"/>
<polygon fill="midnightblue" stroke="midnightblue" points="668.72,-242.359 679.173,-240.631 669.924,-235.463 668.72,-242.359"/>
</g>
<!-- Node3 -->
<g id="node5" class="node"><title>Node3</title>
<polygon fill="none" stroke="#bfbfbf" points="355.937,-120.695 355.937,-143.305 430.063,-143.305 430.063,-120.695 355.937,-120.695"/>
<text text-anchor="middle" x="393" y="-128.305" font-family="Futura" font-size="11.00">fa/atomic.h</text>
</g>
<!-- Node2&#45;&gt;Node3 -->
<g id="edge4" class="edge"><title>Node2&#45;&gt;Node3</title>
<path fill="none" stroke="midnightblue" d="M393,-180.631C393,-173.218 393,-162.989 393,-153.91"/>
<polygon fill="midnightblue" stroke="midnightblue" points="396.5,-153.672 393,-143.672 389.5,-153.672 396.5,-153.672"/>
</g>
<!-- Node4 -->
<g id="node7" class="node"><title>Node4</title>
<polygon fill="none" stroke="#bfbfbf" points="447.648,-120.695 447.648,-143.305 558.352,-143.305 558.352,-120.695 447.648,-120.695"/>
<text text-anchor="middle" x="503" y="-128.305" font-family="Futura" font-size="11.00">fa/atomic/queue.h</text>
</g>
<!-- Node2&#45;&gt;Node4 -->
<g id="edge6" class="edge"><title>Node2&#45;&gt;Node4</title>
<path fill="none" stroke="midnightblue" d="M411.164,-181.422C428.338,-172.367 454.378,-158.637 474.35,-148.107"/>
<polygon fill="midnightblue" stroke="midnightblue" points="476.109,-151.136 483.322,-143.376 472.844,-144.944 476.109,-151.136"/>
</g>
<!-- Node5 -->
<g id="node9" class="node"><title>Node5</title>
<polygon fill="none" stroke="#bfbfbf" points="576.42,-120.695 576.42,-143.305 681.58,-143.305 681.58,-120.695 576.42,-120.695"/>
<text text-anchor="middle" x="629" y="-128.305" font-family="Futura" font-size="11.00">fa/atomic/stack.h</text>
</g>
<!-- Node2&#45;&gt;Node5 -->
<g id="edge8" class="edge"><title>Node2&#45;&gt;Node5</title>
<path fill="none" stroke="midnightblue" d="M410.738,-186.641C445.583,-178.077 524.155,-158.767 576.889,-145.807"/>
<polygon fill="midnightblue" stroke="midnightblue" points="577.868,-149.17 586.744,-143.385 576.198,-142.373 577.868,-149.17"/>
</g>
<!-- Node6 -->
<g id="node11" class="node"><title>Node6</title>
<polygon fill="none" stroke="#bfbfbf" points="-0.474121,-120.695 -0.474121,-143.305 134.474,-143.305 134.474,-120.695 -0.474121,-120.695"/>
<text text-anchor="middle" x="67" y="-128.305" font-family="Futura" font-size="11.00">fa/atomic/ring_buffer.h</text>
</g>
<!-- Node2&#45;&gt;Node6 -->
<g id="edge10" class="edge"><title>Node2&#45;&gt;Node6</title>
<path fill="none" stroke="midnightblue" d="M375.008,-187.799C330.106,-179.81 211.246,-158.663 134.996,-145.097"/>
<polygon fill="midnightblue" stroke="midnightblue" points="135.452,-141.624 124.994,-143.318 134.226,-148.516 135.452,-141.624"/>
</g>
<!-- Node7 -->
<g id="node13" class="node"><title>Node7</title>
<polygon fill="none" stroke="#bfbfbf" points="152.026,-120.695 152.026,-143.305 225.974,-143.305 225.974,-120.695 152.026,-120.695"/>
<text text-anchor="middle" x="189" y="-128.305" font-family="Futura" font-size="11.00">fa/system.h</text>
</g>
<!-- Node2&#45;&gt;Node7 -->
<g id="edge12" class="edge"><title>Node2&#45;&gt;Node7</title>
<path fill="none" stroke="midnightblue" d="M375.253,-185.954C344.342,-177.166 279.687,-158.783 235.311,-146.167"/>
<polygon fill="midnightblue" stroke="midnightblue" points="236.19,-142.778 225.614,-143.41 234.275,-149.511 236.19,-142.778"/>
</g>
<!-- Node2&#45;&gt;Node8 -->
<g id="edge14" class="edge"><title>Node2&#45;&gt;Node8</title>
<path fill="none" stroke="midnightblue" d="M374.89,-182.552C362.202,-173.992 346.725,-159.789 338,-144 329.402,-128.441 325.123,-108.62 324.49,-93.8768"/>
<polygon fill="midnightblue" stroke="midnightblue" points="327.992,-93.8195 324.707,-83.7471 320.994,-93.6701 327.992,-93.8195"/>
</g>
<!-- Node2&#45;&gt;Node9 -->
<g id="edge22" class="edge"><title>Node2&#45;&gt;Node9</title>
<path fill="none" stroke="midnightblue" d="M375.165,-183.302C347.559,-167.985 297.411,-131.074 282,-84 276.555,-67.3681 278.665,-47.4085 283.161,-32.8935"/>
<polygon fill="midnightblue" stroke="midnightblue" points="286.484,-34.0026 286.783,-23.412 279.945,-31.5048 286.484,-34.0026"/>
</g>
<!-- Node2&#45;&gt;Node10 -->
<g id="edge26" class="edge"><title>Node2&#45;&gt;Node10</title>
<path fill="none" stroke="midnightblue" d="M411.039,-188.042C456.797,-181.43 579.406,-164.419 681,-144 683.809,-143.435 686.708,-142.815 689.641,-142.165"/>
<polygon fill="midnightblue" stroke="midnightblue" points="690.694,-145.515 699.667,-139.881 689.139,-138.69 690.694,-145.515"/>
</g>
<!-- Node8&#45;&gt;Node2 -->
<g id="edge16" class="edge"><title>Node8&#45;&gt;Node2</title>
<path fill="none" stroke="midnightblue" d="M336.857,-83.7471C341.222,-98.2383 345.211,-124.475 356,-144 362.047,-154.943 371.337,-165.123 379.285,-173.191"/>
<polygon fill="midnightblue" stroke="midnightblue" points="377.065,-175.92 386.616,-180.506 382.009,-170.965 377.065,-175.92"/>
</g>
<!-- Node8&#45;&gt;Node9 -->
<g id="edge18" class="edge"><title>Node8&#45;&gt;Node9</title>
<path fill="none" stroke="midnightblue" d="M323.921,-60.6308C319.337,-52.8107 312.916,-41.8562 307.387,-32.4241"/>
<polygon fill="midnightblue" stroke="midnightblue" points="310.333,-30.5288 302.256,-23.6719 304.294,-34.0689 310.333,-30.5288"/>
</g>
<!-- Node9&#45;&gt;Node2 -->
<g id="edge20" class="edge"><title>Node9&#45;&gt;Node2</title>
<path fill="none" stroke="midnightblue" d="M298.933,-23.412C298.134,-37.5234 293.234,-63.3312 300,-84 312.943,-123.536 350.389,-155.903 373.835,-174.329"/>
<polygon fill="midnightblue" stroke="midnightblue" points="371.719,-177.118 381.768,-180.475 376.005,-171.584 371.719,-177.118"/>
</g>
<!-- Node10&#45;&gt;Node2 -->
<g id="edge28" class="edge"><title>Node10&#45;&gt;Node2</title>
<path fill="none" stroke="midnightblue" d="M702.347,-143.31C701.222,-143.548 700.104,-143.778 699,-144 597.73,-164.354 475.577,-181.322 421.167,-187.979"/>
<polygon fill="midnightblue" stroke="midnightblue" points="420.428,-184.542 410.915,-189.205 421.26,-191.492 420.428,-184.542"/>
</g>
<!-- Node10&#45;&gt;Node8 -->
<g id="edge30" class="edge"><title>Node10&#45;&gt;Node8</title>
<path fill="none" stroke="midnightblue" d="M699.706,-121.984C696.435,-121.266 693.162,-120.591 690,-120 575.024,-98.5094 437.57,-83.4785 370.642,-76.8348"/>
<polygon fill="midnightblue" stroke="midnightblue" points="370.815,-73.335 360.521,-75.8408 370.131,-80.3015 370.815,-73.335"/>
</g>
</g>
</svg>
