<?xml version="1.0" encoding="UTF-8" standalone="no"?>
<!DOCTYPE svg PUBLIC "-//W3C//DTD SVG 1.1//EN"
 "http://www.w3.org/Graphics/SVG/1.1/DTD/svg11.dtd">
<!-- Generated by graphviz version 2.28.0 (20121015.0031)
 -->
<!-- Title: include/fa/time.h Pages: 1 -->
<svg width="706pt" height="452pt"
 viewBox="0.00 0.00 706.00 452.00" xmlns="http://www.w3.org/2000/svg" xmlns:xlink="http://www.w3.org/1999/xlink">
<g id="graph1" class="graph" transform="scale(1 1) rotate(0) translate(4 448)">
<title>include/fa/time.h</title>
<!-- Node1 -->
<g id="node1" class="node"><title>Node1</title>
<polygon fill="#bfbfbf" stroke="black" points="82.5935,-420.695 82.5935,-443.305 185.406,-443.305 185.406,-420.695 82.5935,-420.695"/>
<text text-anchor="middle" x="134" y="-428.305" font-family="Futura" font-size="11.00">include/fa/time.h</text>
</g>
<!-- Node2 -->
<g id="node3" class="node"><title>Node2</title>
<a xlink:href="clock_8h.html" target="_top" xlink:title="include/fa/clock.h">
<polygon fill="none" stroke="black" points="125.978,-360.695 125.978,-383.305 234.022,-383.305 234.022,-360.695 125.978,-360.695"/>
<text text-anchor="middle" x="180" y="-368.305" font-family="Futura" font-size="11.00">include/fa/clock.h</text>
</a>
</g>
<!-- Node1&#45;&gt;Node2 -->
<g id="edge2" class="edge"><title>Node1&#45;&gt;Node2</title>
<path fill="none" stroke="midnightblue" d="M148.654,-412.523C156.203,-403.005 165.14,-391.736 171.536,-383.672"/>
<polygon fill="midnightblue" stroke="midnightblue" points="145.696,-410.621 142.224,-420.631 151.18,-414.971 145.696,-410.621"/>
</g>
<!-- Node4 -->
<g id="node7" class="node"><title>Node4</title>
<a xlink:href="fa_2fa_8h.html" target="_top" xlink:title="include/fa/fa.h">
<polygon fill="none" stroke="red" points="133.846,-240.695 133.846,-263.305 226.154,-263.305 226.154,-240.695 133.846,-240.695"/>
<text text-anchor="middle" x="180" y="-248.305" font-family="Futura" font-size="11.00">include/fa/fa.h</text>
</a>
</g>
<!-- Node1&#45;&gt;Node4 -->
<g id="edge38" class="edge"><title>Node1&#45;&gt;Node4</title>
<path fill="none" stroke="midnightblue" d="M116.509,-411.442C108.965,-397.135 103.288,-377.288 108,-360 118.656,-320.899 147.637,-281.522 165.846,-263.361"/>
<polygon fill="midnightblue" stroke="midnightblue" points="113.744,-413.631 121.926,-420.362 119.727,-409.998 113.744,-413.631"/>
</g>
<!-- Node6 -->
<g id="node13" class="node"><title>Node6</title>
<a xlink:href="midi_8h.html" target="_top" xlink:title="include/fa/midi.h">
<polygon fill="none" stroke="black" points="5.47266,-0.695312 5.47266,-23.3047 108.527,-23.3047 108.527,-0.695312 5.47266,-0.695312"/>
<text text-anchor="middle" x="57" y="-8.30469" font-family="Futura" font-size="11.00">include/fa/midi.h</text>
</a>
</g>
<!-- Node1&#45;&gt;Node6 -->
<g id="edge40" class="edge"><title>Node1&#45;&gt;Node6</title>
<path fill="none" stroke="midnightblue" d="M95.8356,-416.526C56.2259,-398.725 0,-364.403 0,-313 0,-313 0,-313 0,-131 0,-87.5456 31.7294,-43.2479 47.842,-23.5544"/>
<polygon fill="midnightblue" stroke="midnightblue" points="94.6854,-419.841 105.254,-420.592 97.4603,-413.415 94.6854,-419.841"/>
</g>
<!-- Node8 -->
<g id="node18" class="node"><title>Node8</title>
<a xlink:href="signal_8h.html" target="_top" xlink:title="include/fa/signal.h">
<polygon fill="none" stroke="black" points="311.283,-120.695 311.283,-143.305 422.717,-143.305 422.717,-120.695 311.283,-120.695"/>
<text text-anchor="middle" x="367" y="-128.305" font-family="Futura" font-size="11.00">include/fa/signal.h</text>
</a>
</g>
<!-- Node1&#45;&gt;Node8 -->
<g id="edge42" class="edge"><title>Node1&#45;&gt;Node8</title>
<path fill="none" stroke="midnightblue" d="M196.014,-427.304C317.262,-418.372 574,-390.329 574,-313 574,-313 574,-313 574,-251 574,-181.194 484.055,-152.144 422.745,-140.451"/>
<polygon fill="midnightblue" stroke="midnightblue" points="195.492,-423.832 185.767,-428.037 195.992,-430.814 195.492,-423.832"/>
</g>
<!-- Node10 -->
<g id="node32" class="node"><title>Node10</title>
<a xlink:href="util_8h.html" target="_top" xlink:title="include/fa/util.h">
<polygon fill="none" stroke="black" points="601.62,-360.695 601.62,-383.305 698.38,-383.305 698.38,-360.695 601.62,-360.695"/>
<text text-anchor="middle" x="650" y="-368.305" font-family="Futura" font-size="11.00">include/fa/util.h</text>
</a>
</g>
<!-- Node1&#45;&gt;Node10 -->
<g id="edge44" class="edge"><title>Node1&#45;&gt;Node10</title>
<path fill="none" stroke="midnightblue" d="M195.569,-426.051C283.031,-418.696 448.167,-403.616 588,-384 592.33,-383.393 596.821,-382.706 601.317,-381.981"/>
<polygon fill="midnightblue" stroke="midnightblue" points="195.226,-422.567 185.552,-426.888 195.809,-429.543 195.226,-422.567"/>
</g>
<!-- Node3 -->
<g id="node5" class="node"><title>Node3</title>
<a xlink:href="audio_8h.html" target="_top" xlink:title="include/fa/audio.h">
<polygon fill="none" stroke="black" points="300.592,-300.695 300.592,-323.305 411.408,-323.305 411.408,-300.695 300.592,-300.695"/>
<text text-anchor="middle" x="356" y="-308.305" font-family="Futura" font-size="11.00">include/fa/audio.h</text>
</a>
</g>
<!-- Node2&#45;&gt;Node3 -->
<g id="edge4" class="edge"><title>Node2&#45;&gt;Node3</title>
<path fill="none" stroke="midnightblue" d="M221.282,-357.396C252.84,-346.996 295.685,-332.876 324.511,-323.377"/>
<polygon fill="midnightblue" stroke="midnightblue" points="219.867,-354.177 211.465,-360.631 222.058,-360.825 219.867,-354.177"/>
</g>
<!-- Node2&#45;&gt;Node6 -->
<g id="edge36" class="edge"><title>Node2&#45;&gt;Node6</title>
<path fill="none" stroke="midnightblue" d="M168.731,-351.807C156.723,-330.782 137.726,-295.808 125,-264 94.0222,-186.571 92.4125,-164.859 72,-84 66.6344,-62.7455 61.633,-37.5836 58.9795,-23.645"/>
<polygon fill="midnightblue" stroke="midnightblue" points="165.824,-353.771 173.857,-360.678 171.884,-350.269 165.824,-353.771"/>
</g>
<!-- Node3&#45;&gt;Node4 -->
<g id="edge6" class="edge"><title>Node3&#45;&gt;Node4</title>
<path fill="none" stroke="midnightblue" d="M314.718,-297.396C283.16,-286.996 240.315,-272.876 211.489,-263.377"/>
<polygon fill="midnightblue" stroke="midnightblue" points="313.942,-300.825 324.535,-300.631 316.133,-294.177 313.942,-300.825"/>
</g>
<!-- Node4&#45;&gt;Node1 -->
<g id="edge34" class="edge"><title>Node4&#45;&gt;Node1</title>
<path fill="none" stroke="midnightblue" d="M171.262,-271.945C158.055,-292.284 135.199,-326.244 126,-360 120.201,-381.278 130.139,-406.432 134.274,-420.362"/>
<polygon fill="midnightblue" stroke="midnightblue" points="174.307,-273.678 176.717,-263.361 168.399,-269.923 174.307,-273.678"/>
</g>
<!-- Node4&#45;&gt;Node2 -->
<g id="edge28" class="edge"><title>Node4&#45;&gt;Node2</title>
<path fill="none" stroke="midnightblue" d="M180,-273.656C180,-299.023 180,-341.071 180,-360.528"/>
<polygon fill="midnightblue" stroke="midnightblue" points="183.5,-273.618 180,-263.618 176.5,-273.618 183.5,-273.618"/>
</g>
<!-- Node5 -->
<g id="node9" class="node"><title>Node5</title>
<a xlink:href="action_8h.html" target="_top" xlink:title="include/fa/action.h">
<polygon fill="none" stroke="black" points="103.746,-60.6953 103.746,-83.3047 216.254,-83.3047 216.254,-60.6953 103.746,-60.6953"/>
<text text-anchor="middle" x="160" y="-68.3047" font-family="Futura" font-size="11.00">include/fa/action.h</text>
</a>
</g>
<!-- Node4&#45;&gt;Node5 -->
<g id="edge8" class="edge"><title>Node4&#45;&gt;Node5</title>
<path fill="none" stroke="midnightblue" d="M157.418,-233.034C150.901,-224.71 144.944,-214.377 142,-204 129.681,-160.576 141.802,-105.959 152.091,-83.439"/>
<polygon fill="midnightblue" stroke="midnightblue" points="154.82,-235.38 164.031,-240.615 160.095,-230.779 154.82,-235.38"/>
</g>
<!-- Node7 -->
<g id="node16" class="node"><title>Node7</title>
<a xlink:href="buffer_8h.html" target="_top" xlink:title="include/fa/buffer.h">
<polygon fill="none" stroke="red" points="358.227,-180.695 358.227,-203.305 469.773,-203.305 469.773,-180.695 358.227,-180.695"/>
<text text-anchor="middle" x="414" y="-188.305" font-family="Futura" font-size="11.00">include/fa/buffer.h</text>
</a>
</g>
<!-- Node4&#45;&gt;Node7 -->
<g id="edge18" class="edge"><title>Node4&#45;&gt;Node7</title>
<path fill="none" stroke="midnightblue" d="M231.649,-238.198C273.872,-227.733 332.814,-213.123 372.134,-203.377"/>
<polygon fill="midnightblue" stroke="midnightblue" points="230.699,-234.828 221.835,-240.631 232.383,-241.622 230.699,-234.828"/>
</g>
<!-- Node4&#45;&gt;Node8 -->
<g id="edge32" class="edge"><title>Node4&#45;&gt;Node8</title>
<path fill="none" stroke="midnightblue" d="M215.655,-237.119C236.504,-229.16 262.666,-217.96 284,-204 310.817,-186.452 336.507,-158.48 352.525,-143.418"/>
<polygon fill="midnightblue" stroke="midnightblue" points="214.332,-233.877 206.189,-240.655 216.782,-240.435 214.332,-233.877"/>
</g>
<!-- Node9 -->
<g id="node24" class="node"><title>Node9</title>
<a xlink:href="dynamic_8h.html" target="_top" xlink:title="include/fa/dynamic.h">
<polygon fill="none" stroke="black" points="159.918,-180.695 159.918,-203.305 284.082,-203.305 284.082,-180.695 159.918,-180.695"/>
<text text-anchor="middle" x="222" y="-188.305" font-family="Futura" font-size="11.00">include/fa/dynamic.h</text>
</a>
</g>
<!-- Node4&#45;&gt;Node9 -->
<g id="edge30" class="edge"><title>Node4&#45;&gt;Node9</title>
<path fill="none" stroke="midnightblue" d="M193.38,-232.523C200.272,-223.005 208.432,-211.736 214.272,-203.672"/>
<polygon fill="midnightblue" stroke="midnightblue" points="190.539,-230.479 187.509,-240.631 196.209,-234.584 190.539,-230.479"/>
</g>
<!-- Node5&#45;&gt;Node3 -->
<g id="edge10" class="edge"><title>Node5&#45;&gt;Node3</title>
<path fill="none" stroke="midnightblue" d="M226.47,-73.7169C283.542,-76.7849 366.552,-87.2331 431,-120 465.182,-137.379 478.036,-144.694 493,-180 508.92,-217.56 486.432,-236.832 456,-264 436.967,-280.991 410.72,-293.013 389.891,-300.643"/>
<polygon fill="midnightblue" stroke="midnightblue" points="226.636,-70.2209 216.481,-73.2409 226.303,-77.213 226.636,-70.2209"/>
</g>
<!-- Node5&#45;&gt;Node4 -->
<g id="edge12" class="edge"><title>Node5&#45;&gt;Node4</title>
<path fill="none" stroke="midnightblue" d="M160.572,-93.6551C157.083,-119.854 149.269,-166.174 160,-204 163.925,-217.836 173.207,-231.594 178.41,-240.615"/>
<polygon fill="midnightblue" stroke="midnightblue" points="164.081,-93.777 161.762,-83.439 157.128,-92.9667 164.081,-93.777"/>
</g>
<!-- Node5&#45;&gt;Node6 -->
<g id="edge14" class="edge"><title>Node5&#45;&gt;Node6</title>
<path fill="none" stroke="midnightblue" d="M132.691,-55.6224C114.667,-45.4725 91.5258,-32.4417 75.6022,-23.475"/>
<polygon fill="midnightblue" stroke="midnightblue" points="131.155,-58.7738 141.586,-60.6308 134.589,-52.6744 131.155,-58.7738"/>
</g>
<!-- Node6&#45;&gt;Node4 -->
<g id="edge16" class="edge"><title>Node6&#45;&gt;Node4</title>
<path fill="none" stroke="midnightblue" d="M64.1819,-33.0926C77.3457,-68.8015 107.292,-145.099 143,-204 151.075,-217.321 162.39,-231.167 170.376,-240.35"/>
<polygon fill="midnightblue" stroke="midnightblue" points="67.3556,-31.5786 60.6476,-23.3777 60.7774,-33.9718 67.3556,-31.5786"/>
</g>
<!-- Node7&#45;&gt;Node8 -->
<g id="edge20" class="edge"><title>Node7&#45;&gt;Node8</title>
<path fill="none" stroke="midnightblue" d="M399.263,-172.814C391.501,-163.235 382.249,-151.819 375.648,-143.672"/>
<polygon fill="midnightblue" stroke="midnightblue" points="396.582,-175.065 405.597,-180.631 402.021,-170.658 396.582,-175.065"/>
</g>
<!-- Node8&#45;&gt;Node3 -->
<g id="edge24" class="edge"><title>Node8&#45;&gt;Node3</title>
<path fill="none" stroke="midnightblue" d="M425.387,-146.371C458.462,-157.254 490.889,-175.553 478,-204 457.072,-250.191 405.259,-284.325 376.34,-300.521"/>
<polygon fill="midnightblue" stroke="midnightblue" points="426.203,-142.96 415.616,-143.362 424.143,-149.65 426.203,-142.96"/>
</g>
<!-- Node8&#45;&gt;Node4 -->
<g id="edge26" class="edge"><title>Node8&#45;&gt;Node4</title>
<path fill="none" stroke="midnightblue" d="M358.243,-151.77C346.047,-167.378 324.417,-189.331 302,-204 277.287,-220.171 246.097,-232.638 221.308,-240.655"/>
<polygon fill="midnightblue" stroke="midnightblue" points="361.257,-153.575 364.268,-143.418 355.579,-149.48 361.257,-153.575"/>
</g>
<!-- Node8&#45;&gt;Node5 -->
<g id="edge22" class="edge"><title>Node8&#45;&gt;Node5</title>
<path fill="none" stroke="midnightblue" d="M320.362,-117.932C283.08,-107.486 231.525,-93.0409 197.035,-83.3771"/>
<polygon fill="midnightblue" stroke="midnightblue" points="319.419,-121.303 329.993,-120.631 321.308,-114.562 319.419,-121.303"/>
</g>
</g>
</svg>
