<?xml version="1.0" encoding="UTF-8" standalone="no"?>
<!DOCTYPE svg PUBLIC "-//W3C//DTD SVG 1.1//EN"
 "http://www.w3.org/Graphics/SVG/1.1/DTD/svg11.dtd">
<!-- Generated by graphviz version 2.28.0 (20121015.0031)
 -->
<!-- Title: include/fa Pages: 1 -->
<svg width="398pt" height="186pt"
 viewBox="0.00 0.00 398.00 186.00" xmlns="http://www.w3.org/2000/svg" xmlns:xlink="http://www.w3.org/1999/xlink">
<g id="graph1" class="graph" transform="scale(1 1) rotate(0) translate(4 182)">
<title>include/fa</title>
<g id="graph2" class="cluster"><title>clusterdir_d44c64559bbebec7f509842c48db8b23</title>
<a xlink:href="dir_d44c64559bbebec7f509842c48db8b23.html" target="_top" xlink:title="include">
<polygon fill="#ddddee" stroke="black" points="8,-8 8,-170 382,-170 382,-8 8,-8"/>
<text text-anchor="middle" x="195" y="-155" font-family="Futura" font-size="11.00">include</text>
</a>
</g>
<g id="graph3" class="cluster"><title>clusterdir_6b89b2d2887aea5b8d12d30c5d3aa615</title>
<a xlink:href="dir_6b89b2d2887aea5b8d12d30c5d3aa615.html" target="_top">
<polygon fill="#eeeeff" stroke="black" points="16,-16 16,-140 374,-140 374,-16 16,-16"/>
</a>
</g>
<!-- dir_6b89b2d2887aea5b8d12d30c5d3aa615 -->
<g id="node3" class="node"><title>dir_6b89b2d2887aea5b8d12d30c5d3aa615</title>
<text text-anchor="middle" x="195" y="-110.305" font-family="Futura" font-size="11.00">fa</text>
</g>
<!-- dir_d6856f1c307e6e1177295c1c530418b8 -->
<g id="node4" class="node"><title>dir_d6856f1c307e6e1177295c1c530418b8</title>
<a xlink:href="dir_d6856f1c307e6e1177295c1c530418b8.html" target="_top" xlink:title="atomic">
<polygon fill="white" stroke="black" points="78,-60 24,-60 24,-24 78,-24 78,-60"/>
<text text-anchor="middle" x="51" y="-38.3047" font-family="Futura" font-size="11.00">atomic</text>
</a>
</g>
<!-- dir_6b89b2d2887aea5b8d12d30c5d3aa615&#45;&gt;dir_d6856f1c307e6e1177295c1c530418b8 -->
<g id="edge14" class="edge"><title>dir_6b89b2d2887aea5b8d12d30c5d3aa615&#45;&gt;dir_d6856f1c307e6e1177295c1c530418b8</title>
<path fill="none" stroke="black" d="M167.915,-99.8335C145.231,-88.8066 112.643,-72.9655 87.6319,-60.8072"/>
<polygon fill="black" stroke="black" points="88.9773,-57.5696 78.4534,-56.3454 85.9169,-63.8652 88.9773,-57.5696"/>
<a xlink:href="dir_000001_000002.html" target="_top" xlink:title="10">
<text text-anchor="middle" x="93.4515" y="-52.8922" font-family="Futura" font-size="11.00">10</text>
</a>
</g>
<!-- dir_8048e41daaedd41b8091ac49daa48b25 -->
<g id="node5" class="node"><title>dir_8048e41daaedd41b8091ac49daa48b25</title>
<a xlink:href="dir_8048e41daaedd41b8091ac49daa48b25.html" target="_top" xlink:title="audio">
<polygon fill="white" stroke="black" points="150,-60 96,-60 96,-24 150,-24 150,-60"/>
<text text-anchor="middle" x="123" y="-38.3047" font-family="Futura" font-size="11.00">audio</text>
</a>
</g>
<!-- dir_6b89b2d2887aea5b8d12d30c5d3aa615&#45;&gt;dir_8048e41daaedd41b8091ac49daa48b25 -->
<g id="edge12" class="edge"><title>dir_6b89b2d2887aea5b8d12d30c5d3aa615&#45;&gt;dir_8048e41daaedd41b8091ac49daa48b25</title>
<path fill="none" stroke="black" d="M177.202,-95.6966C168.396,-87.135 157.618,-76.6562 147.999,-67.3045"/>
<polygon fill="black" stroke="black" points="150.203,-64.5657 140.593,-60.1043 145.323,-69.5846 150.203,-64.5657"/>
<a xlink:href="dir_000001_000003.html" target="_top" xlink:title="3">
<text text-anchor="middle" x="154.759" y="-61.3403" font-family="Futura" font-size="11.00">3</text>
</a>
</g>
<!-- dir_4a93790389ff3f5217c93ee041a9c27d -->
<g id="node6" class="node"><title>dir_4a93790389ff3f5217c93ee041a9c27d</title>
<a xlink:href="dir_4a93790389ff3f5217c93ee041a9c27d.html" target="_top" xlink:title="midi">
<polygon fill="white" stroke="black" points="222,-60 168,-60 168,-24 222,-24 222,-60"/>
<text text-anchor="middle" x="195" y="-38.3047" font-family="Futura" font-size="11.00">midi</text>
</a>
</g>
<!-- dir_6b89b2d2887aea5b8d12d30c5d3aa615&#45;&gt;dir_4a93790389ff3f5217c93ee041a9c27d -->
<g id="edge6" class="edge"><title>dir_6b89b2d2887aea5b8d12d30c5d3aa615&#45;&gt;dir_4a93790389ff3f5217c93ee041a9c27d</title>
<path fill="none" stroke="black" d="M195,-95.6966C195,-87.9827 195,-78.7125 195,-70.1124"/>
<polygon fill="black" stroke="black" points="198.5,-70.1043 195,-60.1043 191.5,-70.1044 198.5,-70.1043"/>
<a xlink:href="dir_000001_000004.html" target="_top" xlink:title="1">
<text text-anchor="middle" x="201.339" y="-70.0036" font-family="Futura" font-size="11.00">1</text>
</a>
</g>
<!-- dir_addf4d55ac20521f8659acdbb3fba501 -->
<g id="node8" class="node"><title>dir_addf4d55ac20521f8659acdbb3fba501</title>
<a xlink:href="dir_addf4d55ac20521f8659acdbb3fba501.html" target="_top" xlink:title="system">
<polygon fill="white" stroke="black" points="294,-60 240,-60 240,-24 294,-24 294,-60"/>
<text text-anchor="middle" x="267" y="-38.3047" font-family="Futura" font-size="11.00">system</text>
</a>
</g>
<!-- dir_6b89b2d2887aea5b8d12d30c5d3aa615&#45;&gt;dir_addf4d55ac20521f8659acdbb3fba501 -->
<g id="edge8" class="edge"><title>dir_6b89b2d2887aea5b8d12d30c5d3aa615&#45;&gt;dir_addf4d55ac20521f8659acdbb3fba501</title>
<path fill="none" stroke="black" d="M212.798,-95.6966C221.604,-87.135 232.382,-76.6562 242.001,-67.3045"/>
<polygon fill="black" stroke="black" points="244.677,-69.5846 249.407,-60.1043 239.797,-64.5657 244.677,-69.5846"/>
<a xlink:href="dir_000001_000006.html" target="_top" xlink:title="1">
<text text-anchor="middle" x="244.079" y="-70.4308" font-family="Futura" font-size="11.00">1</text>
</a>
</g>
<!-- dir_911a1df8f5f9f1780fd7831b662aa249 -->
<g id="node9" class="node"><title>dir_911a1df8f5f9f1780fd7831b662aa249</title>
<a xlink:href="dir_911a1df8f5f9f1780fd7831b662aa249.html" target="_top" xlink:title="util">
<polygon fill="white" stroke="black" points="366,-60 312,-60 312,-24 366,-24 366,-60"/>
<text text-anchor="middle" x="339" y="-38.3047" font-family="Futura" font-size="11.00">util</text>
</a>
</g>
<!-- dir_6b89b2d2887aea5b8d12d30c5d3aa615&#45;&gt;dir_911a1df8f5f9f1780fd7831b662aa249 -->
<g id="edge10" class="edge"><title>dir_6b89b2d2887aea5b8d12d30c5d3aa615&#45;&gt;dir_911a1df8f5f9f1780fd7831b662aa249</title>
<path fill="none" stroke="black" d="M222.085,-99.8335C244.769,-88.8066 277.357,-72.9655 302.368,-60.8072"/>
<polygon fill="black" stroke="black" points="304.083,-63.8652 311.547,-56.3454 301.023,-57.5696 304.083,-63.8652"/>
<a xlink:href="dir_000001_000007.html" target="_top" xlink:title="6">
<text text-anchor="middle" x="302.091" y="-64.2949" font-family="Futura" font-size="11.00">6</text>
</a>
</g>
<!-- dir_4fe8713b0f43a9c42009554f71b35ee9 -->
<g id="node7" class="node"><title>dir_4fe8713b0f43a9c42009554f71b35ee9</title>
<a xlink:href="dir_4fe8713b0f43a9c42009554f71b35ee9.html" target="_top" xlink:title="signal">
<polygon fill="white" stroke="black" points="78,-132 24,-132 24,-96 78,-96 78,-132"/>
<text text-anchor="middle" x="51" y="-110.305" font-family="Futura" font-size="11.00">signal</text>
</a>
</g>
<!-- dir_4fe8713b0f43a9c42009554f71b35ee9&#45;&gt;dir_d6856f1c307e6e1177295c1c530418b8 -->
<g id="edge4" class="edge"><title>dir_4fe8713b0f43a9c42009554f71b35ee9&#45;&gt;dir_d6856f1c307e6e1177295c1c530418b8</title>
<path fill="none" stroke="black" d="M51,-95.6966C51,-87.9827 51,-78.7125 51,-70.1124"/>
<polygon fill="black" stroke="black" points="54.5001,-70.1043 51,-60.1043 47.5001,-70.1044 54.5001,-70.1043"/>
<a xlink:href="dir_000005_000002.html" target="_top" xlink:title="5">
<text text-anchor="middle" x="57.3393" y="-70.0036" font-family="Futura" font-size="11.00">5</text>
</a>
</g>
</g>
</svg>
