<?xml version="1.0" encoding="UTF-8" standalone="no"?>
<!DOCTYPE svg PUBLIC "-//W3C//DTD SVG 1.1//EN"
 "http://www.w3.org/Graphics/SVG/1.1/DTD/svg11.dtd">
<!-- Generated by graphviz version 2.28.0 (20121015.0031)
 -->
<!-- Title: include/fa/atomic/queue.h Pages: 1 -->
<svg width="871pt" height="212pt"
 viewBox="0.00 0.00 870.89 212.00" xmlns="http://www.w3.org/2000/svg" xmlns:xlink="http://www.w3.org/1999/xlink">
<g id="graph1" class="graph" transform="scale(1 1) rotate(0) translate(4 208)">
<title>include/fa/atomic/queue.h</title>
<!-- Node1 -->
<g id="node1" class="node"><title>Node1</title>
<polygon fill="#bfbfbf" stroke="black" points="258.085,-180.695 258.085,-203.305 409.915,-203.305 409.915,-180.695 258.085,-180.695"/>
<text text-anchor="middle" x="334" y="-188.305" font-family="Futura" font-size="11.00">include/fa/atomic/queue.h</text>
</g>
<!-- Node2 -->
<g id="node3" class="node"><title>Node2</title>
<a xlink:href="fa_2fa_8h.html" target="_top" xlink:title="include/fa/fa.h">
<polygon fill="none" stroke="red" points="287.846,-120.695 287.846,-143.305 380.154,-143.305 380.154,-120.695 287.846,-120.695"/>
<text text-anchor="middle" x="334" y="-128.305" font-family="Futura" font-size="11.00">include/fa/fa.h</text>
</a>
</g>
<!-- Node1&#45;&gt;Node2 -->
<g id="edge2" class="edge"><title>Node1&#45;&gt;Node2</title>
<path fill="none" stroke="midnightblue" d="M334,-170.459C334,-161.411 334,-151.16 334,-143.672"/>
<polygon fill="midnightblue" stroke="midnightblue" points="330.5,-170.631 334,-180.631 337.5,-170.631 330.5,-170.631"/>
</g>
<!-- Node3 -->
<g id="node5" class="node"><title>Node3</title>
<a xlink:href="action_8h.html" target="_top" xlink:title="include/fa/action.h">
<polygon fill="none" stroke="red" points="-0.253906,-0.695312 -0.253906,-23.3047 112.254,-23.3047 112.254,-0.695312 -0.253906,-0.695312"/>
<text text-anchor="middle" x="56" y="-8.30469" font-family="Futura" font-size="11.00">include/fa/action.h</text>
</a>
</g>
<!-- Node2&#45;&gt;Node3 -->
<g id="edge4" class="edge"><title>Node2&#45;&gt;Node3</title>
<path fill="none" stroke="midnightblue" d="M277.866,-127.278C210.984,-121.575 104.834,-108.648 75,-84 56.4086,-68.6404 50.0997,-39.2345 51.2399,-23.5177"/>
<polygon fill="midnightblue" stroke="midnightblue" points="277.587,-130.767 287.84,-128.1 278.161,-123.791 277.587,-130.767"/>
</g>
<!-- Node4 -->
<g id="node8" class="node"><title>Node4</title>
<a xlink:href="atomic_8h.html" target="_top" xlink:title="include/fa/atomic.h">
<polygon fill="none" stroke="black" points="93.3738,-60.6953 93.3738,-83.3047 208.626,-83.3047 208.626,-60.6953 93.3738,-60.6953"/>
<text text-anchor="middle" x="151" y="-68.3047" font-family="Futura" font-size="11.00">include/fa/atomic.h</text>
</a>
</g>
<!-- Node2&#45;&gt;Node4 -->
<g id="edge8" class="edge"><title>Node2&#45;&gt;Node4</title>
<path fill="none" stroke="midnightblue" d="M286.14,-117.665C251.823,-107.241 206.917,-92.9586 178.424,-83.3771"/>
<polygon fill="midnightblue" stroke="midnightblue" points="285.383,-121.092 295.967,-120.631 287.405,-114.391 285.383,-121.092"/>
</g>
<!-- Node5 -->
<g id="node11" class="node"><title>Node5</title>
<a xlink:href="buffer_8h.html" target="_top" xlink:title="include/fa/buffer.h">
<polygon fill="none" stroke="red" points="339.227,-60.6953 339.227,-83.3047 450.773,-83.3047 450.773,-60.6953 339.227,-60.6953"/>
<text text-anchor="middle" x="395" y="-68.3047" font-family="Futura" font-size="11.00">include/fa/buffer.h</text>
</a>
</g>
<!-- Node2&#45;&gt;Node5 -->
<g id="edge12" class="edge"><title>Node2&#45;&gt;Node5</title>
<path fill="none" stroke="midnightblue" d="M352.216,-113.68C362.47,-103.93 374.948,-92.0654 383.776,-83.6719"/>
<polygon fill="midnightblue" stroke="midnightblue" points="349.741,-111.204 344.906,-120.631 354.564,-116.277 349.741,-111.204"/>
</g>
<!-- Node6 -->
<g id="node13" class="node"><title>Node6</title>
<a xlink:href="io_8h.html" target="_top" xlink:title="include/fa/io.h">
<polygon fill="none" stroke="black" points="587.185,-0.695312 587.185,-23.3047 678.815,-23.3047 678.815,-0.695312 587.185,-0.695312"/>
<text text-anchor="middle" x="633" y="-8.30469" font-family="Futura" font-size="11.00">include/fa/io.h</text>
</a>
</g>
<!-- Node2&#45;&gt;Node6 -->
<g id="edge24" class="edge"><title>Node2&#45;&gt;Node6</title>
<path fill="none" stroke="midnightblue" d="M390.569,-130.077C518.498,-127.404 821.347,-117.56 852,-84 903.282,-27.854 757.39,-15.9466 679.067,-13.5337"/>
<polygon fill="midnightblue" stroke="midnightblue" points="390.132,-126.585 380.204,-130.286 390.273,-133.583 390.132,-126.585"/>
</g>
<!-- Node7 -->
<g id="node15" class="node"><title>Node7</title>
<a xlink:href="clock_8h.html" target="_top" xlink:title="include/fa/clock.h">
<polygon fill="none" stroke="red" points="468.978,-60.6953 468.978,-83.3047 577.022,-83.3047 577.022,-60.6953 468.978,-60.6953"/>
<text text-anchor="middle" x="523" y="-68.3047" font-family="Futura" font-size="11.00">include/fa/clock.h</text>
</a>
</g>
<!-- Node2&#45;&gt;Node7 -->
<g id="edge16" class="edge"><title>Node2&#45;&gt;Node7</title>
<path fill="none" stroke="midnightblue" d="M377.454,-117.665C411.422,-107.241 457.962,-92.9586 489.185,-83.3771"/>
<polygon fill="midnightblue" stroke="midnightblue" points="376.323,-114.351 367.789,-120.631 378.376,-121.043 376.323,-114.351"/>
</g>
<!-- Node8 -->
<g id="node17" class="node"><title>Node8</title>
<a xlink:href="dynamic_8h.html" target="_top" xlink:title="include/fa/dynamic.h">
<polygon fill="none" stroke="black" points="594.918,-60.6953 594.918,-83.3047 719.082,-83.3047 719.082,-60.6953 594.918,-60.6953"/>
<text text-anchor="middle" x="657" y="-68.3047" font-family="Futura" font-size="11.00">include/fa/dynamic.h</text>
</a>
</g>
<!-- Node2&#45;&gt;Node8 -->
<g id="edge18" class="edge"><title>Node2&#45;&gt;Node8</title>
<path fill="none" stroke="midnightblue" d="M390.47,-120.86C449.086,-110.334 540.301,-93.9553 599.35,-83.352"/>
<polygon fill="midnightblue" stroke="midnightblue" points="389.502,-117.478 380.278,-122.69 390.739,-124.367 389.502,-117.478"/>
</g>
<!-- Node9 -->
<g id="node19" class="node"><title>Node9</title>
<a xlink:href="error_8h.html" target="_top" xlink:title="include/fa/error.h">
<polygon fill="none" stroke="red" points="736.598,-60.6953 736.598,-83.3047 843.402,-83.3047 843.402,-60.6953 736.598,-60.6953"/>
<text text-anchor="middle" x="790" y="-68.3047" font-family="Futura" font-size="11.00">include/fa/error.h</text>
</a>
</g>
<!-- Node2&#45;&gt;Node9 -->
<g id="edge20" class="edge"><title>Node2&#45;&gt;Node9</title>
<path fill="none" stroke="midnightblue" d="M390.348,-124.637C465.508,-116.476 602.34,-101.293 719,-84 724.623,-83.1665 730.52,-82.2177 736.423,-81.2349"/>
<polygon fill="midnightblue" stroke="midnightblue" points="389.724,-121.184 380.16,-125.742 390.479,-128.143 389.724,-121.184"/>
</g>
<!-- Node10 -->
<g id="node23" class="node"><title>Node10</title>
<a xlink:href="list_8h.html" target="_top" xlink:title="include/fa/list.h">
<polygon fill="none" stroke="red" points="226.385,-60.6953 226.385,-83.3047 321.615,-83.3047 321.615,-60.6953 226.385,-60.6953"/>
<text text-anchor="middle" x="274" y="-68.3047" font-family="Futura" font-size="11.00">include/fa/list.h</text>
</a>
</g>
<!-- Node2&#45;&gt;Node10 -->
<g id="edge26" class="edge"><title>Node2&#45;&gt;Node10</title>
<path fill="none" stroke="midnightblue" d="M310.168,-113.966C299.092,-104.163 286.943,-92.1477 279.67,-83.6719"/>
<polygon fill="midnightblue" stroke="midnightblue" points="308.084,-116.789 317.957,-120.631 312.634,-111.47 308.084,-116.789"/>
</g>
<!-- Node3&#45;&gt;Node2 -->
<g id="edge6" class="edge"><title>Node3&#45;&gt;Node2</title>
<path fill="none" stroke="midnightblue" d="M65.8045,-33.1551C70.7635,-49.3488 77.7492,-71.4003 93,-84 122.45,-108.331 226.267,-121.241 287.712,-127.055"/>
<polygon fill="midnightblue" stroke="midnightblue" points="69.1122,-32.006 62.7719,-23.5177 62.435,-34.1072 69.1122,-32.006"/>
</g>
<!-- Node4&#45;&gt;Node2 -->
<g id="edge10" class="edge"><title>Node4&#45;&gt;Node2</title>
<path fill="none" stroke="midnightblue" d="M198.888,-86.3437C233.211,-96.7699 278.116,-111.052 306.599,-120.631"/>
<polygon fill="midnightblue" stroke="midnightblue" points="199.644,-82.916 189.059,-83.3771 197.621,-89.6174 199.644,-82.916"/>
</g>
<!-- Node5&#45;&gt;Node6 -->
<g id="edge14" class="edge"><title>Node5&#45;&gt;Node6</title>
<path fill="none" stroke="midnightblue" d="M447.531,-58.1982C490.477,-47.7325 550.426,-33.1231 590.418,-23.3771"/>
<polygon fill="midnightblue" stroke="midnightblue" points="446.437,-54.8625 437.55,-60.6308 448.094,-61.6635 446.437,-54.8625"/>
</g>
<!-- Node9&#45;&gt;Node2 -->
<g id="edge22" class="edge"><title>Node9&#45;&gt;Node2</title>
<path fill="none" stroke="midnightblue" d="M731.116,-84.8477C600.835,-103.872 453.732,-119.71 380.347,-126.892"/>
<polygon fill="midnightblue" stroke="midnightblue" points="731.878,-88.2733 741.262,-83.3545 730.859,-81.3479 731.878,-88.2733"/>
</g>
<!-- Node10&#45;&gt;Node2 -->
<g id="edge30" class="edge"><title>Node10&#45;&gt;Node2</title>
<path fill="none" stroke="midnightblue" d="M298.23,-90.3869C309.331,-100.242 321.433,-112.24 328.589,-120.631"/>
<polygon fill="midnightblue" stroke="midnightblue" points="300.277,-87.531 290.41,-83.6719 295.717,-92.8418 300.277,-87.531"/>
</g>
<!-- Node10&#45;&gt;Node3 -->
<g id="edge28" class="edge"><title>Node10&#45;&gt;Node3</title>
<path fill="none" stroke="midnightblue" d="M225.134,-57.999C185.852,-47.5478 131.403,-33.0614 95.0035,-23.3771"/>
<polygon fill="midnightblue" stroke="midnightblue" points="224.462,-61.4419 235.026,-60.6308 226.262,-54.6772 224.462,-61.4419"/>
</g>
</g>
</svg>
