<?xml version="1.0" encoding="UTF-8" standalone="no"?>
<!DOCTYPE svg PUBLIC "-//W3C//DTD SVG 1.1//EN"
 "http://www.w3.org/Graphics/SVG/1.1/DTD/svg11.dtd">
<!-- Generated by graphviz version 2.28.0 (20121015.0031)
 -->
<!-- Title: include/fa/streams.h Pages: 1 -->
<svg width="741pt" height="212pt"
 viewBox="0.00 0.00 741.00 212.00" xmlns="http://www.w3.org/2000/svg" xmlns:xlink="http://www.w3.org/1999/xlink">
<g id="graph1" class="graph" transform="scale(1 1) rotate(0) translate(4 208)">
<title>include/fa/streams.h</title>
<!-- Node1 -->
<g id="node1" class="node"><title>Node1</title>
<polygon fill="#bfbfbf" stroke="black" points="380.182,-180.695 380.182,-203.305 499.818,-203.305 499.818,-180.695 380.182,-180.695"/>
<text text-anchor="middle" x="440" y="-188.305" font-family="Futura" font-size="11.00">include/fa/streams.h</text>
</g>
<!-- Node2 -->
<g id="node3" class="node"><title>Node2</title>
<a xlink:href="fa_2fa_8h.html" target="_top" xlink:title="fa.h">
<polygon fill="none" stroke="red" points="462.273,-60.6953 462.273,-83.3047 497.727,-83.3047 497.727,-60.6953 462.273,-60.6953"/>
<text text-anchor="middle" x="480" y="-68.3047" font-family="Futura" font-size="11.00">fa.h</text>
</a>
</g>
<!-- Node1&#45;&gt;Node2 -->
<g id="edge2" class="edge"><title>Node1&#45;&gt;Node2</title>
<path fill="none" stroke="midnightblue" d="M442.315,-180.254C445.468,-166.206 451.578,-140.925 459,-120 462.228,-110.898 466.473,-101.105 470.301,-92.8273"/>
<polygon fill="midnightblue" stroke="midnightblue" points="473.541,-94.1639 474.667,-83.6291 467.217,-91.1622 473.541,-94.1639"/>
</g>
<!-- Node6 -->
<g id="node12" class="node"><title>Node6</title>
<a xlink:href="ring__buffer_8h.html" target="_top" xlink:title="fa/atomic/ring_buffer.h">
<polygon fill="none" stroke="red" points="-0.474121,-0.695312 -0.474121,-23.3047 134.474,-23.3047 134.474,-0.695312 -0.474121,-0.695312"/>
<text text-anchor="middle" x="67" y="-8.30469" font-family="Futura" font-size="11.00">fa/atomic/ring_buffer.h</text>
</a>
</g>
<!-- Node1&#45;&gt;Node6 -->
<g id="edge30" class="edge"><title>Node1&#45;&gt;Node6</title>
<path fill="none" stroke="midnightblue" d="M418.334,-180.661C355.242,-150.552 171.475,-62.8568 97.9429,-27.7663"/>
<polygon fill="midnightblue" stroke="midnightblue" points="99.2586,-24.5161 88.7261,-23.368 96.2437,-30.8336 99.2586,-24.5161"/>
</g>
<!-- Node10 -->
<g id="node22" class="node"><title>Node10</title>
<a xlink:href="buffer_8h.html" target="_top" xlink:title="fa/buffer.h">
<polygon fill="none" stroke="red" points="467.79,-120.695 467.79,-143.305 538.21,-143.305 538.21,-120.695 467.79,-120.695"/>
<text text-anchor="middle" x="503" y="-128.305" font-family="Futura" font-size="11.00">fa/buffer.h</text>
</a>
</g>
<!-- Node1&#45;&gt;Node10 -->
<g id="edge24" class="edge"><title>Node1&#45;&gt;Node10</title>
<path fill="none" stroke="midnightblue" d="M451.263,-180.631C460.288,-172.322 473.157,-160.475 483.802,-150.675"/>
<polygon fill="midnightblue" stroke="midnightblue" points="486.422,-153.02 491.408,-143.672 481.681,-147.87 486.422,-153.02"/>
</g>
<!-- Node3 -->
<g id="node5" class="node"><title>Node3</title>
<a xlink:href="atomic_8h.html" target="_top" xlink:title="fa/atomic.h">
<polygon fill="none" stroke="red" points="152.937,-0.695312 152.937,-23.3047 227.063,-23.3047 227.063,-0.695312 152.937,-0.695312"/>
<text text-anchor="middle" x="190" y="-8.30469" font-family="Futura" font-size="11.00">fa/atomic.h</text>
</a>
</g>
<!-- Node2&#45;&gt;Node3 -->
<g id="edge4" class="edge"><title>Node2&#45;&gt;Node3</title>
<path fill="none" stroke="midnightblue" d="M462.26,-68.6113C421.97,-62.2697 322.075,-44.2474 233.941,-25.4769"/>
<polygon fill="midnightblue" stroke="midnightblue" points="234.594,-22.0375 224.082,-23.3634 233.126,-28.8819 234.594,-22.0375"/>
</g>
<!-- Node4 -->
<g id="node8" class="node"><title>Node4</title>
<a xlink:href="queue_8h.html" target="_top" xlink:title="fa/atomic/queue.h">
<polygon fill="none" stroke="red" points="244.648,-0.695312 244.648,-23.3047 355.352,-23.3047 355.352,-0.695312 244.648,-0.695312"/>
<text text-anchor="middle" x="300" y="-8.30469" font-family="Futura" font-size="11.00">fa/atomic/queue.h</text>
</a>
</g>
<!-- Node2&#45;&gt;Node4 -->
<g id="edge8" class="edge"><title>Node2&#45;&gt;Node4</title>
<path fill="none" stroke="midnightblue" d="M462.083,-65.2267C434.247,-56.2575 379.864,-38.7338 341.798,-26.4683"/>
<polygon fill="midnightblue" stroke="midnightblue" points="342.607,-23.0516 332.015,-23.316 340.46,-29.7143 342.607,-23.0516"/>
</g>
<!-- Node5 -->
<g id="node10" class="node"><title>Node5</title>
<a xlink:href="stack_8h.html" target="_top" xlink:title="fa/atomic/stack.h">
<polygon fill="none" stroke="red" points="373.42,-0.695312 373.42,-23.3047 478.58,-23.3047 478.58,-0.695312 373.42,-0.695312"/>
<text text-anchor="middle" x="426" y="-8.30469" font-family="Futura" font-size="11.00">fa/atomic/stack.h</text>
</a>
</g>
<!-- Node2&#45;&gt;Node5 -->
<g id="edge10" class="edge"><title>Node2&#45;&gt;Node5</title>
<path fill="none" stroke="midnightblue" d="M470.346,-60.6308C462.762,-52.4848 452.011,-40.9379 442.994,-31.2533"/>
<polygon fill="midnightblue" stroke="midnightblue" points="445.312,-28.6059 435.936,-23.6719 440.188,-33.3758 445.312,-28.6059"/>
</g>
<!-- Node2&#45;&gt;Node6 -->
<g id="edge12" class="edge"><title>Node2&#45;&gt;Node6</title>
<path fill="none" stroke="midnightblue" d="M462.149,-68.5216C413.278,-61.7328 272.973,-42.216 144.611,-24.0833"/>
<polygon fill="midnightblue" stroke="midnightblue" points="144.996,-20.603 134.605,-22.6692 144.016,-27.5342 144.996,-20.603"/>
</g>
<!-- Node7 -->
<g id="node14" class="node"><title>Node7</title>
<a xlink:href="system_8h.html" target="_top" xlink:title="fa/system.h">
<polygon fill="none" stroke="red" points="497.026,-0.695312 497.026,-23.3047 570.974,-23.3047 570.974,-0.695312 497.026,-0.695312"/>
<text text-anchor="middle" x="534" y="-8.30469" font-family="Futura" font-size="11.00">fa/system.h</text>
</a>
</g>
<!-- Node2&#45;&gt;Node7 -->
<g id="edge14" class="edge"><title>Node2&#45;&gt;Node7</title>
<path fill="none" stroke="midnightblue" d="M489.654,-60.6308C497.238,-52.4848 507.989,-40.9379 517.006,-31.2533"/>
<polygon fill="midnightblue" stroke="midnightblue" points="519.812,-33.3758 524.064,-23.6719 514.688,-28.6059 519.812,-33.3758"/>
</g>
<!-- Node8 -->
<g id="node16" class="node"><title>Node8</title>
<a xlink:href="error_8h.html" target="_top" xlink:title="fa/error.h">
<polygon fill="none" stroke="red" points="589.161,-0.695312 589.161,-23.3047 654.839,-23.3047 654.839,-0.695312 589.161,-0.695312"/>
<text text-anchor="middle" x="622" y="-8.30469" font-family="Futura" font-size="11.00">fa/error.h</text>
</a>
</g>
<!-- Node2&#45;&gt;Node8 -->
<g id="edge16" class="edge"><title>Node2&#45;&gt;Node8</title>
<path fill="none" stroke="midnightblue" d="M497.99,-61.5522C519.11,-52.1627 554.388,-37.6546 582.003,-26.9412"/>
<polygon fill="midnightblue" stroke="midnightblue" points="583.336,-30.1785 591.415,-23.3246 580.825,-23.6443 583.336,-30.1785"/>
</g>
<!-- Node9 -->
<g id="node19" class="node"><title>Node9</title>
<a xlink:href="pair_8h.html" target="_top" xlink:title="fa/pair.h">
<polygon fill="none" stroke="red" points="672.694,-0.695312 672.694,-23.3047 733.306,-23.3047 733.306,-0.695312 672.694,-0.695312"/>
<text text-anchor="middle" x="703" y="-8.30469" font-family="Futura" font-size="11.00">fa/pair.h</text>
</a>
</g>
<!-- Node2&#45;&gt;Node9 -->
<g id="edge20" class="edge"><title>Node2&#45;&gt;Node9</title>
<path fill="none" stroke="midnightblue" d="M497.851,-65.0441C529.648,-56.2446 596.939,-39.1722 654,-24 656.741,-23.2713 659.585,-22.5065 662.468,-21.734"/>
<polygon fill="midnightblue" stroke="midnightblue" points="663.561,-25.0652 672.33,-19.1189 661.767,-18.299 663.561,-25.0652"/>
</g>
<!-- Node3&#45;&gt;Node2 -->
<g id="edge6" class="edge"><title>Node3&#45;&gt;Node2</title>
<path fill="none" stroke="midnightblue" d="M227.227,-20.0046C233.225,-21.3767 239.301,-22.7704 245,-24 319.798,-40.1388 408.082,-56.4767 452.263,-64.99"/>
<polygon fill="midnightblue" stroke="midnightblue" points="451.775,-68.4607 462.259,-66.9318 453.11,-61.5891 451.775,-68.4607"/>
</g>
<!-- Node8&#45;&gt;Node2 -->
<g id="edge18" class="edge"><title>Node8&#45;&gt;Node2</title>
<path fill="none" stroke="midnightblue" d="M601.601,-23.5139C576.696,-34.4895 534.899,-51.5234 507.274,-61.9286"/>
<polygon fill="midnightblue" stroke="midnightblue" points="505.957,-58.6839 497.794,-65.4387 508.387,-65.2483 505.957,-58.6839"/>
</g>
<!-- Node9&#45;&gt;Node2 -->
<g id="edge22" class="edge"><title>Node9&#45;&gt;Node2</title>
<path fill="none" stroke="midnightblue" d="M674.531,-23.3245C673.68,-23.5525 672.835,-23.7779 672,-24 613.903,-39.4478 545.2,-56.8654 507.549,-65.5154"/>
<polygon fill="midnightblue" stroke="midnightblue" points="506.775,-62.1021 497.788,-67.7137 508.313,-68.931 506.775,-62.1021"/>
</g>
<!-- Node10&#45;&gt;Node2 -->
<g id="edge26" class="edge"><title>Node10&#45;&gt;Node2</title>
<path fill="none" stroke="midnightblue" d="M498.888,-120.631C495.852,-112.974 491.623,-102.311 487.937,-93.0155"/>
<polygon fill="midnightblue" stroke="midnightblue" points="491.172,-91.6774 484.232,-83.6719 484.665,-94.2579 491.172,-91.6774"/>
</g>
<!-- Node10&#45;&gt;Node9 -->
<g id="edge28" class="edge"><title>Node10&#45;&gt;Node9</title>
<path fill="none" stroke="midnightblue" d="M520.749,-120.528C556.033,-99.7102 635.155,-53.0288 676.575,-28.5906"/>
<polygon fill="midnightblue" stroke="midnightblue" points="678.457,-31.5442 685.291,-23.4482 674.9,-25.5153 678.457,-31.5442"/>
</g>
</g>
</svg>
