<?xml version="1.0" encoding="UTF-8" standalone="no"?>
<!DOCTYPE svg PUBLIC "-//W3C//DTD SVG 1.1//EN"
 "http://www.w3.org/Graphics/SVG/1.1/DTD/svg11.dtd">
<!-- Generated by graphviz version 2.28.0 (20121015.0031)
 -->
<!-- Title: include/fa/audio/stream.h Pages: 1 -->
<svg width="814pt" height="272pt"
 viewBox="0.00 0.00 814.00 272.00" xmlns="http://www.w3.org/2000/svg" xmlns:xlink="http://www.w3.org/1999/xlink">
<g id="graph1" class="graph" transform="scale(1 1) rotate(0) translate(4 268)">
<title>include/fa/audio/stream.h</title>
<!-- Node1 -->
<g id="node1" class="node"><title>Node1</title>
<polygon fill="#bfbfbf" stroke="black" points="335.296,-240.695 335.296,-263.305 484.704,-263.305 484.704,-240.695 335.296,-240.695"/>
<text text-anchor="middle" x="410" y="-248.305" font-family="Futura" font-size="11.00">include/fa/audio/stream.h</text>
</g>
<!-- Node2 -->
<g id="node3" class="node"><title>Node2</title>
<a xlink:href="audio_8h.html" target="_top" xlink:title="include/fa/audio.h">
<polygon fill="none" stroke="black" points="354.592,-180.695 354.592,-203.305 465.408,-203.305 465.408,-180.695 354.592,-180.695"/>
<text text-anchor="middle" x="410" y="-188.305" font-family="Futura" font-size="11.00">include/fa/audio.h</text>
</a>
</g>
<!-- Node1&#45;&gt;Node2 -->
<g id="edge2" class="edge"><title>Node1&#45;&gt;Node2</title>
<path fill="none" stroke="midnightblue" d="M410,-230.459C410,-221.411 410,-211.16 410,-203.672"/>
<polygon fill="midnightblue" stroke="midnightblue" points="406.5,-230.631 410,-240.631 413.5,-230.631 406.5,-230.631"/>
</g>
<!-- Node3 -->
<g id="node5" class="node"><title>Node3</title>
<a xlink:href="fa_2fa_8h.html" target="_top" xlink:title="include/fa/fa.h">
<polygon fill="none" stroke="red" points="311.846,-120.695 311.846,-143.305 404.154,-143.305 404.154,-120.695 311.846,-120.695"/>
<text text-anchor="middle" x="358" y="-128.305" font-family="Futura" font-size="11.00">include/fa/fa.h</text>
</a>
</g>
<!-- Node2&#45;&gt;Node3 -->
<g id="edge4" class="edge"><title>Node2&#45;&gt;Node3</title>
<path fill="none" stroke="midnightblue" d="M393.955,-173.104C385.314,-163.466 374.946,-151.901 367.568,-143.672"/>
<polygon fill="midnightblue" stroke="midnightblue" points="391.422,-175.521 400.703,-180.631 396.634,-170.849 391.422,-175.521"/>
</g>
<!-- Node4 -->
<g id="node7" class="node"><title>Node4</title>
<a xlink:href="action_8h.html" target="_top" xlink:title="include/fa/action.h">
<polygon fill="none" stroke="red" points="-0.253906,-60.6953 -0.253906,-83.3047 112.254,-83.3047 112.254,-60.6953 -0.253906,-60.6953"/>
<text text-anchor="middle" x="56" y="-68.3047" font-family="Futura" font-size="11.00">include/fa/action.h</text>
</a>
</g>
<!-- Node3&#45;&gt;Node4 -->
<g id="edge6" class="edge"><title>Node3&#45;&gt;Node4</title>
<path fill="none" stroke="midnightblue" d="M301.938,-121.232C245.176,-110.72 158.438,-94.0687 104.528,-83.3398"/>
<polygon fill="midnightblue" stroke="midnightblue" points="301.355,-124.684 311.825,-123.057 302.626,-117.8 301.355,-124.684"/>
</g>
<!-- Node5 -->
<g id="node12" class="node"><title>Node5</title>
<a xlink:href="atomic_8h.html" target="_top" xlink:title="include/fa/atomic.h">
<polygon fill="none" stroke="black" points="130.374,-60.6953 130.374,-83.3047 245.626,-83.3047 245.626,-60.6953 130.374,-60.6953"/>
<text text-anchor="middle" x="188" y="-68.3047" font-family="Futura" font-size="11.00">include/fa/atomic.h</text>
</a>
</g>
<!-- Node3&#45;&gt;Node5 -->
<g id="edge14" class="edge"><title>Node3&#45;&gt;Node5</title>
<path fill="none" stroke="midnightblue" d="M312.717,-117.53C280.791,-107.118 239.33,-92.9175 213.098,-83.3771"/>
<polygon fill="midnightblue" stroke="midnightblue" points="311.7,-120.88 322.292,-120.631 313.856,-114.22 311.7,-120.88"/>
</g>
<!-- Node6 -->
<g id="node15" class="node"><title>Node6</title>
<a xlink:href="buffer_8h.html" target="_top" xlink:title="include/fa/buffer.h">
<polygon fill="none" stroke="red" points="302.227,-60.6953 302.227,-83.3047 413.773,-83.3047 413.773,-60.6953 302.227,-60.6953"/>
<text text-anchor="middle" x="358" y="-68.3047" font-family="Futura" font-size="11.00">include/fa/buffer.h</text>
</a>
</g>
<!-- Node3&#45;&gt;Node6 -->
<g id="edge18" class="edge"><title>Node3&#45;&gt;Node6</title>
<path fill="none" stroke="midnightblue" d="M358,-110.459C358,-101.411 358,-91.1602 358,-83.6719"/>
<polygon fill="midnightblue" stroke="midnightblue" points="354.5,-110.631 358,-120.631 361.5,-110.631 354.5,-110.631"/>
</g>
<!-- Node7 -->
<g id="node17" class="node"><title>Node7</title>
<a xlink:href="io_8h.html" target="_top" xlink:title="include/fa/io.h">
<polygon fill="none" stroke="black" points="270.185,-0.695312 270.185,-23.3047 361.815,-23.3047 361.815,-0.695312 270.185,-0.695312"/>
<text text-anchor="middle" x="316" y="-8.30469" font-family="Futura" font-size="11.00">include/fa/io.h</text>
</a>
</g>
<!-- Node3&#45;&gt;Node7 -->
<g id="edge36" class="edge"><title>Node3&#45;&gt;Node7</title>
<path fill="none" stroke="midnightblue" d="M325.023,-115.599C312.629,-107.973 299.883,-97.4713 293,-84 282.624,-63.6929 297.386,-37.7495 307.626,-23.518"/>
<polygon fill="midnightblue" stroke="midnightblue" points="323.473,-118.745 333.896,-120.646 326.934,-112.66 323.473,-118.745"/>
</g>
<!-- Node8 -->
<g id="node19" class="node"><title>Node8</title>
<a xlink:href="clock_8h.html" target="_top" xlink:title="include/fa/clock.h">
<polygon fill="none" stroke="red" points="697.978,-60.6953 697.978,-83.3047 806.022,-83.3047 806.022,-60.6953 697.978,-60.6953"/>
<text text-anchor="middle" x="752" y="-68.3047" font-family="Futura" font-size="11.00">include/fa/clock.h</text>
</a>
</g>
<!-- Node3&#45;&gt;Node8 -->
<g id="edge22" class="edge"><title>Node3&#45;&gt;Node8</title>
<path fill="none" stroke="midnightblue" d="M414.571,-123.525C480.538,-114.679 592.818,-99.2215 689,-84 691.851,-83.5488 694.773,-83.0757 697.722,-82.59"/>
<polygon fill="midnightblue" stroke="midnightblue" points="413.839,-120.091 404.391,-124.886 414.767,-127.029 413.839,-120.091"/>
</g>
<!-- Node9 -->
<g id="node23" class="node"><title>Node9</title>
<a xlink:href="dynamic_8h.html" target="_top" xlink:title="include/fa/dynamic.h">
<polygon fill="none" stroke="black" points="431.918,-60.6953 431.918,-83.3047 556.082,-83.3047 556.082,-60.6953 431.918,-60.6953"/>
<text text-anchor="middle" x="494" y="-68.3047" font-family="Futura" font-size="11.00">include/fa/dynamic.h</text>
</a>
</g>
<!-- Node3&#45;&gt;Node9 -->
<g id="edge28" class="edge"><title>Node3&#45;&gt;Node9</title>
<path fill="none" stroke="midnightblue" d="M391.787,-116.591C415.886,-106.314 447.737,-92.7296 469.438,-83.475"/>
<polygon fill="midnightblue" stroke="midnightblue" points="390.139,-113.488 382.314,-120.631 392.886,-119.927 390.139,-113.488"/>
</g>
<!-- Node10 -->
<g id="node25" class="node"><title>Node10</title>
<a xlink:href="error_8h.html" target="_top" xlink:title="include/fa/error.h">
<polygon fill="none" stroke="red" points="573.598,-60.6953 573.598,-83.3047 680.402,-83.3047 680.402,-60.6953 573.598,-60.6953"/>
<text text-anchor="middle" x="627" y="-68.3047" font-family="Futura" font-size="11.00">include/fa/error.h</text>
</a>
</g>
<!-- Node3&#45;&gt;Node10 -->
<g id="edge30" class="edge"><title>Node3&#45;&gt;Node10</title>
<path fill="none" stroke="midnightblue" d="M410.773,-118.396C457.836,-107.918 526.287,-93.1848 573.555,-83.3771"/>
<polygon fill="midnightblue" stroke="midnightblue" points="409.772,-115.034 400.776,-120.631 411.299,-121.865 409.772,-115.034"/>
</g>
<!-- Node4&#45;&gt;Node1 -->
<g id="edge8" class="edge"><title>Node4&#45;&gt;Node1</title>
<path fill="none" stroke="midnightblue" d="M85.7953,-87.9818C155.865,-123.215 329.681,-210.614 389.437,-240.661"/>
<polygon fill="midnightblue" stroke="midnightblue" points="87.1259,-84.7334 76.6194,-83.368 83.9813,-90.9873 87.1259,-84.7334"/>
</g>
<!-- Node4&#45;&gt;Node2 -->
<g id="edge10" class="edge"><title>Node4&#45;&gt;Node2</title>
<path fill="none" stroke="midnightblue" d="M96.7367,-86.5789C168.248,-110.416 314.843,-159.281 378.895,-180.632"/>
<polygon fill="midnightblue" stroke="midnightblue" points="97.7545,-83.2289 87.1608,-83.3869 95.5409,-89.8697 97.7545,-83.2289"/>
</g>
<!-- Node4&#45;&gt;Node3 -->
<g id="edge12" class="edge"><title>Node4&#45;&gt;Node3</title>
<path fill="none" stroke="midnightblue" d="M122.38,-84.6845C179.736,-95.3714 261.05,-111.008 311.657,-121.095"/>
<polygon fill="midnightblue" stroke="midnightblue" points="122.791,-81.2011 112.32,-82.8154 121.513,-88.0833 122.791,-81.2011"/>
</g>
<!-- Node5&#45;&gt;Node3 -->
<g id="edge16" class="edge"><title>Node5&#45;&gt;Node3</title>
<path fill="none" stroke="midnightblue" d="M233.309,-86.4782C265.241,-96.8924 306.7,-111.093 332.923,-120.631"/>
<polygon fill="midnightblue" stroke="midnightblue" points="234.325,-83.1281 223.733,-83.3771 232.168,-89.7877 234.325,-83.1281"/>
</g>
<!-- Node6&#45;&gt;Node7 -->
<g id="edge20" class="edge"><title>Node6&#45;&gt;Node7</title>
<path fill="none" stroke="midnightblue" d="M344.62,-52.5233C337.728,-43.0047 329.568,-31.7362 323.728,-23.6719"/>
<polygon fill="midnightblue" stroke="midnightblue" points="341.791,-54.5841 350.491,-60.6308 347.461,-50.4785 341.791,-54.5841"/>
</g>
<!-- Node8&#45;&gt;Node1 -->
<g id="edge24" class="edge"><title>Node8&#45;&gt;Node1</title>
<path fill="none" stroke="midnightblue" d="M722.798,-88.1986C654.834,-123.572 487.478,-210.675 429.866,-240.661"/>
<polygon fill="midnightblue" stroke="midnightblue" points="724.825,-91.0895 732.08,-83.368 721.593,-84.8801 724.825,-91.0895"/>
</g>
<!-- Node8&#45;&gt;Node2 -->
<g id="edge26" class="edge"><title>Node8&#45;&gt;Node2</title>
<path fill="none" stroke="midnightblue" d="M711.958,-86.8157C642.623,-110.738 501.727,-159.352 440.05,-180.632"/>
<polygon fill="midnightblue" stroke="midnightblue" points="713.339,-90.0418 721.65,-83.4715 711.056,-83.4246 713.339,-90.0418"/>
</g>
<!-- Node10&#45;&gt;Node2 -->
<g id="edge32" class="edge"><title>Node10&#45;&gt;Node2</title>
<path fill="none" stroke="midnightblue" d="M598.894,-88.2837C554.11,-112.636 467.702,-159.623 429.257,-180.528"/>
<polygon fill="midnightblue" stroke="midnightblue" points="600.673,-91.3003 607.786,-83.4482 597.329,-85.1507 600.673,-91.3003"/>
</g>
<!-- Node10&#45;&gt;Node3 -->
<g id="edge34" class="edge"><title>Node10&#45;&gt;Node3</title>
<path fill="none" stroke="midnightblue" d="M574.469,-85.5497C524.928,-96.5821 451.532,-112.361 404.171,-122.128"/>
<polygon fill="midnightblue" stroke="midnightblue" points="575.356,-88.9378 584.352,-83.3406 573.829,-82.1064 575.356,-88.9378"/>
</g>
</g>
</svg>
