<?xml version="1.0" encoding="UTF-8" standalone="no"?>
<!DOCTYPE svg PUBLIC "-//W3C//DTD SVG 1.1//EN"
 "http://www.w3.org/Graphics/SVG/1.1/DTD/svg11.dtd">
<!-- Generated by graphviz version 2.28.0 (20121015.0031)
 -->
<!-- Title: include/fa/time.h Pages: 1 -->
<svg width="976pt" height="272pt"
 viewBox="0.00 0.00 976.23 272.00" xmlns="http://www.w3.org/2000/svg" xmlns:xlink="http://www.w3.org/1999/xlink">
<g id="graph1" class="graph" transform="scale(1 1) rotate(0) translate(4 268)">
<title>include/fa/time.h</title>
<!-- Node1 -->
<g id="node1" class="node"><title>Node1</title>
<polygon fill="#bfbfbf" stroke="black" points="358.821,-240.695 358.821,-263.305 461.634,-263.305 461.634,-240.695 358.821,-240.695"/>
<text text-anchor="middle" x="410.227" y="-248.305" font-family="Futura" font-size="11.00">include/fa/time.h</text>
</g>
<!-- Node2 -->
<g id="node3" class="node"><title>Node2</title>
<a xlink:href="audio_2device_8h.html" target="_top" xlink:title="include/fa/audio/device.h">
<polygon fill="none" stroke="red" points="26.9267,-60.6953 26.9267,-83.3047 175.528,-83.3047 175.528,-60.6953 26.9267,-60.6953"/>
<text text-anchor="middle" x="101.227" y="-68.3047" font-family="Futura" font-size="11.00">include/fa/audio/device.h</text>
</a>
</g>
<!-- Node1&#45;&gt;Node2 -->
<g id="edge2" class="edge"><title>Node1&#45;&gt;Node2</title>
<path fill="none" stroke="midnightblue" d="M348.632,-244.055C247.245,-231.132 52.747,-199.54 16.2275,-144 -1.25565,-117.411 39.3914,-95.5268 70.3151,-83.377"/>
<polygon fill="midnightblue" stroke="midnightblue" points="348.381,-247.551 358.738,-245.321 349.251,-240.605 348.381,-247.551"/>
</g>
<!-- Node3 -->
<g id="node5" class="node"><title>Node3</title>
<a xlink:href="audio_2stream_8h.html" target="_top" xlink:title="include/fa/audio/stream.h">
<polygon fill="none" stroke="red" points="26.5239,-0.695312 26.5239,-23.3047 175.931,-23.3047 175.931,-0.695312 26.5239,-0.695312"/>
<text text-anchor="middle" x="101.227" y="-8.30469" font-family="Futura" font-size="11.00">include/fa/audio/stream.h</text>
</a>
</g>
<!-- Node1&#45;&gt;Node3 -->
<g id="edge10" class="edge"><title>Node1&#45;&gt;Node3</title>
<path fill="none" stroke="midnightblue" d="M348.473,-247.322C263.407,-241.45 115.239,-228.086 67.2275,-204 6.80145,-173.686 -20.5199,-115.398 18.2275,-60 30.3762,-42.6307 51.1262,-30.8807 68.8391,-23.473"/>
<polygon fill="midnightblue" stroke="midnightblue" points="348.31,-250.819 358.523,-248.002 348.782,-243.835 348.31,-250.819"/>
</g>
<!-- Node4 -->
<g id="node7" class="node"><title>Node4</title>
<a xlink:href="audio_2session_8h.html" target="_top" xlink:title="include/fa/audio/session.h">
<polygon fill="none" stroke="red" points="25.541,-120.695 25.541,-143.305 176.914,-143.305 176.914,-120.695 25.541,-120.695"/>
<text text-anchor="middle" x="101.227" y="-128.305" font-family="Futura" font-size="11.00">include/fa/audio/session.h</text>
</a>
</g>
<!-- Node1&#45;&gt;Node4 -->
<g id="edge6" class="edge"><title>Node1&#45;&gt;Node4</title>
<path fill="none" stroke="midnightblue" d="M348.408,-243.989C305.189,-237.49 246.907,-225.468 199.227,-204 164.361,-188.301 129.538,-159.038 112.319,-143.433"/>
<polygon fill="midnightblue" stroke="midnightblue" points="348.101,-247.481 358.499,-245.448 349.102,-240.553 348.101,-247.481"/>
</g>
<!-- Node5 -->
<g id="node11" class="node"><title>Node5</title>
<a xlink:href="clock_8h.html" target="_top" xlink:title="include/fa/clock.h">
<polygon fill="none" stroke="black" points="208.205,-180.695 208.205,-203.305 316.25,-203.305 316.25,-180.695 208.205,-180.695"/>
<text text-anchor="middle" x="262.227" y="-188.305" font-family="Futura" font-size="11.00">include/fa/clock.h</text>
</a>
</g>
<!-- Node1&#45;&gt;Node5 -->
<g id="edge12" class="edge"><title>Node1&#45;&gt;Node5</title>
<path fill="none" stroke="midnightblue" d="M374.157,-236.864C347.851,-226.555 312.782,-212.812 288.957,-203.475"/>
<polygon fill="midnightblue" stroke="midnightblue" points="373.18,-240.241 383.768,-240.631 375.735,-233.723 373.18,-240.241"/>
</g>
<!-- Node6 -->
<g id="node16" class="node"><title>Node6</title>
<a xlink:href="midi_8h.html" target="_top" xlink:title="include/fa/midi.h">
<polygon fill="none" stroke="black" points="309.7,-120.695 309.7,-143.305 412.755,-143.305 412.755,-120.695 309.7,-120.695"/>
<text text-anchor="middle" x="361.227" y="-128.305" font-family="Futura" font-size="11.00">include/fa/midi.h</text>
</a>
</g>
<!-- Node1&#45;&gt;Node6 -->
<g id="edge30" class="edge"><title>Node1&#45;&gt;Node6</title>
<path fill="none" stroke="midnightblue" d="M402.009,-231.21C391.544,-206.007 373.836,-163.363 365.637,-143.618"/>
<polygon fill="midnightblue" stroke="midnightblue" points="398.812,-232.635 405.879,-240.528 405.276,-229.951 398.812,-232.635"/>
</g>
<!-- Node7 -->
<g id="node18" class="node"><title>Node7</title>
<a xlink:href="fa_2fa_8h.html" target="_top" xlink:title="include/fa/fa.h">
<polygon fill="none" stroke="red" points="359.074,-60.6953 359.074,-83.3047 451.381,-83.3047 451.381,-60.6953 359.074,-60.6953"/>
<text text-anchor="middle" x="405.227" y="-68.3047" font-family="Futura" font-size="11.00">include/fa/fa.h</text>
</a>
</g>
<!-- Node1&#45;&gt;Node7 -->
<g id="edge28" class="edge"><title>Node1&#45;&gt;Node7</title>
<path fill="none" stroke="midnightblue" d="M408.822,-230.274C411.502,-204.341 418.624,-158.64 412.227,-120 410.088,-107.074 404.848,-92.9284 402.828,-83.5683"/>
<polygon fill="midnightblue" stroke="midnightblue" points="405.321,-230.146 407.982,-240.401 412.297,-230.725 405.321,-230.146"/>
</g>
<!-- Node8 -->
<g id="node24" class="node"><title>Node8</title>
<a xlink:href="analysis_8h.html" target="_top" xlink:title="include/fa/signal/analysis.h">
<polygon fill="none" stroke="black" points="475.81,-180.695 475.81,-203.305 632.645,-203.305 632.645,-180.695 475.81,-180.695"/>
<text text-anchor="middle" x="554.227" y="-188.305" font-family="Futura" font-size="11.00">include/fa/signal/analysis.h</text>
</a>
</g>
<!-- Node1&#45;&gt;Node8 -->
<g id="edge32" class="edge"><title>Node1&#45;&gt;Node8</title>
<path fill="none" stroke="midnightblue" d="M445.323,-236.864C470.918,-226.555 505.039,-212.812 528.221,-203.475"/>
<polygon fill="midnightblue" stroke="midnightblue" points="443.94,-233.648 435.972,-240.631 446.555,-240.141 443.94,-233.648"/>
</g>
<!-- Node9 -->
<g id="node26" class="node"><title>Node9</title>
<a xlink:href="basic_8h.html" target="_top" xlink:title="include/fa/signal/basic.h">
<polygon fill="none" stroke="black" points="650.843,-180.695 650.843,-203.305 793.612,-203.305 793.612,-180.695 650.843,-180.695"/>
<text text-anchor="middle" x="722.227" y="-188.305" font-family="Futura" font-size="11.00">include/fa/signal/basic.h</text>
</a>
</g>
<!-- Node1&#45;&gt;Node9 -->
<g id="edge34" class="edge"><title>Node1&#45;&gt;Node9</title>
<path fill="none" stroke="midnightblue" d="M471.664,-239.579C528.391,-229.034 611.91,-213.508 666.681,-203.326"/>
<polygon fill="midnightblue" stroke="midnightblue" points="470.94,-236.154 461.748,-241.422 472.219,-243.036 470.94,-236.154"/>
</g>
<!-- Node10 -->
<g id="node28" class="node"><title>Node10</title>
<a xlink:href="external_8h.html" target="_top" xlink:title="include/fa/signal/external.h">
<polygon fill="none" stroke="black" points="811.235,-180.695 811.235,-203.305 969.22,-203.305 969.22,-180.695 811.235,-180.695"/>
<text text-anchor="middle" x="890.227" y="-188.305" font-family="Futura" font-size="11.00">include/fa/signal/external.h</text>
</a>
</g>
<!-- Node1&#45;&gt;Node10 -->
<g id="edge36" class="edge"><title>Node1&#45;&gt;Node10</title>
<path fill="none" stroke="midnightblue" d="M471.958,-243.696C549.197,-234.534 685.515,-218.291 802.227,-204 805.131,-203.644 808.089,-203.281 811.076,-202.913"/>
<polygon fill="midnightblue" stroke="midnightblue" points="471.437,-240.233 461.919,-244.886 472.261,-247.184 471.437,-240.233"/>
</g>
<!-- Node2&#45;&gt;Node3 -->
<g id="edge4" class="edge"><title>Node2&#45;&gt;Node3</title>
<path fill="none" stroke="midnightblue" d="M101.227,-50.4586C101.227,-41.4112 101.227,-31.1602 101.227,-23.6719"/>
<polygon fill="midnightblue" stroke="midnightblue" points="97.7276,-50.6307 101.227,-60.6308 104.728,-50.6308 97.7276,-50.6307"/>
</g>
<!-- Node4&#45;&gt;Node2 -->
<g id="edge8" class="edge"><title>Node4&#45;&gt;Node2</title>
<path fill="none" stroke="midnightblue" d="M101.227,-110.459C101.227,-101.411 101.227,-91.1602 101.227,-83.6719"/>
<polygon fill="midnightblue" stroke="midnightblue" points="97.7276,-110.631 101.227,-120.631 104.728,-110.631 97.7276,-110.631"/>
</g>
<!-- Node5&#45;&gt;Node2 -->
<g id="edge14" class="edge"><title>Node5&#45;&gt;Node2</title>
<path fill="none" stroke="midnightblue" d="M245.382,-173.275C230.424,-158.093 207.539,-136.183 185.227,-120 165.342,-105.577 140.597,-92.2209 123.13,-83.4619"/>
<polygon fill="midnightblue" stroke="midnightblue" points="242.957,-175.802 252.436,-180.535 247.977,-170.924 242.957,-175.802"/>
</g>
<!-- Node5&#45;&gt;Node3 -->
<g id="edge18" class="edge"><title>Node5&#45;&gt;Node3</title>
<path fill="none" stroke="midnightblue" d="M254.342,-171.211C242.523,-143.543 217.948,-92.9931 184.227,-60 167.775,-43.9023 144.719,-31.4294 127.081,-23.3908"/>
<polygon fill="midnightblue" stroke="midnightblue" points="251.176,-172.714 258.239,-180.61 257.642,-170.033 251.176,-172.714"/>
</g>
<!-- Node5&#45;&gt;Node4 -->
<g id="edge16" class="edge"><title>Node5&#45;&gt;Node4</title>
<path fill="none" stroke="midnightblue" d="M223.711,-177.125C194.918,-166.752 156.173,-152.794 130.033,-143.377"/>
<polygon fill="midnightblue" stroke="midnightblue" points="222.85,-180.534 233.444,-180.631 225.222,-173.949 222.85,-180.534"/>
</g>
<!-- Node5&#45;&gt;Node6 -->
<g id="edge20" class="edge"><title>Node5&#45;&gt;Node6</title>
<path fill="none" stroke="midnightblue" d="M288.954,-175.342C306.208,-165.234 328.183,-152.359 343.348,-143.475"/>
<polygon fill="midnightblue" stroke="midnightblue" points="286.786,-172.556 279.927,-180.631 290.324,-178.596 286.786,-172.556"/>
</g>
<!-- Node6&#45;&gt;Node7 -->
<g id="edge22" class="edge"><title>Node6&#45;&gt;Node7</title>
<path fill="none" stroke="midnightblue" d="M375.244,-112.523C382.465,-103.005 391.014,-91.7362 397.132,-83.6719"/>
<polygon fill="midnightblue" stroke="midnightblue" points="372.349,-110.548 369.094,-120.631 377.926,-114.779 372.349,-110.548"/>
</g>
<!-- Node7&#45;&gt;Node1 -->
<g id="edge26" class="edge"><title>Node7&#45;&gt;Node1</title>
<path fill="none" stroke="midnightblue" d="M421.757,-92.4679C425.55,-100.789 428.689,-110.71 430.227,-120 437.571,-164.358 427.098,-218.022 417.78,-240.401"/>
<polygon fill="midnightblue" stroke="midnightblue" points="424.823,-90.7788 417.06,-83.5683 418.632,-94.0459 424.823,-90.7788"/>
</g>
<!-- Node7&#45;&gt;Node5 -->
<g id="edge24" class="edge"><title>Node7&#45;&gt;Node5</title>
<path fill="none" stroke="midnightblue" d="M357.371,-86.8248C337.918,-94.2532 316.29,-105.033 300.227,-120 281.816,-137.156 270.509,-165.288 265.418,-180.479"/>
<polygon fill="midnightblue" stroke="midnightblue" points="358.792,-90.033 367.007,-83.3426 356.413,-83.4496 358.792,-90.033"/>
</g>
</g>
</svg>
