<?xml version="1.0" encoding="UTF-8" standalone="no"?>
<!DOCTYPE svg PUBLIC "-//W3C//DTD SVG 1.1//EN"
 "http://www.w3.org/Graphics/SVG/1.1/DTD/svg11.dtd">
<!-- Generated by graphviz version 2.28.0 (20121015.0031)
 -->
<!-- Title: include/fa/atomic.h Pages: 1 -->
<svg width="634pt" height="332pt"
 viewBox="0.00 0.00 634.33 332.00" xmlns="http://www.w3.org/2000/svg" xmlns:xlink="http://www.w3.org/1999/xlink">
<g id="graph1" class="graph" transform="scale(1 1) rotate(0) translate(4 328)">
<title>include/fa/atomic.h</title>
<!-- Node1 -->
<g id="node1" class="node"><title>Node1</title>
<polygon fill="#bfbfbf" stroke="black" points="255.374,-300.695 255.374,-323.305 370.626,-323.305 370.626,-300.695 255.374,-300.695"/>
<text text-anchor="middle" x="313" y="-308.305" font-family="Futura" font-size="11.00">include/fa/atomic.h</text>
</g>
<!-- Node2 -->
<g id="node3" class="node"><title>Node2</title>
<a xlink:href="fa_2fa_8h.html" target="_top" xlink:title="include/fa/fa.h">
<polygon fill="none" stroke="red" points="266.846,-240.695 266.846,-263.305 359.154,-263.305 359.154,-240.695 266.846,-240.695"/>
<text text-anchor="middle" x="313" y="-248.305" font-family="Futura" font-size="11.00">include/fa/fa.h</text>
</a>
</g>
<!-- Node1&#45;&gt;Node2 -->
<g id="edge2" class="edge"><title>Node1&#45;&gt;Node2</title>
<path fill="none" stroke="midnightblue" d="M306.512,-290.459C305.936,-281.411 306.309,-271.16 307.63,-263.672"/>
<polygon fill="midnightblue" stroke="midnightblue" points="303.062,-291.097 307.684,-300.631 310.016,-290.296 303.062,-291.097"/>
</g>
<!-- Node2&#45;&gt;Node1 -->
<g id="edge8" class="edge"><title>Node2&#45;&gt;Node1</title>
<path fill="none" stroke="midnightblue" d="M319.492,-273.611C320.069,-282.764 319.677,-293.137 318.316,-300.631"/>
<polygon fill="midnightblue" stroke="midnightblue" points="322.97,-273.216 318.37,-263.672 316.014,-274.001 322.97,-273.216"/>
</g>
<!-- Node3 -->
<g id="node5" class="node"><title>Node3</title>
<a xlink:href="action_8h.html" target="_top" xlink:title="include/fa/action.h">
<polygon fill="none" stroke="red" points="68.7461,-120.695 68.7461,-143.305 181.254,-143.305 181.254,-120.695 68.7461,-120.695"/>
<text text-anchor="middle" x="125" y="-128.305" font-family="Futura" font-size="11.00">include/fa/action.h</text>
</a>
</g>
<!-- Node2&#45;&gt;Node3 -->
<g id="edge4" class="edge"><title>Node2&#45;&gt;Node3</title>
<path fill="none" stroke="midnightblue" d="M256.118,-246.022C201.5,-239.691 124.961,-226.75 107,-204 93.1415,-186.446 103.221,-158.476 113.556,-143.416"/>
<polygon fill="midnightblue" stroke="midnightblue" points="256.058,-249.537 266.383,-247.164 256.832,-242.58 256.058,-249.537"/>
</g>
<!-- Node4 -->
<g id="node9" class="node"><title>Node4</title>
<a xlink:href="buffer_8h.html" target="_top" xlink:title="include/fa/buffer.h">
<polygon fill="none" stroke="red" points="31.2268,-60.6953 31.2268,-83.3047 142.773,-83.3047 142.773,-60.6953 31.2268,-60.6953"/>
<text text-anchor="middle" x="87" y="-68.3047" font-family="Futura" font-size="11.00">include/fa/buffer.h</text>
</a>
</g>
<!-- Node2&#45;&gt;Node4 -->
<g id="edge10" class="edge"><title>Node2&#45;&gt;Node4</title>
<path fill="none" stroke="midnightblue" d="M256.804,-248.557C212.742,-244.327 151.479,-233.15 106,-204 77.7104,-185.868 70.7944,-175.821 60,-144 52.6286,-122.27 67.751,-97.2789 78.1951,-83.4986"/>
<polygon fill="midnightblue" stroke="midnightblue" points="256.506,-252.044 266.772,-249.424 257.113,-245.07 256.506,-252.044"/>
</g>
<!-- Node5 -->
<g id="node11" class="node"><title>Node5</title>
<a xlink:href="io_8h.html" target="_top" xlink:title="include/fa/io.h">
<polygon fill="none" stroke="black" points="-0.815186,-0.695312 -0.815186,-23.3047 90.8152,-23.3047 90.8152,-0.695312 -0.815186,-0.695312"/>
<text text-anchor="middle" x="45" y="-8.30469" font-family="Futura" font-size="11.00">include/fa/io.h</text>
</a>
</g>
<!-- Node2&#45;&gt;Node5 -->
<g id="edge22" class="edge"><title>Node2&#45;&gt;Node5</title>
<path fill="none" stroke="midnightblue" d="M256.871,-245.989C195.308,-239.469 101.571,-226.206 74,-204 28.7314,-167.54 33.8014,-140.915 22,-84 19.8343,-73.5555 19.5937,-70.3917 22,-60 25.115,-46.5477 32.6394,-32.5007 38.2388,-23.3076"/>
<polygon fill="midnightblue" stroke="midnightblue" points="256.53,-249.473 266.836,-247.016 257.247,-242.509 256.53,-249.473"/>
</g>
<!-- Node6 -->
<g id="node13" class="node"><title>Node6</title>
<a xlink:href="clock_8h.html" target="_top" xlink:title="include/fa/clock.h">
<polygon fill="none" stroke="red" points="124.978,-180.695 124.978,-203.305 233.022,-203.305 233.022,-180.695 124.978,-180.695"/>
<text text-anchor="middle" x="179" y="-188.305" font-family="Futura" font-size="11.00">include/fa/clock.h</text>
</a>
</g>
<!-- Node2&#45;&gt;Node6 -->
<g id="edge14" class="edge"><title>Node2&#45;&gt;Node6</title>
<path fill="none" stroke="midnightblue" d="M279.71,-236.591C255.966,-226.314 224.582,-212.73 203.201,-203.475"/>
<polygon fill="midnightblue" stroke="midnightblue" points="278.476,-239.871 289.043,-240.631 281.257,-233.446 278.476,-239.871"/>
</g>
<!-- Node7 -->
<g id="node15" class="node"><title>Node7</title>
<a xlink:href="dynamic_8h.html" target="_top" xlink:title="include/fa/dynamic.h">
<polygon fill="none" stroke="black" points="250.918,-180.695 250.918,-203.305 375.082,-203.305 375.082,-180.695 250.918,-180.695"/>
<text text-anchor="middle" x="313" y="-188.305" font-family="Futura" font-size="11.00">include/fa/dynamic.h</text>
</a>
</g>
<!-- Node2&#45;&gt;Node7 -->
<g id="edge16" class="edge"><title>Node2&#45;&gt;Node7</title>
<path fill="none" stroke="midnightblue" d="M313,-230.459C313,-221.411 313,-211.16 313,-203.672"/>
<polygon fill="midnightblue" stroke="midnightblue" points="309.5,-230.631 313,-240.631 316.5,-230.631 309.5,-230.631"/>
</g>
<!-- Node8 -->
<g id="node17" class="node"><title>Node8</title>
<a xlink:href="error_8h.html" target="_top" xlink:title="include/fa/error.h">
<polygon fill="none" stroke="red" points="392.598,-180.695 392.598,-203.305 499.402,-203.305 499.402,-180.695 392.598,-180.695"/>
<text text-anchor="middle" x="446" y="-188.305" font-family="Futura" font-size="11.00">include/fa/error.h</text>
</a>
</g>
<!-- Node2&#45;&gt;Node8 -->
<g id="edge18" class="edge"><title>Node2&#45;&gt;Node8</title>
<path fill="none" stroke="midnightblue" d="M340.713,-236.316C362.97,-226.072 393.963,-212.647 416.645,-203.475"/>
<polygon fill="midnightblue" stroke="midnightblue" points="339.045,-233.232 331.462,-240.631 342.004,-239.576 339.045,-233.232"/>
</g>
<!-- Node9 -->
<g id="node21" class="node"><title>Node9</title>
<a xlink:href="list_8h.html" target="_top" xlink:title="include/fa/list.h">
<polygon fill="none" stroke="red" points="517.385,-180.695 517.385,-203.305 612.615,-203.305 612.615,-180.695 517.385,-180.695"/>
<text text-anchor="middle" x="565" y="-188.305" font-family="Futura" font-size="11.00">include/fa/list.h</text>
</a>
</g>
<!-- Node2&#45;&gt;Node9 -->
<g id="edge24" class="edge"><title>Node2&#45;&gt;Node9</title>
<path fill="none" stroke="midnightblue" d="M362.542,-238.286C407.399,-227.605 472.921,-212.562 517.228,-202.796"/>
<polygon fill="midnightblue" stroke="midnightblue" points="361.649,-234.901 352.737,-240.631 363.276,-241.709 361.649,-234.901"/>
</g>
<!-- Node10 -->
<g id="node25" class="node"><title>Node10</title>
<a xlink:href="map_8h.html" target="_top" xlink:title="include/fa/map.h">
<polygon fill="none" stroke="red" points="512.914,-120.695 512.914,-143.305 617.086,-143.305 617.086,-120.695 512.914,-120.695"/>
<text text-anchor="middle" x="565" y="-128.305" font-family="Futura" font-size="11.00">include/fa/map.h</text>
</a>
</g>
<!-- Node2&#45;&gt;Node10 -->
<g id="edge34" class="edge"><title>Node2&#45;&gt;Node10</title>
<path fill="none" stroke="midnightblue" d="M369.717,-250.801C449.646,-249.177 589.251,-240.962 621,-204 639.004,-183.04 605.784,-157.342 583.263,-143.327"/>
<polygon fill="midnightblue" stroke="midnightblue" points="369.265,-247.308 359.327,-250.982 369.387,-254.307 369.265,-247.308"/>
</g>
<!-- Node3&#45;&gt;Node2 -->
<g id="edge6" class="edge"><title>Node3&#45;&gt;Node2</title>
<path fill="none" stroke="midnightblue" d="M122.569,-153.095C118.283,-168.599 113.74,-189.738 125,-204 142.648,-226.354 216.849,-239.237 266.681,-245.685"/>
<polygon fill="midnightblue" stroke="midnightblue" points="125.953,-153.991 125.299,-143.416 119.216,-152.091 125.953,-153.991"/>
</g>
<!-- Node4&#45;&gt;Node5 -->
<g id="edge12" class="edge"><title>Node4&#45;&gt;Node5</title>
<path fill="none" stroke="midnightblue" d="M73.6203,-52.5233C66.7275,-43.0047 58.5676,-31.7362 52.7279,-23.6719"/>
<polygon fill="midnightblue" stroke="midnightblue" points="70.7913,-54.5841 79.4912,-60.6308 76.4609,-50.4785 70.7913,-54.5841"/>
</g>
<!-- Node8&#45;&gt;Node2 -->
<g id="edge20" class="edge"><title>Node8&#45;&gt;Node2</title>
<path fill="none" stroke="midnightblue" d="M418.029,-207.802C395.706,-218.071 364.711,-231.491 342.094,-240.631"/>
<polygon fill="midnightblue" stroke="midnightblue" points="419.729,-210.872 427.315,-203.475 416.772,-204.527 419.729,-210.872"/>
</g>
<!-- Node9&#45;&gt;Node2 -->
<g id="edge28" class="edge"><title>Node9&#45;&gt;Node2</title>
<path fill="none" stroke="midnightblue" d="M515.532,-205.696C470.136,-216.506 403.53,-231.794 359.19,-241.552"/>
<polygon fill="midnightblue" stroke="midnightblue" points="516.538,-209.054 525.449,-203.325 514.909,-202.246 516.538,-209.054"/>
</g>
<!-- Node9&#45;&gt;Node3 -->
<g id="edge26" class="edge"><title>Node9&#45;&gt;Node3</title>
<path fill="none" stroke="midnightblue" d="M507.254,-179.966C385.219,-160.97 254.158,-146.32 181.306,-138.688"/>
<polygon fill="midnightblue" stroke="midnightblue" points="506.726,-183.426 517.148,-181.519 507.812,-176.51 506.726,-183.426"/>
</g>
<!-- Node9&#45;&gt;Node10 -->
<g id="edge30" class="edge"><title>Node9&#45;&gt;Node10</title>
<path fill="none" stroke="midnightblue" d="M565,-170.459C565,-161.411 565,-151.16 565,-143.672"/>
<polygon fill="midnightblue" stroke="midnightblue" points="561.5,-170.631 565,-180.631 568.5,-170.631 561.5,-170.631"/>
</g>
<!-- Node10&#45;&gt;Node4 -->
<g id="edge32" class="edge"><title>Node10&#45;&gt;Node4</title>
<path fill="none" stroke="midnightblue" d="M502.271,-123.388C408.362,-111.994 232.694,-90.6784 142.925,-79.7859"/>
<polygon fill="midnightblue" stroke="midnightblue" points="502.129,-126.897 512.478,-124.627 502.973,-119.948 502.129,-126.897"/>
</g>
</g>
</svg>
