<?xml version="1.0" encoding="UTF-8" standalone="no"?>
<!DOCTYPE svg PUBLIC "-//W3C//DTD SVG 1.1//EN"
 "http://www.w3.org/Graphics/SVG/1.1/DTD/svg11.dtd">
<!-- Generated by graphviz version 2.28.0 (20121015.0031)
 -->
<!-- Title: include/fa/audio/session.h Pages: 1 -->
<svg width="406pt" height="332pt"
 viewBox="0.00 0.00 405.82 332.00" xmlns="http://www.w3.org/2000/svg" xmlns:xlink="http://www.w3.org/1999/xlink">
<g id="graph1" class="graph" transform="scale(1 1) rotate(0) translate(4 328)">
<title>include/fa/audio/session.h</title>
<!-- Node1 -->
<g id="node1" class="node"><title>Node1</title>
<polygon fill="#bfbfbf" stroke="black" points="226.158,-300.695 226.158,-323.305 377.531,-323.305 377.531,-300.695 226.158,-300.695"/>
<text text-anchor="middle" x="301.844" y="-308.305" font-family="Futura" font-size="11.00">include/fa/audio/session.h</text>
</g>
<!-- Node2 -->
<g id="node3" class="node"><title>Node2</title>
<a xlink:href="action_8h.html" target="_top" xlink:title="fa/action.h">
<polygon fill="none" stroke="black" points="92.1538,-240.695 92.1538,-263.305 163.535,-263.305 163.535,-240.695 92.1538,-240.695"/>
<text text-anchor="middle" x="127.844" y="-248.305" font-family="Futura" font-size="11.00">fa/action.h</text>
</a>
</g>
<!-- Node1&#45;&gt;Node2 -->
<g id="edge2" class="edge"><title>Node1&#45;&gt;Node2</title>
<path fill="none" stroke="midnightblue" d="M270.737,-300.631C242.247,-291.134 199.889,-277.015 168.684,-266.613"/>
<polygon fill="midnightblue" stroke="midnightblue" points="169.569,-263.219 158.976,-263.377 167.356,-269.86 169.569,-263.219"/>
</g>
<!-- Node4 -->
<g id="node7" class="node"><title>Node4</title>
<a xlink:href="error_8h.html" target="_top" xlink:title="fa/error.h">
<polygon fill="none" stroke="red" points="262.006,-120.695 262.006,-143.305 327.683,-143.305 327.683,-120.695 262.006,-120.695"/>
<text text-anchor="middle" x="294.844" y="-128.305" font-family="Futura" font-size="11.00">fa/error.h</text>
</a>
</g>
<!-- Node1&#45;&gt;Node4 -->
<g id="edge50" class="edge"><title>Node1&#45;&gt;Node4</title>
<path fill="none" stroke="midnightblue" d="M298.702,-300.667C296.005,-291.224 292.325,-276.82 290.844,-264 286.366,-225.211 289.689,-179.561 292.367,-153.678"/>
<polygon fill="midnightblue" stroke="midnightblue" points="295.864,-153.896 293.486,-143.572 288.906,-153.126 295.864,-153.896"/>
</g>
<!-- Node7 -->
<g id="node17" class="node"><title>Node7</title>
<a xlink:href="time_8h.html" target="_top" xlink:title="fa/time.h">
<polygon fill="none" stroke="red" points="206.001,-60.6953 206.001,-83.3047 267.688,-83.3047 267.688,-60.6953 206.001,-60.6953"/>
<text text-anchor="middle" x="236.844" y="-68.3047" font-family="Futura" font-size="11.00">fa/time.h</text>
</a>
</g>
<!-- Node1&#45;&gt;Node7 -->
<g id="edge42" class="edge"><title>Node1&#45;&gt;Node7</title>
<path fill="none" stroke="midnightblue" d="M330.669,-300.552C346.783,-293.053 365.461,-281.202 374.844,-264 394.343,-228.255 422.982,-205.317 353.844,-120 335.168,-96.9536 303.481,-85.1365 277.789,-79.1181"/>
<polygon fill="midnightblue" stroke="midnightblue" points="278.43,-75.676 267.92,-77.0152 276.971,-82.5224 278.43,-75.676"/>
</g>
<!-- Node10 -->
<g id="node32" class="node"><title>Node10</title>
<a xlink:href="clock_8h.html" target="_top" xlink:title="fa/clock.h">
<polygon fill="none" stroke="black" points="299.385,-240.695 299.385,-263.305 366.303,-263.305 366.303,-240.695 299.385,-240.695"/>
<text text-anchor="middle" x="332.844" y="-248.305" font-family="Futura" font-size="11.00">fa/clock.h</text>
</a>
</g>
<!-- Node1&#45;&gt;Node10 -->
<g id="edge44" class="edge"><title>Node1&#45;&gt;Node10</title>
<path fill="none" stroke="midnightblue" d="M307.387,-300.631C311.523,-292.892 317.3,-282.084 322.305,-272.719"/>
<polygon fill="midnightblue" stroke="midnightblue" points="325.513,-274.141 327.141,-263.672 319.34,-270.841 325.513,-274.141"/>
</g>
<!-- Node3 -->
<g id="node5" class="node"><title>Node3</title>
<a xlink:href="fa_2fa_8h.html" target="_top" xlink:title="fa.h">
<polygon fill="none" stroke="red" points="151.117,-180.695 151.117,-203.305 186.572,-203.305 186.572,-180.695 151.117,-180.695"/>
<text text-anchor="middle" x="168.844" y="-188.305" font-family="Futura" font-size="11.00">fa.h</text>
</a>
</g>
<!-- Node2&#45;&gt;Node3 -->
<g id="edge4" class="edge"><title>Node2&#45;&gt;Node3</title>
<path fill="none" stroke="midnightblue" d="M129.859,-240.631C134.094,-232.566 141.809,-221.168 149.392,-211.544"/>
<polygon fill="midnightblue" stroke="midnightblue" points="152.233,-213.601 155.931,-203.672 146.849,-209.128 152.233,-213.601"/>
</g>
<!-- Node5 -->
<g id="node10" class="node"><title>Node5</title>
<a xlink:href="pair_8h.html" target="_top" xlink:title="fa/pair.h">
<polygon fill="none" stroke="black" points="71.5383,-60.6953 71.5383,-83.3047 132.151,-83.3047 132.151,-60.6953 71.5383,-60.6953"/>
<text text-anchor="middle" x="101.844" y="-68.3047" font-family="Futura" font-size="11.00">fa/pair.h</text>
</a>
</g>
<!-- Node2&#45;&gt;Node5 -->
<g id="edge36" class="edge"><title>Node2&#45;&gt;Node5</title>
<path fill="none" stroke="midnightblue" d="M109.091,-240.482C81.8796,-224.005 32.552,-189.255 12.8445,-144 8.58571,-134.22 7.33783,-129.135 12.8445,-120 23.5495,-102.241 43.4549,-90.8466 61.7303,-83.7328"/>
<polygon fill="midnightblue" stroke="midnightblue" points="63.1183,-86.9538 71.363,-80.2998 60.7683,-80.36 63.1183,-86.9538"/>
</g>
<!-- Node6 -->
<g id="node13" class="node"><title>Node6</title>
<a xlink:href="list_8h.html" target="_top" xlink:title="fa/list.h">
<polygon fill="none" stroke="black" points="103.793,-0.695312 103.793,-23.3047 157.896,-23.3047 157.896,-0.695312 103.793,-0.695312"/>
<text text-anchor="middle" x="130.844" y="-8.30469" font-family="Futura" font-size="11.00">fa/list.h</text>
</a>
</g>
<!-- Node2&#45;&gt;Node6 -->
<g id="edge38" class="edge"><title>Node2&#45;&gt;Node6</title>
<path fill="none" stroke="midnightblue" d="M94.4208,-240.577C74.7395,-233.034 50.5158,-221.128 33.8445,-204 6.39633,-175.8 -8.74794,-156.547 5.84448,-120 23.0278,-76.9638 68.6258,-45.5047 99.728,-28.2312"/>
<polygon fill="midnightblue" stroke="midnightblue" points="101.71,-31.14 108.867,-23.3287 98.4008,-24.9714 101.71,-31.14"/>
</g>
<!-- Node9 -->
<g id="node23" class="node"><title>Node9</title>
<a xlink:href="signal_8h.html" target="_top" xlink:title="signal.h">
<polygon fill="none" stroke="red" points="21.5542,-120.695 21.5542,-143.305 76.1348,-143.305 76.1348,-120.695 21.5542,-120.695"/>
<text text-anchor="middle" x="48.8445" y="-128.305" font-family="Futura" font-size="11.00">signal.h</text>
</a>
</g>
<!-- Node2&#45;&gt;Node9 -->
<g id="edge40" class="edge"><title>Node2&#45;&gt;Node9</title>
<path fill="none" stroke="midnightblue" d="M120.834,-240.528C107.515,-220.635 78.3864,-177.126 61.5484,-151.975"/>
<polygon fill="midnightblue" stroke="midnightblue" points="64.4247,-149.98 55.9531,-143.618 58.608,-153.875 64.4247,-149.98"/>
</g>
<!-- Node3&#45;&gt;Node2 -->
<g id="edge26" class="edge"><title>Node3&#45;&gt;Node2</title>
<path fill="none" stroke="midnightblue" d="M166.671,-203.672C162.349,-211.819 154.593,-223.235 147.014,-232.814"/>
<polygon fill="midnightblue" stroke="midnightblue" points="144.211,-230.711 140.49,-240.631 149.585,-235.196 144.211,-230.711"/>
</g>
<!-- Node3&#45;&gt;Node4 -->
<g id="edge6" class="edge"><title>Node3&#45;&gt;Node4</title>
<path fill="none" stroke="midnightblue" d="M186.055,-180.631C204.413,-171.409 233.706,-157.829 257.347,-147.527"/>
<polygon fill="midnightblue" stroke="midnightblue" points="258.954,-150.646 266.753,-143.475 256.185,-144.217 258.954,-150.646"/>
</g>
<!-- Node3&#45;&gt;Node5 -->
<g id="edge10" class="edge"><title>Node3&#45;&gt;Node5</title>
<path fill="none" stroke="midnightblue" d="M158.852,-180.528C144.544,-160.897 119.95,-118.267 107.974,-92.9777"/>
<polygon fill="midnightblue" stroke="midnightblue" points="111.071,-91.327 103.803,-83.6179 104.677,-94.1766 111.071,-91.327"/>
</g>
<!-- Node3&#45;&gt;Node6 -->
<g id="edge18" class="edge"><title>Node3&#45;&gt;Node6</title>
<path fill="none" stroke="midnightblue" d="M163.261,-180.661C153.099,-152.15 135.605,-72.0012 130.755,-33.78"/>
<polygon fill="midnightblue" stroke="midnightblue" points="134.189,-32.9547 129.678,-23.368 127.226,-33.6751 134.189,-32.9547"/>
</g>
<!-- Node3&#45;&gt;Node7 -->
<g id="edge20" class="edge"><title>Node3&#45;&gt;Node7</title>
<path fill="none" stroke="midnightblue" d="M170.832,-180.528C179.093,-160.635 203.81,-117.126 220.793,-91.9754"/>
<polygon fill="midnightblue" stroke="midnightblue" points="223.778,-93.8146 226.655,-83.6179 218.047,-89.7948 223.778,-93.8146"/>
</g>
<!-- Node3&#45;&gt;Node9 -->
<g id="edge28" class="edge"><title>Node3&#45;&gt;Node9</title>
<path fill="none" stroke="midnightblue" d="M151.111,-184.571C130.557,-175.81 97.0239,-159.854 73.8866,-148.002"/>
<polygon fill="midnightblue" stroke="midnightblue" points="75.4629,-144.876 64.9763,-143.366 72.2322,-151.086 75.4629,-144.876"/>
</g>
<!-- Node4&#45;&gt;Node3 -->
<g id="edge8" class="edge"><title>Node4&#45;&gt;Node3</title>
<path fill="none" stroke="midnightblue" d="M277.459,-143.457C256.358,-154.048 220.986,-170.323 196.252,-180.815"/>
<polygon fill="midnightblue" stroke="midnightblue" points="194.585,-177.718 186.699,-184.793 197.276,-184.18 194.585,-177.718"/>
</g>
<!-- Node5&#45;&gt;Node3 -->
<g id="edge12" class="edge"><title>Node5&#45;&gt;Node3</title>
<path fill="none" stroke="midnightblue" d="M111.944,-83.6179C126.302,-103.363 150.89,-146.007 162.803,-171.21"/>
<polygon fill="midnightblue" stroke="midnightblue" points="159.685,-172.812 166.946,-180.528 166.082,-169.969 159.685,-172.812"/>
</g>
<!-- Node5&#45;&gt;Node6 -->
<g id="edge14" class="edge"><title>Node5&#45;&gt;Node6</title>
<path fill="none" stroke="midnightblue" d="M107.029,-60.6308C110.898,-52.8921 116.302,-42.0841 120.985,-32.7193"/>
<polygon fill="midnightblue" stroke="midnightblue" points="124.167,-34.1814 125.509,-23.6719 117.906,-31.0509 124.167,-34.1814"/>
</g>
<!-- Node6&#45;&gt;Node3 -->
<g id="edge16" class="edge"><title>Node6&#45;&gt;Node3</title>
<path fill="none" stroke="midnightblue" d="M136.438,-23.368C146.605,-51.9131 164.097,-132.065 168.939,-170.258"/>
<polygon fill="midnightblue" stroke="midnightblue" points="165.504,-171.073 170.013,-180.661 172.467,-170.354 165.504,-171.073"/>
</g>
<!-- Node7&#45;&gt;Node3 -->
<g id="edge22" class="edge"><title>Node7&#45;&gt;Node3</title>
<path fill="none" stroke="midnightblue" d="M234.796,-83.6179C226.455,-103.626 201.717,-147.148 184.772,-172.208"/>
<polygon fill="midnightblue" stroke="midnightblue" points="181.811,-170.334 178.926,-180.528 187.539,-174.358 181.811,-170.334"/>
</g>
<!-- Node8 -->
<g id="node20" class="node"><title>Node8</title>
<a xlink:href="ratio_8h.html" target="_top" xlink:title="fa/ratio.h">
<polygon fill="none" stroke="red" points="204.771,-0.695312 204.771,-23.3047 268.918,-23.3047 268.918,-0.695312 204.771,-0.695312"/>
<text text-anchor="middle" x="236.844" y="-8.30469" font-family="Futura" font-size="11.00">fa/ratio.h</text>
</a>
</g>
<!-- Node7&#45;&gt;Node8 -->
<g id="edge24" class="edge"><title>Node7&#45;&gt;Node8</title>
<path fill="none" stroke="midnightblue" d="M236.844,-60.6308C236.844,-53.218 236.844,-42.9888 236.844,-33.9096"/>
<polygon fill="midnightblue" stroke="midnightblue" points="240.345,-33.6718 236.844,-23.6719 233.345,-33.6719 240.345,-33.6718"/>
</g>
<!-- Node9&#45;&gt;Node3 -->
<g id="edge30" class="edge"><title>Node9&#45;&gt;Node3</title>
<path fill="none" stroke="midnightblue" d="M75.8519,-143.475C96.2007,-152.524 123.71,-165.712 143.612,-175.901"/>
<polygon fill="midnightblue" stroke="midnightblue" points="142.22,-179.122 152.707,-180.631 145.45,-172.911 142.22,-179.122"/>
</g>
<!-- Node9&#45;&gt;Node5 -->
<g id="edge32" class="edge"><title>Node9&#45;&gt;Node5</title>
<path fill="none" stroke="midnightblue" d="M58.3198,-120.631C65.7635,-112.485 76.3151,-100.938 85.1647,-91.2533"/>
<polygon fill="midnightblue" stroke="midnightblue" points="87.9306,-93.415 92.0926,-83.6719 82.7631,-88.693 87.9306,-93.415"/>
</g>
<!-- Node9&#45;&gt;Node7 -->
<g id="edge34" class="edge"><title>Node9&#45;&gt;Node7</title>
<path fill="none" stroke="midnightblue" d="M76.1813,-122.566C107.645,-112.86 159.637,-96.8192 195.927,-85.6235"/>
<polygon fill="midnightblue" stroke="midnightblue" points="197.192,-88.896 205.716,-82.6034 195.129,-82.2071 197.192,-88.896"/>
</g>
<!-- Node10&#45;&gt;Node3 -->
<g id="edge46" class="edge"><title>Node10&#45;&gt;Node3</title>
<path fill="none" stroke="midnightblue" d="M303.525,-240.631C273.195,-229.905 226.193,-213.282 196.494,-202.778"/>
<polygon fill="midnightblue" stroke="midnightblue" points="197.361,-199.373 186.766,-199.338 195.027,-205.972 197.361,-199.373"/>
</g>
<!-- Node10&#45;&gt;Node7 -->
<g id="edge48" class="edge"><title>Node10&#45;&gt;Node7</title>
<path fill="none" stroke="midnightblue" d="M336.703,-240.457C344.651,-216.781 360.158,-158.457 335.844,-120 323.03,-99.7308 298.836,-88.0276 277.574,-81.3688"/>
<polygon fill="midnightblue" stroke="midnightblue" points="278.326,-77.9438 267.75,-78.5707 276.409,-84.6761 278.326,-77.9438"/>
</g>
</g>
</svg>
