<?xml version="1.0" encoding="UTF-8" standalone="no"?>
<!DOCTYPE svg PUBLIC "-//W3C//DTD SVG 1.1//EN"
 "http://www.w3.org/Graphics/SVG/1.1/DTD/svg11.dtd">
<!-- Generated by graphviz version 2.28.0 (20121015.0031)
 -->
<!-- Title: include/fa/atomic/ring_buffer.h Pages: 1 -->
<svg width="1068pt" height="226pt"
 viewBox="0.00 0.00 1068.00 226.00" xmlns="http://www.w3.org/2000/svg" xmlns:xlink="http://www.w3.org/1999/xlink">
<g id="graph1" class="graph" transform="scale(1 1) rotate(0) translate(4 222)">
<title>include/fa/atomic/ring_buffer.h</title>
<!-- Node1 -->
<g id="node1" class="node"><title>Node1</title>
<polygon fill="#bfbfbf" stroke="black" points="346.419,-180.391 346.419,-217.609 477.581,-217.609 477.581,-180.391 346.419,-180.391"/>
<text text-anchor="start" x="354.419" y="-202.609" font-family="Futura" font-size="11.00">include/fa/atomic/ring</text>
<text text-anchor="middle" x="412" y="-188" font-family="Futura" font-size="11.00">_buffer.h</text>
</g>
<!-- Node2 -->
<g id="node3" class="node"><title>Node2</title>
<a xlink:href="fa_2fa_8h.html" target="_top" xlink:title="include/fa/fa.h">
<polygon fill="none" stroke="red" points="101.846,-120.695 101.846,-143.305 194.154,-143.305 194.154,-120.695 101.846,-120.695"/>
<text text-anchor="middle" x="148" y="-128.305" font-family="Futura" font-size="11.00">include/fa/fa.h</text>
</a>
</g>
<!-- Node1&#45;&gt;Node2 -->
<g id="edge2" class="edge"><title>Node1&#45;&gt;Node2</title>
<path fill="none" stroke="midnightblue" d="M336.462,-179.402C288.967,-167.708 229.456,-153.055 190.16,-143.38"/>
<polygon fill="midnightblue" stroke="midnightblue" points="335.856,-182.857 346.402,-181.849 337.529,-176.06 335.856,-182.857"/>
</g>
<!-- Node4 -->
<g id="node8" class="node"><title>Node4</title>
<a xlink:href="io_8h.html" target="_top" xlink:title="include/fa/io.h">
<polygon fill="none" stroke="black" points="185.185,-60.6953 185.185,-83.3047 276.815,-83.3047 276.815,-60.6953 185.185,-60.6953"/>
<text text-anchor="middle" x="231" y="-68.3047" font-family="Futura" font-size="11.00">include/fa/io.h</text>
</a>
</g>
<!-- Node1&#45;&gt;Node4 -->
<g id="edge16" class="edge"><title>Node1&#45;&gt;Node4</title>
<path fill="none" stroke="midnightblue" d="M336.28,-192.11C302.245,-185.461 264.524,-171.792 241,-144 226.524,-126.898 227.461,-98.7441 229.293,-83.5353"/>
<polygon fill="midnightblue" stroke="midnightblue" points="335.776,-195.575 346.234,-193.881 337.002,-188.684 335.776,-195.575"/>
</g>
<!-- Node5 -->
<g id="node10" class="node"><title>Node5</title>
<a xlink:href="signal_8h.html" target="_top" xlink:title="include/fa/signal.h">
<polygon fill="none" stroke="red" points="-0.716797,-60.6953 -0.716797,-83.3047 110.717,-83.3047 110.717,-60.6953 -0.716797,-60.6953"/>
<text text-anchor="middle" x="55" y="-68.3047" font-family="Futura" font-size="11.00">include/fa/signal.h</text>
</a>
</g>
<!-- Node1&#45;&gt;Node5 -->
<g id="edge28" class="edge"><title>Node1&#45;&gt;Node5</title>
<path fill="none" stroke="midnightblue" d="M336.04,-192.812C254.311,-185.914 130.935,-171.285 93,-144 72.2297,-129.061 61.7364,-99.1989 57.4408,-83.383"/>
<polygon fill="midnightblue" stroke="midnightblue" points="336.035,-196.323 346.289,-193.655 336.609,-189.347 336.035,-196.323"/>
</g>
<!-- Node6 -->
<g id="node15" class="node"><title>Node6</title>
<a xlink:href="analysis_8h.html" target="_top" xlink:title="include/fa/signal/analysis.h">
<polygon fill="none" stroke="black" points="249.582,-120.695 249.582,-143.305 406.418,-143.305 406.418,-120.695 249.582,-120.695"/>
<text text-anchor="middle" x="328" y="-128.305" font-family="Futura" font-size="11.00">include/fa/signal/analysis.h</text>
</a>
</g>
<!-- Node1&#45;&gt;Node6 -->
<g id="edge18" class="edge"><title>Node1&#45;&gt;Node6</title>
<path fill="none" stroke="midnightblue" d="M380.915,-173.946C367.432,-163.512 352.336,-151.831 341.73,-143.624"/>
<polygon fill="midnightblue" stroke="midnightblue" points="378.996,-176.887 389.047,-180.238 383.28,-171.351 378.996,-176.887"/>
</g>
<!-- Node7 -->
<g id="node17" class="node"><title>Node7</title>
<a xlink:href="basic_8h.html" target="_top" xlink:title="include/fa/signal/basic.h">
<polygon fill="none" stroke="black" points="424.616,-120.695 424.616,-143.305 567.384,-143.305 567.384,-120.695 424.616,-120.695"/>
<text text-anchor="middle" x="496" y="-128.305" font-family="Futura" font-size="11.00">include/fa/signal/basic.h</text>
</a>
</g>
<!-- Node1&#45;&gt;Node7 -->
<g id="edge20" class="edge"><title>Node1&#45;&gt;Node7</title>
<path fill="none" stroke="midnightblue" d="M443.085,-173.946C456.568,-163.512 471.664,-151.831 482.27,-143.624"/>
<polygon fill="midnightblue" stroke="midnightblue" points="440.72,-171.351 434.953,-180.238 445.004,-176.887 440.72,-171.351"/>
</g>
<!-- Node8 -->
<g id="node19" class="node"><title>Node8</title>
<a xlink:href="external_8h.html" target="_top" xlink:title="include/fa/signal/external.h">
<polygon fill="none" stroke="black" points="585.008,-120.695 585.008,-143.305 742.992,-143.305 742.992,-120.695 585.008,-120.695"/>
<text text-anchor="middle" x="664" y="-128.305" font-family="Futura" font-size="11.00">include/fa/signal/external.h</text>
</a>
</g>
<!-- Node1&#45;&gt;Node8 -->
<g id="edge22" class="edge"><title>Node1&#45;&gt;Node8</title>
<path fill="none" stroke="midnightblue" d="M487.829,-178.441C532.489,-166.921 587.2,-152.81 623.689,-143.398"/>
<polygon fill="midnightblue" stroke="midnightblue" points="486.69,-175.12 477.881,-181.007 488.438,-181.898 486.69,-175.12"/>
</g>
<!-- Node9 -->
<g id="node21" class="node"><title>Node9</title>
<a xlink:href="filter_8h.html" target="_top" xlink:title="include/fa/signal/filter.h">
<polygon fill="none" stroke="black" points="760.786,-120.695 760.786,-143.305 899.214,-143.305 899.214,-120.695 760.786,-120.695"/>
<text text-anchor="middle" x="830" y="-128.305" font-family="Futura" font-size="11.00">include/fa/signal/filter.h</text>
</a>
</g>
<!-- Node1&#45;&gt;Node9 -->
<g id="edge24" class="edge"><title>Node1&#45;&gt;Node9</title>
<path fill="none" stroke="midnightblue" d="M488.11,-186.165C566.854,-173.92 688.603,-154.988 763.576,-143.329"/>
<polygon fill="midnightblue" stroke="midnightblue" points="487.116,-182.777 477.772,-187.772 488.191,-189.694 487.116,-182.777"/>
</g>
<!-- Node10 -->
<g id="node23" class="node"><title>Node10</title>
<a xlink:href="synth_8h.html" target="_top" xlink:title="include/fa/signal/synth.h">
<polygon fill="none" stroke="black" points="917.567,-120.695 917.567,-143.305 1060.43,-143.305 1060.43,-120.695 917.567,-120.695"/>
<text text-anchor="middle" x="989" y="-128.305" font-family="Futura" font-size="11.00">include/fa/signal/synth.h</text>
</a>
</g>
<!-- Node1&#45;&gt;Node10 -->
<g id="edge26" class="edge"><title>Node1&#45;&gt;Node10</title>
<path fill="none" stroke="midnightblue" d="M487.899,-190.369C585.273,-180.433 759.358,-162.181 908,-144 911.099,-143.621 914.264,-143.226 917.46,-142.82"/>
<polygon fill="midnightblue" stroke="midnightblue" points="487.448,-186.897 477.854,-191.392 488.157,-193.86 487.448,-186.897"/>
</g>
<!-- Node3 -->
<g id="node5" class="node"><title>Node3</title>
<a xlink:href="action_8h.html" target="_top" xlink:title="include/fa/action.h">
<polygon fill="none" stroke="red" points="91.7461,-0.695312 91.7461,-23.3047 204.254,-23.3047 204.254,-0.695312 91.7461,-0.695312"/>
<text text-anchor="middle" x="148" y="-8.30469" font-family="Futura" font-size="11.00">include/fa/action.h</text>
</a>
</g>
<!-- Node2&#45;&gt;Node3 -->
<g id="edge4" class="edge"><title>Node2&#45;&gt;Node3</title>
<path fill="none" stroke="midnightblue" d="M142.741,-110.534C140.414,-85.2504 140.811,-43.1873 143.93,-23.6179"/>
<polygon fill="midnightblue" stroke="midnightblue" points="139.275,-111.022 143.953,-120.528 146.224,-110.18 139.275,-111.022"/>
</g>
<!-- Node2&#45;&gt;Node4 -->
<g id="edge8" class="edge"><title>Node2&#45;&gt;Node4</title>
<path fill="none" stroke="midnightblue" d="M171.214,-114.778C185.553,-104.758 203.531,-92.1949 216.01,-83.475"/>
<polygon fill="midnightblue" stroke="midnightblue" points="169.031,-112.034 162.839,-120.631 173.041,-117.772 169.031,-112.034"/>
</g>
<!-- Node2&#45;&gt;Node5 -->
<g id="edge10" class="edge"><title>Node2&#45;&gt;Node5</title>
<path fill="none" stroke="midnightblue" d="M117.304,-115.622C99.8863,-105.472 79.2267,-92.4417 66.4612,-83.475"/>
<polygon fill="midnightblue" stroke="midnightblue" points="115.64,-118.703 126.058,-120.631 119.116,-112.627 115.64,-118.703"/>
</g>
<!-- Node3&#45;&gt;Node2 -->
<g id="edge6" class="edge"><title>Node3&#45;&gt;Node2</title>
<path fill="none" stroke="midnightblue" d="M153.276,-33.6561C155.589,-59.0228 155.18,-101.071 152.047,-120.528"/>
<polygon fill="midnightblue" stroke="midnightblue" points="156.738,-33.129 152.07,-23.6179 149.788,-33.964 156.738,-33.129"/>
</g>
<!-- Node5&#45;&gt;Node2 -->
<g id="edge14" class="edge"><title>Node5&#45;&gt;Node2</title>
<path fill="none" stroke="midnightblue" d="M85.9022,-88.4977C103.345,-98.6702 123.986,-111.696 136.689,-120.631"/>
<polygon fill="midnightblue" stroke="midnightblue" points="87.5483,-85.4071 77.1311,-83.475 84.0698,-91.4817 87.5483,-85.4071"/>
</g>
<!-- Node5&#45;&gt;Node3 -->
<g id="edge12" class="edge"><title>Node5&#45;&gt;Node3</title>
<path fill="none" stroke="midnightblue" d="M80.5577,-55.0608C96.6966,-44.9957 117.09,-32.2772 131.204,-23.475"/>
<polygon fill="midnightblue" stroke="midnightblue" points="78.2595,-52.3691 71.6265,-60.6308 81.9638,-58.3087 78.2595,-52.3691"/>
</g>
</g>
</svg>
