<?xml version="1.0" encoding="UTF-8" standalone="no"?>
<!DOCTYPE svg PUBLIC "-//W3C//DTD SVG 1.1//EN"
 "http://www.w3.org/Graphics/SVG/1.1/DTD/svg11.dtd">
<!-- Generated by graphviz version 2.28.0 (20121015.0031)
 -->
<!-- Title: include/fa/atomic.h Pages: 1 -->
<svg width="819pt" height="212pt"
 viewBox="0.00 0.00 819.00 212.00" xmlns="http://www.w3.org/2000/svg" xmlns:xlink="http://www.w3.org/1999/xlink">
<g id="graph1" class="graph" transform="scale(1 1) rotate(0) translate(4 208)">
<title>include/fa/atomic.h</title>
<!-- Node1 -->
<g id="node1" class="node"><title>Node1</title>
<polygon fill="#bfbfbf" stroke="black" points="191.374,-180.695 191.374,-203.305 306.626,-203.305 306.626,-180.695 191.374,-180.695"/>
<text text-anchor="middle" x="249" y="-188.305" font-family="Futura" font-size="11.00">include/fa/atomic.h</text>
</g>
<!-- Node2 -->
<g id="node3" class="node"><title>Node2</title>
<a xlink:href="fa_2fa_8h.html" target="_top" xlink:title="include/fa/fa.h">
<polygon fill="none" stroke="red" points="202.846,-120.695 202.846,-143.305 295.154,-143.305 295.154,-120.695 202.846,-120.695"/>
<text text-anchor="middle" x="249" y="-128.305" font-family="Futura" font-size="11.00">include/fa/fa.h</text>
</a>
</g>
<!-- Node1&#45;&gt;Node2 -->
<g id="edge2" class="edge"><title>Node1&#45;&gt;Node2</title>
<path fill="none" stroke="midnightblue" d="M242.512,-170.459C241.936,-161.411 242.309,-151.16 243.63,-143.672"/>
<polygon fill="midnightblue" stroke="midnightblue" points="239.062,-171.097 243.684,-180.631 246.016,-170.296 239.062,-171.097"/>
</g>
<!-- Node2&#45;&gt;Node1 -->
<g id="edge8" class="edge"><title>Node2&#45;&gt;Node1</title>
<path fill="none" stroke="midnightblue" d="M255.492,-153.611C256.069,-162.764 255.677,-173.137 254.316,-180.631"/>
<polygon fill="midnightblue" stroke="midnightblue" points="258.97,-153.216 254.37,-143.672 252.014,-154.001 258.97,-153.216"/>
</g>
<!-- Node3 -->
<g id="node5" class="node"><title>Node3</title>
<a xlink:href="action_8h.html" target="_top" xlink:title="include/fa/action.h">
<polygon fill="none" stroke="red" points="-0.253906,-0.695312 -0.253906,-23.3047 112.254,-23.3047 112.254,-0.695312 -0.253906,-0.695312"/>
<text text-anchor="middle" x="56" y="-8.30469" font-family="Futura" font-size="11.00">include/fa/action.h</text>
</a>
</g>
<!-- Node2&#45;&gt;Node3 -->
<g id="edge4" class="edge"><title>Node2&#45;&gt;Node3</title>
<path fill="none" stroke="midnightblue" d="M192.351,-128.378C154.685,-123.998 106.671,-112.706 75,-84 57.1318,-67.8047 50.5179,-38.7514 51.4212,-23.3082"/>
<polygon fill="midnightblue" stroke="midnightblue" points="192.373,-131.899 202.679,-129.44 193.089,-124.936 192.373,-131.899"/>
</g>
<!-- Node4 -->
<g id="node9" class="node"><title>Node4</title>
<a xlink:href="buffer_8h.html" target="_top" xlink:title="include/fa/buffer.h">
<polygon fill="none" stroke="red" points="301.227,-60.6953 301.227,-83.3047 412.773,-83.3047 412.773,-60.6953 301.227,-60.6953"/>
<text text-anchor="middle" x="357" y="-68.3047" font-family="Futura" font-size="11.00">include/fa/buffer.h</text>
</a>
</g>
<!-- Node2&#45;&gt;Node4 -->
<g id="edge10" class="edge"><title>Node2&#45;&gt;Node4</title>
<path fill="none" stroke="midnightblue" d="M277.374,-115.762C296.311,-105.592 320.722,-92.4828 337.495,-83.475"/>
<polygon fill="midnightblue" stroke="midnightblue" points="275.462,-112.816 268.308,-120.631 278.774,-118.983 275.462,-112.816"/>
</g>
<!-- Node5 -->
<g id="node11" class="node"><title>Node5</title>
<a xlink:href="device_8h.html" target="_top" xlink:title="include/fa/device.h">
<polygon fill="none" stroke="red" points="430.817,-60.6953 430.817,-83.3047 545.183,-83.3047 545.183,-60.6953 430.817,-60.6953"/>
<text text-anchor="middle" x="488" y="-68.3047" font-family="Futura" font-size="11.00">include/fa/device.h</text>
</a>
</g>
<!-- Node2&#45;&gt;Node5 -->
<g id="edge12" class="edge"><title>Node2&#45;&gt;Node5</title>
<path fill="none" stroke="midnightblue" d="M301.479,-118.264C344.624,-107.794 404.994,-93.1437 445.239,-83.3771"/>
<polygon fill="midnightblue" stroke="midnightblue" points="300.621,-114.871 291.728,-120.631 302.272,-121.674 300.621,-114.871"/>
</g>
<!-- Node6 -->
<g id="node13" class="node"><title>Node6</title>
<a xlink:href="dynamic_8h.html" target="_top" xlink:title="include/fa/dynamic.h">
<polygon fill="none" stroke="black" points="562.918,-60.6953 562.918,-83.3047 687.082,-83.3047 687.082,-60.6953 562.918,-60.6953"/>
<text text-anchor="middle" x="625" y="-68.3047" font-family="Futura" font-size="11.00">include/fa/dynamic.h</text>
</a>
</g>
<!-- Node2&#45;&gt;Node6 -->
<g id="edge14" class="edge"><title>Node2&#45;&gt;Node6</title>
<path fill="none" stroke="midnightblue" d="M305.468,-122.312C366.691,-112.89 467.284,-97.3988 554,-84 556.835,-83.5619 559.734,-83.1138 562.662,-82.6609"/>
<polygon fill="midnightblue" stroke="midnightblue" points="304.599,-118.905 295.248,-123.885 305.664,-125.823 304.599,-118.905"/>
</g>
<!-- Node7 -->
<g id="node15" class="node"><title>Node7</title>
<a xlink:href="error_8h.html" target="_top" xlink:title="include/fa/error.h">
<polygon fill="none" stroke="red" points="704.598,-60.6953 704.598,-83.3047 811.402,-83.3047 811.402,-60.6953 704.598,-60.6953"/>
<text text-anchor="middle" x="758" y="-68.3047" font-family="Futura" font-size="11.00">include/fa/error.h</text>
</a>
</g>
<!-- Node2&#45;&gt;Node7 -->
<g id="edge16" class="edge"><title>Node2&#45;&gt;Node7</title>
<path fill="none" stroke="midnightblue" d="M305.515,-125.832C389.139,-118.356 550.336,-103.283 687,-84 692.629,-83.2058 698.529,-82.2803 704.434,-81.3097"/>
<polygon fill="midnightblue" stroke="midnightblue" points="305.113,-122.354 295.463,-126.727 305.734,-129.326 305.113,-122.354"/>
</g>
<!-- Node8 -->
<g id="node18" class="node"><title>Node8</title>
<a xlink:href="graph_8h.html" target="_top" xlink:title="include/fa/graph.h">
<polygon fill="none" stroke="black" points="129.937,-0.695312 129.937,-23.3047 242.063,-23.3047 242.063,-0.695312 129.937,-0.695312"/>
<text text-anchor="middle" x="186" y="-8.30469" font-family="Futura" font-size="11.00">include/fa/graph.h</text>
</a>
</g>
<!-- Node2&#45;&gt;Node8 -->
<g id="edge20" class="edge"><title>Node2&#45;&gt;Node8</title>
<path fill="none" stroke="midnightblue" d="M233.66,-111.878C217.785,-86.7666 195.059,-43.5383 187.598,-23.6179"/>
<polygon fill="midnightblue" stroke="midnightblue" points="230.936,-114.105 239.362,-120.528 236.781,-110.253 230.936,-114.105"/>
</g>
<!-- Node9 -->
<g id="node21" class="node"><title>Node9</title>
<a xlink:href="list_8h.html" target="_top" xlink:title="include/fa/list.h">
<polygon fill="none" stroke="red" points="93.3855,-60.6953 93.3855,-83.3047 188.615,-83.3047 188.615,-60.6953 93.3855,-60.6953"/>
<text text-anchor="middle" x="141" y="-68.3047" font-family="Futura" font-size="11.00">include/fa/list.h</text>
</a>
</g>
<!-- Node2&#45;&gt;Node9 -->
<g id="edge24" class="edge"><title>Node2&#45;&gt;Node9</title>
<path fill="none" stroke="midnightblue" d="M215.152,-116.04C194.947,-105.832 170.462,-92.5651 155.17,-83.475"/>
<polygon fill="midnightblue" stroke="midnightblue" points="213.864,-119.308 224.376,-120.631 216.983,-113.042 213.864,-119.308"/>
</g>
<!-- Node10 -->
<g id="node26" class="node"><title>Node10</title>
<a xlink:href="map_8h.html" target="_top" xlink:title="include/fa/map.h">
<polygon fill="none" stroke="red" points="259.914,-0.695312 259.914,-23.3047 364.086,-23.3047 364.086,-0.695312 259.914,-0.695312"/>
<text text-anchor="middle" x="312" y="-8.30469" font-family="Futura" font-size="11.00">include/fa/map.h</text>
</a>
</g>
<!-- Node2&#45;&gt;Node10 -->
<g id="edge34" class="edge"><title>Node2&#45;&gt;Node10</title>
<path fill="none" stroke="midnightblue" d="M259.387,-111.545C272.819,-86.3862 295.743,-43.4506 306.331,-23.6179"/>
<polygon fill="midnightblue" stroke="midnightblue" points="256.213,-110.058 254.591,-120.528 262.388,-113.355 256.213,-110.058"/>
</g>
<!-- Node3&#45;&gt;Node2 -->
<g id="edge6" class="edge"><title>Node3&#45;&gt;Node2</title>
<path fill="none" stroke="midnightblue" d="M66.1138,-32.7978C71.2581,-48.7773 78.3425,-70.7148 93,-84 123.345,-111.504 168.693,-123.022 202.779,-127.791"/>
<polygon fill="midnightblue" stroke="midnightblue" points="69.4338,-31.6899 62.9532,-23.3082 62.7925,-33.9018 69.4338,-31.6899"/>
</g>
<!-- Node7&#45;&gt;Node2 -->
<g id="edge18" class="edge"><title>Node7&#45;&gt;Node2</title>
<path fill="none" stroke="midnightblue" d="M699.669,-84.7213C548.461,-105.698 376.224,-121.171 295.261,-127.659"/>
<polygon fill="midnightblue" stroke="midnightblue" points="700.179,-88.1841 709.597,-83.3316 699.209,-81.2517 700.179,-88.1841"/>
</g>
<!-- Node8&#45;&gt;Node2 -->
<g id="edge22" class="edge"><title>Node8&#45;&gt;Node2</title>
<path fill="none" stroke="midnightblue" d="M201.247,-31.9754C217.165,-57.1259 240.038,-100.635 247.456,-120.528"/>
<polygon fill="midnightblue" stroke="midnightblue" points="204.165,-30.0415 195.739,-23.6179 198.32,-33.8936 204.165,-30.0415"/>
</g>
<!-- Node9&#45;&gt;Node2 -->
<g id="edge28" class="edge"><title>Node9&#45;&gt;Node2</title>
<path fill="none" stroke="midnightblue" d="M174.809,-87.9407C195.1,-98.1908 219.718,-111.532 235.008,-120.631"/>
<polygon fill="midnightblue" stroke="midnightblue" points="176.352,-84.799 165.84,-83.475 173.232,-91.0653 176.352,-84.799"/>
</g>
<!-- Node9&#45;&gt;Node3 -->
<g id="edge26" class="edge"><title>Node9&#45;&gt;Node3</title>
<path fill="none" stroke="midnightblue" d="M117.226,-54.7779C102.542,-44.7583 84.1305,-32.1949 71.3513,-23.475"/>
<polygon fill="midnightblue" stroke="midnightblue" points="115.571,-57.8854 125.804,-60.6308 119.516,-52.1033 115.571,-57.8854"/>
</g>
<!-- Node9&#45;&gt;Node8 -->
<g id="edge30" class="edge"><title>Node9&#45;&gt;Node8</title>
<path fill="none" stroke="midnightblue" d="M155.335,-52.5233C162.721,-43.0047 171.463,-31.7362 177.72,-23.6719"/>
<polygon fill="midnightblue" stroke="midnightblue" points="152.41,-50.5844 149.045,-60.6308 157.94,-54.8754 152.41,-50.5844"/>
</g>
<!-- Node9&#45;&gt;Node10 -->
<g id="edge32" class="edge"><title>Node9&#45;&gt;Node10</title>
<path fill="none" stroke="midnightblue" d="M181.11,-57.3955C211.771,-46.9959 253.399,-32.8764 281.406,-23.3771"/>
<polygon fill="midnightblue" stroke="midnightblue" points="179.917,-54.1041 171.571,-60.6308 182.166,-60.7332 179.917,-54.1041"/>
</g>
</g>
</svg>
