<?xml version="1.0" encoding="UTF-8" standalone="no"?>
<!DOCTYPE svg PUBLIC "-//W3C//DTD SVG 1.1//EN"
 "http://www.w3.org/Graphics/SVG/1.1/DTD/svg11.dtd">
<!-- Generated by graphviz version 2.28.0 (20121015.0031)
 -->
<!-- Title: include/fa/system/event.h Pages: 1 -->
<svg width="551pt" height="212pt"
 viewBox="0.00 0.00 551.00 212.00" xmlns="http://www.w3.org/2000/svg" xmlns:xlink="http://www.w3.org/1999/xlink">
<g id="graph1" class="graph" transform="scale(1 1) rotate(0) translate(4 208)">
<title>include/fa/system/event.h</title>
<!-- Node1 -->
<g id="node1" class="node"><title>Node1</title>
<polygon fill="#bfbfbf" stroke="black" points="68.4324,-180.695 68.4324,-203.305 215.568,-203.305 215.568,-180.695 68.4324,-180.695"/>
<text text-anchor="middle" x="142" y="-188.305" font-family="Futura" font-size="11.00">include/fa/system/event.h</text>
</g>
<!-- Node2 -->
<g id="node3" class="node"><title>Node2</title>
<polygon fill="none" stroke="#bfbfbf" points="-0.727051,-120.695 -0.727051,-143.305 34.7271,-143.305 34.7271,-120.695 -0.727051,-120.695"/>
<text text-anchor="middle" x="17" y="-128.305" font-family="Futura" font-size="11.00">fa.h</text>
</g>
<!-- Node1&#45;&gt;Node2 -->
<g id="edge2" class="edge"><title>Node1&#45;&gt;Node2</title>
<path fill="none" stroke="midnightblue" d="M119.653,-180.631C98.6096,-170.867 67.0359,-156.217 44.4659,-145.744"/>
<polygon fill="midnightblue" stroke="midnightblue" points="45.6452,-142.433 35.1009,-141.399 42.6989,-148.783 45.6452,-142.433"/>
</g>
<!-- Node3 -->
<g id="node5" class="node"><title>Node3</title>
<polygon fill="none" stroke="#bfbfbf" points="52.9338,-120.695 52.9338,-143.305 137.066,-143.305 137.066,-120.695 52.9338,-120.695"/>
<text text-anchor="middle" x="95" y="-128.305" font-family="Futura" font-size="11.00">fa/message.h</text>
</g>
<!-- Node1&#45;&gt;Node3 -->
<g id="edge4" class="edge"><title>Node1&#45;&gt;Node3</title>
<path fill="none" stroke="midnightblue" d="M133.597,-180.631C127.062,-172.566 117.826,-161.168 110.027,-151.544"/>
<polygon fill="midnightblue" stroke="midnightblue" points="112.663,-149.238 103.648,-143.672 107.224,-153.645 112.663,-149.238"/>
</g>
<!-- Node4 -->
<g id="node7" class="node"><title>Node4</title>
<polygon fill="none" stroke="#bfbfbf" points="155.243,-120.695 155.243,-143.305 222.757,-143.305 222.757,-120.695 155.243,-120.695"/>
<text text-anchor="middle" x="189" y="-128.305" font-family="Futura" font-size="11.00">fa/event.h</text>
</g>
<!-- Node1&#45;&gt;Node4 -->
<g id="edge6" class="edge"><title>Node1&#45;&gt;Node4</title>
<path fill="none" stroke="midnightblue" d="M150.403,-180.631C156.938,-172.566 166.174,-161.168 173.973,-151.544"/>
<polygon fill="midnightblue" stroke="midnightblue" points="176.776,-153.645 180.352,-143.672 171.337,-149.238 176.776,-153.645"/>
</g>
<!-- Node5 -->
<g id="node9" class="node"><title>Node5</title>
<a xlink:href="string_8h.html" target="_top" xlink:title="fa/string.h">
<polygon fill="none" stroke="black" points="240.87,-120.695 240.87,-143.305 309.13,-143.305 309.13,-120.695 240.87,-120.695"/>
<text text-anchor="middle" x="275" y="-128.305" font-family="Futura" font-size="11.00">fa/string.h</text>
</a>
</g>
<!-- Node1&#45;&gt;Node5 -->
<g id="edge8" class="edge"><title>Node1&#45;&gt;Node5</title>
<path fill="none" stroke="midnightblue" d="M165.778,-180.631C186.923,-171.409 218.064,-157.829 241.688,-147.527"/>
<polygon fill="midnightblue" stroke="midnightblue" points="243.212,-150.681 250.98,-143.475 240.414,-144.264 243.212,-150.681"/>
</g>
<!-- Node6 -->
<g id="node11" class="node"><title>Node6</title>
<a xlink:href="fa_2fa_8h.html" target="_top" xlink:title="fa.h">
<polygon fill="none" stroke="red" points="257.273,-60.6953 257.273,-83.3047 292.727,-83.3047 292.727,-60.6953 257.273,-60.6953"/>
<text text-anchor="middle" x="275" y="-68.3047" font-family="Futura" font-size="11.00">fa.h</text>
</a>
</g>
<!-- Node5&#45;&gt;Node6 -->
<g id="edge10" class="edge"><title>Node5&#45;&gt;Node6</title>
<path fill="none" stroke="midnightblue" d="M275,-120.631C275,-113.218 275,-102.989 275,-93.9096"/>
<polygon fill="midnightblue" stroke="midnightblue" points="278.5,-93.6718 275,-83.6719 271.5,-93.6719 278.5,-93.6718"/>
</g>
<!-- Node7 -->
<g id="node13" class="node"><title>Node7</title>
<polygon fill="none" stroke="#bfbfbf" points="64.937,-0.695312 64.937,-23.3047 139.063,-23.3047 139.063,-0.695312 64.937,-0.695312"/>
<text text-anchor="middle" x="102" y="-8.30469" font-family="Futura" font-size="11.00">fa/atomic.h</text>
</g>
<!-- Node6&#45;&gt;Node7 -->
<g id="edge12" class="edge"><title>Node6&#45;&gt;Node7</title>
<path fill="none" stroke="midnightblue" d="M257.138,-65.0114C230.308,-56.0164 178.89,-38.7781 142.619,-26.6178"/>
<polygon fill="midnightblue" stroke="midnightblue" points="143.417,-23.194 132.823,-23.3337 141.192,-29.831 143.417,-23.194"/>
</g>
<!-- Node8 -->
<g id="node15" class="node"><title>Node8</title>
<polygon fill="none" stroke="#bfbfbf" points="156.648,-0.695312 156.648,-23.3047 267.352,-23.3047 267.352,-0.695312 156.648,-0.695312"/>
<text text-anchor="middle" x="212" y="-8.30469" font-family="Futura" font-size="11.00">fa/atomic/queue.h</text>
</g>
<!-- Node6&#45;&gt;Node8 -->
<g id="edge14" class="edge"><title>Node6&#45;&gt;Node8</title>
<path fill="none" stroke="midnightblue" d="M263.737,-60.6308C254.712,-52.3219 241.843,-40.4746 231.198,-30.6745"/>
<polygon fill="midnightblue" stroke="midnightblue" points="233.319,-27.87 223.592,-23.6719 228.578,-33.0199 233.319,-27.87"/>
</g>
<!-- Node9 -->
<g id="node17" class="node"><title>Node9</title>
<polygon fill="none" stroke="#bfbfbf" points="285.42,-0.695312 285.42,-23.3047 390.58,-23.3047 390.58,-0.695312 285.42,-0.695312"/>
<text text-anchor="middle" x="338" y="-8.30469" font-family="Futura" font-size="11.00">fa/atomic/stack.h</text>
</g>
<!-- Node6&#45;&gt;Node9 -->
<g id="edge16" class="edge"><title>Node6&#45;&gt;Node9</title>
<path fill="none" stroke="midnightblue" d="M286.263,-60.6308C295.288,-52.3219 308.157,-40.4746 318.802,-30.6745"/>
<polygon fill="midnightblue" stroke="midnightblue" points="321.422,-33.0199 326.408,-23.6719 316.681,-27.87 321.422,-33.0199"/>
</g>
<!-- Node10 -->
<g id="node19" class="node"><title>Node10</title>
<polygon fill="none" stroke="#bfbfbf" points="408.526,-0.695312 408.526,-23.3047 543.474,-23.3047 543.474,-0.695312 408.526,-0.695312"/>
<text text-anchor="middle" x="476" y="-8.30469" font-family="Futura" font-size="11.00">fa/atomic/ring_buffer.h</text>
</g>
<!-- Node6&#45;&gt;Node10 -->
<g id="edge18" class="edge"><title>Node6&#45;&gt;Node10</title>
<path fill="none" stroke="midnightblue" d="M292.837,-65.8529C323.411,-57.0307 386.732,-38.759 430.285,-26.1914"/>
<polygon fill="midnightblue" stroke="midnightblue" points="431.44,-29.5009 440.078,-23.3656 429.5,-22.7753 431.44,-29.5009"/>
</g>
</g>
</svg>
