<?xml version="1.0" encoding="UTF-8" standalone="no"?>
<!DOCTYPE svg PUBLIC "-//W3C//DTD SVG 1.1//EN"
 "http://www.w3.org/Graphics/SVG/1.1/DTD/svg11.dtd">
<!-- Generated by graphviz version 2.28.0 (20121015.0031)
 -->
<!-- Title: include/fa/graph.h Pages: 1 -->
<svg width="691pt" height="272pt"
 viewBox="0.00 0.00 691.23 272.00" xmlns="http://www.w3.org/2000/svg" xmlns:xlink="http://www.w3.org/1999/xlink">
<g id="graph1" class="graph" transform="scale(1 1) rotate(0) translate(4 268)">
<title>include/fa/graph.h</title>
<!-- Node1 -->
<g id="node1" class="node"><title>Node1</title>
<polygon fill="#bfbfbf" stroke="black" points="441.937,-240.695 441.937,-263.305 554.063,-263.305 554.063,-240.695 441.937,-240.695"/>
<text text-anchor="middle" x="498" y="-248.305" font-family="Futura" font-size="11.00">include/fa/graph.h</text>
</g>
<!-- Node2 -->
<g id="node3" class="node"><title>Node2</title>
<a xlink:href="fa_2fa_8h.html" target="_top" xlink:title="include/fa/fa.h">
<polygon fill="none" stroke="red" points="366.846,-180.695 366.846,-203.305 459.154,-203.305 459.154,-180.695 366.846,-180.695"/>
<text text-anchor="middle" x="413" y="-188.305" font-family="Futura" font-size="11.00">include/fa/fa.h</text>
</a>
</g>
<!-- Node1&#45;&gt;Node2 -->
<g id="edge2" class="edge"><title>Node1&#45;&gt;Node2</title>
<path fill="none" stroke="midnightblue" d="M468.598,-235.098C452.88,-225.101 434.621,-212.477 423.27,-203.672"/>
<polygon fill="midnightblue" stroke="midnightblue" points="467.149,-238.318 477.488,-240.631 470.848,-232.375 467.149,-238.318"/>
</g>
<!-- Node2&#45;&gt;Node1 -->
<g id="edge18" class="edge"><title>Node2&#45;&gt;Node1</title>
<path fill="none" stroke="midnightblue" d="M442.207,-208.778C458.15,-218.909 476.754,-231.778 488.12,-240.631"/>
<polygon fill="midnightblue" stroke="midnightblue" points="444.026,-205.788 433.686,-203.475 440.327,-211.731 444.026,-205.788"/>
</g>
<!-- Node3 -->
<g id="node5" class="node"><title>Node3</title>
<a xlink:href="action_8h.html" target="_top" xlink:title="include/fa/action.h">
<polygon fill="none" stroke="red" points="190.746,-0.695312 190.746,-23.3047 303.254,-23.3047 303.254,-0.695312 190.746,-0.695312"/>
<text text-anchor="middle" x="247" y="-8.30469" font-family="Futura" font-size="11.00">include/fa/action.h</text>
</a>
</g>
<!-- Node2&#45;&gt;Node3 -->
<g id="edge4" class="edge"><title>Node2&#45;&gt;Node3</title>
<path fill="none" stroke="midnightblue" d="M356.77,-191.87C266.651,-192.141 96.5615,-187.026 59,-144 10.6274,-88.5907 134.077,-42.9406 203.623,-23.331"/>
<polygon fill="midnightblue" stroke="midnightblue" points="356.84,-195.37 366.821,-191.817 356.803,-188.37 356.84,-195.37"/>
</g>
<!-- Node4 -->
<g id="node8" class="node"><title>Node4</title>
<a xlink:href="buffer_8h.html" target="_top" xlink:title="include/fa/buffer.h">
<polygon fill="none" stroke="red" points="-0.773193,-0.695312 -0.773193,-23.3047 110.773,-23.3047 110.773,-0.695312 -0.773193,-0.695312"/>
<text text-anchor="middle" x="55" y="-8.30469" font-family="Futura" font-size="11.00">include/fa/buffer.h</text>
</a>
</g>
<!-- Node2&#45;&gt;Node4 -->
<g id="edge8" class="edge"><title>Node2&#45;&gt;Node4</title>
<path fill="none" stroke="midnightblue" d="M356.661,-187.649C260.623,-181.358 73.6273,-166.364 54,-144 23.6957,-109.47 41.838,-47.8693 50.8401,-23.4181"/>
<polygon fill="midnightblue" stroke="midnightblue" points="356.579,-191.151 366.784,-188.302 357.03,-184.166 356.579,-191.151"/>
</g>
<!-- Node5 -->
<g id="node10" class="node"><title>Node5</title>
<a xlink:href="device_8h.html" target="_top" xlink:title="include/fa/device.h">
<polygon fill="none" stroke="red" points="76.8169,-120.695 76.8169,-143.305 191.183,-143.305 191.183,-120.695 76.8169,-120.695"/>
<text text-anchor="middle" x="134" y="-128.305" font-family="Futura" font-size="11.00">include/fa/device.h</text>
</a>
</g>
<!-- Node2&#45;&gt;Node5 -->
<g id="edge10" class="edge"><title>Node2&#45;&gt;Node5</title>
<path fill="none" stroke="midnightblue" d="M356.807,-179.318C306.152,-168.788 232.371,-153.45 183.793,-143.351"/>
<polygon fill="midnightblue" stroke="midnightblue" points="356.113,-182.749 366.616,-181.357 357.537,-175.895 356.113,-182.749"/>
</g>
<!-- Node6 -->
<g id="node12" class="node"><title>Node6</title>
<a xlink:href="dynamic_8h.html" target="_top" xlink:title="include/fa/dynamic.h">
<polygon fill="none" stroke="black" points="208.918,-120.695 208.918,-143.305 333.082,-143.305 333.082,-120.695 208.918,-120.695"/>
<text text-anchor="middle" x="271" y="-128.305" font-family="Futura" font-size="11.00">include/fa/dynamic.h</text>
</a>
</g>
<!-- Node2&#45;&gt;Node6 -->
<g id="edge12" class="edge"><title>Node2&#45;&gt;Node6</title>
<path fill="none" stroke="midnightblue" d="M378.058,-176.728C352.856,-166.434 319.404,-152.771 296.646,-143.475"/>
<polygon fill="midnightblue" stroke="midnightblue" points="377.032,-180.09 387.613,-180.631 379.679,-173.609 377.032,-180.09"/>
</g>
<!-- Node7 -->
<g id="node14" class="node"><title>Node7</title>
<a xlink:href="error_8h.html" target="_top" xlink:title="include/fa/error.h">
<polygon fill="none" stroke="red" points="406.598,-120.695 406.598,-143.305 513.402,-143.305 513.402,-120.695 406.598,-120.695"/>
<text text-anchor="middle" x="460" y="-128.305" font-family="Futura" font-size="11.00">include/fa/error.h</text>
</a>
</g>
<!-- Node2&#45;&gt;Node7 -->
<g id="edge14" class="edge"><title>Node2&#45;&gt;Node7</title>
<path fill="none" stroke="midnightblue" d="M421.847,-172.231C428.763,-162.775 438.106,-151.654 445.982,-143.672"/>
<polygon fill="midnightblue" stroke="midnightblue" points="418.856,-170.404 416.087,-180.631 424.629,-174.363 418.856,-170.404"/>
</g>
<!-- Node8 -->
<g id="node18" class="node"><title>Node8</title>
<a xlink:href="list_8h.html" target="_top" xlink:title="include/fa/list.h">
<polygon fill="none" stroke="red" points="569.385,-120.695 569.385,-143.305 664.615,-143.305 664.615,-120.695 569.385,-120.695"/>
<text text-anchor="middle" x="617" y="-128.305" font-family="Futura" font-size="11.00">include/fa/list.h</text>
</a>
</g>
<!-- Node2&#45;&gt;Node8 -->
<g id="edge20" class="edge"><title>Node2&#45;&gt;Node8</title>
<path fill="none" stroke="midnightblue" d="M454.118,-177.665C489.355,-167.241 539.744,-152.959 575.184,-143.377"/>
<polygon fill="midnightblue" stroke="midnightblue" points="452.741,-174.423 444.155,-180.631 454.738,-181.132 452.741,-174.423"/>
</g>
<!-- Node9 -->
<g id="node23" class="node"><title>Node9</title>
<a xlink:href="map_8h.html" target="_top" xlink:title="include/fa/map.h">
<polygon fill="none" stroke="red" points="564.914,-0.695312 564.914,-23.3047 669.086,-23.3047 669.086,-0.695312 564.914,-0.695312"/>
<text text-anchor="middle" x="617" y="-8.30469" font-family="Futura" font-size="11.00">include/fa/map.h</text>
</a>
</g>
<!-- Node2&#45;&gt;Node9 -->
<g id="edge42" class="edge"><title>Node2&#45;&gt;Node9</title>
<path fill="none" stroke="midnightblue" d="M469.395,-188.976C537.926,-185.193 647.579,-174.428 673,-144 704.716,-106.037 652.696,-47.4351 628.42,-23.6134"/>
<polygon fill="midnightblue" stroke="midnightblue" points="468.989,-185.493 459.184,-189.505 469.351,-192.483 468.989,-185.493"/>
</g>
<!-- Node10 -->
<g id="node25" class="node"><title>Node10</title>
<a xlink:href="pair_8h.html" target="_top" xlink:title="include/fa/pair.h">
<polygon fill="none" stroke="red" points="319.131,-60.6953 319.131,-83.3047 420.869,-83.3047 420.869,-60.6953 319.131,-60.6953"/>
<text text-anchor="middle" x="370" y="-68.3047" font-family="Futura" font-size="11.00">include/fa/pair.h</text>
</a>
</g>
<!-- Node2&#45;&gt;Node10 -->
<g id="edge44" class="edge"><title>Node2&#45;&gt;Node10</title>
<path fill="none" stroke="midnightblue" d="M400.593,-171.21C389.012,-146.007 373.847,-103.363 369.799,-83.6179"/>
<polygon fill="midnightblue" stroke="midnightblue" points="397.608,-173.074 405.137,-180.528 403.9,-170.006 397.608,-173.074"/>
</g>
<!-- Node3&#45;&gt;Node2 -->
<g id="edge6" class="edge"><title>Node3&#45;&gt;Node2</title>
<path fill="none" stroke="midnightblue" d="M204.247,-26.5177C139.982,-47.6021 31.0839,-91.4045 77,-144 114.419,-186.862 283.362,-192.102 366.583,-191.873"/>
<polygon fill="midnightblue" stroke="midnightblue" points="205.701,-29.7267 214.147,-23.331 203.556,-23.0634 205.701,-29.7267"/>
</g>
<!-- Node7&#45;&gt;Node2 -->
<g id="edge16" class="edge"><title>Node7&#45;&gt;Node2</title>
<path fill="none" stroke="midnightblue" d="M450.888,-152.13C443.911,-161.628 434.557,-172.729 426.719,-180.631"/>
<polygon fill="midnightblue" stroke="midnightblue" points="453.925,-153.891 456.722,-143.672 448.163,-149.916 453.925,-153.891"/>
</g>
<!-- Node8&#45;&gt;Node1 -->
<g id="edge26" class="edge"><title>Node8&#45;&gt;Node1</title>
<path fill="none" stroke="midnightblue" d="M602.264,-151.497C590.162,-166.275 572.264,-187.218 555,-204 541.205,-217.41 524.006,-231.242 512.129,-240.396"/>
<polygon fill="midnightblue" stroke="midnightblue" points="605.097,-153.56 608.67,-143.586 599.657,-149.154 605.097,-153.56"/>
</g>
<!-- Node8&#45;&gt;Node2 -->
<g id="edge24" class="edge"><title>Node8&#45;&gt;Node2</title>
<path fill="none" stroke="midnightblue" d="M575.853,-146.344C540.608,-156.77 490.218,-171.052 454.787,-180.631"/>
<polygon fill="midnightblue" stroke="midnightblue" points="577.233,-149.585 585.819,-143.377 575.236,-142.876 577.233,-149.585"/>
</g>
<!-- Node8&#45;&gt;Node3 -->
<g id="edge22" class="edge"><title>Node8&#45;&gt;Node3</title>
<path fill="none" stroke="midnightblue" d="M582.646,-116.74C545.251,-101.521 483.497,-77.2713 429,-60 383.114,-45.4577 329.686,-32.0704 292.639,-23.3347"/>
<polygon fill="midnightblue" stroke="midnightblue" points="581.484,-120.046 592.065,-120.592 584.134,-113.567 581.484,-120.046"/>
</g>
<!-- Node8&#45;&gt;Node9 -->
<g id="edge28" class="edge"><title>Node8&#45;&gt;Node9</title>
<path fill="none" stroke="midnightblue" d="M617,-110.192C617,-84.8736 617,-43.0995 617,-23.6179"/>
<polygon fill="midnightblue" stroke="midnightblue" points="613.5,-110.528 617,-120.528 620.5,-110.528 613.5,-110.528"/>
</g>
<!-- Node8&#45;&gt;Node10 -->
<g id="edge30" class="edge"><title>Node8&#45;&gt;Node10</title>
<path fill="none" stroke="midnightblue" d="M563.045,-118.33C518.438,-107.856 455.872,-93.1642 414.192,-83.3771"/>
<polygon fill="midnightblue" stroke="midnightblue" points="562.306,-121.752 572.841,-120.631 563.906,-114.937 562.306,-121.752"/>
</g>
<!-- Node10&#45;&gt;Node1 -->
<g id="edge38" class="edge"><title>Node10&#45;&gt;Node1</title>
<path fill="none" stroke="midnightblue" d="M421.932,-85.8222C463.471,-96.6011 515.777,-111.562 522,-120 549.585,-157.403 519.057,-216.829 504.667,-240.637"/>
<polygon fill="midnightblue" stroke="midnightblue" points="422.735,-82.4149 412.179,-83.316 420.993,-89.1947 422.735,-82.4149"/>
</g>
<!-- Node10&#45;&gt;Node2 -->
<g id="edge36" class="edge"><title>Node10&#45;&gt;Node2</title>
<path fill="none" stroke="midnightblue" d="M382.339,-92.6415C393.957,-117.887 409.22,-160.81 413.231,-180.528"/>
<polygon fill="midnightblue" stroke="midnightblue" points="385.468,-91.0728 377.94,-83.6179 379.176,-94.1403 385.468,-91.0728"/>
</g>
<!-- Node10&#45;&gt;Node3 -->
<g id="edge32" class="edge"><title>Node10&#45;&gt;Node3</title>
<path fill="none" stroke="midnightblue" d="M338.86,-56.3162C317.136,-46.0724 288.666,-32.6474 269.214,-23.475"/>
<polygon fill="midnightblue" stroke="midnightblue" points="337.472,-59.5314 348.01,-60.6308 340.458,-53.2 337.472,-59.5314"/>
</g>
<!-- Node10&#45;&gt;Node4 -->
<g id="edge34" class="edge"><title>Node10&#45;&gt;Node4</title>
<path fill="none" stroke="midnightblue" d="M309.025,-59.7728C251.686,-49.2153 166.569,-33.5428 110.934,-23.2989"/>
<polygon fill="midnightblue" stroke="midnightblue" points="308.571,-63.2481 319.04,-61.6168 309.839,-56.3638 308.571,-63.2481"/>
</g>
<!-- Node10&#45;&gt;Node9 -->
<g id="edge40" class="edge"><title>Node10&#45;&gt;Node9</title>
<path fill="none" stroke="midnightblue" d="M423.955,-58.3305C468.562,-47.8559 531.128,-33.1642 572.808,-23.3771"/>
<polygon fill="midnightblue" stroke="midnightblue" points="423.094,-54.9374 414.159,-60.6308 424.694,-61.752 423.094,-54.9374"/>
</g>
</g>
</svg>
