<?xml version="1.0" encoding="UTF-8" standalone="no"?>
<!DOCTYPE svg PUBLIC "-//W3C//DTD SVG 1.1//EN"
 "http://www.w3.org/Graphics/SVG/1.1/DTD/svg11.dtd">
<!-- Generated by graphviz version 2.28.0 (20121015.0031)
 -->
<!-- Title: include/fa/pair/left.h Pages: 1 -->
<svg width="844pt" height="212pt"
 viewBox="0.00 0.00 844.00 212.00" xmlns="http://www.w3.org/2000/svg" xmlns:xlink="http://www.w3.org/1999/xlink">
<g id="graph1" class="graph" transform="scale(1 1) rotate(0) translate(4 208)">
<title>include/fa/pair/left.h</title>
<!-- Node1 -->
<g id="node1" class="node"><title>Node1</title>
<polygon fill="#bfbfbf" stroke="black" points="550.241,-180.695 550.241,-203.305 673.759,-203.305 673.759,-180.695 550.241,-180.695"/>
<text text-anchor="middle" x="612" y="-188.305" font-family="Futura" font-size="11.00">include/fa/pair/left.h</text>
</g>
<!-- Node2 -->
<g id="node3" class="node"><title>Node2</title>
<a xlink:href="fa_2fa_8h.html" target="_top" xlink:title="include/fa/fa.h">
<polygon fill="none" stroke="red" points="503.846,-120.695 503.846,-143.305 596.154,-143.305 596.154,-120.695 503.846,-120.695"/>
<text text-anchor="middle" x="550" y="-128.305" font-family="Futura" font-size="11.00">include/fa/fa.h</text>
</a>
</g>
<!-- Node1&#45;&gt;Node2 -->
<g id="edge2" class="edge"><title>Node1&#45;&gt;Node2</title>
<path fill="none" stroke="midnightblue" d="M593.485,-173.68C583.063,-163.93 570.38,-152.065 561.408,-143.672"/>
<polygon fill="midnightblue" stroke="midnightblue" points="591.222,-176.355 600.916,-180.631 596.004,-171.243 591.222,-176.355"/>
</g>
<!-- Node3 -->
<g id="node5" class="node"><title>Node3</title>
<a xlink:href="action_8h.html" target="_top" xlink:title="include/fa/action.h">
<polygon fill="none" stroke="red" points="-0.253906,-0.695312 -0.253906,-23.3047 112.254,-23.3047 112.254,-0.695312 -0.253906,-0.695312"/>
<text text-anchor="middle" x="56" y="-8.30469" font-family="Futura" font-size="11.00">include/fa/action.h</text>
</a>
</g>
<!-- Node2&#45;&gt;Node3 -->
<g id="edge4" class="edge"><title>Node2&#45;&gt;Node3</title>
<path fill="none" stroke="midnightblue" d="M493.534,-128.792C374.697,-123.481 107.485,-108.585 75,-84 55.6648,-69.3672 49.6649,-39.3736 51.1028,-23.4578"/>
<polygon fill="midnightblue" stroke="midnightblue" points="493.393,-132.289 503.537,-129.231 493.701,-125.295 493.393,-132.289"/>
</g>
<!-- Node4 -->
<g id="node8" class="node"><title>Node4</title>
<a xlink:href="buffer_8h.html" target="_top" xlink:title="include/fa/buffer.h">
<polygon fill="none" stroke="red" points="93.2268,-60.6953 93.2268,-83.3047 204.773,-83.3047 204.773,-60.6953 93.2268,-60.6953"/>
<text text-anchor="middle" x="149" y="-68.3047" font-family="Futura" font-size="11.00">include/fa/buffer.h</text>
</a>
</g>
<!-- Node2&#45;&gt;Node4 -->
<g id="edge8" class="edge"><title>Node2&#45;&gt;Node4</title>
<path fill="none" stroke="midnightblue" d="M493.433,-123.591C426.597,-114.72 312.077,-99.1551 214,-84 211.059,-83.5456 208.045,-83.07 205.003,-82.5822"/>
<polygon fill="midnightblue" stroke="midnightblue" points="493.368,-127.113 503.741,-124.956 494.287,-120.173 493.368,-127.113"/>
</g>
<!-- Node5 -->
<g id="node10" class="node"><title>Node5</title>
<a xlink:href="device_8h.html" target="_top" xlink:title="include/fa/device.h">
<polygon fill="none" stroke="red" points="222.817,-60.6953 222.817,-83.3047 337.183,-83.3047 337.183,-60.6953 222.817,-60.6953"/>
<text text-anchor="middle" x="280" y="-68.3047" font-family="Futura" font-size="11.00">include/fa/device.h</text>
</a>
</g>
<!-- Node2&#45;&gt;Node5 -->
<g id="edge10" class="edge"><title>Node2&#45;&gt;Node5</title>
<path fill="none" stroke="midnightblue" d="M493.778,-118.923C444.786,-108.399 374.504,-93.3008 328.08,-83.3282"/>
<polygon fill="midnightblue" stroke="midnightblue" points="493.073,-122.351 503.585,-121.029 494.543,-115.507 493.073,-122.351"/>
</g>
<!-- Node6 -->
<g id="node12" class="node"><title>Node6</title>
<a xlink:href="dynamic_8h.html" target="_top" xlink:title="include/fa/dynamic.h">
<polygon fill="none" stroke="black" points="354.918,-60.6953 354.918,-83.3047 479.082,-83.3047 479.082,-60.6953 354.918,-60.6953"/>
<text text-anchor="middle" x="417" y="-68.3047" font-family="Futura" font-size="11.00">include/fa/dynamic.h</text>
</a>
</g>
<!-- Node2&#45;&gt;Node6 -->
<g id="edge12" class="edge"><title>Node2&#45;&gt;Node6</title>
<path fill="none" stroke="midnightblue" d="M516.959,-116.591C493.391,-106.314 462.242,-92.7296 441.02,-83.475"/>
<polygon fill="midnightblue" stroke="midnightblue" points="515.657,-119.842 526.222,-120.631 518.455,-113.425 515.657,-119.842"/>
</g>
<!-- Node7 -->
<g id="node14" class="node"><title>Node7</title>
<a xlink:href="error_8h.html" target="_top" xlink:title="include/fa/error.h">
<polygon fill="none" stroke="red" points="496.598,-60.6953 496.598,-83.3047 603.402,-83.3047 603.402,-60.6953 496.598,-60.6953"/>
<text text-anchor="middle" x="550" y="-68.3047" font-family="Futura" font-size="11.00">include/fa/error.h</text>
</a>
</g>
<!-- Node2&#45;&gt;Node7 -->
<g id="edge14" class="edge"><title>Node2&#45;&gt;Node7</title>
<path fill="none" stroke="midnightblue" d="M543.512,-110.459C542.936,-101.411 543.309,-91.1602 544.63,-83.6719"/>
<polygon fill="midnightblue" stroke="midnightblue" points="540.062,-111.097 544.684,-120.631 547.016,-110.296 540.062,-111.097"/>
</g>
<!-- Node8 -->
<g id="node17" class="node"><title>Node8</title>
<a xlink:href="graph_8h.html" target="_top" xlink:title="include/fa/graph.h">
<polygon fill="none" stroke="black" points="583.937,-0.695312 583.937,-23.3047 696.063,-23.3047 696.063,-0.695312 583.937,-0.695312"/>
<text text-anchor="middle" x="640" y="-8.30469" font-family="Futura" font-size="11.00">include/fa/graph.h</text>
</a>
</g>
<!-- Node2&#45;&gt;Node8 -->
<g id="edge18" class="edge"><title>Node2&#45;&gt;Node8</title>
<path fill="none" stroke="midnightblue" d="M569.612,-114.737C580.654,-106.713 593.79,-96.1432 603,-84 617.253,-65.2082 625.222,-38.2231 631.781,-23.5236"/>
<polygon fill="midnightblue" stroke="midnightblue" points="567.46,-111.972 561.322,-120.607 571.505,-117.685 567.46,-111.972"/>
</g>
<!-- Node9 -->
<g id="node20" class="node"><title>Node9</title>
<a xlink:href="list_8h.html" target="_top" xlink:title="include/fa/list.h">
<polygon fill="none" stroke="red" points="677.385,-60.6953 677.385,-83.3047 772.615,-83.3047 772.615,-60.6953 677.385,-60.6953"/>
<text text-anchor="middle" x="725" y="-68.3047" font-family="Futura" font-size="11.00">include/fa/list.h</text>
</a>
</g>
<!-- Node2&#45;&gt;Node9 -->
<g id="edge22" class="edge"><title>Node2&#45;&gt;Node9</title>
<path fill="none" stroke="midnightblue" d="M585.617,-117.26C615.587,-106.874 658.118,-92.8353 688.373,-83.3771"/>
<polygon fill="midnightblue" stroke="midnightblue" points="584.256,-114.028 575.971,-120.631 586.565,-120.636 584.256,-114.028"/>
</g>
<!-- Node10 -->
<g id="node25" class="node"><title>Node10</title>
<a xlink:href="map_8h.html" target="_top" xlink:title="include/fa/map.h">
<polygon fill="none" stroke="red" points="730.914,-0.695312 730.914,-23.3047 835.086,-23.3047 835.086,-0.695312 730.914,-0.695312"/>
<text text-anchor="middle" x="783" y="-8.30469" font-family="Futura" font-size="11.00">include/fa/map.h</text>
</a>
</g>
<!-- Node2&#45;&gt;Node10 -->
<g id="edge34" class="edge"><title>Node2&#45;&gt;Node10</title>
<path fill="none" stroke="midnightblue" d="M606.539,-127.378C667.573,-122.166 759.028,-110.133 781,-84 795.364,-66.9163 790.416,-38.4976 786.284,-23.3123"/>
<polygon fill="midnightblue" stroke="midnightblue" points="605.954,-123.914 596.271,-128.215 606.523,-130.891 605.954,-123.914"/>
</g>
<!-- Node3&#45;&gt;Node2 -->
<g id="edge6" class="edge"><title>Node3&#45;&gt;Node2</title>
<path fill="none" stroke="midnightblue" d="M65.4529,-33.2302C70.2517,-49.6566 77.1391,-71.9965 93,-84 125.541,-108.627 393.607,-123.532 503.459,-128.819"/>
<polygon fill="midnightblue" stroke="midnightblue" points="68.7483,-32.0341 62.5277,-23.4578 62.0423,-34.0415 68.7483,-32.0341"/>
</g>
<!-- Node7&#45;&gt;Node2 -->
<g id="edge16" class="edge"><title>Node7&#45;&gt;Node2</title>
<path fill="none" stroke="midnightblue" d="M556.492,-93.6107C557.069,-102.764 556.677,-113.137 555.316,-120.631"/>
<polygon fill="midnightblue" stroke="midnightblue" points="559.97,-93.2159 555.37,-83.6719 553.014,-94.0015 559.97,-93.2159"/>
</g>
<!-- Node8&#45;&gt;Node2 -->
<g id="edge20" class="edge"><title>Node8&#45;&gt;Node2</title>
<path fill="none" stroke="midnightblue" d="M642.507,-33.8302C639.725,-48.8478 632.358,-69.0253 621,-84 609.328,-99.3894 591.35,-112.251 576.184,-120.607"/>
<polygon fill="midnightblue" stroke="midnightblue" points="646.027,-33.8664 643.73,-23.5236 639.076,-33.0414 646.027,-33.8664"/>
</g>
<!-- Node9&#45;&gt;Node1 -->
<g id="edge32" class="edge"><title>Node9&#45;&gt;Node1</title>
<path fill="none" stroke="midnightblue" d="M707.77,-90.9923C683.844,-115.977 641.329,-160.373 622.028,-180.528"/>
<polygon fill="midnightblue" stroke="midnightblue" points="710.443,-93.2611 714.832,-83.6179 705.388,-88.4196 710.443,-93.2611"/>
</g>
<!-- Node9&#45;&gt;Node2 -->
<g id="edge26" class="edge"><title>Node9&#45;&gt;Node2</title>
<path fill="none" stroke="midnightblue" d="M689.358,-86.7483C659.381,-97.1369 616.85,-111.175 586.602,-120.631"/>
<polygon fill="midnightblue" stroke="midnightblue" points="690.721,-89.9797 699.007,-83.3771 688.412,-83.3714 690.721,-89.9797"/>
</g>
<!-- Node9&#45;&gt;Node3 -->
<g id="edge24" class="edge"><title>Node9&#45;&gt;Node3</title>
<path fill="none" stroke="midnightblue" d="M667.015,-65.2127C649.355,-63.4887 629.886,-61.6265 612,-60 429.423,-43.3973 212.934,-25.6564 112.451,-17.5335"/>
<polygon fill="midnightblue" stroke="midnightblue" points="666.884,-68.7166 677.177,-66.209 667.567,-61.75 666.884,-68.7166"/>
</g>
<!-- Node9&#45;&gt;Node8 -->
<g id="edge28" class="edge"><title>Node9&#45;&gt;Node8</title>
<path fill="none" stroke="midnightblue" d="M701.226,-54.7779C686.542,-44.7583 668.13,-32.1949 655.351,-23.475"/>
<polygon fill="midnightblue" stroke="midnightblue" points="699.571,-57.8854 709.804,-60.6308 703.516,-52.1033 699.571,-57.8854"/>
</g>
<!-- Node9&#45;&gt;Node10 -->
<g id="edge30" class="edge"><title>Node9&#45;&gt;Node10</title>
<path fill="none" stroke="midnightblue" d="M742.608,-53.3924C752.302,-43.6976 764.017,-31.9831 772.328,-23.6719"/>
<polygon fill="midnightblue" stroke="midnightblue" points="739.965,-51.0848 735.369,-60.6308 744.915,-56.0345 739.965,-51.0848"/>
</g>
</g>
</svg>
