<?xml version="1.0" encoding="UTF-8" standalone="no"?>
<!DOCTYPE svg PUBLIC "-//W3C//DTD SVG 1.1//EN"
 "http://www.w3.org/Graphics/SVG/1.1/DTD/svg11.dtd">
<!-- Generated by graphviz version 2.28.0 (20121015.0031)
 -->
<!-- Title: include/fa/ratio.h Pages: 1 -->
<svg width="819pt" height="332pt"
 viewBox="0.00 0.00 819.00 332.00" xmlns="http://www.w3.org/2000/svg" xmlns:xlink="http://www.w3.org/1999/xlink">
<g id="graph1" class="graph" transform="scale(1 1) rotate(0) translate(4 328)">
<title>include/fa/ratio.h</title>
<!-- Node1 -->
<g id="node1" class="node"><title>Node1</title>
<polygon fill="#bfbfbf" stroke="black" points="458.364,-300.695 458.364,-323.305 563.636,-323.305 563.636,-300.695 458.364,-300.695"/>
<text text-anchor="middle" x="511" y="-308.305" font-family="Futura" font-size="11.00">include/fa/ratio.h</text>
</g>
<!-- Node2 -->
<g id="node3" class="node"><title>Node2</title>
<a xlink:href="time_8h.html" target="_top" xlink:title="include/fa/time.h">
<polygon fill="none" stroke="black" points="459.594,-240.695 459.594,-263.305 562.406,-263.305 562.406,-240.695 459.594,-240.695"/>
<text text-anchor="middle" x="511" y="-248.305" font-family="Futura" font-size="11.00">include/fa/time.h</text>
</a>
</g>
<!-- Node1&#45;&gt;Node2 -->
<g id="edge2" class="edge"><title>Node1&#45;&gt;Node2</title>
<path fill="none" stroke="midnightblue" d="M511,-290.459C511,-281.411 511,-271.16 511,-263.672"/>
<polygon fill="midnightblue" stroke="midnightblue" points="507.5,-290.631 511,-300.631 514.5,-290.631 507.5,-290.631"/>
</g>
<!-- Node3 -->
<g id="node5" class="node"><title>Node3</title>
<a xlink:href="fa_2fa_8h.html" target="_top" xlink:title="include/fa/fa.h">
<polygon fill="none" stroke="red" points="289.846,-180.695 289.846,-203.305 382.154,-203.305 382.154,-180.695 289.846,-180.695"/>
<text text-anchor="middle" x="336" y="-188.305" font-family="Futura" font-size="11.00">include/fa/fa.h</text>
</a>
</g>
<!-- Node2&#45;&gt;Node3 -->
<g id="edge4" class="edge"><title>Node2&#45;&gt;Node3</title>
<path fill="none" stroke="midnightblue" d="M464.556,-237.53C431.732,-227.118 389.047,-212.917 361.993,-203.377"/>
<polygon fill="midnightblue" stroke="midnightblue" points="463.808,-240.964 474.398,-240.631 465.911,-234.288 463.808,-240.964"/>
</g>
<!-- Node6 -->
<g id="node12" class="node"><title>Node6</title>
<a xlink:href="signal_8h.html" target="_top" xlink:title="include/fa/signal.h">
<polygon fill="none" stroke="red" points="186.283,-60.6953 186.283,-83.3047 297.717,-83.3047 297.717,-60.6953 186.283,-60.6953"/>
<text text-anchor="middle" x="242" y="-68.3047" font-family="Futura" font-size="11.00">include/fa/signal.h</text>
</a>
</g>
<!-- Node2&#45;&gt;Node6 -->
<g id="edge30" class="edge"><title>Node2&#45;&gt;Node6</title>
<path fill="none" stroke="midnightblue" d="M552.301,-237.031C612.172,-214.687 711.414,-168.468 668,-120 643.736,-92.9117 408.09,-79.7864 298.066,-75.0955"/>
<polygon fill="midnightblue" stroke="midnightblue" points="550.893,-233.819 542.7,-240.537 553.294,-240.395 550.893,-233.819"/>
</g>
<!-- Node10 -->
<g id="node26" class="node"><title>Node10</title>
<a xlink:href="util_8h.html" target="_top" xlink:title="include/fa/util.h">
<polygon fill="none" stroke="black" points="714.62,-180.695 714.62,-203.305 811.38,-203.305 811.38,-180.695 714.62,-180.695"/>
<text text-anchor="middle" x="763" y="-188.305" font-family="Futura" font-size="11.00">include/fa/util.h</text>
</a>
</g>
<!-- Node2&#45;&gt;Node10 -->
<g id="edge32" class="edge"><title>Node2&#45;&gt;Node10</title>
<path fill="none" stroke="midnightblue" d="M566.047,-238.33C611.557,-227.856 675.39,-213.164 717.913,-203.377"/>
<polygon fill="midnightblue" stroke="midnightblue" points="565.013,-234.977 556.053,-240.631 566.583,-241.799 565.013,-234.977"/>
</g>
<!-- Node3&#45;&gt;Node2 -->
<g id="edge28" class="edge"><title>Node3&#45;&gt;Node2</title>
<path fill="none" stroke="midnightblue" d="M382.471,-206.478C415.3,-216.892 457.984,-231.093 485.029,-240.631"/>
<polygon fill="midnightblue" stroke="midnightblue" points="383.217,-203.044 372.627,-203.377 381.114,-209.72 383.217,-203.044"/>
</g>
<!-- Node4 -->
<g id="node7" class="node"><title>Node4</title>
<a xlink:href="action_8h.html" target="_top" xlink:title="include/fa/action.h">
<polygon fill="none" stroke="red" points="-0.253906,-0.695312 -0.253906,-23.3047 112.254,-23.3047 112.254,-0.695312 -0.253906,-0.695312"/>
<text text-anchor="middle" x="56" y="-8.30469" font-family="Futura" font-size="11.00">include/fa/action.h</text>
</a>
</g>
<!-- Node3&#45;&gt;Node4 -->
<g id="edge6" class="edge"><title>Node3&#45;&gt;Node4</title>
<path fill="none" stroke="midnightblue" d="M279.657,-188.103C211.602,-183.29 103.048,-171.323 75,-144 41.3491,-111.219 43.3702,-48.6073 50.1417,-23.6516"/>
<polygon fill="midnightblue" stroke="midnightblue" points="279.589,-191.606 289.802,-188.788 280.061,-184.622 279.589,-191.606"/>
</g>
<!-- Node5 -->
<g id="node10" class="node"><title>Node5</title>
<a xlink:href="buffer_8h.html" target="_top" xlink:title="include/fa/buffer.h">
<polygon fill="none" stroke="red" points="93.2268,-120.695 93.2268,-143.305 204.773,-143.305 204.773,-120.695 93.2268,-120.695"/>
<text text-anchor="middle" x="149" y="-128.305" font-family="Futura" font-size="11.00">include/fa/buffer.h</text>
</a>
</g>
<!-- Node3&#45;&gt;Node5 -->
<g id="edge10" class="edge"><title>Node3&#45;&gt;Node5</title>
<path fill="none" stroke="midnightblue" d="M293.006,-177.665C259.397,-167.241 213.349,-152.959 182.457,-143.377"/>
<polygon fill="midnightblue" stroke="midnightblue" points="291.98,-181.011 302.568,-180.631 294.054,-174.325 291.98,-181.011"/>
</g>
<!-- Node3&#45;&gt;Node6 -->
<g id="edge26" class="edge"><title>Node3&#45;&gt;Node6</title>
<path fill="none" stroke="midnightblue" d="M299.112,-175.667C285.463,-167.645 271.024,-156.815 261,-144 246.468,-125.423 238.608,-98.3539 238.192,-83.5834"/>
<polygon fill="midnightblue" stroke="midnightblue" points="297.466,-178.756 307.912,-180.525 300.849,-172.628 297.466,-178.756"/>
</g>
<!-- Node7 -->
<g id="node16" class="node"><title>Node7</title>
<a xlink:href="device_8h.html" target="_top" xlink:title="include/fa/device.h">
<polygon fill="none" stroke="red" points="278.817,-120.695 278.817,-143.305 393.183,-143.305 393.183,-120.695 278.817,-120.695"/>
<text text-anchor="middle" x="336" y="-128.305" font-family="Futura" font-size="11.00">include/fa/device.h</text>
</a>
</g>
<!-- Node3&#45;&gt;Node7 -->
<g id="edge18" class="edge"><title>Node3&#45;&gt;Node7</title>
<path fill="none" stroke="midnightblue" d="M336,-170.459C336,-161.411 336,-151.16 336,-143.672"/>
<polygon fill="midnightblue" stroke="midnightblue" points="332.5,-170.631 336,-180.631 339.5,-170.631 332.5,-170.631"/>
</g>
<!-- Node8 -->
<g id="node18" class="node"><title>Node8</title>
<a xlink:href="dynamic_8h.html" target="_top" xlink:title="include/fa/dynamic.h">
<polygon fill="none" stroke="black" points="410.918,-120.695 410.918,-143.305 535.082,-143.305 535.082,-120.695 410.918,-120.695"/>
<text text-anchor="middle" x="473" y="-128.305" font-family="Futura" font-size="11.00">include/fa/dynamic.h</text>
</a>
</g>
<!-- Node3&#45;&gt;Node8 -->
<g id="edge20" class="edge"><title>Node3&#45;&gt;Node8</title>
<path fill="none" stroke="midnightblue" d="M369.712,-176.728C394.026,-166.434 426.3,-152.771 448.257,-143.475"/>
<polygon fill="midnightblue" stroke="midnightblue" points="368.337,-173.509 360.493,-180.631 371.066,-179.955 368.337,-173.509"/>
</g>
<!-- Node9 -->
<g id="node20" class="node"><title>Node9</title>
<a xlink:href="error_8h.html" target="_top" xlink:title="include/fa/error.h">
<polygon fill="none" stroke="red" points="552.598,-120.695 552.598,-143.305 659.402,-143.305 659.402,-120.695 552.598,-120.695"/>
<text text-anchor="middle" x="606" y="-128.305" font-family="Futura" font-size="11.00">include/fa/error.h</text>
</a>
</g>
<!-- Node3&#45;&gt;Node9 -->
<g id="edge22" class="edge"><title>Node3&#45;&gt;Node9</title>
<path fill="none" stroke="midnightblue" d="M388.991,-178.396C436.234,-167.918 504.939,-153.185 552.376,-143.377"/>
<polygon fill="midnightblue" stroke="midnightblue" points="387.955,-175.041 378.955,-180.631 389.476,-181.874 387.955,-175.041"/>
</g>
<!-- Node4&#45;&gt;Node3 -->
<g id="edge8" class="edge"><title>Node4&#45;&gt;Node3</title>
<path fill="none" stroke="midnightblue" d="M59.9222,-33.8678C61.3863,-62.8722 63.2925,-115.06 93,-144 120.734,-171.018 227.185,-183.021 289.709,-187.939"/>
<polygon fill="midnightblue" stroke="midnightblue" points="63.4015,-33.4197 59.2985,-23.6516 56.4145,-33.8463 63.4015,-33.4197"/>
</g>
<!-- Node5&#45;&gt;Node6 -->
<g id="edge12" class="edge"><title>Node5&#45;&gt;Node6</title>
<path fill="none" stroke="midnightblue" d="M174.558,-115.061C190.697,-104.996 211.09,-92.2772 225.204,-83.475"/>
<polygon fill="midnightblue" stroke="midnightblue" points="172.26,-112.369 165.627,-120.631 175.964,-118.309 172.26,-112.369"/>
</g>
<!-- Node6&#45;&gt;Node3 -->
<g id="edge16" class="edge"><title>Node6&#45;&gt;Node3</title>
<path fill="none" stroke="midnightblue" d="M253.961,-93.0519C259.79,-108.206 267.193,-128.906 279,-144 291.22,-159.622 310.001,-172.294 322.904,-180.525"/>
<polygon fill="midnightblue" stroke="midnightblue" points="257.128,-91.5482 250.142,-83.5834 250.636,-94.1667 257.128,-91.5482"/>
</g>
<!-- Node6&#45;&gt;Node4 -->
<g id="edge14" class="edge"><title>Node6&#45;&gt;Node4</title>
<path fill="none" stroke="midnightblue" d="M198.804,-57.5304C165.414,-47.1183 119.873,-32.9175 89.2782,-23.3771"/>
<polygon fill="midnightblue" stroke="midnightblue" points="198.158,-60.9951 208.747,-60.6308 200.242,-54.3125 198.158,-60.9951"/>
</g>
<!-- Node9&#45;&gt;Node3 -->
<g id="edge24" class="edge"><title>Node9&#45;&gt;Node3</title>
<path fill="none" stroke="midnightblue" d="M553.252,-145.55C503.522,-156.582 429.853,-172.361 382.324,-182.128"/>
<polygon fill="midnightblue" stroke="midnightblue" points="554.173,-148.93 563.173,-143.341 552.652,-142.098 554.173,-148.93"/>
</g>
</g>
</svg>
