<?xml version="1.0" encoding="UTF-8" standalone="no"?>
<!DOCTYPE svg PUBLIC "-//W3C//DTD SVG 1.1//EN"
 "http://www.w3.org/Graphics/SVG/1.1/DTD/svg11.dtd">
<!-- Generated by graphviz version 2.28.0 (20121015.0031)
 -->
<!-- Title: include/fa/signal.h Pages: 1 -->
<svg width="669pt" height="332pt"
 viewBox="0.00 0.00 669.00 332.00" xmlns="http://www.w3.org/2000/svg" xmlns:xlink="http://www.w3.org/1999/xlink">
<g id="graph1" class="graph" transform="scale(1 1) rotate(0) translate(4 328)">
<title>include/fa/signal.h</title>
<!-- Node1 -->
<g id="node1" class="node"><title>Node1</title>
<polygon fill="#bfbfbf" stroke="black" points="272.283,-300.695 272.283,-323.305 383.717,-323.305 383.717,-300.695 272.283,-300.695"/>
<text text-anchor="middle" x="328" y="-308.305" font-family="Futura" font-size="11.00">include/fa/signal.h</text>
</g>
<!-- Node2 -->
<g id="node3" class="node"><title>Node2</title>
<a xlink:href="action_8h.html" target="_top" xlink:title="include/fa/action.h">
<polygon fill="none" stroke="black" points="178.746,-240.695 178.746,-263.305 291.254,-263.305 291.254,-240.695 178.746,-240.695"/>
<text text-anchor="middle" x="235" y="-248.305" font-family="Futura" font-size="11.00">include/fa/action.h</text>
</a>
</g>
<!-- Node1&#45;&gt;Node2 -->
<g id="edge2" class="edge"><title>Node1&#45;&gt;Node2</title>
<path fill="none" stroke="midnightblue" d="M302.442,-295.061C286.303,-284.996 265.91,-272.277 251.796,-263.475"/>
<polygon fill="midnightblue" stroke="midnightblue" points="301.036,-298.309 311.373,-300.631 304.74,-292.369 301.036,-298.309"/>
</g>
<!-- Node3 -->
<g id="node5" class="node"><title>Node3</title>
<a xlink:href="audio_8h.html" target="_top" xlink:title="include/fa/audio.h">
<polygon fill="none" stroke="black" points="86.592,-180.695 86.592,-203.305 197.408,-203.305 197.408,-180.695 86.592,-180.695"/>
<text text-anchor="middle" x="142" y="-188.305" font-family="Futura" font-size="11.00">include/fa/audio.h</text>
</a>
</g>
<!-- Node1&#45;&gt;Node3 -->
<g id="edge42" class="edge"><title>Node1&#45;&gt;Node3</title>
<path fill="none" stroke="midnightblue" d="M261.978,-304.75C230.799,-298.724 195.028,-286.951 170,-264 152.324,-247.791 145.646,-219.01 143.25,-203.537"/>
<polygon fill="midnightblue" stroke="midnightblue" points="261.462,-308.213 271.92,-306.511 262.684,-301.32 261.462,-308.213"/>
</g>
<!-- Node4 -->
<g id="node7" class="node"><title>Node4</title>
<a xlink:href="fa_2fa_8h.html" target="_top" xlink:title="include/fa/fa.h">
<polygon fill="none" stroke="red" points="252.846,-120.695 252.846,-143.305 345.154,-143.305 345.154,-120.695 252.846,-120.695"/>
<text text-anchor="middle" x="299" y="-128.305" font-family="Futura" font-size="11.00">include/fa/fa.h</text>
</a>
</g>
<!-- Node1&#45;&gt;Node4 -->
<g id="edge44" class="edge"><title>Node1&#45;&gt;Node4</title>
<path fill="none" stroke="midnightblue" d="M320.222,-290.75C310.674,-252.757 297.889,-172.036 297.309,-143.368"/>
<polygon fill="midnightblue" stroke="midnightblue" points="316.919,-291.942 322.94,-300.661 323.67,-290.091 316.919,-291.942"/>
</g>
<!-- Node2&#45;&gt;Node3 -->
<g id="edge4" class="edge"><title>Node2&#45;&gt;Node3</title>
<path fill="none" stroke="midnightblue" d="M209.442,-235.061C193.303,-224.996 172.91,-212.277 158.796,-203.475"/>
<polygon fill="midnightblue" stroke="midnightblue" points="208.036,-238.309 218.373,-240.631 211.74,-232.369 208.036,-238.309"/>
</g>
<!-- Node2&#45;&gt;Node4 -->
<g id="edge40" class="edge"><title>Node2&#45;&gt;Node4</title>
<path fill="none" stroke="midnightblue" d="M240.538,-231.21C251.811,-206.007 275.315,-163.363 289.171,-143.618"/>
<polygon fill="midnightblue" stroke="midnightblue" points="237.27,-229.953 236.633,-240.528 243.726,-232.658 237.27,-229.953"/>
</g>
<!-- Node3&#45;&gt;Node4 -->
<g id="edge6" class="edge"><title>Node3&#45;&gt;Node4</title>
<path fill="none" stroke="midnightblue" d="M179.559,-177.125C207.637,-166.752 245.419,-152.794 270.91,-143.377"/>
<polygon fill="midnightblue" stroke="midnightblue" points="178.236,-173.882 170.068,-180.631 180.662,-180.448 178.236,-173.882"/>
</g>
<!-- Node4&#45;&gt;Node1 -->
<g id="edge38" class="edge"><title>Node4&#45;&gt;Node1</title>
<path fill="none" stroke="midnightblue" d="M306.788,-153.288C316.338,-191.309 329.12,-272.027 329.691,-300.661"/>
<polygon fill="midnightblue" stroke="midnightblue" points="310.088,-152.087 304.069,-143.368 303.337,-153.937 310.088,-152.087"/>
</g>
<!-- Node4&#45;&gt;Node2 -->
<g id="edge8" class="edge"><title>Node4&#45;&gt;Node2</title>
<path fill="none" stroke="midnightblue" d="M293.378,-152.978C282.045,-178.267 258.535,-220.897 244.727,-240.528"/>
<polygon fill="midnightblue" stroke="midnightblue" points="296.664,-154.193 297.312,-143.618 290.21,-151.481 296.664,-154.193"/>
</g>
<!-- Node5 -->
<g id="node10" class="node"><title>Node5</title>
<a xlink:href="buffer_8h.html" target="_top" xlink:title="include/fa/buffer.h">
<polygon fill="none" stroke="red" points="550.227,-60.6953 550.227,-83.3047 661.773,-83.3047 661.773,-60.6953 550.227,-60.6953"/>
<text text-anchor="middle" x="606" y="-68.3047" font-family="Futura" font-size="11.00">include/fa/buffer.h</text>
</a>
</g>
<!-- Node4&#45;&gt;Node5 -->
<g id="edge10" class="edge"><title>Node4&#45;&gt;Node5</title>
<path fill="none" stroke="midnightblue" d="M355.362,-120.352C411.168,-109.809 496.053,-93.7718 551.28,-83.338"/>
<polygon fill="midnightblue" stroke="midnightblue" points="354.47,-116.958 345.293,-122.254 355.769,-123.837 354.47,-116.958"/>
</g>
<!-- Node6 -->
<g id="node13" class="node"><title>Node6</title>
<a xlink:href="device_8h.html" target="_top" xlink:title="include/fa/device.h">
<polygon fill="none" stroke="red" points="-0.183105,-60.6953 -0.183105,-83.3047 114.183,-83.3047 114.183,-60.6953 -0.183105,-60.6953"/>
<text text-anchor="middle" x="57" y="-68.3047" font-family="Futura" font-size="11.00">include/fa/device.h</text>
</a>
</g>
<!-- Node4&#45;&gt;Node6 -->
<g id="edge14" class="edge"><title>Node4&#45;&gt;Node6</title>
<path fill="none" stroke="midnightblue" d="M245.862,-118.264C202.176,-107.794 141.048,-93.1437 100.297,-83.3771"/>
<polygon fill="midnightblue" stroke="midnightblue" points="245.195,-121.704 255.735,-120.631 246.826,-114.896 245.195,-121.704"/>
</g>
<!-- Node7 -->
<g id="node16" class="node"><title>Node7</title>
<a xlink:href="dynamic_8h.html" target="_top" xlink:title="include/fa/dynamic.h">
<polygon fill="none" stroke="black" points="369.918,-60.6953 369.918,-83.3047 494.082,-83.3047 494.082,-60.6953 369.918,-60.6953"/>
<text text-anchor="middle" x="432" y="-68.3047" font-family="Futura" font-size="11.00">include/fa/dynamic.h</text>
</a>
</g>
<!-- Node4&#45;&gt;Node7 -->
<g id="edge18" class="edge"><title>Node4&#45;&gt;Node7</title>
<path fill="none" stroke="midnightblue" d="M332.041,-116.591C355.609,-106.314 386.758,-92.7296 407.98,-83.475"/>
<polygon fill="midnightblue" stroke="midnightblue" points="330.545,-113.425 322.778,-120.631 333.343,-119.842 330.545,-113.425"/>
</g>
<!-- Node8 -->
<g id="node18" class="node"><title>Node8</title>
<a xlink:href="error_8h.html" target="_top" xlink:title="include/fa/error.h">
<polygon fill="none" stroke="red" points="245.598,-60.6953 245.598,-83.3047 352.402,-83.3047 352.402,-60.6953 245.598,-60.6953"/>
<text text-anchor="middle" x="299" y="-68.3047" font-family="Futura" font-size="11.00">include/fa/error.h</text>
</a>
</g>
<!-- Node4&#45;&gt;Node8 -->
<g id="edge20" class="edge"><title>Node4&#45;&gt;Node8</title>
<path fill="none" stroke="midnightblue" d="M292.512,-110.459C291.936,-101.411 292.309,-91.1602 293.63,-83.6719"/>
<polygon fill="midnightblue" stroke="midnightblue" points="289.062,-111.097 293.684,-120.631 296.016,-110.296 289.062,-111.097"/>
</g>
<!-- Node9 -->
<g id="node22" class="node"><title>Node9</title>
<a xlink:href="list_8h.html" target="_top" xlink:title="include/fa/list.h">
<polygon fill="none" stroke="red" points="132.385,-60.6953 132.385,-83.3047 227.615,-83.3047 227.615,-60.6953 132.385,-60.6953"/>
<text text-anchor="middle" x="180" y="-68.3047" font-family="Futura" font-size="11.00">include/fa/list.h</text>
</a>
</g>
<!-- Node4&#45;&gt;Node9 -->
<g id="edge26" class="edge"><title>Node4&#45;&gt;Node9</title>
<path fill="none" stroke="midnightblue" d="M263.214,-116.454C240.909,-106.193 213.404,-92.6885 196.157,-83.475"/>
<polygon fill="midnightblue" stroke="midnightblue" points="261.857,-119.682 272.409,-120.631 264.752,-113.308 261.857,-119.682"/>
</g>
<!-- Node10 -->
<g id="node27" class="node"><title>Node10</title>
<a xlink:href="map_8h.html" target="_top" xlink:title="include/fa/map.h">
<polygon fill="none" stroke="red" points="298.914,-0.695312 298.914,-23.3047 403.086,-23.3047 403.086,-0.695312 298.914,-0.695312"/>
<text text-anchor="middle" x="351" y="-8.30469" font-family="Futura" font-size="11.00">include/fa/map.h</text>
</a>
</g>
<!-- Node4&#45;&gt;Node10 -->
<g id="edge36" class="edge"><title>Node4&#45;&gt;Node10</title>
<path fill="none" stroke="midnightblue" d="M355.73,-125.748C409.568,-119.45 484.875,-106.776 503,-84 533.469,-45.7128 458.487,-27.1004 403.336,-18.8285"/>
<polygon fill="midnightblue" stroke="midnightblue" points="355.156,-122.29 345.61,-126.887 355.939,-129.246 355.156,-122.29"/>
</g>
<!-- Node5&#45;&gt;Node1 -->
<g id="edge12" class="edge"><title>Node5&#45;&gt;Node1</title>
<path fill="none" stroke="midnightblue" d="M585.996,-90.1255C531.925,-136.417 383.992,-263.064 340.304,-300.466"/>
<polygon fill="midnightblue" stroke="midnightblue" points="588.518,-92.5742 593.838,-83.412 583.965,-87.2567 588.518,-92.5742"/>
</g>
<!-- Node6&#45;&gt;Node3 -->
<g id="edge16" class="edge"><title>Node6&#45;&gt;Node3</title>
<path fill="none" stroke="midnightblue" d="M70.6687,-91.9754C88.7856,-117.126 120.127,-160.635 134.457,-180.528"/>
<polygon fill="midnightblue" stroke="midnightblue" points="73.3333,-89.6862 64.6485,-83.6179 67.6534,-93.7776 73.3333,-89.6862"/>
</g>
<!-- Node8&#45;&gt;Node3 -->
<g id="edge22" class="edge"><title>Node8&#45;&gt;Node3</title>
<path fill="none" stroke="midnightblue" d="M276.764,-89.7121C243.874,-114.432 183.213,-160.024 155.933,-180.528"/>
<polygon fill="midnightblue" stroke="midnightblue" points="278.982,-92.4239 284.873,-83.6179 274.776,-86.8282 278.982,-92.4239"/>
</g>
<!-- Node8&#45;&gt;Node4 -->
<g id="edge24" class="edge"><title>Node8&#45;&gt;Node4</title>
<path fill="none" stroke="midnightblue" d="M305.492,-93.6107C306.069,-102.764 305.677,-113.137 304.316,-120.631"/>
<polygon fill="midnightblue" stroke="midnightblue" points="308.97,-93.2159 304.37,-83.6719 302.014,-94.0015 308.97,-93.2159"/>
</g>
<!-- Node9&#45;&gt;Node2 -->
<g id="edge28" class="edge"><title>Node9&#45;&gt;Node2</title>
<path fill="none" stroke="midnightblue" d="M186.269,-93.2881C198.017,-131.309 222.958,-212.027 231.805,-240.661"/>
<polygon fill="midnightblue" stroke="midnightblue" points="189.5,-91.889 183.204,-83.368 182.812,-93.9555 189.5,-91.889"/>
</g>
<!-- Node9&#45;&gt;Node3 -->
<g id="edge30" class="edge"><title>Node9&#45;&gt;Node3</title>
<path fill="none" stroke="midnightblue" d="M173.458,-93.3159C165.301,-118.645 151.666,-160.984 145.372,-180.528"/>
<polygon fill="midnightblue" stroke="midnightblue" points="176.847,-94.2094 176.581,-83.6179 170.184,-92.0636 176.847,-94.2094"/>
</g>
<!-- Node9&#45;&gt;Node4 -->
<g id="edge32" class="edge"><title>Node9&#45;&gt;Node4</title>
<path fill="none" stroke="midnightblue" d="M216.043,-87.6644C238.387,-97.9501 265.873,-111.45 283.041,-120.631"/>
<polygon fill="midnightblue" stroke="midnightblue" points="217.379,-84.427 206.827,-83.475 214.482,-90.7995 217.379,-84.427"/>
</g>
<!-- Node9&#45;&gt;Node10 -->
<g id="edge34" class="edge"><title>Node9&#45;&gt;Node10</title>
<path fill="none" stroke="midnightblue" d="M220.11,-57.3955C250.771,-46.9959 292.399,-32.8764 320.406,-23.3771"/>
<polygon fill="midnightblue" stroke="midnightblue" points="218.917,-54.1041 210.571,-60.6308 221.166,-60.7332 218.917,-54.1041"/>
</g>
</g>
</svg>
