<?xml version="1.0" encoding="UTF-8" standalone="no"?>
<!DOCTYPE svg PUBLIC "-//W3C//DTD SVG 1.1//EN"
 "http://www.w3.org/Graphics/SVG/1.1/DTD/svg11.dtd">
<!-- Generated by graphviz version 2.28.0 (20121015.0031)
 -->
<!-- Title: include/fa/system.h Pages: 1 -->
<svg width="738pt" height="272pt"
 viewBox="0.00 0.00 738.00 272.00" xmlns="http://www.w3.org/2000/svg" xmlns:xlink="http://www.w3.org/1999/xlink">
<g id="graph1" class="graph" transform="scale(1 1) rotate(0) translate(4 268)">
<title>include/fa/system.h</title>
<!-- Node1 -->
<g id="node1" class="node"><title>Node1</title>
<polygon fill="#bfbfbf" stroke="black" points="202.462,-240.695 202.462,-263.305 317.538,-263.305 317.538,-240.695 202.462,-240.695"/>
<text text-anchor="middle" x="260" y="-248.305" font-family="Futura" font-size="11.00">include/fa/system.h</text>
</g>
<!-- Node2 -->
<g id="node3" class="node"><title>Node2</title>
<a xlink:href="fa_2fa_8h.html" target="_top" xlink:title="include/fa/fa.h">
<polygon fill="none" stroke="red" points="213.846,-180.695 213.846,-203.305 306.154,-203.305 306.154,-180.695 213.846,-180.695"/>
<text text-anchor="middle" x="260" y="-188.305" font-family="Futura" font-size="11.00">include/fa/fa.h</text>
</a>
</g>
<!-- Node1&#45;&gt;Node2 -->
<g id="edge2" class="edge"><title>Node1&#45;&gt;Node2</title>
<path fill="none" stroke="midnightblue" d="M260,-230.459C260,-221.411 260,-211.16 260,-203.672"/>
<polygon fill="midnightblue" stroke="midnightblue" points="256.5,-230.631 260,-240.631 263.5,-230.631 256.5,-230.631"/>
</g>
<!-- Node3 -->
<g id="node5" class="node"><title>Node3</title>
<a xlink:href="action_8h.html" target="_top" xlink:title="include/fa/action.h">
<polygon fill="none" stroke="red" points="-0.253906,-0.695312 -0.253906,-23.3047 112.254,-23.3047 112.254,-0.695312 -0.253906,-0.695312"/>
<text text-anchor="middle" x="56" y="-8.30469" font-family="Futura" font-size="11.00">include/fa/action.h</text>
</a>
</g>
<!-- Node2&#45;&gt;Node3 -->
<g id="edge4" class="edge"><title>Node2&#45;&gt;Node3</title>
<path fill="none" stroke="midnightblue" d="M203.831,-189.279C165.601,-185.41 116.728,-174.366 86,-144 51.9055,-110.307 47.3342,-48.2227 51.3443,-23.5299"/>
<polygon fill="midnightblue" stroke="midnightblue" points="203.538,-192.767 213.805,-190.153 204.149,-185.793 203.538,-192.767"/>
</g>
<!-- Node4 -->
<g id="node8" class="node"><title>Node4</title>
<a xlink:href="buffer_8h.html" target="_top" xlink:title="include/fa/buffer.h">
<polygon fill="none" stroke="red" points="266.227,-0.695312 266.227,-23.3047 377.773,-23.3047 377.773,-0.695312 266.227,-0.695312"/>
<text text-anchor="middle" x="322" y="-8.30469" font-family="Futura" font-size="11.00">include/fa/buffer.h</text>
</a>
</g>
<!-- Node2&#45;&gt;Node4 -->
<g id="edge8" class="edge"><title>Node2&#45;&gt;Node4</title>
<path fill="none" stroke="midnightblue" d="M278.084,-173.033C285.349,-164.826 293.139,-154.584 298,-144 317.204,-102.187 321.054,-46.2218 321.817,-23.3725"/>
<polygon fill="midnightblue" stroke="midnightblue" points="275.383,-170.798 271.122,-180.498 280.502,-175.572 275.383,-170.798"/>
</g>
<!-- Node5 -->
<g id="node10" class="node"><title>Node5</title>
<a xlink:href="device_8h.html" target="_top" xlink:title="include/fa/device.h">
<polygon fill="none" stroke="red" points="349.817,-120.695 349.817,-143.305 464.183,-143.305 464.183,-120.695 349.817,-120.695"/>
<text text-anchor="middle" x="407" y="-128.305" font-family="Futura" font-size="11.00">include/fa/device.h</text>
</a>
</g>
<!-- Node2&#45;&gt;Node5 -->
<g id="edge10" class="edge"><title>Node2&#45;&gt;Node5</title>
<path fill="none" stroke="midnightblue" d="M295.827,-176.864C321.955,-166.555 356.787,-152.812 380.451,-143.475"/>
<polygon fill="midnightblue" stroke="midnightblue" points="294.298,-173.705 286.281,-180.631 296.867,-180.216 294.298,-173.705"/>
</g>
<!-- Node6 -->
<g id="node12" class="node"><title>Node6</title>
<a xlink:href="dynamic_8h.html" target="_top" xlink:title="include/fa/dynamic.h">
<polygon fill="none" stroke="black" points="481.918,-120.695 481.918,-143.305 606.082,-143.305 606.082,-120.695 481.918,-120.695"/>
<text text-anchor="middle" x="544" y="-128.305" font-family="Futura" font-size="11.00">include/fa/dynamic.h</text>
</a>
</g>
<!-- Node2&#45;&gt;Node6 -->
<g id="edge12" class="edge"><title>Node2&#45;&gt;Node6</title>
<path fill="none" stroke="midnightblue" d="M316.251,-179.512C367.883,-168.968 443.695,-153.485 493.445,-143.325"/>
<polygon fill="midnightblue" stroke="midnightblue" points="315.359,-176.122 306.262,-181.552 316.76,-182.98 315.359,-176.122"/>
</g>
<!-- Node7 -->
<g id="node14" class="node"><title>Node7</title>
<a xlink:href="error_8h.html" target="_top" xlink:title="include/fa/error.h">
<polygon fill="none" stroke="red" points="623.598,-120.695 623.598,-143.305 730.402,-143.305 730.402,-120.695 623.598,-120.695"/>
<text text-anchor="middle" x="677" y="-128.305" font-family="Futura" font-size="11.00">include/fa/error.h</text>
</a>
</g>
<!-- Node2&#45;&gt;Node7 -->
<g id="edge14" class="edge"><title>Node2&#45;&gt;Node7</title>
<path fill="none" stroke="midnightblue" d="M316.443,-183.509C385.053,-174.861 504.026,-159.789 606,-144 611.618,-143.13 617.511,-142.16 623.412,-141.166"/>
<polygon fill="midnightblue" stroke="midnightblue" points="315.768,-180.066 306.284,-184.789 316.643,-187.012 315.768,-180.066"/>
</g>
<!-- Node8 -->
<g id="node17" class="node"><title>Node8</title>
<a xlink:href="list_8h.html" target="_top" xlink:title="include/fa/list.h">
<polygon fill="none" stroke="red" points="104.385,-120.695 104.385,-143.305 199.615,-143.305 199.615,-120.695 104.385,-120.695"/>
<text text-anchor="middle" x="152" y="-128.305" font-family="Futura" font-size="11.00">include/fa/list.h</text>
</a>
</g>
<!-- Node2&#45;&gt;Node8 -->
<g id="edge18" class="edge"><title>Node2&#45;&gt;Node8</title>
<path fill="none" stroke="midnightblue" d="M226.152,-176.04C205.947,-165.832 181.462,-152.565 166.17,-143.475"/>
<polygon fill="midnightblue" stroke="midnightblue" points="224.864,-179.308 235.376,-180.631 227.983,-173.042 224.864,-179.308"/>
</g>
<!-- Node9 -->
<g id="node21" class="node"><title>Node9</title>
<a xlink:href="map_8h.html" target="_top" xlink:title="include/fa/map.h">
<polygon fill="none" stroke="red" points="143.914,-0.695312 143.914,-23.3047 248.086,-23.3047 248.086,-0.695312 143.914,-0.695312"/>
<text text-anchor="middle" x="196" y="-8.30469" font-family="Futura" font-size="11.00">include/fa/map.h</text>
</a>
</g>
<!-- Node2&#45;&gt;Node9 -->
<g id="edge36" class="edge"><title>Node2&#45;&gt;Node9</title>
<path fill="none" stroke="midnightblue" d="M266.515,-170.501C273.844,-143.478 282.483,-95.244 264,-60 255.135,-43.0966 237.127,-31.071 221.869,-23.4173"/>
<polygon fill="midnightblue" stroke="midnightblue" points="263.075,-169.793 263.634,-180.373 269.795,-171.753 263.075,-169.793"/>
</g>
<!-- Node10 -->
<g id="node23" class="node"><title>Node10</title>
<a xlink:href="pair_8h.html" target="_top" xlink:title="include/fa/pair.h">
<polygon fill="none" stroke="red" points="154.131,-60.6953 154.131,-83.3047 255.869,-83.3047 255.869,-60.6953 154.131,-60.6953"/>
<text text-anchor="middle" x="205" y="-68.3047" font-family="Futura" font-size="11.00">include/fa/pair.h</text>
</a>
</g>
<!-- Node2&#45;&gt;Node10 -->
<g id="edge38" class="edge"><title>Node2&#45;&gt;Node10</title>
<path fill="none" stroke="midnightblue" d="M245.956,-171.878C231.784,-146.767 211.989,-103.538 205.879,-83.6179"/>
<polygon fill="midnightblue" stroke="midnightblue" points="242.969,-173.703 251.072,-180.528 248.994,-170.139 242.969,-173.703"/>
</g>
<!-- Node3&#45;&gt;Node2 -->
<g id="edge6" class="edge"><title>Node3&#45;&gt;Node2</title>
<path fill="none" stroke="midnightblue" d="M62.2374,-33.6456C66.811,-62.3839 73.9009,-114.256 104,-144 133.342,-172.997 179.231,-184.375 213.748,-188.711"/>
<polygon fill="midnightblue" stroke="midnightblue" points="65.6425,-32.7937 60.5012,-23.5299 58.7434,-33.9779 65.6425,-32.7937"/>
</g>
<!-- Node7&#45;&gt;Node2 -->
<g id="edge16" class="edge"><title>Node7&#45;&gt;Node2</title>
<path fill="none" stroke="midnightblue" d="M618.214,-144.876C502.924,-162.512 373.958,-178.486 306.43,-186.188"/>
<polygon fill="midnightblue" stroke="midnightblue" points="618.907,-148.311 628.258,-143.33 617.842,-141.392 618.907,-148.311"/>
</g>
<!-- Node8&#45;&gt;Node2 -->
<g id="edge22" class="edge"><title>Node8&#45;&gt;Node2</title>
<path fill="none" stroke="midnightblue" d="M185.809,-147.941C206.1,-158.191 230.718,-171.532 246.008,-180.631"/>
<polygon fill="midnightblue" stroke="midnightblue" points="187.352,-144.799 176.84,-143.475 184.232,-151.065 187.352,-144.799"/>
</g>
<!-- Node8&#45;&gt;Node3 -->
<g id="edge20" class="edge"><title>Node8&#45;&gt;Node3</title>
<path fill="none" stroke="midnightblue" d="M136.979,-112.537C116.635,-87.5302 80.9875,-43.7138 64.6383,-23.6179"/>
<polygon fill="midnightblue" stroke="midnightblue" points="134.455,-114.98 143.481,-120.528 139.885,-110.562 134.455,-114.98"/>
</g>
<!-- Node8&#45;&gt;Node9 -->
<g id="edge24" class="edge"><title>Node8&#45;&gt;Node9</title>
<path fill="none" stroke="midnightblue" d="M144.84,-110.768C140.85,-96.086 137.958,-76.0663 145,-60 151.864,-44.3405 166.805,-31.5924 178.75,-23.3439"/>
<polygon fill="midnightblue" stroke="midnightblue" points="141.515,-111.862 147.813,-120.382 148.202,-109.794 141.515,-111.862"/>
</g>
<!-- Node8&#45;&gt;Node10 -->
<g id="edge26" class="edge"><title>Node8&#45;&gt;Node10</title>
<path fill="none" stroke="midnightblue" d="M168.353,-113.104C177.16,-103.466 187.729,-91.9008 195.248,-83.6719"/>
<polygon fill="midnightblue" stroke="midnightblue" points="165.637,-110.888 161.475,-120.631 170.805,-115.61 165.637,-110.888"/>
</g>
<!-- Node10&#45;&gt;Node2 -->
<g id="edge32" class="edge"><title>Node10&#45;&gt;Node2</title>
<path fill="none" stroke="midnightblue" d="M219.148,-92.3074C233.348,-117.507 253.123,-160.722 259.166,-180.528"/>
<polygon fill="midnightblue" stroke="midnightblue" points="222.117,-90.4506 214.019,-83.6179 216.088,-94.0087 222.117,-90.4506"/>
</g>
<!-- Node10&#45;&gt;Node3 -->
<g id="edge28" class="edge"><title>Node10&#45;&gt;Node3</title>
<path fill="none" stroke="midnightblue" d="M169.005,-56.9885C142.394,-46.63 106.745,-32.753 82.6584,-23.3771"/>
<polygon fill="midnightblue" stroke="midnightblue" points="167.773,-60.2648 178.362,-60.6308 170.313,-53.7416 167.773,-60.2648"/>
</g>
<!-- Node10&#45;&gt;Node4 -->
<g id="edge30" class="edge"><title>Node10&#45;&gt;Node4</title>
<path fill="none" stroke="midnightblue" d="M234.899,-56.1782C255.528,-45.952 282.45,-32.6062 300.869,-23.475"/>
<polygon fill="midnightblue" stroke="midnightblue" points="233.322,-53.0534 225.917,-60.6308 236.431,-59.3251 233.322,-53.0534"/>
</g>
<!-- Node10&#45;&gt;Node9 -->
<g id="edge34" class="edge"><title>Node10&#45;&gt;Node9</title>
<path fill="none" stroke="midnightblue" d="M201.813,-50.4586C200.409,-41.4112 198.818,-31.1602 197.656,-23.6719"/>
<polygon fill="midnightblue" stroke="midnightblue" points="198.399,-51.2857 203.391,-60.6308 205.316,-50.2123 198.399,-51.2857"/>
</g>
</g>
</svg>
