<?xml version="1.0" encoding="UTF-8" standalone="no"?>
<!DOCTYPE svg PUBLIC "-//W3C//DTD SVG 1.1//EN"
 "http://www.w3.org/Graphics/SVG/1.1/DTD/svg11.dtd">
<!-- Generated by graphviz version 2.28.0 (20121015.0031)
 -->
<!-- Title: include/fa/map.h Pages: 1 -->
<svg width="731pt" height="272pt"
 viewBox="0.00 0.00 731.19 272.00" xmlns="http://www.w3.org/2000/svg" xmlns:xlink="http://www.w3.org/1999/xlink">
<g id="graph1" class="graph" transform="scale(1 1) rotate(0) translate(4 268)">
<title>include/fa/map.h</title>
<!-- Node1 -->
<g id="node1" class="node"><title>Node1</title>
<polygon fill="#bfbfbf" stroke="black" points="590.914,-240.695 590.914,-263.305 695.086,-263.305 695.086,-240.695 590.914,-240.695"/>
<text text-anchor="middle" x="643" y="-248.305" font-family="Futura" font-size="11.00">include/fa/map.h</text>
</g>
<!-- Node2 -->
<g id="node3" class="node"><title>Node2</title>
<a xlink:href="fa_2fa_8h.html" target="_top" xlink:title="fa.h">
<polygon fill="none" stroke="red" points="532.273,-120.695 532.273,-143.305 567.727,-143.305 567.727,-120.695 532.273,-120.695"/>
<text text-anchor="middle" x="550" y="-128.305" font-family="Futura" font-size="11.00">fa.h</text>
</a>
</g>
<!-- Node1&#45;&gt;Node2 -->
<g id="edge2" class="edge"><title>Node1&#45;&gt;Node2</title>
<path fill="none" stroke="midnightblue" d="M617.181,-240.527C601.072,-232.728 581.158,-220.563 569,-204 558.185,-189.266 553.524,-168.793 551.517,-153.616"/>
<polygon fill="midnightblue" stroke="midnightblue" points="554.996,-153.239 550.474,-143.658 548.034,-153.968 554.996,-153.239"/>
</g>
<!-- Node8 -->
<g id="node15" class="node"><title>Node8</title>
<a xlink:href="pair_8h.html" target="_top" xlink:title="fa/pair.h">
<polygon fill="none" stroke="black" points="643.694,-60.6953 643.694,-83.3047 704.306,-83.3047 704.306,-60.6953 643.694,-60.6953"/>
<text text-anchor="middle" x="674" y="-68.3047" font-family="Futura" font-size="11.00">fa/pair.h</text>
</a>
</g>
<!-- Node1&#45;&gt;Node8 -->
<g id="edge24" class="edge"><title>Node1&#45;&gt;Node8</title>
<path fill="none" stroke="midnightblue" d="M645.988,-240.619C648.635,-231.143 652.462,-216.718 655,-204 662.719,-165.326 668.627,-119.637 671.683,-93.715"/>
<polygon fill="midnightblue" stroke="midnightblue" points="675.182,-93.9276 672.85,-83.5927 668.228,-93.1264 675.182,-93.9276"/>
</g>
<!-- Node9 -->
<g id="node18" class="node"><title>Node9</title>
<a xlink:href="list_8h.html" target="_top" xlink:title="fa/list.h">
<polygon fill="none" stroke="black" points="612.949,-0.695312 612.949,-23.3047 667.051,-23.3047 667.051,-0.695312 612.949,-0.695312"/>
<text text-anchor="middle" x="640" y="-8.30469" font-family="Futura" font-size="11.00">fa/list.h</text>
</a>
</g>
<!-- Node1&#45;&gt;Node9 -->
<g id="edge26" class="edge"><title>Node1&#45;&gt;Node9</title>
<path fill="none" stroke="midnightblue" d="M652.786,-240.602C679.323,-211.098 748.347,-124.798 713,-60 705.065,-45.4547 690.486,-34.735 676.431,-27.2374"/>
<polygon fill="midnightblue" stroke="midnightblue" points="677.863,-24.0415 667.345,-22.7678 674.773,-30.3226 677.863,-24.0415"/>
</g>
<!-- Node10 -->
<g id="node24" class="node"><title>Node10</title>
<a xlink:href="string_8h.html" target="_top" xlink:title="fa/string.h">
<polygon fill="none" stroke="black" points="577.87,-180.695 577.87,-203.305 646.13,-203.305 646.13,-180.695 577.87,-180.695"/>
<text text-anchor="middle" x="612" y="-188.305" font-family="Futura" font-size="11.00">fa/string.h</text>
</a>
</g>
<!-- Node1&#45;&gt;Node10 -->
<g id="edge28" class="edge"><title>Node1&#45;&gt;Node10</title>
<path fill="none" stroke="midnightblue" d="M637.458,-240.631C633.322,-232.892 627.545,-222.084 622.54,-212.719"/>
<polygon fill="midnightblue" stroke="midnightblue" points="625.505,-210.841 617.704,-203.672 619.331,-214.141 625.505,-210.841"/>
</g>
<!-- Node3 -->
<g id="node5" class="node"><title>Node3</title>
<polygon fill="none" stroke="#bfbfbf" points="-0.0629883,-60.6953 -0.0629883,-83.3047 74.063,-83.3047 74.063,-60.6953 -0.0629883,-60.6953"/>
<text text-anchor="middle" x="37" y="-68.3047" font-family="Futura" font-size="11.00">fa/atomic.h</text>
</g>
<!-- Node2&#45;&gt;Node3 -->
<g id="edge4" class="edge"><title>Node2&#45;&gt;Node3</title>
<path fill="none" stroke="midnightblue" d="M532.07,-130.066C470.824,-126.693 264.198,-113.823 83.9882,-83.9811"/>
<polygon fill="midnightblue" stroke="midnightblue" points="84.5105,-80.5198 74.0691,-82.3166 83.352,-87.4233 84.5105,-80.5198"/>
</g>
<!-- Node4 -->
<g id="node7" class="node"><title>Node4</title>
<polygon fill="none" stroke="#bfbfbf" points="91.6484,-60.6953 91.6484,-83.3047 202.352,-83.3047 202.352,-60.6953 91.6484,-60.6953"/>
<text text-anchor="middle" x="147" y="-68.3047" font-family="Futura" font-size="11.00">fa/atomic/queue.h</text>
</g>
<!-- Node2&#45;&gt;Node4 -->
<g id="edge6" class="edge"><title>Node2&#45;&gt;Node4</title>
<path fill="none" stroke="midnightblue" d="M531.962,-128.709C482.585,-122.393 340.866,-103.97 212.489,-84.1977"/>
<polygon fill="midnightblue" stroke="midnightblue" points="212.903,-80.72 202.485,-82.6498 211.832,-87.6377 212.903,-80.72"/>
</g>
<!-- Node5 -->
<g id="node9" class="node"><title>Node5</title>
<polygon fill="none" stroke="#bfbfbf" points="220.42,-60.6953 220.42,-83.3047 325.58,-83.3047 325.58,-60.6953 220.42,-60.6953"/>
<text text-anchor="middle" x="273" y="-68.3047" font-family="Futura" font-size="11.00">fa/atomic/stack.h</text>
</g>
<!-- Node2&#45;&gt;Node5 -->
<g id="edge8" class="edge"><title>Node2&#45;&gt;Node5</title>
<path fill="none" stroke="midnightblue" d="M532.251,-127.284C492.694,-119.001 395.792,-98.711 332.313,-85.4194"/>
<polygon fill="midnightblue" stroke="midnightblue" points="332.931,-81.9729 322.426,-83.3491 331.496,-88.8243 332.931,-81.9729"/>
</g>
<!-- Node6 -->
<g id="node11" class="node"><title>Node6</title>
<polygon fill="none" stroke="#bfbfbf" points="343.526,-60.6953 343.526,-83.3047 478.474,-83.3047 478.474,-60.6953 343.526,-60.6953"/>
<text text-anchor="middle" x="411" y="-68.3047" font-family="Futura" font-size="11.00">fa/atomic/ring_buffer.h</text>
</g>
<!-- Node2&#45;&gt;Node6 -->
<g id="edge10" class="edge"><title>Node2&#45;&gt;Node6</title>
<path fill="none" stroke="midnightblue" d="M532.113,-123.536C510.206,-114.395 472.624,-98.7138 445.122,-87.238"/>
<polygon fill="midnightblue" stroke="midnightblue" points="446.433,-83.9927 435.857,-83.3719 443.738,-90.4529 446.433,-83.9927"/>
</g>
<!-- Node7 -->
<g id="node13" class="node"><title>Node7</title>
<polygon fill="none" stroke="#bfbfbf" points="496.026,-60.6953 496.026,-83.3047 569.974,-83.3047 569.974,-60.6953 496.026,-60.6953"/>
<text text-anchor="middle" x="533" y="-68.3047" font-family="Futura" font-size="11.00">fa/system.h</text>
</g>
<!-- Node2&#45;&gt;Node7 -->
<g id="edge12" class="edge"><title>Node2&#45;&gt;Node7</title>
<path fill="none" stroke="midnightblue" d="M546.961,-120.631C544.74,-113.055 541.658,-102.538 538.954,-93.3126"/>
<polygon fill="midnightblue" stroke="midnightblue" points="542.299,-92.2837 536.128,-83.6719 535.582,-94.2526 542.299,-92.2837"/>
</g>
<!-- Node2&#45;&gt;Node8 -->
<g id="edge14" class="edge"><title>Node2&#45;&gt;Node8</title>
<path fill="none" stroke="midnightblue" d="M566.853,-120.631C584.893,-111.409 613.718,-97.8294 637.004,-87.5268"/>
<polygon fill="midnightblue" stroke="midnightblue" points="638.51,-90.6882 646.27,-83.475 635.706,-84.2745 638.51,-90.6882"/>
</g>
<!-- Node2&#45;&gt;Node9 -->
<g id="edge22" class="edge"><title>Node2&#45;&gt;Node9</title>
<path fill="none" stroke="midnightblue" d="M553.94,-120.528C566.015,-100.461 599.316,-56.3607 620.978,-31.3178"/>
<polygon fill="midnightblue" stroke="midnightblue" points="623.798,-33.4148 627.831,-23.6179 618.569,-28.7611 623.798,-33.4148"/>
</g>
<!-- Node8&#45;&gt;Node2 -->
<g id="edge16" class="edge"><title>Node8&#45;&gt;Node2</title>
<path fill="none" stroke="midnightblue" d="M657.064,-83.4116C636.42,-93.9606 601.734,-110.181 577.341,-120.693"/>
<polygon fill="midnightblue" stroke="midnightblue" points="575.754,-117.563 567.908,-124.683 578.481,-124.011 575.754,-117.563"/>
</g>
<!-- Node8&#45;&gt;Node9 -->
<g id="edge18" class="edge"><title>Node8&#45;&gt;Node9</title>
<path fill="none" stroke="midnightblue" d="M667.921,-60.6308C663.337,-52.8107 656.916,-41.8562 651.387,-32.4241"/>
<polygon fill="midnightblue" stroke="midnightblue" points="654.333,-30.5288 646.256,-23.6719 648.294,-34.0689 654.333,-30.5288"/>
</g>
<!-- Node9&#45;&gt;Node2 -->
<g id="edge20" class="edge"><title>Node9&#45;&gt;Node2</title>
<path fill="none" stroke="midnightblue" d="M635.972,-23.6179C623.795,-43.8016 590.47,-87.9133 568.864,-112.864"/>
<polygon fill="midnightblue" stroke="midnightblue" points="566.074,-110.734 562.034,-120.528 571.3,-115.391 566.074,-110.734"/>
</g>
<!-- Node10&#45;&gt;Node2 -->
<g id="edge30" class="edge"><title>Node10&#45;&gt;Node2</title>
<path fill="none" stroke="midnightblue" d="M600.916,-180.631C592.034,-172.322 579.369,-160.475 568.893,-150.675"/>
<polygon fill="midnightblue" stroke="midnightblue" points="571.102,-147.948 561.408,-143.672 566.32,-153.059 571.102,-147.948"/>
</g>
</g>
</svg>
