<?xml version="1.0" encoding="UTF-8" standalone="no"?>
<!DOCTYPE svg PUBLIC "-//W3C//DTD SVG 1.1//EN"
 "http://www.w3.org/Graphics/SVG/1.1/DTD/svg11.dtd">
<!-- Generated by graphviz version 2.28.0 (20121015.0031)
 -->
<!-- Title: include/fa/clock.h Pages: 1 -->
<svg width="698pt" height="332pt"
 viewBox="0.00 0.00 698.00 332.00" xmlns="http://www.w3.org/2000/svg" xmlns:xlink="http://www.w3.org/1999/xlink">
<g id="graph1" class="graph" transform="scale(1 1) rotate(0) translate(4 328)">
<title>include/fa/clock.h</title>
<!-- Node1 -->
<g id="node1" class="node"><title>Node1</title>
<polygon fill="#bfbfbf" stroke="black" points="303.978,-300.695 303.978,-323.305 412.022,-323.305 412.022,-300.695 303.978,-300.695"/>
<text text-anchor="middle" x="358" y="-308.305" font-family="Futura" font-size="11.00">include/fa/clock.h</text>
</g>
<!-- Node2 -->
<g id="node3" class="node"><title>Node2</title>
<a xlink:href="audio_8h.html" target="_top" xlink:title="include/fa/audio.h">
<polygon fill="none" stroke="black" points="219.592,-240.695 219.592,-263.305 330.408,-263.305 330.408,-240.695 219.592,-240.695"/>
<text text-anchor="middle" x="275" y="-248.305" font-family="Futura" font-size="11.00">include/fa/audio.h</text>
</a>
</g>
<!-- Node1&#45;&gt;Node2 -->
<g id="edge2" class="edge"><title>Node1&#45;&gt;Node2</title>
<path fill="none" stroke="midnightblue" d="M334.786,-294.778C320.447,-284.758 302.469,-272.195 289.99,-263.475"/>
<polygon fill="midnightblue" stroke="midnightblue" points="332.959,-297.772 343.161,-300.631 336.969,-292.034 332.959,-297.772"/>
</g>
<!-- Node5 -->
<g id="node11" class="node"><title>Node5</title>
<a xlink:href="midi_8h.html" target="_top" xlink:title="include/fa/midi.h">
<polygon fill="none" stroke="black" points="306.473,-0.695312 306.473,-23.3047 409.527,-23.3047 409.527,-0.695312 306.473,-0.695312"/>
<text text-anchor="middle" x="358" y="-8.30469" font-family="Futura" font-size="11.00">include/fa/midi.h</text>
</a>
</g>
<!-- Node1&#45;&gt;Node5 -->
<g id="edge44" class="edge"><title>Node1&#45;&gt;Node5</title>
<path fill="none" stroke="midnightblue" d="M422.031,-301.6C518.509,-285.611 690,-249.274 690,-193 690,-193 690,-193 690,-131 690,-85.7408 657.238,-80.7194 617,-60 550.875,-25.9511 464.148,-16.1989 409.739,-13.6121"/>
<polygon fill="midnightblue" stroke="midnightblue" points="421.387,-298.159 412.08,-303.222 422.513,-305.068 421.387,-298.159"/>
</g>
<!-- Node3 -->
<g id="node5" class="node"><title>Node3</title>
<a xlink:href="fa_2fa_8h.html" target="_top" xlink:title="include/fa/fa.h">
<polygon fill="none" stroke="red" points="269.846,-180.695 269.846,-203.305 362.154,-203.305 362.154,-180.695 269.846,-180.695"/>
<text text-anchor="middle" x="316" y="-188.305" font-family="Futura" font-size="11.00">include/fa/fa.h</text>
</a>
</g>
<!-- Node2&#45;&gt;Node3 -->
<g id="edge4" class="edge"><title>Node2&#45;&gt;Node3</title>
<path fill="none" stroke="midnightblue" d="M288.268,-232.231C294.952,-222.775 302.814,-211.654 308.456,-203.672"/>
<polygon fill="midnightblue" stroke="midnightblue" points="285.244,-230.445 282.33,-240.631 290.96,-234.485 285.244,-230.445"/>
</g>
<!-- Node3&#45;&gt;Node1 -->
<g id="edge18" class="edge"><title>Node3&#45;&gt;Node1</title>
<path fill="none" stroke="midnightblue" d="M326.578,-212.464C330.821,-220.784 335.52,-230.706 339,-240 346.875,-261.032 352.903,-286.703 355.9,-300.694"/>
<polygon fill="midnightblue" stroke="midnightblue" points="329.653,-210.793 321.906,-203.566 323.456,-214.046 329.653,-210.793"/>
</g>
<!-- Node4 -->
<g id="node7" class="node"><title>Node4</title>
<a xlink:href="action_8h.html" target="_top" xlink:title="include/fa/action.h">
<polygon fill="none" stroke="black" points="124.746,-60.6953 124.746,-83.3047 237.254,-83.3047 237.254,-60.6953 124.746,-60.6953"/>
<text text-anchor="middle" x="181" y="-68.3047" font-family="Futura" font-size="11.00">include/fa/action.h</text>
</a>
</g>
<!-- Node3&#45;&gt;Node4 -->
<g id="edge6" class="edge"><title>Node3&#45;&gt;Node4</title>
<path fill="none" stroke="midnightblue" d="M260.134,-178.966C238.852,-171.73 215.984,-160.607 200,-144 183.461,-126.816 176.337,-98.6955 176.694,-83.5137"/>
<polygon fill="midnightblue" stroke="midnightblue" points="259.18,-182.336 269.77,-182.023 261.296,-175.663 259.18,-182.336"/>
</g>
<!-- Node6 -->
<g id="node14" class="node"><title>Node6</title>
<a xlink:href="buffer_8h.html" target="_top" xlink:title="include/fa/buffer.h">
<polygon fill="none" stroke="red" points="218.227,-120.695 218.227,-143.305 329.773,-143.305 329.773,-120.695 218.227,-120.695"/>
<text text-anchor="middle" x="274" y="-128.305" font-family="Futura" font-size="11.00">include/fa/buffer.h</text>
</a>
</g>
<!-- Node3&#45;&gt;Node6 -->
<g id="edge16" class="edge"><title>Node3&#45;&gt;Node6</title>
<path fill="none" stroke="midnightblue" d="M302.62,-172.523C295.728,-163.005 287.568,-151.736 281.728,-143.672"/>
<polygon fill="midnightblue" stroke="midnightblue" points="299.791,-174.584 308.491,-180.631 305.461,-170.479 299.791,-174.584"/>
</g>
<!-- Node7 -->
<g id="node17" class="node"><title>Node7</title>
<a xlink:href="dynamic_8h.html" target="_top" xlink:title="include/fa/dynamic.h">
<polygon fill="none" stroke="black" points="385.918,-120.695 385.918,-143.305 510.082,-143.305 510.082,-120.695 385.918,-120.695"/>
<text text-anchor="middle" x="448" y="-128.305" font-family="Futura" font-size="11.00">include/fa/dynamic.h</text>
</a>
</g>
<!-- Node3&#45;&gt;Node7 -->
<g id="edge20" class="edge"><title>Node3&#45;&gt;Node7</title>
<path fill="none" stroke="midnightblue" d="M348.793,-176.591C372.183,-166.314 403.098,-152.73 424.16,-143.475"/>
<polygon fill="midnightblue" stroke="midnightblue" points="347.346,-173.404 339.599,-180.631 350.162,-179.812 347.346,-173.404"/>
</g>
<!-- Node8 -->
<g id="node19" class="node"><title>Node8</title>
<a xlink:href="error_8h.html" target="_top" xlink:title="include/fa/error.h">
<polygon fill="none" stroke="black" points="-0.401855,-120.695 -0.401855,-143.305 106.402,-143.305 106.402,-120.695 -0.401855,-120.695"/>
<text text-anchor="middle" x="53" y="-128.305" font-family="Futura" font-size="11.00">include/fa/error.h</text>
</a>
</g>
<!-- Node3&#45;&gt;Node8 -->
<g id="edge22" class="edge"><title>Node3&#45;&gt;Node8</title>
<path fill="none" stroke="midnightblue" d="M259.926,-179.837C210.388,-169.303 139.389,-153.635 94.7033,-143.369"/>
<polygon fill="midnightblue" stroke="midnightblue" points="259.336,-183.289 269.844,-181.938 260.786,-176.441 259.336,-183.289"/>
</g>
<!-- Node9 -->
<g id="node24" class="node"><title>Node9</title>
<a xlink:href="list_8h.html" target="_top" xlink:title="include/fa/list.h">
<polygon fill="none" stroke="red" points="566.385,-120.695 566.385,-143.305 661.615,-143.305 661.615,-120.695 566.385,-120.695"/>
<text text-anchor="middle" x="614" y="-128.305" font-family="Futura" font-size="11.00">include/fa/list.h</text>
</a>
</g>
<!-- Node3&#45;&gt;Node9 -->
<g id="edge30" class="edge"><title>Node3&#45;&gt;Node9</title>
<path fill="none" stroke="midnightblue" d="M372.44,-178.925C428.549,-167.666 513.529,-151.172 566.358,-141.318"/>
<polygon fill="midnightblue" stroke="midnightblue" points="371.426,-175.559 362.313,-180.963 372.807,-182.421 371.426,-175.559"/>
</g>
<!-- Node10 -->
<g id="node29" class="node"><title>Node10</title>
<a xlink:href="map_8h.html" target="_top" xlink:title="include/fa/map.h">
<polygon fill="none" stroke="red" points="483.914,-60.6953 483.914,-83.3047 588.086,-83.3047 588.086,-60.6953 483.914,-60.6953"/>
<text text-anchor="middle" x="536" y="-68.3047" font-family="Futura" font-size="11.00">include/fa/map.h</text>
</a>
</g>
<!-- Node3&#45;&gt;Node10 -->
<g id="edge42" class="edge"><title>Node3&#45;&gt;Node10</title>
<path fill="none" stroke="midnightblue" d="M372.649,-184.584C425.309,-177.468 498.6,-164.248 519,-144 535.283,-127.839 537.039,-99.0382 536.67,-83.5499"/>
<polygon fill="midnightblue" stroke="midnightblue" points="371.874,-181.155 362.414,-185.926 372.784,-188.096 371.874,-181.155"/>
</g>
<!-- Node4&#45;&gt;Node2 -->
<g id="edge8" class="edge"><title>Node4&#45;&gt;Node2</title>
<path fill="none" stroke="midnightblue" d="M181.088,-93.5686C181.811,-108.166 184.157,-127.938 191,-144 208.217,-184.413 244.759,-222.585 263.455,-240.439"/>
<polygon fill="midnightblue" stroke="midnightblue" points="184.586,-93.4589 180.804,-83.5623 177.589,-93.6576 184.586,-93.4589"/>
</g>
<!-- Node4&#45;&gt;Node3 -->
<g id="edge10" class="edge"><title>Node4&#45;&gt;Node3</title>
<path fill="none" stroke="midnightblue" d="M191.939,-93.2607C197.339,-108.856 204.562,-130.038 218,-144 235.306,-161.981 260.683,-173.533 281.382,-180.683"/>
<polygon fill="midnightblue" stroke="midnightblue" points="195.112,-91.7412 188.436,-83.5137 188.524,-94.1082 195.112,-91.7412"/>
</g>
<!-- Node4&#45;&gt;Node5 -->
<g id="edge12" class="edge"><title>Node4&#45;&gt;Node5</title>
<path fill="none" stroke="midnightblue" d="M222.517,-57.3955C254.254,-46.9959 297.343,-32.8764 326.332,-23.3771"/>
<polygon fill="midnightblue" stroke="midnightblue" points="221.057,-54.1908 212.644,-60.6308 223.237,-60.8428 221.057,-54.1908"/>
</g>
<!-- Node5&#45;&gt;Node3 -->
<g id="edge14" class="edge"><title>Node5&#45;&gt;Node3</title>
<path fill="none" stroke="midnightblue" d="M356.682,-33.609C354.598,-59.7593 349.523,-106.029 338,-144 334.023,-157.104 327.013,-171.216 321.974,-180.52"/>
<polygon fill="midnightblue" stroke="midnightblue" points="360.189,-33.6407 357.422,-23.4135 353.207,-33.1338 360.189,-33.6407"/>
</g>
<!-- Node8&#45;&gt;Node2 -->
<g id="edge24" class="edge"><title>Node8&#45;&gt;Node2</title>
<path fill="none" stroke="midnightblue" d="M66.171,-151.691C78.3994,-167.738 97.9937,-190.374 120,-204 150.243,-222.726 188.445,-234.421 219.355,-241.462"/>
<polygon fill="midnightblue" stroke="midnightblue" points="68.9201,-149.522 60.1666,-143.553 63.2873,-153.678 68.9201,-149.522"/>
</g>
<!-- Node8&#45;&gt;Node3 -->
<g id="edge26" class="edge"><title>Node8&#45;&gt;Node3</title>
<path fill="none" stroke="midnightblue" d="M115.255,-145.48C164.374,-155.969 231.438,-170.785 274.297,-180.631"/>
<polygon fill="midnightblue" stroke="midnightblue" points="115.882,-142.035 105.372,-143.377 114.424,-148.882 115.882,-142.035"/>
</g>
<!-- Node8&#45;&gt;Node5 -->
<g id="edge28" class="edge"><title>Node8&#45;&gt;Node5</title>
<path fill="none" stroke="midnightblue" d="M64.7582,-111.828C75.8795,-95.4071 94.103,-72.4917 116,-60 175.294,-26.174 254.644,-16.2536 306.04,-13.5809"/>
<polygon fill="midnightblue" stroke="midnightblue" points="61.5622,-110.324 59.0568,-120.618 67.435,-114.133 61.5622,-110.324"/>
</g>
<!-- Node9&#45;&gt;Node2 -->
<g id="edge34" class="edge"><title>Node9&#45;&gt;Node2</title>
<path fill="none" stroke="midnightblue" d="M574.309,-146.816C505.582,-170.738 365.922,-219.352 304.787,-240.632"/>
<polygon fill="midnightblue" stroke="midnightblue" points="575.623,-150.064 583.917,-143.472 573.322,-143.453 575.623,-150.064"/>
</g>
<!-- Node9&#45;&gt;Node3 -->
<g id="edge36" class="edge"><title>Node9&#45;&gt;Node3</title>
<path fill="none" stroke="midnightblue" d="M556.289,-145.33C499.686,-156.679 414.608,-173.187 362.281,-182.935"/>
<polygon fill="midnightblue" stroke="midnightblue" points="557.05,-148.747 566.164,-143.344 555.67,-141.885 557.05,-148.747"/>
</g>
<!-- Node9&#45;&gt;Node4 -->
<g id="edge32" class="edge"><title>Node9&#45;&gt;Node4</title>
<path fill="none" stroke="midnightblue" d="M555.945,-123.224C472.558,-112.054 319.867,-91.6012 237.406,-80.5555"/>
<polygon fill="midnightblue" stroke="midnightblue" points="555.631,-126.713 566.007,-124.571 556.56,-119.775 555.631,-126.713"/>
</g>
<!-- Node9&#45;&gt;Node5 -->
<g id="edge40" class="edge"><title>Node9&#45;&gt;Node5</title>
<path fill="none" stroke="midnightblue" d="M614.682,-110.185C614.024,-94.2386 610.391,-72.855 597,-60 570.726,-34.7781 471.607,-22.2191 409.565,-16.7012"/>
<polygon fill="midnightblue" stroke="midnightblue" points="611.184,-110.653 614.731,-120.637 618.184,-110.62 611.184,-110.653"/>
</g>
<!-- Node9&#45;&gt;Node10 -->
<g id="edge38" class="edge"><title>Node9&#45;&gt;Node10</title>
<path fill="none" stroke="midnightblue" d="M591.802,-114.494C578.391,-104.522 561.703,-92.1126 550.087,-83.475"/>
<polygon fill="midnightblue" stroke="midnightblue" points="589.942,-117.472 600.055,-120.631 594.119,-111.855 589.942,-117.472"/>
</g>
</g>
</svg>
