<?xml version="1.0" encoding="UTF-8" standalone="no"?>
<!DOCTYPE svg PUBLIC "-//W3C//DTD SVG 1.1//EN"
 "http://www.w3.org/Graphics/SVG/1.1/DTD/svg11.dtd">
<!-- Generated by graphviz version 2.28.0 (20121015.0031)
 -->
<!-- Title: include/fa.h Pages: 1 -->
<svg width="252pt" height="92pt"
 viewBox="0.00 0.00 252.00 92.00" xmlns="http://www.w3.org/2000/svg" xmlns:xlink="http://www.w3.org/1999/xlink">
<g id="graph1" class="graph" transform="scale(1 1) rotate(0) translate(4 88)">
<title>include/fa.h</title>
<!-- Node1 -->
<g id="node1" class="node"><title>Node1</title>
<polygon fill="#bfbfbf" stroke="black" points="66.7097,-60.6953 66.7097,-83.3047 143.29,-83.3047 143.29,-60.6953 66.7097,-60.6953"/>
<text text-anchor="middle" x="105" y="-68.3047" font-family="Futura" font-size="11.00">include/fa.h</text>
</g>
<!-- Node2 -->
<g id="node3" class="node"><title>Node2</title>
<polygon fill="none" stroke="#bfbfbf" points="-0.609863,-0.695312 -0.609863,-23.3047 54.6099,-23.3047 54.6099,-0.695312 -0.609863,-0.695312"/>
<text text-anchor="middle" x="27" y="-8.30469" font-family="Futura" font-size="11.00">fa/std.h</text>
</g>
<!-- Node1&#45;&gt;Node2 -->
<g id="edge2" class="edge"><title>Node1&#45;&gt;Node2</title>
<path fill="none" stroke="midnightblue" d="M91.0552,-60.6308C79.4807,-52.0241 62.8003,-39.6207 49.3629,-29.6288"/>
<polygon fill="midnightblue" stroke="midnightblue" points="51.2002,-26.6335 41.0871,-23.475 47.0233,-32.2507 51.2002,-26.6335"/>
</g>
<!-- Node3 -->
<g id="node5" class="node"><title>Node3</title>
<a xlink:href="alloc_8h.html" target="_top" xlink:title="fa/alloc.h">
<polygon fill="none" stroke="black" points="72.4595,-0.695312 72.4595,-23.3047 137.541,-23.3047 137.541,-0.695312 72.4595,-0.695312"/>
<text text-anchor="middle" x="105" y="-8.30469" font-family="Futura" font-size="11.00">fa/alloc.h</text>
</a>
</g>
<!-- Node1&#45;&gt;Node3 -->
<g id="edge4" class="edge"><title>Node1&#45;&gt;Node3</title>
<path fill="none" stroke="midnightblue" d="M105,-60.6308C105,-53.218 105,-42.9888 105,-33.9096"/>
<polygon fill="midnightblue" stroke="midnightblue" points="108.5,-33.6718 105,-23.6719 101.5,-33.6719 108.5,-33.6718"/>
</g>
<!-- Node4 -->
<g id="node7" class="node"><title>Node4</title>
<a xlink:href="interfaces_8h.html" target="_top" xlink:title="fa/interfaces.h">
<polygon fill="none" stroke="black" points="155.294,-0.695312 155.294,-23.3047 244.706,-23.3047 244.706,-0.695312 155.294,-0.695312"/>
<text text-anchor="middle" x="200" y="-8.30469" font-family="Futura" font-size="11.00">fa/interfaces.h</text>
</a>
</g>
<!-- Node1&#45;&gt;Node4 -->
<g id="edge6" class="edge"><title>Node1&#45;&gt;Node4</title>
<path fill="none" stroke="midnightblue" d="M121.984,-60.6308C136.484,-51.7782 157.563,-38.9089 174.156,-28.7784"/>
<polygon fill="midnightblue" stroke="midnightblue" points="176.131,-31.6732 182.843,-23.475 172.484,-25.6987 176.131,-31.6732"/>
</g>
</g>
</svg>
