<?xml version="1.0" encoding="UTF-8" standalone="no"?>
<!DOCTYPE svg PUBLIC "-//W3C//DTD SVG 1.1//EN"
 "http://www.w3.org/Graphics/SVG/1.1/DTD/svg11.dtd">
<!-- Generated by graphviz version 2.28.0 (20121015.0031)
 -->
<!-- Title: include/fa/pair/left.h Pages: 1 -->
<svg width="869pt" height="212pt"
 viewBox="0.00 0.00 869.00 212.00" xmlns="http://www.w3.org/2000/svg" xmlns:xlink="http://www.w3.org/1999/xlink">
<g id="graph1" class="graph" transform="scale(1 1) rotate(0) translate(4 208)">
<title>include/fa/pair/left.h</title>
<!-- Node1 -->
<g id="node1" class="node"><title>Node1</title>
<polygon fill="#bfbfbf" stroke="black" points="636.241,-180.695 636.241,-203.305 759.759,-203.305 759.759,-180.695 636.241,-180.695"/>
<text text-anchor="middle" x="698" y="-188.305" font-family="Futura" font-size="11.00">include/fa/pair/left.h</text>
</g>
<!-- Node2 -->
<g id="node3" class="node"><title>Node2</title>
<a xlink:href="fa_2fa_8h.html" target="_top" xlink:title="include/fa/fa.h">
<polygon fill="none" stroke="red" points="575.846,-120.695 575.846,-143.305 668.154,-143.305 668.154,-120.695 575.846,-120.695"/>
<text text-anchor="middle" x="622" y="-128.305" font-family="Futura" font-size="11.00">include/fa/fa.h</text>
</a>
</g>
<!-- Node1&#45;&gt;Node2 -->
<g id="edge2" class="edge"><title>Node1&#45;&gt;Node2</title>
<path fill="none" stroke="midnightblue" d="M676.371,-174.494C663.304,-164.522 647.044,-152.113 635.726,-143.475"/>
<polygon fill="midnightblue" stroke="midnightblue" points="674.34,-177.346 684.413,-180.631 678.587,-171.782 674.34,-177.346"/>
</g>
<!-- Node3 -->
<g id="node5" class="node"><title>Node3</title>
<a xlink:href="action_8h.html" target="_top" xlink:title="include/fa/action.h">
<polygon fill="none" stroke="red" points="746.746,-0.695312 746.746,-23.3047 859.254,-23.3047 859.254,-0.695312 746.746,-0.695312"/>
<text text-anchor="middle" x="803" y="-8.30469" font-family="Futura" font-size="11.00">include/fa/action.h</text>
</a>
</g>
<!-- Node2&#45;&gt;Node3 -->
<g id="edge4" class="edge"><title>Node2&#45;&gt;Node3</title>
<path fill="none" stroke="midnightblue" d="M642.53,-114.447C677.639,-89.7542 748.118,-43.9847 782.93,-23.4482"/>
<polygon fill="midnightblue" stroke="midnightblue" points="640.119,-111.868 634.016,-120.528 644.187,-117.564 640.119,-111.868"/>
</g>
<!-- Node4 -->
<g id="node8" class="node"><title>Node4</title>
<a xlink:href="atomic_8h.html" target="_top" xlink:title="include/fa/atomic.h">
<polygon fill="none" stroke="black" points="-0.626221,-60.6953 -0.626221,-83.3047 114.626,-83.3047 114.626,-60.6953 -0.626221,-60.6953"/>
<text text-anchor="middle" x="57" y="-68.3047" font-family="Futura" font-size="11.00">include/fa/atomic.h</text>
</a>
</g>
<!-- Node2&#45;&gt;Node4 -->
<g id="edge8" class="edge"><title>Node2&#45;&gt;Node4</title>
<path fill="none" stroke="midnightblue" d="M565.362,-127.384C471.179,-120.724 277.011,-105.234 114,-84 112.387,-83.7899 110.754,-83.5699 109.108,-83.3418"/>
<polygon fill="midnightblue" stroke="midnightblue" points="565.306,-130.888 575.526,-128.095 565.795,-123.905 565.306,-130.888"/>
</g>
<!-- Node5 -->
<g id="node11" class="node"><title>Node5</title>
<a xlink:href="buffer_8h.html" target="_top" xlink:title="include/fa/buffer.h">
<polygon fill="none" stroke="red" points="132.227,-60.6953 132.227,-83.3047 243.773,-83.3047 243.773,-60.6953 132.227,-60.6953"/>
<text text-anchor="middle" x="188" y="-68.3047" font-family="Futura" font-size="11.00">include/fa/buffer.h</text>
</a>
</g>
<!-- Node2&#45;&gt;Node5 -->
<g id="edge12" class="edge"><title>Node2&#45;&gt;Node5</title>
<path fill="none" stroke="midnightblue" d="M565.328,-124.512C492.809,-116.042 363.359,-100.359 253,-84 250.056,-83.5637 247.04,-83.1025 243.997,-82.626"/>
<polygon fill="midnightblue" stroke="midnightblue" points="565.268,-128.029 575.606,-125.709 566.078,-121.076 565.268,-128.029"/>
</g>
<!-- Node6 -->
<g id="node13" class="node"><title>Node6</title>
<a xlink:href="clock_8h.html" target="_top" xlink:title="include/fa/clock.h">
<polygon fill="none" stroke="red" points="261.978,-60.6953 261.978,-83.3047 370.022,-83.3047 370.022,-60.6953 261.978,-60.6953"/>
<text text-anchor="middle" x="316" y="-68.3047" font-family="Futura" font-size="11.00">include/fa/clock.h</text>
</a>
</g>
<!-- Node2&#45;&gt;Node6 -->
<g id="edge14" class="edge"><title>Node2&#45;&gt;Node6</title>
<path fill="none" stroke="midnightblue" d="M565.463,-120.284C509.702,-109.715 425.07,-93.6734 370.151,-83.2638"/>
<polygon fill="midnightblue" stroke="midnightblue" points="565.048,-123.767 575.525,-122.191 566.352,-116.89 565.048,-123.767"/>
</g>
<!-- Node7 -->
<g id="node15" class="node"><title>Node7</title>
<a xlink:href="dynamic_8h.html" target="_top" xlink:title="include/fa/dynamic.h">
<polygon fill="none" stroke="black" points="387.918,-60.6953 387.918,-83.3047 512.082,-83.3047 512.082,-60.6953 387.918,-60.6953"/>
<text text-anchor="middle" x="450" y="-68.3047" font-family="Futura" font-size="11.00">include/fa/dynamic.h</text>
</a>
</g>
<!-- Node2&#45;&gt;Node7 -->
<g id="edge16" class="edge"><title>Node2&#45;&gt;Node7</title>
<path fill="none" stroke="midnightblue" d="M581.656,-117.396C550.816,-106.996 508.944,-92.8764 480.773,-83.3771"/>
<polygon fill="midnightblue" stroke="midnightblue" points="580.656,-120.752 591.25,-120.631 582.892,-114.119 580.656,-120.752"/>
</g>
<!-- Node8 -->
<g id="node17" class="node"><title>Node8</title>
<a xlink:href="error_8h.html" target="_top" xlink:title="include/fa/error.h">
<polygon fill="none" stroke="red" points="529.598,-60.6953 529.598,-83.3047 636.402,-83.3047 636.402,-60.6953 529.598,-60.6953"/>
<text text-anchor="middle" x="583" y="-68.3047" font-family="Futura" font-size="11.00">include/fa/error.h</text>
</a>
</g>
<!-- Node2&#45;&gt;Node8 -->
<g id="edge18" class="edge"><title>Node2&#45;&gt;Node8</title>
<path fill="none" stroke="midnightblue" d="M603.457,-112.814C596.209,-103.235 588.847,-91.8185 584.806,-83.6719"/>
<polygon fill="midnightblue" stroke="midnightblue" points="600.731,-115.009 609.712,-120.631 606.197,-110.636 600.731,-115.009"/>
</g>
<!-- Node9 -->
<g id="node20" class="node"><title>Node9</title>
<a xlink:href="graph_8h.html" target="_top" xlink:title="include/fa/graph.h">
<polygon fill="none" stroke="black" points="616.937,-0.695312 616.937,-23.3047 729.063,-23.3047 729.063,-0.695312 616.937,-0.695312"/>
<text text-anchor="middle" x="673" y="-8.30469" font-family="Futura" font-size="11.00">include/fa/graph.h</text>
</a>
</g>
<!-- Node2&#45;&gt;Node9 -->
<g id="edge22" class="edge"><title>Node2&#45;&gt;Node9</title>
<path fill="none" stroke="midnightblue" d="M623.853,-111.103C627.304,-102.795 632.031,-93.0002 636,-84 645.304,-62.905 654.895,-37.6858 662.912,-23.6941"/>
<polygon fill="midnightblue" stroke="midnightblue" points="620.505,-110.065 620.315,-120.658 627.069,-112.495 620.505,-110.065"/>
</g>
<!-- Node10 -->
<g id="node23" class="node"><title>Node10</title>
<a xlink:href="list_8h.html" target="_top" xlink:title="include/fa/list.h">
<polygon fill="none" stroke="red" points="766.385,-60.6953 766.385,-83.3047 861.615,-83.3047 861.615,-60.6953 766.385,-60.6953"/>
<text text-anchor="middle" x="814" y="-68.3047" font-family="Futura" font-size="11.00">include/fa/list.h</text>
</a>
</g>
<!-- Node2&#45;&gt;Node10 -->
<g id="edge26" class="edge"><title>Node2&#45;&gt;Node10</title>
<path fill="none" stroke="midnightblue" d="M660.786,-117.53C693.846,-107.118 741.017,-92.9175 774.331,-83.3771"/>
<polygon fill="midnightblue" stroke="midnightblue" points="659.484,-114.271 651.01,-120.631 661.6,-120.944 659.484,-114.271"/>
</g>
<!-- Node3&#45;&gt;Node2 -->
<g id="edge6" class="edge"><title>Node3&#45;&gt;Node2</title>
<path fill="none" stroke="midnightblue" d="M782.244,-29.7121C747.073,-54.432 676.862,-100.024 642.109,-120.528"/>
<polygon fill="midnightblue" stroke="midnightblue" points="784.677,-32.2759 790.784,-23.6179 780.611,-26.5781 784.677,-32.2759"/>
</g>
<!-- Node4&#45;&gt;Node2 -->
<g id="edge10" class="edge"><title>Node4&#45;&gt;Node2</title>
<path fill="none" stroke="midnightblue" d="M124.887,-83.0314C127.291,-83.3716 129.667,-83.6962 132,-84 294.65,-105.187 488.32,-120.655 575.55,-127.339"/>
<polygon fill="midnightblue" stroke="midnightblue" points="125.303,-79.5549 114.9,-81.5585 124.282,-86.48 125.303,-79.5549"/>
</g>
<!-- Node8&#45;&gt;Node2 -->
<g id="edge20" class="edge"><title>Node8&#45;&gt;Node2</title>
<path fill="none" stroke="midnightblue" d="M601.813,-91.5444C609.064,-101.168 616.386,-112.566 620.343,-120.631"/>
<polygon fill="midnightblue" stroke="midnightblue" points="604.513,-89.3154 595.546,-83.6719 599.036,-93.6753 604.513,-89.3154"/>
</g>
<!-- Node9&#45;&gt;Node2 -->
<g id="edge24" class="edge"><title>Node9&#45;&gt;Node2</title>
<path fill="none" stroke="midnightblue" d="M672.987,-33.4813C669.011,-47.7609 661.414,-67.1899 654,-84 648.355,-96.8003 641.178,-111.208 634.396,-120.658"/>
<polygon fill="midnightblue" stroke="midnightblue" points="676.407,-34.2266 675.26,-23.6941 669.589,-32.6434 676.407,-34.2266"/>
</g>
<!-- Node10&#45;&gt;Node1 -->
<g id="edge34" class="edge"><title>Node10&#45;&gt;Node1</title>
<path fill="none" stroke="midnightblue" d="M796.313,-90.9923C771.752,-115.977 728.107,-160.373 708.294,-180.528"/>
<polygon fill="midnightblue" stroke="midnightblue" points="799.048,-93.2028 803.562,-83.6179 794.056,-88.2955 799.048,-93.2028"/>
</g>
<!-- Node10&#45;&gt;Node2 -->
<g id="edge30" class="edge"><title>Node10&#45;&gt;Node2</title>
<path fill="none" stroke="midnightblue" d="M775.187,-86.4782C742.119,-96.8924 694.948,-111.093 661.642,-120.631"/>
<polygon fill="midnightblue" stroke="midnightblue" points="776.491,-89.7363 784.966,-83.3771 774.375,-83.0638 776.491,-89.7363"/>
</g>
<!-- Node10&#45;&gt;Node3 -->
<g id="edge28" class="edge"><title>Node10&#45;&gt;Node3</title>
<path fill="none" stroke="midnightblue" d="M810.161,-50.7564C808.431,-41.6369 806.46,-31.2425 805.024,-23.6719"/>
<polygon fill="midnightblue" stroke="midnightblue" points="806.731,-51.4581 812.033,-60.6308 813.609,-50.1537 806.731,-51.4581"/>
</g>
<!-- Node10&#45;&gt;Node9 -->
<g id="edge32" class="edge"><title>Node10&#45;&gt;Node9</title>
<path fill="none" stroke="midnightblue" d="M779.304,-56.7278C754.28,-46.4343 721.063,-32.7708 698.465,-23.475"/>
<polygon fill="midnightblue" stroke="midnightblue" points="778.212,-60.0634 788.792,-60.6308 780.875,-53.5897 778.212,-60.0634"/>
</g>
</g>
</svg>
