<?xml version="1.0" encoding="UTF-8" standalone="no"?>
<!DOCTYPE svg PUBLIC "-//W3C//DTD SVG 1.1//EN"
 "http://www.w3.org/Graphics/SVG/1.1/DTD/svg11.dtd">
<!-- Generated by graphviz version 2.28.0 (20121015.0031)
 -->
<!-- Title: include/fa/action.h Pages: 1 -->
<svg width="624pt" height="332pt"
 viewBox="0.00 0.00 624.04 332.00" xmlns="http://www.w3.org/2000/svg" xmlns:xlink="http://www.w3.org/1999/xlink">
<g id="graph1" class="graph" transform="scale(1 1) rotate(0) translate(4 328)">
<title>include/fa/action.h</title>
<!-- Node1 -->
<g id="node1" class="node"><title>Node1</title>
<polygon fill="#bfbfbf" stroke="black" points="175.746,-300.695 175.746,-323.305 288.254,-323.305 288.254,-300.695 175.746,-300.695"/>
<text text-anchor="middle" x="232" y="-308.305" font-family="Futura" font-size="11.00">include/fa/action.h</text>
</g>
<!-- Node2 -->
<g id="node3" class="node"><title>Node2</title>
<a xlink:href="audio_8h.html" target="_top" xlink:title="include/fa/audio.h">
<polygon fill="none" stroke="black" points="268.592,-240.695 268.592,-263.305 379.408,-263.305 379.408,-240.695 268.592,-240.695"/>
<text text-anchor="middle" x="324" y="-248.305" font-family="Futura" font-size="11.00">include/fa/audio.h</text>
</a>
</g>
<!-- Node1&#45;&gt;Node2 -->
<g id="edge2" class="edge"><title>Node1&#45;&gt;Node2</title>
<path fill="none" stroke="midnightblue" d="M257.283,-295.061C273.248,-284.996 293.422,-272.277 307.384,-263.475"/>
<polygon fill="midnightblue" stroke="midnightblue" points="255.04,-292.337 248.448,-300.631 258.774,-298.258 255.04,-292.337"/>
</g>
<!-- Node3 -->
<g id="node5" class="node"><title>Node3</title>
<a xlink:href="fa_2fa_8h.html" target="_top" xlink:title="include/fa/fa.h">
<polygon fill="none" stroke="red" points="185.846,-180.695 185.846,-203.305 278.154,-203.305 278.154,-180.695 185.846,-180.695"/>
<text text-anchor="middle" x="232" y="-188.305" font-family="Futura" font-size="11.00">include/fa/fa.h</text>
</a>
</g>
<!-- Node1&#45;&gt;Node3 -->
<g id="edge44" class="edge"><title>Node1&#45;&gt;Node3</title>
<path fill="none" stroke="midnightblue" d="M226.741,-290.534C224.414,-265.25 224.811,-223.187 227.93,-203.618"/>
<polygon fill="midnightblue" stroke="midnightblue" points="223.275,-291.022 227.953,-300.528 230.224,-290.18 223.275,-291.022"/>
</g>
<!-- Node6 -->
<g id="node13" class="node"><title>Node6</title>
<a xlink:href="midi_8h.html" target="_top" xlink:title="include/fa/midi.h">
<polygon fill="none" stroke="black" points="370.473,-60.6953 370.473,-83.3047 473.527,-83.3047 473.527,-60.6953 370.473,-60.6953"/>
<text text-anchor="middle" x="422" y="-68.3047" font-family="Futura" font-size="11.00">include/fa/midi.h</text>
</a>
</g>
<!-- Node1&#45;&gt;Node6 -->
<g id="edge46" class="edge"><title>Node1&#45;&gt;Node6</title>
<path fill="none" stroke="midnightblue" d="M298.568,-304.358C388.438,-291.329 544.819,-253.327 610,-144 641.624,-90.9582 539.646,-77.3223 473.695,-73.9575"/>
<polygon fill="midnightblue" stroke="midnightblue" points="297.907,-300.916 288.482,-305.755 298.868,-307.849 297.907,-300.916"/>
</g>
<!-- Node2&#45;&gt;Node3 -->
<g id="edge4" class="edge"><title>Node2&#45;&gt;Node3</title>
<path fill="none" stroke="midnightblue" d="M298.717,-235.061C282.752,-224.996 262.578,-212.277 248.616,-203.475"/>
<polygon fill="midnightblue" stroke="midnightblue" points="297.226,-238.258 307.552,-240.631 300.96,-232.337 297.226,-238.258"/>
</g>
<!-- Node3&#45;&gt;Node1 -->
<g id="edge6" class="edge"><title>Node3&#45;&gt;Node1</title>
<path fill="none" stroke="midnightblue" d="M237.276,-213.656C239.589,-239.023 239.18,-281.071 236.047,-300.528"/>
<polygon fill="midnightblue" stroke="midnightblue" points="240.738,-213.129 236.07,-203.618 233.788,-213.964 240.738,-213.129"/>
</g>
<!-- Node4 -->
<g id="node8" class="node"><title>Node4</title>
<a xlink:href="buffer_8h.html" target="_top" xlink:title="include/fa/buffer.h">
<polygon fill="none" stroke="red" points="65.2268,-0.695312 65.2268,-23.3047 176.773,-23.3047 176.773,-0.695312 65.2268,-0.695312"/>
<text text-anchor="middle" x="121" y="-8.30469" font-family="Futura" font-size="11.00">include/fa/buffer.h</text>
</a>
</g>
<!-- Node3&#45;&gt;Node4 -->
<g id="edge8" class="edge"><title>Node3&#45;&gt;Node4</title>
<path fill="none" stroke="midnightblue" d="M219.976,-171.719C196.546,-134.147 145.496,-52.2822 127.465,-23.368"/>
<polygon fill="midnightblue" stroke="midnightblue" points="217.291,-174.027 225.552,-180.661 223.231,-170.323 217.291,-174.027"/>
</g>
<!-- Node5 -->
<g id="node10" class="node"><title>Node5</title>
<a xlink:href="clock_8h.html" target="_top" xlink:title="include/fa/clock.h">
<polygon fill="none" stroke="black" points="492.978,-120.695 492.978,-143.305 601.022,-143.305 601.022,-120.695 492.978,-120.695"/>
<text text-anchor="middle" x="547" y="-128.305" font-family="Futura" font-size="11.00">include/fa/clock.h</text>
</a>
</g>
<!-- Node3&#45;&gt;Node5 -->
<g id="edge10" class="edge"><title>Node3&#45;&gt;Node5</title>
<path fill="none" stroke="midnightblue" d="M288.56,-180.586C346.494,-169.919 435.916,-153.454 492.928,-142.956"/>
<polygon fill="midnightblue" stroke="midnightblue" points="287.68,-177.189 278.479,-182.442 288.948,-184.073 287.68,-177.189"/>
</g>
<!-- Node7 -->
<g id="node16" class="node"><title>Node7</title>
<a xlink:href="dynamic_8h.html" target="_top" xlink:title="include/fa/dynamic.h">
<polygon fill="none" stroke="black" points="226.918,-120.695 226.918,-143.305 351.082,-143.305 351.082,-120.695 226.918,-120.695"/>
<text text-anchor="middle" x="289" y="-128.305" font-family="Futura" font-size="11.00">include/fa/dynamic.h</text>
</a>
</g>
<!-- Node3&#45;&gt;Node7 -->
<g id="edge18" class="edge"><title>Node3&#45;&gt;Node7</title>
<path fill="none" stroke="midnightblue" d="M249.304,-173.392C258.832,-163.698 270.344,-151.983 278.512,-143.672"/>
<polygon fill="midnightblue" stroke="midnightblue" points="246.703,-171.045 242.19,-180.631 251.696,-175.952 246.703,-171.045"/>
</g>
<!-- Node8 -->
<g id="node18" class="node"><title>Node8</title>
<a xlink:href="error_8h.html" target="_top" xlink:title="include/fa/error.h">
<polygon fill="none" stroke="black" points="368.598,-120.695 368.598,-143.305 475.402,-143.305 475.402,-120.695 368.598,-120.695"/>
<text text-anchor="middle" x="422" y="-128.305" font-family="Futura" font-size="11.00">include/fa/error.h</text>
</a>
</g>
<!-- Node3&#45;&gt;Node8 -->
<g id="edge20" class="edge"><title>Node3&#45;&gt;Node8</title>
<path fill="none" stroke="midnightblue" d="M270.321,-177.53C303.022,-167.118 349.704,-152.917 382.689,-143.377"/>
<polygon fill="midnightblue" stroke="midnightblue" points="269.106,-174.244 260.652,-180.631 271.243,-180.91 269.106,-174.244"/>
</g>
<!-- Node9 -->
<g id="node23" class="node"><title>Node9</title>
<a xlink:href="list_8h.html" target="_top" xlink:title="include/fa/list.h">
<polygon fill="none" stroke="red" points="-0.614502,-120.695 -0.614502,-143.305 94.6145,-143.305 94.6145,-120.695 -0.614502,-120.695"/>
<text text-anchor="middle" x="47" y="-128.305" font-family="Futura" font-size="11.00">include/fa/list.h</text>
</a>
</g>
<!-- Node3&#45;&gt;Node9 -->
<g id="edge28" class="edge"><title>Node3&#45;&gt;Node9</title>
<path fill="none" stroke="midnightblue" d="M183.681,-177.665C149.004,-167.241 103.605,-152.959 74.782,-143.377"/>
<polygon fill="midnightblue" stroke="midnightblue" points="183.026,-181.122 193.61,-180.631 185.03,-174.415 183.026,-181.122"/>
</g>
<!-- Node10 -->
<g id="node28" class="node"><title>Node10</title>
<a xlink:href="map_8h.html" target="_top" xlink:title="include/fa/map.h">
<polygon fill="none" stroke="red" points="28.9141,-60.6953 28.9141,-83.3047 133.086,-83.3047 133.086,-60.6953 28.9141,-60.6953"/>
<text text-anchor="middle" x="81" y="-68.3047" font-family="Futura" font-size="11.00">include/fa/map.h</text>
</a>
</g>
<!-- Node3&#45;&gt;Node10 -->
<g id="edge42" class="edge"><title>Node3&#45;&gt;Node10</title>
<path fill="none" stroke="midnightblue" d="M199.514,-176.101C183.013,-167.792 163.103,-156.588 147,-144 123.399,-125.551 100.71,-98.4318 89.0745,-83.619"/>
<polygon fill="midnightblue" stroke="midnightblue" points="198.262,-179.385 208.782,-180.647 201.345,-173.101 198.262,-179.385"/>
</g>
<!-- Node5&#45;&gt;Node2 -->
<g id="edge12" class="edge"><title>Node5&#45;&gt;Node2</title>
<path fill="none" stroke="midnightblue" d="M518.405,-148.131C472.466,-172.439 383.38,-219.579 343.79,-240.528"/>
<polygon fill="midnightblue" stroke="midnightblue" points="520.053,-151.219 527.255,-143.448 516.779,-145.032 520.053,-151.219"/>
</g>
<!-- Node5&#45;&gt;Node6 -->
<g id="edge14" class="edge"><title>Node5&#45;&gt;Node6</title>
<path fill="none" stroke="midnightblue" d="M515.354,-116.316C493.277,-106.072 464.343,-92.6474 444.575,-83.475"/>
<polygon fill="midnightblue" stroke="midnightblue" points="514.108,-119.597 524.653,-120.631 517.055,-113.247 514.108,-119.597"/>
</g>
<!-- Node6&#45;&gt;Node3 -->
<g id="edge16" class="edge"><title>Node6&#45;&gt;Node3</title>
<path fill="none" stroke="midnightblue" d="M359.995,-78.8817C306.633,-85.3778 235.54,-97.9589 218,-120 203.918,-137.695 216.56,-165.608 225.308,-180.621"/>
<polygon fill="midnightblue" stroke="midnightblue" points="360.548,-82.341 370.072,-77.7006 359.733,-75.3886 360.548,-82.341"/>
</g>
<!-- Node8&#45;&gt;Node2 -->
<g id="edge22" class="edge"><title>Node8&#45;&gt;Node2</title>
<path fill="none" stroke="midnightblue" d="M406.787,-151.318C385.989,-176.361 349.363,-220.461 332.697,-240.528"/>
<polygon fill="midnightblue" stroke="midnightblue" points="409.485,-153.547 413.182,-143.618 404.1,-149.075 409.485,-153.547"/>
</g>
<!-- Node8&#45;&gt;Node3 -->
<g id="edge24" class="edge"><title>Node8&#45;&gt;Node3</title>
<path fill="none" stroke="midnightblue" d="M383.652,-146.478C350.943,-156.892 304.261,-171.093 271.284,-180.631"/>
<polygon fill="midnightblue" stroke="midnightblue" points="384.87,-149.763 393.323,-143.377 382.732,-143.098 384.87,-149.763"/>
</g>
<!-- Node8&#45;&gt;Node6 -->
<g id="edge26" class="edge"><title>Node8&#45;&gt;Node6</title>
<path fill="none" stroke="midnightblue" d="M422,-110.459C422,-101.411 422,-91.1602 422,-83.6719"/>
<polygon fill="midnightblue" stroke="midnightblue" points="418.5,-110.631 422,-120.631 425.5,-110.631 418.5,-110.631"/>
</g>
<!-- Node9&#45;&gt;Node1 -->
<g id="edge30" class="edge"><title>Node9&#45;&gt;Node1</title>
<path fill="none" stroke="midnightblue" d="M65.1232,-150.437C103.246,-187.118 190.728,-271.29 221.254,-300.661"/>
<polygon fill="midnightblue" stroke="midnightblue" points="67.4085,-147.779 57.7757,-143.368 62.5551,-152.824 67.4085,-147.779"/>
</g>
<!-- Node9&#45;&gt;Node2 -->
<g id="edge32" class="edge"><title>Node9&#45;&gt;Node2</title>
<path fill="none" stroke="midnightblue" d="M72.4554,-148.799C98.1504,-164.287 139.314,-187.859 177,-204 212.59,-219.243 254.837,-232.253 284.887,-240.694"/>
<polygon fill="midnightblue" stroke="midnightblue" points="74.0861,-145.694 63.7237,-143.487 70.4481,-151.674 74.0861,-145.694"/>
</g>
<!-- Node9&#45;&gt;Node3 -->
<g id="edge34" class="edge"><title>Node9&#45;&gt;Node3</title>
<path fill="none" stroke="midnightblue" d="M95.3479,-146.344C130.03,-156.77 175.428,-171.052 204.242,-180.631"/>
<polygon fill="midnightblue" stroke="midnightblue" points="96,-142.886 85.4166,-143.377 93.9965,-149.593 96,-142.886"/>
</g>
<!-- Node9&#45;&gt;Node6 -->
<g id="edge40" class="edge"><title>Node9&#45;&gt;Node6</title>
<path fill="none" stroke="midnightblue" d="M104.76,-122.066C177.282,-110.85 300.605,-91.7757 370.204,-81.0111"/>
<polygon fill="midnightblue" stroke="midnightblue" points="104.222,-118.608 94.8749,-123.595 105.292,-125.526 104.222,-118.608"/>
</g>
<!-- Node9&#45;&gt;Node10 -->
<g id="edge36" class="edge"><title>Node9&#45;&gt;Node10</title>
<path fill="none" stroke="midnightblue" d="M58.1741,-111.938C63.6799,-102.546 70.1132,-91.5716 74.7441,-83.6719"/>
<polygon fill="midnightblue" stroke="midnightblue" points="55.1163,-110.234 53.0785,-120.631 61.1552,-113.774 55.1163,-110.234"/>
</g>
<!-- Node10&#45;&gt;Node4 -->
<g id="edge38" class="edge"><title>Node10&#45;&gt;Node4</title>
<path fill="none" stroke="midnightblue" d="M93.9439,-52.2313C100.465,-42.775 108.135,-31.6539 113.64,-23.6719"/>
<polygon fill="midnightblue" stroke="midnightblue" points="90.9473,-50.4115 88.1512,-60.6308 96.7098,-54.3857 90.9473,-50.4115"/>
</g>
</g>
</svg>
