<?xml version="1.0" encoding="UTF-8" standalone="no"?>
<!DOCTYPE svg PUBLIC "-//W3C//DTD SVG 1.1//EN"
 "http://www.w3.org/Graphics/SVG/1.1/DTD/svg11.dtd">
<!-- Generated by graphviz version 2.28.0 (20121015.0031)
 -->
<!-- Title: include/fa/buffer.h Pages: 1 -->
<svg width="637pt" height="272pt"
 viewBox="0.00 0.00 637.00 272.00" xmlns="http://www.w3.org/2000/svg" xmlns:xlink="http://www.w3.org/1999/xlink">
<g id="graph1" class="graph" transform="scale(1 1) rotate(0) translate(4 268)">
<title>include/fa/buffer.h</title>
<!-- Node1 -->
<g id="node1" class="node"><title>Node1</title>
<polygon fill="#bfbfbf" stroke="black" points="414.227,-240.695 414.227,-263.305 525.773,-263.305 525.773,-240.695 414.227,-240.695"/>
<text text-anchor="middle" x="470" y="-248.305" font-family="Futura" font-size="11.00">include/fa/buffer.h</text>
</g>
<!-- Node2 -->
<g id="node3" class="node"><title>Node2</title>
<a xlink:href="fa_2fa_8h.html" target="_top" xlink:title="fa.h">
<polygon fill="none" stroke="red" points="390.273,-60.6953 390.273,-83.3047 425.727,-83.3047 425.727,-60.6953 390.273,-60.6953"/>
<text text-anchor="middle" x="408" y="-68.3047" font-family="Futura" font-size="11.00">fa.h</text>
</a>
</g>
<!-- Node1&#45;&gt;Node2 -->
<g id="edge2" class="edge"><title>Node1&#45;&gt;Node2</title>
<path fill="none" stroke="midnightblue" d="M452.848,-240.492C427.518,-223.785 381.342,-188.46 365,-144 361.32,-133.988 361.138,-129.943 365,-120 369.415,-108.634 378.002,-98.341 386.35,-90.3045"/>
<polygon fill="midnightblue" stroke="midnightblue" points="388.721,-92.8789 393.821,-83.5924 384.043,-87.6715 388.721,-92.8789"/>
</g>
<!-- Node7 -->
<g id="node13" class="node"><title>Node7</title>
<a xlink:href="pair_8h.html" target="_top" xlink:title="fa/pair.h">
<polygon fill="none" stroke="red" points="496.694,-0.695312 496.694,-23.3047 557.306,-23.3047 557.306,-0.695312 496.694,-0.695312"/>
<text text-anchor="middle" x="527" y="-8.30469" font-family="Futura" font-size="11.00">fa/pair.h</text>
</a>
</g>
<!-- Node1&#45;&gt;Node7 -->
<g id="edge18" class="edge"><title>Node1&#45;&gt;Node7</title>
<path fill="none" stroke="midnightblue" d="M482.383,-240.383C491.674,-231.635 503.814,-218.369 510,-204 534.825,-146.333 532.3,-69.9754 529.248,-33.7606"/>
<polygon fill="midnightblue" stroke="midnightblue" points="532.703,-33.1121 528.273,-23.4876 525.734,-33.7737 532.703,-33.1121"/>
</g>
<!-- Node8 -->
<g id="node16" class="node"><title>Node8</title>
<polygon fill="none" stroke="#bfbfbf" points="574.39,-180.695 574.39,-203.305 629.61,-203.305 629.61,-180.695 574.39,-180.695"/>
<text text-anchor="middle" x="602" y="-188.305" font-family="Futura" font-size="11.00">fa/std.h</text>
</g>
<!-- Node1&#45;&gt;Node8 -->
<g id="edge16" class="edge"><title>Node1&#45;&gt;Node8</title>
<path fill="none" stroke="midnightblue" d="M493.599,-240.631C514.586,-231.409 545.492,-217.829 568.939,-207.527"/>
<polygon fill="midnightblue" stroke="midnightblue" points="570.413,-210.702 578.16,-203.475 567.597,-204.293 570.413,-210.702"/>
</g>
<!-- Node9 -->
<g id="node19" class="node"><title>Node9</title>
<a xlink:href="string_8h.html" target="_top" xlink:title="fa/string.h">
<polygon fill="none" stroke="black" points="373.87,-120.695 373.87,-143.305 442.13,-143.305 442.13,-120.695 373.87,-120.695"/>
<text text-anchor="middle" x="408" y="-128.305" font-family="Futura" font-size="11.00">fa/string.h</text>
</a>
</g>
<!-- Node1&#45;&gt;Node9 -->
<g id="edge20" class="edge"><title>Node1&#45;&gt;Node9</title>
<path fill="none" stroke="midnightblue" d="M458.386,-240.462C449.215,-231.559 436.717,-218.045 429,-204 420.318,-188.2 414.846,-168.402 411.673,-153.729"/>
<polygon fill="midnightblue" stroke="midnightblue" points="415.054,-152.788 409.679,-143.658 408.188,-154.148 415.054,-152.788"/>
</g>
<!-- Node10 -->
<g id="node22" class="node"><title>Node10</title>
<a xlink:href="map_8h.html" target="_top" xlink:title="fa/map.h">
<polygon fill="none" stroke="red" points="438.477,-180.695 438.477,-203.305 501.523,-203.305 501.523,-180.695 438.477,-180.695"/>
<text text-anchor="middle" x="470" y="-188.305" font-family="Futura" font-size="11.00">fa/map.h</text>
</a>
</g>
<!-- Node1&#45;&gt;Node10 -->
<g id="edge24" class="edge"><title>Node1&#45;&gt;Node10</title>
<path fill="none" stroke="midnightblue" d="M470,-240.631C470,-233.218 470,-222.989 470,-213.91"/>
<polygon fill="midnightblue" stroke="midnightblue" points="473.5,-213.672 470,-203.672 466.5,-213.672 473.5,-213.672"/>
</g>
<!-- Node3 -->
<g id="node5" class="node"><title>Node3</title>
<polygon fill="none" stroke="#bfbfbf" points="404.937,-0.695312 404.937,-23.3047 479.063,-23.3047 479.063,-0.695312 404.937,-0.695312"/>
<text text-anchor="middle" x="442" y="-8.30469" font-family="Futura" font-size="11.00">fa/atomic.h</text>
</g>
<!-- Node2&#45;&gt;Node3 -->
<g id="edge4" class="edge"><title>Node2&#45;&gt;Node3</title>
<path fill="none" stroke="midnightblue" d="M414.079,-60.6308C418.663,-52.8107 425.084,-41.8562 430.613,-32.4241"/>
<polygon fill="midnightblue" stroke="midnightblue" points="433.706,-34.0689 435.744,-23.6719 427.667,-30.5288 433.706,-34.0689"/>
</g>
<!-- Node4 -->
<g id="node7" class="node"><title>Node4</title>
<polygon fill="none" stroke="#bfbfbf" points="-0.351562,-0.695312 -0.351562,-23.3047 110.352,-23.3047 110.352,-0.695312 -0.351562,-0.695312"/>
<text text-anchor="middle" x="55" y="-8.30469" font-family="Futura" font-size="11.00">fa/atomic/queue.h</text>
</g>
<!-- Node2&#45;&gt;Node4 -->
<g id="edge6" class="edge"><title>Node2&#45;&gt;Node4</title>
<path fill="none" stroke="midnightblue" d="M390.066,-68.1409C346.045,-61.1107 228.914,-42.3318 120.612,-24.2602"/>
<polygon fill="midnightblue" stroke="midnightblue" points="120.938,-20.7661 110.498,-22.5701 119.784,-27.6704 120.938,-20.7661"/>
</g>
<!-- Node5 -->
<g id="node9" class="node"><title>Node5</title>
<polygon fill="none" stroke="#bfbfbf" points="128.42,-0.695312 128.42,-23.3047 233.58,-23.3047 233.58,-0.695312 128.42,-0.695312"/>
<text text-anchor="middle" x="181" y="-8.30469" font-family="Futura" font-size="11.00">fa/atomic/stack.h</text>
</g>
<!-- Node2&#45;&gt;Node5 -->
<g id="edge8" class="edge"><title>Node2&#45;&gt;Node5</title>
<path fill="none" stroke="midnightblue" d="M390.188,-66.4488C356.383,-57.8114 281.809,-38.7573 231.465,-25.8942"/>
<polygon fill="midnightblue" stroke="midnightblue" points="232.294,-22.4935 221.739,-23.409 230.561,-29.2757 232.294,-22.4935"/>
</g>
<!-- Node6 -->
<g id="node11" class="node"><title>Node6</title>
<polygon fill="none" stroke="#bfbfbf" points="251.526,-0.695312 251.526,-23.3047 386.474,-23.3047 386.474,-0.695312 251.526,-0.695312"/>
<text text-anchor="middle" x="319" y="-8.30469" font-family="Futura" font-size="11.00">fa/atomic/ring_buffer.h</text>
</g>
<!-- Node2&#45;&gt;Node6 -->
<g id="edge10" class="edge"><title>Node2&#45;&gt;Node6</title>
<path fill="none" stroke="midnightblue" d="M392.089,-60.6308C378.63,-51.8601 359.122,-39.1468 343.645,-29.0605"/>
<polygon fill="midnightblue" stroke="midnightblue" points="345.363,-26.0026 335.074,-23.475 341.541,-31.8672 345.363,-26.0026"/>
</g>
<!-- Node2&#45;&gt;Node7 -->
<g id="edge12" class="edge"><title>Node2&#45;&gt;Node7</title>
<path fill="none" stroke="midnightblue" d="M423.959,-60.6308C441.127,-51.4503 468.613,-37.9501 490.957,-27.6644"/>
<polygon fill="midnightblue" stroke="midnightblue" points="492.518,-30.7995 500.173,-23.475 489.621,-24.427 492.518,-30.7995"/>
</g>
<!-- Node7&#45;&gt;Node2 -->
<g id="edge14" class="edge"><title>Node7&#45;&gt;Node2</title>
<path fill="none" stroke="midnightblue" d="M511.132,-23.3207C491.658,-33.7387 458.819,-49.7554 435.317,-60.3051"/>
<polygon fill="midnightblue" stroke="midnightblue" points="433.624,-57.2261 425.883,-64.4594 436.445,-63.6325 433.624,-57.2261"/>
</g>
<!-- Node9&#45;&gt;Node2 -->
<g id="edge22" class="edge"><title>Node9&#45;&gt;Node2</title>
<path fill="none" stroke="midnightblue" d="M408,-120.631C408,-113.218 408,-102.989 408,-93.9096"/>
<polygon fill="midnightblue" stroke="midnightblue" points="411.5,-93.6718 408,-83.6719 404.5,-93.6719 411.5,-93.6718"/>
</g>
<!-- Node10&#45;&gt;Node2 -->
<g id="edge26" class="edge"><title>Node10&#45;&gt;Node2</title>
<path fill="none" stroke="midnightblue" d="M468.755,-180.303C466.725,-165.868 461.791,-139.695 451,-120 444.978,-109.01 435.863,-98.5405 427.572,-90.2842"/>
<polygon fill="midnightblue" stroke="midnightblue" points="429.962,-87.7264 420.303,-83.3726 425.138,-92.7995 429.962,-87.7264"/>
</g>
<!-- Node10&#45;&gt;Node7 -->
<g id="edge28" class="edge"><title>Node10&#45;&gt;Node7</title>
<path fill="none" stroke="midnightblue" d="M473.311,-180.661C482.48,-152.027 508.328,-71.3093 520.503,-33.2881"/>
<polygon fill="midnightblue" stroke="midnightblue" points="523.963,-33.959 523.68,-23.368 517.297,-31.8242 523.963,-33.959"/>
</g>
<!-- Node10&#45;&gt;Node9 -->
<g id="edge30" class="edge"><title>Node10&#45;&gt;Node9</title>
<path fill="none" stroke="midnightblue" d="M458.916,-180.631C450.034,-172.322 437.369,-160.475 426.893,-150.675"/>
<polygon fill="midnightblue" stroke="midnightblue" points="429.102,-147.948 419.408,-143.672 424.32,-153.059 429.102,-147.948"/>
</g>
</g>
</svg>
