<?xml version="1.0" encoding="UTF-8" standalone="no"?>
<!DOCTYPE svg PUBLIC "-//W3C//DTD SVG 1.1//EN"
 "http://www.w3.org/Graphics/SVG/1.1/DTD/svg11.dtd">
<!-- Generated by graphviz version 2.28.0 (20121015.0031)
 -->
<!-- Title: include/fa/clock.h Pages: 1 -->
<svg width="611pt" height="332pt"
 viewBox="0.00 0.00 611.00 332.00" xmlns="http://www.w3.org/2000/svg" xmlns:xlink="http://www.w3.org/1999/xlink">
<g id="graph1" class="graph" transform="scale(1 1) rotate(0) translate(4 328)">
<title>include/fa/clock.h</title>
<!-- Node1 -->
<g id="node1" class="node"><title>Node1</title>
<polygon fill="#bfbfbf" stroke="black" points="394.978,-300.695 394.978,-323.305 503.022,-323.305 503.022,-300.695 394.978,-300.695"/>
<text text-anchor="middle" x="449" y="-308.305" font-family="Futura" font-size="11.00">include/fa/clock.h</text>
</g>
<!-- Node2 -->
<g id="node3" class="node"><title>Node2</title>
<a xlink:href="audio_8h.html" target="_top" xlink:title="include/fa/audio.h">
<polygon fill="none" stroke="black" points="393.592,-240.695 393.592,-263.305 504.408,-263.305 504.408,-240.695 393.592,-240.695"/>
<text text-anchor="middle" x="449" y="-248.305" font-family="Futura" font-size="11.00">include/fa/audio.h</text>
</a>
</g>
<!-- Node1&#45;&gt;Node2 -->
<g id="edge2" class="edge"><title>Node1&#45;&gt;Node2</title>
<path fill="none" stroke="midnightblue" d="M449,-290.459C449,-281.411 449,-271.16 449,-263.672"/>
<polygon fill="midnightblue" stroke="midnightblue" points="445.5,-290.631 449,-300.631 452.5,-290.631 445.5,-290.631"/>
</g>
<!-- Node5 -->
<g id="node11" class="node"><title>Node5</title>
<a xlink:href="midi_8h.html" target="_top" xlink:title="include/fa/midi.h">
<polygon fill="none" stroke="black" points="342.473,-0.695312 342.473,-23.3047 445.527,-23.3047 445.527,-0.695312 342.473,-0.695312"/>
<text text-anchor="middle" x="394" y="-8.30469" font-family="Futura" font-size="11.00">include/fa/midi.h</text>
</a>
</g>
<!-- Node1&#45;&gt;Node5 -->
<g id="edge46" class="edge"><title>Node1&#45;&gt;Node5</title>
<path fill="none" stroke="midnightblue" d="M495.563,-297.202C540.895,-280.556 603,-247.758 603,-193 603,-193 603,-193 603,-131 603,-58.9135 507.554,-30.3682 445.663,-19.4358"/>
<polygon fill="midnightblue" stroke="midnightblue" points="494.158,-293.986 485.887,-300.607 496.482,-300.589 494.158,-293.986"/>
</g>
<!-- Node3 -->
<g id="node5" class="node"><title>Node3</title>
<a xlink:href="fa_2fa_8h.html" target="_top" xlink:title="include/fa/fa.h">
<polygon fill="none" stroke="red" points="270.846,-180.695 270.846,-203.305 363.154,-203.305 363.154,-180.695 270.846,-180.695"/>
<text text-anchor="middle" x="317" y="-188.305" font-family="Futura" font-size="11.00">include/fa/fa.h</text>
</a>
</g>
<!-- Node2&#45;&gt;Node3 -->
<g id="edge4" class="edge"><title>Node2&#45;&gt;Node3</title>
<path fill="none" stroke="midnightblue" d="M416.207,-236.591C392.817,-226.314 361.902,-212.73 340.84,-203.475"/>
<polygon fill="midnightblue" stroke="midnightblue" points="414.838,-239.812 425.401,-240.631 417.654,-233.404 414.838,-239.812"/>
</g>
<!-- Node3&#45;&gt;Node1 -->
<g id="edge18" class="edge"><title>Node3&#45;&gt;Node1</title>
<path fill="none" stroke="midnightblue" d="M332.823,-211.202C346.118,-226.07 365.948,-247.284 385,-264 400.647,-277.729 420.102,-291.614 433.429,-300.695"/>
<polygon fill="midnightblue" stroke="midnightblue" points="335.403,-208.835 326.156,-203.663 330.159,-213.472 335.403,-208.835"/>
</g>
<!-- Node4 -->
<g id="node7" class="node"><title>Node4</title>
<a xlink:href="action_8h.html" target="_top" xlink:title="include/fa/action.h">
<polygon fill="none" stroke="black" points="337.746,-60.6953 337.746,-83.3047 450.254,-83.3047 450.254,-60.6953 337.746,-60.6953"/>
<text text-anchor="middle" x="394" y="-68.3047" font-family="Futura" font-size="11.00">include/fa/action.h</text>
</a>
</g>
<!-- Node3&#45;&gt;Node4 -->
<g id="edge6" class="edge"><title>Node3&#45;&gt;Node4</title>
<path fill="none" stroke="midnightblue" d="M330.278,-173.441C338.586,-165.221 348.702,-154.856 356,-144 369.074,-124.552 377.878,-98.2861 385.029,-83.7695"/>
<polygon fill="midnightblue" stroke="midnightblue" points="327.673,-171.095 323.018,-180.612 332.592,-176.075 327.673,-171.095"/>
</g>
<!-- Node6 -->
<g id="node14" class="node"><title>Node6</title>
<a xlink:href="buffer_8h.html" target="_top" xlink:title="include/fa/buffer.h">
<polygon fill="none" stroke="red" points="-0.773193,-0.695312 -0.773193,-23.3047 110.773,-23.3047 110.773,-0.695312 -0.773193,-0.695312"/>
<text text-anchor="middle" x="55" y="-8.30469" font-family="Futura" font-size="11.00">include/fa/buffer.h</text>
</a>
</g>
<!-- Node3&#45;&gt;Node6 -->
<g id="edge16" class="edge"><title>Node3&#45;&gt;Node6</title>
<path fill="none" stroke="midnightblue" d="M260.694,-186.496C195.547,-180.284 93.3313,-167.143 63,-144 31.6006,-120.042 25.763,-98.6271 34,-60 36.8331,-46.7142 43.7052,-32.636 48.8213,-23.3901"/>
<polygon fill="midnightblue" stroke="midnightblue" points="260.534,-189.996 270.815,-187.434 261.18,-183.026 260.534,-189.996"/>
</g>
<!-- Node7 -->
<g id="node17" class="node"><title>Node7</title>
<a xlink:href="dynamic_8h.html" target="_top" xlink:title="include/fa/dynamic.h">
<polygon fill="none" stroke="black" points="80.9185,-120.695 80.9185,-143.305 205.082,-143.305 205.082,-120.695 80.9185,-120.695"/>
<text text-anchor="middle" x="143" y="-128.305" font-family="Futura" font-size="11.00">include/fa/dynamic.h</text>
</a>
</g>
<!-- Node3&#45;&gt;Node7 -->
<g id="edge20" class="edge"><title>Node3&#45;&gt;Node7</title>
<path fill="none" stroke="midnightblue" d="M276.187,-177.396C244.988,-166.996 202.629,-152.876 174.131,-143.377"/>
<polygon fill="midnightblue" stroke="midnightblue" points="275.299,-180.789 285.892,-180.631 277.512,-174.148 275.299,-180.789"/>
</g>
<!-- Node8 -->
<g id="node19" class="node"><title>Node8</title>
<a xlink:href="error_8h.html" target="_top" xlink:title="include/fa/error.h">
<polygon fill="none" stroke="black" points="430.598,-120.695 430.598,-143.305 537.402,-143.305 537.402,-120.695 430.598,-120.695"/>
<text text-anchor="middle" x="484" y="-128.305" font-family="Futura" font-size="11.00">include/fa/error.h</text>
</a>
</g>
<!-- Node3&#45;&gt;Node8 -->
<g id="edge22" class="edge"><title>Node3&#45;&gt;Node8</title>
<path fill="none" stroke="midnightblue" d="M351.095,-177.125C379.612,-166.752 419.98,-152.794 448.804,-143.377"/>
<polygon fill="midnightblue" stroke="midnightblue" points="349.722,-173.9 341.54,-180.631 352.134,-180.471 349.722,-173.9"/>
</g>
<!-- Node9 -->
<g id="node24" class="node"><title>Node9</title>
<a xlink:href="list_8h.html" target="_top" xlink:title="include/fa/list.h">
<polygon fill="none" stroke="red" points="261.385,-120.695 261.385,-143.305 356.615,-143.305 356.615,-120.695 261.385,-120.695"/>
<text text-anchor="middle" x="309" y="-128.305" font-family="Futura" font-size="11.00">include/fa/list.h</text>
</a>
</g>
<!-- Node3&#45;&gt;Node9 -->
<g id="edge30" class="edge"><title>Node3&#45;&gt;Node9</title>
<path fill="none" stroke="midnightblue" d="M307.739,-170.756C305.878,-161.637 304.811,-151.242 305.102,-143.672"/>
<polygon fill="midnightblue" stroke="midnightblue" points="304.394,-171.804 310.254,-180.631 311.177,-170.076 304.394,-171.804"/>
</g>
<!-- Node10 -->
<g id="node29" class="node"><title>Node10</title>
<a xlink:href="map_8h.html" target="_top" xlink:title="include/fa/map.h">
<polygon fill="none" stroke="red" points="42.9141,-60.6953 42.9141,-83.3047 147.086,-83.3047 147.086,-60.6953 42.9141,-60.6953"/>
<text text-anchor="middle" x="95" y="-68.3047" font-family="Futura" font-size="11.00">include/fa/map.h</text>
</a>
</g>
<!-- Node3&#45;&gt;Node10 -->
<g id="edge44" class="edge"><title>Node3&#45;&gt;Node10</title>
<path fill="none" stroke="midnightblue" d="M260.737,-188.271C195.97,-183.812 95.4716,-172.402 72,-144 57.2255,-126.122 74.3571,-98.5327 85.9994,-83.5536"/>
<polygon fill="midnightblue" stroke="midnightblue" points="260.601,-191.769 270.808,-188.928 261.057,-184.784 260.601,-191.769"/>
</g>
<!-- Node4&#45;&gt;Node2 -->
<g id="edge8" class="edge"><title>Node4&#45;&gt;Node2</title>
<path fill="none" stroke="midnightblue" d="M460.449,-76.1128C491.692,-81.3274 526.324,-93.3215 546,-120 579.174,-164.981 503.428,-218.527 467.078,-240.651"/>
<polygon fill="midnightblue" stroke="midnightblue" points="460.85,-72.6342 450.448,-74.6479 459.835,-79.5603 460.85,-72.6342"/>
</g>
<!-- Node4&#45;&gt;Node3 -->
<g id="edge10" class="edge"><title>Node4&#45;&gt;Node3</title>
<path fill="none" stroke="midnightblue" d="M395.485,-93.9142C392.125,-108.675 384.418,-128.502 374,-144 364.37,-158.325 349.832,-171.796 337.54,-180.612"/>
<polygon fill="midnightblue" stroke="midnightblue" points="398.984,-94.2095 397.18,-83.7695 392.08,-93.0561 398.984,-94.2095"/>
</g>
<!-- Node4&#45;&gt;Node5 -->
<g id="edge12" class="edge"><title>Node4&#45;&gt;Node5</title>
<path fill="none" stroke="midnightblue" d="M394,-50.4586C394,-41.4112 394,-31.1602 394,-23.6719"/>
<polygon fill="midnightblue" stroke="midnightblue" points="390.5,-50.6307 394,-60.6308 397.5,-50.6308 390.5,-50.6307"/>
</g>
<!-- Node5&#45;&gt;Node3 -->
<g id="edge14" class="edge"><title>Node5&#45;&gt;Node3</title>
<path fill="none" stroke="midnightblue" d="M357.176,-27.6836C321.899,-44.1132 271.269,-74.538 252,-120 247.837,-129.821 247.147,-134.501 252,-144 260.554,-160.741 278.162,-172.896 292.896,-180.646"/>
<polygon fill="midnightblue" stroke="midnightblue" points="358.988,-30.7065 366.679,-23.4198 356.123,-24.3198 358.988,-30.7065"/>
</g>
<!-- Node8&#45;&gt;Node2 -->
<g id="edge24" class="edge"><title>Node8&#45;&gt;Node2</title>
<path fill="none" stroke="midnightblue" d="M477.974,-153.316C470.461,-178.645 457.903,-220.984 452.106,-240.528"/>
<polygon fill="midnightblue" stroke="midnightblue" points="481.362,-154.2 480.851,-143.618 474.651,-152.21 481.362,-154.2"/>
</g>
<!-- Node8&#45;&gt;Node3 -->
<g id="edge26" class="edge"><title>Node8&#45;&gt;Node3</title>
<path fill="none" stroke="midnightblue" d="M449.882,-146.884C421.358,-157.259 380.99,-171.216 352.172,-180.631"/>
<polygon fill="midnightblue" stroke="midnightblue" points="451.256,-150.108 459.438,-143.377 448.845,-143.536 451.256,-150.108"/>
</g>
<!-- Node8&#45;&gt;Node5 -->
<g id="edge28" class="edge"><title>Node8&#45;&gt;Node5</title>
<path fill="none" stroke="midnightblue" d="M480.242,-110.536C476.696,-95.4371 470.203,-74.9953 459,-60 447.248,-44.27 428.723,-31.6097 414.451,-23.4094"/>
<polygon fill="midnightblue" stroke="midnightblue" points="476.841,-111.37 482.329,-120.433 483.69,-109.926 476.841,-111.37"/>
</g>
<!-- Node9&#45;&gt;Node2 -->
<g id="edge34" class="edge"><title>Node9&#45;&gt;Node2</title>
<path fill="none" stroke="midnightblue" d="M332.092,-149.343C344.206,-158.136 359.158,-169.338 372,-180 396.623,-200.443 423.784,-226.336 438.355,-240.522"/>
<polygon fill="midnightblue" stroke="midnightblue" points="334.005,-146.407 323.843,-143.408 329.917,-152.089 334.005,-146.407"/>
</g>
<!-- Node9&#45;&gt;Node3 -->
<g id="edge36" class="edge"><title>Node9&#45;&gt;Node3</title>
<path fill="none" stroke="midnightblue" d="M318.335,-153.611C320.175,-162.764 321.213,-173.137 320.886,-180.631"/>
<polygon fill="midnightblue" stroke="midnightblue" points="321.67,-152.52 315.842,-143.672 314.881,-154.223 321.67,-152.52"/>
</g>
<!-- Node9&#45;&gt;Node4 -->
<g id="edge32" class="edge"><title>Node9&#45;&gt;Node4</title>
<path fill="none" stroke="midnightblue" d="M332.774,-114.778C347.458,-104.758 365.87,-92.1949 378.649,-83.475"/>
<polygon fill="midnightblue" stroke="midnightblue" points="330.484,-112.103 324.196,-120.631 334.429,-117.885 330.484,-112.103"/>
</g>
<!-- Node9&#45;&gt;Node5 -->
<g id="edge42" class="edge"><title>Node9&#45;&gt;Node5</title>
<path fill="none" stroke="midnightblue" d="M311.179,-110.121C313.584,-95.0786 318.599,-74.8921 329,-60 340.163,-44.0164 358.556,-31.4584 372.933,-23.3596"/>
<polygon fill="midnightblue" stroke="midnightblue" points="307.655,-110.073 309.804,-120.448 314.594,-110.997 307.655,-110.073"/>
</g>
<!-- Node9&#45;&gt;Node10 -->
<g id="edge38" class="edge"><title>Node9&#45;&gt;Node10</title>
<path fill="none" stroke="midnightblue" d="M260.785,-117.932C222.243,-107.486 168.944,-93.0409 133.288,-83.3771"/>
<polygon fill="midnightblue" stroke="midnightblue" points="260.174,-121.393 270.741,-120.631 262.005,-114.637 260.174,-121.393"/>
</g>
<!-- Node10&#45;&gt;Node6 -->
<g id="edge40" class="edge"><title>Node10&#45;&gt;Node6</title>
<path fill="none" stroke="midnightblue" d="M82.0561,-52.2313C75.5345,-42.775 67.8648,-31.6539 62.3599,-23.6719"/>
<polygon fill="midnightblue" stroke="midnightblue" points="79.2902,-54.3857 87.8488,-60.6308 85.0527,-50.4115 79.2902,-54.3857"/>
</g>
</g>
</svg>
