<?xml version="1.0" encoding="UTF-8" standalone="no"?>
<!DOCTYPE svg PUBLIC "-//W3C//DTD SVG 1.1//EN"
 "http://www.w3.org/Graphics/SVG/1.1/DTD/svg11.dtd">
<!-- Generated by graphviz version 2.28.0 (20121015.0031)
 -->
<!-- Title: include/fa/error.h Pages: 1 -->
<svg width="613pt" height="332pt"
 viewBox="0.00 0.00 613.00 332.00" xmlns="http://www.w3.org/2000/svg" xmlns:xlink="http://www.w3.org/1999/xlink">
<g id="graph1" class="graph" transform="scale(1 1) rotate(0) translate(4 328)">
<title>include/fa/error.h</title>
<!-- Node1 -->
<g id="node1" class="node"><title>Node1</title>
<polygon fill="#bfbfbf" stroke="black" points="301.598,-300.695 301.598,-323.305 408.402,-323.305 408.402,-300.695 301.598,-300.695"/>
<text text-anchor="middle" x="355" y="-308.305" font-family="Futura" font-size="11.00">include/fa/error.h</text>
</g>
<!-- Node2 -->
<g id="node3" class="node"><title>Node2</title>
<a xlink:href="audio_8h.html" target="_top" xlink:title="include/fa/audio.h">
<polygon fill="none" stroke="black" points="345.592,-240.695 345.592,-263.305 456.408,-263.305 456.408,-240.695 345.592,-240.695"/>
<text text-anchor="middle" x="401" y="-248.305" font-family="Futura" font-size="11.00">include/fa/audio.h</text>
</a>
</g>
<!-- Node1&#45;&gt;Node2 -->
<g id="edge2" class="edge"><title>Node1&#45;&gt;Node2</title>
<path fill="none" stroke="midnightblue" d="M369.654,-292.523C377.203,-283.005 386.14,-271.736 392.536,-263.672"/>
<polygon fill="midnightblue" stroke="midnightblue" points="366.696,-290.621 363.224,-300.631 372.18,-294.971 366.696,-290.621"/>
</g>
<!-- Node3 -->
<g id="node5" class="node"><title>Node3</title>
<a xlink:href="fa_2fa_8h.html" target="_top" xlink:title="include/fa/fa.h">
<polygon fill="none" stroke="red" points="262.846,-180.695 262.846,-203.305 355.154,-203.305 355.154,-180.695 262.846,-180.695"/>
<text text-anchor="middle" x="309" y="-188.305" font-family="Futura" font-size="11.00">include/fa/fa.h</text>
</a>
</g>
<!-- Node1&#45;&gt;Node3 -->
<g id="edge44" class="edge"><title>Node1&#45;&gt;Node3</title>
<path fill="none" stroke="midnightblue" d="M342.252,-291.545C330.012,-266.386 313.639,-223.451 309.069,-203.618"/>
<polygon fill="midnightblue" stroke="midnightblue" points="339.186,-293.235 346.871,-300.528 345.411,-290.034 339.186,-293.235"/>
</g>
<!-- Node5 -->
<g id="node11" class="node"><title>Node5</title>
<a xlink:href="midi_8h.html" target="_top" xlink:title="include/fa/midi.h">
<polygon fill="none" stroke="black" points="342.473,-0.695312 342.473,-23.3047 445.527,-23.3047 445.527,-0.695312 342.473,-0.695312"/>
<text text-anchor="middle" x="394" y="-8.30469" font-family="Futura" font-size="11.00">include/fa/midi.h</text>
</a>
</g>
<!-- Node1&#45;&gt;Node5 -->
<g id="edge46" class="edge"><title>Node1&#45;&gt;Node5</title>
<path fill="none" stroke="midnightblue" d="M418.815,-307.814C492.884,-300.277 605,-275.28 605,-193 605,-193 605,-193 605,-131 605,-58.18 508.083,-29.865 445.616,-19.1779"/>
<polygon fill="midnightblue" stroke="midnightblue" points="418.262,-304.35 408.631,-308.765 418.914,-311.32 418.262,-304.35"/>
</g>
<!-- Node2&#45;&gt;Node3 -->
<g id="edge4" class="edge"><title>Node2&#45;&gt;Node3</title>
<path fill="none" stroke="midnightblue" d="M375.717,-235.061C359.752,-224.996 339.578,-212.277 325.616,-203.475"/>
<polygon fill="midnightblue" stroke="midnightblue" points="374.226,-238.258 384.552,-240.631 377.96,-232.337 374.226,-238.258"/>
</g>
<!-- Node3&#45;&gt;Node1 -->
<g id="edge26" class="edge"><title>Node3&#45;&gt;Node1</title>
<path fill="none" stroke="midnightblue" d="M321.838,-212.641C334.098,-237.887 350.453,-280.81 354.965,-300.528"/>
<polygon fill="midnightblue" stroke="midnightblue" points="324.888,-210.918 317.21,-203.618 318.659,-214.113 324.888,-210.918"/>
</g>
<!-- Node4 -->
<g id="node7" class="node"><title>Node4</title>
<a xlink:href="action_8h.html" target="_top" xlink:title="include/fa/action.h">
<polygon fill="none" stroke="black" points="337.746,-60.6953 337.746,-83.3047 450.254,-83.3047 450.254,-60.6953 337.746,-60.6953"/>
<text text-anchor="middle" x="394" y="-68.3047" font-family="Futura" font-size="11.00">include/fa/action.h</text>
</a>
</g>
<!-- Node3&#45;&gt;Node4 -->
<g id="edge6" class="edge"><title>Node3&#45;&gt;Node4</title>
<path fill="none" stroke="midnightblue" d="M326.19,-173.883C335.988,-165.801 347.67,-155.421 356,-144 369.966,-124.852 378.531,-98.0058 385.479,-83.4243"/>
<polygon fill="midnightblue" stroke="midnightblue" points="323.76,-171.347 318.195,-180.363 328.167,-176.785 323.76,-171.347"/>
</g>
<!-- Node6 -->
<g id="node14" class="node"><title>Node6</title>
<a xlink:href="buffer_8h.html" target="_top" xlink:title="include/fa/buffer.h">
<polygon fill="none" stroke="red" points="-0.773193,-0.695312 -0.773193,-23.3047 110.773,-23.3047 110.773,-0.695312 -0.773193,-0.695312"/>
<text text-anchor="middle" x="55" y="-8.30469" font-family="Futura" font-size="11.00">include/fa/buffer.h</text>
</a>
</g>
<!-- Node3&#45;&gt;Node6 -->
<g id="edge16" class="edge"><title>Node3&#45;&gt;Node6</title>
<path fill="none" stroke="midnightblue" d="M252.474,-186.084C189.296,-179.59 92.0373,-166.289 63,-144 31.6703,-119.951 25.763,-98.6271 34,-60 36.8331,-46.7142 43.7052,-32.636 48.8213,-23.3901"/>
<polygon fill="midnightblue" stroke="midnightblue" points="252.392,-189.594 262.691,-187.106 253.089,-182.628 252.392,-189.594"/>
</g>
<!-- Node7 -->
<g id="node16" class="node"><title>Node7</title>
<a xlink:href="clock_8h.html" target="_top" xlink:title="include/fa/clock.h">
<polygon fill="none" stroke="black" points="468.978,-120.695 468.978,-143.305 577.022,-143.305 577.022,-120.695 468.978,-120.695"/>
<text text-anchor="middle" x="523" y="-128.305" font-family="Futura" font-size="11.00">include/fa/clock.h</text>
</a>
</g>
<!-- Node3&#45;&gt;Node7 -->
<g id="edge18" class="edge"><title>Node3&#45;&gt;Node7</title>
<path fill="none" stroke="midnightblue" d="M357.215,-177.932C395.757,-167.486 449.056,-153.041 484.712,-143.377"/>
<polygon fill="midnightblue" stroke="midnightblue" points="355.995,-174.637 347.259,-180.631 357.826,-181.393 355.995,-174.637"/>
</g>
<!-- Node8 -->
<g id="node20" class="node"><title>Node8</title>
<a xlink:href="dynamic_8h.html" target="_top" xlink:title="include/fa/dynamic.h">
<polygon fill="none" stroke="black" points="80.9185,-120.695 80.9185,-143.305 205.082,-143.305 205.082,-120.695 80.9185,-120.695"/>
<text text-anchor="middle" x="143" y="-128.305" font-family="Futura" font-size="11.00">include/fa/dynamic.h</text>
</a>
</g>
<!-- Node3&#45;&gt;Node8 -->
<g id="edge24" class="edge"><title>Node3&#45;&gt;Node8</title>
<path fill="none" stroke="midnightblue" d="M269.676,-177.26C239.949,-166.874 199.77,-152.835 172.7,-143.377"/>
<polygon fill="midnightblue" stroke="midnightblue" points="268.728,-180.636 279.323,-180.631 271.037,-174.028 268.728,-180.636"/>
</g>
<!-- Node9 -->
<g id="node23" class="node"><title>Node9</title>
<a xlink:href="list_8h.html" target="_top" xlink:title="include/fa/list.h">
<polygon fill="none" stroke="red" points="261.385,-120.695 261.385,-143.305 356.615,-143.305 356.615,-120.695 261.385,-120.695"/>
<text text-anchor="middle" x="309" y="-128.305" font-family="Futura" font-size="11.00">include/fa/list.h</text>
</a>
</g>
<!-- Node3&#45;&gt;Node9 -->
<g id="edge28" class="edge"><title>Node3&#45;&gt;Node9</title>
<path fill="none" stroke="midnightblue" d="M302.512,-170.459C301.936,-161.411 302.309,-151.16 303.63,-143.672"/>
<polygon fill="midnightblue" stroke="midnightblue" points="299.062,-171.097 303.684,-180.631 306.016,-170.296 299.062,-171.097"/>
</g>
<!-- Node10 -->
<g id="node28" class="node"><title>Node10</title>
<a xlink:href="map_8h.html" target="_top" xlink:title="include/fa/map.h">
<polygon fill="none" stroke="red" points="42.9141,-60.6953 42.9141,-83.3047 147.086,-83.3047 147.086,-60.6953 42.9141,-60.6953"/>
<text text-anchor="middle" x="95" y="-68.3047" font-family="Futura" font-size="11.00">include/fa/map.h</text>
</a>
</g>
<!-- Node3&#45;&gt;Node10 -->
<g id="edge42" class="edge"><title>Node3&#45;&gt;Node10</title>
<path fill="none" stroke="midnightblue" d="M252.587,-187.843C189.867,-183.015 94.4112,-171.292 72,-144 57.2813,-126.076 74.3906,-98.5051 86.0146,-83.5412"/>
<polygon fill="midnightblue" stroke="midnightblue" points="252.51,-191.346 262.739,-188.586 253.021,-184.365 252.51,-191.346"/>
</g>
<!-- Node4&#45;&gt;Node2 -->
<g id="edge8" class="edge"><title>Node4&#45;&gt;Node2</title>
<path fill="none" stroke="midnightblue" d="M394.817,-93.78C396.32,-132.001 399.472,-212.15 400.593,-240.661"/>
<polygon fill="midnightblue" stroke="midnightblue" points="398.298,-93.2227 394.408,-83.368 391.303,-93.4978 398.298,-93.2227"/>
</g>
<!-- Node4&#45;&gt;Node3 -->
<g id="edge10" class="edge"><title>Node4&#45;&gt;Node3</title>
<path fill="none" stroke="midnightblue" d="M395.951,-93.6606C392.829,-108.594 385.129,-128.741 374,-144 363.155,-158.869 346.629,-171.973 332.702,-180.541"/>
<polygon fill="midnightblue" stroke="midnightblue" points="399.464,-93.8216 397.428,-83.4243 392.536,-92.822 399.464,-93.8216"/>
</g>
<!-- Node4&#45;&gt;Node5 -->
<g id="edge12" class="edge"><title>Node4&#45;&gt;Node5</title>
<path fill="none" stroke="midnightblue" d="M394,-50.4586C394,-41.4112 394,-31.1602 394,-23.6719"/>
<polygon fill="midnightblue" stroke="midnightblue" points="390.5,-50.6307 394,-60.6308 397.5,-50.6308 390.5,-50.6307"/>
</g>
<!-- Node5&#45;&gt;Node3 -->
<g id="edge14" class="edge"><title>Node5&#45;&gt;Node3</title>
<path fill="none" stroke="midnightblue" d="M357.176,-27.6836C321.899,-44.1132 271.269,-74.538 252,-120 247.837,-129.821 247.451,-134.352 252,-144 259.604,-160.125 275.755,-172.596 288.93,-180.627"/>
<polygon fill="midnightblue" stroke="midnightblue" points="358.988,-30.7065 366.679,-23.4198 356.123,-24.3198 358.988,-30.7065"/>
</g>
<!-- Node7&#45;&gt;Node2 -->
<g id="edge20" class="edge"><title>Node7&#45;&gt;Node2</title>
<path fill="none" stroke="midnightblue" d="M506.802,-150.792C493.287,-165.42 473.344,-186.51 455,-204 441.327,-217.037 424.854,-231.162 413.726,-240.487"/>
<polygon fill="midnightblue" stroke="midnightblue" points="509.41,-153.126 513.598,-143.394 504.255,-148.391 509.41,-153.126"/>
</g>
<!-- Node7&#45;&gt;Node5 -->
<g id="edge22" class="edge"><title>Node7&#45;&gt;Node5</title>
<path fill="none" stroke="midnightblue" d="M507.977,-112.248C495.591,-97.3248 477.167,-76.3115 459,-60 443.457,-46.0448 423.812,-32.3071 410.209,-23.3233"/>
<polygon fill="midnightblue" stroke="midnightblue" points="505.482,-114.726 514.523,-120.249 510.9,-110.294 505.482,-114.726"/>
</g>
<!-- Node9&#45;&gt;Node2 -->
<g id="edge32" class="edge"><title>Node9&#45;&gt;Node2</title>
<path fill="none" stroke="midnightblue" d="M332.435,-149.737C342.953,-158.027 354.991,-168.677 364,-180 379.404,-199.362 391.275,-226.124 397.078,-240.635"/>
<polygon fill="midnightblue" stroke="midnightblue" points="334.49,-146.902 324.414,-143.627 330.248,-152.471 334.49,-146.902"/>
</g>
<!-- Node9&#45;&gt;Node3 -->
<g id="edge34" class="edge"><title>Node9&#45;&gt;Node3</title>
<path fill="none" stroke="midnightblue" d="M315.492,-153.611C316.069,-162.764 315.677,-173.137 314.316,-180.631"/>
<polygon fill="midnightblue" stroke="midnightblue" points="318.97,-153.216 314.37,-143.672 312.014,-154.001 318.97,-153.216"/>
</g>
<!-- Node9&#45;&gt;Node4 -->
<g id="edge30" class="edge"><title>Node9&#45;&gt;Node4</title>
<path fill="none" stroke="midnightblue" d="M332.774,-114.778C347.458,-104.758 365.87,-92.1949 378.649,-83.475"/>
<polygon fill="midnightblue" stroke="midnightblue" points="330.484,-112.103 324.196,-120.631 334.429,-117.885 330.484,-112.103"/>
</g>
<!-- Node9&#45;&gt;Node5 -->
<g id="edge40" class="edge"><title>Node9&#45;&gt;Node5</title>
<path fill="none" stroke="midnightblue" d="M311.179,-110.121C313.584,-95.0786 318.599,-74.8921 329,-60 340.163,-44.0164 358.556,-31.4584 372.933,-23.3596"/>
<polygon fill="midnightblue" stroke="midnightblue" points="307.655,-110.073 309.804,-120.448 314.594,-110.997 307.655,-110.073"/>
</g>
<!-- Node9&#45;&gt;Node10 -->
<g id="edge36" class="edge"><title>Node9&#45;&gt;Node10</title>
<path fill="none" stroke="midnightblue" d="M260.785,-117.932C222.243,-107.486 168.944,-93.0409 133.288,-83.3771"/>
<polygon fill="midnightblue" stroke="midnightblue" points="260.174,-121.393 270.741,-120.631 262.005,-114.637 260.174,-121.393"/>
</g>
<!-- Node10&#45;&gt;Node6 -->
<g id="edge38" class="edge"><title>Node10&#45;&gt;Node6</title>
<path fill="none" stroke="midnightblue" d="M82.0561,-52.2313C75.5345,-42.775 67.8648,-31.6539 62.3599,-23.6719"/>
<polygon fill="midnightblue" stroke="midnightblue" points="79.2902,-54.3857 87.8488,-60.6308 85.0527,-50.4115 79.2902,-54.3857"/>
</g>
</g>
</svg>
