<?xml version="1.0" encoding="UTF-8" standalone="no"?>
<!DOCTYPE svg PUBLIC "-//W3C//DTD SVG 1.1//EN"
 "http://www.w3.org/Graphics/SVG/1.1/DTD/svg11.dtd">
<!-- Generated by graphviz version 2.28.0 (20121015.0031)
 -->
<!-- Title: include/fa/fa.h Pages: 1 -->
<svg width="796pt" height="392pt"
 viewBox="0.00 0.00 796.00 392.00" xmlns="http://www.w3.org/2000/svg" xmlns:xlink="http://www.w3.org/1999/xlink">
<g id="graph1" class="graph" transform="scale(1 1) rotate(0) translate(4 388)">
<title>include/fa/fa.h</title>
<!-- Node1 -->
<g id="node1" class="node"><title>Node1</title>
<polygon fill="#bfbfbf" stroke="black" points="264.846,-360.695 264.846,-383.305 357.154,-383.305 357.154,-360.695 264.846,-360.695"/>
<text text-anchor="middle" x="311" y="-368.305" font-family="Futura" font-size="11.00">include/fa/fa.h</text>
</g>
<!-- Node2 -->
<g id="node3" class="node"><title>Node2</title>
<a xlink:href="action_8h.html" target="_top" xlink:title="include/fa/action.h">
<polygon fill="none" stroke="red" points="-0.253906,-0.695312 -0.253906,-23.3047 112.254,-23.3047 112.254,-0.695312 -0.253906,-0.695312"/>
<text text-anchor="middle" x="56" y="-8.30469" font-family="Futura" font-size="11.00">include/fa/action.h</text>
</a>
</g>
<!-- Node1&#45;&gt;Node2 -->
<g id="edge2" class="edge"><title>Node1&#45;&gt;Node2</title>
<path fill="none" stroke="midnightblue" d="M254.688,-361.969C164.97,-345.247 0,-306.253 0,-253 0,-253 0,-253 0,-131 0,-88.6614 26.4375,-43.4557 43.4531,-23.499"/>
<polygon fill="midnightblue" stroke="midnightblue" points="254.245,-365.446 264.712,-363.803 255.505,-358.56 254.245,-365.446"/>
</g>
<!-- Node3 -->
<g id="node6" class="node"><title>Node3</title>
<a xlink:href="buffer_8h.html" target="_top" xlink:title="include/fa/buffer.h">
<polygon fill="none" stroke="red" points="194.227,-120.695 194.227,-143.305 305.773,-143.305 305.773,-120.695 194.227,-120.695"/>
<text text-anchor="middle" x="250" y="-128.305" font-family="Futura" font-size="11.00">include/fa/buffer.h</text>
</a>
</g>
<!-- Node1&#45;&gt;Node3 -->
<g id="edge6" class="edge"><title>Node1&#45;&gt;Node3</title>
<path fill="none" stroke="midnightblue" d="M316.628,-350.391C325.423,-313.875 338.723,-236.357 311,-180 302.915,-163.565 286.014,-151.26 272.048,-143.372"/>
<polygon fill="midnightblue" stroke="midnightblue" points="313.171,-349.784 314.093,-360.338 319.954,-351.512 313.171,-349.784"/>
</g>
<!-- Node4 -->
<g id="node8" class="node"><title>Node4</title>
<a xlink:href="signal_8h.html" target="_top" xlink:title="include/fa/signal.h">
<polygon fill="none" stroke="red" points="194.283,-60.6953 194.283,-83.3047 305.717,-83.3047 305.717,-60.6953 194.283,-60.6953"/>
<text text-anchor="middle" x="250" y="-68.3047" font-family="Futura" font-size="11.00">include/fa/signal.h</text>
</a>
</g>
<!-- Node1&#45;&gt;Node4 -->
<g id="edge48" class="edge"><title>Node1&#45;&gt;Node4</title>
<path fill="none" stroke="midnightblue" d="M322.886,-352.341C339.916,-330.468 368,-292.198 368,-253 368,-253 368,-253 368,-191 368,-136.525 304.514,-100.093 270.495,-83.4227"/>
<polygon fill="midnightblue" stroke="midnightblue" points="319.981,-350.374 316.578,-360.408 325.495,-354.686 319.981,-350.374"/>
</g>
<!-- Node5 -->
<g id="node12" class="node"><title>Node5</title>
<a xlink:href="clock_8h.html" target="_top" xlink:title="include/fa/clock.h">
<polygon fill="none" stroke="red" points="413.978,-300.695 413.978,-323.305 522.022,-323.305 522.022,-300.695 413.978,-300.695"/>
<text text-anchor="middle" x="468" y="-308.305" font-family="Futura" font-size="11.00">include/fa/clock.h</text>
</a>
</g>
<!-- Node1&#45;&gt;Node5 -->
<g id="edge14" class="edge"><title>Node1&#45;&gt;Node5</title>
<path fill="none" stroke="midnightblue" d="M348.559,-357.125C376.637,-346.752 414.419,-332.794 439.91,-323.377"/>
<polygon fill="midnightblue" stroke="midnightblue" points="347.236,-353.882 339.068,-360.631 349.662,-360.448 347.236,-353.882"/>
</g>
<!-- Node6 -->
<g id="node14" class="node"><title>Node6</title>
<a xlink:href="dynamic_8h.html" target="_top" xlink:title="include/fa/dynamic.h">
<polygon fill="none" stroke="black" points="539.918,-300.695 539.918,-323.305 664.082,-323.305 664.082,-300.695 539.918,-300.695"/>
<text text-anchor="middle" x="602" y="-308.305" font-family="Futura" font-size="11.00">include/fa/dynamic.h</text>
</a>
</g>
<!-- Node1&#45;&gt;Node6 -->
<g id="edge16" class="edge"><title>Node1&#45;&gt;Node6</title>
<path fill="none" stroke="midnightblue" d="M367.324,-359.774C420.211,-349.233 498.684,-333.592 550.086,-323.347"/>
<polygon fill="midnightblue" stroke="midnightblue" points="366.555,-356.358 357.432,-361.746 367.923,-363.223 366.555,-356.358"/>
</g>
<!-- Node7 -->
<g id="node16" class="node"><title>Node7</title>
<a xlink:href="error_8h.html" target="_top" xlink:title="include/fa/error.h">
<polygon fill="none" stroke="red" points="681.598,-300.695 681.598,-323.305 788.402,-323.305 788.402,-300.695 681.598,-300.695"/>
<text text-anchor="middle" x="735" y="-308.305" font-family="Futura" font-size="11.00">include/fa/error.h</text>
</a>
</g>
<!-- Node1&#45;&gt;Node7 -->
<g id="edge18" class="edge"><title>Node1&#45;&gt;Node7</title>
<path fill="none" stroke="midnightblue" d="M367.492,-363.721C437.315,-355.157 559.434,-340.055 664,-324 669.619,-323.137 675.513,-322.171 681.414,-321.179"/>
<polygon fill="midnightblue" stroke="midnightblue" points="366.661,-360.297 357.161,-364.988 367.513,-367.245 366.661,-360.297"/>
</g>
<!-- Node8 -->
<g id="node19" class="node"><title>Node8</title>
<a xlink:href="list_8h.html" target="_top" xlink:title="include/fa/list.h">
<polygon fill="none" stroke="red" points="168.385,-300.695 168.385,-323.305 263.615,-323.305 263.615,-300.695 168.385,-300.695"/>
<text text-anchor="middle" x="216" y="-308.305" font-family="Futura" font-size="11.00">include/fa/list.h</text>
</a>
</g>
<!-- Node1&#45;&gt;Node8 -->
<g id="edge22" class="edge"><title>Node1&#45;&gt;Node8</title>
<path fill="none" stroke="midnightblue" d="M279.774,-355.622C262.006,-345.472 240.897,-332.442 227.822,-323.475"/>
<polygon fill="midnightblue" stroke="midnightblue" points="278.266,-358.79 288.7,-360.631 281.692,-352.685 278.266,-358.79"/>
</g>
<!-- Node9 -->
<g id="node23" class="node"><title>Node9</title>
<a xlink:href="map_8h.html" target="_top" xlink:title="include/fa/map.h">
<polygon fill="none" stroke="red" points="197.914,-180.695 197.914,-203.305 302.086,-203.305 302.086,-180.695 197.914,-180.695"/>
<text text-anchor="middle" x="250" y="-188.305" font-family="Futura" font-size="11.00">include/fa/map.h</text>
</a>
</g>
<!-- Node1&#45;&gt;Node9 -->
<g id="edge44" class="edge"><title>Node1&#45;&gt;Node9</title>
<path fill="none" stroke="midnightblue" d="M304.06,-350.75C291.04,-312.757 263.378,-232.036 253.553,-203.368"/>
<polygon fill="midnightblue" stroke="midnightblue" points="300.904,-352.335 307.457,-360.661 307.526,-350.066 300.904,-352.335"/>
</g>
<!-- Node10 -->
<g id="node26" class="node"><title>Node10</title>
<a xlink:href="pair_8h.html" target="_top" xlink:title="include/fa/pair.h">
<polygon fill="none" stroke="red" points="84.1306,-240.695 84.1306,-263.305 185.869,-263.305 185.869,-240.695 84.1306,-240.695"/>
<text text-anchor="middle" x="135" y="-248.305" font-family="Futura" font-size="11.00">include/fa/pair.h</text>
</a>
</g>
<!-- Node1&#45;&gt;Node10 -->
<g id="edge46" class="edge"><title>Node1&#45;&gt;Node10</title>
<path fill="none" stroke="midnightblue" d="M254.635,-367.338C220.104,-362.388 177.551,-350.841 150,-324 133.131,-307.566 128.118,-278.878 129.81,-263.48"/>
<polygon fill="midnightblue" stroke="midnightblue" points="254.24,-370.816 264.604,-368.619 255.132,-363.873 254.24,-370.816"/>
</g>
<!-- Node2&#45;&gt;Node1 -->
<g id="edge4" class="edge"><title>Node2&#45;&gt;Node1</title>
<path fill="none" stroke="midnightblue" d="M49.3067,-32.7208C37.8814,-55.4129 18,-94.2845 18,-131 18,-253 18,-253 18,-253 18,-306.124 182.173,-345.058 264.82,-361.847"/>
<polygon fill="midnightblue" stroke="midnightblue" points="52.5709,-34.0152 53.8594,-23.499 46.2941,-30.9164 52.5709,-34.0152"/>
</g>
<!-- Node3&#45;&gt;Node4 -->
<g id="edge8" class="edge"><title>Node3&#45;&gt;Node4</title>
<path fill="none" stroke="midnightblue" d="M250,-110.459C250,-101.411 250,-91.1602 250,-83.6719"/>
<polygon fill="midnightblue" stroke="midnightblue" points="246.5,-110.631 250,-120.631 253.5,-110.631 246.5,-110.631"/>
</g>
<!-- Node4&#45;&gt;Node1 -->
<g id="edge12" class="edge"><title>Node4&#45;&gt;Node1</title>
<path fill="none" stroke="midnightblue" d="M291.471,-87.4604C331.588,-105.601 386,-140.568 386,-191 386,-253 386,-253 386,-253 386,-297.598 349.644,-340.995 327.219,-360.408"/>
<polygon fill="midnightblue" stroke="midnightblue" points="292.701,-84.1793 282.134,-83.4227 289.923,-90.6043 292.701,-84.1793"/>
</g>
<!-- Node4&#45;&gt;Node2 -->
<g id="edge10" class="edge"><title>Node4&#45;&gt;Node2</title>
<path fill="none" stroke="midnightblue" d="M205.396,-57.6648C170.529,-47.2408 122.758,-32.9586 90.7095,-23.3771"/>
<polygon fill="midnightblue" stroke="midnightblue" points="204.733,-61.1196 215.317,-60.6308 206.738,-54.4129 204.733,-61.1196"/>
</g>
<!-- Node7&#45;&gt;Node1 -->
<g id="edge20" class="edge"><title>Node7&#45;&gt;Node1</title>
<path fill="none" stroke="midnightblue" d="M676.341,-324.849C558.312,-342.746 426,-358.718 357.379,-366.329"/>
<polygon fill="midnightblue" stroke="midnightblue" points="676.902,-328.304 686.259,-323.335 675.846,-321.384 676.902,-328.304"/>
</g>
<!-- Node8&#45;&gt;Node1 -->
<g id="edge26" class="edge"><title>Node8&#45;&gt;Node1</title>
<path fill="none" stroke="midnightblue" d="M247.437,-328.498C265.23,-338.67 286.32,-351.696 299.332,-360.631"/>
<polygon fill="midnightblue" stroke="midnightblue" points="248.925,-325.32 238.492,-323.475 245.498,-331.423 248.925,-325.32"/>
</g>
<!-- Node8&#45;&gt;Node2 -->
<g id="edge24" class="edge"><title>Node8&#45;&gt;Node2</title>
<path fill="none" stroke="midnightblue" d="M158.357,-304.704C129.669,-298.689 96.5972,-286.94 75,-264 52.6082,-240.216 56,-225.666 56,-193 56,-193 56,-193 56,-131 56,-91.2569 56,-43.9844 56,-23.4179"/>
<polygon fill="midnightblue" stroke="midnightblue" points="157.816,-308.164 168.295,-306.601 159.129,-301.288 157.816,-308.164"/>
</g>
<!-- Node8&#45;&gt;Node9 -->
<g id="edge28" class="edge"><title>Node8&#45;&gt;Node9</title>
<path fill="none" stroke="midnightblue" d="M221.799,-290.873C229.073,-265.628 241.277,-223.275 246.941,-203.618"/>
<polygon fill="midnightblue" stroke="midnightblue" points="218.423,-289.95 219.017,-300.528 225.149,-291.888 218.423,-289.95"/>
</g>
<!-- Node8&#45;&gt;Node10 -->
<g id="edge32" class="edge"><title>Node8&#45;&gt;Node10</title>
<path fill="none" stroke="midnightblue" d="M193.345,-294.778C179.352,-284.758 161.807,-272.195 149.629,-263.475"/>
<polygon fill="midnightblue" stroke="midnightblue" points="191.351,-297.655 201.519,-300.631 195.426,-291.963 191.351,-297.655"/>
</g>
<!-- Node9&#45;&gt;Node3 -->
<g id="edge30" class="edge"><title>Node9&#45;&gt;Node3</title>
<path fill="none" stroke="midnightblue" d="M250,-170.459C250,-161.411 250,-151.16 250,-143.672"/>
<polygon fill="midnightblue" stroke="midnightblue" points="246.5,-170.631 250,-180.631 253.5,-170.631 246.5,-170.631"/>
</g>
<!-- Node10&#45;&gt;Node1 -->
<g id="edge38" class="edge"><title>Node10&#45;&gt;Node1</title>
<path fill="none" stroke="midnightblue" d="M144.187,-273.374C148.415,-289.205 154.294,-310.647 168,-324 194.116,-349.443 233.712,-361.144 264.709,-366.509"/>
<polygon fill="midnightblue" stroke="midnightblue" points="147.489,-272.183 141.448,-263.48 140.743,-274.051 147.489,-272.183"/>
</g>
<!-- Node10&#45;&gt;Node2 -->
<g id="edge34" class="edge"><title>Node10&#45;&gt;Node2</title>
<path fill="none" stroke="midnightblue" d="M128.28,-230.755C112.125,-182.084 71.5525,-59.8543 59.4561,-23.412"/>
<polygon fill="midnightblue" stroke="midnightblue" points="125.031,-232.078 131.504,-240.466 131.675,-229.873 125.031,-232.078"/>
</g>
<!-- Node10&#45;&gt;Node3 -->
<g id="edge36" class="edge"><title>Node10&#45;&gt;Node3</title>
<path fill="none" stroke="midnightblue" d="M147.22,-232.252C157.445,-217.278 172.909,-196.192 189,-180 203.041,-165.87 221.402,-152.267 234.298,-143.363"/>
<polygon fill="midnightblue" stroke="midnightblue" points="144.228,-230.431 141.573,-240.688 150.044,-234.326 144.228,-230.431"/>
</g>
<!-- Node10&#45;&gt;Node4 -->
<g id="edge42" class="edge"><title>Node10&#45;&gt;Node4</title>
<path fill="none" stroke="midnightblue" d="M138.976,-230.471C145.097,-203.037 158.944,-153.944 185,-120 197.041,-104.314 215.723,-91.5688 229.974,-83.3282"/>
<polygon fill="midnightblue" stroke="midnightblue" points="135.504,-229.975 136.875,-240.481 142.355,-231.413 135.504,-229.975"/>
</g>
<!-- Node10&#45;&gt;Node9 -->
<g id="edge40" class="edge"><title>Node10&#45;&gt;Node9</title>
<path fill="none" stroke="midnightblue" d="M164.663,-236.04C184.902,-225.832 211.207,-212.565 229.231,-203.475"/>
<polygon fill="midnightblue" stroke="midnightblue" points="162.912,-233.002 155.56,-240.631 166.065,-239.253 162.912,-233.002"/>
</g>
</g>
</svg>
