<?xml version="1.0" encoding="UTF-8" standalone="no"?>
<!DOCTYPE svg PUBLIC "-//W3C//DTD SVG 1.1//EN"
 "http://www.w3.org/Graphics/SVG/1.1/DTD/svg11.dtd">
<!-- Generated by graphviz version 2.28.0 (20121015.0031)
 -->
<!-- Title: include/fa/list.h Pages: 1 -->
<svg width="530pt" height="392pt"
 viewBox="0.00 0.00 530.00 392.00" xmlns="http://www.w3.org/2000/svg" xmlns:xlink="http://www.w3.org/1999/xlink">
<g id="graph1" class="graph" transform="scale(1 1) rotate(0) translate(4 388)">
<title>include/fa/list.h</title>
<!-- Node1 -->
<g id="node1" class="node"><title>Node1</title>
<polygon fill="#bfbfbf" stroke="black" points="303.385,-360.695 303.385,-383.305 398.615,-383.305 398.615,-360.695 303.385,-360.695"/>
<text text-anchor="middle" x="351" y="-368.305" font-family="Futura" font-size="11.00">include/fa/list.h</text>
</g>
<!-- Node2 -->
<g id="node3" class="node"><title>Node2</title>
<a xlink:href="action_8h.html" target="_top" xlink:title="include/fa/action.h">
<polygon fill="none" stroke="black" points="97.7461,-300.695 97.7461,-323.305 210.254,-323.305 210.254,-300.695 97.7461,-300.695"/>
<text text-anchor="middle" x="154" y="-308.305" font-family="Futura" font-size="11.00">include/fa/action.h</text>
</a>
</g>
<!-- Node1&#45;&gt;Node2 -->
<g id="edge2" class="edge"><title>Node1&#45;&gt;Node2</title>
<path fill="none" stroke="midnightblue" d="M306.162,-357.799C270.717,-347.363 221.93,-333 189.246,-323.377"/>
<polygon fill="midnightblue" stroke="midnightblue" points="305.199,-361.164 315.78,-360.631 307.176,-354.449 305.199,-361.164"/>
</g>
<!-- Node3 -->
<g id="node5" class="node"><title>Node3</title>
<a xlink:href="audio_8h.html" target="_top" xlink:title="include/fa/audio.h">
<polygon fill="none" stroke="black" points="165.592,-240.695 165.592,-263.305 276.408,-263.305 276.408,-240.695 165.592,-240.695"/>
<text text-anchor="middle" x="221" y="-248.305" font-family="Futura" font-size="11.00">include/fa/audio.h</text>
</a>
</g>
<!-- Node1&#45;&gt;Node3 -->
<g id="edge46" class="edge"><title>Node1&#45;&gt;Node3</title>
<path fill="none" stroke="midnightblue" d="M331.732,-353.51C304.379,-328.682 255.127,-283.977 232.698,-263.618"/>
<polygon fill="midnightblue" stroke="midnightblue" points="329.706,-356.399 339.463,-360.528 334.411,-351.216 329.706,-356.399"/>
</g>
<!-- Node4 -->
<g id="node7" class="node"><title>Node4</title>
<a xlink:href="fa_2fa_8h.html" target="_top" xlink:title="include/fa/fa.h">
<polygon fill="none" stroke="red" points="164.846,-180.695 164.846,-203.305 257.154,-203.305 257.154,-180.695 164.846,-180.695"/>
<text text-anchor="middle" x="211" y="-188.305" font-family="Futura" font-size="11.00">include/fa/fa.h</text>
</a>
</g>
<!-- Node1&#45;&gt;Node4 -->
<g id="edge48" class="edge"><title>Node1&#45;&gt;Node4</title>
<path fill="none" stroke="midnightblue" d="M338.714,-350.98C326.301,-323.44 306.313,-273.479 276,-240 261.699,-224.205 240.908,-211.63 226.475,-203.476"/>
<polygon fill="midnightblue" stroke="midnightblue" points="335.695,-352.786 343.106,-360.357 342.034,-349.816 335.695,-352.786"/>
</g>
<!-- Node7 -->
<g id="node15" class="node"><title>Node7</title>
<a xlink:href="midi_8h.html" target="_top" xlink:title="include/fa/midi.h">
<polygon fill="none" stroke="black" points="68.4727,-60.6953 68.4727,-83.3047 171.527,-83.3047 171.527,-60.6953 68.4727,-60.6953"/>
<text text-anchor="middle" x="120" y="-68.3047" font-family="Futura" font-size="11.00">include/fa/midi.h</text>
</a>
</g>
<!-- Node1&#45;&gt;Node7 -->
<g id="edge52" class="edge"><title>Node1&#45;&gt;Node7</title>
<path fill="none" stroke="midnightblue" d="M292.798,-368.74C238.037,-364.756 154.841,-353.833 89,-324 42.9102,-303.116 0,-303.6 0,-253 0,-253 0,-253 0,-191 0,-137.677 60.9856,-100.412 96.0046,-83.4088"/>
<polygon fill="midnightblue" stroke="midnightblue" points="292.808,-372.248 303.02,-369.427 293.277,-365.264 292.808,-372.248"/>
</g>
<!-- Node8 -->
<g id="node19" class="node"><title>Node8</title>
<a xlink:href="map_8h.html" target="_top" xlink:title="include/fa/map.h">
<polygon fill="none" stroke="black" points="323.914,-60.6953 323.914,-83.3047 428.086,-83.3047 428.086,-60.6953 323.914,-60.6953"/>
<text text-anchor="middle" x="376" y="-68.3047" font-family="Futura" font-size="11.00">include/fa/map.h</text>
</a>
</g>
<!-- Node1&#45;&gt;Node8 -->
<g id="edge50" class="edge"><title>Node1&#45;&gt;Node8</title>
<path fill="none" stroke="midnightblue" d="M373.82,-354.128C398.998,-333.385 436,-295.645 436,-253 436,-253 436,-253 436,-191 436,-158.216 431.424,-148.928 416,-120 408.539,-106.007 396.336,-92.4846 387.367,-83.5656"/>
<polygon fill="midnightblue" stroke="midnightblue" points="371.46,-351.533 365.806,-360.493 375.813,-357.014 371.46,-351.533"/>
</g>
<!-- Node9 -->
<g id="node22" class="node"><title>Node9</title>
<a xlink:href="literals_8h.html" target="_top" xlink:title="include/fa/util/literals.h">
<polygon fill="none" stroke="red" points="387.518,-0.695312 387.518,-23.3047 522.482,-23.3047 522.482,-0.695312 387.518,-0.695312"/>
<text text-anchor="middle" x="455" y="-8.30469" font-family="Futura" font-size="11.00">include/fa/util/literals.h</text>
</a>
</g>
<!-- Node1&#45;&gt;Node9 -->
<g id="edge56" class="edge"><title>Node1&#45;&gt;Node9</title>
<path fill="none" stroke="midnightblue" d="M385.216,-356.073C421.613,-337.606 474,-302.439 474,-253 474,-253 474,-253 474,-131 474,-90.745 463.089,-43.7365 457.804,-23.3279"/>
<polygon fill="midnightblue" stroke="midnightblue" points="383.344,-353.092 375.891,-360.621 386.413,-359.383 383.344,-353.092"/>
</g>
<!-- Node10 -->
<g id="node24" class="node"><title>Node10</title>
<a xlink:href="pair_8h.html" target="_top" xlink:title="include/fa/pair.h">
<polygon fill="none" stroke="red" points="306.131,-120.695 306.131,-143.305 407.869,-143.305 407.869,-120.695 306.131,-120.695"/>
<text text-anchor="middle" x="357" y="-128.305" font-family="Futura" font-size="11.00">include/fa/pair.h</text>
</a>
</g>
<!-- Node1&#45;&gt;Node10 -->
<g id="edge54" class="edge"><title>Node1&#45;&gt;Node10</title>
<path fill="none" stroke="midnightblue" d="M351.974,-350.384C352.336,-342.176 352.726,-332.643 353,-324 355.189,-255.047 356.461,-172.053 356.862,-143.354"/>
<polygon fill="midnightblue" stroke="midnightblue" points="348.469,-350.399 351.509,-360.549 355.462,-350.719 348.469,-350.399"/>
</g>
<!-- Node2&#45;&gt;Node3 -->
<g id="edge4" class="edge"><title>Node2&#45;&gt;Node3</title>
<path fill="none" stroke="midnightblue" d="M173.677,-293.966C185.002,-284.163 198.881,-272.148 208.672,-263.672"/>
<polygon fill="midnightblue" stroke="midnightblue" points="171.248,-291.439 165.978,-300.631 175.83,-296.732 171.248,-291.439"/>
</g>
<!-- Node2&#45;&gt;Node4 -->
<g id="edge42" class="edge"><title>Node2&#45;&gt;Node4</title>
<path fill="none" stroke="midnightblue" d="M143.249,-290.576C140.313,-275.799 140.425,-255.745 148,-240 155.597,-224.208 171.207,-211.554 185.202,-203.372"/>
<polygon fill="midnightblue" stroke="midnightblue" points="139.879,-291.522 145.862,-300.265 146.638,-289.699 139.879,-291.522"/>
</g>
<!-- Node2&#45;&gt;Node7 -->
<g id="edge44" class="edge"><title>Node2&#45;&gt;Node7</title>
<path fill="none" stroke="midnightblue" d="M138.752,-292.489C115.697,-263.167 72.9635,-203.267 57,-144 54.2258,-133.7 52.2176,-129.534 57,-120 65.3207,-103.411 82.5809,-91.1836 96.9341,-83.3649"/>
<polygon fill="midnightblue" stroke="midnightblue" points="136.242,-294.954 145.224,-300.573 141.707,-290.579 136.242,-294.954"/>
</g>
<!-- Node3&#45;&gt;Node4 -->
<g id="edge6" class="edge"><title>Node3&#45;&gt;Node4</title>
<path fill="none" stroke="midnightblue" d="M217.51,-230.756C215.937,-221.637 214.145,-211.242 212.84,-203.672"/>
<polygon fill="midnightblue" stroke="midnightblue" points="214.064,-231.371 219.212,-240.631 220.962,-230.181 214.064,-231.371"/>
</g>
<!-- Node4&#45;&gt;Node1 -->
<g id="edge20" class="edge"><title>Node4&#45;&gt;Node1</title>
<path fill="none" stroke="midnightblue" d="M250.743,-208.066C265.863,-216.048 282.157,-226.92 294,-240 328.186,-277.756 349.24,-336.474 352.523,-360.357"/>
<polygon fill="midnightblue" stroke="midnightblue" points="252.042,-204.803 241.531,-203.476 248.921,-211.068 252.042,-204.803"/>
</g>
<!-- Node4&#45;&gt;Node2 -->
<g id="edge8" class="edge"><title>Node4&#45;&gt;Node2</title>
<path fill="none" stroke="midnightblue" d="M191.957,-209.774C182.394,-217.596 171.834,-227.873 166,-240 156.586,-259.567 158.698,-285.788 158.013,-300.265"/>
<polygon fill="midnightblue" stroke="midnightblue" points="194.217,-212.45 199.96,-203.547 189.919,-206.925 194.217,-212.45"/>
</g>
<!-- Node5 -->
<g id="node10" class="node"><title>Node5</title>
<a xlink:href="buffer_8h.html" target="_top" xlink:title="include/fa/buffer.h">
<polygon fill="none" stroke="red" points="240.227,-0.695312 240.227,-23.3047 351.773,-23.3047 351.773,-0.695312 240.227,-0.695312"/>
<text text-anchor="middle" x="296" y="-8.30469" font-family="Futura" font-size="11.00">include/fa/buffer.h</text>
</a>
</g>
<!-- Node4&#45;&gt;Node5 -->
<g id="edge10" class="edge"><title>Node4&#45;&gt;Node5</title>
<path fill="none" stroke="midnightblue" d="M220.438,-171.237C238.481,-133.451 277.3,-52.1592 291.049,-23.368"/>
<polygon fill="midnightblue" stroke="midnightblue" points="217.088,-170.128 215.937,-180.661 223.405,-173.145 217.088,-170.128"/>
</g>
<!-- Node6 -->
<g id="node12" class="node"><title>Node6</title>
<a xlink:href="clock_8h.html" target="_top" xlink:title="include/fa/clock.h">
<polygon fill="none" stroke="black" points="65.9778,-120.695 65.9778,-143.305 174.022,-143.305 174.022,-120.695 65.9778,-120.695"/>
<text text-anchor="middle" x="120" y="-128.305" font-family="Futura" font-size="11.00">include/fa/clock.h</text>
</a>
</g>
<!-- Node4&#45;&gt;Node6 -->
<g id="edge12" class="edge"><title>Node4&#45;&gt;Node6</title>
<path fill="none" stroke="midnightblue" d="M185.992,-175.061C170.2,-164.996 150.245,-152.277 136.435,-143.475"/>
<polygon fill="midnightblue" stroke="midnightblue" points="184.417,-178.207 194.731,-180.631 188.179,-172.304 184.417,-178.207"/>
</g>
<!-- Node4&#45;&gt;Node8 -->
<g id="edge22" class="edge"><title>Node4&#45;&gt;Node8</title>
<path fill="none" stroke="midnightblue" d="M230.097,-173.788C247.093,-158.827 272.919,-136.954 297,-120 316.574,-106.219 340.332,-92.4518 356.651,-83.4131"/>
<polygon fill="midnightblue" stroke="midnightblue" points="227.663,-171.268 222.509,-180.525 232.311,-176.502 227.663,-171.268"/>
</g>
<!-- Node4&#45;&gt;Node10 -->
<g id="edge28" class="edge"><title>Node4&#45;&gt;Node10</title>
<path fill="none" stroke="midnightblue" d="M241.049,-176.715C265.756,-166.387 300.48,-152.671 325.561,-143.377"/>
<polygon fill="midnightblue" stroke="midnightblue" points="239.634,-173.513 231.786,-180.631 242.36,-179.961 239.634,-173.513"/>
</g>
<!-- Node6&#45;&gt;Node3 -->
<g id="edge14" class="edge"><title>Node6&#45;&gt;Node3</title>
<path fill="none" stroke="midnightblue" d="M127.141,-152.993C133.213,-168.117 143.017,-188.803 156,-204 169.026,-219.247 187.964,-232.212 202.042,-240.638"/>
<polygon fill="midnightblue" stroke="midnightblue" points="130.372,-151.645 123.539,-143.548 123.832,-154.139 130.372,-151.645"/>
</g>
<!-- Node6&#45;&gt;Node7 -->
<g id="edge16" class="edge"><title>Node6&#45;&gt;Node7</title>
<path fill="none" stroke="midnightblue" d="M120,-110.459C120,-101.411 120,-91.1602 120,-83.6719"/>
<polygon fill="midnightblue" stroke="midnightblue" points="116.5,-110.631 120,-120.631 123.5,-110.631 116.5,-110.631"/>
</g>
<!-- Node7&#45;&gt;Node4 -->
<g id="edge18" class="edge"><title>Node7&#45;&gt;Node4</title>
<path fill="none" stroke="midnightblue" d="M147.586,-88.7073C159.771,-96.7695 173.463,-107.526 183,-120 197.325,-138.737 205.266,-165.743 208.775,-180.461"/>
<polygon fill="midnightblue" stroke="midnightblue" points="149.385,-85.7042 139.061,-83.3268 145.649,-91.6239 149.385,-85.7042"/>
</g>
<!-- Node8&#45;&gt;Node5 -->
<g id="edge24" class="edge"><title>Node8&#45;&gt;Node5</title>
<path fill="none" stroke="midnightblue" d="M353.233,-54.4937C339.478,-44.5216 322.362,-32.1126 310.448,-23.475"/>
<polygon fill="midnightblue" stroke="midnightblue" points="351.547,-57.5947 361.698,-60.6308 355.656,-51.9274 351.547,-57.5947"/>
</g>
<!-- Node8&#45;&gt;Node9 -->
<g id="edge26" class="edge"><title>Node8&#45;&gt;Node9</title>
<path fill="none" stroke="midnightblue" d="M398.483,-54.4937C412.065,-44.5216 428.967,-32.1126 440.732,-23.475"/>
<polygon fill="midnightblue" stroke="midnightblue" points="396.113,-51.8914 390.124,-60.6308 400.256,-57.534 396.113,-51.8914"/>
</g>
<!-- Node10&#45;&gt;Node2 -->
<g id="edge30" class="edge"><title>Node10&#45;&gt;Node2</title>
<path fill="none" stroke="midnightblue" d="M350.987,-153.186C341.487,-181.747 320.362,-233.829 285,-264 263.586,-282.271 234.532,-293.646 209.227,-300.618"/>
<polygon fill="midnightblue" stroke="midnightblue" points="354.376,-154.076 354.064,-143.485 347.704,-151.959 354.376,-154.076"/>
</g>
<!-- Node10&#45;&gt;Node3 -->
<g id="edge32" class="edge"><title>Node10&#45;&gt;Node3</title>
<path fill="none" stroke="midnightblue" d="M337.006,-150.348C308.356,-175.206 256.5,-220.199 233.069,-240.528"/>
<polygon fill="midnightblue" stroke="midnightblue" points="339.503,-152.815 344.762,-143.618 334.915,-147.528 339.503,-152.815"/>
</g>
<!-- Node10&#45;&gt;Node4 -->
<g id="edge36" class="edge"><title>Node10&#45;&gt;Node4</title>
<path fill="none" stroke="midnightblue" d="M326.7,-147.39C302.003,-157.709 267.416,-171.368 242.418,-180.631"/>
<polygon fill="midnightblue" stroke="midnightblue" points="328.117,-150.591 335.967,-143.475 325.393,-144.142 328.117,-150.591"/>
</g>
<!-- Node10&#45;&gt;Node5 -->
<g id="edge34" class="edge"><title>Node10&#45;&gt;Node5</title>
<path fill="none" stroke="midnightblue" d="M337.647,-113.386C329.618,-105.156 320.834,-94.7979 315,-84 304.324,-64.2419 299.347,-38.0926 297.279,-23.6788"/>
<polygon fill="midnightblue" stroke="midnightblue" points="335.396,-116.081 344.993,-120.571 340.291,-111.076 335.396,-116.081"/>
</g>
<!-- Node10&#45;&gt;Node7 -->
<g id="edge40" class="edge"><title>Node10&#45;&gt;Node7</title>
<path fill="none" stroke="midnightblue" d="M304.689,-118.198C261.924,-107.733 202.227,-93.1231 162.403,-83.3771"/>
<polygon fill="midnightblue" stroke="midnightblue" points="304.084,-121.653 314.629,-120.631 305.748,-114.854 304.084,-121.653"/>
</g>
<!-- Node10&#45;&gt;Node8 -->
<g id="edge38" class="edge"><title>Node10&#45;&gt;Node8</title>
<path fill="none" stroke="midnightblue" d="M363.534,-111.053C366.545,-101.863 369.997,-91.3248 372.504,-83.6719"/>
<polygon fill="midnightblue" stroke="midnightblue" points="360.184,-110.038 360.397,-120.631 366.836,-112.217 360.184,-110.038"/>
</g>
</g>
</svg>
