<?xml version="1.0" encoding="UTF-8" standalone="no"?>
<!DOCTYPE svg PUBLIC "-//W3C//DTD SVG 1.1//EN"
 "http://www.w3.org/Graphics/SVG/1.1/DTD/svg11.dtd">
<!-- Generated by graphviz version 2.28.0 (20121015.0031)
 -->
<!-- Title: include/fa/map.h Pages: 1 -->
<svg width="408pt" height="392pt"
 viewBox="0.00 0.00 408.00 392.00" xmlns="http://www.w3.org/2000/svg" xmlns:xlink="http://www.w3.org/1999/xlink">
<g id="graph1" class="graph" transform="scale(1 1) rotate(0) translate(4 388)">
<title>include/fa/map.h</title>
<!-- Node1 -->
<g id="node1" class="node"><title>Node1</title>
<polygon fill="#bfbfbf" stroke="black" points="185.914,-360.695 185.914,-383.305 290.086,-383.305 290.086,-360.695 185.914,-360.695"/>
<text text-anchor="middle" x="238" y="-368.305" font-family="Futura" font-size="11.00">include/fa/map.h</text>
</g>
<!-- Node2 -->
<g id="node3" class="node"><title>Node2</title>
<a xlink:href="buffer_8h.html" target="_top" xlink:title="include/fa/buffer.h">
<polygon fill="none" stroke="black" points="69.2268,-300.695 69.2268,-323.305 180.773,-323.305 180.773,-300.695 69.2268,-300.695"/>
<text text-anchor="middle" x="125" y="-308.305" font-family="Futura" font-size="11.00">include/fa/buffer.h</text>
</a>
</g>
<!-- Node1&#45;&gt;Node2 -->
<g id="edge2" class="edge"><title>Node1&#45;&gt;Node2</title>
<path fill="none" stroke="midnightblue" d="M208.853,-356.04C188.966,-345.832 163.118,-332.565 145.408,-323.475"/>
<polygon fill="midnightblue" stroke="midnightblue" points="207.303,-359.178 217.798,-360.631 210.5,-352.951 207.303,-359.178"/>
</g>
<!-- Node9 -->
<g id="node26" class="node"><title>Node9</title>
<a xlink:href="literals_8h.html" target="_top" xlink:title="include/fa/util/literals.h">
<polygon fill="none" stroke="black" points="265.518,-300.695 265.518,-323.305 400.482,-323.305 400.482,-300.695 265.518,-300.695"/>
<text text-anchor="middle" x="333" y="-308.305" font-family="Futura" font-size="11.00">include/fa/util/literals.h</text>
</a>
</g>
<!-- Node1&#45;&gt;Node9 -->
<g id="edge34" class="edge"><title>Node1&#45;&gt;Node9</title>
<path fill="none" stroke="midnightblue" d="M263.646,-355.342C280.203,-345.234 301.291,-332.359 315.843,-323.475"/>
<polygon fill="midnightblue" stroke="midnightblue" points="261.695,-352.433 254.984,-360.631 265.343,-358.407 261.695,-352.433"/>
</g>
<!-- Node3 -->
<g id="node5" class="node"><title>Node3</title>
<a xlink:href="message_8h.html" target="_top" xlink:title="include/fa/midi/message.h">
<polygon fill="none" stroke="black" points="20.1335,-240.695 20.1335,-263.305 171.866,-263.305 171.866,-240.695 20.1335,-240.695"/>
<text text-anchor="middle" x="96" y="-248.305" font-family="Futura" font-size="11.00">include/fa/midi/message.h</text>
</a>
</g>
<!-- Node2&#45;&gt;Node3 -->
<g id="edge4" class="edge"><title>Node2&#45;&gt;Node3</title>
<path fill="none" stroke="midnightblue" d="M115.322,-291.644C110.659,-282.318 105.245,-271.489 101.336,-263.672"/>
<polygon fill="midnightblue" stroke="midnightblue" points="112.213,-293.252 119.815,-300.631 118.474,-290.121 112.213,-293.252"/>
</g>
<!-- Node8 -->
<g id="node20" class="node"><title>Node8</title>
<a xlink:href="signal_8h.html" target="_top" xlink:title="include/fa/signal.h">
<polygon fill="none" stroke="black" points="-0.716797,-120.695 -0.716797,-143.305 110.717,-143.305 110.717,-120.695 -0.716797,-120.695"/>
<text text-anchor="middle" x="55" y="-128.305" font-family="Futura" font-size="11.00">include/fa/signal.h</text>
</a>
</g>
<!-- Node2&#45;&gt;Node8 -->
<g id="edge32" class="edge"><title>Node2&#45;&gt;Node8</title>
<path fill="none" stroke="midnightblue" d="M59.5873,-298.564C40.7441,-291.623 22.2567,-280.817 11,-264 -15.691,-224.125 26.1781,-166.599 45.7731,-143.339"/>
<polygon fill="midnightblue" stroke="midnightblue" points="58.5414,-301.904 69.1353,-301.761 60.7643,-295.267 58.5414,-301.904"/>
</g>
<!-- Node4 -->
<g id="node7" class="node"><title>Node4</title>
<a xlink:href="fa_2fa_8h.html" target="_top" xlink:title="include/fa/fa.h">
<polygon fill="none" stroke="red" points="101.846,-180.695 101.846,-203.305 194.154,-203.305 194.154,-180.695 101.846,-180.695"/>
<text text-anchor="middle" x="148" y="-188.305" font-family="Futura" font-size="11.00">include/fa/fa.h</text>
</a>
</g>
<!-- Node3&#45;&gt;Node4 -->
<g id="edge6" class="edge"><title>Node3&#45;&gt;Node4</title>
<path fill="none" stroke="midnightblue" d="M112.045,-233.104C120.686,-223.466 131.054,-211.901 138.432,-203.672"/>
<polygon fill="midnightblue" stroke="midnightblue" points="109.366,-230.849 105.297,-240.631 114.578,-235.521 109.366,-230.849"/>
</g>
<!-- Node4&#45;&gt;Node1 -->
<g id="edge22" class="edge"><title>Node4&#45;&gt;Node1</title>
<path fill="none" stroke="midnightblue" d="M169.738,-210.132C178.927,-218.329 189.082,-228.794 196,-240 220.967,-280.442 232.497,-337.168 236.394,-360.424"/>
<polygon fill="midnightblue" stroke="midnightblue" points="171.897,-207.373 162.016,-203.55 167.356,-212.701 171.897,-207.373"/>
</g>
<!-- Node4&#45;&gt;Node2 -->
<g id="edge16" class="edge"><title>Node4&#45;&gt;Node2</title>
<path fill="none" stroke="midnightblue" d="M165.352,-211.293C176.778,-225.654 188.231,-246.139 180,-264 172.64,-279.97 156.881,-292.529 144.111,-300.632"/>
<polygon fill="midnightblue" stroke="midnightblue" points="167.939,-208.932 158.777,-203.611 162.621,-213.484 167.939,-208.932"/>
</g>
<!-- Node5 -->
<g id="node9" class="node"><title>Node5</title>
<a xlink:href="action_8h.html" target="_top" xlink:title="include/fa/action.h">
<polygon fill="none" stroke="red" points="64.7461,-60.6953 64.7461,-83.3047 177.254,-83.3047 177.254,-60.6953 64.7461,-60.6953"/>
<text text-anchor="middle" x="121" y="-68.3047" font-family="Futura" font-size="11.00">include/fa/action.h</text>
</a>
</g>
<!-- Node4&#45;&gt;Node5 -->
<g id="edge8" class="edge"><title>Node4&#45;&gt;Node5</title>
<path fill="none" stroke="midnightblue" d="M138.167,-170.873C130.029,-145.628 120.724,-103.275 119.359,-83.6179"/>
<polygon fill="midnightblue" stroke="midnightblue" points="134.942,-172.252 141.557,-180.528 141.547,-169.933 134.942,-172.252"/>
</g>
<!-- Node7 -->
<g id="node16" class="node"><title>Node7</title>
<a xlink:href="clock_8h.html" target="_top" xlink:title="include/fa/clock.h">
<polygon fill="none" stroke="red" points="194.978,-60.6953 194.978,-83.3047 303.022,-83.3047 303.022,-60.6953 194.978,-60.6953"/>
<text text-anchor="middle" x="249" y="-68.3047" font-family="Futura" font-size="11.00">include/fa/clock.h</text>
</a>
</g>
<!-- Node4&#45;&gt;Node7 -->
<g id="edge18" class="edge"><title>Node4&#45;&gt;Node7</title>
<path fill="none" stroke="midnightblue" d="M163.523,-172.864C184.879,-147.913 222.636,-103.802 239.912,-83.6179"/>
<polygon fill="midnightblue" stroke="midnightblue" points="160.807,-170.655 156.963,-180.528 166.125,-175.207 160.807,-170.655"/>
</g>
<!-- Node4&#45;&gt;Node8 -->
<g id="edge24" class="edge"><title>Node4&#45;&gt;Node8</title>
<path fill="none" stroke="midnightblue" d="M117.304,-175.622C99.8863,-165.472 79.2267,-152.442 66.4612,-143.475"/>
<polygon fill="midnightblue" stroke="midnightblue" points="115.64,-178.703 126.058,-180.631 119.116,-172.627 115.64,-178.703"/>
</g>
<!-- Node5&#45;&gt;Node4 -->
<g id="edge14" class="edge"><title>Node5&#45;&gt;Node4</title>
<path fill="none" stroke="midnightblue" d="M130.893,-93.3159C139.037,-118.645 148.326,-160.984 149.651,-180.528"/>
<polygon fill="midnightblue" stroke="midnightblue" points="134.106,-91.9007 127.5,-83.6179 127.499,-94.2127 134.106,-91.9007"/>
</g>
<!-- Node6 -->
<g id="node11" class="node"><title>Node6</title>
<a xlink:href="audio_8h.html" target="_top" xlink:title="include/fa/audio.h">
<polygon fill="none" stroke="black" points="129.592,-0.695312 129.592,-23.3047 240.408,-23.3047 240.408,-0.695312 129.592,-0.695312"/>
<text text-anchor="middle" x="185" y="-8.30469" font-family="Futura" font-size="11.00">include/fa/audio.h</text>
</a>
</g>
<!-- Node5&#45;&gt;Node6 -->
<g id="edge10" class="edge"><title>Node5&#45;&gt;Node6</title>
<path fill="none" stroke="midnightblue" d="M140.112,-53.6797C150.87,-43.9299 163.962,-32.0654 173.224,-23.6719"/>
<polygon fill="midnightblue" stroke="midnightblue" points="137.501,-51.3221 132.442,-60.6308 142.202,-56.509 137.501,-51.3221"/>
</g>
<!-- Node6&#45;&gt;Node4 -->
<g id="edge12" class="edge"><title>Node6&#45;&gt;Node4</title>
<path fill="none" stroke="midnightblue" d="M250.641,-24.5431C289.729,-34.7934 328.745,-53.0802 312,-84 284.154,-135.417 219.694,-166.044 180.39,-180.607"/>
<polygon fill="midnightblue" stroke="midnightblue" points="251.283,-21.0966 240.736,-22.1075 249.611,-27.8941 251.283,-21.0966"/>
</g>
<!-- Node7&#45;&gt;Node6 -->
<g id="edge20" class="edge"><title>Node7&#45;&gt;Node6</title>
<path fill="none" stroke="midnightblue" d="M229.888,-53.6797C219.13,-43.9299 206.038,-32.0654 196.776,-23.6719"/>
<polygon fill="midnightblue" stroke="midnightblue" points="227.798,-56.509 237.558,-60.6308 232.499,-51.3221 227.798,-56.509"/>
</g>
<!-- Node8&#45;&gt;Node4 -->
<g id="edge30" class="edge"><title>Node8&#45;&gt;Node4</title>
<path fill="none" stroke="midnightblue" d="M85.9022,-148.498C103.345,-158.67 123.986,-171.696 136.689,-180.631"/>
<polygon fill="midnightblue" stroke="midnightblue" points="87.5483,-145.407 77.1311,-143.475 84.0698,-151.482 87.5483,-145.407"/>
</g>
<!-- Node8&#45;&gt;Node5 -->
<g id="edge26" class="edge"><title>Node8&#45;&gt;Node5</title>
<path fill="none" stroke="midnightblue" d="M74.3837,-113.966C85.5388,-104.163 99.2113,-92.1477 108.856,-83.6719"/>
<polygon fill="midnightblue" stroke="midnightblue" points="72.0007,-111.4 66.7995,-120.631 76.6216,-116.659 72.0007,-111.4"/>
</g>
<!-- Node8&#45;&gt;Node6 -->
<g id="edge28" class="edge"><title>Node8&#45;&gt;Node6</title>
<path fill="none" stroke="midnightblue" d="M49.505,-110.444C46.6876,-95.1382 45.7154,-74.4749 56,-60 72.774,-36.3916 102.684,-24.6058 129.482,-18.7382"/>
<polygon fill="midnightblue" stroke="midnightblue" points="46.1505,-111.481 51.7482,-120.476 52.9818,-109.953 46.1505,-111.481"/>
</g>
<!-- Node10 -->
<g id="node28" class="node"><title>Node10</title>
<a xlink:href="util_8h.html" target="_top" xlink:title="include/fa/util.h">
<polygon fill="none" stroke="black" points="284.62,-240.695 284.62,-263.305 381.38,-263.305 381.38,-240.695 284.62,-240.695"/>
<text text-anchor="middle" x="333" y="-248.305" font-family="Futura" font-size="11.00">include/fa/util.h</text>
</a>
</g>
<!-- Node9&#45;&gt;Node10 -->
<g id="edge36" class="edge"><title>Node9&#45;&gt;Node10</title>
<path fill="none" stroke="midnightblue" d="M333,-290.459C333,-281.411 333,-271.16 333,-263.672"/>
<polygon fill="midnightblue" stroke="midnightblue" points="329.5,-290.631 333,-300.631 336.5,-290.631 329.5,-290.631"/>
</g>
</g>
</svg>
