<?xml version="1.0" encoding="UTF-8" standalone="no"?>
<!DOCTYPE svg PUBLIC "-//W3C//DTD SVG 1.1//EN"
 "http://www.w3.org/Graphics/SVG/1.1/DTD/svg11.dtd">
<!-- Generated by graphviz version 2.28.0 (20121015.0031)
 -->
<!-- Title: include/fa/midi/message.h Pages: 1 -->
<svg width="787pt" height="332pt"
 viewBox="0.00 0.00 787.00 332.00" xmlns="http://www.w3.org/2000/svg" xmlns:xlink="http://www.w3.org/1999/xlink">
<g id="graph1" class="graph" transform="scale(1 1) rotate(0) translate(4 328)">
<title>include/fa/midi/message.h</title>
<!-- Node1 -->
<g id="node1" class="node"><title>Node1</title>
<polygon fill="#bfbfbf" stroke="black" points="628.134,-300.695 628.134,-323.305 779.866,-323.305 779.866,-300.695 628.134,-300.695"/>
<text text-anchor="middle" x="704" y="-308.305" font-family="Futura" font-size="11.00">include/fa/midi/message.h</text>
</g>
<!-- Node2 -->
<g id="node3" class="node"><title>Node2</title>
<a xlink:href="fa_2fa_8h.html" target="_top" xlink:title="include/fa/fa.h">
<polygon fill="none" stroke="red" points="219.846,-240.695 219.846,-263.305 312.154,-263.305 312.154,-240.695 219.846,-240.695"/>
<text text-anchor="middle" x="266" y="-248.305" font-family="Futura" font-size="11.00">include/fa/fa.h</text>
</a>
</g>
<!-- Node1&#45;&gt;Node2 -->
<g id="edge2" class="edge"><title>Node1&#45;&gt;Node2</title>
<path fill="none" stroke="midnightblue" d="M617.614,-299.561C525.957,-287.423 384.59,-268.704 312.194,-259.117"/>
<polygon fill="midnightblue" stroke="midnightblue" points="617.333,-303.054 627.706,-300.897 618.252,-296.115 617.333,-303.054"/>
</g>
<!-- Node3 -->
<g id="node5" class="node"><title>Node3</title>
<a xlink:href="action_8h.html" target="_top" xlink:title="include/fa/action.h">
<polygon fill="none" stroke="red" points="163.746,-60.6953 163.746,-83.3047 276.254,-83.3047 276.254,-60.6953 163.746,-60.6953"/>
<text text-anchor="middle" x="220" y="-68.3047" font-family="Futura" font-size="11.00">include/fa/action.h</text>
</a>
</g>
<!-- Node2&#45;&gt;Node3 -->
<g id="edge4" class="edge"><title>Node2&#45;&gt;Node3</title>
<path fill="none" stroke="midnightblue" d="M229.706,-235.419C217.772,-227.585 206.119,-216.976 200,-204 180.629,-162.92 198.021,-106.548 210.953,-83.4815"/>
<polygon fill="midnightblue" stroke="midnightblue" points="227.996,-238.475 238.37,-240.627 231.602,-232.475 227.996,-238.475"/>
</g>
<!-- Node4 -->
<g id="node8" class="node"><title>Node4</title>
<a xlink:href="buffer_8h.html" target="_top" xlink:title="include/fa/buffer.h">
<polygon fill="none" stroke="red" points="333.227,-0.695312 333.227,-23.3047 444.773,-23.3047 444.773,-0.695312 333.227,-0.695312"/>
<text text-anchor="middle" x="389" y="-8.30469" font-family="Futura" font-size="11.00">include/fa/buffer.h</text>
</a>
</g>
<!-- Node2&#45;&gt;Node4 -->
<g id="edge8" class="edge"><title>Node2&#45;&gt;Node4</title>
<path fill="none" stroke="midnightblue" d="M235.557,-235.583C222.477,-227.666 207.945,-216.945 198,-204 157.31,-151.032 112.676,-111.671 155,-60 177.089,-33.0335 271.218,-21.2117 333.153,-16.2757"/>
<polygon fill="midnightblue" stroke="midnightblue" points="233.892,-238.663 244.306,-240.609 237.379,-232.593 233.892,-238.663"/>
</g>
<!-- Node5 -->
<g id="node11" class="node"><title>Node5</title>
<a xlink:href="clock_8h.html" target="_top" xlink:title="include/fa/clock.h">
<polygon fill="none" stroke="red" points="387.978,-180.695 387.978,-203.305 496.022,-203.305 496.022,-180.695 387.978,-180.695"/>
<text text-anchor="middle" x="442" y="-188.305" font-family="Futura" font-size="11.00">include/fa/clock.h</text>
</a>
</g>
<!-- Node2&#45;&gt;Node5 -->
<g id="edge12" class="edge"><title>Node2&#45;&gt;Node5</title>
<path fill="none" stroke="midnightblue" d="M307.282,-237.396C338.84,-226.996 381.685,-212.876 410.511,-203.377"/>
<polygon fill="midnightblue" stroke="midnightblue" points="305.867,-234.177 297.465,-240.631 308.058,-240.825 305.867,-234.177"/>
</g>
<!-- Node6 -->
<g id="node13" class="node"><title>Node6</title>
<a xlink:href="dynamic_8h.html" target="_top" xlink:title="include/fa/dynamic.h">
<polygon fill="none" stroke="black" points="551.918,-180.695 551.918,-203.305 676.082,-203.305 676.082,-180.695 551.918,-180.695"/>
<text text-anchor="middle" x="614" y="-188.305" font-family="Futura" font-size="11.00">include/fa/dynamic.h</text>
</a>
</g>
<!-- Node2&#45;&gt;Node6 -->
<g id="edge14" class="edge"><title>Node2&#45;&gt;Node6</title>
<path fill="none" stroke="midnightblue" d="M322.352,-241.608C385.295,-231.118 486.874,-214.188 552.017,-203.33"/>
<polygon fill="midnightblue" stroke="midnightblue" points="321.5,-238.202 312.212,-243.298 322.651,-245.106 321.5,-238.202"/>
</g>
<!-- Node7 -->
<g id="node15" class="node"><title>Node7</title>
<a xlink:href="error_8h.html" target="_top" xlink:title="include/fa/error.h">
<polygon fill="none" stroke="red" points="-0.401855,-180.695 -0.401855,-203.305 106.402,-203.305 106.402,-180.695 -0.401855,-180.695"/>
<text text-anchor="middle" x="53" y="-188.305" font-family="Futura" font-size="11.00">include/fa/error.h</text>
</a>
</g>
<!-- Node2&#45;&gt;Node7 -->
<g id="edge16" class="edge"><title>Node2&#45;&gt;Node7</title>
<path fill="none" stroke="midnightblue" d="M212.77,-238.066C172.884,-227.609 119.671,-213.082 85.7916,-203.377"/>
<polygon fill="midnightblue" stroke="midnightblue" points="212.044,-241.493 222.604,-240.631 213.811,-234.72 212.044,-241.493"/>
</g>
<!-- Node8 -->
<g id="node18" class="node"><title>Node8</title>
<a xlink:href="list_8h.html" target="_top" xlink:title="include/fa/list.h">
<polygon fill="none" stroke="red" points="218.385,-180.695 218.385,-203.305 313.615,-203.305 313.615,-180.695 218.385,-180.695"/>
<text text-anchor="middle" x="266" y="-188.305" font-family="Futura" font-size="11.00">include/fa/list.h</text>
</a>
</g>
<!-- Node2&#45;&gt;Node8 -->
<g id="edge20" class="edge"><title>Node2&#45;&gt;Node8</title>
<path fill="none" stroke="midnightblue" d="M259.512,-230.459C258.936,-221.411 259.309,-211.16 260.63,-203.672"/>
<polygon fill="midnightblue" stroke="midnightblue" points="256.062,-231.097 260.684,-240.631 263.016,-230.296 256.062,-231.097"/>
</g>
<!-- Node9 -->
<g id="node22" class="node"><title>Node9</title>
<a xlink:href="map_8h.html" target="_top" xlink:title="include/fa/map.h">
<polygon fill="none" stroke="red" points="296.914,-60.6953 296.914,-83.3047 401.086,-83.3047 401.086,-60.6953 296.914,-60.6953"/>
<text text-anchor="middle" x="349" y="-68.3047" font-family="Futura" font-size="11.00">include/fa/map.h</text>
</a>
</g>
<!-- Node2&#45;&gt;Node9 -->
<g id="edge42" class="edge"><title>Node2&#45;&gt;Node9</title>
<path fill="none" stroke="midnightblue" d="M322.617,-247.934C385.857,-243.187 482.353,-231.534 505,-204 548.359,-151.284 437.674,-103.597 380.571,-83.3183"/>
<polygon fill="midnightblue" stroke="midnightblue" points="322.109,-244.462 312.383,-248.664 322.607,-251.444 322.109,-244.462"/>
</g>
<!-- Node10 -->
<g id="node25" class="node"><title>Node10</title>
<a xlink:href="pair_8h.html" target="_top" xlink:title="include/fa/pair.h">
<polygon fill="none" stroke="red" points="300.131,-120.695 300.131,-143.305 401.869,-143.305 401.869,-120.695 300.131,-120.695"/>
<text text-anchor="middle" x="351" y="-128.305" font-family="Futura" font-size="11.00">include/fa/pair.h</text>
</a>
</g>
<!-- Node2&#45;&gt;Node10 -->
<g id="edge44" class="edge"><title>Node2&#45;&gt;Node10</title>
<path fill="none" stroke="midnightblue" d="M283.19,-233.883C292.988,-225.801 304.67,-215.421 313,-204 326.966,-184.852 335.531,-158.006 342.479,-143.424"/>
<polygon fill="midnightblue" stroke="midnightblue" points="280.76,-231.347 275.195,-240.363 285.167,-236.785 280.76,-231.347"/>
</g>
<!-- Node3&#45;&gt;Node2 -->
<g id="edge6" class="edge"><title>Node3&#45;&gt;Node2</title>
<path fill="none" stroke="midnightblue" d="M218.311,-93.5978C212.247,-120.402 201.05,-168.055 218,-204 225.604,-220.125 241.755,-232.596 253.489,-240.627"/>
<polygon fill="midnightblue" stroke="midnightblue" points="221.806,-93.9954 220.498,-83.4815 214.964,-92.5159 221.806,-93.9954"/>
</g>
<!-- Node4&#45;&gt;Node1 -->
<g id="edge10" class="edge"><title>Node4&#45;&gt;Node1</title>
<path fill="none" stroke="midnightblue" d="M454.852,-21.3233C556.997,-36.0977 742,-71.1221 742,-131 742,-193 742,-193 742,-193 742,-234.538 720.402,-280.513 709.771,-300.625"/>
<polygon fill="midnightblue" stroke="midnightblue" points="455.327,-17.8556 444.934,-19.9145 454.342,-24.786 455.327,-17.8556"/>
</g>
<!-- Node7&#45;&gt;Node2 -->
<g id="edge18" class="edge"><title>Node7&#45;&gt;Node2</title>
<path fill="none" stroke="midnightblue" d="M106.262,-205.943C146.156,-216.401 199.367,-230.928 233.236,-240.631"/>
<polygon fill="midnightblue" stroke="midnightblue" points="106.986,-202.515 96.4262,-203.377 105.219,-209.288 106.986,-202.515"/>
</g>
<!-- Node8&#45;&gt;Node2 -->
<g id="edge24" class="edge"><title>Node8&#45;&gt;Node2</title>
<path fill="none" stroke="midnightblue" d="M272.492,-213.611C273.069,-222.764 272.677,-233.137 271.316,-240.631"/>
<polygon fill="midnightblue" stroke="midnightblue" points="275.97,-213.216 271.37,-203.672 269.014,-214.001 275.97,-213.216"/>
</g>
<!-- Node8&#45;&gt;Node3 -->
<g id="edge22" class="edge"><title>Node8&#45;&gt;Node3</title>
<path fill="none" stroke="midnightblue" d="M258.285,-171.21C248.46,-146.007 231.836,-103.363 224.139,-83.6179"/>
<polygon fill="midnightblue" stroke="midnightblue" points="255.025,-172.482 261.918,-180.528 261.547,-169.94 255.025,-172.482"/>
</g>
<!-- Node8&#45;&gt;Node9 -->
<g id="edge26" class="edge"><title>Node8&#45;&gt;Node9</title>
<path fill="none" stroke="midnightblue" d="M270,-170.712C273.671,-155.703 280.213,-135.297 291,-120 301.755,-104.747 318.762,-91.783 331.585,-83.3584"/>
<polygon fill="midnightblue" stroke="midnightblue" points="266.569,-170.016 267.815,-180.537 273.402,-171.536 266.569,-170.016"/>
</g>
<!-- Node8&#45;&gt;Node10 -->
<g id="edge30" class="edge"><title>Node8&#45;&gt;Node10</title>
<path fill="none" stroke="midnightblue" d="M289.774,-174.778C304.458,-164.758 322.87,-152.195 335.649,-143.475"/>
<polygon fill="midnightblue" stroke="midnightblue" points="287.484,-172.103 281.196,-180.631 291.429,-177.885 287.484,-172.103"/>
</g>
<!-- Node9&#45;&gt;Node4 -->
<g id="edge28" class="edge"><title>Node9&#45;&gt;Node4</title>
<path fill="none" stroke="midnightblue" d="M361.944,-52.2313C368.465,-42.775 376.135,-31.6539 381.64,-23.6719"/>
<polygon fill="midnightblue" stroke="midnightblue" points="358.947,-50.4115 356.151,-60.6308 364.71,-54.3857 358.947,-50.4115"/>
</g>
<!-- Node10&#45;&gt;Node1 -->
<g id="edge40" class="edge"><title>Node10&#45;&gt;Node1</title>
<path fill="none" stroke="midnightblue" d="M412.051,-133.137C497.81,-134.69 647.669,-142.827 685,-180 717.894,-212.756 710.707,-275.382 706.211,-300.345"/>
<polygon fill="midnightblue" stroke="midnightblue" points="411.976,-129.635 401.922,-132.979 411.866,-136.634 411.976,-129.635"/>
</g>
<!-- Node10&#45;&gt;Node2 -->
<g id="edge36" class="edge"><title>Node10&#45;&gt;Node2</title>
<path fill="none" stroke="midnightblue" d="M352.951,-153.661C349.829,-168.594 342.129,-188.741 331,-204 320.155,-218.869 303.629,-231.973 289.702,-240.541"/>
<polygon fill="midnightblue" stroke="midnightblue" points="356.464,-153.822 354.428,-143.424 349.536,-152.822 356.464,-153.822"/>
</g>
<!-- Node10&#45;&gt;Node3 -->
<g id="edge32" class="edge"><title>Node10&#45;&gt;Node3</title>
<path fill="none" stroke="midnightblue" d="M318.146,-116.454C294.97,-106.193 264.469,-92.6885 243.659,-83.475"/>
<polygon fill="midnightblue" stroke="midnightblue" points="317.019,-119.783 327.58,-120.631 319.853,-113.382 317.019,-119.783"/>
</g>
<!-- Node10&#45;&gt;Node4 -->
<g id="edge34" class="edge"><title>Node10&#45;&gt;Node4</title>
<path fill="none" stroke="midnightblue" d="M380.589,-115.232C391.98,-107.474 403.748,-96.9735 410,-84 419.821,-63.6195 406.213,-37.7036 396.748,-23.4964"/>
<polygon fill="midnightblue" stroke="midnightblue" points="378.635,-112.326 372.049,-120.625 382.373,-118.245 378.635,-112.326"/>
</g>
<!-- Node10&#45;&gt;Node9 -->
<g id="edge38" class="edge"><title>Node10&#45;&gt;Node9</title>
<path fill="none" stroke="midnightblue" d="M350.292,-110.459C349.98,-101.411 349.626,-91.1602 349.368,-83.6719"/>
<polygon fill="midnightblue" stroke="midnightblue" points="346.8,-110.757 350.642,-120.631 353.796,-110.516 346.8,-110.757"/>
</g>
</g>
</svg>
