<?xml version="1.0" encoding="UTF-8" standalone="no"?>
<!DOCTYPE svg PUBLIC "-//W3C//DTD SVG 1.1//EN"
 "http://www.w3.org/Graphics/SVG/1.1/DTD/svg11.dtd">
<!-- Generated by graphviz version 2.28.0 (20121015.0031)
 -->
<!-- Title: include/fa/midi/message.h Pages: 1 -->
<svg width="333pt" height="332pt"
 viewBox="0.00 0.00 333.49 332.00" xmlns="http://www.w3.org/2000/svg" xmlns:xlink="http://www.w3.org/1999/xlink">
<g id="graph1" class="graph" transform="scale(1 1) rotate(0) translate(4 328)">
<title>include/fa/midi/message.h</title>
<!-- Node1 -->
<g id="node1" class="node"><title>Node1</title>
<polygon fill="#bfbfbf" stroke="black" points="13.62,-300.695 13.62,-323.305 165.353,-323.305 165.353,-300.695 13.62,-300.695"/>
<text text-anchor="middle" x="89.4865" y="-308.305" font-family="Futura" font-size="11.00">include/fa/midi/message.h</text>
</g>
<!-- Node2 -->
<g id="node3" class="node"><title>Node2</title>
<polygon fill="none" stroke="#bfbfbf" points="14.8766,-180.695 14.8766,-203.305 70.0964,-203.305 70.0964,-180.695 14.8766,-180.695"/>
<text text-anchor="middle" x="42.4865" y="-188.305" font-family="Futura" font-size="11.00">fa/std.h</text>
</g>
<!-- Node1&#45;&gt;Node2 -->
<g id="edge2" class="edge"><title>Node1&#45;&gt;Node2</title>
<path fill="none" stroke="midnightblue" d="M85.3156,-300.528C77.4963,-280.897 60.5165,-238.267 50.4437,-212.978"/>
<polygon fill="midnightblue" stroke="midnightblue" points="53.6676,-211.613 46.7157,-203.618 47.1645,-214.203 53.6676,-211.613"/>
</g>
<!-- Node3 -->
<g id="node5" class="node"><title>Node3</title>
<a xlink:href="pair_8h.html" target="_top" xlink:title="fa/pair.h">
<polygon fill="none" stroke="black" points="264.18,-120.695 264.18,-143.305 324.793,-143.305 324.793,-120.695 264.18,-120.695"/>
<text text-anchor="middle" x="294.487" y="-128.305" font-family="Futura" font-size="11.00">fa/pair.h</text>
</a>
</g>
<!-- Node1&#45;&gt;Node3 -->
<g id="edge4" class="edge"><title>Node1&#45;&gt;Node3</title>
<path fill="none" stroke="midnightblue" d="M116.561,-300.608C154.079,-284.951 221.841,-251.952 262.487,-204 275.009,-189.227 283.536,-168.759 288.618,-153.593"/>
<polygon fill="midnightblue" stroke="midnightblue" points="292.085,-154.233 291.719,-143.644 285.402,-152.15 292.085,-154.233"/>
</g>
<!-- Node8 -->
<g id="node19" class="node"><title>Node8</title>
<a xlink:href="buffer_8h.html" target="_top" xlink:title="fa/buffer.h">
<polygon fill="none" stroke="black" points="93.2765,-240.695 93.2765,-263.305 163.696,-263.305 163.696,-240.695 93.2765,-240.695"/>
<text text-anchor="middle" x="128.487" y="-248.305" font-family="Futura" font-size="11.00">fa/buffer.h</text>
</a>
</g>
<!-- Node1&#45;&gt;Node8 -->
<g id="edge22" class="edge"><title>Node1&#45;&gt;Node8</title>
<path fill="none" stroke="midnightblue" d="M96.4589,-300.631C101.772,-292.729 109.237,-281.628 115.623,-272.13"/>
<polygon fill="midnightblue" stroke="midnightblue" points="118.635,-273.923 121.311,-263.672 112.826,-270.017 118.635,-273.923"/>
</g>
<!-- Node4 -->
<g id="node7" class="node"><title>Node4</title>
<a xlink:href="fa_2fa_8h.html" target="_top" xlink:title="fa.h">
<polygon fill="none" stroke="red" points="142.759,-60.6953 142.759,-83.3047 178.214,-83.3047 178.214,-60.6953 142.759,-60.6953"/>
<text text-anchor="middle" x="160.487" y="-68.3047" font-family="Futura" font-size="11.00">fa.h</text>
</a>
</g>
<!-- Node3&#45;&gt;Node4 -->
<g id="edge6" class="edge"><title>Node3&#45;&gt;Node4</title>
<path fill="none" stroke="midnightblue" d="M265.214,-120.631C242.156,-111.378 210.436,-97.7364 187.878,-87.4211"/>
<polygon fill="midnightblue" stroke="midnightblue" points="189.068,-84.115 178.523,-83.0852 186.124,-90.466 189.068,-84.115"/>
</g>
<!-- Node7 -->
<g id="node14" class="node"><title>Node7</title>
<a xlink:href="list_8h.html" target="_top" xlink:title="fa/list.h">
<polygon fill="none" stroke="black" points="233.435,-0.695312 233.435,-23.3047 287.538,-23.3047 287.538,-0.695312 233.435,-0.695312"/>
<text text-anchor="middle" x="260.487" y="-8.30469" font-family="Futura" font-size="11.00">fa/list.h</text>
</a>
</g>
<!-- Node3&#45;&gt;Node7 -->
<g id="edge20" class="edge"><title>Node3&#45;&gt;Node7</title>
<path fill="none" stroke="midnightblue" d="M291.469,-120.528C285.838,-100.984 273.639,-58.6453 266.34,-33.3159"/>
<polygon fill="midnightblue" stroke="midnightblue" points="269.678,-32.2579 263.546,-23.6179 262.951,-34.196 269.678,-32.2579"/>
</g>
<!-- Node4&#45;&gt;Node1 -->
<g id="edge18" class="edge"><title>Node4&#45;&gt;Node1</title>
<path fill="none" stroke="midnightblue" d="M142.547,-78.774C108.073,-90.986 33.5094,-123.089 5.4865,-180 -15.8955,-223.424 33.7899,-270.228 65.5447,-294.414"/>
<polygon fill="midnightblue" stroke="midnightblue" points="63.8263,-297.495 73.9517,-300.614 67.9811,-291.862 63.8263,-297.495"/>
</g>
<!-- Node4&#45;&gt;Node3 -->
<g id="edge12" class="edge"><title>Node4&#45;&gt;Node3</title>
<path fill="none" stroke="midnightblue" d="M178.293,-78.8595C201.024,-87.5761 240.069,-104.233 266.664,-116.382"/>
<polygon fill="midnightblue" stroke="midnightblue" points="265.301,-119.608 275.846,-120.631 268.24,-113.255 265.301,-119.608"/>
</g>
<!-- Node5 -->
<g id="node9" class="node"><title>Node5</title>
<polygon fill="none" stroke="#bfbfbf" points="13.4235,-0.695312 13.4235,-23.3047 87.5495,-23.3047 87.5495,-0.695312 13.4235,-0.695312"/>
<text text-anchor="middle" x="50.4865" y="-8.30469" font-family="Futura" font-size="11.00">fa/atomic.h</text>
</g>
<!-- Node4&#45;&gt;Node5 -->
<g id="edge8" class="edge"><title>Node4&#45;&gt;Node5</title>
<path fill="none" stroke="midnightblue" d="M142.322,-61.4225C125.149,-52.3675 99.1081,-38.6369 79.1368,-28.1065"/>
<polygon fill="midnightblue" stroke="midnightblue" points="80.6423,-24.9437 70.1642,-23.3755 77.3774,-31.1357 80.6423,-24.9437"/>
</g>
<!-- Node6 -->
<g id="node11" class="node"><title>Node6</title>
<polygon fill="none" stroke="#bfbfbf" points="105.135,-0.695312 105.135,-23.3047 215.838,-23.3047 215.838,-0.695312 105.135,-0.695312"/>
<text text-anchor="middle" x="160.487" y="-8.30469" font-family="Futura" font-size="11.00">fa/atomic/queue.h</text>
</g>
<!-- Node4&#45;&gt;Node6 -->
<g id="edge10" class="edge"><title>Node4&#45;&gt;Node6</title>
<path fill="none" stroke="midnightblue" d="M160.487,-60.6308C160.487,-53.218 160.487,-42.9888 160.487,-33.9096"/>
<polygon fill="midnightblue" stroke="midnightblue" points="163.987,-33.6718 160.487,-23.6719 156.987,-33.6719 163.987,-33.6718"/>
</g>
<!-- Node4&#45;&gt;Node7 -->
<g id="edge14" class="edge"><title>Node4&#45;&gt;Node7</title>
<path fill="none" stroke="midnightblue" d="M173.049,-60.6308C186.957,-51.6142 209.452,-38.4308 228.227,-28.2184"/>
<polygon fill="midnightblue" stroke="midnightblue" points="229.925,-31.2792 237.091,-23.475 226.623,-25.1073 229.925,-31.2792"/>
</g>
<!-- Node7&#45;&gt;Node4 -->
<g id="edge16" class="edge"><title>Node7&#45;&gt;Node4</title>
<path fill="none" stroke="midnightblue" d="M247.992,-23.3254C232.748,-33.2132 207.122,-48.1412 187.417,-58.6532"/>
<polygon fill="midnightblue" stroke="midnightblue" points="185.536,-55.6869 178.291,-63.4175 188.775,-61.8922 185.536,-55.6869"/>
</g>
<!-- Node8&#45;&gt;Node2 -->
<g id="edge26" class="edge"><title>Node8&#45;&gt;Node2</title>
<path fill="none" stroke="midnightblue" d="M113.111,-240.631C100.228,-231.942 81.6078,-219.384 66.7207,-209.344"/>
<polygon fill="midnightblue" stroke="midnightblue" points="68.2662,-206.165 58.0184,-203.475 64.3522,-211.968 68.2662,-206.165"/>
</g>
<!-- Node8&#45;&gt;Node3 -->
<g id="edge28" class="edge"><title>Node8&#45;&gt;Node3</title>
<path fill="none" stroke="midnightblue" d="M163.312,-240.595C185.649,-232.825 214.479,-220.666 236.487,-204 255.579,-189.542 272.265,-167.551 282.777,-151.878"/>
<polygon fill="midnightblue" stroke="midnightblue" points="285.717,-153.778 288.225,-143.484 279.845,-149.967 285.717,-153.778"/>
</g>
<!-- Node8&#45;&gt;Node4 -->
<g id="edge24" class="edge"><title>Node8&#45;&gt;Node4</title>
<path fill="none" stroke="midnightblue" d="M120.839,-240.59C105.011,-217.667 71.8732,-161.562 93.4865,-120 101.875,-103.868 118.619,-92.1201 133.269,-84.4039"/>
<polygon fill="midnightblue" stroke="midnightblue" points="135.03,-87.439 142.485,-79.91 131.962,-81.1472 135.03,-87.439"/>
</g>
<!-- Node9 -->
<g id="node24" class="node"><title>Node9</title>
<a xlink:href="string_8h.html" target="_top" xlink:title="fa/string.h">
<polygon fill="none" stroke="black" points="102.356,-120.695 102.356,-143.305 170.617,-143.305 170.617,-120.695 102.356,-120.695"/>
<text text-anchor="middle" x="136.487" y="-128.305" font-family="Futura" font-size="11.00">fa/string.h</text>
</a>
</g>
<!-- Node8&#45;&gt;Node9 -->
<g id="edge30" class="edge"><title>Node8&#45;&gt;Node9</title>
<path fill="none" stroke="midnightblue" d="M129.196,-240.528C130.516,-221.071 133.366,-179.023 135.086,-153.656"/>
<polygon fill="midnightblue" stroke="midnightblue" points="138.582,-153.832 135.767,-143.618 131.598,-153.358 138.582,-153.832"/>
</g>
<!-- Node10 -->
<g id="node27" class="node"><title>Node10</title>
<a xlink:href="map_8h.html" target="_top" xlink:title="fa/map.h">
<polygon fill="none" stroke="black" points="164.964,-180.695 164.964,-203.305 228.009,-203.305 228.009,-180.695 164.964,-180.695"/>
<text text-anchor="middle" x="196.487" y="-188.305" font-family="Futura" font-size="11.00">fa/map.h</text>
</a>
</g>
<!-- Node8&#45;&gt;Node10 -->
<g id="edge34" class="edge"><title>Node8&#45;&gt;Node10</title>
<path fill="none" stroke="midnightblue" d="M140.644,-240.631C150.48,-232.24 164.548,-220.242 176.102,-210.387"/>
<polygon fill="midnightblue" stroke="midnightblue" points="178.638,-212.824 183.975,-203.672 174.095,-207.498 178.638,-212.824"/>
</g>
<!-- Node9&#45;&gt;Node4 -->
<g id="edge32" class="edge"><title>Node9&#45;&gt;Node4</title>
<path fill="none" stroke="midnightblue" d="M140.777,-120.631C143.946,-112.974 148.358,-102.311 152.204,-93.0155"/>
<polygon fill="midnightblue" stroke="midnightblue" points="155.481,-94.2503 156.071,-83.6719 149.013,-91.5738 155.481,-94.2503"/>
</g>
<!-- Node10&#45;&gt;Node3 -->
<g id="edge38" class="edge"><title>Node10&#45;&gt;Node3</title>
<path fill="none" stroke="midnightblue" d="M214.007,-180.631C228.965,-171.778 250.709,-158.909 267.826,-148.778"/>
<polygon fill="midnightblue" stroke="midnightblue" points="269.964,-151.58 276.787,-143.475 266.399,-145.556 269.964,-151.58"/>
</g>
<!-- Node10&#45;&gt;Node4 -->
<g id="edge36" class="edge"><title>Node10&#45;&gt;Node4</title>
<path fill="none" stroke="midnightblue" d="M194.439,-180.278C191.645,-166.257 186.206,-141.006 179.487,-120 176.589,-110.941 172.752,-101.156 169.285,-92.8709"/>
<polygon fill="midnightblue" stroke="midnightblue" points="172.491,-91.4659 165.328,-83.6594 166.059,-94.2289 172.491,-91.4659"/>
</g>
<!-- Node10&#45;&gt;Node7 -->
<g id="edge40" class="edge"><title>Node10&#45;&gt;Node7</title>
<path fill="none" stroke="midnightblue" d="M200.204,-180.661C210.543,-151.904 239.771,-70.6154 253.367,-32.801"/>
<polygon fill="midnightblue" stroke="midnightblue" points="256.669,-33.9624 256.759,-23.368 250.082,-31.594 256.669,-33.9624"/>
</g>
<!-- Node10&#45;&gt;Node9 -->
<g id="edge42" class="edge"><title>Node10&#45;&gt;Node9</title>
<path fill="none" stroke="midnightblue" d="M185.76,-180.631C177.164,-172.322 164.909,-160.475 154.77,-150.675"/>
<polygon fill="midnightblue" stroke="midnightblue" points="157.149,-148.106 147.526,-143.672 152.284,-153.139 157.149,-148.106"/>
</g>
</g>
</svg>
