<?xml version="1.0" encoding="UTF-8" standalone="no"?>
<!DOCTYPE svg PUBLIC "-//W3C//DTD SVG 1.1//EN"
 "http://www.w3.org/Graphics/SVG/1.1/DTD/svg11.dtd">
<!-- Generated by graphviz version 2.28.0 (20121015.0031)
 -->
<!-- Title: include/fa/midi.h Pages: 1 -->
<svg width="726pt" height="332pt"
 viewBox="0.00 0.00 726.44 332.00" xmlns="http://www.w3.org/2000/svg" xmlns:xlink="http://www.w3.org/1999/xlink">
<g id="graph1" class="graph" transform="scale(1 1) rotate(0) translate(4 328)">
<title>include/fa/midi.h</title>
<!-- Node1 -->
<g id="node1" class="node"><title>Node1</title>
<polygon fill="#bfbfbf" stroke="black" points="264.916,-300.695 264.916,-323.305 367.971,-323.305 367.971,-300.695 264.916,-300.695"/>
<text text-anchor="middle" x="316.443" y="-308.305" font-family="Futura" font-size="11.00">include/fa/midi.h</text>
</g>
<!-- Node2 -->
<g id="node3" class="node"><title>Node2</title>
<a xlink:href="fa_2fa_8h.html" target="_top" xlink:title="include/fa/fa.h">
<polygon fill="none" stroke="red" points="327.29,-240.695 327.29,-263.305 419.597,-263.305 419.597,-240.695 327.29,-240.695"/>
<text text-anchor="middle" x="373.443" y="-248.305" font-family="Futura" font-size="11.00">include/fa/fa.h</text>
</a>
</g>
<!-- Node1&#45;&gt;Node2 -->
<g id="edge2" class="edge"><title>Node1&#45;&gt;Node2</title>
<path fill="none" stroke="midnightblue" d="M333.747,-293.392C343.275,-283.698 354.787,-271.983 362.955,-263.672"/>
<polygon fill="midnightblue" stroke="midnightblue" points="331.147,-291.045 326.634,-300.631 336.139,-295.952 331.147,-291.045"/>
</g>
<!-- Node3 -->
<g id="node5" class="node"><title>Node3</title>
<a xlink:href="action_8h.html" target="_top" xlink:title="include/fa/action.h">
<polygon fill="none" stroke="red" points="90.1894,-60.6953 90.1894,-83.3047 202.697,-83.3047 202.697,-60.6953 90.1894,-60.6953"/>
<text text-anchor="middle" x="146.443" y="-68.3047" font-family="Futura" font-size="11.00">include/fa/action.h</text>
</a>
</g>
<!-- Node2&#45;&gt;Node3 -->
<g id="edge4" class="edge"><title>Node2&#45;&gt;Node3</title>
<path fill="none" stroke="midnightblue" d="M362.193,-231.028C356.619,-215.592 349.316,-194.485 336.443,-180 291.233,-129.129 215.899,-98.0644 174.84,-83.3255"/>
<polygon fill="midnightblue" stroke="midnightblue" points="359.02,-232.534 365.823,-240.656 365.571,-230.065 359.02,-232.534"/>
</g>
<!-- Node4 -->
<g id="node9" class="node"><title>Node4</title>
<a xlink:href="buffer_8h.html" target="_top" xlink:title="include/fa/buffer.h">
<polygon fill="none" stroke="red" points="216.67,-0.695312 216.67,-23.3047 328.216,-23.3047 328.216,-0.695312 216.67,-0.695312"/>
<text text-anchor="middle" x="272.443" y="-8.30469" font-family="Futura" font-size="11.00">include/fa/buffer.h</text>
</a>
</g>
<!-- Node2&#45;&gt;Node4 -->
<g id="edge10" class="edge"><title>Node2&#45;&gt;Node4</title>
<path fill="none" stroke="midnightblue" d="M394.513,-233.689C402.695,-225.624 411.126,-215.311 415.443,-204 428.757,-169.121 432.158,-153.383 415.443,-120 390.941,-71.0641 332.251,-38.7443 298.161,-23.3899"/>
<polygon fill="midnightblue" stroke="midnightblue" points="391.885,-231.35 386.887,-240.692 396.62,-236.506 391.885,-231.35"/>
</g>
<!-- Node5 -->
<g id="node11" class="node"><title>Node5</title>
<a xlink:href="clock_8h.html" target="_top" xlink:title="include/fa/clock.h">
<polygon fill="none" stroke="red" points="610.421,-180.695 610.421,-203.305 718.465,-203.305 718.465,-180.695 610.421,-180.695"/>
<text text-anchor="middle" x="664.443" y="-188.305" font-family="Futura" font-size="11.00">include/fa/clock.h</text>
</a>
</g>
<!-- Node2&#45;&gt;Node5 -->
<g id="edge12" class="edge"><title>Node2&#45;&gt;Node5</title>
<path fill="none" stroke="midnightblue" d="M429.767,-239.774C482.654,-229.233 561.127,-213.592 612.529,-203.347"/>
<polygon fill="midnightblue" stroke="midnightblue" points="428.998,-236.358 419.875,-241.746 430.366,-243.223 428.998,-236.358"/>
</g>
<!-- Node6 -->
<g id="node14" class="node"><title>Node6</title>
<a xlink:href="dynamic_8h.html" target="_top" xlink:title="include/fa/dynamic.h">
<polygon fill="none" stroke="black" points="212.362,-180.695 212.362,-203.305 336.525,-203.305 336.525,-180.695 212.362,-180.695"/>
<text text-anchor="middle" x="274.443" y="-188.305" font-family="Futura" font-size="11.00">include/fa/dynamic.h</text>
</a>
</g>
<!-- Node2&#45;&gt;Node6 -->
<g id="edge16" class="edge"><title>Node2&#45;&gt;Node6</title>
<path fill="none" stroke="midnightblue" d="M346.717,-235.342C329.463,-225.234 307.488,-212.359 292.323,-203.475"/>
<polygon fill="midnightblue" stroke="midnightblue" points="345.347,-238.596 355.744,-240.631 348.885,-232.556 345.347,-238.596"/>
</g>
<!-- Node7 -->
<g id="node16" class="node"><title>Node7</title>
<a xlink:href="error_8h.html" target="_top" xlink:title="include/fa/error.h">
<polygon fill="none" stroke="red" points="486.041,-180.695 486.041,-203.305 592.845,-203.305 592.845,-180.695 486.041,-180.695"/>
<text text-anchor="middle" x="539.443" y="-188.305" font-family="Futura" font-size="11.00">include/fa/error.h</text>
</a>
</g>
<!-- Node2&#45;&gt;Node7 -->
<g id="edge18" class="edge"><title>Node2&#45;&gt;Node7</title>
<path fill="none" stroke="midnightblue" d="M407.299,-237.125C435.637,-226.752 475.765,-212.794 504.426,-203.377"/>
<polygon fill="midnightblue" stroke="midnightblue" points="405.973,-233.883 397.805,-240.631 408.398,-240.45 405.973,-233.883"/>
</g>
<!-- Node8 -->
<g id="node20" class="node"><title>Node8</title>
<a xlink:href="list_8h.html" target="_top" xlink:title="include/fa/list.h">
<polygon fill="none" stroke="red" points="98.8288,-180.695 98.8288,-203.305 194.058,-203.305 194.058,-180.695 98.8288,-180.695"/>
<text text-anchor="middle" x="146.443" y="-188.305" font-family="Futura" font-size="11.00">include/fa/list.h</text>
</a>
</g>
<!-- Node2&#45;&gt;Node8 -->
<g id="edge24" class="edge"><title>Node2&#45;&gt;Node8</title>
<path fill="none" stroke="midnightblue" d="M317.63,-238.198C275.162,-227.733 218.115,-213.123 181.74,-203.377"/>
<polygon fill="midnightblue" stroke="midnightblue" points="316.998,-241.647 327.544,-240.631 318.666,-234.849 316.998,-241.647"/>
</g>
<!-- Node9 -->
<g id="node24" class="node"><title>Node9</title>
<a xlink:href="map_8h.html" target="_top" xlink:title="include/fa/map.h">
<polygon fill="none" stroke="red" points="220.357,-60.6953 220.357,-83.3047 324.529,-83.3047 324.529,-60.6953 220.357,-60.6953"/>
<text text-anchor="middle" x="272.443" y="-68.3047" font-family="Futura" font-size="11.00">include/fa/map.h</text>
</a>
</g>
<!-- Node2&#45;&gt;Node9 -->
<g id="edge48" class="edge"><title>Node2&#45;&gt;Node9</title>
<path fill="none" stroke="midnightblue" d="M385.021,-231.405C399.525,-204.015 419.811,-153.848 396.443,-120 380.29,-96.602 350.863,-84.8411 324.729,-78.9347"/>
<polygon fill="midnightblue" stroke="midnightblue" points="381.825,-229.951 380.03,-240.393 387.945,-233.349 381.825,-229.951"/>
</g>
<!-- Node10 -->
<g id="node28" class="node"><title>Node10</title>
<a xlink:href="pair_8h.html" target="_top" xlink:title="include/fa/pair.h">
<polygon fill="none" stroke="red" points="11.5739,-120.695 11.5739,-143.305 113.313,-143.305 113.313,-120.695 11.5739,-120.695"/>
<text text-anchor="middle" x="62.4433" y="-128.305" font-family="Futura" font-size="11.00">include/fa/pair.h</text>
</a>
</g>
<!-- Node2&#45;&gt;Node10 -->
<g id="edge50" class="edge"><title>Node2&#45;&gt;Node10</title>
<path fill="none" stroke="midnightblue" d="M316.886,-248.583C241.899,-244.182 115.308,-232.524 80.4433,-204 61.8668,-188.802 56.0571,-159.328 57.4845,-143.558"/>
<polygon fill="midnightblue" stroke="midnightblue" points="316.929,-252.091 327.109,-249.157 317.321,-245.102 316.929,-252.091"/>
</g>
<!-- Node3&#45;&gt;Node1 -->
<g id="edge8" class="edge"><title>Node3&#45;&gt;Node1</title>
<path fill="none" stroke="midnightblue" d="M80.1734,-80.1702C36.198,-88.4576 -11.1371,-106.199 2.44328,-144 25.82,-209.069 42.4308,-227.973 101.443,-264 151.501,-294.56 218.828,-305.37 264.717,-309.127"/>
<polygon fill="midnightblue" stroke="midnightblue" points="80.8143,-83.6113 90.0655,-78.4475 79.6133,-76.7151 80.8143,-83.6113"/>
</g>
<!-- Node3&#45;&gt;Node2 -->
<g id="edge6" class="edge"><title>Node3&#45;&gt;Node2</title>
<path fill="none" stroke="midnightblue" d="M196.895,-86.4788C243.771,-102.278 312.236,-132.507 354.443,-180 370.287,-197.828 377.693,-225.686 377.566,-240.656"/>
<polygon fill="midnightblue" stroke="midnightblue" points="197.829,-83.1021 187.237,-83.3255 195.656,-89.7564 197.829,-83.1021"/>
</g>
<!-- Node5&#45;&gt;Node1 -->
<g id="edge14" class="edge"><title>Node5&#45;&gt;Node1</title>
<path fill="none" stroke="midnightblue" d="M626.472,-206.796C586.145,-221.359 520.477,-244.814 463.443,-264 424.589,-277.071 379.67,-291.306 349.814,-300.645"/>
<polygon fill="midnightblue" stroke="midnightblue" points="627.698,-210.075 635.911,-203.383 625.317,-203.492 627.698,-210.075"/>
</g>
<!-- Node7&#45;&gt;Node1 -->
<g id="edge22" class="edge"><title>Node7&#45;&gt;Node1</title>
<path fill="none" stroke="midnightblue" d="M516.517,-209.317C494.546,-224.552 460.134,-247.373 428.443,-264 400.994,-278.402 368.139,-291.761 345.137,-300.527"/>
<polygon fill="midnightblue" stroke="midnightblue" points="518.663,-212.088 524.851,-203.488 514.65,-206.352 518.663,-212.088"/>
</g>
<!-- Node7&#45;&gt;Node2 -->
<g id="edge20" class="edge"><title>Node7&#45;&gt;Node2</title>
<path fill="none" stroke="midnightblue" d="M505.564,-206.884C477.219,-217.259 437.092,-231.216 408.437,-240.631"/>
<polygon fill="midnightblue" stroke="midnightblue" points="506.892,-210.125 515.061,-203.377 504.467,-203.558 506.892,-210.125"/>
</g>
<!-- Node8&#45;&gt;Node1 -->
<g id="edge34" class="edge"><title>Node8&#45;&gt;Node1</title>
<path fill="none" stroke="midnightblue" d="M170.067,-209.398C205.574,-234.044 271.692,-279.937 301.357,-300.528"/>
<polygon fill="midnightblue" stroke="midnightblue" points="171.951,-206.445 161.74,-203.618 167.959,-212.195 171.951,-206.445"/>
</g>
<!-- Node8&#45;&gt;Node2 -->
<g id="edge28" class="edge"><title>Node8&#45;&gt;Node2</title>
<path fill="none" stroke="midnightblue" d="M202.291,-205.81C244.766,-216.278 301.812,-230.887 338.176,-240.631"/>
<polygon fill="midnightblue" stroke="midnightblue" points="202.92,-202.361 192.374,-203.377 201.252,-209.159 202.92,-202.361"/>
</g>
<!-- Node8&#45;&gt;Node3 -->
<g id="edge26" class="edge"><title>Node8&#45;&gt;Node3</title>
<path fill="none" stroke="midnightblue" d="M146.443,-170.192C146.443,-144.874 146.443,-103.1 146.443,-83.6179"/>
<polygon fill="midnightblue" stroke="midnightblue" points="142.943,-170.528 146.443,-180.528 149.943,-170.528 142.943,-170.528"/>
</g>
<!-- Node8&#45;&gt;Node9 -->
<g id="edge30" class="edge"><title>Node8&#45;&gt;Node9</title>
<path fill="none" stroke="midnightblue" d="M165.119,-173.51C191.63,-148.682 239.366,-103.977 261.106,-83.6179"/>
<polygon fill="midnightblue" stroke="midnightblue" points="162.531,-171.138 157.625,-180.528 167.316,-176.247 162.531,-171.138"/>
</g>
<!-- Node8&#45;&gt;Node10 -->
<g id="edge36" class="edge"><title>Node8&#45;&gt;Node10</title>
<path fill="none" stroke="midnightblue" d="M122.949,-174.778C108.438,-164.758 90.2428,-152.195 77.614,-143.475"/>
<polygon fill="midnightblue" stroke="midnightblue" points="121.208,-177.829 131.426,-180.631 125.185,-172.069 121.208,-177.829"/>
</g>
<!-- Node9&#45;&gt;Node4 -->
<g id="edge32" class="edge"><title>Node9&#45;&gt;Node4</title>
<path fill="none" stroke="midnightblue" d="M272.443,-50.4586C272.443,-41.4112 272.443,-31.1602 272.443,-23.6719"/>
<polygon fill="midnightblue" stroke="midnightblue" points="268.943,-50.6307 272.443,-60.6308 275.943,-50.6308 268.943,-50.6307"/>
</g>
<!-- Node10&#45;&gt;Node1 -->
<g id="edge46" class="edge"><title>Node10&#45;&gt;Node1</title>
<path fill="none" stroke="midnightblue" d="M59.2564,-153.591C58.0317,-168.915 58.9304,-189.586 69.4433,-204 115.569,-267.244 207.076,-293.534 264.833,-304.153"/>
<polygon fill="midnightblue" stroke="midnightblue" points="62.7463,-153.88 60.4164,-143.544 55.7925,-153.077 62.7463,-153.88"/>
</g>
<!-- Node10&#45;&gt;Node2 -->
<g id="edge42" class="edge"><title>Node10&#45;&gt;Node2</title>
<path fill="none" stroke="midnightblue" d="M71.8779,-153.224C76.5572,-169.459 83.2048,-191.533 98.4433,-204 133.062,-232.323 258.118,-244.017 327.139,-248.489"/>
<polygon fill="midnightblue" stroke="midnightblue" points="75.2111,-152.153 69.0166,-143.558 68.499,-154.14 75.2111,-152.153"/>
</g>
<!-- Node10&#45;&gt;Node3 -->
<g id="edge38" class="edge"><title>Node10&#45;&gt;Node3</title>
<path fill="none" stroke="midnightblue" d="M85.9373,-114.778C100.449,-104.758 118.644,-92.1949 131.273,-83.475"/>
<polygon fill="midnightblue" stroke="midnightblue" points="83.7011,-112.069 77.4608,-120.631 87.6785,-117.829 83.7011,-112.069"/>
</g>
<!-- Node10&#45;&gt;Node4 -->
<g id="edge40" class="edge"><title>Node10&#45;&gt;Node4</title>
<path fill="none" stroke="midnightblue" d="M62.5917,-110.047C63.8497,-94.1967 68.1697,-73.0081 81.4433,-60 100.467,-41.3566 167.231,-27.9819 216.488,-20.3778"/>
<polygon fill="midnightblue" stroke="midnightblue" points="59.077,-110.307 62.1327,-120.451 66.0702,-110.615 59.077,-110.307"/>
</g>
<!-- Node10&#45;&gt;Node9 -->
<g id="edge44" class="edge"><title>Node10&#45;&gt;Node9</title>
<path fill="none" stroke="midnightblue" d="M109.757,-117.932C147.579,-107.486 199.882,-93.0409 234.871,-83.3771"/>
<polygon fill="midnightblue" stroke="midnightblue" points="108.694,-114.595 99.9871,-120.631 110.558,-121.342 108.694,-114.595"/>
</g>
</g>
</svg>
