<?xml version="1.0" encoding="UTF-8" standalone="no"?>
<!DOCTYPE svg PUBLIC "-//W3C//DTD SVG 1.1//EN"
 "http://www.w3.org/Graphics/SVG/1.1/DTD/svg11.dtd">
<!-- Generated by graphviz version 2.28.0 (20121015.0031)
 -->
<!-- Title: include/fa/pair.h Pages: 1 -->
<svg width="654pt" height="392pt"
 viewBox="0.00 0.00 654.00 392.00" xmlns="http://www.w3.org/2000/svg" xmlns:xlink="http://www.w3.org/1999/xlink">
<g id="graph1" class="graph" transform="scale(1 1) rotate(0) translate(4 388)">
<title>include/fa/pair.h</title>
<!-- Node1 -->
<g id="node1" class="node"><title>Node1</title>
<polygon fill="#bfbfbf" stroke="black" points="214.131,-360.695 214.131,-383.305 315.869,-383.305 315.869,-360.695 214.131,-360.695"/>
<text text-anchor="middle" x="265" y="-368.305" font-family="Futura" font-size="11.00">include/fa/pair.h</text>
</g>
<!-- Node2 -->
<g id="node3" class="node"><title>Node2</title>
<a xlink:href="action_8h.html" target="_top" xlink:title="include/fa/action.h">
<polygon fill="none" stroke="black" points="306.746,-300.695 306.746,-323.305 419.254,-323.305 419.254,-300.695 306.746,-300.695"/>
<text text-anchor="middle" x="363" y="-308.305" font-family="Futura" font-size="11.00">include/fa/action.h</text>
</a>
</g>
<!-- Node1&#45;&gt;Node2 -->
<g id="edge2" class="edge"><title>Node1&#45;&gt;Node2</title>
<path fill="none" stroke="midnightblue" d="M291.456,-355.342C308.536,-345.234 330.289,-332.359 345.301,-323.475"/>
<polygon fill="midnightblue" stroke="midnightblue" points="289.344,-352.525 282.52,-360.631 292.909,-358.55 289.344,-352.525"/>
</g>
<!-- Node3 -->
<g id="node5" class="node"><title>Node3</title>
<a xlink:href="audio_8h.html" target="_top" xlink:title="include/fa/audio.h">
<polygon fill="none" stroke="black" points="451.592,-240.695 451.592,-263.305 562.408,-263.305 562.408,-240.695 451.592,-240.695"/>
<text text-anchor="middle" x="507" y="-248.305" font-family="Futura" font-size="11.00">include/fa/audio.h</text>
</a>
</g>
<!-- Node1&#45;&gt;Node3 -->
<g id="edge44" class="edge"><title>Node1&#45;&gt;Node3</title>
<path fill="none" stroke="midnightblue" d="M326.191,-360.222C357.918,-352.97 396.51,-341.467 428,-324 457.188,-307.81 484.594,-279.021 498.147,-263.543"/>
<polygon fill="midnightblue" stroke="midnightblue" points="325.164,-356.864 316.149,-362.429 326.667,-363.701 325.164,-356.864"/>
</g>
<!-- Node4 -->
<g id="node7" class="node"><title>Node4</title>
<a xlink:href="fa_2fa_8h.html" target="_top" xlink:title="include/fa/fa.h">
<polygon fill="none" stroke="red" points="236.846,-180.695 236.846,-203.305 329.154,-203.305 329.154,-180.695 236.846,-180.695"/>
<text text-anchor="middle" x="283" y="-188.305" font-family="Futura" font-size="11.00">include/fa/fa.h</text>
</a>
</g>
<!-- Node1&#45;&gt;Node4 -->
<g id="edge48" class="edge"><title>Node1&#45;&gt;Node4</title>
<path fill="none" stroke="midnightblue" d="M262.575,-350.258C263.126,-312.065 271.612,-231.913 278.572,-203.368"/>
<polygon fill="midnightblue" stroke="midnightblue" points="259.079,-350.693 262.67,-360.661 266.079,-350.629 259.079,-350.693"/>
</g>
<!-- Node5 -->
<g id="node10" class="node"><title>Node5</title>
<a xlink:href="buffer_8h.html" target="_top" xlink:title="include/fa/buffer.h">
<polygon fill="none" stroke="black" points="69.2268,-60.6953 69.2268,-83.3047 180.773,-83.3047 180.773,-60.6953 69.2268,-60.6953"/>
<text text-anchor="middle" x="125" y="-68.3047" font-family="Futura" font-size="11.00">include/fa/buffer.h</text>
</a>
</g>
<!-- Node1&#45;&gt;Node5 -->
<g id="edge46" class="edge"><title>Node1&#45;&gt;Node5</title>
<path fill="none" stroke="midnightblue" d="M203.969,-365.357C136.733,-355.391 38,-327.989 38,-253 38,-253 38,-253 38,-191 38,-158.334 38.1865,-146.704 57,-120 68.4061,-103.81 87.275,-91.4172 102.246,-83.4323"/>
<polygon fill="midnightblue" stroke="midnightblue" points="203.67,-368.849 214.057,-366.758 204.633,-361.915 203.67,-368.849"/>
</g>
<!-- Node6 -->
<g id="node12" class="node"><title>Node6</title>
<a xlink:href="message_8h.html" target="_top" xlink:title="include/fa/midi/message.h">
<polygon fill="none" stroke="black" points="49.1335,-0.695312 49.1335,-23.3047 200.866,-23.3047 200.866,-0.695312 49.1335,-0.695312"/>
<text text-anchor="middle" x="125" y="-8.30469" font-family="Futura" font-size="11.00">include/fa/midi/message.h</text>
</a>
</g>
<!-- Node1&#45;&gt;Node6 -->
<g id="edge52" class="edge"><title>Node1&#45;&gt;Node6</title>
<path fill="none" stroke="midnightblue" d="M203.663,-369.608C125.387,-364.196 0,-341.684 0,-253 0,-253 0,-253 0,-131 0,-76.8342 62.8324,-40.16 99.4027,-23.4019"/>
<polygon fill="midnightblue" stroke="midnightblue" points="203.709,-373.118 213.905,-370.238 204.139,-366.131 203.709,-373.118"/>
</g>
<!-- Node7 -->
<g id="node15" class="node"><title>Node7</title>
<a xlink:href="signal_8h.html" target="_top" xlink:title="include/fa/signal.h">
<polygon fill="none" stroke="black" points="269.283,-0.695312 269.283,-23.3047 380.717,-23.3047 380.717,-0.695312 269.283,-0.695312"/>
<text text-anchor="middle" x="325" y="-8.30469" font-family="Futura" font-size="11.00">include/fa/signal.h</text>
</a>
</g>
<!-- Node1&#45;&gt;Node7 -->
<g id="edge56" class="edge"><title>Node1&#45;&gt;Node7</title>
<path fill="none" stroke="midnightblue" d="M326.273,-368.783C384.927,-364.837 474.895,-353.947 547,-324 597.004,-303.232 646,-307.146 646,-253 646,-253 646,-253 646,-131 646,-78.2888 599.056,-81.6584 551,-60 496.195,-35.3001 428.024,-23.4092 380.966,-17.7968"/>
<polygon fill="midnightblue" stroke="midnightblue" points="325.82,-365.304 316.057,-369.421 326.256,-372.29 325.82,-365.304"/>
</g>
<!-- Node9 -->
<g id="node23" class="node"><title>Node9</title>
<a xlink:href="midi_8h.html" target="_top" xlink:title="include/fa/midi.h">
<polygon fill="none" stroke="black" points="418.473,-60.6953 418.473,-83.3047 521.527,-83.3047 521.527,-60.6953 418.473,-60.6953"/>
<text text-anchor="middle" x="470" y="-68.3047" font-family="Futura" font-size="11.00">include/fa/midi.h</text>
</a>
</g>
<!-- Node1&#45;&gt;Node9 -->
<g id="edge54" class="edge"><title>Node1&#45;&gt;Node9</title>
<path fill="none" stroke="midnightblue" d="M326.12,-362.767C424.73,-347.752 608,-311.921 608,-253 608,-253 608,-253 608,-191 608,-134.732 540.907,-99.5623 500.285,-83.425"/>
<polygon fill="midnightblue" stroke="midnightblue" points="325.353,-359.343 315.98,-364.283 326.388,-366.266 325.353,-359.343"/>
</g>
<!-- Node10 -->
<g id="node26" class="node"><title>Node10</title>
<a xlink:href="map_8h.html" target="_top" xlink:title="include/fa/map.h">
<polygon fill="none" stroke="red" points="65.9141,-120.695 65.9141,-143.305 170.086,-143.305 170.086,-120.695 65.9141,-120.695"/>
<text text-anchor="middle" x="118" y="-128.305" font-family="Futura" font-size="11.00">include/fa/map.h</text>
</a>
</g>
<!-- Node1&#45;&gt;Node10 -->
<g id="edge50" class="edge"><title>Node1&#45;&gt;Node10</title>
<path fill="none" stroke="midnightblue" d="M253.058,-351.666C223.388,-303.628 147.081,-180.084 124.431,-143.412"/>
<polygon fill="midnightblue" stroke="midnightblue" points="250.261,-353.798 258.494,-360.466 256.217,-350.119 250.261,-353.798"/>
</g>
<!-- Node2&#45;&gt;Node3 -->
<g id="edge4" class="edge"><title>Node2&#45;&gt;Node3</title>
<path fill="none" stroke="midnightblue" d="M398.096,-296.864C423.69,-286.555 457.812,-272.812 480.993,-263.475"/>
<polygon fill="midnightblue" stroke="midnightblue" points="396.713,-293.648 388.744,-300.631 399.328,-300.141 396.713,-293.648"/>
</g>
<!-- Node2&#45;&gt;Node4 -->
<g id="edge40" class="edge"><title>Node2&#45;&gt;Node4</title>
<path fill="none" stroke="midnightblue" d="M345.418,-292.537C325.924,-267.53 296.55,-223.714 286.128,-203.618"/>
<polygon fill="midnightblue" stroke="midnightblue" points="342.855,-294.935 351.854,-300.528 348.307,-290.545 342.855,-294.935"/>
</g>
<!-- Node2&#45;&gt;Node9 -->
<g id="edge42" class="edge"><title>Node2&#45;&gt;Node9</title>
<path fill="none" stroke="midnightblue" d="M382.041,-293.244C419.296,-257.994 499.388,-179.524 513,-144 516.817,-134.039 516.862,-129.943 513,-120 507.234,-105.155 494.349,-92.1395 484.179,-83.5924"/>
<polygon fill="midnightblue" stroke="midnightblue" points="379.254,-291.061 374.371,-300.463 384.052,-296.158 379.254,-291.061"/>
</g>
<!-- Node3&#45;&gt;Node4 -->
<g id="edge6" class="edge"><title>Node3&#45;&gt;Node4</title>
<path fill="none" stroke="midnightblue" d="M457.046,-238.066C416.664,-227.609 360.558,-213.082 323.077,-203.377"/>
<polygon fill="midnightblue" stroke="midnightblue" points="456.395,-241.512 466.953,-240.631 458.15,-234.736 456.395,-241.512"/>
</g>
<!-- Node4&#45;&gt;Node1 -->
<g id="edge36" class="edge"><title>Node4&#45;&gt;Node1</title>
<path fill="none" stroke="midnightblue" d="M285.424,-213.78C284.869,-252.001 276.38,-332.15 269.421,-360.661"/>
<polygon fill="midnightblue" stroke="midnightblue" points="288.92,-213.336 285.331,-203.368 281.921,-213.399 288.92,-213.336"/>
</g>
<!-- Node4&#45;&gt;Node2 -->
<g id="edge8" class="edge"><title>Node4&#45;&gt;Node2</title>
<path fill="none" stroke="midnightblue" d="M300.725,-211.646C320.266,-236.744 349.618,-280.548 359.947,-300.528"/>
<polygon fill="midnightblue" stroke="midnightblue" points="303.263,-209.217 294.269,-203.618 297.808,-213.604 303.263,-209.217"/>
</g>
<!-- Node4&#45;&gt;Node5 -->
<g id="edge10" class="edge"><title>Node4&#45;&gt;Node5</title>
<path fill="none" stroke="midnightblue" d="M260.858,-174.463C227.891,-149.843 166.83,-104.24 139.217,-83.6179"/>
<polygon fill="midnightblue" stroke="midnightblue" points="258.872,-177.349 268.979,-180.528 263.061,-171.74 258.872,-177.349"/>
</g>
<!-- Node4&#45;&gt;Node7 -->
<g id="edge38" class="edge"><title>Node4&#45;&gt;Node7</title>
<path fill="none" stroke="midnightblue" d="M283.372,-170.258C289.072,-132.065 308.365,-51.9131 319.174,-23.368"/>
<polygon fill="midnightblue" stroke="midnightblue" points="279.839,-170.302 282.064,-180.661 286.784,-171.175 279.839,-170.302"/>
</g>
<!-- Node8 -->
<g id="node20" class="node"><title>Node8</title>
<a xlink:href="clock_8h.html" target="_top" xlink:title="include/fa/clock.h">
<polygon fill="none" stroke="black" points="395.978,-120.695 395.978,-143.305 504.022,-143.305 504.022,-120.695 395.978,-120.695"/>
<text text-anchor="middle" x="450" y="-128.305" font-family="Futura" font-size="11.00">include/fa/clock.h</text>
</a>
</g>
<!-- Node4&#45;&gt;Node8 -->
<g id="edge24" class="edge"><title>Node4&#45;&gt;Node8</title>
<path fill="none" stroke="midnightblue" d="M322.561,-177.26C352.467,-166.874 392.888,-152.835 420.121,-143.377"/>
<polygon fill="midnightblue" stroke="midnightblue" points="321.154,-174.044 312.856,-180.631 323.451,-180.656 321.154,-174.044"/>
</g>
<!-- Node4&#45;&gt;Node10 -->
<g id="edge32" class="edge"><title>Node4&#45;&gt;Node10</title>
<path fill="none" stroke="midnightblue" d="M243.913,-177.26C214.365,-166.874 174.428,-152.835 147.521,-143.377"/>
<polygon fill="midnightblue" stroke="midnightblue" points="242.906,-180.616 253.501,-180.631 245.228,-174.013 242.906,-180.616"/>
</g>
<!-- Node5&#45;&gt;Node6 -->
<g id="edge12" class="edge"><title>Node5&#45;&gt;Node6</title>
<path fill="none" stroke="midnightblue" d="M125,-50.4586C125,-41.4112 125,-31.1602 125,-23.6719"/>
<polygon fill="midnightblue" stroke="midnightblue" points="121.5,-50.6307 125,-60.6308 128.5,-50.6308 121.5,-50.6307"/>
</g>
<!-- Node5&#45;&gt;Node7 -->
<g id="edge16" class="edge"><title>Node5&#45;&gt;Node7</title>
<path fill="none" stroke="midnightblue" d="M170.521,-57.7988C206.505,-47.3635 256.035,-32.9997 289.217,-23.3771"/>
<polygon fill="midnightblue" stroke="midnightblue" points="169.385,-54.4839 160.756,-60.6308 171.335,-61.207 169.385,-54.4839"/>
</g>
<!-- Node6&#45;&gt;Node4 -->
<g id="edge14" class="edge"><title>Node6&#45;&gt;Node4</title>
<path fill="none" stroke="midnightblue" d="M150.68,-29.1043C162.999,-37.4918 177.533,-48.4061 189,-60 228.369,-99.8045 263.597,-157.371 277.125,-180.651"/>
<polygon fill="midnightblue" stroke="midnightblue" points="152.446,-26.0762 142.177,-23.47 148.58,-31.9114 152.446,-26.0762"/>
</g>
<!-- Node7&#45;&gt;Node2 -->
<g id="edge18" class="edge"><title>Node7&#45;&gt;Node2</title>
<path fill="none" stroke="midnightblue" d="M336.75,-32.2588C349.481,-54.9981 368,-94.3694 368,-131 368,-193 368,-193 368,-193 368,-232.779 365.129,-280.033 363.738,-300.588"/>
<polygon fill="midnightblue" stroke="midnightblue" points="339.765,-30.4809 331.719,-23.5881 333.71,-33.9941 339.765,-30.4809"/>
</g>
<!-- Node7&#45;&gt;Node3 -->
<g id="edge20" class="edge"><title>Node7&#45;&gt;Node3</title>
<path fill="none" stroke="midnightblue" d="M390.988,-19.2886C444.146,-25.8802 512.767,-38.3687 530,-60 573.912,-115.119 529.813,-209.131 512.953,-240.479"/>
<polygon fill="midnightblue" stroke="midnightblue" points="391.265,-15.7969 380.921,-18.0867 390.435,-22.7475 391.265,-15.7969"/>
</g>
<!-- Node7&#45;&gt;Node4 -->
<g id="edge22" class="edge"><title>Node7&#45;&gt;Node4</title>
<path fill="none" stroke="midnightblue" d="M324.622,-33.78C318.913,-72.0012 299.619,-152.15 288.815,-180.661"/>
<polygon fill="midnightblue" stroke="midnightblue" points="328.157,-33.7269 325.933,-23.368 321.211,-32.8523 328.157,-33.7269"/>
</g>
<!-- Node8&#45;&gt;Node3 -->
<g id="edge26" class="edge"><title>Node8&#45;&gt;Node3</title>
<path fill="none" stroke="midnightblue" d="M459.488,-152.641C471.683,-177.887 492.417,-220.81 501.942,-240.528"/>
<polygon fill="midnightblue" stroke="midnightblue" points="462.63,-151.1 455.129,-143.618 456.327,-154.145 462.63,-151.1"/>
</g>
<!-- Node8&#45;&gt;Node9 -->
<g id="edge28" class="edge"><title>Node8&#45;&gt;Node9</title>
<path fill="none" stroke="midnightblue" d="M456.878,-111.053C460.047,-101.863 463.681,-91.3248 466.32,-83.6719"/>
<polygon fill="midnightblue" stroke="midnightblue" points="453.527,-110.036 453.576,-120.631 460.144,-112.318 453.527,-110.036"/>
</g>
<!-- Node9&#45;&gt;Node4 -->
<g id="edge30" class="edge"><title>Node9&#45;&gt;Node4</title>
<path fill="none" stroke="midnightblue" d="M441.635,-88.2914C425.437,-97.2145 404.859,-108.874 387,-120 354.342,-140.345 317.432,-166.274 297.553,-180.493"/>
<polygon fill="midnightblue" stroke="midnightblue" points="443.521,-91.2495 450.613,-83.3785 440.16,-85.1088 443.521,-91.2495"/>
</g>
<!-- Node10&#45;&gt;Node5 -->
<g id="edge34" class="edge"><title>Node10&#45;&gt;Node5</title>
<path fill="none" stroke="midnightblue" d="M120.479,-110.459C121.571,-101.411 122.808,-91.1602 123.712,-83.6719"/>
<polygon fill="midnightblue" stroke="midnightblue" points="116.975,-110.283 119.251,-120.631 123.925,-111.122 116.975,-110.283"/>
</g>
</g>
</svg>
