<?xml version="1.0" encoding="UTF-8" standalone="no"?>
<!DOCTYPE svg PUBLIC "-//W3C//DTD SVG 1.1//EN"
 "http://www.w3.org/Graphics/SVG/1.1/DTD/svg11.dtd">
<!-- Generated by graphviz version 2.28.0 (20121015.0031)
 -->
<!-- Title: include/fa/string.h Pages: 1 -->
<svg width="630pt" height="392pt"
 viewBox="0.00 0.00 630.00 392.00" xmlns="http://www.w3.org/2000/svg" xmlns:xlink="http://www.w3.org/1999/xlink">
<g id="graph1" class="graph" transform="scale(1 1) rotate(0) translate(4 388)">
<title>include/fa/string.h</title>
<!-- Node1 -->
<g id="node1" class="node"><title>Node1</title>
<polygon fill="#bfbfbf" stroke="black" points="250.306,-360.695 250.306,-383.305 359.694,-383.305 359.694,-360.695 250.306,-360.695"/>
<text text-anchor="middle" x="305" y="-368.305" font-family="Futura" font-size="11.00">include/fa/string.h</text>
</g>
<!-- Node2 -->
<g id="node3" class="node"><title>Node2</title>
<a xlink:href="buffer_8h.html" target="_top" xlink:title="include/fa/buffer.h">
<polygon fill="none" stroke="black" points="432.227,-300.695 432.227,-323.305 543.773,-323.305 543.773,-300.695 432.227,-300.695"/>
<text text-anchor="middle" x="488" y="-308.305" font-family="Futura" font-size="11.00">include/fa/buffer.h</text>
</a>
</g>
<!-- Node1&#45;&gt;Node2 -->
<g id="edge2" class="edge"><title>Node1&#45;&gt;Node2</title>
<path fill="none" stroke="midnightblue" d="M347.499,-357.53C380.351,-347.118 425.157,-332.917 455.259,-323.377"/>
<polygon fill="midnightblue" stroke="midnightblue" points="346.192,-354.273 337.717,-360.631 348.307,-360.946 346.192,-354.273"/>
</g>
<!-- Node5 -->
<g id="node10" class="node"><title>Node5</title>
<a xlink:href="dynamic_8h.html" target="_top" xlink:title="include/fa/dynamic.h">
<polygon fill="none" stroke="black" points="-0.081543,-120.695 -0.081543,-143.305 124.082,-143.305 124.082,-120.695 -0.081543,-120.695"/>
<text text-anchor="middle" x="62" y="-128.305" font-family="Futura" font-size="11.00">include/fa/dynamic.h</text>
</a>
</g>
<!-- Node1&#45;&gt;Node5 -->
<g id="edge40" class="edge"><title>Node1&#45;&gt;Node5</title>
<path fill="none" stroke="midnightblue" d="M266.696,-356.495C248.674,-348.554 227.558,-337.555 211,-324 142.334,-267.79 85.6385,-174.486 67.8282,-143.42"/>
<polygon fill="midnightblue" stroke="midnightblue" points="265.769,-359.903 276.341,-360.589 268.503,-353.46 265.769,-359.903"/>
</g>
<!-- Node6 -->
<g id="node12" class="node"><title>Node6</title>
<a xlink:href="error_8h.html" target="_top" xlink:title="include/fa/error.h">
<polygon fill="none" stroke="red" points="141.598,-120.695 141.598,-143.305 248.402,-143.305 248.402,-120.695 141.598,-120.695"/>
<text text-anchor="middle" x="195" y="-128.305" font-family="Futura" font-size="11.00">include/fa/error.h</text>
</a>
</g>
<!-- Node1&#45;&gt;Node6 -->
<g id="edge42" class="edge"><title>Node1&#45;&gt;Node6</title>
<path fill="none" stroke="midnightblue" d="M267.816,-356.09C253.349,-348.518 237.901,-337.926 228,-324 187.051,-266.406 191.078,-174.776 193.847,-143.706"/>
<polygon fill="midnightblue" stroke="midnightblue" points="266.593,-359.387 277.114,-360.633 269.666,-353.098 266.593,-359.387"/>
</g>
<!-- Node8 -->
<g id="node18" class="node"><title>Node8</title>
<a xlink:href="map_8h.html" target="_top" xlink:title="include/fa/map.h">
<polygon fill="none" stroke="red" points="517.914,-120.695 517.914,-143.305 622.086,-143.305 622.086,-120.695 517.914,-120.695"/>
<text text-anchor="middle" x="570" y="-128.305" font-family="Futura" font-size="11.00">include/fa/map.h</text>
</a>
</g>
<!-- Node1&#45;&gt;Node8 -->
<g id="edge44" class="edge"><title>Node1&#45;&gt;Node8</title>
<path fill="none" stroke="midnightblue" d="M369.877,-367.296C434.706,-362.14 528.085,-350.277 552,-324 599.526,-271.779 580.681,-175.063 572.799,-143.359"/>
<polygon fill="midnightblue" stroke="midnightblue" points="369.439,-363.819 359.733,-368.067 369.969,-370.799 369.439,-363.819"/>
</g>
<!-- Node10 -->
<g id="node26" class="node"><title>Node10</title>
<a xlink:href="time_8h.html" target="_top" xlink:title="include/fa/time.h">
<polygon fill="none" stroke="red" points="359.594,-120.695 359.594,-143.305 462.406,-143.305 462.406,-120.695 359.594,-120.695"/>
<text text-anchor="middle" x="411" y="-128.305" font-family="Futura" font-size="11.00">include/fa/time.h</text>
</a>
</g>
<!-- Node1&#45;&gt;Node10 -->
<g id="edge46" class="edge"><title>Node1&#45;&gt;Node10</title>
<path fill="none" stroke="midnightblue" d="M324.725,-353.878C345.72,-334.4 378.063,-300.526 394,-264 412.252,-222.17 412.4,-166.214 411.561,-143.37"/>
<polygon fill="midnightblue" stroke="midnightblue" points="322.352,-351.305 317.292,-360.614 327.053,-356.492 322.352,-351.305"/>
</g>
<!-- Node3 -->
<g id="node5" class="node"><title>Node3</title>
<a xlink:href="message_8h.html" target="_top" xlink:title="include/fa/midi/message.h">
<polygon fill="none" stroke="black" points="234.134,-240.695 234.134,-263.305 385.866,-263.305 385.866,-240.695 234.134,-240.695"/>
<text text-anchor="middle" x="310" y="-248.305" font-family="Futura" font-size="11.00">include/fa/midi/message.h</text>
</a>
</g>
<!-- Node2&#45;&gt;Node3 -->
<g id="edge4" class="edge"><title>Node2&#45;&gt;Node3</title>
<path fill="none" stroke="midnightblue" d="M446.662,-297.53C414.708,-287.118 371.126,-272.917 341.847,-263.377"/>
<polygon fill="midnightblue" stroke="midnightblue" points="445.585,-300.86 456.177,-300.631 447.754,-294.205 445.585,-300.86"/>
</g>
<!-- Node9 -->
<g id="node21" class="node"><title>Node9</title>
<a xlink:href="signal_8h.html" target="_top" xlink:title="include/fa/signal.h">
<polygon fill="none" stroke="red" points="304.283,-60.6953 304.283,-83.3047 415.717,-83.3047 415.717,-60.6953 304.283,-60.6953"/>
<text text-anchor="middle" x="360" y="-68.3047" font-family="Futura" font-size="11.00">include/fa/signal.h</text>
</a>
</g>
<!-- Node2&#45;&gt;Node9 -->
<g id="edge38" class="edge"><title>Node2&#45;&gt;Node9</title>
<path fill="none" stroke="midnightblue" d="M492.485,-290.383C499.453,-252.607 508.479,-171.456 471,-120 457.509,-101.477 435.25,-90.2013 414.194,-83.3614"/>
<polygon fill="midnightblue" stroke="midnightblue" points="488.964,-290.142 490.442,-300.633 495.829,-291.51 488.964,-290.142"/>
</g>
<!-- Node4 -->
<g id="node7" class="node"><title>Node4</title>
<a xlink:href="fa_2fa_8h.html" target="_top" xlink:title="include/fa/fa.h">
<polygon fill="none" stroke="red" points="269.846,-180.695 269.846,-203.305 362.154,-203.305 362.154,-180.695 269.846,-180.695"/>
<text text-anchor="middle" x="316" y="-188.305" font-family="Futura" font-size="11.00">include/fa/fa.h</text>
</a>
</g>
<!-- Node3&#45;&gt;Node4 -->
<g id="edge6" class="edge"><title>Node3&#45;&gt;Node4</title>
<path fill="none" stroke="midnightblue" d="M312.125,-230.459C313.061,-221.411 314.121,-211.16 314.896,-203.672"/>
<polygon fill="midnightblue" stroke="midnightblue" points="308.62,-230.324 311.073,-240.631 315.583,-231.044 308.62,-230.324"/>
</g>
<!-- Node4&#45;&gt;Node1 -->
<g id="edge30" class="edge"><title>Node4&#45;&gt;Node1</title>
<path fill="none" stroke="midnightblue" d="M265.861,-207.282C249.991,-214.43 234.201,-224.893 225,-240 197.693,-284.837 259.788,-338.242 289.86,-360.477"/>
<polygon fill="midnightblue" stroke="midnightblue" points="267.254,-210.494 275.165,-203.447 264.586,-204.022 267.254,-210.494"/>
</g>
<!-- Node4&#45;&gt;Node2 -->
<g id="edge8" class="edge"><title>Node4&#45;&gt;Node2</title>
<path fill="none" stroke="midnightblue" d="M343.493,-208.619C358.635,-217.456 377.623,-228.925 394,-240 423.986,-260.278 457.443,-286.456 475.237,-300.682"/>
<polygon fill="midnightblue" stroke="midnightblue" points="345.029,-205.464 334.621,-203.485 341.523,-211.523 345.029,-205.464"/>
</g>
<!-- Node4&#45;&gt;Node5 -->
<g id="edge10" class="edge"><title>Node4&#45;&gt;Node5</title>
<path fill="none" stroke="midnightblue" d="M260.805,-178.396C214.915,-167.918 150.395,-153.185 107.444,-143.377"/>
<polygon fill="midnightblue" stroke="midnightblue" points="260.062,-181.817 270.59,-180.631 261.62,-174.992 260.062,-181.817"/>
</g>
<!-- Node4&#45;&gt;Node6 -->
<g id="edge12" class="edge"><title>Node4&#45;&gt;Node6</title>
<path fill="none" stroke="midnightblue" d="M279.712,-176.454C257.054,-166.193 229.083,-152.688 211.518,-143.475"/>
<polygon fill="midnightblue" stroke="midnightblue" points="278.494,-179.743 289.052,-180.631 281.352,-173.353 278.494,-179.743"/>
</g>
<!-- Node4&#45;&gt;Node8 -->
<g id="edge20" class="edge"><title>Node4&#45;&gt;Node8</title>
<path fill="none" stroke="midnightblue" d="M371.195,-178.396C417.085,-167.918 481.605,-153.185 524.556,-143.377"/>
<polygon fill="midnightblue" stroke="midnightblue" points="370.38,-174.992 361.41,-180.631 371.938,-181.817 370.38,-174.992"/>
</g>
<!-- Node4&#45;&gt;Node9 -->
<g id="edge24" class="edge"><title>Node4&#45;&gt;Node9</title>
<path fill="none" stroke="midnightblue" d="M318.373,-170.534C325.474,-145.25 341.554,-103.187 351.97,-83.6179"/>
<polygon fill="midnightblue" stroke="midnightblue" points="314.904,-169.976 315.858,-180.528 321.692,-171.685 314.904,-169.976"/>
</g>
<!-- Node4&#45;&gt;Node10 -->
<g id="edge32" class="edge"><title>Node4&#45;&gt;Node10</title>
<path fill="none" stroke="midnightblue" d="M336.007,-175.061C351.421,-164.996 372.508,-152.277 388.508,-143.475"/>
<polygon fill="midnightblue" stroke="midnightblue" points="334.04,-172.166 327.668,-180.631 337.928,-177.987 334.04,-172.166"/>
</g>
<!-- Node6&#45;&gt;Node4 -->
<g id="edge18" class="edge"><title>Node6&#45;&gt;Node4</title>
<path fill="none" stroke="midnightblue" d="M231.549,-147.664C254.248,-157.95 282.199,-171.45 299.683,-180.631"/>
<polygon fill="midnightblue" stroke="midnightblue" points="232.745,-144.365 222.188,-143.475 229.886,-150.755 232.745,-144.365"/>
</g>
<!-- Node7 -->
<g id="node14" class="node"><title>Node7</title>
<a xlink:href="audio_8h.html" target="_top" xlink:title="include/fa/audio.h">
<polygon fill="none" stroke="black" points="220.592,-0.695312 220.592,-23.3047 331.408,-23.3047 331.408,-0.695312 220.592,-0.695312"/>
<text text-anchor="middle" x="276" y="-8.30469" font-family="Futura" font-size="11.00">include/fa/audio.h</text>
</a>
</g>
<!-- Node6&#45;&gt;Node7 -->
<g id="edge14" class="edge"><title>Node6&#45;&gt;Node7</title>
<path fill="none" stroke="midnightblue" d="M207.899,-112.208C225.102,-87.148 254.977,-43.6261 268.711,-23.6179"/>
<polygon fill="midnightblue" stroke="midnightblue" points="204.962,-110.303 202.188,-120.528 210.733,-114.265 204.962,-110.303"/>
</g>
<!-- Node7&#45;&gt;Node4 -->
<g id="edge16" class="edge"><title>Node7&#45;&gt;Node4</title>
<path fill="none" stroke="midnightblue" d="M280.559,-33.2881C289.103,-71.3093 307.242,-152.027 313.677,-180.661"/>
<polygon fill="midnightblue" stroke="midnightblue" points="283.937,-32.3572 278.33,-23.368 277.108,-33.892 283.937,-32.3572"/>
</g>
<!-- Node8&#45;&gt;Node2 -->
<g id="edge22" class="edge"><title>Node8&#45;&gt;Node2</title>
<path fill="none" stroke="midnightblue" d="M560.878,-152.801C543.458,-190.615 506.01,-271.904 492.763,-300.661"/>
<polygon fill="midnightblue" stroke="midnightblue" points="564.218,-153.915 565.224,-143.368 557.861,-150.986 564.218,-153.915"/>
</g>
<!-- Node9&#45;&gt;Node4 -->
<g id="edge28" class="edge"><title>Node9&#45;&gt;Node4</title>
<path fill="none" stroke="midnightblue" d="M357.669,-93.3159C350.573,-118.645 334.386,-160.984 323.952,-180.528"/>
<polygon fill="midnightblue" stroke="midnightblue" points="361.064,-94.1698 360.111,-83.6179 354.275,-92.4607 361.064,-94.1698"/>
</g>
<!-- Node9&#45;&gt;Node7 -->
<g id="edge26" class="edge"><title>Node9&#45;&gt;Node7</title>
<path fill="none" stroke="midnightblue" d="M336.506,-54.7779C321.995,-44.7583 303.8,-32.1949 291.171,-23.475"/>
<polygon fill="midnightblue" stroke="midnightblue" points="334.765,-57.829 344.982,-60.6308 338.742,-52.0687 334.765,-57.829"/>
</g>
<!-- Node10&#45;&gt;Node4 -->
<g id="edge34" class="edge"><title>Node10&#45;&gt;Node4</title>
<path fill="none" stroke="midnightblue" d="M390.807,-149.06C375.348,-159.147 354.259,-171.86 338.3,-180.631"/>
<polygon fill="midnightblue" stroke="midnightblue" points="392.802,-151.937 399.178,-143.475 388.917,-146.114 392.802,-151.937"/>
</g>
<!-- Node10&#45;&gt;Node9 -->
<g id="edge36" class="edge"><title>Node10&#45;&gt;Node9</title>
<path fill="none" stroke="midnightblue" d="M395.264,-113.104C386.789,-103.466 376.62,-91.9008 369.384,-83.6719"/>
<polygon fill="midnightblue" stroke="midnightblue" points="392.65,-115.432 401.882,-120.631 397.907,-110.81 392.65,-115.432"/>
</g>
</g>
</svg>
