<?xml version="1.0" encoding="UTF-8" standalone="no"?>
<!DOCTYPE svg PUBLIC "-//W3C//DTD SVG 1.1//EN"
 "http://www.w3.org/Graphics/SVG/1.1/DTD/svg11.dtd">
<!-- Generated by graphviz version 2.28.0 (20121015.0031)
 -->
<!-- Title: include/fa/system/directory.h Pages: 1 -->
<svg width="813pt" height="272pt"
 viewBox="0.00 0.00 813.00 272.00" xmlns="http://www.w3.org/2000/svg" xmlns:xlink="http://www.w3.org/1999/xlink">
<g id="graph1" class="graph" transform="scale(1 1) rotate(0) translate(4 268)">
<title>include/fa/system/directory.h</title>
<!-- Node1 -->
<g id="node1" class="node"><title>Node1</title>
<polygon fill="#bfbfbf" stroke="black" points="278.452,-240.695 278.452,-263.305 443.548,-263.305 443.548,-240.695 278.452,-240.695"/>
<text text-anchor="middle" x="361" y="-248.305" font-family="Futura" font-size="11.00">include/fa/system/directory.h</text>
</g>
<!-- Node2 -->
<g id="node3" class="node"><title>Node2</title>
<a xlink:href="system_8h.html" target="_top" xlink:title="include/fa/system.h">
<polygon fill="none" stroke="black" points="303.462,-180.695 303.462,-203.305 418.538,-203.305 418.538,-180.695 303.462,-180.695"/>
<text text-anchor="middle" x="361" y="-188.305" font-family="Futura" font-size="11.00">include/fa/system.h</text>
</a>
</g>
<!-- Node1&#45;&gt;Node2 -->
<g id="edge2" class="edge"><title>Node1&#45;&gt;Node2</title>
<path fill="none" stroke="midnightblue" d="M361,-230.459C361,-221.411 361,-211.16 361,-203.672"/>
<polygon fill="midnightblue" stroke="midnightblue" points="357.5,-230.631 361,-240.631 364.5,-230.631 357.5,-230.631"/>
</g>
<!-- Node3 -->
<g id="node5" class="node"><title>Node3</title>
<a xlink:href="fa_2fa_8h.html" target="_top" xlink:title="include/fa/fa.h">
<polygon fill="none" stroke="red" points="314.846,-120.695 314.846,-143.305 407.154,-143.305 407.154,-120.695 314.846,-120.695"/>
<text text-anchor="middle" x="361" y="-128.305" font-family="Futura" font-size="11.00">include/fa/fa.h</text>
</a>
</g>
<!-- Node2&#45;&gt;Node3 -->
<g id="edge4" class="edge"><title>Node2&#45;&gt;Node3</title>
<path fill="none" stroke="midnightblue" d="M361,-170.459C361,-161.411 361,-151.16 361,-143.672"/>
<polygon fill="midnightblue" stroke="midnightblue" points="357.5,-170.631 361,-180.631 364.5,-170.631 357.5,-170.631"/>
</g>
<!-- Node4 -->
<g id="node7" class="node"><title>Node4</title>
<a xlink:href="action_8h.html" target="_top" xlink:title="include/fa/action.h">
<polygon fill="none" stroke="red" points="-0.253906,-60.6953 -0.253906,-83.3047 112.254,-83.3047 112.254,-60.6953 -0.253906,-60.6953"/>
<text text-anchor="middle" x="56" y="-68.3047" font-family="Futura" font-size="11.00">include/fa/action.h</text>
</a>
</g>
<!-- Node3&#45;&gt;Node4 -->
<g id="edge6" class="edge"><title>Node3&#45;&gt;Node4</title>
<path fill="none" stroke="midnightblue" d="M304.761,-121.293C247.412,-110.775 159.479,-94.0603 104.921,-83.3119"/>
<polygon fill="midnightblue" stroke="midnightblue" points="304.28,-124.763 314.746,-123.118 305.538,-117.877 304.28,-124.763"/>
</g>
<!-- Node5 -->
<g id="node10" class="node"><title>Node5</title>
<a xlink:href="atomic_8h.html" target="_top" xlink:title="include/fa/atomic.h">
<polygon fill="none" stroke="black" points="130.374,-60.6953 130.374,-83.3047 245.626,-83.3047 245.626,-60.6953 130.374,-60.6953"/>
<text text-anchor="middle" x="188" y="-68.3047" font-family="Futura" font-size="11.00">include/fa/atomic.h</text>
</a>
</g>
<!-- Node3&#45;&gt;Node5 -->
<g id="edge10" class="edge"><title>Node3&#45;&gt;Node5</title>
<path fill="none" stroke="midnightblue" d="M315.02,-117.53C282.556,-107.118 240.36,-92.9175 213.635,-83.3771"/>
<polygon fill="midnightblue" stroke="midnightblue" points="314.165,-120.931 324.755,-120.631 316.289,-114.261 314.165,-120.931"/>
</g>
<!-- Node6 -->
<g id="node13" class="node"><title>Node6</title>
<a xlink:href="buffer_8h.html" target="_top" xlink:title="include/fa/buffer.h">
<polygon fill="none" stroke="red" points="263.227,-60.6953 263.227,-83.3047 374.773,-83.3047 374.773,-60.6953 263.227,-60.6953"/>
<text text-anchor="middle" x="319" y="-68.3047" font-family="Futura" font-size="11.00">include/fa/buffer.h</text>
</a>
</g>
<!-- Node3&#45;&gt;Node6 -->
<g id="edge14" class="edge"><title>Node3&#45;&gt;Node6</title>
<path fill="none" stroke="midnightblue" d="M347.62,-112.523C340.728,-103.005 332.568,-91.7362 326.728,-83.6719"/>
<polygon fill="midnightblue" stroke="midnightblue" points="344.791,-114.584 353.491,-120.631 350.461,-110.479 344.791,-114.584"/>
</g>
<!-- Node7 -->
<g id="node15" class="node"><title>Node7</title>
<a xlink:href="io_8h.html" target="_top" xlink:title="include/fa/io.h">
<polygon fill="none" stroke="black" points="315.185,-0.695312 315.185,-23.3047 406.815,-23.3047 406.815,-0.695312 315.185,-0.695312"/>
<text text-anchor="middle" x="361" y="-8.30469" font-family="Futura" font-size="11.00">include/fa/io.h</text>
</a>
</g>
<!-- Node3&#45;&gt;Node7 -->
<g id="edge26" class="edge"><title>Node3&#45;&gt;Node7</title>
<path fill="none" stroke="midnightblue" d="M372.293,-111.845C376.543,-103.575 380.863,-93.6079 383,-84 385.316,-73.5879 385.316,-70.4121 383,-60 380.026,-46.6325 372.828,-32.5696 367.47,-23.3496"/>
<polygon fill="midnightblue" stroke="midnightblue" points="369.204,-110.198 367.47,-120.65 375.343,-113.561 369.204,-110.198"/>
</g>
<!-- Node8 -->
<g id="node17" class="node"><title>Node8</title>
<a xlink:href="clock_8h.html" target="_top" xlink:title="include/fa/clock.h">
<polygon fill="none" stroke="red" points="430.978,-60.6953 430.978,-83.3047 539.022,-83.3047 539.022,-60.6953 430.978,-60.6953"/>
<text text-anchor="middle" x="485" y="-68.3047" font-family="Futura" font-size="11.00">include/fa/clock.h</text>
</a>
</g>
<!-- Node3&#45;&gt;Node8 -->
<g id="edge18" class="edge"><title>Node3&#45;&gt;Node8</title>
<path fill="none" stroke="midnightblue" d="M392.393,-116.316C414.294,-106.072 442.995,-92.6474 462.605,-83.475"/>
<polygon fill="midnightblue" stroke="midnightblue" points="390.744,-113.224 383.169,-120.631 393.71,-119.564 390.744,-113.224"/>
</g>
<!-- Node9 -->
<g id="node19" class="node"><title>Node9</title>
<a xlink:href="dynamic_8h.html" target="_top" xlink:title="include/fa/dynamic.h">
<polygon fill="none" stroke="black" points="556.918,-60.6953 556.918,-83.3047 681.082,-83.3047 681.082,-60.6953 556.918,-60.6953"/>
<text text-anchor="middle" x="619" y="-68.3047" font-family="Futura" font-size="11.00">include/fa/dynamic.h</text>
</a>
</g>
<!-- Node3&#45;&gt;Node9 -->
<g id="edge20" class="edge"><title>Node3&#45;&gt;Node9</title>
<path fill="none" stroke="midnightblue" d="M417.064,-118.396C463.677,-107.918 529.212,-93.1848 572.84,-83.3771"/>
<polygon fill="midnightblue" stroke="midnightblue" points="416.114,-115.023 407.125,-120.631 417.649,-121.852 416.114,-115.023"/>
</g>
<!-- Node10 -->
<g id="node21" class="node"><title>Node10</title>
<a xlink:href="error_8h.html" target="_top" xlink:title="include/fa/error.h">
<polygon fill="none" stroke="red" points="698.598,-60.6953 698.598,-83.3047 805.402,-83.3047 805.402,-60.6953 698.598,-60.6953"/>
<text text-anchor="middle" x="752" y="-68.3047" font-family="Futura" font-size="11.00">include/fa/error.h</text>
</a>
</g>
<!-- Node3&#45;&gt;Node10 -->
<g id="edge22" class="edge"><title>Node3&#45;&gt;Node10</title>
<path fill="none" stroke="midnightblue" d="M417.468,-122.617C481.495,-113.669 588.715,-98.7741 681,-84 686.613,-83.1014 692.504,-82.114 698.404,-81.1109"/>
<polygon fill="midnightblue" stroke="midnightblue" points="416.606,-119.203 407.187,-124.055 417.575,-126.136 416.606,-119.203"/>
</g>
<!-- Node4&#45;&gt;Node3 -->
<g id="edge8" class="edge"><title>Node4&#45;&gt;Node3</title>
<path fill="none" stroke="midnightblue" d="M122.129,-84.5267C180.333,-95.2632 263.48,-111.094 314.81,-121.227"/>
<polygon fill="midnightblue" stroke="midnightblue" points="122.757,-81.0836 112.289,-82.7166 121.491,-87.9681 122.757,-81.0836"/>
</g>
<!-- Node5&#45;&gt;Node3 -->
<g id="edge12" class="edge"><title>Node5&#45;&gt;Node3</title>
<path fill="none" stroke="midnightblue" d="M234.006,-86.4782C266.476,-96.8924 308.67,-111.093 335.387,-120.631"/>
<polygon fill="midnightblue" stroke="midnightblue" points="234.86,-83.0769 224.27,-83.3771 232.736,-89.7468 234.86,-83.0769"/>
</g>
<!-- Node6&#45;&gt;Node7 -->
<g id="edge16" class="edge"><title>Node6&#45;&gt;Node7</title>
<path fill="none" stroke="midnightblue" d="M332.38,-52.5233C339.272,-43.0047 347.432,-31.7362 353.272,-23.6719"/>
<polygon fill="midnightblue" stroke="midnightblue" points="329.539,-50.4785 326.509,-60.6308 335.209,-54.5841 329.539,-50.4785"/>
</g>
<!-- Node10&#45;&gt;Node3 -->
<g id="edge24" class="edge"><title>Node10&#45;&gt;Node3</title>
<path fill="none" stroke="midnightblue" d="M693.095,-84.9296C587.707,-101.639 470.723,-117.611 407.352,-125.65"/>
<polygon fill="midnightblue" stroke="midnightblue" points="693.931,-88.3406 703.255,-83.3105 692.829,-81.4279 693.931,-88.3406"/>
</g>
</g>
</svg>
