<?xml version="1.0" encoding="UTF-8" standalone="no"?>
<!DOCTYPE svg PUBLIC "-//W3C//DTD SVG 1.1//EN"
 "http://www.w3.org/Graphics/SVG/1.1/DTD/svg11.dtd">
<!-- Generated by graphviz version 2.28.0 (20121015.0031)
 -->
<!-- Title: include/fa/dynamic.h Pages: 1 -->
<svg width="802pt" height="212pt"
 viewBox="0.00 0.00 802.00 212.00" xmlns="http://www.w3.org/2000/svg" xmlns:xlink="http://www.w3.org/1999/xlink">
<g id="graph1" class="graph" transform="scale(1 1) rotate(0) translate(4 208)">
<title>include/fa/dynamic.h</title>
<!-- Node1 -->
<g id="node1" class="node"><title>Node1</title>
<polygon fill="#bfbfbf" stroke="black" points="646.918,-180.695 646.918,-203.305 771.082,-203.305 771.082,-180.695 646.918,-180.695"/>
<text text-anchor="middle" x="709" y="-188.305" font-family="Futura" font-size="11.00">include/fa/dynamic.h</text>
</g>
<!-- Node2 -->
<g id="node3" class="node"><title>Node2</title>
<a xlink:href="fa_2fa_8h.html" target="_top" xlink:title="fa.h">
<polygon fill="none" stroke="red" points="559.273,-120.695 559.273,-143.305 594.727,-143.305 594.727,-120.695 559.273,-120.695"/>
<text text-anchor="middle" x="577" y="-128.305" font-family="Futura" font-size="11.00">fa.h</text>
</a>
</g>
<!-- Node1&#45;&gt;Node2 -->
<g id="edge2" class="edge"><title>Node1&#45;&gt;Node2</title>
<path fill="none" stroke="midnightblue" d="M685.401,-180.631C662.589,-170.607 628.058,-155.435 604.125,-144.919"/>
<polygon fill="midnightblue" stroke="midnightblue" points="605.458,-141.681 594.894,-140.863 602.642,-148.09 605.458,-141.681"/>
</g>
<!-- Node9 -->
<g id="node19" class="node"><title>Node9</title>
<a xlink:href="string_8h.html" target="_top" xlink:title="fa/string.h">
<polygon fill="none" stroke="black" points="725.87,-0.695312 725.87,-23.3047 794.13,-23.3047 794.13,-0.695312 725.87,-0.695312"/>
<text text-anchor="middle" x="760" y="-8.30469" font-family="Futura" font-size="11.00">fa/string.h</text>
</a>
</g>
<!-- Node1&#45;&gt;Node9 -->
<g id="edge28" class="edge"><title>Node1&#45;&gt;Node9</title>
<path fill="none" stroke="midnightblue" d="M716.022,-180.666C728.075,-162.234 752.246,-122.042 761,-84 764.796,-67.5057 764.232,-48.2816 762.894,-34.0002"/>
<polygon fill="midnightblue" stroke="midnightblue" points="766.336,-33.2908 761.723,-23.753 759.381,-34.0857 766.336,-33.2908"/>
</g>
<!-- Node3 -->
<g id="node5" class="node"><title>Node3</title>
<a xlink:href="atomic_8h.html" target="_top" xlink:title="fa/atomic.h">
<polygon fill="none" stroke="red" points="-0.0629883,-60.6953 -0.0629883,-83.3047 74.063,-83.3047 74.063,-60.6953 -0.0629883,-60.6953"/>
<text text-anchor="middle" x="37" y="-68.3047" font-family="Futura" font-size="11.00">fa/atomic.h</text>
</a>
</g>
<!-- Node2&#45;&gt;Node3 -->
<g id="edge4" class="edge"><title>Node2&#45;&gt;Node3</title>
<path fill="none" stroke="midnightblue" d="M559.146,-130.356C494.665,-127.616 269.909,-115.664 80.2159,-84.9736"/>
<polygon fill="midnightblue" stroke="midnightblue" points="80.5032,-81.474 70.0684,-83.3082 79.3695,-88.3816 80.5032,-81.474"/>
</g>
<!-- Node4 -->
<g id="node8" class="node"><title>Node4</title>
<a xlink:href="queue_8h.html" target="_top" xlink:title="fa/atomic/queue.h">
<polygon fill="none" stroke="red" points="91.6484,-60.6953 91.6484,-83.3047 202.352,-83.3047 202.352,-60.6953 91.6484,-60.6953"/>
<text text-anchor="middle" x="147" y="-68.3047" font-family="Futura" font-size="11.00">fa/atomic/queue.h</text>
</a>
</g>
<!-- Node2&#45;&gt;Node4 -->
<g id="edge8" class="edge"><title>Node2&#45;&gt;Node4</title>
<path fill="none" stroke="midnightblue" d="M559.063,-128.97C507.112,-123.035 351.871,-104.892 212.486,-84.1796"/>
<polygon fill="midnightblue" stroke="midnightblue" points="212.887,-80.7007 202.48,-82.684 211.852,-87.6238 212.887,-80.7007"/>
</g>
<!-- Node5 -->
<g id="node10" class="node"><title>Node5</title>
<a xlink:href="stack_8h.html" target="_top" xlink:title="fa/atomic/stack.h">
<polygon fill="none" stroke="red" points="220.42,-60.6953 220.42,-83.3047 325.58,-83.3047 325.58,-60.6953 220.42,-60.6953"/>
<text text-anchor="middle" x="273" y="-68.3047" font-family="Futura" font-size="11.00">fa/atomic/stack.h</text>
</a>
</g>
<!-- Node2&#45;&gt;Node5 -->
<g id="edge10" class="edge"><title>Node2&#45;&gt;Node5</title>
<path fill="none" stroke="midnightblue" d="M558.894,-127.546C515.948,-119.352 406.258,-98.4242 335.911,-85.0029"/>
<polygon fill="midnightblue" stroke="midnightblue" points="336.309,-81.5157 325.831,-83.0795 334.998,-88.3917 336.309,-81.5157"/>
</g>
<!-- Node6 -->
<g id="node12" class="node"><title>Node6</title>
<a xlink:href="ring__buffer_8h.html" target="_top" xlink:title="fa/atomic/ring_buffer.h">
<polygon fill="none" stroke="red" points="343.526,-60.6953 343.526,-83.3047 478.474,-83.3047 478.474,-60.6953 343.526,-60.6953"/>
<text text-anchor="middle" x="411" y="-68.3047" font-family="Futura" font-size="11.00">fa/atomic/ring_buffer.h</text>
</a>
</g>
<!-- Node2&#45;&gt;Node6 -->
<g id="edge12" class="edge"><title>Node2&#45;&gt;Node6</title>
<path fill="none" stroke="midnightblue" d="M559.235,-124.793C533.429,-115.776 484.893,-98.8181 450.394,-86.7643"/>
<polygon fill="midnightblue" stroke="midnightblue" points="451.218,-83.3448 440.624,-83.3504 448.91,-89.9531 451.218,-83.3448"/>
</g>
<!-- Node7 -->
<g id="node14" class="node"><title>Node7</title>
<a xlink:href="system_8h.html" target="_top" xlink:title="fa/system.h">
<polygon fill="none" stroke="red" points="496.026,-60.6953 496.026,-83.3047 569.974,-83.3047 569.974,-60.6953 496.026,-60.6953"/>
<text text-anchor="middle" x="533" y="-68.3047" font-family="Futura" font-size="11.00">fa/system.h</text>
</a>
</g>
<!-- Node2&#45;&gt;Node7 -->
<g id="edge14" class="edge"><title>Node2&#45;&gt;Node7</title>
<path fill="none" stroke="midnightblue" d="M569.134,-120.631C563.078,-112.648 554.544,-101.398 547.29,-91.8366"/>
<polygon fill="midnightblue" stroke="midnightblue" points="549.928,-89.5234 541.096,-83.6719 544.351,-93.7542 549.928,-89.5234"/>
</g>
<!-- Node8 -->
<g id="node16" class="node"><title>Node8</title>
<a xlink:href="error_8h.html" target="_top" xlink:title="fa/error.h">
<polygon fill="none" stroke="black" points="588.161,-60.6953 588.161,-83.3047 653.839,-83.3047 653.839,-60.6953 588.161,-60.6953"/>
<text text-anchor="middle" x="621" y="-68.3047" font-family="Futura" font-size="11.00">fa/error.h</text>
</a>
</g>
<!-- Node2&#45;&gt;Node8 -->
<g id="edge16" class="edge"><title>Node2&#45;&gt;Node8</title>
<path fill="none" stroke="midnightblue" d="M579.55,-120.631C584.25,-112.485 592.676,-100.938 600.833,-91.2533"/>
<polygon fill="midnightblue" stroke="midnightblue" points="603.534,-93.4825 607.534,-83.6719 598.289,-88.8465 603.534,-93.4825"/>
</g>
<!-- Node10 -->
<g id="node22" class="node"><title>Node10</title>
<a xlink:href="pair_8h.html" target="_top" xlink:title="fa/pair.h">
<polygon fill="none" stroke="red" points="671.694,-60.6953 671.694,-83.3047 732.306,-83.3047 732.306,-60.6953 671.694,-60.6953"/>
<text text-anchor="middle" x="702" y="-68.3047" font-family="Futura" font-size="11.00">fa/pair.h</text>
</a>
</g>
<!-- Node2&#45;&gt;Node10 -->
<g id="edge24" class="edge"><title>Node2&#45;&gt;Node10</title>
<path fill="none" stroke="midnightblue" d="M594.032,-120.631C612.23,-111.409 641.29,-97.8294 664.753,-87.5268"/>
<polygon fill="midnightblue" stroke="midnightblue" points="666.31,-90.6668 674.09,-83.475 663.523,-84.2454 666.31,-90.6668"/>
</g>
<!-- Node3&#45;&gt;Node2 -->
<g id="edge6" class="edge"><title>Node3&#45;&gt;Node2</title>
<path fill="none" stroke="midnightblue" d="M74.1456,-80.4326C80.1497,-81.7716 86.249,-83.0436 92,-84 264.531,-112.691 474.092,-125.435 548.959,-129.481"/>
<polygon fill="midnightblue" stroke="midnightblue" points="548.835,-132.979 559.007,-130.015 549.207,-125.989 548.835,-132.979"/>
</g>
<!-- Node8&#45;&gt;Node2 -->
<g id="edge18" class="edge"><title>Node8&#45;&gt;Node2</title>
<path fill="none" stroke="midnightblue" d="M618.274,-83.6719C613.483,-91.9008 605.016,-103.466 596.866,-113.104"/>
<polygon fill="midnightblue" stroke="midnightblue" points="594.205,-110.829 590.182,-120.631 599.439,-115.477 594.205,-110.829"/>
</g>
<!-- Node8&#45;&gt;Node9 -->
<g id="edge20" class="edge"><title>Node8&#45;&gt;Node9</title>
<path fill="none" stroke="midnightblue" d="M645.85,-60.6308C668.048,-51.3683 700.784,-37.7086 725.514,-27.3897"/>
<polygon fill="midnightblue" stroke="midnightblue" points="727.015,-30.556 734.896,-23.475 724.319,-24.0959 727.015,-30.556"/>
</g>
<!-- Node9&#45;&gt;Node2 -->
<g id="edge22" class="edge"><title>Node9&#45;&gt;Node2</title>
<path fill="none" stroke="midnightblue" d="M760.231,-23.4692C759.982,-38.8546 757.187,-67.5255 741,-84 704.787,-120.857 641.77,-129.307 605.298,-130.951"/>
<polygon fill="midnightblue" stroke="midnightblue" points="604.779,-127.465 594.89,-131.266 604.991,-134.461 604.779,-127.465"/>
</g>
<!-- Node10&#45;&gt;Node2 -->
<g id="edge26" class="edge"><title>Node10&#45;&gt;Node2</title>
<path fill="none" stroke="midnightblue" d="M684.795,-83.4572C663.876,-94.0484 628.785,-110.323 604.232,-120.815"/>
<polygon fill="midnightblue" stroke="midnightblue" points="602.616,-117.698 594.748,-124.793 605.323,-124.153 602.616,-117.698"/>
</g>
</g>
</svg>
