<?xml version="1.0" encoding="UTF-8" standalone="no"?>
<!DOCTYPE svg PUBLIC "-//W3C//DTD SVG 1.1//EN"
 "http://www.w3.org/Graphics/SVG/1.1/DTD/svg11.dtd">
<!-- Generated by graphviz version 2.28.0 (20121015.0031)
 -->
<!-- Title: include/fa/signal Pages: 1 -->
<svg width="94pt" height="154pt"
 viewBox="0.00 0.00 94.00 154.00" xmlns="http://www.w3.org/2000/svg" xmlns:xlink="http://www.w3.org/1999/xlink">
<g id="graph1" class="graph" transform="scale(1 1) rotate(0) translate(4 150)">
<title>include/fa/signal</title>
<g id="graph2" class="cluster"><title>clusterdir_6b89b2d2887aea5b8d12d30c5d3aa615</title>
<a xlink:href="dir_6b89b2d2887aea5b8d12d30c5d3aa615.html" target="_top" xlink:title="fa">
<polygon fill="#ddddee" stroke="black" points="8,-64 8,-138 78,-138 78,-64 8,-64"/>
<text text-anchor="middle" x="43" y="-123" font-family="Futura" font-size="11.00">fa</text>
</a>
</g>
<!-- dir_4fe8713b0f43a9c42009554f71b35ee9 -->
<g id="node2" class="node"><title>dir_4fe8713b0f43a9c42009554f71b35ee9</title>
<a xlink:href="dir_4fe8713b0f43a9c42009554f71b35ee9.html" target="_top" xlink:title="signal">
<polygon fill="#eeeeff" stroke="black" points="70,-108 16,-108 16,-72 70,-72 70,-108"/>
<text text-anchor="middle" x="43" y="-86.3047" font-family="Futura" font-size="11.00">signal</text>
</a>
</g>
<!-- dir_d6856f1c307e6e1177295c1c530418b8 -->
<g id="node3" class="node"><title>dir_d6856f1c307e6e1177295c1c530418b8</title>
<a xlink:href="dir_d6856f1c307e6e1177295c1c530418b8.html" target="_top" xlink:title="atomic">
<polygon fill="none" stroke="black" points="70,-36 16,-36 16,-0 70,-0 70,-36"/>
<text text-anchor="middle" x="43" y="-14.3047" font-family="Futura" font-size="11.00">atomic</text>
</a>
</g>
<!-- dir_4fe8713b0f43a9c42009554f71b35ee9&#45;&gt;dir_d6856f1c307e6e1177295c1c530418b8 -->
<g id="edge3" class="edge"><title>dir_4fe8713b0f43a9c42009554f71b35ee9&#45;&gt;dir_d6856f1c307e6e1177295c1c530418b8</title>
<path fill="none" stroke="black" d="M43,-71.6966C43,-63.9827 43,-54.7125 43,-46.1124"/>
<polygon fill="black" stroke="black" points="46.5001,-46.1043 43,-36.1043 39.5001,-46.1044 46.5001,-46.1043"/>
<a xlink:href="dir_000005_000002.html" target="_top" xlink:title="5">
<text text-anchor="middle" x="49.3393" y="-46.0036" font-family="Futura" font-size="11.00">5</text>
</a>
</g>
</g>
</svg>
