<?xml version="1.0" encoding="UTF-8" standalone="no"?>
<!DOCTYPE svg PUBLIC "-//W3C//DTD SVG 1.1//EN"
 "http://www.w3.org/Graphics/SVG/1.1/DTD/svg11.dtd">
<!-- Generated by graphviz version 2.28.0 (20121015.0031)
 -->
<!-- Title: include/fa/fa.h Pages: 1 -->
<svg width="867pt" height="272pt"
 viewBox="0.00 0.00 867.00 272.00" xmlns="http://www.w3.org/2000/svg" xmlns:xlink="http://www.w3.org/1999/xlink">
<g id="graph1" class="graph" transform="scale(1 1) rotate(0) translate(4 268)">
<title>include/fa/fa.h</title>
<!-- Node1 -->
<g id="node1" class="node"><title>Node1</title>
<polygon fill="#bfbfbf" stroke="black" points="276.846,-240.695 276.846,-263.305 369.154,-263.305 369.154,-240.695 276.846,-240.695"/>
<text text-anchor="middle" x="323" y="-248.305" font-family="Futura" font-size="11.00">include/fa/fa.h</text>
</g>
<!-- Node2 -->
<g id="node3" class="node"><title>Node2</title>
<a xlink:href="action_8h.html" target="_top" xlink:title="include/fa/action.h">
<polygon fill="none" stroke="red" points="-0.253906,-120.695 -0.253906,-143.305 112.254,-143.305 112.254,-120.695 -0.253906,-120.695"/>
<text text-anchor="middle" x="56" y="-128.305" font-family="Futura" font-size="11.00">include/fa/action.h</text>
</a>
</g>
<!-- Node1&#45;&gt;Node2 -->
<g id="edge2" class="edge"><title>Node1&#45;&gt;Node2</title>
<path fill="none" stroke="midnightblue" d="M266.301,-248.049C221.023,-243.573 157.695,-232.314 110,-204 84.2097,-188.69 63.2478,-159.263 56.5181,-143.53"/>
<polygon fill="midnightblue" stroke="midnightblue" points="266.262,-251.559 276.537,-248.976 266.894,-244.588 266.262,-251.559"/>
</g>
<!-- Node3 -->
<g id="node6" class="node"><title>Node3</title>
<a xlink:href="atomic_8h.html" target="_top" xlink:title="include/fa/atomic.h">
<polygon fill="none" stroke="black" points="351.374,-180.695 351.374,-203.305 466.626,-203.305 466.626,-180.695 351.374,-180.695"/>
<text text-anchor="middle" x="409" y="-188.305" font-family="Futura" font-size="11.00">include/fa/atomic.h</text>
</a>
</g>
<!-- Node1&#45;&gt;Node3 -->
<g id="edge6" class="edge"><title>Node1&#45;&gt;Node3</title>
<path fill="none" stroke="midnightblue" d="M341.316,-234.494C355.099,-224.522 373.773,-212.113 388.133,-203.475"/>
<polygon fill="midnightblue" stroke="midnightblue" points="338.997,-231.856 333.059,-240.631 343.173,-237.474 338.997,-231.856"/>
</g>
<!-- Node4 -->
<g id="node9" class="node"><title>Node4</title>
<a xlink:href="buffer_8h.html" target="_top" xlink:title="include/fa/buffer.h">
<polygon fill="none" stroke="red" points="174.227,-60.6953 174.227,-83.3047 285.773,-83.3047 285.773,-60.6953 174.227,-60.6953"/>
<text text-anchor="middle" x="230" y="-68.3047" font-family="Futura" font-size="11.00">include/fa/buffer.h</text>
</a>
</g>
<!-- Node1&#45;&gt;Node4 -->
<g id="edge10" class="edge"><title>Node1&#45;&gt;Node4</title>
<path fill="none" stroke="midnightblue" d="M322.128,-230.268C320.096,-202.946 313.348,-154.339 291,-120 280.718,-104.201 263.257,-91.5474 249.645,-83.3675"/>
<polygon fill="midnightblue" stroke="midnightblue" points="318.654,-230.797 322.743,-240.571 325.641,-230.38 318.654,-230.797"/>
</g>
<!-- Node5 -->
<g id="node11" class="node"><title>Node5</title>
<a xlink:href="io_8h.html" target="_top" xlink:title="include/fa/io.h">
<polygon fill="none" stroke="black" points="139.185,-0.695312 139.185,-23.3047 230.815,-23.3047 230.815,-0.695312 139.185,-0.695312"/>
<text text-anchor="middle" x="185" y="-8.30469" font-family="Futura" font-size="11.00">include/fa/io.h</text>
</a>
</g>
<!-- Node1&#45;&gt;Node5 -->
<g id="edge22" class="edge"><title>Node1&#45;&gt;Node5</title>
<path fill="none" stroke="midnightblue" d="M266.375,-242.919C222.172,-235.315 165.982,-222.344 152,-204 108.957,-147.53 159.286,-54.3941 178.31,-23.3958"/>
<polygon fill="midnightblue" stroke="midnightblue" points="266.021,-246.408 276.46,-244.598 267.171,-239.503 266.021,-246.408"/>
</g>
<!-- Node6 -->
<g id="node13" class="node"><title>Node6</title>
<a xlink:href="clock_8h.html" target="_top" xlink:title="include/fa/clock.h">
<polygon fill="none" stroke="red" points="484.978,-180.695 484.978,-203.305 593.022,-203.305 593.022,-180.695 484.978,-180.695"/>
<text text-anchor="middle" x="539" y="-188.305" font-family="Futura" font-size="11.00">include/fa/clock.h</text>
</a>
</g>
<!-- Node1&#45;&gt;Node6 -->
<g id="edge14" class="edge"><title>Node1&#45;&gt;Node6</title>
<path fill="none" stroke="midnightblue" d="M371.666,-237.932C410.568,-227.486 464.365,-213.041 500.354,-203.377"/>
<polygon fill="midnightblue" stroke="midnightblue" points="370.367,-234.657 361.616,-240.631 372.182,-241.418 370.367,-234.657"/>
</g>
<!-- Node7 -->
<g id="node15" class="node"><title>Node7</title>
<a xlink:href="dynamic_8h.html" target="_top" xlink:title="include/fa/dynamic.h">
<polygon fill="none" stroke="black" points="610.918,-180.695 610.918,-203.305 735.082,-203.305 735.082,-180.695 610.918,-180.695"/>
<text text-anchor="middle" x="673" y="-188.305" font-family="Futura" font-size="11.00">include/fa/dynamic.h</text>
</a>
</g>
<!-- Node1&#45;&gt;Node7 -->
<g id="edge16" class="edge"><title>Node1&#45;&gt;Node7</title>
<path fill="none" stroke="midnightblue" d="M379.676,-241.608C442.98,-231.118 545.144,-214.188 610.661,-203.33"/>
<polygon fill="midnightblue" stroke="midnightblue" points="378.771,-238.21 369.477,-243.298 379.915,-245.116 378.771,-238.21"/>
</g>
<!-- Node8 -->
<g id="node17" class="node"><title>Node8</title>
<a xlink:href="error_8h.html" target="_top" xlink:title="include/fa/error.h">
<polygon fill="none" stroke="red" points="752.598,-180.695 752.598,-203.305 859.402,-203.305 859.402,-180.695 752.598,-180.695"/>
<text text-anchor="middle" x="806" y="-188.305" font-family="Futura" font-size="11.00">include/fa/error.h</text>
</a>
</g>
<!-- Node1&#45;&gt;Node8 -->
<g id="edge18" class="edge"><title>Node1&#45;&gt;Node8</title>
<path fill="none" stroke="midnightblue" d="M379.508,-245.275C459.063,-237.458 608.215,-222.305 735,-204 740.626,-203.188 746.525,-202.252 752.429,-201.275"/>
<polygon fill="midnightblue" stroke="midnightblue" points="378.832,-241.825 369.221,-246.283 379.515,-248.791 378.832,-241.825"/>
</g>
<!-- Node9 -->
<g id="node21" class="node"><title>Node9</title>
<a xlink:href="list_8h.html" target="_top" xlink:title="include/fa/list.h">
<polygon fill="none" stroke="red" points="161.385,-180.695 161.385,-203.305 256.615,-203.305 256.615,-180.695 161.385,-180.695"/>
<text text-anchor="middle" x="209" y="-188.305" font-family="Futura" font-size="11.00">include/fa/list.h</text>
</a>
</g>
<!-- Node1&#45;&gt;Node9 -->
<g id="edge24" class="edge"><title>Node1&#45;&gt;Node9</title>
<path fill="none" stroke="midnightblue" d="M288.18,-236.316C266.813,-226.072 240.633,-212.647 224.254,-203.475"/>
<polygon fill="midnightblue" stroke="midnightblue" points="286.767,-239.519 297.303,-240.631 289.76,-233.191 286.767,-239.519"/>
</g>
<!-- Node10 -->
<g id="node25" class="node"><title>Node10</title>
<a xlink:href="map_8h.html" target="_top" xlink:title="include/fa/map.h">
<polygon fill="none" stroke="red" points="177.914,-120.695 177.914,-143.305 282.086,-143.305 282.086,-120.695 177.914,-120.695"/>
<text text-anchor="middle" x="230" y="-128.305" font-family="Futura" font-size="11.00">include/fa/map.h</text>
</a>
</g>
<!-- Node1&#45;&gt;Node10 -->
<g id="edge34" class="edge"><title>Node1&#45;&gt;Node10</title>
<path fill="none" stroke="midnightblue" d="M308.449,-232.537C288.74,-207.53 254.207,-163.714 238.368,-143.618"/>
<polygon fill="midnightblue" stroke="midnightblue" points="305.808,-234.841 314.747,-240.528 311.306,-230.508 305.808,-234.841"/>
</g>
<!-- Node2&#45;&gt;Node1 -->
<g id="edge4" class="edge"><title>Node2&#45;&gt;Node1</title>
<path fill="none" stroke="midnightblue" d="M74.4308,-151.35C87.5772,-167.688 106.038,-190.962 128,-204 174.254,-231.458 235.209,-242.877 276.669,-247.624"/>
<polygon fill="midnightblue" stroke="midnightblue" points="77.0839,-149.066 68.0501,-143.53 71.6601,-153.491 77.0839,-149.066"/>
</g>
<!-- Node3&#45;&gt;Node1 -->
<g id="edge8" class="edge"><title>Node3&#45;&gt;Node1</title>
<path fill="none" stroke="midnightblue" d="M390.515,-209.629C376.692,-219.621 358.016,-232.024 343.691,-240.631"/>
<polygon fill="midnightblue" stroke="midnightblue" points="392.861,-212.246 398.803,-203.475 388.688,-206.626 392.861,-212.246"/>
</g>
<!-- Node4&#45;&gt;Node5 -->
<g id="edge12" class="edge"><title>Node4&#45;&gt;Node5</title>
<path fill="none" stroke="midnightblue" d="M215.665,-52.5233C208.279,-43.0047 199.537,-31.7362 193.28,-23.6719"/>
<polygon fill="midnightblue" stroke="midnightblue" points="213.06,-54.8754 221.955,-60.6308 218.59,-50.5844 213.06,-54.8754"/>
</g>
<!-- Node8&#45;&gt;Node1 -->
<g id="edge20" class="edge"><title>Node8&#45;&gt;Node1</title>
<path fill="none" stroke="midnightblue" d="M747.474,-204.769C606.435,-224.804 446.627,-240.477 369.325,-247.303"/>
<polygon fill="midnightblue" stroke="midnightblue" points="748.193,-208.201 757.595,-203.319 747.2,-201.272 748.193,-208.201"/>
</g>
<!-- Node9&#45;&gt;Node1 -->
<g id="edge28" class="edge"><title>Node9&#45;&gt;Node1</title>
<path fill="none" stroke="midnightblue" d="M244.067,-207.802C265.471,-218.071 291.631,-231.491 307.935,-240.631"/>
<polygon fill="midnightblue" stroke="midnightblue" points="245.46,-204.59 234.924,-203.475 242.465,-210.917 245.46,-204.59"/>
</g>
<!-- Node9&#45;&gt;Node2 -->
<g id="edge26" class="edge"><title>Node9&#45;&gt;Node2</title>
<path fill="none" stroke="midnightblue" d="M172.039,-176.989C144.714,-166.63 108.107,-152.753 83.374,-143.377"/>
<polygon fill="midnightblue" stroke="midnightblue" points="171.055,-180.359 181.647,-180.631 173.537,-173.813 171.055,-180.359"/>
</g>
<!-- Node9&#45;&gt;Node10 -->
<g id="edge30" class="edge"><title>Node9&#45;&gt;Node10</title>
<path fill="none" stroke="midnightblue" d="M216.222,-171.053C219.55,-161.863 223.365,-151.325 226.136,-143.672"/>
<polygon fill="midnightblue" stroke="midnightblue" points="212.868,-170.037 212.754,-180.631 219.45,-172.42 212.868,-170.037"/>
</g>
<!-- Node10&#45;&gt;Node4 -->
<g id="edge32" class="edge"><title>Node10&#45;&gt;Node4</title>
<path fill="none" stroke="midnightblue" d="M230,-110.459C230,-101.411 230,-91.1602 230,-83.6719"/>
<polygon fill="midnightblue" stroke="midnightblue" points="226.5,-110.631 230,-120.631 233.5,-110.631 226.5,-110.631"/>
</g>
</g>
</svg>
