<?xml version="1.0" encoding="UTF-8" standalone="no"?>
<!DOCTYPE svg PUBLIC "-//W3C//DTD SVG 1.1//EN"
 "http://www.w3.org/Graphics/SVG/1.1/DTD/svg11.dtd">
<!-- Generated by graphviz version 2.28.0 (20121015.0031)
 -->
<!-- Title: include/fa/pair/left.h Pages: 1 -->
<svg width="851pt" height="212pt"
 viewBox="0.00 0.00 851.00 212.00" xmlns="http://www.w3.org/2000/svg" xmlns:xlink="http://www.w3.org/1999/xlink">
<g id="graph1" class="graph" transform="scale(1 1) rotate(0) translate(4 208)">
<title>include/fa/pair/left.h</title>
<!-- Node1 -->
<g id="node1" class="node"><title>Node1</title>
<polygon fill="#bfbfbf" stroke="black" points="621.241,-180.695 621.241,-203.305 744.759,-203.305 744.759,-180.695 621.241,-180.695"/>
<text text-anchor="middle" x="683" y="-188.305" font-family="Futura" font-size="11.00">include/fa/pair/left.h</text>
</g>
<!-- Node2 -->
<g id="node3" class="node"><title>Node2</title>
<a xlink:href="fa_2fa_8h.html" target="_top" xlink:title="include/fa/fa.h">
<polygon fill="none" stroke="red" points="574.846,-120.695 574.846,-143.305 667.154,-143.305 667.154,-120.695 574.846,-120.695"/>
<text text-anchor="middle" x="621" y="-128.305" font-family="Futura" font-size="11.00">include/fa/fa.h</text>
</a>
</g>
<!-- Node1&#45;&gt;Node2 -->
<g id="edge2" class="edge"><title>Node1&#45;&gt;Node2</title>
<path fill="none" stroke="midnightblue" d="M664.485,-173.68C654.063,-163.93 641.38,-152.065 632.408,-143.672"/>
<polygon fill="midnightblue" stroke="midnightblue" points="662.222,-176.355 671.916,-180.631 667.004,-171.243 662.222,-176.355"/>
</g>
<!-- Node3 -->
<g id="node5" class="node"><title>Node3</title>
<a xlink:href="action_8h.html" target="_top" xlink:title="include/fa/action.h">
<polygon fill="none" stroke="red" points="654.746,-0.695312 654.746,-23.3047 767.254,-23.3047 767.254,-0.695312 654.746,-0.695312"/>
<text text-anchor="middle" x="711" y="-8.30469" font-family="Futura" font-size="11.00">include/fa/action.h</text>
</a>
</g>
<!-- Node2&#45;&gt;Node3 -->
<g id="edge4" class="edge"><title>Node2&#45;&gt;Node3</title>
<path fill="none" stroke="midnightblue" d="M640.612,-114.737C651.654,-106.713 664.79,-96.1432 674,-84 688.253,-65.2082 696.222,-38.2231 702.781,-23.5236"/>
<polygon fill="midnightblue" stroke="midnightblue" points="638.46,-111.972 632.322,-120.607 642.505,-117.685 638.46,-111.972"/>
</g>
<!-- Node4 -->
<g id="node8" class="node"><title>Node4</title>
<a xlink:href="atomic_8h.html" target="_top" xlink:title="include/fa/atomic.h">
<polygon fill="none" stroke="black" points="-0.626221,-60.6953 -0.626221,-83.3047 114.626,-83.3047 114.626,-60.6953 -0.626221,-60.6953"/>
<text text-anchor="middle" x="57" y="-68.3047" font-family="Futura" font-size="11.00">include/fa/atomic.h</text>
</a>
</g>
<!-- Node2&#45;&gt;Node4 -->
<g id="edge8" class="edge"><title>Node2&#45;&gt;Node4</title>
<path fill="none" stroke="midnightblue" d="M564.465,-127.378C470.463,-120.71 276.685,-105.207 114,-84 112.387,-83.7898 110.754,-83.5697 109.108,-83.3413"/>
<polygon fill="midnightblue" stroke="midnightblue" points="564.388,-130.881 574.609,-128.091 564.879,-123.898 564.388,-130.881"/>
</g>
<!-- Node5 -->
<g id="node11" class="node"><title>Node5</title>
<a xlink:href="buffer_8h.html" target="_top" xlink:title="include/fa/buffer.h">
<polygon fill="none" stroke="red" points="132.227,-60.6953 132.227,-83.3047 243.773,-83.3047 243.773,-60.6953 132.227,-60.6953"/>
<text text-anchor="middle" x="188" y="-68.3047" font-family="Futura" font-size="11.00">include/fa/buffer.h</text>
</a>
</g>
<!-- Node2&#45;&gt;Node5 -->
<g id="edge12" class="edge"><title>Node2&#45;&gt;Node5</title>
<path fill="none" stroke="midnightblue" d="M564.692,-124.19C493.276,-115.441 366.37,-99.5276 258,-84 253.494,-83.3544 248.829,-82.6657 244.144,-81.9597"/>
<polygon fill="midnightblue" stroke="midnightblue" points="564.467,-127.688 574.817,-125.427 565.316,-120.74 564.467,-127.688"/>
</g>
<!-- Node6 -->
<g id="node13" class="node"><title>Node6</title>
<a xlink:href="io_8h.html" target="_top" xlink:title="include/fa/io.h">
<polygon fill="none" stroke="black" points="184.185,-0.695312 184.185,-23.3047 275.815,-23.3047 275.815,-0.695312 184.185,-0.695312"/>
<text text-anchor="middle" x="230" y="-8.30469" font-family="Futura" font-size="11.00">include/fa/io.h</text>
</a>
</g>
<!-- Node2&#45;&gt;Node6 -->
<g id="edge24" class="edge"><title>Node2&#45;&gt;Node6</title>
<path fill="none" stroke="midnightblue" d="M564.462,-127.742C482.89,-122.242 336.932,-109.167 291,-84 264.919,-69.7098 244.955,-39.569 235.689,-23.5413"/>
<polygon fill="midnightblue" stroke="midnightblue" points="564.353,-131.243 574.562,-128.407 564.813,-124.258 564.353,-131.243"/>
</g>
<!-- Node7 -->
<g id="node15" class="node"><title>Node7</title>
<a xlink:href="clock_8h.html" target="_top" xlink:title="include/fa/clock.h">
<polygon fill="none" stroke="red" points="299.978,-60.6953 299.978,-83.3047 408.022,-83.3047 408.022,-60.6953 299.978,-60.6953"/>
<text text-anchor="middle" x="354" y="-68.3047" font-family="Futura" font-size="11.00">include/fa/clock.h</text>
</a>
</g>
<!-- Node2&#45;&gt;Node7 -->
<g id="edge16" class="edge"><title>Node2&#45;&gt;Node7</title>
<path fill="none" stroke="midnightblue" d="M564.819,-118.796C516.518,-108.304 447.612,-93.3353 401.886,-83.4022"/>
<polygon fill="midnightblue" stroke="midnightblue" points="564.282,-122.261 574.797,-120.963 565.768,-115.42 564.282,-122.261"/>
</g>
<!-- Node8 -->
<g id="node17" class="node"><title>Node8</title>
<a xlink:href="dynamic_8h.html" target="_top" xlink:title="include/fa/dynamic.h">
<polygon fill="none" stroke="black" points="425.918,-60.6953 425.918,-83.3047 550.082,-83.3047 550.082,-60.6953 425.918,-60.6953"/>
<text text-anchor="middle" x="488" y="-68.3047" font-family="Futura" font-size="11.00">include/fa/dynamic.h</text>
</a>
</g>
<!-- Node2&#45;&gt;Node8 -->
<g id="edge18" class="edge"><title>Node2&#45;&gt;Node8</title>
<path fill="none" stroke="midnightblue" d="M587.959,-116.591C564.391,-106.314 533.242,-92.7296 512.02,-83.475"/>
<polygon fill="midnightblue" stroke="midnightblue" points="586.657,-119.842 597.222,-120.631 589.455,-113.425 586.657,-119.842"/>
</g>
<!-- Node9 -->
<g id="node19" class="node"><title>Node9</title>
<a xlink:href="error_8h.html" target="_top" xlink:title="include/fa/error.h">
<polygon fill="none" stroke="red" points="567.598,-60.6953 567.598,-83.3047 674.402,-83.3047 674.402,-60.6953 567.598,-60.6953"/>
<text text-anchor="middle" x="621" y="-68.3047" font-family="Futura" font-size="11.00">include/fa/error.h</text>
</a>
</g>
<!-- Node2&#45;&gt;Node9 -->
<g id="edge20" class="edge"><title>Node2&#45;&gt;Node9</title>
<path fill="none" stroke="midnightblue" d="M614.512,-110.459C613.936,-101.411 614.309,-91.1602 615.63,-83.6719"/>
<polygon fill="midnightblue" stroke="midnightblue" points="611.062,-111.097 615.684,-120.631 618.016,-110.296 611.062,-111.097"/>
</g>
<!-- Node10 -->
<g id="node23" class="node"><title>Node10</title>
<a xlink:href="list_8h.html" target="_top" xlink:title="include/fa/list.h">
<polygon fill="none" stroke="red" points="748.385,-60.6953 748.385,-83.3047 843.615,-83.3047 843.615,-60.6953 748.385,-60.6953"/>
<text text-anchor="middle" x="796" y="-68.3047" font-family="Futura" font-size="11.00">include/fa/list.h</text>
</a>
</g>
<!-- Node2&#45;&gt;Node10 -->
<g id="edge26" class="edge"><title>Node2&#45;&gt;Node10</title>
<path fill="none" stroke="midnightblue" d="M656.617,-117.26C686.587,-106.874 729.118,-92.8353 759.373,-83.3771"/>
<polygon fill="midnightblue" stroke="midnightblue" points="655.256,-114.028 646.971,-120.631 657.565,-120.636 655.256,-114.028"/>
</g>
<!-- Node3&#45;&gt;Node2 -->
<g id="edge6" class="edge"><title>Node3&#45;&gt;Node2</title>
<path fill="none" stroke="midnightblue" d="M713.507,-33.8302C710.725,-48.8478 703.358,-69.0253 692,-84 680.328,-99.3894 662.35,-112.251 647.184,-120.607"/>
<polygon fill="midnightblue" stroke="midnightblue" points="717.027,-33.8664 714.73,-23.5236 710.076,-33.0414 717.027,-33.8664"/>
</g>
<!-- Node4&#45;&gt;Node2 -->
<g id="edge10" class="edge"><title>Node4&#45;&gt;Node2</title>
<path fill="none" stroke="midnightblue" d="M124.888,-83.0308C127.291,-83.3711 129.667,-83.6959 132,-84 294.325,-105.16 487.606,-120.641 574.654,-127.334"/>
<polygon fill="midnightblue" stroke="midnightblue" points="125.303,-79.5544 114.9,-81.5575 124.282,-86.4794 125.303,-79.5544"/>
</g>
<!-- Node5&#45;&gt;Node6 -->
<g id="edge14" class="edge"><title>Node5&#45;&gt;Node6</title>
<path fill="none" stroke="midnightblue" d="M201.38,-52.5233C208.272,-43.0047 216.432,-31.7362 222.272,-23.6719"/>
<polygon fill="midnightblue" stroke="midnightblue" points="198.539,-50.4785 195.509,-60.6308 204.209,-54.5841 198.539,-50.4785"/>
</g>
<!-- Node9&#45;&gt;Node2 -->
<g id="edge22" class="edge"><title>Node9&#45;&gt;Node2</title>
<path fill="none" stroke="midnightblue" d="M627.492,-93.6107C628.069,-102.764 627.677,-113.137 626.316,-120.631"/>
<polygon fill="midnightblue" stroke="midnightblue" points="630.97,-93.2159 626.37,-83.6719 624.014,-94.0015 630.97,-93.2159"/>
</g>
<!-- Node10&#45;&gt;Node1 -->
<g id="edge32" class="edge"><title>Node10&#45;&gt;Node1</title>
<path fill="none" stroke="midnightblue" d="M778.77,-90.9923C754.844,-115.977 712.329,-160.373 693.028,-180.528"/>
<polygon fill="midnightblue" stroke="midnightblue" points="781.443,-93.2611 785.832,-83.6179 776.388,-88.4196 781.443,-93.2611"/>
</g>
<!-- Node10&#45;&gt;Node2 -->
<g id="edge30" class="edge"><title>Node10&#45;&gt;Node2</title>
<path fill="none" stroke="midnightblue" d="M760.358,-86.7483C730.381,-97.1369 687.85,-111.175 657.602,-120.631"/>
<polygon fill="midnightblue" stroke="midnightblue" points="761.721,-89.9797 770.007,-83.3771 759.412,-83.3714 761.721,-89.9797"/>
</g>
<!-- Node10&#45;&gt;Node3 -->
<g id="edge28" class="edge"><title>Node10&#45;&gt;Node3</title>
<path fill="none" stroke="midnightblue" d="M772.226,-54.7779C757.542,-44.7583 739.13,-32.1949 726.351,-23.475"/>
<polygon fill="midnightblue" stroke="midnightblue" points="770.571,-57.8854 780.804,-60.6308 774.516,-52.1033 770.571,-57.8854"/>
</g>
</g>
</svg>
