<?xml version="1.0" encoding="UTF-8" standalone="no"?>
<!DOCTYPE svg PUBLIC "-//W3C//DTD SVG 1.1//EN"
 "http://www.w3.org/Graphics/SVG/1.1/DTD/svg11.dtd">
<!-- Generated by graphviz version 2.28.0 (20121015.0031)
 -->
<!-- Title: include/fa/signal/synth.h Pages: 1 -->
<svg width="416pt" height="332pt"
 viewBox="0.00 0.00 416.00 332.00" xmlns="http://www.w3.org/2000/svg" xmlns:xlink="http://www.w3.org/1999/xlink">
<g id="graph1" class="graph" transform="scale(1 1) rotate(0) translate(4 328)">
<title>include/fa/signal/synth.h</title>
<!-- Node1 -->
<g id="node1" class="node"><title>Node1</title>
<polygon fill="#bfbfbf" stroke="black" points="159.567,-300.695 159.567,-323.305 302.433,-323.305 302.433,-300.695 159.567,-300.695"/>
<text text-anchor="middle" x="231" y="-308.305" font-family="Futura" font-size="11.00">include/fa/signal/synth.h</text>
</g>
<!-- Node2 -->
<g id="node3" class="node"><title>Node2</title>
<polygon fill="none" stroke="#bfbfbf" points="29.2729,-0.695312 29.2729,-23.3047 64.7271,-23.3047 64.7271,-0.695312 29.2729,-0.695312"/>
<text text-anchor="middle" x="47" y="-8.30469" font-family="Futura" font-size="11.00">fa.h</text>
</g>
<!-- Node1&#45;&gt;Node2 -->
<g id="edge2" class="edge"><title>Node1&#45;&gt;Node2</title>
<path fill="none" stroke="midnightblue" d="M159.492,-304.315C91.6498,-293.57 0,-265.617 0,-193 0,-193 0,-193 0,-131 0,-93.9537 20.2412,-54.7123 34.157,-32.1114"/>
<polygon fill="midnightblue" stroke="midnightblue" points="37.2244,-33.811 39.6562,-23.499 31.3246,-30.0438 37.2244,-33.811"/>
</g>
<!-- Node3 -->
<g id="node5" class="node"><title>Node3</title>
<a xlink:href="pair_8h.html" target="_top" xlink:title="fa/pair.h">
<polygon fill="none" stroke="black" points="205.694,-180.695 205.694,-203.305 266.306,-203.305 266.306,-180.695 205.694,-180.695"/>
<text text-anchor="middle" x="236" y="-188.305" font-family="Futura" font-size="11.00">fa/pair.h</text>
</a>
</g>
<!-- Node1&#45;&gt;Node3 -->
<g id="edge4" class="edge"><title>Node1&#45;&gt;Node3</title>
<path fill="none" stroke="midnightblue" d="M231.444,-300.528C232.268,-281.071 234.05,-239.023 235.125,-213.656"/>
<polygon fill="midnightblue" stroke="midnightblue" points="238.624,-213.757 235.55,-203.618 231.63,-213.461 238.624,-213.757"/>
</g>
<!-- Node5 -->
<g id="node9" class="node"><title>Node5</title>
<a xlink:href="ring__buffer_8h.html" target="_top" xlink:title="fa/atomic/ring_buffer.h">
<polygon fill="none" stroke="black" points="27.5259,-60.6953 27.5259,-83.3047 162.474,-83.3047 162.474,-60.6953 27.5259,-60.6953"/>
<text text-anchor="middle" x="95" y="-68.3047" font-family="Futura" font-size="11.00">fa/atomic/ring_buffer.h</text>
</a>
</g>
<!-- Node1&#45;&gt;Node5 -->
<g id="edge40" class="edge"><title>Node1&#45;&gt;Node5</title>
<path fill="none" stroke="midnightblue" d="M224.981,-300.466C203.916,-263.603 133.312,-140.046 105.957,-92.1753"/>
<polygon fill="midnightblue" stroke="midnightblue" points="108.95,-90.358 100.95,-83.412 102.872,-93.831 108.95,-90.358"/>
</g>
<!-- Node7 -->
<g id="node16" class="node"><title>Node7</title>
<a xlink:href="time_8h.html" target="_top" xlink:title="fa/time.h">
<polygon fill="none" stroke="black" points="291.157,-60.6953 291.157,-83.3047 352.843,-83.3047 352.843,-60.6953 291.157,-60.6953"/>
<text text-anchor="middle" x="322" y="-68.3047" font-family="Futura" font-size="11.00">fa/time.h</text>
</a>
</g>
<!-- Node1&#45;&gt;Node7 -->
<g id="edge30" class="edge"><title>Node1&#45;&gt;Node7</title>
<path fill="none" stroke="midnightblue" d="M284.364,-300.623C304.716,-293.787 325.909,-282.517 338,-264 372.922,-210.518 346.478,-129.854 331.061,-92.8405"/>
<polygon fill="midnightblue" stroke="midnightblue" points="334.252,-91.4016 327.065,-83.6171 327.829,-94.1843 334.252,-91.4016"/>
</g>
<!-- Node10 -->
<g id="node26" class="node"><title>Node10</title>
<a xlink:href="buffer_8h.html" target="_top" xlink:title="fa/buffer.h">
<polygon fill="none" stroke="red" points="258.79,-240.695 258.79,-263.305 329.21,-263.305 329.21,-240.695 258.79,-240.695"/>
<text text-anchor="middle" x="294" y="-248.305" font-family="Futura" font-size="11.00">fa/buffer.h</text>
</a>
</g>
<!-- Node1&#45;&gt;Node10 -->
<g id="edge32" class="edge"><title>Node1&#45;&gt;Node10</title>
<path fill="none" stroke="midnightblue" d="M242.263,-300.631C251.288,-292.322 264.157,-280.475 274.802,-270.675"/>
<polygon fill="midnightblue" stroke="midnightblue" points="277.422,-273.02 282.408,-263.672 272.681,-267.87 277.422,-273.02"/>
</g>
<!-- Node4 -->
<g id="node7" class="node"><title>Node4</title>
<a xlink:href="fa_2fa_8h.html" target="_top" xlink:title="fa.h">
<polygon fill="none" stroke="red" points="236.273,-120.695 236.273,-143.305 271.727,-143.305 271.727,-120.695 236.273,-120.695"/>
<text text-anchor="middle" x="254" y="-128.305" font-family="Futura" font-size="11.00">fa.h</text>
</a>
</g>
<!-- Node3&#45;&gt;Node4 -->
<g id="edge6" class="edge"><title>Node3&#45;&gt;Node4</title>
<path fill="none" stroke="midnightblue" d="M233.902,-180.631C234.888,-172.974 237.817,-162.311 241.335,-153.016"/>
<polygon fill="midnightblue" stroke="midnightblue" points="244.616,-154.243 245.318,-143.672 238.177,-151.498 244.616,-154.243"/>
</g>
<!-- Node6 -->
<g id="node13" class="node"><title>Node6</title>
<a xlink:href="list_8h.html" target="_top" xlink:title="fa/list.h">
<polygon fill="none" stroke="black" points="180.949,-60.6953 180.949,-83.3047 235.051,-83.3047 235.051,-60.6953 180.949,-60.6953"/>
<text text-anchor="middle" x="208" y="-68.3047" font-family="Futura" font-size="11.00">fa/list.h</text>
</a>
</g>
<!-- Node3&#45;&gt;Node6 -->
<g id="edge28" class="edge"><title>Node3&#45;&gt;Node6</title>
<path fill="none" stroke="midnightblue" d="M233.515,-180.528C228.898,-161.071 218.921,-119.023 212.901,-93.6561"/>
<polygon fill="midnightblue" stroke="midnightblue" points="216.234,-92.5396 210.519,-83.6179 209.423,-94.1558 216.234,-92.5396"/>
</g>
<!-- Node4&#45;&gt;Node3 -->
<g id="edge12" class="edge"><title>Node4&#45;&gt;Node3</title>
<path fill="none" stroke="midnightblue" d="M256.058,-143.672C255.022,-151.407 252.059,-162.09 248.527,-171.349"/>
<polygon fill="midnightblue" stroke="midnightblue" points="245.27,-170.062 244.534,-180.631 251.701,-172.828 245.27,-170.062"/>
</g>
<!-- Node4&#45;&gt;Node5 -->
<g id="edge8" class="edge"><title>Node4&#45;&gt;Node5</title>
<path fill="none" stroke="midnightblue" d="M236.07,-124.459C211.192,-115.385 165.589,-98.7496 132.964,-86.8485"/>
<polygon fill="midnightblue" stroke="midnightblue" points="133.887,-83.4596 123.293,-83.3207 131.488,-90.0357 133.887,-83.4596"/>
</g>
<!-- Node4&#45;&gt;Node6 -->
<g id="edge14" class="edge"><title>Node4&#45;&gt;Node6</title>
<path fill="none" stroke="midnightblue" d="M240.46,-120.631C232.758,-112.729 223.596,-101.628 216.782,-92.1298"/>
<polygon fill="midnightblue" stroke="midnightblue" points="219.579,-90.0166 211.094,-83.6719 213.77,-93.9231 219.579,-90.0166"/>
</g>
<!-- Node4&#45;&gt;Node7 -->
<g id="edge18" class="edge"><title>Node4&#45;&gt;Node7</title>
<path fill="none" stroke="midnightblue" d="M260.841,-120.631C269.368,-112.024 283.625,-99.6207 296.333,-89.6288"/>
<polygon fill="midnightblue" stroke="midnightblue" points="298.564,-92.3284 304.384,-83.475 294.313,-86.7669 298.564,-92.3284"/>
</g>
<!-- Node5&#45;&gt;Node2 -->
<g id="edge10" class="edge"><title>Node5&#45;&gt;Node2</title>
<path fill="none" stroke="midnightblue" d="M86.4186,-60.6308C79.7445,-52.5663 70.3118,-41.1685 62.3471,-31.5444"/>
<polygon fill="midnightblue" stroke="midnightblue" points="64.904,-29.1443 55.8319,-23.6719 59.5112,-33.6073 64.904,-29.1443"/>
</g>
<!-- Node6&#45;&gt;Node4 -->
<g id="edge16" class="edge"><title>Node6&#45;&gt;Node4</title>
<path fill="none" stroke="midnightblue" d="M221.834,-83.6719C229.572,-91.6539 238.723,-102.775 245.476,-112.231"/>
<polygon fill="midnightblue" stroke="midnightblue" points="242.624,-114.263 251.092,-120.631 248.444,-110.372 242.624,-114.263"/>
</g>
<!-- Node7&#45;&gt;Node4 -->
<g id="edge20" class="edge"><title>Node7&#45;&gt;Node4</title>
<path fill="none" stroke="midnightblue" d="M314.858,-83.6719C306.252,-92.3123 292.071,-104.631 279.46,-114.534"/>
<polygon fill="midnightblue" stroke="midnightblue" points="277.298,-111.781 271.473,-120.631 281.545,-117.345 277.298,-111.781"/>
</g>
<!-- Node8 -->
<g id="node19" class="node"><title>Node8</title>
<a xlink:href="ratio_8h.html" target="_top" xlink:title="fa/ratio.h">
<polygon fill="none" stroke="red" points="343.927,-0.695312 343.927,-23.3047 408.073,-23.3047 408.073,-0.695312 343.927,-0.695312"/>
<text text-anchor="middle" x="376" y="-8.30469" font-family="Futura" font-size="11.00">fa/ratio.h</text>
</a>
</g>
<!-- Node7&#45;&gt;Node8 -->
<g id="edge22" class="edge"><title>Node7&#45;&gt;Node8</title>
<path fill="none" stroke="midnightblue" d="M331.654,-60.6308C339.238,-52.4848 349.989,-40.9379 359.006,-31.2533"/>
<polygon fill="midnightblue" stroke="midnightblue" points="361.812,-33.3758 366.064,-23.6719 356.688,-28.6059 361.812,-33.3758"/>
</g>
<!-- Node9 -->
<g id="node21" class="node"><title>Node9</title>
<a xlink:href="string_8h.html" target="_top" xlink:title="fa/string.h">
<polygon fill="none" stroke="black" points="257.87,-0.695312 257.87,-23.3047 326.13,-23.3047 326.13,-0.695312 257.87,-0.695312"/>
<text text-anchor="middle" x="292" y="-8.30469" font-family="Futura" font-size="11.00">fa/string.h</text>
</a>
</g>
<!-- Node7&#45;&gt;Node9 -->
<g id="edge24" class="edge"><title>Node7&#45;&gt;Node9</title>
<path fill="none" stroke="midnightblue" d="M316.637,-60.6308C312.634,-52.8921 307.043,-42.0841 302.2,-32.7193"/>
<polygon fill="midnightblue" stroke="midnightblue" points="305.223,-30.9461 297.52,-23.6719 299.005,-34.1621 305.223,-30.9461"/>
</g>
<!-- Node9&#45;&gt;Node4 -->
<g id="edge26" class="edge"><title>Node9&#45;&gt;Node4</title>
<path fill="none" stroke="midnightblue" d="M288.581,-23.6179C282.25,-43.275 268.611,-85.6281 260.482,-110.873"/>
<polygon fill="midnightblue" stroke="midnightblue" points="257.106,-109.937 257.372,-120.528 263.769,-112.083 257.106,-109.937"/>
</g>
<!-- Node10&#45;&gt;Node3 -->
<g id="edge36" class="edge"><title>Node10&#45;&gt;Node3</title>
<path fill="none" stroke="midnightblue" d="M283.631,-240.631C275.403,-232.403 263.707,-220.707 253.963,-210.963"/>
<polygon fill="midnightblue" stroke="midnightblue" points="256.218,-208.268 246.672,-203.672 251.268,-213.218 256.218,-208.268"/>
</g>
<!-- Node10&#45;&gt;Node4 -->
<g id="edge34" class="edge"><title>Node10&#45;&gt;Node4</title>
<path fill="none" stroke="midnightblue" d="M291.685,-240.254C288.532,-226.206 282.422,-200.925 275,-180 271.772,-170.898 267.527,-161.105 263.699,-152.827"/>
<polygon fill="midnightblue" stroke="midnightblue" points="266.783,-151.162 259.333,-143.629 260.459,-154.164 266.783,-151.162"/>
</g>
<!-- Node10&#45;&gt;Node9 -->
<g id="edge38" class="edge"><title>Node10&#45;&gt;Node9</title>
<path fill="none" stroke="midnightblue" d="M303.417,-240.615C328.95,-211.145 395.332,-124.926 361,-60 353.678,-46.1539 340.243,-35.6225 327.16,-28.0746"/>
<polygon fill="midnightblue" stroke="midnightblue" points="328.71,-24.9346 318.239,-23.3217 325.419,-31.1126 328.71,-24.9346"/>
</g>
</g>
</svg>
