<?xml version="1.0" encoding="UTF-8" standalone="no"?>
<!DOCTYPE svg PUBLIC "-//W3C//DTD SVG 1.1//EN"
 "http://www.w3.org/Graphics/SVG/1.1/DTD/svg11.dtd">
<!-- Generated by graphviz version 2.28.0 (20121015.0031)
 -->
<!-- Title: include/fa Pages: 1 -->
<svg width="182pt" height="186pt"
 viewBox="0.00 0.00 182.00 186.00" xmlns="http://www.w3.org/2000/svg" xmlns:xlink="http://www.w3.org/1999/xlink">
<g id="graph1" class="graph" transform="scale(1 1) rotate(0) translate(4 182)">
<title>include/fa</title>
<g id="graph2" class="cluster"><title>clusterdir_d44c64559bbebec7f509842c48db8b23</title>
<a xlink:href="dir_d44c64559bbebec7f509842c48db8b23.html" target="_top" xlink:title="include">
<polygon fill="#ddddee" stroke="black" points="8,-8 8,-170 166,-170 166,-8 8,-8"/>
<text text-anchor="middle" x="87" y="-155" font-family="Futura" font-size="11.00">include</text>
</a>
</g>
<g id="graph3" class="cluster"><title>clusterdir_6b89b2d2887aea5b8d12d30c5d3aa615</title>
<a xlink:href="dir_6b89b2d2887aea5b8d12d30c5d3aa615.html" target="_top">
<polygon fill="#eeeeff" stroke="black" points="16,-16 16,-140 158,-140 158,-16 16,-16"/>
</a>
</g>
<!-- dir_6b89b2d2887aea5b8d12d30c5d3aa615 -->
<g id="node3" class="node"><title>dir_6b89b2d2887aea5b8d12d30c5d3aa615</title>
<text text-anchor="middle" x="87" y="-110.305" font-family="Futura" font-size="11.00">fa</text>
</g>
<!-- dir_4a93790389ff3f5217c93ee041a9c27d -->
<g id="node4" class="node"><title>dir_4a93790389ff3f5217c93ee041a9c27d</title>
<a xlink:href="dir_4a93790389ff3f5217c93ee041a9c27d.html" target="_top" xlink:title="midi">
<polygon fill="white" stroke="black" points="78,-60 24,-60 24,-24 78,-24 78,-60"/>
<text text-anchor="middle" x="51" y="-38.3047" font-family="Futura" font-size="11.00">midi</text>
</a>
</g>
<!-- dir_6b89b2d2887aea5b8d12d30c5d3aa615&#45;&gt;dir_4a93790389ff3f5217c93ee041a9c27d -->
<g id="edge4" class="edge"><title>dir_6b89b2d2887aea5b8d12d30c5d3aa615&#45;&gt;dir_4a93790389ff3f5217c93ee041a9c27d</title>
<path fill="none" stroke="black" d="M78.1011,-95.6966C74.0032,-87.7284 69.0512,-78.0995 64.5073,-69.2641"/>
<polygon fill="black" stroke="black" points="67.4826,-67.3965 59.7965,-60.1043 61.2575,-70.598 67.4826,-67.3965"/>
<a xlink:href="dir_000001_000002.html" target="_top" xlink:title="1">
<text text-anchor="middle" x="71.6514" y="-65.5993" font-family="Futura" font-size="11.00">1</text>
</a>
</g>
<!-- dir_911a1df8f5f9f1780fd7831b662aa249 -->
<g id="node5" class="node"><title>dir_911a1df8f5f9f1780fd7831b662aa249</title>
<a xlink:href="dir_911a1df8f5f9f1780fd7831b662aa249.html" target="_top" xlink:title="util">
<polygon fill="white" stroke="black" points="150,-60 96,-60 96,-24 150,-24 150,-60"/>
<text text-anchor="middle" x="123" y="-38.3047" font-family="Futura" font-size="11.00">util</text>
</a>
</g>
<!-- dir_6b89b2d2887aea5b8d12d30c5d3aa615&#45;&gt;dir_911a1df8f5f9f1780fd7831b662aa249 -->
<g id="edge6" class="edge"><title>dir_6b89b2d2887aea5b8d12d30c5d3aa615&#45;&gt;dir_911a1df8f5f9f1780fd7831b662aa249</title>
<path fill="none" stroke="black" d="M95.8989,-95.6966C99.9968,-87.7284 104.949,-78.0995 109.493,-69.2641"/>
<polygon fill="black" stroke="black" points="112.742,-70.598 114.203,-60.1043 106.517,-67.3965 112.742,-70.598"/>
<a xlink:href="dir_000001_000003.html" target="_top" xlink:title="6">
<text text-anchor="middle" x="113.623" y="-71.3978" font-family="Futura" font-size="11.00">6</text>
</a>
</g>
</g>
</svg>
