<?xml version="1.0" encoding="UTF-8" standalone="no"?>
<!DOCTYPE svg PUBLIC "-//W3C//DTD SVG 1.1//EN"
 "http://www.w3.org/Graphics/SVG/1.1/DTD/svg11.dtd">
<!-- Generated by graphviz version 2.28.0 (20121015.0031)
 -->
<!-- Title: include/fa/plot.h Pages: 1 -->
<svg width="908pt" height="212pt"
 viewBox="0.00 0.00 908.00 212.00" xmlns="http://www.w3.org/2000/svg" xmlns:xlink="http://www.w3.org/1999/xlink">
<g id="graph1" class="graph" transform="scale(1 1) rotate(0) translate(4 208)">
<title>include/fa/plot.h</title>
<!-- Node1 -->
<g id="node1" class="node"><title>Node1</title>
<polygon fill="#bfbfbf" stroke="black" points="389.351,-180.695 389.351,-203.305 490.649,-203.305 490.649,-180.695 389.351,-180.695"/>
<text text-anchor="middle" x="440" y="-188.305" font-family="Futura" font-size="11.00">include/fa/plot.h</text>
</g>
<!-- Node2 -->
<g id="node3" class="node"><title>Node2</title>
<a xlink:href="fa_2fa_8h.html" target="_top" xlink:title="include/fa/fa.h">
<polygon fill="none" stroke="red" points="393.846,-120.695 393.846,-143.305 486.154,-143.305 486.154,-120.695 393.846,-120.695"/>
<text text-anchor="middle" x="440" y="-128.305" font-family="Futura" font-size="11.00">include/fa/fa.h</text>
</a>
</g>
<!-- Node1&#45;&gt;Node2 -->
<g id="edge2" class="edge"><title>Node1&#45;&gt;Node2</title>
<path fill="none" stroke="midnightblue" d="M433.512,-170.459C432.936,-161.411 433.309,-151.16 434.63,-143.672"/>
<polygon fill="midnightblue" stroke="midnightblue" points="430.062,-171.097 434.684,-180.631 437.016,-170.296 430.062,-171.097"/>
</g>
<!-- Node2&#45;&gt;Node1 -->
<g id="edge36" class="edge"><title>Node2&#45;&gt;Node1</title>
<path fill="none" stroke="midnightblue" d="M446.492,-153.611C447.069,-162.764 446.677,-173.137 445.316,-180.631"/>
<polygon fill="midnightblue" stroke="midnightblue" points="449.97,-153.216 445.37,-143.672 443.014,-154.001 449.97,-153.216"/>
</g>
<!-- Node3 -->
<g id="node5" class="node"><title>Node3</title>
<a xlink:href="action_8h.html" target="_top" xlink:title="include/fa/action.h">
<polygon fill="none" stroke="red" points="91.7461,-0.695312 91.7461,-23.3047 204.254,-23.3047 204.254,-0.695312 91.7461,-0.695312"/>
<text text-anchor="middle" x="148" y="-8.30469" font-family="Futura" font-size="11.00">include/fa/action.h</text>
</a>
</g>
<!-- Node2&#45;&gt;Node3 -->
<g id="edge4" class="edge"><title>Node2&#45;&gt;Node3</title>
<path fill="none" stroke="midnightblue" d="M383.797,-127.834C313.555,-122.642 198.982,-110.164 167,-84 148.335,-68.7302 142.057,-39.2865 143.221,-23.5402"/>
<polygon fill="midnightblue" stroke="midnightblue" points="383.601,-131.329 393.824,-128.548 384.098,-124.346 383.601,-131.329"/>
</g>
<!-- Node4 -->
<g id="node8" class="node"><title>Node4</title>
<a xlink:href="atomic_8h.html" target="_top" xlink:title="include/fa/atomic.h">
<polygon fill="none" stroke="black" points="185.374,-60.6953 185.374,-83.3047 300.626,-83.3047 300.626,-60.6953 185.374,-60.6953"/>
<text text-anchor="middle" x="243" y="-68.3047" font-family="Futura" font-size="11.00">include/fa/atomic.h</text>
</a>
</g>
<!-- Node2&#45;&gt;Node4 -->
<g id="edge8" class="edge"><title>Node2&#45;&gt;Node4</title>
<path fill="none" stroke="midnightblue" d="M389.395,-117.799C352.504,-107.363 303.866,-92.9997 272.929,-83.3771"/>
<polygon fill="midnightblue" stroke="midnightblue" points="388.89,-121.293 399.464,-120.631 390.786,-114.554 388.89,-121.293"/>
</g>
<!-- Node5 -->
<g id="node11" class="node"><title>Node5</title>
<a xlink:href="buffer_8h.html" target="_top" xlink:title="include/fa/buffer.h">
<polygon fill="none" stroke="red" points="-0.773193,-60.6953 -0.773193,-83.3047 110.773,-83.3047 110.773,-60.6953 -0.773193,-60.6953"/>
<text text-anchor="middle" x="55" y="-68.3047" font-family="Futura" font-size="11.00">include/fa/buffer.h</text>
</a>
</g>
<!-- Node2&#45;&gt;Node5 -->
<g id="edge12" class="edge"><title>Node2&#45;&gt;Node5</title>
<path fill="none" stroke="midnightblue" d="M383.687,-122.732C320.65,-113.446 215.474,-97.8581 125,-84 120.379,-83.2922 115.588,-82.5522 110.778,-81.8051"/>
<polygon fill="midnightblue" stroke="midnightblue" points="383.409,-126.229 393.813,-124.223 384.429,-119.304 383.409,-126.229"/>
</g>
<!-- Node6 -->
<g id="node14" class="node"><title>Node6</title>
<a xlink:href="clock_8h.html" target="_top" xlink:title="include/fa/clock.h">
<polygon fill="none" stroke="red" points="318.978,-60.6953 318.978,-83.3047 427.022,-83.3047 427.022,-60.6953 318.978,-60.6953"/>
<text text-anchor="middle" x="373" y="-68.3047" font-family="Futura" font-size="11.00">include/fa/clock.h</text>
</a>
</g>
<!-- Node2&#45;&gt;Node6 -->
<g id="edge16" class="edge"><title>Node2&#45;&gt;Node6</title>
<path fill="none" stroke="midnightblue" d="M420.323,-113.966C408.998,-104.163 395.119,-92.1477 385.328,-83.6719"/>
<polygon fill="midnightblue" stroke="midnightblue" points="418.17,-116.732 428.022,-120.631 422.752,-111.439 418.17,-116.732"/>
</g>
<!-- Node7 -->
<g id="node16" class="node"><title>Node7</title>
<a xlink:href="dynamic_8h.html" target="_top" xlink:title="include/fa/dynamic.h">
<polygon fill="none" stroke="black" points="444.918,-60.6953 444.918,-83.3047 569.082,-83.3047 569.082,-60.6953 444.918,-60.6953"/>
<text text-anchor="middle" x="507" y="-68.3047" font-family="Futura" font-size="11.00">include/fa/dynamic.h</text>
</a>
</g>
<!-- Node2&#45;&gt;Node7 -->
<g id="edge18" class="edge"><title>Node2&#45;&gt;Node7</title>
<path fill="none" stroke="midnightblue" d="M459.677,-113.966C471.002,-104.163 484.881,-92.1477 494.672,-83.6719"/>
<polygon fill="midnightblue" stroke="midnightblue" points="457.248,-111.439 451.978,-120.631 461.83,-116.732 457.248,-111.439"/>
</g>
<!-- Node8 -->
<g id="node18" class="node"><title>Node8</title>
<a xlink:href="error_8h.html" target="_top" xlink:title="include/fa/error.h">
<polygon fill="none" stroke="red" points="586.598,-60.6953 586.598,-83.3047 693.402,-83.3047 693.402,-60.6953 586.598,-60.6953"/>
<text text-anchor="middle" x="640" y="-68.3047" font-family="Futura" font-size="11.00">include/fa/error.h</text>
</a>
</g>
<!-- Node2&#45;&gt;Node8 -->
<g id="edge20" class="edge"><title>Node2&#45;&gt;Node8</title>
<path fill="none" stroke="midnightblue" d="M480.199,-117.665C514.716,-107.241 564.121,-92.9586 598.9,-83.3771"/>
<polygon fill="midnightblue" stroke="midnightblue" points="478.99,-114.374 470.44,-120.631 481.026,-121.071 478.99,-114.374"/>
</g>
<!-- Node9 -->
<g id="node21" class="node"><title>Node9</title>
<a xlink:href="graph_8h.html" target="_top" xlink:title="include/fa/graph.h">
<polygon fill="none" stroke="black" points="787.937,-0.695312 787.937,-23.3047 900.063,-23.3047 900.063,-0.695312 787.937,-0.695312"/>
<text text-anchor="middle" x="844" y="-8.30469" font-family="Futura" font-size="11.00">include/fa/graph.h</text>
</a>
</g>
<!-- Node2&#45;&gt;Node9 -->
<g id="edge24" class="edge"><title>Node2&#45;&gt;Node9</title>
<path fill="none" stroke="midnightblue" d="M496.469,-130.628C586.842,-128.861 758.297,-120.555 806,-84 825.341,-69.1791 831.849,-39.2664 837.276,-23.4119"/>
<polygon fill="midnightblue" stroke="midnightblue" points="496.331,-127.13 486.394,-130.804 496.454,-134.129 496.331,-127.13"/>
</g>
<!-- Node10 -->
<g id="node24" class="node"><title>Node10</title>
<a xlink:href="list_8h.html" target="_top" xlink:title="include/fa/list.h">
<polygon fill="none" stroke="red" points="711.385,-60.6953 711.385,-83.3047 806.615,-83.3047 806.615,-60.6953 711.385,-60.6953"/>
<text text-anchor="middle" x="759" y="-68.3047" font-family="Futura" font-size="11.00">include/fa/list.h</text>
</a>
</g>
<!-- Node2&#45;&gt;Node10 -->
<g id="edge28" class="edge"><title>Node2&#45;&gt;Node10</title>
<path fill="none" stroke="midnightblue" d="M496.283,-119.848C547.593,-110.469 625.279,-96.6082 693,-84 698.846,-82.9116 705.025,-81.7407 711.183,-80.583"/>
<polygon fill="midnightblue" stroke="midnightblue" points="495.589,-116.417 486.384,-121.663 496.851,-123.302 495.589,-116.417"/>
</g>
<!-- Node3&#45;&gt;Node2 -->
<g id="edge6" class="edge"><title>Node3&#45;&gt;Node2</title>
<path fill="none" stroke="midnightblue" d="M157.773,-33.1935C162.713,-49.4102 169.689,-71.474 185,-84 216.619,-109.867 328.958,-122.356 393.583,-127.654"/>
<polygon fill="midnightblue" stroke="midnightblue" points="161.079,-32.0393 154.753,-23.5402 154.398,-34.1291 161.079,-32.0393"/>
</g>
<!-- Node4&#45;&gt;Node2 -->
<g id="edge10" class="edge"><title>Node4&#45;&gt;Node2</title>
<path fill="none" stroke="midnightblue" d="M293.635,-86.2097C330.533,-96.6472 379.169,-111.011 410.096,-120.631"/>
<polygon fill="midnightblue" stroke="midnightblue" points="294.138,-82.7154 283.564,-83.3771 292.242,-89.4539 294.138,-82.7154"/>
</g>
<!-- Node5&#45;&gt;Node1 -->
<g id="edge14" class="edge"><title>Node5&#45;&gt;Node1</title>
<path fill="none" stroke="midnightblue" d="M98.828,-86.433C176.426,-110.216 336.368,-159.237 406.171,-180.632"/>
<polygon fill="midnightblue" stroke="midnightblue" points="99.4763,-82.971 88.8896,-83.3869 97.425,-89.6638 99.4763,-82.971"/>
</g>
<!-- Node8&#45;&gt;Node2 -->
<g id="edge22" class="edge"><title>Node8&#45;&gt;Node2</title>
<path fill="none" stroke="midnightblue" d="M599.773,-86.3437C565.247,-96.7699 515.843,-111.052 481.072,-120.631"/>
<polygon fill="midnightblue" stroke="midnightblue" points="600.984,-89.6338 609.534,-83.3771 598.949,-82.9363 600.984,-89.6338"/>
</g>
<!-- Node9&#45;&gt;Node2 -->
<g id="edge26" class="edge"><title>Node9&#45;&gt;Node2</title>
<path fill="none" stroke="midnightblue" d="M848.505,-33.6206C846.957,-49.9531 839.714,-71.958 824,-84 772.505,-123.46 576.805,-130.002 486.264,-130.936"/>
<polygon fill="midnightblue" stroke="midnightblue" points="852.009,-33.4772 848.701,-23.4119 845.01,-33.3429 852.009,-33.4772"/>
</g>
<!-- Node10&#45;&gt;Node2 -->
<g id="edge32" class="edge"><title>Node10&#45;&gt;Node2</title>
<path fill="none" stroke="midnightblue" d="M704.443,-85.2144C624.919,-99.9594 538.162,-115.323 486.201,-123.997"/>
<polygon fill="midnightblue" stroke="midnightblue" points="705.411,-88.5945 714.603,-83.3265 704.132,-81.7123 705.411,-88.5945"/>
</g>
<!-- Node10&#45;&gt;Node3 -->
<g id="edge30" class="edge"><title>Node10&#45;&gt;Node3</title>
<path fill="none" stroke="midnightblue" d="M701.118,-60.0046C513.488,-34.4576 303.111,-21.1486 204.446,-15.8078"/>
<polygon fill="midnightblue" stroke="midnightblue" points="700.783,-63.4914 711.167,-61.3877 701.738,-56.5568 700.783,-63.4914"/>
</g>
<!-- Node10&#45;&gt;Node9 -->
<g id="edge34" class="edge"><title>Node10&#45;&gt;Node9</title>
<path fill="none" stroke="midnightblue" d="M782.774,-54.7779C797.458,-44.7583 815.87,-32.1949 828.649,-23.475"/>
<polygon fill="midnightblue" stroke="midnightblue" points="780.484,-52.1033 774.196,-60.6308 784.429,-57.8854 780.484,-52.1033"/>
</g>
</g>
</svg>
