<?xml version="1.0" encoding="UTF-8" standalone="no"?>
<!DOCTYPE svg PUBLIC "-//W3C//DTD SVG 1.1//EN"
 "http://www.w3.org/Graphics/SVG/1.1/DTD/svg11.dtd">
<!-- Generated by graphviz version 2.28.0 (20121015.0031)
 -->
<!-- Title: include/fa/list.h Pages: 1 -->
<svg width="511pt" height="392pt"
 viewBox="0.00 0.00 511.00 392.00" xmlns="http://www.w3.org/2000/svg" xmlns:xlink="http://www.w3.org/1999/xlink">
<g id="graph1" class="graph" transform="scale(1 1) rotate(0) translate(4 388)">
<title>include/fa/list.h</title>
<!-- Node1 -->
<g id="node1" class="node"><title>Node1</title>
<polygon fill="#bfbfbf" stroke="black" points="224.385,-360.695 224.385,-383.305 319.615,-383.305 319.615,-360.695 224.385,-360.695"/>
<text text-anchor="middle" x="272" y="-368.305" font-family="Futura" font-size="11.00">include/fa/list.h</text>
</g>
<!-- Node2 -->
<g id="node3" class="node"><title>Node2</title>
<a xlink:href="action_8h.html" target="_top" xlink:title="include/fa/action.h">
<polygon fill="none" stroke="black" points="122.746,-300.695 122.746,-323.305 235.254,-323.305 235.254,-300.695 122.746,-300.695"/>
<text text-anchor="middle" x="179" y="-308.305" font-family="Futura" font-size="11.00">include/fa/action.h</text>
</a>
</g>
<!-- Node1&#45;&gt;Node2 -->
<g id="edge2" class="edge"><title>Node1&#45;&gt;Node2</title>
<path fill="none" stroke="midnightblue" d="M246.442,-355.061C230.303,-344.996 209.91,-332.277 195.796,-323.475"/>
<polygon fill="midnightblue" stroke="midnightblue" points="245.036,-358.309 255.373,-360.631 248.74,-352.369 245.036,-358.309"/>
</g>
<!-- Node3 -->
<g id="node5" class="node"><title>Node3</title>
<a xlink:href="audio_8h.html" target="_top" xlink:title="include/fa/audio.h">
<polygon fill="none" stroke="black" points="68.592,-240.695 68.592,-263.305 179.408,-263.305 179.408,-240.695 68.592,-240.695"/>
<text text-anchor="middle" x="124" y="-248.305" font-family="Futura" font-size="11.00">include/fa/audio.h</text>
</a>
</g>
<!-- Node1&#45;&gt;Node3 -->
<g id="edge44" class="edge"><title>Node1&#45;&gt;Node3</title>
<path fill="none" stroke="midnightblue" d="M214.009,-370.077C179.012,-366.141 136.892,-354.693 114,-324 100.604,-306.039 110.99,-278.234 118.337,-263.308"/>
<polygon fill="midnightblue" stroke="midnightblue" points="213.855,-373.578 224.14,-371.035 214.513,-366.609 213.855,-373.578"/>
</g>
<!-- Node4 -->
<g id="node7" class="node"><title>Node4</title>
<a xlink:href="fa_2fa_8h.html" target="_top" xlink:title="include/fa/fa.h">
<polygon fill="none" stroke="red" points="193.846,-180.695 193.846,-203.305 286.154,-203.305 286.154,-180.695 193.846,-180.695"/>
<text text-anchor="middle" x="240" y="-188.305" font-family="Futura" font-size="11.00">include/fa/fa.h</text>
</a>
</g>
<!-- Node1&#45;&gt;Node4 -->
<g id="edge46" class="edge"><title>Node1&#45;&gt;Node4</title>
<path fill="none" stroke="midnightblue" d="M263.88,-350.75C253.692,-312.757 239.547,-232.036 238.484,-203.368"/>
<polygon fill="midnightblue" stroke="midnightblue" points="260.61,-352.037 266.766,-360.661 267.331,-350.081 260.61,-352.037"/>
</g>
<!-- Node7 -->
<g id="node15" class="node"><title>Node7</title>
<a xlink:href="midi_8h.html" target="_top" xlink:title="include/fa/midi.h">
<polygon fill="none" stroke="black" points="68.4727,-60.6953 68.4727,-83.3047 171.527,-83.3047 171.527,-60.6953 68.4727,-60.6953"/>
<text text-anchor="middle" x="120" y="-68.3047" font-family="Futura" font-size="11.00">include/fa/midi.h</text>
</a>
</g>
<!-- Node1&#45;&gt;Node7 -->
<g id="edge50" class="edge"><title>Node1&#45;&gt;Node7</title>
<path fill="none" stroke="midnightblue" d="M213.893,-370.451C133.999,-366.278 0,-345.491 0,-253 0,-253 0,-253 0,-191 0,-137.677 60.9856,-100.412 96.0046,-83.4088"/>
<polygon fill="midnightblue" stroke="midnightblue" points="214.163,-373.967 224.31,-370.918 214.477,-366.974 214.163,-373.967"/>
</g>
<!-- Node8 -->
<g id="node19" class="node"><title>Node8</title>
<a xlink:href="map_8h.html" target="_top" xlink:title="include/fa/map.h">
<polygon fill="none" stroke="black" points="343.914,-60.6953 343.914,-83.3047 448.086,-83.3047 448.086,-60.6953 343.914,-60.6953"/>
<text text-anchor="middle" x="396" y="-68.3047" font-family="Futura" font-size="11.00">include/fa/map.h</text>
</a>
</g>
<!-- Node1&#45;&gt;Node8 -->
<g id="edge48" class="edge"><title>Node1&#45;&gt;Node8</title>
<path fill="none" stroke="midnightblue" d="M323.489,-357.475C371.58,-341.364 436,-309.279 436,-253 436,-253 436,-253 436,-191 436,-149.252 413.265,-103.384 402.075,-83.3366"/>
<polygon fill="midnightblue" stroke="midnightblue" points="322.262,-354.193 313.808,-360.581 324.4,-360.859 322.262,-354.193"/>
</g>
<!-- Node9 -->
<g id="node21" class="node"><title>Node9</title>
<a xlink:href="literals_8h.html" target="_top" xlink:title="include/fa/util/literals.h">
<polygon fill="none" stroke="red" points="368.518,-0.695312 368.518,-23.3047 503.482,-23.3047 503.482,-0.695312 368.518,-0.695312"/>
<text text-anchor="middle" x="436" y="-8.30469" font-family="Futura" font-size="11.00">include/fa/util/literals.h</text>
</a>
</g>
<!-- Node1&#45;&gt;Node9 -->
<g id="edge54" class="edge"><title>Node1&#45;&gt;Node9</title>
<path fill="none" stroke="midnightblue" d="M330.019,-362.663C390.325,-350.336 476,-320.879 476,-253 476,-253 476,-253 476,-131 476,-89.2519 453.265,-43.3839 442.075,-23.3366"/>
<polygon fill="midnightblue" stroke="midnightblue" points="328.982,-359.299 319.829,-364.635 330.312,-366.171 328.982,-359.299"/>
</g>
<!-- Node10 -->
<g id="node23" class="node"><title>Node10</title>
<a xlink:href="pair_8h.html" target="_top" xlink:title="include/fa/pair.h">
<polygon fill="none" stroke="red" points="268.131,-120.695 268.131,-143.305 369.869,-143.305 369.869,-120.695 268.131,-120.695"/>
<text text-anchor="middle" x="319" y="-128.305" font-family="Futura" font-size="11.00">include/fa/pair.h</text>
</a>
</g>
<!-- Node1&#45;&gt;Node10 -->
<g id="edge52" class="edge"><title>Node1&#45;&gt;Node10</title>
<path fill="none" stroke="midnightblue" d="M277.736,-350.69C280.041,-342.422 282.692,-332.767 285,-324 298.995,-270.837 306.751,-258.352 315,-204 318.224,-182.761 318.913,-157.594 319.024,-143.65"/>
<polygon fill="midnightblue" stroke="midnightblue" points="274.297,-349.993 274.966,-360.566 281.037,-351.883 274.297,-349.993"/>
</g>
<!-- Node2&#45;&gt;Node3 -->
<g id="edge4" class="edge"><title>Node2&#45;&gt;Node3</title>
<path fill="none" stroke="midnightblue" d="M162.029,-293.104C152.89,-283.466 141.923,-271.901 134.12,-263.672"/>
<polygon fill="midnightblue" stroke="midnightblue" points="159.746,-295.783 169.167,-300.631 164.826,-290.966 159.746,-295.783"/>
</g>
<!-- Node2&#45;&gt;Node4 -->
<g id="edge40" class="edge"><title>Node2&#45;&gt;Node4</title>
<path fill="none" stroke="midnightblue" d="M184.035,-291.21C194.667,-266.007 217.087,-223.363 230.441,-203.618"/>
<polygon fill="midnightblue" stroke="midnightblue" points="180.773,-289.941 180.366,-300.528 187.286,-292.506 180.773,-289.941"/>
</g>
<!-- Node2&#45;&gt;Node7 -->
<g id="edge42" class="edge"><title>Node2&#45;&gt;Node7</title>
<path fill="none" stroke="midnightblue" d="M112.932,-299.687C92.6416,-292.813 72.4101,-281.763 60,-264 23.338,-211.525 28.2993,-177.219 57,-120 65.3207,-103.411 82.5809,-91.1836 96.9341,-83.3649"/>
<polygon fill="midnightblue" stroke="midnightblue" points="111.958,-303.049 122.546,-302.649 114.019,-296.36 111.958,-303.049"/>
</g>
<!-- Node3&#45;&gt;Node4 -->
<g id="edge6" class="edge"><title>Node3&#45;&gt;Node4</title>
<path fill="none" stroke="midnightblue" d="M153.92,-236.04C174.336,-225.832 200.87,-212.565 219.05,-203.475"/>
<polygon fill="midnightblue" stroke="midnightblue" points="152.117,-233.028 144.738,-240.631 155.248,-239.289 152.117,-233.028"/>
</g>
<!-- Node4&#45;&gt;Node1 -->
<g id="edge20" class="edge"><title>Node4&#45;&gt;Node1</title>
<path fill="none" stroke="midnightblue" d="M248.13,-213.288C258.321,-251.309 272.463,-332.027 273.517,-360.661"/>
<polygon fill="midnightblue" stroke="midnightblue" points="251.398,-211.992 245.244,-203.368 244.677,-213.948 251.398,-211.992"/>
</g>
<!-- Node4&#45;&gt;Node2 -->
<g id="edge8" class="edge"><title>Node4&#45;&gt;Node2</title>
<path fill="none" stroke="midnightblue" d="M234.886,-212.978C224.196,-238.267 201.769,-280.897 188.46,-300.528"/>
<polygon fill="midnightblue" stroke="midnightblue" points="238.164,-214.204 238.581,-203.618 231.653,-211.634 238.164,-214.204"/>
</g>
<!-- Node5 -->
<g id="node10" class="node"><title>Node5</title>
<a xlink:href="buffer_8h.html" target="_top" xlink:title="include/fa/buffer.h">
<polygon fill="none" stroke="red" points="202.227,-60.6953 202.227,-83.3047 313.773,-83.3047 313.773,-60.6953 202.227,-60.6953"/>
<text text-anchor="middle" x="258" y="-68.3047" font-family="Futura" font-size="11.00">include/fa/buffer.h</text>
</a>
</g>
<!-- Node4&#45;&gt;Node5 -->
<g id="edge10" class="edge"><title>Node4&#45;&gt;Node5</title>
<path fill="none" stroke="midnightblue" d="M243.122,-170.534C246.979,-145.25 253.395,-103.187 256.38,-83.6179"/>
<polygon fill="midnightblue" stroke="midnightblue" points="239.645,-170.115 241.597,-180.528 246.565,-171.17 239.645,-170.115"/>
</g>
<!-- Node6 -->
<g id="node12" class="node"><title>Node6</title>
<a xlink:href="clock_8h.html" target="_top" xlink:title="include/fa/clock.h">
<polygon fill="none" stroke="black" points="65.9778,-120.695 65.9778,-143.305 174.022,-143.305 174.022,-120.695 65.9778,-120.695"/>
<text text-anchor="middle" x="120" y="-128.305" font-family="Futura" font-size="11.00">include/fa/clock.h</text>
</a>
</g>
<!-- Node4&#45;&gt;Node6 -->
<g id="edge12" class="edge"><title>Node4&#45;&gt;Node6</title>
<path fill="none" stroke="midnightblue" d="M209.334,-176.178C188.177,-165.952 160.565,-152.606 141.672,-143.475"/>
<polygon fill="midnightblue" stroke="midnightblue" points="208.02,-179.43 218.546,-180.631 211.066,-173.128 208.02,-179.43"/>
</g>
<!-- Node4&#45;&gt;Node8 -->
<g id="edge22" class="edge"><title>Node4&#45;&gt;Node8</title>
<path fill="none" stroke="midnightblue" d="M296.315,-184.567C324.489,-178.516 356.977,-166.775 378,-144 393.612,-127.087 396.146,-98.5978 396.29,-83.3563"/>
<polygon fill="midnightblue" stroke="midnightblue" points="295.304,-181.198 286.159,-186.549 296.645,-188.069 295.304,-181.198"/>
</g>
<!-- Node4&#45;&gt;Node10 -->
<g id="edge26" class="edge"><title>Node4&#45;&gt;Node10</title>
<path fill="none" stroke="midnightblue" d="M256.684,-174.208C269.23,-164.286 286.206,-152.03 299.397,-143.475"/>
<polygon fill="midnightblue" stroke="midnightblue" points="254.346,-171.599 248.808,-180.631 258.77,-177.024 254.346,-171.599"/>
</g>
<!-- Node6&#45;&gt;Node3 -->
<g id="edge14" class="edge"><title>Node6&#45;&gt;Node3</title>
<path fill="none" stroke="midnightblue" d="M120.7,-153.656C121.56,-179.023 122.985,-221.071 123.645,-240.528"/>
<polygon fill="midnightblue" stroke="midnightblue" points="124.197,-153.494 120.36,-143.618 117.201,-153.731 124.197,-153.494"/>
</g>
<!-- Node6&#45;&gt;Node7 -->
<g id="edge16" class="edge"><title>Node6&#45;&gt;Node7</title>
<path fill="none" stroke="midnightblue" d="M120,-110.459C120,-101.411 120,-91.1602 120,-83.6719"/>
<polygon fill="midnightblue" stroke="midnightblue" points="116.5,-110.631 120,-120.631 123.5,-110.631 116.5,-110.631"/>
</g>
<!-- Node7&#45;&gt;Node4 -->
<g id="edge18" class="edge"><title>Node7&#45;&gt;Node4</title>
<path fill="none" stroke="midnightblue" d="M144.504,-89.0938C156.663,-97.6092 171.227,-108.638 183,-120 203.246,-139.539 222.894,-166.232 232.988,-180.685"/>
<polygon fill="midnightblue" stroke="midnightblue" points="146.377,-86.1347 136.15,-83.3686 142.42,-91.9088 146.377,-86.1347"/>
</g>
<!-- Node8&#45;&gt;Node9 -->
<g id="edge24" class="edge"><title>Node8&#45;&gt;Node9</title>
<path fill="none" stroke="midnightblue" d="M408.944,-52.2313C415.465,-42.775 423.135,-31.6539 428.64,-23.6719"/>
<polygon fill="midnightblue" stroke="midnightblue" points="405.947,-50.4115 403.151,-60.6308 411.71,-54.3857 405.947,-50.4115"/>
</g>
<!-- Node10&#45;&gt;Node2 -->
<g id="edge28" class="edge"><title>Node10&#45;&gt;Node2</title>
<path fill="none" stroke="midnightblue" d="M314.824,-153.458C311.165,-168.291 304.864,-188.401 295,-204 268.056,-246.608 219.918,-283.243 194.972,-300.48"/>
<polygon fill="midnightblue" stroke="midnightblue" points="318.328,-153.831 317.121,-143.305 311.5,-152.286 318.328,-153.831"/>
</g>
<!-- Node10&#45;&gt;Node3 -->
<g id="edge30" class="edge"><title>Node10&#45;&gt;Node3</title>
<path fill="none" stroke="midnightblue" d="M261.225,-146.079C236.36,-153.463 207.826,-164.412 185,-180 160.71,-196.589 140.274,-225.212 130.385,-240.56"/>
<polygon fill="midnightblue" stroke="midnightblue" points="262.25,-149.426 270.911,-143.325 260.335,-142.693 262.25,-149.426"/>
</g>
<!-- Node10&#45;&gt;Node4 -->
<g id="edge34" class="edge"><title>Node10&#45;&gt;Node4</title>
<path fill="none" stroke="midnightblue" d="M301.925,-150.1C289.367,-160.009 272.517,-172.159 259.439,-180.631"/>
<polygon fill="midnightblue" stroke="midnightblue" points="304.282,-152.695 309.834,-143.672 299.867,-147.263 304.282,-152.695"/>
</g>
<!-- Node10&#45;&gt;Node5 -->
<g id="edge32" class="edge"><title>Node10&#45;&gt;Node5</title>
<path fill="none" stroke="midnightblue" d="M300.784,-113.68C290.53,-103.93 278.052,-92.0654 269.224,-83.6719"/>
<polygon fill="midnightblue" stroke="midnightblue" points="298.436,-116.277 308.094,-120.631 303.259,-111.204 298.436,-116.277"/>
</g>
<!-- Node10&#45;&gt;Node7 -->
<g id="edge38" class="edge"><title>Node10&#45;&gt;Node7</title>
<path fill="none" stroke="midnightblue" d="M273.706,-117.799C237.902,-107.363 188.62,-92.9997 155.604,-83.3771"/>
<polygon fill="midnightblue" stroke="midnightblue" points="272.843,-121.193 283.423,-120.631 274.802,-114.472 272.843,-121.193"/>
</g>
<!-- Node10&#45;&gt;Node8 -->
<g id="edge36" class="edge"><title>Node10&#45;&gt;Node8</title>
<path fill="none" stroke="midnightblue" d="M340.914,-114.494C354.152,-104.522 370.626,-92.1126 382.094,-83.475"/>
<polygon fill="midnightblue" stroke="midnightblue" points="338.648,-111.818 332.766,-120.631 342.859,-117.41 338.648,-111.818"/>
</g>
</g>
</svg>
