<?xml version="1.0" encoding="UTF-8" standalone="no"?>
<!DOCTYPE svg PUBLIC "-//W3C//DTD SVG 1.1//EN"
 "http://www.w3.org/Graphics/SVG/1.1/DTD/svg11.dtd">
<!-- Generated by graphviz version 2.28.0 (20121015.0031)
 -->
<!-- Title: include/fa/plot.h Pages: 1 -->
<svg width="707pt" height="272pt"
 viewBox="0.00 0.00 706.94 272.00" xmlns="http://www.w3.org/2000/svg" xmlns:xlink="http://www.w3.org/1999/xlink">
<g id="graph1" class="graph" transform="scale(1 1) rotate(0) translate(4 268)">
<title>include/fa/plot.h</title>
<!-- Node1 -->
<g id="node1" class="node"><title>Node1</title>
<polygon fill="#bfbfbf" stroke="black" points="348.139,-240.695 348.139,-263.305 449.437,-263.305 449.437,-240.695 348.139,-240.695"/>
<text text-anchor="middle" x="398.788" y="-248.305" font-family="Futura" font-size="11.00">include/fa/plot.h</text>
</g>
<!-- Node2 -->
<g id="node3" class="node"><title>Node2</title>
<a xlink:href="fa_2fa_8h.html" target="_top" xlink:title="fa.h">
<polygon fill="none" stroke="red" points="413.061,-120.695 413.061,-143.305 448.515,-143.305 448.515,-120.695 413.061,-120.695"/>
<text text-anchor="middle" x="430.788" y="-128.305" font-family="Futura" font-size="11.00">fa.h</text>
</a>
</g>
<!-- Node1&#45;&gt;Node2 -->
<g id="edge2" class="edge"><title>Node1&#45;&gt;Node2</title>
<path fill="none" stroke="midnightblue" d="M401.593,-240.407C405.276,-226.525 411.959,-201.424 417.788,-180 420.168,-171.253 422.832,-161.6 425.125,-153.33"/>
<polygon fill="midnightblue" stroke="midnightblue" points="428.566,-154.019 427.872,-143.447 421.822,-152.144 428.566,-154.019"/>
</g>
<!-- Node4 -->
<g id="node8" class="node"><title>Node4</title>
<a xlink:href="std_8h.html" target="_top" xlink:title="fa/std.h">
<polygon fill="none" stroke="red" points="491.178,-0.695312 491.178,-23.3047 546.398,-23.3047 546.398,-0.695312 491.178,-0.695312"/>
<text text-anchor="middle" x="518.788" y="-8.30469" font-family="Futura" font-size="11.00">fa/std.h</text>
</a>
</g>
<!-- Node1&#45;&gt;Node4 -->
<g id="edge22" class="edge"><title>Node1&#45;&gt;Node4</title>
<path fill="none" stroke="midnightblue" d="M348.136,-244.616C223.499,-227.031 -80.7871,-171.613 20.7882,-60 51.6131,-26.129 369.772,-16.1655 480.807,-13.7076"/>
<polygon fill="midnightblue" stroke="midnightblue" points="480.966,-17.2051 490.889,-13.4926 480.816,-10.2067 480.966,-17.2051"/>
</g>
<!-- Node10 -->
<g id="node22" class="node"><title>Node10</title>
<a xlink:href="buffer_8h.html" target="_top" xlink:title="fa/buffer.h">
<polygon fill="none" stroke="red" points="426.578,-180.695 426.578,-203.305 496.998,-203.305 496.998,-180.695 426.578,-180.695"/>
<text text-anchor="middle" x="461.788" y="-188.305" font-family="Futura" font-size="11.00">fa/buffer.h</text>
</a>
</g>
<!-- Node1&#45;&gt;Node10 -->
<g id="edge24" class="edge"><title>Node1&#45;&gt;Node10</title>
<path fill="none" stroke="midnightblue" d="M410.051,-240.631C419.076,-232.322 431.945,-220.475 442.59,-210.675"/>
<polygon fill="midnightblue" stroke="midnightblue" points="445.21,-213.02 450.196,-203.672 440.469,-207.87 445.21,-213.02"/>
</g>
<!-- Node3 -->
<g id="node5" class="node"><title>Node3</title>
<a xlink:href="atomic_8h.html" target="_top" xlink:title="fa/atomic.h">
<polygon fill="none" stroke="black" points="481.725,-60.6953 481.725,-83.3047 555.851,-83.3047 555.851,-60.6953 481.725,-60.6953"/>
<text text-anchor="middle" x="518.788" y="-68.3047" font-family="Futura" font-size="11.00">fa/atomic.h</text>
</a>
</g>
<!-- Node2&#45;&gt;Node3 -->
<g id="edge4" class="edge"><title>Node2&#45;&gt;Node3</title>
<path fill="none" stroke="midnightblue" d="M441.205,-120.631C453.028,-111.778 472.299,-98.9089 488.765,-88.7784"/>
<polygon fill="midnightblue" stroke="midnightblue" points="490.804,-91.6362 497.56,-83.475 487.189,-85.6418 490.804,-91.6362"/>
</g>
<!-- Node5 -->
<g id="node10" class="node"><title>Node5</title>
<a xlink:href="queue_8h.html" target="_top" xlink:title="fa/atomic/queue.h">
<polygon fill="none" stroke="red" points="573.437,-60.6953 573.437,-83.3047 684.14,-83.3047 684.14,-60.6953 573.437,-60.6953"/>
<text text-anchor="middle" x="628.788" y="-68.3047" font-family="Futura" font-size="11.00">fa/atomic/queue.h</text>
</a>
</g>
<!-- Node2&#45;&gt;Node5 -->
<g id="edge10" class="edge"><title>Node2&#45;&gt;Node5</title>
<path fill="none" stroke="midnightblue" d="M448.709,-125.751C479.001,-116.877 541.199,-98.6574 583.943,-86.1365"/>
<polygon fill="midnightblue" stroke="midnightblue" points="584.94,-89.4915 593.553,-83.3214 582.972,-82.7738 584.94,-89.4915"/>
</g>
<!-- Node6 -->
<g id="node12" class="node"><title>Node6</title>
<a xlink:href="stack_8h.html" target="_top" xlink:title="fa/atomic/stack.h">
<polygon fill="none" stroke="red" points="30.2081,-60.6953 30.2081,-83.3047 135.368,-83.3047 135.368,-60.6953 30.2081,-60.6953"/>
<text text-anchor="middle" x="82.7882" y="-68.3047" font-family="Futura" font-size="11.00">fa/atomic/stack.h</text>
</a>
</g>
<!-- Node2&#45;&gt;Node6 -->
<g id="edge12" class="edge"><title>Node2&#45;&gt;Node6</title>
<path fill="none" stroke="midnightblue" d="M413.037,-128.163C369.463,-121.183 253.529,-102.509 145.625,-84.1275"/>
<polygon fill="midnightblue" stroke="midnightblue" points="145.992,-80.6395 135.545,-82.4072 144.814,-87.5397 145.992,-80.6395"/>
</g>
<!-- Node7 -->
<g id="node14" class="node"><title>Node7</title>
<a xlink:href="ring__buffer_8h.html" target="_top" xlink:title="fa/atomic/ring_buffer.h">
<polygon fill="none" stroke="red" points="153.314,-60.6953 153.314,-83.3047 288.262,-83.3047 288.262,-60.6953 153.314,-60.6953"/>
<text text-anchor="middle" x="220.788" y="-68.3047" font-family="Futura" font-size="11.00">fa/atomic/ring_buffer.h</text>
</a>
</g>
<!-- Node2&#45;&gt;Node7 -->
<g id="edge14" class="edge"><title>Node2&#45;&gt;Node7</title>
<path fill="none" stroke="midnightblue" d="M412.884,-126.055C381.096,-117.275 313.838,-98.6995 267.97,-86.0312"/>
<polygon fill="midnightblue" stroke="midnightblue" points="268.812,-82.6328 258.241,-83.3442 266.948,-89.3802 268.812,-82.6328"/>
</g>
<!-- Node8 -->
<g id="node16" class="node"><title>Node8</title>
<a xlink:href="system_8h.html" target="_top" xlink:title="fa/system.h">
<polygon fill="none" stroke="red" points="305.814,-60.6953 305.814,-83.3047 379.763,-83.3047 379.763,-60.6953 305.814,-60.6953"/>
<text text-anchor="middle" x="342.788" y="-68.3047" font-family="Futura" font-size="11.00">fa/system.h</text>
</a>
</g>
<!-- Node2&#45;&gt;Node8 -->
<g id="edge16" class="edge"><title>Node2&#45;&gt;Node8</title>
<path fill="none" stroke="midnightblue" d="M415.056,-120.631C401.748,-111.86 382.459,-99.1468 367.156,-89.0605"/>
<polygon fill="midnightblue" stroke="midnightblue" points="368.957,-86.0558 358.681,-83.475 365.105,-91.9006 368.957,-86.0558"/>
</g>
<!-- Node9 -->
<g id="node18" class="node"><title>Node9</title>
<a xlink:href="error_8h.html" target="_top" xlink:title="fa/error.h">
<polygon fill="none" stroke="red" points="397.95,-60.6953 397.95,-83.3047 463.627,-83.3047 463.627,-60.6953 397.95,-60.6953"/>
<text text-anchor="middle" x="430.788" y="-68.3047" font-family="Futura" font-size="11.00">fa/error.h</text>
</a>
</g>
<!-- Node2&#45;&gt;Node9 -->
<g id="edge18" class="edge"><title>Node2&#45;&gt;Node9</title>
<path fill="none" stroke="midnightblue" d="M425.472,-120.631C424.111,-113.137 423.719,-102.764 424.296,-93.6107"/>
<polygon fill="midnightblue" stroke="midnightblue" points="427.774,-94.0015 425.418,-83.6719 420.818,-93.2159 427.774,-94.0015"/>
</g>
<!-- Node3&#45;&gt;Node2 -->
<g id="edge6" class="edge"><title>Node3&#45;&gt;Node2</title>
<path fill="none" stroke="midnightblue" d="M508.385,-83.3588C495.821,-92.7676 474.834,-106.72 457.744,-117.097"/>
<polygon fill="midnightblue" stroke="midnightblue" points="455.545,-114.331 448.728,-122.442 459.115,-120.352 455.545,-114.331"/>
</g>
<!-- Node3&#45;&gt;Node4 -->
<g id="edge8" class="edge"><title>Node3&#45;&gt;Node4</title>
<path fill="none" stroke="midnightblue" d="M518.788,-60.6308C518.788,-53.218 518.788,-42.9888 518.788,-33.9096"/>
<polygon fill="midnightblue" stroke="midnightblue" points="522.288,-33.6718 518.788,-23.6719 515.288,-33.6719 522.288,-33.6718"/>
</g>
<!-- Node9&#45;&gt;Node2 -->
<g id="edge20" class="edge"><title>Node9&#45;&gt;Node2</title>
<path fill="none" stroke="midnightblue" d="M436.158,-83.6719C437.479,-91.1602 437.852,-101.411 437.276,-110.459"/>
<polygon fill="midnightblue" stroke="midnightblue" points="433.772,-110.296 436.104,-120.631 440.726,-111.097 433.772,-110.296"/>
</g>
<!-- Node10&#45;&gt;Node2 -->
<g id="edge26" class="edge"><title>Node10&#45;&gt;Node2</title>
<path fill="none" stroke="midnightblue" d="M456.246,-180.631C452.11,-172.892 446.333,-162.084 441.328,-152.719"/>
<polygon fill="midnightblue" stroke="midnightblue" points="444.293,-150.841 436.492,-143.672 438.119,-154.141 444.293,-150.841"/>
</g>
<!-- Node10&#45;&gt;Node4 -->
<g id="edge28" class="edge"><title>Node10&#45;&gt;Node4</title>
<path fill="none" stroke="midnightblue" d="M497.24,-186.414C550.455,-177.41 649.363,-151.973 692.788,-84 725.68,-32.5148 617.354,-18.3609 556.805,-14.472"/>
<polygon fill="midnightblue" stroke="midnightblue" points="556.641,-10.9568 546.457,-13.8766 556.239,-17.9453 556.641,-10.9568"/>
</g>
</g>
</svg>
