<?xml version="1.0" encoding="UTF-8" standalone="no"?>
<!DOCTYPE svg PUBLIC "-//W3C//DTD SVG 1.1//EN"
 "http://www.w3.org/Graphics/SVG/1.1/DTD/svg11.dtd">
<!-- Generated by graphviz version 2.28.0 (20121015.0031)
 -->
<!-- Title: include/fa/alloc.h Pages: 1 -->
<svg width="818pt" height="226pt"
 viewBox="0.00 0.00 818.00 226.00" xmlns="http://www.w3.org/2000/svg" xmlns:xlink="http://www.w3.org/1999/xlink">
<g id="graph1" class="graph" transform="scale(1 1) rotate(0) translate(4 222)">
<title>include/fa/alloc.h</title>
<!-- Node1 -->
<g id="node1" class="node"><title>Node1</title>
<polygon fill="#bfbfbf" stroke="black" points="370.896,-194.695 370.896,-217.305 477.104,-217.305 477.104,-194.695 370.896,-194.695"/>
<text text-anchor="middle" x="424" y="-202.305" font-family="Futura" font-size="11.00">include/fa/alloc.h</text>
</g>
<!-- Node2 -->
<g id="node3" class="node"><title>Node2</title>
<a xlink:href="fa_8h.html" target="_top" xlink:title="include/fa.h">
<polygon fill="none" stroke="red" points="385.71,-134.695 385.71,-157.305 462.29,-157.305 462.29,-134.695 385.71,-134.695"/>
<text text-anchor="middle" x="424" y="-142.305" font-family="Futura" font-size="11.00">include/fa.h</text>
</a>
</g>
<!-- Node1&#45;&gt;Node2 -->
<g id="edge2" class="edge"><title>Node1&#45;&gt;Node2</title>
<path fill="none" stroke="midnightblue" d="M424,-184.459C424,-175.411 424,-165.16 424,-157.672"/>
<polygon fill="midnightblue" stroke="midnightblue" points="420.5,-184.631 424,-194.631 427.5,-184.631 420.5,-184.631"/>
</g>
<!-- Node3 -->
<g id="node5" class="node"><title>Node3</title>
<a xlink:href="queue_8h.html" target="_top" xlink:title="include/fa/atomic/queue.h">
<polygon fill="none" stroke="red" points="65.0852,-67.6953 65.0852,-90.3047 216.915,-90.3047 216.915,-67.6953 65.0852,-67.6953"/>
<text text-anchor="middle" x="141" y="-75.3047" font-family="Futura" font-size="11.00">include/fa/atomic/queue.h</text>
</a>
</g>
<!-- Node2&#45;&gt;Node3 -->
<g id="edge4" class="edge"><title>Node2&#45;&gt;Node3</title>
<path fill="none" stroke="midnightblue" d="M375.667,-133.899C322.485,-121.684 237.696,-102.209 185.915,-90.3163"/>
<polygon fill="midnightblue" stroke="midnightblue" points="375.009,-137.339 385.539,-136.166 376.576,-130.516 375.009,-137.339"/>
</g>
<!-- Node4 -->
<g id="node7" class="node"><title>Node4</title>
<a xlink:href="ring__buffer_8h.html" target="_top" xlink:title="include/fa/atomic/ring\l_buffer.h">
<polygon fill="none" stroke="red" points="311.419,-60.3906 311.419,-97.6094 442.581,-97.6094 442.581,-60.3906 311.419,-60.3906"/>
<text text-anchor="start" x="319.419" y="-82.6094" font-family="Futura" font-size="11.00">include/fa/atomic/ring</text>
<text text-anchor="middle" x="377" y="-68" font-family="Futura" font-size="11.00">_buffer.h</text>
</a>
</g>
<!-- Node2&#45;&gt;Node4 -->
<g id="edge6" class="edge"><title>Node2&#45;&gt;Node4</title>
<path fill="none" stroke="midnightblue" d="M410.471,-126.29C403.983,-117.317 396.25,-106.623 389.853,-97.775"/>
<polygon fill="midnightblue" stroke="midnightblue" points="407.753,-128.504 416.449,-134.557 413.425,-124.402 407.753,-128.504"/>
</g>
<!-- Node5 -->
<g id="node9" class="node"><title>Node5</title>
<a xlink:href="analysis_8h.html" target="_top" xlink:title="include/fa/signal/analysis.h">
<polygon fill="none" stroke="black" points="-0.417725,-0.695312 -0.417725,-23.3047 156.418,-23.3047 156.418,-0.695312 -0.417725,-0.695312"/>
<text text-anchor="middle" x="78" y="-8.30469" font-family="Futura" font-size="11.00">include/fa/signal/analysis.h</text>
</a>
</g>
<!-- Node2&#45;&gt;Node5 -->
<g id="edge20" class="edge"><title>Node2&#45;&gt;Node5</title>
<path fill="none" stroke="midnightblue" d="M375.507,-136.589C343.011,-129.545 300.097,-117.445 266,-98 244.418,-85.6919 246.456,-72.5268 225,-60 195.151,-42.5732 158.058,-30.775 128.6,-23.3579"/>
<polygon fill="midnightblue" stroke="midnightblue" points="375.164,-140.093 385.667,-138.702 376.589,-133.239 375.164,-140.093"/>
</g>
<!-- Node6 -->
<g id="node11" class="node"><title>Node6</title>
<a xlink:href="basic_8h.html" target="_top" xlink:title="include/fa/signal/basic.h">
<polygon fill="none" stroke="black" points="174.616,-0.695312 174.616,-23.3047 317.384,-23.3047 317.384,-0.695312 174.616,-0.695312"/>
<text text-anchor="middle" x="246" y="-8.30469" font-family="Futura" font-size="11.00">include/fa/signal/basic.h</text>
</a>
</g>
<!-- Node2&#45;&gt;Node6 -->
<g id="edge22" class="edge"><title>Node2&#45;&gt;Node6</title>
<path fill="none" stroke="midnightblue" d="M376.019,-133.998C351.951,-126.723 323.442,-115.268 302,-98 276.125,-77.1619 258.053,-41.0887 250.277,-23.3951"/>
<polygon fill="midnightblue" stroke="midnightblue" points="375.106,-137.377 385.683,-136.771 377.037,-130.649 375.106,-137.377"/>
</g>
<!-- Node7 -->
<g id="node13" class="node"><title>Node7</title>
<a xlink:href="external_8h.html" target="_top" xlink:title="include/fa/signal/external.h">
<polygon fill="none" stroke="black" points="335.008,-0.695312 335.008,-23.3047 492.992,-23.3047 492.992,-0.695312 335.008,-0.695312"/>
<text text-anchor="middle" x="414" y="-8.30469" font-family="Futura" font-size="11.00">include/fa/signal/external.h</text>
</a>
</g>
<!-- Node2&#45;&gt;Node7 -->
<g id="edge24" class="edge"><title>Node2&#45;&gt;Node7</title>
<path fill="none" stroke="midnightblue" d="M437.871,-126.106C443.07,-117.899 448.356,-107.909 451,-98 455.354,-81.6819 456.528,-75.9586 451,-60 446.037,-45.6734 434.701,-32.401 425.875,-23.6402"/>
<polygon fill="midnightblue" stroke="midnightblue" points="434.887,-124.27 432.182,-134.514 440.685,-128.192 434.887,-124.27"/>
</g>
<!-- Node8 -->
<g id="node15" class="node"><title>Node8</title>
<a xlink:href="filter_8h.html" target="_top" xlink:title="include/fa/signal/filter.h">
<polygon fill="none" stroke="black" points="510.786,-0.695312 510.786,-23.3047 649.214,-23.3047 649.214,-0.695312 510.786,-0.695312"/>
<text text-anchor="middle" x="580" y="-8.30469" font-family="Futura" font-size="11.00">include/fa/signal/filter.h</text>
</a>
</g>
<!-- Node2&#45;&gt;Node8 -->
<g id="edge26" class="edge"><title>Node2&#45;&gt;Node8</title>
<path fill="none" stroke="midnightblue" d="M444.26,-127.857C477.133,-100.042 541.099,-45.9163 567.816,-23.3097"/>
<polygon fill="midnightblue" stroke="midnightblue" points="441.614,-125.511 436.241,-134.642 446.136,-130.855 441.614,-125.511"/>
</g>
<!-- Node9 -->
<g id="node17" class="node"><title>Node9</title>
<a xlink:href="synth_8h.html" target="_top" xlink:title="include/fa/signal/synth.h">
<polygon fill="none" stroke="black" points="667.567,-0.695312 667.567,-23.3047 810.433,-23.3047 810.433,-0.695312 667.567,-0.695312"/>
<text text-anchor="middle" x="739" y="-8.30469" font-family="Futura" font-size="11.00">include/fa/signal/synth.h</text>
</a>
</g>
<!-- Node2&#45;&gt;Node9 -->
<g id="edge28" class="edge"><title>Node2&#45;&gt;Node9</title>
<path fill="none" stroke="midnightblue" d="M456.396,-130.194C474.381,-121.547 496.909,-109.998 516,-98 539.632,-83.148 540.96,-72.3306 566,-60 601.6,-42.4695 644.652,-30.7426 678.902,-23.3869"/>
<polygon fill="midnightblue" stroke="midnightblue" points="454.46,-127.238 446.923,-134.684 457.458,-133.564 454.46,-127.238"/>
</g>
<!-- Node10 -->
<g id="node19" class="node"><title>Node10</title>
<a xlink:href="stack_8h.html" target="_top" xlink:title="include/fa/atomic/stack.h">
<polygon fill="none" stroke="red" points="574.857,-67.6953 574.857,-90.3047 721.143,-90.3047 721.143,-67.6953 574.857,-67.6953"/>
<text text-anchor="middle" x="648" y="-75.3047" font-family="Futura" font-size="11.00">include/fa/atomic/stack.h</text>
</a>
</g>
<!-- Node2&#45;&gt;Node10 -->
<g id="edge18" class="edge"><title>Node2&#45;&gt;Node10</title>
<path fill="none" stroke="midnightblue" d="M469.747,-131.725C511.981,-119.47 573.84,-101.52 612.47,-90.3101"/>
<polygon fill="midnightblue" stroke="midnightblue" points="468.618,-128.408 459.989,-134.557 470.569,-135.131 468.618,-128.408"/>
</g>
<!-- Node4&#45;&gt;Node5 -->
<g id="edge8" class="edge"><title>Node4&#45;&gt;Node5</title>
<path fill="none" stroke="midnightblue" d="M301.303,-61.5442C246.15,-49.5543 173.107,-33.6755 125.835,-23.3989"/>
<polygon fill="midnightblue" stroke="midnightblue" points="300.868,-65.0312 311.383,-63.7355 302.355,-58.191 300.868,-65.0312"/>
</g>
<!-- Node4&#45;&gt;Node6 -->
<g id="edge10" class="edge"><title>Node4&#45;&gt;Node6</title>
<path fill="none" stroke="midnightblue" d="M332.006,-55.6747C309.975,-44.7434 284.502,-32.1042 267.029,-23.4344"/>
<polygon fill="midnightblue" stroke="midnightblue" points="330.69,-58.9289 341.204,-60.2385 333.801,-52.6584 330.69,-58.9289"/>
</g>
<!-- Node4&#45;&gt;Node7 -->
<g id="edge12" class="edge"><title>Node4&#45;&gt;Node7</title>
<path fill="none" stroke="midnightblue" d="M392.219,-51.2641C397.746,-41.554 403.677,-31.1346 407.952,-23.6243"/>
<polygon fill="midnightblue" stroke="midnightblue" points="389.016,-49.8163 387.11,-60.2385 395.099,-53.2793 389.016,-49.8163"/>
</g>
<!-- Node4&#45;&gt;Node8 -->
<g id="edge14" class="edge"><title>Node4&#45;&gt;Node8</title>
<path fill="none" stroke="midnightblue" d="M441.951,-57.2027C477.215,-45.9115 519.271,-32.4453 547.621,-23.3675"/>
<polygon fill="midnightblue" stroke="midnightblue" points="440.659,-53.9415 432.203,-60.3243 442.794,-60.6081 440.659,-53.9415"/>
</g>
<!-- Node4&#45;&gt;Node9 -->
<g id="edge16" class="edge"><title>Node4&#45;&gt;Node9</title>
<path fill="none" stroke="midnightblue" d="M453.225,-64.3132C521.39,-52.0736 619.794,-34.4044 681.53,-23.3193"/>
<polygon fill="midnightblue" stroke="midnightblue" points="452.199,-60.9413 442.975,-66.1536 453.437,-67.8311 452.199,-60.9413"/>
</g>
</g>
</svg>
