<?xml version="1.0" encoding="UTF-8" standalone="no"?>
<!DOCTYPE svg PUBLIC "-//W3C//DTD SVG 1.1//EN"
 "http://www.w3.org/Graphics/SVG/1.1/DTD/svg11.dtd">
<!-- Generated by graphviz version 2.28.0 (20121015.0031)
 -->
<!-- Title: include/fa/midi/message.h Pages: 1 -->
<svg width="889pt" height="212pt"
 viewBox="0.00 0.00 889.00 212.00" xmlns="http://www.w3.org/2000/svg" xmlns:xlink="http://www.w3.org/1999/xlink">
<g id="graph1" class="graph" transform="scale(1 1) rotate(0) translate(4 208)">
<title>include/fa/midi/message.h</title>
<!-- Node1 -->
<g id="node1" class="node"><title>Node1</title>
<polygon fill="#bfbfbf" stroke="black" points="285.134,-180.695 285.134,-203.305 436.866,-203.305 436.866,-180.695 285.134,-180.695"/>
<text text-anchor="middle" x="361" y="-188.305" font-family="Futura" font-size="11.00">include/fa/midi/message.h</text>
</g>
<!-- Node2 -->
<g id="node3" class="node"><title>Node2</title>
<a xlink:href="fa_2fa_8h.html" target="_top" xlink:title="include/fa/fa.h">
<polygon fill="none" stroke="red" points="441.846,-120.695 441.846,-143.305 534.154,-143.305 534.154,-120.695 441.846,-120.695"/>
<text text-anchor="middle" x="488" y="-128.305" font-family="Futura" font-size="11.00">include/fa/fa.h</text>
</a>
</g>
<!-- Node1&#45;&gt;Node2 -->
<g id="edge2" class="edge"><title>Node1&#45;&gt;Node2</title>
<path fill="none" stroke="midnightblue" d="M392.851,-176.454C415.319,-166.193 444.889,-152.688 465.063,-143.475"/>
<polygon fill="midnightblue" stroke="midnightblue" points="391.347,-173.293 383.705,-180.631 394.255,-179.66 391.347,-173.293"/>
</g>
<!-- Node3 -->
<g id="node5" class="node"><title>Node3</title>
<a xlink:href="action_8h.html" target="_top" xlink:title="include/fa/action.h">
<polygon fill="none" stroke="red" points="768.746,-0.695312 768.746,-23.3047 881.254,-23.3047 881.254,-0.695312 768.746,-0.695312"/>
<text text-anchor="middle" x="825" y="-8.30469" font-family="Futura" font-size="11.00">include/fa/action.h</text>
</a>
</g>
<!-- Node2&#45;&gt;Node3 -->
<g id="edge4" class="edge"><title>Node2&#45;&gt;Node3</title>
<path fill="none" stroke="midnightblue" d="M544.611,-128.608C620.582,-124.407 749.969,-113.171 787,-84 806.141,-68.9218 812.735,-39.1196 818.227,-23.3491"/>
<polygon fill="midnightblue" stroke="midnightblue" points="544.062,-125.132 534.26,-129.155 544.431,-132.122 544.062,-125.132"/>
</g>
<!-- Node4 -->
<g id="node8" class="node"><title>Node4</title>
<a xlink:href="atomic_8h.html" target="_top" xlink:title="include/fa/atomic.h">
<polygon fill="none" stroke="black" points="128.374,-60.6953 128.374,-83.3047 243.626,-83.3047 243.626,-60.6953 128.374,-60.6953"/>
<text text-anchor="middle" x="186" y="-68.3047" font-family="Futura" font-size="11.00">include/fa/atomic.h</text>
</a>
</g>
<!-- Node2&#45;&gt;Node4 -->
<g id="edge8" class="edge"><title>Node2&#45;&gt;Node4</title>
<path fill="none" stroke="midnightblue" d="M431.938,-121.232C375.176,-110.72 288.438,-94.0687 234.528,-83.3398"/>
<polygon fill="midnightblue" stroke="midnightblue" points="431.355,-124.684 441.825,-123.057 432.626,-117.8 431.355,-124.684"/>
</g>
<!-- Node5 -->
<g id="node11" class="node"><title>Node5</title>
<a xlink:href="buffer_8h.html" target="_top" xlink:title="include/fa/buffer.h">
<polygon fill="none" stroke="red" points="-0.773193,-60.6953 -0.773193,-83.3047 110.773,-83.3047 110.773,-60.6953 -0.773193,-60.6953"/>
<text text-anchor="middle" x="55" y="-68.3047" font-family="Futura" font-size="11.00">include/fa/buffer.h</text>
</a>
</g>
<!-- Node2&#45;&gt;Node5 -->
<g id="edge12" class="edge"><title>Node2&#45;&gt;Node5</title>
<path fill="none" stroke="midnightblue" d="M431.322,-124.557C358.795,-116.135 229.338,-100.501 119,-84 116.324,-83.5998 113.587,-83.178 110.825,-82.7421"/>
<polygon fill="midnightblue" stroke="midnightblue" points="431.264,-128.074 441.6,-125.747 432.069,-121.12 431.264,-128.074"/>
</g>
<!-- Node6 -->
<g id="node13" class="node"><title>Node6</title>
<a xlink:href="io_8h.html" target="_top" xlink:title="include/fa/io.h">
<polygon fill="none" stroke="black" points="118.185,-0.695312 118.185,-23.3047 209.815,-23.3047 209.815,-0.695312 118.185,-0.695312"/>
<text text-anchor="middle" x="164" y="-8.30469" font-family="Futura" font-size="11.00">include/fa/io.h</text>
</a>
</g>
<!-- Node2&#45;&gt;Node6 -->
<g id="edge26" class="edge"><title>Node2&#45;&gt;Node6</title>
<path fill="none" stroke="midnightblue" d="M431.826,-122.496C391.586,-115.24 336.665,-102.927 291,-84 272.199,-76.2072 269.651,-70.1322 252,-60 229.168,-46.8936 202.425,-32.7817 184.465,-23.4789"/>
<polygon fill="midnightblue" stroke="midnightblue" points="431.271,-125.952 441.725,-124.233 432.48,-119.057 431.271,-125.952"/>
</g>
<!-- Node7 -->
<g id="node16" class="node"><title>Node7</title>
<a xlink:href="clock_8h.html" target="_top" xlink:title="include/fa/clock.h">
<polygon fill="none" stroke="red" points="299.978,-60.6953 299.978,-83.3047 408.022,-83.3047 408.022,-60.6953 299.978,-60.6953"/>
<text text-anchor="middle" x="354" y="-68.3047" font-family="Futura" font-size="11.00">include/fa/clock.h</text>
</a>
</g>
<!-- Node2&#45;&gt;Node7 -->
<g id="edge18" class="edge"><title>Node2&#45;&gt;Node7</title>
<path fill="none" stroke="midnightblue" d="M454.71,-116.591C430.966,-106.314 399.582,-92.7296 378.201,-83.475"/>
<polygon fill="midnightblue" stroke="midnightblue" points="453.476,-119.871 464.043,-120.631 456.257,-113.446 453.476,-119.871"/>
</g>
<!-- Node8 -->
<g id="node18" class="node"><title>Node8</title>
<a xlink:href="dynamic_8h.html" target="_top" xlink:title="include/fa/dynamic.h">
<polygon fill="none" stroke="black" points="425.918,-60.6953 425.918,-83.3047 550.082,-83.3047 550.082,-60.6953 425.918,-60.6953"/>
<text text-anchor="middle" x="488" y="-68.3047" font-family="Futura" font-size="11.00">include/fa/dynamic.h</text>
</a>
</g>
<!-- Node2&#45;&gt;Node8 -->
<g id="edge20" class="edge"><title>Node2&#45;&gt;Node8</title>
<path fill="none" stroke="midnightblue" d="M488,-110.459C488,-101.411 488,-91.1602 488,-83.6719"/>
<polygon fill="midnightblue" stroke="midnightblue" points="484.5,-110.631 488,-120.631 491.5,-110.631 484.5,-110.631"/>
</g>
<!-- Node9 -->
<g id="node20" class="node"><title>Node9</title>
<a xlink:href="error_8h.html" target="_top" xlink:title="include/fa/error.h">
<polygon fill="none" stroke="red" points="567.598,-60.6953 567.598,-83.3047 674.402,-83.3047 674.402,-60.6953 567.598,-60.6953"/>
<text text-anchor="middle" x="621" y="-68.3047" font-family="Futura" font-size="11.00">include/fa/error.h</text>
</a>
</g>
<!-- Node2&#45;&gt;Node9 -->
<g id="edge22" class="edge"><title>Node2&#45;&gt;Node9</title>
<path fill="none" stroke="midnightblue" d="M515.713,-116.316C537.97,-106.072 568.963,-92.6474 591.645,-83.475"/>
<polygon fill="midnightblue" stroke="midnightblue" points="514.045,-113.232 506.462,-120.631 517.004,-119.576 514.045,-113.232"/>
</g>
<!-- Node10 -->
<g id="node24" class="node"><title>Node10</title>
<a xlink:href="list_8h.html" target="_top" xlink:title="include/fa/list.h">
<polygon fill="none" stroke="red" points="692.385,-60.6953 692.385,-83.3047 787.615,-83.3047 787.615,-60.6953 692.385,-60.6953"/>
<text text-anchor="middle" x="740" y="-68.3047" font-family="Futura" font-size="11.00">include/fa/list.h</text>
</a>
</g>
<!-- Node2&#45;&gt;Node10 -->
<g id="edge28" class="edge"><title>Node2&#45;&gt;Node10</title>
<path fill="none" stroke="midnightblue" d="M537.542,-118.286C582.399,-107.605 647.921,-92.562 692.228,-82.7964"/>
<polygon fill="midnightblue" stroke="midnightblue" points="536.649,-114.901 527.737,-120.631 538.276,-121.709 536.649,-114.901"/>
</g>
<!-- Node3&#45;&gt;Node2 -->
<g id="edge6" class="edge"><title>Node3&#45;&gt;Node2</title>
<path fill="none" stroke="midnightblue" d="M829.42,-33.5104C827.821,-49.7778 820.552,-71.749 805,-84 764.315,-116.05 612.15,-126.45 534.288,-129.656"/>
<polygon fill="midnightblue" stroke="midnightblue" points="832.922,-33.4266 829.652,-23.3491 825.924,-33.2664 832.922,-33.4266"/>
</g>
<!-- Node4&#45;&gt;Node2 -->
<g id="edge10" class="edge"><title>Node4&#45;&gt;Node2</title>
<path fill="none" stroke="midnightblue" d="M253.686,-84.9279C310.965,-95.6076 391.433,-111.084 441.657,-121.095"/>
<polygon fill="midnightblue" stroke="midnightblue" points="254.103,-81.4454 243.631,-83.0583 252.823,-88.3275 254.103,-81.4454"/>
</g>
<!-- Node5&#45;&gt;Node1 -->
<g id="edge16" class="edge"><title>Node5&#45;&gt;Node1</title>
<path fill="none" stroke="midnightblue" d="M91.5932,-87.1111C153.896,-111.136 279.155,-159.439 334.113,-180.632"/>
<polygon fill="midnightblue" stroke="midnightblue" points="92.7446,-83.8039 82.1549,-83.4715 90.2259,-90.3351 92.7446,-83.8039"/>
</g>
<!-- Node5&#45;&gt;Node6 -->
<g id="edge14" class="edge"><title>Node5&#45;&gt;Node6</title>
<path fill="none" stroke="midnightblue" d="M83.3757,-55.901C102.524,-45.7119 127.308,-32.524 144.314,-23.475"/>
<polygon fill="midnightblue" stroke="midnightblue" points="81.6709,-52.8434 74.487,-60.6308 84.9592,-59.023 81.6709,-52.8434"/>
</g>
<!-- Node9&#45;&gt;Node2 -->
<g id="edge24" class="edge"><title>Node9&#45;&gt;Node2</title>
<path fill="none" stroke="midnightblue" d="M593.029,-87.8023C570.706,-98.0705 539.711,-111.491 517.094,-120.631"/>
<polygon fill="midnightblue" stroke="midnightblue" points="594.729,-90.8716 602.315,-83.475 591.772,-84.5267 594.729,-90.8716"/>
</g>
<!-- Node10&#45;&gt;Node2 -->
<g id="edge32" class="edge"><title>Node10&#45;&gt;Node2</title>
<path fill="none" stroke="midnightblue" d="M690.532,-85.6961C645.136,-96.5063 578.53,-111.794 534.19,-121.552"/>
<polygon fill="midnightblue" stroke="midnightblue" points="691.538,-89.0545 700.449,-83.3246 689.909,-82.2464 691.538,-89.0545"/>
</g>
<!-- Node10&#45;&gt;Node3 -->
<g id="edge30" class="edge"><title>Node10&#45;&gt;Node3</title>
<path fill="none" stroke="midnightblue" d="M763.774,-54.7779C778.458,-44.7583 796.87,-32.1949 809.649,-23.475"/>
<polygon fill="midnightblue" stroke="midnightblue" points="761.484,-52.1033 755.196,-60.6308 765.429,-57.8854 761.484,-52.1033"/>
</g>
</g>
</svg>
