<?xml version="1.0" encoding="UTF-8" standalone="no"?>
<!DOCTYPE svg PUBLIC "-//W3C//DTD SVG 1.1//EN"
 "http://www.w3.org/Graphics/SVG/1.1/DTD/svg11.dtd">
<!-- Generated by graphviz version 2.28.0 (20121015.0031)
 -->
<!-- Title: include/fa/action.h Pages: 1 -->
<svg width="578pt" height="392pt"
 viewBox="0.00 0.00 578.30 392.00" xmlns="http://www.w3.org/2000/svg" xmlns:xlink="http://www.w3.org/1999/xlink">
<g id="graph1" class="graph" transform="scale(1 1) rotate(0) translate(4 388)">
<title>include/fa/action.h</title>
<!-- Node1 -->
<g id="node1" class="node"><title>Node1</title>
<polygon fill="#bfbfbf" stroke="black" points="216.042,-360.695 216.042,-383.305 328.55,-383.305 328.55,-360.695 216.042,-360.695"/>
<text text-anchor="middle" x="272.296" y="-368.305" font-family="Futura" font-size="11.00">include/fa/action.h</text>
</g>
<!-- Node2 -->
<g id="node3" class="node"><title>Node2</title>
<a xlink:href="audio_2device_8h.html" target="_top" xlink:title="include/fa/audio/device.h">
<polygon fill="none" stroke="black" points="373.995,-300.695 373.995,-323.305 522.597,-323.305 522.597,-300.695 373.995,-300.695"/>
<text text-anchor="middle" x="448.296" y="-308.305" font-family="Futura" font-size="11.00">include/fa/audio/device.h</text>
</a>
</g>
<!-- Node1&#45;&gt;Node2 -->
<g id="edge2" class="edge"><title>Node1&#45;&gt;Node2</title>
<path fill="none" stroke="midnightblue" d="M313.578,-357.396C345.136,-346.996 387.981,-332.876 416.807,-323.377"/>
<polygon fill="midnightblue" stroke="midnightblue" points="312.163,-354.177 303.761,-360.631 314.354,-360.825 312.163,-354.177"/>
</g>
<!-- Node3 -->
<g id="node5" class="node"><title>Node3</title>
<a xlink:href="audio_2stream_8h.html" target="_top" xlink:title="include/fa/audio/stream.h">
<polygon fill="none" stroke="black" points="270.592,-240.695 270.592,-263.305 420,-263.305 420,-240.695 270.592,-240.695"/>
<text text-anchor="middle" x="345.296" y="-248.305" font-family="Futura" font-size="11.00">include/fa/audio/stream.h</text>
</a>
</g>
<!-- Node1&#45;&gt;Node3 -->
<g id="edge38" class="edge"><title>Node1&#45;&gt;Node3</title>
<path fill="none" stroke="midnightblue" d="M284.126,-351.878C299.661,-326.767 326.404,-283.538 338.727,-263.618"/>
<polygon fill="midnightblue" stroke="midnightblue" points="281.059,-350.183 278.774,-360.528 287.012,-353.865 281.059,-350.183"/>
</g>
<!-- Node5 -->
<g id="node9" class="node"><title>Node5</title>
<a xlink:href="fa_2fa_8h.html" target="_top" xlink:title="include/fa/fa.h">
<polygon fill="none" stroke="red" points="187.142,-120.695 187.142,-143.305 279.449,-143.305 279.449,-120.695 187.142,-120.695"/>
<text text-anchor="middle" x="233.296" y="-128.305" font-family="Futura" font-size="11.00">include/fa/fa.h</text>
</a>
</g>
<!-- Node1&#45;&gt;Node5 -->
<g id="edge40" class="edge"><title>Node1&#45;&gt;Node5</title>
<path fill="none" stroke="midnightblue" d="M265.002,-350.755C253.021,-302.084 233.325,-179.854 232.025,-143.412"/>
<polygon fill="midnightblue" stroke="midnightblue" points="261.631,-351.697 267.577,-360.466 268.398,-349.903 261.631,-351.697"/>
</g>
<!-- Node9 -->
<g id="node20" class="node"><title>Node9</title>
<a xlink:href="audio_2session_8h.html" target="_top" xlink:title="include/fa/audio/session.h">
<polygon fill="none" stroke="black" points="419.609,-0.695312 419.609,-23.3047 570.982,-23.3047 570.982,-0.695312 419.609,-0.695312"/>
<text text-anchor="middle" x="495.296" y="-8.30469" font-family="Futura" font-size="11.00">include/fa/audio/session.h</text>
</a>
</g>
<!-- Node1&#45;&gt;Node9 -->
<g id="edge36" class="edge"><title>Node1&#45;&gt;Node9</title>
<path fill="none" stroke="midnightblue" d="M338.577,-366.035C405.205,-359.827 502.107,-347.093 531.296,-324 558.299,-302.636 562.296,-287.432 562.296,-253 562.296,-253 562.296,-253 562.296,-131 562.296,-86.2397 525.389,-42.9211 506.36,-23.56"/>
<polygon fill="midnightblue" stroke="midnightblue" points="338.213,-362.554 328.569,-366.94 338.843,-369.525 338.213,-362.554"/>
</g>
<!-- Node10 -->
<g id="node25" class="node"><title>Node10</title>
<a xlink:href="midi_8h.html" target="_top" xlink:title="include/fa/midi.h">
<polygon fill="none" stroke="black" points="250.769,-0.695312 250.769,-23.3047 353.823,-23.3047 353.823,-0.695312 250.769,-0.695312"/>
<text text-anchor="middle" x="302.296" y="-8.30469" font-family="Futura" font-size="11.00">include/fa/midi.h</text>
</a>
</g>
<!-- Node1&#45;&gt;Node10 -->
<g id="edge42" class="edge"><title>Node1&#45;&gt;Node10</title>
<path fill="none" stroke="midnightblue" d="M205.775,-369.858C125.538,-364.541 1.2959,-341.948 1.2959,-253 1.2959,-253 1.2959,-253 1.2959,-131 1.2959,-98.3341 -3.8877,-81.9594 20.2959,-60 53.2749,-30.0542 178.649,-18.9955 250.635,-15.0603"/>
<polygon fill="midnightblue" stroke="midnightblue" points="205.627,-373.355 215.815,-370.449 206.038,-366.368 205.627,-373.355"/>
</g>
<!-- Node2&#45;&gt;Node3 -->
<g id="edge4" class="edge"><title>Node2&#45;&gt;Node3</title>
<path fill="none" stroke="midnightblue" d="M420.987,-295.622C402.963,-285.472 379.822,-272.442 363.898,-263.475"/>
<polygon fill="midnightblue" stroke="midnightblue" points="419.451,-298.774 429.882,-300.631 422.885,-292.674 419.451,-298.774"/>
</g>
<!-- Node4 -->
<g id="node7" class="node"><title>Node4</title>
<a xlink:href="audio_8h.html" target="_top" xlink:title="include/fa/audio.h">
<polygon fill="none" stroke="black" points="347.888,-180.695 347.888,-203.305 458.704,-203.305 458.704,-180.695 347.888,-180.695"/>
<text text-anchor="middle" x="403.296" y="-188.305" font-family="Futura" font-size="11.00">include/fa/audio.h</text>
</a>
</g>
<!-- Node2&#45;&gt;Node4 -->
<g id="edge34" class="edge"><title>Node2&#45;&gt;Node4</title>
<path fill="none" stroke="midnightblue" d="M443.83,-290.803C440.349,-276.383 434.986,-256.668 428.296,-240 423.063,-226.963 415.231,-212.838 409.73,-203.513"/>
<polygon fill="midnightblue" stroke="midnightblue" points="440.448,-291.71 446.117,-300.661 447.267,-290.128 440.448,-291.71"/>
</g>
<!-- Node3&#45;&gt;Node4 -->
<g id="edge6" class="edge"><title>Node3&#45;&gt;Node4</title>
<path fill="none" stroke="midnightblue" d="M362.904,-233.392C372.598,-223.698 384.313,-211.983 392.624,-203.672"/>
<polygon fill="midnightblue" stroke="midnightblue" points="360.261,-231.085 355.665,-240.631 365.211,-236.035 360.261,-231.085"/>
</g>
<!-- Node4&#45;&gt;Node5 -->
<g id="edge8" class="edge"><title>Node4&#45;&gt;Node5</title>
<path fill="none" stroke="midnightblue" d="M363.421,-177.396C332.939,-166.996 291.554,-152.876 263.711,-143.377"/>
<polygon fill="midnightblue" stroke="midnightblue" points="362.309,-180.714 372.903,-180.631 364.569,-174.089 362.309,-180.714"/>
</g>
<!-- Node5&#45;&gt;Node1 -->
<g id="edge10" class="edge"><title>Node5&#45;&gt;Node1</title>
<path fill="none" stroke="midnightblue" d="M240.55,-153.084C252.514,-201.591 272.222,-323.834 273.562,-360.466"/>
<polygon fill="midnightblue" stroke="midnightblue" points="243.93,-152.177 237.979,-143.412 237.165,-153.976 243.93,-152.177"/>
</g>
<!-- Node6 -->
<g id="node12" class="node"><title>Node6</title>
<a xlink:href="atomic_8h.html" target="_top" xlink:title="include/fa/atomic.h">
<polygon fill="none" stroke="black" points="158.67,-60.6953 158.67,-83.3047 273.922,-83.3047 273.922,-60.6953 158.67,-60.6953"/>
<text text-anchor="middle" x="216.296" y="-68.3047" font-family="Futura" font-size="11.00">include/fa/atomic.h</text>
</a>
</g>
<!-- Node5&#45;&gt;Node6 -->
<g id="edge12" class="edge"><title>Node5&#45;&gt;Node6</title>
<path fill="none" stroke="midnightblue" d="M221.108,-111.349C217.735,-102.09 214.957,-91.4071 214.054,-83.6719"/>
<polygon fill="midnightblue" stroke="midnightblue" points="217.889,-112.724 224.941,-120.631 224.359,-110.052 217.889,-112.724"/>
</g>
<!-- Node7 -->
<g id="node15" class="node"><title>Node7</title>
<a xlink:href="buffer_8h.html" target="_top" xlink:title="include/fa/buffer.h">
<polygon fill="none" stroke="red" points="29.5227,-60.6953 29.5227,-83.3047 141.069,-83.3047 141.069,-60.6953 29.5227,-60.6953"/>
<text text-anchor="middle" x="85.2959" y="-68.3047" font-family="Futura" font-size="11.00">include/fa/buffer.h</text>
</a>
</g>
<!-- Node5&#45;&gt;Node7 -->
<g id="edge16" class="edge"><title>Node5&#45;&gt;Node7</title>
<path fill="none" stroke="midnightblue" d="M197.225,-116.864C170.92,-106.555 135.85,-92.8119 112.025,-83.475"/>
<polygon fill="midnightblue" stroke="midnightblue" points="196.249,-120.241 206.836,-120.631 198.803,-113.723 196.249,-120.241"/>
</g>
<!-- Node8 -->
<g id="node17" class="node"><title>Node8</title>
<a xlink:href="clock_8h.html" target="_top" xlink:title="include/fa/clock.h">
<polygon fill="none" stroke="black" points="330.274,-60.6953 330.274,-83.3047 438.318,-83.3047 438.318,-60.6953 330.274,-60.6953"/>
<text text-anchor="middle" x="384.296" y="-68.3047" font-family="Futura" font-size="11.00">include/fa/clock.h</text>
</a>
</g>
<!-- Node5&#45;&gt;Node8 -->
<g id="edge18" class="edge"><title>Node5&#45;&gt;Node8</title>
<path fill="none" stroke="midnightblue" d="M269.774,-116.989C296.742,-106.63 332.87,-92.753 357.28,-83.3771"/>
<polygon fill="midnightblue" stroke="midnightblue" points="268.372,-113.778 260.292,-120.631 270.882,-120.312 268.372,-113.778"/>
</g>
<!-- Node6&#45;&gt;Node5 -->
<g id="edge14" class="edge"><title>Node6&#45;&gt;Node5</title>
<path fill="none" stroke="midnightblue" d="M228.616,-93.0155C231.973,-102.311 234.719,-112.974 235.573,-120.631"/>
<polygon fill="midnightblue" stroke="midnightblue" points="231.819,-91.6023 224.794,-83.6719 225.341,-94.2526 231.819,-91.6023"/>
</g>
<!-- Node8&#45;&gt;Node2 -->
<g id="edge20" class="edge"><title>Node8&#45;&gt;Node2</title>
<path fill="none" stroke="midnightblue" d="M403.835,-90.3192C424.18,-109.785 454.791,-143.477 467.296,-180 482.035,-223.049 462.609,-277.872 453.05,-300.503"/>
<polygon fill="midnightblue" stroke="midnightblue" points="406.047,-87.5964 396.342,-83.3458 401.278,-92.7206 406.047,-87.5964"/>
</g>
<!-- Node8&#45;&gt;Node3 -->
<g id="edge28" class="edge"><title>Node8&#45;&gt;Node3</title>
<path fill="none" stroke="midnightblue" d="M373.399,-92.2935C362.291,-113.158 345.798,-147.769 339.296,-180 335.04,-201.099 339.341,-226.317 342.533,-240.307"/>
<polygon fill="midnightblue" stroke="midnightblue" points="376.491,-93.9334 378.21,-83.4789 370.347,-90.5797 376.491,-93.9334"/>
</g>
<!-- Node8&#45;&gt;Node9 -->
<g id="edge22" class="edge"><title>Node8&#45;&gt;Node9</title>
<path fill="none" stroke="midnightblue" d="M413.192,-55.901C432.692,-45.7119 457.931,-32.524 475.249,-23.475"/>
<polygon fill="midnightblue" stroke="midnightblue" points="411.383,-52.8975 404.14,-60.6308 414.624,-59.1016 411.383,-52.8975"/>
</g>
<!-- Node8&#45;&gt;Node10 -->
<g id="edge30" class="edge"><title>Node8&#45;&gt;Node10</title>
<path fill="none" stroke="midnightblue" d="M361.361,-54.7779C347.196,-44.7583 329.434,-32.1949 317.105,-23.475"/>
<polygon fill="midnightblue" stroke="midnightblue" points="359.451,-57.7135 369.636,-60.6308 363.493,-51.9986 359.451,-57.7135"/>
</g>
<!-- Node9&#45;&gt;Node2 -->
<g id="edge24" class="edge"><title>Node9&#45;&gt;Node2</title>
<path fill="none" stroke="midnightblue" d="M503.317,-32.9427C511.901,-56.1154 524.296,-95.6927 524.296,-131 524.296,-193 524.296,-193 524.296,-193 524.296,-239.055 482.871,-281.424 461.188,-300.447"/>
<polygon fill="midnightblue" stroke="midnightblue" points="506.553,-31.6047 499.7,-23.5243 500.018,-34.1144 506.553,-31.6047"/>
</g>
<!-- Node9&#45;&gt;Node4 -->
<g id="edge26" class="edge"><title>Node9&#45;&gt;Node4</title>
<path fill="none" stroke="midnightblue" d="M485.311,-32.3185C465.877,-69.9197 423.566,-151.781 408.64,-180.661"/>
<polygon fill="midnightblue" stroke="midnightblue" points="488.455,-33.8586 489.937,-23.368 482.236,-30.6445 488.455,-33.8586"/>
</g>
<!-- Node10&#45;&gt;Node5 -->
<g id="edge32" class="edge"><title>Node10&#45;&gt;Node5</title>
<path fill="none" stroke="midnightblue" d="M299.487,-33.4714C296.771,-48.3113 291.641,-68.4238 282.296,-84 273.442,-98.7576 258.749,-111.969 247.758,-120.599"/>
<polygon fill="midnightblue" stroke="midnightblue" points="302.988,-33.7428 301.123,-23.3134 296.077,-32.6293 302.988,-33.7428"/>
</g>
</g>
</svg>
