<?xml version="1.0" encoding="UTF-8" standalone="no"?>
<!DOCTYPE svg PUBLIC "-//W3C//DTD SVG 1.1//EN"
 "http://www.w3.org/Graphics/SVG/1.1/DTD/svg11.dtd">
<!-- Generated by graphviz version 2.28.0 (20121015.0031)
 -->
<!-- Title: include/fa/signal.h Pages: 1 -->
<svg width="720pt" height="212pt"
 viewBox="0.00 0.00 720.00 212.00" xmlns="http://www.w3.org/2000/svg" xmlns:xlink="http://www.w3.org/1999/xlink">
<g id="graph1" class="graph" transform="scale(1 1) rotate(0) translate(4 208)">
<title>include/fa/signal.h</title>
<!-- Node1 -->
<g id="node1" class="node"><title>Node1</title>
<polygon fill="#bfbfbf" stroke="black" points="289.283,-180.695 289.283,-203.305 400.717,-203.305 400.717,-180.695 289.283,-180.695"/>
<text text-anchor="middle" x="345" y="-188.305" font-family="Futura" font-size="11.00">include/fa/signal.h</text>
</g>
<!-- Node2 -->
<g id="node3" class="node"><title>Node2</title>
<a xlink:href="fa_2fa_8h.html" target="_top" xlink:title="fa.h">
<polygon fill="none" stroke="red" points="327.273,-60.6953 327.273,-83.3047 362.727,-83.3047 362.727,-60.6953 327.273,-60.6953"/>
<text text-anchor="middle" x="345" y="-68.3047" font-family="Futura" font-size="11.00">fa.h</text>
</a>
</g>
<!-- Node1&#45;&gt;Node2 -->
<g id="edge2" class="edge"><title>Node1&#45;&gt;Node2</title>
<path fill="none" stroke="midnightblue" d="M340.953,-180.528C337.82,-161.071 337.411,-119.023 339.724,-93.6561"/>
<polygon fill="midnightblue" stroke="midnightblue" points="343.212,-93.964 340.93,-83.6179 336.262,-93.129 343.212,-93.964"/>
</g>
<!-- Node6 -->
<g id="node12" class="node"><title>Node6</title>
<a xlink:href="ring__buffer_8h.html" target="_top" xlink:title="fa/atomic/ring_buffer.h">
<polygon fill="none" stroke="red" points="-0.474121,-0.695312 -0.474121,-23.3047 134.474,-23.3047 134.474,-0.695312 -0.474121,-0.695312"/>
<text text-anchor="middle" x="67" y="-8.30469" font-family="Futura" font-size="11.00">fa/atomic/ring_buffer.h</text>
</a>
</g>
<!-- Node1&#45;&gt;Node6 -->
<g id="edge36" class="edge"><title>Node1&#45;&gt;Node6</title>
<path fill="none" stroke="midnightblue" d="M328.852,-180.661C282.309,-150.86 147.652,-64.6405 91.7652,-28.8568"/>
<polygon fill="midnightblue" stroke="midnightblue" points="93.5016,-25.8127 83.1926,-23.368 89.727,-31.7078 93.5016,-25.8127"/>
</g>
<!-- Node8 -->
<g id="node16" class="node"><title>Node8</title>
<a xlink:href="pair_8h.html" target="_top" xlink:title="fa/pair.h">
<polygon fill="none" stroke="red" points="651.694,-0.695312 651.694,-23.3047 712.306,-23.3047 712.306,-0.695312 651.694,-0.695312"/>
<text text-anchor="middle" x="682" y="-8.30469" font-family="Futura" font-size="11.00">fa/pair.h</text>
</a>
</g>
<!-- Node1&#45;&gt;Node8 -->
<g id="edge26" class="edge"><title>Node1&#45;&gt;Node8</title>
<path fill="none" stroke="midnightblue" d="M374.131,-180.586C397.916,-171.755 432.184,-158.278 461,-144 535.155,-107.258 617.913,-54.9594 657.847,-28.956"/>
<polygon fill="midnightblue" stroke="midnightblue" points="659.923,-31.7809 666.376,-23.3779 656.091,-25.9227 659.923,-31.7809"/>
</g>
<!-- Node9 -->
<g id="node19" class="node"><title>Node9</title>
<a xlink:href="time_8h.html" target="_top" xlink:title="time.h">
<polygon fill="none" stroke="red" points="152.02,-0.695312 152.02,-23.3047 197.98,-23.3047 197.98,-0.695312 152.02,-0.695312"/>
<text text-anchor="middle" x="175" y="-8.30469" font-family="Futura" font-size="11.00">time.h</text>
</a>
</g>
<!-- Node1&#45;&gt;Node9 -->
<g id="edge28" class="edge"><title>Node1&#45;&gt;Node9</title>
<path fill="none" stroke="midnightblue" d="M335.125,-180.661C307.192,-151.413 227.357,-67.821 192.096,-30.9003"/>
<polygon fill="midnightblue" stroke="midnightblue" points="194.34,-28.1823 184.902,-23.368 189.278,-33.017 194.34,-28.1823"/>
</g>
<!-- Node10 -->
<g id="node25" class="node"><title>Node10</title>
<a xlink:href="buffer_8h.html" target="_top" xlink:title="fa/buffer.h">
<polygon fill="none" stroke="red" points="381.79,-120.695 381.79,-143.305 452.21,-143.305 452.21,-120.695 381.79,-120.695"/>
<text text-anchor="middle" x="417" y="-128.305" font-family="Futura" font-size="11.00">fa/buffer.h</text>
</a>
</g>
<!-- Node1&#45;&gt;Node10 -->
<g id="edge30" class="edge"><title>Node1&#45;&gt;Node10</title>
<path fill="none" stroke="midnightblue" d="M357.872,-180.631C368.389,-172.159 383.472,-160.009 395.772,-150.1"/>
<polygon fill="midnightblue" stroke="midnightblue" points="398.16,-152.671 403.752,-143.672 393.769,-147.22 398.16,-152.671"/>
</g>
<!-- Node2&#45;&gt;Node1 -->
<g id="edge24" class="edge"><title>Node2&#45;&gt;Node1</title>
<path fill="none" stroke="midnightblue" d="M349.07,-83.6179C352.189,-103.187 352.586,-145.25 350.259,-170.534"/>
<polygon fill="midnightblue" stroke="midnightblue" points="346.776,-170.18 349.047,-180.528 353.725,-171.022 346.776,-170.18"/>
</g>
<!-- Node3 -->
<g id="node5" class="node"><title>Node3</title>
<a xlink:href="atomic_8h.html" target="_top" xlink:title="fa/atomic.h">
<polygon fill="none" stroke="red" points="307.937,-0.695312 307.937,-23.3047 382.063,-23.3047 382.063,-0.695312 307.937,-0.695312"/>
<text text-anchor="middle" x="345" y="-8.30469" font-family="Futura" font-size="11.00">fa/atomic.h</text>
</a>
</g>
<!-- Node2&#45;&gt;Node3 -->
<g id="edge4" class="edge"><title>Node2&#45;&gt;Node3</title>
<path fill="none" stroke="midnightblue" d="M339.684,-60.6308C338.323,-53.1365 337.931,-42.7636 338.508,-33.6107"/>
<polygon fill="midnightblue" stroke="midnightblue" points="341.986,-34.0015 339.63,-23.6719 335.03,-33.2159 341.986,-34.0015"/>
</g>
<!-- Node4 -->
<g id="node8" class="node"><title>Node4</title>
<a xlink:href="queue_8h.html" target="_top" xlink:title="fa/atomic/queue.h">
<polygon fill="none" stroke="red" points="399.648,-0.695312 399.648,-23.3047 510.352,-23.3047 510.352,-0.695312 399.648,-0.695312"/>
<text text-anchor="middle" x="455" y="-8.30469" font-family="Futura" font-size="11.00">fa/atomic/queue.h</text>
</a>
</g>
<!-- Node2&#45;&gt;Node4 -->
<g id="edge8" class="edge"><title>Node2&#45;&gt;Node4</title>
<path fill="none" stroke="midnightblue" d="M363.164,-61.4225C380.338,-52.3675 406.378,-38.6369 426.35,-28.1065"/>
<polygon fill="midnightblue" stroke="midnightblue" points="428.109,-31.1357 435.322,-23.3755 424.844,-24.9437 428.109,-31.1357"/>
</g>
<!-- Node5 -->
<g id="node10" class="node"><title>Node5</title>
<a xlink:href="stack_8h.html" target="_top" xlink:title="fa/atomic/stack.h">
<polygon fill="none" stroke="red" points="528.42,-0.695312 528.42,-23.3047 633.58,-23.3047 633.58,-0.695312 528.42,-0.695312"/>
<text text-anchor="middle" x="581" y="-8.30469" font-family="Futura" font-size="11.00">fa/atomic/stack.h</text>
</a>
</g>
<!-- Node2&#45;&gt;Node5 -->
<g id="edge10" class="edge"><title>Node2&#45;&gt;Node5</title>
<path fill="none" stroke="midnightblue" d="M362.738,-66.6406C397.583,-58.0772 476.155,-38.767 528.889,-25.807"/>
<polygon fill="midnightblue" stroke="midnightblue" points="529.868,-29.1705 538.744,-23.3849 528.198,-22.3727 529.868,-29.1705"/>
</g>
<!-- Node2&#45;&gt;Node6 -->
<g id="edge12" class="edge"><title>Node2&#45;&gt;Node6</title>
<path fill="none" stroke="midnightblue" d="M327.187,-67.2836C287.487,-59.0009 190.236,-38.711 126.527,-25.4194"/>
<polygon fill="midnightblue" stroke="midnightblue" points="127.108,-21.9653 116.604,-23.3491 125.679,-28.8178 127.108,-21.9653"/>
</g>
<!-- Node7 -->
<g id="node14" class="node"><title>Node7</title>
<a xlink:href="system_8h.html" target="_top" xlink:title="fa/system.h">
<polygon fill="none" stroke="red" points="216.026,-0.695312 216.026,-23.3047 289.974,-23.3047 289.974,-0.695312 216.026,-0.695312"/>
<text text-anchor="middle" x="253" y="-8.30469" font-family="Futura" font-size="11.00">fa/system.h</text>
</a>
</g>
<!-- Node2&#45;&gt;Node7 -->
<g id="edge14" class="edge"><title>Node2&#45;&gt;Node7</title>
<path fill="none" stroke="midnightblue" d="M328.552,-60.6308C314.64,-51.8601 294.474,-39.1468 278.475,-29.0605"/>
<polygon fill="midnightblue" stroke="midnightblue" points="279.941,-25.8473 269.616,-23.475 276.208,-31.7688 279.941,-25.8473"/>
</g>
<!-- Node2&#45;&gt;Node8 -->
<g id="edge16" class="edge"><title>Node2&#45;&gt;Node8</title>
<path fill="none" stroke="midnightblue" d="M362.74,-68.3084C408.314,-62.1643 531.454,-45.926 633,-24 635.772,-23.4015 638.638,-22.7268 641.535,-22.0136"/>
<polygon fill="midnightblue" stroke="midnightblue" points="642.594,-25.3558 651.42,-19.495 640.866,-18.5725 642.594,-25.3558"/>
</g>
<!-- Node2&#45;&gt;Node9 -->
<g id="edge20" class="edge"><title>Node2&#45;&gt;Node9</title>
<path fill="none" stroke="midnightblue" d="M326.855,-66.606C300.489,-58.8548 251.118,-42.1532 205.619,-26.6045"/>
<polygon fill="midnightblue" stroke="midnightblue" points="206.573,-23.2319 195.979,-23.3078 204.308,-29.8553 206.573,-23.2319"/>
</g>
<!-- Node3&#45;&gt;Node2 -->
<g id="edge6" class="edge"><title>Node3&#45;&gt;Node2</title>
<path fill="none" stroke="midnightblue" d="M350.37,-23.6719C351.691,-31.1602 352.064,-41.4112 351.488,-50.4586"/>
<polygon fill="midnightblue" stroke="midnightblue" points="347.984,-50.2958 350.316,-60.6308 354.938,-51.0972 347.984,-50.2958"/>
</g>
<!-- Node8&#45;&gt;Node2 -->
<g id="edge18" class="edge"><title>Node8&#45;&gt;Node2</title>
<path fill="none" stroke="midnightblue" d="M653.987,-23.3344C652.983,-23.5648 651.986,-23.7872 651,-24 550.031,-45.8013 427.714,-61.9794 373.214,-68.2026"/>
<polygon fill="midnightblue" stroke="midnightblue" points="372.496,-64.7608 362.944,-69.3457 373.27,-71.7178 372.496,-64.7608"/>
</g>
<!-- Node9&#45;&gt;Node2 -->
<g id="edge22" class="edge"><title>Node9&#45;&gt;Node2</title>
<path fill="none" stroke="midnightblue" d="M198.084,-18.0467C204.099,-19.9198 210.331,-22.0601 216,-24 251.093,-36.0076 291.231,-49.6695 317.449,-59.1569"/>
<polygon fill="midnightblue" stroke="midnightblue" points="316.516,-62.5427 327.109,-62.7007 318.927,-55.9709 316.516,-62.5427"/>
</g>
<!-- Node10&#45;&gt;Node2 -->
<g id="edge32" class="edge"><title>Node10&#45;&gt;Node2</title>
<path fill="none" stroke="midnightblue" d="M404.128,-120.631C393.611,-112.159 378.528,-100.009 366.228,-90.1004"/>
<polygon fill="midnightblue" stroke="midnightblue" points="368.231,-87.2196 358.248,-83.6719 363.84,-92.6708 368.231,-87.2196"/>
</g>
<!-- Node10&#45;&gt;Node8 -->
<g id="edge34" class="edge"><title>Node10&#45;&gt;Node8</title>
<path fill="none" stroke="midnightblue" d="M438.195,-120.523C467.099,-106.338 520.597,-80.4467 567,-60 593.133,-48.4849 622.997,-36.3084 645.742,-27.2351"/>
<polygon fill="midnightblue" stroke="midnightblue" points="647.335,-30.3682 655.336,-23.4231 644.75,-23.8628 647.335,-30.3682"/>
</g>
</g>
</svg>
