<?xml version="1.0" encoding="UTF-8" standalone="no"?>
<!DOCTYPE svg PUBLIC "-//W3C//DTD SVG 1.1//EN"
 "http://www.w3.org/Graphics/SVG/1.1/DTD/svg11.dtd">
<!-- Generated by graphviz version 2.28.0 (20121015.0031)
 -->
<!-- Title: include/fa/midi.h Pages: 1 -->
<svg width="464pt" height="392pt"
 viewBox="0.00 0.00 464.00 392.00" xmlns="http://www.w3.org/2000/svg" xmlns:xlink="http://www.w3.org/1999/xlink">
<g id="graph1" class="graph" transform="scale(1 1) rotate(0) translate(4 388)">
<title>include/fa/midi.h</title>
<!-- Node1 -->
<g id="node1" class="node"><title>Node1</title>
<polygon fill="#bfbfbf" stroke="black" points="200.473,-360.695 200.473,-383.305 303.527,-383.305 303.527,-360.695 200.473,-360.695"/>
<text text-anchor="middle" x="252" y="-368.305" font-family="Futura" font-size="11.00">include/fa/midi.h</text>
</g>
<!-- Node2 -->
<g id="node3" class="node"><title>Node2</title>
<a xlink:href="list_8h.html" target="_top" xlink:title="fa/list.h">
<polygon fill="none" stroke="black" points="252.949,-300.695 252.949,-323.305 307.051,-323.305 307.051,-300.695 252.949,-300.695"/>
<text text-anchor="middle" x="280" y="-308.305" font-family="Futura" font-size="11.00">fa/list.h</text>
</a>
</g>
<!-- Node1&#45;&gt;Node2 -->
<g id="edge2" class="edge"><title>Node1&#45;&gt;Node2</title>
<path fill="none" stroke="midnightblue" d="M257.006,-360.631C260.742,-352.892 265.959,-342.084 270.48,-332.719"/>
<polygon fill="midnightblue" stroke="midnightblue" points="273.652,-334.199 274.848,-323.672 267.349,-331.156 273.652,-334.199"/>
</g>
<!-- Node4 -->
<g id="node7" class="node"><title>Node4</title>
<a xlink:href="error_8h.html" target="_top" xlink:title="fa/error.h">
<polygon fill="none" stroke="black" points="28.1614,-180.695 28.1614,-203.305 93.8386,-203.305 93.8386,-180.695 28.1614,-180.695"/>
<text text-anchor="middle" x="61" y="-188.305" font-family="Futura" font-size="11.00">fa/error.h</text>
</a>
</g>
<!-- Node1&#45;&gt;Node4 -->
<g id="edge56" class="edge"><title>Node1&#45;&gt;Node4</title>
<path fill="none" stroke="midnightblue" d="M240.905,-360.661C209.389,-331.29 119.07,-247.118 79.711,-210.437"/>
<polygon fill="midnightblue" stroke="midnightblue" points="81.827,-207.625 72.1252,-203.368 77.0546,-212.746 81.827,-207.625"/>
</g>
<!-- Node6 -->
<g id="node13" class="node"><title>Node6</title>
<a xlink:href="pair_8h.html" target="_top" xlink:title="fa/pair.h">
<polygon fill="none" stroke="black" points="297.694,-60.6953 297.694,-83.3047 358.306,-83.3047 358.306,-60.6953 297.694,-60.6953"/>
<text text-anchor="middle" x="328" y="-68.3047" font-family="Futura" font-size="11.00">fa/pair.h</text>
</a>
</g>
<!-- Node1&#45;&gt;Node6 -->
<g id="edge50" class="edge"><title>Node1&#45;&gt;Node6</title>
<path fill="none" stroke="midnightblue" d="M303.742,-363.904C364.179,-352.365 456,-323.271 456,-253 456,-253 456,-253 456,-191 456,-140.568 401.621,-105.748 363.751,-87.6136"/>
<polygon fill="midnightblue" stroke="midnightblue" points="365.069,-84.3673 354.522,-83.3633 362.141,-90.7255 365.069,-84.3673"/>
</g>
<!-- Node7 -->
<g id="node19" class="node"><title>Node7</title>
<a xlink:href="time_8h.html" target="_top" xlink:title="fa/time.h">
<polygon fill="none" stroke="black" points="150.157,-60.6953 150.157,-83.3047 211.843,-83.3047 211.843,-60.6953 150.157,-60.6953"/>
<text text-anchor="middle" x="181" y="-68.3047" font-family="Futura" font-size="11.00">fa/time.h</text>
</a>
</g>
<!-- Node1&#45;&gt;Node7 -->
<g id="edge54" class="edge"><title>Node1&#45;&gt;Node7</title>
<path fill="none" stroke="midnightblue" d="M200.396,-369.113C126.67,-363.347 0,-340.681 0,-253 0,-253 0,-253 0,-191 0,-124.572 86.6107,-93.582 140.007,-80.7886"/>
<polygon fill="midnightblue" stroke="midnightblue" points="140.913,-84.172 149.885,-78.5372 139.357,-77.347 140.913,-84.172"/>
</g>
<!-- Node9 -->
<g id="node25" class="node"><title>Node9</title>
<a xlink:href="action_8h.html" target="_top" xlink:title="fa/action.h">
<polygon fill="none" stroke="black" points="318.309,-180.695 318.309,-203.305 389.691,-203.305 389.691,-180.695 318.309,-180.695"/>
<text text-anchor="middle" x="354" y="-188.305" font-family="Futura" font-size="11.00">fa/action.h</text>
</a>
</g>
<!-- Node1&#45;&gt;Node9 -->
<g id="edge52" class="edge"><title>Node1&#45;&gt;Node9</title>
<path fill="none" stroke="midnightblue" d="M272.704,-360.54C286.842,-352.394 304.946,-339.821 316,-324 339.841,-289.878 348.858,-240.851 352.168,-213.476"/>
<polygon fill="midnightblue" stroke="midnightblue" points="355.652,-213.805 353.234,-203.49 348.692,-213.061 355.652,-213.805"/>
</g>
<!-- Node3 -->
<g id="node5" class="node"><title>Node3</title>
<a xlink:href="fa_2fa_8h.html" target="_top" xlink:title="fa.h">
<polygon fill="none" stroke="red" points="207.273,-240.695 207.273,-263.305 242.727,-263.305 242.727,-240.695 207.273,-240.695"/>
<text text-anchor="middle" x="225" y="-248.305" font-family="Futura" font-size="11.00">fa.h</text>
</a>
</g>
<!-- Node2&#45;&gt;Node3 -->
<g id="edge4" class="edge"><title>Node2&#45;&gt;Node3</title>
<path fill="none" stroke="midnightblue" d="M264.851,-300.631C255.739,-292.566 244.588,-281.168 236.241,-271.544"/>
<polygon fill="midnightblue" stroke="midnightblue" points="238.812,-269.161 229.75,-263.672 233.411,-273.614 238.812,-269.161"/>
</g>
<!-- Node3&#45;&gt;Node1 -->
<g id="edge22" class="edge"><title>Node3&#45;&gt;Node1</title>
<path fill="none" stroke="midnightblue" d="M227.43,-263.618C231.907,-283.187 241.532,-325.25 247.317,-350.534"/>
<polygon fill="midnightblue" stroke="midnightblue" points="243.962,-351.561 249.604,-360.528 250.785,-350 243.962,-351.561"/>
</g>
<!-- Node3&#45;&gt;Node2 -->
<g id="edge20" class="edge"><title>Node3&#45;&gt;Node2</title>
<path fill="none" stroke="midnightblue" d="M240.49,-263.672C249.652,-271.819 260.793,-283.235 269.069,-292.814"/>
<polygon fill="midnightblue" stroke="midnightblue" points="266.434,-295.12 275.483,-300.631 271.845,-290.68 266.434,-295.12"/>
</g>
<!-- Node3&#45;&gt;Node4 -->
<g id="edge6" class="edge"><title>Node3&#45;&gt;Node4</title>
<path fill="none" stroke="midnightblue" d="M207.038,-246.055C179.893,-237.478 128.576,-219.551 94.4887,-206.917"/>
<polygon fill="midnightblue" stroke="midnightblue" points="95.5301,-203.57 84.9377,-203.344 93.0776,-210.126 95.5301,-203.57"/>
</g>
<!-- Node3&#45;&gt;Node6 -->
<g id="edge14" class="edge"><title>Node3&#45;&gt;Node6</title>
<path fill="none" stroke="midnightblue" d="M219.895,-240.407C215.239,-216.626 217.324,-158.104 244,-120 254.608,-104.847 271.823,-93.5527 288.021,-85.8384"/>
<polygon fill="midnightblue" stroke="midnightblue" points="289.647,-88.9467 297.383,-81.708 286.822,-82.5423 289.647,-88.9467"/>
</g>
<!-- Node3&#45;&gt;Node7 -->
<g id="edge24" class="edge"><title>Node3&#45;&gt;Node7</title>
<path fill="none" stroke="midnightblue" d="M211.647,-240.549C204.499,-231.264 197.173,-217.163 193,-204 180.993,-166.131 175.633,-119.826 176.166,-93.6414"/>
<polygon fill="midnightblue" stroke="midnightblue" points="179.673,-93.6255 176.787,-83.4314 172.686,-93.2004 179.673,-93.6255"/>
</g>
<!-- Node3&#45;&gt;Node9 -->
<g id="edge32" class="edge"><title>Node3&#45;&gt;Node9</title>
<path fill="none" stroke="midnightblue" d="M242.747,-240.631C261.665,-231.368 291.844,-217.709 316.073,-207.39"/>
<polygon fill="midnightblue" stroke="midnightblue" points="317.51,-210.582 325.367,-203.475 314.793,-204.131 317.51,-210.582"/>
</g>
<!-- Node10 -->
<g id="node30" class="node"><title>Node10</title>
<a xlink:href="signal_8h.html" target="_top" xlink:title="fa/signal.h">
<polygon fill="none" stroke="red" points="261.846,-120.695 261.846,-143.305 332.154,-143.305 332.154,-120.695 261.846,-120.695"/>
<text text-anchor="middle" x="297" y="-128.305" font-family="Futura" font-size="11.00">fa/signal.h</text>
</a>
</g>
<!-- Node3&#45;&gt;Node10 -->
<g id="edge48" class="edge"><title>Node3&#45;&gt;Node10</title>
<path fill="none" stroke="midnightblue" d="M227.343,-240.528C236.278,-220.635 262.469,-177.126 280.305,-151.975"/>
<polygon fill="midnightblue" stroke="midnightblue" points="283.346,-153.748 286.451,-143.618 277.707,-149.601 283.346,-153.748"/>
</g>
<!-- Node4&#45;&gt;Node3 -->
<g id="edge8" class="edge"><title>Node4&#45;&gt;Node3</title>
<path fill="none" stroke="midnightblue" d="M94.0312,-202.837C124.532,-212.94 169.088,-228.661 197.654,-239.373"/>
<polygon fill="midnightblue" stroke="midnightblue" points="196.45,-242.659 207.041,-242.935 198.934,-236.115 196.45,-242.659"/>
</g>
<!-- Node5 -->
<g id="node10" class="node"><title>Node5</title>
<a xlink:href="string_8h.html" target="_top" xlink:title="fa/string.h">
<polygon fill="none" stroke="black" points="74.8696,-0.695312 74.8696,-23.3047 143.13,-23.3047 143.13,-0.695312 74.8696,-0.695312"/>
<text text-anchor="middle" x="109" y="-8.30469" font-family="Futura" font-size="11.00">fa/string.h</text>
</a>
</g>
<!-- Node4&#45;&gt;Node5 -->
<g id="edge10" class="edge"><title>Node4&#45;&gt;Node5</title>
<path fill="none" stroke="midnightblue" d="M63.7882,-180.661C71.5096,-152.027 93.2762,-71.3093 103.529,-33.2881"/>
<polygon fill="midnightblue" stroke="midnightblue" points="106.98,-33.9344 106.204,-23.368 100.221,-32.1118 106.98,-33.9344"/>
</g>
<!-- Node5&#45;&gt;Node3 -->
<g id="edge12" class="edge"><title>Node5&#45;&gt;Node3</title>
<path fill="none" stroke="midnightblue" d="M112.78,-23.7083C123.414,-53.3121 155.219,-138.405 192,-204 197.501,-213.811 204.562,-224.102 210.74,-232.545"/>
<polygon fill="midnightblue" stroke="midnightblue" points="207.96,-234.671 216.756,-240.577 213.562,-230.475 207.96,-234.671"/>
</g>
<!-- Node6&#45;&gt;Node2 -->
<g id="edge18" class="edge"><title>Node6&#45;&gt;Node2</title>
<path fill="none" stroke="midnightblue" d="M341.108,-83.6002C366.565,-105.55 418.476,-157.792 398,-204 379.702,-245.294 336.723,-277.449 308.002,-295.32"/>
<polygon fill="midnightblue" stroke="midnightblue" points="305.983,-292.45 299.228,-300.613 309.599,-298.444 305.983,-292.45"/>
</g>
<!-- Node6&#45;&gt;Node3 -->
<g id="edge16" class="edge"><title>Node6&#45;&gt;Node3</title>
<path fill="none" stroke="midnightblue" d="M308.89,-83.3561C293.805,-91.0453 273.809,-103.132 262,-120 238.554,-153.49 234.105,-202.752 230.705,-230.337"/>
<polygon fill="midnightblue" stroke="midnightblue" points="227.215,-230.022 229.312,-240.407 234.149,-230.981 227.215,-230.022"/>
</g>
<!-- Node7&#45;&gt;Node3 -->
<g id="edge26" class="edge"><title>Node7&#45;&gt;Node3</title>
<path fill="none" stroke="midnightblue" d="M186.459,-83.4314C192.192,-105.936 197.217,-160.527 211,-204 213.934,-213.255 218.427,-222.974 222.011,-231.157"/>
<polygon fill="midnightblue" stroke="midnightblue" points="218.835,-232.635 225.879,-240.549 225.307,-229.969 218.835,-232.635"/>
</g>
<!-- Node7&#45;&gt;Node5 -->
<g id="edge30" class="edge"><title>Node7&#45;&gt;Node5</title>
<path fill="none" stroke="midnightblue" d="M168.128,-60.6308C157.611,-52.159 142.528,-40.0087 130.228,-30.1004"/>
<polygon fill="midnightblue" stroke="midnightblue" points="132.231,-27.2196 122.248,-23.6719 127.84,-32.6708 132.231,-27.2196"/>
</g>
<!-- Node8 -->
<g id="node22" class="node"><title>Node8</title>
<a xlink:href="ratio_8h.html" target="_top" xlink:title="fa/ratio.h">
<polygon fill="none" stroke="red" points="160.927,-0.695312 160.927,-23.3047 225.073,-23.3047 225.073,-0.695312 160.927,-0.695312"/>
<text text-anchor="middle" x="193" y="-8.30469" font-family="Futura" font-size="11.00">fa/ratio.h</text>
</a>
</g>
<!-- Node7&#45;&gt;Node8 -->
<g id="edge28" class="edge"><title>Node7&#45;&gt;Node8</title>
<path fill="none" stroke="midnightblue" d="M183.145,-60.6308C184.696,-53.1365 186.842,-42.7636 188.736,-33.6107"/>
<polygon fill="midnightblue" stroke="midnightblue" points="192.193,-34.1736 190.792,-23.6719 185.338,-32.7553 192.193,-34.1736"/>
</g>
<!-- Node9&#45;&gt;Node2 -->
<g id="edge38" class="edge"><title>Node9&#45;&gt;Node2</title>
<path fill="none" stroke="midnightblue" d="M347.341,-203.618C334.849,-223.538 307.74,-266.767 291.992,-291.878"/>
<polygon fill="midnightblue" stroke="midnightblue" points="288.915,-290.197 286.567,-300.528 294.845,-293.916 288.915,-290.197"/>
</g>
<!-- Node9&#45;&gt;Node3 -->
<g id="edge34" class="edge"><title>Node9&#45;&gt;Node3</title>
<path fill="none" stroke="midnightblue" d="M335.98,-203.503C314.14,-214.184 277.57,-230.61 252.304,-241.077"/>
<polygon fill="midnightblue" stroke="midnightblue" points="250.844,-237.892 242.9,-244.903 253.482,-244.376 250.844,-237.892"/>
</g>
<!-- Node9&#45;&gt;Node6 -->
<g id="edge36" class="edge"><title>Node9&#45;&gt;Node6</title>
<path fill="none" stroke="midnightblue" d="M352.354,-180.354C350.129,-166.415 345.875,-141.253 341,-120 338.973,-111.164 336.368,-101.497 334.022,-93.24"/>
<polygon fill="midnightblue" stroke="midnightblue" points="337.31,-92.0123 331.159,-83.3861 330.588,-93.9656 337.31,-92.0123"/>
</g>
<!-- Node9&#45;&gt;Node10 -->
<g id="edge40" class="edge"><title>Node9&#45;&gt;Node10</title>
<path fill="none" stroke="midnightblue" d="M343.81,-180.631C335.724,-172.403 324.229,-160.707 314.654,-150.963"/>
<polygon fill="midnightblue" stroke="midnightblue" points="316.994,-148.351 307.488,-143.672 312.001,-153.257 316.994,-148.351"/>
</g>
<!-- Node10&#45;&gt;Node3 -->
<g id="edge42" class="edge"><title>Node10&#45;&gt;Node3</title>
<path fill="none" stroke="midnightblue" d="M294.592,-143.618C285.572,-163.626 259.359,-207.148 241.564,-232.208"/>
<polygon fill="midnightblue" stroke="midnightblue" points="238.549,-230.401 235.436,-240.528 244.185,-234.552 238.549,-230.401"/>
</g>
<!-- Node10&#45;&gt;Node6 -->
<g id="edge44" class="edge"><title>Node10&#45;&gt;Node6</title>
<path fill="none" stroke="midnightblue" d="M302.542,-120.631C306.678,-112.892 312.455,-102.084 317.46,-92.7193"/>
<polygon fill="midnightblue" stroke="midnightblue" points="320.669,-94.141 322.296,-83.6719 314.495,-90.8414 320.669,-94.141"/>
</g>
<!-- Node10&#45;&gt;Node7 -->
<g id="edge46" class="edge"><title>Node10&#45;&gt;Node7</title>
<path fill="none" stroke="midnightblue" d="M276.262,-120.631C258.147,-111.573 231.622,-98.3109 211.159,-88.0794"/>
<polygon fill="midnightblue" stroke="midnightblue" points="212.46,-84.8167 201.95,-83.475 209.329,-91.0777 212.46,-84.8167"/>
</g>
</g>
</svg>
