<?xml version="1.0" encoding="UTF-8" standalone="no"?>
<!DOCTYPE svg PUBLIC "-//W3C//DTD SVG 1.1//EN"
 "http://www.w3.org/Graphics/SVG/1.1/DTD/svg11.dtd">
<!-- Generated by graphviz version 2.28.0 (20121015.0031)
 -->
<!-- Title: include/fa/midi.h Pages: 1 -->
<svg width="745pt" height="272pt"
 viewBox="0.00 0.00 745.37 272.00" xmlns="http://www.w3.org/2000/svg" xmlns:xlink="http://www.w3.org/1999/xlink">
<g id="graph1" class="graph" transform="scale(1 1) rotate(0) translate(4 268)">
<title>include/fa/midi.h</title>
<!-- Node1 -->
<g id="node1" class="node"><title>Node1</title>
<polygon fill="#bfbfbf" stroke="black" points="475.473,-240.695 475.473,-263.305 578.527,-263.305 578.527,-240.695 475.473,-240.695"/>
<text text-anchor="middle" x="527" y="-248.305" font-family="Futura" font-size="11.00">include/fa/midi.h</text>
</g>
<!-- Node2 -->
<g id="node3" class="node"><title>Node2</title>
<a xlink:href="fa_2fa_8h.html" target="_top" xlink:title="include/fa/fa.h">
<polygon fill="none" stroke="red" points="406.846,-180.695 406.846,-203.305 499.154,-203.305 499.154,-180.695 406.846,-180.695"/>
<text text-anchor="middle" x="453" y="-188.305" font-family="Futura" font-size="11.00">include/fa/fa.h</text>
</a>
</g>
<!-- Node1&#45;&gt;Node2 -->
<g id="edge2" class="edge"><title>Node1&#45;&gt;Node2</title>
<path fill="none" stroke="midnightblue" d="M505.63,-234.251C493.058,-224.396 477.535,-212.23 466.616,-203.672"/>
<polygon fill="midnightblue" stroke="midnightblue" points="503.741,-237.217 513.77,-240.631 508.059,-231.707 503.741,-237.217"/>
</g>
<!-- Node3 -->
<g id="node5" class="node"><title>Node3</title>
<a xlink:href="action_8h.html" target="_top" xlink:title="include/fa/action.h">
<polygon fill="none" stroke="red" points="521.746,-0.695312 521.746,-23.3047 634.254,-23.3047 634.254,-0.695312 521.746,-0.695312"/>
<text text-anchor="middle" x="578" y="-8.30469" font-family="Futura" font-size="11.00">include/fa/action.h</text>
</a>
</g>
<!-- Node2&#45;&gt;Node3 -->
<g id="edge4" class="edge"><title>Node2&#45;&gt;Node3</title>
<path fill="none" stroke="midnightblue" d="M493.891,-176.761C510.394,-169.526 528.201,-158.995 540,-144 568.953,-107.205 570.318,-47.4321 573.925,-23.4467"/>
<polygon fill="midnightblue" stroke="midnightblue" points="492.312,-173.625 484.38,-180.648 494.961,-180.105 492.312,-173.625"/>
</g>
<!-- Node4 -->
<g id="node9" class="node"><title>Node4</title>
<a xlink:href="buffer_8h.html" target="_top" xlink:title="include/fa/buffer.h">
<polygon fill="none" stroke="red" points="-0.773193,-0.695312 -0.773193,-23.3047 110.773,-23.3047 110.773,-0.695312 -0.773193,-0.695312"/>
<text text-anchor="middle" x="55" y="-8.30469" font-family="Futura" font-size="11.00">include/fa/buffer.h</text>
</a>
</g>
<!-- Node2&#45;&gt;Node4 -->
<g id="edge10" class="edge"><title>Node2&#45;&gt;Node4</title>
<path fill="none" stroke="midnightblue" d="M396.621,-189.293C313.467,-185.75 163.117,-175.122 120,-144 78.2099,-113.836 61.8243,-49.1374 56.8309,-23.6411"/>
<polygon fill="midnightblue" stroke="midnightblue" points="396.528,-192.792 406.662,-189.7 396.812,-185.797 396.528,-192.792"/>
</g>
<!-- Node5 -->
<g id="node11" class="node"><title>Node5</title>
<a xlink:href="clock_8h.html" target="_top" xlink:title="include/fa/clock.h">
<polygon fill="none" stroke="red" points="176.978,-120.695 176.978,-143.305 285.022,-143.305 285.022,-120.695 176.978,-120.695"/>
<text text-anchor="middle" x="231" y="-128.305" font-family="Futura" font-size="11.00">include/fa/clock.h</text>
</a>
</g>
<!-- Node2&#45;&gt;Node5 -->
<g id="edge12" class="edge"><title>Node2&#45;&gt;Node5</title>
<path fill="none" stroke="midnightblue" d="M403.492,-178.066C363.47,-167.609 307.866,-153.082 270.719,-143.377"/>
<polygon fill="midnightblue" stroke="midnightblue" points="402.751,-181.489 413.311,-180.631 404.52,-174.717 402.751,-181.489"/>
</g>
<!-- Node6 -->
<g id="node13" class="node"><title>Node6</title>
<a xlink:href="dynamic_8h.html" target="_top" xlink:title="include/fa/dynamic.h">
<polygon fill="none" stroke="black" points="302.918,-120.695 302.918,-143.305 427.082,-143.305 427.082,-120.695 302.918,-120.695"/>
<text text-anchor="middle" x="365" y="-128.305" font-family="Futura" font-size="11.00">include/fa/dynamic.h</text>
</a>
</g>
<!-- Node2&#45;&gt;Node6 -->
<g id="edge14" class="edge"><title>Node2&#45;&gt;Node6</title>
<path fill="none" stroke="midnightblue" d="M428.816,-175.061C413.545,-164.996 394.248,-152.277 380.893,-143.475"/>
<polygon fill="midnightblue" stroke="midnightblue" points="426.992,-178.05 437.267,-180.631 430.844,-172.205 426.992,-178.05"/>
</g>
<!-- Node7 -->
<g id="node15" class="node"><title>Node7</title>
<a xlink:href="error_8h.html" target="_top" xlink:title="include/fa/error.h">
<polygon fill="none" stroke="red" points="614.598,-120.695 614.598,-143.305 721.402,-143.305 721.402,-120.695 614.598,-120.695"/>
<text text-anchor="middle" x="668" y="-128.305" font-family="Futura" font-size="11.00">include/fa/error.h</text>
</a>
</g>
<!-- Node2&#45;&gt;Node7 -->
<g id="edge16" class="edge"><title>Node2&#45;&gt;Node7</title>
<path fill="none" stroke="midnightblue" d="M496.169,-177.799C533.405,-167.363 586.799,-153 624.216,-143.377"/>
<polygon fill="midnightblue" stroke="midnightblue" points="494.797,-174.549 486.122,-180.631 496.696,-181.287 494.797,-174.549"/>
</g>
<!-- Node8 -->
<g id="node19" class="node"><title>Node8</title>
<a xlink:href="list_8h.html" target="_top" xlink:title="include/fa/list.h">
<polygon fill="none" stroke="red" points="445.385,-120.695 445.385,-143.305 540.615,-143.305 540.615,-120.695 445.385,-120.695"/>
<text text-anchor="middle" x="493" y="-128.305" font-family="Futura" font-size="11.00">include/fa/list.h</text>
</a>
</g>
<!-- Node2&#45;&gt;Node8 -->
<g id="edge22" class="edge"><title>Node2&#45;&gt;Node8</title>
<path fill="none" stroke="midnightblue" d="M459.942,-171.644C465.686,-162.318 473.5,-151.489 480.27,-143.672"/>
<polygon fill="midnightblue" stroke="midnightblue" points="456.733,-170.207 454.835,-180.631 462.819,-173.666 456.733,-170.207"/>
</g>
<!-- Node9 -->
<g id="node23" class="node"><title>Node9</title>
<a xlink:href="map_8h.html" target="_top" xlink:title="include/fa/map.h">
<polygon fill="none" stroke="red" points="128.914,-0.695312 128.914,-23.3047 233.086,-23.3047 233.086,-0.695312 128.914,-0.695312"/>
<text text-anchor="middle" x="181" y="-8.30469" font-family="Futura" font-size="11.00">include/fa/map.h</text>
</a>
</g>
<!-- Node2&#45;&gt;Node9 -->
<g id="edge44" class="edge"><title>Node2&#45;&gt;Node9</title>
<path fill="none" stroke="midnightblue" d="M396.483,-187.175C321.88,-181.265 195.378,-168.008 156,-144 120.015,-122.061 92.299,-97.2568 112,-60 121.011,-42.9586 139.283,-30.9384 154.761,-23.3217"/>
<polygon fill="midnightblue" stroke="midnightblue" points="396.411,-190.679 406.651,-187.96 396.95,-183.7 396.411,-190.679"/>
</g>
<!-- Node10 -->
<g id="node26" class="node"><title>Node10</title>
<a xlink:href="pair_8h.html" target="_top" xlink:title="include/fa/pair.h">
<polygon fill="none" stroke="red" points="121.131,-60.6953 121.131,-83.3047 222.869,-83.3047 222.869,-60.6953 121.131,-60.6953"/>
<text text-anchor="middle" x="172" y="-68.3047" font-family="Futura" font-size="11.00">include/fa/pair.h</text>
</a>
</g>
<!-- Node2&#45;&gt;Node10 -->
<g id="edge46" class="edge"><title>Node2&#45;&gt;Node10</title>
<path fill="none" stroke="midnightblue" d="M396.753,-190.205C319.881,-187.855 188.5,-178.763 159,-144 144.541,-126.962 152.528,-98.5243 161.629,-83.324"/>
<polygon fill="midnightblue" stroke="midnightblue" points="396.671,-193.703 406.764,-190.482 396.865,-186.706 396.671,-193.703"/>
</g>
<!-- Node3&#45;&gt;Node1 -->
<g id="edge8" class="edge"><title>Node3&#45;&gt;Node1</title>
<path fill="none" stroke="midnightblue" d="M619.504,-26.8503C674.832,-47.7198 762.256,-90.5354 730,-144 696.66,-199.261 624.224,-227.431 575.524,-240.667"/>
<polygon fill="midnightblue" stroke="midnightblue" points="620.511,-23.4918 609.918,-23.3309 618.099,-30.063 620.511,-23.4918"/>
</g>
<!-- Node3&#45;&gt;Node2 -->
<g id="edge6" class="edge"><title>Node3&#45;&gt;Node2</title>
<path fill="none" stroke="midnightblue" d="M584.745,-33.6302C587.583,-61.5715 583.447,-111.661 558,-144 543.656,-162.229 520.431,-173.862 499.371,-180.994"/>
<polygon fill="midnightblue" stroke="midnightblue" points="588.162,-32.8144 583.212,-23.4467 581.24,-33.8563 588.162,-32.8144"/>
</g>
<!-- Node7&#45;&gt;Node1 -->
<g id="edge20" class="edge"><title>Node7&#45;&gt;Node1</title>
<path fill="none" stroke="midnightblue" d="M647.271,-150.348C617.567,-175.206 563.805,-220.199 539.513,-240.528"/>
<polygon fill="midnightblue" stroke="midnightblue" points="649.89,-152.72 655.313,-143.618 645.397,-147.352 649.89,-152.72"/>
</g>
<!-- Node7&#45;&gt;Node2 -->
<g id="edge18" class="edge"><title>Node7&#45;&gt;Node2</title>
<path fill="none" stroke="midnightblue" d="M624.801,-146.21C587.556,-156.647 534.162,-171.011 496.754,-180.631"/>
<polygon fill="midnightblue" stroke="midnightblue" points="626.175,-149.459 634.851,-143.377 624.276,-142.721 626.175,-149.459"/>
</g>
<!-- Node8&#45;&gt;Node1 -->
<g id="edge30" class="edge"><title>Node8&#45;&gt;Node1</title>
<path fill="none" stroke="midnightblue" d="M499.613,-152.998C502.305,-161.32 505.391,-171.1 508,-180 514.247,-201.306 520.779,-226.449 524.323,-240.371"/>
<polygon fill="midnightblue" stroke="midnightblue" points="502.913,-151.828 496.479,-143.41 496.259,-154.003 502.913,-151.828"/>
</g>
<!-- Node8&#45;&gt;Node2 -->
<g id="edge26" class="edge"><title>Node8&#45;&gt;Node2</title>
<path fill="none" stroke="midnightblue" d="M486.016,-152.424C480.201,-161.856 472.281,-172.811 465.467,-180.631"/>
<polygon fill="midnightblue" stroke="midnightblue" points="489.094,-154.092 491.01,-143.672 483.014,-150.623 489.094,-154.092"/>
</g>
<!-- Node8&#45;&gt;Node3 -->
<g id="edge24" class="edge"><title>Node8&#45;&gt;Node3</title>
<path fill="none" stroke="midnightblue" d="M506.536,-112.208C524.588,-87.148 555.939,-43.6261 570.352,-23.6179"/>
<polygon fill="midnightblue" stroke="midnightblue" points="503.548,-110.369 500.543,-120.528 509.228,-114.46 503.548,-110.369"/>
</g>
<!-- Node8&#45;&gt;Node9 -->
<g id="edge28" class="edge"><title>Node8&#45;&gt;Node9</title>
<path fill="none" stroke="midnightblue" d="M455.998,-117.005C392.681,-93.059 264.955,-44.7522 208.687,-23.4715"/>
<polygon fill="midnightblue" stroke="midnightblue" points="454.994,-120.368 465.586,-120.632 457.47,-113.82 454.994,-120.368"/>
</g>
<!-- Node8&#45;&gt;Node10 -->
<g id="edge32" class="edge"><title>Node8&#45;&gt;Node10</title>
<path fill="none" stroke="midnightblue" d="M434.887,-119.812C355.099,-105.057 274.173,-90.7899 223.143,-81.8794"/>
<polygon fill="midnightblue" stroke="midnightblue" points="434.645,-123.326 445.116,-121.707 435.921,-116.444 434.645,-123.326"/>
</g>
<!-- Node10&#45;&gt;Node1 -->
<g id="edge42" class="edge"><title>Node10&#45;&gt;Node1</title>
<path fill="none" stroke="midnightblue" d="M159.536,-92.8909C151.674,-108.234 144.908,-129.257 156,-144 194.538,-195.224 382.555,-229.63 475.2,-243.758"/>
<polygon fill="midnightblue" stroke="midnightblue" points="162.825,-94.1824 164.683,-83.7518 156.726,-90.7471 162.825,-94.1824"/>
</g>
<!-- Node10&#45;&gt;Node2 -->
<g id="edge38" class="edge"><title>Node10&#45;&gt;Node2</title>
<path fill="none" stroke="midnightblue" d="M171.268,-93.5617C168.264,-109.198 165.365,-130.29 177,-144 206.283,-178.508 335.956,-187.72 406.741,-190.152"/>
<polygon fill="midnightblue" stroke="midnightblue" points="174.786,-93.8095 173.267,-83.324 167.915,-92.4678 174.786,-93.8095"/>
</g>
<!-- Node10&#45;&gt;Node3 -->
<g id="edge34" class="edge"><title>Node10&#45;&gt;Node3</title>
<path fill="none" stroke="midnightblue" d="M233.198,-62.2574C311.44,-51.0799 445.837,-31.8804 521.666,-21.0477"/>
<polygon fill="midnightblue" stroke="midnightblue" points="232.414,-58.8339 223.009,-63.713 233.404,-65.7635 232.414,-58.8339"/>
</g>
<!-- Node10&#45;&gt;Node4 -->
<g id="edge36" class="edge"><title>Node10&#45;&gt;Node4</title>
<path fill="none" stroke="midnightblue" d="M142.101,-56.1782C121.472,-45.952 94.5505,-32.6062 76.1306,-23.475"/>
<polygon fill="midnightblue" stroke="midnightblue" points="140.569,-59.3251 151.083,-60.6308 143.678,-53.0534 140.569,-59.3251"/>
</g>
<!-- Node10&#45;&gt;Node9 -->
<g id="edge40" class="edge"><title>Node10&#45;&gt;Node9</title>
<path fill="none" stroke="midnightblue" d="M175.187,-50.4586C176.591,-41.4112 178.182,-31.1602 179.344,-23.6719"/>
<polygon fill="midnightblue" stroke="midnightblue" points="171.684,-50.2123 173.609,-60.6308 178.601,-51.2857 171.684,-50.2123"/>
</g>
</g>
</svg>
