<?xml version="1.0" encoding="UTF-8" standalone="no"?>
<!DOCTYPE svg PUBLIC "-//W3C//DTD SVG 1.1//EN"
 "http://www.w3.org/Graphics/SVG/1.1/DTD/svg11.dtd">
<!-- Generated by graphviz version 2.28.0 (20121015.0031)
 -->
<!-- Title: include/fa/plot.h Pages: 1 -->
<svg width="707pt" height="272pt"
 viewBox="0.00 0.00 707.49 272.00" xmlns="http://www.w3.org/2000/svg" xmlns:xlink="http://www.w3.org/1999/xlink">
<g id="graph1" class="graph" transform="scale(1 1) rotate(0) translate(4 268)">
<title>include/fa/plot.h</title>
<!-- Node1 -->
<g id="node1" class="node"><title>Node1</title>
<polygon fill="#bfbfbf" stroke="black" points="381.3,-240.695 381.3,-263.305 482.598,-263.305 482.598,-240.695 381.3,-240.695"/>
<text text-anchor="middle" x="431.949" y="-248.305" font-family="Futura" font-size="11.00">include/fa/plot.h</text>
</g>
<!-- Node2 -->
<g id="node3" class="node"><title>Node2</title>
<a xlink:href="fa_2fa_8h.html" target="_top" xlink:title="fa.h">
<polygon fill="none" stroke="red" points="414.222,-120.695 414.222,-143.305 449.676,-143.305 449.676,-120.695 414.222,-120.695"/>
<text text-anchor="middle" x="431.949" y="-128.305" font-family="Futura" font-size="11.00">fa.h</text>
</a>
</g>
<!-- Node1&#45;&gt;Node2 -->
<g id="edge2" class="edge"><title>Node1&#45;&gt;Node2</title>
<path fill="none" stroke="midnightblue" d="M427.902,-240.528C424.769,-221.071 424.359,-179.023 426.673,-153.656"/>
<polygon fill="midnightblue" stroke="midnightblue" points="430.161,-153.964 427.878,-143.618 423.211,-153.129 430.161,-153.964"/>
</g>
<!-- Node4 -->
<g id="node8" class="node"><title>Node4</title>
<a xlink:href="std_8h.html" target="_top" xlink:title="fa/std.h">
<polygon fill="none" stroke="red" points="492.339,-0.695312 492.339,-23.3047 547.559,-23.3047 547.559,-0.695312 492.339,-0.695312"/>
<text text-anchor="middle" x="519.949" y="-8.30469" font-family="Futura" font-size="11.00">fa/std.h</text>
</a>
</g>
<!-- Node1&#45;&gt;Node4 -->
<g id="edge24" class="edge"><title>Node1&#45;&gt;Node4</title>
<path fill="none" stroke="midnightblue" d="M381.091,-245.953C248.946,-231.023 -87.5888,-180.362 21.9488,-60 52.7737,-26.129 370.933,-16.1655 481.967,-13.7076"/>
<polygon fill="midnightblue" stroke="midnightblue" points="482.126,-17.2051 492.049,-13.4926 481.977,-10.2067 482.126,-17.2051"/>
</g>
<!-- Node10 -->
<g id="node23" class="node"><title>Node10</title>
<a xlink:href="buffer_8h.html" target="_top" xlink:title="fa/buffer.h">
<polygon fill="none" stroke="red" points="468.739,-180.695 468.739,-203.305 539.159,-203.305 539.159,-180.695 468.739,-180.695"/>
<text text-anchor="middle" x="503.949" y="-188.305" font-family="Futura" font-size="11.00">fa/buffer.h</text>
</a>
</g>
<!-- Node1&#45;&gt;Node10 -->
<g id="edge26" class="edge"><title>Node1&#45;&gt;Node10</title>
<path fill="none" stroke="midnightblue" d="M444.821,-240.631C455.338,-232.159 470.421,-220.009 482.721,-210.1"/>
<polygon fill="midnightblue" stroke="midnightblue" points="485.109,-212.671 490.701,-203.672 480.718,-207.22 485.109,-212.671"/>
</g>
<!-- Node2&#45;&gt;Node1 -->
<g id="edge22" class="edge"><title>Node2&#45;&gt;Node1</title>
<path fill="none" stroke="midnightblue" d="M436.019,-143.618C439.138,-163.187 439.534,-205.25 437.208,-230.534"/>
<polygon fill="midnightblue" stroke="midnightblue" points="433.725,-230.18 435.996,-240.528 440.674,-231.022 433.725,-230.18"/>
</g>
<!-- Node3 -->
<g id="node5" class="node"><title>Node3</title>
<a xlink:href="atomic_8h.html" target="_top" xlink:title="fa/atomic.h">
<polygon fill="none" stroke="black" points="482.886,-60.6953 482.886,-83.3047 557.012,-83.3047 557.012,-60.6953 482.886,-60.6953"/>
<text text-anchor="middle" x="519.949" y="-68.3047" font-family="Futura" font-size="11.00">fa/atomic.h</text>
</a>
</g>
<!-- Node2&#45;&gt;Node3 -->
<g id="edge4" class="edge"><title>Node2&#45;&gt;Node3</title>
<path fill="none" stroke="midnightblue" d="M442.366,-120.631C454.189,-111.778 473.459,-98.9089 489.926,-88.7784"/>
<polygon fill="midnightblue" stroke="midnightblue" points="491.965,-91.6362 498.721,-83.475 488.35,-85.6418 491.965,-91.6362"/>
</g>
<!-- Node5 -->
<g id="node10" class="node"><title>Node5</title>
<a xlink:href="queue_8h.html" target="_top" xlink:title="fa/atomic/queue.h">
<polygon fill="none" stroke="red" points="574.597,-60.6953 574.597,-83.3047 685.3,-83.3047 685.3,-60.6953 574.597,-60.6953"/>
<text text-anchor="middle" x="629.949" y="-68.3047" font-family="Futura" font-size="11.00">fa/atomic/queue.h</text>
</a>
</g>
<!-- Node2&#45;&gt;Node5 -->
<g id="edge10" class="edge"><title>Node2&#45;&gt;Node5</title>
<path fill="none" stroke="midnightblue" d="M449.869,-125.751C480.161,-116.877 542.36,-98.6574 585.103,-86.1365"/>
<polygon fill="midnightblue" stroke="midnightblue" points="586.101,-89.4915 594.714,-83.3214 584.133,-82.7738 586.101,-89.4915"/>
</g>
<!-- Node6 -->
<g id="node12" class="node"><title>Node6</title>
<a xlink:href="stack_8h.html" target="_top" xlink:title="fa/atomic/stack.h">
<polygon fill="none" stroke="red" points="31.3688,-60.6953 31.3688,-83.3047 136.529,-83.3047 136.529,-60.6953 31.3688,-60.6953"/>
<text text-anchor="middle" x="83.9488" y="-68.3047" font-family="Futura" font-size="11.00">fa/atomic/stack.h</text>
</a>
</g>
<!-- Node2&#45;&gt;Node6 -->
<g id="edge12" class="edge"><title>Node2&#45;&gt;Node6</title>
<path fill="none" stroke="midnightblue" d="M414.197,-128.163C370.624,-121.183 254.69,-102.509 146.786,-84.1275"/>
<polygon fill="midnightblue" stroke="midnightblue" points="147.152,-80.6395 136.706,-82.4072 145.975,-87.5397 147.152,-80.6395"/>
</g>
<!-- Node7 -->
<g id="node14" class="node"><title>Node7</title>
<a xlink:href="ring__buffer_8h.html" target="_top" xlink:title="fa/atomic/ring_buffer.h">
<polygon fill="none" stroke="red" points="154.475,-60.6953 154.475,-83.3047 289.423,-83.3047 289.423,-60.6953 154.475,-60.6953"/>
<text text-anchor="middle" x="221.949" y="-68.3047" font-family="Futura" font-size="11.00">fa/atomic/ring_buffer.h</text>
</a>
</g>
<!-- Node2&#45;&gt;Node7 -->
<g id="edge14" class="edge"><title>Node2&#45;&gt;Node7</title>
<path fill="none" stroke="midnightblue" d="M414.044,-126.055C382.256,-117.275 314.999,-98.6995 269.131,-86.0312"/>
<polygon fill="midnightblue" stroke="midnightblue" points="269.973,-82.6328 259.402,-83.3442 268.109,-89.3802 269.973,-82.6328"/>
</g>
<!-- Node8 -->
<g id="node16" class="node"><title>Node8</title>
<a xlink:href="system_8h.html" target="_top" xlink:title="fa/system.h">
<polygon fill="none" stroke="red" points="306.974,-60.6953 306.974,-83.3047 380.923,-83.3047 380.923,-60.6953 306.974,-60.6953"/>
<text text-anchor="middle" x="343.949" y="-68.3047" font-family="Futura" font-size="11.00">fa/system.h</text>
</a>
</g>
<!-- Node2&#45;&gt;Node8 -->
<g id="edge16" class="edge"><title>Node2&#45;&gt;Node8</title>
<path fill="none" stroke="midnightblue" d="M416.216,-120.631C402.909,-111.86 383.62,-99.1468 368.316,-89.0605"/>
<polygon fill="midnightblue" stroke="midnightblue" points="370.118,-86.0558 359.842,-83.475 366.265,-91.9006 370.118,-86.0558"/>
</g>
<!-- Node9 -->
<g id="node18" class="node"><title>Node9</title>
<a xlink:href="error_8h.html" target="_top" xlink:title="fa/error.h">
<polygon fill="none" stroke="red" points="399.11,-60.6953 399.11,-83.3047 464.787,-83.3047 464.787,-60.6953 399.11,-60.6953"/>
<text text-anchor="middle" x="431.949" y="-68.3047" font-family="Futura" font-size="11.00">fa/error.h</text>
</a>
</g>
<!-- Node2&#45;&gt;Node9 -->
<g id="edge18" class="edge"><title>Node2&#45;&gt;Node9</title>
<path fill="none" stroke="midnightblue" d="M426.633,-120.631C425.272,-113.137 424.88,-102.764 425.456,-93.6107"/>
<polygon fill="midnightblue" stroke="midnightblue" points="428.934,-94.0015 426.579,-83.6719 421.979,-93.2159 428.934,-94.0015"/>
</g>
<!-- Node3&#45;&gt;Node2 -->
<g id="edge6" class="edge"><title>Node3&#45;&gt;Node2</title>
<path fill="none" stroke="midnightblue" d="M509.546,-83.3588C496.981,-92.7676 475.995,-106.72 458.904,-117.097"/>
<polygon fill="midnightblue" stroke="midnightblue" points="456.706,-114.331 449.889,-122.442 460.276,-120.352 456.706,-114.331"/>
</g>
<!-- Node3&#45;&gt;Node4 -->
<g id="edge8" class="edge"><title>Node3&#45;&gt;Node4</title>
<path fill="none" stroke="midnightblue" d="M519.949,-60.6308C519.949,-53.218 519.949,-42.9888 519.949,-33.9096"/>
<polygon fill="midnightblue" stroke="midnightblue" points="523.449,-33.6718 519.949,-23.6719 516.449,-33.6719 523.449,-33.6718"/>
</g>
<!-- Node9&#45;&gt;Node2 -->
<g id="edge20" class="edge"><title>Node9&#45;&gt;Node2</title>
<path fill="none" stroke="midnightblue" d="M437.319,-83.6719C438.64,-91.1602 439.012,-101.411 438.437,-110.459"/>
<polygon fill="midnightblue" stroke="midnightblue" points="434.933,-110.296 437.265,-120.631 441.887,-111.097 434.933,-110.296"/>
</g>
<!-- Node10&#45;&gt;Node2 -->
<g id="edge28" class="edge"><title>Node10&#45;&gt;Node2</title>
<path fill="none" stroke="midnightblue" d="M491.077,-180.631C480.56,-172.159 465.477,-160.009 453.177,-150.1"/>
<polygon fill="midnightblue" stroke="midnightblue" points="455.18,-147.22 445.197,-143.672 450.789,-152.671 455.18,-147.22"/>
</g>
<!-- Node10&#45;&gt;Node4 -->
<g id="edge30" class="edge"><title>Node10&#45;&gt;Node4</title>
<path fill="none" stroke="midnightblue" d="M539.322,-182.712C584.443,-170.03 660.613,-141.033 693.949,-84 724.702,-31.3872 617.948,-17.7526 557.973,-14.2258"/>
<polygon fill="midnightblue" stroke="midnightblue" points="557.884,-10.7166 547.716,-13.6936 557.521,-17.7072 557.884,-10.7166"/>
</g>
</g>
</svg>
