<?xml version="1.0" encoding="UTF-8" standalone="no"?>
<!DOCTYPE svg PUBLIC "-//W3C//DTD SVG 1.1//EN"
 "http://www.w3.org/Graphics/SVG/1.1/DTD/svg11.dtd">
<!-- Generated by graphviz version 2.28.0 (20121015.0031)
 -->
<!-- Title: include/fa/system.h Pages: 1 -->
<svg width="600pt" height="332pt"
 viewBox="0.00 0.00 599.80 332.00" xmlns="http://www.w3.org/2000/svg" xmlns:xlink="http://www.w3.org/1999/xlink">
<g id="graph1" class="graph" transform="scale(1 1) rotate(0) translate(4 328)">
<title>include/fa/system.h</title>
<!-- Node1 -->
<g id="node1" class="node"><title>Node1</title>
<polygon fill="#bfbfbf" stroke="black" points="77.2577,-300.695 77.2577,-323.305 192.333,-323.305 192.333,-300.695 77.2577,-300.695"/>
<text text-anchor="middle" x="134.795" y="-308.305" font-family="Futura" font-size="11.00">include/fa/system.h</text>
</g>
<!-- Node2 -->
<g id="node3" class="node"><title>Node2</title>
<a xlink:href="directory_8h.html" target="_top" xlink:title="fa/system/directory.h">
<polygon fill="none" stroke="black" points="14.8105,-240.695 14.8105,-263.305 138.78,-263.305 138.78,-240.695 14.8105,-240.695"/>
<text text-anchor="middle" x="76.7953" y="-248.305" font-family="Futura" font-size="11.00">fa/system/directory.h</text>
</a>
</g>
<!-- Node1&#45;&gt;Node2 -->
<g id="edge2" class="edge"><title>Node1&#45;&gt;Node2</title>
<path fill="none" stroke="midnightblue" d="M124.426,-300.631C116.199,-292.403 104.502,-280.707 94.7587,-270.963"/>
<polygon fill="midnightblue" stroke="midnightblue" points="97.0132,-268.268 87.4672,-263.672 92.0634,-273.218 97.0132,-268.268"/>
</g>
<!-- Node3 -->
<g id="node5" class="node"><title>Node3</title>
<polygon fill="none" stroke="#bfbfbf" points="233.068,-0.695312 233.068,-23.3047 268.522,-23.3047 268.522,-0.695312 233.068,-0.695312"/>
<text text-anchor="middle" x="250.795" y="-8.30469" font-family="Futura" font-size="11.00">fa.h</text>
</g>
<!-- Node2&#45;&gt;Node3 -->
<g id="edge4" class="edge"><title>Node2&#45;&gt;Node3</title>
<path fill="none" stroke="midnightblue" d="M63.4837,-240.574C53.4958,-231.932 40.4449,-218.714 33.7953,-204 7.33184,-145.442 -19.8411,-109.78 20.7953,-60 45.9842,-29.1433 166.799,-18.0065 222.524,-14.465"/>
<polygon fill="midnightblue" stroke="midnightblue" points="222.98,-17.9441 232.754,-13.8544 222.563,-10.9566 222.98,-17.9441"/>
</g>
<!-- Node4 -->
<g id="node7" class="node"><title>Node4</title>
<a xlink:href="string_8h.html" target="_top" xlink:title="fa/string.h">
<polygon fill="none" stroke="black" points="42.665,-180.695 42.665,-203.305 110.926,-203.305 110.926,-180.695 42.665,-180.695"/>
<text text-anchor="middle" x="76.7953" y="-188.305" font-family="Futura" font-size="11.00">fa/string.h</text>
</a>
</g>
<!-- Node2&#45;&gt;Node4 -->
<g id="edge6" class="edge"><title>Node2&#45;&gt;Node4</title>
<path fill="none" stroke="midnightblue" d="M76.7953,-240.631C76.7953,-233.218 76.7953,-222.989 76.7953,-213.91"/>
<polygon fill="midnightblue" stroke="midnightblue" points="80.2954,-213.672 76.7953,-203.672 73.2954,-213.672 80.2954,-213.672"/>
</g>
<!-- Node5 -->
<g id="node9" class="node"><title>Node5</title>
<a xlink:href="fa_2fa_8h.html" target="_top" xlink:title="fa.h">
<polygon fill="none" stroke="red" points="163.068,-120.695 163.068,-143.305 198.522,-143.305 198.522,-120.695 163.068,-120.695"/>
<text text-anchor="middle" x="180.795" y="-128.305" font-family="Futura" font-size="11.00">fa.h</text>
</a>
</g>
<!-- Node4&#45;&gt;Node5 -->
<g id="edge8" class="edge"><title>Node4&#45;&gt;Node5</title>
<path fill="none" stroke="midnightblue" d="M95.3885,-180.631C111.782,-171.488 135.859,-158.061 154.273,-147.791"/>
<polygon fill="midnightblue" stroke="midnightblue" points="156.029,-150.82 163.057,-142.892 152.619,-144.706 156.029,-150.82"/>
</g>
<!-- Node5&#45;&gt;Node1 -->
<g id="edge26" class="edge"><title>Node5&#45;&gt;Node1</title>
<path fill="none" stroke="midnightblue" d="M178.116,-143.368C170.707,-172.036 149.847,-252.757 140.029,-290.75"/>
<polygon fill="midnightblue" stroke="midnightblue" points="136.581,-290.103 137.467,-300.661 143.358,-291.854 136.581,-290.103"/>
</g>
<!-- Node6 -->
<g id="node11" class="node"><title>Node6</title>
<a xlink:href="atomic_8h.html" target="_top" xlink:title="fa/atomic.h">
<polygon fill="none" stroke="red" points="394.732,-60.6953 394.732,-83.3047 468.858,-83.3047 468.858,-60.6953 394.732,-60.6953"/>
<text text-anchor="middle" x="431.795" y="-68.3047" font-family="Futura" font-size="11.00">fa/atomic.h</text>
</a>
</g>
<!-- Node5&#45;&gt;Node6 -->
<g id="edge10" class="edge"><title>Node5&#45;&gt;Node6</title>
<path fill="none" stroke="midnightblue" d="M198.574,-125.714C233.256,-117.089 311.025,-99.4031 376.795,-84 379.367,-83.3976 382.02,-82.7729 384.709,-82.141"/>
<polygon fill="midnightblue" stroke="midnightblue" points="385.59,-85.5295 394.533,-79.8482 383.999,-78.7127 385.59,-85.5295"/>
</g>
<!-- Node7 -->
<g id="node14" class="node"><title>Node7</title>
<a xlink:href="queue_8h.html" target="_top" xlink:title="fa/atomic/queue.h">
<polygon fill="none" stroke="black" points="266.444,-60.6953 266.444,-83.3047 377.147,-83.3047 377.147,-60.6953 266.444,-60.6953"/>
<text text-anchor="middle" x="321.795" y="-68.3047" font-family="Futura" font-size="11.00">fa/atomic/queue.h</text>
</a>
</g>
<!-- Node5&#45;&gt;Node7 -->
<g id="edge14" class="edge"><title>Node5&#45;&gt;Node7</title>
<path fill="none" stroke="midnightblue" d="M198.653,-123.654C220.86,-114.52 259.256,-98.7255 287.283,-87.1966"/>
<polygon fill="midnightblue" stroke="midnightblue" points="288.804,-90.3555 296.721,-83.3144 286.141,-83.8818 288.804,-90.3555"/>
</g>
<!-- Node8 -->
<g id="node17" class="node"><title>Node8</title>
<a xlink:href="stack_8h.html" target="_top" xlink:title="fa/atomic/stack.h">
<polygon fill="none" stroke="black" points="487.215,-60.6953 487.215,-83.3047 592.375,-83.3047 592.375,-60.6953 487.215,-60.6953"/>
<text text-anchor="middle" x="539.795" y="-68.3047" font-family="Futura" font-size="11.00">fa/atomic/stack.h</text>
</a>
</g>
<!-- Node5&#45;&gt;Node8 -->
<g id="edge18" class="edge"><title>Node5&#45;&gt;Node8</title>
<path fill="none" stroke="midnightblue" d="M198.557,-128.308C243.321,-121.497 364.605,-102.889 476.901,-84.1273"/>
<polygon fill="midnightblue" stroke="midnightblue" points="477.757,-87.5327 487.042,-82.4285 476.601,-80.6289 477.757,-87.5327"/>
</g>
<!-- Node9 -->
<g id="node20" class="node"><title>Node9</title>
<a xlink:href="ring__buffer_8h.html" target="_top" xlink:title="fa/atomic/ring_buffer.h">
<polygon fill="none" stroke="black" points="113.321,-60.6953 113.321,-83.3047 248.269,-83.3047 248.269,-60.6953 113.321,-60.6953"/>
<text text-anchor="middle" x="180.795" y="-68.3047" font-family="Futura" font-size="11.00">fa/atomic/ring_buffer.h</text>
</a>
</g>
<!-- Node5&#45;&gt;Node9 -->
<g id="edge22" class="edge"><title>Node5&#45;&gt;Node9</title>
<path fill="none" stroke="midnightblue" d="M180.795,-120.631C180.795,-113.218 180.795,-102.989 180.795,-93.9096"/>
<polygon fill="midnightblue" stroke="midnightblue" points="184.295,-93.6718 180.795,-83.6719 177.295,-93.6719 184.295,-93.6718"/>
</g>
<!-- Node10 -->
<g id="node24" class="node"><title>Node10</title>
<a xlink:href="error_8h.html" target="_top" xlink:title="fa/error.h">
<polygon fill="none" stroke="black" points="29.9567,-60.6953 29.9567,-83.3047 95.634,-83.3047 95.634,-60.6953 29.9567,-60.6953"/>
<text text-anchor="middle" x="62.7953" y="-68.3047" font-family="Futura" font-size="11.00">fa/error.h</text>
</a>
</g>
<!-- Node5&#45;&gt;Node10 -->
<g id="edge28" class="edge"><title>Node5&#45;&gt;Node10</title>
<path fill="none" stroke="midnightblue" d="M163.025,-124.459C142.806,-115.698 110.127,-99.8879 87.5011,-88.096"/>
<polygon fill="midnightblue" stroke="midnightblue" points="88.9607,-84.9085 78.4855,-83.3207 85.6842,-91.0944 88.9607,-84.9085"/>
</g>
<!-- Node6&#45;&gt;Node5 -->
<g id="edge12" class="edge"><title>Node6&#45;&gt;Node5</title>
<path fill="none" stroke="midnightblue" d="M397.703,-83.3174C396.725,-83.5475 395.755,-83.7753 394.795,-84 328.405,-99.5483 249.788,-117.422 208.617,-125.956"/>
<polygon fill="midnightblue" stroke="midnightblue" points="207.851,-122.54 198.75,-127.964 209.247,-129.399 207.851,-122.54"/>
</g>
<!-- Node7&#45;&gt;Node3 -->
<g id="edge16" class="edge"><title>Node7&#45;&gt;Node3</title>
<path fill="none" stroke="midnightblue" d="M309.102,-60.6308C298.731,-52.159 283.858,-40.0087 271.729,-30.1004"/>
<polygon fill="midnightblue" stroke="midnightblue" points="273.818,-27.2878 263.859,-23.6719 269.389,-32.7089 273.818,-27.2878"/>
</g>
<!-- Node8&#45;&gt;Node3 -->
<g id="edge20" class="edge"><title>Node8&#45;&gt;Node3</title>
<path fill="none" stroke="midnightblue" d="M488.128,-60.6308C426.846,-48.3319 326.933,-28.2803 278.654,-18.591"/>
<polygon fill="midnightblue" stroke="midnightblue" points="279.118,-15.1144 268.625,-16.5783 277.741,-21.9776 279.118,-15.1144"/>
</g>
<!-- Node9&#45;&gt;Node3 -->
<g id="edge24" class="edge"><title>Node9&#45;&gt;Node3</title>
<path fill="none" stroke="midnightblue" d="M193.31,-60.6308C203.534,-52.159 218.199,-40.0087 230.157,-30.1004"/>
<polygon fill="midnightblue" stroke="midnightblue" points="232.448,-32.7472 237.916,-23.6719 227.982,-27.357 232.448,-32.7472"/>
</g>
<!-- Node10&#45;&gt;Node4 -->
<g id="edge32" class="edge"><title>Node10&#45;&gt;Node4</title>
<path fill="none" stroke="midnightblue" d="M64.0551,-83.6179C66.3769,-103.187 71.3674,-145.25 74.3671,-170.534"/>
<polygon fill="midnightblue" stroke="midnightblue" points="70.8991,-171.01 75.5529,-180.528 77.8503,-170.186 70.8991,-171.01"/>
</g>
<!-- Node10&#45;&gt;Node5 -->
<g id="edge30" class="edge"><title>Node10&#45;&gt;Node5</title>
<path fill="none" stroke="midnightblue" d="M89.4416,-83.475C109.478,-92.524 136.533,-105.712 156.084,-115.901"/>
<polygon fill="midnightblue" stroke="midnightblue" points="154.54,-119.044 165.015,-120.631 157.816,-112.858 154.54,-119.044"/>
</g>
</g>
</svg>
