<?xml version="1.0" encoding="UTF-8" standalone="no"?>
<!DOCTYPE svg PUBLIC "-//W3C//DTD SVG 1.1//EN"
 "http://www.w3.org/Graphics/SVG/1.1/DTD/svg11.dtd">
<!-- Generated by graphviz version 2.28.0 (20121015.0031)
 -->
<!-- Title: include/fa/action.h Pages: 1 -->
<svg width="677pt" height="332pt"
 viewBox="0.00 0.00 677.00 332.00" xmlns="http://www.w3.org/2000/svg" xmlns:xlink="http://www.w3.org/1999/xlink">
<g id="graph1" class="graph" transform="scale(1 1) rotate(0) translate(4 328)">
<title>include/fa/action.h</title>
<!-- Node1 -->
<g id="node1" class="node"><title>Node1</title>
<polygon fill="#bfbfbf" stroke="black" points="280.746,-300.695 280.746,-323.305 393.254,-323.305 393.254,-300.695 280.746,-300.695"/>
<text text-anchor="middle" x="337" y="-308.305" font-family="Futura" font-size="11.00">include/fa/action.h</text>
</g>
<!-- Node2 -->
<g id="node3" class="node"><title>Node2</title>
<a xlink:href="audio_8h.html" target="_top" xlink:title="include/fa/audio.h">
<polygon fill="none" stroke="black" points="172.592,-240.695 172.592,-263.305 283.408,-263.305 283.408,-240.695 172.592,-240.695"/>
<text text-anchor="middle" x="228" y="-248.305" font-family="Futura" font-size="11.00">include/fa/audio.h</text>
</a>
</g>
<!-- Node1&#45;&gt;Node2 -->
<g id="edge2" class="edge"><title>Node1&#45;&gt;Node2</title>
<path fill="none" stroke="midnightblue" d="M308.624,-295.901C289.476,-285.712 264.692,-272.524 247.686,-263.475"/>
<polygon fill="midnightblue" stroke="midnightblue" points="307.041,-299.023 317.513,-300.631 310.329,-292.843 307.041,-299.023"/>
</g>
<!-- Node3 -->
<g id="node5" class="node"><title>Node3</title>
<a xlink:href="fa_2fa_8h.html" target="_top" xlink:title="include/fa/fa.h">
<polygon fill="none" stroke="red" points="290.846,-180.695 290.846,-203.305 383.154,-203.305 383.154,-180.695 290.846,-180.695"/>
<text text-anchor="middle" x="337" y="-188.305" font-family="Futura" font-size="11.00">include/fa/fa.h</text>
</a>
</g>
<!-- Node1&#45;&gt;Node3 -->
<g id="edge48" class="edge"><title>Node1&#45;&gt;Node3</title>
<path fill="none" stroke="midnightblue" d="M331.741,-290.534C329.414,-265.25 329.811,-223.187 332.93,-203.618"/>
<polygon fill="midnightblue" stroke="midnightblue" points="328.275,-291.022 332.953,-300.528 335.224,-290.18 328.275,-291.022"/>
</g>
<!-- Node2&#45;&gt;Node3 -->
<g id="edge4" class="edge"><title>Node2&#45;&gt;Node3</title>
<path fill="none" stroke="midnightblue" d="M256.376,-235.901C275.524,-225.712 300.308,-212.524 317.314,-203.475"/>
<polygon fill="midnightblue" stroke="midnightblue" points="254.671,-232.843 247.487,-240.631 257.959,-239.023 254.671,-232.843"/>
</g>
<!-- Node3&#45;&gt;Node1 -->
<g id="edge6" class="edge"><title>Node3&#45;&gt;Node1</title>
<path fill="none" stroke="midnightblue" d="M342.276,-213.656C344.589,-239.023 344.18,-281.071 341.047,-300.528"/>
<polygon fill="midnightblue" stroke="midnightblue" points="345.738,-213.129 341.07,-203.618 338.788,-213.964 345.738,-213.129"/>
</g>
<!-- Node4 -->
<g id="node8" class="node"><title>Node4</title>
<a xlink:href="buffer_8h.html" target="_top" xlink:title="include/fa/buffer.h">
<polygon fill="none" stroke="red" points="558.227,-0.695312 558.227,-23.3047 669.773,-23.3047 669.773,-0.695312 558.227,-0.695312"/>
<text text-anchor="middle" x="614" y="-8.30469" font-family="Futura" font-size="11.00">include/fa/buffer.h</text>
</a>
</g>
<!-- Node3&#45;&gt;Node4 -->
<g id="edge8" class="edge"><title>Node3&#45;&gt;Node4</title>
<path fill="none" stroke="midnightblue" d="M393.398,-187.114C461.935,-181.384 572.468,-168.582 605,-144 636.511,-120.189 641.891,-98.6992 634,-60 631.307,-46.7928 624.761,-32.6998 619.887,-23.429"/>
<polygon fill="midnightblue" stroke="midnightblue" points="392.875,-183.645 383.191,-187.942 393.441,-190.622 392.875,-183.645"/>
</g>
<!-- Node5 -->
<g id="node10" class="node"><title>Node5</title>
<a xlink:href="device_8h.html" target="_top" xlink:title="include/fa/device.h">
<polygon fill="none" stroke="red" points="150.817,-120.695 150.817,-143.305 265.183,-143.305 265.183,-120.695 150.817,-120.695"/>
<text text-anchor="middle" x="208" y="-128.305" font-family="Futura" font-size="11.00">include/fa/device.h</text>
</a>
</g>
<!-- Node3&#45;&gt;Node5 -->
<g id="edge10" class="edge"><title>Node3&#45;&gt;Node5</title>
<path fill="none" stroke="midnightblue" d="M304.647,-176.454C281.825,-166.193 251.79,-152.688 231.298,-143.475"/>
<polygon fill="midnightblue" stroke="midnightblue" points="303.382,-179.722 313.937,-180.631 306.252,-173.338 303.382,-179.722"/>
</g>
<!-- Node6 -->
<g id="node13" class="node"><title>Node6</title>
<a xlink:href="dynamic_8h.html" target="_top" xlink:title="include/fa/dynamic.h">
<polygon fill="none" stroke="black" points="445.918,-120.695 445.918,-143.305 570.082,-143.305 570.082,-120.695 445.918,-120.695"/>
<text text-anchor="middle" x="508" y="-128.305" font-family="Futura" font-size="11.00">include/fa/dynamic.h</text>
</a>
</g>
<!-- Node3&#45;&gt;Node6 -->
<g id="edge14" class="edge"><title>Node3&#45;&gt;Node6</title>
<path fill="none" stroke="midnightblue" d="M377.11,-177.396C407.771,-166.996 449.399,-152.876 477.406,-143.377"/>
<polygon fill="midnightblue" stroke="midnightblue" points="375.917,-174.104 367.571,-180.631 378.166,-180.733 375.917,-174.104"/>
</g>
<!-- Node7 -->
<g id="node15" class="node"><title>Node7</title>
<a xlink:href="error_8h.html" target="_top" xlink:title="include/fa/error.h">
<polygon fill="none" stroke="red" points="283.598,-120.695 283.598,-143.305 390.402,-143.305 390.402,-120.695 283.598,-120.695"/>
<text text-anchor="middle" x="337" y="-128.305" font-family="Futura" font-size="11.00">include/fa/error.h</text>
</a>
</g>
<!-- Node3&#45;&gt;Node7 -->
<g id="edge16" class="edge"><title>Node3&#45;&gt;Node7</title>
<path fill="none" stroke="midnightblue" d="M330.512,-170.459C329.936,-161.411 330.309,-151.16 331.63,-143.672"/>
<polygon fill="midnightblue" stroke="midnightblue" points="327.062,-171.097 331.684,-180.631 334.016,-170.296 327.062,-171.097"/>
</g>
<!-- Node8 -->
<g id="node19" class="node"><title>Node8</title>
<a xlink:href="list_8h.html" target="_top" xlink:title="include/fa/list.h">
<polygon fill="none" stroke="red" points="-0.614502,-120.695 -0.614502,-143.305 94.6145,-143.305 94.6145,-120.695 -0.614502,-120.695"/>
<text text-anchor="middle" x="47" y="-128.305" font-family="Futura" font-size="11.00">include/fa/list.h</text>
</a>
</g>
<!-- Node3&#45;&gt;Node8 -->
<g id="edge22" class="edge"><title>Node3&#45;&gt;Node8</title>
<path fill="none" stroke="midnightblue" d="M280.686,-180.794C226.104,-170.267 144.429,-153.933 93.4472,-143.352"/>
<polygon fill="midnightblue" stroke="midnightblue" points="280.069,-184.24 290.549,-182.69 281.39,-177.366 280.069,-184.24"/>
</g>
<!-- Node9 -->
<g id="node24" class="node"><title>Node9</title>
<a xlink:href="map_8h.html" target="_top" xlink:title="include/fa/map.h">
<polygon fill="none" stroke="red" points="365.914,-0.695312 365.914,-23.3047 470.086,-23.3047 470.086,-0.695312 365.914,-0.695312"/>
<text text-anchor="middle" x="418" y="-8.30469" font-family="Futura" font-size="11.00">include/fa/map.h</text>
</a>
</g>
<!-- Node3&#45;&gt;Node9 -->
<g id="edge44" class="edge"><title>Node3&#45;&gt;Node9</title>
<path fill="none" stroke="midnightblue" d="M366.882,-175.224C378.766,-167.419 391.397,-156.885 399,-144 422.358,-104.416 420.816,-46.7258 419.023,-23.3807"/>
<polygon fill="midnightblue" stroke="midnightblue" points="364.726,-172.44 358.035,-180.654 368.388,-178.406 364.726,-172.44"/>
</g>
<!-- Node10 -->
<g id="node26" class="node"><title>Node10</title>
<a xlink:href="pair_8h.html" target="_top" xlink:title="include/fa/pair.h">
<polygon fill="none" stroke="red" points="524.131,-60.6953 524.131,-83.3047 625.869,-83.3047 625.869,-60.6953 524.131,-60.6953"/>
<text text-anchor="middle" x="575" y="-68.3047" font-family="Futura" font-size="11.00">include/fa/pair.h</text>
</a>
</g>
<!-- Node3&#45;&gt;Node10 -->
<g id="edge46" class="edge"><title>Node3&#45;&gt;Node10</title>
<path fill="none" stroke="midnightblue" d="M393.154,-187.633C454.776,-182.734 547.691,-171.058 570,-144 584.137,-126.854 576.416,-98.718 573.715,-83.5237"/>
<polygon fill="midnightblue" stroke="midnightblue" points="392.878,-184.144 383.171,-188.39 393.407,-191.124 392.878,-184.144"/>
</g>
<!-- Node5&#45;&gt;Node2 -->
<g id="edge12" class="edge"><title>Node5&#45;&gt;Node2</title>
<path fill="none" stroke="midnightblue" d="M211.501,-153.656C215.8,-179.023 222.927,-221.071 226.225,-240.528"/>
<polygon fill="midnightblue" stroke="midnightblue" points="214.922,-152.892 209.8,-143.618 208.02,-154.062 214.922,-152.892"/>
</g>
<!-- Node7&#45;&gt;Node2 -->
<g id="edge18" class="edge"><title>Node7&#45;&gt;Node2</title>
<path fill="none" stroke="midnightblue" d="M315.252,-149.778C304.734,-158.333 292.209,-169.193 282,-180 263.283,-199.813 244.778,-225.942 235.041,-240.337"/>
<polygon fill="midnightblue" stroke="midnightblue" points="317.541,-152.43 323.174,-143.457 313.175,-146.958 317.541,-152.43"/>
</g>
<!-- Node7&#45;&gt;Node3 -->
<g id="edge20" class="edge"><title>Node7&#45;&gt;Node3</title>
<path fill="none" stroke="midnightblue" d="M343.492,-153.611C344.069,-162.764 343.677,-173.137 342.316,-180.631"/>
<polygon fill="midnightblue" stroke="midnightblue" points="346.97,-153.216 342.37,-143.672 340.014,-154.001 346.97,-153.216"/>
</g>
<!-- Node8&#45;&gt;Node1 -->
<g id="edge24" class="edge"><title>Node8&#45;&gt;Node1</title>
<path fill="none" stroke="midnightblue" d="M53.3297,-153.472C58.7141,-168.576 67.5647,-189.019 80,-204 109.303,-239.302 122.545,-244.344 164,-264 201.121,-281.601 245.957,-293.547 280.681,-300.99"/>
<polygon fill="midnightblue" stroke="midnightblue" points="56.5102,-151.946 50.0199,-143.572 49.8714,-154.166 56.5102,-151.946"/>
</g>
<!-- Node8&#45;&gt;Node2 -->
<g id="edge26" class="edge"><title>Node8&#45;&gt;Node2</title>
<path fill="none" stroke="midnightblue" d="M59.4768,-151.748C70.7953,-167.521 88.77,-189.723 109,-204 133.137,-221.034 164.314,-233.055 188.701,-240.673"/>
<polygon fill="midnightblue" stroke="midnightblue" points="62.1959,-149.528 53.615,-143.314 56.4477,-153.523 62.1959,-149.528"/>
</g>
<!-- Node8&#45;&gt;Node3 -->
<g id="edge28" class="edge"><title>Node8&#45;&gt;Node3</title>
<path fill="none" stroke="midnightblue" d="M104.859,-143.504C159.514,-154.056 240.305,-170.217 290.792,-180.698"/>
<polygon fill="midnightblue" stroke="midnightblue" points="105.452,-140.054 94.9711,-141.601 104.13,-146.928 105.452,-140.054"/>
</g>
<!-- Node8&#45;&gt;Node9 -->
<g id="edge30" class="edge"><title>Node8&#45;&gt;Node9</title>
<path fill="none" stroke="midnightblue" d="M89.1691,-117.588C163.899,-93.8192 318.027,-44.7973 385.343,-23.3869"/>
<polygon fill="midnightblue" stroke="midnightblue" points="88.0674,-114.265 79.5986,-120.632 90.1891,-120.936 88.0674,-114.265"/>
</g>
<!-- Node8&#45;&gt;Node10 -->
<g id="edge32" class="edge"><title>Node8&#45;&gt;Node10</title>
<path fill="none" stroke="midnightblue" d="M104.587,-120.632C106.072,-120.413 107.545,-120.202 109,-120 259.206,-99.1305 437.88,-83.724 523.823,-76.8969"/>
<polygon fill="midnightblue" stroke="midnightblue" points="104.016,-117.179 94.6702,-122.17 105.088,-124.096 104.016,-117.179"/>
</g>
<!-- Node10&#45;&gt;Node1 -->
<g id="edge34" class="edge"><title>Node10&#45;&gt;Node1</title>
<path fill="none" stroke="midnightblue" d="M591.848,-91.2626C603.219,-105.908 614.556,-126.787 605,-144 555.243,-233.632 435.177,-281.426 374.069,-300.678"/>
<polygon fill="midnightblue" stroke="midnightblue" points="594.405,-88.8639 585.307,-83.4346 589.033,-93.3525 594.405,-88.8639"/>
</g>
<!-- Node10&#45;&gt;Node2 -->
<g id="edge36" class="edge"><title>Node10&#45;&gt;Node2</title>
<path fill="none" stroke="midnightblue" d="M513.621,-75.2065C400.04,-79.9245 166.364,-92.8488 142,-120 105.751,-160.397 178.228,-217.388 211.985,-240.577"/>
<polygon fill="midnightblue" stroke="midnightblue" points="514.047,-78.6921 523.897,-74.7884 513.763,-71.6979 514.047,-78.6921"/>
</g>
<!-- Node10&#45;&gt;Node3 -->
<g id="edge40" class="edge"><title>Node10&#45;&gt;Node3</title>
<path fill="none" stroke="midnightblue" d="M590.047,-92.8291C596.485,-108.474 599.597,-129.935 588,-144 562.952,-174.381 448.893,-185.369 383.374,-189.147"/>
<polygon fill="midnightblue" stroke="midnightblue" points="593.02,-90.9439 585.458,-83.5237 586.742,-94.0404 593.02,-90.9439"/>
</g>
<!-- Node10&#45;&gt;Node4 -->
<g id="edge38" class="edge"><title>Node10&#45;&gt;Node4</title>
<path fill="none" stroke="midnightblue" d="M587.62,-52.2313C593.979,-42.775 601.457,-31.6539 606.824,-23.6719"/>
<polygon fill="midnightblue" stroke="midnightblue" points="584.648,-50.3793 581.972,-60.6308 590.457,-54.2853 584.648,-50.3793"/>
</g>
<!-- Node10&#45;&gt;Node9 -->
<g id="edge42" class="edge"><title>Node10&#45;&gt;Node9</title>
<path fill="none" stroke="midnightblue" d="M537.441,-57.1246C509.363,-46.7518 471.581,-32.7941 446.09,-23.3771"/>
<polygon fill="midnightblue" stroke="midnightblue" points="536.338,-60.4485 546.932,-60.6308 538.764,-53.8822 536.338,-60.4485"/>
</g>
</g>
</svg>
