<?xml version="1.0" encoding="UTF-8" standalone="no"?>
<!DOCTYPE svg PUBLIC "-//W3C//DTD SVG 1.1//EN"
 "http://www.w3.org/Graphics/SVG/1.1/DTD/svg11.dtd">
<!-- Generated by graphviz version 2.28.0 (20121015.0031)
 -->
<!-- Title: include/fa/action.h Pages: 1 -->
<svg width="721pt" height="272pt"
 viewBox="0.00 0.00 720.91 272.00" xmlns="http://www.w3.org/2000/svg" xmlns:xlink="http://www.w3.org/1999/xlink">
<g id="graph1" class="graph" transform="scale(1 1) rotate(0) translate(4 268)">
<title>include/fa/action.h</title>
<!-- Node1 -->
<g id="node1" class="node"><title>Node1</title>
<polygon fill="#bfbfbf" stroke="black" points="333.66,-240.695 333.66,-263.305 446.168,-263.305 446.168,-240.695 333.66,-240.695"/>
<text text-anchor="middle" x="389.914" y="-248.305" font-family="Futura" font-size="11.00">include/fa/action.h</text>
</g>
<!-- Node2 -->
<g id="node3" class="node"><title>Node2</title>
<a xlink:href="audio_8h.html" target="_top" xlink:title="include/fa/audio.h">
<polygon fill="none" stroke="black" points="426.506,-180.695 426.506,-203.305 537.322,-203.305 537.322,-180.695 426.506,-180.695"/>
<text text-anchor="middle" x="481.914" y="-188.305" font-family="Futura" font-size="11.00">include/fa/audio.h</text>
</a>
</g>
<!-- Node1&#45;&gt;Node2 -->
<g id="edge2" class="edge"><title>Node1&#45;&gt;Node2</title>
<path fill="none" stroke="midnightblue" d="M415.197,-235.061C431.162,-224.996 451.336,-212.277 465.298,-203.475"/>
<polygon fill="midnightblue" stroke="midnightblue" points="412.954,-232.337 406.362,-240.631 416.687,-238.258 412.954,-232.337"/>
</g>
<!-- Node3 -->
<g id="node5" class="node"><title>Node3</title>
<a xlink:href="fa_2fa_8h.html" target="_top" xlink:title="include/fa/fa.h">
<polygon fill="none" stroke="red" points="343.76,-120.695 343.76,-143.305 436.067,-143.305 436.067,-120.695 343.76,-120.695"/>
<text text-anchor="middle" x="389.914" y="-128.305" font-family="Futura" font-size="11.00">include/fa/fa.h</text>
</a>
</g>
<!-- Node1&#45;&gt;Node3 -->
<g id="edge42" class="edge"><title>Node1&#45;&gt;Node3</title>
<path fill="none" stroke="midnightblue" d="M384.655,-230.534C382.328,-205.25 382.724,-163.187 385.844,-143.618"/>
<polygon fill="midnightblue" stroke="midnightblue" points="381.189,-231.022 385.867,-240.528 388.138,-230.18 381.189,-231.022"/>
</g>
<!-- Node6 -->
<g id="node13" class="node"><title>Node6</title>
<a xlink:href="midi_8h.html" target="_top" xlink:title="include/fa/midi.h">
<polygon fill="none" stroke="black" points="238.387,-0.695312 238.387,-23.3047 341.441,-23.3047 341.441,-0.695312 238.387,-0.695312"/>
<text text-anchor="middle" x="289.914" y="-8.30469" font-family="Futura" font-size="11.00">include/fa/midi.h</text>
</a>
</g>
<!-- Node1&#45;&gt;Node6 -->
<g id="edge44" class="edge"><title>Node1&#45;&gt;Node6</title>
<path fill="none" stroke="midnightblue" d="M323.394,-244.001C233.361,-230.554 75.833,-192.066 4.9139,-84 -0.938484,-75.0822 -1.98771,-68.133 4.9139,-60 34.2376,-25.4444 164.229,-16.2549 238.117,-13.8383"/>
<polygon fill="midnightblue" stroke="midnightblue" points="323.099,-247.494 333.494,-245.447 324.091,-240.565 323.099,-247.494"/>
</g>
<!-- Node2&#45;&gt;Node3 -->
<g id="edge4" class="edge"><title>Node2&#45;&gt;Node3</title>
<path fill="none" stroke="midnightblue" d="M456.631,-175.061C440.666,-164.996 420.491,-152.277 406.529,-143.475"/>
<polygon fill="midnightblue" stroke="midnightblue" points="455.14,-178.258 465.466,-180.631 458.873,-172.337 455.14,-178.258"/>
</g>
<!-- Node3&#45;&gt;Node1 -->
<g id="edge6" class="edge"><title>Node3&#45;&gt;Node1</title>
<path fill="none" stroke="midnightblue" d="M395.19,-153.656C397.503,-179.023 397.094,-221.071 393.961,-240.528"/>
<polygon fill="midnightblue" stroke="midnightblue" points="398.652,-153.129 393.984,-143.618 391.702,-153.964 398.652,-153.129"/>
</g>
<!-- Node4 -->
<g id="node8" class="node"><title>Node4</title>
<a xlink:href="buffer_8h.html" target="_top" xlink:title="include/fa/buffer.h">
<polygon fill="none" stroke="red" points="318.141,-60.6953 318.141,-83.3047 429.687,-83.3047 429.687,-60.6953 318.141,-60.6953"/>
<text text-anchor="middle" x="373.914" y="-68.3047" font-family="Futura" font-size="11.00">include/fa/buffer.h</text>
</a>
</g>
<!-- Node3&#45;&gt;Node4 -->
<g id="edge8" class="edge"><title>Node3&#45;&gt;Node4</title>
<path fill="none" stroke="midnightblue" d="M384.329,-110.756C381.814,-101.637 378.946,-91.2425 376.858,-83.6719"/>
<polygon fill="midnightblue" stroke="midnightblue" points="381.02,-111.922 387.053,-120.631 387.768,-110.06 381.02,-111.922"/>
</g>
<!-- Node5 -->
<g id="node10" class="node"><title>Node5</title>
<a xlink:href="device_8h.html" target="_top" xlink:title="include/fa/device.h">
<polygon fill="none" stroke="black" points="447.731,-60.6953 447.731,-83.3047 562.097,-83.3047 562.097,-60.6953 447.731,-60.6953"/>
<text text-anchor="middle" x="504.914" y="-68.3047" font-family="Futura" font-size="11.00">include/fa/device.h</text>
</a>
</g>
<!-- Node3&#45;&gt;Node5 -->
<g id="edge10" class="edge"><title>Node3&#45;&gt;Node5</title>
<path fill="none" stroke="midnightblue" d="M419.576,-116.04C439.816,-105.832 466.121,-92.5651 484.144,-83.475"/>
<polygon fill="midnightblue" stroke="midnightblue" points="417.826,-113.002 410.474,-120.631 420.978,-119.253 417.826,-113.002"/>
</g>
<!-- Node7 -->
<g id="node16" class="node"><title>Node7</title>
<a xlink:href="dynamic_8h.html" target="_top" xlink:title="include/fa/dynamic.h">
<polygon fill="none" stroke="black" points="137.832,-60.6953 137.832,-83.3047 261.995,-83.3047 261.995,-60.6953 137.832,-60.6953"/>
<text text-anchor="middle" x="199.914" y="-68.3047" font-family="Futura" font-size="11.00">include/fa/dynamic.h</text>
</a>
</g>
<!-- Node3&#45;&gt;Node7 -->
<g id="edge18" class="edge"><title>Node3&#45;&gt;Node7</title>
<path fill="none" stroke="midnightblue" d="M346.23,-117.665C312.082,-107.241 265.296,-92.9586 233.908,-83.3771"/>
<polygon fill="midnightblue" stroke="midnightblue" points="345.36,-121.059 355.946,-120.631 347.403,-114.364 345.36,-121.059"/>
</g>
<!-- Node8 -->
<g id="node18" class="node"><title>Node8</title>
<a xlink:href="error_8h.html" target="_top" xlink:title="include/fa/error.h">
<polygon fill="none" stroke="black" points="13.512,-60.6953 13.512,-83.3047 120.316,-83.3047 120.316,-60.6953 13.512,-60.6953"/>
<text text-anchor="middle" x="66.9139" y="-68.3047" font-family="Futura" font-size="11.00">include/fa/error.h</text>
</a>
</g>
<!-- Node3&#45;&gt;Node8 -->
<g id="edge20" class="edge"><title>Node3&#45;&gt;Node8</title>
<path fill="none" stroke="midnightblue" d="M333.509,-121.786C273.014,-111.307 177.89,-94.2384 119.079,-83.32"/>
<polygon fill="midnightblue" stroke="midnightblue" points="333.197,-125.284 343.646,-123.536 334.387,-118.386 333.197,-125.284"/>
</g>
<!-- Node9 -->
<g id="node23" class="node"><title>Node9</title>
<a xlink:href="list_8h.html" target="_top" xlink:title="include/fa/list.h">
<polygon fill="none" stroke="red" points="618.299,-60.6953 618.299,-83.3047 713.528,-83.3047 713.528,-60.6953 618.299,-60.6953"/>
<text text-anchor="middle" x="665.914" y="-68.3047" font-family="Futura" font-size="11.00">include/fa/list.h</text>
</a>
</g>
<!-- Node3&#45;&gt;Node9 -->
<g id="edge28" class="edge"><title>Node3&#45;&gt;Node9</title>
<path fill="none" stroke="midnightblue" d="M443.749,-118.496C494.491,-107.49 569.674,-91.7349 618.294,-81.9483"/>
<polygon fill="midnightblue" stroke="midnightblue" points="442.968,-115.084 433.941,-120.631 444.457,-121.924 442.968,-115.084"/>
</g>
<!-- Node10 -->
<g id="node28" class="node"><title>Node10</title>
<a xlink:href="map_8h.html" target="_top" xlink:title="include/fa/map.h">
<polygon fill="none" stroke="red" points="575.828,-0.695312 575.828,-23.3047 680,-23.3047 680,-0.695312 575.828,-0.695312"/>
<text text-anchor="middle" x="627.914" y="-8.30469" font-family="Futura" font-size="11.00">include/fa/map.h</text>
</a>
</g>
<!-- Node3&#45;&gt;Node10 -->
<g id="edge40" class="edge"><title>Node3&#45;&gt;Node10</title>
<path fill="none" stroke="midnightblue" d="M446.586,-125.649C484.279,-119.939 533.539,-108.178 570.914,-84 595.069,-68.3737 613.688,-39.0804 622.434,-23.4508"/>
<polygon fill="midnightblue" stroke="midnightblue" points="445.693,-122.24 436.281,-127.104 446.672,-129.171 445.693,-122.24"/>
</g>
<!-- Node5&#45;&gt;Node2 -->
<g id="edge12" class="edge"><title>Node5&#45;&gt;Node2</title>
<path fill="none" stroke="midnightblue" d="M500.888,-93.6561C495.943,-119.023 487.747,-161.071 483.955,-180.528"/>
<polygon fill="midnightblue" stroke="midnightblue" points="504.366,-94.1028 502.844,-83.6179 497.496,-92.7635 504.366,-94.1028"/>
</g>
<!-- Node5&#45;&gt;Node6 -->
<g id="edge14" class="edge"><title>Node5&#45;&gt;Node6</title>
<path fill="none" stroke="midnightblue" d="M456.474,-57.9324C417.751,-47.4863 364.203,-33.0409 328.381,-23.3771"/>
<polygon fill="midnightblue" stroke="midnightblue" points="455.91,-61.4053 466.476,-60.6308 457.733,-54.6469 455.91,-61.4053"/>
</g>
<!-- Node6&#45;&gt;Node3 -->
<g id="edge16" class="edge"><title>Node6&#45;&gt;Node3</title>
<path fill="none" stroke="midnightblue" d="M291.26,-33.7437C293.18,-48.987 297.806,-69.4861 308.914,-84 321.957,-101.042 343.085,-113.006 360.492,-120.597"/>
<polygon fill="midnightblue" stroke="midnightblue" points="294.738,-33.348 290.286,-23.7339 287.771,-34.0259 294.738,-33.348"/>
</g>
<!-- Node8&#45;&gt;Node2 -->
<g id="edge22" class="edge"><title>Node8&#45;&gt;Node2</title>
<path fill="none" stroke="midnightblue" d="M113.137,-86.143C196.392,-109.816 369.899,-159.15 445.449,-180.632"/>
<polygon fill="midnightblue" stroke="midnightblue" points="114.02,-82.7554 103.444,-83.3869 112.106,-89.4885 114.02,-82.7554"/>
</g>
<!-- Node8&#45;&gt;Node3 -->
<g id="edge24" class="edge"><title>Node8&#45;&gt;Node3</title>
<path fill="none" stroke="midnightblue" d="M130.52,-83.4639C193.24,-94.3737 287.473,-111.309 343.478,-121.746"/>
<polygon fill="midnightblue" stroke="midnightblue" points="130.801,-79.9605 120.35,-81.7 129.605,-86.8575 130.801,-79.9605"/>
</g>
<!-- Node8&#45;&gt;Node6 -->
<g id="edge26" class="edge"><title>Node8&#45;&gt;Node6</title>
<path fill="none" stroke="midnightblue" d="M116.645,-58.0655C156.847,-47.6093 212.702,-33.082 250.016,-23.3771"/>
<polygon fill="midnightblue" stroke="midnightblue" points="115.579,-54.7262 106.782,-60.6308 117.341,-61.5008 115.579,-54.7262"/>
</g>
<!-- Node9&#45;&gt;Node1 -->
<g id="edge30" class="edge"><title>Node9&#45;&gt;Node1</title>
<path fill="none" stroke="midnightblue" d="M653.379,-92.2674C633.815,-120.829 593.312,-174.224 545.914,-204 515.735,-222.959 477.473,-234.641 446.395,-241.616"/>
<polygon fill="midnightblue" stroke="midnightblue" points="656.526,-93.8579 659.19,-83.6034 650.713,-89.9584 656.526,-93.8579"/>
</g>
<!-- Node9&#45;&gt;Node2 -->
<g id="edge32" class="edge"><title>Node9&#45;&gt;Node2</title>
<path fill="none" stroke="midnightblue" d="M629.961,-87.4448C610.646,-95.8448 586.789,-107.273 566.914,-120 537.93,-138.56 507.921,-165.878 492.491,-180.631"/>
<polygon fill="midnightblue" stroke="midnightblue" points="631.494,-90.5962 639.321,-83.455 628.749,-84.1568 631.494,-90.5962"/>
</g>
<!-- Node9&#45;&gt;Node3 -->
<g id="edge34" class="edge"><title>Node9&#45;&gt;Node3</title>
<path fill="none" stroke="midnightblue" d="M612.26,-85.4647C561.055,-96.5721 484.844,-112.54 436.216,-122.317"/>
<polygon fill="midnightblue" stroke="midnightblue" points="613.125,-88.8584 622.152,-83.3113 611.636,-82.0186 613.125,-88.8584"/>
</g>
<!-- Node9&#45;&gt;Node6 -->
<g id="edge38" class="edge"><title>Node9&#45;&gt;Node6</title>
<path fill="none" stroke="midnightblue" d="M608.383,-62.1255C535.654,-50.9067 411.533,-31.7604 341.66,-20.9822"/>
<polygon fill="midnightblue" stroke="midnightblue" points="607.877,-65.5887 618.293,-63.6543 608.944,-58.6706 607.877,-65.5887"/>
</g>
<!-- Node9&#45;&gt;Node10 -->
<g id="edge36" class="edge"><title>Node9&#45;&gt;Node10</title>
<path fill="none" stroke="midnightblue" d="M653.617,-52.2313C647.422,-42.775 640.135,-31.6539 634.906,-23.6719"/>
<polygon fill="midnightblue" stroke="midnightblue" points="650.712,-54.1842 659.12,-60.6308 656.568,-50.348 650.712,-54.1842"/>
</g>
</g>
</svg>
