<?xml version="1.0" encoding="UTF-8" standalone="no"?>
<!DOCTYPE svg PUBLIC "-//W3C//DTD SVG 1.1//EN"
 "http://www.w3.org/Graphics/SVG/1.1/DTD/svg11.dtd">
<!-- Generated by graphviz version 2.28.0 (20121015.0031)
 -->
<!-- Title: include/fae/util/arch.h Pages: 1 -->
<svg width="1020pt" height="166pt"
 viewBox="0.00 0.00 1020.00 166.00" xmlns="http://www.w3.org/2000/svg" xmlns:xlink="http://www.w3.org/1999/xlink">
<g id="graph1" class="graph" transform="scale(1 1) rotate(0) translate(4 162)">
<title>include/fae/util/arch.h</title>
<!-- Node1 -->
<g id="node1" class="node"><title>Node1</title>
<polygon fill="#bfbfbf" stroke="black" points="471.642,-134.695 471.642,-157.305 602.358,-157.305 602.358,-134.695 471.642,-134.695"/>
<text text-anchor="middle" x="537" y="-142.305" font-family="Futura" font-size="11.00">include/fae/util/arch.h</text>
</g>
<!-- Node2 -->
<g id="node3" class="node"><title>Node2</title>
<a xlink:href="util_8h.html" target="_top" xlink:title="include/fae/util.h">
<polygon fill="none" stroke="red" points="485.577,-74.6953 485.577,-97.3047 588.423,-97.3047 588.423,-74.6953 485.577,-74.6953"/>
<text text-anchor="middle" x="537" y="-82.3047" font-family="Futura" font-size="11.00">include/fae/util.h</text>
</a>
</g>
<!-- Node1&#45;&gt;Node2 -->
<g id="edge2" class="edge"><title>Node1&#45;&gt;Node2</title>
<path fill="none" stroke="midnightblue" d="M537,-124.459C537,-115.411 537,-105.16 537,-97.6719"/>
<polygon fill="midnightblue" stroke="midnightblue" points="533.5,-124.631 537,-134.631 540.5,-124.631 533.5,-124.631"/>
</g>
<!-- Node3 -->
<g id="node5" class="node"><title>Node3</title>
<a xlink:href="queue_8c.html" target="_top" xlink:title="src/fae/atomic/queue.c">
<polygon fill="none" stroke="black" points="-0.710449,-7.69531 -0.710449,-30.3047 134.71,-30.3047 134.71,-7.69531 -0.710449,-7.69531"/>
<text text-anchor="middle" x="67" y="-15.3047" font-family="Futura" font-size="11.00">src/fae/atomic/queue.c</text>
</a>
</g>
<!-- Node2&#45;&gt;Node3 -->
<g id="edge4" class="edge"><title>Node2&#45;&gt;Node3</title>
<path fill="none" stroke="midnightblue" d="M475.295,-79.8307C397.461,-72.8082 259.682,-58.7077 143,-38 131.251,-35.9149 118.599,-33.1364 107.053,-30.3875"/>
<polygon fill="midnightblue" stroke="midnightblue" points="475.137,-83.3304 485.409,-80.7337 475.76,-76.3582 475.137,-83.3304"/>
</g>
<!-- Node4 -->
<g id="node7" class="node"><title>Node4</title>
<a xlink:href="ring__buffer_8c.html" target="_top" xlink:title="src/fae/atomic/ring\l_buffer.c">
<polygon fill="none" stroke="black" points="152.229,-0.390625 152.229,-37.6094 267.771,-37.6094 267.771,-0.390625 152.229,-0.390625"/>
<text text-anchor="start" x="160.229" y="-22.6094" font-family="Futura" font-size="11.00">src/fae/atomic/ring</text>
<text text-anchor="middle" x="210" y="-8" font-family="Futura" font-size="11.00">_buffer.c</text>
</a>
</g>
<!-- Node2&#45;&gt;Node4 -->
<g id="edge6" class="edge"><title>Node2&#45;&gt;Node4</title>
<path fill="none" stroke="midnightblue" d="M475.542,-75.3792C422.673,-66.7482 344.488,-53.1375 277,-38 274.062,-37.341 271.059,-36.639 268.031,-35.9088"/>
<polygon fill="midnightblue" stroke="midnightblue" points="475.008,-78.8381 485.439,-76.985 476.129,-71.9285 475.008,-78.8381"/>
</g>
<!-- Node5 -->
<g id="node9" class="node"><title>Node5</title>
<a xlink:href="stack_8c.html" target="_top" xlink:title="src/fae/atomic/stack.c">
<polygon fill="none" stroke="black" points="286.061,-7.69531 286.061,-30.3047 415.939,-30.3047 415.939,-7.69531 286.061,-7.69531"/>
<text text-anchor="middle" x="351" y="-15.3047" font-family="Futura" font-size="11.00">src/fae/atomic/stack.c</text>
</a>
</g>
<!-- Node2&#45;&gt;Node5 -->
<g id="edge8" class="edge"><title>Node2&#45;&gt;Node5</title>
<path fill="none" stroke="midnightblue" d="M497.674,-71.2572C462.647,-59.0163 412.173,-41.3778 380.503,-30.3101"/>
<polygon fill="midnightblue" stroke="midnightblue" points="496.521,-74.5616 507.116,-74.5566 498.83,-67.9535 496.521,-74.5616"/>
</g>
<!-- Node6 -->
<g id="node11" class="node"><title>Node6</title>
<a xlink:href="audio_8c.html" target="_top" xlink:title="src/fae/audio.c">
<polygon fill="none" stroke="black" points="433.796,-7.69531 433.796,-30.3047 528.204,-30.3047 528.204,-7.69531 433.796,-7.69531"/>
<text text-anchor="middle" x="481" y="-15.3047" font-family="Futura" font-size="11.00">src/fae/audio.c</text>
</a>
</g>
<!-- Node2&#45;&gt;Node6 -->
<g id="edge10" class="edge"><title>Node2&#45;&gt;Node6</title>
<path fill="none" stroke="midnightblue" d="M521.257,-66.7274C511.225,-55.0822 498.576,-40.4005 490.161,-30.6334"/>
<polygon fill="midnightblue" stroke="midnightblue" points="518.824,-69.265 528.003,-74.5566 524.127,-64.696 518.824,-69.265"/>
</g>
<!-- Node7 -->
<g id="node13" class="node"><title>Node7</title>
<a xlink:href="buffer_8c.html" target="_top" xlink:title="src/fae/buffer.c">
<polygon fill="none" stroke="black" points="546.431,-7.69531 546.431,-30.3047 641.569,-30.3047 641.569,-7.69531 546.431,-7.69531"/>
<text text-anchor="middle" x="594" y="-15.3047" font-family="Futura" font-size="11.00">src/fae/buffer.c</text>
</a>
</g>
<!-- Node2&#45;&gt;Node7 -->
<g id="edge12" class="edge"><title>Node2&#45;&gt;Node7</title>
<path fill="none" stroke="midnightblue" d="M553.024,-66.7274C563.236,-55.0822 576.11,-40.4005 584.675,-30.6334"/>
<polygon fill="midnightblue" stroke="midnightblue" points="550.12,-64.7304 546.158,-74.5566 555.383,-69.3456 550.12,-64.7304"/>
</g>
<!-- Node8 -->
<g id="node15" class="node"><title>Node8</title>
<a xlink:href="file_8c.html" target="_top" xlink:title="src/fae/device/file.c">
<polygon fill="none" stroke="black" points="659.84,-7.69531 659.84,-30.3047 778.16,-30.3047 778.16,-7.69531 659.84,-7.69531"/>
<text text-anchor="middle" x="719" y="-15.3047" font-family="Futura" font-size="11.00">src/fae/device/file.c</text>
</a>
</g>
<!-- Node2&#45;&gt;Node8 -->
<g id="edge14" class="edge"><title>Node2&#45;&gt;Node8</title>
<path fill="none" stroke="midnightblue" d="M575.92,-71.0999C610.176,-58.8657 659.275,-41.3305 690.132,-30.3101"/>
<polygon fill="midnightblue" stroke="midnightblue" points="574.482,-67.8971 566.241,-74.5566 576.836,-74.4893 574.482,-67.8971"/>
</g>
<!-- Node9 -->
<g id="node17" class="node"><title>Node9</title>
<a xlink:href="dynamic_8c.html" target="_top" xlink:title="src/fae/dynamic.c">
<polygon fill="none" stroke="black" points="796.123,-7.69531 796.123,-30.3047 903.877,-30.3047 903.877,-7.69531 796.123,-7.69531"/>
<text text-anchor="middle" x="850" y="-15.3047" font-family="Futura" font-size="11.00">src/fae/dynamic.c</text>
</a>
</g>
<!-- Node2&#45;&gt;Node9 -->
<g id="edge16" class="edge"><title>Node2&#45;&gt;Node9</title>
<path fill="none" stroke="midnightblue" d="M598.686,-75.0388C649.49,-66.4436 723.269,-53.0612 787,-38 796.41,-35.7763 806.516,-33.0448 815.819,-30.388"/>
<polygon fill="midnightblue" stroke="midnightblue" points="597.806,-71.6375 588.524,-76.746 598.965,-78.5408 597.806,-71.6375"/>
</g>
<!-- Node10 -->
<g id="node19" class="node"><title>Node10</title>
<a xlink:href="error_8c.html" target="_top" xlink:title="src/fae/error.c">
<polygon fill="none" stroke="black" points="921.802,-7.69531 921.802,-30.3047 1012.2,-30.3047 1012.2,-7.69531 921.802,-7.69531"/>
<text text-anchor="middle" x="967" y="-15.3047" font-family="Futura" font-size="11.00">src/fae/error.c</text>
</a>
</g>
<!-- Node2&#45;&gt;Node10 -->
<g id="edge18" class="edge"><title>Node2&#45;&gt;Node10</title>
<path fill="none" stroke="midnightblue" d="M598.672,-80.9108C673.498,-75.1168 803.155,-62.3953 912,-38 920.823,-36.0224 930.241,-33.2106 938.744,-30.3955"/>
<polygon fill="midnightblue" stroke="midnightblue" points="598.192,-77.4371 588.485,-81.6829 598.721,-84.417 598.192,-77.4371"/>
</g>
</g>
</svg>
