<?xml version="1.0" encoding="UTF-8" standalone="no"?>
<!DOCTYPE svg PUBLIC "-//W3C//DTD SVG 1.1//EN"
 "http://www.w3.org/Graphics/SVG/1.1/DTD/svg11.dtd">
<!-- Generated by graphviz version 2.28.0 (20121015.0031)
 -->
<!-- Title: include/fae/atomic.h Pages: 1 -->
<svg width="787pt" height="152pt"
 viewBox="0.00 0.00 787.00 152.00" xmlns="http://www.w3.org/2000/svg" xmlns:xlink="http://www.w3.org/1999/xlink">
<g id="graph1" class="graph" transform="scale(1 1) rotate(0) translate(4 148)">
<title>include/fae/atomic.h</title>
<!-- Node1 -->
<g id="node1" class="node"><title>Node1</title>
<polygon fill="#bfbfbf" stroke="black" points="496.331,-120.695 496.331,-143.305 617.669,-143.305 617.669,-120.695 496.331,-120.695"/>
<text text-anchor="middle" x="557" y="-128.305" font-family="Futura" font-size="11.00">include/fae/atomic.h</text>
</g>
<!-- Node2 -->
<g id="node3" class="node"><title>Node2</title>
<a xlink:href="fae_2fae_8h.html" target="_top" xlink:title="fae.h">
<polygon fill="none" stroke="red" points="536.23,-60.6953 536.23,-83.3047 577.77,-83.3047 577.77,-60.6953 536.23,-60.6953"/>
<text text-anchor="middle" x="557" y="-68.3047" font-family="Futura" font-size="11.00">fae.h</text>
</a>
</g>
<!-- Node1&#45;&gt;Node2 -->
<g id="edge2" class="edge"><title>Node1&#45;&gt;Node2</title>
<path fill="none" stroke="midnightblue" d="M551.684,-120.631C550.323,-113.137 549.931,-102.764 550.508,-93.6107"/>
<polygon fill="midnightblue" stroke="midnightblue" points="553.986,-94.0015 551.63,-83.6719 547.03,-93.2159 553.986,-94.0015"/>
</g>
<!-- Node10 -->
<g id="node22" class="node"><title>Node10</title>
<polygon fill="none" stroke="#bfbfbf" points="595.347,-60.6953 595.347,-83.3047 656.653,-83.3047 656.653,-60.6953 595.347,-60.6953"/>
<text text-anchor="middle" x="626" y="-68.3047" font-family="Futura" font-size="11.00">fae/std.h</text>
</g>
<!-- Node1&#45;&gt;Node10 -->
<g id="edge24" class="edge"><title>Node1&#45;&gt;Node10</title>
<path fill="none" stroke="midnightblue" d="M569.336,-120.631C579.317,-112.24 593.591,-100.242 605.316,-90.3869"/>
<polygon fill="midnightblue" stroke="midnightblue" points="607.901,-92.7856 613.304,-83.6719 603.397,-87.4272 607.901,-92.7856"/>
</g>
<!-- Node2&#45;&gt;Node1 -->
<g id="edge4" class="edge"><title>Node2&#45;&gt;Node1</title>
<path fill="none" stroke="midnightblue" d="M562.37,-83.6719C563.691,-91.1602 564.064,-101.411 563.488,-110.459"/>
<polygon fill="midnightblue" stroke="midnightblue" points="559.984,-110.296 562.316,-120.631 566.938,-111.097 559.984,-110.296"/>
</g>
<!-- Node3 -->
<g id="node6" class="node"><title>Node3</title>
<polygon fill="none" stroke="#bfbfbf" points="-0.394287,-0.695312 -0.394287,-23.3047 116.394,-23.3047 116.394,-0.695312 -0.394287,-0.695312"/>
<text text-anchor="middle" x="58" y="-8.30469" font-family="Futura" font-size="11.00">fae/atomic/queue.h</text>
</g>
<!-- Node2&#45;&gt;Node3 -->
<g id="edge6" class="edge"><title>Node2&#45;&gt;Node3</title>
<path fill="none" stroke="midnightblue" d="M535.823,-69.1074C474.305,-63.523 290.116,-46.1911 126.675,-24.1751"/>
<polygon fill="midnightblue" stroke="midnightblue" points="126.817,-20.6624 116.437,-22.7862 125.876,-27.5989 126.817,-20.6624"/>
</g>
<!-- Node4 -->
<g id="node8" class="node"><title>Node4</title>
<a xlink:href="stack_8h.html" target="_top" xlink:title="fae/atomic/stack.h">
<polygon fill="none" stroke="red" points="134.377,-0.695312 134.377,-23.3047 245.623,-23.3047 245.623,-0.695312 134.377,-0.695312"/>
<text text-anchor="middle" x="190" y="-8.30469" font-family="Futura" font-size="11.00">fae/atomic/stack.h</text>
</a>
</g>
<!-- Node2&#45;&gt;Node4 -->
<g id="edge8" class="edge"><title>Node2&#45;&gt;Node4</title>
<path fill="none" stroke="midnightblue" d="M536.042,-67.8696C488.237,-60.7034 367.231,-42.4201 255.891,-24.293"/>
<polygon fill="midnightblue" stroke="midnightblue" points="256.272,-20.809 245.839,-22.6525 255.144,-27.7176 256.272,-20.809"/>
</g>
<!-- Node5 -->
<g id="node10" class="node"><title>Node5</title>
<polygon fill="none" stroke="#bfbfbf" points="263.483,-0.695312 263.483,-23.3047 404.517,-23.3047 404.517,-0.695312 263.483,-0.695312"/>
<text text-anchor="middle" x="334" y="-8.30469" font-family="Futura" font-size="11.00">fae/atomic/ring_buffer.h</text>
</g>
<!-- Node2&#45;&gt;Node5 -->
<g id="edge10" class="edge"><title>Node2&#45;&gt;Node5</title>
<path fill="none" stroke="midnightblue" d="M536.021,-65.5435C501.402,-56.5396 431.397,-38.3319 383.602,-25.9011"/>
<polygon fill="midnightblue" stroke="midnightblue" points="384.321,-22.4715 373.761,-23.3415 382.558,-29.2461 384.321,-22.4715"/>
</g>
<!-- Node6 -->
<g id="node12" class="node"><title>Node6</title>
<a xlink:href="system_8h.html" target="_top" xlink:title="fae/system.h">
<polygon fill="none" stroke="red" points="422.983,-0.695312 422.983,-23.3047 503.017,-23.3047 503.017,-0.695312 422.983,-0.695312"/>
<text text-anchor="middle" x="463" y="-8.30469" font-family="Futura" font-size="11.00">fae/system.h</text>
</a>
</g>
<!-- Node2&#45;&gt;Node6 -->
<g id="edge12" class="edge"><title>Node2&#45;&gt;Node6</title>
<path fill="none" stroke="midnightblue" d="M540.195,-60.6308C525.847,-51.7782 504.99,-38.9089 488.572,-28.7784"/>
<polygon fill="midnightblue" stroke="midnightblue" points="490.325,-25.7475 479.977,-23.475 486.649,-31.7048 490.325,-25.7475"/>
</g>
<!-- Node7 -->
<g id="node14" class="node"><title>Node7</title>
<a xlink:href="error_8h.html" target="_top" xlink:title="fae/error.h">
<polygon fill="none" stroke="red" points="521.119,-0.695312 521.119,-23.3047 592.881,-23.3047 592.881,-0.695312 521.119,-0.695312"/>
<text text-anchor="middle" x="557" y="-8.30469" font-family="Futura" font-size="11.00">fae/error.h</text>
</a>
</g>
<!-- Node2&#45;&gt;Node7 -->
<g id="edge14" class="edge"><title>Node2&#45;&gt;Node7</title>
<path fill="none" stroke="midnightblue" d="M551.684,-60.6308C550.323,-53.1365 549.931,-42.7636 550.508,-33.6107"/>
<polygon fill="midnightblue" stroke="midnightblue" points="553.986,-34.0015 551.63,-23.6719 547.03,-33.2159 553.986,-34.0015"/>
</g>
<!-- Node8 -->
<g id="node17" class="node"><title>Node8</title>
<polygon fill="none" stroke="#bfbfbf" points="611.2,-0.695312 611.2,-23.3047 684.8,-23.3047 684.8,-0.695312 611.2,-0.695312"/>
<text text-anchor="middle" x="648" y="-8.30469" font-family="Futura" font-size="11.00">fae/event.h</text>
</g>
<!-- Node2&#45;&gt;Node8 -->
<g id="edge18" class="edge"><title>Node2&#45;&gt;Node8</title>
<path fill="none" stroke="midnightblue" d="M573.269,-60.6308C587.03,-51.8601 606.977,-39.1468 622.802,-29.0605"/>
<polygon fill="midnightblue" stroke="midnightblue" points="625.013,-31.8013 631.565,-23.475 621.251,-25.8983 625.013,-31.8013"/>
</g>
<!-- Node9 -->
<g id="node19" class="node"><title>Node9</title>
<a xlink:href="graph_8h.html" target="_top" xlink:title="fae/graph.h">
<polygon fill="none" stroke="red" points="702.457,-0.695312 702.457,-23.3047 779.543,-23.3047 779.543,-0.695312 702.457,-0.695312"/>
<text text-anchor="middle" x="741" y="-8.30469" font-family="Futura" font-size="11.00">fae/graph.h</text>
</a>
</g>
<!-- Node2&#45;&gt;Node9 -->
<g id="edge20" class="edge"><title>Node2&#45;&gt;Node9</title>
<path fill="none" stroke="midnightblue" d="M575.149,-60.6384C575.77,-60.4215 576.388,-60.2085 577,-60 615.232,-46.9696 659.359,-33.7649 692.318,-24.6838"/>
<polygon fill="midnightblue" stroke="midnightblue" points="693.44,-28.0059 702.17,-22.0027 691.602,-21.2516 693.44,-28.0059"/>
</g>
<!-- Node7&#45;&gt;Node2 -->
<g id="edge16" class="edge"><title>Node7&#45;&gt;Node2</title>
<path fill="none" stroke="midnightblue" d="M562.37,-23.6719C563.691,-31.1602 564.064,-41.4112 563.488,-50.4586"/>
<polygon fill="midnightblue" stroke="midnightblue" points="559.984,-50.2958 562.316,-60.6308 566.938,-51.0972 559.984,-50.2958"/>
</g>
<!-- Node9&#45;&gt;Node2 -->
<g id="edge22" class="edge"><title>Node9&#45;&gt;Node2</title>
<path fill="none" stroke="midnightblue" d="M711.6,-23.321C681.896,-32.4114 635.19,-46.302 595,-60 592.636,-60.8056 590.177,-61.6803 587.682,-62.5726"/>
<polygon fill="midnightblue" stroke="midnightblue" points="586.262,-59.3622 577.998,-65.9925 588.593,-65.9627 586.262,-59.3622"/>
</g>
</g>
</svg>
