<?xml version="1.0" encoding="UTF-8" standalone="no"?>
<!DOCTYPE svg PUBLIC "-//W3C//DTD SVG 1.1//EN"
 "http://www.w3.org/Graphics/SVG/1.1/DTD/svg11.dtd">
<!-- Generated by graphviz version 2.28.0 (20121015.0031)
 -->
<!-- Title: include/fa/atomic.h Pages: 1 -->
<svg width="726pt" height="212pt"
 viewBox="0.00 0.00 726.00 212.00" xmlns="http://www.w3.org/2000/svg" xmlns:xlink="http://www.w3.org/1999/xlink">
<g id="graph1" class="graph" transform="scale(1 1) rotate(0) translate(4 208)">
<title>include/fa/atomic.h</title>
<!-- Node1 -->
<g id="node1" class="node"><title>Node1</title>
<polygon fill="#bfbfbf" stroke="black" points="471.374,-180.695 471.374,-203.305 586.626,-203.305 586.626,-180.695 471.374,-180.695"/>
<text text-anchor="middle" x="529" y="-188.305" font-family="Futura" font-size="11.00">include/fa/atomic.h</text>
</g>
<!-- Node2 -->
<g id="node3" class="node"><title>Node2</title>
<a xlink:href="fa_2fa_8h.html" target="_top" xlink:title="fa.h">
<polygon fill="none" stroke="red" points="511.273,-120.695 511.273,-143.305 546.727,-143.305 546.727,-120.695 511.273,-120.695"/>
<text text-anchor="middle" x="529" y="-128.305" font-family="Futura" font-size="11.00">fa.h</text>
</a>
</g>
<!-- Node1&#45;&gt;Node2 -->
<g id="edge2" class="edge"><title>Node1&#45;&gt;Node2</title>
<path fill="none" stroke="midnightblue" d="M523.684,-180.631C522.323,-173.137 521.931,-162.764 522.508,-153.611"/>
<polygon fill="midnightblue" stroke="midnightblue" points="525.986,-154.001 523.63,-143.672 519.03,-153.216 525.986,-154.001"/>
</g>
<!-- Node10 -->
<g id="node23" class="node"><title>Node10</title>
<a xlink:href="std_8h.html" target="_top" xlink:title="fa/std.h">
<polygon fill="none" stroke="red" points="564.39,-120.695 564.39,-143.305 619.61,-143.305 619.61,-120.695 564.39,-120.695"/>
<text text-anchor="middle" x="592" y="-128.305" font-family="Futura" font-size="11.00">fa/std.h</text>
</a>
</g>
<!-- Node1&#45;&gt;Node10 -->
<g id="edge26" class="edge"><title>Node1&#45;&gt;Node10</title>
<path fill="none" stroke="midnightblue" d="M540.263,-180.631C549.288,-172.322 562.157,-160.475 572.802,-150.675"/>
<polygon fill="midnightblue" stroke="midnightblue" points="575.422,-153.02 580.408,-143.672 570.681,-147.87 575.422,-153.02"/>
</g>
<!-- Node2&#45;&gt;Node1 -->
<g id="edge4" class="edge"><title>Node2&#45;&gt;Node1</title>
<path fill="none" stroke="midnightblue" d="M534.37,-143.672C535.691,-151.16 536.064,-161.411 535.488,-170.459"/>
<polygon fill="midnightblue" stroke="midnightblue" points="531.984,-170.296 534.316,-180.631 538.938,-171.097 531.984,-170.296"/>
</g>
<!-- Node3 -->
<g id="node6" class="node"><title>Node3</title>
<a xlink:href="queue_8h.html" target="_top" xlink:title="fa/atomic/queue.h">
<polygon fill="none" stroke="red" points="-0.351562,-60.6953 -0.351562,-83.3047 110.352,-83.3047 110.352,-60.6953 -0.351562,-60.6953"/>
<text text-anchor="middle" x="55" y="-68.3047" font-family="Futura" font-size="11.00">fa/atomic/queue.h</text>
</a>
</g>
<!-- Node2&#45;&gt;Node3 -->
<g id="edge6" class="edge"><title>Node2&#45;&gt;Node3</title>
<path fill="none" stroke="midnightblue" d="M510.97,-129.298C454.815,-123.919 277.895,-106.399 120.791,-84.1992"/>
<polygon fill="midnightblue" stroke="midnightblue" points="120.866,-80.6747 110.473,-82.7302 119.88,-87.6049 120.866,-80.6747"/>
</g>
<!-- Node4 -->
<g id="node8" class="node"><title>Node4</title>
<a xlink:href="stack_8h.html" target="_top" xlink:title="fa/atomic/stack.h">
<polygon fill="none" stroke="red" points="128.42,-60.6953 128.42,-83.3047 233.58,-83.3047 233.58,-60.6953 128.42,-60.6953"/>
<text text-anchor="middle" x="181" y="-68.3047" font-family="Futura" font-size="11.00">fa/atomic/stack.h</text>
</a>
</g>
<!-- Node2&#45;&gt;Node4 -->
<g id="edge8" class="edge"><title>Node2&#45;&gt;Node4</title>
<path fill="none" stroke="midnightblue" d="M511.248,-128.163C467.675,-121.183 351.741,-102.509 243.837,-84.1275"/>
<polygon fill="midnightblue" stroke="midnightblue" points="244.204,-80.6395 233.757,-82.4072 243.026,-87.5397 244.204,-80.6395"/>
</g>
<!-- Node5 -->
<g id="node10" class="node"><title>Node5</title>
<a xlink:href="ring__buffer_8h.html" target="_top" xlink:title="fa/atomic/ring_buffer.h">
<polygon fill="none" stroke="red" points="251.526,-60.6953 251.526,-83.3047 386.474,-83.3047 386.474,-60.6953 251.526,-60.6953"/>
<text text-anchor="middle" x="319" y="-68.3047" font-family="Futura" font-size="11.00">fa/atomic/ring_buffer.h</text>
</a>
</g>
<!-- Node2&#45;&gt;Node5 -->
<g id="edge10" class="edge"><title>Node2&#45;&gt;Node5</title>
<path fill="none" stroke="midnightblue" d="M511.096,-126.055C479.308,-117.275 412.05,-98.6995 366.182,-86.0312"/>
<polygon fill="midnightblue" stroke="midnightblue" points="367.024,-82.6328 356.453,-83.3442 365.16,-89.3802 367.024,-82.6328"/>
</g>
<!-- Node6 -->
<g id="node12" class="node"><title>Node6</title>
<a xlink:href="system_8h.html" target="_top" xlink:title="fa/system.h">
<polygon fill="none" stroke="red" points="404.026,-60.6953 404.026,-83.3047 477.974,-83.3047 477.974,-60.6953 404.026,-60.6953"/>
<text text-anchor="middle" x="441" y="-68.3047" font-family="Futura" font-size="11.00">fa/system.h</text>
</a>
</g>
<!-- Node2&#45;&gt;Node6 -->
<g id="edge12" class="edge"><title>Node2&#45;&gt;Node6</title>
<path fill="none" stroke="midnightblue" d="M513.267,-120.631C499.96,-111.86 480.671,-99.1468 465.368,-89.0605"/>
<polygon fill="midnightblue" stroke="midnightblue" points="467.169,-86.0558 456.893,-83.475 463.317,-91.9006 467.169,-86.0558"/>
</g>
<!-- Node7 -->
<g id="node14" class="node"><title>Node7</title>
<a xlink:href="error_8h.html" target="_top" xlink:title="fa/error.h">
<polygon fill="none" stroke="red" points="496.161,-60.6953 496.161,-83.3047 561.839,-83.3047 561.839,-60.6953 496.161,-60.6953"/>
<text text-anchor="middle" x="529" y="-68.3047" font-family="Futura" font-size="11.00">fa/error.h</text>
</a>
</g>
<!-- Node2&#45;&gt;Node7 -->
<g id="edge14" class="edge"><title>Node2&#45;&gt;Node7</title>
<path fill="none" stroke="midnightblue" d="M523.684,-120.631C522.323,-113.137 521.931,-102.764 522.508,-93.6107"/>
<polygon fill="midnightblue" stroke="midnightblue" points="525.986,-94.0015 523.63,-83.6719 519.03,-93.2159 525.986,-94.0015"/>
</g>
<!-- Node8 -->
<g id="node17" class="node"><title>Node8</title>
<a xlink:href="pair_8h.html" target="_top" xlink:title="fa/pair.h">
<polygon fill="none" stroke="red" points="568.694,-0.695312 568.694,-23.3047 629.306,-23.3047 629.306,-0.695312 568.694,-0.695312"/>
<text text-anchor="middle" x="599" y="-8.30469" font-family="Futura" font-size="11.00">fa/pair.h</text>
</a>
</g>
<!-- Node2&#45;&gt;Node8 -->
<g id="edge18" class="edge"><title>Node2&#45;&gt;Node8</title>
<path fill="none" stroke="midnightblue" d="M532.693,-120.61C539.864,-111.585 552.475,-97.8252 561,-84 570.993,-67.793 578.871,-47.5383 585.447,-32.815"/>
<polygon fill="midnightblue" stroke="midnightblue" points="588.683,-34.159 589.802,-23.6234 582.357,-31.162 588.683,-34.159"/>
</g>
<!-- Node9 -->
<g id="node20" class="node"><title>Node9</title>
<a xlink:href="left_8h.html" target="_top" xlink:title="fa/pair/left.h">
<polygon fill="none" stroke="red" points="635.804,-60.6953 635.804,-83.3047 718.196,-83.3047 718.196,-60.6953 635.804,-60.6953"/>
<text text-anchor="middle" x="677" y="-68.3047" font-family="Futura" font-size="11.00">fa/pair/left.h</text>
</a>
</g>
<!-- Node2&#45;&gt;Node9 -->
<g id="edge22" class="edge"><title>Node2&#45;&gt;Node9</title>
<path fill="none" stroke="midnightblue" d="M546.871,-123.349C549.588,-122.212 552.364,-121.065 555,-120 583.3,-108.566 615.531,-96.1756 639.756,-86.9887"/>
<polygon fill="midnightblue" stroke="midnightblue" points="641.167,-90.1971 649.281,-83.3848 638.689,-83.65 641.167,-90.1971"/>
</g>
<!-- Node7&#45;&gt;Node2 -->
<g id="edge16" class="edge"><title>Node7&#45;&gt;Node2</title>
<path fill="none" stroke="midnightblue" d="M534.37,-83.6719C535.691,-91.1602 536.064,-101.411 535.488,-110.459"/>
<polygon fill="midnightblue" stroke="midnightblue" points="531.984,-110.296 534.316,-120.631 538.938,-111.097 531.984,-110.296"/>
</g>
<!-- Node8&#45;&gt;Node2 -->
<g id="edge20" class="edge"><title>Node8&#45;&gt;Node2</title>
<path fill="none" stroke="midnightblue" d="M601.953,-23.6234C600.394,-37.9745 591.3,-64.0529 579,-84 572.407,-94.6929 563.369,-105.347 554.619,-113.801"/>
<polygon fill="midnightblue" stroke="midnightblue" points="552.152,-111.312 547.072,-120.61 556.841,-116.51 552.152,-111.312"/>
</g>
<!-- Node9&#45;&gt;Node8 -->
<g id="edge24" class="edge"><title>Node9&#45;&gt;Node8</title>
<path fill="none" stroke="midnightblue" d="M663.055,-60.6308C651.481,-52.0241 634.8,-39.6207 621.363,-29.6288"/>
<polygon fill="midnightblue" stroke="midnightblue" points="623.2,-26.6335 613.087,-23.475 619.023,-32.2507 623.2,-26.6335"/>
</g>
</g>
</svg>
