<?xml version="1.0" encoding="UTF-8" standalone="no"?>
<!DOCTYPE svg PUBLIC "-//W3C//DTD SVG 1.1//EN"
 "http://www.w3.org/Graphics/SVG/1.1/DTD/svg11.dtd">
<!-- Generated by graphviz version 2.28.0 (20121015.0031)
 -->
<!-- Title: include/fae/atomic.h Pages: 1 -->
<svg width="1000pt" height="240pt"
 viewBox="0.00 0.00 1000.00 240.00" xmlns="http://www.w3.org/2000/svg" xmlns:xlink="http://www.w3.org/1999/xlink">
<g id="graph1" class="graph" transform="scale(1 1) rotate(0) translate(4 236)">
<title>include/fae/atomic.h</title>
<!-- Node1 -->
<g id="node1" class="node"><title>Node1</title>
<polygon fill="#bfbfbf" stroke="black" points="331.331,-208.695 331.331,-231.305 452.669,-231.305 452.669,-208.695 331.331,-208.695"/>
<text text-anchor="middle" x="392" y="-216.305" font-family="Futura" font-size="11.00">include/fae/atomic.h</text>
</g>
<!-- Node2 -->
<g id="node3" class="node"><title>Node2</title>
<a xlink:href="fae_2fae_8h.html" target="_top" xlink:title="include/fae/fae.h">
<polygon fill="none" stroke="red" points="12.761,-141.695 12.761,-164.305 117.239,-164.305 117.239,-141.695 12.761,-141.695"/>
<text text-anchor="middle" x="65" y="-149.305" font-family="Futura" font-size="11.00">include/fae/fae.h</text>
</a>
</g>
<!-- Node1&#45;&gt;Node2 -->
<g id="edge2" class="edge"><title>Node1&#45;&gt;Node2</title>
<path fill="none" stroke="midnightblue" d="M321.146,-209.151C266.33,-200.556 188.905,-187.117 122,-172 112.153,-169.775 101.569,-167.043 92.152,-164.386"/>
<polygon fill="midnightblue" stroke="midnightblue" points="320.692,-212.622 331.111,-210.699 321.767,-205.705 320.692,-212.622"/>
</g>
<!-- Node4 -->
<g id="node8" class="node"><title>Node4</title>
<a xlink:href="ring__buffer_8c.html" target="_top" xlink:title="src/fae/atomic/ring\l_buffer.c">
<polygon fill="none" stroke="black" points="43.2288,-0.390625 43.2288,-37.6094 158.771,-37.6094 158.771,-0.390625 43.2288,-0.390625"/>
<text text-anchor="start" x="51.2288" y="-22.6094" font-family="Futura" font-size="11.00">src/fae/atomic/ring</text>
<text text-anchor="middle" x="101" y="-8" font-family="Futura" font-size="11.00">_buffer.c</text>
</a>
</g>
<!-- Node1&#45;&gt;Node4 -->
<g id="edge12" class="edge"><title>Node1&#45;&gt;Node4</title>
<path fill="none" stroke="midnightblue" d="M320.936,-211.752C263.15,-204.542 187.484,-191.687 164,-172 128.076,-141.884 143.19,-117.205 125,-74 119.905,-61.8971 113.905,-48.3971 109.178,-37.9228"/>
<polygon fill="midnightblue" stroke="midnightblue" points="320.787,-215.259 331.136,-212.989 321.63,-208.31 320.787,-215.259"/>
</g>
<!-- Node5 -->
<g id="node10" class="node"><title>Node5</title>
<a xlink:href="queue_8c.html" target="_top" xlink:title="src/fae/atomic/queue.c">
<polygon fill="none" stroke="black" points="173.29,-141.695 173.29,-164.305 308.71,-164.305 308.71,-141.695 173.29,-141.695"/>
<text text-anchor="middle" x="241" y="-149.305" font-family="Futura" font-size="11.00">src/fae/atomic/queue.c</text>
</a>
</g>
<!-- Node1&#45;&gt;Node5 -->
<g id="edge10" class="edge"><title>Node1&#45;&gt;Node5</title>
<path fill="none" stroke="midnightblue" d="M358.264,-204.478C330.015,-192.318 290.384,-175.258 265.201,-164.417"/>
<polygon fill="midnightblue" stroke="midnightblue" points="357.17,-207.817 367.739,-208.557 359.938,-201.388 357.17,-207.817"/>
</g>
<!-- Node6 -->
<g id="node13" class="node"><title>Node6</title>
<a xlink:href="stack_8c.html" target="_top" xlink:title="src/fae/atomic/stack.c">
<polygon fill="none" stroke="black" points="327.061,-141.695 327.061,-164.305 456.939,-164.305 456.939,-141.695 327.061,-141.695"/>
<text text-anchor="middle" x="392" y="-149.305" font-family="Futura" font-size="11.00">src/fae/atomic/stack.c</text>
</a>
</g>
<!-- Node1&#45;&gt;Node6 -->
<g id="edge14" class="edge"><title>Node1&#45;&gt;Node6</title>
<path fill="none" stroke="midnightblue" d="M392,-198.314C392,-187.109 392,-173.737 392,-164.633"/>
<polygon fill="midnightblue" stroke="midnightblue" points="388.5,-198.557 392,-208.557 395.5,-198.557 388.5,-198.557"/>
</g>
<!-- Node7 -->
<g id="node15" class="node"><title>Node7</title>
<a xlink:href="audio_8c.html" target="_top" xlink:title="src/fae/audio.c">
<polygon fill="none" stroke="black" points="474.796,-141.695 474.796,-164.305 569.204,-164.305 569.204,-141.695 474.796,-141.695"/>
<text text-anchor="middle" x="522" y="-149.305" font-family="Futura" font-size="11.00">src/fae/audio.c</text>
</a>
</g>
<!-- Node1&#45;&gt;Node7 -->
<g id="edge16" class="edge"><title>Node1&#45;&gt;Node7</title>
<path fill="none" stroke="midnightblue" d="M422.005,-203.998C446.257,-191.872 479.768,-175.116 501.165,-164.417"/>
<polygon fill="midnightblue" stroke="midnightblue" points="420.266,-200.954 412.887,-208.557 423.396,-207.215 420.266,-200.954"/>
</g>
<!-- Node8 -->
<g id="node17" class="node"><title>Node8</title>
<a xlink:href="macosx_2fae_2atomic_8c.html" target="_top" xlink:title="src/platform/macosx\l/fae/atomic.c">
<polygon fill="none" stroke="black" points="587.597,-134.391 587.597,-171.609 708.403,-171.609 708.403,-134.391 587.597,-134.391"/>
<text text-anchor="start" x="595.597" y="-156.609" font-family="Futura" font-size="11.00">src/platform/macosx</text>
<text text-anchor="middle" x="648" y="-142" font-family="Futura" font-size="11.00">/fae/atomic.c</text>
</a>
</g>
<!-- Node1&#45;&gt;Node8 -->
<g id="edge18" class="edge"><title>Node1&#45;&gt;Node8</title>
<path fill="none" stroke="midnightblue" d="M443.154,-206.135C480.526,-196.721 532.421,-183.619 578,-172 581.04,-171.225 584.154,-170.43 587.298,-169.626"/>
<polygon fill="midnightblue" stroke="midnightblue" points="441.858,-202.852 433.016,-208.688 443.568,-209.64 441.858,-202.852"/>
</g>
<!-- Node9 -->
<g id="node19" class="node"><title>Node9</title>
<a xlink:href="event_8c.html" target="_top" xlink:title="src/platform/macosx\l/fae/system/event.c">
<polygon fill="none" stroke="black" points="726.597,-134.391 726.597,-171.609 847.403,-171.609 847.403,-134.391 726.597,-134.391"/>
<text text-anchor="start" x="734.597" y="-156.609" font-family="Futura" font-size="11.00">src/platform/macosx</text>
<text text-anchor="middle" x="787" y="-142" font-family="Futura" font-size="11.00">/fae/system/event.c</text>
</a>
</g>
<!-- Node1&#45;&gt;Node9 -->
<g id="edge20" class="edge"><title>Node1&#45;&gt;Node9</title>
<path fill="none" stroke="midnightblue" d="M463.134,-210.959C529.232,-202.957 630.244,-189.375 717,-172 720.076,-171.384 723.219,-170.717 726.386,-170.014"/>
<polygon fill="midnightblue" stroke="midnightblue" points="462.345,-207.528 452.833,-212.195 463.179,-214.478 462.345,-207.528"/>
</g>
<!-- Node10 -->
<g id="node21" class="node"><title>Node10</title>
<a xlink:href="windows_2fae_2atomic_8c.html" target="_top" xlink:title="src/platform/windows\l/fae/atomic.c">
<polygon fill="none" stroke="black" points="865.844,-134.391 865.844,-171.609 992.156,-171.609 992.156,-134.391 865.844,-134.391"/>
<text text-anchor="start" x="873.844" y="-156.609" font-family="Futura" font-size="11.00">src/platform/windows</text>
<text text-anchor="middle" x="929" y="-142" font-family="Futura" font-size="11.00">/fae/atomic.c</text>
</a>
</g>
<!-- Node1&#45;&gt;Node10 -->
<g id="edge22" class="edge"><title>Node1&#45;&gt;Node10</title>
<path fill="none" stroke="midnightblue" d="M463.045,-214.922C554.451,-208.964 717.914,-195.896 856,-172 859.216,-171.444 862.499,-170.824 865.807,-170.159"/>
<polygon fill="midnightblue" stroke="midnightblue" points="462.558,-211.446 452.803,-215.58 463.007,-218.432 462.558,-211.446"/>
</g>
<!-- Node2&#45;&gt;Node1 -->
<g id="edge4" class="edge"><title>Node2&#45;&gt;Node1</title>
<path fill="none" stroke="midnightblue" d="M119.532,-167.005C126.435,-168.781 133.384,-170.505 140,-172 205.68,-186.84 281.498,-200.063 332.757,-208.674"/>
<polygon fill="midnightblue" stroke="midnightblue" points="120.053,-163.524 109.493,-164.386 118.286,-170.298 120.053,-163.524"/>
</g>
<!-- Node3 -->
<g id="node6" class="node"><title>Node3</title>
<a xlink:href="buffer_8h.html" target="_top" xlink:title="include/fae/buffer.h">
<polygon fill="none" stroke="red" points="-0.815918,-74.6953 -0.815918,-97.3047 116.816,-97.3047 116.816,-74.6953 -0.815918,-74.6953"/>
<text text-anchor="middle" x="58" y="-82.3047" font-family="Futura" font-size="11.00">include/fae/buffer.h</text>
</a>
</g>
<!-- Node2&#45;&gt;Node3 -->
<g id="edge6" class="edge"><title>Node2&#45;&gt;Node3</title>
<path fill="none" stroke="midnightblue" d="M62.7722,-131.314C61.5656,-120.109 60.1255,-106.737 59.1451,-97.6334"/>
<polygon fill="midnightblue" stroke="midnightblue" points="59.3246,-131.989 63.8753,-141.557 66.2844,-131.239 59.3246,-131.989"/>
</g>
<!-- Node3&#45;&gt;Node4 -->
<g id="edge8" class="edge"><title>Node3&#45;&gt;Node4</title>
<path fill="none" stroke="midnightblue" d="M70.5633,-66.009C76.4605,-57.0946 83.4489,-46.5307 89.2412,-37.775"/>
<polygon fill="midnightblue" stroke="midnightblue" points="67.507,-64.2853 64.9087,-74.5566 73.3452,-68.1475 67.507,-64.2853"/>
</g>
</g>
</svg>
