<?xml version="1.0" encoding="UTF-8" standalone="no"?>
<!DOCTYPE svg PUBLIC "-//W3C//DTD SVG 1.1//EN"
 "http://www.w3.org/Graphics/SVG/1.1/DTD/svg11.dtd">
<!-- Generated by graphviz version 2.28.0 (20121015.0031)
 -->
<!-- Title: include/fa/audio.h Pages: 1 -->
<svg width="473pt" height="392pt"
 viewBox="0.00 0.00 473.00 392.00" xmlns="http://www.w3.org/2000/svg" xmlns:xlink="http://www.w3.org/1999/xlink">
<g id="graph1" class="graph" transform="scale(1 1) rotate(0) translate(4 388)">
<title>include/fa/audio.h</title>
<!-- Node1 -->
<g id="node1" class="node"><title>Node1</title>
<polygon fill="#bfbfbf" stroke="black" points="231.592,-360.695 231.592,-383.305 342.408,-383.305 342.408,-360.695 231.592,-360.695"/>
<text text-anchor="middle" x="287" y="-368.305" font-family="Futura" font-size="11.00">include/fa/audio.h</text>
</g>
<!-- Node2 -->
<g id="node3" class="node"><title>Node2</title>
<a xlink:href="list_8h.html" target="_top" xlink:title="fa/list.h">
<polygon fill="none" stroke="black" points="259.949,-300.695 259.949,-323.305 314.051,-323.305 314.051,-300.695 259.949,-300.695"/>
<text text-anchor="middle" x="287" y="-308.305" font-family="Futura" font-size="11.00">fa/list.h</text>
</a>
</g>
<!-- Node1&#45;&gt;Node2 -->
<g id="edge2" class="edge"><title>Node1&#45;&gt;Node2</title>
<path fill="none" stroke="midnightblue" d="M287,-360.631C287,-353.218 287,-342.989 287,-333.91"/>
<polygon fill="midnightblue" stroke="midnightblue" points="290.5,-333.672 287,-323.672 283.5,-333.672 290.5,-333.672"/>
</g>
<!-- Node4 -->
<g id="node7" class="node"><title>Node4</title>
<a xlink:href="error_8h.html" target="_top" xlink:title="fa/error.h">
<polygon fill="none" stroke="black" points="-0.838623,-180.695 -0.838623,-203.305 64.8386,-203.305 64.8386,-180.695 -0.838623,-180.695"/>
<text text-anchor="middle" x="32" y="-188.305" font-family="Futura" font-size="11.00">fa/error.h</text>
</a>
</g>
<!-- Node1&#45;&gt;Node4 -->
<g id="edge54" class="edge"><title>Node1&#45;&gt;Node4</title>
<path fill="none" stroke="midnightblue" d="M238.699,-360.618C211.428,-353.263 177.589,-341.536 151,-324 104.45,-293.299 64.0948,-240.29 44.5457,-212.032"/>
<polygon fill="midnightblue" stroke="midnightblue" points="47.245,-209.777 38.7348,-203.466 41.4521,-213.706 47.245,-209.777"/>
</g>
<!-- Node6 -->
<g id="node13" class="node"><title>Node6</title>
<a xlink:href="pair_8h.html" target="_top" xlink:title="fa/pair.h">
<polygon fill="none" stroke="black" points="268.694,-60.6953 268.694,-83.3047 329.306,-83.3047 329.306,-60.6953 268.694,-60.6953"/>
<text text-anchor="middle" x="299" y="-68.3047" font-family="Futura" font-size="11.00">fa/pair.h</text>
</a>
</g>
<!-- Node1&#45;&gt;Node6 -->
<g id="edge48" class="edge"><title>Node1&#45;&gt;Node6</title>
<path fill="none" stroke="midnightblue" d="M336.583,-360.581C389.252,-346.267 465,-314.918 465,-253 465,-253 465,-253 465,-191 465,-129.472 388.302,-97.0686 339.174,-82.6244"/>
<polygon fill="midnightblue" stroke="midnightblue" points="340.021,-79.2269 329.447,-79.8911 338.127,-85.9659 340.021,-79.2269"/>
</g>
<!-- Node8 -->
<g id="node23" class="node"><title>Node8</title>
<a xlink:href="action_8h.html" target="_top" xlink:title="fa/action.h">
<polygon fill="none" stroke="black" points="289.309,-180.695 289.309,-203.305 360.691,-203.305 360.691,-180.695 289.309,-180.695"/>
<text text-anchor="middle" x="325" y="-188.305" font-family="Futura" font-size="11.00">fa/action.h</text>
</a>
</g>
<!-- Node1&#45;&gt;Node8 -->
<g id="edge58" class="edge"><title>Node1&#45;&gt;Node8</title>
<path fill="none" stroke="midnightblue" d="M298.149,-360.635C306.755,-351.833 318.007,-338.369 323,-324 335.935,-286.777 332.279,-239.937 328.563,-213.546"/>
<polygon fill="midnightblue" stroke="midnightblue" points="332.008,-212.92 327.015,-203.575 325.09,-213.994 332.008,-212.92"/>
</g>
<!-- Node9 -->
<g id="node28" class="node"><title>Node9</title>
<a xlink:href="signal_8h.html" target="_top" xlink:title="fa/signal.h">
<polygon fill="none" stroke="red" points="232.846,-120.695 232.846,-143.305 303.154,-143.305 303.154,-120.695 232.846,-120.695"/>
<text text-anchor="middle" x="268" y="-128.305" font-family="Futura" font-size="11.00">fa/signal.h</text>
</a>
</g>
<!-- Node1&#45;&gt;Node9 -->
<g id="edge56" class="edge"><title>Node1&#45;&gt;Node9</title>
<path fill="none" stroke="midnightblue" d="M303.318,-360.599C315.247,-352.152 330.876,-339.178 340,-324 373.634,-268.046 404.099,-235.047 369,-180 356.613,-160.573 333.882,-149.048 313.117,-142.279"/>
<polygon fill="midnightblue" stroke="midnightblue" points="314.031,-138.899 303.448,-139.408 312.038,-145.61 314.031,-138.899"/>
</g>
<!-- Node10 -->
<g id="node35" class="node"><title>Node10</title>
<a xlink:href="device_8h.html" target="_top" xlink:title="fa/device.h">
<polygon fill="none" stroke="black" points="168.38,-300.695 168.38,-323.305 241.62,-323.305 241.62,-300.695 168.38,-300.695"/>
<text text-anchor="middle" x="205" y="-308.305" font-family="Futura" font-size="11.00">fa/device.h</text>
</a>
</g>
<!-- Node1&#45;&gt;Node10 -->
<g id="edge50" class="edge"><title>Node1&#45;&gt;Node10</title>
<path fill="none" stroke="midnightblue" d="M272.34,-360.631C260.056,-351.942 242.302,-339.384 228.107,-329.344"/>
<polygon fill="midnightblue" stroke="midnightblue" points="229.995,-326.392 219.81,-323.475 225.953,-332.107 229.995,-326.392"/>
</g>
<!-- Node3 -->
<g id="node5" class="node"><title>Node3</title>
<a xlink:href="fa_2fa_8h.html" target="_top" xlink:title="fa.h">
<polygon fill="none" stroke="red" points="178.273,-240.695 178.273,-263.305 213.727,-263.305 213.727,-240.695 178.273,-240.695"/>
<text text-anchor="middle" x="196" y="-248.305" font-family="Futura" font-size="11.00">fa.h</text>
</a>
</g>
<!-- Node2&#45;&gt;Node3 -->
<g id="edge4" class="edge"><title>Node2&#45;&gt;Node3</title>
<path fill="none" stroke="midnightblue" d="M265.415,-300.631C250.205,-291.942 230.226,-279.384 215.5,-269.344"/>
<polygon fill="midnightblue" stroke="midnightblue" points="217.302,-266.333 207.1,-263.475 213.293,-272.071 217.302,-266.333"/>
</g>
<!-- Node3&#45;&gt;Node1 -->
<g id="edge22" class="edge"><title>Node3&#45;&gt;Node1</title>
<path fill="none" stroke="midnightblue" d="M183.581,-263.348C167.996,-277.608 144.917,-303.827 159,-324 173.411,-344.643 197.938,-356.246 221.69,-362.757"/>
<polygon fill="midnightblue" stroke="midnightblue" points="220.886,-366.164 231.434,-365.169 222.568,-359.369 220.886,-366.164"/>
</g>
<!-- Node3&#45;&gt;Node2 -->
<g id="edge20" class="edge"><title>Node3&#45;&gt;Node2</title>
<path fill="none" stroke="midnightblue" d="M213.775,-261.219C229.304,-269.87 251.456,-283.72 267.443,-294.617"/>
<polygon fill="midnightblue" stroke="midnightblue" points="265.845,-297.771 276.047,-300.631 269.855,-292.033 265.845,-297.771"/>
</g>
<!-- Node3&#45;&gt;Node4 -->
<g id="edge6" class="edge"><title>Node3&#45;&gt;Node4</title>
<path fill="none" stroke="midnightblue" d="M178.038,-246.055C150.893,-237.478 99.5759,-219.551 65.4887,-206.917"/>
<polygon fill="midnightblue" stroke="midnightblue" points="66.5301,-203.57 55.9377,-203.344 64.0776,-210.126 66.5301,-203.57"/>
</g>
<!-- Node3&#45;&gt;Node6 -->
<g id="edge14" class="edge"><title>Node3&#45;&gt;Node6</title>
<path fill="none" stroke="midnightblue" d="M190.895,-240.407C186.239,-216.626 188.324,-158.104 215,-120 225.608,-104.847 242.823,-93.5527 259.021,-85.8384"/>
<polygon fill="midnightblue" stroke="midnightblue" points="260.647,-88.9467 268.383,-81.708 257.822,-82.5423 260.647,-88.9467"/>
</g>
<!-- Node7 -->
<g id="node19" class="node"><title>Node7</title>
<a xlink:href="time_8h.html" target="_top" xlink:title="fa/time.h">
<polygon fill="none" stroke="red" points="121.157,-60.6953 121.157,-83.3047 182.843,-83.3047 182.843,-60.6953 121.157,-60.6953"/>
<text text-anchor="middle" x="152" y="-68.3047" font-family="Futura" font-size="11.00">fa/time.h</text>
</a>
</g>
<!-- Node3&#45;&gt;Node7 -->
<g id="edge24" class="edge"><title>Node3&#45;&gt;Node7</title>
<path fill="none" stroke="midnightblue" d="M182.647,-240.549C175.499,-231.264 168.173,-217.163 164,-204 151.993,-166.131 146.633,-119.826 147.166,-93.6414"/>
<polygon fill="midnightblue" stroke="midnightblue" points="150.673,-93.6255 147.787,-83.4314 143.686,-93.2004 150.673,-93.6255"/>
</g>
<!-- Node3&#45;&gt;Node8 -->
<g id="edge30" class="edge"><title>Node3&#45;&gt;Node8</title>
<path fill="none" stroke="midnightblue" d="M213.747,-240.631C232.665,-231.368 262.844,-217.709 287.073,-207.39"/>
<polygon fill="midnightblue" stroke="midnightblue" points="288.51,-210.582 296.367,-203.475 285.793,-204.131 288.51,-210.582"/>
</g>
<!-- Node3&#45;&gt;Node9 -->
<g id="edge46" class="edge"><title>Node3&#45;&gt;Node9</title>
<path fill="none" stroke="midnightblue" d="M198.343,-240.528C207.278,-220.635 233.469,-177.126 251.305,-151.975"/>
<polygon fill="midnightblue" stroke="midnightblue" points="254.346,-153.748 257.451,-143.618 248.707,-149.601 254.346,-153.748"/>
</g>
<!-- Node4&#45;&gt;Node3 -->
<g id="edge8" class="edge"><title>Node4&#45;&gt;Node3</title>
<path fill="none" stroke="midnightblue" d="M65.0312,-202.837C95.5322,-212.94 140.088,-228.661 168.654,-239.373"/>
<polygon fill="midnightblue" stroke="midnightblue" points="167.45,-242.659 178.041,-242.935 169.934,-236.115 167.45,-242.659"/>
</g>
<!-- Node5 -->
<g id="node10" class="node"><title>Node5</title>
<a xlink:href="string_8h.html" target="_top" xlink:title="fa/string.h">
<polygon fill="none" stroke="black" points="58.8696,-0.695312 58.8696,-23.3047 127.13,-23.3047 127.13,-0.695312 58.8696,-0.695312"/>
<text text-anchor="middle" x="93" y="-8.30469" font-family="Futura" font-size="11.00">fa/string.h</text>
</a>
</g>
<!-- Node4&#45;&gt;Node5 -->
<g id="edge10" class="edge"><title>Node4&#45;&gt;Node5</title>
<path fill="none" stroke="midnightblue" d="M35.5433,-180.661C45.3559,-152.027 73.0176,-71.3093 86.0473,-33.2881"/>
<polygon fill="midnightblue" stroke="midnightblue" points="89.516,-33.9626 89.4469,-23.368 82.894,-31.6932 89.516,-33.9626"/>
</g>
<!-- Node5&#45;&gt;Node3 -->
<g id="edge12" class="edge"><title>Node5&#45;&gt;Node3</title>
<path fill="none" stroke="midnightblue" d="M95.374,-23.7256C98.5909,-37.7514 104.77,-63.0075 112,-84 130.87,-138.792 134.861,-153.34 163,-204 168.461,-213.833 175.518,-224.126 181.703,-232.565"/>
<polygon fill="midnightblue" stroke="midnightblue" points="178.926,-234.696 187.73,-240.591 184.524,-230.493 178.926,-234.696"/>
</g>
<!-- Node6&#45;&gt;Node2 -->
<g id="edge18" class="edge"><title>Node6&#45;&gt;Node2</title>
<path fill="none" stroke="midnightblue" d="M311.408,-83.3272C335.576,-104.774 385.231,-156.136 369,-204 356.658,-240.394 326.413,-274.122 306.309,-293.631"/>
<polygon fill="midnightblue" stroke="midnightblue" points="303.773,-291.212 298.904,-300.622 308.578,-296.302 303.773,-291.212"/>
</g>
<!-- Node6&#45;&gt;Node3 -->
<g id="edge16" class="edge"><title>Node6&#45;&gt;Node3</title>
<path fill="none" stroke="midnightblue" d="M279.89,-83.3561C264.805,-91.0453 244.809,-103.132 233,-120 209.554,-153.49 205.105,-202.752 201.705,-230.337"/>
<polygon fill="midnightblue" stroke="midnightblue" points="198.215,-230.022 200.312,-240.407 205.149,-230.981 198.215,-230.022"/>
</g>
<!-- Node7&#45;&gt;Node3 -->
<g id="edge26" class="edge"><title>Node7&#45;&gt;Node3</title>
<path fill="none" stroke="midnightblue" d="M157.459,-83.4314C163.192,-105.936 168.217,-160.527 182,-204 184.934,-213.255 189.427,-222.974 193.011,-231.157"/>
<polygon fill="midnightblue" stroke="midnightblue" points="189.835,-232.635 196.879,-240.549 196.307,-229.969 189.835,-232.635"/>
</g>
<!-- Node7&#45;&gt;Node5 -->
<g id="edge28" class="edge"><title>Node7&#45;&gt;Node5</title>
<path fill="none" stroke="midnightblue" d="M141.452,-60.6308C133.083,-52.4034 121.184,-40.7066 111.273,-30.9633"/>
<polygon fill="midnightblue" stroke="midnightblue" points="113.441,-28.1863 103.856,-23.6719 108.533,-33.1782 113.441,-28.1863"/>
</g>
<!-- Node8&#45;&gt;Node2 -->
<g id="edge36" class="edge"><title>Node8&#45;&gt;Node2</title>
<path fill="none" stroke="midnightblue" d="M317.93,-203.344C311.967,-212.56 303.678,-226.62 299,-240 293.27,-256.388 290.225,-275.89 288.639,-290.305"/>
<polygon fill="midnightblue" stroke="midnightblue" points="285.121,-290.33 287.656,-300.617 292.089,-290.995 285.121,-290.33"/>
</g>
<!-- Node8&#45;&gt;Node3 -->
<g id="edge32" class="edge"><title>Node8&#45;&gt;Node3</title>
<path fill="none" stroke="midnightblue" d="M306.98,-203.503C285.14,-214.184 248.57,-230.61 223.304,-241.077"/>
<polygon fill="midnightblue" stroke="midnightblue" points="221.844,-237.892 213.9,-244.903 224.482,-244.376 221.844,-237.892"/>
</g>
<!-- Node8&#45;&gt;Node6 -->
<g id="edge34" class="edge"><title>Node8&#45;&gt;Node6</title>
<path fill="none" stroke="midnightblue" d="M323.354,-180.354C321.129,-166.415 316.875,-141.253 312,-120 309.973,-111.164 307.368,-101.497 305.022,-93.24"/>
<polygon fill="midnightblue" stroke="midnightblue" points="308.31,-92.0123 302.159,-83.3861 301.588,-93.9656 308.31,-92.0123"/>
</g>
<!-- Node8&#45;&gt;Node9 -->
<g id="edge38" class="edge"><title>Node8&#45;&gt;Node9</title>
<path fill="none" stroke="midnightblue" d="M314.81,-180.631C306.724,-172.403 295.229,-160.707 285.654,-150.963"/>
<polygon fill="midnightblue" stroke="midnightblue" points="287.994,-148.351 278.488,-143.672 283.001,-153.257 287.994,-148.351"/>
</g>
<!-- Node9&#45;&gt;Node3 -->
<g id="edge40" class="edge"><title>Node9&#45;&gt;Node3</title>
<path fill="none" stroke="midnightblue" d="M265.592,-143.618C256.572,-163.626 230.359,-207.148 212.564,-232.208"/>
<polygon fill="midnightblue" stroke="midnightblue" points="209.549,-230.401 206.436,-240.528 215.185,-234.552 209.549,-230.401"/>
</g>
<!-- Node9&#45;&gt;Node6 -->
<g id="edge42" class="edge"><title>Node9&#45;&gt;Node6</title>
<path fill="none" stroke="midnightblue" d="M273.542,-120.631C277.678,-112.892 283.455,-102.084 288.46,-92.7193"/>
<polygon fill="midnightblue" stroke="midnightblue" points="291.669,-94.141 293.296,-83.6719 285.495,-90.8414 291.669,-94.141"/>
</g>
<!-- Node9&#45;&gt;Node7 -->
<g id="edge44" class="edge"><title>Node9&#45;&gt;Node7</title>
<path fill="none" stroke="midnightblue" d="M247.262,-120.631C229.147,-111.573 202.622,-98.3109 182.159,-88.0794"/>
<polygon fill="midnightblue" stroke="midnightblue" points="183.46,-84.8167 172.95,-83.475 180.329,-91.0777 183.46,-84.8167"/>
</g>
<!-- Node10&#45;&gt;Node3 -->
<g id="edge52" class="edge"><title>Node10&#45;&gt;Node3</title>
<path fill="none" stroke="midnightblue" d="M203.391,-300.631C202.228,-293.137 200.618,-282.764 199.198,-273.611"/>
<polygon fill="midnightblue" stroke="midnightblue" points="202.648,-273.017 197.656,-263.672 195.731,-274.09 202.648,-273.017"/>
</g>
</g>
</svg>
