<?xml version="1.0" encoding="UTF-8" standalone="no"?>
<!DOCTYPE svg PUBLIC "-//W3C//DTD SVG 1.1//EN"
 "http://www.w3.org/Graphics/SVG/1.1/DTD/svg11.dtd">
<!-- Generated by graphviz version 2.28.0 (20121015.0031)
 -->
<!-- Title: include/fa/audio.h Pages: 1 -->
<svg width="747pt" height="272pt"
 viewBox="0.00 0.00 747.10 272.00" xmlns="http://www.w3.org/2000/svg" xmlns:xlink="http://www.w3.org/1999/xlink">
<g id="graph1" class="graph" transform="scale(1 1) rotate(0) translate(4 268)">
<title>include/fa/audio.h</title>
<!-- Node1 -->
<g id="node1" class="node"><title>Node1</title>
<polygon fill="#bfbfbf" stroke="black" points="333.592,-240.695 333.592,-263.305 444.408,-263.305 444.408,-240.695 333.592,-240.695"/>
<text text-anchor="middle" x="389" y="-248.305" font-family="Futura" font-size="11.00">include/fa/audio.h</text>
</g>
<!-- Node2 -->
<g id="node3" class="node"><title>Node2</title>
<a xlink:href="fa_2fa_8h.html" target="_top" xlink:title="include/fa/fa.h">
<polygon fill="none" stroke="red" points="278.846,-180.695 278.846,-203.305 371.154,-203.305 371.154,-180.695 278.846,-180.695"/>
<text text-anchor="middle" x="325" y="-188.305" font-family="Futura" font-size="11.00">include/fa/fa.h</text>
</a>
</g>
<!-- Node1&#45;&gt;Node2 -->
<g id="edge2" class="edge"><title>Node1&#45;&gt;Node2</title>
<path fill="none" stroke="midnightblue" d="M369.888,-233.68C359.13,-223.93 346.038,-212.065 336.776,-203.672"/>
<polygon fill="midnightblue" stroke="midnightblue" points="367.798,-236.509 377.558,-240.631 372.499,-231.322 367.798,-236.509"/>
</g>
<!-- Node3 -->
<g id="node5" class="node"><title>Node3</title>
<a xlink:href="action_8h.html" target="_top" xlink:title="include/fa/action.h">
<polygon fill="none" stroke="red" points="-0.253906,-0.695312 -0.253906,-23.3047 112.254,-23.3047 112.254,-0.695312 -0.253906,-0.695312"/>
<text text-anchor="middle" x="56" y="-8.30469" font-family="Futura" font-size="11.00">include/fa/action.h</text>
</a>
</g>
<!-- Node2&#45;&gt;Node3 -->
<g id="edge4" class="edge"><title>Node2&#45;&gt;Node3</title>
<path fill="none" stroke="midnightblue" d="M268.568,-187.617C203.221,-182.353 101.45,-169.979 75,-144 41.484,-111.081 43.4271,-48.5491 50.1597,-23.6332"/>
<polygon fill="midnightblue" stroke="midnightblue" points="268.486,-191.121 278.726,-188.401 269.025,-184.141 268.486,-191.121"/>
</g>
<!-- Node4 -->
<g id="node9" class="node"><title>Node4</title>
<a xlink:href="buffer_8h.html" target="_top" xlink:title="include/fa/buffer.h">
<polygon fill="none" stroke="red" points="346.227,-0.695312 346.227,-23.3047 457.773,-23.3047 457.773,-0.695312 346.227,-0.695312"/>
<text text-anchor="middle" x="402" y="-8.30469" font-family="Futura" font-size="11.00">include/fa/buffer.h</text>
</a>
</g>
<!-- Node2&#45;&gt;Node4 -->
<g id="edge10" class="edge"><title>Node2&#45;&gt;Node4</title>
<path fill="none" stroke="midnightblue" d="M380.858,-178.824C399.391,-171.84 418.066,-160.94 429,-144 449.246,-112.633 438.624,-96.0717 429,-60 425.361,-46.3616 416.717,-32.5695 410.182,-23.4862"/>
<polygon fill="midnightblue" stroke="midnightblue" points="379.543,-175.574 371.22,-182.13 381.815,-182.195 379.543,-175.574"/>
</g>
<!-- Node5 -->
<g id="node11" class="node"><title>Node5</title>
<a xlink:href="clock_8h.html" target="_top" xlink:title="include/fa/clock.h">
<polygon fill="none" stroke="black" points="604.978,-120.695 604.978,-143.305 713.022,-143.305 713.022,-120.695 604.978,-120.695"/>
<text text-anchor="middle" x="659" y="-128.305" font-family="Futura" font-size="11.00">include/fa/clock.h</text>
</a>
</g>
<!-- Node2&#45;&gt;Node5 -->
<g id="edge12" class="edge"><title>Node2&#45;&gt;Node5</title>
<path fill="none" stroke="midnightblue" d="M381.385,-181.24C436.204,-171.747 521.818,-156.909 596,-144 598.844,-143.505 601.76,-142.997 604.705,-142.484"/>
<polygon fill="midnightblue" stroke="midnightblue" points="380.774,-177.794 371.517,-182.949 381.968,-184.691 380.774,-177.794"/>
</g>
<!-- Node6 -->
<g id="node14" class="node"><title>Node6</title>
<a xlink:href="dynamic_8h.html" target="_top" xlink:title="include/fa/dynamic.h">
<polygon fill="none" stroke="black" points="262.918,-120.695 262.918,-143.305 387.082,-143.305 387.082,-120.695 262.918,-120.695"/>
<text text-anchor="middle" x="325" y="-128.305" font-family="Futura" font-size="11.00">include/fa/dynamic.h</text>
</a>
</g>
<!-- Node2&#45;&gt;Node6 -->
<g id="edge16" class="edge"><title>Node2&#45;&gt;Node6</title>
<path fill="none" stroke="midnightblue" d="M325,-170.459C325,-161.411 325,-151.16 325,-143.672"/>
<polygon fill="midnightblue" stroke="midnightblue" points="321.5,-170.631 325,-180.631 328.5,-170.631 321.5,-170.631"/>
</g>
<!-- Node7 -->
<g id="node16" class="node"><title>Node7</title>
<a xlink:href="error_8h.html" target="_top" xlink:title="include/fa/error.h">
<polygon fill="none" stroke="red" points="480.598,-120.695 480.598,-143.305 587.402,-143.305 587.402,-120.695 480.598,-120.695"/>
<text text-anchor="middle" x="534" y="-128.305" font-family="Futura" font-size="11.00">include/fa/error.h</text>
</a>
</g>
<!-- Node2&#45;&gt;Node7 -->
<g id="edge18" class="edge"><title>Node2&#45;&gt;Node7</title>
<path fill="none" stroke="midnightblue" d="M366.803,-177.799C402.96,-167.363 454.868,-153 491.289,-143.377"/>
<polygon fill="midnightblue" stroke="midnightblue" points="365.677,-174.481 357.049,-180.631 367.628,-181.204 365.677,-174.481"/>
</g>
<!-- Node8 -->
<g id="node20" class="node"><title>Node8</title>
<a xlink:href="list_8h.html" target="_top" xlink:title="include/fa/list.h">
<polygon fill="none" stroke="red" points="93.3855,-120.695 93.3855,-143.305 188.615,-143.305 188.615,-120.695 93.3855,-120.695"/>
<text text-anchor="middle" x="141" y="-128.305" font-family="Futura" font-size="11.00">include/fa/list.h</text>
</a>
</g>
<!-- Node2&#45;&gt;Node8 -->
<g id="edge24" class="edge"><title>Node2&#45;&gt;Node8</title>
<path fill="none" stroke="midnightblue" d="M276.91,-177.665C242.414,-167.241 197.261,-152.959 168.603,-143.377"/>
<polygon fill="midnightblue" stroke="midnightblue" points="276.204,-181.107 286.789,-180.631 278.218,-174.403 276.204,-181.107"/>
</g>
<!-- Node9 -->
<g id="node25" class="node"><title>Node9</title>
<a xlink:href="map_8h.html" target="_top" xlink:title="include/fa/map.h">
<polygon fill="none" stroke="red" points="173.914,-0.695312 173.914,-23.3047 278.086,-23.3047 278.086,-0.695312 173.914,-0.695312"/>
<text text-anchor="middle" x="226" y="-8.30469" font-family="Futura" font-size="11.00">include/fa/map.h</text>
</a>
</g>
<!-- Node2&#45;&gt;Node9 -->
<g id="edge46" class="edge"><title>Node2&#45;&gt;Node9</title>
<path fill="none" stroke="midnightblue" d="M358.437,-176.066C382.454,-163.051 408.553,-142.733 396,-120 367.258,-67.949 301.393,-37.7688 260.604,-23.4155"/>
<polygon fill="midnightblue" stroke="midnightblue" points="356.723,-173.012 349.419,-180.687 359.915,-179.242 356.723,-173.012"/>
</g>
<!-- Node10 -->
<g id="node27" class="node"><title>Node10</title>
<a xlink:href="pair_8h.html" target="_top" xlink:title="include/fa/pair.h">
<polygon fill="none" stroke="red" points="175.131,-60.6953 175.131,-83.3047 276.869,-83.3047 276.869,-60.6953 175.131,-60.6953"/>
<text text-anchor="middle" x="226" y="-68.3047" font-family="Futura" font-size="11.00">include/fa/pair.h</text>
</a>
</g>
<!-- Node2&#45;&gt;Node10 -->
<g id="edge48" class="edge"><title>Node2&#45;&gt;Node10</title>
<path fill="none" stroke="midnightblue" d="M285.294,-175.752C270.853,-167.852 255.61,-157.097 245,-144 230.154,-125.673 222.416,-98.5064 222.105,-83.6531"/>
<polygon fill="midnightblue" stroke="midnightblue" points="284.115,-179.08 294.61,-180.527 287.308,-172.851 284.115,-179.08"/>
</g>
<!-- Node3&#45;&gt;Node1 -->
<g id="edge6" class="edge"><title>Node3&#45;&gt;Node1</title>
<path fill="none" stroke="midnightblue" d="M50.3934,-33.3973C43.9263,-61.8383 37.3167,-113.356 64,-144 132.559,-222.734 260.161,-243.793 333.424,-249.259"/>
<polygon fill="midnightblue" stroke="midnightblue" points="53.8643,-33.9433 52.8831,-23.394 47.0715,-32.2526 53.8643,-33.9433"/>
</g>
<!-- Node3&#45;&gt;Node2 -->
<g id="edge8" class="edge"><title>Node3&#45;&gt;Node2</title>
<path fill="none" stroke="midnightblue" d="M59.9551,-33.8342C61.4586,-62.7983 63.4116,-114.939 93,-144 119.117,-169.652 218.665,-182.039 278.642,-187.414"/>
<polygon fill="midnightblue" stroke="midnightblue" points="63.4346,-33.395 59.3165,-23.6332 56.4482,-33.8324 63.4346,-33.395"/>
</g>
<!-- Node5&#45;&gt;Node1 -->
<g id="edge14" class="edge"><title>Node5&#45;&gt;Node1</title>
<path fill="none" stroke="midnightblue" d="M625.76,-147.527C570.563,-171.65 461.296,-219.404 412.961,-240.528"/>
<polygon fill="midnightblue" stroke="midnightblue" points="627.332,-150.66 635.093,-143.448 624.528,-144.246 627.332,-150.66"/>
</g>
<!-- Node7&#45;&gt;Node1 -->
<g id="edge20" class="edge"><title>Node7&#45;&gt;Node1</title>
<path fill="none" stroke="midnightblue" d="M513.075,-150.029C482.612,-174.82 426.956,-220.112 401.868,-240.528"/>
<polygon fill="midnightblue" stroke="midnightblue" points="515.406,-152.645 520.953,-143.618 510.987,-147.215 515.406,-152.645"/>
</g>
<!-- Node7&#45;&gt;Node2 -->
<g id="edge22" class="edge"><title>Node7&#45;&gt;Node2</title>
<path fill="none" stroke="midnightblue" d="M492.167,-146.21C456.002,-156.647 404.094,-171.011 367.681,-180.631"/>
<polygon fill="midnightblue" stroke="midnightblue" points="493.296,-149.526 501.924,-143.377 491.345,-142.804 493.296,-149.526"/>
</g>
<!-- Node8&#45;&gt;Node1 -->
<g id="edge28" class="edge"><title>Node8&#45;&gt;Node1</title>
<path fill="none" stroke="midnightblue" d="M166.912,-148.538C192.605,-163.638 233.327,-186.751 270,-204 299.95,-218.087 335.348,-231.697 359.708,-240.614"/>
<polygon fill="midnightblue" stroke="midnightblue" points="168.551,-145.441 158.162,-143.363 164.987,-151.466 168.551,-145.441"/>
</g>
<!-- Node8&#45;&gt;Node2 -->
<g id="edge30" class="edge"><title>Node8&#45;&gt;Node2</title>
<path fill="none" stroke="midnightblue" d="M189.118,-146.344C223.62,-156.77 268.772,-171.052 297.42,-180.631"/>
<polygon fill="midnightblue" stroke="midnightblue" points="189.822,-142.901 179.238,-143.377 187.809,-149.605 189.822,-142.901"/>
</g>
<!-- Node8&#45;&gt;Node3 -->
<g id="edge26" class="edge"><title>Node8&#45;&gt;Node3</title>
<path fill="none" stroke="midnightblue" d="M127.464,-112.208C109.412,-87.148 78.0611,-43.6261 63.6485,-23.6179"/>
<polygon fill="midnightblue" stroke="midnightblue" points="124.772,-114.46 133.457,-120.528 130.452,-110.369 124.772,-114.46"/>
</g>
<!-- Node8&#45;&gt;Node9 -->
<g id="edge32" class="edge"><title>Node8&#45;&gt;Node9</title>
<path fill="none" stroke="midnightblue" d="M144.927,-110.66C148.56,-95.6244 155.087,-75.2078 166,-60 177.032,-44.6266 194.46,-31.7629 207.697,-23.402"/>
<polygon fill="midnightblue" stroke="midnightblue" points="141.491,-109.989 142.771,-120.506 148.329,-111.486 141.491,-109.989"/>
</g>
<!-- Node8&#45;&gt;Node10 -->
<g id="edge34" class="edge"><title>Node8&#45;&gt;Node10</title>
<path fill="none" stroke="midnightblue" d="M164.774,-114.778C179.458,-104.758 197.87,-92.1949 210.649,-83.475"/>
<polygon fill="midnightblue" stroke="midnightblue" points="162.484,-112.103 156.196,-120.631 166.429,-117.885 162.484,-112.103"/>
</g>
<!-- Node10&#45;&gt;Node1 -->
<g id="edge38" class="edge"><title>Node10&#45;&gt;Node1</title>
<path fill="none" stroke="midnightblue" d="M287.46,-74.2947C413.796,-77.5935 693.268,-88.4168 722,-120 804.984,-211.22 559.068,-239.739 444.412,-247.948"/>
<polygon fill="midnightblue" stroke="midnightblue" points="287.263,-70.7887 277.177,-74.0341 287.085,-77.7865 287.263,-70.7887"/>
</g>
<!-- Node10&#45;&gt;Node2 -->
<g id="edge42" class="edge"><title>Node10&#45;&gt;Node2</title>
<path fill="none" stroke="midnightblue" d="M237.816,-93.1673C243.568,-108.383 250.938,-129.109 263,-144 275.934,-159.966 295.754,-172.451 309.729,-180.527"/>
<polygon fill="midnightblue" stroke="midnightblue" points="240.986,-91.6657 234.054,-83.6531 234.476,-94.2395 240.986,-91.6657"/>
</g>
<!-- Node10&#45;&gt;Node3 -->
<g id="edge36" class="edge"><title>Node10&#45;&gt;Node3</title>
<path fill="none" stroke="midnightblue" d="M186.125,-57.3955C155.643,-46.9959 114.258,-32.8764 86.4156,-23.3771"/>
<polygon fill="midnightblue" stroke="midnightblue" points="185.013,-60.7142 195.607,-60.6308 187.273,-54.0892 185.013,-60.7142"/>
</g>
<!-- Node10&#45;&gt;Node4 -->
<g id="edge40" class="edge"><title>Node10&#45;&gt;Node4</title>
<path fill="none" stroke="midnightblue" d="M267.282,-57.3955C298.84,-46.9959 341.685,-32.8764 370.511,-23.3771"/>
<polygon fill="midnightblue" stroke="midnightblue" points="265.867,-54.1767 257.465,-60.6308 268.058,-60.825 265.867,-54.1767"/>
</g>
<!-- Node10&#45;&gt;Node9 -->
<g id="edge44" class="edge"><title>Node10&#45;&gt;Node9</title>
<path fill="none" stroke="midnightblue" d="M226,-50.4586C226,-41.4112 226,-31.1602 226,-23.6719"/>
<polygon fill="midnightblue" stroke="midnightblue" points="222.5,-50.6307 226,-60.6308 229.5,-50.6308 222.5,-50.6307"/>
</g>
</g>
</svg>
