<?xml version="1.0" encoding="UTF-8" standalone="no"?>
<!DOCTYPE svg PUBLIC "-//W3C//DTD SVG 1.1//EN"
 "http://www.w3.org/Graphics/SVG/1.1/DTD/svg11.dtd">
<!-- Generated by graphviz version 2.28.0 (20121015.0031)
 -->
<!-- Title: include/fa/audio.h Pages: 1 -->
<svg width="511pt" height="392pt"
 viewBox="0.00 0.00 511.00 392.00" xmlns="http://www.w3.org/2000/svg" xmlns:xlink="http://www.w3.org/1999/xlink">
<g id="graph1" class="graph" transform="scale(1 1) rotate(0) translate(4 388)">
<title>include/fa/audio.h</title>
<!-- Node1 -->
<g id="node1" class="node"><title>Node1</title>
<polygon fill="#bfbfbf" stroke="black" points="188.592,-360.695 188.592,-383.305 299.408,-383.305 299.408,-360.695 188.592,-360.695"/>
<text text-anchor="middle" x="244" y="-368.305" font-family="Futura" font-size="11.00">include/fa/audio.h</text>
</g>
<!-- Node2 -->
<g id="node3" class="node"><title>Node2</title>
<a xlink:href="list_8h.html" target="_top" xlink:title="fa/list.h">
<polygon fill="none" stroke="black" points="271.949,-300.695 271.949,-323.305 326.051,-323.305 326.051,-300.695 271.949,-300.695"/>
<text text-anchor="middle" x="299" y="-308.305" font-family="Futura" font-size="11.00">fa/list.h</text>
</a>
</g>
<!-- Node1&#45;&gt;Node2 -->
<g id="edge2" class="edge"><title>Node1&#45;&gt;Node2</title>
<path fill="none" stroke="midnightblue" d="M253.833,-360.631C261.635,-352.403 272.727,-340.707 281.966,-330.963"/>
<polygon fill="midnightblue" stroke="midnightblue" points="284.539,-333.336 288.88,-323.672 279.459,-328.52 284.539,-333.336"/>
</g>
<!-- Node4 -->
<g id="node7" class="node"><title>Node4</title>
<a xlink:href="error_8h.html" target="_top" xlink:title="fa/error.h">
<polygon fill="none" stroke="black" points="-0.838623,-180.695 -0.838623,-203.305 64.8386,-203.305 64.8386,-180.695 -0.838623,-180.695"/>
<text text-anchor="middle" x="32" y="-188.305" font-family="Futura" font-size="11.00">fa/error.h</text>
</a>
</g>
<!-- Node1&#45;&gt;Node4 -->
<g id="edge50" class="edge"><title>Node1&#45;&gt;Node4</title>
<path fill="none" stroke="midnightblue" d="M188.18,-370.437C148.928,-367.026 97.9122,-356.047 66,-324 36.434,-294.309 31.5607,-242.416 31.3253,-213.66"/>
<polygon fill="midnightblue" stroke="midnightblue" points="34.8263,-213.574 31.4298,-203.538 27.8266,-213.501 34.8263,-213.574"/>
</g>
<!-- Node6 -->
<g id="node13" class="node"><title>Node6</title>
<a xlink:href="pair_8h.html" target="_top" xlink:title="fa/pair.h">
<polygon fill="none" stroke="black" points="339.694,-60.6953 339.694,-83.3047 400.306,-83.3047 400.306,-60.6953 339.694,-60.6953"/>
<text text-anchor="middle" x="370" y="-68.3047" font-family="Futura" font-size="11.00">fa/pair.h</text>
</a>
</g>
<!-- Node1&#45;&gt;Node6 -->
<g id="edge48" class="edge"><title>Node1&#45;&gt;Node6</title>
<path fill="none" stroke="midnightblue" d="M299.562,-369.447C375.665,-364.023 503,-341.695 503,-253 503,-253 503,-253 503,-191 503,-139.778 447.119,-105.381 407.801,-87.519"/>
<polygon fill="midnightblue" stroke="midnightblue" points="408.771,-84.1237 398.206,-83.3338 405.973,-90.5399 408.771,-84.1237"/>
</g>
<!-- Node8 -->
<g id="node23" class="node"><title>Node8</title>
<a xlink:href="action_8h.html" target="_top" xlink:title="fa/action.h">
<polygon fill="none" stroke="black" points="365.309,-180.695 365.309,-203.305 436.691,-203.305 436.691,-180.695 365.309,-180.695"/>
<text text-anchor="middle" x="401" y="-188.305" font-family="Futura" font-size="11.00">fa/action.h</text>
</a>
</g>
<!-- Node1&#45;&gt;Node8 -->
<g id="edge54" class="edge"><title>Node1&#45;&gt;Node8</title>
<path fill="none" stroke="midnightblue" d="M274.882,-360.688C294.09,-353.016 318.237,-340.933 335,-324 366.792,-291.886 386.221,-241.353 395.151,-213.363"/>
<polygon fill="midnightblue" stroke="midnightblue" points="398.588,-214.091 398.157,-203.505 391.892,-212.049 398.588,-214.091"/>
</g>
<!-- Node9 -->
<g id="node28" class="node"><title>Node9</title>
<a xlink:href="signal_8h.html" target="_top" xlink:title="fa/signal.h">
<polygon fill="none" stroke="red" points="236.846,-120.695 236.846,-143.305 307.154,-143.305 307.154,-120.695 236.846,-120.695"/>
<text text-anchor="middle" x="272" y="-128.305" font-family="Futura" font-size="11.00">fa/signal.h</text>
</a>
</g>
<!-- Node1&#45;&gt;Node9 -->
<g id="edge52" class="edge"><title>Node1&#45;&gt;Node9</title>
<path fill="none" stroke="midnightblue" d="M243.228,-360.414C241.784,-338.06 239.307,-284.442 245,-240 248.957,-209.112 258.773,-174.313 265.414,-153.021"/>
<polygon fill="midnightblue" stroke="midnightblue" points="268.756,-154.06 268.464,-143.469 262.088,-151.931 268.756,-154.06"/>
</g>
<!-- Node10 -->
<g id="node38" class="node"><title>Node10</title>
<a xlink:href="clock_8h.html" target="_top" xlink:title="fa/clock.h">
<polygon fill="none" stroke="black" points="74.541,-300.695 74.541,-323.305 141.459,-323.305 141.459,-300.695 74.541,-300.695"/>
<text text-anchor="middle" x="108" y="-308.305" font-family="Futura" font-size="11.00">fa/clock.h</text>
</a>
</g>
<!-- Node1&#45;&gt;Node10 -->
<g id="edge56" class="edge"><title>Node1&#45;&gt;Node10</title>
<path fill="none" stroke="midnightblue" d="M219.686,-360.631C198.063,-351.409 166.221,-337.829 142.063,-327.527"/>
<polygon fill="midnightblue" stroke="midnightblue" points="143.134,-324.178 132.562,-323.475 140.388,-330.617 143.134,-324.178"/>
</g>
<!-- Node3 -->
<g id="node5" class="node"><title>Node3</title>
<a xlink:href="fa_2fa_8h.html" target="_top" xlink:title="fa.h">
<polygon fill="none" stroke="red" points="254.273,-240.695 254.273,-263.305 289.727,-263.305 289.727,-240.695 254.273,-240.695"/>
<text text-anchor="middle" x="272" y="-248.305" font-family="Futura" font-size="11.00">fa.h</text>
</a>
</g>
<!-- Node2&#45;&gt;Node3 -->
<g id="edge4" class="edge"><title>Node2&#45;&gt;Node3</title>
<path fill="none" stroke="midnightblue" d="M288.857,-300.631C283.954,-293.055 278.673,-282.538 274.983,-273.313"/>
<polygon fill="midnightblue" stroke="midnightblue" points="278.213,-271.948 271.598,-263.672 271.608,-274.267 278.213,-271.948"/>
</g>
<!-- Node3&#45;&gt;Node1 -->
<g id="edge22" class="edge"><title>Node3&#45;&gt;Node1</title>
<path fill="none" stroke="midnightblue" d="M269.481,-263.618C264.837,-283.187 254.856,-325.25 248.856,-350.534"/>
<polygon fill="midnightblue" stroke="midnightblue" points="245.388,-349.99 246.485,-360.528 252.199,-351.607 245.388,-349.99"/>
</g>
<!-- Node3&#45;&gt;Node2 -->
<g id="edge20" class="edge"><title>Node3&#45;&gt;Node2</title>
<path fill="none" stroke="midnightblue" d="M282.338,-263.672C287.25,-271.325 292.516,-281.863 296.163,-291.053"/>
<polygon fill="midnightblue" stroke="midnightblue" points="292.902,-292.332 299.489,-300.631 299.515,-290.036 292.902,-292.332"/>
</g>
<!-- Node3&#45;&gt;Node4 -->
<g id="edge6" class="edge"><title>Node3&#45;&gt;Node4</title>
<path fill="none" stroke="midnightblue" d="M253.898,-247.459C215.947,-239.141 127.976,-218.05 74.8298,-204.69"/>
<polygon fill="midnightblue" stroke="midnightblue" points="75.5636,-201.265 65.0108,-202.208 73.8485,-208.052 75.5636,-201.265"/>
</g>
<!-- Node3&#45;&gt;Node6 -->
<g id="edge14" class="edge"><title>Node3&#45;&gt;Node6</title>
<path fill="none" stroke="midnightblue" d="M274.317,-240.661C286.138,-211.658 331.199,-129.222 355.276,-91.8409"/>
<polygon fill="midnightblue" stroke="midnightblue" points="358.288,-93.6326 360.912,-83.368 352.459,-89.7557 358.288,-93.6326"/>
</g>
<!-- Node7 -->
<g id="node19" class="node"><title>Node7</title>
<a xlink:href="time_8h.html" target="_top" xlink:title="fa/time.h">
<polygon fill="none" stroke="red" points="169.157,-60.6953 169.157,-83.3047 230.843,-83.3047 230.843,-60.6953 169.157,-60.6953"/>
<text text-anchor="middle" x="200" y="-68.3047" font-family="Futura" font-size="11.00">fa/time.h</text>
</a>
</g>
<!-- Node3&#45;&gt;Node7 -->
<g id="edge24" class="edge"><title>Node3&#45;&gt;Node7</title>
<path fill="none" stroke="midnightblue" d="M262.441,-240.691C250.771,-221.633 233.333,-179.586 219,-144 212.136,-126.958 204.493,-107.548 200.359,-93.3352"/>
<polygon fill="midnightblue" stroke="midnightblue" points="203.751,-92.4717 197.953,-83.6045 196.956,-94.1523 203.751,-92.4717"/>
</g>
<!-- Node3&#45;&gt;Node8 -->
<g id="edge30" class="edge"><title>Node3&#45;&gt;Node8</title>
<path fill="none" stroke="midnightblue" d="M289.747,-240.631C308.665,-231.368 338.844,-217.709 363.073,-207.39"/>
<polygon fill="midnightblue" stroke="midnightblue" points="364.51,-210.582 372.367,-203.475 361.793,-204.131 364.51,-210.582"/>
</g>
<!-- Node3&#45;&gt;Node9 -->
<g id="edge46" class="edge"><title>Node3&#45;&gt;Node9</title>
<path fill="none" stroke="midnightblue" d="M267.953,-240.528C264.82,-221.071 264.411,-179.023 266.724,-153.656"/>
<polygon fill="midnightblue" stroke="midnightblue" points="270.212,-153.964 267.93,-143.618 263.262,-153.129 270.212,-153.964"/>
</g>
<!-- Node4&#45;&gt;Node3 -->
<g id="edge8" class="edge"><title>Node4&#45;&gt;Node3</title>
<path fill="none" stroke="midnightblue" d="M64.8706,-199.845C112.473,-210.661 199.393,-231.645 244.075,-243.089"/>
<polygon fill="midnightblue" stroke="midnightblue" points="243.407,-246.532 253.965,-245.647 245.16,-239.755 243.407,-246.532"/>
</g>
<!-- Node5 -->
<g id="node10" class="node"><title>Node5</title>
<a xlink:href="string_8h.html" target="_top" xlink:title="fa/string.h">
<polygon fill="none" stroke="black" points="96.8696,-0.695312 96.8696,-23.3047 165.13,-23.3047 165.13,-0.695312 96.8696,-0.695312"/>
<text text-anchor="middle" x="131" y="-8.30469" font-family="Futura" font-size="11.00">fa/string.h</text>
</a>
</g>
<!-- Node4&#45;&gt;Node5 -->
<g id="edge10" class="edge"><title>Node4&#45;&gt;Node5</title>
<path fill="none" stroke="midnightblue" d="M37.7506,-180.661C53.8127,-151.781 99.3424,-69.9197 120.255,-32.3185"/>
<polygon fill="midnightblue" stroke="midnightblue" points="123.432,-33.8084 125.234,-23.368 117.314,-30.406 123.432,-33.8084"/>
</g>
<!-- Node5&#45;&gt;Node3 -->
<g id="edge12" class="edge"><title>Node5&#45;&gt;Node3</title>
<path fill="none" stroke="midnightblue" d="M134.508,-23.4028C139.427,-37.5038 149.015,-63.2998 160,-84 190.047,-140.62 204.185,-150.841 240,-204 246.238,-213.259 253.21,-223.51 259.049,-232.069"/>
<polygon fill="midnightblue" stroke="midnightblue" points="256.323,-234.283 264.853,-240.566 262.103,-230.334 256.323,-234.283"/>
</g>
<!-- Node6&#45;&gt;Node2 -->
<g id="edge18" class="edge"><title>Node6&#45;&gt;Node2</title>
<path fill="none" stroke="midnightblue" d="M383.816,-83.3201C411.292,-105.172 468.226,-157.892 445,-204 422.256,-249.151 370.441,-279.81 335.074,-296.36"/>
<polygon fill="midnightblue" stroke="midnightblue" points="333.244,-293.347 325.573,-300.655 336.127,-299.725 333.244,-293.347"/>
</g>
<!-- Node6&#45;&gt;Node3 -->
<g id="edge16" class="edge"><title>Node6&#45;&gt;Node3</title>
<path fill="none" stroke="midnightblue" d="M367.672,-83.368C355.829,-112.405 310.763,-194.844 286.7,-232.196"/>
<polygon fill="midnightblue" stroke="midnightblue" points="283.694,-230.396 281.068,-240.661 289.522,-234.274 283.694,-230.396"/>
</g>
<!-- Node7&#45;&gt;Node3 -->
<g id="edge26" class="edge"><title>Node7&#45;&gt;Node3</title>
<path fill="none" stroke="midnightblue" d="M210.301,-83.6045C218.547,-97.4993 228.386,-122.614 237,-144 249.205,-174.303 263.663,-209.293 270.275,-230.781"/>
<polygon fill="midnightblue" stroke="midnightblue" points="266.968,-231.957 272.965,-240.691 273.723,-230.123 266.968,-231.957"/>
</g>
<!-- Node7&#45;&gt;Node5 -->
<g id="edge28" class="edge"><title>Node7&#45;&gt;Node5</title>
<path fill="none" stroke="midnightblue" d="M187.664,-60.6308C177.683,-52.2405 163.409,-40.242 151.684,-30.3869"/>
<polygon fill="midnightblue" stroke="midnightblue" points="153.603,-27.4272 143.696,-23.6719 149.099,-32.7856 153.603,-27.4272"/>
</g>
<!-- Node8&#45;&gt;Node2 -->
<g id="edge36" class="edge"><title>Node8&#45;&gt;Node2</title>
<path fill="none" stroke="midnightblue" d="M391.822,-203.618C374.375,-223.802 336.244,-267.913 314.677,-292.864"/>
<polygon fill="midnightblue" stroke="midnightblue" points="311.944,-290.674 308.052,-300.528 317.239,-295.252 311.944,-290.674"/>
</g>
<!-- Node8&#45;&gt;Node3 -->
<g id="edge32" class="edge"><title>Node8&#45;&gt;Node3</title>
<path fill="none" stroke="midnightblue" d="M382.98,-203.503C361.14,-214.184 324.57,-230.61 299.304,-241.077"/>
<polygon fill="midnightblue" stroke="midnightblue" points="297.844,-237.892 289.9,-244.903 300.482,-244.376 297.844,-237.892"/>
</g>
<!-- Node8&#45;&gt;Node6 -->
<g id="edge34" class="edge"><title>Node8&#45;&gt;Node6</title>
<path fill="none" stroke="midnightblue" d="M398.249,-180.528C393.114,-160.984 381.992,-118.645 375.337,-93.3159"/>
<polygon fill="midnightblue" stroke="midnightblue" points="378.716,-92.4003 372.789,-83.6179 371.945,-94.179 378.716,-92.4003"/>
</g>
<!-- Node8&#45;&gt;Node9 -->
<g id="edge38" class="edge"><title>Node8&#45;&gt;Node9</title>
<path fill="none" stroke="midnightblue" d="M377.937,-180.631C357.519,-171.45 327.492,-157.95 304.616,-147.664"/>
<polygon fill="midnightblue" stroke="midnightblue" points="305.854,-144.384 295.298,-143.475 302.983,-150.768 305.854,-144.384"/>
</g>
<!-- Node9&#45;&gt;Node3 -->
<g id="edge40" class="edge"><title>Node9&#45;&gt;Node3</title>
<path fill="none" stroke="midnightblue" d="M276.07,-143.618C279.189,-163.187 279.586,-205.25 277.259,-230.534"/>
<polygon fill="midnightblue" stroke="midnightblue" points="273.776,-230.18 276.047,-240.528 280.725,-231.022 273.776,-230.18"/>
</g>
<!-- Node9&#45;&gt;Node6 -->
<g id="edge42" class="edge"><title>Node9&#45;&gt;Node6</title>
<path fill="none" stroke="midnightblue" d="M289.52,-120.631C304.478,-111.778 326.223,-98.9089 343.34,-88.7784"/>
<polygon fill="midnightblue" stroke="midnightblue" points="345.478,-91.5803 352.301,-83.475 341.912,-85.5563 345.478,-91.5803"/>
</g>
<!-- Node9&#45;&gt;Node7 -->
<g id="edge44" class="edge"><title>Node9&#45;&gt;Node7</title>
<path fill="none" stroke="midnightblue" d="M259.128,-120.631C248.611,-112.159 233.528,-100.009 221.228,-90.1004"/>
<polygon fill="midnightblue" stroke="midnightblue" points="223.231,-87.2196 213.248,-83.6719 218.84,-92.6708 223.231,-87.2196"/>
</g>
<!-- Node10&#45;&gt;Node3 -->
<g id="edge58" class="edge"><title>Node10&#45;&gt;Node3</title>
<path fill="none" stroke="midnightblue" d="M137.32,-300.631C167.649,-289.905 214.652,-273.282 244.351,-262.778"/>
<polygon fill="midnightblue" stroke="midnightblue" points="245.817,-265.972 254.078,-259.338 243.483,-259.373 245.817,-265.972"/>
</g>
<!-- Node10&#45;&gt;Node7 -->
<g id="edge60" class="edge"><title>Node10&#45;&gt;Node7</title>
<path fill="none" stroke="midnightblue" d="M112.072,-300.466C126.262,-263.757 173.685,-141.077 192.354,-92.7789"/>
<polygon fill="midnightblue" stroke="midnightblue" points="195.634,-94.0014 195.975,-83.412 189.105,-91.4774 195.634,-94.0014"/>
</g>
</g>
</svg>
