<?xml version="1.0" encoding="UTF-8" standalone="no"?>
<!DOCTYPE svg PUBLIC "-//W3C//DTD SVG 1.1//EN"
 "http://www.w3.org/Graphics/SVG/1.1/DTD/svg11.dtd">
<!-- Generated by graphviz version 2.28.0 (20121015.0031)
 -->
<!-- Title: include/fae/device/audio.h Pages: 1 -->
<svg width="832pt" height="240pt"
 viewBox="0.00 0.00 831.82 240.00" xmlns="http://www.w3.org/2000/svg" xmlns:xlink="http://www.w3.org/1999/xlink">
<g id="graph1" class="graph" transform="scale(1 1) rotate(0) translate(4 236)">
<title>include/fae/device/audio.h</title>
<!-- Node1 -->
<g id="node1" class="node"><title>Node1</title>
<polygon fill="#bfbfbf" stroke="black" points="365.304,-194.391 365.304,-231.609 476.33,-231.609 476.33,-194.391 365.304,-194.391"/>
<text text-anchor="start" x="373.304" y="-216.609" font-family="Futura" font-size="11.00">include/fae/device</text>
<text text-anchor="middle" x="420.817" y="-202" font-family="Futura" font-size="11.00">/audio.h</text>
</g>
<!-- Node2 -->
<g id="node3" class="node"><title>Node2</title>
<a xlink:href="fae_2fae_8h.html" target="_top" xlink:title="include/fae/fae.h">
<polygon fill="none" stroke="red" points="368.578,-127.695 368.578,-150.305 473.056,-150.305 473.056,-127.695 368.578,-127.695"/>
<text text-anchor="middle" x="420.817" y="-135.305" font-family="Futura" font-size="11.00">include/fae/fae.h</text>
</a>
</g>
<!-- Node1&#45;&gt;Node2 -->
<g id="edge2" class="edge"><title>Node1&#45;&gt;Node2</title>
<path fill="none" stroke="midnightblue" d="M420.817,-183.967C420.817,-172.298 420.817,-159.454 420.817,-150.677"/>
<polygon fill="midnightblue" stroke="midnightblue" points="417.317,-184.202 420.817,-194.202 424.317,-184.202 417.317,-184.202"/>
</g>
<!-- Node4 -->
<g id="node8" class="node"><title>Node4</title>
<a xlink:href="audio_8c.html" target="_top" xlink:title="src/fae/device/audio.c">
<polygon fill="none" stroke="black" points="32.7207,-0.695312 32.7207,-23.3047 164.914,-23.3047 164.914,-0.695312 32.7207,-0.695312"/>
<text text-anchor="middle" x="98.8172" y="-8.30469" font-family="Futura" font-size="11.00">src/fae/device/audio.c</text>
</a>
</g>
<!-- Node1&#45;&gt;Node4 -->
<g id="edge28" class="edge"><title>Node1&#45;&gt;Node4</title>
<path fill="none" stroke="midnightblue" d="M355.059,-201.834C248.159,-183.764 44.5813,-142.385 4.81716,-84 -13.948,-56.4472 29.2917,-35.197 63.1846,-23.3937"/>
<polygon fill="midnightblue" stroke="midnightblue" points="354.653,-205.315 365.093,-203.51 355.806,-198.41 354.653,-205.315"/>
</g>
<!-- Node10 -->
<g id="node25" class="node"><title>Node10</title>
<a xlink:href="device_8c.html" target="_top" xlink:title="src/platform/macosx\l/fae/device.c">
<polygon fill="none" stroke="black" points="528.414,-120.391 528.414,-157.609 649.22,-157.609 649.22,-120.391 528.414,-120.391"/>
<text text-anchor="start" x="536.414" y="-142.609" font-family="Futura" font-size="11.00">src/platform/macosx</text>
<text text-anchor="middle" x="588.817" y="-128" font-family="Futura" font-size="11.00">/fae/device.c</text>
</a>
</g>
<!-- Node1&#45;&gt;Node10 -->
<g id="edge30" class="edge"><title>Node1&#45;&gt;Node10</title>
<path fill="none" stroke="midnightblue" d="M471.353,-190.342C495.709,-179.904 524.552,-167.542 547.562,-157.681"/>
<polygon fill="midnightblue" stroke="midnightblue" points="469.727,-187.231 461.915,-194.387 472.485,-193.665 469.727,-187.231"/>
</g>
<!-- Node3 -->
<g id="node5" class="node"><title>Node3</title>
<a xlink:href="atomic_8h.html" target="_top" xlink:title="include/fae/atomic.h">
<polygon fill="none" stroke="red" points="152.148,-60.6953 152.148,-83.3047 273.486,-83.3047 273.486,-60.6953 152.148,-60.6953"/>
<text text-anchor="middle" x="212.817" y="-68.3047" font-family="Futura" font-size="11.00">include/fae/atomic.h</text>
</a>
</g>
<!-- Node2&#45;&gt;Node3 -->
<g id="edge4" class="edge"><title>Node2&#45;&gt;Node3</title>
<path fill="none" stroke="midnightblue" d="M372.513,-124.648C331.589,-112.394 274.477,-94.496 240.719,-83.3101"/>
<polygon fill="midnightblue" stroke="midnightblue" points="371.701,-128.058 382.284,-127.557 373.698,-121.349 371.701,-128.058"/>
</g>
<!-- Node5 -->
<g id="node10" class="node"><title>Node5</title>
<a xlink:href="buffer_8h.html" target="_top" xlink:title="include/fae/buffer.h">
<polygon fill="none" stroke="red" points="291.001,-60.6953 291.001,-83.3047 408.633,-83.3047 408.633,-60.6953 291.001,-60.6953"/>
<text text-anchor="middle" x="349.817" y="-68.3047" font-family="Futura" font-size="11.00">include/fae/buffer.h</text>
</a>
</g>
<!-- Node2&#45;&gt;Node5 -->
<g id="edge10" class="edge"><title>Node2&#45;&gt;Node5</title>
<path fill="none" stroke="midnightblue" d="M401.961,-120.737C389.076,-108.942 372.412,-93.685 361.432,-83.6334"/>
<polygon fill="midnightblue" stroke="midnightblue" points="399.671,-123.386 409.41,-127.557 404.397,-118.222 399.671,-123.386"/>
</g>
<!-- Node6 -->
<g id="node12" class="node"><title>Node6</title>
<a xlink:href="device_8h.html" target="_top" xlink:title="include/fae/device.h">
<polygon fill="none" stroke="red" points="13.5913,-60.6953 13.5913,-83.3047 134.043,-83.3047 134.043,-60.6953 13.5913,-60.6953"/>
<text text-anchor="middle" x="73.8172" y="-68.3047" font-family="Futura" font-size="11.00">include/fae/device.h</text>
</a>
</g>
<!-- Node2&#45;&gt;Node6 -->
<g id="edge12" class="edge"><title>Node2&#45;&gt;Node6</title>
<path fill="none" stroke="midnightblue" d="M358.322,-126.293C292.944,-114.047 191.315,-95.0096 128.865,-83.3116"/>
<polygon fill="midnightblue" stroke="midnightblue" points="358.019,-129.797 368.492,-128.198 359.307,-122.917 358.019,-129.797"/>
</g>
<!-- Node7 -->
<g id="node15" class="node"><title>Node7</title>
<a xlink:href="dynamic_8h.html" target="_top" xlink:title="include/fae/dynamic.h">
<polygon fill="none" stroke="red" points="426.693,-60.6953 426.693,-83.3047 556.941,-83.3047 556.941,-60.6953 426.693,-60.6953"/>
<text text-anchor="middle" x="491.817" y="-68.3047" font-family="Futura" font-size="11.00">include/fae/dynamic.h</text>
</a>
</g>
<!-- Node2&#45;&gt;Node7 -->
<g id="edge16" class="edge"><title>Node2&#45;&gt;Node7</title>
<path fill="none" stroke="midnightblue" d="M439.674,-120.737C452.558,-108.942 469.223,-93.685 480.202,-83.6334"/>
<polygon fill="midnightblue" stroke="midnightblue" points="437.237,-118.222 432.225,-127.557 441.964,-123.386 437.237,-118.222"/>
</g>
<!-- Node8 -->
<g id="node17" class="node"><title>Node8</title>
<a xlink:href="error_8h.html" target="_top" xlink:title="include/fae/error.h">
<polygon fill="none" stroke="red" points="711.373,-60.6953 711.373,-83.3047 824.262,-83.3047 824.262,-60.6953 711.373,-60.6953"/>
<text text-anchor="middle" x="767.817" y="-68.3047" font-family="Futura" font-size="11.00">include/fae/error.h</text>
</a>
</g>
<!-- Node2&#45;&gt;Node8 -->
<g id="edge18" class="edge"><title>Node2&#45;&gt;Node8</title>
<path fill="none" stroke="midnightblue" d="M457.295,-124.982C464.074,-123.195 471.114,-121.471 477.817,-120 480.625,-119.384 627.691,-94.8521 711.359,-81.4823"/>
<polygon fill="midnightblue" stroke="midnightblue" points="456.343,-121.614 447.619,-127.625 458.188,-128.367 456.343,-121.614"/>
</g>
<!-- Node9 -->
<g id="node21" class="node"><title>Node9</title>
<a xlink:href="graph_8h.html" target="_top" xlink:title="include/fae/graph.h">
<polygon fill="none" stroke="red" points="574.711,-60.6953 574.711,-83.3047 692.923,-83.3047 692.923,-60.6953 574.711,-60.6953"/>
<text text-anchor="middle" x="633.817" y="-68.3047" font-family="Futura" font-size="11.00">include/fae/graph.h</text>
</a>
</g>
<!-- Node2&#45;&gt;Node9 -->
<g id="edge24" class="edge"><title>Node2&#45;&gt;Node9</title>
<path fill="none" stroke="midnightblue" d="M459.729,-124.414C498.182,-112.167 556.495,-94.4251 594.941,-83.3101"/>
<polygon fill="midnightblue" stroke="midnightblue" points="458.379,-121.171 449.924,-127.557 460.516,-127.837 458.379,-121.171"/>
</g>
<!-- Node3&#45;&gt;Node2 -->
<g id="edge6" class="edge"><title>Node3&#45;&gt;Node2</title>
<path fill="none" stroke="midnightblue" d="M260.636,-86.207C301.431,-98.4157 358.57,-116.318 392.513,-127.557"/>
<polygon fill="midnightblue" stroke="midnightblue" points="261.483,-82.8075 250.9,-83.3101 259.487,-89.5168 261.483,-82.8075"/>
</g>
<!-- Node3&#45;&gt;Node4 -->
<g id="edge8" class="edge"><title>Node3&#45;&gt;Node4</title>
<path fill="none" stroke="midnightblue" d="M183.413,-56.0398C163.349,-45.8319 137.273,-32.5651 119.406,-23.475"/>
<polygon fill="midnightblue" stroke="midnightblue" points="181.936,-59.2156 192.436,-60.6308 185.111,-52.9767 181.936,-59.2156"/>
</g>
<!-- Node6&#45;&gt;Node1 -->
<g id="edge14" class="edge"><title>Node6&#45;&gt;Node1</title>
<path fill="none" stroke="midnightblue" d="M109.16,-87.1573C172.865,-112.676 306.798,-166.327 376.517,-194.254"/>
<polygon fill="midnightblue" stroke="midnightblue" points="110.143,-83.781 99.5587,-83.3115 107.54,-90.2791 110.143,-83.781"/>
</g>
<!-- Node8&#45;&gt;Node1 -->
<g id="edge20" class="edge"><title>Node8&#45;&gt;Node1</title>
<path fill="none" stroke="midnightblue" d="M701.106,-84.6409C630.433,-97.1248 527.883,-115.736 519.817,-120 498.702,-131.164 499.212,-141.632 481.817,-158 468.633,-170.406 453.383,-183.906 441.429,-194.305"/>
<polygon fill="midnightblue" stroke="midnightblue" points="702.047,-88.0291 711.287,-82.8459 700.832,-81.1355 702.047,-88.0291"/>
</g>
<!-- Node8&#45;&gt;Node2 -->
<g id="edge22" class="edge"><title>Node8&#45;&gt;Node2</title>
<path fill="none" stroke="midnightblue" d="M701.867,-85.0468C622.123,-98.7844 498.391,-119.435 495.817,-120 485.84,-122.189 475.118,-124.939 464.937,-127.625"/>
<polygon fill="midnightblue" stroke="midnightblue" points="702.586,-88.4745 711.845,-83.3242 701.395,-81.5766 702.586,-88.4745"/>
</g>
<!-- Node9&#45;&gt;Node2 -->
<g id="edge26" class="edge"><title>Node9&#45;&gt;Node2</title>
<path fill="none" stroke="midnightblue" d="M595.364,-86.44C557.07,-98.6426 498.758,-116.389 460.154,-127.557"/>
<polygon fill="midnightblue" stroke="midnightblue" points="596.669,-89.6971 605.122,-83.3101 594.531,-83.0316 596.669,-89.6971"/>
</g>
</g>
</svg>
