<?xml version="1.0" encoding="UTF-8" standalone="no"?>
<!DOCTYPE svg PUBLIC "-//W3C//DTD SVG 1.1//EN"
 "http://www.w3.org/Graphics/SVG/1.1/DTD/svg11.dtd">
<!-- Generated by graphviz version 2.28.0 (20121015.0031)
 -->
<!-- Title: include/fae/device/audio.h Pages: 1 -->
<svg width="351pt" height="346pt"
 viewBox="0.00 0.00 350.93 346.00" xmlns="http://www.w3.org/2000/svg" xmlns:xlink="http://www.w3.org/1999/xlink">
<g id="graph1" class="graph" transform="scale(1 1) rotate(0) translate(4 342)">
<title>include/fae/device/audio.h</title>
<!-- Node1 -->
<g id="node1" class="node"><title>Node1</title>
<polygon fill="#bfbfbf" stroke="black" points="116.487,-300.391 116.487,-337.609 227.513,-337.609 227.513,-300.391 116.487,-300.391"/>
<text text-anchor="start" x="124.487" y="-322.609" font-family="Futura" font-size="11.00">include/fae/device</text>
<text text-anchor="middle" x="172" y="-308" font-family="Futura" font-size="11.00">/audio.h</text>
</g>
<!-- Node2 -->
<g id="node3" class="node"><title>Node2</title>
<a xlink:href="list_8h.html" target="_top" xlink:title="fae/list.h">
<polygon fill="none" stroke="black" points="62.906,-180.695 62.906,-203.305 123.094,-203.305 123.094,-180.695 62.906,-180.695"/>
<text text-anchor="middle" x="93" y="-188.305" font-family="Futura" font-size="11.00">fae/list.h</text>
</a>
</g>
<!-- Node1&#45;&gt;Node2 -->
<g id="edge2" class="edge"><title>Node1&#45;&gt;Node2</title>
<path fill="none" stroke="midnightblue" d="M137.06,-300.198C123.175,-291.272 108.509,-279.113 100,-264 91.3806,-248.691 90.1638,-228.549 90.7925,-213.631"/>
<polygon fill="midnightblue" stroke="midnightblue" points="94.3015,-213.636 91.5411,-203.407 87.3201,-213.124 94.3015,-213.636"/>
</g>
<!-- Node6 -->
<g id="node12" class="node"><title>Node6</title>
<a xlink:href="error_8h.html" target="_top" xlink:title="fae/error.h">
<polygon fill="none" stroke="black" points="-0.881348,-60.6953 -0.881348,-83.3047 70.8813,-83.3047 70.8813,-60.6953 -0.881348,-60.6953"/>
<text text-anchor="middle" x="35" y="-68.3047" font-family="Futura" font-size="11.00">fae/error.h</text>
</a>
</g>
<!-- Node1&#45;&gt;Node6 -->
<g id="edge32" class="edge"><title>Node1&#45;&gt;Node6</title>
<path fill="none" stroke="midnightblue" d="M137.021,-300.17C121.084,-290.881 102.753,-278.44 89,-264 43.3595,-216.08 35.8065,-132.57 34.8812,-93.8347"/>
<polygon fill="midnightblue" stroke="midnightblue" points="38.3802,-93.7108 34.7707,-83.7498 31.3806,-93.7876 38.3802,-93.7108"/>
</g>
<!-- Node8 -->
<g id="node19" class="node"><title>Node8</title>
<a xlink:href="pair_8h.html" target="_top" xlink:title="fae/pair.h">
<polygon fill="none" stroke="black" points="108.651,-240.695 108.651,-263.305 175.349,-263.305 175.349,-240.695 108.651,-240.695"/>
<text text-anchor="middle" x="142" y="-248.305" font-family="Futura" font-size="11.00">fae/pair.h</text>
</a>
</g>
<!-- Node1&#45;&gt;Node8 -->
<g id="edge22" class="edge"><title>Node1&#45;&gt;Node8</title>
<path fill="none" stroke="midnightblue" d="M163.802,-300.238C159.87,-291.718 155.146,-281.482 151.102,-272.72"/>
<polygon fill="midnightblue" stroke="midnightblue" points="154.272,-271.237 146.904,-263.624 147.916,-274.171 154.272,-271.237"/>
</g>
<!-- Node9 -->
<g id="node23" class="node"><title>Node9</title>
<a xlink:href="device_8h.html" target="_top" xlink:title="fae/device.h">
<polygon fill="none" stroke="black" points="179.337,-180.695 179.337,-203.305 258.663,-203.305 258.663,-180.695 179.337,-180.695"/>
<text text-anchor="middle" x="219" y="-188.305" font-family="Futura" font-size="11.00">fae/device.h</text>
</a>
</g>
<!-- Node1&#45;&gt;Node9 -->
<g id="edge28" class="edge"><title>Node1&#45;&gt;Node9</title>
<path fill="none" stroke="midnightblue" d="M178.634,-300.356C187.275,-277.376 202.345,-237.296 211.425,-213.147"/>
<polygon fill="midnightblue" stroke="midnightblue" points="214.779,-214.172 215.022,-203.58 208.226,-211.708 214.779,-214.172"/>
</g>
<!-- Node10 -->
<g id="node27" class="node"><title>Node10</title>
<polygon fill="none" stroke="#bfbfbf" points="230.571,-240.695 230.571,-263.305 325.429,-263.305 325.429,-240.695 230.571,-240.695"/>
<text text-anchor="middle" x="278" y="-248.305" font-family="Futura" font-size="11.00">fae/processor.h</text>
</g>
<!-- Node1&#45;&gt;Node10 -->
<g id="edge34" class="edge"><title>Node1&#45;&gt;Node10</title>
<path fill="none" stroke="midnightblue" d="M200.965,-300.238C217.055,-290.372 236.894,-278.207 252.409,-268.692"/>
<polygon fill="midnightblue" stroke="midnightblue" points="254.289,-271.646 260.984,-263.434 250.629,-265.678 254.289,-271.646"/>
</g>
<!-- Node3 -->
<g id="node5" class="node"><title>Node3</title>
<a xlink:href="fae_2fae_8h.html" target="_top" xlink:title="fae.h">
<polygon fill="none" stroke="red" points="164.23,-120.695 164.23,-143.305 205.77,-143.305 205.77,-120.695 164.23,-120.695"/>
<text text-anchor="middle" x="185" y="-128.305" font-family="Futura" font-size="11.00">fae.h</text>
</a>
</g>
<!-- Node2&#45;&gt;Node3 -->
<g id="edge4" class="edge"><title>Node2&#45;&gt;Node3</title>
<path fill="none" stroke="midnightblue" d="M109.448,-180.631C123.36,-171.86 143.526,-159.147 159.525,-149.06"/>
<polygon fill="midnightblue" stroke="midnightblue" points="161.792,-151.769 168.384,-143.475 158.059,-145.847 161.792,-151.769"/>
</g>
<!-- Node3&#45;&gt;Node1 -->
<g id="edge20" class="edge"><title>Node3&#45;&gt;Node1</title>
<path fill="none" stroke="midnightblue" d="M206.031,-139.964C256.074,-157.656 375.085,-206.997 334,-264 312.149,-294.317 272.537,-307.871 237.955,-313.819"/>
<polygon fill="midnightblue" stroke="midnightblue" points="237.235,-310.388 227.882,-315.367 238.298,-317.307 237.235,-310.388"/>
</g>
<!-- Node4 -->
<g id="node7" class="node"><title>Node4</title>
<a xlink:href="atomic_8h.html" target="_top" xlink:title="fae/atomic.h">
<polygon fill="none" stroke="red" points="260.894,-60.6953 260.894,-83.3047 341.106,-83.3047 341.106,-60.6953 260.894,-60.6953"/>
<text text-anchor="middle" x="301" y="-68.3047" font-family="Futura" font-size="11.00">fae/atomic.h</text>
</a>
</g>
<!-- Node3&#45;&gt;Node4 -->
<g id="edge6" class="edge"><title>Node3&#45;&gt;Node4</title>
<path fill="none" stroke="midnightblue" d="M200.423,-120.631C217.041,-111.491 243.664,-98.0705 265.423,-87.8023"/>
<polygon fill="midnightblue" stroke="midnightblue" points="267.127,-90.8696 274.715,-83.475 264.172,-84.5239 267.127,-90.8696"/>
</g>
<!-- Node5 -->
<g id="node10" class="node"><title>Node5</title>
<polygon fill="none" stroke="#bfbfbf" points="88.6057,-60.6953 88.6057,-83.3047 205.394,-83.3047 205.394,-60.6953 88.6057,-60.6953"/>
<text text-anchor="middle" x="147" y="-68.3047" font-family="Futura" font-size="11.00">fae/atomic/queue.h</text>
</g>
<!-- Node3&#45;&gt;Node5 -->
<g id="edge10" class="edge"><title>Node3&#45;&gt;Node5</title>
<path fill="none" stroke="midnightblue" d="M178.206,-120.631C173.029,-112.729 165.756,-101.628 159.533,-92.1298"/>
<polygon fill="midnightblue" stroke="midnightblue" points="162.4,-90.1184 153.992,-83.6719 156.545,-93.9546 162.4,-90.1184"/>
</g>
<!-- Node3&#45;&gt;Node6 -->
<g id="edge12" class="edge"><title>Node3&#45;&gt;Node6</title>
<path fill="none" stroke="midnightblue" d="M163.942,-124.571C138.298,-115.615 95.2039,-99.141 65.8693,-87.2178"/>
<polygon fill="midnightblue" stroke="midnightblue" points="67.0735,-83.9287 56.4936,-83.3661 64.4135,-90.4036 67.0735,-83.9287"/>
</g>
<!-- Node4&#45;&gt;Node3 -->
<g id="edge8" class="edge"><title>Node4&#45;&gt;Node3</title>
<path fill="none" stroke="midnightblue" d="M285.623,-83.3442C267.603,-93.2568 237.778,-108.222 215.167,-118.732"/>
<polygon fill="midnightblue" stroke="midnightblue" points="213.613,-115.594 205.974,-122.935 216.524,-121.96 213.613,-115.594"/>
</g>
<!-- Node6&#45;&gt;Node3 -->
<g id="edge14" class="edge"><title>Node6&#45;&gt;Node3</title>
<path fill="none" stroke="midnightblue" d="M67.156,-83.3776C93.0962,-92.7501 129.153,-106.62 154.61,-116.977"/>
<polygon fill="midnightblue" stroke="midnightblue" points="153.559,-120.329 164.139,-120.897 156.222,-113.856 153.559,-120.329"/>
</g>
<!-- Node7 -->
<g id="node15" class="node"><title>Node7</title>
<a xlink:href="string_8h.html" target="_top" xlink:title="fae/string.h">
<polygon fill="none" stroke="black" points="96.8269,-0.695312 96.8269,-23.3047 171.173,-23.3047 171.173,-0.695312 96.8269,-0.695312"/>
<text text-anchor="middle" x="134" y="-8.30469" font-family="Futura" font-size="11.00">fae/string.h</text>
</a>
</g>
<!-- Node6&#45;&gt;Node7 -->
<g id="edge16" class="edge"><title>Node6&#45;&gt;Node7</title>
<path fill="none" stroke="midnightblue" d="M52.6992,-60.6308C67.8097,-51.7782 89.7763,-38.9089 107.068,-28.7784"/>
<polygon fill="midnightblue" stroke="midnightblue" points="109.261,-31.5499 116.12,-23.475 105.723,-25.5101 109.261,-31.5499"/>
</g>
<!-- Node7&#45;&gt;Node3 -->
<g id="edge18" class="edge"><title>Node7&#45;&gt;Node3</title>
<path fill="none" stroke="midnightblue" d="M167.138,-23.4228C184.381,-30.7233 203.918,-42.3843 214,-60 223.73,-77.0021 212.698,-97.9122 201.554,-112.623"/>
<polygon fill="midnightblue" stroke="midnightblue" points="198.745,-110.53 195.136,-120.491 204.169,-114.955 198.745,-110.53"/>
</g>
<!-- Node8&#45;&gt;Node2 -->
<g id="edge26" class="edge"><title>Node8&#45;&gt;Node2</title>
<path fill="none" stroke="midnightblue" d="M133.24,-240.631C126.427,-232.566 116.797,-221.168 108.667,-211.544"/>
<polygon fill="midnightblue" stroke="midnightblue" points="111.143,-209.052 102.016,-203.672 105.796,-213.569 111.143,-209.052"/>
</g>
<!-- Node8&#45;&gt;Node3 -->
<g id="edge24" class="edge"><title>Node8&#45;&gt;Node3</title>
<path fill="none" stroke="midnightblue" d="M145.816,-240.528C152.938,-220.984 168.367,-178.645 177.597,-153.316"/>
<polygon fill="midnightblue" stroke="midnightblue" points="180.995,-154.212 181.131,-143.618 174.418,-151.815 180.995,-154.212"/>
</g>
<!-- Node9&#45;&gt;Node3 -->
<g id="edge30" class="edge"><title>Node9&#45;&gt;Node3</title>
<path fill="none" stroke="midnightblue" d="M212.921,-180.631C208.337,-172.811 201.916,-161.856 196.387,-152.424"/>
<polygon fill="midnightblue" stroke="midnightblue" points="199.333,-150.529 191.256,-143.672 193.294,-154.069 199.333,-150.529"/>
</g>
</g>
</svg>
