<?xml version="1.0" encoding="UTF-8" standalone="no"?>
<!DOCTYPE svg PUBLIC "-//W3C//DTD SVG 1.1//EN"
 "http://www.w3.org/Graphics/SVG/1.1/DTD/svg11.dtd">
<!-- Generated by graphviz version 2.28.0 (20121015.0031)
 -->
<!-- Title: src/fae/device/audio.c Pages: 1 -->
<svg width="539pt" height="212pt"
 viewBox="0.00 0.00 539.00 212.00" xmlns="http://www.w3.org/2000/svg" xmlns:xlink="http://www.w3.org/1999/xlink">
<g id="graph1" class="graph" transform="scale(1 1) rotate(0) translate(4 208)">
<title>src/fae/device/audio.c</title>
<!-- Node1 -->
<g id="node1" class="node"><title>Node1</title>
<polygon fill="#bfbfbf" stroke="black" points="252.904,-180.695 252.904,-203.305 385.096,-203.305 385.096,-180.695 252.904,-180.695"/>
<text text-anchor="middle" x="319" y="-188.305" font-family="Futura" font-size="11.00">src/fae/device/audio.c</text>
</g>
<!-- Node2 -->
<g id="node3" class="node"><title>Node2</title>
<a xlink:href="audio_8h.html" target="_top" xlink:title="fae/device/audio.h">
<polygon fill="none" stroke="red" points="49.2197,-120.695 49.2197,-143.305 162.78,-143.305 162.78,-120.695 49.2197,-120.695"/>
<text text-anchor="middle" x="106" y="-128.305" font-family="Futura" font-size="11.00">fae/device/audio.h</text>
</a>
</g>
<!-- Node1&#45;&gt;Node2 -->
<g id="edge2" class="edge"><title>Node1&#45;&gt;Node2</title>
<path fill="none" stroke="midnightblue" d="M280.92,-180.631C245.44,-170.97 192.391,-156.524 154.021,-146.076"/>
<polygon fill="midnightblue" stroke="midnightblue" points="154.677,-142.627 144.109,-143.377 152.838,-149.382 154.677,-142.627"/>
</g>
<!-- Node7 -->
<g id="node14" class="node"><title>Node7</title>
<a xlink:href="atomic_8h.html" target="_top" xlink:title="fae/atomic.h">
<polygon fill="none" stroke="red" points="180.894,-120.695 180.894,-143.305 261.106,-143.305 261.106,-120.695 180.894,-120.695"/>
<text text-anchor="middle" x="221" y="-128.305" font-family="Futura" font-size="11.00">fae/atomic.h</text>
</a>
</g>
<!-- Node1&#45;&gt;Node7 -->
<g id="edge14" class="edge"><title>Node1&#45;&gt;Node7</title>
<path fill="none" stroke="midnightblue" d="M301.48,-180.631C286.522,-171.778 264.777,-158.909 247.66,-148.778"/>
<polygon fill="midnightblue" stroke="midnightblue" points="249.088,-145.556 238.699,-143.475 245.522,-151.58 249.088,-145.556"/>
</g>
<!-- Node8 -->
<g id="node16" class="node"><title>Node8</title>
<a xlink:href="thread_8h.html" target="_top" xlink:title="fae/thread.h">
<polygon fill="none" stroke="red" points="279.093,-120.695 279.093,-143.305 358.907,-143.305 358.907,-120.695 279.093,-120.695"/>
<text text-anchor="middle" x="319" y="-128.305" font-family="Futura" font-size="11.00">fae/thread.h</text>
</a>
</g>
<!-- Node1&#45;&gt;Node8 -->
<g id="edge16" class="edge"><title>Node1&#45;&gt;Node8</title>
<path fill="none" stroke="midnightblue" d="M319,-180.631C319,-173.218 319,-162.989 319,-153.91"/>
<polygon fill="midnightblue" stroke="midnightblue" points="322.5,-153.672 319,-143.672 315.5,-153.672 322.5,-153.672"/>
</g>
<!-- Node9 -->
<g id="node18" class="node"><title>Node9</title>
<a xlink:href="util_8h.html" target="_top" xlink:title="fae/util.h">
<polygon fill="none" stroke="red" points="377.141,-120.695 377.141,-143.305 438.859,-143.305 438.859,-120.695 377.141,-120.695"/>
<text text-anchor="middle" x="408" y="-128.305" font-family="Futura" font-size="11.00">fae/util.h</text>
</a>
</g>
<!-- Node1&#45;&gt;Node9 -->
<g id="edge18" class="edge"><title>Node1&#45;&gt;Node9</title>
<path fill="none" stroke="midnightblue" d="M334.911,-180.631C348.37,-171.86 367.878,-159.147 383.355,-149.06"/>
<polygon fill="midnightblue" stroke="midnightblue" points="385.459,-151.867 391.926,-143.475 381.637,-146.003 385.459,-151.867"/>
</g>
<!-- Node10 -->
<g id="node20" class="node"><title>Node10</title>
<polygon fill="none" stroke="#bfbfbf" points="456.607,-120.695 456.607,-143.305 531.393,-143.305 531.393,-120.695 456.607,-120.695"/>
<text text-anchor="middle" x="494" y="-128.305" font-family="Futura" font-size="11.00">portaudio.h</text>
</g>
<!-- Node1&#45;&gt;Node10 -->
<g id="edge20" class="edge"><title>Node1&#45;&gt;Node10</title>
<path fill="none" stroke="midnightblue" d="M350.286,-180.631C378.94,-171.134 421.542,-157.015 452.926,-146.613"/>
<polygon fill="midnightblue" stroke="midnightblue" points="454.299,-149.845 462.69,-143.377 452.096,-143.201 454.299,-149.845"/>
</g>
<!-- Node3 -->
<g id="node5" class="node"><title>Node3</title>
<a xlink:href="list_8h.html" target="_top" xlink:title="fae/list.h">
<polygon fill="none" stroke="red" points="-0.0939941,-0.695312 -0.0939941,-23.3047 60.094,-23.3047 60.094,-0.695312 -0.0939941,-0.695312"/>
<text text-anchor="middle" x="30" y="-8.30469" font-family="Futura" font-size="11.00">fae/list.h</text>
</a>
</g>
<!-- Node2&#45;&gt;Node3 -->
<g id="edge4" class="edge"><title>Node2&#45;&gt;Node3</title>
<path fill="none" stroke="midnightblue" d="M68.2613,-120.634C49.9891,-113.506 29.7276,-101.988 19,-84 9.76008,-68.5063 14.4709,-47.8584 20.3188,-32.8249"/>
<polygon fill="midnightblue" stroke="midnightblue" points="23.6186,-34.013 24.3915,-23.4464 17.1979,-31.2247 23.6186,-34.013"/>
</g>
<!-- Node4 -->
<g id="node7" class="node"><title>Node4</title>
<a xlink:href="pair_8h.html" target="_top" xlink:title="fae/pair.h">
<polygon fill="none" stroke="red" points="27.6511,-60.6953 27.6511,-83.3047 94.3489,-83.3047 94.3489,-60.6953 27.6511,-60.6953"/>
<text text-anchor="middle" x="61" y="-68.3047" font-family="Futura" font-size="11.00">fae/pair.h</text>
</a>
</g>
<!-- Node2&#45;&gt;Node4 -->
<g id="edge6" class="edge"><title>Node2&#45;&gt;Node4</title>
<path fill="none" stroke="midnightblue" d="M97.9549,-120.631C91.7612,-112.648 83.0332,-101.398 75.6146,-91.8366"/>
<polygon fill="midnightblue" stroke="midnightblue" points="78.1752,-89.4272 69.2799,-83.6719 72.6446,-93.7182 78.1752,-89.4272"/>
</g>
<!-- Node5 -->
<g id="node10" class="node"><title>Node5</title>
<a xlink:href="device_8h.html" target="_top" xlink:title="fae/device.h">
<polygon fill="none" stroke="red" points="112.337,-60.6953 112.337,-83.3047 191.663,-83.3047 191.663,-60.6953 112.337,-60.6953"/>
<text text-anchor="middle" x="152" y="-68.3047" font-family="Futura" font-size="11.00">fae/device.h</text>
</a>
</g>
<!-- Node2&#45;&gt;Node5 -->
<g id="edge10" class="edge"><title>Node2&#45;&gt;Node5</title>
<path fill="none" stroke="midnightblue" d="M114.224,-120.631C120.62,-112.566 129.659,-101.168 137.292,-91.5444"/>
<polygon fill="midnightblue" stroke="midnightblue" points="140.064,-93.6818 143.536,-83.6719 134.58,-89.332 140.064,-93.6818"/>
</g>
<!-- Node6 -->
<g id="node12" class="node"><title>Node6</title>
<a xlink:href="error_8h.html" target="_top" xlink:title="fae/error.h">
<polygon fill="none" stroke="red" points="210.119,-60.6953 210.119,-83.3047 281.881,-83.3047 281.881,-60.6953 210.119,-60.6953"/>
<text text-anchor="middle" x="246" y="-68.3047" font-family="Futura" font-size="11.00">fae/error.h</text>
</a>
</g>
<!-- Node2&#45;&gt;Node6 -->
<g id="edge12" class="edge"><title>Node2&#45;&gt;Node6</title>
<path fill="none" stroke="midnightblue" d="M131.029,-120.631C153.387,-111.368 186.358,-97.7086 211.266,-87.3897"/>
<polygon fill="midnightblue" stroke="midnightblue" points="212.817,-90.536 220.715,-83.475 210.137,-84.069 212.817,-90.536"/>
</g>
<!-- Node4&#45;&gt;Node3 -->
<g id="edge8" class="edge"><title>Node4&#45;&gt;Node3</title>
<path fill="none" stroke="midnightblue" d="M55.4578,-60.6308C51.3217,-52.8921 45.5449,-42.0841 40.5396,-32.7193"/>
<polygon fill="midnightblue" stroke="midnightblue" points="43.5045,-30.8414 35.7039,-23.6719 37.331,-34.141 43.5045,-30.8414"/>
</g>
</g>
</svg>
