<?xml version="1.0" encoding="UTF-8" standalone="no"?>
<!DOCTYPE svg PUBLIC "-//W3C//DTD SVG 1.1//EN"
 "http://www.w3.org/Graphics/SVG/1.1/DTD/svg11.dtd">
<!-- Generated by graphviz version 2.28.0 (20121015.0031)
 -->
<!-- Title: include/fae/audio.h Pages: 1 -->
<svg width="832pt" height="226pt"
 viewBox="0.00 0.00 831.92 226.00" xmlns="http://www.w3.org/2000/svg" xmlns:xlink="http://www.w3.org/1999/xlink">
<g id="graph1" class="graph" transform="scale(1 1) rotate(0) translate(4 222)">
<title>include/fae/audio.h</title>
<!-- Node1 -->
<g id="node1" class="node"><title>Node1</title>
<polygon fill="#bfbfbf" stroke="black" points="362.465,-194.695 362.465,-217.305 479.366,-217.305 479.366,-194.695 362.465,-194.695"/>
<text text-anchor="middle" x="420.915" y="-202.305" font-family="Futura" font-size="11.00">include/fae/audio.h</text>
</g>
<!-- Node2 -->
<g id="node3" class="node"><title>Node2</title>
<a xlink:href="fae_2fae_8h.html" target="_top" xlink:title="include/fae/fae.h">
<polygon fill="none" stroke="red" points="368.676,-127.695 368.676,-150.305 473.154,-150.305 473.154,-127.695 368.676,-127.695"/>
<text text-anchor="middle" x="420.915" y="-135.305" font-family="Futura" font-size="11.00">include/fae/fae.h</text>
</a>
</g>
<!-- Node1&#45;&gt;Node2 -->
<g id="edge2" class="edge"><title>Node1&#45;&gt;Node2</title>
<path fill="none" stroke="midnightblue" d="M420.915,-184.314C420.915,-173.109 420.915,-159.737 420.915,-150.633"/>
<polygon fill="midnightblue" stroke="midnightblue" points="417.416,-184.557 420.915,-194.557 424.416,-184.557 417.416,-184.557"/>
</g>
<!-- Node4 -->
<g id="node8" class="node"><title>Node4</title>
<a xlink:href="audio_8c.html" target="_top" xlink:title="src/fae/audio.c">
<polygon fill="none" stroke="black" points="51.7118,-0.695312 51.7118,-23.3047 146.119,-23.3047 146.119,-0.695312 51.7118,-0.695312"/>
<text text-anchor="middle" x="98.9154" y="-8.30469" font-family="Futura" font-size="11.00">src/fae/audio.c</text>
</a>
</g>
<!-- Node1&#45;&gt;Node4 -->
<g id="edge28" class="edge"><title>Node1&#45;&gt;Node4</title>
<path fill="none" stroke="midnightblue" d="M352.298,-195.505C244.754,-179.009 44.6348,-141.247 4.91544,-84 -14.146,-56.5268 29.4833,-35.1853 63.501,-23.3496"/>
<polygon fill="midnightblue" stroke="midnightblue" points="351.997,-198.999 362.408,-197.035 353.044,-192.078 351.997,-198.999"/>
</g>
<!-- Node10 -->
<g id="node25" class="node"><title>Node10</title>
<a xlink:href="device_8c.html" target="_top" xlink:title="src/platform/macosx\l/fae/device.c">
<polygon fill="none" stroke="black" points="528.512,-120.391 528.512,-157.609 649.319,-157.609 649.319,-120.391 528.512,-120.391"/>
<text text-anchor="start" x="536.512" y="-142.609" font-family="Futura" font-size="11.00">src/platform/macosx</text>
<text text-anchor="middle" x="588.915" y="-128" font-family="Futura" font-size="11.00">/fae/device.c</text>
</a>
</g>
<!-- Node1&#45;&gt;Node10 -->
<g id="edge30" class="edge"><title>Node1&#45;&gt;Node10</title>
<path fill="none" stroke="midnightblue" d="M457.46,-190.861C482.661,-181.11 516.344,-168.078 543.305,-157.647"/>
<polygon fill="midnightblue" stroke="midnightblue" points="455.971,-187.684 447.908,-194.557 458.497,-194.212 455.971,-187.684"/>
</g>
<!-- Node3 -->
<g id="node5" class="node"><title>Node3</title>
<a xlink:href="atomic_8h.html" target="_top" xlink:title="include/fae/atomic.h">
<polygon fill="none" stroke="red" points="152.246,-60.6953 152.246,-83.3047 273.584,-83.3047 273.584,-60.6953 152.246,-60.6953"/>
<text text-anchor="middle" x="212.915" y="-68.3047" font-family="Futura" font-size="11.00">include/fae/atomic.h</text>
</a>
</g>
<!-- Node2&#45;&gt;Node3 -->
<g id="edge4" class="edge"><title>Node2&#45;&gt;Node3</title>
<path fill="none" stroke="midnightblue" d="M372.611,-124.648C331.687,-112.394 274.576,-94.496 240.817,-83.3101"/>
<polygon fill="midnightblue" stroke="midnightblue" points="371.799,-128.058 382.382,-127.557 373.796,-121.349 371.799,-128.058"/>
</g>
<!-- Node5 -->
<g id="node10" class="node"><title>Node5</title>
<a xlink:href="buffer_8h.html" target="_top" xlink:title="include/fae/buffer.h">
<polygon fill="none" stroke="red" points="291.1,-60.6953 291.1,-83.3047 408.731,-83.3047 408.731,-60.6953 291.1,-60.6953"/>
<text text-anchor="middle" x="349.915" y="-68.3047" font-family="Futura" font-size="11.00">include/fae/buffer.h</text>
</a>
</g>
<!-- Node2&#45;&gt;Node5 -->
<g id="edge10" class="edge"><title>Node2&#45;&gt;Node5</title>
<path fill="none" stroke="midnightblue" d="M402.059,-120.737C389.175,-108.942 372.51,-93.685 361.53,-83.6334"/>
<polygon fill="midnightblue" stroke="midnightblue" points="399.769,-123.386 409.508,-127.557 404.496,-118.222 399.769,-123.386"/>
</g>
<!-- Node6 -->
<g id="node12" class="node"><title>Node6</title>
<a xlink:href="device_8h.html" target="_top" xlink:title="include/fae/device.h">
<polygon fill="none" stroke="red" points="13.6896,-60.6953 13.6896,-83.3047 134.141,-83.3047 134.141,-60.6953 13.6896,-60.6953"/>
<text text-anchor="middle" x="73.9154" y="-68.3047" font-family="Futura" font-size="11.00">include/fae/device.h</text>
</a>
</g>
<!-- Node2&#45;&gt;Node6 -->
<g id="edge12" class="edge"><title>Node2&#45;&gt;Node6</title>
<path fill="none" stroke="midnightblue" d="M358.42,-126.293C293.042,-114.047 191.413,-95.0096 128.964,-83.3116"/>
<polygon fill="midnightblue" stroke="midnightblue" points="358.117,-129.797 368.59,-128.198 359.406,-122.917 358.117,-129.797"/>
</g>
<!-- Node7 -->
<g id="node15" class="node"><title>Node7</title>
<a xlink:href="dynamic_8h.html" target="_top" xlink:title="include/fae/dynamic.h">
<polygon fill="none" stroke="red" points="426.791,-60.6953 426.791,-83.3047 557.04,-83.3047 557.04,-60.6953 426.791,-60.6953"/>
<text text-anchor="middle" x="491.915" y="-68.3047" font-family="Futura" font-size="11.00">include/fae/dynamic.h</text>
</a>
</g>
<!-- Node2&#45;&gt;Node7 -->
<g id="edge16" class="edge"><title>Node2&#45;&gt;Node7</title>
<path fill="none" stroke="midnightblue" d="M439.772,-120.737C452.656,-108.942 469.321,-93.685 480.3,-83.6334"/>
<polygon fill="midnightblue" stroke="midnightblue" points="437.335,-118.222 432.323,-127.557 442.062,-123.386 437.335,-118.222"/>
</g>
<!-- Node8 -->
<g id="node17" class="node"><title>Node8</title>
<a xlink:href="error_8h.html" target="_top" xlink:title="include/fae/error.h">
<polygon fill="none" stroke="red" points="711.471,-60.6953 711.471,-83.3047 824.36,-83.3047 824.36,-60.6953 711.471,-60.6953"/>
<text text-anchor="middle" x="767.915" y="-68.3047" font-family="Futura" font-size="11.00">include/fae/error.h</text>
</a>
</g>
<!-- Node2&#45;&gt;Node8 -->
<g id="edge18" class="edge"><title>Node2&#45;&gt;Node8</title>
<path fill="none" stroke="midnightblue" d="M457.394,-124.982C464.173,-123.195 471.212,-121.471 477.915,-120 480.724,-119.384 627.789,-94.8521 711.458,-81.4823"/>
<polygon fill="midnightblue" stroke="midnightblue" points="456.442,-121.614 447.717,-127.625 458.286,-128.367 456.442,-121.614"/>
</g>
<!-- Node9 -->
<g id="node21" class="node"><title>Node9</title>
<a xlink:href="graph_8h.html" target="_top" xlink:title="include/fae/graph.h">
<polygon fill="none" stroke="red" points="574.809,-60.6953 574.809,-83.3047 693.021,-83.3047 693.021,-60.6953 574.809,-60.6953"/>
<text text-anchor="middle" x="633.915" y="-68.3047" font-family="Futura" font-size="11.00">include/fae/graph.h</text>
</a>
</g>
<!-- Node2&#45;&gt;Node9 -->
<g id="edge24" class="edge"><title>Node2&#45;&gt;Node9</title>
<path fill="none" stroke="midnightblue" d="M459.827,-124.414C498.281,-112.167 556.593,-94.4251 595.039,-83.3101"/>
<polygon fill="midnightblue" stroke="midnightblue" points="458.477,-121.171 450.023,-127.557 460.614,-127.837 458.477,-121.171"/>
</g>
<!-- Node3&#45;&gt;Node2 -->
<g id="edge6" class="edge"><title>Node3&#45;&gt;Node2</title>
<path fill="none" stroke="midnightblue" d="M260.734,-86.207C301.529,-98.4157 358.668,-116.318 392.611,-127.557"/>
<polygon fill="midnightblue" stroke="midnightblue" points="261.581,-82.8075 250.998,-83.3101 259.585,-89.5168 261.581,-82.8075"/>
</g>
<!-- Node3&#45;&gt;Node4 -->
<g id="edge8" class="edge"><title>Node3&#45;&gt;Node4</title>
<path fill="none" stroke="midnightblue" d="M183.511,-56.0398C163.447,-45.8319 137.371,-32.5651 119.504,-23.475"/>
<polygon fill="midnightblue" stroke="midnightblue" points="182.035,-59.2156 192.535,-60.6308 185.209,-52.9767 182.035,-59.2156"/>
</g>
<!-- Node6&#45;&gt;Node1 -->
<g id="edge14" class="edge"><title>Node6&#45;&gt;Node1</title>
<path fill="none" stroke="midnightblue" d="M110.749,-87.0117C180.828,-113.67 331.861,-171.123 393.687,-194.642"/>
<polygon fill="midnightblue" stroke="midnightblue" points="111.608,-83.5939 101.017,-83.3097 109.12,-90.1365 111.608,-83.5939"/>
</g>
<!-- Node8&#45;&gt;Node1 -->
<g id="edge20" class="edge"><title>Node8&#45;&gt;Node1</title>
<path fill="none" stroke="midnightblue" d="M701.205,-84.6409C630.531,-97.1248 527.981,-115.736 519.915,-120 498.8,-131.164 499.857,-142.234 481.915,-158 466.651,-171.414 448.008,-185.468 435.38,-194.673"/>
<polygon fill="midnightblue" stroke="midnightblue" points="702.145,-88.0291 711.386,-82.8459 700.93,-81.1355 702.145,-88.0291"/>
</g>
<!-- Node8&#45;&gt;Node2 -->
<g id="edge22" class="edge"><title>Node8&#45;&gt;Node2</title>
<path fill="none" stroke="midnightblue" d="M701.965,-85.0468C622.221,-98.7844 498.489,-119.435 495.915,-120 485.939,-122.189 475.217,-124.939 465.035,-127.625"/>
<polygon fill="midnightblue" stroke="midnightblue" points="702.684,-88.4745 711.943,-83.3242 701.493,-81.5766 702.684,-88.4745"/>
</g>
<!-- Node9&#45;&gt;Node2 -->
<g id="edge26" class="edge"><title>Node9&#45;&gt;Node2</title>
<path fill="none" stroke="midnightblue" d="M595.463,-86.44C557.168,-98.6426 498.857,-116.389 460.252,-127.557"/>
<polygon fill="midnightblue" stroke="midnightblue" points="596.768,-89.6971 605.221,-83.3101 594.63,-83.0316 596.768,-89.6971"/>
</g>
</g>
</svg>
