<?xml version="1.0" encoding="UTF-8" standalone="no"?>
<!DOCTYPE svg PUBLIC "-//W3C//DTD SVG 1.1//EN"
 "http://www.w3.org/Graphics/SVG/1.1/DTD/svg11.dtd">
<!-- Generated by graphviz version 2.28.0 (20121015.0031)
 -->
<!-- Title: src/fae/audio_engine.c Pages: 1 -->
<svg width="610pt" height="152pt"
 viewBox="0.00 0.00 610.00 152.00" xmlns="http://www.w3.org/2000/svg" xmlns:xlink="http://www.w3.org/1999/xlink">
<g id="graph1" class="graph" transform="scale(1 1) rotate(0) translate(4 148)">
<title>src/fae/audio_engine.c</title>
<!-- Node1 -->
<g id="node1" class="node"><title>Node1</title>
<polygon fill="#bfbfbf" stroke="black" points="366.907,-120.695 366.907,-143.305 501.093,-143.305 501.093,-120.695 366.907,-120.695"/>
<text text-anchor="middle" x="434" y="-128.305" font-family="Futura" font-size="11.00">src/fae/audio_engine.c</text>
</g>
<!-- Node2 -->
<g id="node3" class="node"><title>Node2</title>
<a xlink:href="audio__engine_8h.html" target="_top" xlink:title="fae/audio_engine.h">
<polygon fill="none" stroke="red" points="231.223,-60.6953 231.223,-83.3047 346.777,-83.3047 346.777,-60.6953 231.223,-60.6953"/>
<text text-anchor="middle" x="289" y="-68.3047" font-family="Futura" font-size="11.00">fae/audio_engine.h</text>
</a>
</g>
<!-- Node1&#45;&gt;Node2 -->
<g id="edge2" class="edge"><title>Node1&#45;&gt;Node2</title>
<path fill="none" stroke="midnightblue" d="M408.077,-120.631C384.818,-111.327 350.469,-97.5877 324.632,-87.2529"/>
<polygon fill="midnightblue" stroke="midnightblue" points="325.772,-83.9393 315.188,-83.475 323.172,-90.4387 325.772,-83.9393"/>
</g>
<!-- Node8 -->
<g id="node15" class="node"><title>Node8</title>
<a xlink:href="util_8h.html" target="_top" xlink:title="fae/util.h">
<polygon fill="none" stroke="red" points="365.141,-60.6953 365.141,-83.3047 426.859,-83.3047 426.859,-60.6953 365.141,-60.6953"/>
<text text-anchor="middle" x="396" y="-68.3047" font-family="Futura" font-size="11.00">fae/util.h</text>
</a>
</g>
<!-- Node1&#45;&gt;Node8 -->
<g id="edge14" class="edge"><title>Node1&#45;&gt;Node8</title>
<path fill="none" stroke="midnightblue" d="M427.206,-120.631C422.029,-112.729 414.756,-101.628 408.533,-92.1298"/>
<polygon fill="midnightblue" stroke="midnightblue" points="411.4,-90.1184 402.992,-83.6719 405.545,-93.9546 411.4,-90.1184"/>
</g>
<!-- Node9 -->
<g id="node17" class="node"><title>Node9</title>
<polygon fill="none" stroke="#bfbfbf" points="444.871,-60.6953 444.871,-83.3047 499.129,-83.3047 499.129,-60.6953 444.871,-60.6953"/>
<text text-anchor="middle" x="472" y="-68.3047" font-family="Futura" font-size="11.00">unistd.h</text>
</g>
<!-- Node1&#45;&gt;Node9 -->
<g id="edge16" class="edge"><title>Node1&#45;&gt;Node9</title>
<path fill="none" stroke="midnightblue" d="M440.794,-120.631C445.971,-112.729 453.244,-101.628 459.467,-92.1298"/>
<polygon fill="midnightblue" stroke="midnightblue" points="462.455,-93.9546 465.008,-83.6719 456.6,-90.1184 462.455,-93.9546"/>
</g>
<!-- Node10 -->
<g id="node19" class="node"><title>Node10</title>
<polygon fill="none" stroke="#bfbfbf" points="517.132,-60.6953 517.132,-83.3047 572.868,-83.3047 572.868,-60.6953 517.132,-60.6953"/>
<text text-anchor="middle" x="545" y="-68.3047" font-family="Futura" font-size="11.00">config.h</text>
</g>
<!-- Node1&#45;&gt;Node10 -->
<g id="edge18" class="edge"><title>Node1&#45;&gt;Node10</title>
<path fill="none" stroke="midnightblue" d="M453.845,-120.631C471.1,-111.614 496.331,-98.4308 515.875,-88.2184"/>
<polygon fill="midnightblue" stroke="midnightblue" points="517.711,-91.2082 524.953,-83.475 514.469,-85.0041 517.711,-91.2082"/>
</g>
<!-- Node3 -->
<g id="node5" class="node"><title>Node3</title>
<a xlink:href="atomic_8h.html" target="_top" xlink:title="fae/atomic.h">
<polygon fill="none" stroke="red" points="-0.105713,-0.695312 -0.105713,-23.3047 80.1057,-23.3047 80.1057,-0.695312 -0.105713,-0.695312"/>
<text text-anchor="middle" x="40" y="-8.30469" font-family="Futura" font-size="11.00">fae/atomic.h</text>
</a>
</g>
<!-- Node2&#45;&gt;Node3 -->
<g id="edge4" class="edge"><title>Node2&#45;&gt;Node3</title>
<path fill="none" stroke="midnightblue" d="M244.484,-60.6308C201.177,-50.5433 135.48,-35.2404 90.3032,-24.7172"/>
<polygon fill="midnightblue" stroke="midnightblue" points="90.957,-21.2759 80.4237,-22.416 89.3689,-28.0934 90.957,-21.2759"/>
</g>
<!-- Node4 -->
<g id="node7" class="node"><title>Node4</title>
<a xlink:href="queue_8h.html" target="_top" xlink:title="fae/atomic/queue.h">
<polygon fill="none" stroke="red" points="98.6057,-0.695312 98.6057,-23.3047 215.394,-23.3047 215.394,-0.695312 98.6057,-0.695312"/>
<text text-anchor="middle" x="157" y="-8.30469" font-family="Futura" font-size="11.00">fae/atomic/queue.h</text>
</a>
</g>
<!-- Node2&#45;&gt;Node4 -->
<g id="edge6" class="edge"><title>Node2&#45;&gt;Node4</title>
<path fill="none" stroke="midnightblue" d="M265.401,-60.6308C244.414,-51.4093 213.508,-37.8294 190.061,-27.5268"/>
<polygon fill="midnightblue" stroke="midnightblue" points="191.403,-24.2935 180.84,-23.475 188.587,-30.7021 191.403,-24.2935"/>
</g>
<!-- Node5 -->
<g id="node9" class="node"><title>Node5</title>
<a xlink:href="stack_8h.html" target="_top" xlink:title="fae/atomic/stack.h">
<polygon fill="none" stroke="red" points="233.377,-0.695312 233.377,-23.3047 344.623,-23.3047 344.623,-0.695312 233.377,-0.695312"/>
<text text-anchor="middle" x="289" y="-8.30469" font-family="Futura" font-size="11.00">fae/atomic/stack.h</text>
</a>
</g>
<!-- Node2&#45;&gt;Node5 -->
<g id="edge8" class="edge"><title>Node2&#45;&gt;Node5</title>
<path fill="none" stroke="midnightblue" d="M289,-60.6308C289,-53.218 289,-42.9888 289,-33.9096"/>
<polygon fill="midnightblue" stroke="midnightblue" points="292.5,-33.6718 289,-23.6719 285.5,-33.6719 292.5,-33.6718"/>
</g>
<!-- Node6 -->
<g id="node11" class="node"><title>Node6</title>
<a xlink:href="ring__buffer_8h.html" target="_top" xlink:title="fae/atomic/ring_buffer.h">
<polygon fill="none" stroke="red" points="362.483,-0.695312 362.483,-23.3047 503.517,-23.3047 503.517,-0.695312 362.483,-0.695312"/>
<text text-anchor="middle" x="433" y="-8.30469" font-family="Futura" font-size="11.00">fae/atomic/ring_buffer.h</text>
</a>
</g>
<!-- Node2&#45;&gt;Node6 -->
<g id="edge10" class="edge"><title>Node2&#45;&gt;Node6</title>
<path fill="none" stroke="midnightblue" d="M314.744,-60.6308C337.842,-51.3274 371.955,-37.5877 397.614,-27.2529"/>
<polygon fill="midnightblue" stroke="midnightblue" points="399.025,-30.4577 406.993,-23.475 396.41,-23.9646 399.025,-30.4577"/>
</g>
<!-- Node7 -->
<g id="node13" class="node"><title>Node7</title>
<a xlink:href="system_8h.html" target="_top" xlink:title="fae/system.h">
<polygon fill="none" stroke="red" points="521.983,-0.695312 521.983,-23.3047 602.017,-23.3047 602.017,-0.695312 521.983,-0.695312"/>
<text text-anchor="middle" x="562" y="-8.30469" font-family="Futura" font-size="11.00">fae/system.h</text>
</a>
</g>
<!-- Node2&#45;&gt;Node7 -->
<g id="edge12" class="edge"><title>Node2&#45;&gt;Node7</title>
<path fill="none" stroke="midnightblue" d="M338.626,-60.6716C383.835,-51.2314 452.435,-36.829 512,-24 512.1,-23.9784 512.201,-23.9567 512.302,-23.935"/>
<polygon fill="midnightblue" stroke="midnightblue" points="512.858,-27.3958 521.89,-21.8569 511.375,-20.5546 512.858,-27.3958"/>
</g>
</g>
</svg>
