<?xml version="1.0" encoding="UTF-8" standalone="no"?>
<!DOCTYPE svg PUBLIC "-//W3C//DTD SVG 1.1//EN"
 "http://www.w3.org/Graphics/SVG/1.1/DTD/svg11.dtd">
<!-- Generated by graphviz version 2.28.0 (20121015.0031)
 -->
<!-- Title: include/fae/processor/binary.h Pages: 1 -->
<svg width="290pt" height="106pt"
 viewBox="0.00 0.00 290.00 106.00" xmlns="http://www.w3.org/2000/svg" xmlns:xlink="http://www.w3.org/1999/xlink">
<g id="graph1" class="graph" transform="scale(1 1) rotate(0) translate(4 102)">
<title>include/fae/processor/binary.h</title>
<!-- Node1 -->
<g id="node1" class="node"><title>Node1</title>
<polygon fill="#bfbfbf" stroke="black" points="86.428,-60.3906 86.428,-97.6094 213.572,-97.6094 213.572,-60.3906 86.428,-60.3906"/>
<text text-anchor="start" x="94.428" y="-82.6094" font-family="Futura" font-size="11.00">include/fae/processor</text>
<text text-anchor="middle" x="150" y="-68" font-family="Futura" font-size="11.00">/binary.h</text>
</g>
<!-- Node2 -->
<g id="node3" class="node"><title>Node2</title>
<a xlink:href="binary_8c.html" target="_top" xlink:title="src/fae/processor/binary.c">
<polygon fill="none" stroke="black" points="-0.831543,-0.695312 -0.831543,-23.3047 150.832,-23.3047 150.832,-0.695312 -0.831543,-0.695312"/>
<text text-anchor="middle" x="75" y="-8.30469" font-family="Futura" font-size="11.00">src/fae/processor/binary.c</text>
</a>
</g>
<!-- Node1&#45;&gt;Node2 -->
<g id="edge2" class="edge"><title>Node1&#45;&gt;Node2</title>
<path fill="none" stroke="midnightblue" d="M121.904,-53.6501C109.953,-43.2924 96.6393,-31.754 87.2588,-23.6243"/>
<polygon fill="midnightblue" stroke="midnightblue" points="119.657,-56.334 129.506,-60.2385 124.241,-51.0442 119.657,-56.334"/>
</g>
<!-- Node3 -->
<g id="node5" class="node"><title>Node3</title>
<a xlink:href="processor_8c.html" target="_top" xlink:title="src/fae/processor.c">
<polygon fill="none" stroke="black" points="169.255,-0.695312 169.255,-23.3047 282.745,-23.3047 282.745,-0.695312 169.255,-0.695312"/>
<text text-anchor="middle" x="226" y="-8.30469" font-family="Futura" font-size="11.00">src/fae/processor.c</text>
</a>
</g>
<!-- Node1&#45;&gt;Node3 -->
<g id="edge4" class="edge"><title>Node1&#45;&gt;Node3</title>
<path fill="none" stroke="midnightblue" d="M178.471,-53.6501C190.581,-43.2924 204.072,-31.754 213.578,-23.6243"/>
<polygon fill="midnightblue" stroke="midnightblue" points="176.092,-51.0789 170.767,-60.2385 180.642,-56.3986 176.092,-51.0789"/>
</g>
</g>
</svg>
