<?xml version="1.0" encoding="UTF-8" standalone="no"?>
<!DOCTYPE svg PUBLIC "-//W3C//DTD SVG 1.1//EN"
 "http://www.w3.org/Graphics/SVG/1.1/DTD/svg11.dtd">
<!-- Generated by graphviz version 2.28.0 (20121015.0031)
 -->
<!-- Title: src/fae/processor/binary.c Pages: 1 -->
<svg width="748pt" height="152pt"
 viewBox="0.00 0.00 748.00 152.00" xmlns="http://www.w3.org/2000/svg" xmlns:xlink="http://www.w3.org/1999/xlink">
<g id="graph1" class="graph" transform="scale(1 1) rotate(0) translate(4 148)">
<title>src/fae/processor/binary.c</title>
<!-- Node1 -->
<g id="node1" class="node"><title>Node1</title>
<polygon fill="#bfbfbf" stroke="black" points="112.168,-120.695 112.168,-143.305 263.832,-143.305 263.832,-120.695 112.168,-120.695"/>
<text text-anchor="middle" x="188" y="-128.305" font-family="Futura" font-size="11.00">src/fae/processor/binary.c</text>
</g>
<!-- Node2 -->
<g id="node3" class="node"><title>Node2</title>
<polygon fill="none" stroke="#bfbfbf" points="-0.515381,-60.6953 -0.515381,-83.3047 132.515,-83.3047 132.515,-60.6953 -0.515381,-60.6953"/>
<text text-anchor="middle" x="66" y="-68.3047" font-family="Futura" font-size="11.00">fae/processor/binary.h</text>
</g>
<!-- Node1&#45;&gt;Node2 -->
<g id="edge2" class="edge"><title>Node1&#45;&gt;Node2</title>
<path fill="none" stroke="midnightblue" d="M166.189,-120.631C146.964,-111.491 118.735,-98.0705 97.136,-87.8023"/>
<polygon fill="midnightblue" stroke="midnightblue" points="98.5678,-84.6077 88.0337,-83.475 95.5622,-90.9296 98.5678,-84.6077"/>
</g>
<!-- Node3 -->
<g id="node5" class="node"><title>Node3</title>
<a xlink:href="string_8h.html" target="_top" xlink:title="fae/string.h">
<polygon fill="none" stroke="black" points="150.827,-60.6953 150.827,-83.3047 225.173,-83.3047 225.173,-60.6953 150.827,-60.6953"/>
<text text-anchor="middle" x="188" y="-68.3047" font-family="Futura" font-size="11.00">fae/string.h</text>
</a>
</g>
<!-- Node1&#45;&gt;Node3 -->
<g id="edge4" class="edge"><title>Node1&#45;&gt;Node3</title>
<path fill="none" stroke="midnightblue" d="M188,-120.631C188,-113.218 188,-102.989 188,-93.9096"/>
<polygon fill="midnightblue" stroke="midnightblue" points="191.5,-93.6718 188,-83.6719 184.5,-93.6719 191.5,-93.6718"/>
</g>
<!-- Node5 -->
<g id="node9" class="node"><title>Node5</title>
<a xlink:href="util_8h.html" target="_top" xlink:title="fae/util.h">
<polygon fill="none" stroke="red" points="360.141,-60.6953 360.141,-83.3047 421.859,-83.3047 421.859,-60.6953 360.141,-60.6953"/>
<text text-anchor="middle" x="391" y="-68.3047" font-family="Futura" font-size="11.00">fae/util.h</text>
</a>
</g>
<!-- Node1&#45;&gt;Node5 -->
<g id="edge8" class="edge"><title>Node1&#45;&gt;Node5</title>
<path fill="none" stroke="midnightblue" d="M224.292,-120.631C259.631,-110.534 313.256,-95.2125 350.09,-84.6885"/>
<polygon fill="midnightblue" stroke="midnightblue" points="351.351,-87.9684 360.005,-81.8558 349.428,-81.2377 351.351,-87.9684"/>
</g>
<!-- Node4 -->
<g id="node7" class="node"><title>Node4</title>
<a xlink:href="fae_2fae_8h.html" target="_top" xlink:title="fae.h">
<polygon fill="none" stroke="red" points="108.23,-0.695312 108.23,-23.3047 149.77,-23.3047 149.77,-0.695312 108.23,-0.695312"/>
<text text-anchor="middle" x="129" y="-8.30469" font-family="Futura" font-size="11.00">fae.h</text>
</a>
</g>
<!-- Node3&#45;&gt;Node4 -->
<g id="edge6" class="edge"><title>Node3&#45;&gt;Node4</title>
<path fill="none" stroke="midnightblue" d="M177.452,-60.6308C169.083,-52.4034 157.184,-40.7066 147.273,-30.9633"/>
<polygon fill="midnightblue" stroke="midnightblue" points="149.441,-28.1863 139.856,-23.6719 144.533,-33.1782 149.441,-28.1863"/>
</g>
<!-- Node6 -->
<g id="node11" class="node"><title>Node6</title>
<a xlink:href="arch_8h.html" target="_top" xlink:title="fae/util/arch.h">
<polygon fill="none" stroke="black" points="168.205,-0.695312 168.205,-23.3047 257.795,-23.3047 257.795,-0.695312 168.205,-0.695312"/>
<text text-anchor="middle" x="213" y="-8.30469" font-family="Futura" font-size="11.00">fae/util/arch.h</text>
</a>
</g>
<!-- Node5&#45;&gt;Node6 -->
<g id="edge10" class="edge"><title>Node5&#45;&gt;Node6</title>
<path fill="none" stroke="midnightblue" d="M359.995,-60.8972C330.748,-51.3673 286.702,-37.0152 254.45,-26.5061"/>
<polygon fill="midnightblue" stroke="midnightblue" points="255.441,-23.148 244.849,-23.3776 253.272,-29.8036 255.441,-23.148"/>
</g>
<!-- Node7 -->
<g id="node13" class="node"><title>Node7</title>
<a xlink:href="alignof_8h.html" target="_top" xlink:title="fae/util/alignof.h">
<polygon fill="none" stroke="black" points="276.007,-0.695312 276.007,-23.3047 377.993,-23.3047 377.993,-0.695312 276.007,-0.695312"/>
<text text-anchor="middle" x="327" y="-8.30469" font-family="Futura" font-size="11.00">fae/util/alignof.h</text>
</a>
</g>
<!-- Node5&#45;&gt;Node7 -->
<g id="edge12" class="edge"><title>Node5&#45;&gt;Node7</title>
<path fill="none" stroke="midnightblue" d="M379.558,-60.6308C370.39,-52.3219 357.317,-40.4746 346.503,-30.6745"/>
<polygon fill="midnightblue" stroke="midnightblue" points="348.536,-27.7936 338.776,-23.6719 343.835,-32.9806 348.536,-27.7936"/>
</g>
<!-- Node8 -->
<g id="node15" class="node"><title>Node8</title>
<a xlink:href="minmax_8h.html" target="_top" xlink:title="fae/util/minmax.h">
<polygon fill="none" stroke="red" points="395.837,-0.695312 395.837,-23.3047 502.163,-23.3047 502.163,-0.695312 395.837,-0.695312"/>
<text text-anchor="middle" x="449" y="-8.30469" font-family="Futura" font-size="11.00">fae/util/minmax.h</text>
</a>
</g>
<!-- Node5&#45;&gt;Node8 -->
<g id="edge14" class="edge"><title>Node5&#45;&gt;Node8</title>
<path fill="none" stroke="midnightblue" d="M401.369,-60.6308C409.597,-52.4034 421.293,-40.7066 431.037,-30.9633"/>
<polygon fill="midnightblue" stroke="midnightblue" points="433.732,-33.2179 438.328,-23.6719 428.782,-28.2681 433.732,-33.2179"/>
</g>
<!-- Node9 -->
<g id="node17" class="node"><title>Node9</title>
<a xlink:href="literals_8h.html" target="_top" xlink:title="fae/util/literals.h">
<polygon fill="none" stroke="red" points="520.038,-0.695312 520.038,-23.3047 619.962,-23.3047 619.962,-0.695312 520.038,-0.695312"/>
<text text-anchor="middle" x="570" y="-8.30469" font-family="Futura" font-size="11.00">fae/util/literals.h</text>
</a>
</g>
<!-- Node5&#45;&gt;Node9 -->
<g id="edge16" class="edge"><title>Node5&#45;&gt;Node9</title>
<path fill="none" stroke="midnightblue" d="M422.179,-60.8972C451.59,-51.3673 495.884,-37.0152 528.317,-26.5061"/>
<polygon fill="midnightblue" stroke="midnightblue" points="529.538,-29.7897 537.973,-23.3776 527.381,-23.1305 529.538,-29.7897"/>
</g>
<!-- Node10 -->
<g id="node19" class="node"><title>Node10</title>
<a xlink:href="macros_8h.html" target="_top" xlink:title="fae/util/macros.h">
<polygon fill="none" stroke="black" points="637.475,-0.695312 637.475,-23.3047 740.525,-23.3047 740.525,-0.695312 637.475,-0.695312"/>
<text text-anchor="middle" x="689" y="-8.30469" font-family="Futura" font-size="11.00">fae/util/macros.h</text>
</a>
</g>
<!-- Node5&#45;&gt;Node10 -->
<g id="edge18" class="edge"><title>Node5&#45;&gt;Node10</title>
<path fill="none" stroke="midnightblue" d="M422.048,-64.9571C470.413,-55.5438 564.674,-37.1977 627.245,-25.0194"/>
<polygon fill="midnightblue" stroke="midnightblue" points="628.24,-28.3915 637.387,-23.0455 626.903,-21.5205 628.24,-28.3915"/>
</g>
</g>
</svg>
