<?xml version="1.0" encoding="UTF-8" standalone="no"?>
<!DOCTYPE svg PUBLIC "-//W3C//DTD SVG 1.1//EN"
 "http://www.w3.org/Graphics/SVG/1.1/DTD/svg11.dtd">
<!-- Generated by graphviz version 2.28.0 (20121015.0031)
 -->
<!-- Title: include/fae/processor/binary.h Pages: 1 -->
<svg width="348pt" height="406pt"
 viewBox="0.00 0.00 347.68 406.00" xmlns="http://www.w3.org/2000/svg" xmlns:xlink="http://www.w3.org/1999/xlink">
<g id="graph1" class="graph" transform="scale(1 1) rotate(0) translate(4 402)">
<title>include/fae/processor/binary.h</title>
<!-- Node1 -->
<g id="node1" class="node"><title>Node1</title>
<polygon fill="#bfbfbf" stroke="black" points="8.10407,-360.391 8.10407,-397.609 135.248,-397.609 135.248,-360.391 8.10407,-360.391"/>
<text text-anchor="start" x="16.1041" y="-382.609" font-family="Futura" font-size="11.00">include/fae/processor</text>
<text text-anchor="middle" x="71.6761" y="-368" font-family="Futura" font-size="11.00">/binary.h</text>
</g>
<!-- Node2 -->
<g id="node3" class="node"><title>Node2</title>
<a xlink:href="fae_8h.html" target="_top" xlink:title="fae.h">
<polygon fill="none" stroke="black" points="107.906,-120.695 107.906,-143.305 149.446,-143.305 149.446,-120.695 107.906,-120.695"/>
<text text-anchor="middle" x="128.676" y="-128.305" font-family="Futura" font-size="11.00">fae.h</text>
</a>
</g>
<!-- Node1&#45;&gt;Node2 -->
<g id="edge2" class="edge"><title>Node1&#45;&gt;Node2</title>
<path fill="none" stroke="midnightblue" d="M57.3735,-360.353C29.6069,-323.818 -25.5658,-238.431 13.6761,-180 32.2538,-152.338 70.2911,-140.946 97.535,-136.261"/>
<polygon fill="midnightblue" stroke="midnightblue" points="98.3739,-139.674 107.743,-134.728 97.3339,-132.752 98.3739,-139.674"/>
</g>
<!-- Node7 -->
<g id="node14" class="node"><title>Node7</title>
<a xlink:href="processor_8h.html" target="_top" xlink:title="fae/processor.h">
<polygon fill="none" stroke="red" points="102.247,-300.695 102.247,-323.305 197.105,-323.305 197.105,-300.695 102.247,-300.695"/>
<text text-anchor="middle" x="149.676" y="-308.305" font-family="Futura" font-size="11.00">fae/processor.h</text>
</a>
</g>
<!-- Node1&#45;&gt;Node7 -->
<g id="edge14" class="edge"><title>Node1&#45;&gt;Node7</title>
<path fill="none" stroke="midnightblue" d="M92.9899,-360.238C104.204,-350.893 117.894,-339.485 129.011,-330.221"/>
<polygon fill="midnightblue" stroke="midnightblue" points="131.485,-332.715 136.927,-323.624 127.004,-327.337 131.485,-332.715"/>
</g>
<!-- Node3 -->
<g id="node5" class="node"><title>Node3</title>
<a xlink:href="std_8h.html" target="_top" xlink:title="fae/std.h">
<polygon fill="none" stroke="red" points="250.024,-60.6953 250.024,-83.3047 311.329,-83.3047 311.329,-60.6953 250.024,-60.6953"/>
<text text-anchor="middle" x="280.676" y="-68.3047" font-family="Futura" font-size="11.00">fae/std.h</text>
</a>
</g>
<!-- Node2&#45;&gt;Node3 -->
<g id="edge4" class="edge"><title>Node2&#45;&gt;Node3</title>
<path fill="none" stroke="midnightblue" d="M149.492,-123.057C173.745,-113.803 214.263,-98.3419 243.863,-87.047"/>
<polygon fill="midnightblue" stroke="midnightblue" points="245.349,-90.2264 253.444,-83.3912 242.853,-83.6863 245.349,-90.2264"/>
</g>
<!-- Node5 -->
<g id="node10" class="node"><title>Node5</title>
<a xlink:href="alloc_8h.html" target="_top" xlink:title="fae/alloc.h">
<polygon fill="none" stroke="black" points="9.09284,-60.6953 9.09284,-83.3047 80.2593,-83.3047 80.2593,-60.6953 9.09284,-60.6953"/>
<text text-anchor="middle" x="44.6761" y="-68.3047" font-family="Futura" font-size="11.00">fae/alloc.h</text>
</a>
</g>
<!-- Node2&#45;&gt;Node5 -->
<g id="edge10" class="edge"><title>Node2&#45;&gt;Node5</title>
<path fill="none" stroke="midnightblue" d="M113.659,-120.631C101.075,-111.942 82.8876,-99.3841 68.3467,-89.344"/>
<polygon fill="midnightblue" stroke="midnightblue" points="70.0645,-86.2768 59.8468,-83.475 66.0871,-92.0371 70.0645,-86.2768"/>
</g>
<!-- Node6 -->
<g id="node12" class="node"><title>Node6</title>
<a xlink:href="interfaces_8h.html" target="_top" xlink:title="fae/interfaces.h">
<polygon fill="none" stroke="black" points="136.927,-60.6953 136.927,-83.3047 232.425,-83.3047 232.425,-60.6953 136.927,-60.6953"/>
<text text-anchor="middle" x="184.676" y="-68.3047" font-family="Futura" font-size="11.00">fae/interfaces.h</text>
</a>
</g>
<!-- Node2&#45;&gt;Node6 -->
<g id="edge12" class="edge"><title>Node2&#45;&gt;Node6</title>
<path fill="none" stroke="midnightblue" d="M138.688,-120.631C146.631,-112.403 157.925,-100.707 167.332,-90.9633"/>
<polygon fill="midnightblue" stroke="midnightblue" points="169.944,-93.297 174.372,-83.6719 164.908,-88.4348 169.944,-93.297"/>
</g>
<!-- Node4 -->
<g id="node7" class="node"><title>Node4</title>
<a xlink:href="time_8h.html" target="_top" xlink:title="fae/time.h">
<polygon fill="none" stroke="red" points="246.79,-0.695312 246.79,-23.3047 314.562,-23.3047 314.562,-0.695312 246.79,-0.695312"/>
<text text-anchor="middle" x="280.676" y="-8.30469" font-family="Futura" font-size="11.00">fae/time.h</text>
</a>
</g>
<!-- Node3&#45;&gt;Node4 -->
<g id="edge6" class="edge"><title>Node3&#45;&gt;Node4</title>
<path fill="none" stroke="midnightblue" d="M280.676,-60.6308C280.676,-53.218 280.676,-42.9888 280.676,-33.9096"/>
<polygon fill="midnightblue" stroke="midnightblue" points="284.176,-33.6718 280.676,-23.6719 277.176,-33.6719 284.176,-33.6718"/>
</g>
<!-- Node4&#45;&gt;Node2 -->
<g id="edge8" class="edge"><title>Node4&#45;&gt;Node2</title>
<path fill="none" stroke="midnightblue" d="M246.751,-12.6162C210.607,-14.2597 154.924,-23.1254 127.676,-60 117.065,-74.3606 118.781,-95.1997 122.272,-110.589"/>
<polygon fill="midnightblue" stroke="midnightblue" points="119.003,-111.911 124.977,-120.661 125.764,-110.096 119.003,-111.911"/>
</g>
<!-- Node7&#45;&gt;Node2 -->
<g id="edge16" class="edge"><title>Node7&#45;&gt;Node2</title>
<path fill="none" stroke="midnightblue" d="M148.456,-300.661C145.093,-272.15 135.637,-192.001 131.128,-153.78"/>
<polygon fill="midnightblue" stroke="midnightblue" points="134.547,-152.889 129.899,-143.368 127.595,-153.709 134.547,-152.889"/>
</g>
<!-- Node7&#45;&gt;Node4 -->
<g id="edge18" class="edge"><title>Node7&#45;&gt;Node4</title>
<path fill="none" stroke="midnightblue" d="M197.131,-302.906C253.408,-290.272 339.676,-259.982 339.676,-193 339.676,-193 339.676,-193 339.676,-131 339.676,-98.2164 334.92,-89.0241 319.676,-60 314.204,-49.5803 306.145,-39.3602 298.771,-31.1257"/>
<polygon fill="midnightblue" stroke="midnightblue" points="301.135,-28.5296 291.747,-23.6191 296.024,-33.3123 301.135,-28.5296"/>
</g>
<!-- Node8 -->
<g id="node18" class="node"><title>Node8</title>
<a xlink:href="type_8h.html" target="_top" xlink:title="fae/type.h">
<polygon fill="none" stroke="red" points="156.223,-180.695 156.223,-203.305 225.129,-203.305 225.129,-180.695 156.223,-180.695"/>
<text text-anchor="middle" x="190.676" y="-188.305" font-family="Futura" font-size="11.00">fae/type.h</text>
</a>
</g>
<!-- Node7&#45;&gt;Node8 -->
<g id="edge20" class="edge"><title>Node7&#45;&gt;Node8</title>
<path fill="none" stroke="midnightblue" d="M153.315,-300.528C160.105,-280.984 174.816,-238.645 183.617,-213.316"/>
<polygon fill="midnightblue" stroke="midnightblue" points="187.011,-214.213 186.987,-203.618 180.399,-211.915 187.011,-214.213"/>
</g>
<!-- Node9 -->
<g id="node21" class="node"><title>Node9</title>
<a xlink:href="graph_8h.html" target="_top" xlink:title="fae/graph.h">
<polygon fill="none" stroke="red" points="23.1334,-180.695 23.1334,-203.305 100.219,-203.305 100.219,-180.695 23.1334,-180.695"/>
<text text-anchor="middle" x="61.6761" y="-188.305" font-family="Futura" font-size="11.00">fae/graph.h</text>
</a>
</g>
<!-- Node7&#45;&gt;Node9 -->
<g id="edge24" class="edge"><title>Node7&#45;&gt;Node9</title>
<path fill="none" stroke="midnightblue" d="M141.867,-300.528C126.966,-280.548 94.2986,-236.744 75.5813,-211.646"/>
<polygon fill="midnightblue" stroke="midnightblue" points="78.3785,-209.542 69.5945,-203.618 72.7671,-213.727 78.3785,-209.542"/>
</g>
<!-- Node10 -->
<g id="node24" class="node"><title>Node10</title>
<a xlink:href="buffer_8h.html" target="_top" xlink:title="fae/buffer.h">
<polygon fill="none" stroke="red" points="204.423,-240.695 204.423,-263.305 280.929,-263.305 280.929,-240.695 204.423,-240.695"/>
<text text-anchor="middle" x="242.676" y="-248.305" font-family="Futura" font-size="11.00">fae/buffer.h</text>
</a>
</g>
<!-- Node7&#45;&gt;Node10 -->
<g id="edge28" class="edge"><title>Node7&#45;&gt;Node10</title>
<path fill="none" stroke="midnightblue" d="M166.303,-300.631C180.497,-291.778 201.133,-278.909 217.376,-268.778"/>
<polygon fill="midnightblue" stroke="midnightblue" points="219.247,-271.737 225.88,-263.475 215.543,-265.797 219.247,-271.737"/>
</g>
<!-- Node8&#45;&gt;Node2 -->
<g id="edge22" class="edge"><title>Node8&#45;&gt;Node2</title>
<path fill="none" stroke="midnightblue" d="M179.592,-180.631C170.71,-172.322 158.046,-160.475 147.57,-150.675"/>
<polygon fill="midnightblue" stroke="midnightblue" points="149.778,-147.948 140.084,-143.672 144.996,-153.059 149.778,-147.948"/>
</g>
<!-- Node9&#45;&gt;Node2 -->
<g id="edge26" class="edge"><title>Node9&#45;&gt;Node2</title>
<path fill="none" stroke="midnightblue" d="M73.6544,-180.631C83.3466,-172.24 97.2069,-160.242 108.591,-150.387"/>
<polygon fill="midnightblue" stroke="midnightblue" points="111.078,-152.863 116.348,-143.672 106.497,-147.571 111.078,-152.863"/>
</g>
<!-- Node10&#45;&gt;Node2 -->
<g id="edge30" class="edge"><title>Node10&#45;&gt;Node2</title>
<path fill="none" stroke="midnightblue" d="M244.289,-240.693C246.035,-225.768 246.997,-197.966 233.676,-180 216.086,-156.276 183.783,-144.278 159.633,-138.374"/>
<polygon fill="midnightblue" stroke="midnightblue" points="160.37,-134.953 149.849,-136.201 158.852,-141.786 160.37,-134.953"/>
</g>
<!-- Node10&#45;&gt;Node3 -->
<g id="edge32" class="edge"><title>Node10&#45;&gt;Node3</title>
<path fill="none" stroke="midnightblue" d="M244.883,-240.661C250.996,-212.027 268.228,-131.309 276.345,-93.2881"/>
<polygon fill="midnightblue" stroke="midnightblue" points="279.798,-93.8783 278.463,-83.368 272.952,-92.4168 279.798,-93.8783"/>
</g>
<!-- Node10&#45;&gt;Node8 -->
<g id="edge34" class="edge"><title>Node10&#45;&gt;Node8</title>
<path fill="none" stroke="midnightblue" d="M233.38,-240.631C226.076,-232.485 215.724,-220.938 207.041,-211.253"/>
<polygon fill="midnightblue" stroke="midnightblue" points="209.525,-208.781 200.244,-203.672 204.313,-213.454 209.525,-208.781"/>
</g>
</g>
</svg>
