<?xml version="1.0" encoding="UTF-8" standalone="no"?>
<!DOCTYPE svg PUBLIC "-//W3C//DTD SVG 1.1//EN"
 "http://www.w3.org/Graphics/SVG/1.1/DTD/svg11.dtd">
<!-- Generated by graphviz version 2.28.0 (20121015.0031)
 -->
<!-- Title: include/fae/buffer.h Pages: 1 -->
<svg width="541pt" height="332pt"
 viewBox="0.00 0.00 540.99 332.00" xmlns="http://www.w3.org/2000/svg" xmlns:xlink="http://www.w3.org/1999/xlink">
<g id="graph1" class="graph" transform="scale(1 1) rotate(0) translate(4 328)">
<title>include/fae/buffer.h</title>
<!-- Node1 -->
<g id="node1" class="node"><title>Node1</title>
<polygon fill="#bfbfbf" stroke="black" points="239.184,-300.695 239.184,-323.305 356.816,-323.305 356.816,-300.695 239.184,-300.695"/>
<text text-anchor="middle" x="298" y="-308.305" font-family="Futura" font-size="11.00">include/fae/buffer.h</text>
</g>
<!-- Node2 -->
<g id="node3" class="node"><title>Node2</title>
<a xlink:href="fae_2fae_8h.html" target="_top" xlink:title="fae.h">
<polygon fill="none" stroke="red" points="202.23,-120.695 202.23,-143.305 243.77,-143.305 243.77,-120.695 202.23,-120.695"/>
<text text-anchor="middle" x="223" y="-128.305" font-family="Futura" font-size="11.00">fae.h</text>
</a>
</g>
<!-- Node1&#45;&gt;Node2 -->
<g id="edge2" class="edge"><title>Node1&#45;&gt;Node2</title>
<path fill="none" stroke="midnightblue" d="M277.822,-300.476C249.133,-284.223 197.737,-250.02 177,-204 172.618,-194.275 172.971,-189.877 177,-180 181.803,-168.226 191.134,-157.801 200.143,-149.779"/>
<polygon fill="midnightblue" stroke="midnightblue" points="202.398,-152.456 207.856,-143.375 197.926,-147.07 202.398,-152.456"/>
</g>
<!-- Node4 -->
<g id="node8" class="node"><title>Node4</title>
<polygon fill="none" stroke="#bfbfbf" points="255.347,-0.695312 255.347,-23.3047 316.653,-23.3047 316.653,-0.695312 255.347,-0.695312"/>
<text text-anchor="middle" x="286" y="-8.30469" font-family="Futura" font-size="11.00">fae/std.h</text>
</g>
<!-- Node1&#45;&gt;Node4 -->
<g id="edge16" class="edge"><title>Node1&#45;&gt;Node4</title>
<path fill="none" stroke="midnightblue" d="M357.048,-306.5C426.369,-297.623 532,-271.257 532,-193 532,-193 532,-193 532,-131 532,-98.2164 535.973,-82.3617 512,-60 485.653,-35.4241 384.824,-22.1846 327.139,-16.4808"/>
<polygon fill="midnightblue" stroke="midnightblue" points="327.186,-12.9694 316.898,-15.5024 326.52,-19.9377 327.186,-12.9694"/>
</g>
<!-- Node8 -->
<g id="node17" class="node"><title>Node8</title>
<a xlink:href="pair_8h.html" target="_top" xlink:title="fae/pair.h">
<polygon fill="none" stroke="red" points="278.651,-180.695 278.651,-203.305 345.349,-203.305 345.349,-180.695 278.651,-180.695"/>
<text text-anchor="middle" x="312" y="-188.305" font-family="Futura" font-size="11.00">fae/pair.h</text>
</a>
</g>
<!-- Node1&#45;&gt;Node8 -->
<g id="edge18" class="edge"><title>Node1&#45;&gt;Node8</title>
<path fill="none" stroke="midnightblue" d="M299.242,-300.528C301.551,-281.071 306.54,-239.023 309.549,-213.656"/>
<polygon fill="midnightblue" stroke="midnightblue" points="313.038,-213.961 310.74,-203.618 306.086,-213.136 313.038,-213.961"/>
</g>
<!-- Node9 -->
<g id="node20" class="node"><title>Node9</title>
<a xlink:href="string_8h.html" target="_top" xlink:title="fae/string.h">
<polygon fill="none" stroke="black" points="185.827,-180.695 185.827,-203.305 260.173,-203.305 260.173,-180.695 185.827,-180.695"/>
<text text-anchor="middle" x="223" y="-188.305" font-family="Futura" font-size="11.00">fae/string.h</text>
</a>
</g>
<!-- Node1&#45;&gt;Node9 -->
<g id="edge22" class="edge"><title>Node1&#45;&gt;Node9</title>
<path fill="none" stroke="midnightblue" d="M291.344,-300.528C278.756,-280.722 251.288,-237.507 235.272,-212.307"/>
<polygon fill="midnightblue" stroke="midnightblue" points="238.067,-210.18 229.749,-203.618 232.159,-213.935 238.067,-210.18"/>
</g>
<!-- Node10 -->
<g id="node23" class="node"><title>Node10</title>
<a xlink:href="type_8h.html" target="_top" xlink:title="fae/type.h">
<polygon fill="none" stroke="black" points="325.547,-240.695 325.547,-263.305 394.453,-263.305 394.453,-240.695 325.547,-240.695"/>
<text text-anchor="middle" x="360" y="-248.305" font-family="Futura" font-size="11.00">fae/type.h</text>
</a>
</g>
<!-- Node1&#45;&gt;Node10 -->
<g id="edge26" class="edge"><title>Node1&#45;&gt;Node10</title>
<path fill="none" stroke="midnightblue" d="M309.084,-300.631C317.966,-292.322 330.631,-280.475 341.107,-270.675"/>
<polygon fill="midnightblue" stroke="midnightblue" points="343.68,-273.059 348.592,-263.672 338.898,-267.948 343.68,-273.059"/>
</g>
<!-- Node3 -->
<g id="node5" class="node"><title>Node3</title>
<a xlink:href="atomic_8h.html" target="_top" xlink:title="fae/atomic.h">
<polygon fill="none" stroke="black" points="-0.105713,-60.6953 -0.105713,-83.3047 80.1057,-83.3047 80.1057,-60.6953 -0.105713,-60.6953"/>
<text text-anchor="middle" x="40" y="-68.3047" font-family="Futura" font-size="11.00">fae/atomic.h</text>
</a>
</g>
<!-- Node2&#45;&gt;Node3 -->
<g id="edge4" class="edge"><title>Node2&#45;&gt;Node3</title>
<path fill="none" stroke="midnightblue" d="M201.999,-125.647C171.417,-116.843 114.681,-99.0415 77.0493,-86.5866"/>
<polygon fill="midnightblue" stroke="midnightblue" points="78.0443,-83.229 67.4506,-83.386 75.83,-89.8696 78.0443,-83.229"/>
</g>
<!-- Node5 -->
<g id="node10" class="node"><title>Node5</title>
<polygon fill="none" stroke="#bfbfbf" points="98.6057,-60.6953 98.6057,-83.3047 215.394,-83.3047 215.394,-60.6953 98.6057,-60.6953"/>
<text text-anchor="middle" x="157" y="-68.3047" font-family="Futura" font-size="11.00">fae/atomic/queue.h</text>
</g>
<!-- Node2&#45;&gt;Node5 -->
<g id="edge10" class="edge"><title>Node2&#45;&gt;Node5</title>
<path fill="none" stroke="midnightblue" d="M211.201,-120.631C201.653,-112.24 187.999,-100.242 176.785,-90.3869"/>
<polygon fill="midnightblue" stroke="midnightblue" points="178.966,-87.644 169.144,-83.6719 174.345,-92.9021 178.966,-87.644"/>
</g>
<!-- Node6 -->
<g id="node12" class="node"><title>Node6</title>
<a xlink:href="stack_8h.html" target="_top" xlink:title="fae/atomic/stack.h">
<polygon fill="none" stroke="red" points="233.377,-60.6953 233.377,-83.3047 344.623,-83.3047 344.623,-60.6953 233.377,-60.6953"/>
<text text-anchor="middle" x="289" y="-68.3047" font-family="Futura" font-size="11.00">fae/atomic/stack.h</text>
</a>
</g>
<!-- Node2&#45;&gt;Node6 -->
<g id="edge12" class="edge"><title>Node2&#45;&gt;Node6</title>
<path fill="none" stroke="midnightblue" d="M234.799,-120.631C244.347,-112.24 258.001,-100.242 269.215,-90.3869"/>
<polygon fill="midnightblue" stroke="midnightblue" points="271.655,-92.9021 276.856,-83.6719 267.034,-87.644 271.655,-92.9021"/>
</g>
<!-- Node7 -->
<g id="node14" class="node"><title>Node7</title>
<polygon fill="none" stroke="#bfbfbf" points="362.483,-60.6953 362.483,-83.3047 503.517,-83.3047 503.517,-60.6953 362.483,-60.6953"/>
<text text-anchor="middle" x="433" y="-68.3047" font-family="Futura" font-size="11.00">fae/atomic/ring_buffer.h</text>
</g>
<!-- Node2&#45;&gt;Node7 -->
<g id="edge14" class="edge"><title>Node2&#45;&gt;Node7</title>
<path fill="none" stroke="midnightblue" d="M243.903,-125.227C276.793,-116.143 341.451,-98.285 385.927,-86.0012"/>
<polygon fill="midnightblue" stroke="midnightblue" points="386.942,-89.352 395.649,-83.316 385.078,-82.6046 386.942,-89.352"/>
</g>
<!-- Node3&#45;&gt;Node2 -->
<g id="edge6" class="edge"><title>Node3&#45;&gt;Node2</title>
<path fill="none" stroke="midnightblue" d="M78.1329,-83.3993C112.112,-93.5841 161.014,-109.064 192.479,-119.585"/>
<polygon fill="midnightblue" stroke="midnightblue" points="191.447,-122.93 202.042,-122.813 193.687,-116.298 191.447,-122.93"/>
</g>
<!-- Node3&#45;&gt;Node4 -->
<g id="edge8" class="edge"><title>Node3&#45;&gt;Node4</title>
<path fill="none" stroke="midnightblue" d="M80.3464,-61.4874C125.84,-50.7613 199.411,-33.4152 245.122,-22.6378"/>
<polygon fill="midnightblue" stroke="midnightblue" points="246.062,-26.0124 254.991,-20.311 244.455,-19.1992 246.062,-26.0124"/>
</g>
<!-- Node8&#45;&gt;Node2 -->
<g id="edge20" class="edge"><title>Node8&#45;&gt;Node2</title>
<path fill="none" stroke="midnightblue" d="M296.089,-180.631C282.63,-171.86 263.122,-159.147 247.645,-149.06"/>
<polygon fill="midnightblue" stroke="midnightblue" points="249.363,-146.003 239.074,-143.475 245.541,-151.867 249.363,-146.003"/>
</g>
<!-- Node9&#45;&gt;Node2 -->
<g id="edge24" class="edge"><title>Node9&#45;&gt;Node2</title>
<path fill="none" stroke="midnightblue" d="M223,-180.631C223,-173.218 223,-162.989 223,-153.91"/>
<polygon fill="midnightblue" stroke="midnightblue" points="226.5,-153.672 223,-143.672 219.5,-153.672 226.5,-153.672"/>
</g>
<!-- Node10&#45;&gt;Node2 -->
<g id="edge28" class="edge"><title>Node10&#45;&gt;Node2</title>
<path fill="none" stroke="midnightblue" d="M362.315,-240.611C365.023,-225.584 367.569,-197.654 354,-180 330.291,-149.154 284.583,-138.517 253.928,-134.87"/>
<polygon fill="midnightblue" stroke="midnightblue" points="254.074,-131.367 243.774,-133.85 253.374,-138.332 254.074,-131.367"/>
</g>
<!-- Node10&#45;&gt;Node8 -->
<g id="edge30" class="edge"><title>Node10&#45;&gt;Node8</title>
<path fill="none" stroke="midnightblue" d="M351.419,-240.631C344.745,-232.566 335.312,-221.168 327.347,-211.544"/>
<polygon fill="midnightblue" stroke="midnightblue" points="329.904,-209.144 320.832,-203.672 324.511,-213.607 329.904,-209.144"/>
</g>
</g>
</svg>
