<?xml version="1.0" encoding="UTF-8" standalone="no"?>
<!DOCTYPE svg PUBLIC "-//W3C//DTD SVG 1.1//EN"
 "http://www.w3.org/Graphics/SVG/1.1/DTD/svg11.dtd">
<!-- Generated by graphviz version 2.28.0 (20121015.0031)
 -->
<!-- Title: include/fa/buffer.h Pages: 1 -->
<svg width="657pt" height="212pt"
 viewBox="0.00 0.00 657.00 212.00" xmlns="http://www.w3.org/2000/svg" xmlns:xlink="http://www.w3.org/1999/xlink">
<g id="graph1" class="graph" transform="scale(1 1) rotate(0) translate(4 208)">
<title>include/fa/buffer.h</title>
<!-- Node1 -->
<g id="node1" class="node"><title>Node1</title>
<polygon fill="#bfbfbf" stroke="black" points="82.2268,-180.695 82.2268,-203.305 193.773,-203.305 193.773,-180.695 82.2268,-180.695"/>
<text text-anchor="middle" x="138" y="-188.305" font-family="Futura" font-size="11.00">include/fa/buffer.h</text>
</g>
<!-- Node2 -->
<g id="node3" class="node"><title>Node2</title>
<a xlink:href="fa_2fa_8h.html" target="_top" xlink:title="fa.h">
<polygon fill="none" stroke="red" points="228.273,-60.6953 228.273,-83.3047 263.727,-83.3047 263.727,-60.6953 228.273,-60.6953"/>
<text text-anchor="middle" x="246" y="-68.3047" font-family="Futura" font-size="11.00">fa.h</text>
</a>
</g>
<!-- Node1&#45;&gt;Node2 -->
<g id="edge2" class="edge"><title>Node1&#45;&gt;Node2</title>
<path fill="none" stroke="midnightblue" d="M132.553,-180.346C125.804,-165.491 116.614,-138.323 129,-120 148.784,-90.7323 190.121,-79.6873 217.974,-75.521"/>
<polygon fill="midnightblue" stroke="midnightblue" points="218.447,-78.9891 227.916,-74.2373 217.55,-72.0467 218.447,-78.9891"/>
</g>
<!-- Node8 -->
<g id="node15" class="node"><title>Node8</title>
<a xlink:href="pair_8h.html" target="_top" xlink:title="fa/pair.h">
<polygon fill="none" stroke="red" points="-0.306152,-0.695312 -0.306152,-23.3047 60.3062,-23.3047 60.3062,-0.695312 -0.306152,-0.695312"/>
<text text-anchor="middle" x="30" y="-8.30469" font-family="Futura" font-size="11.00">fa/pair.h</text>
</a>
</g>
<!-- Node1&#45;&gt;Node8 -->
<g id="edge20" class="edge"><title>Node1&#45;&gt;Node8</title>
<path fill="none" stroke="midnightblue" d="M131.727,-180.661C114.204,-151.781 64.5356,-69.9197 41.7214,-32.3185"/>
<polygon fill="midnightblue" stroke="midnightblue" points="44.4703,-30.1018 36.2907,-23.368 38.4857,-33.7329 44.4703,-30.1018"/>
</g>
<!-- Node9 -->
<g id="node18" class="node"><title>Node9</title>
<polygon fill="none" stroke="#bfbfbf" points="138.39,-120.695 138.39,-143.305 193.61,-143.305 193.61,-120.695 138.39,-120.695"/>
<text text-anchor="middle" x="166" y="-128.305" font-family="Futura" font-size="11.00">fa/std.h</text>
</g>
<!-- Node1&#45;&gt;Node9 -->
<g id="edge18" class="edge"><title>Node1&#45;&gt;Node9</title>
<path fill="none" stroke="midnightblue" d="M143.006,-180.631C146.742,-172.892 151.959,-162.084 156.48,-152.719"/>
<polygon fill="midnightblue" stroke="midnightblue" points="159.652,-154.199 160.848,-143.672 153.349,-151.156 159.652,-154.199"/>
</g>
<!-- Node10 -->
<g id="node21" class="node"><title>Node10</title>
<a xlink:href="string_8h.html" target="_top" xlink:title="fa/string.h">
<polygon fill="none" stroke="black" points="211.87,-120.695 211.87,-143.305 280.13,-143.305 280.13,-120.695 211.87,-120.695"/>
<text text-anchor="middle" x="246" y="-128.305" font-family="Futura" font-size="11.00">fa/string.h</text>
</a>
</g>
<!-- Node1&#45;&gt;Node10 -->
<g id="edge22" class="edge"><title>Node1&#45;&gt;Node10</title>
<path fill="none" stroke="midnightblue" d="M157.308,-180.631C174.098,-171.614 198.646,-158.431 217.662,-148.218"/>
<polygon fill="midnightblue" stroke="midnightblue" points="219.341,-151.29 226.495,-143.475 216.029,-145.123 219.341,-151.29"/>
</g>
<!-- Node3 -->
<g id="node5" class="node"><title>Node3</title>
<polygon fill="none" stroke="#bfbfbf" points="574.937,-0.695312 574.937,-23.3047 649.063,-23.3047 649.063,-0.695312 574.937,-0.695312"/>
<text text-anchor="middle" x="612" y="-8.30469" font-family="Futura" font-size="11.00">fa/atomic.h</text>
</g>
<!-- Node2&#45;&gt;Node3 -->
<g id="edge4" class="edge"><title>Node2&#45;&gt;Node3</title>
<path fill="none" stroke="midnightblue" d="M264.076,-68.8749C312.853,-63.0244 451.166,-45.6677 565,-24 565.1,-23.9809 565.201,-23.9617 565.301,-23.9425"/>
<polygon fill="midnightblue" stroke="midnightblue" points="565.761,-27.4208 574.861,-21.9946 564.363,-20.5618 565.761,-27.4208"/>
</g>
<!-- Node4 -->
<g id="node7" class="node"><title>Node4</title>
<polygon fill="none" stroke="#bfbfbf" points="78.6484,-0.695312 78.6484,-23.3047 189.352,-23.3047 189.352,-0.695312 78.6484,-0.695312"/>
<text text-anchor="middle" x="134" y="-8.30469" font-family="Futura" font-size="11.00">fa/atomic/queue.h</text>
</g>
<!-- Node2&#45;&gt;Node4 -->
<g id="edge6" class="edge"><title>Node2&#45;&gt;Node4</title>
<path fill="none" stroke="midnightblue" d="M228.005,-61.6813C210.524,-52.6286 183.688,-38.7312 163.157,-28.099"/>
<polygon fill="midnightblue" stroke="midnightblue" points="164.713,-24.9635 154.224,-23.4729 161.494,-31.1795 164.713,-24.9635"/>
</g>
<!-- Node5 -->
<g id="node9" class="node"><title>Node5</title>
<polygon fill="none" stroke="#bfbfbf" points="207.42,-0.695312 207.42,-23.3047 312.58,-23.3047 312.58,-0.695312 207.42,-0.695312"/>
<text text-anchor="middle" x="260" y="-8.30469" font-family="Futura" font-size="11.00">fa/atomic/stack.h</text>
</g>
<!-- Node2&#45;&gt;Node5 -->
<g id="edge8" class="edge"><title>Node2&#45;&gt;Node5</title>
<path fill="none" stroke="midnightblue" d="M248.503,-60.6308C250.312,-53.1365 252.816,-42.7636 255.025,-33.6107"/>
<polygon fill="midnightblue" stroke="midnightblue" points="258.48,-34.214 257.424,-23.6719 251.675,-32.5714 258.48,-34.214"/>
</g>
<!-- Node6 -->
<g id="node11" class="node"><title>Node6</title>
<polygon fill="none" stroke="#bfbfbf" points="330.526,-0.695312 330.526,-23.3047 465.474,-23.3047 465.474,-0.695312 330.526,-0.695312"/>
<text text-anchor="middle" x="398" y="-8.30469" font-family="Futura" font-size="11.00">fa/atomic/ring_buffer.h</text>
</g>
<!-- Node2&#45;&gt;Node6 -->
<g id="edge10" class="edge"><title>Node2&#45;&gt;Node6</title>
<path fill="none" stroke="midnightblue" d="M263.734,-64.2332C287.548,-55.1462 330.436,-38.7809 361.341,-26.9881"/>
<polygon fill="midnightblue" stroke="midnightblue" points="362.82,-30.1702 370.915,-23.335 360.324,-23.6301 362.82,-30.1702"/>
</g>
<!-- Node7 -->
<g id="node13" class="node"><title>Node7</title>
<polygon fill="none" stroke="#bfbfbf" points="483.026,-0.695312 483.026,-23.3047 556.974,-23.3047 556.974,-0.695312 483.026,-0.695312"/>
<text text-anchor="middle" x="520" y="-8.30469" font-family="Futura" font-size="11.00">fa/system.h</text>
</g>
<!-- Node2&#45;&gt;Node7 -->
<g id="edge12" class="edge"><title>Node2&#45;&gt;Node7</title>
<path fill="none" stroke="midnightblue" d="M263.779,-67.5328C300.751,-60.2808 388.833,-42.7872 472.903,-24.1983"/>
<polygon fill="midnightblue" stroke="midnightblue" points="473.863,-27.5704 482.866,-21.9857 472.345,-20.7369 473.863,-27.5704"/>
</g>
<!-- Node2&#45;&gt;Node8 -->
<g id="edge14" class="edge"><title>Node2&#45;&gt;Node8</title>
<path fill="none" stroke="midnightblue" d="M228.224,-67.5542C196.465,-60.2207 129.197,-42.4371 68.2012,-25.9472"/>
<polygon fill="midnightblue" stroke="midnightblue" points="69.0392,-22.5482 58.4721,-23.3136 67.2101,-29.305 69.0392,-22.5482"/>
</g>
<!-- Node8&#45;&gt;Node2 -->
<g id="edge16" class="edge"><title>Node8&#45;&gt;Node2</title>
<path fill="none" stroke="midnightblue" d="M60.6806,-19.0811C66.8469,-20.6891 73.1608,-22.4175 79,-24 128.029,-37.2877 184.816,-52.403 218.104,-61.8219"/>
<polygon fill="midnightblue" stroke="midnightblue" points="217.47,-65.2808 228.047,-64.6703 219.398,-58.5515 217.47,-65.2808"/>
</g>
<!-- Node10&#45;&gt;Node2 -->
<g id="edge24" class="edge"><title>Node10&#45;&gt;Node2</title>
<path fill="none" stroke="midnightblue" d="M246,-120.631C246,-113.218 246,-102.989 246,-93.9096"/>
<polygon fill="midnightblue" stroke="midnightblue" points="249.5,-93.6718 246,-83.6719 242.5,-93.6719 249.5,-93.6718"/>
</g>
</g>
</svg>
