<?xml version="1.0" encoding="UTF-8" standalone="no"?>
<!DOCTYPE svg PUBLIC "-//W3C//DTD SVG 1.1//EN"
 "http://www.w3.org/Graphics/SVG/1.1/DTD/svg11.dtd">
<!-- Generated by graphviz version 2.28.0 (20121015.0031)
 -->
<!-- Title: src/fae/buffer.c Pages: 1 -->
<svg width="453pt" height="392pt"
 viewBox="0.00 0.00 452.77 392.00" xmlns="http://www.w3.org/2000/svg" xmlns:xlink="http://www.w3.org/1999/xlink">
<g id="graph1" class="graph" transform="scale(1 1) rotate(0) translate(4 388)">
<title>src/fae/buffer.c</title>
<!-- Node1 -->
<g id="node1" class="node"><title>Node1</title>
<polygon fill="#bfbfbf" stroke="black" points="262.204,-360.695 262.204,-383.305 357.342,-383.305 357.342,-360.695 262.204,-360.695"/>
<text text-anchor="middle" x="309.773" y="-368.305" font-family="Futura" font-size="11.00">src/fae/buffer.c</text>
</g>
<!-- Node2 -->
<g id="node3" class="node"><title>Node2</title>
<a xlink:href="buffer_8h.html" target="_top" xlink:title="fae/buffer.h">
<polygon fill="none" stroke="black" points="111.52,-300.695 111.52,-323.305 188.025,-323.305 188.025,-300.695 111.52,-300.695"/>
<text text-anchor="middle" x="149.773" y="-308.305" font-family="Futura" font-size="11.00">fae/buffer.h</text>
</a>
</g>
<!-- Node1&#45;&gt;Node2 -->
<g id="edge2" class="edge"><title>Node1&#45;&gt;Node2</title>
<path fill="none" stroke="midnightblue" d="M281.168,-360.631C255.197,-351.216 216.694,-337.259 188.074,-326.884"/>
<polygon fill="midnightblue" stroke="midnightblue" points="188.993,-323.495 178.399,-323.377 186.608,-330.076 188.993,-323.495"/>
</g>
<!-- Node4 -->
<g id="node7" class="node"><title>Node4</title>
<a xlink:href="error_8h.html" target="_top" xlink:title="fae/error.h">
<polygon fill="none" stroke="black" points="156.891,-60.6953 156.891,-83.3047 228.654,-83.3047 228.654,-60.6953 156.891,-60.6953"/>
<text text-anchor="middle" x="192.773" y="-68.3047" font-family="Futura" font-size="11.00">fae/error.h</text>
</a>
</g>
<!-- Node1&#45;&gt;Node4 -->
<g id="edge28" class="edge"><title>Node1&#45;&gt;Node4</title>
<path fill="none" stroke="midnightblue" d="M305.368,-360.476C297.256,-340.107 280.773,-293.715 280.773,-253 280.773,-253 280.773,-253 280.773,-191 280.773,-147.835 242.464,-110.262 216.398,-89.6919"/>
<polygon fill="midnightblue" stroke="midnightblue" points="218.18,-86.6498 208.101,-83.3844 213.944,-92.2225 218.18,-86.6498"/>
</g>
<!-- Node9 -->
<g id="node24" class="node"><title>Node9</title>
<a xlink:href="util_8h.html" target="_top" xlink:title="fae/util.h">
<polygon fill="none" stroke="red" points="308.913,-300.695 308.913,-323.305 370.632,-323.305 370.632,-300.695 308.913,-300.695"/>
<text text-anchor="middle" x="339.773" y="-308.305" font-family="Futura" font-size="11.00">fae/util.h</text>
</a>
</g>
<!-- Node1&#45;&gt;Node9 -->
<g id="edge30" class="edge"><title>Node1&#45;&gt;Node9</title>
<path fill="none" stroke="midnightblue" d="M315.136,-360.631C319.139,-352.892 324.729,-342.084 329.573,-332.719"/>
<polygon fill="midnightblue" stroke="midnightblue" points="332.767,-334.162 334.253,-323.672 326.55,-330.946 332.767,-334.162"/>
</g>
<!-- Node10 -->
<g id="node26" class="node"><title>Node10</title>
<polygon fill="none" stroke="#bfbfbf" points="388.183,-300.695 388.183,-323.305 445.363,-323.305 445.363,-300.695 388.183,-300.695"/>
<text text-anchor="middle" x="416.773" y="-308.305" font-family="Futura" font-size="11.00">sndfile.h</text>
</g>
<!-- Node1&#45;&gt;Node10 -->
<g id="edge32" class="edge"><title>Node1&#45;&gt;Node10</title>
<path fill="none" stroke="midnightblue" d="M328.902,-360.631C345.46,-351.655 369.636,-338.551 388.44,-328.358"/>
<polygon fill="midnightblue" stroke="midnightblue" points="390.325,-331.318 397.448,-323.475 386.989,-325.164 390.325,-331.318"/>
</g>
<!-- Node3 -->
<g id="node5" class="node"><title>Node3</title>
<a xlink:href="fae_2fae_8h.html" target="_top" xlink:title="fae.h">
<polygon fill="none" stroke="red" points="172.003,-120.695 172.003,-143.305 213.542,-143.305 213.542,-120.695 172.003,-120.695"/>
<text text-anchor="middle" x="192.773" y="-128.305" font-family="Futura" font-size="11.00">fae.h</text>
</a>
</g>
<!-- Node2&#45;&gt;Node3 -->
<g id="edge4" class="edge"><title>Node2&#45;&gt;Node3</title>
<path fill="none" stroke="midnightblue" d="M178.981,-300.652C195.31,-293.189 214.244,-281.34 223.773,-264 243.721,-227.698 221.189,-178.872 205.436,-152.263"/>
<polygon fill="midnightblue" stroke="midnightblue" points="208.269,-150.19 200.03,-143.529 202.317,-153.874 208.269,-150.19"/>
</g>
<!-- Node5 -->
<g id="node10" class="node"><title>Node5</title>
<a xlink:href="string_8h.html" target="_top" xlink:title="fae/string.h">
<polygon fill="none" stroke="black" points="91.5996,-0.695312 91.5996,-23.3047 165.946,-23.3047 165.946,-0.695312 91.5996,-0.695312"/>
<text text-anchor="middle" x="128.773" y="-8.30469" font-family="Futura" font-size="11.00">fae/string.h</text>
</a>
</g>
<!-- Node2&#45;&gt;Node5 -->
<g id="edge20" class="edge"><title>Node2&#45;&gt;Node5</title>
<path fill="none" stroke="midnightblue" d="M111.518,-306.721C82.4193,-301.469 43.4682,-289.812 19.7727,-264 -2.31808,-239.936 0.772694,-225.666 0.772694,-193 0.772694,-193 0.772694,-193 0.772694,-131 0.772694,-80.5679 55.1517,-45.7479 93.0218,-27.6136"/>
<polygon fill="midnightblue" stroke="midnightblue" points="94.632,-30.7255 102.251,-23.3633 91.7038,-24.3673 94.632,-30.7255"/>
</g>
<!-- Node6 -->
<g id="node13" class="node"><title>Node6</title>
<polygon fill="none" stroke="#bfbfbf" points="29.1201,-240.695 29.1201,-263.305 90.4253,-263.305 90.4253,-240.695 29.1201,-240.695"/>
<text text-anchor="middle" x="59.7727" y="-248.305" font-family="Futura" font-size="11.00">fae/std.h</text>
</g>
<!-- Node2&#45;&gt;Node6 -->
<g id="edge14" class="edge"><title>Node2&#45;&gt;Node6</title>
<path fill="none" stroke="midnightblue" d="M133.682,-300.631C120.073,-291.86 100.345,-279.147 84.6941,-269.06"/>
<polygon fill="midnightblue" stroke="midnightblue" points="86.3287,-265.95 76.027,-263.475 82.5368,-271.834 86.3287,-265.95"/>
</g>
<!-- Node7 -->
<g id="node15" class="node"><title>Node7</title>
<a xlink:href="pair_8h.html" target="_top" xlink:title="fae/pair.h">
<polygon fill="none" stroke="red" points="98.4238,-180.695 98.4238,-203.305 165.122,-203.305 165.122,-180.695 98.4238,-180.695"/>
<text text-anchor="middle" x="131.773" y="-188.305" font-family="Futura" font-size="11.00">fae/pair.h</text>
</a>
</g>
<!-- Node2&#45;&gt;Node7 -->
<g id="edge16" class="edge"><title>Node2&#45;&gt;Node7</title>
<path fill="none" stroke="midnightblue" d="M146.603,-300.652C143.835,-291.199 139.93,-276.788 137.773,-264 134.947,-247.253 133.427,-228.047 132.624,-213.837"/>
<polygon fill="midnightblue" stroke="midnightblue" points="136.11,-213.47 132.123,-203.654 129.119,-213.814 136.11,-213.47"/>
</g>
<!-- Node8 -->
<g id="node19" class="node"><title>Node8</title>
<a xlink:href="type_8h.html" target="_top" xlink:title="fae/type.h">
<polygon fill="none" stroke="black" points="146.32,-240.695 146.32,-263.305 215.225,-263.305 215.225,-240.695 146.32,-240.695"/>
<text text-anchor="middle" x="180.773" y="-248.305" font-family="Futura" font-size="11.00">fae/type.h</text>
</a>
</g>
<!-- Node2&#45;&gt;Node8 -->
<g id="edge22" class="edge"><title>Node2&#45;&gt;Node8</title>
<path fill="none" stroke="midnightblue" d="M155.315,-300.631C159.451,-292.892 165.228,-282.084 170.233,-272.719"/>
<polygon fill="midnightblue" stroke="midnightblue" points="173.442,-274.141 175.069,-263.672 167.268,-270.841 173.442,-274.141"/>
</g>
<!-- Node3&#45;&gt;Node4 -->
<g id="edge6" class="edge"><title>Node3&#45;&gt;Node4</title>
<path fill="none" stroke="midnightblue" d="M187.457,-120.631C186.096,-113.137 185.703,-102.764 186.28,-93.6107"/>
<polygon fill="midnightblue" stroke="midnightblue" points="189.758,-94.0015 187.403,-83.6719 182.803,-93.2159 189.758,-94.0015"/>
</g>
<!-- Node4&#45;&gt;Node3 -->
<g id="edge8" class="edge"><title>Node4&#45;&gt;Node3</title>
<path fill="none" stroke="midnightblue" d="M198.143,-83.6719C199.464,-91.1602 199.836,-101.411 199.261,-110.459"/>
<polygon fill="midnightblue" stroke="midnightblue" points="195.756,-110.296 198.089,-120.631 202.71,-111.097 195.756,-110.296"/>
</g>
<!-- Node4&#45;&gt;Node5 -->
<g id="edge10" class="edge"><title>Node4&#45;&gt;Node5</title>
<path fill="none" stroke="midnightblue" d="M181.331,-60.6308C172.162,-52.3219 159.09,-40.4746 148.276,-30.6745"/>
<polygon fill="midnightblue" stroke="midnightblue" points="150.309,-27.7936 140.549,-23.6719 145.608,-32.9806 150.309,-27.7936"/>
</g>
<!-- Node5&#45;&gt;Node3 -->
<g id="edge12" class="edge"><title>Node5&#45;&gt;Node3</title>
<path fill="none" stroke="midnightblue" d="M129.953,-23.7334C131.909,-38.2091 136.759,-64.4283 147.773,-84 153.966,-95.0048 163.33,-105.36 171.915,-113.535"/>
<polygon fill="midnightblue" stroke="midnightblue" points="169.709,-116.26 179.468,-120.386 174.412,-111.075 169.709,-116.26"/>
</g>
<!-- Node7&#45;&gt;Node3 -->
<g id="edge18" class="edge"><title>Node7&#45;&gt;Node3</title>
<path fill="none" stroke="midnightblue" d="M142.678,-180.631C151.417,-172.322 163.877,-160.475 174.184,-150.675"/>
<polygon fill="midnightblue" stroke="midnightblue" points="176.714,-153.099 181.549,-143.672 171.89,-148.026 176.714,-153.099"/>
</g>
<!-- Node8&#45;&gt;Node3 -->
<g id="edge24" class="edge"><title>Node8&#45;&gt;Node3</title>
<path fill="none" stroke="midnightblue" d="M181.838,-240.528C183.816,-221.071 188.092,-179.023 190.672,-153.656"/>
<polygon fill="midnightblue" stroke="midnightblue" points="194.163,-153.921 191.693,-143.618 187.199,-153.212 194.163,-153.921"/>
</g>
<!-- Node8&#45;&gt;Node7 -->
<g id="edge26" class="edge"><title>Node8&#45;&gt;Node7</title>
<path fill="none" stroke="midnightblue" d="M172.012,-240.631C165.199,-232.566 155.57,-221.168 147.44,-211.544"/>
<polygon fill="midnightblue" stroke="midnightblue" points="149.916,-209.052 140.789,-203.672 144.569,-213.569 149.916,-209.052"/>
</g>
</g>
</svg>
