<?xml version="1.0" encoding="UTF-8" standalone="no"?>
<!DOCTYPE svg PUBLIC "-//W3C//DTD SVG 1.1//EN"
 "http://www.w3.org/Graphics/SVG/1.1/DTD/svg11.dtd">
<!-- Generated by graphviz version 2.28.0 (20121015.0031)
 -->
<!-- Title: include/fa/buffer.h Pages: 1 -->
<svg width="603pt" height="332pt"
 viewBox="0.00 0.00 602.78 332.00" xmlns="http://www.w3.org/2000/svg" xmlns:xlink="http://www.w3.org/1999/xlink">
<g id="graph1" class="graph" transform="scale(1 1) rotate(0) translate(4 328)">
<title>include/fa/buffer.h</title>
<!-- Node1 -->
<g id="node1" class="node"><title>Node1</title>
<polygon fill="#bfbfbf" stroke="black" points="295.007,-300.695 295.007,-323.305 406.554,-323.305 406.554,-300.695 295.007,-300.695"/>
<text text-anchor="middle" x="350.78" y="-308.305" font-family="Futura" font-size="11.00">include/fa/buffer.h</text>
</g>
<!-- Node2 -->
<g id="node3" class="node"><title>Node2</title>
<a xlink:href="message_8h.html" target="_top" xlink:title="include/fa/midi/message.h">
<polygon fill="none" stroke="black" points="274.914,-240.695 274.914,-263.305 426.647,-263.305 426.647,-240.695 274.914,-240.695"/>
<text text-anchor="middle" x="350.78" y="-248.305" font-family="Futura" font-size="11.00">include/fa/midi/message.h</text>
</a>
</g>
<!-- Node1&#45;&gt;Node2 -->
<g id="edge2" class="edge"><title>Node1&#45;&gt;Node2</title>
<path fill="none" stroke="midnightblue" d="M350.78,-290.459C350.78,-281.411 350.78,-271.16 350.78,-263.672"/>
<polygon fill="midnightblue" stroke="midnightblue" points="347.28,-290.631 350.78,-300.631 354.28,-290.631 347.28,-290.631"/>
</g>
<!-- Node10 -->
<g id="node28" class="node"><title>Node10</title>
<a xlink:href="signal_8h.html" target="_top" xlink:title="include/fa/signal.h">
<polygon fill="none" stroke="black" points="483.064,-120.695 483.064,-143.305 594.497,-143.305 594.497,-120.695 483.064,-120.695"/>
<text text-anchor="middle" x="538.78" y="-128.305" font-family="Futura" font-size="11.00">include/fa/signal.h</text>
</a>
</g>
<!-- Node1&#45;&gt;Node10 -->
<g id="edge44" class="edge"><title>Node1&#45;&gt;Node10</title>
<path fill="none" stroke="midnightblue" d="M383.969,-296.208C400.245,-288.048 419.566,-276.945 434.78,-264 479.014,-226.366 517.609,-167.579 532.378,-143.661"/>
<polygon fill="midnightblue" stroke="midnightblue" points="382.26,-293.147 374.793,-300.663 385.317,-299.444 382.26,-293.147"/>
</g>
<!-- Node3 -->
<g id="node5" class="node"><title>Node3</title>
<a xlink:href="fa_2fa_8h.html" target="_top" xlink:title="include/fa/fa.h">
<polygon fill="none" stroke="red" points="200.627,-180.695 200.627,-203.305 292.934,-203.305 292.934,-180.695 200.627,-180.695"/>
<text text-anchor="middle" x="246.78" y="-188.305" font-family="Futura" font-size="11.00">include/fa/fa.h</text>
</a>
</g>
<!-- Node2&#45;&gt;Node3 -->
<g id="edge4" class="edge"><title>Node2&#45;&gt;Node3</title>
<path fill="none" stroke="midnightblue" d="M323.207,-235.622C305.007,-225.472 281.641,-212.442 265.563,-203.475"/>
<polygon fill="midnightblue" stroke="midnightblue" points="321.749,-238.817 332.187,-240.631 325.158,-232.703 321.749,-238.817"/>
</g>
<!-- Node3&#45;&gt;Node1 -->
<g id="edge14" class="edge"><title>Node3&#45;&gt;Node1</title>
<path fill="none" stroke="midnightblue" d="M248.008,-213.554C249.863,-228.858 254.459,-249.521 265.78,-264 279.283,-281.269 300.991,-293.12 319.089,-300.601"/>
<polygon fill="midnightblue" stroke="midnightblue" points="251.487,-213.159 247.085,-203.522 244.516,-213.801 251.487,-213.159"/>
</g>
<!-- Node4 -->
<g id="node7" class="node"><title>Node4</title>
<a xlink:href="action_8h.html" target="_top" xlink:title="include/fa/action.h">
<polygon fill="none" stroke="black" points="389.526,-60.6953 389.526,-83.3047 502.034,-83.3047 502.034,-60.6953 389.526,-60.6953"/>
<text text-anchor="middle" x="445.78" y="-68.3047" font-family="Futura" font-size="11.00">include/fa/action.h</text>
</a>
</g>
<!-- Node3&#45;&gt;Node4 -->
<g id="edge6" class="edge"><title>Node3&#45;&gt;Node4</title>
<path fill="none" stroke="midnightblue" d="M303.32,-187.11C337.459,-181.873 379.716,-170.099 408.78,-144 426.723,-127.888 433.306,-98.7994 438.846,-83.329"/>
<polygon fill="midnightblue" stroke="midnightblue" points="302.436,-183.699 293.009,-188.534 303.394,-190.633 302.436,-183.699"/>
</g>
<!-- Node6 -->
<g id="node14" class="node"><title>Node6</title>
<a xlink:href="device_8h.html" target="_top" xlink:title="include/fa/device.h">
<polygon fill="none" stroke="red" points="12.5972,-60.6953 12.5972,-83.3047 126.963,-83.3047 126.963,-60.6953 12.5972,-60.6953"/>
<text text-anchor="middle" x="69.7803" y="-68.3047" font-family="Futura" font-size="11.00">include/fa/device.h</text>
</a>
</g>
<!-- Node3&#45;&gt;Node6 -->
<g id="edge16" class="edge"><title>Node3&#45;&gt;Node6</title>
<path fill="none" stroke="midnightblue" d="M190.47,-186.149C135.22,-180.083 56.5913,-167.511 37.7803,-144 22.745,-125.208 44.0889,-98.223 58.4911,-83.5236"/>
<polygon fill="midnightblue" stroke="midnightblue" points="190.183,-189.638 200.495,-187.207 190.917,-182.676 190.183,-189.638"/>
</g>
<!-- Node7 -->
<g id="node17" class="node"><title>Node7</title>
<a xlink:href="dynamic_8h.html" target="_top" xlink:title="include/fa/dynamic.h">
<polygon fill="none" stroke="black" points="284.699,-120.695 284.699,-143.305 408.862,-143.305 408.862,-120.695 284.699,-120.695"/>
<text text-anchor="middle" x="346.78" y="-128.305" font-family="Futura" font-size="11.00">include/fa/dynamic.h</text>
</a>
</g>
<!-- Node3&#45;&gt;Node7 -->
<g id="edge20" class="edge"><title>Node3&#45;&gt;Node7</title>
<path fill="none" stroke="midnightblue" d="M273.776,-175.342C291.205,-165.234 313.402,-152.359 328.72,-143.475"/>
<polygon fill="midnightblue" stroke="midnightblue" points="271.553,-172.586 264.658,-180.631 275.065,-178.641 271.553,-172.586"/>
</g>
<!-- Node8 -->
<g id="node19" class="node"><title>Node8</title>
<a xlink:href="error_8h.html" target="_top" xlink:title="include/fa/error.h">
<polygon fill="none" stroke="red" points="46.3785,-120.695 46.3785,-143.305 153.182,-143.305 153.182,-120.695 46.3785,-120.695"/>
<text text-anchor="middle" x="99.7803" y="-128.305" font-family="Futura" font-size="11.00">include/fa/error.h</text>
</a>
</g>
<!-- Node3&#45;&gt;Node8 -->
<g id="edge22" class="edge"><title>Node3&#45;&gt;Node8</title>
<path fill="none" stroke="midnightblue" d="M205.787,-177.136C178.239,-166.798 143.173,-152.894 120.994,-143.475"/>
<polygon fill="midnightblue" stroke="midnightblue" points="204.591,-180.425 215.184,-180.631 207.031,-173.864 204.591,-180.425"/>
</g>
<!-- Node9 -->
<g id="node23" class="node"><title>Node9</title>
<a xlink:href="list_8h.html" target="_top" xlink:title="include/fa/list.h">
<polygon fill="none" stroke="red" points="171.166,-120.695 171.166,-143.305 266.395,-143.305 266.395,-120.695 171.166,-120.695"/>
<text text-anchor="middle" x="218.78" y="-128.305" font-family="Futura" font-size="11.00">include/fa/list.h</text>
</a>
</g>
<!-- Node3&#45;&gt;Node9 -->
<g id="edge28" class="edge"><title>Node3&#45;&gt;Node9</title>
<path fill="none" stroke="midnightblue" d="M231.194,-171.938C225.942,-162.546 220.983,-151.572 218.562,-143.672"/>
<polygon fill="midnightblue" stroke="midnightblue" points="228.284,-173.891 236.459,-180.631 234.271,-170.264 228.284,-173.891"/>
</g>
<!-- Node3&#45;&gt;Node10 -->
<g id="edge36" class="edge"><title>Node3&#45;&gt;Node10</title>
<path fill="none" stroke="midnightblue" d="M303.048,-178.704C354.898,-168.087 431.3,-152.936 482.998,-143.036"/>
<polygon fill="midnightblue" stroke="midnightblue" points="302.112,-175.323 293.02,-180.764 303.52,-182.18 302.112,-175.323"/>
</g>
<!-- Node4&#45;&gt;Node3 -->
<g id="edge12" class="edge"><title>Node4&#45;&gt;Node3</title>
<path fill="none" stroke="midnightblue" d="M450.033,-93.754C448.301,-109.667 441.219,-131.035 426.78,-144 390.357,-176.707 333.213,-186.917 292.983,-189.958"/>
<polygon fill="midnightblue" stroke="midnightblue" points="453.546,-93.4392 450.378,-83.329 446.549,-93.2079 453.546,-93.4392"/>
</g>
<!-- Node5 -->
<g id="node9" class="node"><title>Node5</title>
<a xlink:href="audio_8h.html" target="_top" xlink:title="include/fa/audio.h">
<polygon fill="none" stroke="black" points="127.372,-0.695312 127.372,-23.3047 238.188,-23.3047 238.188,-0.695312 127.372,-0.695312"/>
<text text-anchor="middle" x="182.78" y="-8.30469" font-family="Futura" font-size="11.00">include/fa/audio.h</text>
</a>
</g>
<!-- Node4&#45;&gt;Node5 -->
<g id="edge8" class="edge"><title>Node4&#45;&gt;Node5</title>
<path fill="none" stroke="midnightblue" d="M388.928,-58.4623C341.394,-47.9794 274.401,-33.2054 229.835,-23.3771"/>
<polygon fill="midnightblue" stroke="midnightblue" points="388.242,-61.895 398.761,-60.6308 389.75,-55.0592 388.242,-61.895"/>
</g>
<!-- Node5&#45;&gt;Node3 -->
<g id="edge10" class="edge"><title>Node5&#45;&gt;Node3</title>
<path fill="none" stroke="midnightblue" d="M117.305,-21.7284C72.15,-29.2459 17.8279,-41.7878 3.78033,-60 -2.73437,-68.4461 1.68842,-73.5405 3.78033,-84 9.4459,-112.328 6.57687,-125.518 28.7803,-144 54.4458,-165.363 144.505,-179.276 200.524,-186.08"/>
<polygon fill="midnightblue" stroke="midnightblue" points="118.054,-25.1529 127.371,-20.1086 116.942,-18.2418 118.054,-25.1529"/>
</g>
<!-- Node6&#45;&gt;Node5 -->
<g id="edge18" class="edge"><title>Node6&#45;&gt;Node5</title>
<path fill="none" stroke="midnightblue" d="M98.927,-56.0398C118.815,-45.8319 144.662,-32.5651 162.372,-23.475"/>
<polygon fill="midnightblue" stroke="midnightblue" points="97.2808,-52.9506 89.9825,-60.6308 100.477,-59.1781 97.2808,-52.9506"/>
</g>
<!-- Node8&#45;&gt;Node3 -->
<g id="edge26" class="edge"><title>Node8&#45;&gt;Node3</title>
<path fill="none" stroke="midnightblue" d="M140.827,-146.884C168.471,-157.259 203.665,-171.216 225.816,-180.631"/>
<polygon fill="midnightblue" stroke="midnightblue" points="141.991,-143.583 131.398,-143.377 139.551,-150.144 141.991,-143.583"/>
</g>
<!-- Node8&#45;&gt;Node5 -->
<g id="edge24" class="edge"><title>Node8&#45;&gt;Node5</title>
<path fill="none" stroke="midnightblue" d="M114.653,-112.199C121.261,-103.69 129.051,-93.4425 135.78,-84 150.708,-63.0538 167.056,-37.7811 175.998,-23.7399"/>
<polygon fill="midnightblue" stroke="midnightblue" points="111.696,-110.299 108.288,-120.331 117.208,-114.614 111.696,-110.299"/>
</g>
<!-- Node9&#45;&gt;Node3 -->
<g id="edge34" class="edge"><title>Node9&#45;&gt;Node3</title>
<path fill="none" stroke="midnightblue" d="M234.569,-152.424C239.812,-161.856 244.736,-172.811 247.09,-180.631"/>
<polygon fill="midnightblue" stroke="midnightblue" points="237.457,-150.435 229.302,-143.672 231.46,-154.045 237.457,-150.435"/>
</g>
<!-- Node9&#45;&gt;Node4 -->
<g id="edge30" class="edge"><title>Node9&#45;&gt;Node4</title>
<path fill="none" stroke="midnightblue" d="M269.143,-118.132C310.086,-107.671 367.103,-93.1025 405.167,-83.3771"/>
<polygon fill="midnightblue" stroke="midnightblue" points="268.186,-114.764 259.363,-120.631 269.919,-121.546 268.186,-114.764"/>
</g>
<!-- Node9&#45;&gt;Node5 -->
<g id="edge32" class="edge"><title>Node9&#45;&gt;Node5</title>
<path fill="none" stroke="midnightblue" d="M212.64,-110.873C204.938,-85.6281 192.017,-43.275 186.02,-23.6179"/>
<polygon fill="midnightblue" stroke="midnightblue" points="209.32,-111.985 215.586,-120.528 216.015,-109.942 209.32,-111.985"/>
</g>
<!-- Node10&#45;&gt;Node3 -->
<g id="edge42" class="edge"><title>Node10&#45;&gt;Node3</title>
<path fill="none" stroke="midnightblue" d="M481.908,-145.42C426.826,-156.695 344.452,-173.006 293.193,-182.752"/>
<polygon fill="midnightblue" stroke="midnightblue" points="482.77,-148.816 491.861,-143.376 481.362,-141.959 482.77,-148.816"/>
</g>
<!-- Node10&#45;&gt;Node4 -->
<g id="edge38" class="edge"><title>Node10&#45;&gt;Node4</title>
<path fill="none" stroke="midnightblue" d="M513.223,-115.061C497.084,-104.996 476.69,-92.2772 462.576,-83.475"/>
<polygon fill="midnightblue" stroke="midnightblue" points="511.817,-118.309 522.154,-120.631 515.521,-112.369 511.817,-118.309"/>
</g>
<!-- Node10&#45;&gt;Node5 -->
<g id="edge40" class="edge"><title>Node10&#45;&gt;Node5</title>
<path fill="none" stroke="midnightblue" d="M536.294,-110.471C533.185,-94.1919 526.238,-72.2149 510.78,-60 469.651,-27.4993 320.845,-17.4534 238.521,-14.3626"/>
<polygon fill="midnightblue" stroke="midnightblue" points="532.881,-111.304 537.889,-120.64 539.797,-110.218 532.881,-111.304"/>
</g>
</g>
</svg>
