<?xml version="1.0" encoding="UTF-8" standalone="no"?>
<!DOCTYPE svg PUBLIC "-//W3C//DTD SVG 1.1//EN"
 "http://www.w3.org/Graphics/SVG/1.1/DTD/svg11.dtd">
<!-- Generated by graphviz version 2.28.0 (20121015.0031)
 -->
<!-- Title: include/fae/buffer.h Pages: 1 -->
<svg width="537pt" height="286pt"
 viewBox="0.00 0.00 537.37 286.00" xmlns="http://www.w3.org/2000/svg" xmlns:xlink="http://www.w3.org/1999/xlink">
<g id="graph1" class="graph" transform="scale(1 1) rotate(0) translate(4 282)">
<title>include/fae/buffer.h</title>
<!-- Node1 -->
<g id="node1" class="node"><title>Node1</title>
<polygon fill="#bfbfbf" stroke="black" points="284.184,-254.695 284.184,-277.305 401.816,-277.305 401.816,-254.695 284.184,-254.695"/>
<text text-anchor="middle" x="343" y="-262.305" font-family="Futura" font-size="11.00">include/fae/buffer.h</text>
</g>
<!-- Node2 -->
<g id="node3" class="node"><title>Node2</title>
<a xlink:href="midi__msg_8h.html" target="_top" xlink:title="include/fae/midi_msg.h">
<polygon fill="none" stroke="black" points="93.4453,-187.695 93.4453,-210.305 228.555,-210.305 228.555,-187.695 93.4453,-187.695"/>
<text text-anchor="middle" x="161" y="-195.305" font-family="Futura" font-size="11.00">include/fae/midi_msg.h</text>
</a>
</g>
<!-- Node1&#45;&gt;Node2 -->
<g id="edge2" class="edge"><title>Node1&#45;&gt;Node2</title>
<path fill="none" stroke="midnightblue" d="M304.08,-251.1C269.824,-238.866 220.725,-221.33 189.868,-210.31"/>
<polygon fill="midnightblue" stroke="midnightblue" points="303.164,-254.489 313.759,-254.557 305.518,-247.897 303.164,-254.489"/>
</g>
<!-- Node4 -->
<g id="node8" class="node"><title>Node4</title>
<a xlink:href="plot_8h.html" target="_top" xlink:title="include/fae/plot.h">
<polygon fill="none" stroke="red" points="234.308,-60.6953 234.308,-83.3047 341.692,-83.3047 341.692,-60.6953 234.308,-60.6953"/>
<text text-anchor="middle" x="288" y="-68.3047" font-family="Futura" font-size="11.00">include/fae/plot.h</text>
</a>
</g>
<!-- Node1&#45;&gt;Node4 -->
<g id="edge20" class="edge"><title>Node1&#45;&gt;Node4</title>
<path fill="none" stroke="midnightblue" d="M412.012,-255.676C456.425,-248.099 508.317,-235.739 522,-218 532.315,-204.627 531.127,-194.21 522,-180 482.468,-118.454 397.768,-91.8647 341.858,-80.6935"/>
<polygon fill="midnightblue" stroke="midnightblue" points="411.38,-252.232 402.083,-257.313 412.519,-259.139 411.38,-252.232"/>
</g>
<!-- Node9 -->
<g id="node20" class="node"><title>Node9</title>
<a xlink:href="ring__buffer_8c.html" target="_top" xlink:title="src/fae/atomic/ring\l_buffer.c">
<polygon fill="none" stroke="black" points="285.229,-180.391 285.229,-217.609 400.771,-217.609 400.771,-180.391 285.229,-180.391"/>
<text text-anchor="start" x="293.229" y="-202.609" font-family="Futura" font-size="11.00">src/fae/atomic/ring</text>
<text text-anchor="middle" x="343" y="-188" font-family="Futura" font-size="11.00">_buffer.c</text>
</a>
</g>
<!-- Node1&#45;&gt;Node9 -->
<g id="edge22" class="edge"><title>Node1&#45;&gt;Node9</title>
<path fill="none" stroke="midnightblue" d="M343,-244.301C343,-235.767 343,-225.978 343,-217.775"/>
<polygon fill="midnightblue" stroke="midnightblue" points="339.5,-244.557 343,-254.557 346.5,-244.557 339.5,-244.557"/>
</g>
<!-- Node10 -->
<g id="node22" class="node"><title>Node10</title>
<a xlink:href="buffer_8c.html" target="_top" xlink:title="src/fae/buffer.c">
<polygon fill="none" stroke="black" points="418.431,-187.695 418.431,-210.305 513.569,-210.305 513.569,-187.695 418.431,-187.695"/>
<text text-anchor="middle" x="466" y="-195.305" font-family="Futura" font-size="11.00">src/fae/buffer.c</text>
</a>
</g>
<!-- Node1&#45;&gt;Node10 -->
<g id="edge24" class="edge"><title>Node1&#45;&gt;Node10</title>
<path fill="none" stroke="midnightblue" d="M371.694,-249.836C394.615,-237.724 426.132,-221.069 446.287,-210.417"/>
<polygon fill="midnightblue" stroke="midnightblue" points="369.968,-246.79 362.762,-254.557 373.239,-252.979 369.968,-246.79"/>
</g>
<!-- Node3 -->
<g id="node5" class="node"><title>Node3</title>
<a xlink:href="fae_2fae_8h.html" target="_top" xlink:title="include/fae/fae.h">
<polygon fill="none" stroke="red" points="235.761,-120.695 235.761,-143.305 340.239,-143.305 340.239,-120.695 235.761,-120.695"/>
<text text-anchor="middle" x="288" y="-128.305" font-family="Futura" font-size="11.00">include/fae/fae.h</text>
</a>
</g>
<!-- Node2&#45;&gt;Node3 -->
<g id="edge4" class="edge"><title>Node2&#45;&gt;Node3</title>
<path fill="none" stroke="midnightblue" d="M190.313,-182.998C214.004,-170.872 246.743,-154.116 267.646,-143.417"/>
<polygon fill="midnightblue" stroke="midnightblue" points="188.712,-179.885 181.405,-187.557 191.901,-186.116 188.712,-179.885"/>
</g>
<!-- Node7 -->
<g id="node15" class="node"><title>Node7</title>
<a xlink:href="midi_8c.html" target="_top" xlink:title="src/fae/midi.c">
<polygon fill="none" stroke="black" points="-0.322998,-120.695 -0.322998,-143.305 86.323,-143.305 86.323,-120.695 -0.322998,-120.695"/>
<text text-anchor="middle" x="43" y="-128.305" font-family="Futura" font-size="11.00">src/fae/midi.c</text>
</a>
</g>
<!-- Node2&#45;&gt;Node7 -->
<g id="edge16" class="edge"><title>Node2&#45;&gt;Node7</title>
<path fill="none" stroke="midnightblue" d="M133.178,-182.675C111.214,-170.576 81.1617,-154.021 61.9117,-143.417"/>
<polygon fill="midnightblue" stroke="midnightblue" points="131.593,-185.797 142.041,-187.557 134.971,-179.666 131.593,-185.797"/>
</g>
<!-- Node8 -->
<g id="node17" class="node"><title>Node8</title>
<a xlink:href="midi__msg_8c.html" target="_top" xlink:title="src/fae/midi_msg.c">
<polygon fill="none" stroke="black" points="104.692,-120.695 104.692,-143.305 217.308,-143.305 217.308,-120.695 104.692,-120.695"/>
<text text-anchor="middle" x="161" y="-128.305" font-family="Futura" font-size="11.00">src/fae/midi_msg.c</text>
</a>
</g>
<!-- Node2&#45;&gt;Node8 -->
<g id="edge18" class="edge"><title>Node2&#45;&gt;Node8</title>
<path fill="none" stroke="midnightblue" d="M161,-177.314C161,-166.109 161,-152.737 161,-143.633"/>
<polygon fill="midnightblue" stroke="midnightblue" points="157.5,-177.557 161,-187.557 164.5,-177.557 157.5,-177.557"/>
</g>
<!-- Node3&#45;&gt;Node1 -->
<g id="edge6" class="edge"><title>Node3&#45;&gt;Node1</title>
<path fill="none" stroke="midnightblue" d="M278.847,-152.804C271.96,-170.79 265.367,-197.552 276,-218 284.784,-234.892 302.73,-246.978 317.839,-254.66"/>
<polygon fill="midnightblue" stroke="midnightblue" points="282.174,-153.919 282.808,-143.343 275.717,-151.216 282.174,-153.919"/>
</g>
<!-- Node3&#45;&gt;Node4 -->
<g id="edge8" class="edge"><title>Node3&#45;&gt;Node4</title>
<path fill="none" stroke="midnightblue" d="M281.512,-110.459C280.936,-101.411 281.309,-91.1602 282.63,-83.6719"/>
<polygon fill="midnightblue" stroke="midnightblue" points="278.062,-111.097 282.684,-120.631 285.016,-110.296 278.062,-111.097"/>
</g>
<!-- Node4&#45;&gt;Node3 -->
<g id="edge10" class="edge"><title>Node4&#45;&gt;Node3</title>
<path fill="none" stroke="midnightblue" d="M294.492,-93.6107C295.069,-102.764 294.677,-113.137 293.316,-120.631"/>
<polygon fill="midnightblue" stroke="midnightblue" points="297.97,-93.2159 293.37,-83.6719 291.014,-94.0015 297.97,-93.2159"/>
</g>
<!-- Node5 -->
<g id="node11" class="node"><title>Node5</title>
<a xlink:href="gnuplot_8c.html" target="_top" xlink:title="src/fae/plot/gnuplot.c">
<polygon fill="none" stroke="black" points="161.891,-0.695312 161.891,-23.3047 290.109,-23.3047 290.109,-0.695312 161.891,-0.695312"/>
<text text-anchor="middle" x="226" y="-8.30469" font-family="Futura" font-size="11.00">src/fae/plot/gnuplot.c</text>
</a>
</g>
<!-- Node4&#45;&gt;Node5 -->
<g id="edge12" class="edge"><title>Node4&#45;&gt;Node5</title>
<path fill="none" stroke="midnightblue" d="M269.485,-53.6797C259.063,-43.9299 246.38,-32.0654 237.408,-23.6719"/>
<polygon fill="midnightblue" stroke="midnightblue" points="267.222,-56.3551 276.916,-60.6308 272.004,-51.2432 267.222,-56.3551"/>
</g>
<!-- Node6 -->
<g id="node13" class="node"><title>Node6</title>
<a xlink:href="plot_8c.html" target="_top" xlink:title="src/fae/plot.c">
<polygon fill="none" stroke="black" points="308.555,-0.695312 308.555,-23.3047 393.445,-23.3047 393.445,-0.695312 308.555,-0.695312"/>
<text text-anchor="middle" x="351" y="-8.30469" font-family="Futura" font-size="11.00">src/fae/plot.c</text>
</a>
</g>
<!-- Node4&#45;&gt;Node6 -->
<g id="edge14" class="edge"><title>Node4&#45;&gt;Node6</title>
<path fill="none" stroke="midnightblue" d="M306.813,-53.6797C317.404,-43.9299 330.291,-32.0654 339.408,-23.6719"/>
<polygon fill="midnightblue" stroke="midnightblue" points="304.25,-51.2827 299.263,-60.6308 308.991,-56.4326 304.25,-51.2827"/>
</g>
</g>
</svg>
