<?xml version="1.0" encoding="UTF-8" standalone="no"?>
<!DOCTYPE svg PUBLIC "-//W3C//DTD SVG 1.1//EN"
 "http://www.w3.org/Graphics/SVG/1.1/DTD/svg11.dtd">
<!-- Generated by graphviz version 2.28.0 (20121015.0031)
 -->
<!-- Title: include/fae/buffer.h Pages: 1 -->
<svg width="548pt" height="286pt"
 viewBox="0.00 0.00 548.40 286.00" xmlns="http://www.w3.org/2000/svg" xmlns:xlink="http://www.w3.org/1999/xlink">
<g id="graph1" class="graph" transform="scale(1 1) rotate(0) translate(4 282)">
<title>include/fae/buffer.h</title>
<!-- Node1 -->
<g id="node1" class="node"><title>Node1</title>
<polygon fill="#bfbfbf" stroke="black" points="295.184,-254.695 295.184,-277.305 412.816,-277.305 412.816,-254.695 295.184,-254.695"/>
<text text-anchor="middle" x="354" y="-262.305" font-family="Futura" font-size="11.00">include/fae/buffer.h</text>
</g>
<!-- Node2 -->
<g id="node3" class="node"><title>Node2</title>
<a xlink:href="message_8h.html" target="_top" xlink:title="include/fae/midi/message.h">
<polygon fill="none" stroke="black" points="82.0908,-187.695 82.0908,-210.305 239.909,-210.305 239.909,-187.695 82.0908,-187.695"/>
<text text-anchor="middle" x="161" y="-195.305" font-family="Futura" font-size="11.00">include/fae/midi/message.h</text>
</a>
</g>
<!-- Node1&#45;&gt;Node2 -->
<g id="edge2" class="edge"><title>Node1&#45;&gt;Node2</title>
<path fill="none" stroke="midnightblue" d="M313.194,-251.257C276.848,-239.016 224.476,-221.378 191.613,-210.31"/>
<polygon fill="midnightblue" stroke="midnightblue" points="312.397,-254.682 322.991,-254.557 314.631,-248.048 312.397,-254.682"/>
</g>
<!-- Node4 -->
<g id="node8" class="node"><title>Node4</title>
<a xlink:href="plot_8h.html" target="_top" xlink:title="include/fae/plot.h">
<polygon fill="none" stroke="red" points="234.308,-60.6953 234.308,-83.3047 341.692,-83.3047 341.692,-60.6953 234.308,-60.6953"/>
<text text-anchor="middle" x="288" y="-68.3047" font-family="Futura" font-size="11.00">include/fae/plot.h</text>
</a>
</g>
<!-- Node1&#45;&gt;Node4 -->
<g id="edge20" class="edge"><title>Node1&#45;&gt;Node4</title>
<path fill="none" stroke="midnightblue" d="M423.012,-255.676C467.425,-248.099 519.317,-235.739 533,-218 543.315,-204.627 542.249,-194.131 533,-180 490.807,-115.532 400.318,-89.6805 341.907,-79.4717"/>
<polygon fill="midnightblue" stroke="midnightblue" points="422.38,-252.232 413.083,-257.313 423.519,-259.139 422.38,-252.232"/>
</g>
<!-- Node9 -->
<g id="node20" class="node"><title>Node9</title>
<a xlink:href="ring__buffer_8c.html" target="_top" xlink:title="src/fae/atomic/ring\l_buffer.c">
<polygon fill="none" stroke="black" points="296.229,-180.391 296.229,-217.609 411.771,-217.609 411.771,-180.391 296.229,-180.391"/>
<text text-anchor="start" x="304.229" y="-202.609" font-family="Futura" font-size="11.00">src/fae/atomic/ring</text>
<text text-anchor="middle" x="354" y="-188" font-family="Futura" font-size="11.00">_buffer.c</text>
</a>
</g>
<!-- Node1&#45;&gt;Node9 -->
<g id="edge22" class="edge"><title>Node1&#45;&gt;Node9</title>
<path fill="none" stroke="midnightblue" d="M354,-244.301C354,-235.767 354,-225.978 354,-217.775"/>
<polygon fill="midnightblue" stroke="midnightblue" points="350.5,-244.557 354,-254.557 357.5,-244.557 350.5,-244.557"/>
</g>
<!-- Node10 -->
<g id="node22" class="node"><title>Node10</title>
<a xlink:href="buffer_8c.html" target="_top" xlink:title="src/fae/buffer.c">
<polygon fill="none" stroke="black" points="429.431,-187.695 429.431,-210.305 524.569,-210.305 524.569,-187.695 429.431,-187.695"/>
<text text-anchor="middle" x="477" y="-195.305" font-family="Futura" font-size="11.00">src/fae/buffer.c</text>
</a>
</g>
<!-- Node1&#45;&gt;Node10 -->
<g id="edge24" class="edge"><title>Node1&#45;&gt;Node10</title>
<path fill="none" stroke="midnightblue" d="M382.694,-249.836C405.615,-237.724 437.132,-221.069 457.287,-210.417"/>
<polygon fill="midnightblue" stroke="midnightblue" points="380.968,-246.79 373.762,-254.557 384.239,-252.979 380.968,-246.79"/>
</g>
<!-- Node3 -->
<g id="node5" class="node"><title>Node3</title>
<a xlink:href="fae_2fae_8h.html" target="_top" xlink:title="include/fae/fae.h">
<polygon fill="none" stroke="red" points="235.761,-120.695 235.761,-143.305 340.239,-143.305 340.239,-120.695 235.761,-120.695"/>
<text text-anchor="middle" x="288" y="-128.305" font-family="Futura" font-size="11.00">include/fae/fae.h</text>
</a>
</g>
<!-- Node2&#45;&gt;Node3 -->
<g id="edge4" class="edge"><title>Node2&#45;&gt;Node3</title>
<path fill="none" stroke="midnightblue" d="M190.313,-182.998C214.004,-170.872 246.743,-154.116 267.646,-143.417"/>
<polygon fill="midnightblue" stroke="midnightblue" points="188.712,-179.885 181.405,-187.557 191.901,-186.116 188.712,-179.885"/>
</g>
<!-- Node7 -->
<g id="node15" class="node"><title>Node7</title>
<a xlink:href="midi_8c.html" target="_top" xlink:title="src/fae/midi.c">
<polygon fill="none" stroke="black" points="-0.322998,-120.695 -0.322998,-143.305 86.323,-143.305 86.323,-120.695 -0.322998,-120.695"/>
<text text-anchor="middle" x="43" y="-128.305" font-family="Futura" font-size="11.00">src/fae/midi.c</text>
</a>
</g>
<!-- Node2&#45;&gt;Node7 -->
<g id="edge16" class="edge"><title>Node2&#45;&gt;Node7</title>
<path fill="none" stroke="midnightblue" d="M133.178,-182.675C111.214,-170.576 81.1617,-154.021 61.9117,-143.417"/>
<polygon fill="midnightblue" stroke="midnightblue" points="131.593,-185.797 142.041,-187.557 134.971,-179.666 131.593,-185.797"/>
</g>
<!-- Node8 -->
<g id="node17" class="node"><title>Node8</title>
<a xlink:href="midi__msg_8c.html" target="_top" xlink:title="src/fae/midi_msg.c">
<polygon fill="none" stroke="black" points="104.692,-120.695 104.692,-143.305 217.308,-143.305 217.308,-120.695 104.692,-120.695"/>
<text text-anchor="middle" x="161" y="-128.305" font-family="Futura" font-size="11.00">src/fae/midi_msg.c</text>
</a>
</g>
<!-- Node2&#45;&gt;Node8 -->
<g id="edge18" class="edge"><title>Node2&#45;&gt;Node8</title>
<path fill="none" stroke="midnightblue" d="M161,-177.314C161,-166.109 161,-152.737 161,-143.633"/>
<polygon fill="midnightblue" stroke="midnightblue" points="157.5,-177.557 161,-187.557 164.5,-177.557 157.5,-177.557"/>
</g>
<!-- Node3&#45;&gt;Node1 -->
<g id="edge6" class="edge"><title>Node3&#45;&gt;Node1</title>
<path fill="none" stroke="midnightblue" d="M282.651,-153.152C279.004,-171.198 276.519,-197.846 287,-218 295.784,-234.892 313.73,-246.978 328.839,-254.66"/>
<polygon fill="midnightblue" stroke="midnightblue" points="286.064,-153.93 284.905,-143.398 279.243,-152.353 286.064,-153.93"/>
</g>
<!-- Node3&#45;&gt;Node4 -->
<g id="edge8" class="edge"><title>Node3&#45;&gt;Node4</title>
<path fill="none" stroke="midnightblue" d="M281.512,-110.459C280.936,-101.411 281.309,-91.1602 282.63,-83.6719"/>
<polygon fill="midnightblue" stroke="midnightblue" points="278.062,-111.097 282.684,-120.631 285.016,-110.296 278.062,-111.097"/>
</g>
<!-- Node4&#45;&gt;Node3 -->
<g id="edge10" class="edge"><title>Node4&#45;&gt;Node3</title>
<path fill="none" stroke="midnightblue" d="M294.492,-93.6107C295.069,-102.764 294.677,-113.137 293.316,-120.631"/>
<polygon fill="midnightblue" stroke="midnightblue" points="297.97,-93.2159 293.37,-83.6719 291.014,-94.0015 297.97,-93.2159"/>
</g>
<!-- Node5 -->
<g id="node11" class="node"><title>Node5</title>
<a xlink:href="gnuplot_8c.html" target="_top" xlink:title="src/fae/plot/gnuplot.c">
<polygon fill="none" stroke="black" points="161.891,-0.695312 161.891,-23.3047 290.109,-23.3047 290.109,-0.695312 161.891,-0.695312"/>
<text text-anchor="middle" x="226" y="-8.30469" font-family="Futura" font-size="11.00">src/fae/plot/gnuplot.c</text>
</a>
</g>
<!-- Node4&#45;&gt;Node5 -->
<g id="edge12" class="edge"><title>Node4&#45;&gt;Node5</title>
<path fill="none" stroke="midnightblue" d="M269.485,-53.6797C259.063,-43.9299 246.38,-32.0654 237.408,-23.6719"/>
<polygon fill="midnightblue" stroke="midnightblue" points="267.222,-56.3551 276.916,-60.6308 272.004,-51.2432 267.222,-56.3551"/>
</g>
<!-- Node6 -->
<g id="node13" class="node"><title>Node6</title>
<a xlink:href="plot_8c.html" target="_top" xlink:title="src/fae/plot.c">
<polygon fill="none" stroke="black" points="308.555,-0.695312 308.555,-23.3047 393.445,-23.3047 393.445,-0.695312 308.555,-0.695312"/>
<text text-anchor="middle" x="351" y="-8.30469" font-family="Futura" font-size="11.00">src/fae/plot.c</text>
</a>
</g>
<!-- Node4&#45;&gt;Node6 -->
<g id="edge14" class="edge"><title>Node4&#45;&gt;Node6</title>
<path fill="none" stroke="midnightblue" d="M306.813,-53.6797C317.404,-43.9299 330.291,-32.0654 339.408,-23.6719"/>
<polygon fill="midnightblue" stroke="midnightblue" points="304.25,-51.2827 299.263,-60.6308 308.991,-56.4326 304.25,-51.2827"/>
</g>
</g>
</svg>
