<?xml version="1.0" encoding="UTF-8" standalone="no"?>
<!DOCTYPE svg PUBLIC "-//W3C//DTD SVG 1.1//EN"
 "http://www.w3.org/Graphics/SVG/1.1/DTD/svg11.dtd">
<!-- Generated by graphviz version 2.28.0 (20121015.0031)
 -->
<!-- Title: include/doremir/processor/const.h Pages: 1 -->
<svg width="290pt" height="120pt"
 viewBox="0.00 0.00 290.00 120.00" xmlns="http://www.w3.org/2000/svg" xmlns:xlink="http://www.w3.org/1999/xlink">
<g id="graph1" class="graph" transform="scale(1 1) rotate(0) translate(4 116)">
<title>include/doremir/processor/const.h</title>
<!-- Node1 -->
<g id="node1" class="node"><title>Node1</title>
<polygon fill="#bfbfbf" stroke="black" points="64.0413,-74.3906 64.0413,-111.609 213.959,-111.609 213.959,-74.3906 64.0413,-74.3906"/>
<text text-anchor="start" x="72.0413" y="-96.6094" font-family="Futura" font-size="11.00">include/doremir/processor</text>
<text text-anchor="middle" x="139" y="-82" font-family="Futura" font-size="11.00">/const.h</text>
</g>
<!-- Node2 -->
<g id="node3" class="node"><title>Node2</title>
<a xlink:href="const_8c.html" target="_top" xlink:title="src/doremir/processor\l/const.c">
<polygon fill="none" stroke="black" points="-0.106445,-0.390625 -0.106445,-37.6094 128.106,-37.6094 128.106,-0.390625 -0.106445,-0.390625"/>
<text text-anchor="start" x="7.89355" y="-22.6094" font-family="Futura" font-size="11.00">src/doremir/processor</text>
<text text-anchor="middle" x="64" y="-8" font-family="Futura" font-size="11.00">/const.c</text>
</a>
</g>
<!-- Node1&#45;&gt;Node2 -->
<g id="edge2" class="edge"><title>Node1&#45;&gt;Node2</title>
<path fill="none" stroke="midnightblue" d="M113.081,-67.1182C103.048,-57.486 91.7878,-46.6763 82.586,-37.8425"/>
<polygon fill="midnightblue" stroke="midnightblue" points="110.823,-69.8018 120.461,-74.2022 115.671,-64.752 110.823,-69.8018"/>
</g>
<!-- Node3 -->
<g id="node5" class="node"><title>Node3</title>
<a xlink:href="processor_8c.html" target="_top" xlink:title="src/doremir/processor.c">
<polygon fill="none" stroke="black" points="145.868,-7.69531 145.868,-30.3047 282.132,-30.3047 282.132,-7.69531 145.868,-7.69531"/>
<text text-anchor="middle" x="214" y="-15.3047" font-family="Futura" font-size="11.00">src/doremir/processor.c</text>
</a>
</g>
<!-- Node1&#45;&gt;Node3 -->
<g id="edge4" class="edge"><title>Node1&#45;&gt;Node3</title>
<path fill="none" stroke="midnightblue" d="M164.888,-67.148C177.863,-54.6916 192.896,-40.2596 202.878,-30.6771"/>
<polygon fill="midnightblue" stroke="midnightblue" points="162.329,-64.752 157.539,-74.2022 167.177,-69.8018 162.329,-64.752"/>
</g>
</g>
</svg>
