<?xml version="1.0" encoding="UTF-8" standalone="no"?>
<!DOCTYPE svg PUBLIC "-//W3C//DTD SVG 1.1//EN"
 "http://www.w3.org/Graphics/SVG/1.1/DTD/svg11.dtd">
<!-- Generated by graphviz version 2.28.0 (20121015.0031)
 -->
<!-- Title: include/doremir/processor/const.h Pages: 1 -->
<svg width="419pt" height="406pt"
 viewBox="0.00 0.00 419.00 406.00" xmlns="http://www.w3.org/2000/svg" xmlns:xlink="http://www.w3.org/1999/xlink">
<g id="graph1" class="graph" transform="scale(1 1) rotate(0) translate(4 402)">
<title>include/doremir/processor/const.h</title>
<!-- Node1 -->
<g id="node1" class="node"><title>Node1</title>
<polygon fill="#bfbfbf" stroke="black" points="18.0413,-360.391 18.0413,-397.609 167.959,-397.609 167.959,-360.391 18.0413,-360.391"/>
<text text-anchor="start" x="26.0413" y="-382.609" font-family="Futura" font-size="11.00">include/doremir/processor</text>
<text text-anchor="middle" x="93" y="-368" font-family="Futura" font-size="11.00">/const.h</text>
</g>
<!-- Node2 -->
<g id="node3" class="node"><title>Node2</title>
<a xlink:href="doremir_8h.html" target="_top" xlink:title="doremir.h">
<polygon fill="none" stroke="black" points="99.1362,-120.695 99.1362,-143.305 162.864,-143.305 162.864,-120.695 99.1362,-120.695"/>
<text text-anchor="middle" x="131" y="-128.305" font-family="Futura" font-size="11.00">doremir.h</text>
</a>
</g>
<!-- Node1&#45;&gt;Node2 -->
<g id="edge2" class="edge"><title>Node1&#45;&gt;Node2</title>
<path fill="none" stroke="midnightblue" d="M84.5659,-360.209C68.761,-324.128 38.8816,-240.626 69,-180 75.5128,-166.89 87.6228,-156.457 99.4237,-148.784"/>
<polygon fill="midnightblue" stroke="midnightblue" points="101.522,-151.606 108.29,-143.455 97.9157,-145.607 101.522,-151.606"/>
</g>
<!-- Node7 -->
<g id="node14" class="node"><title>Node7</title>
<a xlink:href="processor_8h.html" target="_top" xlink:title="doremir/processor.h">
<polygon fill="none" stroke="black" points="109.184,-300.695 109.184,-323.305 226.816,-323.305 226.816,-300.695 109.184,-300.695"/>
<text text-anchor="middle" x="168" y="-308.305" font-family="Futura" font-size="11.00">doremir/processor.h</text>
</a>
</g>
<!-- Node1&#45;&gt;Node7 -->
<g id="edge14" class="edge"><title>Node1&#45;&gt;Node7</title>
<path fill="none" stroke="midnightblue" d="M113.494,-360.238C124.277,-350.893 137.441,-339.485 148.13,-330.221"/>
<polygon fill="midnightblue" stroke="midnightblue" points="150.477,-332.819 155.741,-323.624 145.892,-327.529 150.477,-332.819"/>
</g>
<!-- Node3 -->
<g id="node5" class="node"><title>Node3</title>
<a xlink:href="std_8h.html" target="_top" xlink:title="doremir/std.h">
<polygon fill="none" stroke="red" points="284.961,-60.6953 284.961,-83.3047 369.039,-83.3047 369.039,-60.6953 284.961,-60.6953"/>
<text text-anchor="middle" x="327" y="-68.3047" font-family="Futura" font-size="11.00">doremir/std.h</text>
</a>
</g>
<!-- Node2&#45;&gt;Node3 -->
<g id="edge4" class="edge"><title>Node2&#45;&gt;Node3</title>
<path fill="none" stroke="midnightblue" d="M162.927,-121.552C195.35,-111.958 245.834,-97.0186 282.241,-86.2449"/>
<polygon fill="midnightblue" stroke="midnightblue" points="283.514,-89.5183 292.11,-83.3246 281.528,-82.8061 283.514,-89.5183"/>
</g>
<!-- Node5 -->
<g id="node10" class="node"><title>Node5</title>
<a xlink:href="alloc_8h.html" target="_top" xlink:title="doremir/alloc.h">
<polygon fill="none" stroke="black" points="-0.969971,-60.6953 -0.969971,-83.3047 92.97,-83.3047 92.97,-60.6953 -0.969971,-60.6953"/>
<text text-anchor="middle" x="46" y="-68.3047" font-family="Futura" font-size="11.00">doremir/alloc.h</text>
</a>
</g>
<!-- Node2&#45;&gt;Node5 -->
<g id="edge10" class="edge"><title>Node2&#45;&gt;Node5</title>
<path fill="none" stroke="midnightblue" d="M115.804,-120.631C103.07,-111.942 84.6664,-99.3841 69.9524,-89.344"/>
<polygon fill="midnightblue" stroke="midnightblue" points="71.5843,-86.2204 61.3513,-83.475 67.6388,-92.0025 71.5843,-86.2204"/>
</g>
<!-- Node6 -->
<g id="node12" class="node"><title>Node6</title>
<a xlink:href="interfaces_8h.html" target="_top" xlink:title="doremir/interfaces.h">
<polygon fill="none" stroke="black" points="148.865,-60.6953 148.865,-83.3047 267.135,-83.3047 267.135,-60.6953 148.865,-60.6953"/>
<text text-anchor="middle" x="208" y="-68.3047" font-family="Futura" font-size="11.00">doremir/interfaces.h</text>
</a>
</g>
<!-- Node2&#45;&gt;Node6 -->
<g id="edge12" class="edge"><title>Node2&#45;&gt;Node6</title>
<path fill="none" stroke="midnightblue" d="M144.766,-120.631C156.192,-112.024 172.659,-99.6207 185.924,-89.6288"/>
<polygon fill="midnightblue" stroke="midnightblue" points="188.212,-92.2873 194.094,-83.475 184,-86.696 188.212,-92.2873"/>
</g>
<!-- Node4 -->
<g id="node7" class="node"><title>Node4</title>
<a xlink:href="time_8h.html" target="_top" xlink:title="doremir/time.h">
<polygon fill="none" stroke="red" points="281.727,-0.695312 281.727,-23.3047 372.273,-23.3047 372.273,-0.695312 281.727,-0.695312"/>
<text text-anchor="middle" x="327" y="-8.30469" font-family="Futura" font-size="11.00">doremir/time.h</text>
</a>
</g>
<!-- Node3&#45;&gt;Node4 -->
<g id="edge6" class="edge"><title>Node3&#45;&gt;Node4</title>
<path fill="none" stroke="midnightblue" d="M327,-60.6308C327,-53.218 327,-42.9888 327,-33.9096"/>
<polygon fill="midnightblue" stroke="midnightblue" points="330.5,-33.6718 327,-23.6719 323.5,-33.6719 330.5,-33.6718"/>
</g>
<!-- Node4&#45;&gt;Node2 -->
<g id="edge8" class="edge"><title>Node4&#45;&gt;Node2</title>
<path fill="none" stroke="midnightblue" d="M281.633,-18.5082C232.471,-25.456 158.542,-39.0842 140,-60 127.995,-73.5416 126.737,-94.6566 127.883,-110.344"/>
<polygon fill="midnightblue" stroke="midnightblue" points="124.442,-111.069 129.023,-120.622 131.399,-110.297 124.442,-111.069"/>
</g>
<!-- Node7&#45;&gt;Node2 -->
<g id="edge16" class="edge"><title>Node7&#45;&gt;Node2</title>
<path fill="none" stroke="midnightblue" d="M154.332,-300.68C132.786,-283.451 91.7573,-246.496 76,-204 72.2916,-193.999 71.5356,-189.687 76,-180 81.8072,-167.399 92.8441,-156.921 103.516,-149.081"/>
<polygon fill="midnightblue" stroke="midnightblue" points="105.601,-151.895 111.889,-143.368 101.656,-146.113 105.601,-151.895"/>
</g>
<!-- Node7&#45;&gt;Node4 -->
<g id="edge18" class="edge"><title>Node7&#45;&gt;Node4</title>
<path fill="none" stroke="midnightblue" d="M226.824,-307.553C298.74,-299.79 411,-274.603 411,-193 411,-193 411,-193 411,-131 411,-88.5257 374.433,-50.7316 349.552,-29.9317"/>
<polygon fill="midnightblue" stroke="midnightblue" points="351.614,-27.0982 341.632,-23.5472 347.221,-32.548 351.614,-27.0982"/>
</g>
<!-- Node8 -->
<g id="node18" class="node"><title>Node8</title>
<a xlink:href="type_8h.html" target="_top" xlink:title="doremir/type.h">
<polygon fill="none" stroke="red" points="85.1606,-180.695 85.1606,-203.305 176.839,-203.305 176.839,-180.695 85.1606,-180.695"/>
<text text-anchor="middle" x="131" y="-188.305" font-family="Futura" font-size="11.00">doremir/type.h</text>
</a>
</g>
<!-- Node7&#45;&gt;Node8 -->
<g id="edge20" class="edge"><title>Node7&#45;&gt;Node8</title>
<path fill="none" stroke="midnightblue" d="M162.87,-300.37C158.482,-290.97 152.223,-276.8 148,-264 142.494,-247.31 137.965,-227.871 134.97,-213.557"/>
<polygon fill="midnightblue" stroke="midnightblue" points="138.398,-212.85 132.988,-203.741 131.537,-214.236 138.398,-212.85"/>
</g>
<!-- Node9 -->
<g id="node21" class="node"><title>Node9</title>
<a xlink:href="buffer_8h.html" target="_top" xlink:title="doremir/buffer.h">
<polygon fill="none" stroke="red" points="157.361,-240.695 157.361,-263.305 256.639,-263.305 256.639,-240.695 157.361,-240.695"/>
<text text-anchor="middle" x="207" y="-248.305" font-family="Futura" font-size="11.00">doremir/buffer.h</text>
</a>
</g>
<!-- Node7&#45;&gt;Node9 -->
<g id="edge24" class="edge"><title>Node7&#45;&gt;Node9</title>
<path fill="none" stroke="midnightblue" d="M174.972,-300.631C180.286,-292.729 187.75,-281.628 194.137,-272.13"/>
<polygon fill="midnightblue" stroke="midnightblue" points="197.149,-273.923 199.824,-263.672 191.34,-270.017 197.149,-273.923"/>
</g>
<!-- Node10 -->
<g id="node26" class="node"><title>Node10</title>
<a xlink:href="message_8h.html" target="_top" xlink:title="doremir/message.h">
<polygon fill="none" stroke="red" points="270.504,-180.695 270.504,-203.305 383.496,-203.305 383.496,-180.695 270.504,-180.695"/>
<text text-anchor="middle" x="327" y="-188.305" font-family="Futura" font-size="11.00">doremir/message.h</text>
</a>
</g>
<!-- Node7&#45;&gt;Node10 -->
<g id="edge32" class="edge"><title>Node7&#45;&gt;Node10</title>
<path fill="none" stroke="midnightblue" d="M196.873,-300.588C217.119,-292.464 244.177,-279.898 265,-264 284.571,-249.057 302.555,-227.152 314.056,-211.631"/>
<polygon fill="midnightblue" stroke="midnightblue" points="317.031,-213.489 320.042,-203.331 311.354,-209.395 317.031,-213.489"/>
</g>
<!-- Node8&#45;&gt;Node2 -->
<g id="edge22" class="edge"><title>Node8&#45;&gt;Node2</title>
<path fill="none" stroke="midnightblue" d="M131,-180.631C131,-173.218 131,-162.989 131,-153.91"/>
<polygon fill="midnightblue" stroke="midnightblue" points="134.5,-153.672 131,-143.672 127.5,-153.672 134.5,-153.672"/>
</g>
<!-- Node9&#45;&gt;Node2 -->
<g id="edge26" class="edge"><title>Node9&#45;&gt;Node2</title>
<path fill="none" stroke="midnightblue" d="M205.61,-240.602C203.278,-226.053 197.541,-199.245 185,-180 177.366,-168.286 166.013,-157.79 155.684,-149.705"/>
<polygon fill="midnightblue" stroke="midnightblue" points="157.465,-146.668 147.353,-143.507 153.287,-152.284 157.465,-146.668"/>
</g>
<!-- Node9&#45;&gt;Node3 -->
<g id="edge28" class="edge"><title>Node9&#45;&gt;Node3</title>
<path fill="none" stroke="midnightblue" d="M213.97,-240.661C233.522,-211.658 289.097,-129.222 314.298,-91.8409"/>
<polygon fill="midnightblue" stroke="midnightblue" points="317.323,-93.6162 320.01,-83.368 311.518,-89.7032 317.323,-93.6162"/>
</g>
<!-- Node9&#45;&gt;Node8 -->
<g id="edge30" class="edge"><title>Node9&#45;&gt;Node8</title>
<path fill="none" stroke="midnightblue" d="M193.413,-240.631C182.135,-232.024 165.882,-219.621 152.789,-209.629"/>
<polygon fill="midnightblue" stroke="midnightblue" points="154.799,-206.759 144.726,-203.475 150.552,-212.324 154.799,-206.759"/>
</g>
<!-- Node10&#45;&gt;Node2 -->
<g id="edge34" class="edge"><title>Node10&#45;&gt;Node2</title>
<path fill="none" stroke="midnightblue" d="M291.959,-180.631C258.687,-170.785 208.624,-155.97 173.178,-145.481"/>
<polygon fill="midnightblue" stroke="midnightblue" points="173.721,-141.992 163.139,-142.511 171.735,-148.704 173.721,-141.992"/>
</g>
<!-- Node10&#45;&gt;Node3 -->
<g id="edge36" class="edge"><title>Node10&#45;&gt;Node3</title>
<path fill="none" stroke="midnightblue" d="M327,-180.528C327,-161.071 327,-119.023 327,-93.6561"/>
<polygon fill="midnightblue" stroke="midnightblue" points="330.5,-93.6178 327,-83.6179 323.5,-93.6179 330.5,-93.6178"/>
</g>
</g>
</svg>
