<?xml version="1.0" encoding="UTF-8" standalone="no"?>
<!DOCTYPE svg PUBLIC "-//W3C//DTD SVG 1.1//EN"
 "http://www.w3.org/Graphics/SVG/1.1/DTD/svg11.dtd">
<!-- Generated by graphviz version 2.28.0 (20121015.0031)
 -->
<!-- Title: src/doremir/processor/const.c Pages: 1 -->
<svg width="891pt" height="166pt"
 viewBox="0.00 0.00 891.00 166.00" xmlns="http://www.w3.org/2000/svg" xmlns:xlink="http://www.w3.org/1999/xlink">
<g id="graph1" class="graph" transform="scale(1 1) rotate(0) translate(4 162)">
<title>src/doremir/processor/const.c</title>
<!-- Node1 -->
<g id="node1" class="node"><title>Node1</title>
<polygon fill="#bfbfbf" stroke="black" points="150.894,-120.391 150.894,-157.609 279.106,-157.609 279.106,-120.391 150.894,-120.391"/>
<text text-anchor="start" x="158.894" y="-142.609" font-family="Futura" font-size="11.00">src/doremir/processor</text>
<text text-anchor="middle" x="215" y="-128" font-family="Futura" font-size="11.00">/const.c</text>
</g>
<!-- Node2 -->
<g id="node3" class="node"><title>Node2</title>
<polygon fill="none" stroke="#bfbfbf" points="-0.636475,-60.6953 -0.636475,-83.3047 148.636,-83.3047 148.636,-60.6953 -0.636475,-60.6953"/>
<text text-anchor="middle" x="74" y="-68.3047" font-family="Futura" font-size="11.00">doremir/processor/const.h</text>
</g>
<!-- Node1&#45;&gt;Node2 -->
<g id="edge2" class="edge"><title>Node1&#45;&gt;Node2</title>
<path fill="none" stroke="midnightblue" d="M176.471,-120.238C154.269,-110.003 126.699,-97.2937 105.75,-87.6367"/>
<polygon fill="midnightblue" stroke="midnightblue" points="107.181,-84.4424 96.6345,-83.4344 104.251,-90.7994 107.181,-84.4424"/>
</g>
<!-- Node3 -->
<g id="node5" class="node"><title>Node3</title>
<a xlink:href="string_8h.html" target="_top" xlink:title="doremir/string.h">
<polygon fill="none" stroke="black" points="166.44,-60.6953 166.44,-83.3047 263.56,-83.3047 263.56,-60.6953 166.44,-60.6953"/>
<text text-anchor="middle" x="215" y="-68.3047" font-family="Futura" font-size="11.00">doremir/string.h</text>
</a>
</g>
<!-- Node1&#45;&gt;Node3 -->
<g id="edge4" class="edge"><title>Node1&#45;&gt;Node3</title>
<path fill="none" stroke="midnightblue" d="M215,-120.238C215,-112.084 215,-102.359 215,-93.8588"/>
<polygon fill="midnightblue" stroke="midnightblue" points="218.5,-93.6243 215,-83.6243 211.5,-93.6244 218.5,-93.6243"/>
</g>
<!-- Node5 -->
<g id="node9" class="node"><title>Node5</title>
<a xlink:href="util_8h.html" target="_top" xlink:title="doremir/util.h">
<polygon fill="none" stroke="black" points="427.754,-60.6953 427.754,-83.3047 512.246,-83.3047 512.246,-60.6953 427.754,-60.6953"/>
<text text-anchor="middle" x="470" y="-68.3047" font-family="Futura" font-size="11.00">doremir/util.h</text>
</a>
</g>
<!-- Node1&#45;&gt;Node5 -->
<g id="edge8" class="edge"><title>Node1&#45;&gt;Node5</title>
<path fill="none" stroke="midnightblue" d="M279.347,-121.598C322.736,-110.538 379.179,-96.1504 419.366,-85.9066"/>
<polygon fill="midnightblue" stroke="midnightblue" points="420.39,-89.2577 429.215,-83.3961 418.661,-82.4746 420.39,-89.2577"/>
</g>
<!-- Node4 -->
<g id="node7" class="node"><title>Node4</title>
<a xlink:href="doremir_8h.html" target="_top" xlink:title="doremir.h">
<polygon fill="none" stroke="red" points="109.136,-0.695312 109.136,-23.3047 172.864,-23.3047 172.864,-0.695312 109.136,-0.695312"/>
<text text-anchor="middle" x="141" y="-8.30469" font-family="Futura" font-size="11.00">doremir.h</text>
</a>
</g>
<!-- Node3&#45;&gt;Node4 -->
<g id="edge6" class="edge"><title>Node3&#45;&gt;Node4</title>
<path fill="none" stroke="midnightblue" d="M201.77,-60.6308C190.961,-52.159 175.459,-40.0087 162.818,-30.1004"/>
<polygon fill="midnightblue" stroke="midnightblue" points="164.646,-27.086 154.616,-23.6719 160.327,-32.5954 164.646,-27.086"/>
</g>
<!-- Node6 -->
<g id="node11" class="node"><title>Node6</title>
<a xlink:href="alignof_8h.html" target="_top" xlink:title="doremir/util/alignof.h">
<polygon fill="none" stroke="black" points="190.62,-0.695312 190.62,-23.3047 315.38,-23.3047 315.38,-0.695312 190.62,-0.695312"/>
<text text-anchor="middle" x="253" y="-8.30469" font-family="Futura" font-size="11.00">doremir/util/alignof.h</text>
</a>
</g>
<!-- Node5&#45;&gt;Node6 -->
<g id="edge10" class="edge"><title>Node5&#45;&gt;Node6</title>
<path fill="none" stroke="midnightblue" d="M431.205,-60.6308C395.059,-50.9696 341.013,-36.5243 301.923,-26.0761"/>
<polygon fill="midnightblue" stroke="midnightblue" points="302.389,-22.578 291.825,-23.3771 300.582,-29.3406 302.389,-22.578"/>
</g>
<!-- Node7 -->
<g id="node13" class="node"><title>Node7</title>
<a xlink:href="minmax_8h.html" target="_top" xlink:title="doremir/util/minmax.h">
<polygon fill="none" stroke="red" points="333.45,-0.695312 333.45,-23.3047 462.55,-23.3047 462.55,-0.695312 333.45,-0.695312"/>
<text text-anchor="middle" x="398" y="-8.30469" font-family="Futura" font-size="11.00">doremir/util/minmax.h</text>
</a>
</g>
<!-- Node5&#45;&gt;Node7 -->
<g id="edge12" class="edge"><title>Node5&#45;&gt;Node7</title>
<path fill="none" stroke="midnightblue" d="M457.128,-60.6308C446.611,-52.159 431.528,-40.0087 419.228,-30.1004"/>
<polygon fill="midnightblue" stroke="midnightblue" points="421.231,-27.2196 411.248,-23.6719 416.84,-32.6708 421.231,-27.2196"/>
</g>
<!-- Node8 -->
<g id="node15" class="node"><title>Node8</title>
<a xlink:href="literals_8h.html" target="_top" xlink:title="doremir/util/literals.h">
<polygon fill="none" stroke="red" points="480.652,-0.695312 480.652,-23.3047 603.348,-23.3047 603.348,-0.695312 480.652,-0.695312"/>
<text text-anchor="middle" x="542" y="-8.30469" font-family="Futura" font-size="11.00">doremir/util/literals.h</text>
</a>
</g>
<!-- Node5&#45;&gt;Node8 -->
<g id="edge14" class="edge"><title>Node5&#45;&gt;Node8</title>
<path fill="none" stroke="midnightblue" d="M482.872,-60.6308C493.389,-52.159 508.472,-40.0087 520.772,-30.1004"/>
<polygon fill="midnightblue" stroke="midnightblue" points="523.16,-32.6708 528.752,-23.6719 518.769,-27.2196 523.16,-32.6708"/>
</g>
<!-- Node9 -->
<g id="node17" class="node"><title>Node9</title>
<a xlink:href="macros_8h.html" target="_top" xlink:title="doremir/util/macros.h">
<polygon fill="none" stroke="black" points="621.089,-0.695312 621.089,-23.3047 746.911,-23.3047 746.911,-0.695312 621.089,-0.695312"/>
<text text-anchor="middle" x="684" y="-8.30469" font-family="Futura" font-size="11.00">doremir/util/macros.h</text>
</a>
</g>
<!-- Node5&#45;&gt;Node9 -->
<g id="edge16" class="edge"><title>Node5&#45;&gt;Node9</title>
<path fill="none" stroke="midnightblue" d="M508.259,-60.6308C543.905,-50.9696 597.203,-36.5243 635.754,-26.0761"/>
<polygon fill="midnightblue" stroke="midnightblue" points="636.976,-29.3712 645.712,-23.3771 635.145,-22.6149 636.976,-29.3712"/>
</g>
<!-- Node10 -->
<g id="node19" class="node"><title>Node10</title>
<a xlink:href="apply_8h.html" target="_top" xlink:title="doremir/util/apply.h">
<polygon fill="none" stroke="black" points="764.929,-0.695312 764.929,-23.3047 883.071,-23.3047 883.071,-0.695312 764.929,-0.695312"/>
<text text-anchor="middle" x="824" y="-8.30469" font-family="Futura" font-size="11.00">doremir/util/apply.h</text>
</a>
</g>
<!-- Node5&#45;&gt;Node10 -->
<g id="edge18" class="edge"><title>Node5&#45;&gt;Node10</title>
<path fill="none" stroke="midnightblue" d="M512.349,-64.0615C572.382,-54.2256 682.917,-36.1153 754.919,-24.3184"/>
<polygon fill="midnightblue" stroke="midnightblue" points="755.511,-27.7681 764.813,-22.6972 754.379,-20.8602 755.511,-27.7681"/>
</g>
</g>
</svg>
