<?xml version="1.0" encoding="UTF-8" standalone="no"?>
<!DOCTYPE svg PUBLIC "-//W3C//DTD SVG 1.1//EN"
 "http://www.w3.org/Graphics/SVG/1.1/DTD/svg11.dtd">
<!-- Generated by graphviz version 2.28.0 (20121015.0031)
 -->
<!-- Title: src/platform/macosx/fae/plot/coreplot.m Pages: 1 -->
<svg width="540pt" height="346pt"
 viewBox="0.00 0.00 540.31 346.00" xmlns="http://www.w3.org/2000/svg" xmlns:xlink="http://www.w3.org/1999/xlink">
<g id="graph1" class="graph" transform="scale(1 1) rotate(0) translate(4 342)">
<title>src/platform/macosx/fae/plot/coreplot.m</title>
<!-- Node1 -->
<g id="node1" class="node"><title>Node1</title>
<polygon fill="#bfbfbf" stroke="black" points="250.652,-300.391 250.652,-337.609 371.974,-337.609 371.974,-300.391 250.652,-300.391"/>
<text text-anchor="start" x="258.652" y="-322.609" font-family="Futura" font-size="11.00">src/platform/macosx</text>
<text text-anchor="middle" x="311.313" y="-308" font-family="Futura" font-size="11.00">/fae/plot/coreplot.m</text>
</g>
<!-- Node2 -->
<g id="node3" class="node"><title>Node2</title>
<a xlink:href="plot_8h.html" target="_top" xlink:title="fae/plot.h">
<polygon fill="none" stroke="black" points="161.184,-240.695 161.184,-263.305 227.442,-263.305 227.442,-240.695 161.184,-240.695"/>
<text text-anchor="middle" x="194.313" y="-248.305" font-family="Futura" font-size="11.00">fae/plot.h</text>
</a>
</g>
<!-- Node1&#45;&gt;Node2 -->
<g id="edge2" class="edge"><title>Node1&#45;&gt;Node2</title>
<path fill="none" stroke="midnightblue" d="M279.342,-300.238C261.417,-290.28 239.275,-277.979 222.08,-268.426"/>
<polygon fill="midnightblue" stroke="midnightblue" points="223.536,-265.231 213.095,-263.434 220.137,-271.35 223.536,-265.231"/>
</g>
<!-- Node7 -->
<g id="node15" class="node"><title>Node7</title>
<a xlink:href="thread_8h.html" target="_top" xlink:title="fae/thread.h">
<polygon fill="none" stroke="black" points="252.406,-60.6953 252.406,-83.3047 332.22,-83.3047 332.22,-60.6953 252.406,-60.6953"/>
<text text-anchor="middle" x="292.313" y="-68.3047" font-family="Futura" font-size="11.00">fae/thread.h</text>
</a>
</g>
<!-- Node1&#45;&gt;Node7 -->
<g id="edge30" class="edge"><title>Node1&#45;&gt;Node7</title>
<path fill="none" stroke="midnightblue" d="M303.221,-299.917C299.057,-289.618 294.421,-276.344 292.313,-264 281.835,-202.652 286.721,-128.594 290.075,-93.4377"/>
<polygon fill="midnightblue" stroke="midnightblue" points="293.56,-93.7583 291.088,-83.4559 286.596,-93.0511 293.56,-93.7583"/>
</g>
<!-- Node9 -->
<g id="node25" class="node"><title>Node9</title>
<polygon fill="none" stroke="#bfbfbf" points="300.981,-240.695 300.981,-263.305 397.644,-263.305 397.644,-240.695 300.981,-240.695"/>
<text text-anchor="middle" x="349.313" y="-248.305" font-family="Futura" font-size="11.00">Cocoa/Cocoa.h</text>
</g>
<!-- Node1&#45;&gt;Node9 -->
<g id="edge32" class="edge"><title>Node1&#45;&gt;Node9</title>
<path fill="none" stroke="midnightblue" d="M321.697,-300.238C326.732,-291.626 332.791,-281.262 337.949,-272.438"/>
<polygon fill="midnightblue" stroke="midnightblue" points="341.076,-274.024 343.102,-263.624 335.033,-270.491 341.076,-274.024"/>
</g>
<!-- Node10 -->
<g id="node27" class="node"><title>Node10</title>
<polygon fill="none" stroke="#bfbfbf" points="415.943,-240.695 415.943,-263.305 532.683,-263.305 532.683,-240.695 415.943,-240.695"/>
<text text-anchor="middle" x="474.313" y="-248.305" font-family="Futura" font-size="11.00">CorePlot/CorePlot.h</text>
</g>
<!-- Node1&#45;&gt;Node10 -->
<g id="edge34" class="edge"><title>Node1&#45;&gt;Node10</title>
<path fill="none" stroke="midnightblue" d="M355.853,-300.238C381.867,-289.865 414.254,-276.95 438.586,-267.247"/>
<polygon fill="midnightblue" stroke="midnightblue" points="440.155,-270.39 448.147,-263.434 437.562,-263.887 440.155,-270.39"/>
</g>
<!-- Node3 -->
<g id="node5" class="node"><title>Node3</title>
<a xlink:href="fae_2fae_8h.html" target="_top" xlink:title="fae.h">
<polygon fill="none" stroke="red" points="173.543,-120.695 173.543,-143.305 215.083,-143.305 215.083,-120.695 173.543,-120.695"/>
<text text-anchor="middle" x="194.313" y="-128.305" font-family="Futura" font-size="11.00">fae.h</text>
</a>
</g>
<!-- Node2&#45;&gt;Node3 -->
<g id="edge4" class="edge"><title>Node2&#45;&gt;Node3</title>
<path fill="none" stroke="midnightblue" d="M190.266,-240.528C187.133,-221.071 186.724,-179.023 189.037,-153.656"/>
<polygon fill="midnightblue" stroke="midnightblue" points="192.525,-153.964 190.243,-143.618 185.575,-153.129 192.525,-153.964"/>
</g>
<!-- Node5 -->
<g id="node10" class="node"><title>Node5</title>
<polygon fill="none" stroke="#bfbfbf" points="61.6604,-0.695312 61.6604,-23.3047 122.966,-23.3047 122.966,-0.695312 61.6604,-0.695312"/>
<text text-anchor="middle" x="92.3129" y="-8.30469" font-family="Futura" font-size="11.00">fae/std.h</text>
</g>
<!-- Node2&#45;&gt;Node5 -->
<g id="edge22" class="edge"><title>Node2&#45;&gt;Node5</title>
<path fill="none" stroke="midnightblue" d="M161.088,-243.876C134.918,-237.005 98.5919,-224.56 72.3129,-204 23.8588,-166.091 16.2235,-144.152 3.31294,-84 1.07448,-73.5709 -2.19371,-69.1353 3.31294,-60 13.9415,-42.3675 33.6394,-31.0097 51.8069,-23.8859"/>
<polygon fill="midnightblue" stroke="midnightblue" points="53.164,-27.1174 61.3924,-20.4433 50.7979,-20.5294 53.164,-27.1174"/>
</g>
<!-- Node8 -->
<g id="node20" class="node"><title>Node8</title>
<a xlink:href="buffer_8h.html" target="_top" xlink:title="fae/buffer.h">
<polygon fill="none" stroke="red" points="81.0603,-180.695 81.0603,-203.305 157.566,-203.305 157.566,-180.695 81.0603,-180.695"/>
<text text-anchor="middle" x="119.313" y="-188.305" font-family="Futura" font-size="11.00">fae/buffer.h</text>
</a>
</g>
<!-- Node2&#45;&gt;Node8 -->
<g id="edge24" class="edge"><title>Node2&#45;&gt;Node8</title>
<path fill="none" stroke="midnightblue" d="M180.904,-240.631C169.775,-232.024 153.736,-219.621 140.816,-209.629"/>
<polygon fill="midnightblue" stroke="midnightblue" points="142.91,-206.824 132.858,-203.475 138.628,-212.361 142.91,-206.824"/>
</g>
<!-- Node3&#45;&gt;Node2 -->
<g id="edge14" class="edge"><title>Node3&#45;&gt;Node2</title>
<path fill="none" stroke="midnightblue" d="M198.383,-143.618C201.502,-163.187 201.899,-205.25 199.572,-230.534"/>
<polygon fill="midnightblue" stroke="midnightblue" points="196.089,-230.18 198.36,-240.528 203.038,-231.022 196.089,-230.18"/>
</g>
<!-- Node4 -->
<g id="node7" class="node"><title>Node4</title>
<a xlink:href="atomic_8h.html" target="_top" xlink:title="fae/atomic.h">
<polygon fill="none" stroke="black" points="154.207,-60.6953 154.207,-83.3047 234.419,-83.3047 234.419,-60.6953 154.207,-60.6953"/>
<text text-anchor="middle" x="194.313" y="-68.3047" font-family="Futura" font-size="11.00">fae/atomic.h</text>
</a>
</g>
<!-- Node3&#45;&gt;Node4 -->
<g id="edge6" class="edge"><title>Node3&#45;&gt;Node4</title>
<path fill="none" stroke="midnightblue" d="M188.997,-120.631C187.636,-113.137 187.244,-102.764 187.821,-93.6107"/>
<polygon fill="midnightblue" stroke="midnightblue" points="191.299,-94.0015 188.943,-83.6719 184.343,-93.2159 191.299,-94.0015"/>
</g>
<!-- Node6 -->
<g id="node12" class="node"><title>Node6</title>
<polygon fill="none" stroke="#bfbfbf" points="18.9187,-60.6953 18.9187,-83.3047 135.707,-83.3047 135.707,-60.6953 18.9187,-60.6953"/>
<text text-anchor="middle" x="77.3129" y="-68.3047" font-family="Futura" font-size="11.00">fae/atomic/queue.h</text>
</g>
<!-- Node3&#45;&gt;Node6 -->
<g id="edge12" class="edge"><title>Node3&#45;&gt;Node6</title>
<path fill="none" stroke="midnightblue" d="M173.396,-120.631C155.042,-111.532 128.129,-98.1908 107.452,-87.9407"/>
<polygon fill="midnightblue" stroke="midnightblue" points="108.958,-84.7807 98.4436,-83.475 105.849,-91.0524 108.958,-84.7807"/>
</g>
<!-- Node3&#45;&gt;Node7 -->
<g id="edge16" class="edge"><title>Node3&#45;&gt;Node7</title>
<path fill="none" stroke="midnightblue" d="M206.518,-120.631C220.053,-111.655 241.955,-98.5506 260.327,-88.3579"/>
<polygon fill="midnightblue" stroke="midnightblue" points="262.176,-91.3362 269.279,-83.475 258.824,-85.1908 262.176,-91.3362"/>
</g>
<!-- Node4&#45;&gt;Node3 -->
<g id="edge8" class="edge"><title>Node4&#45;&gt;Node3</title>
<path fill="none" stroke="midnightblue" d="M199.683,-83.6719C201.004,-91.1602 201.376,-101.411 200.801,-110.459"/>
<polygon fill="midnightblue" stroke="midnightblue" points="197.297,-110.296 199.629,-120.631 204.251,-111.097 197.297,-110.296"/>
</g>
<!-- Node4&#45;&gt;Node5 -->
<g id="edge10" class="edge"><title>Node4&#45;&gt;Node5</title>
<path fill="none" stroke="midnightblue" d="M176.077,-60.6308C160.365,-51.6962 137.457,-38.6702 119.568,-28.4977"/>
<polygon fill="midnightblue" stroke="midnightblue" points="121.158,-25.3756 110.735,-23.475 117.697,-31.4606 121.158,-25.3756"/>
</g>
<!-- Node7&#45;&gt;Node3 -->
<g id="edge18" class="edge"><title>Node7&#45;&gt;Node3</title>
<path fill="none" stroke="midnightblue" d="M279.952,-83.4729C265.889,-92.787 242.928,-106.488 224.225,-116.789"/>
<polygon fill="midnightblue" stroke="midnightblue" points="222.306,-113.847 215.173,-121.681 225.635,-120.005 222.306,-113.847"/>
</g>
<!-- Node7&#45;&gt;Node5 -->
<g id="edge20" class="edge"><title>Node7&#45;&gt;Node5</title>
<path fill="none" stroke="midnightblue" d="M256.557,-60.6308C221.844,-50.5639 169.219,-35.3029 132.94,-24.7818"/>
<polygon fill="midnightblue" stroke="midnightblue" points="133.748,-21.3721 123.169,-21.9483 131.798,-28.0951 133.748,-21.3721"/>
</g>
<!-- Node8&#45;&gt;Node3 -->
<g id="edge26" class="edge"><title>Node8&#45;&gt;Node3</title>
<path fill="none" stroke="midnightblue" d="M132.721,-180.631C143.851,-172.024 159.89,-159.621 172.81,-149.629"/>
<polygon fill="midnightblue" stroke="midnightblue" points="174.998,-152.361 180.768,-143.475 170.716,-146.824 174.998,-152.361"/>
</g>
<!-- Node8&#45;&gt;Node5 -->
<g id="edge28" class="edge"><title>Node8&#45;&gt;Node5</title>
<path fill="none" stroke="midnightblue" d="M101.937,-180.502C76.2017,-163.809 28.9883,-128.502 10.3129,-84 6.18541,-74.1643 4.96511,-69.2292 10.3129,-60 19.4593,-44.2152 36.1275,-33.2762 52.059,-25.9511"/>
<polygon fill="midnightblue" stroke="midnightblue" points="53.4447,-29.1653 61.2916,-22.0465 50.7181,-22.7181 53.4447,-29.1653"/>
</g>
</g>
</svg>
