<?xml version="1.0" encoding="UTF-8" standalone="no"?>
<!DOCTYPE svg PUBLIC "-//W3C//DTD SVG 1.1//EN"
 "http://www.w3.org/Graphics/SVG/1.1/DTD/svg11.dtd">
<!-- Generated by graphviz version 2.28.0 (20121015.0031)
 -->
<!-- Title: include/fae/device/midi.h Pages: 1 -->
<svg width="446pt" height="180pt"
 viewBox="0.00 0.00 446.00 180.00" xmlns="http://www.w3.org/2000/svg" xmlns:xlink="http://www.w3.org/1999/xlink">
<g id="graph1" class="graph" transform="scale(1 1) rotate(0) translate(4 176)">
<title>include/fae/device/midi.h</title>
<!-- Node1 -->
<g id="node1" class="node"><title>Node1</title>
<polygon fill="#bfbfbf" stroke="black" points="181.487,-134.391 181.487,-171.609 292.513,-171.609 292.513,-134.391 181.487,-134.391"/>
<text text-anchor="start" x="189.487" y="-156.609" font-family="Futura" font-size="11.00">include/fae/device</text>
<text text-anchor="middle" x="237" y="-142" font-family="Futura" font-size="11.00">/midi.h</text>
</g>
<!-- Node2 -->
<g id="node3" class="node"><title>Node2</title>
<a xlink:href="audio__engine_8h.html" target="_top" xlink:title="include/fae/audio_engine.h">
<polygon fill="none" stroke="black" points="-0.339844,-67.6953 -0.339844,-90.3047 156.34,-90.3047 156.34,-67.6953 -0.339844,-67.6953"/>
<text text-anchor="middle" x="78" y="-75.3047" font-family="Futura" font-size="11.00">include/fae/audio_engine.h</text>
</a>
</g>
<!-- Node1&#45;&gt;Node2 -->
<g id="edge2" class="edge"><title>Node1&#45;&gt;Node2</title>
<path fill="none" stroke="midnightblue" d="M188.875,-130.207C159.641,-116.969 123.665,-100.679 100.778,-90.3146"/>
<polygon fill="midnightblue" stroke="midnightblue" points="187.551,-133.45 198.104,-134.387 190.438,-127.073 187.551,-133.45"/>
</g>
<!-- Node4 -->
<g id="node7" class="node"><title>Node4</title>
<a xlink:href="device_2midi_8c.html" target="_top" xlink:title="src/fae/device/midi.c">
<polygon fill="none" stroke="black" points="174.784,-67.6953 174.784,-90.3047 299.216,-90.3047 299.216,-67.6953 174.784,-67.6953"/>
<text text-anchor="middle" x="237" y="-75.3047" font-family="Futura" font-size="11.00">src/fae/device/midi.c</text>
</a>
</g>
<!-- Node1&#45;&gt;Node4 -->
<g id="edge6" class="edge"><title>Node1&#45;&gt;Node4</title>
<path fill="none" stroke="midnightblue" d="M237,-123.967C237,-112.298 237,-99.4536 237,-90.6771"/>
<polygon fill="midnightblue" stroke="midnightblue" points="233.5,-124.202 237,-134.202 240.5,-124.202 233.5,-124.202"/>
</g>
<!-- Node5 -->
<g id="node9" class="node"><title>Node5</title>
<a xlink:href="device_8c.html" target="_top" xlink:title="src/platform/macosx\l/fae/device.c">
<polygon fill="none" stroke="black" points="317.597,-60.3906 317.597,-97.6094 438.403,-97.6094 438.403,-60.3906 317.597,-60.3906"/>
<text text-anchor="start" x="325.597" y="-82.6094" font-family="Futura" font-size="11.00">src/platform/macosx</text>
<text text-anchor="middle" x="378" y="-68" font-family="Futura" font-size="11.00">/fae/device.c</text>
</a>
</g>
<!-- Node1&#45;&gt;Node5 -->
<g id="edge8" class="edge"><title>Node1&#45;&gt;Node5</title>
<path fill="none" stroke="midnightblue" d="M280.503,-129.786C300.711,-119.467 324.405,-107.368 343.375,-97.6809"/>
<polygon fill="midnightblue" stroke="midnightblue" points="278.807,-126.722 271.492,-134.387 281.99,-132.956 278.807,-126.722"/>
</g>
<!-- Node3 -->
<g id="node5" class="node"><title>Node3</title>
<a xlink:href="audio__engine_8c.html" target="_top" xlink:title="src/fae/audio_engine.c">
<polygon fill="none" stroke="black" points="10.9072,-0.695312 10.9072,-23.3047 145.093,-23.3047 145.093,-0.695312 10.9072,-0.695312"/>
<text text-anchor="middle" x="78" y="-8.30469" font-family="Futura" font-size="11.00">src/fae/audio_engine.c</text>
</a>
</g>
<!-- Node2&#45;&gt;Node3 -->
<g id="edge4" class="edge"><title>Node2&#45;&gt;Node3</title>
<path fill="none" stroke="midnightblue" d="M78,-57.3136C78,-46.1093 78,-32.7368 78,-23.6334"/>
<polygon fill="midnightblue" stroke="midnightblue" points="74.5001,-57.5566 78,-67.5566 81.5001,-57.5567 74.5001,-57.5566"/>
</g>
</g>
</svg>
