<?xml version="1.0" encoding="UTF-8" standalone="no"?>
<!DOCTYPE svg PUBLIC "-//W3C//DTD SVG 1.1//EN"
 "http://www.w3.org/Graphics/SVG/1.1/DTD/svg11.dtd">
<!-- Generated by graphviz version 2.28.0 (20121015.0031)
 -->
<!-- Title: include/fae/device.h Pages: 1 -->
<svg width="886pt" height="152pt"
 viewBox="0.00 0.00 886.00 152.00" xmlns="http://www.w3.org/2000/svg" xmlns:xlink="http://www.w3.org/1999/xlink">
<g id="graph1" class="graph" transform="scale(1 1) rotate(0) translate(4 148)">
<title>include/fae/device.h</title>
<!-- Node1 -->
<g id="node1" class="node"><title>Node1</title>
<polygon fill="#bfbfbf" stroke="black" points="501.774,-120.695 501.774,-143.305 622.226,-143.305 622.226,-120.695 501.774,-120.695"/>
<text text-anchor="middle" x="562" y="-128.305" font-family="Futura" font-size="11.00">include/fae/device.h</text>
</g>
<!-- Node2 -->
<g id="node3" class="node"><title>Node2</title>
<a xlink:href="fae_2fae_8h.html" target="_top" xlink:title="fae.h">
<polygon fill="none" stroke="red" points="541.23,-60.6953 541.23,-83.3047 582.77,-83.3047 582.77,-60.6953 541.23,-60.6953"/>
<text text-anchor="middle" x="562" y="-68.3047" font-family="Futura" font-size="11.00">fae.h</text>
</a>
</g>
<!-- Node1&#45;&gt;Node2 -->
<g id="edge2" class="edge"><title>Node1&#45;&gt;Node2</title>
<path fill="none" stroke="midnightblue" d="M562,-120.631C562,-113.218 562,-102.989 562,-93.9096"/>
<polygon fill="midnightblue" stroke="midnightblue" points="565.5,-93.6718 562,-83.6719 558.5,-93.6719 565.5,-93.6718"/>
</g>
<!-- Node3 -->
<g id="node5" class="node"><title>Node3</title>
<a xlink:href="atomic_8h.html" target="_top" xlink:title="fae/atomic.h">
<polygon fill="none" stroke="red" points="-0.105713,-0.695312 -0.105713,-23.3047 80.1057,-23.3047 80.1057,-0.695312 -0.105713,-0.695312"/>
<text text-anchor="middle" x="40" y="-8.30469" font-family="Futura" font-size="11.00">fae/atomic.h</text>
</a>
</g>
<!-- Node2&#45;&gt;Node3 -->
<g id="edge4" class="edge"><title>Node2&#45;&gt;Node3</title>
<path fill="none" stroke="midnightblue" d="M540.775,-69.9907C474.174,-66.3355 265.028,-52.5592 87.0652,-24.9164"/>
<polygon fill="midnightblue" stroke="midnightblue" points="87.4289,-21.4307 77.0064,-23.3337 86.3408,-28.3456 87.4289,-21.4307"/>
</g>
<!-- Node4 -->
<g id="node8" class="node"><title>Node4</title>
<polygon fill="none" stroke="#bfbfbf" points="98.6057,-0.695312 98.6057,-23.3047 215.394,-23.3047 215.394,-0.695312 98.6057,-0.695312"/>
<text text-anchor="middle" x="157" y="-8.30469" font-family="Futura" font-size="11.00">fae/atomic/queue.h</text>
</g>
<!-- Node2&#45;&gt;Node4 -->
<g id="edge8" class="edge"><title>Node2&#45;&gt;Node4</title>
<path fill="none" stroke="midnightblue" d="M541.01,-68.2637C489.283,-61.4817 351.323,-43.1598 225.635,-24.223"/>
<polygon fill="midnightblue" stroke="midnightblue" points="225.863,-20.7178 215.452,-22.6834 224.816,-27.6392 225.863,-20.7178"/>
</g>
<!-- Node5 -->
<g id="node10" class="node"><title>Node5</title>
<a xlink:href="stack_8h.html" target="_top" xlink:title="fae/atomic/stack.h">
<polygon fill="none" stroke="red" points="233.377,-0.695312 233.377,-23.3047 344.623,-23.3047 344.623,-0.695312 233.377,-0.695312"/>
<text text-anchor="middle" x="289" y="-8.30469" font-family="Futura" font-size="11.00">fae/atomic/stack.h</text>
</a>
</g>
<!-- Node2&#45;&gt;Node5 -->
<g id="edge10" class="edge"><title>Node2&#45;&gt;Node5</title>
<path fill="none" stroke="midnightblue" d="M541.031,-66.5451C500.109,-57.8511 408.301,-38.3459 347.524,-25.4337"/>
<polygon fill="midnightblue" stroke="midnightblue" points="348.186,-21.9962 337.677,-23.3415 346.731,-28.8434 348.186,-21.9962"/>
</g>
<!-- Node6 -->
<g id="node12" class="node"><title>Node6</title>
<polygon fill="none" stroke="#bfbfbf" points="362.483,-0.695312 362.483,-23.3047 503.517,-23.3047 503.517,-0.695312 362.483,-0.695312"/>
<text text-anchor="middle" x="433" y="-8.30469" font-family="Futura" font-size="11.00">fae/atomic/ring_buffer.h</text>
</g>
<!-- Node2&#45;&gt;Node6 -->
<g id="edge12" class="edge"><title>Node2&#45;&gt;Node6</title>
<path fill="none" stroke="midnightblue" d="M540.987,-61.5522C520.531,-52.3549 489.152,-38.2464 465.481,-27.6038"/>
<polygon fill="midnightblue" stroke="midnightblue" points="466.741,-24.3327 456.185,-23.4242 463.87,-30.7171 466.741,-24.3327"/>
</g>
<!-- Node7 -->
<g id="node14" class="node"><title>Node7</title>
<a xlink:href="system_8h.html" target="_top" xlink:title="fae/system.h">
<polygon fill="none" stroke="red" points="521.983,-0.695312 521.983,-23.3047 602.017,-23.3047 602.017,-0.695312 521.983,-0.695312"/>
<text text-anchor="middle" x="562" y="-8.30469" font-family="Futura" font-size="11.00">fae/system.h</text>
</a>
</g>
<!-- Node2&#45;&gt;Node7 -->
<g id="edge14" class="edge"><title>Node2&#45;&gt;Node7</title>
<path fill="none" stroke="midnightblue" d="M562,-60.6308C562,-53.218 562,-42.9888 562,-33.9096"/>
<polygon fill="midnightblue" stroke="midnightblue" points="565.5,-33.6718 562,-23.6719 558.5,-33.6719 565.5,-33.6718"/>
</g>
<!-- Node8 -->
<g id="node16" class="node"><title>Node8</title>
<a xlink:href="error_8h.html" target="_top" xlink:title="fae/error.h">
<polygon fill="none" stroke="red" points="620.119,-0.695312 620.119,-23.3047 691.881,-23.3047 691.881,-0.695312 620.119,-0.695312"/>
<text text-anchor="middle" x="656" y="-8.30469" font-family="Futura" font-size="11.00">fae/error.h</text>
</a>
</g>
<!-- Node2&#45;&gt;Node8 -->
<g id="edge16" class="edge"><title>Node2&#45;&gt;Node8</title>
<path fill="none" stroke="midnightblue" d="M573.489,-60.6308C586.347,-51.6962 607.212,-38.6702 624.831,-28.4977"/>
<polygon fill="midnightblue" stroke="midnightblue" points="626.716,-31.4523 633.688,-23.475 623.263,-25.3631 626.716,-31.4523"/>
</g>
<!-- Node9 -->
<g id="node19" class="node"><title>Node9</title>
<polygon fill="none" stroke="#bfbfbf" points="710.2,-0.695312 710.2,-23.3047 783.8,-23.3047 783.8,-0.695312 710.2,-0.695312"/>
<text text-anchor="middle" x="747" y="-8.30469" font-family="Futura" font-size="11.00">fae/event.h</text>
</g>
<!-- Node2&#45;&gt;Node9 -->
<g id="edge20" class="edge"><title>Node2&#45;&gt;Node9</title>
<path fill="none" stroke="midnightblue" d="M582.862,-64.4594C612.182,-55.2673 666.244,-38.3181 704.293,-26.3892"/>
<polygon fill="midnightblue" stroke="midnightblue" points="705.586,-29.652 714.081,-23.3207 703.492,-22.9726 705.586,-29.652"/>
</g>
<!-- Node10 -->
<g id="node21" class="node"><title>Node10</title>
<a xlink:href="graph_8h.html" target="_top" xlink:title="fae/graph.h">
<polygon fill="none" stroke="red" points="801.457,-0.695312 801.457,-23.3047 878.543,-23.3047 878.543,-0.695312 801.457,-0.695312"/>
<text text-anchor="middle" x="840" y="-8.30469" font-family="Futura" font-size="11.00">fae/graph.h</text>
</a>
</g>
<!-- Node2&#45;&gt;Node10 -->
<g id="edge22" class="edge"><title>Node2&#45;&gt;Node10</title>
<path fill="none" stroke="midnightblue" d="M582.974,-65.7762C622.485,-57.309 709.512,-39.9268 783,-24 785.742,-23.4058 788.569,-22.7832 791.434,-22.1493"/>
<polygon fill="midnightblue" stroke="midnightblue" points="792.244,-25.5548 801.251,-19.975 790.73,-18.7205 792.244,-25.5548"/>
</g>
<!-- Node3&#45;&gt;Node2 -->
<g id="edge6" class="edge"><title>Node3&#45;&gt;Node2</title>
<path fill="none" stroke="midnightblue" d="M80.1898,-20.4897C86.5194,-21.792 92.9435,-23.0356 99,-24 260.615,-49.7332 455.743,-63.8367 530.754,-68.8592"/>
<polygon fill="midnightblue" stroke="midnightblue" points="530.722,-72.3647 540.931,-69.5347 531.185,-65.38 530.722,-72.3647"/>
</g>
<!-- Node8&#45;&gt;Node2 -->
<g id="edge18" class="edge"><title>Node8&#45;&gt;Node2</title>
<path fill="none" stroke="midnightblue" d="M644.357,-23.4761C631.217,-32.5953 609.84,-45.9174 592.066,-56.1379"/>
<polygon fill="midnightblue" stroke="midnightblue" points="590.152,-53.199 583.163,-61.1611 593.592,-59.2956 590.152,-53.199"/>
</g>
<!-- Node10&#45;&gt;Node2 -->
<g id="edge24" class="edge"><title>Node10&#45;&gt;Node2</title>
<path fill="none" stroke="midnightblue" d="M804.038,-23.3375C803.017,-23.5616 802.003,-23.7827 801,-24 726.725,-40.0972 638.621,-57.6812 592.765,-66.045"/>
<polygon fill="midnightblue" stroke="midnightblue" points="592.069,-62.614 582.845,-67.8266 593.306,-69.5038 592.069,-62.614"/>
</g>
</g>
</svg>
