<?xml version="1.0" encoding="UTF-8" standalone="no"?>
<!DOCTYPE svg PUBLIC "-//W3C//DTD SVG 1.1//EN"
 "http://www.w3.org/Graphics/SVG/1.1/DTD/svg11.dtd">
<!-- Generated by graphviz version 2.28.0 (20121015.0031)
 -->
<!-- Title: src/platform/macosx/fae/device.c Pages: 1 -->
<svg width="785pt" height="226pt"
 viewBox="0.00 0.00 785.00 226.00" xmlns="http://www.w3.org/2000/svg" xmlns:xlink="http://www.w3.org/1999/xlink">
<g id="graph1" class="graph" transform="scale(1 1) rotate(0) translate(4 222)">
<title>src/platform/macosx/fae/device.c</title>
<!-- Node1 -->
<g id="node1" class="node"><title>Node1</title>
<polygon fill="#bfbfbf" stroke="black" points="250.597,-180.391 250.597,-217.609 371.403,-217.609 371.403,-180.391 250.597,-180.391"/>
<text text-anchor="start" x="258.597" y="-202.609" font-family="Futura" font-size="11.00">src/platform/macosx</text>
<text text-anchor="middle" x="311" y="-188" font-family="Futura" font-size="11.00">/fae/device.c</text>
</g>
<!-- Node2 -->
<g id="node3" class="node"><title>Node2</title>
<a xlink:href="audio_8h.html" target="_top" xlink:title="fae/audio.h">
<polygon fill="none" stroke="red" points="-0.887451,-120.695 -0.887451,-143.305 74.8875,-143.305 74.8875,-120.695 -0.887451,-120.695"/>
<text text-anchor="middle" x="37" y="-128.305" font-family="Futura" font-size="11.00">fae/audio.h</text>
</a>
</g>
<!-- Node1&#45;&gt;Node2 -->
<g id="edge2" class="edge"><title>Node1&#45;&gt;Node2</title>
<path fill="none" stroke="midnightblue" d="M250.53,-183.655C200.61,-171.813 130.729,-155.235 84.6927,-144.314"/>
<polygon fill="midnightblue" stroke="midnightblue" points="85.4992,-140.908 74.9613,-142.005 83.8834,-147.719 85.4992,-140.908"/>
</g>
<!-- Node5 -->
<g id="node10" class="node"><title>Node5</title>
<a xlink:href="midi_8h.html" target="_top" xlink:title="fae/midi.h">
<polygon fill="none" stroke="red" points="92.9932,-120.695 92.9932,-143.305 161.007,-143.305 161.007,-120.695 92.9932,-120.695"/>
<text text-anchor="middle" x="127" y="-128.305" font-family="Futura" font-size="11.00">fae/midi.h</text>
</a>
</g>
<!-- Node1&#45;&gt;Node5 -->
<g id="edge10" class="edge"><title>Node1&#45;&gt;Node5</title>
<path fill="none" stroke="midnightblue" d="M260.721,-180.238C230.87,-169.693 193.583,-156.521 165.973,-146.768"/>
<polygon fill="midnightblue" stroke="midnightblue" points="166.865,-143.371 156.27,-143.34 164.533,-149.971 166.865,-143.371"/>
</g>
<!-- Node6 -->
<g id="node14" class="node"><title>Node6</title>
<a xlink:href="string_8h.html" target="_top" xlink:title="fae/string.h">
<polygon fill="none" stroke="red" points="178.827,-120.695 178.827,-143.305 253.173,-143.305 253.173,-120.695 178.827,-120.695"/>
<text text-anchor="middle" x="216" y="-128.305" font-family="Futura" font-size="11.00">fae/string.h</text>
</a>
</g>
<!-- Node1&#45;&gt;Node6 -->
<g id="edge16" class="edge"><title>Node1&#45;&gt;Node6</title>
<path fill="none" stroke="midnightblue" d="M285.041,-180.238C270.89,-170.556 253.504,-158.661 239.719,-149.229"/>
<polygon fill="midnightblue" stroke="midnightblue" points="241.48,-146.193 231.25,-143.434 237.527,-151.97 241.48,-146.193"/>
</g>
<!-- Node7 -->
<g id="node16" class="node"><title>Node7</title>
<a xlink:href="thread_8h.html" target="_top" xlink:title="fae/thread.h">
<polygon fill="none" stroke="red" points="271.093,-120.695 271.093,-143.305 350.907,-143.305 350.907,-120.695 271.093,-120.695"/>
<text text-anchor="middle" x="311" y="-128.305" font-family="Futura" font-size="11.00">fae/thread.h</text>
</a>
</g>
<!-- Node1&#45;&gt;Node7 -->
<g id="edge18" class="edge"><title>Node1&#45;&gt;Node7</title>
<path fill="none" stroke="midnightblue" d="M311,-180.238C311,-172.084 311,-162.359 311,-153.859"/>
<polygon fill="midnightblue" stroke="midnightblue" points="314.5,-153.624 311,-143.624 307.5,-153.624 314.5,-153.624"/>
</g>
<!-- Node8 -->
<g id="node18" class="node"><title>Node8</title>
<a xlink:href="util_8h.html" target="_top" xlink:title="fae/util.h">
<polygon fill="none" stroke="red" points="369.141,-120.695 369.141,-143.305 430.859,-143.305 430.859,-120.695 369.141,-120.695"/>
<text text-anchor="middle" x="400" y="-128.305" font-family="Futura" font-size="11.00">fae/util.h</text>
</a>
</g>
<!-- Node1&#45;&gt;Node8 -->
<g id="edge20" class="edge"><title>Node1&#45;&gt;Node8</title>
<path fill="none" stroke="midnightblue" d="M335.32,-180.238C348.45,-170.649 364.555,-158.887 377.409,-149.499"/>
<polygon fill="midnightblue" stroke="midnightblue" points="379.702,-152.159 385.713,-143.434 375.573,-146.506 379.702,-152.159"/>
</g>
<!-- Node9 -->
<g id="node20" class="node"><title>Node9</title>
<polygon fill="none" stroke="#bfbfbf" points="448.96,-120.695 448.96,-143.305 615.04,-143.305 615.04,-120.695 448.96,-120.695"/>
<text text-anchor="middle" x="532" y="-128.305" font-family="Futura" font-size="11.00">CoreAudio/AudioHardware.h</text>
</g>
<!-- Node1&#45;&gt;Node9 -->
<g id="edge22" class="edge"><title>Node1&#45;&gt;Node9</title>
<path fill="none" stroke="midnightblue" d="M371.097,-180.324C407.585,-169.593 453.405,-156.116 486.807,-146.292"/>
<polygon fill="midnightblue" stroke="midnightblue" points="488.144,-149.547 496.75,-143.368 486.169,-142.831 488.144,-149.547"/>
</g>
<!-- Node10 -->
<g id="node22" class="node"><title>Node10</title>
<polygon fill="none" stroke="#bfbfbf" points="632.794,-120.695 632.794,-143.305 777.206,-143.305 777.206,-120.695 632.794,-120.695"/>
<text text-anchor="middle" x="705" y="-128.305" font-family="Futura" font-size="11.00">CoreMidi/MIDIServices.h</text>
</g>
<!-- Node1&#45;&gt;Node10 -->
<g id="edge24" class="edge"><title>Node1&#45;&gt;Node10</title>
<path fill="none" stroke="midnightblue" d="M371.699,-187.986C441.794,-176.422 557.047,-157.409 631.98,-145.046"/>
<polygon fill="midnightblue" stroke="midnightblue" points="632.98,-148.429 642.277,-143.348 631.841,-141.522 632.98,-148.429"/>
</g>
<!-- Node3 -->
<g id="node5" class="node"><title>Node3</title>
<a xlink:href="list_8h.html" target="_top" xlink:title="fae/list.h">
<polygon fill="none" stroke="red" points="51.906,-0.695312 51.906,-23.3047 112.094,-23.3047 112.094,-0.695312 51.906,-0.695312"/>
<text text-anchor="middle" x="82" y="-8.30469" font-family="Futura" font-size="11.00">fae/list.h</text>
</a>
</g>
<!-- Node2&#45;&gt;Node3 -->
<g id="edge4" class="edge"><title>Node2&#45;&gt;Node3</title>
<path fill="none" stroke="midnightblue" d="M35.3023,-120.427C33.4758,-106.132 31.83,-80.1182 40,-60 44.5555,-48.7823 53.0184,-38.4819 61.1603,-30.4013"/>
<polygon fill="midnightblue" stroke="midnightblue" points="63.7809,-32.7443 68.7302,-23.3765 59.0193,-27.6133 63.7809,-32.7443"/>
</g>
<!-- Node4 -->
<g id="node7" class="node"><title>Node4</title>
<a xlink:href="pair_8h.html" target="_top" xlink:title="fae/pair.h">
<polygon fill="none" stroke="red" points="48.6511,-60.6953 48.6511,-83.3047 115.349,-83.3047 115.349,-60.6953 48.6511,-60.6953"/>
<text text-anchor="middle" x="82" y="-68.3047" font-family="Futura" font-size="11.00">fae/pair.h</text>
</a>
</g>
<!-- Node2&#45;&gt;Node4 -->
<g id="edge6" class="edge"><title>Node2&#45;&gt;Node4</title>
<path fill="none" stroke="midnightblue" d="M45.0451,-120.631C51.2388,-112.648 59.9668,-101.398 67.3854,-91.8366"/>
<polygon fill="midnightblue" stroke="midnightblue" points="70.3554,-93.7182 73.7201,-83.6719 64.8248,-89.4272 70.3554,-93.7182"/>
</g>
<!-- Node4&#45;&gt;Node3 -->
<g id="edge8" class="edge"><title>Node4&#45;&gt;Node3</title>
<path fill="none" stroke="midnightblue" d="M82,-60.6308C82,-53.218 82,-42.9888 82,-33.9096"/>
<polygon fill="midnightblue" stroke="midnightblue" points="85.5001,-33.6718 82,-23.6719 78.5001,-33.6719 85.5001,-33.6718"/>
</g>
<!-- Node5&#45;&gt;Node3 -->
<g id="edge12" class="edge"><title>Node5&#45;&gt;Node3</title>
<path fill="none" stroke="midnightblue" d="M128.698,-120.427C130.524,-106.132 132.17,-80.1182 124,-60 119.445,-48.7823 110.982,-38.4819 102.84,-30.4013"/>
<polygon fill="midnightblue" stroke="midnightblue" points="104.981,-27.6133 95.2698,-23.3765 100.219,-32.7443 104.981,-27.6133"/>
</g>
<!-- Node5&#45;&gt;Node4 -->
<g id="edge14" class="edge"><title>Node5&#45;&gt;Node4</title>
<path fill="none" stroke="midnightblue" d="M118.955,-120.631C112.761,-112.648 104.033,-101.398 96.6146,-91.8366"/>
<polygon fill="midnightblue" stroke="midnightblue" points="99.1752,-89.4272 90.2799,-83.6719 93.6446,-93.7182 99.1752,-89.4272"/>
</g>
</g>
</svg>
