<?xml version="1.0" encoding="UTF-8" standalone="no"?>
<!DOCTYPE svg PUBLIC "-//W3C//DTD SVG 1.1//EN"
 "http://www.w3.org/Graphics/SVG/1.1/DTD/svg11.dtd">
<!-- Generated by graphviz version 2.28.0 (20121015.0031)
 -->
<!-- Title: include/fae/device.h Pages: 1 -->
<svg width="690pt" height="180pt"
 viewBox="0.00 0.00 690.00 180.00" xmlns="http://www.w3.org/2000/svg" xmlns:xlink="http://www.w3.org/1999/xlink">
<g id="graph1" class="graph" transform="scale(1 1) rotate(0) translate(4 176)">
<title>include/fae/device.h</title>
<!-- Node1 -->
<g id="node1" class="node"><title>Node1</title>
<polygon fill="#bfbfbf" stroke="black" points="309.774,-148.695 309.774,-171.305 430.226,-171.305 430.226,-148.695 309.774,-148.695"/>
<text text-anchor="middle" x="370" y="-156.305" font-family="Futura" font-size="11.00">include/fae/device.h</text>
</g>
<!-- Node2 -->
<g id="node3" class="node"><title>Node2</title>
<a xlink:href="audio_8h.html" target="_top" xlink:title="include/fae/device\l/audio.h">
<polygon fill="none" stroke="black" points="442.487,-74.3906 442.487,-111.609 553.513,-111.609 553.513,-74.3906 442.487,-74.3906"/>
<text text-anchor="start" x="450.487" y="-96.6094" font-family="Futura" font-size="11.00">include/fae/device</text>
<text text-anchor="middle" x="498" y="-82" font-family="Futura" font-size="11.00">/audio.h</text>
</a>
</g>
<!-- Node1&#45;&gt;Node2 -->
<g id="edge2" class="edge"><title>Node1&#45;&gt;Node2</title>
<path fill="none" stroke="midnightblue" d="M399.646,-143.946C418.629,-134.306 443.344,-121.755 463.249,-111.647"/>
<polygon fill="midnightblue" stroke="midnightblue" points="397.897,-140.908 390.565,-148.557 401.066,-147.149 397.897,-140.908"/>
</g>
<!-- Node6 -->
<g id="node12" class="node"><title>Node6</title>
<a xlink:href="device_2buffer_8h.html" target="_top" xlink:title="include/fae/device\l/buffer.h">
<polygon fill="none" stroke="black" points="571.487,-74.3906 571.487,-111.609 682.513,-111.609 682.513,-74.3906 571.487,-74.3906"/>
<text text-anchor="start" x="579.487" y="-96.6094" font-family="Futura" font-size="11.00">include/fae/device</text>
<text text-anchor="middle" x="627" y="-82" font-family="Futura" font-size="11.00">/buffer.h</text>
</a>
</g>
<!-- Node1&#45;&gt;Node6 -->
<g id="edge12" class="edge"><title>Node1&#45;&gt;Node6</title>
<path fill="none" stroke="midnightblue" d="M423.912,-146.261C462.454,-137.042 515.514,-124.123 562,-112 565.059,-111.202 568.196,-110.372 571.36,-109.526"/>
<polygon fill="midnightblue" stroke="midnightblue" points="422.856,-142.915 413.942,-148.641 424.481,-149.724 422.856,-142.915"/>
</g>
<!-- Node7 -->
<g id="node14" class="node"><title>Node7</title>
<a xlink:href="file_8h.html" target="_top" xlink:title="include/fae/device\l/file.h">
<polygon fill="none" stroke="black" points="147.487,-74.3906 147.487,-111.609 258.513,-111.609 258.513,-74.3906 147.487,-74.3906"/>
<text text-anchor="start" x="155.487" y="-96.6094" font-family="Futura" font-size="11.00">include/fae/device</text>
<text text-anchor="middle" x="203" y="-82" font-family="Futura" font-size="11.00">/file.h</text>
</a>
</g>
<!-- Node1&#45;&gt;Node7 -->
<g id="edge14" class="edge"><title>Node1&#45;&gt;Node7</title>
<path fill="none" stroke="midnightblue" d="M333.673,-144.861C308.622,-135.11 275.139,-122.078 248.339,-111.647"/>
<polygon fill="midnightblue" stroke="midnightblue" points="332.58,-148.191 343.169,-148.557 335.119,-141.668 332.58,-148.191"/>
</g>
<!-- Node10 -->
<g id="node21" class="node"><title>Node10</title>
<a xlink:href="midi_8h.html" target="_top" xlink:title="include/fae/midi.h">
<polygon fill="none" stroke="red" points="315.43,-81.6953 315.43,-104.305 424.57,-104.305 424.57,-81.6953 315.43,-81.6953"/>
<text text-anchor="middle" x="370" y="-89.3047" font-family="Futura" font-size="11.00">include/fae/midi.h</text>
</a>
</g>
<!-- Node1&#45;&gt;Node10 -->
<g id="edge22" class="edge"><title>Node1&#45;&gt;Node10</title>
<path fill="none" stroke="midnightblue" d="M370,-138.314C370,-127.109 370,-113.737 370,-104.633"/>
<polygon fill="midnightblue" stroke="midnightblue" points="366.5,-138.557 370,-148.557 373.5,-138.557 366.5,-138.557"/>
</g>
<!-- Node3 -->
<g id="node5" class="node"><title>Node3</title>
<a xlink:href="fae_2fae_8h.html" target="_top" xlink:title="include/fae/fae.h">
<polygon fill="none" stroke="red" points="287.761,-7.69531 287.761,-30.3047 392.239,-30.3047 392.239,-7.69531 287.761,-7.69531"/>
<text text-anchor="middle" x="340" y="-15.3047" font-family="Futura" font-size="11.00">include/fae/fae.h</text>
</a>
</g>
<!-- Node2&#45;&gt;Node3 -->
<g id="edge4" class="edge"><title>Node2&#45;&gt;Node3</title>
<path fill="none" stroke="midnightblue" d="M450.177,-70.2074C421.127,-56.9695 385.378,-40.6787 362.635,-30.3146"/>
<polygon fill="midnightblue" stroke="midnightblue" points="448.798,-73.425 459.349,-74.3868 451.7,-67.0552 448.798,-73.425"/>
</g>
<!-- Node4 -->
<g id="node8" class="node"><title>Node4</title>
<a xlink:href="audio_8c.html" target="_top" xlink:title="src/fae/device/audio.c">
<polygon fill="none" stroke="black" points="548.904,-7.69531 548.904,-30.3047 681.096,-30.3047 681.096,-7.69531 548.904,-7.69531"/>
<text text-anchor="middle" x="615" y="-15.3047" font-family="Futura" font-size="11.00">src/fae/device/audio.c</text>
</a>
</g>
<!-- Node2&#45;&gt;Node4 -->
<g id="edge8" class="edge"><title>Node2&#45;&gt;Node4</title>
<path fill="none" stroke="midnightblue" d="M535.382,-68.9958C556.52,-55.9876 581.908,-40.3646 598.239,-30.3146"/>
<polygon fill="midnightblue" stroke="midnightblue" points="533.304,-66.165 526.621,-74.3868 536.972,-72.1266 533.304,-66.165"/>
</g>
<!-- Node5 -->
<g id="node10" class="node"><title>Node5</title>
<a xlink:href="device_8c.html" target="_top" xlink:title="src/platform/macosx\l/fae/device.c">
<polygon fill="none" stroke="black" points="410.597,-0.390625 410.597,-37.6094 531.403,-37.6094 531.403,-0.390625 410.597,-0.390625"/>
<text text-anchor="start" x="418.597" y="-22.6094" font-family="Futura" font-size="11.00">src/platform/macosx</text>
<text text-anchor="middle" x="471" y="-8" font-family="Futura" font-size="11.00">/fae/device.c</text>
</a>
</g>
<!-- Node2&#45;&gt;Node5 -->
<g id="edge10" class="edge"><title>Node2&#45;&gt;Node5</title>
<path fill="none" stroke="midnightblue" d="M487.812,-64.8316C484.426,-55.8025 480.744,-45.9834 477.691,-37.8425"/>
<polygon fill="midnightblue" stroke="midnightblue" points="484.537,-66.0679 491.326,-74.2022 491.092,-63.61 484.537,-66.0679"/>
</g>
<!-- Node3&#45;&gt;Node1 -->
<g id="edge6" class="edge"><title>Node3&#45;&gt;Node1</title>
<path fill="none" stroke="midnightblue" d="M324.2,-38.6524C310.168,-57.6194 293.649,-87.6065 306,-112 314.407,-128.603 331.745,-140.766 346.257,-148.554"/>
<polygon fill="midnightblue" stroke="midnightblue" points="327.146,-40.5675 330.555,-30.5361 321.634,-36.252 327.146,-40.5675"/>
</g>
<!-- Node7&#45;&gt;Node3 -->
<g id="edge16" class="edge"><title>Node7&#45;&gt;Node3</title>
<path fill="none" stroke="midnightblue" d="M245.451,-69.6901C270.459,-56.5473 300.909,-40.5441 320.374,-30.3146"/>
<polygon fill="midnightblue" stroke="midnightblue" points="243.738,-66.6364 236.514,-74.3868 246.994,-72.8328 243.738,-66.6364"/>
</g>
<!-- Node8 -->
<g id="node17" class="node"><title>Node8</title>
<a xlink:href="device_2buffer_8c.html" target="_top" xlink:title="src/fae/device/buffer.c">
<polygon fill="none" stroke="black" points="136.538,-7.69531 136.538,-30.3047 269.462,-30.3047 269.462,-7.69531 136.538,-7.69531"/>
<text text-anchor="middle" x="203" y="-15.3047" font-family="Futura" font-size="11.00">src/fae/device/buffer.c</text>
</a>
</g>
<!-- Node7&#45;&gt;Node8 -->
<g id="edge18" class="edge"><title>Node7&#45;&gt;Node8</title>
<path fill="none" stroke="midnightblue" d="M203,-63.9669C203,-52.2981 203,-39.4536 203,-30.6771"/>
<polygon fill="midnightblue" stroke="midnightblue" points="199.5,-64.2022 203,-74.2022 206.5,-64.2023 199.5,-64.2022"/>
</g>
<!-- Node9 -->
<g id="node19" class="node"><title>Node9</title>
<a xlink:href="file_8c.html" target="_top" xlink:title="src/fae/device/file.c">
<polygon fill="none" stroke="black" points="-0.159668,-7.69531 -0.159668,-30.3047 118.16,-30.3047 118.16,-7.69531 -0.159668,-7.69531"/>
<text text-anchor="middle" x="59" y="-15.3047" font-family="Futura" font-size="11.00">src/fae/device/file.c</text>
</a>
</g>
<!-- Node7&#45;&gt;Node9 -->
<g id="edge20" class="edge"><title>Node7&#45;&gt;Node9</title>
<path fill="none" stroke="midnightblue" d="M158.726,-69.8629C132.376,-56.6878 100.178,-40.5889 79.6293,-30.3146"/>
<polygon fill="midnightblue" stroke="midnightblue" points="157.264,-73.0451 167.774,-74.3868 160.395,-66.7841 157.264,-73.0451"/>
</g>
<!-- Node10&#45;&gt;Node3 -->
<g id="edge24" class="edge"><title>Node10&#45;&gt;Node3</title>
<path fill="none" stroke="midnightblue" d="M361.815,-72.3554C356.233,-58.9591 349.052,-41.7255 344.486,-30.767"/>
<polygon fill="midnightblue" stroke="midnightblue" points="358.625,-73.7996 365.702,-81.6842 365.086,-71.1072 358.625,-73.7996"/>
</g>
<!-- Node10&#45;&gt;Node5 -->
<g id="edge26" class="edge"><title>Node10&#45;&gt;Node5</title>
<path fill="none" stroke="midnightblue" d="M392.664,-75.8433C408.514,-64.5448 429.683,-49.4536 446.02,-37.8079"/>
<polygon fill="midnightblue" stroke="midnightblue" points="390.582,-73.0294 384.471,-81.6842 394.645,-78.7293 390.582,-73.0294"/>
</g>
</g>
</svg>
