<?xml version="1.0" encoding="UTF-8" standalone="no"?>
<!DOCTYPE svg PUBLIC "-//W3C//DTD SVG 1.1//EN"
 "http://www.w3.org/Graphics/SVG/1.1/DTD/svg11.dtd">
<!-- Generated by graphviz version 2.28.0 (20121015.0031)
 -->
<!-- Title: include/fae/device/buffer.h Pages: 1 -->
<svg width="699pt" height="226pt"
 viewBox="0.00 0.00 699.00 226.00" xmlns="http://www.w3.org/2000/svg" xmlns:xlink="http://www.w3.org/1999/xlink">
<g id="graph1" class="graph" transform="scale(1 1) rotate(0) translate(4 222)">
<title>include/fae/device/buffer.h</title>
<!-- Node1 -->
<g id="node1" class="node"><title>Node1</title>
<polygon fill="#bfbfbf" stroke="black" points="357.487,-180.391 357.487,-217.609 468.513,-217.609 468.513,-180.391 357.487,-180.391"/>
<text text-anchor="start" x="365.487" y="-202.609" font-family="Futura" font-size="11.00">include/fae/device</text>
<text text-anchor="middle" x="413" y="-188" font-family="Futura" font-size="11.00">/buffer.h</text>
</g>
<!-- Node2 -->
<g id="node3" class="node"><title>Node2</title>
<a xlink:href="device_8h.html" target="_top" xlink:title="fae/device.h">
<polygon fill="none" stroke="black" points="321.337,-120.695 321.337,-143.305 400.663,-143.305 400.663,-120.695 321.337,-120.695"/>
<text text-anchor="middle" x="361" y="-128.305" font-family="Futura" font-size="11.00">fae/device.h</text>
</a>
</g>
<!-- Node1&#45;&gt;Node2 -->
<g id="edge2" class="edge"><title>Node1&#45;&gt;Node2</title>
<path fill="none" stroke="midnightblue" d="M398.791,-180.238C391.681,-171.351 383.079,-160.598 375.879,-151.598"/>
<polygon fill="midnightblue" stroke="midnightblue" points="378.479,-149.247 369.499,-143.624 373.013,-153.619 378.479,-149.247"/>
</g>
<!-- Node10 -->
<g id="node21" class="node"><title>Node10</title>
<polygon fill="none" stroke="#bfbfbf" points="418.571,-120.695 418.571,-143.305 513.429,-143.305 513.429,-120.695 418.571,-120.695"/>
<text text-anchor="middle" x="466" y="-128.305" font-family="Futura" font-size="11.00">fae/processor.h</text>
</g>
<!-- Node1&#45;&gt;Node10 -->
<g id="edge22" class="edge"><title>Node1&#45;&gt;Node10</title>
<path fill="none" stroke="midnightblue" d="M427.482,-180.238C434.729,-171.351 443.497,-160.598 450.835,-151.598"/>
<polygon fill="midnightblue" stroke="midnightblue" points="453.73,-153.586 457.337,-143.624 448.305,-149.163 453.73,-153.586"/>
</g>
<!-- Node3 -->
<g id="node5" class="node"><title>Node3</title>
<a xlink:href="fae_2fae_8h.html" target="_top" xlink:title="fae.h">
<polygon fill="none" stroke="red" points="340.23,-60.6953 340.23,-83.3047 381.77,-83.3047 381.77,-60.6953 340.23,-60.6953"/>
<text text-anchor="middle" x="361" y="-68.3047" font-family="Futura" font-size="11.00">fae.h</text>
</a>
</g>
<!-- Node2&#45;&gt;Node3 -->
<g id="edge4" class="edge"><title>Node2&#45;&gt;Node3</title>
<path fill="none" stroke="midnightblue" d="M361,-120.631C361,-113.218 361,-102.989 361,-93.9096"/>
<polygon fill="midnightblue" stroke="midnightblue" points="364.5,-93.6718 361,-83.6719 357.5,-93.6719 364.5,-93.6718"/>
</g>
<!-- Node4 -->
<g id="node7" class="node"><title>Node4</title>
<a xlink:href="atomic_8h.html" target="_top" xlink:title="fae/atomic.h">
<polygon fill="none" stroke="red" points="-0.105713,-0.695312 -0.105713,-23.3047 80.1057,-23.3047 80.1057,-0.695312 -0.105713,-0.695312"/>
<text text-anchor="middle" x="40" y="-8.30469" font-family="Futura" font-size="11.00">fae/atomic.h</text>
</a>
</g>
<!-- Node3&#45;&gt;Node4 -->
<g id="edge6" class="edge"><title>Node3&#45;&gt;Node4</title>
<path fill="none" stroke="midnightblue" d="M340.077,-68.3957C294.611,-61.8867 184.678,-44.1185 87.5243,-25.2615"/>
<polygon fill="midnightblue" stroke="midnightblue" points="88.0485,-21.7978 77.5629,-23.3152 86.7061,-28.6679 88.0485,-21.7978"/>
</g>
<!-- Node5 -->
<g id="node10" class="node"><title>Node5</title>
<polygon fill="none" stroke="#bfbfbf" points="98.6057,-0.695312 98.6057,-23.3047 215.394,-23.3047 215.394,-0.695312 98.6057,-0.695312"/>
<text text-anchor="middle" x="157" y="-8.30469" font-family="Futura" font-size="11.00">fae/atomic/queue.h</text>
</g>
<!-- Node3&#45;&gt;Node5 -->
<g id="edge10" class="edge"><title>Node3&#45;&gt;Node5</title>
<path fill="none" stroke="midnightblue" d="M339.937,-65.0114C307.826,-55.8819 245.847,-38.2605 202.99,-26.0756"/>
<polygon fill="midnightblue" stroke="midnightblue" points="203.922,-22.702 193.346,-23.3337 202.008,-29.4351 203.922,-22.702"/>
</g>
<!-- Node6 -->
<g id="node12" class="node"><title>Node6</title>
<a xlink:href="stack_8h.html" target="_top" xlink:title="fae/atomic/stack.h">
<polygon fill="none" stroke="red" points="233.377,-0.695312 233.377,-23.3047 344.623,-23.3047 344.623,-0.695312 233.377,-0.695312"/>
<text text-anchor="middle" x="289" y="-8.30469" font-family="Futura" font-size="11.00">fae/atomic/stack.h</text>
</a>
</g>
<!-- Node3&#45;&gt;Node6 -->
<g id="edge12" class="edge"><title>Node3&#45;&gt;Node6</title>
<path fill="none" stroke="midnightblue" d="M348.128,-60.6308C337.611,-52.159 322.528,-40.0087 310.228,-30.1004"/>
<polygon fill="midnightblue" stroke="midnightblue" points="312.231,-27.2196 302.248,-23.6719 307.84,-32.6708 312.231,-27.2196"/>
</g>
<!-- Node7 -->
<g id="node14" class="node"><title>Node7</title>
<polygon fill="none" stroke="#bfbfbf" points="362.483,-0.695312 362.483,-23.3047 503.517,-23.3047 503.517,-0.695312 362.483,-0.695312"/>
<text text-anchor="middle" x="433" y="-8.30469" font-family="Futura" font-size="11.00">fae/atomic/ring_buffer.h</text>
</g>
<!-- Node3&#45;&gt;Node7 -->
<g id="edge14" class="edge"><title>Node3&#45;&gt;Node7</title>
<path fill="none" stroke="midnightblue" d="M373.872,-60.6308C384.389,-52.159 399.472,-40.0087 411.772,-30.1004"/>
<polygon fill="midnightblue" stroke="midnightblue" points="414.16,-32.6708 419.752,-23.6719 409.769,-27.2196 414.16,-32.6708"/>
</g>
<!-- Node8 -->
<g id="node16" class="node"><title>Node8</title>
<a xlink:href="system_8h.html" target="_top" xlink:title="fae/system.h">
<polygon fill="none" stroke="red" points="521.983,-0.695312 521.983,-23.3047 602.017,-23.3047 602.017,-0.695312 521.983,-0.695312"/>
<text text-anchor="middle" x="562" y="-8.30469" font-family="Futura" font-size="11.00">fae/system.h</text>
</a>
</g>
<!-- Node3&#45;&gt;Node8 -->
<g id="edge16" class="edge"><title>Node3&#45;&gt;Node8</title>
<path fill="none" stroke="midnightblue" d="M382.131,-64.9026C413.763,-55.7747 474.199,-38.3357 516.241,-26.204"/>
<polygon fill="midnightblue" stroke="midnightblue" points="517.336,-29.531 525.974,-23.3956 515.395,-22.8054 517.336,-29.531"/>
</g>
<!-- Node9 -->
<g id="node18" class="node"><title>Node9</title>
<a xlink:href="error_8h.html" target="_top" xlink:title="fae/error.h">
<polygon fill="none" stroke="red" points="620.119,-0.695312 620.119,-23.3047 691.881,-23.3047 691.881,-0.695312 620.119,-0.695312"/>
<text text-anchor="middle" x="656" y="-8.30469" font-family="Futura" font-size="11.00">fae/error.h</text>
</a>
</g>
<!-- Node3&#45;&gt;Node9 -->
<g id="edge18" class="edge"><title>Node3&#45;&gt;Node9</title>
<path fill="none" stroke="midnightblue" d="M381.933,-66.5246C424.06,-58.6623 520.846,-41.534 602,-24 604.565,-23.4459 607.207,-22.8543 609.883,-22.2439"/>
<polygon fill="midnightblue" stroke="midnightblue" points="610.695,-25.6485 619.649,-19.9838 609.117,-18.8287 610.695,-25.6485"/>
</g>
<!-- Node4&#45;&gt;Node3 -->
<g id="edge8" class="edge"><title>Node4&#45;&gt;Node3</title>
<path fill="none" stroke="midnightblue" d="M80.2521,-20.1395C86.5763,-21.4724 92.9824,-22.8169 99,-24 182.373,-40.3923 280.777,-56.7045 330.011,-65.1279"/>
<polygon fill="midnightblue" stroke="midnightblue" points="329.581,-68.6052 340.029,-66.8516 330.768,-61.7066 329.581,-68.6052"/>
</g>
<!-- Node9&#45;&gt;Node3 -->
<g id="edge20" class="edge"><title>Node9&#45;&gt;Node3</title>
<path fill="none" stroke="midnightblue" d="M622.857,-23.3743C621.897,-23.5873 620.943,-23.7962 620,-24 538.361,-41.6387 440.903,-58.867 391.927,-66.6645"/>
<polygon fill="midnightblue" stroke="midnightblue" points="391.293,-63.2211 381.954,-68.2251 392.375,-70.1369 391.293,-63.2211"/>
</g>
</g>
</svg>
