<?xml version="1.0" encoding="UTF-8" standalone="no"?>
<!DOCTYPE svg PUBLIC "-//W3C//DTD SVG 1.1//EN"
 "http://www.w3.org/Graphics/SVG/1.1/DTD/svg11.dtd">
<!-- Generated by graphviz version 2.28.0 (20121015.0031)
 -->
<!-- Title: src/platform/macosx/fae/device.c Pages: 1 -->
<svg width="823pt" height="226pt"
 viewBox="0.00 0.00 823.00 226.00" xmlns="http://www.w3.org/2000/svg" xmlns:xlink="http://www.w3.org/1999/xlink">
<g id="graph1" class="graph" transform="scale(1 1) rotate(0) translate(4 222)">
<title>src/platform/macosx/fae/device.c</title>
<!-- Node1 -->
<g id="node1" class="node"><title>Node1</title>
<polygon fill="#bfbfbf" stroke="black" points="288.597,-180.391 288.597,-217.609 409.403,-217.609 409.403,-180.391 288.597,-180.391"/>
<text text-anchor="start" x="296.597" y="-202.609" font-family="Futura" font-size="11.00">src/platform/macosx</text>
<text text-anchor="middle" x="349" y="-188" font-family="Futura" font-size="11.00">/fae/device.c</text>
</g>
<!-- Node2 -->
<g id="node3" class="node"><title>Node2</title>
<a xlink:href="audio_8h.html" target="_top" xlink:title="fae/device/audio.h">
<polygon fill="none" stroke="red" points="-0.780273,-120.695 -0.780273,-143.305 112.78,-143.305 112.78,-120.695 -0.780273,-120.695"/>
<text text-anchor="middle" x="56" y="-128.305" font-family="Futura" font-size="11.00">fae/device/audio.h</text>
</a>
</g>
<!-- Node1&#45;&gt;Node2 -->
<g id="edge2" class="edge"><title>Node1&#45;&gt;Node2</title>
<path fill="none" stroke="midnightblue" d="M288.29,-184.532C236.59,-173.063 162.88,-156.711 112.441,-145.521"/>
<polygon fill="midnightblue" stroke="midnightblue" points="113.198,-142.104 102.677,-143.355 111.682,-148.938 113.198,-142.104"/>
</g>
<!-- Node5 -->
<g id="node10" class="node"><title>Node5</title>
<a xlink:href="midi_8h.html" target="_top" xlink:title="fae/midi.h">
<polygon fill="none" stroke="red" points="130.993,-120.695 130.993,-143.305 199.007,-143.305 199.007,-120.695 130.993,-120.695"/>
<text text-anchor="middle" x="165" y="-128.305" font-family="Futura" font-size="11.00">fae/midi.h</text>
</a>
</g>
<!-- Node1&#45;&gt;Node5 -->
<g id="edge10" class="edge"><title>Node1&#45;&gt;Node5</title>
<path fill="none" stroke="midnightblue" d="M298.721,-180.238C268.87,-169.693 231.583,-156.521 203.973,-146.768"/>
<polygon fill="midnightblue" stroke="midnightblue" points="204.865,-143.371 194.27,-143.34 202.533,-149.971 204.865,-143.371"/>
</g>
<!-- Node6 -->
<g id="node14" class="node"><title>Node6</title>
<a xlink:href="string_8h.html" target="_top" xlink:title="fae/string.h">
<polygon fill="none" stroke="red" points="216.827,-120.695 216.827,-143.305 291.173,-143.305 291.173,-120.695 216.827,-120.695"/>
<text text-anchor="middle" x="254" y="-128.305" font-family="Futura" font-size="11.00">fae/string.h</text>
</a>
</g>
<!-- Node1&#45;&gt;Node6 -->
<g id="edge16" class="edge"><title>Node1&#45;&gt;Node6</title>
<path fill="none" stroke="midnightblue" d="M323.041,-180.238C308.89,-170.556 291.504,-158.661 277.719,-149.229"/>
<polygon fill="midnightblue" stroke="midnightblue" points="279.48,-146.193 269.25,-143.434 275.527,-151.97 279.48,-146.193"/>
</g>
<!-- Node7 -->
<g id="node16" class="node"><title>Node7</title>
<a xlink:href="thread_8h.html" target="_top" xlink:title="fae/thread.h">
<polygon fill="none" stroke="red" points="309.093,-120.695 309.093,-143.305 388.907,-143.305 388.907,-120.695 309.093,-120.695"/>
<text text-anchor="middle" x="349" y="-128.305" font-family="Futura" font-size="11.00">fae/thread.h</text>
</a>
</g>
<!-- Node1&#45;&gt;Node7 -->
<g id="edge18" class="edge"><title>Node1&#45;&gt;Node7</title>
<path fill="none" stroke="midnightblue" d="M349,-180.238C349,-172.084 349,-162.359 349,-153.859"/>
<polygon fill="midnightblue" stroke="midnightblue" points="352.5,-153.624 349,-143.624 345.5,-153.624 352.5,-153.624"/>
</g>
<!-- Node8 -->
<g id="node18" class="node"><title>Node8</title>
<a xlink:href="util_8h.html" target="_top" xlink:title="fae/util.h">
<polygon fill="none" stroke="red" points="407.141,-120.695 407.141,-143.305 468.859,-143.305 468.859,-120.695 407.141,-120.695"/>
<text text-anchor="middle" x="438" y="-128.305" font-family="Futura" font-size="11.00">fae/util.h</text>
</a>
</g>
<!-- Node1&#45;&gt;Node8 -->
<g id="edge20" class="edge"><title>Node1&#45;&gt;Node8</title>
<path fill="none" stroke="midnightblue" d="M373.32,-180.238C386.45,-170.649 402.555,-158.887 415.409,-149.499"/>
<polygon fill="midnightblue" stroke="midnightblue" points="417.702,-152.159 423.713,-143.434 413.573,-146.506 417.702,-152.159"/>
</g>
<!-- Node9 -->
<g id="node20" class="node"><title>Node9</title>
<polygon fill="none" stroke="#bfbfbf" points="486.96,-120.695 486.96,-143.305 653.04,-143.305 653.04,-120.695 486.96,-120.695"/>
<text text-anchor="middle" x="570" y="-128.305" font-family="Futura" font-size="11.00">CoreAudio/AudioHardware.h</text>
</g>
<!-- Node1&#45;&gt;Node9 -->
<g id="edge22" class="edge"><title>Node1&#45;&gt;Node9</title>
<path fill="none" stroke="midnightblue" d="M409.097,-180.324C445.585,-169.593 491.405,-156.116 524.807,-146.292"/>
<polygon fill="midnightblue" stroke="midnightblue" points="526.144,-149.547 534.75,-143.368 524.169,-142.831 526.144,-149.547"/>
</g>
<!-- Node10 -->
<g id="node22" class="node"><title>Node10</title>
<polygon fill="none" stroke="#bfbfbf" points="670.794,-120.695 670.794,-143.305 815.206,-143.305 815.206,-120.695 670.794,-120.695"/>
<text text-anchor="middle" x="743" y="-128.305" font-family="Futura" font-size="11.00">CoreMidi/MIDIServices.h</text>
</g>
<!-- Node1&#45;&gt;Node10 -->
<g id="edge24" class="edge"><title>Node1&#45;&gt;Node10</title>
<path fill="none" stroke="midnightblue" d="M409.699,-187.986C479.794,-176.422 595.047,-157.409 669.98,-145.046"/>
<polygon fill="midnightblue" stroke="midnightblue" points="670.98,-148.429 680.277,-143.348 669.841,-141.522 670.98,-148.429"/>
</g>
<!-- Node3 -->
<g id="node5" class="node"><title>Node3</title>
<a xlink:href="list_8h.html" target="_top" xlink:title="fae/list.h">
<polygon fill="none" stroke="red" points="80.906,-0.695312 80.906,-23.3047 141.094,-23.3047 141.094,-0.695312 80.906,-0.695312"/>
<text text-anchor="middle" x="111" y="-8.30469" font-family="Futura" font-size="11.00">fae/list.h</text>
</a>
</g>
<!-- Node2&#45;&gt;Node3 -->
<g id="edge4" class="edge"><title>Node2&#45;&gt;Node3</title>
<path fill="none" stroke="midnightblue" d="M56.1745,-120.336C56.7954,-105.939 59.3039,-79.8094 69,-60 74.2679,-49.2375 82.7134,-39.083 90.6545,-30.9855"/>
<polygon fill="midnightblue" stroke="midnightblue" points="93.5184,-33.0863 98.291,-23.6272 88.6613,-28.0455 93.5184,-33.0863"/>
</g>
<!-- Node4 -->
<g id="node7" class="node"><title>Node4</title>
<a xlink:href="pair_8h.html" target="_top" xlink:title="fae/pair.h">
<polygon fill="none" stroke="red" points="77.6511,-60.6953 77.6511,-83.3047 144.349,-83.3047 144.349,-60.6953 77.6511,-60.6953"/>
<text text-anchor="middle" x="111" y="-68.3047" font-family="Futura" font-size="11.00">fae/pair.h</text>
</a>
</g>
<!-- Node2&#45;&gt;Node4 -->
<g id="edge6" class="edge"><title>Node2&#45;&gt;Node4</title>
<path fill="none" stroke="midnightblue" d="M65.8329,-120.631C73.6347,-112.403 84.7265,-100.707 93.9658,-90.9633"/>
<polygon fill="midnightblue" stroke="midnightblue" points="96.5389,-93.3365 100.88,-83.6719 91.4595,-88.5198 96.5389,-93.3365"/>
</g>
<!-- Node4&#45;&gt;Node3 -->
<g id="edge8" class="edge"><title>Node4&#45;&gt;Node3</title>
<path fill="none" stroke="midnightblue" d="M111,-60.6308C111,-53.218 111,-42.9888 111,-33.9096"/>
<polygon fill="midnightblue" stroke="midnightblue" points="114.5,-33.6718 111,-23.6719 107.5,-33.6719 114.5,-33.6718"/>
</g>
<!-- Node5&#45;&gt;Node3 -->
<g id="edge12" class="edge"><title>Node5&#45;&gt;Node3</title>
<path fill="none" stroke="midnightblue" d="M165.011,-120.342C164.633,-105.951 162.538,-79.8275 153,-60 147.806,-49.2017 139.371,-39.0421 131.418,-30.9504"/>
<polygon fill="midnightblue" stroke="midnightblue" points="133.401,-28.0021 123.763,-23.6009 128.553,-33.0515 133.401,-28.0021"/>
</g>
<!-- Node5&#45;&gt;Node4 -->
<g id="edge14" class="edge"><title>Node5&#45;&gt;Node4</title>
<path fill="none" stroke="midnightblue" d="M155.346,-120.631C147.762,-112.485 137.011,-100.938 127.994,-91.2533"/>
<polygon fill="midnightblue" stroke="midnightblue" points="130.312,-88.6059 120.936,-83.6719 125.188,-93.3758 130.312,-88.6059"/>
</g>
</g>
</svg>
