<?xml version="1.0" encoding="UTF-8" standalone="no"?>
<!DOCTYPE svg PUBLIC "-//W3C//DTD SVG 1.1//EN"
 "http://www.w3.org/Graphics/SVG/1.1/DTD/svg11.dtd">
<!-- Generated by graphviz version 2.28.0 (20121015.0031)
 -->
<!-- Title: include/fae/device/midi.h Pages: 1 -->
<svg width="327pt" height="406pt"
 viewBox="0.00 0.00 327.00 406.00" xmlns="http://www.w3.org/2000/svg" xmlns:xlink="http://www.w3.org/1999/xlink">
<g id="graph1" class="graph" transform="scale(1 1) rotate(0) translate(4 402)">
<title>include/fae/device/midi.h</title>
<!-- Node1 -->
<g id="node1" class="node"><title>Node1</title>
<polygon fill="#bfbfbf" stroke="black" points="74.4873,-360.391 74.4873,-397.609 185.513,-397.609 185.513,-360.391 74.4873,-360.391"/>
<text text-anchor="start" x="82.4873" y="-382.609" font-family="Futura" font-size="11.00">include/fae/device</text>
<text text-anchor="middle" x="130" y="-368" font-family="Futura" font-size="11.00">/midi.h</text>
</g>
<!-- Node2 -->
<g id="node3" class="node"><title>Node2</title>
<a xlink:href="list_8h.html" target="_top" xlink:title="fae/list.h">
<polygon fill="none" stroke="black" points="88.906,-240.695 88.906,-263.305 149.094,-263.305 149.094,-240.695 88.906,-240.695"/>
<text text-anchor="middle" x="119" y="-248.305" font-family="Futura" font-size="11.00">fae/list.h</text>
</a>
</g>
<!-- Node1&#45;&gt;Node2 -->
<g id="edge2" class="edge"><title>Node1&#45;&gt;Node2</title>
<path fill="none" stroke="midnightblue" d="M111.39,-360.368C102.462,-350.612 92.7024,-337.705 88,-324 81.7102,-305.668 92.3224,-285.479 102.802,-271.331"/>
<polygon fill="midnightblue" stroke="midnightblue" points="105.652,-273.371 109.158,-263.374 100.182,-269.003 105.652,-273.371"/>
</g>
<!-- Node7 -->
<g id="node16" class="node"><title>Node7</title>
<a xlink:href="pair_8h.html" target="_top" xlink:title="fae/pair.h">
<polygon fill="none" stroke="black" points="96.6511,-300.695 96.6511,-323.305 163.349,-323.305 163.349,-300.695 96.6511,-300.695"/>
<text text-anchor="middle" x="130" y="-308.305" font-family="Futura" font-size="11.00">fae/pair.h</text>
</a>
</g>
<!-- Node1&#45;&gt;Node7 -->
<g id="edge18" class="edge"><title>Node1&#45;&gt;Node7</title>
<path fill="none" stroke="midnightblue" d="M130,-360.238C130,-352.084 130,-342.359 130,-333.859"/>
<polygon fill="midnightblue" stroke="midnightblue" points="133.5,-333.624 130,-323.624 126.5,-333.624 133.5,-333.624"/>
</g>
<!-- Node8 -->
<g id="node20" class="node"><title>Node8</title>
<a xlink:href="device_8h.html" target="_top" xlink:title="fae/device.h">
<polygon fill="none" stroke="black" points="181.337,-300.695 181.337,-323.305 260.663,-323.305 260.663,-300.695 181.337,-300.695"/>
<text text-anchor="middle" x="221" y="-308.305" font-family="Futura" font-size="11.00">fae/device.h</text>
</a>
</g>
<!-- Node1&#45;&gt;Node8 -->
<g id="edge24" class="edge"><title>Node1&#45;&gt;Node8</title>
<path fill="none" stroke="midnightblue" d="M154.866,-360.238C168.292,-350.649 184.758,-338.887 197.902,-329.499"/>
<polygon fill="midnightblue" stroke="midnightblue" points="200.289,-332.095 206.392,-323.434 196.22,-326.399 200.289,-332.095"/>
</g>
<!-- Node9 -->
<g id="node23" class="node"><title>Node9</title>
<a xlink:href="error_8h.html" target="_top" xlink:title="fae/error.h">
<polygon fill="none" stroke="black" points="-0.881348,-240.695 -0.881348,-263.305 70.8813,-263.305 70.8813,-240.695 -0.881348,-240.695"/>
<text text-anchor="middle" x="35" y="-248.305" font-family="Futura" font-size="11.00">fae/error.h</text>
</a>
</g>
<!-- Node1&#45;&gt;Node9 -->
<g id="edge28" class="edge"><title>Node1&#45;&gt;Node9</title>
<path fill="none" stroke="midnightblue" d="M113.332,-359.973C104.079,-349.691 92.5437,-336.416 83,-324 69.9086,-306.969 56.3166,-286.565 46.9526,-272.011"/>
<polygon fill="midnightblue" stroke="midnightblue" points="49.7822,-269.938 41.4573,-263.385 43.8784,-273.699 49.7822,-269.938"/>
</g>
<!-- Node10 -->
<g id="node27" class="node"><title>Node10</title>
<a xlink:href="event_8h.html" target="_top" xlink:title="fae/event.h">
<polygon fill="none" stroke="red" points="246.2,-240.695 246.2,-263.305 319.8,-263.305 319.8,-240.695 246.2,-240.695"/>
<text text-anchor="middle" x="283" y="-248.305" font-family="Futura" font-size="11.00">fae/event.h</text>
</a>
</g>
<!-- Node1&#45;&gt;Node10 -->
<g id="edge34" class="edge"><title>Node1&#45;&gt;Node10</title>
<path fill="none" stroke="midnightblue" d="M185.615,-369.536C214.588,-362.26 248.215,-348.804 269,-324 280.688,-310.052 283.632,-289.159 283.985,-273.644"/>
<polygon fill="midnightblue" stroke="midnightblue" points="287.482,-273.435 283.871,-263.474 280.483,-273.513 287.482,-273.435"/>
</g>
<!-- Node3 -->
<g id="node5" class="node"><title>Node3</title>
<a xlink:href="fae_8h.html" target="_top" xlink:title="fae.h">
<polygon fill="none" stroke="red" points="155.23,-180.695 155.23,-203.305 196.77,-203.305 196.77,-180.695 155.23,-180.695"/>
<text text-anchor="middle" x="176" y="-188.305" font-family="Futura" font-size="11.00">fae.h</text>
</a>
</g>
<!-- Node2&#45;&gt;Node3 -->
<g id="edge4" class="edge"><title>Node2&#45;&gt;Node3</title>
<path fill="none" stroke="midnightblue" d="M129.19,-240.631C137.276,-232.403 148.771,-220.707 158.346,-210.963"/>
<polygon fill="midnightblue" stroke="midnightblue" points="160.999,-213.257 165.512,-203.672 156.006,-208.351 160.999,-213.257"/>
</g>
<!-- Node4 -->
<g id="node7" class="node"><title>Node4</title>
<a xlink:href="std_8h.html" target="_top" xlink:title="fae/std.h">
<polygon fill="none" stroke="red" points="253.347,-120.695 253.347,-143.305 314.653,-143.305 314.653,-120.695 253.347,-120.695"/>
<text text-anchor="middle" x="284" y="-128.305" font-family="Futura" font-size="11.00">fae/std.h</text>
</a>
</g>
<!-- Node3&#45;&gt;Node4 -->
<g id="edge6" class="edge"><title>Node3&#45;&gt;Node4</title>
<path fill="none" stroke="midnightblue" d="M195.308,-180.631C212.098,-171.614 236.646,-158.431 255.662,-148.218"/>
<polygon fill="midnightblue" stroke="midnightblue" points="257.341,-151.29 264.495,-143.475 254.029,-145.123 257.341,-151.29"/>
</g>
<!-- Node5 -->
<g id="node9" class="node"><title>Node5</title>
<a xlink:href="string_8h.html" target="_top" xlink:title="fae/string.h">
<polygon fill="none" stroke="black" points="144.827,-0.695312 144.827,-23.3047 219.173,-23.3047 219.173,-0.695312 144.827,-0.695312"/>
<text text-anchor="middle" x="182" y="-8.30469" font-family="Futura" font-size="11.00">fae/string.h</text>
</a>
</g>
<!-- Node4&#45;&gt;Node5 -->
<g id="edge8" class="edge"><title>Node4&#45;&gt;Node5</title>
<path fill="none" stroke="midnightblue" d="M282.342,-120.286C279.567,-105.361 272.765,-78.1099 258,-60 246.983,-46.4871 230.993,-35.7806 216.518,-28.0208"/>
<polygon fill="midnightblue" stroke="midnightblue" points="217.795,-24.7443 207.293,-23.3472 214.632,-30.9887 217.795,-24.7443"/>
</g>
<!-- Node6 -->
<g id="node12" class="node"><title>Node6</title>
<a xlink:href="time_8h.html" target="_top" xlink:title="fae/time.h">
<polygon fill="none" stroke="red" points="182.114,-60.6953 182.114,-83.3047 249.886,-83.3047 249.886,-60.6953 182.114,-60.6953"/>
<text text-anchor="middle" x="216" y="-68.3047" font-family="Futura" font-size="11.00">fae/time.h</text>
</a>
</g>
<!-- Node4&#45;&gt;Node6 -->
<g id="edge12" class="edge"><title>Node4&#45;&gt;Node6</title>
<path fill="none" stroke="midnightblue" d="M271.843,-120.631C262.006,-112.24 247.939,-100.242 236.385,-90.3869"/>
<polygon fill="midnightblue" stroke="midnightblue" points="238.392,-87.4984 228.512,-83.6719 233.849,-92.8243 238.392,-87.4984"/>
</g>
<!-- Node5&#45;&gt;Node3 -->
<g id="edge10" class="edge"><title>Node5&#45;&gt;Node3</title>
<path fill="none" stroke="midnightblue" d="M179.428,-23.3722C177.22,-32.8419 174.209,-47.2629 173,-60 169.312,-98.864 171.917,-144.489 174.035,-170.347"/>
<polygon fill="midnightblue" stroke="midnightblue" points="170.56,-170.787 174.921,-180.442 177.533,-170.174 170.56,-170.787"/>
</g>
<!-- Node6&#45;&gt;Node3 -->
<g id="edge14" class="edge"><title>Node6&#45;&gt;Node3</title>
<path fill="none" stroke="midnightblue" d="M212.401,-83.6179C205.737,-103.275 191.38,-145.628 182.823,-170.873"/>
<polygon fill="midnightblue" stroke="midnightblue" points="179.445,-169.934 179.55,-180.528 186.075,-172.181 179.445,-169.934"/>
</g>
<!-- Node6&#45;&gt;Node5 -->
<g id="edge16" class="edge"><title>Node6&#45;&gt;Node5</title>
<path fill="none" stroke="midnightblue" d="M209.921,-60.6308C205.337,-52.8107 198.916,-41.8562 193.387,-32.4241"/>
<polygon fill="midnightblue" stroke="midnightblue" points="196.333,-30.5288 188.256,-23.6719 190.294,-34.0689 196.333,-30.5288"/>
</g>
<!-- Node7&#45;&gt;Node2 -->
<g id="edge22" class="edge"><title>Node7&#45;&gt;Node2</title>
<path fill="none" stroke="midnightblue" d="M128.033,-300.631C126.612,-293.137 124.645,-282.764 122.909,-273.611"/>
<polygon fill="midnightblue" stroke="midnightblue" points="126.326,-272.845 121.024,-263.672 119.449,-274.149 126.326,-272.845"/>
</g>
<!-- Node7&#45;&gt;Node3 -->
<g id="edge20" class="edge"><title>Node7&#45;&gt;Node3</title>
<path fill="none" stroke="midnightblue" d="M137.373,-300.636C143.639,-291.406 152.474,-277.337 158,-264 164.826,-247.524 169.576,-227.79 172.475,-213.314"/>
<polygon fill="midnightblue" stroke="midnightblue" points="175.929,-213.884 174.335,-203.41 169.049,-212.592 175.929,-213.884"/>
</g>
<!-- Node8&#45;&gt;Node3 -->
<g id="edge26" class="edge"><title>Node8&#45;&gt;Node3</title>
<path fill="none" stroke="midnightblue" d="M217.007,-300.528C209.52,-280.897 193.263,-238.267 183.619,-212.978"/>
<polygon fill="midnightblue" stroke="midnightblue" points="186.883,-211.714 180.049,-203.618 180.342,-214.209 186.883,-211.714"/>
</g>
<!-- Node9&#45;&gt;Node3 -->
<g id="edge30" class="edge"><title>Node9&#45;&gt;Node3</title>
<path fill="none" stroke="midnightblue" d="M60.208,-240.631C84.1238,-230.793 120.099,-215.995 145.594,-205.507"/>
<polygon fill="midnightblue" stroke="midnightblue" points="147.224,-208.622 155.14,-201.581 144.561,-202.148 147.224,-208.622"/>
</g>
<!-- Node9&#45;&gt;Node5 -->
<g id="edge32" class="edge"><title>Node9&#45;&gt;Node5</title>
<path fill="none" stroke="midnightblue" d="M41.5061,-240.466C64.2746,-203.603 140.589,-80.0464 170.156,-32.1753"/>
<polygon fill="midnightblue" stroke="midnightblue" points="173.292,-33.7592 175.569,-23.412 167.336,-30.0808 173.292,-33.7592"/>
</g>
<!-- Node10&#45;&gt;Node3 -->
<g id="edge36" class="edge"><title>Node10&#45;&gt;Node3</title>
<path fill="none" stroke="midnightblue" d="M263.871,-240.631C247.312,-231.655 223.136,-218.551 204.333,-208.358"/>
<polygon fill="midnightblue" stroke="midnightblue" points="205.784,-205.164 195.325,-203.475 202.448,-211.318 205.784,-205.164"/>
</g>
<!-- Node10&#45;&gt;Node4 -->
<g id="edge38" class="edge"><title>Node10&#45;&gt;Node4</title>
<path fill="none" stroke="midnightblue" d="M283.089,-240.528C283.254,-221.071 283.61,-179.023 283.825,-153.656"/>
<polygon fill="midnightblue" stroke="midnightblue" points="287.325,-153.647 283.91,-143.618 280.325,-153.588 287.325,-153.647"/>
</g>
<!-- Node10&#45;&gt;Node6 -->
<g id="edge40" class="edge"><title>Node10&#45;&gt;Node6</title>
<path fill="none" stroke="midnightblue" d="M279.108,-240.661C268.284,-211.904 237.687,-130.615 223.453,-92.801"/>
<polygon fill="midnightblue" stroke="midnightblue" points="226.701,-91.4939 219.903,-83.368 220.15,-93.9599 226.701,-91.4939"/>
</g>
</g>
</svg>
