<?xml version="1.0" encoding="UTF-8" standalone="no"?>
<!DOCTYPE svg PUBLIC "-//W3C//DTD SVG 1.1//EN"
 "http://www.w3.org/Graphics/SVG/1.1/DTD/svg11.dtd">
<!-- Generated by graphviz version 2.28.0 (20121015.0031)
 -->
<!-- Title: include/fae/device.h Pages: 1 -->
<svg width="696pt" height="180pt"
 viewBox="0.00 0.00 696.00 180.00" xmlns="http://www.w3.org/2000/svg" xmlns:xlink="http://www.w3.org/1999/xlink">
<g id="graph1" class="graph" transform="scale(1 1) rotate(0) translate(4 176)">
<title>include/fae/device.h</title>
<!-- Node1 -->
<g id="node1" class="node"><title>Node1</title>
<polygon fill="#bfbfbf" stroke="black" points="309.774,-148.695 309.774,-171.305 430.226,-171.305 430.226,-148.695 309.774,-148.695"/>
<text text-anchor="middle" x="370" y="-156.305" font-family="Futura" font-size="11.00">include/fae/device.h</text>
</g>
<!-- Node2 -->
<g id="node3" class="node"><title>Node2</title>
<a xlink:href="audio_8h.html" target="_top" xlink:title="include/fae/audio.h">
<polygon fill="none" stroke="black" points="442.549,-81.6953 442.549,-104.305 559.451,-104.305 559.451,-81.6953 442.549,-81.6953"/>
<text text-anchor="middle" x="501" y="-89.3047" font-family="Futura" font-size="11.00">include/fae/audio.h</text>
</a>
</g>
<!-- Node1&#45;&gt;Node2 -->
<g id="edge2" class="edge"><title>Node1&#45;&gt;Node2</title>
<path fill="none" stroke="midnightblue" d="M400.236,-143.998C424.674,-131.872 458.443,-115.116 480.005,-104.417"/>
<polygon fill="midnightblue" stroke="midnightblue" points="398.45,-140.977 391.047,-148.557 401.561,-147.247 398.45,-140.977"/>
</g>
<!-- Node6 -->
<g id="node12" class="node"><title>Node6</title>
<a xlink:href="device_2buffer_8h.html" target="_top" xlink:title="include/fae/device\l/buffer.h">
<polygon fill="none" stroke="black" points="577.487,-74.3906 577.487,-111.609 688.513,-111.609 688.513,-74.3906 577.487,-74.3906"/>
<text text-anchor="start" x="585.487" y="-96.6094" font-family="Futura" font-size="11.00">include/fae/device</text>
<text text-anchor="middle" x="633" y="-82" font-family="Futura" font-size="11.00">/buffer.h</text>
</a>
</g>
<!-- Node1&#45;&gt;Node6 -->
<g id="edge12" class="edge"><title>Node1&#45;&gt;Node6</title>
<path fill="none" stroke="midnightblue" d="M425.505,-146.405C465.272,-137.239 520.052,-124.325 568,-112 571.062,-111.213 574.201,-110.392 577.367,-109.552"/>
<polygon fill="midnightblue" stroke="midnightblue" points="424.693,-143 415.731,-148.651 426.261,-149.822 424.693,-143"/>
</g>
<!-- Node7 -->
<g id="node14" class="node"><title>Node7</title>
<a xlink:href="file_8h.html" target="_top" xlink:title="include/fae/device\l/file.h">
<polygon fill="none" stroke="black" points="147.487,-74.3906 147.487,-111.609 258.513,-111.609 258.513,-74.3906 147.487,-74.3906"/>
<text text-anchor="start" x="155.487" y="-96.6094" font-family="Futura" font-size="11.00">include/fae/device</text>
<text text-anchor="middle" x="203" y="-82" font-family="Futura" font-size="11.00">/file.h</text>
</a>
</g>
<!-- Node1&#45;&gt;Node7 -->
<g id="edge14" class="edge"><title>Node1&#45;&gt;Node7</title>
<path fill="none" stroke="midnightblue" d="M333.673,-144.861C308.622,-135.11 275.139,-122.078 248.339,-111.647"/>
<polygon fill="midnightblue" stroke="midnightblue" points="332.58,-148.191 343.169,-148.557 335.119,-141.668 332.58,-148.191"/>
</g>
<!-- Node10 -->
<g id="node21" class="node"><title>Node10</title>
<a xlink:href="midi_8h.html" target="_top" xlink:title="include/fae/midi.h">
<polygon fill="none" stroke="red" points="315.43,-81.6953 315.43,-104.305 424.57,-104.305 424.57,-81.6953 315.43,-81.6953"/>
<text text-anchor="middle" x="370" y="-89.3047" font-family="Futura" font-size="11.00">include/fae/midi.h</text>
</a>
</g>
<!-- Node1&#45;&gt;Node10 -->
<g id="edge22" class="edge"><title>Node1&#45;&gt;Node10</title>
<path fill="none" stroke="midnightblue" d="M370,-138.314C370,-127.109 370,-113.737 370,-104.633"/>
<polygon fill="midnightblue" stroke="midnightblue" points="366.5,-138.557 370,-148.557 373.5,-138.557 366.5,-138.557"/>
</g>
<!-- Node3 -->
<g id="node5" class="node"><title>Node3</title>
<a xlink:href="fae_2fae_8h.html" target="_top" xlink:title="include/fae/fae.h">
<polygon fill="none" stroke="red" points="287.761,-7.69531 287.761,-30.3047 392.239,-30.3047 392.239,-7.69531 287.761,-7.69531"/>
<text text-anchor="middle" x="340" y="-15.3047" font-family="Futura" font-size="11.00">include/fae/fae.h</text>
</a>
</g>
<!-- Node2&#45;&gt;Node3 -->
<g id="edge4" class="edge"><title>Node2&#45;&gt;Node3</title>
<path fill="none" stroke="midnightblue" d="M468.781,-77.5915C437.583,-63.6398 391.043,-42.8266 363.286,-30.4135"/>
<polygon fill="midnightblue" stroke="midnightblue" points="467.375,-80.7967 477.933,-81.6842 470.233,-74.4066 467.375,-80.7967"/>
</g>
<!-- Node4 -->
<g id="node8" class="node"><title>Node4</title>
<a xlink:href="audio_8c.html" target="_top" xlink:title="src/fae/audio.c">
<polygon fill="none" stroke="black" points="549.796,-7.69531 549.796,-30.3047 644.204,-30.3047 644.204,-7.69531 549.796,-7.69531"/>
<text text-anchor="middle" x="597" y="-15.3047" font-family="Futura" font-size="11.00">src/fae/audio.c</text>
</a>
</g>
<!-- Node2&#45;&gt;Node4 -->
<g id="edge8" class="edge"><title>Node2&#45;&gt;Node4</title>
<path fill="none" stroke="midnightblue" d="M522.892,-75.5811C541.336,-61.7483 567.171,-42.3717 582.959,-30.5308"/>
<polygon fill="midnightblue" stroke="midnightblue" points="520.654,-72.8841 514.754,-81.6842 524.854,-78.4841 520.654,-72.8841"/>
</g>
<!-- Node5 -->
<g id="node10" class="node"><title>Node5</title>
<a xlink:href="device_8c.html" target="_top" xlink:title="src/platform/macosx\l/fae/device.c">
<polygon fill="none" stroke="black" points="410.597,-0.390625 410.597,-37.6094 531.403,-37.6094 531.403,-0.390625 410.597,-0.390625"/>
<text text-anchor="start" x="418.597" y="-22.6094" font-family="Futura" font-size="11.00">src/platform/macosx</text>
<text text-anchor="middle" x="471" y="-8" font-family="Futura" font-size="11.00">/fae/device.c</text>
</a>
</g>
<!-- Node2&#45;&gt;Node5 -->
<g id="edge10" class="edge"><title>Node2&#45;&gt;Node5</title>
<path fill="none" stroke="midnightblue" d="M492.784,-72.2806C488.294,-61.5064 482.778,-48.2675 478.42,-37.8079"/>
<polygon fill="midnightblue" stroke="midnightblue" points="489.625,-73.7996 496.702,-81.6842 496.086,-71.1072 489.625,-73.7996"/>
</g>
<!-- Node3&#45;&gt;Node1 -->
<g id="edge6" class="edge"><title>Node3&#45;&gt;Node1</title>
<path fill="none" stroke="midnightblue" d="M324.2,-38.6524C310.168,-57.6194 293.649,-87.6065 306,-112 314.407,-128.603 331.745,-140.766 346.257,-148.554"/>
<polygon fill="midnightblue" stroke="midnightblue" points="327.146,-40.5675 330.555,-30.5361 321.634,-36.252 327.146,-40.5675"/>
</g>
<!-- Node7&#45;&gt;Node3 -->
<g id="edge16" class="edge"><title>Node7&#45;&gt;Node3</title>
<path fill="none" stroke="midnightblue" d="M245.451,-69.6901C270.459,-56.5473 300.909,-40.5441 320.374,-30.3146"/>
<polygon fill="midnightblue" stroke="midnightblue" points="243.738,-66.6364 236.514,-74.3868 246.994,-72.8328 243.738,-66.6364"/>
</g>
<!-- Node8 -->
<g id="node17" class="node"><title>Node8</title>
<a xlink:href="device_2buffer_8c.html" target="_top" xlink:title="src/fae/device/buffer.c">
<polygon fill="none" stroke="black" points="136.538,-7.69531 136.538,-30.3047 269.462,-30.3047 269.462,-7.69531 136.538,-7.69531"/>
<text text-anchor="middle" x="203" y="-15.3047" font-family="Futura" font-size="11.00">src/fae/device/buffer.c</text>
</a>
</g>
<!-- Node7&#45;&gt;Node8 -->
<g id="edge18" class="edge"><title>Node7&#45;&gt;Node8</title>
<path fill="none" stroke="midnightblue" d="M203,-63.9669C203,-52.2981 203,-39.4536 203,-30.6771"/>
<polygon fill="midnightblue" stroke="midnightblue" points="199.5,-64.2022 203,-74.2022 206.5,-64.2023 199.5,-64.2022"/>
</g>
<!-- Node9 -->
<g id="node19" class="node"><title>Node9</title>
<a xlink:href="file_8c.html" target="_top" xlink:title="src/fae/device/file.c">
<polygon fill="none" stroke="black" points="-0.159668,-7.69531 -0.159668,-30.3047 118.16,-30.3047 118.16,-7.69531 -0.159668,-7.69531"/>
<text text-anchor="middle" x="59" y="-15.3047" font-family="Futura" font-size="11.00">src/fae/device/file.c</text>
</a>
</g>
<!-- Node7&#45;&gt;Node9 -->
<g id="edge20" class="edge"><title>Node7&#45;&gt;Node9</title>
<path fill="none" stroke="midnightblue" d="M158.726,-69.8629C132.376,-56.6878 100.178,-40.5889 79.6293,-30.3146"/>
<polygon fill="midnightblue" stroke="midnightblue" points="157.264,-73.0451 167.774,-74.3868 160.395,-66.7841 157.264,-73.0451"/>
</g>
<!-- Node10&#45;&gt;Node3 -->
<g id="edge24" class="edge"><title>Node10&#45;&gt;Node3</title>
<path fill="none" stroke="midnightblue" d="M361.815,-72.3554C356.233,-58.9591 349.052,-41.7255 344.486,-30.767"/>
<polygon fill="midnightblue" stroke="midnightblue" points="358.625,-73.7996 365.702,-81.6842 365.086,-71.1072 358.625,-73.7996"/>
</g>
<!-- Node10&#45;&gt;Node5 -->
<g id="edge26" class="edge"><title>Node10&#45;&gt;Node5</title>
<path fill="none" stroke="midnightblue" d="M392.664,-75.8433C408.514,-64.5448 429.683,-49.4536 446.02,-37.8079"/>
<polygon fill="midnightblue" stroke="midnightblue" points="390.582,-73.0294 384.471,-81.6842 394.645,-78.7293 390.582,-73.0294"/>
</g>
</g>
</svg>
