<?xml version="1.0" encoding="UTF-8" standalone="no"?>
<!DOCTYPE svg PUBLIC "-//W3C//DTD SVG 1.1//EN"
 "http://www.w3.org/Graphics/SVG/1.1/DTD/svg11.dtd">
<!-- Generated by graphviz version 2.28.0 (20121015.0031)
 -->
<!-- Title: include/fa/device.h Pages: 1 -->
<svg width="685pt" height="272pt"
 viewBox="0.00 0.00 685.46 272.00" xmlns="http://www.w3.org/2000/svg" xmlns:xlink="http://www.w3.org/1999/xlink">
<g id="graph1" class="graph" transform="scale(1 1) rotate(0) translate(4 268)">
<title>include/fa/device.h</title>
<!-- Node1 -->
<g id="node1" class="node"><title>Node1</title>
<polygon fill="#bfbfbf" stroke="black" points="206.817,-240.695 206.817,-263.305 321.183,-263.305 321.183,-240.695 206.817,-240.695"/>
<text text-anchor="middle" x="264" y="-248.305" font-family="Futura" font-size="11.00">include/fa/device.h</text>
</g>
<!-- Node2 -->
<g id="node3" class="node"><title>Node2</title>
<a xlink:href="audio_8h.html" target="_top" xlink:title="include/fa/audio.h">
<polygon fill="none" stroke="black" points="125.592,-180.695 125.592,-203.305 236.408,-203.305 236.408,-180.695 125.592,-180.695"/>
<text text-anchor="middle" x="181" y="-188.305" font-family="Futura" font-size="11.00">include/fa/audio.h</text>
</a>
</g>
<!-- Node1&#45;&gt;Node2 -->
<g id="edge2" class="edge"><title>Node1&#45;&gt;Node2</title>
<path fill="none" stroke="midnightblue" d="M240.786,-234.778C226.447,-224.758 208.469,-212.195 195.99,-203.475"/>
<polygon fill="midnightblue" stroke="midnightblue" points="238.959,-237.772 249.161,-240.631 242.969,-232.034 238.959,-237.772"/>
</g>
<!-- Node8 -->
<g id="node20" class="node"><title>Node8</title>
<a xlink:href="midi_8h.html" target="_top" xlink:title="include/fa/midi.h">
<polygon fill="none" stroke="black" points="412.473,-0.695312 412.473,-23.3047 515.527,-23.3047 515.527,-0.695312 412.473,-0.695312"/>
<text text-anchor="middle" x="464" y="-8.30469" font-family="Futura" font-size="11.00">include/fa/midi.h</text>
</a>
</g>
<!-- Node1&#45;&gt;Node8 -->
<g id="edge42" class="edge"><title>Node1&#45;&gt;Node8</title>
<path fill="none" stroke="midnightblue" d="M331.521,-245.521C425.865,-233.821 594.075,-197.328 670,-84 708.268,-26.8808 588.365,-15.0792 515.593,-13.0384"/>
<polygon fill="midnightblue" stroke="midnightblue" points="331.03,-242.055 321.51,-246.704 331.852,-249.006 331.03,-242.055"/>
</g>
<!-- Node3 -->
<g id="node5" class="node"><title>Node3</title>
<a xlink:href="fa_2fa_8h.html" target="_top" xlink:title="include/fa/fa.h">
<polygon fill="none" stroke="red" points="173.846,-120.695 173.846,-143.305 266.154,-143.305 266.154,-120.695 173.846,-120.695"/>
<text text-anchor="middle" x="220" y="-128.305" font-family="Futura" font-size="11.00">include/fa/fa.h</text>
</a>
</g>
<!-- Node2&#45;&gt;Node3 -->
<g id="edge4" class="edge"><title>Node2&#45;&gt;Node3</title>
<path fill="none" stroke="midnightblue" d="M193.62,-172.231C199.979,-162.775 207.457,-151.654 212.824,-143.672"/>
<polygon fill="midnightblue" stroke="midnightblue" points="190.648,-170.379 187.972,-180.631 196.457,-174.285 190.648,-170.379"/>
</g>
<!-- Node3&#45;&gt;Node1 -->
<g id="edge14" class="edge"><title>Node3&#45;&gt;Node1</title>
<path fill="none" stroke="midnightblue" d="M231.58,-152.365C236.205,-160.669 241.3,-170.605 245,-180 253.229,-200.896 259.124,-226.618 262.004,-240.655"/>
<polygon fill="midnightblue" stroke="midnightblue" points="234.498,-150.419 226.477,-143.496 228.43,-153.91 234.498,-150.419"/>
</g>
<!-- Node4 -->
<g id="node7" class="node"><title>Node4</title>
<a xlink:href="action_8h.html" target="_top" xlink:title="include/fa/action.h">
<polygon fill="none" stroke="black" points="-0.253906,-0.695312 -0.253906,-23.3047 112.254,-23.3047 112.254,-0.695312 -0.253906,-0.695312"/>
<text text-anchor="middle" x="56" y="-8.30469" font-family="Futura" font-size="11.00">include/fa/action.h</text>
</a>
</g>
<!-- Node3&#45;&gt;Node4 -->
<g id="edge6" class="edge"><title>Node3&#45;&gt;Node4</title>
<path fill="none" stroke="midnightblue" d="M163.922,-124.605C134.023,-118.527 98.7435,-106.746 75,-84 57.6816,-67.4091 50.8555,-38.7863 51.5232,-23.4392"/>
<polygon fill="midnightblue" stroke="midnightblue" points="163.359,-128.06 173.832,-126.455 164.644,-121.179 163.359,-128.06"/>
</g>
<!-- Node5 -->
<g id="node11" class="node"><title>Node5</title>
<a xlink:href="buffer_8h.html" target="_top" xlink:title="include/fa/buffer.h">
<polygon fill="none" stroke="red" points="283.227,-60.6953 283.227,-83.3047 394.773,-83.3047 394.773,-60.6953 283.227,-60.6953"/>
<text text-anchor="middle" x="339" y="-68.3047" font-family="Futura" font-size="11.00">include/fa/buffer.h</text>
</a>
</g>
<!-- Node3&#45;&gt;Node5 -->
<g id="edge12" class="edge"><title>Node3&#45;&gt;Node5</title>
<path fill="none" stroke="midnightblue" d="M250.41,-116.178C271.391,-105.952 298.773,-92.6062 317.508,-83.475"/>
<polygon fill="midnightblue" stroke="midnightblue" points="248.731,-113.103 241.275,-120.631 251.797,-119.396 248.731,-113.103"/>
</g>
<!-- Node6 -->
<g id="node14" class="node"><title>Node6</title>
<a xlink:href="dynamic_8h.html" target="_top" xlink:title="include/fa/dynamic.h">
<polygon fill="none" stroke="black" points="412.918,-60.6953 412.918,-83.3047 537.082,-83.3047 537.082,-60.6953 412.918,-60.6953"/>
<text text-anchor="middle" x="475" y="-68.3047" font-family="Futura" font-size="11.00">include/fa/dynamic.h</text>
</a>
</g>
<!-- Node3&#45;&gt;Node6 -->
<g id="edge16" class="edge"><title>Node3&#45;&gt;Node6</title>
<path fill="none" stroke="midnightblue" d="M275.412,-118.396C321.483,-107.918 386.257,-93.1848 429.377,-83.3771"/>
<polygon fill="midnightblue" stroke="midnightblue" points="274.564,-115 265.589,-120.631 276.116,-121.826 274.564,-115"/>
</g>
<!-- Node7 -->
<g id="node16" class="node"><title>Node7</title>
<a xlink:href="error_8h.html" target="_top" xlink:title="include/fa/error.h">
<polygon fill="none" stroke="black" points="554.598,-60.6953 554.598,-83.3047 661.402,-83.3047 661.402,-60.6953 554.598,-60.6953"/>
<text text-anchor="middle" x="608" y="-68.3047" font-family="Futura" font-size="11.00">include/fa/error.h</text>
</a>
</g>
<!-- Node3&#45;&gt;Node7 -->
<g id="edge18" class="edge"><title>Node3&#45;&gt;Node7</title>
<path fill="none" stroke="midnightblue" d="M276.447,-122.508C339.93,-113.528 445.816,-98.658 537,-84 542.613,-83.0978 548.503,-82.1082 554.403,-81.104"/>
<polygon fill="midnightblue" stroke="midnightblue" points="275.659,-119.085 266.248,-123.952 276.64,-126.016 275.659,-119.085"/>
</g>
<!-- Node9 -->
<g id="node23" class="node"><title>Node9</title>
<a xlink:href="list_8h.html" target="_top" xlink:title="include/fa/list.h">
<polygon fill="none" stroke="red" points="93.3855,-60.6953 93.3855,-83.3047 188.615,-83.3047 188.615,-60.6953 93.3855,-60.6953"/>
<text text-anchor="middle" x="141" y="-68.3047" font-family="Futura" font-size="11.00">include/fa/list.h</text>
</a>
</g>
<!-- Node3&#45;&gt;Node9 -->
<g id="edge28" class="edge"><title>Node3&#45;&gt;Node9</title>
<path fill="none" stroke="midnightblue" d="M191.831,-114.817C177.243,-104.866 160.508,-92.3945 150.166,-83.6719"/>
<polygon fill="midnightblue" stroke="midnightblue" points="190.297,-118 200.561,-120.631 194.178,-112.174 190.297,-118"/>
</g>
<!-- Node10 -->
<g id="node28" class="node"><title>Node10</title>
<a xlink:href="map_8h.html" target="_top" xlink:title="include/fa/map.h">
<polygon fill="none" stroke="red" points="146.914,-0.695312 146.914,-23.3047 251.086,-23.3047 251.086,-0.695312 146.914,-0.695312"/>
<text text-anchor="middle" x="199" y="-8.30469" font-family="Futura" font-size="11.00">include/fa/map.h</text>
</a>
</g>
<!-- Node3&#45;&gt;Node10 -->
<g id="edge40" class="edge"><title>Node3&#45;&gt;Node10</title>
<path fill="none" stroke="midnightblue" d="M216.358,-110.534C211.858,-85.2504 204.372,-43.1873 200.89,-23.6179"/>
<polygon fill="midnightblue" stroke="midnightblue" points="212.938,-111.296 218.136,-120.528 219.83,-110.07 212.938,-111.296"/>
</g>
<!-- Node4&#45;&gt;Node2 -->
<g id="edge8" class="edge"><title>Node4&#45;&gt;Node2</title>
<path fill="none" stroke="midnightblue" d="M54.5847,-33.9118C54.4585,-48.6715 56.1039,-68.498 64,-84 86.7378,-128.64 136.281,-163.889 163.023,-180.537"/>
<polygon fill="midnightblue" stroke="midnightblue" points="58.0878,-33.8883 54.9525,-23.768 51.0924,-33.6346 58.0878,-33.8883"/>
</g>
<!-- Node4&#45;&gt;Node3 -->
<g id="edge10" class="edge"><title>Node4&#45;&gt;Node3</title>
<path fill="none" stroke="midnightblue" d="M66.5454,-33.3053C71.7841,-49.0969 78.9288,-70.5199 93,-84 115.098,-105.17 147.189,-116.841 173.662,-123.257"/>
<polygon fill="midnightblue" stroke="midnightblue" points="69.7165,-31.7627 63.1613,-23.4392 63.0951,-34.0338 69.7165,-31.7627"/>
</g>
<!-- Node7&#45;&gt;Node2 -->
<g id="edge20" class="edge"><title>Node7&#45;&gt;Node2</title>
<path fill="none" stroke="midnightblue" d="M560.701,-86.0709C475.141,-109.715 296.332,-159.128 218.519,-180.632"/>
<polygon fill="midnightblue" stroke="midnightblue" points="561.707,-89.4242 570.413,-83.3869 559.842,-82.6771 561.707,-89.4242"/>
</g>
<!-- Node7&#45;&gt;Node3 -->
<g id="edge22" class="edge"><title>Node7&#45;&gt;Node3</title>
<path fill="none" stroke="midnightblue" d="M549.196,-84.9179C444.866,-101.535 329.13,-117.519 266.247,-125.595"/>
<polygon fill="midnightblue" stroke="midnightblue" points="549.934,-88.3445 559.255,-83.3081 548.828,-81.4324 549.934,-88.3445"/>
</g>
<!-- Node7&#45;&gt;Node8 -->
<g id="edge24" class="edge"><title>Node7&#45;&gt;Node8</title>
<path fill="none" stroke="midnightblue" d="M572.904,-56.8643C547.31,-46.5553 513.188,-32.8119 490.007,-23.475"/>
<polygon fill="midnightblue" stroke="midnightblue" points="571.672,-60.1411 582.256,-60.6308 574.287,-53.648 571.672,-60.1411"/>
</g>
<!-- Node8&#45;&gt;Node3 -->
<g id="edge26" class="edge"><title>Node8&#45;&gt;Node3</title>
<path fill="none" stroke="midnightblue" d="M402.274,-17.7137C362.9,-23.1493 312.267,-34.8446 274,-60 250.448,-75.4824 233.091,-104.836 225.024,-120.513"/>
<polygon fill="midnightblue" stroke="midnightblue" points="402.81,-21.1737 412.284,-16.4318 401.921,-14.2304 402.81,-21.1737"/>
</g>
<!-- Node9&#45;&gt;Node2 -->
<g id="edge32" class="edge"><title>Node9&#45;&gt;Node2</title>
<path fill="none" stroke="midnightblue" d="M147.852,-93.308C152.646,-107.509 159.204,-126.915 165,-144 169.264,-156.571 174.188,-171.025 177.435,-180.549"/>
<polygon fill="midnightblue" stroke="midnightblue" points="151.085,-91.9434 144.571,-83.5878 144.453,-94.182 151.085,-91.9434"/>
</g>
<!-- Node9&#45;&gt;Node3 -->
<g id="edge34" class="edge"><title>Node9&#45;&gt;Node3</title>
<path fill="none" stroke="midnightblue" d="M168.989,-89.0605C183.789,-99.1468 200.839,-111.86 211.192,-120.631"/>
<polygon fill="midnightblue" stroke="midnightblue" points="170.866,-86.1054 160.603,-83.475 166.985,-91.9315 170.866,-86.1054"/>
</g>
<!-- Node9&#45;&gt;Node4 -->
<g id="edge30" class="edge"><title>Node9&#45;&gt;Node4</title>
<path fill="none" stroke="midnightblue" d="M117.226,-54.7779C102.542,-44.7583 84.1305,-32.1949 71.3513,-23.475"/>
<polygon fill="midnightblue" stroke="midnightblue" points="115.571,-57.8854 125.804,-60.6308 119.516,-52.1033 115.571,-57.8854"/>
</g>
<!-- Node9&#45;&gt;Node8 -->
<g id="edge38" class="edge"><title>Node9&#45;&gt;Node8</title>
<path fill="none" stroke="midnightblue" d="M198.844,-60.6131C259.564,-49.7099 354.136,-32.7278 412.401,-22.2654"/>
<polygon fill="midnightblue" stroke="midnightblue" points="197.884,-57.2295 188.66,-62.4419 199.121,-64.1193 197.884,-57.2295"/>
</g>
<!-- Node9&#45;&gt;Node10 -->
<g id="edge36" class="edge"><title>Node9&#45;&gt;Node10</title>
<path fill="none" stroke="midnightblue" d="M158.608,-53.3924C168.302,-43.6976 180.017,-31.9831 188.328,-23.6719"/>
<polygon fill="midnightblue" stroke="midnightblue" points="155.965,-51.0848 151.369,-60.6308 160.915,-56.0345 155.965,-51.0848"/>
</g>
</g>
</svg>
