<?xml version="1.0" encoding="UTF-8" standalone="no"?>
<!DOCTYPE svg PUBLIC "-//W3C//DTD SVG 1.1//EN"
 "http://www.w3.org/Graphics/SVG/1.1/DTD/svg11.dtd">
<!-- Generated by graphviz version 2.28.0 (20121015.0031)
 -->
<!-- Title: src/fae/device/buffer.c Pages: 1 -->
<svg width="511pt" height="272pt"
 viewBox="0.00 0.00 511.00 272.00" xmlns="http://www.w3.org/2000/svg" xmlns:xlink="http://www.w3.org/1999/xlink">
<g id="graph1" class="graph" transform="scale(1 1) rotate(0) translate(4 268)">
<title>src/fae/device/buffer.c</title>
<!-- Node1 -->
<g id="node1" class="node"><title>Node1</title>
<polygon fill="#bfbfbf" stroke="black" points="281.538,-240.695 281.538,-263.305 414.462,-263.305 414.462,-240.695 281.538,-240.695"/>
<text text-anchor="middle" x="348" y="-248.305" font-family="Futura" font-size="11.00">src/fae/device/buffer.c</text>
</g>
<!-- Node2 -->
<g id="node3" class="node"><title>Node2</title>
<a xlink:href="file_8h.html" target="_top" xlink:title="fae/device/file.h">
<polygon fill="none" stroke="black" points="227.156,-180.695 227.156,-203.305 326.844,-203.305 326.844,-180.695 227.156,-180.695"/>
<text text-anchor="middle" x="277" y="-188.305" font-family="Futura" font-size="11.00">fae/device/file.h</text>
</a>
</g>
<!-- Node1&#45;&gt;Node2 -->
<g id="edge2" class="edge"><title>Node1&#45;&gt;Node2</title>
<path fill="none" stroke="midnightblue" d="M335.307,-240.631C324.936,-232.159 310.062,-220.009 297.933,-210.1"/>
<polygon fill="midnightblue" stroke="midnightblue" points="300.023,-207.288 290.064,-203.672 295.594,-212.709 300.023,-207.288"/>
</g>
<!-- Node8 -->
<g id="node16" class="node"><title>Node8</title>
<polygon fill="none" stroke="#bfbfbf" points="362.483,-0.695312 362.483,-23.3047 503.517,-23.3047 503.517,-0.695312 362.483,-0.695312"/>
<text text-anchor="middle" x="433" y="-8.30469" font-family="Futura" font-size="11.00">fae/atomic/ring_buffer.h</text>
</g>
<!-- Node1&#45;&gt;Node8 -->
<g id="edge26" class="edge"><title>Node1&#45;&gt;Node8</title>
<path fill="none" stroke="midnightblue" d="M351.762,-240.466C364.845,-203.834 408.503,-81.5907 425.827,-33.0836"/>
<polygon fill="midnightblue" stroke="midnightblue" points="429.214,-34.0066 429.281,-23.412 422.622,-31.6522 429.214,-34.0066"/>
</g>
<!-- Node3 -->
<g id="node5" class="node"><title>Node3</title>
<a xlink:href="string_8h.html" target="_top" xlink:title="fae/string.h">
<polygon fill="none" stroke="black" points="39.8269,-120.695 39.8269,-143.305 114.173,-143.305 114.173,-120.695 39.8269,-120.695"/>
<text text-anchor="middle" x="77" y="-128.305" font-family="Futura" font-size="11.00">fae/string.h</text>
</a>
</g>
<!-- Node2&#45;&gt;Node3 -->
<g id="edge4" class="edge"><title>Node2&#45;&gt;Node3</title>
<path fill="none" stroke="midnightblue" d="M241.244,-180.631C208.071,-171.011 158.542,-156.647 122.551,-146.21"/>
<polygon fill="midnightblue" stroke="midnightblue" points="123.362,-142.801 112.783,-143.377 121.412,-149.524 123.362,-142.801"/>
</g>
<!-- Node9 -->
<g id="node19" class="node"><title>Node9</title>
<a xlink:href="device_8h.html" target="_top" xlink:title="fae/device.h">
<polygon fill="none" stroke="black" points="132.337,-120.695 132.337,-143.305 211.663,-143.305 211.663,-120.695 132.337,-120.695"/>
<text text-anchor="middle" x="172" y="-128.305" font-family="Futura" font-size="11.00">fae/device.h</text>
</a>
</g>
<!-- Node2&#45;&gt;Node9 -->
<g id="edge20" class="edge"><title>Node2&#45;&gt;Node9</title>
<path fill="none" stroke="midnightblue" d="M258.228,-180.631C241.979,-171.655 218.255,-158.551 199.803,-148.358"/>
<polygon fill="midnightblue" stroke="midnightblue" points="201.409,-145.247 190.963,-143.475 198.024,-151.374 201.409,-145.247"/>
</g>
<!-- Node10 -->
<g id="node22" class="node"><title>Node10</title>
<polygon fill="none" stroke="#bfbfbf" points="229.571,-120.695 229.571,-143.305 324.429,-143.305 324.429,-120.695 229.571,-120.695"/>
<text text-anchor="middle" x="277" y="-128.305" font-family="Futura" font-size="11.00">fae/processor.h</text>
</g>
<!-- Node2&#45;&gt;Node10 -->
<g id="edge24" class="edge"><title>Node2&#45;&gt;Node10</title>
<path fill="none" stroke="midnightblue" d="M277,-180.631C277,-173.218 277,-162.989 277,-153.91"/>
<polygon fill="midnightblue" stroke="midnightblue" points="280.5,-153.672 277,-143.672 273.5,-153.672 280.5,-153.672"/>
</g>
<!-- Node4 -->
<g id="node7" class="node"><title>Node4</title>
<a xlink:href="fae_2fae_8h.html" target="_top" xlink:title="fae.h">
<polygon fill="none" stroke="red" points="143.23,-60.6953 143.23,-83.3047 184.77,-83.3047 184.77,-60.6953 143.23,-60.6953"/>
<text text-anchor="middle" x="164" y="-68.3047" font-family="Futura" font-size="11.00">fae.h</text>
</a>
</g>
<!-- Node3&#45;&gt;Node4 -->
<g id="edge6" class="edge"><title>Node3&#45;&gt;Node4</title>
<path fill="none" stroke="midnightblue" d="M92.5539,-120.631C105.71,-111.86 124.78,-99.1468 139.909,-89.0605"/>
<polygon fill="midnightblue" stroke="midnightblue" points="141.908,-91.9342 148.287,-83.475 138.025,-86.1099 141.908,-91.9342"/>
</g>
<!-- Node4&#45;&gt;Node2 -->
<g id="edge18" class="edge"><title>Node4&#45;&gt;Node2</title>
<path fill="none" stroke="midnightblue" d="M184.837,-75.6629C225.927,-81.3868 314.99,-96.2976 333,-120 347.461,-139.031 324.914,-160.538 304.264,-174.845"/>
<polygon fill="midnightblue" stroke="midnightblue" points="302.08,-172.092 295.643,-180.508 305.923,-177.943 302.08,-172.092"/>
</g>
<!-- Node5 -->
<g id="node9" class="node"><title>Node5</title>
<a xlink:href="atomic_8h.html" target="_top" xlink:title="fae/atomic.h">
<polygon fill="none" stroke="red" points="-0.105713,-0.695312 -0.105713,-23.3047 80.1057,-23.3047 80.1057,-0.695312 -0.105713,-0.695312"/>
<text text-anchor="middle" x="40" y="-8.30469" font-family="Futura" font-size="11.00">fae/atomic.h</text>
</a>
</g>
<!-- Node4&#45;&gt;Node5 -->
<g id="edge8" class="edge"><title>Node4&#45;&gt;Node5</title>
<path fill="none" stroke="midnightblue" d="M143.058,-63.4175C121.699,-54.4436 88.8782,-39.2876 65.9335,-27.9308"/>
<polygon fill="midnightblue" stroke="midnightblue" points="67.274,-24.6874 56.767,-23.3254 64.1313,-30.9423 67.274,-24.6874"/>
</g>
<!-- Node6 -->
<g id="node12" class="node"><title>Node6</title>
<polygon fill="none" stroke="#bfbfbf" points="98.6057,-0.695312 98.6057,-23.3047 215.394,-23.3047 215.394,-0.695312 98.6057,-0.695312"/>
<text text-anchor="middle" x="157" y="-8.30469" font-family="Futura" font-size="11.00">fae/atomic/queue.h</text>
</g>
<!-- Node4&#45;&gt;Node6 -->
<g id="edge12" class="edge"><title>Node4&#45;&gt;Node6</title>
<path fill="none" stroke="midnightblue" d="M162.749,-60.6308C161.844,-53.1365 160.592,-42.7636 159.487,-33.6107"/>
<polygon fill="midnightblue" stroke="midnightblue" points="162.961,-33.1804 158.288,-23.6719 156.011,-34.0192 162.961,-33.1804"/>
</g>
<!-- Node7 -->
<g id="node14" class="node"><title>Node7</title>
<a xlink:href="stack_8h.html" target="_top" xlink:title="fae/atomic/stack.h">
<polygon fill="none" stroke="red" points="233.377,-0.695312 233.377,-23.3047 344.623,-23.3047 344.623,-0.695312 233.377,-0.695312"/>
<text text-anchor="middle" x="289" y="-8.30469" font-family="Futura" font-size="11.00">fae/atomic/stack.h</text>
</a>
</g>
<!-- Node4&#45;&gt;Node7 -->
<g id="edge14" class="edge"><title>Node4&#45;&gt;Node7</title>
<path fill="none" stroke="midnightblue" d="M184.922,-61.2921C204.747,-52.0932 234.787,-38.1548 257.506,-27.6131"/>
<polygon fill="midnightblue" stroke="midnightblue" points="259.146,-30.7108 266.744,-23.3269 256.199,-24.3611 259.146,-30.7108"/>
</g>
<!-- Node4&#45;&gt;Node8 -->
<g id="edge16" class="edge"><title>Node4&#45;&gt;Node8</title>
<path fill="none" stroke="midnightblue" d="M185.108,-66.4488C225.56,-57.7268 315.275,-38.3831 374.942,-25.518"/>
<polygon fill="midnightblue" stroke="midnightblue" points="375.943,-28.8827 384.981,-23.3536 374.468,-22.04 375.943,-28.8827"/>
</g>
<!-- Node5&#45;&gt;Node4 -->
<g id="edge10" class="edge"><title>Node5&#45;&gt;Node4</title>
<path fill="none" stroke="midnightblue" d="M67.7299,-23.475C88.798,-32.5651 117.38,-45.8319 138.007,-56.0398"/>
<polygon fill="midnightblue" stroke="midnightblue" points="136.64,-59.2698 147.147,-60.6308 139.782,-53.0146 136.64,-59.2698"/>
</g>
<!-- Node9&#45;&gt;Node4 -->
<g id="edge22" class="edge"><title>Node9&#45;&gt;Node4</title>
<path fill="none" stroke="midnightblue" d="M170.57,-120.631C169.536,-113.137 168.105,-102.764 166.843,-93.6107"/>
<polygon fill="midnightblue" stroke="midnightblue" points="170.306,-93.0998 165.472,-83.6719 163.371,-94.0563 170.306,-93.0998"/>
</g>
</g>
</svg>
