<?xml version="1.0" encoding="UTF-8" standalone="no"?>
<!DOCTYPE svg PUBLIC "-//W3C//DTD SVG 1.1//EN"
 "http://www.w3.org/Graphics/SVG/1.1/DTD/svg11.dtd">
<!-- Generated by graphviz version 2.28.0 (20121015.0031)
 -->
<!-- Title: src/fae/device/midi.c Pages: 1 -->
<svg width="578pt" height="212pt"
 viewBox="0.00 0.00 577.63 212.00" xmlns="http://www.w3.org/2000/svg" xmlns:xlink="http://www.w3.org/1999/xlink">
<g id="graph1" class="graph" transform="scale(1 1) rotate(0) translate(4 208)">
<title>src/fae/device/midi.c</title>
<!-- Node1 -->
<g id="node1" class="node"><title>Node1</title>
<polygon fill="#bfbfbf" stroke="black" points="269.418,-180.695 269.418,-203.305 393.85,-203.305 393.85,-180.695 269.418,-180.695"/>
<text text-anchor="middle" x="331.634" y="-188.305" font-family="Futura" font-size="11.00">src/fae/device/midi.c</text>
</g>
<!-- Node2 -->
<g id="node3" class="node"><title>Node2</title>
<a xlink:href="device_2midi_8h.html" target="_top" xlink:title="fae/device/midi.h">
<polygon fill="none" stroke="red" points="77.7346,-120.695 77.7346,-143.305 183.534,-143.305 183.534,-120.695 77.7346,-120.695"/>
<text text-anchor="middle" x="130.634" y="-128.305" font-family="Futura" font-size="11.00">fae/device/midi.h</text>
</a>
</g>
<!-- Node1&#45;&gt;Node2 -->
<g id="edge2" class="edge"><title>Node1&#45;&gt;Node2</title>
<path fill="none" stroke="midnightblue" d="M295.7,-180.631C262.361,-171.011 212.584,-156.647 176.413,-146.21"/>
<polygon fill="midnightblue" stroke="midnightblue" points="177.175,-142.787 166.596,-143.377 175.234,-149.512 177.175,-142.787"/>
</g>
<!-- Node3 -->
<g id="node5" class="node"><title>Node3</title>
<a xlink:href="list_8h.html" target="_top" xlink:title="fae/list.h">
<polygon fill="none" stroke="red" points="206.54,-0.695312 206.54,-23.3047 266.728,-23.3047 266.728,-0.695312 206.54,-0.695312"/>
<text text-anchor="middle" x="236.634" y="-8.30469" font-family="Futura" font-size="11.00">fae/list.h</text>
</a>
</g>
<!-- Node1&#45;&gt;Node3 -->
<g id="edge18" class="edge"><title>Node1&#45;&gt;Node3</title>
<path fill="none" stroke="midnightblue" d="M327.887,-180.415C318.17,-153.205 291.99,-81.4521 278.634,-60 272.06,-49.4402 263.043,-38.9915 255.049,-30.6372"/>
<polygon fill="midnightblue" stroke="midnightblue" points="257.337,-27.9731 247.811,-23.3339 252.365,-32.9005 257.337,-27.9731"/>
</g>
<!-- Node7 -->
<g id="node14" class="node"><title>Node7</title>
<a xlink:href="midi_8h.html" target="_top" xlink:title="fae/midi.h">
<polygon fill="none" stroke="red" points="201.627,-120.695 201.627,-143.305 269.641,-143.305 269.641,-120.695 201.627,-120.695"/>
<text text-anchor="middle" x="235.634" y="-128.305" font-family="Futura" font-size="11.00">fae/midi.h</text>
</a>
</g>
<!-- Node1&#45;&gt;Node7 -->
<g id="edge14" class="edge"><title>Node1&#45;&gt;Node7</title>
<path fill="none" stroke="midnightblue" d="M314.471,-180.631C299.819,-171.778 278.518,-158.909 261.75,-148.778"/>
<polygon fill="midnightblue" stroke="midnightblue" points="263.341,-145.651 252.972,-143.475 259.722,-151.642 263.341,-145.651"/>
</g>
<!-- Node8 -->
<g id="node18" class="node"><title>Node8</title>
<a xlink:href="thread_8h.html" target="_top" xlink:title="fae/thread.h">
<polygon fill="none" stroke="red" points="325.727,-120.695 325.727,-143.305 405.541,-143.305 405.541,-120.695 325.727,-120.695"/>
<text text-anchor="middle" x="365.634" y="-128.305" font-family="Futura" font-size="11.00">fae/thread.h</text>
</a>
</g>
<!-- Node1&#45;&gt;Node8 -->
<g id="edge20" class="edge"><title>Node1&#45;&gt;Node8</title>
<path fill="none" stroke="midnightblue" d="M337.713,-180.631C342.297,-172.811 348.719,-161.856 354.248,-152.424"/>
<polygon fill="midnightblue" stroke="midnightblue" points="357.341,-154.069 359.378,-143.672 351.302,-150.529 357.341,-154.069"/>
</g>
<!-- Node9 -->
<g id="node20" class="node"><title>Node9</title>
<a xlink:href="util_8h.html" target="_top" xlink:title="fae/util.h">
<polygon fill="none" stroke="red" points="423.775,-120.695 423.775,-143.305 485.494,-143.305 485.494,-120.695 423.775,-120.695"/>
<text text-anchor="middle" x="454.634" y="-128.305" font-family="Futura" font-size="11.00">fae/util.h</text>
</a>
</g>
<!-- Node1&#45;&gt;Node9 -->
<g id="edge22" class="edge"><title>Node1&#45;&gt;Node9</title>
<path fill="none" stroke="midnightblue" d="M353.624,-180.631C373.006,-171.491 401.468,-158.071 423.243,-147.802"/>
<polygon fill="midnightblue" stroke="midnightblue" points="424.868,-150.906 432.42,-143.475 421.882,-144.574 424.868,-150.906"/>
</g>
<!-- Node10 -->
<g id="node22" class="node"><title>Node10</title>
<polygon fill="none" stroke="#bfbfbf" points="503.17,-120.695 503.17,-143.305 570.099,-143.305 570.099,-120.695 503.17,-120.695"/>
<text text-anchor="middle" x="536.634" y="-128.305" font-family="Futura" font-size="11.00">portmidi.h</text>
</g>
<!-- Node1&#45;&gt;Node10 -->
<g id="edge24" class="edge"><title>Node1&#45;&gt;Node10</title>
<path fill="none" stroke="midnightblue" d="M368.284,-180.631C403.234,-170.743 455.896,-155.843 492.996,-145.347"/>
<polygon fill="midnightblue" stroke="midnightblue" points="494.35,-148.601 503.019,-142.511 492.444,-141.865 494.35,-148.601"/>
</g>
<!-- Node2&#45;&gt;Node3 -->
<g id="edge4" class="edge"><title>Node2&#45;&gt;Node3</title>
<path fill="none" stroke="midnightblue" d="M77.4511,-120.686C33.5614,-109.786 -17.8378,-89.9786 6.63431,-60 30.0964,-31.2587 136.523,-19.6261 196.036,-15.3044"/>
<polygon fill="midnightblue" stroke="midnightblue" points="196.485,-18.7818 206.221,-14.6028 196.004,-11.7984 196.485,-18.7818"/>
</g>
<!-- Node4 -->
<g id="node7" class="node"><title>Node4</title>
<a xlink:href="pair_8h.html" target="_top" xlink:title="fae/pair.h">
<polygon fill="none" stroke="red" points="203.285,-60.6953 203.285,-83.3047 269.983,-83.3047 269.983,-60.6953 203.285,-60.6953"/>
<text text-anchor="middle" x="236.634" y="-68.3047" font-family="Futura" font-size="11.00">fae/pair.h</text>
</a>
</g>
<!-- Node2&#45;&gt;Node4 -->
<g id="edge6" class="edge"><title>Node2&#45;&gt;Node4</title>
<path fill="none" stroke="midnightblue" d="M149.585,-120.631C165.989,-111.655 189.938,-98.5506 208.566,-88.3579"/>
<polygon fill="midnightblue" stroke="midnightblue" points="210.398,-91.3456 217.49,-83.475 207.038,-85.2048 210.398,-91.3456"/>
</g>
<!-- Node5 -->
<g id="node10" class="node"><title>Node5</title>
<a xlink:href="device_8h.html" target="_top" xlink:title="fae/device.h">
<polygon fill="none" stroke="red" points="15.9717,-60.6953 15.9717,-83.3047 95.2969,-83.3047 95.2969,-60.6953 15.9717,-60.6953"/>
<text text-anchor="middle" x="55.6343" y="-68.3047" font-family="Futura" font-size="11.00">fae/device.h</text>
</a>
</g>
<!-- Node2&#45;&gt;Node5 -->
<g id="edge10" class="edge"><title>Node2&#45;&gt;Node5</title>
<path fill="none" stroke="midnightblue" d="M117.226,-120.631C106.096,-112.024 90.0577,-99.6207 77.137,-89.6288"/>
<polygon fill="midnightblue" stroke="midnightblue" points="79.2313,-86.8238 69.1796,-83.475 74.949,-92.3612 79.2313,-86.8238"/>
</g>
<!-- Node6 -->
<g id="node12" class="node"><title>Node6</title>
<a xlink:href="error_8h.html" target="_top" xlink:title="fae/error.h">
<polygon fill="none" stroke="red" points="113.753,-60.6953 113.753,-83.3047 185.516,-83.3047 185.516,-60.6953 113.753,-60.6953"/>
<text text-anchor="middle" x="149.634" y="-68.3047" font-family="Futura" font-size="11.00">fae/error.h</text>
</a>
</g>
<!-- Node2&#45;&gt;Node6 -->
<g id="edge12" class="edge"><title>Node2&#45;&gt;Node6</title>
<path fill="none" stroke="midnightblue" d="M134.031,-120.631C136.513,-113.055 139.958,-102.538 142.98,-93.3126"/>
<polygon fill="midnightblue" stroke="midnightblue" points="146.351,-94.2646 146.138,-83.6719 139.699,-92.0854 146.351,-94.2646"/>
</g>
<!-- Node4&#45;&gt;Node3 -->
<g id="edge8" class="edge"><title>Node4&#45;&gt;Node3</title>
<path fill="none" stroke="midnightblue" d="M236.634,-60.6308C236.634,-53.218 236.634,-42.9888 236.634,-33.9096"/>
<polygon fill="midnightblue" stroke="midnightblue" points="240.134,-33.6718 236.634,-23.6719 233.134,-33.6719 240.134,-33.6718"/>
</g>
<!-- Node7&#45;&gt;Node4 -->
<g id="edge16" class="edge"><title>Node7&#45;&gt;Node4</title>
<path fill="none" stroke="midnightblue" d="M235.813,-120.631C235.941,-113.218 236.117,-102.989 236.274,-93.9096"/>
<polygon fill="midnightblue" stroke="midnightblue" points="239.777,-93.7308 236.45,-83.6719 232.778,-93.61 239.777,-93.7308"/>
</g>
</g>
</svg>
