<?xml version="1.0" encoding="UTF-8" standalone="no"?>
<!DOCTYPE svg PUBLIC "-//W3C//DTD SVG 1.1//EN"
 "http://www.w3.org/Graphics/SVG/1.1/DTD/svg11.dtd">
<!-- Generated by graphviz version 2.28.0 (20121015.0031)
 -->
<!-- Title: src/doremir/device_osx.c Pages: 1 -->
<svg width="975pt" height="226pt"
 viewBox="0.00 0.00 975.00 226.00" xmlns="http://www.w3.org/2000/svg" xmlns:xlink="http://www.w3.org/1999/xlink">
<g id="graph1" class="graph" transform="scale(1 1) rotate(0) translate(4 222)">
<title>src/doremir/device_osx.c</title>
<!-- Node1 -->
<g id="node1" class="node"><title>Node1</title>
<polygon fill="#bfbfbf" stroke="black" points="410.953,-180.391 410.953,-217.609 523.047,-217.609 523.047,-180.391 410.953,-180.391"/>
<text text-anchor="start" x="418.953" y="-202.609" font-family="Futura" font-size="11.00">src/doremir/device</text>
<text text-anchor="middle" x="467" y="-188" font-family="Futura" font-size="11.00">_osx.c</text>
</g>
<!-- Node2 -->
<g id="node3" class="node"><title>Node2</title>
<a xlink:href="audio_8h.html" target="_top" xlink:title="doremir/device/audio.h">
<polygon fill="none" stroke="red" points="-0.166992,-120.695 -0.166992,-143.305 136.167,-143.305 136.167,-120.695 -0.166992,-120.695"/>
<text text-anchor="middle" x="68" y="-128.305" font-family="Futura" font-size="11.00">doremir/device/audio.h</text>
</a>
</g>
<!-- Node1&#45;&gt;Node2 -->
<g id="edge2" class="edge"><title>Node1&#45;&gt;Node2</title>
<path fill="none" stroke="midnightblue" d="M410.679,-188.825C340.164,-177.338 219.208,-157.633 141.476,-144.97"/>
<polygon fill="midnightblue" stroke="midnightblue" points="141.709,-141.462 131.276,-143.308 140.583,-148.371 141.709,-141.462"/>
</g>
<!-- Node5 -->
<g id="node10" class="node"><title>Node5</title>
<a xlink:href="device_2midi_8h.html" target="_top" xlink:title="doremir/device/midi.h">
<polygon fill="none" stroke="red" points="153.714,-120.695 153.714,-143.305 282.286,-143.305 282.286,-120.695 153.714,-120.695"/>
<text text-anchor="middle" x="218" y="-128.305" font-family="Futura" font-size="11.00">doremir/device/midi.h</text>
</a>
</g>
<!-- Node1&#45;&gt;Node5 -->
<g id="edge10" class="edge"><title>Node1&#45;&gt;Node5</title>
<path fill="none" stroke="midnightblue" d="M410.809,-183.332C367.743,-172.089 308.882,-156.724 267.561,-145.938"/>
<polygon fill="midnightblue" stroke="midnightblue" points="268.276,-142.507 257.717,-143.368 266.508,-149.28 268.276,-142.507"/>
</g>
<!-- Node6 -->
<g id="node14" class="node"><title>Node6</title>
<a xlink:href="string_8h.html" target="_top" xlink:title="doremir/string.h">
<polygon fill="none" stroke="red" points="300.44,-120.695 300.44,-143.305 397.56,-143.305 397.56,-120.695 300.44,-120.695"/>
<text text-anchor="middle" x="349" y="-128.305" font-family="Futura" font-size="11.00">doremir/string.h</text>
</a>
</g>
<!-- Node1&#45;&gt;Node6 -->
<g id="edge16" class="edge"><title>Node1&#45;&gt;Node6</title>
<path fill="none" stroke="midnightblue" d="M434.756,-180.238C416.677,-170.28 394.346,-157.979 377.005,-148.426"/>
<polygon fill="midnightblue" stroke="midnightblue" points="378.39,-145.194 367.942,-143.434 375.013,-151.325 378.39,-145.194"/>
</g>
<!-- Node7 -->
<g id="node16" class="node"><title>Node7</title>
<a xlink:href="thread_8h.html" target="_top" xlink:title="doremir/thread.h">
<polygon fill="none" stroke="red" points="415.706,-120.695 415.706,-143.305 518.294,-143.305 518.294,-120.695 415.706,-120.695"/>
<text text-anchor="middle" x="467" y="-128.305" font-family="Futura" font-size="11.00">doremir/thread.h</text>
</a>
</g>
<!-- Node1&#45;&gt;Node7 -->
<g id="edge18" class="edge"><title>Node1&#45;&gt;Node7</title>
<path fill="none" stroke="midnightblue" d="M467,-180.238C467,-172.084 467,-162.359 467,-153.859"/>
<polygon fill="midnightblue" stroke="midnightblue" points="470.5,-153.624 467,-143.624 463.5,-153.624 470.5,-153.624"/>
</g>
<!-- Node8 -->
<g id="node18" class="node"><title>Node8</title>
<a xlink:href="util_8h.html" target="_top" xlink:title="doremir/util.h">
<polygon fill="none" stroke="red" points="536.754,-120.695 536.754,-143.305 621.246,-143.305 621.246,-120.695 536.754,-120.695"/>
<text text-anchor="middle" x="579" y="-128.305" font-family="Futura" font-size="11.00">doremir/util.h</text>
</a>
</g>
<!-- Node1&#45;&gt;Node8 -->
<g id="edge20" class="edge"><title>Node1&#45;&gt;Node8</title>
<path fill="none" stroke="midnightblue" d="M497.604,-180.238C514.605,-170.372 535.567,-158.207 551.961,-148.692"/>
<polygon fill="midnightblue" stroke="midnightblue" points="554.129,-151.481 561.021,-143.434 550.615,-145.427 554.129,-151.481"/>
</g>
<!-- Node9 -->
<g id="node20" class="node"><title>Node9</title>
<polygon fill="none" stroke="#bfbfbf" points="638.96,-120.695 638.96,-143.305 805.04,-143.305 805.04,-120.695 638.96,-120.695"/>
<text text-anchor="middle" x="722" y="-128.305" font-family="Futura" font-size="11.00">CoreAudio/AudioHardware.h</text>
</g>
<!-- Node1&#45;&gt;Node9 -->
<g id="edge22" class="edge"><title>Node1&#45;&gt;Node9</title>
<path fill="none" stroke="midnightblue" d="M523.277,-183.655C567.542,-172.372 628.671,-156.79 671.403,-145.897"/>
<polygon fill="midnightblue" stroke="midnightblue" points="672.481,-149.234 681.307,-143.373 670.752,-142.451 672.481,-149.234"/>
</g>
<!-- Node10 -->
<g id="node22" class="node"><title>Node10</title>
<polygon fill="none" stroke="#bfbfbf" points="822.794,-120.695 822.794,-143.305 967.206,-143.305 967.206,-120.695 822.794,-120.695"/>
<text text-anchor="middle" x="895" y="-128.305" font-family="Futura" font-size="11.00">CoreMidi/MIDIServices.h</text>
</g>
<!-- Node1&#45;&gt;Node10 -->
<g id="edge24" class="edge"><title>Node1&#45;&gt;Node10</title>
<path fill="none" stroke="midnightblue" d="M523.394,-189.436C598.538,-178.023 731.861,-157.776 816.715,-144.889"/>
<polygon fill="midnightblue" stroke="midnightblue" points="817.455,-148.317 826.816,-143.355 816.404,-141.396 817.455,-148.317"/>
</g>
<!-- Node3 -->
<g id="node5" class="node"><title>Node3</title>
<a xlink:href="list_8h.html" target="_top" xlink:title="doremir/list.h">
<polygon fill="none" stroke="red" points="101.519,-0.695312 101.519,-23.3047 184.481,-23.3047 184.481,-0.695312 101.519,-0.695312"/>
<text text-anchor="middle" x="143" y="-8.30469" font-family="Futura" font-size="11.00">doremir/list.h</text>
</a>
</g>
<!-- Node2&#45;&gt;Node3 -->
<g id="edge4" class="edge"><title>Node2&#45;&gt;Node3</title>
<path fill="none" stroke="midnightblue" d="M69.2161,-120.604C71.3106,-106.056 76.632,-79.2498 89,-60 96.558,-48.2365 107.902,-37.7354 118.244,-29.659"/>
<polygon fill="midnightblue" stroke="midnightblue" points="120.643,-32.2378 126.591,-23.4705 116.474,-26.6146 120.643,-32.2378"/>
</g>
<!-- Node4 -->
<g id="node7" class="node"><title>Node4</title>
<a xlink:href="pair_8h.html" target="_top" xlink:title="doremir/pair.h">
<polygon fill="none" stroke="red" points="98.2644,-60.6953 98.2644,-83.3047 187.736,-83.3047 187.736,-60.6953 98.2644,-60.6953"/>
<text text-anchor="middle" x="143" y="-68.3047" font-family="Futura" font-size="11.00">doremir/pair.h</text>
</a>
</g>
<!-- Node2&#45;&gt;Node4 -->
<g id="edge6" class="edge"><title>Node2&#45;&gt;Node4</title>
<path fill="none" stroke="midnightblue" d="M81.4085,-120.631C92.5378,-112.024 108.577,-99.6207 121.497,-89.6288"/>
<polygon fill="midnightblue" stroke="midnightblue" points="123.685,-92.3612 129.455,-83.475 119.403,-86.8238 123.685,-92.3612"/>
</g>
<!-- Node4&#45;&gt;Node3 -->
<g id="edge8" class="edge"><title>Node4&#45;&gt;Node3</title>
<path fill="none" stroke="midnightblue" d="M143,-60.6308C143,-53.218 143,-42.9888 143,-33.9096"/>
<polygon fill="midnightblue" stroke="midnightblue" points="146.5,-33.6718 143,-23.6719 139.5,-33.6719 146.5,-33.6718"/>
</g>
<!-- Node5&#45;&gt;Node3 -->
<g id="edge12" class="edge"><title>Node5&#45;&gt;Node3</title>
<path fill="none" stroke="midnightblue" d="M216.585,-120.619C214.224,-106.088 208.451,-79.3025 196,-60 188.5,-48.3736 177.357,-37.8891 167.22,-29.7882"/>
<polygon fill="midnightblue" stroke="midnightblue" points="169.123,-26.8383 159.045,-23.5713 164.886,-32.4103 169.123,-26.8383"/>
</g>
<!-- Node5&#45;&gt;Node4 -->
<g id="edge14" class="edge"><title>Node5&#45;&gt;Node4</title>
<path fill="none" stroke="midnightblue" d="M204.592,-120.631C193.462,-112.024 177.423,-99.6207 164.503,-89.6288"/>
<polygon fill="midnightblue" stroke="midnightblue" points="166.597,-86.8238 156.545,-83.475 162.315,-92.3612 166.597,-86.8238"/>
</g>
</g>
</svg>
