<?xml version="1.0" encoding="UTF-8" standalone="no"?>
<!DOCTYPE svg PUBLIC "-//W3C//DTD SVG 1.1//EN"
 "http://www.w3.org/Graphics/SVG/1.1/DTD/svg11.dtd">
<!-- Generated by graphviz version 2.28.0 (20121015.0031)
 -->
<!-- Title: src/fae/device Pages: 1 -->
<svg width="94pt" height="154pt"
 viewBox="0.00 0.00 94.00 154.00" xmlns="http://www.w3.org/2000/svg" xmlns:xlink="http://www.w3.org/1999/xlink">
<g id="graph1" class="graph" transform="scale(1 1) rotate(0) translate(4 150)">
<title>src/fae/device</title>
<g id="graph2" class="cluster"><title>clusterdir_b2fa8b1b41d9767cc2106bf0a5be9954</title>
<a xlink:href="dir_b2fa8b1b41d9767cc2106bf0a5be9954.html" target="_top" xlink:title="fae">
<polygon fill="#ddddee" stroke="black" points="8,-64 8,-138 78,-138 78,-64 8,-64"/>
<text text-anchor="middle" x="43" y="-123" font-family="Futura" font-size="11.00">fae</text>
</a>
</g>
<!-- dir_d32d4553c1fbd8bb93de0e32c024802c -->
<g id="node2" class="node"><title>dir_d32d4553c1fbd8bb93de0e32c024802c</title>
<a xlink:href="dir_d32d4553c1fbd8bb93de0e32c024802c.html" target="_top" xlink:title="device">
<polygon fill="#eeeeff" stroke="black" points="70,-108 16,-108 16,-72 70,-72 70,-108"/>
<text text-anchor="middle" x="43" y="-86.3047" font-family="Futura" font-size="11.00">device</text>
</a>
</g>
<!-- dir_d44c64559bbebec7f509842c48db8b23 -->
<g id="node3" class="node"><title>dir_d44c64559bbebec7f509842c48db8b23</title>
<a xlink:href="dir_d44c64559bbebec7f509842c48db8b23.html" target="_top" xlink:title="include">
<polygon fill="none" stroke="red" points="70,-36 16,-36 16,-0 70,-0 70,-36"/>
<text text-anchor="middle" x="43" y="-14.3047" font-family="Futura" font-size="11.00">include</text>
</a>
</g>
<!-- dir_d32d4553c1fbd8bb93de0e32c024802c&#45;&gt;dir_d44c64559bbebec7f509842c48db8b23 -->
<g id="edge3" class="edge"><title>dir_d32d4553c1fbd8bb93de0e32c024802c&#45;&gt;dir_d44c64559bbebec7f509842c48db8b23</title>
<path fill="none" stroke="black" d="M43,-71.6966C43,-63.9827 43,-54.7125 43,-46.1124"/>
<polygon fill="black" stroke="black" points="46.5001,-46.1043 43,-36.1043 39.5001,-46.1044 46.5001,-46.1043"/>
<a xlink:href="dir_000014_000000.html" target="_top" xlink:title="9">
<text text-anchor="middle" x="49.3393" y="-46.0036" font-family="Futura" font-size="11.00">9</text>
</a>
</g>
</g>
</svg>
