<?xml version="1.0" encoding="UTF-8" standalone="no"?>
<!DOCTYPE svg PUBLIC "-//W3C//DTD SVG 1.1//EN"
 "http://www.w3.org/Graphics/SVG/1.1/DTD/svg11.dtd">
<!-- Generated by graphviz version 2.28.0 (20121015.0031)
 -->
<!-- Title: include/doremir Pages: 1 -->
<svg width="552pt" height="114pt"
 viewBox="0.00 0.00 552.00 114.00" xmlns="http://www.w3.org/2000/svg" xmlns:xlink="http://www.w3.org/1999/xlink">
<g id="graph1" class="graph" transform="scale(1 1) rotate(0) translate(4 110)">
<title>include/doremir</title>
<g id="graph2" class="cluster"><title>clusterdir_d44c64559bbebec7f509842c48db8b23</title>
<a xlink:href="dir_d44c64559bbebec7f509842c48db8b23.html" target="_top" xlink:title="include">
<polygon fill="#ddddee" stroke="black" points="8,-8 8,-98 536,-98 536,-8 8,-8"/>
<text text-anchor="middle" x="272" y="-83" font-family="Futura" font-size="11.00">include</text>
</a>
</g>
<g id="graph3" class="cluster"><title>clusterdir_4a54249f735c3efa85863546f8e7cebb</title>
<a xlink:href="dir_4a54249f735c3efa85863546f8e7cebb.html" target="_top">
<polygon fill="#eeeeff" stroke="black" points="16,-16 16,-68 528,-68 528,-16 16,-16"/>
</a>
</g>
<!-- dir_4a54249f735c3efa85863546f8e7cebb -->
<g id="node3" class="node"><title>dir_4a54249f735c3efa85863546f8e7cebb</title>
<text text-anchor="middle" x="493" y="-38.3047" font-family="Futura" font-size="11.00">doremir</text>
</g>
<!-- dir_98e1a6911844c5fd67b70a0905c0c33f -->
<g id="node4" class="node"><title>dir_98e1a6911844c5fd67b70a0905c0c33f</title>
<a xlink:href="dir_98e1a6911844c5fd67b70a0905c0c33f.html" target="_top" xlink:title="atomic">
<polygon fill="white" stroke="black" points="448,-60 394,-60 394,-24 448,-24 448,-60"/>
<text text-anchor="middle" x="421" y="-38.3047" font-family="Futura" font-size="11.00">atomic</text>
</a>
</g>
<!-- dir_1482d34f73dbdc9a8b79b0373e95141e -->
<g id="node5" class="node"><title>dir_1482d34f73dbdc9a8b79b0373e95141e</title>
<a xlink:href="dir_1482d34f73dbdc9a8b79b0373e95141e.html" target="_top" xlink:title="device">
<polygon fill="white" stroke="black" points="376,-60 322,-60 322,-24 376,-24 376,-60"/>
<text text-anchor="middle" x="349" y="-38.3047" font-family="Futura" font-size="11.00">device</text>
</a>
</g>
<!-- dir_df1f23438851ea41391bd2b9fa461a2a -->
<g id="node6" class="node"><title>dir_df1f23438851ea41391bd2b9fa461a2a</title>
<a xlink:href="dir_df1f23438851ea41391bd2b9fa461a2a.html" target="_top" xlink:title="processor">
<polygon fill="white" stroke="black" points="304.154,-60 239.846,-60 239.846,-24 304.154,-24 304.154,-60"/>
<text text-anchor="middle" x="272" y="-38.3047" font-family="Futura" font-size="11.00">processor</text>
</a>
</g>
<!-- dir_6b59960616ac570a500a9caaa36e3fbf -->
<g id="node7" class="node"><title>dir_6b59960616ac570a500a9caaa36e3fbf</title>
<a xlink:href="dir_6b59960616ac570a500a9caaa36e3fbf.html" target="_top" xlink:title="string">
<polygon fill="white" stroke="black" points="222,-60 168,-60 168,-24 222,-24 222,-60"/>
<text text-anchor="middle" x="195" y="-38.3047" font-family="Futura" font-size="11.00">string</text>
</a>
</g>
<!-- dir_0fb41b151be9ad0c3158fa001ca86820 -->
<g id="node8" class="node"><title>dir_0fb41b151be9ad0c3158fa001ca86820</title>
<a xlink:href="dir_0fb41b151be9ad0c3158fa001ca86820.html" target="_top" xlink:title="thread">
<polygon fill="white" stroke="black" points="150,-60 96,-60 96,-24 150,-24 150,-60"/>
<text text-anchor="middle" x="123" y="-38.3047" font-family="Futura" font-size="11.00">thread</text>
</a>
</g>
<!-- dir_1eb71ee1288576b6d6a049001ecebb49 -->
<g id="node9" class="node"><title>dir_1eb71ee1288576b6d6a049001ecebb49</title>
<a xlink:href="dir_1eb71ee1288576b6d6a049001ecebb49.html" target="_top" xlink:title="util">
<polygon fill="white" stroke="black" points="78,-60 24,-60 24,-24 78,-24 78,-60"/>
<text text-anchor="middle" x="51" y="-38.3047" font-family="Futura" font-size="11.00">util</text>
</a>
</g>
</g>
</svg>
