<?xml version="1.0" encoding="UTF-8" standalone="no"?>
<!DOCTYPE svg PUBLIC "-//W3C//DTD SVG 1.1//EN"
 "http://www.w3.org/Graphics/SVG/1.1/DTD/svg11.dtd">
<!-- Generated by graphviz version 2.28.0 (20121015.0031)
 -->
<!-- Title: src/fae Pages: 1 -->
<svg width="326pt" height="234pt"
 viewBox="0.00 0.00 326.00 234.00" xmlns="http://www.w3.org/2000/svg" xmlns:xlink="http://www.w3.org/1999/xlink">
<g id="graph1" class="graph" transform="scale(1 1) rotate(0) translate(4 230)">
<title>src/fae</title>
<g id="graph2" class="cluster"><title>clusterdir_68267d1309a1af8e8297ef4c3efbcdba</title>
<a xlink:href="dir_68267d1309a1af8e8297ef4c3efbcdba.html" target="_top" xlink:title="src">
<polygon fill="#ddddee" stroke="black" points="8,-56 8,-218 310,-218 310,-56 8,-56"/>
<text text-anchor="middle" x="159" y="-203" font-family="Futura" font-size="11.00">src</text>
</a>
</g>
<g id="graph3" class="cluster"><title>clusterdir_b2fa8b1b41d9767cc2106bf0a5be9954</title>
<a xlink:href="dir_b2fa8b1b41d9767cc2106bf0a5be9954.html" target="_top">
<polygon fill="#eeeeff" stroke="black" points="16,-64 16,-188 302,-188 302,-64 16,-64"/>
</a>
</g>
<!-- dir_b2fa8b1b41d9767cc2106bf0a5be9954 -->
<g id="node3" class="node"><title>dir_b2fa8b1b41d9767cc2106bf0a5be9954</title>
<text text-anchor="middle" x="51" y="-158.305" font-family="Futura" font-size="11.00">fae</text>
</g>
<!-- dir_2b1f25c21f52c06faf0fe637878f919e -->
<g id="node7" class="node"><title>dir_2b1f25c21f52c06faf0fe637878f919e</title>
<a xlink:href="dir_2b1f25c21f52c06faf0fe637878f919e.html" target="_top" xlink:title="string">
<polygon fill="white" stroke="black" points="90,-108 36,-108 36,-72 90,-72 90,-108"/>
<text text-anchor="middle" x="63" y="-86.3047" font-family="Futura" font-size="11.00">string</text>
</a>
</g>
<!-- dir_b2fa8b1b41d9767cc2106bf0a5be9954&#45;&gt;dir_2b1f25c21f52c06faf0fe637878f919e -->
<g id="edge8" class="edge"><title>dir_b2fa8b1b41d9767cc2106bf0a5be9954&#45;&gt;dir_2b1f25c21f52c06faf0fe637878f919e</title>
<path fill="none" stroke="black" d="M53.9663,-143.697C55.2887,-135.983 56.8779,-126.712 58.3522,-118.112"/>
<polygon fill="black" stroke="black" points="61.8278,-118.552 60.0678,-108.104 54.9284,-117.369 61.8278,-118.552"/>
<a xlink:href="dir_000014_000021.html" target="_top" xlink:title="2">
<text text-anchor="middle" x="64.019" y="-118.879" font-family="Futura" font-size="11.00">2</text>
</a>
</g>
<!-- dir_9b1b5ff136ea6d4b1b2242beda0f0238 -->
<g id="node4" class="node"><title>dir_9b1b5ff136ea6d4b1b2242beda0f0238</title>
<a xlink:href="dir_9b1b5ff136ea6d4b1b2242beda0f0238.html" target="_top" xlink:title="atomic">
<polygon fill="white" stroke="black" points="150,-180 96,-180 96,-144 150,-144 150,-180"/>
<text text-anchor="middle" x="123" y="-158.305" font-family="Futura" font-size="11.00">atomic</text>
</a>
</g>
<!-- dir_d44c64559bbebec7f509842c48db8b23 -->
<g id="node8" class="node"><title>dir_d44c64559bbebec7f509842c48db8b23</title>
<a xlink:href="dir_d44c64559bbebec7f509842c48db8b23.html" target="_top" xlink:title="include">
<polygon fill="none" stroke="red" points="185,-36 131,-36 131,-0 185,-0 185,-36"/>
<text text-anchor="middle" x="158" y="-14.3047" font-family="Futura" font-size="11.00">include</text>
</a>
</g>
<!-- dir_9b1b5ff136ea6d4b1b2242beda0f0238&#45;&gt;dir_d44c64559bbebec7f509842c48db8b23 -->
<g id="edge4" class="edge"><title>dir_9b1b5ff136ea6d4b1b2242beda0f0238&#45;&gt;dir_d44c64559bbebec7f509842c48db8b23</title>
<path fill="none" stroke="black" d="M127.222,-143.871C133.213,-119.564 144.242,-74.8187 151.342,-46.0132"/>
<polygon fill="black" stroke="black" points="154.768,-46.7363 153.763,-36.1893 147.972,-45.061 154.768,-46.7363"/>
<a xlink:href="dir_000015_000000.html" target="_top" xlink:title="11">
<text text-anchor="middle" x="156.665" y="-47.2106" font-family="Futura" font-size="11.00">11</text>
</a>
</g>
<!-- dir_d32d4553c1fbd8bb93de0e32c024802c -->
<g id="node5" class="node"><title>dir_d32d4553c1fbd8bb93de0e32c024802c</title>
<a xlink:href="dir_d32d4553c1fbd8bb93de0e32c024802c.html" target="_top" xlink:title="device">
<polygon fill="white" stroke="black" points="222,-180 168,-180 168,-144 222,-144 222,-180"/>
<text text-anchor="middle" x="195" y="-158.305" font-family="Futura" font-size="11.00">device</text>
</a>
</g>
<!-- dir_d32d4553c1fbd8bb93de0e32c024802c&#45;&gt;dir_d44c64559bbebec7f509842c48db8b23 -->
<g id="edge12" class="edge"><title>dir_d32d4553c1fbd8bb93de0e32c024802c&#45;&gt;dir_d44c64559bbebec7f509842c48db8b23</title>
<path fill="none" stroke="black" d="M190.537,-143.871C184.203,-119.564 172.544,-74.8187 165.039,-46.0132"/>
<polygon fill="black" stroke="black" points="168.387,-44.9836 162.479,-36.1893 161.613,-46.7487 168.387,-44.9836"/>
<a xlink:href="dir_000016_000000.html" target="_top" xlink:title="5">
<text text-anchor="middle" x="172.041" y="-44.0509" font-family="Futura" font-size="11.00">5</text>
</a>
</g>
<!-- dir_5654deda84a3322fec4968e89dc5af42 -->
<g id="node6" class="node"><title>dir_5654deda84a3322fec4968e89dc5af42</title>
<a xlink:href="dir_5654deda84a3322fec4968e89dc5af42.html" target="_top" xlink:title="plot">
<polygon fill="white" stroke="black" points="294,-180 240,-180 240,-144 294,-144 294,-180"/>
<text text-anchor="middle" x="267" y="-158.305" font-family="Futura" font-size="11.00">plot</text>
</a>
</g>
<!-- dir_5654deda84a3322fec4968e89dc5af42&#45;&gt;dir_d44c64559bbebec7f509842c48db8b23 -->
<g id="edge10" class="edge"><title>dir_5654deda84a3322fec4968e89dc5af42&#45;&gt;dir_d44c64559bbebec7f509842c48db8b23</title>
<path fill="none" stroke="black" d="M254.604,-143.672C239.466,-122.663 212.917,-86.3033 189,-56 185.917,-52.0942 182.597,-48.0098 179.315,-44.0398"/>
<polygon fill="black" stroke="black" points="181.818,-41.5764 172.721,-36.1453 176.445,-46.0639 181.818,-41.5764"/>
<a xlink:href="dir_000017_000000.html" target="_top" xlink:title="4">
<text text-anchor="middle" x="186.301" y="-38.8198" font-family="Futura" font-size="11.00">4</text>
</a>
</g>
<!-- dir_2b1f25c21f52c06faf0fe637878f919e&#45;&gt;dir_d44c64559bbebec7f509842c48db8b23 -->
<g id="edge6" class="edge"><title>dir_2b1f25c21f52c06faf0fe637878f919e&#45;&gt;dir_d44c64559bbebec7f509842c48db8b23</title>
<path fill="none" stroke="black" d="M77.2622,-71.9357C82.2495,-66.5012 88.0871,-60.6885 94,-56 102.535,-49.232 112.446,-42.8847 121.882,-37.4231"/>
<polygon fill="black" stroke="black" points="123.707,-40.4126 130.723,-32.4733 120.287,-34.3047 123.707,-40.4126"/>
<a xlink:href="dir_000021_000000.html" target="_top" xlink:title="2">
<text text-anchor="middle" x="121.958" y="-40.9507" font-family="Futura" font-size="11.00">2</text>
</a>
</g>
</g>
</svg>
