<?xml version="1.0" encoding="UTF-8" standalone="no"?>
<!DOCTYPE svg PUBLIC "-//W3C//DTD SVG 1.1//EN"
 "http://www.w3.org/Graphics/SVG/1.1/DTD/svg11.dtd">
<!-- Generated by graphviz version 2.28.0 (20121015.0031)
 -->
<!-- Title: src/platform/macosx Pages: 1 -->
<svg width="182pt" height="162pt"
 viewBox="0.00 0.00 182.00 162.00" xmlns="http://www.w3.org/2000/svg" xmlns:xlink="http://www.w3.org/1999/xlink">
<g id="graph1" class="graph" transform="scale(1 1) rotate(0) translate(4 158)">
<title>src/platform/macosx</title>
<g id="graph2" class="cluster"><title>clusterdir_4b68c2fef3e151b6b93d5e93b14f1857</title>
<a xlink:href="dir_4b68c2fef3e151b6b93d5e93b14f1857.html" target="_top" xlink:title="platform">
<polygon fill="#ddddee" stroke="black" points="8,-56 8,-146 166,-146 166,-56 8,-56"/>
<text text-anchor="middle" x="87" y="-131" font-family="Futura" font-size="11.00">platform</text>
</a>
</g>
<g id="graph3" class="cluster"><title>clusterdir_6dee117f9ffa4a96e3a3c951e0201a55</title>
<a xlink:href="dir_6dee117f9ffa4a96e3a3c951e0201a55.html" target="_top">
<polygon fill="#eeeeff" stroke="black" points="16,-64 16,-116 158,-116 158,-64 16,-64"/>
</a>
</g>
<!-- dir_6dee117f9ffa4a96e3a3c951e0201a55 -->
<g id="node3" class="node"><title>dir_6dee117f9ffa4a96e3a3c951e0201a55</title>
<text text-anchor="middle" x="123" y="-86.3047" font-family="Futura" font-size="11.00">macosx</text>
</g>
<!-- dir_2c7221576e9873fb6fd6ac3356063b9f -->
<g id="node4" class="node"><title>dir_2c7221576e9873fb6fd6ac3356063b9f</title>
<a xlink:href="dir_2c7221576e9873fb6fd6ac3356063b9f.html" target="_top" xlink:title="fae">
<polygon fill="white" stroke="red" points="78,-108 24,-108 24,-72 78,-72 78,-108"/>
<text text-anchor="middle" x="51" y="-86.3047" font-family="Futura" font-size="11.00">fae</text>
</a>
</g>
<!-- dir_d44c64559bbebec7f509842c48db8b23 -->
<g id="node5" class="node"><title>dir_d44c64559bbebec7f509842c48db8b23</title>
<a xlink:href="dir_d44c64559bbebec7f509842c48db8b23.html" target="_top" xlink:title="include">
<polygon fill="none" stroke="red" points="78,-36 24,-36 24,-0 78,-0 78,-36"/>
<text text-anchor="middle" x="51" y="-14.3047" font-family="Futura" font-size="11.00">include</text>
</a>
</g>
<!-- dir_2c7221576e9873fb6fd6ac3356063b9f&#45;&gt;dir_d44c64559bbebec7f509842c48db8b23 -->
<g id="edge4" class="edge"><title>dir_2c7221576e9873fb6fd6ac3356063b9f&#45;&gt;dir_d44c64559bbebec7f509842c48db8b23</title>
<path fill="none" stroke="black" d="M51,-71.6966C51,-63.9827 51,-54.7125 51,-46.1124"/>
<polygon fill="black" stroke="black" points="54.5001,-46.1043 51,-36.1043 47.5001,-46.1044 54.5001,-46.1043"/>
<a xlink:href="dir_000020_000000.html" target="_top" xlink:title="22">
<text text-anchor="middle" x="57.3393" y="-46.0036" font-family="Futura" font-size="11.00">22</text>
</a>
</g>
</g>
</svg>
