<?xml version="1.0" encoding="UTF-8" standalone="no"?>
<!DOCTYPE svg PUBLIC "-//W3C//DTD SVG 1.1//EN"
 "http://www.w3.org/Graphics/SVG/1.1/DTD/svg11.dtd">
<!-- Generated by graphviz version 2.28.0 (20121015.0031)
 -->
<!-- Title: src/platform Pages: 1 -->
<svg width="264pt" height="162pt"
 viewBox="0.00 0.00 264.00 162.00" xmlns="http://www.w3.org/2000/svg" xmlns:xlink="http://www.w3.org/1999/xlink">
<g id="graph1" class="graph" transform="scale(1 1) rotate(0) translate(4 158)">
<title>src/platform</title>
<g id="graph2" class="cluster"><title>clusterdir_68267d1309a1af8e8297ef4c3efbcdba</title>
<a xlink:href="dir_68267d1309a1af8e8297ef4c3efbcdba.html" target="_top" xlink:title="src">
<polygon fill="#ddddee" stroke="black" points="8,-56 8,-146 248,-146 248,-56 8,-56"/>
<text text-anchor="middle" x="128" y="-131" font-family="Futura" font-size="11.00">src</text>
</a>
</g>
<g id="graph3" class="cluster"><title>clusterdir_4b68c2fef3e151b6b93d5e93b14f1857</title>
<a xlink:href="dir_4b68c2fef3e151b6b93d5e93b14f1857.html" target="_top">
<polygon fill="#eeeeff" stroke="black" points="16,-64 16,-116 240,-116 240,-64 16,-64"/>
</a>
</g>
<!-- dir_4b68c2fef3e151b6b93d5e93b14f1857 -->
<g id="node3" class="node"><title>dir_4b68c2fef3e151b6b93d5e93b14f1857</title>
<text text-anchor="middle" x="203" y="-86.3047" font-family="Futura" font-size="11.00">platform</text>
</g>
<!-- dir_6dee117f9ffa4a96e3a3c951e0201a55 -->
<g id="node4" class="node"><title>dir_6dee117f9ffa4a96e3a3c951e0201a55</title>
<a xlink:href="dir_6dee117f9ffa4a96e3a3c951e0201a55.html" target="_top" xlink:title="macosx">
<polygon fill="white" stroke="red" points="156,-108 102,-108 102,-72 156,-72 156,-108"/>
<text text-anchor="middle" x="129" y="-86.3047" font-family="Futura" font-size="11.00">macosx</text>
</a>
</g>
<!-- dir_d44c64559bbebec7f509842c48db8b23 -->
<g id="node6" class="node"><title>dir_d44c64559bbebec7f509842c48db8b23</title>
<a xlink:href="dir_d44c64559bbebec7f509842c48db8b23.html" target="_top" xlink:title="include">
<polygon fill="none" stroke="red" points="118,-36 64,-36 64,-0 118,-0 118,-36"/>
<text text-anchor="middle" x="91" y="-14.3047" font-family="Futura" font-size="11.00">include</text>
</a>
</g>
<!-- dir_6dee117f9ffa4a96e3a3c951e0201a55&#45;&gt;dir_d44c64559bbebec7f509842c48db8b23 -->
<g id="edge6" class="edge"><title>dir_6dee117f9ffa4a96e3a3c951e0201a55&#45;&gt;dir_d44c64559bbebec7f509842c48db8b23</title>
<path fill="none" stroke="black" d="M119.607,-71.6966C115.235,-63.6436 109.943,-53.8945 105.105,-44.9824"/>
<polygon fill="black" stroke="black" points="108.132,-43.223 100.285,-36.1043 101.98,-46.5627 108.132,-43.223"/>
<a xlink:href="dir_000017_000000.html" target="_top" xlink:title="22">
<text text-anchor="middle" x="112.342" y="-41.3323" font-family="Futura" font-size="11.00">22</text>
</a>
</g>
<!-- dir_972f138192ae14f23850fe4a6433774e -->
<g id="node5" class="node"><title>dir_972f138192ae14f23850fe4a6433774e</title>
<a xlink:href="dir_972f138192ae14f23850fe4a6433774e.html" target="_top" xlink:title="windows">
<polygon fill="white" stroke="red" points="83.4433,-108 24.5567,-108 24.5567,-72 83.4433,-72 83.4433,-108"/>
<text text-anchor="middle" x="54" y="-86.3047" font-family="Futura" font-size="11.00">windows</text>
</a>
</g>
<!-- dir_972f138192ae14f23850fe4a6433774e&#45;&gt;dir_d44c64559bbebec7f509842c48db8b23 -->
<g id="edge4" class="edge"><title>dir_972f138192ae14f23850fe4a6433774e&#45;&gt;dir_d44c64559bbebec7f509842c48db8b23</title>
<path fill="none" stroke="black" d="M63.1461,-71.6966C67.4026,-63.6436 72.5558,-53.8945 77.2664,-44.9824"/>
<polygon fill="black" stroke="black" points="80.3803,-46.5809 81.9591,-36.1043 74.1917,-43.3097 80.3803,-46.5809"/>
<a xlink:href="dir_000020_000000.html" target="_top" xlink:title="2">
<text text-anchor="middle" x="81.2108" y="-47.3903" font-family="Futura" font-size="11.00">2</text>
</a>
</g>
</g>
</svg>
