<?xml version="1.0" encoding="UTF-8" standalone="no"?>
<!DOCTYPE svg PUBLIC "-//W3C//DTD SVG 1.1//EN"
 "http://www.w3.org/Graphics/SVG/1.1/DTD/svg11.dtd">
<!-- Generated by graphviz version 2.28.0 (20121015.0031)
 -->
<!-- Title: modules/Fae Pages: 1 -->
<svg width="326pt" height="114pt"
 viewBox="0.00 0.00 326.00 114.00" xmlns="http://www.w3.org/2000/svg" xmlns:xlink="http://www.w3.org/1999/xlink">
<g id="graph1" class="graph" transform="scale(1 1) rotate(0) translate(4 110)">
<title>modules/Fae</title>
<g id="graph2" class="cluster"><title>clusterdir_e05d7e2b1ecd646af5bb94391405f3b5</title>
<a xlink:href="dir_e05d7e2b1ecd646af5bb94391405f3b5.html" target="_top" xlink:title="modules">
<polygon fill="#ddddee" stroke="black" points="8,-8 8,-98 310,-98 310,-8 8,-8"/>
<text text-anchor="middle" x="159" y="-83" font-family="Futura" font-size="11.00">modules</text>
</a>
</g>
<g id="graph3" class="cluster"><title>clusterdir_bdb789a5d376a178e5fe5b621e00930e</title>
<a xlink:href="dir_bdb789a5d376a178e5fe5b621e00930e.html" target="_top">
<polygon fill="#eeeeff" stroke="black" points="16,-16 16,-68 302,-68 302,-16 16,-16"/>
</a>
</g>
<!-- dir_bdb789a5d376a178e5fe5b621e00930e -->
<g id="node3" class="node"><title>dir_bdb789a5d376a178e5fe5b621e00930e</title>
<text text-anchor="middle" x="267" y="-38.3047" font-family="Futura" font-size="11.00">Fae</text>
</g>
<!-- dir_afca4a97ef65ff41257401991febfaf6 -->
<g id="node4" class="node"><title>dir_afca4a97ef65ff41257401991febfaf6</title>
<a xlink:href="dir_afca4a97ef65ff41257401991febfaf6.html" target="_top" xlink:title="Atomic">
<polygon fill="white" stroke="black" points="222,-60 168,-60 168,-24 222,-24 222,-60"/>
<text text-anchor="middle" x="195" y="-38.3047" font-family="Futura" font-size="11.00">Atomic</text>
</a>
</g>
<!-- dir_c9b4d7917ba93c041303d153d80df0f8 -->
<g id="node5" class="node"><title>dir_c9b4d7917ba93c041303d153d80df0f8</title>
<a xlink:href="dir_c9b4d7917ba93c041303d153d80df0f8.html" target="_top" xlink:title="Device">
<polygon fill="white" stroke="black" points="150,-60 96,-60 96,-24 150,-24 150,-60"/>
<text text-anchor="middle" x="123" y="-38.3047" font-family="Futura" font-size="11.00">Device</text>
</a>
</g>
<!-- dir_147f1332356cdca1e57a60657908af65 -->
<g id="node6" class="node"><title>dir_147f1332356cdca1e57a60657908af65</title>
<a xlink:href="dir_147f1332356cdca1e57a60657908af65.html" target="_top" xlink:title="System">
<polygon fill="white" stroke="black" points="78,-60 24,-60 24,-24 78,-24 78,-60"/>
<text text-anchor="middle" x="51" y="-38.3047" font-family="Futura" font-size="11.00">System</text>
</a>
</g>
</g>
</svg>
