<?xml version="1.0" encoding="UTF-8" standalone="no"?>
<!DOCTYPE svg PUBLIC "-//W3C//DTD SVG 1.1//EN"
 "http://www.w3.org/Graphics/SVG/1.1/DTD/svg11.dtd">
<!-- Generated by graphviz version 2.28.0 (20121015.0031)
 -->
<!-- Title: src/platform/windows Pages: 1 -->
<svg width="188pt" height="162pt"
 viewBox="0.00 0.00 188.00 162.00" xmlns="http://www.w3.org/2000/svg" xmlns:xlink="http://www.w3.org/1999/xlink">
<g id="graph1" class="graph" transform="scale(1 1) rotate(0) translate(4 158)">
<title>src/platform/windows</title>
<g id="graph2" class="cluster"><title>clusterdir_4b68c2fef3e151b6b93d5e93b14f1857</title>
<a xlink:href="dir_4b68c2fef3e151b6b93d5e93b14f1857.html" target="_top" xlink:title="platform">
<polygon fill="#ddddee" stroke="black" points="8,-56 8,-146 172,-146 172,-56 8,-56"/>
<text text-anchor="middle" x="90" y="-131" font-family="Futura" font-size="11.00">platform</text>
</a>
</g>
<g id="graph3" class="cluster"><title>clusterdir_972f138192ae14f23850fe4a6433774e</title>
<a xlink:href="dir_972f138192ae14f23850fe4a6433774e.html" target="_top">
<polygon fill="#eeeeff" stroke="black" points="16,-64 16,-116 164,-116 164,-64 16,-64"/>
</a>
</g>
<!-- dir_972f138192ae14f23850fe4a6433774e -->
<g id="node3" class="node"><title>dir_972f138192ae14f23850fe4a6433774e</title>
<text text-anchor="middle" x="126" y="-86.3047" font-family="Futura" font-size="11.00">windows</text>
</g>
<!-- dir_a97939904c3c7b3198a472ff5ef93652 -->
<g id="node4" class="node"><title>dir_a97939904c3c7b3198a472ff5ef93652</title>
<a xlink:href="dir_a97939904c3c7b3198a472ff5ef93652.html" target="_top" xlink:title="fae">
<polygon fill="white" stroke="black" points="78,-108 24,-108 24,-72 78,-72 78,-108"/>
<text text-anchor="middle" x="51" y="-86.3047" font-family="Futura" font-size="11.00">fae</text>
</a>
</g>
<!-- dir_d44c64559bbebec7f509842c48db8b23 -->
<g id="node5" class="node"><title>dir_d44c64559bbebec7f509842c48db8b23</title>
<a xlink:href="dir_d44c64559bbebec7f509842c48db8b23.html" target="_top" xlink:title="include">
<polygon fill="none" stroke="red" points="78,-36 24,-36 24,-0 78,-0 78,-36"/>
<text text-anchor="middle" x="51" y="-14.3047" font-family="Futura" font-size="11.00">include</text>
</a>
</g>
<!-- dir_a97939904c3c7b3198a472ff5ef93652&#45;&gt;dir_d44c64559bbebec7f509842c48db8b23 -->
<g id="edge4" class="edge"><title>dir_a97939904c3c7b3198a472ff5ef93652&#45;&gt;dir_d44c64559bbebec7f509842c48db8b23</title>
<path fill="none" stroke="black" d="M51,-71.6966C51,-63.9827 51,-54.7125 51,-46.1124"/>
<polygon fill="black" stroke="black" points="54.5001,-46.1043 51,-36.1043 47.5001,-46.1044 54.5001,-46.1043"/>
<a xlink:href="dir_000023_000000.html" target="_top" xlink:title="2">
<text text-anchor="middle" x="57.3393" y="-46.0036" font-family="Futura" font-size="11.00">2</text>
</a>
</g>
</g>
</svg>
