<?xml version="1.0" encoding="UTF-8" standalone="no"?>
<!DOCTYPE svg PUBLIC "-//W3C//DTD SVG 1.1//EN"
 "http://www.w3.org/Graphics/SVG/1.1/DTD/svg11.dtd">
<!-- Generated by graphviz version 2.28.0 (20121015.0031)
 -->
<!-- Title: include/doremir Pages: 1 -->
<svg width="326pt" height="186pt"
 viewBox="0.00 0.00 326.00 186.00" xmlns="http://www.w3.org/2000/svg" xmlns:xlink="http://www.w3.org/1999/xlink">
<g id="graph1" class="graph" transform="scale(1 1) rotate(0) translate(4 182)">
<title>include/doremir</title>
<g id="graph2" class="cluster"><title>clusterdir_d44c64559bbebec7f509842c48db8b23</title>
<a xlink:href="dir_d44c64559bbebec7f509842c48db8b23.html" target="_top" xlink:title="include">
<polygon fill="#ddddee" stroke="black" points="8,-8 8,-170 310,-170 310,-8 8,-8"/>
<text text-anchor="middle" x="159" y="-155" font-family="Futura" font-size="11.00">include</text>
</a>
</g>
<g id="graph3" class="cluster"><title>clusterdir_4a54249f735c3efa85863546f8e7cebb</title>
<a xlink:href="dir_4a54249f735c3efa85863546f8e7cebb.html" target="_top">
<polygon fill="#eeeeff" stroke="black" points="16,-16 16,-140 302,-140 302,-16 16,-16"/>
</a>
</g>
<!-- dir_4a54249f735c3efa85863546f8e7cebb -->
<g id="node3" class="node"><title>dir_4a54249f735c3efa85863546f8e7cebb</title>
<text text-anchor="middle" x="159" y="-110.305" font-family="Futura" font-size="11.00">doremir</text>
</g>
<!-- dir_98e1a6911844c5fd67b70a0905c0c33f -->
<g id="node4" class="node"><title>dir_98e1a6911844c5fd67b70a0905c0c33f</title>
<a xlink:href="dir_98e1a6911844c5fd67b70a0905c0c33f.html" target="_top" xlink:title="atomic">
<polygon fill="white" stroke="black" points="78,-60 24,-60 24,-24 78,-24 78,-60"/>
<text text-anchor="middle" x="51" y="-38.3047" font-family="Futura" font-size="11.00">atomic</text>
</a>
</g>
<!-- dir_4a54249f735c3efa85863546f8e7cebb&#45;&gt;dir_98e1a6911844c5fd67b70a0905c0c33f -->
<g id="edge8" class="edge"><title>dir_4a54249f735c3efa85863546f8e7cebb&#45;&gt;dir_98e1a6911844c5fd67b70a0905c0c33f</title>
<path fill="none" stroke="black" d="M132.58,-95.8761C118.59,-86.8083 101.224,-75.5523 86.1142,-65.7592"/>
<polygon fill="black" stroke="black" points="87.8165,-62.6917 77.5213,-60.1898 84.0092,-68.5658 87.8165,-62.6917"/>
<a xlink:href="dir_000001_000002.html" target="_top" xlink:title="3">
<text text-anchor="middle" x="92.3772" y="-58.5689" font-family="Futura" font-size="11.00">3</text>
</a>
</g>
<!-- dir_1482d34f73dbdc9a8b79b0373e95141e -->
<g id="node5" class="node"><title>dir_1482d34f73dbdc9a8b79b0373e95141e</title>
<a xlink:href="dir_1482d34f73dbdc9a8b79b0373e95141e.html" target="_top" xlink:title="device">
<polygon fill="white" stroke="black" points="150,-60 96,-60 96,-24 150,-24 150,-60"/>
<text text-anchor="middle" x="123" y="-38.3047" font-family="Futura" font-size="11.00">device</text>
</a>
</g>
<!-- dir_4a54249f735c3efa85863546f8e7cebb&#45;&gt;dir_1482d34f73dbdc9a8b79b0373e95141e -->
<g id="edge4" class="edge"><title>dir_4a54249f735c3efa85863546f8e7cebb&#45;&gt;dir_1482d34f73dbdc9a8b79b0373e95141e</title>
<path fill="none" stroke="black" d="M150.101,-95.6966C146.003,-87.7284 141.051,-78.0995 136.507,-69.2641"/>
<polygon fill="black" stroke="black" points="139.483,-67.3965 131.797,-60.1043 133.258,-70.598 139.483,-67.3965"/>
<a xlink:href="dir_000001_000003.html" target="_top" xlink:title="3">
<text text-anchor="middle" x="143.651" y="-65.5993" font-family="Futura" font-size="11.00">3</text>
</a>
</g>
<!-- dir_2b1958a690000a700bdad0e4e559d569 -->
<g id="node7" class="node"><title>dir_2b1958a690000a700bdad0e4e559d569</title>
<a xlink:href="dir_2b1958a690000a700bdad0e4e559d569.html" target="_top" xlink:title="system">
<polygon fill="white" stroke="black" points="222,-60 168,-60 168,-24 222,-24 222,-60"/>
<text text-anchor="middle" x="195" y="-38.3047" font-family="Futura" font-size="11.00">system</text>
</a>
</g>
<!-- dir_4a54249f735c3efa85863546f8e7cebb&#45;&gt;dir_2b1958a690000a700bdad0e4e559d569 -->
<g id="edge10" class="edge"><title>dir_4a54249f735c3efa85863546f8e7cebb&#45;&gt;dir_2b1958a690000a700bdad0e4e559d569</title>
<path fill="none" stroke="black" d="M167.899,-95.6966C171.997,-87.7284 176.949,-78.0995 181.493,-69.2641"/>
<polygon fill="black" stroke="black" points="184.742,-70.598 186.203,-60.1043 178.517,-67.3965 184.742,-70.598"/>
<a xlink:href="dir_000001_000004.html" target="_top" xlink:title="2">
<text text-anchor="middle" x="185.623" y="-71.3978" font-family="Futura" font-size="11.00">2</text>
</a>
</g>
<!-- dir_1eb71ee1288576b6d6a049001ecebb49 -->
<g id="node8" class="node"><title>dir_1eb71ee1288576b6d6a049001ecebb49</title>
<a xlink:href="dir_1eb71ee1288576b6d6a049001ecebb49.html" target="_top" xlink:title="util">
<polygon fill="white" stroke="black" points="294,-60 240,-60 240,-24 294,-24 294,-60"/>
<text text-anchor="middle" x="267" y="-38.3047" font-family="Futura" font-size="11.00">util</text>
</a>
</g>
<!-- dir_4a54249f735c3efa85863546f8e7cebb&#45;&gt;dir_1eb71ee1288576b6d6a049001ecebb49 -->
<g id="edge6" class="edge"><title>dir_4a54249f735c3efa85863546f8e7cebb&#45;&gt;dir_1eb71ee1288576b6d6a049001ecebb49</title>
<path fill="none" stroke="black" d="M185.42,-95.8761C199.41,-86.8083 216.776,-75.5523 231.886,-65.7592"/>
<polygon fill="black" stroke="black" points="233.991,-68.5658 240.479,-60.1898 230.183,-62.6917 233.991,-68.5658"/>
<a xlink:href="dir_000001_000006.html" target="_top" xlink:title="6">
<text text-anchor="middle" x="232.519" y="-69.2081" font-family="Futura" font-size="11.00">6</text>
</a>
</g>
<!-- dir_6b59960616ac570a500a9caaa36e3fbf -->
<g id="node6" class="node"><title>dir_6b59960616ac570a500a9caaa36e3fbf</title>
<a xlink:href="dir_6b59960616ac570a500a9caaa36e3fbf.html" target="_top" xlink:title="string">
<polygon fill="white" stroke="black" points="114,-132 60,-132 60,-96 114,-96 114,-132"/>
<text text-anchor="middle" x="87" y="-110.305" font-family="Futura" font-size="11.00">string</text>
</a>
</g>
</g>
</svg>
