<?xml version="1.0" encoding="UTF-8" standalone="no"?>
<!DOCTYPE svg PUBLIC "-//W3C//DTD SVG 1.1//EN"
 "http://www.w3.org/Graphics/SVG/1.1/DTD/svg11.dtd">
<!-- Generated by graphviz version 2.28.0 (20121015.0031)
 -->
<!-- Title: src/doremir/device Pages: 1 -->
<svg width="113pt" height="226pt"
 viewBox="0.00 0.00 113.00 226.00" xmlns="http://www.w3.org/2000/svg" xmlns:xlink="http://www.w3.org/1999/xlink">
<g id="graph1" class="graph" transform="scale(1 1) rotate(0) translate(4 222)">
<title>src/doremir/device</title>
<g id="graph2" class="cluster"><title>clusterdir_3b9989dbb34cb7ee084e85565a758104</title>
<a xlink:href="dir_3b9989dbb34cb7ee084e85565a758104.html" target="_top" xlink:title="doremir">
<polygon fill="#ddddee" stroke="black" points="27,-136 27,-210 97,-210 97,-136 27,-136"/>
<text text-anchor="middle" x="62" y="-195" font-family="Futura" font-size="11.00">doremir</text>
</a>
</g>
<!-- dir_6d69345d510be142a8a045834a2db11f -->
<g id="node2" class="node"><title>dir_6d69345d510be142a8a045834a2db11f</title>
<a xlink:href="dir_6d69345d510be142a8a045834a2db11f.html" target="_top" xlink:title="device">
<polygon fill="#eeeeff" stroke="black" points="89,-180 35,-180 35,-144 89,-144 89,-180"/>
<text text-anchor="middle" x="62" y="-158.305" font-family="Futura" font-size="11.00">device</text>
</a>
</g>
<!-- dir_0b37eac7467881b3a0781c8cc1c6f157 -->
<g id="node3" class="node"><title>dir_0b37eac7467881b3a0781c8cc1c6f157</title>
<a xlink:href="dir_0b37eac7467881b3a0781c8cc1c6f157.html" target="_top" xlink:title="processor">
<polygon fill="none" stroke="black" points="64.1543,-108 -0.15434,-108 -0.15434,-72 64.1543,-72 64.1543,-108"/>
<text text-anchor="middle" x="32" y="-86.3047" font-family="Futura" font-size="11.00">processor</text>
</a>
</g>
<!-- dir_6d69345d510be142a8a045834a2db11f&#45;&gt;dir_0b37eac7467881b3a0781c8cc1c6f157 -->
<g id="edge5" class="edge"><title>dir_6d69345d510be142a8a045834a2db11f&#45;&gt;dir_0b37eac7467881b3a0781c8cc1c6f157</title>
<path fill="none" stroke="black" d="M54.5843,-143.697C51.2056,-135.813 47.1304,-126.304 43.377,-117.546"/>
<polygon fill="black" stroke="black" points="46.4867,-115.917 39.3304,-108.104 40.0527,-118.675 46.4867,-115.917"/>
<a xlink:href="dir_000016_000022.html" target="_top" xlink:title="1">
<text text-anchor="middle" x="50.5123" y="-114.407" font-family="Futura" font-size="11.00">1</text>
</a>
</g>
<!-- dir_d44c64559bbebec7f509842c48db8b23 -->
<g id="node4" class="node"><title>dir_d44c64559bbebec7f509842c48db8b23</title>
<a xlink:href="dir_d44c64559bbebec7f509842c48db8b23.html" target="_top" xlink:title="include">
<polygon fill="none" stroke="red" points="89,-36 35,-36 35,-0 89,-0 89,-36"/>
<text text-anchor="middle" x="62" y="-14.3047" font-family="Futura" font-size="11.00">include</text>
</a>
</g>
<!-- dir_6d69345d510be142a8a045834a2db11f&#45;&gt;dir_d44c64559bbebec7f509842c48db8b23 -->
<g id="edge7" class="edge"><title>dir_6d69345d510be142a8a045834a2db11f&#45;&gt;dir_d44c64559bbebec7f509842c48db8b23</title>
<path fill="none" stroke="black" d="M66.4642,-143.953C68.935,-133.63 71.7522,-120.153 73,-108 74.6343,-92.0837 74.6343,-87.9163 73,-72 72.1226,-63.455 70.4694,-54.2552 68.7062,-45.9576"/>
<polygon fill="black" stroke="black" points="72.0845,-45.0282 66.4642,-36.0469 65.257,-46.5728 72.0845,-45.0282"/>
<a xlink:href="dir_000016_000000.html" target="_top" xlink:title="15">
<text text-anchor="middle" x="75.6469" y="-44.2125" font-family="Futura" font-size="11.00">15</text>
</a>
</g>
<!-- dir_0b37eac7467881b3a0781c8cc1c6f157&#45;&gt;dir_d44c64559bbebec7f509842c48db8b23 -->
<g id="edge3" class="edge"><title>dir_0b37eac7467881b3a0781c8cc1c6f157&#45;&gt;dir_d44c64559bbebec7f509842c48db8b23</title>
<path fill="none" stroke="black" d="M39.4157,-71.6966C42.7944,-63.8132 46.8696,-54.3042 50.623,-45.5464"/>
<polygon fill="black" stroke="black" points="53.9473,-46.6745 54.6696,-36.1043 47.5133,-43.9171 53.9473,-46.6745"/>
<a xlink:href="dir_000022_000000.html" target="_top" xlink:title="16">
<text text-anchor="middle" x="55.1411" y="-47.4016" font-family="Futura" font-size="11.00">16</text>
</a>
</g>
</g>
</svg>
