<?xml version="1.0" encoding="UTF-8" standalone="no"?>
<!DOCTYPE svg PUBLIC "-//W3C//DTD SVG 1.1//EN"
 "http://www.w3.org/Graphics/SVG/1.1/DTD/svg11.dtd">
<!-- Generated by graphviz version 2.28.0 (20121015.0031)
 -->
<!-- Title: src/platform/macosx/doremir Pages: 1 -->
<svg width="254pt" height="162pt"
 viewBox="0.00 0.00 254.00 162.00" xmlns="http://www.w3.org/2000/svg" xmlns:xlink="http://www.w3.org/1999/xlink">
<g id="graph1" class="graph" transform="scale(1 1) rotate(0) translate(4 158)">
<title>src/platform/macosx/doremir</title>
<g id="graph2" class="cluster"><title>clusterdir_6dee117f9ffa4a96e3a3c951e0201a55</title>
<a xlink:href="dir_6dee117f9ffa4a96e3a3c951e0201a55.html" target="_top" xlink:title="macosx">
<polygon fill="#ddddee" stroke="black" points="8,-56 8,-146 238,-146 238,-56 8,-56"/>
<text text-anchor="middle" x="123" y="-131" font-family="Futura" font-size="11.00">macosx</text>
</a>
</g>
<g id="graph3" class="cluster"><title>clusterdir_8cfee6c8bd4f906c6111c5d800da1d15</title>
<a xlink:href="dir_8cfee6c8bd4f906c6111c5d800da1d15.html" target="_top">
<polygon fill="#eeeeff" stroke="black" points="16,-64 16,-116 230,-116 230,-64 16,-64"/>
</a>
</g>
<!-- dir_8cfee6c8bd4f906c6111c5d800da1d15 -->
<g id="node3" class="node"><title>dir_8cfee6c8bd4f906c6111c5d800da1d15</title>
<text text-anchor="middle" x="195" y="-86.3047" font-family="Futura" font-size="11.00">doremir</text>
</g>
<!-- dir_d44c64559bbebec7f509842c48db8b23 -->
<g id="node6" class="node"><title>dir_d44c64559bbebec7f509842c48db8b23</title>
<a xlink:href="dir_d44c64559bbebec7f509842c48db8b23.html" target="_top" xlink:title="include">
<polygon fill="none" stroke="red" points="150,-36 96,-36 96,-0 150,-0 150,-36"/>
<text text-anchor="middle" x="123" y="-14.3047" font-family="Futura" font-size="11.00">include</text>
</a>
</g>
<!-- dir_8cfee6c8bd4f906c6111c5d800da1d15&#45;&gt;dir_d44c64559bbebec7f509842c48db8b23 -->
<g id="edge4" class="edge"><title>dir_8cfee6c8bd4f906c6111c5d800da1d15&#45;&gt;dir_d44c64559bbebec7f509842c48db8b23</title>
<path fill="none" stroke="black" d="M177.202,-71.6966C168.396,-63.135 157.618,-52.6562 147.999,-43.3045"/>
<polygon fill="black" stroke="black" points="150.203,-40.5657 140.593,-36.1043 145.323,-45.5846 150.203,-40.5657"/>
<a xlink:href="dir_000019_000000.html" target="_top" xlink:title="24">
<text text-anchor="middle" x="154.759" y="-37.3403" font-family="Futura" font-size="11.00">24</text>
</a>
</g>
<!-- dir_6ad1fd3da21f9ce61ad16e119d67bd3d -->
<g id="node4" class="node"><title>dir_6ad1fd3da21f9ce61ad16e119d67bd3d</title>
<a xlink:href="dir_6ad1fd3da21f9ce61ad16e119d67bd3d.html" target="_top" xlink:title="plot">
<polygon fill="white" stroke="black" points="150,-108 96,-108 96,-72 150,-72 150,-108"/>
<text text-anchor="middle" x="123" y="-86.3047" font-family="Futura" font-size="11.00">plot</text>
</a>
</g>
<!-- dir_6ad1fd3da21f9ce61ad16e119d67bd3d&#45;&gt;dir_d44c64559bbebec7f509842c48db8b23 -->
<g id="edge6" class="edge"><title>dir_6ad1fd3da21f9ce61ad16e119d67bd3d&#45;&gt;dir_d44c64559bbebec7f509842c48db8b23</title>
<path fill="none" stroke="black" d="M123,-71.6966C123,-63.9827 123,-54.7125 123,-46.1124"/>
<polygon fill="black" stroke="black" points="126.5,-46.1043 123,-36.1043 119.5,-46.1044 126.5,-46.1043"/>
<a xlink:href="dir_000026_000000.html" target="_top" xlink:title="2">
<text text-anchor="middle" x="129.339" y="-46.0036" font-family="Futura" font-size="11.00">2</text>
</a>
</g>
<!-- dir_76d1b6306e0366d129185786832d3ed1 -->
<g id="node5" class="node"><title>dir_76d1b6306e0366d129185786832d3ed1</title>
<a xlink:href="dir_76d1b6306e0366d129185786832d3ed1.html" target="_top" xlink:title="system">
<polygon fill="white" stroke="black" points="78,-108 24,-108 24,-72 78,-72 78,-108"/>
<text text-anchor="middle" x="51" y="-86.3047" font-family="Futura" font-size="11.00">system</text>
</a>
</g>
<!-- dir_76d1b6306e0366d129185786832d3ed1&#45;&gt;dir_d44c64559bbebec7f509842c48db8b23 -->
<g id="edge8" class="edge"><title>dir_76d1b6306e0366d129185786832d3ed1&#45;&gt;dir_d44c64559bbebec7f509842c48db8b23</title>
<path fill="none" stroke="black" d="M68.7978,-71.6966C77.604,-63.135 88.3821,-52.6562 98.0011,-43.3045"/>
<polygon fill="black" stroke="black" points="100.677,-45.5846 105.407,-36.1043 95.7972,-40.5657 100.677,-45.5846"/>
<a xlink:href="dir_000020_000000.html" target="_top" xlink:title="9">
<text text-anchor="middle" x="100.079" y="-46.4308" font-family="Futura" font-size="11.00">9</text>
</a>
</g>
</g>
</svg>
