<?xml version="1.0" encoding="UTF-8" standalone="no"?>
<!DOCTYPE svg PUBLIC "-//W3C//DTD SVG 1.1//EN"
 "http://www.w3.org/Graphics/SVG/1.1/DTD/svg11.dtd">
<!-- Generated by graphviz version 2.28.0 (20121015.0031)
 -->
<!-- Title: include/fae Pages: 1 -->
<svg width="326pt" height="186pt"
 viewBox="0.00 0.00 326.00 186.00" xmlns="http://www.w3.org/2000/svg" xmlns:xlink="http://www.w3.org/1999/xlink">
<g id="graph1" class="graph" transform="scale(1 1) rotate(0) translate(4 182)">
<title>include/fae</title>
<g id="graph2" class="cluster"><title>clusterdir_d44c64559bbebec7f509842c48db8b23</title>
<a xlink:href="dir_d44c64559bbebec7f509842c48db8b23.html" target="_top" xlink:title="include">
<polygon fill="#ddddee" stroke="black" points="8,-8 8,-170 310,-170 310,-8 8,-8"/>
<text text-anchor="middle" x="159" y="-155" font-family="Futura" font-size="11.00">include</text>
</a>
</g>
<g id="graph3" class="cluster"><title>clusterdir_aa61b2fff6575bd45838b59453565768</title>
<a xlink:href="dir_aa61b2fff6575bd45838b59453565768.html" target="_top">
<polygon fill="#eeeeff" stroke="black" points="16,-16 16,-140 302,-140 302,-16 16,-16"/>
</a>
</g>
<!-- dir_aa61b2fff6575bd45838b59453565768 -->
<g id="node3" class="node"><title>dir_aa61b2fff6575bd45838b59453565768</title>
<text text-anchor="middle" x="159" y="-110.305" font-family="Futura" font-size="11.00">fae</text>
</g>
<!-- dir_588024bfd14cddb4941052edc4e6dbca -->
<g id="node4" class="node"><title>dir_588024bfd14cddb4941052edc4e6dbca</title>
<a xlink:href="dir_588024bfd14cddb4941052edc4e6dbca.html" target="_top" xlink:title="atomic">
<polygon fill="white" stroke="black" points="78,-60 24,-60 24,-24 78,-24 78,-60"/>
<text text-anchor="middle" x="51" y="-38.3047" font-family="Futura" font-size="11.00">atomic</text>
</a>
</g>
<!-- dir_aa61b2fff6575bd45838b59453565768&#45;&gt;dir_588024bfd14cddb4941052edc4e6dbca -->
<g id="edge6" class="edge"><title>dir_aa61b2fff6575bd45838b59453565768&#45;&gt;dir_588024bfd14cddb4941052edc4e6dbca</title>
<path fill="none" stroke="black" d="M132.58,-95.8761C118.59,-86.8083 101.224,-75.5523 86.1142,-65.7592"/>
<polygon fill="black" stroke="black" points="87.8165,-62.6917 77.5213,-60.1898 84.0092,-68.5658 87.8165,-62.6917"/>
<a xlink:href="dir_000001_000002.html" target="_top" xlink:title="1">
<text text-anchor="middle" x="92.3772" y="-58.5689" font-family="Futura" font-size="11.00">1</text>
</a>
</g>
<!-- dir_fd966aacd7511bddb0021a75aad278f6 -->
<g id="node5" class="node"><title>dir_fd966aacd7511bddb0021a75aad278f6</title>
<a xlink:href="dir_fd966aacd7511bddb0021a75aad278f6.html" target="_top" xlink:title="device">
<polygon fill="white" stroke="black" points="150,-60 96,-60 96,-24 150,-24 150,-60"/>
<text text-anchor="middle" x="123" y="-38.3047" font-family="Futura" font-size="11.00">device</text>
</a>
</g>
<!-- dir_aa61b2fff6575bd45838b59453565768&#45;&gt;dir_fd966aacd7511bddb0021a75aad278f6 -->
<g id="edge4" class="edge"><title>dir_aa61b2fff6575bd45838b59453565768&#45;&gt;dir_fd966aacd7511bddb0021a75aad278f6</title>
<path fill="none" stroke="black" d="M150.101,-95.6966C146.003,-87.7284 141.051,-78.0995 136.507,-69.2641"/>
<polygon fill="black" stroke="black" points="139.483,-67.3965 131.797,-60.1043 133.258,-70.598 139.483,-67.3965"/>
<a xlink:href="dir_000001_000003.html" target="_top" xlink:title="2">
<text text-anchor="middle" x="143.651" y="-65.5993" font-family="Futura" font-size="11.00">2</text>
</a>
</g>
<!-- dir_1b06eafe90438f848d288ff161880575 -->
<g id="node6" class="node"><title>dir_1b06eafe90438f848d288ff161880575</title>
<a xlink:href="dir_1b06eafe90438f848d288ff161880575.html" target="_top" xlink:title="system">
<polygon fill="white" stroke="black" points="222,-60 168,-60 168,-24 222,-24 222,-60"/>
<text text-anchor="middle" x="195" y="-38.3047" font-family="Futura" font-size="11.00">system</text>
</a>
</g>
<!-- dir_aa61b2fff6575bd45838b59453565768&#45;&gt;dir_1b06eafe90438f848d288ff161880575 -->
<g id="edge8" class="edge"><title>dir_aa61b2fff6575bd45838b59453565768&#45;&gt;dir_1b06eafe90438f848d288ff161880575</title>
<path fill="none" stroke="black" d="M167.899,-95.6966C171.997,-87.7284 176.949,-78.0995 181.493,-69.2641"/>
<polygon fill="black" stroke="black" points="184.742,-70.598 186.203,-60.1043 178.517,-67.3965 184.742,-70.598"/>
<a xlink:href="dir_000001_000004.html" target="_top" xlink:title="2">
<text text-anchor="middle" x="185.623" y="-71.3978" font-family="Futura" font-size="11.00">2</text>
</a>
</g>
<!-- dir_639411252177b5fc2fe7314ba6d4e99d -->
<g id="node7" class="node"><title>dir_639411252177b5fc2fe7314ba6d4e99d</title>
<a xlink:href="dir_639411252177b5fc2fe7314ba6d4e99d.html" target="_top" xlink:title="util">
<polygon fill="white" stroke="black" points="294,-60 240,-60 240,-24 294,-24 294,-60"/>
<text text-anchor="middle" x="267" y="-38.3047" font-family="Futura" font-size="11.00">util</text>
</a>
</g>
<!-- dir_aa61b2fff6575bd45838b59453565768&#45;&gt;dir_639411252177b5fc2fe7314ba6d4e99d -->
<g id="edge10" class="edge"><title>dir_aa61b2fff6575bd45838b59453565768&#45;&gt;dir_639411252177b5fc2fe7314ba6d4e99d</title>
<path fill="none" stroke="black" d="M185.42,-95.8761C199.41,-86.8083 216.776,-75.5523 231.886,-65.7592"/>
<polygon fill="black" stroke="black" points="233.991,-68.5658 240.479,-60.1898 230.183,-62.6917 233.991,-68.5658"/>
<a xlink:href="dir_000001_000005.html" target="_top" xlink:title="6">
<text text-anchor="middle" x="232.519" y="-69.2081" font-family="Futura" font-size="11.00">6</text>
</a>
</g>
</g>
</svg>
