<?xml version="1.0" encoding="UTF-8" standalone="no"?>
<!DOCTYPE svg PUBLIC "-//W3C//DTD SVG 1.1//EN"
 "http://www.w3.org/Graphics/SVG/1.1/DTD/svg11.dtd">
<!-- Generated by graphviz version 2.28.0 (20121015.0031)
 -->
<!-- Title: modules/Doremir Pages: 1 -->
<svg width="400pt" height="114pt"
 viewBox="0.00 0.00 400.00 114.00" xmlns="http://www.w3.org/2000/svg" xmlns:xlink="http://www.w3.org/1999/xlink">
<g id="graph1" class="graph" transform="scale(1 1) rotate(0) translate(4 110)">
<title>modules/Doremir</title>
<g id="graph2" class="cluster"><title>clusterdir_e05d7e2b1ecd646af5bb94391405f3b5</title>
<a xlink:href="dir_e05d7e2b1ecd646af5bb94391405f3b5.html" target="_top" xlink:title="modules">
<polygon fill="#ddddee" stroke="black" points="8,-8 8,-98 384,-98 384,-8 8,-8"/>
<text text-anchor="middle" x="196" y="-83" font-family="Futura" font-size="11.00">modules</text>
</a>
</g>
<g id="graph3" class="cluster"><title>clusterdir_2cfb556df17e3ce676a0a27f26cf5d9d</title>
<a xlink:href="dir_2cfb556df17e3ce676a0a27f26cf5d9d.html" target="_top">
<polygon fill="#eeeeff" stroke="black" points="16,-16 16,-68 376,-68 376,-16 16,-16"/>
</a>
</g>
<!-- dir_2cfb556df17e3ce676a0a27f26cf5d9d -->
<g id="node3" class="node"><title>dir_2cfb556df17e3ce676a0a27f26cf5d9d</title>
<text text-anchor="middle" x="340" y="-38.3047" font-family="Futura" font-size="11.00">Doremir</text>
</g>
<!-- dir_c181182a40d967ed0b99e90d9404dec0 -->
<g id="node4" class="node"><title>dir_c181182a40d967ed0b99e90d9404dec0</title>
<a xlink:href="dir_c181182a40d967ed0b99e90d9404dec0.html" target="_top" xlink:title="Atomic">
<polygon fill="white" stroke="black" points="294,-60 240,-60 240,-24 294,-24 294,-60"/>
<text text-anchor="middle" x="267" y="-38.3047" font-family="Futura" font-size="11.00">Atomic</text>
</a>
</g>
<!-- dir_ec4d05dcd7fd4763c34bb21751dd9b01 -->
<g id="node5" class="node"><title>dir_ec4d05dcd7fd4763c34bb21751dd9b01</title>
<a xlink:href="dir_ec4d05dcd7fd4763c34bb21751dd9b01.html" target="_top" xlink:title="Device">
<polygon fill="white" stroke="black" points="222,-60 168,-60 168,-24 222,-24 222,-60"/>
<text text-anchor="middle" x="195" y="-38.3047" font-family="Futura" font-size="11.00">Device</text>
</a>
</g>
<!-- dir_990f3087c928b5ae7cf99c30b8ffbeb8 -->
<g id="node6" class="node"><title>dir_990f3087c928b5ae7cf99c30b8ffbeb8</title>
<a xlink:href="dir_990f3087c928b5ae7cf99c30b8ffbeb8.html" target="_top" xlink:title="String">
<polygon fill="white" stroke="black" points="150,-60 96,-60 96,-24 150,-24 150,-60"/>
<text text-anchor="middle" x="123" y="-38.3047" font-family="Futura" font-size="11.00">String</text>
</a>
</g>
<!-- dir_81e84b09ff52665bf42b3358edc28eea -->
<g id="node7" class="node"><title>dir_81e84b09ff52665bf42b3358edc28eea</title>
<a xlink:href="dir_81e84b09ff52665bf42b3358edc28eea.html" target="_top" xlink:title="System">
<polygon fill="white" stroke="black" points="78,-60 24,-60 24,-24 78,-24 78,-60"/>
<text text-anchor="middle" x="51" y="-38.3047" font-family="Futura" font-size="11.00">System</text>
</a>
</g>
</g>
</svg>
