<?xml version="1.0" encoding="UTF-8" standalone="no"?>
<!DOCTYPE svg PUBLIC "-//W3C//DTD SVG 1.1//EN"
 "http://www.w3.org/Graphics/SVG/1.1/DTD/svg11.dtd">
<!-- Generated by graphviz version 2.28.0 (20121015.0031)
 -->
<!-- Title: src/platform/macosx/doremir/plot Pages: 1 -->
<svg width="94pt" height="154pt"
 viewBox="0.00 0.00 94.00 154.00" xmlns="http://www.w3.org/2000/svg" xmlns:xlink="http://www.w3.org/1999/xlink">
<g id="graph1" class="graph" transform="scale(1 1) rotate(0) translate(4 150)">
<title>src/platform/macosx/doremir/plot</title>
<g id="graph2" class="cluster"><title>clusterdir_8cfee6c8bd4f906c6111c5d800da1d15</title>
<a xlink:href="dir_8cfee6c8bd4f906c6111c5d800da1d15.html" target="_top" xlink:title="doremir">
<polygon fill="#ddddee" stroke="black" points="8,-64 8,-138 78,-138 78,-64 8,-64"/>
<text text-anchor="middle" x="43" y="-123" font-family="Futura" font-size="11.00">doremir</text>
</a>
</g>
<!-- dir_6ad1fd3da21f9ce61ad16e119d67bd3d -->
<g id="node2" class="node"><title>dir_6ad1fd3da21f9ce61ad16e119d67bd3d</title>
<a xlink:href="dir_6ad1fd3da21f9ce61ad16e119d67bd3d.html" target="_top" xlink:title="plot">
<polygon fill="#eeeeff" stroke="black" points="70,-108 16,-108 16,-72 70,-72 70,-108"/>
<text text-anchor="middle" x="43" y="-86.3047" font-family="Futura" font-size="11.00">plot</text>
</a>
</g>
<!-- dir_d44c64559bbebec7f509842c48db8b23 -->
<g id="node3" class="node"><title>dir_d44c64559bbebec7f509842c48db8b23</title>
<a xlink:href="dir_d44c64559bbebec7f509842c48db8b23.html" target="_top" xlink:title="include">
<polygon fill="none" stroke="red" points="70,-36 16,-36 16,-0 70,-0 70,-36"/>
<text text-anchor="middle" x="43" y="-14.3047" font-family="Futura" font-size="11.00">include</text>
</a>
</g>
<!-- dir_6ad1fd3da21f9ce61ad16e119d67bd3d&#45;&gt;dir_d44c64559bbebec7f509842c48db8b23 -->
<g id="edge3" class="edge"><title>dir_6ad1fd3da21f9ce61ad16e119d67bd3d&#45;&gt;dir_d44c64559bbebec7f509842c48db8b23</title>
<path fill="none" stroke="black" d="M43,-71.6966C43,-63.9827 43,-54.7125 43,-46.1124"/>
<polygon fill="black" stroke="black" points="46.5001,-46.1043 43,-36.1043 39.5001,-46.1044 46.5001,-46.1043"/>
<a xlink:href="dir_000026_000000.html" target="_top" xlink:title="2">
<text text-anchor="middle" x="49.3393" y="-46.0036" font-family="Futura" font-size="11.00">2</text>
</a>
</g>
</g>
</svg>
