<?xml version="1.0" encoding="UTF-8" standalone="no"?>
<!DOCTYPE svg PUBLIC "-//W3C//DTD SVG 1.1//EN"
 "http://www.w3.org/Graphics/SVG/1.1/DTD/svg11.dtd">
<!-- Generated by graphviz version 2.28.0 (20121015.0031)
 -->
<!-- Title: src/doremir Pages: 1 -->
<svg width="326pt" height="234pt"
 viewBox="0.00 0.00 326.00 234.00" xmlns="http://www.w3.org/2000/svg" xmlns:xlink="http://www.w3.org/1999/xlink">
<g id="graph1" class="graph" transform="scale(1 1) rotate(0) translate(4 230)">
<title>src/doremir</title>
<g id="graph2" class="cluster"><title>clusterdir_68267d1309a1af8e8297ef4c3efbcdba</title>
<a xlink:href="dir_68267d1309a1af8e8297ef4c3efbcdba.html" target="_top" xlink:title="src">
<polygon fill="#ddddee" stroke="black" points="8,-56 8,-218 310,-218 310,-56 8,-56"/>
<text text-anchor="middle" x="159" y="-203" font-family="Futura" font-size="11.00">src</text>
</a>
</g>
<g id="graph3" class="cluster"><title>clusterdir_3b9989dbb34cb7ee084e85565a758104</title>
<a xlink:href="dir_3b9989dbb34cb7ee084e85565a758104.html" target="_top">
<polygon fill="#eeeeff" stroke="black" points="16,-64 16,-188 302,-188 302,-64 16,-64"/>
</a>
</g>
<!-- dir_3b9989dbb34cb7ee084e85565a758104 -->
<g id="node3" class="node"><title>dir_3b9989dbb34cb7ee084e85565a758104</title>
<text text-anchor="middle" x="51" y="-158.305" font-family="Futura" font-size="11.00">doremir</text>
</g>
<!-- dir_395d454ae439c98468fa83315ab321ef -->
<g id="node8" class="node"><title>dir_395d454ae439c98468fa83315ab321ef</title>
<a xlink:href="dir_395d454ae439c98468fa83315ab321ef.html" target="_top" xlink:title="string">
<polygon fill="white" stroke="black" points="78,-108 24,-108 24,-72 78,-72 78,-108"/>
<text text-anchor="middle" x="51" y="-86.3047" font-family="Futura" font-size="11.00">string</text>
</a>
</g>
<!-- dir_3b9989dbb34cb7ee084e85565a758104&#45;&gt;dir_395d454ae439c98468fa83315ab321ef -->
<g id="edge6" class="edge"><title>dir_3b9989dbb34cb7ee084e85565a758104&#45;&gt;dir_395d454ae439c98468fa83315ab321ef</title>
<path fill="none" stroke="black" d="M51,-143.697C51,-135.983 51,-126.712 51,-118.112"/>
<polygon fill="black" stroke="black" points="54.5001,-118.104 51,-108.104 47.5001,-118.104 54.5001,-118.104"/>
<a xlink:href="dir_000014_000023.html" target="_top" xlink:title="2">
<text text-anchor="middle" x="57.3393" y="-118.004" font-family="Futura" font-size="11.00">2</text>
</a>
</g>
<!-- dir_c34e80d57b6e28de4e7c9e912ea06fb4 -->
<g id="node4" class="node"><title>dir_c34e80d57b6e28de4e7c9e912ea06fb4</title>
<a xlink:href="dir_c34e80d57b6e28de4e7c9e912ea06fb4.html" target="_top" xlink:title="atomic">
<polygon fill="white" stroke="black" points="222,-180 168,-180 168,-144 222,-144 222,-180"/>
<text text-anchor="middle" x="195" y="-158.305" font-family="Futura" font-size="11.00">atomic</text>
</a>
</g>
<!-- dir_d44c64559bbebec7f509842c48db8b23 -->
<g id="node9" class="node"><title>dir_d44c64559bbebec7f509842c48db8b23</title>
<a xlink:href="dir_d44c64559bbebec7f509842c48db8b23.html" target="_top" xlink:title="include">
<polygon fill="none" stroke="red" points="215,-36 161,-36 161,-0 215,-0 215,-36"/>
<text text-anchor="middle" x="188" y="-14.3047" font-family="Futura" font-size="11.00">include</text>
</a>
</g>
<!-- dir_c34e80d57b6e28de4e7c9e912ea06fb4&#45;&gt;dir_d44c64559bbebec7f509842c48db8b23 -->
<g id="edge16" class="edge"><title>dir_c34e80d57b6e28de4e7c9e912ea06fb4&#45;&gt;dir_d44c64559bbebec7f509842c48db8b23</title>
<path fill="none" stroke="black" d="M198.731,-143.756C202.667,-122.83 207.587,-86.5518 202,-56 201.395,-52.6895 200.508,-49.2908 199.47,-45.9589"/>
<polygon fill="black" stroke="black" points="202.688,-44.562 196.032,-36.3187 196.095,-46.9133 202.688,-44.562"/>
<a xlink:href="dir_000015_000000.html" target="_top" xlink:title="13">
<text text-anchor="middle" x="206.57" y="-43.2987" font-family="Futura" font-size="11.00">13</text>
</a>
</g>
<!-- dir_6d69345d510be142a8a045834a2db11f -->
<g id="node5" class="node"><title>dir_6d69345d510be142a8a045834a2db11f</title>
<a xlink:href="dir_6d69345d510be142a8a045834a2db11f.html" target="_top" xlink:title="device">
<polygon fill="white" stroke="black" points="150,-180 96,-180 96,-144 150,-144 150,-180"/>
<text text-anchor="middle" x="123" y="-158.305" font-family="Futura" font-size="11.00">device</text>
</a>
</g>
<!-- dir_0b37eac7467881b3a0781c8cc1c6f157 -->
<g id="node7" class="node"><title>dir_0b37eac7467881b3a0781c8cc1c6f157</title>
<a xlink:href="dir_0b37eac7467881b3a0781c8cc1c6f157.html" target="_top" xlink:title="processor">
<polygon fill="white" stroke="black" points="160.154,-108 95.8457,-108 95.8457,-72 160.154,-72 160.154,-108"/>
<text text-anchor="middle" x="128" y="-86.3047" font-family="Futura" font-size="11.00">processor</text>
</a>
</g>
<!-- dir_6d69345d510be142a8a045834a2db11f&#45;&gt;dir_0b37eac7467881b3a0781c8cc1c6f157 -->
<g id="edge10" class="edge"><title>dir_6d69345d510be142a8a045834a2db11f&#45;&gt;dir_0b37eac7467881b3a0781c8cc1c6f157</title>
<path fill="none" stroke="black" d="M124.236,-143.697C124.787,-135.983 125.449,-126.712 126.063,-118.112"/>
<polygon fill="black" stroke="black" points="129.557,-118.328 126.778,-108.104 122.575,-117.83 129.557,-118.328"/>
<a xlink:href="dir_000016_000022.html" target="_top" xlink:title="1">
<text text-anchor="middle" x="132.133" y="-118.421" font-family="Futura" font-size="11.00">1</text>
</a>
</g>
<!-- dir_6d69345d510be142a8a045834a2db11f&#45;&gt;dir_d44c64559bbebec7f509842c48db8b23 -->
<g id="edge12" class="edge"><title>dir_6d69345d510be142a8a045834a2db11f&#45;&gt;dir_d44c64559bbebec7f509842c48db8b23</title>
<path fill="none" stroke="black" d="M142.164,-143.572C151.609,-133.963 162.367,-121.302 169,-108 178.666,-88.6161 183.428,-64.4694 185.767,-46.2201"/>
<polygon fill="black" stroke="black" points="189.25,-46.5641 186.882,-36.2372 182.293,-45.7866 189.25,-46.5641"/>
<a xlink:href="dir_000016_000000.html" target="_top" xlink:title="15">
<text text-anchor="middle" x="191.672" y="-46.7565" font-family="Futura" font-size="11.00">15</text>
</a>
</g>
<!-- dir_bec93a0adac2ea32d6677c84004d8e32 -->
<g id="node6" class="node"><title>dir_bec93a0adac2ea32d6677c84004d8e32</title>
<a xlink:href="dir_bec93a0adac2ea32d6677c84004d8e32.html" target="_top" xlink:title="plot">
<polygon fill="white" stroke="black" points="294,-180 240,-180 240,-144 294,-144 294,-180"/>
<text text-anchor="middle" x="267" y="-158.305" font-family="Futura" font-size="11.00">plot</text>
</a>
</g>
<!-- dir_bec93a0adac2ea32d6677c84004d8e32&#45;&gt;dir_d44c64559bbebec7f509842c48db8b23 -->
<g id="edge14" class="edge"><title>dir_bec93a0adac2ea32d6677c84004d8e32&#45;&gt;dir_d44c64559bbebec7f509842c48db8b23</title>
<path fill="none" stroke="black" d="M260.562,-143.979C252.161,-122.649 236.349,-85.3343 218,-56 215.515,-52.0277 212.661,-48.0014 209.722,-44.1396"/>
<polygon fill="black" stroke="black" points="212.233,-41.6744 203.265,-36.033 206.758,-46.0356 212.233,-41.6744"/>
<a xlink:href="dir_000021_000000.html" target="_top" xlink:title="4">
<text text-anchor="middle" x="216.694" y="-39.0219" font-family="Futura" font-size="11.00">4</text>
</a>
</g>
<!-- dir_0b37eac7467881b3a0781c8cc1c6f157&#45;&gt;dir_d44c64559bbebec7f509842c48db8b23 -->
<g id="edge8" class="edge"><title>dir_0b37eac7467881b3a0781c8cc1c6f157&#45;&gt;dir_d44c64559bbebec7f509842c48db8b23</title>
<path fill="none" stroke="black" d="M142.831,-71.6966C150.025,-63.3046 158.797,-53.0705 166.69,-43.8613"/>
<polygon fill="black" stroke="black" points="169.489,-45.9747 173.339,-36.1043 164.174,-41.4191 169.489,-45.9747"/>
<a xlink:href="dir_000022_000000.html" target="_top" xlink:title="16">
<text text-anchor="middle" x="169.305" y="-46.8564" font-family="Futura" font-size="11.00">16</text>
</a>
</g>
<!-- dir_395d454ae439c98468fa83315ab321ef&#45;&gt;dir_d44c64559bbebec7f509842c48db8b23 -->
<g id="edge4" class="edge"><title>dir_395d454ae439c98468fa83315ab321ef&#45;&gt;dir_d44c64559bbebec7f509842c48db8b23</title>
<path fill="none" stroke="black" d="M67.1003,-71.7405C72.9621,-66.1667 79.9015,-60.3185 87,-56 106.926,-43.8776 131.45,-34.7767 151.342,-28.6345"/>
<polygon fill="black" stroke="black" points="152.392,-31.9739 160.984,-25.7744 150.401,-25.263 152.392,-31.9739"/>
<a xlink:href="dir_000023_000000.html" target="_top" xlink:title="2">
<text text-anchor="middle" x="149.753" y="-32.0229" font-family="Futura" font-size="11.00">2</text>
</a>
</g>
</g>
</svg>
