<?xml version="1.0" encoding="UTF-8" standalone="no"?>
<!DOCTYPE svg PUBLIC "-//W3C//DTD SVG 1.1//EN"
 "http://www.w3.org/Graphics/SVG/1.1/DTD/svg11.dtd">
<!-- Generated by graphviz version 2.28.0 (20121015.0031)
 -->
<!-- Title: src/fae/processor Pages: 1 -->
<svg width="104pt" height="154pt"
 viewBox="0.00 0.00 104.00 154.00" xmlns="http://www.w3.org/2000/svg" xmlns:xlink="http://www.w3.org/1999/xlink">
<g id="graph1" class="graph" transform="scale(1 1) rotate(0) translate(4 150)">
<title>src/fae/processor</title>
<g id="graph2" class="cluster"><title>clusterdir_b2fa8b1b41d9767cc2106bf0a5be9954</title>
<a xlink:href="dir_b2fa8b1b41d9767cc2106bf0a5be9954.html" target="_top" xlink:title="fae">
<polygon fill="#ddddee" stroke="black" points="8,-64 8,-138 88,-138 88,-64 8,-64"/>
<text text-anchor="middle" x="48" y="-123" font-family="Futura" font-size="11.00">fae</text>
</a>
</g>
<!-- dir_624f00fad96ded6af3ad56bfbbfedd2b -->
<g id="node2" class="node"><title>dir_624f00fad96ded6af3ad56bfbbfedd2b</title>
<a xlink:href="dir_624f00fad96ded6af3ad56bfbbfedd2b.html" target="_top" xlink:title="processor">
<polygon fill="#eeeeff" stroke="black" points="80.1543,-108 15.8457,-108 15.8457,-72 80.1543,-72 80.1543,-108"/>
<text text-anchor="middle" x="48" y="-86.3047" font-family="Futura" font-size="11.00">processor</text>
</a>
</g>
<!-- dir_d44c64559bbebec7f509842c48db8b23 -->
<g id="node3" class="node"><title>dir_d44c64559bbebec7f509842c48db8b23</title>
<a xlink:href="dir_d44c64559bbebec7f509842c48db8b23.html" target="_top" xlink:title="include">
<polygon fill="none" stroke="red" points="75,-36 21,-36 21,-0 75,-0 75,-36"/>
<text text-anchor="middle" x="48" y="-14.3047" font-family="Futura" font-size="11.00">include</text>
</a>
</g>
<!-- dir_624f00fad96ded6af3ad56bfbbfedd2b&#45;&gt;dir_d44c64559bbebec7f509842c48db8b23 -->
<g id="edge3" class="edge"><title>dir_624f00fad96ded6af3ad56bfbbfedd2b&#45;&gt;dir_d44c64559bbebec7f509842c48db8b23</title>
<path fill="none" stroke="black" d="M48,-71.6966C48,-63.9827 48,-54.7125 48,-46.1124"/>
<polygon fill="black" stroke="black" points="51.5001,-46.1043 48,-36.1043 44.5001,-46.1044 51.5001,-46.1043"/>
<a xlink:href="dir_000020_000000.html" target="_top" xlink:title="16">
<text text-anchor="middle" x="54.3393" y="-46.0036" font-family="Futura" font-size="11.00">16</text>
</a>
</g>
</g>
</svg>
