<?xml version="1.0" encoding="UTF-8" standalone="no"?>
<!DOCTYPE svg PUBLIC "-//W3C//DTD SVG 1.1//EN"
 "http://www.w3.org/Graphics/SVG/1.1/DTD/svg11.dtd">
<!-- Generated by graphviz version 2.28.0 (20121015.0031)
 -->
<!-- Title: src Pages: 1 -->
<svg width="242pt" height="132pt"
 viewBox="0.00 0.00 242.00 132.00" xmlns="http://www.w3.org/2000/svg" xmlns:xlink="http://www.w3.org/1999/xlink">
<g id="graph1" class="graph" transform="scale(1 1) rotate(0) translate(4 128)">
<title>src</title>
<g id="graph2" class="cluster"><title>clusterdir_68267d1309a1af8e8297ef4c3efbcdba</title>
<a xlink:href="dir_68267d1309a1af8e8297ef4c3efbcdba.html" target="_top">
<polygon fill="#eeeeff" stroke="black" points="8,-64 8,-116 226,-116 226,-64 8,-64"/>
</a>
</g>
<!-- dir_68267d1309a1af8e8297ef4c3efbcdba -->
<g id="node2" class="node"><title>dir_68267d1309a1af8e8297ef4c3efbcdba</title>
<text text-anchor="middle" x="191" y="-86.3047" font-family="Futura" font-size="11.00">src</text>
</g>
<!-- dir_b2fa8b1b41d9767cc2106bf0a5be9954 -->
<g id="node3" class="node"><title>dir_b2fa8b1b41d9767cc2106bf0a5be9954</title>
<a xlink:href="dir_b2fa8b1b41d9767cc2106bf0a5be9954.html" target="_top" xlink:title="fae">
<polygon fill="white" stroke="red" points="146,-108 92,-108 92,-72 146,-72 146,-108"/>
<text text-anchor="middle" x="119" y="-86.3047" font-family="Futura" font-size="11.00">fae</text>
</a>
</g>
<!-- dir_d44c64559bbebec7f509842c48db8b23 -->
<g id="node5" class="node"><title>dir_d44c64559bbebec7f509842c48db8b23</title>
<a xlink:href="dir_d44c64559bbebec7f509842c48db8b23.html" target="_top" xlink:title="include">
<polygon fill="none" stroke="red" points="109,-36 55,-36 55,-0 109,-0 109,-36"/>
<text text-anchor="middle" x="82" y="-14.3047" font-family="Futura" font-size="11.00">include</text>
</a>
</g>
<!-- dir_b2fa8b1b41d9767cc2106bf0a5be9954&#45;&gt;dir_d44c64559bbebec7f509842c48db8b23 -->
<g id="edge3" class="edge"><title>dir_b2fa8b1b41d9767cc2106bf0a5be9954&#45;&gt;dir_d44c64559bbebec7f509842c48db8b23</title>
<path fill="none" stroke="black" d="M109.854,-71.6966C105.597,-63.6436 100.444,-53.8945 95.7336,-44.9824"/>
<polygon fill="black" stroke="black" points="98.8083,-43.3097 91.0409,-36.1043 92.6197,-46.5809 98.8083,-43.3097"/>
<a xlink:href="dir_000012_000000.html" target="_top" xlink:title="82">
<text text-anchor="middle" x="102.998" y="-41.4656" font-family="Futura" font-size="11.00">82</text>
</a>
</g>
<!-- dir_4b68c2fef3e151b6b93d5e93b14f1857 -->
<g id="node4" class="node"><title>dir_4b68c2fef3e151b6b93d5e93b14f1857</title>
<a xlink:href="dir_4b68c2fef3e151b6b93d5e93b14f1857.html" target="_top" xlink:title="platform">
<polygon fill="white" stroke="red" points="73.4497,-108 16.5503,-108 16.5503,-72 73.4497,-72 73.4497,-108"/>
<text text-anchor="middle" x="45" y="-86.3047" font-family="Futura" font-size="11.00">platform</text>
</a>
</g>
<!-- dir_4b68c2fef3e151b6b93d5e93b14f1857&#45;&gt;dir_d44c64559bbebec7f509842c48db8b23 -->
<g id="edge5" class="edge"><title>dir_4b68c2fef3e151b6b93d5e93b14f1857&#45;&gt;dir_d44c64559bbebec7f509842c48db8b23</title>
<path fill="none" stroke="black" d="M54.1461,-71.6966C58.4026,-63.6436 63.5558,-53.8945 68.2664,-44.9824"/>
<polygon fill="black" stroke="black" points="71.3803,-46.5809 72.9591,-36.1043 65.1917,-43.3097 71.3803,-46.5809"/>
<a xlink:href="dir_000016_000000.html" target="_top" xlink:title="24">
<text text-anchor="middle" x="72.2108" y="-47.3903" font-family="Futura" font-size="11.00">24</text>
</a>
</g>
</g>
</svg>
