<?xml version="1.0" encoding="UTF-8" standalone="no"?>
<!DOCTYPE svg PUBLIC "-//W3C//DTD SVG 1.1//EN"
 "http://www.w3.org/Graphics/SVG/1.1/DTD/svg11.dtd">
<!-- Generated by graphviz version 2.28.0 (20121015.0031)
 -->
<!-- Title: include/fa/system/directory.h Pages: 1 -->
<svg width="767pt" height="272pt"
 viewBox="0.00 0.00 767.00 272.00" xmlns="http://www.w3.org/2000/svg" xmlns:xlink="http://www.w3.org/1999/xlink">
<g id="graph1" class="graph" transform="scale(1 1) rotate(0) translate(4 268)">
<title>include/fa/system/directory.h</title>
<!-- Node1 -->
<g id="node1" class="node"><title>Node1</title>
<polygon fill="#bfbfbf" stroke="black" points="400.452,-240.695 400.452,-263.305 565.548,-263.305 565.548,-240.695 400.452,-240.695"/>
<text text-anchor="middle" x="483" y="-248.305" font-family="Futura" font-size="11.00">include/fa/system/directory.h</text>
</g>
<!-- Node2 -->
<g id="node3" class="node"><title>Node2</title>
<a xlink:href="system_8h.html" target="_top" xlink:title="include/fa/system.h">
<polygon fill="none" stroke="black" points="425.462,-180.695 425.462,-203.305 540.538,-203.305 540.538,-180.695 425.462,-180.695"/>
<text text-anchor="middle" x="483" y="-188.305" font-family="Futura" font-size="11.00">include/fa/system.h</text>
</a>
</g>
<!-- Node1&#45;&gt;Node2 -->
<g id="edge2" class="edge"><title>Node1&#45;&gt;Node2</title>
<path fill="none" stroke="midnightblue" d="M483,-230.459C483,-221.411 483,-211.16 483,-203.672"/>
<polygon fill="midnightblue" stroke="midnightblue" points="479.5,-230.631 483,-240.631 486.5,-230.631 479.5,-230.631"/>
</g>
<!-- Node3 -->
<g id="node5" class="node"><title>Node3</title>
<a xlink:href="fa_2fa_8h.html" target="_top" xlink:title="include/fa/fa.h">
<polygon fill="none" stroke="red" points="436.846,-120.695 436.846,-143.305 529.154,-143.305 529.154,-120.695 436.846,-120.695"/>
<text text-anchor="middle" x="483" y="-128.305" font-family="Futura" font-size="11.00">include/fa/fa.h</text>
</a>
</g>
<!-- Node2&#45;&gt;Node3 -->
<g id="edge4" class="edge"><title>Node2&#45;&gt;Node3</title>
<path fill="none" stroke="midnightblue" d="M483,-170.459C483,-161.411 483,-151.16 483,-143.672"/>
<polygon fill="midnightblue" stroke="midnightblue" points="479.5,-170.631 483,-180.631 486.5,-170.631 479.5,-170.631"/>
</g>
<!-- Node4 -->
<g id="node7" class="node"><title>Node4</title>
<a xlink:href="action_8h.html" target="_top" xlink:title="include/fa/action.h">
<polygon fill="none" stroke="red" points="-0.253906,-0.695312 -0.253906,-23.3047 112.254,-23.3047 112.254,-0.695312 -0.253906,-0.695312"/>
<text text-anchor="middle" x="56" y="-8.30469" font-family="Futura" font-size="11.00">include/fa/action.h</text>
</a>
</g>
<!-- Node3&#45;&gt;Node4 -->
<g id="edge6" class="edge"><title>Node3&#45;&gt;Node4</title>
<path fill="none" stroke="midnightblue" d="M426.455,-131.321C327.37,-130.906 128.241,-124.998 75,-84 55.788,-69.2059 49.7351,-39.2816 51.1328,-23.4184"/>
<polygon fill="midnightblue" stroke="midnightblue" points="426.579,-134.821 436.588,-131.345 426.597,-127.821 426.579,-134.821"/>
</g>
<!-- Node5 -->
<g id="node10" class="node"><title>Node5</title>
<a xlink:href="buffer_8h.html" target="_top" xlink:title="include/fa/buffer.h">
<polygon fill="none" stroke="red" points="93.2268,-60.6953 93.2268,-83.3047 204.773,-83.3047 204.773,-60.6953 93.2268,-60.6953"/>
<text text-anchor="middle" x="149" y="-68.3047" font-family="Futura" font-size="11.00">include/fa/buffer.h</text>
</a>
</g>
<!-- Node3&#45;&gt;Node5 -->
<g id="edge10" class="edge"><title>Node3&#45;&gt;Node5</title>
<path fill="none" stroke="midnightblue" d="M426.593,-121.205C364.804,-110.475 266.32,-93.373 204.781,-82.6865"/>
<polygon fill="midnightblue" stroke="midnightblue" points="426.107,-124.673 436.559,-122.935 427.305,-117.776 426.107,-124.673"/>
</g>
<!-- Node6 -->
<g id="node12" class="node"><title>Node6</title>
<a xlink:href="device_8h.html" target="_top" xlink:title="include/fa/device.h">
<polygon fill="none" stroke="red" points="222.817,-60.6953 222.817,-83.3047 337.183,-83.3047 337.183,-60.6953 222.817,-60.6953"/>
<text text-anchor="middle" x="280" y="-68.3047" font-family="Futura" font-size="11.00">include/fa/device.h</text>
</a>
</g>
<!-- Node3&#45;&gt;Node6 -->
<g id="edge12" class="edge"><title>Node3&#45;&gt;Node6</title>
<path fill="none" stroke="midnightblue" d="M436.796,-117.799C400.272,-107.363 349.999,-92.9997 316.32,-83.3771"/>
<polygon fill="midnightblue" stroke="midnightblue" points="436.131,-121.249 446.708,-120.631 438.054,-114.518 436.131,-121.249"/>
</g>
<!-- Node7 -->
<g id="node14" class="node"><title>Node7</title>
<a xlink:href="dynamic_8h.html" target="_top" xlink:title="include/fa/dynamic.h">
<polygon fill="none" stroke="black" points="354.918,-60.6953 354.918,-83.3047 479.082,-83.3047 479.082,-60.6953 354.918,-60.6953"/>
<text text-anchor="middle" x="417" y="-68.3047" font-family="Futura" font-size="11.00">include/fa/dynamic.h</text>
</a>
</g>
<!-- Node3&#45;&gt;Node7 -->
<g id="edge14" class="edge"><title>Node3&#45;&gt;Node7</title>
<path fill="none" stroke="midnightblue" d="M463.616,-113.966C452.461,-104.163 438.789,-92.1477 429.144,-83.6719"/>
<polygon fill="midnightblue" stroke="midnightblue" points="461.378,-116.659 471.201,-120.631 465.999,-111.4 461.378,-116.659"/>
</g>
<!-- Node8 -->
<g id="node16" class="node"><title>Node8</title>
<a xlink:href="error_8h.html" target="_top" xlink:title="include/fa/error.h">
<polygon fill="none" stroke="red" points="496.598,-60.6953 496.598,-83.3047 603.402,-83.3047 603.402,-60.6953 496.598,-60.6953"/>
<text text-anchor="middle" x="550" y="-68.3047" font-family="Futura" font-size="11.00">include/fa/error.h</text>
</a>
</g>
<!-- Node3&#45;&gt;Node8 -->
<g id="edge16" class="edge"><title>Node3&#45;&gt;Node8</title>
<path fill="none" stroke="midnightblue" d="M496.82,-113.633C507.257,-103.816 521.363,-91.8659 532.565,-83.475"/>
<polygon fill="midnightblue" stroke="midnightblue" points="494.366,-111.137 489.662,-120.631 499.26,-116.142 494.366,-111.137"/>
</g>
<!-- Node9 -->
<g id="node19" class="node"><title>Node9</title>
<a xlink:href="list_8h.html" target="_top" xlink:title="include/fa/list.h">
<polygon fill="none" stroke="red" points="621.385,-60.6953 621.385,-83.3047 716.615,-83.3047 716.615,-60.6953 621.385,-60.6953"/>
<text text-anchor="middle" x="669" y="-68.3047" font-family="Futura" font-size="11.00">include/fa/list.h</text>
</a>
</g>
<!-- Node3&#45;&gt;Node9 -->
<g id="edge20" class="edge"><title>Node3&#45;&gt;Node9</title>
<path fill="none" stroke="midnightblue" d="M520.807,-117.396C552.769,-106.996 598.217,-92.8764 630.404,-83.3771"/>
<polygon fill="midnightblue" stroke="midnightblue" points="519.349,-114.19 510.937,-120.631 521.53,-120.842 519.349,-114.19"/>
</g>
<!-- Node10 -->
<g id="node23" class="node"><title>Node10</title>
<a xlink:href="map_8h.html" target="_top" xlink:title="include/fa/map.h">
<polygon fill="none" stroke="red" points="654.914,-0.695312 654.914,-23.3047 759.086,-23.3047 759.086,-0.695312 654.914,-0.695312"/>
<text text-anchor="middle" x="707" y="-8.30469" font-family="Futura" font-size="11.00">include/fa/map.h</text>
</a>
</g>
<!-- Node3&#45;&gt;Node10 -->
<g id="edge28" class="edge"><title>Node3&#45;&gt;Node10</title>
<path fill="none" stroke="midnightblue" d="M539.513,-128.1C603.522,-123.493 701.95,-111.957 725,-84 739.561,-66.3391 724.747,-38.4125 714.667,-23.3877"/>
<polygon fill="midnightblue" stroke="midnightblue" points="538.9,-124.633 529.162,-128.806 539.377,-131.617 538.9,-124.633"/>
</g>
<!-- Node4&#45;&gt;Node3 -->
<g id="edge8" class="edge"><title>Node4&#45;&gt;Node3</title>
<path fill="none" stroke="midnightblue" d="M65.5047,-33.1623C70.3352,-49.5472 77.2401,-71.8642 93,-84 146.191,-124.96 344.996,-130.895 436.522,-131.32"/>
<polygon fill="midnightblue" stroke="midnightblue" points="68.8028,-31.977 62.5577,-23.4184 62.1026,-34.0035 68.8028,-31.977"/>
</g>
<!-- Node8&#45;&gt;Node3 -->
<g id="edge18" class="edge"><title>Node8&#45;&gt;Node3</title>
<path fill="none" stroke="midnightblue" d="M535.853,-90.6745C525.405,-100.475 511.402,-112.322 500.294,-120.631"/>
<polygon fill="midnightblue" stroke="midnightblue" points="538.321,-93.1566 543.042,-83.6719 533.437,-88.1421 538.321,-93.1566"/>
</g>
<!-- Node9&#45;&gt;Node3 -->
<g id="edge24" class="edge"><title>Node9&#45;&gt;Node3</title>
<path fill="none" stroke="midnightblue" d="M631.167,-86.613C599.197,-97.0147 553.749,-111.134 521.569,-120.631"/>
<polygon fill="midnightblue" stroke="midnightblue" points="632.627,-89.8178 641.039,-83.3771 630.446,-83.166 632.627,-89.8178"/>
</g>
<!-- Node9&#45;&gt;Node4 -->
<g id="edge22" class="edge"><title>Node9&#45;&gt;Node4</title>
<path fill="none" stroke="midnightblue" d="M611.084,-60.0004C422.808,-34.3963 211.671,-21.1164 112.65,-15.7951"/>
<polygon fill="midnightblue" stroke="midnightblue" points="610.784,-63.492 621.167,-61.3866 611.737,-56.5572 610.784,-63.492"/>
</g>
<!-- Node9&#45;&gt;Node10 -->
<g id="edge26" class="edge"><title>Node9&#45;&gt;Node10</title>
<path fill="none" stroke="midnightblue" d="M681.297,-52.2313C687.492,-42.775 694.778,-31.6539 700.008,-23.6719"/>
<polygon fill="midnightblue" stroke="midnightblue" points="678.346,-50.348 675.794,-60.6308 684.202,-54.1842 678.346,-50.348"/>
</g>
</g>
</svg>
