<?xml version="1.0" encoding="UTF-8" standalone="no"?>
<!DOCTYPE svg PUBLIC "-//W3C//DTD SVG 1.1//EN"
 "http://www.w3.org/Graphics/SVG/1.1/DTD/svg11.dtd">
<!-- Generated by graphviz version 2.28.0 (20121015.0031)
 -->
<!-- Title: include/fa/system/directory.h Pages: 1 -->
<svg width="685pt" height="272pt"
 viewBox="0.00 0.00 685.16 272.00" xmlns="http://www.w3.org/2000/svg" xmlns:xlink="http://www.w3.org/1999/xlink">
<g id="graph1" class="graph" transform="scale(1 1) rotate(0) translate(4 268)">
<title>include/fa/system/directory.h</title>
<!-- Node1 -->
<g id="node1" class="node"><title>Node1</title>
<polygon fill="#bfbfbf" stroke="black" points="18.6095,-240.695 18.6095,-263.305 183.706,-263.305 183.706,-240.695 18.6095,-240.695"/>
<text text-anchor="middle" x="101.158" y="-248.305" font-family="Futura" font-size="11.00">include/fa/system/directory.h</text>
</g>
<!-- Node2 -->
<g id="node3" class="node"><title>Node2</title>
<polygon fill="none" stroke="#bfbfbf" points="300.431,-0.695312 300.431,-23.3047 335.885,-23.3047 335.885,-0.695312 300.431,-0.695312"/>
<text text-anchor="middle" x="318.158" y="-8.30469" font-family="Futura" font-size="11.00">fa.h</text>
</g>
<!-- Node1&#45;&gt;Node2 -->
<g id="edge2" class="edge"><title>Node1&#45;&gt;Node2</title>
<path fill="none" stroke="midnightblue" d="M89.0121,-240.333C55.1707,-209.367 -34.5325,-117.992 15.1576,-60 50.5013,-18.7513 222.056,-13.3997 290.187,-12.9256"/>
<polygon fill="midnightblue" stroke="midnightblue" points="290.21,-16.4256 300.196,-12.8866 290.183,-9.42565 290.21,-16.4256"/>
</g>
<!-- Node3 -->
<g id="node5" class="node"><title>Node3</title>
<a xlink:href="string_8h.html" target="_top" xlink:title="fa/string.h">
<polygon fill="none" stroke="black" points="67.0272,-180.695 67.0272,-203.305 135.288,-203.305 135.288,-180.695 67.0272,-180.695"/>
<text text-anchor="middle" x="101.158" y="-188.305" font-family="Futura" font-size="11.00">fa/string.h</text>
</a>
</g>
<!-- Node1&#45;&gt;Node3 -->
<g id="edge4" class="edge"><title>Node1&#45;&gt;Node3</title>
<path fill="none" stroke="midnightblue" d="M101.158,-240.631C101.158,-233.218 101.158,-222.989 101.158,-213.91"/>
<polygon fill="midnightblue" stroke="midnightblue" points="104.658,-213.672 101.158,-203.672 97.6577,-213.672 104.658,-213.672"/>
</g>
<!-- Node4 -->
<g id="node7" class="node"><title>Node4</title>
<a xlink:href="fa_2fa_8h.html" target="_top" xlink:title="fa.h">
<polygon fill="none" stroke="red" points="127.431,-120.695 127.431,-143.305 162.885,-143.305 162.885,-120.695 127.431,-120.695"/>
<text text-anchor="middle" x="145.158" y="-128.305" font-family="Futura" font-size="11.00">fa.h</text>
</a>
</g>
<!-- Node3&#45;&gt;Node4 -->
<g id="edge6" class="edge"><title>Node3&#45;&gt;Node4</title>
<path fill="none" stroke="midnightblue" d="M109.024,-180.631C115.08,-172.648 123.614,-161.398 130.868,-151.837"/>
<polygon fill="midnightblue" stroke="midnightblue" points="133.806,-153.754 137.062,-143.672 128.229,-149.523 133.806,-153.754"/>
</g>
<!-- Node5 -->
<g id="node9" class="node"><title>Node5</title>
<a xlink:href="atomic_8h.html" target="_top" xlink:title="fa/atomic.h">
<polygon fill="none" stroke="red" points="108.095,-60.6953 108.095,-83.3047 182.221,-83.3047 182.221,-60.6953 108.095,-60.6953"/>
<text text-anchor="middle" x="145.158" y="-68.3047" font-family="Futura" font-size="11.00">fa/atomic.h</text>
</a>
</g>
<!-- Node4&#45;&gt;Node5 -->
<g id="edge8" class="edge"><title>Node4&#45;&gt;Node5</title>
<path fill="none" stroke="midnightblue" d="M139.842,-120.631C138.48,-113.137 138.088,-102.764 138.665,-93.6107"/>
<polygon fill="midnightblue" stroke="midnightblue" points="142.143,-94.0015 139.788,-83.6719 135.187,-93.2159 142.143,-94.0015"/>
</g>
<!-- Node6 -->
<g id="node12" class="node"><title>Node6</title>
<a xlink:href="queue_8h.html" target="_top" xlink:title="fa/atomic/queue.h">
<polygon fill="none" stroke="black" points="199.806,-60.6953 199.806,-83.3047 310.509,-83.3047 310.509,-60.6953 199.806,-60.6953"/>
<text text-anchor="middle" x="255.158" y="-68.3047" font-family="Futura" font-size="11.00">fa/atomic/queue.h</text>
</a>
</g>
<!-- Node4&#45;&gt;Node6 -->
<g id="edge12" class="edge"><title>Node4&#45;&gt;Node6</title>
<path fill="none" stroke="midnightblue" d="M163.322,-121.422C180.495,-112.367 206.536,-98.6369 226.507,-88.1065"/>
<polygon fill="midnightblue" stroke="midnightblue" points="228.267,-91.1357 235.48,-83.3755 225.002,-84.9437 228.267,-91.1357"/>
</g>
<!-- Node7 -->
<g id="node15" class="node"><title>Node7</title>
<a xlink:href="stack_8h.html" target="_top" xlink:title="fa/atomic/stack.h">
<polygon fill="none" stroke="black" points="328.577,-60.6953 328.577,-83.3047 433.738,-83.3047 433.738,-60.6953 328.577,-60.6953"/>
<text text-anchor="middle" x="381.158" y="-68.3047" font-family="Futura" font-size="11.00">fa/atomic/stack.h</text>
</a>
</g>
<!-- Node4&#45;&gt;Node7 -->
<g id="edge16" class="edge"><title>Node4&#45;&gt;Node7</title>
<path fill="none" stroke="midnightblue" d="M162.896,-126.641C197.74,-118.077 276.313,-98.767 329.046,-85.807"/>
<polygon fill="midnightblue" stroke="midnightblue" points="330.026,-89.1705 338.902,-83.3849 328.355,-82.3727 330.026,-89.1705"/>
</g>
<!-- Node8 -->
<g id="node18" class="node"><title>Node8</title>
<a xlink:href="ring__buffer_8h.html" target="_top" xlink:title="fa/atomic/ring_buffer.h">
<polygon fill="none" stroke="black" points="451.683,-60.6953 451.683,-83.3047 586.632,-83.3047 586.632,-60.6953 451.683,-60.6953"/>
<text text-anchor="middle" x="519.158" y="-68.3047" font-family="Futura" font-size="11.00">fa/atomic/ring_buffer.h</text>
</a>
</g>
<!-- Node4&#45;&gt;Node8 -->
<g id="edge20" class="edge"><title>Node4&#45;&gt;Node8</title>
<path fill="none" stroke="midnightblue" d="M163.196,-128.203C212.793,-120.511 353.418,-98.703 442.351,-84.9112"/>
<polygon fill="midnightblue" stroke="midnightblue" points="443.049,-88.3448 452.395,-83.3536 441.977,-81.4275 443.049,-88.3448"/>
</g>
<!-- Node9 -->
<g id="node21" class="node"><title>Node9</title>
<a xlink:href="system_8h.html" target="_top" xlink:title="fa/system.h">
<polygon fill="none" stroke="black" points="604.183,-60.6953 604.183,-83.3047 678.132,-83.3047 678.132,-60.6953 604.183,-60.6953"/>
<text text-anchor="middle" x="641.158" y="-68.3047" font-family="Futura" font-size="11.00">fa/system.h</text>
</a>
</g>
<!-- Node4&#45;&gt;Node9 -->
<g id="edge24" class="edge"><title>Node4&#45;&gt;Node9</title>
<path fill="none" stroke="midnightblue" d="M163.278,-129.96C223.27,-126.341 420.965,-112.993 594.036,-84.0101"/>
<polygon fill="midnightblue" stroke="midnightblue" points="594.813,-87.4284 604.086,-82.3045 593.642,-80.5271 594.813,-87.4284"/>
</g>
<!-- Node10 -->
<g id="node24" class="node"><title>Node10</title>
<a xlink:href="error_8h.html" target="_top" xlink:title="fa/error.h">
<polygon fill="none" stroke="black" points="24.3189,-60.6953 24.3189,-83.3047 89.9962,-83.3047 89.9962,-60.6953 24.3189,-60.6953"/>
<text text-anchor="middle" x="57.1576" y="-68.3047" font-family="Futura" font-size="11.00">fa/error.h</text>
</a>
</g>
<!-- Node4&#45;&gt;Node10 -->
<g id="edge28" class="edge"><title>Node4&#45;&gt;Node10</title>
<path fill="none" stroke="midnightblue" d="M127.217,-122.442C112.134,-113.749 90.9863,-100.071 75.7545,-89.3029"/>
<polygon fill="midnightblue" stroke="midnightblue" points="77.7101,-86.3976 67.5604,-83.3588 73.5997,-92.0638 77.7101,-86.3976"/>
</g>
<!-- Node5&#45;&gt;Node4 -->
<g id="edge10" class="edge"><title>Node5&#45;&gt;Node4</title>
<path fill="none" stroke="midnightblue" d="M150.528,-83.6719C151.848,-91.1602 152.221,-101.411 151.646,-110.459"/>
<polygon fill="midnightblue" stroke="midnightblue" points="148.141,-110.296 150.473,-120.631 155.095,-111.097 148.141,-110.296"/>
</g>
<!-- Node6&#45;&gt;Node2 -->
<g id="edge14" class="edge"><title>Node6&#45;&gt;Node2</title>
<path fill="none" stroke="midnightblue" d="M266.421,-60.6308C275.446,-52.3219 288.314,-40.4746 298.959,-30.6745"/>
<polygon fill="midnightblue" stroke="midnightblue" points="301.579,-33.0199 306.566,-23.6719 296.838,-27.87 301.579,-33.0199"/>
</g>
<!-- Node7&#45;&gt;Node2 -->
<g id="edge18" class="edge"><title>Node7&#45;&gt;Node2</title>
<path fill="none" stroke="midnightblue" d="M369.894,-60.6308C360.869,-52.3219 348.001,-40.4746 337.356,-30.6745"/>
<polygon fill="midnightblue" stroke="midnightblue" points="339.477,-27.87 329.749,-23.6719 334.736,-33.0199 339.477,-27.87"/>
</g>
<!-- Node8&#45;&gt;Node2 -->
<g id="edge22" class="edge"><title>Node8&#45;&gt;Node2</title>
<path fill="none" stroke="midnightblue" d="M483.223,-60.6308C443.86,-49.2724 381.582,-31.3016 345.838,-20.9875"/>
<polygon fill="midnightblue" stroke="midnightblue" points="346.655,-17.5803 336.076,-18.1706 344.714,-24.3059 346.655,-17.5803"/>
</g>
<!-- Node9&#45;&gt;Node1 -->
<g id="edge26" class="edge"><title>Node9&#45;&gt;Node1</title>
<path fill="none" stroke="midnightblue" d="M609.704,-83.368C517.228,-113.851 246.213,-203.186 142.333,-237.427"/>
<polygon fill="midnightblue" stroke="midnightblue" points="140.926,-234.206 132.524,-240.661 143.117,-240.854 140.926,-234.206"/>
</g>
<!-- Node10&#45;&gt;Node3 -->
<g id="edge32" class="edge"><title>Node10&#45;&gt;Node3</title>
<path fill="none" stroke="midnightblue" d="M61.1168,-83.6179C68.4466,-103.275 84.2392,-145.628 93.6525,-170.873"/>
<polygon fill="midnightblue" stroke="midnightblue" points="90.4795,-172.381 97.2529,-180.528 97.0384,-169.936 90.4795,-172.381"/>
</g>
<!-- Node10&#45;&gt;Node4 -->
<g id="edge30" class="edge"><title>Node10&#45;&gt;Node4</title>
<path fill="none" stroke="midnightblue" d="M78.3857,-83.475C93.0439,-92.1126 112.146,-104.522 126.273,-114.494"/>
<polygon fill="midnightblue" stroke="midnightblue" points="124.59,-117.596 134.741,-120.631 128.698,-111.928 124.59,-117.596"/>
</g>
</g>
</svg>
