<?xml version="1.0" encoding="UTF-8" standalone="no"?>
<!DOCTYPE svg PUBLIC "-//W3C//DTD SVG 1.1//EN"
 "http://www.w3.org/Graphics/SVG/1.1/DTD/svg11.dtd">
<!-- Generated by graphviz version 2.28.0 (20121015.0031)
 -->
<!-- Title: include/fae/system/directory.h Pages: 1 -->
<svg width="711pt" height="286pt"
 viewBox="0.00 0.00 711.46 286.00" xmlns="http://www.w3.org/2000/svg" xmlns:xlink="http://www.w3.org/1999/xlink">
<g id="graph1" class="graph" transform="scale(1 1) rotate(0) translate(4 282)">
<title>include/fae/system/directory.h</title>
<!-- Node1 -->
<g id="node1" class="node"><title>Node1</title>
<polygon fill="#bfbfbf" stroke="black" points="126.591,-240.391 126.591,-277.609 238.326,-277.609 238.326,-240.391 126.591,-240.391"/>
<text text-anchor="start" x="134.591" y="-262.609" font-family="Futura" font-size="11.00">include/fae/system</text>
<text text-anchor="middle" x="182.459" y="-248" font-family="Futura" font-size="11.00">/directory.h</text>
</g>
<!-- Node2 -->
<g id="node3" class="node"><title>Node2</title>
<polygon fill="none" stroke="#bfbfbf" points="129.689,-0.695312 129.689,-23.3047 171.228,-23.3047 171.228,-0.695312 129.689,-0.695312"/>
<text text-anchor="middle" x="150.459" y="-8.30469" font-family="Futura" font-size="11.00">fae.h</text>
</g>
<!-- Node1&#45;&gt;Node2 -->
<g id="edge2" class="edge"><title>Node1&#45;&gt;Node2</title>
<path fill="none" stroke="midnightblue" d="M152.879,-240.327C110.405,-213.005 33.9059,-156.059 3.45862,-84 -17.1467,-35.234 70.582,-19.8325 119.52,-15.0692"/>
<polygon fill="midnightblue" stroke="midnightblue" points="119.953,-18.5448 129.608,-14.1836 119.341,-11.5717 119.953,-18.5448"/>
</g>
<!-- Node3 -->
<g id="node5" class="node"><title>Node3</title>
<a xlink:href="string_8h.html" target="_top" xlink:title="fae/string.h">
<polygon fill="none" stroke="black" points="145.286,-180.695 145.286,-203.305 219.632,-203.305 219.632,-180.695 145.286,-180.695"/>
<text text-anchor="middle" x="182.459" y="-188.305" font-family="Futura" font-size="11.00">fae/string.h</text>
</a>
</g>
<!-- Node1&#45;&gt;Node3 -->
<g id="edge4" class="edge"><title>Node1&#45;&gt;Node3</title>
<path fill="none" stroke="midnightblue" d="M182.459,-240.238C182.459,-232.084 182.459,-222.359 182.459,-213.859"/>
<polygon fill="midnightblue" stroke="midnightblue" points="185.959,-213.624 182.459,-203.624 178.959,-213.624 185.959,-213.624"/>
</g>
<!-- Node4 -->
<g id="node7" class="node"><title>Node4</title>
<a xlink:href="fae_2fae_8h.html" target="_top" xlink:title="fae.h">
<polygon fill="none" stroke="red" points="295.689,-120.695 295.689,-143.305 337.228,-143.305 337.228,-120.695 295.689,-120.695"/>
<text text-anchor="middle" x="316.459" y="-128.305" font-family="Futura" font-size="11.00">fae.h</text>
</a>
</g>
<!-- Node3&#45;&gt;Node4 -->
<g id="edge6" class="edge"><title>Node3&#45;&gt;Node4</title>
<path fill="none" stroke="midnightblue" d="M206.415,-180.631C228.646,-171.008 261.841,-156.64 285.957,-146.202"/>
<polygon fill="midnightblue" stroke="midnightblue" points="287.568,-149.319 295.355,-142.134 284.788,-142.895 287.568,-149.319"/>
</g>
<!-- Node5 -->
<g id="node9" class="node"><title>Node5</title>
<a xlink:href="atomic_8h.html" target="_top" xlink:title="fae/atomic.h">
<polygon fill="none" stroke="red" points="390.353,-60.6953 390.353,-83.3047 470.564,-83.3047 470.564,-60.6953 390.353,-60.6953"/>
<text text-anchor="middle" x="430.459" y="-68.3047" font-family="Futura" font-size="11.00">fae/atomic.h</text>
</a>
</g>
<!-- Node4&#45;&gt;Node5 -->
<g id="edge8" class="edge"><title>Node4&#45;&gt;Node5</title>
<path fill="none" stroke="midnightblue" d="M331.524,-120.631C347.827,-111.491 373.987,-98.0705 395.392,-87.8023"/>
<polygon fill="midnightblue" stroke="midnightblue" points="396.993,-90.9167 404.535,-83.475 393.999,-84.5896 396.993,-90.9167"/>
</g>
<!-- Node6 -->
<g id="node12" class="node"><title>Node6</title>
<polygon fill="none" stroke="#bfbfbf" points="489.064,-60.6953 489.064,-83.3047 605.853,-83.3047 605.853,-60.6953 489.064,-60.6953"/>
<text text-anchor="middle" x="547.459" y="-68.3047" font-family="Futura" font-size="11.00">fae/atomic/queue.h</text>
</g>
<!-- Node4&#45;&gt;Node6 -->
<g id="edge12" class="edge"><title>Node4&#45;&gt;Node6</title>
<path fill="none" stroke="midnightblue" d="M337.366,-125.751C373.004,-116.802 446.496,-98.3499 496.394,-85.8214"/>
<polygon fill="midnightblue" stroke="midnightblue" points="497.504,-89.1514 506.351,-83.3214 495.799,-82.3621 497.504,-89.1514"/>
</g>
<!-- Node7 -->
<g id="node14" class="node"><title>Node7</title>
<a xlink:href="stack_8h.html" target="_top" xlink:title="fae/atomic/stack.h">
<polygon fill="none" stroke="black" points="260.836,-60.6953 260.836,-83.3047 372.081,-83.3047 372.081,-60.6953 260.836,-60.6953"/>
<text text-anchor="middle" x="316.459" y="-68.3047" font-family="Futura" font-size="11.00">fae/atomic/stack.h</text>
</a>
</g>
<!-- Node4&#45;&gt;Node7 -->
<g id="edge14" class="edge"><title>Node4&#45;&gt;Node7</title>
<path fill="none" stroke="midnightblue" d="M316.459,-120.631C316.459,-113.218 316.459,-102.989 316.459,-93.9096"/>
<polygon fill="midnightblue" stroke="midnightblue" points="319.959,-93.6718 316.459,-83.6719 312.959,-93.6719 319.959,-93.6718"/>
</g>
<!-- Node8 -->
<g id="node17" class="node"><title>Node8</title>
<polygon fill="none" stroke="#bfbfbf" points="101.942,-60.6953 101.942,-83.3047 242.975,-83.3047 242.975,-60.6953 101.942,-60.6953"/>
<text text-anchor="middle" x="172.459" y="-68.3047" font-family="Futura" font-size="11.00">fae/atomic/ring_buffer.h</text>
</g>
<!-- Node4&#45;&gt;Node8 -->
<g id="edge18" class="edge"><title>Node4&#45;&gt;Node8</title>
<path fill="none" stroke="midnightblue" d="M295.52,-122.566C272.424,-113.264 234.885,-98.1439 207.332,-87.0463"/>
<polygon fill="midnightblue" stroke="midnightblue" points="208.626,-83.7944 198.043,-83.3048 206.011,-90.2875 208.626,-83.7944"/>
</g>
<!-- Node9 -->
<g id="node19" class="node"><title>Node9</title>
<a xlink:href="system_8h.html" target="_top" xlink:title="fae/system.h">
<polygon fill="none" stroke="red" points="623.442,-60.6953 623.442,-83.3047 703.476,-83.3047 703.476,-60.6953 623.442,-60.6953"/>
<text text-anchor="middle" x="663.459" y="-68.3047" font-family="Futura" font-size="11.00">fae/system.h</text>
</a>
</g>
<!-- Node4&#45;&gt;Node9 -->
<g id="edge20" class="edge"><title>Node4&#45;&gt;Node9</title>
<path fill="none" stroke="midnightblue" d="M337.494,-128.157C384.887,-121.653 503.808,-104.769 613.488,-84.0973"/>
<polygon fill="midnightblue" stroke="midnightblue" points="614.22,-87.5208 623.391,-82.2154 612.913,-80.6438 614.22,-87.5208"/>
</g>
<!-- Node10 -->
<g id="node22" class="node"><title>Node10</title>
<a xlink:href="error_8h.html" target="_top" xlink:title="fae/error.h">
<polygon fill="none" stroke="black" points="12.5773,-60.6953 12.5773,-83.3047 84.34,-83.3047 84.34,-60.6953 12.5773,-60.6953"/>
<text text-anchor="middle" x="48.4586" y="-68.3047" font-family="Futura" font-size="11.00">fae/error.h</text>
</a>
</g>
<!-- Node4&#45;&gt;Node10 -->
<g id="edge24" class="edge"><title>Node4&#45;&gt;Node10</title>
<path fill="none" stroke="midnightblue" d="M295.402,-127.792C255.758,-120.774 168.465,-103.313 90.6031,-85.6232"/>
<polygon fill="midnightblue" stroke="midnightblue" points="91.1973,-82.1688 80.6689,-83.353 89.6378,-88.9929 91.1973,-82.1688"/>
</g>
<!-- Node5&#45;&gt;Node4 -->
<g id="edge10" class="edge"><title>Node5&#45;&gt;Node4</title>
<path fill="none" stroke="midnightblue" d="M415.157,-83.5018C397.587,-93.3381 368.784,-108.048 346.718,-118.488"/>
<polygon fill="midnightblue" stroke="midnightblue" points="345.013,-115.421 337.423,-122.813 347.966,-121.768 345.013,-115.421"/>
</g>
<!-- Node7&#45;&gt;Node2 -->
<g id="edge16" class="edge"><title>Node7&#45;&gt;Node2</title>
<path fill="none" stroke="midnightblue" d="M286.781,-60.6308C256.954,-50.2091 211.193,-34.2205 181.046,-23.6873"/>
<polygon fill="midnightblue" stroke="midnightblue" points="182.062,-20.3346 171.467,-20.3402 179.753,-26.9429 182.062,-20.3346"/>
</g>
<!-- Node9&#45;&gt;Node1 -->
<g id="edge22" class="edge"><title>Node9&#45;&gt;Node1</title>
<path fill="none" stroke="midnightblue" d="M636.51,-83.3647C560.182,-112.722 341.373,-196.879 237.922,-236.668"/>
<polygon fill="midnightblue" stroke="midnightblue" points="236.656,-233.405 228.579,-240.261 239.169,-239.938 236.656,-233.405"/>
</g>
<!-- Node10&#45;&gt;Node3 -->
<g id="edge28" class="edge"><title>Node10&#45;&gt;Node3</title>
<path fill="none" stroke="midnightblue" d="M60.5162,-83.6179C83.7356,-104.065 134.841,-149.068 162.961,-173.83"/>
<polygon fill="midnightblue" stroke="midnightblue" points="160.749,-176.546 170.567,-180.528 165.375,-171.293 160.749,-176.546"/>
</g>
<!-- Node10&#45;&gt;Node4 -->
<g id="edge26" class="edge"><title>Node10&#45;&gt;Node4</title>
<path fill="none" stroke="midnightblue" d="M84.6972,-80.0273C90.363,-81.3836 96.0869,-82.7654 101.459,-84 166.969,-99.0558 243.712,-114.737 285.64,-123.642"/>
<polygon fill="midnightblue" stroke="midnightblue" points="285.01,-127.087 295.521,-125.756 286.475,-120.242 285.01,-127.087"/>
</g>
</g>
</svg>
