<?xml version="1.0" encoding="UTF-8" standalone="no"?>
<!DOCTYPE svg PUBLIC "-//W3C//DTD SVG 1.1//EN"
 "http://www.w3.org/Graphics/SVG/1.1/DTD/svg11.dtd">
<!-- Generated by graphviz version 2.28.0 (20121015.0031)
 -->
<!-- Title: src/platform/macosx/fae/system/directory.c Pages: 1 -->
<svg width="470pt" height="166pt"
 viewBox="0.00 0.00 470.00 166.00" xmlns="http://www.w3.org/2000/svg" xmlns:xlink="http://www.w3.org/1999/xlink">
<g id="graph1" class="graph" transform="scale(1 1) rotate(0) translate(4 162)">
<title>src/platform/macosx/fae/system/directory.c</title>
<!-- Node1 -->
<g id="node1" class="node"><title>Node1</title>
<polygon fill="#bfbfbf" stroke="black" points="171.518,-120.391 171.518,-157.609 306.482,-157.609 306.482,-120.391 171.518,-120.391"/>
<text text-anchor="start" x="179.518" y="-142.609" font-family="Futura" font-size="11.00">src/platform/macosx</text>
<text text-anchor="middle" x="239" y="-128" font-family="Futura" font-size="11.00">/fae/system/directory.c</text>
</g>
<!-- Node2 -->
<g id="node3" class="node"><title>Node2</title>
<a xlink:href="string_8h.html" target="_top" xlink:title="fae/string.h">
<polygon fill="none" stroke="black" points="-0.173096,-60.6953 -0.173096,-83.3047 74.1731,-83.3047 74.1731,-60.6953 -0.173096,-60.6953"/>
<text text-anchor="middle" x="37" y="-68.3047" font-family="Futura" font-size="11.00">fae/string.h</text>
</a>
</g>
<!-- Node1&#45;&gt;Node2 -->
<g id="edge2" class="edge"><title>Node1&#45;&gt;Node2</title>
<path fill="none" stroke="midnightblue" d="M184.069,-120.324C151.006,-109.685 109.56,-96.3484 79.0998,-86.547"/>
<polygon fill="midnightblue" stroke="midnightblue" points="79.8105,-83.099 69.2191,-83.3675 77.6663,-89.7625 79.8105,-83.099"/>
</g>
<!-- Node4 -->
<g id="node7" class="node"><title>Node4</title>
<a xlink:href="util_8h.html" target="_top" xlink:title="fae/util.h">
<polygon fill="none" stroke="red" points="92.1406,-60.6953 92.1406,-83.3047 153.859,-83.3047 153.859,-60.6953 92.1406,-60.6953"/>
<text text-anchor="middle" x="123" y="-68.3047" font-family="Futura" font-size="11.00">fae/util.h</text>
</a>
</g>
<!-- Node1&#45;&gt;Node4 -->
<g id="edge6" class="edge"><title>Node1&#45;&gt;Node4</title>
<path fill="none" stroke="midnightblue" d="M207.302,-120.238C189.53,-110.28 167.578,-97.9789 150.53,-88.4263"/>
<polygon fill="midnightblue" stroke="midnightblue" points="152.056,-85.2694 141.621,-83.4344 148.634,-91.3761 152.056,-85.2694"/>
</g>
<!-- Node7 -->
<g id="node13" class="node"><title>Node7</title>
<polygon fill="none" stroke="#bfbfbf" points="171.871,-60.6953 171.871,-83.3047 226.129,-83.3047 226.129,-60.6953 171.871,-60.6953"/>
<text text-anchor="middle" x="199" y="-68.3047" font-family="Futura" font-size="11.00">unistd.h</text>
</g>
<!-- Node1&#45;&gt;Node7 -->
<g id="edge12" class="edge"><title>Node1&#45;&gt;Node7</title>
<path fill="none" stroke="midnightblue" d="M228.07,-120.238C222.713,-111.534 216.256,-101.041 210.789,-92.1571"/>
<polygon fill="midnightblue" stroke="midnightblue" points="213.76,-90.3066 205.538,-83.6243 207.798,-93.9753 213.76,-90.3066"/>
</g>
<!-- Node8 -->
<g id="node15" class="node"><title>Node8</title>
<polygon fill="none" stroke="#bfbfbf" points="243.92,-60.6953 243.92,-83.3047 316.08,-83.3047 316.08,-60.6953 243.92,-60.6953"/>
<text text-anchor="middle" x="280" y="-68.3047" font-family="Futura" font-size="11.00">sys/types.h</text>
</g>
<!-- Node1&#45;&gt;Node8 -->
<g id="edge14" class="edge"><title>Node1&#45;&gt;Node8</title>
<path fill="none" stroke="midnightblue" d="M250.203,-120.238C255.694,-111.534 262.313,-101.041 267.916,-92.1571"/>
<polygon fill="midnightblue" stroke="midnightblue" points="270.924,-93.9496 273.299,-83.6243 265.003,-90.215 270.924,-93.9496"/>
</g>
<!-- Node9 -->
<g id="node17" class="node"><title>Node9</title>
<polygon fill="none" stroke="#bfbfbf" points="334.399,-60.6953 334.399,-83.3047 397.601,-83.3047 397.601,-60.6953 334.399,-60.6953"/>
<text text-anchor="middle" x="366" y="-68.3047" font-family="Futura" font-size="11.00">sys/stat.h</text>
</g>
<!-- Node1&#45;&gt;Node9 -->
<g id="edge16" class="edge"><title>Node1&#45;&gt;Node9</title>
<path fill="none" stroke="midnightblue" d="M273.703,-120.238C293.431,-110.142 317.864,-97.6368 336.634,-88.0299"/>
<polygon fill="midnightblue" stroke="midnightblue" points="338.306,-91.1061 345.613,-83.4344 335.116,-84.8748 338.306,-91.1061"/>
</g>
<!-- Node10 -->
<g id="node19" class="node"><title>Node10</title>
<polygon fill="none" stroke="#bfbfbf" points="415.435,-60.6953 415.435,-83.3047 462.565,-83.3047 462.565,-60.6953 415.435,-60.6953"/>
<text text-anchor="middle" x="439" y="-68.3047" font-family="Futura" font-size="11.00">pwd.h</text>
</g>
<!-- Node1&#45;&gt;Node10 -->
<g id="edge18" class="edge"><title>Node1&#45;&gt;Node10</title>
<path fill="none" stroke="midnightblue" d="M293.948,-120.37C324.249,-110.616 362.779,-98.1614 405.462,-84.1595"/>
<polygon fill="midnightblue" stroke="midnightblue" points="406.807,-87.4018 415.215,-80.9566 404.623,-80.7512 406.807,-87.4018"/>
</g>
<!-- Node3 -->
<g id="node5" class="node"><title>Node3</title>
<a xlink:href="fae_2fae_8h.html" target="_top" xlink:title="fae.h">
<polygon fill="none" stroke="red" points="16.2302,-0.695312 16.2302,-23.3047 57.7698,-23.3047 57.7698,-0.695312 16.2302,-0.695312"/>
<text text-anchor="middle" x="37" y="-8.30469" font-family="Futura" font-size="11.00">fae.h</text>
</a>
</g>
<!-- Node2&#45;&gt;Node3 -->
<g id="edge4" class="edge"><title>Node2&#45;&gt;Node3</title>
<path fill="none" stroke="midnightblue" d="M37,-60.6308C37,-53.218 37,-42.9888 37,-33.9096"/>
<polygon fill="midnightblue" stroke="midnightblue" points="40.5001,-33.6718 37,-23.6719 33.5001,-33.6719 40.5001,-33.6718"/>
</g>
<!-- Node5 -->
<g id="node9" class="node"><title>Node5</title>
<a xlink:href="arch_8h.html" target="_top" xlink:title="fae/util/arch.h">
<polygon fill="none" stroke="black" points="77.2053,-0.695312 77.2053,-23.3047 166.795,-23.3047 166.795,-0.695312 77.2053,-0.695312"/>
<text text-anchor="middle" x="122" y="-8.30469" font-family="Futura" font-size="11.00">fae/util/arch.h</text>
</a>
</g>
<!-- Node4&#45;&gt;Node5 -->
<g id="edge8" class="edge"><title>Node4&#45;&gt;Node5</title>
<path fill="none" stroke="midnightblue" d="M122.821,-60.6308C122.693,-53.218 122.517,-42.9888 122.361,-33.9096"/>
<polygon fill="midnightblue" stroke="midnightblue" points="125.856,-33.61 122.184,-23.6719 118.857,-33.7308 125.856,-33.61"/>
</g>
<!-- Node6 -->
<g id="node11" class="node"><title>Node6</title>
<a xlink:href="alignof_8h.html" target="_top" xlink:title="fae/util/alignof.h">
<polygon fill="none" stroke="black" points="185.007,-0.695312 185.007,-23.3047 286.993,-23.3047 286.993,-0.695312 185.007,-0.695312"/>
<text text-anchor="middle" x="236" y="-8.30469" font-family="Futura" font-size="11.00">fae/util/alignof.h</text>
</a>
</g>
<!-- Node4&#45;&gt;Node6 -->
<g id="edge10" class="edge"><title>Node4&#45;&gt;Node6</title>
<path fill="none" stroke="midnightblue" d="M143.202,-60.6308C160.849,-51.5733 186.687,-38.3109 206.621,-28.0794"/>
<polygon fill="midnightblue" stroke="midnightblue" points="208.293,-31.1552 215.592,-23.475 205.097,-24.9276 208.293,-31.1552"/>
</g>
</g>
</svg>
