<?xml version="1.0" encoding="UTF-8" standalone="no"?>
<!DOCTYPE svg PUBLIC "-//W3C//DTD SVG 1.1//EN"
 "http://www.w3.org/Graphics/SVG/1.1/DTD/svg11.dtd">
<!-- Generated by graphviz version 2.28.0 (20121015.0031)
 -->
<!-- Title: include/fa/system/directory.h Pages: 1 -->
<svg width="660pt" height="212pt"
 viewBox="0.00 0.00 660.00 212.00" xmlns="http://www.w3.org/2000/svg" xmlns:xlink="http://www.w3.org/1999/xlink">
<g id="graph1" class="graph" transform="scale(1 1) rotate(0) translate(4 208)">
<title>include/fa/system/directory.h</title>
<!-- Node1 -->
<g id="node1" class="node"><title>Node1</title>
<polygon fill="#bfbfbf" stroke="black" points="190.452,-180.695 190.452,-203.305 355.548,-203.305 355.548,-180.695 190.452,-180.695"/>
<text text-anchor="middle" x="273" y="-188.305" font-family="Futura" font-size="11.00">include/fa/system/directory.h</text>
</g>
<!-- Node2 -->
<g id="node3" class="node"><title>Node2</title>
<polygon fill="none" stroke="#bfbfbf" points="185.273,-120.695 185.273,-143.305 220.727,-143.305 220.727,-120.695 185.273,-120.695"/>
<text text-anchor="middle" x="203" y="-128.305" font-family="Futura" font-size="11.00">fa.h</text>
</g>
<!-- Node1&#45;&gt;Node2 -->
<g id="edge2" class="edge"><title>Node1&#45;&gt;Node2</title>
<path fill="none" stroke="midnightblue" d="M260.485,-180.631C250.261,-172.159 235.597,-160.009 223.638,-150.1"/>
<polygon fill="midnightblue" stroke="midnightblue" points="225.813,-147.357 215.88,-143.672 221.347,-152.747 225.813,-147.357"/>
</g>
<!-- Node3 -->
<g id="node5" class="node"><title>Node3</title>
<a xlink:href="string_8h.html" target="_top" xlink:title="fa/string.h">
<polygon fill="none" stroke="black" points="238.87,-120.695 238.87,-143.305 307.13,-143.305 307.13,-120.695 238.87,-120.695"/>
<text text-anchor="middle" x="273" y="-128.305" font-family="Futura" font-size="11.00">fa/string.h</text>
</a>
</g>
<!-- Node1&#45;&gt;Node3 -->
<g id="edge4" class="edge"><title>Node1&#45;&gt;Node3</title>
<path fill="none" stroke="midnightblue" d="M273,-180.631C273,-173.218 273,-162.989 273,-153.91"/>
<polygon fill="midnightblue" stroke="midnightblue" points="276.5,-153.672 273,-143.672 269.5,-153.672 276.5,-153.672"/>
</g>
<!-- Node4 -->
<g id="node7" class="node"><title>Node4</title>
<a xlink:href="fa_2fa_8h.html" target="_top" xlink:title="fa.h">
<polygon fill="none" stroke="red" points="255.273,-60.6953 255.273,-83.3047 290.727,-83.3047 290.727,-60.6953 255.273,-60.6953"/>
<text text-anchor="middle" x="273" y="-68.3047" font-family="Futura" font-size="11.00">fa.h</text>
</a>
</g>
<!-- Node3&#45;&gt;Node4 -->
<g id="edge6" class="edge"><title>Node3&#45;&gt;Node4</title>
<path fill="none" stroke="midnightblue" d="M273,-120.631C273,-113.218 273,-102.989 273,-93.9096"/>
<polygon fill="midnightblue" stroke="midnightblue" points="276.5,-93.6718 273,-83.6719 269.5,-93.6719 276.5,-93.6718"/>
</g>
<!-- Node5 -->
<g id="node9" class="node"><title>Node5</title>
<polygon fill="none" stroke="#bfbfbf" points="358.937,-0.695312 358.937,-23.3047 433.063,-23.3047 433.063,-0.695312 358.937,-0.695312"/>
<text text-anchor="middle" x="396" y="-8.30469" font-family="Futura" font-size="11.00">fa/atomic.h</text>
</g>
<!-- Node4&#45;&gt;Node5 -->
<g id="edge8" class="edge"><title>Node4&#45;&gt;Node5</title>
<path fill="none" stroke="midnightblue" d="M290.885,-62.5663C310.21,-53.4538 341.372,-38.7595 364.759,-27.7316"/>
<polygon fill="midnightblue" stroke="midnightblue" points="366.379,-30.8372 373.931,-23.4064 363.394,-24.5058 366.379,-30.8372"/>
</g>
<!-- Node6 -->
<g id="node11" class="node"><title>Node6</title>
<polygon fill="none" stroke="#bfbfbf" points="450.648,-0.695312 450.648,-23.3047 561.352,-23.3047 561.352,-0.695312 450.648,-0.695312"/>
<text text-anchor="middle" x="506" y="-8.30469" font-family="Futura" font-size="11.00">fa/atomic/queue.h</text>
</g>
<!-- Node4&#45;&gt;Node6 -->
<g id="edge10" class="edge"><title>Node4&#45;&gt;Node6</title>
<path fill="none" stroke="midnightblue" d="M290.896,-66.5451C325.462,-57.9407 402.568,-38.747 454.438,-25.8351"/>
<polygon fill="midnightblue" stroke="midnightblue" points="455.597,-29.1535 464.456,-23.3415 453.906,-22.3608 455.597,-29.1535"/>
</g>
<!-- Node7 -->
<g id="node13" class="node"><title>Node7</title>
<polygon fill="none" stroke="#bfbfbf" points="82.4199,-0.695312 82.4199,-23.3047 187.58,-23.3047 187.58,-0.695312 82.4199,-0.695312"/>
<text text-anchor="middle" x="135" y="-8.30469" font-family="Futura" font-size="11.00">fa/atomic/stack.h</text>
</g>
<!-- Node4&#45;&gt;Node7 -->
<g id="edge12" class="edge"><title>Node4&#45;&gt;Node7</title>
<path fill="none" stroke="midnightblue" d="M255.241,-63.5363C233.587,-54.4351 196.507,-38.8506 169.235,-27.3886"/>
<polygon fill="midnightblue" stroke="midnightblue" points="170.253,-24.0199 159.678,-23.3719 167.541,-30.4731 170.253,-24.0199"/>
</g>
<!-- Node8 -->
<g id="node15" class="node"><title>Node8</title>
<polygon fill="none" stroke="#bfbfbf" points="205.526,-0.695312 205.526,-23.3047 340.474,-23.3047 340.474,-0.695312 205.526,-0.695312"/>
<text text-anchor="middle" x="273" y="-8.30469" font-family="Futura" font-size="11.00">fa/atomic/ring_buffer.h</text>
</g>
<!-- Node4&#45;&gt;Node8 -->
<g id="edge14" class="edge"><title>Node4&#45;&gt;Node8</title>
<path fill="none" stroke="midnightblue" d="M273,-60.6308C273,-53.218 273,-42.9888 273,-33.9096"/>
<polygon fill="midnightblue" stroke="midnightblue" points="276.5,-33.6718 273,-23.6719 269.5,-33.6719 276.5,-33.6718"/>
</g>
<!-- Node9 -->
<g id="node17" class="node"><title>Node9</title>
<a xlink:href="system_8h.html" target="_top" xlink:title="fa/system.h">
<polygon fill="none" stroke="black" points="579.026,-0.695312 579.026,-23.3047 652.974,-23.3047 652.974,-0.695312 579.026,-0.695312"/>
<text text-anchor="middle" x="616" y="-8.30469" font-family="Futura" font-size="11.00">fa/system.h</text>
</a>
</g>
<!-- Node4&#45;&gt;Node9 -->
<g id="edge16" class="edge"><title>Node4&#45;&gt;Node9</title>
<path fill="none" stroke="midnightblue" d="M290.828,-68.6717C335.747,-62.702 457.36,-45.8992 568.834,-24.1196"/>
<polygon fill="midnightblue" stroke="midnightblue" points="569.764,-27.5037 578.897,-22.1342 568.409,-20.6361 569.764,-27.5037"/>
</g>
<!-- Node10 -->
<g id="node20" class="node"><title>Node10</title>
<a xlink:href="error_8h.html" target="_top" xlink:title="fa/error.h">
<polygon fill="none" stroke="black" points="-0.838623,-0.695312 -0.838623,-23.3047 64.8386,-23.3047 64.8386,-0.695312 -0.838623,-0.695312"/>
<text text-anchor="middle" x="32" y="-8.30469" font-family="Futura" font-size="11.00">fa/error.h</text>
</a>
</g>
<!-- Node4&#45;&gt;Node10 -->
<g id="edge20" class="edge"><title>Node4&#45;&gt;Node10</title>
<path fill="none" stroke="midnightblue" d="M255.078,-68.0088C220.065,-61.0986 141.529,-43.3186 71.2572,-25.8094"/>
<polygon fill="midnightblue" stroke="midnightblue" points="71.9524,-22.3755 61.4017,-23.3417 70.2521,-29.1659 71.9524,-22.3755"/>
</g>
<!-- Node9&#45;&gt;Node1 -->
<g id="edge18" class="edge"><title>Node9&#45;&gt;Node1</title>
<path fill="none" stroke="midnightblue" d="M596.021,-23.368C538.052,-53.4511 369.634,-140.852 301.805,-176.052"/>
<polygon fill="midnightblue" stroke="midnightblue" points="300.188,-172.948 292.924,-180.661 303.412,-179.161 300.188,-172.948"/>
</g>
<!-- Node10&#45;&gt;Node3 -->
<g id="edge24" class="edge"><title>Node10&#45;&gt;Node3</title>
<path fill="none" stroke="midnightblue" d="M53.3392,-23.4482C96.1747,-44.4216 192.762,-91.7132 242.351,-115.994"/>
<polygon fill="midnightblue" stroke="midnightblue" points="241.092,-119.274 251.613,-120.528 244.171,-112.987 241.092,-119.274"/>
</g>
<!-- Node10&#45;&gt;Node4 -->
<g id="edge22" class="edge"><title>Node10&#45;&gt;Node4</title>
<path fill="none" stroke="midnightblue" d="M65.0133,-19.6404C70.748,-21.1088 76.5682,-22.6335 82,-24 139.928,-38.5735 207.655,-54.1932 245.051,-63.2536"/>
<polygon fill="midnightblue" stroke="midnightblue" points="244.654,-66.7598 255.2,-65.7377 246.319,-59.9605 244.654,-66.7598"/>
</g>
</g>
</svg>
