<?xml version="1.0" encoding="UTF-8" standalone="no"?>
<!DOCTYPE svg PUBLIC "-//W3C//DTD SVG 1.1//EN"
 "http://www.w3.org/Graphics/SVG/1.1/DTD/svg11.dtd">
<!-- Generated by graphviz version 2.28.0 (20121015.0031)
 -->
<!-- Title: src/doremir/directory_osx.c Pages: 1 -->
<svg width="517pt" height="166pt"
 viewBox="0.00 0.00 517.00 166.00" xmlns="http://www.w3.org/2000/svg" xmlns:xlink="http://www.w3.org/1999/xlink">
<g id="graph1" class="graph" transform="scale(1 1) rotate(0) translate(4 162)">
<title>src/doremir/directory_osx.c</title>
<!-- Node1 -->
<g id="node1" class="node"><title>Node1</title>
<polygon fill="#bfbfbf" stroke="black" points="255.51,-120.391 255.51,-157.609 380.49,-157.609 380.49,-120.391 255.51,-120.391"/>
<text text-anchor="start" x="263.51" y="-142.609" font-family="Futura" font-size="11.00">src/doremir/directory</text>
<text text-anchor="middle" x="318" y="-128" font-family="Futura" font-size="11.00">_osx.c</text>
</g>
<!-- Node2 -->
<g id="node3" class="node"><title>Node2</title>
<a xlink:href="string_8h.html" target="_top" xlink:title="doremir/string.h">
<polygon fill="none" stroke="black" points="-0.559814,-60.6953 -0.559814,-83.3047 96.5598,-83.3047 96.5598,-60.6953 -0.559814,-60.6953"/>
<text text-anchor="middle" x="48" y="-68.3047" font-family="Futura" font-size="11.00">doremir/string.h</text>
</a>
</g>
<!-- Node1&#45;&gt;Node2 -->
<g id="edge2" class="edge"><title>Node1&#45;&gt;Node2</title>
<path fill="none" stroke="midnightblue" d="M255.378,-122.924C208.552,-111.651 145.231,-96.4075 100.923,-85.7407"/>
<polygon fill="midnightblue" stroke="midnightblue" points="101.473,-82.2732 90.9315,-83.3354 99.8345,-89.0788 101.473,-82.2732"/>
</g>
<!-- Node4 -->
<g id="node7" class="node"><title>Node4</title>
<a xlink:href="util_8h.html" target="_top" xlink:title="doremir/util.h">
<polygon fill="none" stroke="red" points="188.754,-60.6953 188.754,-83.3047 273.246,-83.3047 273.246,-60.6953 188.754,-60.6953"/>
<text text-anchor="middle" x="231" y="-68.3047" font-family="Futura" font-size="11.00">doremir/util.h</text>
</a>
</g>
<!-- Node1&#45;&gt;Node4 -->
<g id="edge6" class="edge"><title>Node1&#45;&gt;Node4</title>
<path fill="none" stroke="midnightblue" d="M294.227,-120.238C281.391,-110.649 265.649,-98.8869 253.083,-89.4988"/>
<polygon fill="midnightblue" stroke="midnightblue" points="255.072,-86.6158 244.966,-83.4344 250.882,-92.2235 255.072,-86.6158"/>
</g>
<!-- Node8 -->
<g id="node15" class="node"><title>Node8</title>
<polygon fill="none" stroke="#bfbfbf" points="290.871,-60.6953 290.871,-83.3047 345.129,-83.3047 345.129,-60.6953 290.871,-60.6953"/>
<text text-anchor="middle" x="318" y="-68.3047" font-family="Futura" font-size="11.00">unistd.h</text>
</g>
<!-- Node1&#45;&gt;Node8 -->
<g id="edge14" class="edge"><title>Node1&#45;&gt;Node8</title>
<path fill="none" stroke="midnightblue" d="M318,-120.238C318,-112.084 318,-102.359 318,-93.8588"/>
<polygon fill="midnightblue" stroke="midnightblue" points="321.5,-93.6243 318,-83.6243 314.5,-93.6244 321.5,-93.6243"/>
</g>
<!-- Node9 -->
<g id="node17" class="node"><title>Node9</title>
<polygon fill="none" stroke="#bfbfbf" points="362.92,-60.6953 362.92,-83.3047 435.08,-83.3047 435.08,-60.6953 362.92,-60.6953"/>
<text text-anchor="middle" x="399" y="-68.3047" font-family="Futura" font-size="11.00">sys/types.h</text>
</g>
<!-- Node1&#45;&gt;Node9 -->
<g id="edge16" class="edge"><title>Node1&#45;&gt;Node9</title>
<path fill="none" stroke="midnightblue" d="M340.134,-120.238C351.894,-110.801 366.275,-99.2609 377.879,-89.949"/>
<polygon fill="midnightblue" stroke="midnightblue" points="380.152,-92.6128 385.76,-83.6243 375.771,-87.1533 380.152,-92.6128"/>
</g>
<!-- Node10 -->
<g id="node19" class="node"><title>Node10</title>
<polygon fill="none" stroke="#bfbfbf" points="453.435,-60.6953 453.435,-83.3047 500.565,-83.3047 500.565,-60.6953 453.435,-60.6953"/>
<text text-anchor="middle" x="477" y="-68.3047" font-family="Futura" font-size="11.00">pwd.h</text>
</g>
<!-- Node1&#45;&gt;Node10 -->
<g id="edge18" class="edge"><title>Node1&#45;&gt;Node10</title>
<path fill="none" stroke="midnightblue" d="M361.447,-120.238C387.469,-109.601 420.029,-96.29 443.948,-86.5116"/>
<polygon fill="midnightblue" stroke="midnightblue" points="445.371,-89.7111 453.303,-82.6873 442.723,-83.2316 445.371,-89.7111"/>
</g>
<!-- Node3 -->
<g id="node5" class="node"><title>Node3</title>
<a xlink:href="doremir_8h.html" target="_top" xlink:title="doremir.h">
<polygon fill="none" stroke="red" points="15.1362,-0.695312 15.1362,-23.3047 78.8638,-23.3047 78.8638,-0.695312 15.1362,-0.695312"/>
<text text-anchor="middle" x="47" y="-8.30469" font-family="Futura" font-size="11.00">doremir.h</text>
</a>
</g>
<!-- Node2&#45;&gt;Node3 -->
<g id="edge4" class="edge"><title>Node2&#45;&gt;Node3</title>
<path fill="none" stroke="midnightblue" d="M47.8212,-60.6308C47.6934,-53.218 47.517,-42.9888 47.3605,-33.9096"/>
<polygon fill="midnightblue" stroke="midnightblue" points="50.856,-33.61 47.184,-23.6719 43.857,-33.7308 50.856,-33.61"/>
</g>
<!-- Node5 -->
<g id="node9" class="node"><title>Node5</title>
<a xlink:href="alignof_8h.html" target="_top" xlink:title="doremir/util/alignof.h">
<polygon fill="none" stroke="black" points="96.6204,-0.695312 96.6204,-23.3047 221.38,-23.3047 221.38,-0.695312 96.6204,-0.695312"/>
<text text-anchor="middle" x="159" y="-8.30469" font-family="Futura" font-size="11.00">doremir/util/alignof.h</text>
</a>
</g>
<!-- Node4&#45;&gt;Node5 -->
<g id="edge8" class="edge"><title>Node4&#45;&gt;Node5</title>
<path fill="none" stroke="midnightblue" d="M218.128,-60.6308C207.611,-52.159 192.528,-40.0087 180.228,-30.1004"/>
<polygon fill="midnightblue" stroke="midnightblue" points="182.231,-27.2196 172.248,-23.6719 177.84,-32.6708 182.231,-27.2196"/>
</g>
<!-- Node6 -->
<g id="node11" class="node"><title>Node6</title>
<a xlink:href="minmax_8h.html" target="_top" xlink:title="doremir/util/minmax.h">
<polygon fill="none" stroke="red" points="239.45,-0.695312 239.45,-23.3047 368.55,-23.3047 368.55,-0.695312 239.45,-0.695312"/>
<text text-anchor="middle" x="304" y="-8.30469" font-family="Futura" font-size="11.00">doremir/util/minmax.h</text>
</a>
</g>
<!-- Node4&#45;&gt;Node6 -->
<g id="edge10" class="edge"><title>Node4&#45;&gt;Node6</title>
<path fill="none" stroke="midnightblue" d="M244.051,-60.6308C254.714,-52.159 270.006,-40.0087 282.477,-30.1004"/>
<polygon fill="midnightblue" stroke="midnightblue" points="284.916,-32.633 290.568,-23.6719 280.561,-27.1523 284.916,-32.633"/>
</g>
<!-- Node7 -->
<g id="node13" class="node"><title>Node7</title>
<a xlink:href="literals_8h.html" target="_top" xlink:title="doremir/util/literals.h">
<polygon fill="none" stroke="red" points="386.652,-0.695312 386.652,-23.3047 509.348,-23.3047 509.348,-0.695312 386.652,-0.695312"/>
<text text-anchor="middle" x="448" y="-8.30469" font-family="Futura" font-size="11.00">doremir/util/literals.h</text>
</a>
</g>
<!-- Node4&#45;&gt;Node7 -->
<g id="edge12" class="edge"><title>Node4&#45;&gt;Node7</title>
<path fill="none" stroke="midnightblue" d="M269.795,-60.6308C305.941,-50.9696 359.987,-36.5243 399.077,-26.0761"/>
<polygon fill="midnightblue" stroke="midnightblue" points="400.418,-29.3406 409.175,-23.3771 398.611,-22.578 400.418,-29.3406"/>
</g>
</g>
</svg>
