<?xml version="1.0" encoding="UTF-8" standalone="no"?>
<!DOCTYPE svg PUBLIC "-//W3C//DTD SVG 1.1//EN"
 "http://www.w3.org/Graphics/SVG/1.1/DTD/svg11.dtd">
<!-- Generated by graphviz version 2.28.0 (20121015.0031)
 -->
<!-- Title: include/doremir.h Pages: 1 -->
<svg width="1409pt" height="106pt"
 viewBox="0.00 0.00 1409.00 106.00" xmlns="http://www.w3.org/2000/svg" xmlns:xlink="http://www.w3.org/1999/xlink">
<g id="graph1" class="graph" transform="scale(1 1) rotate(0) translate(4 102)">
<title>include/doremir.h</title>
<!-- Node1 -->
<g id="node1" class="node"><title>Node1</title>
<polygon fill="#bfbfbf" stroke="black" points="637.573,-74.6953 637.573,-97.3047 742.427,-97.3047 742.427,-74.6953 637.573,-74.6953"/>
<text text-anchor="middle" x="690" y="-82.3047" font-family="Futura" font-size="11.00">include/doremir.h</text>
</g>
<!-- Node2 -->
<g id="node3" class="node"><title>Node2</title>
<a xlink:href="queue_8h.html" target="_top" xlink:title="include/doremir/atomic\l/queue.h">
<polygon fill="none" stroke="red" points="-0.342529,-0.390625 -0.342529,-37.6094 134.343,-37.6094 134.343,-0.390625 -0.342529,-0.390625"/>
<text text-anchor="start" x="7.65747" y="-22.6094" font-family="Futura" font-size="11.00">include/doremir/atomic</text>
<text text-anchor="middle" x="67" y="-8" font-family="Futura" font-size="11.00">/queue.h</text>
</a>
</g>
<!-- Node1&#45;&gt;Node2 -->
<g id="edge2" class="edge"><title>Node1&#45;&gt;Node2</title>
<path fill="none" stroke="midnightblue" d="M627.248,-82.533C525.334,-77.8699 317.733,-65.6371 144,-38 140.882,-37.5039 137.702,-36.9517 134.498,-36.3574"/>
<polygon fill="midnightblue" stroke="midnightblue" points="627.222,-86.0353 637.369,-82.987 627.536,-79.0423 627.222,-86.0353"/>
</g>
<!-- Node3 -->
<g id="node5" class="node"><title>Node3</title>
<a xlink:href="ring__buffer_8h.html" target="_top" xlink:title="include/doremir/atomic\l/ring_buffer.h">
<polygon fill="none" stroke="red" points="152.657,-0.390625 152.657,-37.6094 287.343,-37.6094 287.343,-0.390625 152.657,-0.390625"/>
<text text-anchor="start" x="160.657" y="-22.6094" font-family="Futura" font-size="11.00">include/doremir/atomic</text>
<text text-anchor="middle" x="220" y="-8" font-family="Futura" font-size="11.00">/ring_buffer.h</text>
</a>
</g>
<!-- Node1&#45;&gt;Node3 -->
<g id="edge4" class="edge"><title>Node1&#45;&gt;Node3</title>
<path fill="none" stroke="midnightblue" d="M627.161,-79.6458C549.307,-72.5165 412.769,-58.3896 297,-38 293.89,-37.4523 290.718,-36.8577 287.519,-36.2291"/>
<polygon fill="midnightblue" stroke="midnightblue" points="627.01,-83.1464 637.285,-80.5637 627.642,-76.175 627.01,-83.1464"/>
</g>
<!-- Node4 -->
<g id="node7" class="node"><title>Node4</title>
<a xlink:href="stack_8h.html" target="_top" xlink:title="include/doremir/atomic\l/stack.h">
<polygon fill="none" stroke="red" points="305.657,-0.390625 305.657,-37.6094 440.343,-37.6094 440.343,-0.390625 305.657,-0.390625"/>
<text text-anchor="start" x="313.657" y="-22.6094" font-family="Futura" font-size="11.00">include/doremir/atomic</text>
<text text-anchor="middle" x="373" y="-8" font-family="Futura" font-size="11.00">/stack.h</text>
</a>
</g>
<!-- Node1&#45;&gt;Node4 -->
<g id="edge6" class="edge"><title>Node1&#45;&gt;Node4</title>
<path fill="none" stroke="midnightblue" d="M627.147,-73.4541C578.432,-64.3335 509.298,-51.0148 449,-38 446.217,-37.3992 443.378,-36.7759 440.513,-36.1378"/>
<polygon fill="midnightblue" stroke="midnightblue" points="626.749,-76.9402 637.221,-75.335 628.033,-70.0591 626.749,-76.9402"/>
</g>
<!-- Node5 -->
<g id="node9" class="node"><title>Node5</title>
<a xlink:href="atomic_8h.html" target="_top" xlink:title="include/doremir/atomic.h">
<polygon fill="none" stroke="red" points="457.944,-7.69531 457.944,-30.3047 602.056,-30.3047 602.056,-7.69531 457.944,-7.69531"/>
<text text-anchor="middle" x="530" y="-15.3047" font-family="Futura" font-size="11.00">include/doremir/atomic.h</text>
</a>
</g>
<!-- Node1&#45;&gt;Node5 -->
<g id="edge8" class="edge"><title>Node1&#45;&gt;Node5</title>
<path fill="none" stroke="midnightblue" d="M655.006,-70.7837C624.93,-58.5651 582.273,-41.2359 555.379,-30.3101"/>
<polygon fill="midnightblue" stroke="midnightblue" points="653.711,-74.0354 664.293,-74.5566 656.346,-67.5502 653.711,-74.0354"/>
</g>
<!-- Node6 -->
<g id="node11" class="node"><title>Node6</title>
<a xlink:href="buffer_8h.html" target="_top" xlink:title="include/doremir/buffer.h">
<polygon fill="none" stroke="red" points="619.797,-7.69531 619.797,-30.3047 760.203,-30.3047 760.203,-7.69531 619.797,-7.69531"/>
<text text-anchor="middle" x="690" y="-15.3047" font-family="Futura" font-size="11.00">include/doremir/buffer.h</text>
</a>
</g>
<!-- Node1&#45;&gt;Node6 -->
<g id="edge10" class="edge"><title>Node1&#45;&gt;Node6</title>
<path fill="none" stroke="midnightblue" d="M690,-64.3136C690,-53.1093 690,-39.7368 690,-30.6334"/>
<polygon fill="midnightblue" stroke="midnightblue" points="686.5,-64.5566 690,-74.5566 693.5,-64.5567 686.5,-64.5566"/>
</g>
<!-- Node7 -->
<g id="node13" class="node"><title>Node7</title>
<a xlink:href="device_8h.html" target="_top" xlink:title="include/doremir/device.h">
<polygon fill="none" stroke="red" points="778.387,-7.69531 778.387,-30.3047 921.613,-30.3047 921.613,-7.69531 778.387,-7.69531"/>
<text text-anchor="middle" x="850" y="-15.3047" font-family="Futura" font-size="11.00">include/doremir/device.h</text>
</a>
</g>
<!-- Node1&#45;&gt;Node7 -->
<g id="edge12" class="edge"><title>Node1&#45;&gt;Node7</title>
<path fill="none" stroke="midnightblue" d="M724.994,-70.7837C755.07,-58.5651 797.727,-41.2359 824.621,-30.3101"/>
<polygon fill="midnightblue" stroke="midnightblue" points="723.654,-67.5502 715.707,-74.5566 726.289,-74.0354 723.654,-67.5502"/>
</g>
<!-- Node8 -->
<g id="node15" class="node"><title>Node8</title>
<a xlink:href="dynamic_8h.html" target="_top" xlink:title="include/doremir/dynamic.h">
<polygon fill="none" stroke="red" points="939.489,-7.69531 939.489,-30.3047 1092.51,-30.3047 1092.51,-7.69531 939.489,-7.69531"/>
<text text-anchor="middle" x="1016" y="-15.3047" font-family="Futura" font-size="11.00">include/doremir/dynamic.h</text>
</a>
</g>
<!-- Node1&#45;&gt;Node8 -->
<g id="edge14" class="edge"><title>Node1&#45;&gt;Node8</title>
<path fill="none" stroke="midnightblue" d="M752.497,-72.9907C800.958,-63.6229 869.783,-50.1975 930,-38 941.96,-35.5773 954.844,-32.911 966.906,-30.3899"/>
<polygon fill="midnightblue" stroke="midnightblue" points="751.63,-69.5933 742.475,-74.9262 752.957,-76.4663 751.63,-69.5933"/>
</g>
<!-- Node9 -->
<g id="node17" class="node"><title>Node9</title>
<a xlink:href="error_8h.html" target="_top" xlink:title="include/doremir/error.h">
<polygon fill="none" stroke="red" points="1110.17,-7.69531 1110.17,-30.3047 1245.83,-30.3047 1245.83,-7.69531 1110.17,-7.69531"/>
<text text-anchor="middle" x="1178" y="-15.3047" font-family="Futura" font-size="11.00">include/doremir/error.h</text>
</a>
</g>
<!-- Node1&#45;&gt;Node9 -->
<g id="edge16" class="edge"><title>Node1&#45;&gt;Node9</title>
<path fill="none" stroke="midnightblue" d="M752.519,-80.1184C833.361,-73.2879 978.343,-59.2762 1101,-38 1113.04,-35.9118 1126.01,-33.1 1137.82,-30.3201"/>
<polygon fill="midnightblue" stroke="midnightblue" points="752.178,-76.6345 742.505,-80.9554 752.762,-83.6102 752.178,-76.6345"/>
</g>
<!-- Node10 -->
<g id="node19" class="node"><title>Node10</title>
<a xlink:href="event_8h.html" target="_top" xlink:title="include/doremir/event.h">
<polygon fill="none" stroke="red" points="1264.25,-7.69531 1264.25,-30.3047 1401.75,-30.3047 1401.75,-7.69531 1264.25,-7.69531"/>
<text text-anchor="middle" x="1333" y="-15.3047" font-family="Futura" font-size="11.00">include/doremir/event.h</text>
</a>
</g>
<!-- Node1&#45;&gt;Node10 -->
<g id="edge18" class="edge"><title>Node1&#45;&gt;Node10</title>
<path fill="none" stroke="midnightblue" d="M752.844,-82.6546C857.373,-78.1076 1073.34,-65.9661 1254,-38 1266.65,-36.0417 1280.29,-33.2012 1292.62,-30.3532"/>
<polygon fill="midnightblue" stroke="midnightblue" points="752.62,-79.1608 742.778,-83.0838 752.918,-86.1545 752.62,-79.1608"/>
</g>
</g>
</svg>
