<?xml version="1.0" encoding="UTF-8" standalone="no"?>
<!DOCTYPE svg PUBLIC "-//W3C//DTD SVG 1.1//EN"
 "http://www.w3.org/Graphics/SVG/1.1/DTD/svg11.dtd">
<!-- Generated by graphviz version 2.28.0 (20121015.0031)
 -->
<!-- Title: src/doremir/event.c Pages: 1 -->
<svg width="476pt" height="452pt"
 viewBox="0.00 0.00 476.00 452.00" xmlns="http://www.w3.org/2000/svg" xmlns:xlink="http://www.w3.org/1999/xlink">
<g id="graph1" class="graph" transform="scale(1 1) rotate(0) translate(4 448)">
<title>src/doremir/event.c</title>
<!-- Node1 -->
<g id="node1" class="node"><title>Node1</title>
<polygon fill="#bfbfbf" stroke="black" points="133.497,-420.695 133.497,-443.305 248.503,-443.305 248.503,-420.695 133.497,-420.695"/>
<text text-anchor="middle" x="191" y="-428.305" font-family="Futura" font-size="11.00">src/doremir/event.c</text>
</g>
<!-- Node2 -->
<g id="node3" class="node"><title>Node2</title>
<a xlink:href="event_8h.html" target="_top" xlink:title="doremir/event.h">
<polygon fill="none" stroke="black" points="142.813,-360.695 142.813,-383.305 239.187,-383.305 239.187,-360.695 142.813,-360.695"/>
<text text-anchor="middle" x="191" y="-368.305" font-family="Futura" font-size="11.00">doremir/event.h</text>
</a>
</g>
<!-- Node1&#45;&gt;Node2 -->
<g id="edge2" class="edge"><title>Node1&#45;&gt;Node2</title>
<path fill="none" stroke="midnightblue" d="M191,-420.631C191,-413.218 191,-402.989 191,-393.91"/>
<polygon fill="midnightblue" stroke="midnightblue" points="194.5,-393.672 191,-383.672 187.5,-393.672 194.5,-393.672"/>
</g>
<!-- Node5 -->
<g id="node9" class="node"><title>Node5</title>
<a xlink:href="string_8h.html" target="_top" xlink:title="doremir/string.h">
<polygon fill="none" stroke="black" points="197.44,-0.695312 197.44,-23.3047 294.56,-23.3047 294.56,-0.695312 197.44,-0.695312"/>
<text text-anchor="middle" x="246" y="-8.30469" font-family="Futura" font-size="11.00">doremir/string.h</text>
</a>
</g>
<!-- Node1&#45;&gt;Node5 -->
<g id="edge40" class="edge"><title>Node1&#45;&gt;Node5</title>
<path fill="none" stroke="midnightblue" d="M133.435,-420.687C77.1961,-406.906 0,-376.436 0,-313 0,-313 0,-313 0,-131 0,-48.2114 114.666,-23.4651 187.426,-16.0962"/>
<polygon fill="midnightblue" stroke="midnightblue" points="187.766,-19.5797 197.398,-15.1675 187.117,-12.6099 187.766,-19.5797"/>
</g>
<!-- Node7 -->
<g id="node18" class="node"><title>Node7</title>
<a xlink:href="message_8h.html" target="_top" xlink:title="doremir/message.h">
<polygon fill="none" stroke="red" points="250.504,-300.695 250.504,-323.305 363.496,-323.305 363.496,-300.695 250.504,-300.695"/>
<text text-anchor="middle" x="307" y="-308.305" font-family="Futura" font-size="11.00">doremir/message.h</text>
</a>
</g>
<!-- Node1&#45;&gt;Node7 -->
<g id="edge42" class="edge"><title>Node1&#45;&gt;Node7</title>
<path fill="none" stroke="midnightblue" d="M205.214,-420.483C217.143,-411.381 234.37,-397.578 248,-384 264.549,-367.514 281.378,-346.786 292.805,-331.99"/>
<polygon fill="midnightblue" stroke="midnightblue" points="295.894,-333.711 299.17,-323.635 290.326,-329.468 295.894,-333.711"/>
</g>
<!-- Node9 -->
<g id="node25" class="node"><title>Node9</title>
<a xlink:href="set_8h.html" target="_top" xlink:title="doremir/set.h">
<polygon fill="none" stroke="black" points="384.167,-300.695 384.167,-323.305 467.833,-323.305 467.833,-300.695 384.167,-300.695"/>
<text text-anchor="middle" x="426" y="-308.305" font-family="Futura" font-size="11.00">doremir/set.h</text>
</a>
</g>
<!-- Node1&#45;&gt;Node9 -->
<g id="edge32" class="edge"><title>Node1&#45;&gt;Node9</title>
<path fill="none" stroke="midnightblue" d="M211.855,-420.528C253.663,-399.535 347.848,-352.242 396.169,-327.979"/>
<polygon fill="midnightblue" stroke="midnightblue" points="397.826,-331.063 405.192,-323.448 394.685,-324.808 397.826,-331.063"/>
</g>
<!-- Node10 -->
<g id="node32" class="node"><title>Node10</title>
<a xlink:href="util_8h.html" target="_top" xlink:title="doremir/util.h">
<polygon fill="none" stroke="red" points="27.7539,-240.695 27.7539,-263.305 112.246,-263.305 112.246,-240.695 27.7539,-240.695"/>
<text text-anchor="middle" x="70" y="-248.305" font-family="Futura" font-size="11.00">doremir/util.h</text>
</a>
</g>
<!-- Node1&#45;&gt;Node10 -->
<g id="edge44" class="edge"><title>Node1&#45;&gt;Node10</title>
<path fill="none" stroke="midnightblue" d="M174.896,-420.568C162.506,-411.922 145.597,-398.703 134,-384 106.322,-348.91 86.3795,-299.909 76.6678,-272.877"/>
<polygon fill="midnightblue" stroke="midnightblue" points="79.9455,-271.646 73.347,-263.357 73.3361,-273.952 79.9455,-271.646"/>
</g>
<!-- Node3 -->
<g id="node5" class="node"><title>Node3</title>
<a xlink:href="doremir_8h.html" target="_top" xlink:title="doremir.h">
<polygon fill="none" stroke="red" points="260.136,-180.695 260.136,-203.305 323.864,-203.305 323.864,-180.695 260.136,-180.695"/>
<text text-anchor="middle" x="292" y="-188.305" font-family="Futura" font-size="11.00">doremir.h</text>
</a>
</g>
<!-- Node2&#45;&gt;Node3 -->
<g id="edge4" class="edge"><title>Node2&#45;&gt;Node3</title>
<path fill="none" stroke="midnightblue" d="M196.867,-360.661C213.253,-331.781 259.703,-249.92 281.038,-212.319"/>
<polygon fill="midnightblue" stroke="midnightblue" points="284.226,-213.793 286.117,-203.368 278.138,-210.338 284.226,-213.793"/>
</g>
<!-- Node4 -->
<g id="node7" class="node"><title>Node4</title>
<a xlink:href="std_8h.html" target="_top" xlink:title="doremir/std.h">
<polygon fill="none" stroke="red" points="167.961,-120.695 167.961,-143.305 252.039,-143.305 252.039,-120.695 167.961,-120.695"/>
<text text-anchor="middle" x="210" y="-128.305" font-family="Futura" font-size="11.00">doremir/std.h</text>
</a>
</g>
<!-- Node2&#45;&gt;Node4 -->
<g id="edge18" class="edge"><title>Node2&#45;&gt;Node4</title>
<path fill="none" stroke="midnightblue" d="M191.841,-360.466C194.759,-323.911 204.483,-202.104 208.372,-153.39"/>
<polygon fill="midnightblue" stroke="midnightblue" points="211.862,-153.659 209.169,-143.412 204.884,-153.102 211.862,-153.659"/>
</g>
<!-- Node6 -->
<g id="node12" class="node"><title>Node6</title>
<a xlink:href="time_8h.html" target="_top" xlink:title="doremir/time.h">
<polygon fill="none" stroke="red" points="127.727,-60.6953 127.727,-83.3047 218.273,-83.3047 218.273,-60.6953 127.727,-60.6953"/>
<text text-anchor="middle" x="173" y="-68.3047" font-family="Futura" font-size="11.00">doremir/time.h</text>
</a>
</g>
<!-- Node2&#45;&gt;Node6 -->
<g id="edge20" class="edge"><title>Node2&#45;&gt;Node6</title>
<path fill="none" stroke="midnightblue" d="M183.031,-360.597C168.688,-340.8 140,-295.85 140,-253 140,-253 140,-253 140,-191 140,-155.397 154.105,-115.911 163.872,-92.8365"/>
<polygon fill="midnightblue" stroke="midnightblue" points="167.172,-94.0259 167.988,-83.4625 160.763,-91.2116 167.172,-94.0259"/>
</g>
<!-- Node2&#45;&gt;Node7 -->
<g id="edge22" class="edge"><title>Node2&#45;&gt;Node7</title>
<path fill="none" stroke="midnightblue" d="M211.738,-360.631C229.853,-351.573 256.378,-338.311 276.841,-328.079"/>
<polygon fill="midnightblue" stroke="midnightblue" points="278.671,-331.078 286.05,-323.475 275.54,-324.817 278.671,-331.078"/>
</g>
<!-- Node3&#45;&gt;Node4 -->
<g id="edge6" class="edge"><title>Node3&#45;&gt;Node4</title>
<path fill="none" stroke="midnightblue" d="M277.34,-180.631C265.056,-171.942 247.302,-159.384 233.107,-149.344"/>
<polygon fill="midnightblue" stroke="midnightblue" points="234.995,-146.392 224.81,-143.475 230.953,-152.107 234.995,-146.392"/>
</g>
<!-- Node4&#45;&gt;Node5 -->
<g id="edge8" class="edge"><title>Node4&#45;&gt;Node5</title>
<path fill="none" stroke="midnightblue" d="M214.039,-120.633C217.658,-111.168 222.997,-96.7489 227,-84 232.301,-67.12 237.433,-47.6968 241.025,-33.4373"/>
<polygon fill="midnightblue" stroke="midnightblue" points="244.438,-34.2156 243.448,-23.6671 237.644,-32.5304 244.438,-34.2156"/>
</g>
<!-- Node4&#45;&gt;Node6 -->
<g id="edge12" class="edge"><title>Node4&#45;&gt;Node6</title>
<path fill="none" stroke="midnightblue" d="M203.385,-120.631C198.344,-112.729 191.262,-101.628 185.203,-92.1298"/>
<polygon fill="midnightblue" stroke="midnightblue" points="188.137,-90.2201 179.808,-83.6719 182.235,-93.9849 188.137,-90.2201"/>
</g>
<!-- Node5&#45;&gt;Node3 -->
<g id="edge10" class="edge"><title>Node5&#45;&gt;Node3</title>
<path fill="none" stroke="midnightblue" d="M250.416,-23.4173C258.238,-42.3084 274.504,-83.6335 283,-120 286.881,-136.612 289.188,-155.827 290.493,-170.076"/>
<polygon fill="midnightblue" stroke="midnightblue" points="287.025,-170.614 291.335,-180.293 294.001,-170.039 287.025,-170.614"/>
</g>
<!-- Node6&#45;&gt;Node3 -->
<g id="edge14" class="edge"><title>Node6&#45;&gt;Node3</title>
<path fill="none" stroke="midnightblue" d="M203.596,-83.4069C222.224,-91.0565 245.366,-103.082 261,-120 274.222,-134.308 282.406,-155.154 287.02,-170.559"/>
<polygon fill="midnightblue" stroke="midnightblue" points="283.762,-171.917 289.77,-180.644 290.516,-170.076 283.762,-171.917"/>
</g>
<!-- Node6&#45;&gt;Node5 -->
<g id="edge16" class="edge"><title>Node6&#45;&gt;Node5</title>
<path fill="none" stroke="midnightblue" d="M186.051,-60.6308C196.714,-52.159 212.006,-40.0087 224.477,-30.1004"/>
<polygon fill="midnightblue" stroke="midnightblue" points="226.916,-32.633 232.568,-23.6719 222.561,-27.1523 226.916,-32.633"/>
</g>
<!-- Node7&#45;&gt;Node3 -->
<g id="edge24" class="edge"><title>Node7&#45;&gt;Node3</title>
<path fill="none" stroke="midnightblue" d="M305.669,-300.528C303.196,-281.071 297.85,-239.023 294.626,-213.656"/>
<polygon fill="midnightblue" stroke="midnightblue" points="298.083,-213.097 293.35,-203.618 291.139,-213.979 298.083,-213.097"/>
</g>
<!-- Node7&#45;&gt;Node4 -->
<g id="edge26" class="edge"><title>Node7&#45;&gt;Node4</title>
<path fill="none" stroke="midnightblue" d="M301.366,-300.661C285.628,-271.781 241.018,-189.92 220.528,-152.319"/>
<polygon fill="midnightblue" stroke="midnightblue" points="223.508,-150.474 215.65,-143.368 217.362,-153.824 223.508,-150.474"/>
</g>
<!-- Node8 -->
<g id="node22" class="node"><title>Node8</title>
<a xlink:href="list_8h.html" target="_top" xlink:title="doremir/list.h">
<polygon fill="none" stroke="black" points="319.519,-240.695 319.519,-263.305 402.481,-263.305 402.481,-240.695 319.519,-240.695"/>
<text text-anchor="middle" x="361" y="-248.305" font-family="Futura" font-size="11.00">doremir/list.h</text>
</a>
</g>
<!-- Node7&#45;&gt;Node8 -->
<g id="edge28" class="edge"><title>Node7&#45;&gt;Node8</title>
<path fill="none" stroke="midnightblue" d="M316.654,-300.631C324.238,-292.485 334.989,-280.938 344.006,-271.253"/>
<polygon fill="midnightblue" stroke="midnightblue" points="346.812,-273.376 351.064,-263.672 341.688,-268.606 346.812,-273.376"/>
</g>
<!-- Node8&#45;&gt;Node3 -->
<g id="edge30" class="edge"><title>Node8&#45;&gt;Node3</title>
<path fill="none" stroke="midnightblue" d="M348.664,-240.631C338.683,-232.24 324.409,-220.242 312.684,-210.387"/>
<polygon fill="midnightblue" stroke="midnightblue" points="314.603,-207.427 304.696,-203.672 310.099,-212.786 314.603,-207.427"/>
</g>
<!-- Node9&#45;&gt;Node3 -->
<g id="edge34" class="edge"><title>Node9&#45;&gt;Node3</title>
<path fill="none" stroke="midnightblue" d="M426.688,-300.523C427.105,-285.387 425.634,-257.324 411,-240 391.702,-217.155 359.79,-205.34 333.869,-199.271"/>
<polygon fill="midnightblue" stroke="midnightblue" points="334.417,-195.809 323.906,-197.146 332.956,-202.655 334.417,-195.809"/>
</g>
<!-- Node9&#45;&gt;Node5 -->
<g id="edge38" class="edge"><title>Node9&#45;&gt;Node5</title>
<path fill="none" stroke="midnightblue" d="M432.562,-300.391C444.375,-280.25 468,-234.751 468,-193 468,-193 468,-193 468,-131 468,-57.0449 370.752,-29.2947 304.984,-18.9838"/>
<polygon fill="midnightblue" stroke="midnightblue" points="305.122,-15.4664 294.719,-17.4743 304.103,-22.392 305.122,-15.4664"/>
</g>
<!-- Node9&#45;&gt;Node8 -->
<g id="edge36" class="edge"><title>Node9&#45;&gt;Node8</title>
<path fill="none" stroke="midnightblue" d="M414.379,-300.631C404.976,-292.24 391.53,-280.242 380.485,-270.387"/>
<polygon fill="midnightblue" stroke="midnightblue" points="382.752,-267.718 372.96,-263.672 378.091,-272.941 382.752,-267.718"/>
</g>
<!-- Node10&#45;&gt;Node6 -->
<g id="edge46" class="edge"><title>Node10&#45;&gt;Node6</title>
<path fill="none" stroke="midnightblue" d="M72.9912,-240.472C79.8815,-217.314 98.4243,-160.771 126,-120 133.4,-109.058 143.58,-98.5047 152.573,-90.1796"/>
<polygon fill="midnightblue" stroke="midnightblue" points="154.944,-92.755 160.072,-83.4836 150.282,-87.5337 154.944,-92.755"/>
</g>
</g>
</svg>
