<?xml version="1.0" encoding="UTF-8" standalone="no"?>
<!DOCTYPE svg PUBLIC "-//W3C//DTD SVG 1.1//EN"
 "http://www.w3.org/Graphics/SVG/1.1/DTD/svg11.dtd">
<!-- Generated by graphviz version 2.28.0 (20121015.0031)
 -->
<!-- Title: src/doremir.c Pages: 1 -->
<svg width="454pt" height="272pt"
 viewBox="0.00 0.00 454.00 272.00" xmlns="http://www.w3.org/2000/svg" xmlns:xlink="http://www.w3.org/1999/xlink">
<g id="graph1" class="graph" transform="scale(1 1) rotate(0) translate(4 268)">
<title>src/doremir.c</title>
<!-- Node1 -->
<g id="node1" class="node"><title>Node1</title>
<polygon fill="#bfbfbf" stroke="black" points="314.82,-240.695 314.82,-263.305 397.18,-263.305 397.18,-240.695 314.82,-240.695"/>
<text text-anchor="middle" x="356" y="-248.305" font-family="Futura" font-size="11.00">src/doremir.c</text>
</g>
<!-- Node2 -->
<g id="node3" class="node"><title>Node2</title>
<a xlink:href="doremir_8h.html" target="_top" xlink:title="doremir.h">
<polygon fill="none" stroke="black" points="251.136,-120.695 251.136,-143.305 314.864,-143.305 314.864,-120.695 251.136,-120.695"/>
<text text-anchor="middle" x="283" y="-128.305" font-family="Futura" font-size="11.00">doremir.h</text>
</a>
</g>
<!-- Node1&#45;&gt;Node2 -->
<g id="edge2" class="edge"><title>Node1&#45;&gt;Node2</title>
<path fill="none" stroke="midnightblue" d="M333.158,-240.655C318.559,-232.778 300.62,-220.476 291,-204 282.128,-188.806 280.632,-168.652 281.061,-153.699"/>
<polygon fill="midnightblue" stroke="midnightblue" points="284.571,-153.638 281.675,-143.447 277.584,-153.22 284.571,-153.638"/>
</g>
<!-- Node7 -->
<g id="node13" class="node"><title>Node7</title>
<a xlink:href="string_8h.html" target="_top" xlink:title="doremir/string.h">
<polygon fill="none" stroke="black" points="348.44,-0.695312 348.44,-23.3047 445.56,-23.3047 445.56,-0.695312 348.44,-0.695312"/>
<text text-anchor="middle" x="397" y="-8.30469" font-family="Futura" font-size="11.00">doremir/string.h</text>
</a>
</g>
<!-- Node1&#45;&gt;Node7 -->
<g id="edge26" class="edge"><title>Node1&#45;&gt;Node7</title>
<path fill="none" stroke="midnightblue" d="M379.743,-240.554C394.255,-232.766 411.593,-220.603 420,-204 448.699,-147.318 422.049,-69.4144 406.459,-33.1229"/>
<polygon fill="midnightblue" stroke="midnightblue" points="409.503,-31.3561 402.23,-23.6525 403.112,-34.2106 409.503,-31.3561"/>
</g>
<!-- Node10 -->
<g id="node20" class="node"><title>Node10</title>
<a xlink:href="dynamic_8h.html" target="_top" xlink:title="doremir/dynamic.h">
<polygon fill="none" stroke="black" points="300.052,-180.695 300.052,-203.305 411.948,-203.305 411.948,-180.695 300.052,-180.695"/>
<text text-anchor="middle" x="356" y="-188.305" font-family="Futura" font-size="11.00">doremir/dynamic.h</text>
</a>
</g>
<!-- Node1&#45;&gt;Node10 -->
<g id="edge20" class="edge"><title>Node1&#45;&gt;Node10</title>
<path fill="none" stroke="midnightblue" d="M356,-240.631C356,-233.218 356,-222.989 356,-213.91"/>
<polygon fill="midnightblue" stroke="midnightblue" points="359.5,-213.672 356,-203.672 352.5,-213.672 359.5,-213.672"/>
</g>
<!-- Node3 -->
<g id="node5" class="node"><title>Node3</title>
<a xlink:href="std_8h.html" target="_top" xlink:title="doremir/std.h">
<polygon fill="none" stroke="red" points="246.961,-60.6953 246.961,-83.3047 331.039,-83.3047 331.039,-60.6953 246.961,-60.6953"/>
<text text-anchor="middle" x="289" y="-68.3047" font-family="Futura" font-size="11.00">doremir/std.h</text>
</a>
</g>
<!-- Node2&#45;&gt;Node3 -->
<g id="edge4" class="edge"><title>Node2&#45;&gt;Node3</title>
<path fill="none" stroke="midnightblue" d="M284.073,-120.631C284.84,-113.218 285.898,-102.989 286.837,-93.9096"/>
<polygon fill="midnightblue" stroke="midnightblue" points="290.348,-93.979 287.896,-83.6719 283.386,-93.2586 290.348,-93.979"/>
</g>
<!-- Node8 -->
<g id="node16" class="node"><title>Node8</title>
<a xlink:href="alloc_8h.html" target="_top" xlink:title="doremir/alloc.h">
<polygon fill="none" stroke="black" points="-0.969971,-60.6953 -0.969971,-83.3047 92.97,-83.3047 92.97,-60.6953 -0.969971,-60.6953"/>
<text text-anchor="middle" x="46" y="-68.3047" font-family="Futura" font-size="11.00">doremir/alloc.h</text>
</a>
</g>
<!-- Node2&#45;&gt;Node8 -->
<g id="edge16" class="edge"><title>Node2&#45;&gt;Node8</title>
<path fill="none" stroke="midnightblue" d="M251.037,-123.178C211.839,-113.585 144.864,-97.1945 98.1652,-85.7662"/>
<polygon fill="midnightblue" stroke="midnightblue" points="98.7775,-82.3128 88.2321,-83.3353 97.1134,-89.1121 98.7775,-82.3128"/>
</g>
<!-- Node9 -->
<g id="node18" class="node"><title>Node9</title>
<a xlink:href="interfaces_8h.html" target="_top" xlink:title="doremir/interfaces.h">
<polygon fill="none" stroke="black" points="110.865,-60.6953 110.865,-83.3047 229.135,-83.3047 229.135,-60.6953 110.865,-60.6953"/>
<text text-anchor="middle" x="170" y="-68.3047" font-family="Futura" font-size="11.00">doremir/interfaces.h</text>
</a>
</g>
<!-- Node2&#45;&gt;Node9 -->
<g id="edge18" class="edge"><title>Node2&#45;&gt;Node9</title>
<path fill="none" stroke="midnightblue" d="M262.798,-120.631C245.151,-111.573 219.313,-98.3109 199.379,-88.0794"/>
<polygon fill="midnightblue" stroke="midnightblue" points="200.903,-84.9276 190.408,-83.475 197.707,-91.1552 200.903,-84.9276"/>
</g>
<!-- Node4 -->
<g id="node7" class="node"><title>Node4</title>
<polygon fill="none" stroke="#bfbfbf" points="275.723,-0.695312 275.723,-23.3047 330.277,-23.3047 330.277,-0.695312 275.723,-0.695312"/>
<text text-anchor="middle" x="303" y="-8.30469" font-family="Futura" font-size="11.00">assert.h</text>
</g>
<!-- Node3&#45;&gt;Node4 -->
<g id="edge6" class="edge"><title>Node3&#45;&gt;Node4</title>
<path fill="none" stroke="midnightblue" d="M291.503,-60.6308C293.312,-53.1365 295.816,-42.7636 298.025,-33.6107"/>
<polygon fill="midnightblue" stroke="midnightblue" points="301.48,-34.214 300.424,-23.6719 294.675,-32.5714 301.48,-34.214"/>
</g>
<!-- Node5 -->
<g id="node9" class="node"><title>Node5</title>
<polygon fill="none" stroke="#bfbfbf" points="120.267,-0.695312 120.267,-23.3047 187.733,-23.3047 187.733,-0.695312 120.267,-0.695312"/>
<text text-anchor="middle" x="154" y="-8.30469" font-family="Futura" font-size="11.00">complex.h</text>
</g>
<!-- Node3&#45;&gt;Node5 -->
<g id="edge8" class="edge"><title>Node3&#45;&gt;Node5</title>
<path fill="none" stroke="midnightblue" d="M264.865,-60.6308C243.401,-51.4093 211.793,-37.8294 187.812,-27.5268"/>
<polygon fill="midnightblue" stroke="midnightblue" points="188.951,-24.2067 178.382,-23.475 186.188,-30.6383 188.951,-24.2067"/>
</g>
<!-- Node6 -->
<g id="node11" class="node"><title>Node6</title>
<polygon fill="none" stroke="#bfbfbf" points="205.832,-0.695312 205.832,-23.3047 258.168,-23.3047 258.168,-0.695312 205.832,-0.695312"/>
<text text-anchor="middle" x="232" y="-8.30469" font-family="Futura" font-size="11.00">ctype.h</text>
</g>
<!-- Node3&#45;&gt;Node6 -->
<g id="edge10" class="edge"><title>Node3&#45;&gt;Node6</title>
<path fill="none" stroke="midnightblue" d="M278.81,-60.6308C270.724,-52.4034 259.229,-40.7066 249.654,-30.9633"/>
<polygon fill="midnightblue" stroke="midnightblue" points="251.994,-28.3509 242.488,-23.6719 247.001,-33.2575 251.994,-28.3509"/>
</g>
<!-- Node3&#45;&gt;Node7 -->
<g id="edge12" class="edge"><title>Node3&#45;&gt;Node7</title>
<path fill="none" stroke="midnightblue" d="M308.308,-60.6308C325.098,-51.6142 349.646,-38.4308 368.662,-28.2184"/>
<polygon fill="midnightblue" stroke="midnightblue" points="370.341,-31.2898 377.495,-23.475 367.029,-25.1229 370.341,-31.2898"/>
</g>
<!-- Node7&#45;&gt;Node2 -->
<g id="edge14" class="edge"><title>Node7&#45;&gt;Node2</title>
<path fill="none" stroke="midnightblue" d="M389.505,-23.6664C379.156,-38.0661 359.543,-64.1996 340,-84 329.336,-94.8045 316.348,-105.665 305.466,-114.22"/>
<polygon fill="midnightblue" stroke="midnightblue" points="303.052,-111.662 297.273,-120.542 307.329,-117.203 303.052,-111.662"/>
</g>
<!-- Node10&#45;&gt;Node2 -->
<g id="edge22" class="edge"><title>Node10&#45;&gt;Node2</title>
<path fill="none" stroke="midnightblue" d="M342.949,-180.631C332.286,-172.159 316.994,-160.009 304.523,-150.1"/>
<polygon fill="midnightblue" stroke="midnightblue" points="306.439,-147.152 296.432,-143.672 302.084,-152.633 306.439,-147.152"/>
</g>
<!-- Node10&#45;&gt;Node7 -->
<g id="edge24" class="edge"><title>Node10&#45;&gt;Node7</title>
<path fill="none" stroke="midnightblue" d="M358.382,-180.661C364.977,-152.027 383.569,-71.3093 392.327,-33.2881"/>
<polygon fill="midnightblue" stroke="midnightblue" points="395.778,-33.8984 394.612,-23.368 388.957,-32.3272 395.778,-33.8984"/>
</g>
</g>
</svg>
