<?xml version="1.0" encoding="UTF-8" standalone="no"?>
<!DOCTYPE svg PUBLIC "-//W3C//DTD SVG 1.1//EN"
 "http://www.w3.org/Graphics/SVG/1.1/DTD/svg11.dtd">
<!-- Generated by graphviz version 2.28.0 (20121015.0031)
 -->
<!-- Title: src/doremir/string.c Pages: 1 -->
<svg width="711pt" height="212pt"
 viewBox="0.00 0.00 711.00 212.00" xmlns="http://www.w3.org/2000/svg" xmlns:xlink="http://www.w3.org/1999/xlink">
<g id="graph1" class="graph" transform="scale(1 1) rotate(0) translate(4 208)">
<title>src/doremir/string.c</title>
<!-- Node1 -->
<g id="node1" class="node"><title>Node1</title>
<polygon fill="#bfbfbf" stroke="black" points="364.124,-180.695 364.124,-203.305 479.876,-203.305 479.876,-180.695 364.124,-180.695"/>
<text text-anchor="middle" x="422" y="-188.305" font-family="Futura" font-size="11.00">src/doremir/string.c</text>
</g>
<!-- Node2 -->
<g id="node3" class="node"><title>Node2</title>
<a xlink:href="string_8h.html" target="_top" xlink:title="doremir/string.h">
<polygon fill="none" stroke="black" points="273.44,-60.6953 273.44,-83.3047 370.56,-83.3047 370.56,-60.6953 273.44,-60.6953"/>
<text text-anchor="middle" x="322" y="-68.3047" font-family="Futura" font-size="11.00">doremir/string.h</text>
</a>
</g>
<!-- Node1&#45;&gt;Node2 -->
<g id="edge2" class="edge"><title>Node1&#45;&gt;Node2</title>
<path fill="none" stroke="midnightblue" d="M364.048,-181.114C342.748,-174.369 320.742,-163.035 308,-144 297.795,-128.755 303.786,-107.803 310.817,-92.613"/>
<polygon fill="midnightblue" stroke="midnightblue" points="313.999,-94.0793 315.428,-83.5814 307.764,-90.8964 313.999,-94.0793"/>
</g>
<!-- Node4 -->
<g id="node7" class="node"><title>Node4</title>
<a xlink:href="util_8h.html" target="_top" xlink:title="doremir/util.h">
<polygon fill="none" stroke="red" points="150.754,-120.695 150.754,-143.305 235.246,-143.305 235.246,-120.695 150.754,-120.695"/>
<text text-anchor="middle" x="193" y="-128.305" font-family="Futura" font-size="11.00">doremir/util.h</text>
</a>
</g>
<!-- Node1&#45;&gt;Node4 -->
<g id="edge6" class="edge"><title>Node1&#45;&gt;Node4</title>
<path fill="none" stroke="midnightblue" d="M381.059,-180.631C342.671,-170.908 285.152,-156.34 243.84,-145.876"/>
<polygon fill="midnightblue" stroke="midnightblue" points="244.525,-142.44 233.972,-143.377 242.806,-149.225 244.525,-142.44"/>
</g>
<!-- Node7 -->
<g id="node13" class="node"><title>Node7</title>
<a xlink:href="dynamic_8h.html" target="_top" xlink:title="doremir/dynamic.h">
<polygon fill="none" stroke="black" points="317.052,-120.695 317.052,-143.305 428.948,-143.305 428.948,-120.695 317.052,-120.695"/>
<text text-anchor="middle" x="373" y="-128.305" font-family="Futura" font-size="11.00">doremir/dynamic.h</text>
</a>
</g>
<!-- Node1&#45;&gt;Node7 -->
<g id="edge12" class="edge"><title>Node1&#45;&gt;Node7</title>
<path fill="none" stroke="midnightblue" d="M413.24,-180.631C406.427,-172.566 396.797,-161.168 388.667,-151.544"/>
<polygon fill="midnightblue" stroke="midnightblue" points="391.143,-149.052 382.016,-143.672 385.796,-153.569 391.143,-149.052"/>
</g>
<!-- Node8 -->
<g id="node17" class="node"><title>Node8</title>
<polygon fill="none" stroke="#bfbfbf" points="446.598,-120.695 446.598,-143.305 497.402,-143.305 497.402,-120.695 446.598,-120.695"/>
<text text-anchor="middle" x="472" y="-128.305" font-family="Futura" font-size="11.00">iconv.h</text>
</g>
<!-- Node1&#45;&gt;Node8 -->
<g id="edge18" class="edge"><title>Node1&#45;&gt;Node8</title>
<path fill="none" stroke="midnightblue" d="M430.939,-180.631C437.961,-172.485 447.916,-160.938 456.264,-151.253"/>
<polygon fill="midnightblue" stroke="midnightblue" points="458.922,-153.531 462.8,-143.672 453.62,-148.961 458.922,-153.531"/>
</g>
<!-- Node9 -->
<g id="node19" class="node"><title>Node9</title>
<a xlink:href="trex_8h.html" target="_top" xlink:title="string/trex.h">
<polygon fill="none" stroke="black" points="515.353,-120.695 515.353,-143.305 592.647,-143.305 592.647,-120.695 515.353,-120.695"/>
<text text-anchor="middle" x="554" y="-128.305" font-family="Futura" font-size="11.00">string/trex.h</text>
</a>
</g>
<!-- Node1&#45;&gt;Node9 -->
<g id="edge20" class="edge"><title>Node1&#45;&gt;Node9</title>
<path fill="none" stroke="midnightblue" d="M445.599,-180.631C466.586,-171.409 497.492,-157.829 520.939,-147.527"/>
<polygon fill="midnightblue" stroke="midnightblue" points="522.413,-150.702 530.16,-143.475 519.597,-144.293 522.413,-150.702"/>
</g>
<!-- Node10 -->
<g id="node21" class="node"><title>Node10</title>
<a xlink:href="parson_8h.html" target="_top" xlink:title="string/parson.h">
<polygon fill="none" stroke="red" points="610.677,-120.695 610.677,-143.305 703.323,-143.305 703.323,-120.695 610.677,-120.695"/>
<text text-anchor="middle" x="657" y="-128.305" font-family="Futura" font-size="11.00">string/parson.h</text>
</a>
</g>
<!-- Node1&#45;&gt;Node10 -->
<g id="edge22" class="edge"><title>Node1&#45;&gt;Node10</title>
<path fill="none" stroke="midnightblue" d="M464.013,-180.631C503.491,-170.887 562.683,-156.278 605.097,-145.81"/>
<polygon fill="midnightblue" stroke="midnightblue" points="606.085,-149.171 614.955,-143.377 604.408,-142.375 606.085,-149.171"/>
</g>
<!-- Node3 -->
<g id="node5" class="node"><title>Node3</title>
<a xlink:href="doremir_8h.html" target="_top" xlink:title="doremir.h">
<polygon fill="none" stroke="red" points="328.136,-0.695312 328.136,-23.3047 391.864,-23.3047 391.864,-0.695312 328.136,-0.695312"/>
<text text-anchor="middle" x="360" y="-8.30469" font-family="Futura" font-size="11.00">doremir.h</text>
</a>
</g>
<!-- Node2&#45;&gt;Node3 -->
<g id="edge4" class="edge"><title>Node2&#45;&gt;Node3</title>
<path fill="none" stroke="midnightblue" d="M328.794,-60.6308C333.971,-52.7292 341.244,-41.6276 347.467,-32.1298"/>
<polygon fill="midnightblue" stroke="midnightblue" points="350.455,-33.9546 353.008,-23.6719 344.6,-30.1184 350.455,-33.9546"/>
</g>
<!-- Node5 -->
<g id="node9" class="node"><title>Node5</title>
<a xlink:href="arch_8h.html" target="_top" xlink:title="doremir/util/arch.h">
<polygon fill="none" stroke="black" points="-0.181396,-60.6953 -0.181396,-83.3047 112.181,-83.3047 112.181,-60.6953 -0.181396,-60.6953"/>
<text text-anchor="middle" x="56" y="-68.3047" font-family="Futura" font-size="11.00">doremir/util/arch.h</text>
</a>
</g>
<!-- Node4&#45;&gt;Node5 -->
<g id="edge8" class="edge"><title>Node4&#45;&gt;Node5</title>
<path fill="none" stroke="midnightblue" d="M168.507,-120.631C146.629,-111.368 114.364,-97.7086 89.9894,-87.3897"/>
<polygon fill="midnightblue" stroke="midnightblue" points="91.316,-84.1506 80.7427,-83.475 88.5869,-90.5967 91.316,-84.1506"/>
</g>
<!-- Node6 -->
<g id="node11" class="node"><title>Node6</title>
<a xlink:href="alignof_8h.html" target="_top" xlink:title="doremir/util/alignof.h">
<polygon fill="none" stroke="black" points="130.62,-60.6953 130.62,-83.3047 255.38,-83.3047 255.38,-60.6953 130.62,-60.6953"/>
<text text-anchor="middle" x="193" y="-68.3047" font-family="Futura" font-size="11.00">doremir/util/alignof.h</text>
</a>
</g>
<!-- Node4&#45;&gt;Node6 -->
<g id="edge10" class="edge"><title>Node4&#45;&gt;Node6</title>
<path fill="none" stroke="midnightblue" d="M193,-120.631C193,-113.218 193,-102.989 193,-93.9096"/>
<polygon fill="midnightblue" stroke="midnightblue" points="196.5,-93.6718 193,-83.6719 189.5,-93.6719 196.5,-93.6718"/>
</g>
<!-- Node7&#45;&gt;Node2 -->
<g id="edge16" class="edge"><title>Node7&#45;&gt;Node2</title>
<path fill="none" stroke="midnightblue" d="M363.882,-120.631C356.719,-112.485 346.566,-100.938 338.05,-91.2533"/>
<polygon fill="midnightblue" stroke="midnightblue" points="340.616,-88.8704 331.384,-83.6719 335.359,-93.4928 340.616,-88.8704"/>
</g>
<!-- Node7&#45;&gt;Node3 -->
<g id="edge14" class="edge"><title>Node7&#45;&gt;Node3</title>
<path fill="none" stroke="midnightblue" d="M375.717,-120.316C378.861,-106.336 383.109,-81.1285 379,-60 377.184,-50.6641 373.516,-40.8352 369.883,-32.5931"/>
<polygon fill="midnightblue" stroke="midnightblue" points="373.015,-31.029 365.595,-23.4663 366.679,-34.0055 373.015,-31.029"/>
</g>
</g>
</svg>
