<?xml version="1.0" encoding="UTF-8" standalone="no"?>
<!DOCTYPE svg PUBLIC "-//W3C//DTD SVG 1.1//EN"
 "http://www.w3.org/Graphics/SVG/1.1/DTD/svg11.dtd">
<!-- Generated by graphviz version 2.28.0 (20121015.0031)
 -->
<!-- Title: include/doremir.h Pages: 1 -->
<svg width="340pt" height="92pt"
 viewBox="0.00 0.00 340.00 92.00" xmlns="http://www.w3.org/2000/svg" xmlns:xlink="http://www.w3.org/1999/xlink">
<g id="graph1" class="graph" transform="scale(1 1) rotate(0) translate(4 88)">
<title>include/doremir.h</title>
<!-- Node1 -->
<g id="node1" class="node"><title>Node1</title>
<polygon fill="#bfbfbf" stroke="black" points="96.573,-60.6953 96.573,-83.3047 201.427,-83.3047 201.427,-60.6953 96.573,-60.6953"/>
<text text-anchor="middle" x="149" y="-68.3047" font-family="Futura" font-size="11.00">include/doremir.h</text>
</g>
<!-- Node2 -->
<g id="node3" class="node"><title>Node2</title>
<polygon fill="none" stroke="#bfbfbf" points="-0.0393066,-0.695312 -0.0393066,-23.3047 84.0393,-23.3047 84.0393,-0.695312 -0.0393066,-0.695312"/>
<text text-anchor="middle" x="42" y="-8.30469" font-family="Futura" font-size="11.00">doremir/std.h</text>
</g>
<!-- Node1&#45;&gt;Node2 -->
<g id="edge2" class="edge"><title>Node1&#45;&gt;Node2</title>
<path fill="none" stroke="midnightblue" d="M129.871,-60.6308C113.312,-51.6552 89.1365,-38.5506 70.3327,-28.3579"/>
<polygon fill="midnightblue" stroke="midnightblue" points="71.784,-25.1635 61.3246,-23.475 68.4482,-31.3176 71.784,-25.1635"/>
</g>
<!-- Node3 -->
<g id="node5" class="node"><title>Node3</title>
<polygon fill="none" stroke="#bfbfbf" points="102.03,-0.695312 102.03,-23.3047 195.97,-23.3047 195.97,-0.695312 102.03,-0.695312"/>
<text text-anchor="middle" x="149" y="-8.30469" font-family="Futura" font-size="11.00">doremir/alloc.h</text>
</g>
<!-- Node1&#45;&gt;Node3 -->
<g id="edge4" class="edge"><title>Node1&#45;&gt;Node3</title>
<path fill="none" stroke="midnightblue" d="M149,-60.6308C149,-53.218 149,-42.9888 149,-33.9096"/>
<polygon fill="midnightblue" stroke="midnightblue" points="152.5,-33.6718 149,-23.6719 145.5,-33.6719 152.5,-33.6718"/>
</g>
<!-- Node4 -->
<g id="node7" class="node"><title>Node4</title>
<polygon fill="none" stroke="#bfbfbf" points="213.865,-0.695312 213.865,-23.3047 332.135,-23.3047 332.135,-0.695312 213.865,-0.695312"/>
<text text-anchor="middle" x="273" y="-8.30469" font-family="Futura" font-size="11.00">doremir/interfaces.h</text>
</g>
<!-- Node1&#45;&gt;Node4 -->
<g id="edge6" class="edge"><title>Node1&#45;&gt;Node4</title>
<path fill="none" stroke="midnightblue" d="M171.169,-60.6308C190.708,-51.4913 219.401,-38.0705 241.354,-27.8023"/>
<polygon fill="midnightblue" stroke="midnightblue" points="243.03,-30.8823 250.605,-23.475 240.064,-24.5416 243.03,-30.8823"/>
</g>
</g>
</svg>
