<?xml version="1.0" encoding="UTF-8" standalone="no"?>
<!DOCTYPE svg PUBLIC "-//W3C//DTD SVG 1.1//EN"
 "http://www.w3.org/Graphics/SVG/1.1/DTD/svg11.dtd">
<!-- Generated by graphviz version 2.28.0 (20121015.0031)
 -->
<!-- Title: include/fae/dynamic.h Pages: 1 -->
<svg width="928pt" height="92pt"
 viewBox="0.00 0.00 928.00 92.00" xmlns="http://www.w3.org/2000/svg" xmlns:xlink="http://www.w3.org/1999/xlink">
<g id="graph1" class="graph" transform="scale(1 1) rotate(0) translate(4 88)">
<title>include/fae/dynamic.h</title>
<!-- Node1 -->
<g id="node1" class="node"><title>Node1</title>
<polygon fill="#bfbfbf" stroke="black" points="418.876,-60.6953 418.876,-83.3047 549.124,-83.3047 549.124,-60.6953 418.876,-60.6953"/>
<text text-anchor="middle" x="484" y="-68.3047" font-family="Futura" font-size="11.00">include/fae/dynamic.h</text>
</g>
<!-- Node2 -->
<g id="node3" class="node"><title>Node2</title>
<a xlink:href="dynamic_8c.html" target="_top" xlink:title="src/fae/dynamic.c">
<polygon fill="none" stroke="black" points="-0.877197,-0.695312 -0.877197,-23.3047 106.877,-23.3047 106.877,-0.695312 -0.877197,-0.695312"/>
<text text-anchor="middle" x="53" y="-8.30469" font-family="Futura" font-size="11.00">src/fae/dynamic.c</text>
</a>
</g>
<!-- Node1&#45;&gt;Node2 -->
<g id="edge2" class="edge"><title>Node1&#45;&gt;Node2</title>
<path fill="none" stroke="midnightblue" d="M408.507,-62.3838C334.019,-53.6408 216.968,-39.2542 116,-24 113.036,-23.5522 109.996,-23.0765 106.93,-22.5837"/>
<polygon fill="midnightblue" stroke="midnightblue" points="408.39,-65.8939 418.729,-63.5795 409.203,-58.9413 408.39,-65.8939"/>
</g>
<!-- Node3 -->
<g id="node5" class="node"><title>Node3</title>
<a xlink:href="graph_8c.html" target="_top" xlink:title="src/fae/graph.c">
<polygon fill="none" stroke="black" points="125.141,-0.695312 125.141,-23.3047 220.859,-23.3047 220.859,-0.695312 125.141,-0.695312"/>
<text text-anchor="middle" x="173" y="-8.30469" font-family="Futura" font-size="11.00">src/fae/graph.c</text>
</a>
</g>
<!-- Node1&#45;&gt;Node3 -->
<g id="edge4" class="edge"><title>Node1&#45;&gt;Node3</title>
<path fill="none" stroke="midnightblue" d="M417.525,-58.8435C366.267,-49.435 293.62,-36.0246 230,-24 227.029,-23.4385 223.972,-22.8575 220.889,-22.2693"/>
<polygon fill="midnightblue" stroke="midnightblue" points="417.015,-62.3083 427.482,-60.6703 418.278,-55.4232 417.015,-62.3083"/>
</g>
<!-- Node4 -->
<g id="node7" class="node"><title>Node4</title>
<a xlink:href="list_8c.html" target="_top" xlink:title="src/fae/list.c">
<polygon fill="none" stroke="black" points="238.59,-0.695312 238.59,-23.3047 317.41,-23.3047 317.41,-0.695312 238.59,-0.695312"/>
<text text-anchor="middle" x="278" y="-8.30469" font-family="Futura" font-size="11.00">src/fae/list.c</text>
</a>
</g>
<!-- Node1&#45;&gt;Node4 -->
<g id="edge6" class="edge"><title>Node1&#45;&gt;Node4</title>
<path fill="none" stroke="midnightblue" d="M437.113,-57.7988C400.049,-47.3635 349.034,-32.9997 314.857,-23.3771"/>
<polygon fill="midnightblue" stroke="midnightblue" points="436.597,-61.2895 447.171,-60.6308 438.494,-54.5515 436.597,-61.2895"/>
</g>
<!-- Node5 -->
<g id="node9" class="node"><title>Node5</title>
<a xlink:href="map_8c.html" target="_top" xlink:title="src/fae/map.c">
<polygon fill="none" stroke="black" points="335.118,-0.695312 335.118,-23.3047 422.882,-23.3047 422.882,-0.695312 335.118,-0.695312"/>
<text text-anchor="middle" x="379" y="-8.30469" font-family="Futura" font-size="11.00">src/fae/map.c</text>
</a>
</g>
<!-- Node1&#45;&gt;Node5 -->
<g id="edge8" class="edge"><title>Node1&#45;&gt;Node5</title>
<path fill="none" stroke="midnightblue" d="M456.414,-55.7619C438.003,-45.5921 414.271,-32.4828 397.963,-23.475"/>
<polygon fill="midnightblue" stroke="midnightblue" points="454.782,-58.8592 465.228,-60.6308 458.167,-52.7319 454.782,-58.8592"/>
</g>
<!-- Node6 -->
<g id="node11" class="node"><title>Node6</title>
<a xlink:href="pair_8c.html" target="_top" xlink:title="src/fae/pair.c">
<polygon fill="none" stroke="black" points="441.335,-0.695312 441.335,-23.3047 526.665,-23.3047 526.665,-0.695312 441.335,-0.695312"/>
<text text-anchor="middle" x="484" y="-8.30469" font-family="Futura" font-size="11.00">src/fae/pair.c</text>
</a>
</g>
<!-- Node1&#45;&gt;Node6 -->
<g id="edge10" class="edge"><title>Node1&#45;&gt;Node6</title>
<path fill="none" stroke="midnightblue" d="M484,-50.4586C484,-41.4112 484,-31.1602 484,-23.6719"/>
<polygon fill="midnightblue" stroke="midnightblue" points="480.5,-50.6307 484,-60.6308 487.5,-50.6308 480.5,-50.6307"/>
</g>
<!-- Node7 -->
<g id="node13" class="node"><title>Node7</title>
<a xlink:href="ratio_8c.html" target="_top" xlink:title="src/fae/ratio.c">
<polygon fill="none" stroke="black" points="544.568,-0.695312 544.568,-23.3047 633.432,-23.3047 633.432,-0.695312 544.568,-0.695312"/>
<text text-anchor="middle" x="589" y="-8.30469" font-family="Futura" font-size="11.00">src/fae/ratio.c</text>
</a>
</g>
<!-- Node1&#45;&gt;Node7 -->
<g id="edge12" class="edge"><title>Node1&#45;&gt;Node7</title>
<path fill="none" stroke="midnightblue" d="M511.586,-55.7619C529.997,-45.5921 553.729,-32.4828 570.037,-23.475"/>
<polygon fill="midnightblue" stroke="midnightblue" points="509.833,-52.7319 502.772,-60.6308 513.218,-58.8592 509.833,-52.7319"/>
</g>
<!-- Node8 -->
<g id="node15" class="node"><title>Node8</title>
<a xlink:href="set_8c.html" target="_top" xlink:title="src/fae/set.c">
<polygon fill="none" stroke="black" points="651.238,-0.695312 651.238,-23.3047 730.762,-23.3047 730.762,-0.695312 651.238,-0.695312"/>
<text text-anchor="middle" x="691" y="-8.30469" font-family="Futura" font-size="11.00">src/fae/set.c</text>
</a>
</g>
<!-- Node1&#45;&gt;Node8 -->
<g id="edge14" class="edge"><title>Node1&#45;&gt;Node8</title>
<path fill="none" stroke="midnightblue" d="M530.638,-57.9324C567.92,-47.4863 619.475,-33.0409 653.965,-23.3771"/>
<polygon fill="midnightblue" stroke="midnightblue" points="529.692,-54.5625 521.007,-60.6308 531.581,-61.3029 529.692,-54.5625"/>
</g>
<!-- Node9 -->
<g id="node17" class="node"><title>Node9</title>
<a xlink:href="fae_2string_8c.html" target="_top" xlink:title="src/fae/string.c">
<polygon fill="none" stroke="black" points="748.511,-0.695312 748.511,-23.3047 841.489,-23.3047 841.489,-0.695312 748.511,-0.695312"/>
<text text-anchor="middle" x="795" y="-8.30469" font-family="Futura" font-size="11.00">src/fae/string.c</text>
</a>
</g>
<!-- Node1&#45;&gt;Node9 -->
<g id="edge16" class="edge"><title>Node1&#45;&gt;Node9</title>
<path fill="none" stroke="midnightblue" d="M551.001,-58.8717C602.454,-49.5043 675.258,-36.1343 739,-24 742.017,-23.4256 745.125,-22.829 748.257,-22.2241"/>
<polygon fill="midnightblue" stroke="midnightblue" points="550.216,-55.4569 541.004,-60.6902 551.469,-62.3439 550.216,-55.4569"/>
</g>
<!-- Node10 -->
<g id="node19" class="node"><title>Node10</title>
<a xlink:href="fae_8c.html" target="_top" xlink:title="src/fae.c">
<polygon fill="none" stroke="black" points="859.914,-0.695312 859.914,-23.3047 920.086,-23.3047 920.086,-0.695312 859.914,-0.695312"/>
<text text-anchor="middle" x="890" y="-8.30469" font-family="Futura" font-size="11.00">src/fae.c</text>
</a>
</g>
<!-- Node1&#45;&gt;Node10 -->
<g id="edge18" class="edge"><title>Node1&#45;&gt;Node10</title>
<path fill="none" stroke="midnightblue" d="M559.446,-64.44C633.803,-57.2416 750.417,-43.9834 850,-24 853.107,-23.3765 856.328,-22.6424 859.531,-21.8541"/>
<polygon fill="midnightblue" stroke="midnightblue" points="558.863,-60.9797 549.241,-65.4155 559.529,-67.948 558.863,-60.9797"/>
</g>
</g>
</svg>
