<?xml version="1.0" encoding="UTF-8" standalone="no"?>
<!DOCTYPE svg PUBLIC "-//W3C//DTD SVG 1.1//EN"
 "http://www.w3.org/Graphics/SVG/1.1/DTD/svg11.dtd">
<!-- Generated by graphviz version 2.28.0 (20121015.0031)
 -->
<!-- Title: src/fae/dynamic.c Pages: 1 -->
<svg width="617pt" height="212pt"
 viewBox="0.00 0.00 617.00 212.00" xmlns="http://www.w3.org/2000/svg" xmlns:xlink="http://www.w3.org/1999/xlink">
<g id="graph1" class="graph" transform="scale(1 1) rotate(0) translate(4 208)">
<title>src/fae/dynamic.c</title>
<!-- Node1 -->
<g id="node1" class="node"><title>Node1</title>
<polygon fill="#bfbfbf" stroke="black" points="49.1228,-180.695 49.1228,-203.305 156.877,-203.305 156.877,-180.695 49.1228,-180.695"/>
<text text-anchor="middle" x="103" y="-188.305" font-family="Futura" font-size="11.00">src/fae/dynamic.c</text>
</g>
<!-- Node2 -->
<g id="node3" class="node"><title>Node2</title>
<polygon fill="none" stroke="#bfbfbf" points="-0.769775,-120.695 -0.769775,-143.305 40.7698,-143.305 40.7698,-120.695 -0.769775,-120.695"/>
<text text-anchor="middle" x="20" y="-128.305" font-family="Futura" font-size="11.00">fae.h</text>
</g>
<!-- Node1&#45;&gt;Node2 -->
<g id="edge2" class="edge"><title>Node1&#45;&gt;Node2</title>
<path fill="none" stroke="midnightblue" d="M88.1613,-180.631C75.7275,-171.942 57.7566,-159.384 43.3888,-149.344"/>
<polygon fill="midnightblue" stroke="midnightblue" points="45.1919,-146.334 34.9901,-143.475 41.1823,-152.072 45.1919,-146.334"/>
</g>
<!-- Node3 -->
<g id="node5" class="node"><title>Node3</title>
<a xlink:href="dynamic_8h.html" target="_top" xlink:title="fae/dynamic.h">
<polygon fill="none" stroke="black" points="58.439,-120.695 58.439,-143.305 147.561,-143.305 147.561,-120.695 58.439,-120.695"/>
<text text-anchor="middle" x="103" y="-128.305" font-family="Futura" font-size="11.00">fae/dynamic.h</text>
</a>
</g>
<!-- Node1&#45;&gt;Node3 -->
<g id="edge4" class="edge"><title>Node1&#45;&gt;Node3</title>
<path fill="none" stroke="midnightblue" d="M103,-180.631C103,-173.218 103,-162.989 103,-153.91"/>
<polygon fill="midnightblue" stroke="midnightblue" points="106.5,-153.672 103,-143.672 99.5001,-153.672 106.5,-153.672"/>
</g>
<!-- Node6 -->
<g id="node12" class="node"><title>Node6</title>
<a xlink:href="util_8h.html" target="_top" xlink:title="fae/util.h">
<polygon fill="none" stroke="red" points="286.141,-120.695 286.141,-143.305 347.859,-143.305 347.859,-120.695 286.141,-120.695"/>
<text text-anchor="middle" x="317" y="-128.305" font-family="Futura" font-size="11.00">fae/util.h</text>
</a>
</g>
<!-- Node1&#45;&gt;Node6 -->
<g id="edge12" class="edge"><title>Node1&#45;&gt;Node6</title>
<path fill="none" stroke="midnightblue" d="M141.259,-180.631C179.223,-170.341 237.208,-154.626 276.077,-144.091"/>
<polygon fill="midnightblue" stroke="midnightblue" points="277.275,-147.393 286.011,-141.399 275.444,-140.637 277.275,-147.393"/>
</g>
<!-- Node4 -->
<g id="node7" class="node"><title>Node4</title>
<a xlink:href="fae_2fae_8h.html" target="_top" xlink:title="fae.h">
<polygon fill="none" stroke="red" points="49.2302,-0.695312 49.2302,-23.3047 90.7698,-23.3047 90.7698,-0.695312 49.2302,-0.695312"/>
<text text-anchor="middle" x="70" y="-8.30469" font-family="Futura" font-size="11.00">fae.h</text>
</a>
</g>
<!-- Node3&#45;&gt;Node4 -->
<g id="edge6" class="edge"><title>Node3&#45;&gt;Node4</title>
<path fill="none" stroke="midnightblue" d="M87.8559,-120.625C76.9885,-112.191 63.21,-99.2233 57,-84 50.2966,-67.5672 54.9889,-47.5865 60.5197,-33.0127"/>
<polygon fill="midnightblue" stroke="midnightblue" points="63.8775,-34.0583 64.5443,-23.4845 57.4291,-31.3346 63.8775,-34.0583"/>
</g>
<!-- Node5 -->
<g id="node9" class="node"><title>Node5</title>
<a xlink:href="string_8h.html" target="_top" xlink:title="fae/string.h">
<polygon fill="none" stroke="black" points="65.8269,-60.6953 65.8269,-83.3047 140.173,-83.3047 140.173,-60.6953 65.8269,-60.6953"/>
<text text-anchor="middle" x="103" y="-68.3047" font-family="Futura" font-size="11.00">fae/string.h</text>
</a>
</g>
<!-- Node3&#45;&gt;Node5 -->
<g id="edge8" class="edge"><title>Node3&#45;&gt;Node5</title>
<path fill="none" stroke="midnightblue" d="M103,-120.631C103,-113.218 103,-102.989 103,-93.9096"/>
<polygon fill="midnightblue" stroke="midnightblue" points="106.5,-93.6718 103,-83.6719 99.5001,-93.6719 106.5,-93.6718"/>
</g>
<!-- Node5&#45;&gt;Node4 -->
<g id="edge10" class="edge"><title>Node5&#45;&gt;Node4</title>
<path fill="none" stroke="midnightblue" d="M97.1003,-60.6308C92.6509,-52.8107 86.4182,-41.8562 81.0516,-32.4241"/>
<polygon fill="midnightblue" stroke="midnightblue" points="84.0593,-30.6327 76.0719,-23.6719 77.9751,-34.0944 84.0593,-30.6327"/>
</g>
<!-- Node7 -->
<g id="node14" class="node"><title>Node7</title>
<a xlink:href="arch_8h.html" target="_top" xlink:title="fae/util/arch.h">
<polygon fill="none" stroke="black" points="158.205,-60.6953 158.205,-83.3047 247.795,-83.3047 247.795,-60.6953 158.205,-60.6953"/>
<text text-anchor="middle" x="203" y="-68.3047" font-family="Futura" font-size="11.00">fae/util/arch.h</text>
</a>
</g>
<!-- Node6&#45;&gt;Node7 -->
<g id="edge14" class="edge"><title>Node6&#45;&gt;Node7</title>
<path fill="none" stroke="midnightblue" d="M296.619,-120.631C278.816,-111.573 252.749,-98.3109 232.639,-88.0794"/>
<polygon fill="midnightblue" stroke="midnightblue" points="234.089,-84.8902 223.589,-83.475 230.915,-91.1291 234.089,-84.8902"/>
</g>
<!-- Node8 -->
<g id="node16" class="node"><title>Node8</title>
<a xlink:href="alignof_8h.html" target="_top" xlink:title="fae/util/alignof.h">
<polygon fill="none" stroke="black" points="266.007,-60.6953 266.007,-83.3047 367.993,-83.3047 367.993,-60.6953 266.007,-60.6953"/>
<text text-anchor="middle" x="317" y="-68.3047" font-family="Futura" font-size="11.00">fae/util/alignof.h</text>
</a>
</g>
<!-- Node6&#45;&gt;Node8 -->
<g id="edge16" class="edge"><title>Node6&#45;&gt;Node8</title>
<path fill="none" stroke="midnightblue" d="M317,-120.631C317,-113.218 317,-102.989 317,-93.9096"/>
<polygon fill="midnightblue" stroke="midnightblue" points="320.5,-93.6718 317,-83.6719 313.5,-93.6719 320.5,-93.6718"/>
</g>
<!-- Node9 -->
<g id="node18" class="node"><title>Node9</title>
<a xlink:href="minmax_8h.html" target="_top" xlink:title="fae/util/minmax.h">
<polygon fill="none" stroke="red" points="385.837,-60.6953 385.837,-83.3047 492.163,-83.3047 492.163,-60.6953 385.837,-60.6953"/>
<text text-anchor="middle" x="439" y="-68.3047" font-family="Futura" font-size="11.00">fae/util/minmax.h</text>
</a>
</g>
<!-- Node6&#45;&gt;Node9 -->
<g id="edge18" class="edge"><title>Node6&#45;&gt;Node9</title>
<path fill="none" stroke="midnightblue" d="M338.811,-120.631C358.036,-111.491 386.265,-98.0705 407.864,-87.8023"/>
<polygon fill="midnightblue" stroke="midnightblue" points="409.438,-90.9296 416.966,-83.475 406.432,-84.6077 409.438,-90.9296"/>
</g>
<!-- Node10 -->
<g id="node20" class="node"><title>Node10</title>
<a xlink:href="literals_8h.html" target="_top" xlink:title="fae/util/literals.h">
<polygon fill="none" stroke="red" points="510.038,-60.6953 510.038,-83.3047 609.962,-83.3047 609.962,-60.6953 510.038,-60.6953"/>
<text text-anchor="middle" x="560" y="-68.3047" font-family="Futura" font-size="11.00">fae/util/literals.h</text>
</a>
</g>
<!-- Node6&#45;&gt;Node10 -->
<g id="edge20" class="edge"><title>Node6&#45;&gt;Node10</title>
<path fill="none" stroke="midnightblue" d="M348.271,-123.536C388.241,-113.996 458.058,-97.3318 506.542,-85.7596"/>
<polygon fill="midnightblue" stroke="midnightblue" points="507.631,-89.0979 516.546,-83.3719 506.006,-82.2892 507.631,-89.0979"/>
</g>
</g>
</svg>
