<?xml version="1.0" encoding="UTF-8" standalone="no"?>
<!DOCTYPE svg PUBLIC "-//W3C//DTD SVG 1.1//EN"
 "http://www.w3.org/Graphics/SVG/1.1/DTD/svg11.dtd">
<!-- Generated by graphviz version 2.28.0 (20121015.0031)
 -->
<!-- Title: include/fa/dynamic.h Pages: 1 -->
<svg width="802pt" height="212pt"
 viewBox="0.00 0.00 802.00 212.00" xmlns="http://www.w3.org/2000/svg" xmlns:xlink="http://www.w3.org/1999/xlink">
<g id="graph1" class="graph" transform="scale(1 1) rotate(0) translate(4 208)">
<title>include/fa/dynamic.h</title>
<!-- Node1 -->
<g id="node1" class="node"><title>Node1</title>
<polygon fill="#bfbfbf" stroke="black" points="646.918,-180.695 646.918,-203.305 771.082,-203.305 771.082,-180.695 646.918,-180.695"/>
<text text-anchor="middle" x="709" y="-188.305" font-family="Futura" font-size="11.00">include/fa/dynamic.h</text>
</g>
<!-- Node2 -->
<g id="node3" class="node"><title>Node2</title>
<a xlink:href="fa_2fa_8h.html" target="_top" xlink:title="fa.h">
<polygon fill="none" stroke="red" points="603.273,-120.695 603.273,-143.305 638.727,-143.305 638.727,-120.695 603.273,-120.695"/>
<text text-anchor="middle" x="621" y="-128.305" font-family="Futura" font-size="11.00">fa.h</text>
</a>
</g>
<!-- Node1&#45;&gt;Node2 -->
<g id="edge2" class="edge"><title>Node1&#45;&gt;Node2</title>
<path fill="none" stroke="midnightblue" d="M693.267,-180.631C679.96,-171.86 660.671,-159.147 645.368,-149.06"/>
<polygon fill="midnightblue" stroke="midnightblue" points="647.169,-146.056 636.893,-143.475 643.317,-151.901 647.169,-146.056"/>
</g>
<!-- Node9 -->
<g id="node18" class="node"><title>Node9</title>
<a xlink:href="string_8h.html" target="_top" xlink:title="fa/string.h">
<polygon fill="none" stroke="black" points="725.87,-0.695312 725.87,-23.3047 794.13,-23.3047 794.13,-0.695312 725.87,-0.695312"/>
<text text-anchor="middle" x="760" y="-8.30469" font-family="Futura" font-size="11.00">fa/string.h</text>
</a>
</g>
<!-- Node1&#45;&gt;Node9 -->
<g id="edge26" class="edge"><title>Node1&#45;&gt;Node9</title>
<path fill="none" stroke="midnightblue" d="M716.022,-180.666C728.075,-162.234 752.246,-122.042 761,-84 764.796,-67.5057 764.232,-48.2816 762.894,-34.0002"/>
<polygon fill="midnightblue" stroke="midnightblue" points="766.336,-33.2908 761.723,-23.753 759.381,-34.0857 766.336,-33.2908"/>
</g>
<!-- Node3 -->
<g id="node5" class="node"><title>Node3</title>
<polygon fill="none" stroke="#bfbfbf" points="-0.0629883,-60.6953 -0.0629883,-83.3047 74.063,-83.3047 74.063,-60.6953 -0.0629883,-60.6953"/>
<text text-anchor="middle" x="37" y="-68.3047" font-family="Futura" font-size="11.00">fa/atomic.h</text>
</g>
<!-- Node2&#45;&gt;Node3 -->
<g id="edge4" class="edge"><title>Node2&#45;&gt;Node3</title>
<path fill="none" stroke="midnightblue" d="M603.235,-130.4C536.371,-127.945 293.435,-117.244 84.2481,-84.0095"/>
<polygon fill="midnightblue" stroke="midnightblue" points="84.7424,-80.544 74.3132,-82.4098 83.6296,-87.455 84.7424,-80.544"/>
</g>
<!-- Node4 -->
<g id="node7" class="node"><title>Node4</title>
<polygon fill="none" stroke="#bfbfbf" points="91.6484,-60.6953 91.6484,-83.3047 202.352,-83.3047 202.352,-60.6953 91.6484,-60.6953"/>
<text text-anchor="middle" x="147" y="-68.3047" font-family="Futura" font-size="11.00">fa/atomic/queue.h</text>
</g>
<!-- Node2&#45;&gt;Node4 -->
<g id="edge6" class="edge"><title>Node2&#45;&gt;Node4</title>
<path fill="none" stroke="midnightblue" d="M602.97,-129.298C546.815,-123.919 369.895,-106.399 212.791,-84.1992"/>
<polygon fill="midnightblue" stroke="midnightblue" points="212.866,-80.6747 202.473,-82.7302 211.88,-87.6049 212.866,-80.6747"/>
</g>
<!-- Node5 -->
<g id="node9" class="node"><title>Node5</title>
<polygon fill="none" stroke="#bfbfbf" points="220.42,-60.6953 220.42,-83.3047 325.58,-83.3047 325.58,-60.6953 220.42,-60.6953"/>
<text text-anchor="middle" x="273" y="-68.3047" font-family="Futura" font-size="11.00">fa/atomic/stack.h</text>
</g>
<!-- Node2&#45;&gt;Node5 -->
<g id="edge8" class="edge"><title>Node2&#45;&gt;Node5</title>
<path fill="none" stroke="midnightblue" d="M603.248,-128.163C559.675,-121.183 443.741,-102.509 335.837,-84.1275"/>
<polygon fill="midnightblue" stroke="midnightblue" points="336.204,-80.6395 325.757,-82.4072 335.026,-87.5397 336.204,-80.6395"/>
</g>
<!-- Node6 -->
<g id="node11" class="node"><title>Node6</title>
<polygon fill="none" stroke="#bfbfbf" points="343.526,-60.6953 343.526,-83.3047 478.474,-83.3047 478.474,-60.6953 343.526,-60.6953"/>
<text text-anchor="middle" x="411" y="-68.3047" font-family="Futura" font-size="11.00">fa/atomic/ring_buffer.h</text>
</g>
<!-- Node2&#45;&gt;Node6 -->
<g id="edge10" class="edge"><title>Node2&#45;&gt;Node6</title>
<path fill="none" stroke="midnightblue" d="M603.096,-126.055C571.308,-117.275 504.05,-98.6995 458.182,-86.0312"/>
<polygon fill="midnightblue" stroke="midnightblue" points="459.024,-82.6328 448.453,-83.3442 457.16,-89.3802 459.024,-82.6328"/>
</g>
<!-- Node7 -->
<g id="node13" class="node"><title>Node7</title>
<polygon fill="none" stroke="#bfbfbf" points="496.026,-60.6953 496.026,-83.3047 569.974,-83.3047 569.974,-60.6953 496.026,-60.6953"/>
<text text-anchor="middle" x="533" y="-68.3047" font-family="Futura" font-size="11.00">fa/system.h</text>
</g>
<!-- Node2&#45;&gt;Node7 -->
<g id="edge12" class="edge"><title>Node2&#45;&gt;Node7</title>
<path fill="none" stroke="midnightblue" d="M605.267,-120.631C591.96,-111.86 572.671,-99.1468 557.368,-89.0605"/>
<polygon fill="midnightblue" stroke="midnightblue" points="559.169,-86.0558 548.893,-83.475 555.317,-91.9006 559.169,-86.0558"/>
</g>
<!-- Node8 -->
<g id="node15" class="node"><title>Node8</title>
<a xlink:href="error_8h.html" target="_top" xlink:title="fa/error.h">
<polygon fill="none" stroke="black" points="588.161,-60.6953 588.161,-83.3047 653.839,-83.3047 653.839,-60.6953 588.161,-60.6953"/>
<text text-anchor="middle" x="621" y="-68.3047" font-family="Futura" font-size="11.00">fa/error.h</text>
</a>
</g>
<!-- Node2&#45;&gt;Node8 -->
<g id="edge14" class="edge"><title>Node2&#45;&gt;Node8</title>
<path fill="none" stroke="midnightblue" d="M615.684,-120.631C614.323,-113.137 613.931,-102.764 614.508,-93.6107"/>
<polygon fill="midnightblue" stroke="midnightblue" points="617.986,-94.0015 615.63,-83.6719 611.03,-93.2159 617.986,-94.0015"/>
</g>
<!-- Node10 -->
<g id="node21" class="node"><title>Node10</title>
<a xlink:href="pair_8h.html" target="_top" xlink:title="fa/pair.h">
<polygon fill="none" stroke="red" points="671.694,-60.6953 671.694,-83.3047 732.306,-83.3047 732.306,-60.6953 671.694,-60.6953"/>
<text text-anchor="middle" x="702" y="-68.3047" font-family="Futura" font-size="11.00">fa/pair.h</text>
</a>
</g>
<!-- Node2&#45;&gt;Node10 -->
<g id="edge22" class="edge"><title>Node2&#45;&gt;Node10</title>
<path fill="none" stroke="midnightblue" d="M630.165,-120.631C640.821,-111.86 658.31,-99.1468 673.457,-89.0605"/>
<polygon fill="midnightblue" stroke="midnightblue" points="675.566,-91.8644 682.036,-83.475 671.746,-85.9982 675.566,-91.8644"/>
</g>
<!-- Node8&#45;&gt;Node2 -->
<g id="edge16" class="edge"><title>Node8&#45;&gt;Node2</title>
<path fill="none" stroke="midnightblue" d="M626.37,-83.6719C627.691,-91.1602 628.064,-101.411 627.488,-110.459"/>
<polygon fill="midnightblue" stroke="midnightblue" points="623.984,-110.296 626.316,-120.631 630.938,-111.097 623.984,-110.296"/>
</g>
<!-- Node8&#45;&gt;Node9 -->
<g id="edge18" class="edge"><title>Node8&#45;&gt;Node9</title>
<path fill="none" stroke="midnightblue" d="M645.85,-60.6308C668.048,-51.3683 700.784,-37.7086 725.514,-27.3897"/>
<polygon fill="midnightblue" stroke="midnightblue" points="727.015,-30.556 734.896,-23.475 724.319,-24.0959 727.015,-30.556"/>
</g>
<!-- Node9&#45;&gt;Node2 -->
<g id="edge20" class="edge"><title>Node9&#45;&gt;Node2</title>
<path fill="none" stroke="midnightblue" d="M760.018,-23.5298C759.482,-38.7318 756.308,-66.8768 741,-84 717.172,-110.653 676.338,-122.345 649.011,-127.368"/>
<polygon fill="midnightblue" stroke="midnightblue" points="648.21,-123.953 638.914,-129.036 649.351,-130.86 648.21,-123.953"/>
</g>
<!-- Node10&#45;&gt;Node2 -->
<g id="edge24" class="edge"><title>Node10&#45;&gt;Node2</title>
<path fill="none" stroke="midnightblue" d="M692.464,-83.674C681.352,-92.7803 663.134,-105.971 647.77,-116.115"/>
<polygon fill="midnightblue" stroke="midnightblue" points="645.64,-113.323 639.129,-121.681 649.431,-119.208 645.64,-113.323"/>
</g>
</g>
</svg>
