<?xml version="1.0" encoding="UTF-8" standalone="no"?>
<!DOCTYPE svg PUBLIC "-//W3C//DTD SVG 1.1//EN"
 "http://www.w3.org/Graphics/SVG/1.1/DTD/svg11.dtd">
<!-- Generated by graphviz version 2.28.0 (20121015.0031)
 -->
<!-- Title: include/fa/error.h Pages: 1 -->
<svg width="757pt" height="212pt"
 viewBox="0.00 0.00 757.00 212.00" xmlns="http://www.w3.org/2000/svg" xmlns:xlink="http://www.w3.org/1999/xlink">
<g id="graph1" class="graph" transform="scale(1 1) rotate(0) translate(4 208)">
<title>include/fa/error.h</title>
<!-- Node1 -->
<g id="node1" class="node"><title>Node1</title>
<polygon fill="#bfbfbf" stroke="black" points="418.598,-180.695 418.598,-203.305 525.402,-203.305 525.402,-180.695 418.598,-180.695"/>
<text text-anchor="middle" x="472" y="-188.305" font-family="Futura" font-size="11.00">include/fa/error.h</text>
</g>
<!-- Node2 -->
<g id="node3" class="node"><title>Node2</title>
<a xlink:href="fa_2fa_8h.html" target="_top" xlink:title="fa.h">
<polygon fill="none" stroke="red" points="454.273,-60.6953 454.273,-83.3047 489.727,-83.3047 489.727,-60.6953 454.273,-60.6953"/>
<text text-anchor="middle" x="472" y="-68.3047" font-family="Futura" font-size="11.00">fa.h</text>
</a>
</g>
<!-- Node1&#45;&gt;Node2 -->
<g id="edge2" class="edge"><title>Node1&#45;&gt;Node2</title>
<path fill="none" stroke="midnightblue" d="M467.953,-180.528C464.82,-161.071 464.411,-119.023 466.724,-93.6561"/>
<polygon fill="midnightblue" stroke="midnightblue" points="470.212,-93.964 467.93,-83.6179 463.262,-93.129 470.212,-93.964"/>
</g>
<!-- Node10 -->
<g id="node21" class="node"><title>Node10</title>
<a xlink:href="string_8h.html" target="_top" xlink:title="fa/string.h">
<polygon fill="none" stroke="black" points="508.87,-120.695 508.87,-143.305 577.13,-143.305 577.13,-120.695 508.87,-120.695"/>
<text text-anchor="middle" x="543" y="-128.305" font-family="Futura" font-size="11.00">fa/string.h</text>
</a>
</g>
<!-- Node1&#45;&gt;Node10 -->
<g id="edge22" class="edge"><title>Node1&#45;&gt;Node10</title>
<path fill="none" stroke="midnightblue" d="M484.693,-180.631C495.064,-172.159 509.938,-160.009 522.067,-150.1"/>
<polygon fill="midnightblue" stroke="midnightblue" points="524.406,-152.709 529.936,-143.672 519.977,-147.288 524.406,-152.709"/>
</g>
<!-- Node2&#45;&gt;Node1 -->
<g id="edge14" class="edge"><title>Node2&#45;&gt;Node1</title>
<path fill="none" stroke="midnightblue" d="M476.07,-83.6179C479.189,-103.187 479.586,-145.25 477.259,-170.534"/>
<polygon fill="midnightblue" stroke="midnightblue" points="473.776,-170.18 476.047,-180.528 480.725,-171.022 473.776,-170.18"/>
</g>
<!-- Node3 -->
<g id="node5" class="node"><title>Node3</title>
<polygon fill="none" stroke="#bfbfbf" points="-0.0629883,-0.695312 -0.0629883,-23.3047 74.063,-23.3047 74.063,-0.695312 -0.0629883,-0.695312"/>
<text text-anchor="middle" x="37" y="-8.30469" font-family="Futura" font-size="11.00">fa/atomic.h</text>
</g>
<!-- Node2&#45;&gt;Node3 -->
<g id="edge4" class="edge"><title>Node2&#45;&gt;Node3</title>
<path fill="none" stroke="midnightblue" d="M454.056,-69.5684C399.814,-65.0874 232.689,-50.1531 84.2792,-24.068"/>
<polygon fill="midnightblue" stroke="midnightblue" points="84.539,-20.5593 74.0803,-22.2523 83.312,-27.451 84.539,-20.5593"/>
</g>
<!-- Node4 -->
<g id="node7" class="node"><title>Node4</title>
<polygon fill="none" stroke="#bfbfbf" points="91.6484,-0.695312 91.6484,-23.3047 202.352,-23.3047 202.352,-0.695312 91.6484,-0.695312"/>
<text text-anchor="middle" x="147" y="-8.30469" font-family="Futura" font-size="11.00">fa/atomic/queue.h</text>
</g>
<!-- Node2&#45;&gt;Node4 -->
<g id="edge6" class="edge"><title>Node2&#45;&gt;Node4</title>
<path fill="none" stroke="midnightblue" d="M454.064,-67.7991C408.853,-59.7307 288.437,-38.241 212.529,-24.6945"/>
<polygon fill="midnightblue" stroke="midnightblue" points="213.045,-21.2312 202.585,-22.9198 211.815,-28.1223 213.045,-21.2312"/>
</g>
<!-- Node5 -->
<g id="node9" class="node"><title>Node5</title>
<polygon fill="none" stroke="#bfbfbf" points="220.42,-0.695312 220.42,-23.3047 325.58,-23.3047 325.58,-0.695312 220.42,-0.695312"/>
<text text-anchor="middle" x="273" y="-8.30469" font-family="Futura" font-size="11.00">fa/atomic/stack.h</text>
</g>
<!-- Node2&#45;&gt;Node5 -->
<g id="edge8" class="edge"><title>Node2&#45;&gt;Node5</title>
<path fill="none" stroke="midnightblue" d="M453.989,-65.7506C423.544,-56.8772 361.031,-38.6574 318.072,-26.1365"/>
<polygon fill="midnightblue" stroke="midnightblue" points="318.993,-22.7595 308.413,-23.3214 317.034,-29.4799 318.993,-22.7595"/>
</g>
<!-- Node6 -->
<g id="node11" class="node"><title>Node6</title>
<polygon fill="none" stroke="#bfbfbf" points="343.526,-0.695312 343.526,-23.3047 478.474,-23.3047 478.474,-0.695312 343.526,-0.695312"/>
<text text-anchor="middle" x="411" y="-8.30469" font-family="Futura" font-size="11.00">fa/atomic/ring_buffer.h</text>
</g>
<!-- Node2&#45;&gt;Node6 -->
<g id="edge10" class="edge"><title>Node2&#45;&gt;Node6</title>
<path fill="none" stroke="midnightblue" d="M461.094,-60.6308C452.356,-52.3219 439.896,-40.4746 429.589,-30.6745"/>
<polygon fill="midnightblue" stroke="midnightblue" points="431.883,-28.026 422.224,-23.6719 427.059,-33.099 431.883,-28.026"/>
</g>
<!-- Node7 -->
<g id="node13" class="node"><title>Node7</title>
<polygon fill="none" stroke="#bfbfbf" points="496.026,-0.695312 496.026,-23.3047 569.974,-23.3047 569.974,-0.695312 496.026,-0.695312"/>
<text text-anchor="middle" x="533" y="-8.30469" font-family="Futura" font-size="11.00">fa/system.h</text>
</g>
<!-- Node2&#45;&gt;Node7 -->
<g id="edge12" class="edge"><title>Node2&#45;&gt;Node7</title>
<path fill="none" stroke="midnightblue" d="M482.906,-60.6308C491.644,-52.3219 504.104,-40.4746 514.411,-30.6745"/>
<polygon fill="midnightblue" stroke="midnightblue" points="516.941,-33.099 521.776,-23.6719 512.117,-28.026 516.941,-33.099"/>
</g>
<!-- Node8 -->
<g id="node16" class="node"><title>Node8</title>
<a xlink:href="pair_8h.html" target="_top" xlink:title="fa/pair.h">
<polygon fill="none" stroke="red" points="587.694,-0.695312 587.694,-23.3047 648.306,-23.3047 648.306,-0.695312 587.694,-0.695312"/>
<text text-anchor="middle" x="618" y="-8.30469" font-family="Futura" font-size="11.00">fa/pair.h</text>
</a>
</g>
<!-- Node2&#45;&gt;Node8 -->
<g id="edge16" class="edge"><title>Node2&#45;&gt;Node8</title>
<path fill="none" stroke="midnightblue" d="M489.75,-61.9375C511.706,-52.4342 549.317,-37.3943 578.225,-26.4944"/>
<polygon fill="midnightblue" stroke="midnightblue" points="579.516,-29.7482 587.66,-22.9706 577.067,-23.1907 579.516,-29.7482"/>
</g>
<!-- Node9 -->
<g id="node19" class="node"><title>Node9</title>
<polygon fill="none" stroke="#bfbfbf" points="666.804,-0.695312 666.804,-23.3047 749.196,-23.3047 749.196,-0.695312 666.804,-0.695312"/>
<text text-anchor="middle" x="708" y="-8.30469" font-family="Futura" font-size="11.00">fa/pair/left.h</text>
</g>
<!-- Node2&#45;&gt;Node9 -->
<g id="edge20" class="edge"><title>Node2&#45;&gt;Node9</title>
<path fill="none" stroke="midnightblue" d="M489.738,-66.6406C524.784,-58.0277 604.065,-38.5434 656.801,-25.5829"/>
<polygon fill="midnightblue" stroke="midnightblue" points="657.772,-28.9485 666.647,-23.163 656.101,-22.1508 657.772,-28.9485"/>
</g>
<!-- Node8&#45;&gt;Node2 -->
<g id="edge18" class="edge"><title>Node8&#45;&gt;Node2</title>
<path fill="none" stroke="midnightblue" d="M597.279,-23.3415C571.587,-34.3439 528.127,-51.5734 499.639,-62.0241"/>
<polygon fill="midnightblue" stroke="midnightblue" points="498.101,-58.8581 489.881,-65.5435 500.476,-65.4429 498.101,-58.8581"/>
</g>
<!-- Node10&#45;&gt;Node2 -->
<g id="edge24" class="edge"><title>Node10&#45;&gt;Node2</title>
<path fill="none" stroke="midnightblue" d="M530.307,-120.631C519.936,-112.159 505.062,-100.009 492.933,-90.1004"/>
<polygon fill="midnightblue" stroke="midnightblue" points="495.023,-87.2878 485.064,-83.6719 490.594,-92.7089 495.023,-87.2878"/>
</g>
</g>
</svg>
