<?xml version="1.0" encoding="UTF-8" standalone="no"?>
<!DOCTYPE svg PUBLIC "-//W3C//DTD SVG 1.1//EN"
 "http://www.w3.org/Graphics/SVG/1.1/DTD/svg11.dtd">
<!-- Generated by graphviz version 2.28.0 (20121015.0031)
 -->
<!-- Title: include/fa/error.h Pages: 1 -->
<svg width="694pt" height="272pt"
 viewBox="0.00 0.00 693.95 272.00" xmlns="http://www.w3.org/2000/svg" xmlns:xlink="http://www.w3.org/1999/xlink">
<g id="graph1" class="graph" transform="scale(1 1) rotate(0) translate(4 268)">
<title>include/fa/error.h</title>
<!-- Node1 -->
<g id="node1" class="node"><title>Node1</title>
<polygon fill="#bfbfbf" stroke="black" points="179.598,-240.695 179.598,-263.305 286.402,-263.305 286.402,-240.695 179.598,-240.695"/>
<text text-anchor="middle" x="233" y="-248.305" font-family="Futura" font-size="11.00">include/fa/error.h</text>
</g>
<!-- Node2 -->
<g id="node3" class="node"><title>Node2</title>
<a xlink:href="audio_8h.html" target="_top" xlink:title="include/fa/audio.h">
<polygon fill="none" stroke="black" points="85.592,-180.695 85.592,-203.305 196.408,-203.305 196.408,-180.695 85.592,-180.695"/>
<text text-anchor="middle" x="141" y="-188.305" font-family="Futura" font-size="11.00">include/fa/audio.h</text>
</a>
</g>
<!-- Node1&#45;&gt;Node2 -->
<g id="edge2" class="edge"><title>Node1&#45;&gt;Node2</title>
<path fill="none" stroke="midnightblue" d="M207.717,-235.061C191.752,-224.996 171.578,-212.277 157.616,-203.475"/>
<polygon fill="midnightblue" stroke="midnightblue" points="206.226,-238.258 216.552,-240.631 209.96,-232.337 206.226,-238.258"/>
</g>
<!-- Node3 -->
<g id="node5" class="node"><title>Node3</title>
<a xlink:href="fa_2fa_8h.html" target="_top" xlink:title="include/fa/fa.h">
<polygon fill="none" stroke="red" points="178.846,-120.695 178.846,-143.305 271.154,-143.305 271.154,-120.695 178.846,-120.695"/>
<text text-anchor="middle" x="225" y="-128.305" font-family="Futura" font-size="11.00">include/fa/fa.h</text>
</a>
</g>
<!-- Node1&#45;&gt;Node3 -->
<g id="edge40" class="edge"><title>Node1&#45;&gt;Node3</title>
<path fill="none" stroke="midnightblue" d="M226.354,-230.534C222.313,-205.25 219.857,-163.187 221.649,-143.618"/>
<polygon fill="midnightblue" stroke="midnightblue" points="222.946,-231.352 228.243,-240.528 229.825,-230.052 222.946,-231.352"/>
</g>
<!-- Node7 -->
<g id="node16" class="node"><title>Node7</title>
<a xlink:href="midi_8h.html" target="_top" xlink:title="include/fa/midi.h">
<polygon fill="none" stroke="black" points="414.473,-0.695312 414.473,-23.3047 517.527,-23.3047 517.527,-0.695312 414.473,-0.695312"/>
<text text-anchor="middle" x="466" y="-8.30469" font-family="Futura" font-size="11.00">include/fa/midi.h</text>
</a>
</g>
<!-- Node1&#45;&gt;Node7 -->
<g id="edge42" class="edge"><title>Node1&#45;&gt;Node7</title>
<path fill="none" stroke="midnightblue" d="M296.803,-248.533C397.593,-240.784 591.109,-209.417 678,-84 718.452,-25.6127 592.738,-14.4199 517.752,-12.7842"/>
<polygon fill="midnightblue" stroke="midnightblue" points="296.48,-245.047 286.755,-249.25 296.979,-252.029 296.48,-245.047"/>
</g>
<!-- Node2&#45;&gt;Node3 -->
<g id="edge4" class="edge"><title>Node2&#45;&gt;Node3</title>
<path fill="none" stroke="midnightblue" d="M164.494,-174.778C179.005,-164.758 197.2,-152.195 209.829,-143.475"/>
<polygon fill="midnightblue" stroke="midnightblue" points="162.258,-172.069 156.018,-180.631 166.235,-177.829 162.258,-172.069"/>
</g>
<!-- Node3&#45;&gt;Node1 -->
<g id="edge24" class="edge"><title>Node3&#45;&gt;Node1</title>
<path fill="none" stroke="midnightblue" d="M231.677,-153.656C235.71,-179.023 238.151,-221.071 236.337,-240.528"/>
<polygon fill="midnightblue" stroke="midnightblue" points="235.077,-152.799 229.79,-143.618 228.197,-154.092 235.077,-152.799"/>
</g>
<!-- Node4 -->
<g id="node7" class="node"><title>Node4</title>
<a xlink:href="action_8h.html" target="_top" xlink:title="include/fa/action.h">
<polygon fill="none" stroke="black" points="-0.253906,-0.695312 -0.253906,-23.3047 112.254,-23.3047 112.254,-0.695312 -0.253906,-0.695312"/>
<text text-anchor="middle" x="56" y="-8.30469" font-family="Futura" font-size="11.00">include/fa/action.h</text>
</a>
</g>
<!-- Node3&#45;&gt;Node4 -->
<g id="edge6" class="edge"><title>Node3&#45;&gt;Node4</title>
<path fill="none" stroke="midnightblue" d="M168.844,-125.354C137.554,-119.544 100.099,-107.781 75,-84 57.5907,-67.5045 50.8022,-38.8422 51.4998,-23.4638"/>
<polygon fill="midnightblue" stroke="midnightblue" points="168.318,-128.815 178.763,-127.039 169.49,-121.914 168.318,-128.815"/>
</g>
<!-- Node5 -->
<g id="node11" class="node"><title>Node5</title>
<a xlink:href="buffer_8h.html" target="_top" xlink:title="include/fa/buffer.h">
<polygon fill="none" stroke="red" points="283.227,-60.6953 283.227,-83.3047 394.773,-83.3047 394.773,-60.6953 283.227,-60.6953"/>
<text text-anchor="middle" x="339" y="-68.3047" font-family="Futura" font-size="11.00">include/fa/buffer.h</text>
</a>
</g>
<!-- Node3&#45;&gt;Node5 -->
<g id="edge12" class="edge"><title>Node3&#45;&gt;Node5</title>
<path fill="none" stroke="midnightblue" d="M254.405,-116.04C274.468,-105.832 300.544,-92.5651 318.411,-83.475"/>
<polygon fill="midnightblue" stroke="midnightblue" points="252.707,-112.977 245.381,-120.631 255.881,-119.216 252.707,-112.977"/>
</g>
<!-- Node6 -->
<g id="node13" class="node"><title>Node6</title>
<a xlink:href="device_8h.html" target="_top" xlink:title="include/fa/device.h">
<polygon fill="none" stroke="black" points="554.817,-60.6953 554.817,-83.3047 669.183,-83.3047 669.183,-60.6953 554.817,-60.6953"/>
<text text-anchor="middle" x="612" y="-68.3047" font-family="Futura" font-size="11.00">include/fa/device.h</text>
</a>
</g>
<!-- Node3&#45;&gt;Node6 -->
<g id="edge14" class="edge"><title>Node3&#45;&gt;Node6</title>
<path fill="none" stroke="midnightblue" d="M281.196,-123.115C345.318,-114.038 453.301,-98.5099 546,-84 548.869,-83.5509 551.807,-83.0846 554.774,-82.6088"/>
<polygon fill="midnightblue" stroke="midnightblue" points="280.702,-119.65 271.291,-124.515 281.682,-126.581 280.702,-119.65"/>
</g>
<!-- Node8 -->
<g id="node19" class="node"><title>Node8</title>
<a xlink:href="dynamic_8h.html" target="_top" xlink:title="include/fa/dynamic.h">
<polygon fill="none" stroke="black" points="412.918,-60.6953 412.918,-83.3047 537.082,-83.3047 537.082,-60.6953 412.918,-60.6953"/>
<text text-anchor="middle" x="475" y="-68.3047" font-family="Futura" font-size="11.00">include/fa/dynamic.h</text>
</a>
</g>
<!-- Node3&#45;&gt;Node8 -->
<g id="edge22" class="edge"><title>Node3&#45;&gt;Node8</title>
<path fill="none" stroke="midnightblue" d="M279.61,-118.33C324.759,-107.856 388.085,-93.1642 430.271,-83.3771"/>
<polygon fill="midnightblue" stroke="midnightblue" points="278.645,-114.961 269.695,-120.631 280.227,-121.78 278.645,-114.961"/>
</g>
<!-- Node9 -->
<g id="node22" class="node"><title>Node9</title>
<a xlink:href="list_8h.html" target="_top" xlink:title="include/fa/list.h">
<polygon fill="none" stroke="red" points="93.3855,-60.6953 93.3855,-83.3047 188.615,-83.3047 188.615,-60.6953 93.3855,-60.6953"/>
<text text-anchor="middle" x="141" y="-68.3047" font-family="Futura" font-size="11.00">include/fa/list.h</text>
</a>
</g>
<!-- Node3&#45;&gt;Node9 -->
<g id="edge26" class="edge"><title>Node3&#45;&gt;Node9</title>
<path fill="none" stroke="midnightblue" d="M195.872,-115.098C180.326,-105.101 162.285,-92.4768 151.086,-83.6719"/>
<polygon fill="midnightblue" stroke="midnightblue" points="194.339,-118.268 204.667,-120.631 198.066,-112.343 194.339,-118.268"/>
</g>
<!-- Node10 -->
<g id="node27" class="node"><title>Node10</title>
<a xlink:href="map_8h.html" target="_top" xlink:title="include/fa/map.h">
<polygon fill="none" stroke="red" points="146.914,-0.695312 146.914,-23.3047 251.086,-23.3047 251.086,-0.695312 146.914,-0.695312"/>
<text text-anchor="middle" x="199" y="-8.30469" font-family="Futura" font-size="11.00">include/fa/map.h</text>
</a>
</g>
<!-- Node3&#45;&gt;Node10 -->
<g id="edge38" class="edge"><title>Node3&#45;&gt;Node10</title>
<path fill="none" stroke="midnightblue" d="M220.49,-110.534C214.92,-85.2504 205.651,-43.1873 201.34,-23.6179"/>
<polygon fill="midnightblue" stroke="midnightblue" points="217.123,-111.516 222.693,-120.528 223.959,-110.009 217.123,-111.516"/>
</g>
<!-- Node4&#45;&gt;Node2 -->
<g id="edge8" class="edge"><title>Node4&#45;&gt;Node2</title>
<path fill="none" stroke="midnightblue" d="M55.5999,-33.8931C55.9751,-48.398 57.8029,-67.9267 64,-84 79.396,-123.932 113.385,-162.62 130.589,-180.573"/>
<polygon fill="midnightblue" stroke="midnightblue" points="59.0982,-33.4841 55.5546,-23.4995 52.0983,-33.5147 59.0982,-33.4841"/>
</g>
<!-- Node4&#45;&gt;Node3 -->
<g id="edge10" class="edge"><title>Node4&#45;&gt;Node3</title>
<path fill="none" stroke="midnightblue" d="M66.5052,-33.3474C71.7213,-49.1628 78.8549,-70.5974 93,-84 116.507,-106.273 150.853,-118.004 178.7,-124.175"/>
<polygon fill="midnightblue" stroke="midnightblue" points="69.6759,-31.8007 63.1379,-23.4638 63.0499,-34.0583 69.6759,-31.8007"/>
</g>
<!-- Node6&#45;&gt;Node2 -->
<g id="edge16" class="edge"><title>Node6&#45;&gt;Node2</title>
<path fill="none" stroke="midnightblue" d="M560.686,-85.8556C466.653,-109.414 268.478,-159.063 182.385,-180.632"/>
<polygon fill="midnightblue" stroke="midnightblue" points="561.691,-89.2123 570.54,-83.3869 559.989,-82.4221 561.691,-89.2123"/>
</g>
<!-- Node6&#45;&gt;Node7 -->
<g id="edge18" class="edge"><title>Node6&#45;&gt;Node7</title>
<path fill="none" stroke="midnightblue" d="M576.417,-56.8643C550.467,-46.5553 515.871,-32.8119 492.368,-23.475"/>
<polygon fill="midnightblue" stroke="midnightblue" points="575.312,-60.1915 585.898,-60.6308 577.897,-53.686 575.312,-60.1915"/>
</g>
<!-- Node7&#45;&gt;Node3 -->
<g id="edge20" class="edge"><title>Node7&#45;&gt;Node3</title>
<path fill="none" stroke="midnightblue" d="M404.045,-16.8773C363.979,-21.9603 312.342,-33.5772 274,-60 251.555,-75.4673 236.258,-104.828 229.29,-120.509"/>
<polygon fill="midnightblue" stroke="midnightblue" points="404.7,-20.3248 414.229,-15.6929 403.891,-13.3716 404.7,-20.3248"/>
</g>
<!-- Node9&#45;&gt;Node2 -->
<g id="edge30" class="edge"><title>Node9&#45;&gt;Node2</title>
<path fill="none" stroke="midnightblue" d="M141,-93.6561C141,-119.023 141,-161.071 141,-180.528"/>
<polygon fill="midnightblue" stroke="midnightblue" points="144.5,-93.6178 141,-83.6179 137.5,-93.6179 144.5,-93.6178"/>
</g>
<!-- Node9&#45;&gt;Node3 -->
<g id="edge32" class="edge"><title>Node9&#45;&gt;Node3</title>
<path fill="none" stroke="midnightblue" d="M170.373,-89.0605C186.043,-99.1468 204.189,-111.86 215.298,-120.631"/>
<polygon fill="midnightblue" stroke="midnightblue" points="171.833,-85.8432 161.506,-83.475 168.102,-91.7662 171.833,-85.8432"/>
</g>
<!-- Node9&#45;&gt;Node4 -->
<g id="edge28" class="edge"><title>Node9&#45;&gt;Node4</title>
<path fill="none" stroke="midnightblue" d="M117.226,-54.7779C102.542,-44.7583 84.1305,-32.1949 71.3513,-23.475"/>
<polygon fill="midnightblue" stroke="midnightblue" points="115.571,-57.8854 125.804,-60.6308 119.516,-52.1033 115.571,-57.8854"/>
</g>
<!-- Node9&#45;&gt;Node7 -->
<g id="edge36" class="edge"><title>Node9&#45;&gt;Node7</title>
<path fill="none" stroke="midnightblue" d="M198.839,-60.6779C260.015,-49.7605 355.635,-32.6959 414.354,-22.2168"/>
<polygon fill="midnightblue" stroke="midnightblue" points="198.184,-57.2394 188.955,-62.4419 199.414,-64.1305 198.184,-57.2394"/>
</g>
<!-- Node9&#45;&gt;Node10 -->
<g id="edge34" class="edge"><title>Node9&#45;&gt;Node10</title>
<path fill="none" stroke="midnightblue" d="M158.608,-53.3924C168.302,-43.6976 180.017,-31.9831 188.328,-23.6719"/>
<polygon fill="midnightblue" stroke="midnightblue" points="155.965,-51.0848 151.369,-60.6308 160.915,-56.0345 155.965,-51.0848"/>
</g>
</g>
</svg>
