<?xml version="1.0" encoding="UTF-8" standalone="no"?>
<!DOCTYPE svg PUBLIC "-//W3C//DTD SVG 1.1//EN"
 "http://www.w3.org/Graphics/SVG/1.1/DTD/svg11.dtd">
<!-- Generated by graphviz version 2.28.0 (20121015.0031)
 -->
<!-- Title: include/fa/error.h Pages: 1 -->
<svg width="706pt" height="332pt"
 viewBox="0.00 0.00 706.00 332.00" xmlns="http://www.w3.org/2000/svg" xmlns:xlink="http://www.w3.org/1999/xlink">
<g id="graph1" class="graph" transform="scale(1 1) rotate(0) translate(4 328)">
<title>include/fa/error.h</title>
<!-- Node1 -->
<g id="node1" class="node"><title>Node1</title>
<polygon fill="#bfbfbf" stroke="black" points="220.598,-300.695 220.598,-323.305 327.402,-323.305 327.402,-300.695 220.598,-300.695"/>
<text text-anchor="middle" x="274" y="-308.305" font-family="Futura" font-size="11.00">include/fa/error.h</text>
</g>
<!-- Node2 -->
<g id="node3" class="node"><title>Node2</title>
<a xlink:href="audio_8h.html" target="_top" xlink:title="include/fa/audio.h">
<polygon fill="none" stroke="black" points="126.592,-240.695 126.592,-263.305 237.408,-263.305 237.408,-240.695 126.592,-240.695"/>
<text text-anchor="middle" x="182" y="-248.305" font-family="Futura" font-size="11.00">include/fa/audio.h</text>
</a>
</g>
<!-- Node1&#45;&gt;Node2 -->
<g id="edge2" class="edge"><title>Node1&#45;&gt;Node2</title>
<path fill="none" stroke="midnightblue" d="M248.717,-295.061C232.752,-284.996 212.578,-272.277 198.616,-263.475"/>
<polygon fill="midnightblue" stroke="midnightblue" points="247.226,-298.258 257.552,-300.631 250.96,-292.337 247.226,-298.258"/>
</g>
<!-- Node3 -->
<g id="node5" class="node"><title>Node3</title>
<a xlink:href="fa_2fa_8h.html" target="_top" xlink:title="include/fa/fa.h">
<polygon fill="none" stroke="red" points="227.846,-180.695 227.846,-203.305 320.154,-203.305 320.154,-180.695 227.846,-180.695"/>
<text text-anchor="middle" x="274" y="-188.305" font-family="Futura" font-size="11.00">include/fa/fa.h</text>
</a>
</g>
<!-- Node1&#45;&gt;Node3 -->
<g id="edge42" class="edge"><title>Node1&#45;&gt;Node3</title>
<path fill="none" stroke="midnightblue" d="M268.741,-290.534C266.414,-265.25 266.811,-223.187 269.93,-203.618"/>
<polygon fill="midnightblue" stroke="midnightblue" points="265.275,-291.022 269.953,-300.528 272.224,-290.18 265.275,-291.022"/>
</g>
<!-- Node5 -->
<g id="node11" class="node"><title>Node5</title>
<a xlink:href="midi_8h.html" target="_top" xlink:title="include/fa/midi.h">
<polygon fill="none" stroke="black" points="222.473,-0.695312 222.473,-23.3047 325.527,-23.3047 325.527,-0.695312 222.473,-0.695312"/>
<text text-anchor="middle" x="274" y="-8.30469" font-family="Futura" font-size="11.00">include/fa/midi.h</text>
</a>
</g>
<!-- Node1&#45;&gt;Node5 -->
<g id="edge44" class="edge"><title>Node1&#45;&gt;Node5</title>
<path fill="none" stroke="midnightblue" d="M337.726,-306.532C456.099,-296.471 698,-266.873 698,-193 698,-193 698,-193 698,-131 698,-54.4959 438.564,-25.4772 325.567,-16.4665"/>
<polygon fill="midnightblue" stroke="midnightblue" points="337.377,-303.049 327.7,-307.362 337.955,-310.025 337.377,-303.049"/>
</g>
<!-- Node2&#45;&gt;Node3 -->
<g id="edge4" class="edge"><title>Node2&#45;&gt;Node3</title>
<path fill="none" stroke="midnightblue" d="M207.283,-235.061C223.248,-224.996 243.422,-212.277 257.384,-203.475"/>
<polygon fill="midnightblue" stroke="midnightblue" points="205.04,-232.337 198.448,-240.631 208.774,-238.258 205.04,-232.337"/>
</g>
<!-- Node3&#45;&gt;Node1 -->
<g id="edge26" class="edge"><title>Node3&#45;&gt;Node1</title>
<path fill="none" stroke="midnightblue" d="M279.276,-213.656C281.589,-239.023 281.18,-281.071 278.047,-300.528"/>
<polygon fill="midnightblue" stroke="midnightblue" points="282.738,-213.129 278.07,-203.618 275.788,-213.964 282.738,-213.129"/>
</g>
<!-- Node4 -->
<g id="node7" class="node"><title>Node4</title>
<a xlink:href="action_8h.html" target="_top" xlink:title="include/fa/action.h">
<polygon fill="none" stroke="black" points="132.746,-60.6953 132.746,-83.3047 245.254,-83.3047 245.254,-60.6953 132.746,-60.6953"/>
<text text-anchor="middle" x="189" y="-68.3047" font-family="Futura" font-size="11.00">include/fa/action.h</text>
</a>
</g>
<!-- Node3&#45;&gt;Node4 -->
<g id="edge6" class="edge"><title>Node3&#45;&gt;Node4</title>
<path fill="none" stroke="midnightblue" d="M241.398,-175.147C229.417,-166.94 216.798,-156.106 208,-144 194.134,-124.921 186.014,-98.0479 185.378,-83.4436"/>
<polygon fill="midnightblue" stroke="midnightblue" points="239.641,-178.178 249.946,-180.639 243.425,-172.289 239.641,-178.178"/>
</g>
<!-- Node6 -->
<g id="node14" class="node"><title>Node6</title>
<a xlink:href="buffer_8h.html" target="_top" xlink:title="include/fa/buffer.h">
<polygon fill="none" stroke="red" points="558.227,-120.695 558.227,-143.305 669.773,-143.305 669.773,-120.695 558.227,-120.695"/>
<text text-anchor="middle" x="614" y="-128.305" font-family="Futura" font-size="11.00">include/fa/buffer.h</text>
</a>
</g>
<!-- Node3&#45;&gt;Node6 -->
<g id="edge16" class="edge"><title>Node3&#45;&gt;Node6</title>
<path fill="none" stroke="midnightblue" d="M330.373,-181.383C393.464,-170.621 495.066,-153.289 558.003,-142.552"/>
<polygon fill="midnightblue" stroke="midnightblue" points="329.477,-177.986 320.208,-183.118 330.654,-184.886 329.477,-177.986"/>
</g>
<!-- Node7 -->
<g id="node16" class="node"><title>Node7</title>
<a xlink:href="device_8h.html" target="_top" xlink:title="include/fa/device.h">
<polygon fill="none" stroke="black" points="-0.183105,-120.695 -0.183105,-143.305 114.183,-143.305 114.183,-120.695 -0.183105,-120.695"/>
<text text-anchor="middle" x="57" y="-128.305" font-family="Futura" font-size="11.00">include/fa/device.h</text>
</a>
</g>
<!-- Node3&#45;&gt;Node7 -->
<g id="edge18" class="edge"><title>Node3&#45;&gt;Node7</title>
<path fill="none" stroke="midnightblue" d="M225.109,-177.932C186.026,-167.486 131.98,-153.041 95.8246,-143.377"/>
<polygon fill="midnightblue" stroke="midnightblue" points="224.64,-181.43 235.205,-180.631 226.448,-174.667 224.64,-181.43"/>
</g>
<!-- Node8 -->
<g id="node20" class="node"><title>Node8</title>
<a xlink:href="dynamic_8h.html" target="_top" xlink:title="include/fa/dynamic.h">
<polygon fill="none" stroke="black" points="339.918,-120.695 339.918,-143.305 464.082,-143.305 464.082,-120.695 339.918,-120.695"/>
<text text-anchor="middle" x="402" y="-128.305" font-family="Futura" font-size="11.00">include/fa/dynamic.h</text>
</a>
</g>
<!-- Node3&#45;&gt;Node8 -->
<g id="edge24" class="edge"><title>Node3&#45;&gt;Node8</title>
<path fill="none" stroke="midnightblue" d="M306.102,-176.454C328.747,-166.193 358.55,-152.688 378.883,-143.475"/>
<polygon fill="midnightblue" stroke="midnightblue" points="304.548,-173.315 296.884,-180.631 307.437,-179.691 304.548,-173.315"/>
</g>
<!-- Node9 -->
<g id="node23" class="node"><title>Node9</title>
<a xlink:href="list_8h.html" target="_top" xlink:title="include/fa/list.h">
<polygon fill="none" stroke="red" points="226.385,-120.695 226.385,-143.305 321.615,-143.305 321.615,-120.695 226.385,-120.695"/>
<text text-anchor="middle" x="274" y="-128.305" font-family="Futura" font-size="11.00">include/fa/list.h</text>
</a>
</g>
<!-- Node3&#45;&gt;Node9 -->
<g id="edge28" class="edge"><title>Node3&#45;&gt;Node9</title>
<path fill="none" stroke="midnightblue" d="M267.512,-170.459C266.936,-161.411 267.309,-151.16 268.63,-143.672"/>
<polygon fill="midnightblue" stroke="midnightblue" points="264.062,-171.097 268.684,-180.631 271.016,-170.296 264.062,-171.097"/>
</g>
<!-- Node10 -->
<g id="node28" class="node"><title>Node10</title>
<a xlink:href="map_8h.html" target="_top" xlink:title="include/fa/map.h">
<polygon fill="none" stroke="red" points="349.914,-60.6953 349.914,-83.3047 454.086,-83.3047 454.086,-60.6953 349.914,-60.6953"/>
<text text-anchor="middle" x="402" y="-68.3047" font-family="Futura" font-size="11.00">include/fa/map.h</text>
</a>
</g>
<!-- Node3&#45;&gt;Node10 -->
<g id="edge40" class="edge"><title>Node3&#45;&gt;Node10</title>
<path fill="none" stroke="midnightblue" d="M330.61,-185.391C383.048,-178.887 455.498,-166.118 473,-144 491.606,-120.488 453.16,-96.5196 425.926,-83.3219"/>
<polygon fill="midnightblue" stroke="midnightblue" points="329.926,-181.947 320.411,-186.609 330.756,-188.898 329.926,-181.947"/>
</g>
<!-- Node4&#45;&gt;Node2 -->
<g id="edge8" class="edge"><title>Node4&#45;&gt;Node2</title>
<path fill="none" stroke="midnightblue" d="M188.183,-93.78C186.68,-132.001 183.528,-212.15 182.407,-240.661"/>
<polygon fill="midnightblue" stroke="midnightblue" points="191.697,-93.4978 188.592,-83.368 184.702,-93.2227 191.697,-93.4978"/>
</g>
<!-- Node4&#45;&gt;Node3 -->
<g id="edge10" class="edge"><title>Node4&#45;&gt;Node3</title>
<path fill="none" stroke="midnightblue" d="M201.268,-92.8202C207.261,-107.851 214.734,-128.498 226,-144 236.858,-158.941 253.536,-171.944 264.449,-180.463"/>
<polygon fill="midnightblue" stroke="midnightblue" points="204.428,-91.3063 197.327,-83.4436 197.975,-94.0186 204.428,-91.3063"/>
</g>
<!-- Node4&#45;&gt;Node5 -->
<g id="edge12" class="edge"><title>Node4&#45;&gt;Node5</title>
<path fill="none" stroke="midnightblue" d="M212.774,-54.7779C227.458,-44.7583 245.87,-32.1949 258.649,-23.475"/>
<polygon fill="midnightblue" stroke="midnightblue" points="210.484,-52.1033 204.196,-60.6308 214.429,-57.8854 210.484,-52.1033"/>
</g>
<!-- Node5&#45;&gt;Node3 -->
<g id="edge14" class="edge"><title>Node5&#45;&gt;Node3</title>
<path fill="none" stroke="midnightblue" d="M335.592,-14.7861C375.895,-18.9504 427.473,-30.3281 463,-60 476.514,-71.2872 509.658,-119.605 490,-144 469.111,-169.923 377.322,-182.297 320.331,-187.579"/>
<polygon fill="midnightblue" stroke="midnightblue" points="335.882,-11.2981 325.606,-13.876 335.247,-18.2692 335.882,-11.2981"/>
</g>
<!-- Node7&#45;&gt;Node2 -->
<g id="edge20" class="edge"><title>Node7&#45;&gt;Node2</title>
<path fill="none" stroke="midnightblue" d="M74.0322,-150.702C88.2135,-165.277 109.073,-186.339 128,-204 141.812,-216.888 158.26,-231.041 169.344,-240.413"/>
<polygon fill="midnightblue" stroke="midnightblue" points="76.3673,-148.082 66.8954,-143.335 71.3396,-152.953 76.3673,-148.082"/>
</g>
<!-- Node7&#45;&gt;Node5 -->
<g id="edge22" class="edge"><title>Node7&#45;&gt;Node5</title>
<path fill="none" stroke="midnightblue" d="M70.2018,-112.358C82.4503,-96.3437 102.057,-73.727 124,-60 153.961,-41.2572 191.994,-29.4498 222.266,-22.3574"/>
<polygon fill="midnightblue" stroke="midnightblue" points="67.3269,-110.359 64.1859,-120.478 72.9514,-114.527 67.3269,-110.359"/>
</g>
<!-- Node9&#45;&gt;Node2 -->
<g id="edge32" class="edge"><title>Node9&#45;&gt;Node2</title>
<path fill="none" stroke="midnightblue" d="M250.565,-149.737C240.047,-158.027 228.009,-168.677 219,-180 203.596,-199.362 191.725,-226.124 185.922,-240.635"/>
<polygon fill="midnightblue" stroke="midnightblue" points="252.752,-152.471 258.586,-143.627 248.51,-146.902 252.752,-152.471"/>
</g>
<!-- Node9&#45;&gt;Node3 -->
<g id="edge34" class="edge"><title>Node9&#45;&gt;Node3</title>
<path fill="none" stroke="midnightblue" d="M280.492,-153.611C281.069,-162.764 280.677,-173.137 279.316,-180.631"/>
<polygon fill="midnightblue" stroke="midnightblue" points="283.97,-153.216 279.37,-143.672 277.014,-154.001 283.97,-153.216"/>
</g>
<!-- Node9&#45;&gt;Node4 -->
<g id="edge30" class="edge"><title>Node9&#45;&gt;Node4</title>
<path fill="none" stroke="midnightblue" d="M250.226,-114.778C235.542,-104.758 217.13,-92.1949 204.351,-83.475"/>
<polygon fill="midnightblue" stroke="midnightblue" points="248.571,-117.885 258.804,-120.631 252.516,-112.103 248.571,-117.885"/>
</g>
<!-- Node9&#45;&gt;Node5 -->
<g id="edge38" class="edge"><title>Node9&#45;&gt;Node5</title>
<path fill="none" stroke="midnightblue" d="M274,-110.192C274,-84.8736 274,-43.0995 274,-23.6179"/>
<polygon fill="midnightblue" stroke="midnightblue" points="270.5,-110.528 274,-120.528 277.5,-110.528 270.5,-110.528"/>
</g>
<!-- Node9&#45;&gt;Node10 -->
<g id="edge36" class="edge"><title>Node9&#45;&gt;Node10</title>
<path fill="none" stroke="midnightblue" d="M306.102,-116.454C328.747,-106.193 358.55,-92.6885 378.883,-83.475"/>
<polygon fill="midnightblue" stroke="midnightblue" points="304.548,-113.315 296.884,-120.631 307.437,-119.691 304.548,-113.315"/>
</g>
</g>
</svg>
