<?xml version="1.0" encoding="UTF-8" standalone="no"?>
<!DOCTYPE svg PUBLIC "-//W3C//DTD SVG 1.1//EN"
 "http://www.w3.org/Graphics/SVG/1.1/DTD/svg11.dtd">
<!-- Generated by graphviz version 2.28.0 (20121015.0031)
 -->
<!-- Title: include/fae/error.h Pages: 1 -->
<svg width="666pt" height="286pt"
 viewBox="0.00 0.00 666.00 286.00" xmlns="http://www.w3.org/2000/svg" xmlns:xlink="http://www.w3.org/1999/xlink">
<g id="graph1" class="graph" transform="scale(1 1) rotate(0) translate(4 282)">
<title>include/fae/error.h</title>
<!-- Node1 -->
<g id="node1" class="node"><title>Node1</title>
<polygon fill="#bfbfbf" stroke="black" points="224.555,-254.695 224.555,-277.305 337.445,-277.305 337.445,-254.695 224.555,-254.695"/>
<text text-anchor="middle" x="281" y="-262.305" font-family="Futura" font-size="11.00">include/fae/error.h</text>
</g>
<!-- Node2 -->
<g id="node3" class="node"><title>Node2</title>
<a xlink:href="audio_8h.html" target="_top" xlink:title="include/fae/audio.h">
<polygon fill="none" stroke="black" points="-0.450684,-194.695 -0.450684,-217.305 116.451,-217.305 116.451,-194.695 -0.450684,-194.695"/>
<text text-anchor="middle" x="58" y="-202.305" font-family="Futura" font-size="11.00">include/fae/audio.h</text>
</a>
</g>
<!-- Node1&#45;&gt;Node2 -->
<g id="edge2" class="edge"><title>Node1&#45;&gt;Node2</title>
<path fill="none" stroke="midnightblue" d="M231.269,-252.066C191.067,-241.609 135.212,-227.082 97.8981,-217.377"/>
<polygon fill="midnightblue" stroke="midnightblue" points="230.573,-255.501 241.132,-254.631 232.335,-248.726 230.573,-255.501"/>
</g>
<!-- Node3 -->
<g id="node5" class="node"><title>Node3</title>
<a xlink:href="fae_2fae_8h.html" target="_top" xlink:title="include/fae/fae.h">
<polygon fill="none" stroke="red" points="224.761,-127.695 224.761,-150.305 329.239,-150.305 329.239,-127.695 224.761,-127.695"/>
<text text-anchor="middle" x="277" y="-135.305" font-family="Futura" font-size="11.00">include/fae/fae.h</text>
</a>
</g>
<!-- Node1&#45;&gt;Node3 -->
<g id="edge18" class="edge"><title>Node1&#45;&gt;Node3</title>
<path fill="none" stroke="midnightblue" d="M275.182,-244.433C271.861,-217.524 270.778,-171.365 273.365,-150.63"/>
<polygon fill="midnightblue" stroke="midnightblue" points="271.725,-244.978 276.679,-254.343 278.646,-243.932 271.725,-244.978"/>
</g>
<!-- Node7 -->
<g id="node17" class="node"><title>Node7</title>
<a xlink:href="midi_8h.html" target="_top" xlink:title="include/fae/midi.h">
<polygon fill="none" stroke="red" points="134.43,-194.695 134.43,-217.305 243.57,-217.305 243.57,-194.695 134.43,-194.695"/>
<text text-anchor="middle" x="189" y="-202.305" font-family="Futura" font-size="11.00">include/fae/midi.h</text>
</a>
</g>
<!-- Node1&#45;&gt;Node7 -->
<g id="edge20" class="edge"><title>Node1&#45;&gt;Node7</title>
<path fill="none" stroke="midnightblue" d="M255.717,-249.061C239.752,-238.996 219.578,-226.277 205.616,-217.475"/>
<polygon fill="midnightblue" stroke="midnightblue" points="254.226,-252.258 264.552,-254.631 257.96,-246.337 254.226,-252.258"/>
</g>
<!-- Node8 -->
<g id="node21" class="node"><title>Node8</title>
<a xlink:href="buffer_8c.html" target="_top" xlink:title="src/fae/buffer.c">
<polygon fill="none" stroke="black" points="318.431,-194.695 318.431,-217.305 413.569,-217.305 413.569,-194.695 318.431,-194.695"/>
<text text-anchor="middle" x="366" y="-202.305" font-family="Futura" font-size="11.00">src/fae/buffer.c</text>
</a>
</g>
<!-- Node1&#45;&gt;Node8 -->
<g id="edge26" class="edge"><title>Node1&#45;&gt;Node8</title>
<path fill="none" stroke="midnightblue" d="M304.774,-248.778C319.458,-238.758 337.87,-226.195 350.649,-217.475"/>
<polygon fill="midnightblue" stroke="midnightblue" points="302.484,-246.103 296.196,-254.631 306.429,-251.885 302.484,-246.103"/>
</g>
<!-- Node9 -->
<g id="node23" class="node"><title>Node9</title>
<a xlink:href="file_8c.html" target="_top" xlink:title="src/fae/device/file.c">
<polygon fill="none" stroke="black" points="431.84,-194.695 431.84,-217.305 550.16,-217.305 550.16,-194.695 431.84,-194.695"/>
<text text-anchor="middle" x="491" y="-202.305" font-family="Futura" font-size="11.00">src/fae/device/file.c</text>
</a>
</g>
<!-- Node1&#45;&gt;Node9 -->
<g id="edge28" class="edge"><title>Node1&#45;&gt;Node9</title>
<path fill="none" stroke="midnightblue" d="M328.314,-251.932C366.136,-241.486 418.438,-227.041 453.428,-217.377"/>
<polygon fill="midnightblue" stroke="midnightblue" points="327.251,-248.595 318.544,-254.631 329.115,-255.342 327.251,-248.595"/>
</g>
<!-- Node10 -->
<g id="node25" class="node"><title>Node10</title>
<a xlink:href="error_8c.html" target="_top" xlink:title="src/fae/error.c">
<polygon fill="none" stroke="black" points="567.802,-194.695 567.802,-217.305 658.198,-217.305 658.198,-194.695 567.802,-194.695"/>
<text text-anchor="middle" x="613" y="-202.305" font-family="Futura" font-size="11.00">src/fae/error.c</text>
</a>
</g>
<!-- Node1&#45;&gt;Node10 -->
<g id="edge30" class="edge"><title>Node1&#45;&gt;Node10</title>
<path fill="none" stroke="midnightblue" d="M347.748,-254.359C404.132,-245.216 486.971,-231.421 559,-218 561.822,-217.474 564.724,-216.921 567.648,-216.353"/>
<polygon fill="midnightblue" stroke="midnightblue" points="346.85,-250.958 337.537,-256.011 347.967,-257.869 346.85,-250.958"/>
</g>
<!-- Node2&#45;&gt;Node3 -->
<g id="edge4" class="edge"><title>Node2&#45;&gt;Node3</title>
<path fill="none" stroke="midnightblue" d="M102.987,-191.648C144.273,-179.394 204.575,-161.496 242.263,-150.31"/>
<polygon fill="midnightblue" stroke="midnightblue" points="101.777,-188.356 93.1861,-194.557 103.769,-195.067 101.777,-188.356"/>
</g>
<!-- Node5 -->
<g id="node10" class="node"><title>Node5</title>
<a xlink:href="audio_8c.html" target="_top" xlink:title="src/fae/audio.c">
<polygon fill="none" stroke="black" points="119.796,-0.695312 119.796,-23.3047 214.204,-23.3047 214.204,-0.695312 119.796,-0.695312"/>
<text text-anchor="middle" x="167" y="-8.30469" font-family="Futura" font-size="11.00">src/fae/audio.c</text>
</a>
</g>
<!-- Node2&#45;&gt;Node5 -->
<g id="edge14" class="edge"><title>Node2&#45;&gt;Node5</title>
<path fill="none" stroke="midnightblue" d="M59.8263,-184.391C62.0393,-166.584 66.8272,-140.552 77,-120 97.0285,-79.536 135.463,-41.3867 154.985,-23.5492"/>
<polygon fill="midnightblue" stroke="midnightblue" points="56.3255,-184.211 58.7345,-194.528 63.2853,-184.961 56.3255,-184.211"/>
</g>
<!-- Node6 -->
<g id="node14" class="node"><title>Node6</title>
<a xlink:href="device_8c.html" target="_top" xlink:title="src/platform/macosx\l/fae/device.c">
<polygon fill="none" stroke="black" points="85.5969,-120.391 85.5969,-157.609 206.403,-157.609 206.403,-120.391 85.5969,-120.391"/>
<text text-anchor="start" x="93.5969" y="-142.609" font-family="Futura" font-size="11.00">src/platform/macosx</text>
<text text-anchor="middle" x="146" y="-128" font-family="Futura" font-size="11.00">/fae/device.c</text>
</a>
</g>
<!-- Node2&#45;&gt;Node6 -->
<g id="edge16" class="edge"><title>Node2&#45;&gt;Node6</title>
<path fill="none" stroke="midnightblue" d="M80.345,-188.495C93.0478,-179.112 108.958,-167.36 121.935,-157.775"/>
<polygon fill="midnightblue" stroke="midnightblue" points="78.1029,-185.8 72.1387,-194.557 82.2619,-191.431 78.1029,-185.8"/>
</g>
<!-- Node3&#45;&gt;Node1 -->
<g id="edge12" class="edge"><title>Node3&#45;&gt;Node1</title>
<path fill="none" stroke="midnightblue" d="M282.813,-160.532C286.137,-187.424 287.222,-233.586 284.639,-254.343"/>
<polygon fill="midnightblue" stroke="midnightblue" points="286.272,-159.995 281.316,-150.63 279.351,-161.041 286.272,-159.995"/>
</g>
<!-- Node4 -->
<g id="node7" class="node"><title>Node4</title>
<a xlink:href="atomic_8h.html" target="_top" xlink:title="include/fae/atomic.h">
<polygon fill="none" stroke="red" points="216.331,-60.6953 216.331,-83.3047 337.669,-83.3047 337.669,-60.6953 216.331,-60.6953"/>
<text text-anchor="middle" x="277" y="-68.3047" font-family="Futura" font-size="11.00">include/fae/atomic.h</text>
</a>
</g>
<!-- Node3&#45;&gt;Node4 -->
<g id="edge6" class="edge"><title>Node3&#45;&gt;Node4</title>
<path fill="none" stroke="midnightblue" d="M270.663,-117.314C269.845,-106.109 270.242,-92.7368 271.851,-83.6334"/>
<polygon fill="midnightblue" stroke="midnightblue" points="267.225,-118.042 271.885,-127.557 274.176,-117.212 267.225,-118.042"/>
</g>
<!-- Node4&#45;&gt;Node3 -->
<g id="edge8" class="edge"><title>Node4&#45;&gt;Node3</title>
<path fill="none" stroke="midnightblue" d="M283.328,-93.571C284.163,-104.877 283.758,-118.419 282.115,-127.557"/>
<polygon fill="midnightblue" stroke="midnightblue" points="286.803,-93.151 282.149,-83.6334 279.852,-93.9763 286.803,-93.151"/>
</g>
<!-- Node4&#45;&gt;Node5 -->
<g id="edge10" class="edge"><title>Node4&#45;&gt;Node5</title>
<path fill="none" stroke="midnightblue" d="M248.364,-55.901C229.04,-45.7119 204.028,-32.524 186.866,-23.475"/>
<polygon fill="midnightblue" stroke="midnightblue" points="246.856,-59.0626 257.334,-60.6308 250.121,-52.8706 246.856,-59.0626"/>
</g>
<!-- Node7&#45;&gt;Node3 -->
<g id="edge22" class="edge"><title>Node7&#45;&gt;Node3</title>
<path fill="none" stroke="midnightblue" d="M211.526,-188.362C227.719,-176.401 249.053,-160.643 262.896,-150.417"/>
<polygon fill="midnightblue" stroke="midnightblue" points="209.103,-185.8 203.139,-194.557 213.262,-191.431 209.103,-185.8"/>
</g>
<!-- Node7&#45;&gt;Node6 -->
<g id="edge24" class="edge"><title>Node7&#45;&gt;Node6</title>
<path fill="none" stroke="midnightblue" d="M176.437,-186.009C170.54,-177.095 163.551,-166.531 157.759,-157.775"/>
<polygon fill="midnightblue" stroke="midnightblue" points="173.655,-188.148 182.091,-194.557 179.493,-184.285 173.655,-188.148"/>
</g>
</g>
</svg>
