<?xml version="1.0" encoding="UTF-8" standalone="no"?>
<!DOCTYPE svg PUBLIC "-//W3C//DTD SVG 1.1//EN"
 "http://www.w3.org/Graphics/SVG/1.1/DTD/svg11.dtd">
<!-- Generated by graphviz version 2.28.0 (20121015.0031)
 -->
<!-- Title: include/fae/error.h Pages: 1 -->
<svg width="660pt" height="300pt"
 viewBox="0.00 0.00 660.00 300.00" xmlns="http://www.w3.org/2000/svg" xmlns:xlink="http://www.w3.org/1999/xlink">
<g id="graph1" class="graph" transform="scale(1 1) rotate(0) translate(4 296)">
<title>include/fae/error.h</title>
<!-- Node1 -->
<g id="node1" class="node"><title>Node1</title>
<polygon fill="#bfbfbf" stroke="black" points="218.555,-268.695 218.555,-291.305 331.445,-291.305 331.445,-268.695 218.555,-268.695"/>
<text text-anchor="middle" x="275" y="-276.305" font-family="Futura" font-size="11.00">include/fae/error.h</text>
</g>
<!-- Node2 -->
<g id="node3" class="node"><title>Node2</title>
<a xlink:href="audio_8h.html" target="_top" xlink:title="include/fae/device\l/audio.h">
<polygon fill="none" stroke="black" points="-0.512695,-194.391 -0.512695,-231.609 110.513,-231.609 110.513,-194.391 -0.512695,-194.391"/>
<text text-anchor="start" x="7.4873" y="-216.609" font-family="Futura" font-size="11.00">include/fae/device</text>
<text text-anchor="middle" x="55" y="-202" font-family="Futura" font-size="11.00">/audio.h</text>
</a>
</g>
<!-- Node1&#45;&gt;Node2 -->
<g id="edge2" class="edge"><title>Node1&#45;&gt;Node2</title>
<path fill="none" stroke="midnightblue" d="M229.858,-265.663C195.399,-255.481 147.73,-241.398 110.866,-230.506"/>
<polygon fill="midnightblue" stroke="midnightblue" points="229.071,-269.08 239.653,-268.557 231.055,-262.367 229.071,-269.08"/>
</g>
<!-- Node3 -->
<g id="node5" class="node"><title>Node3</title>
<a xlink:href="fae_2fae_8h.html" target="_top" xlink:title="include/fae/fae.h">
<polygon fill="none" stroke="red" points="221.761,-127.695 221.761,-150.305 326.239,-150.305 326.239,-127.695 221.761,-127.695"/>
<text text-anchor="middle" x="274" y="-135.305" font-family="Futura" font-size="11.00">include/fae/fae.h</text>
</a>
</g>
<!-- Node1&#45;&gt;Node3 -->
<g id="edge18" class="edge"><title>Node1&#45;&gt;Node3</title>
<path fill="none" stroke="midnightblue" d="M269.884,-258.354C266.948,-228.282 266.946,-173.523 270.284,-150.569"/>
<polygon fill="midnightblue" stroke="midnightblue" points="266.445,-259.061 271.151,-268.552 273.391,-258.197 266.445,-259.061"/>
</g>
<!-- Node7 -->
<g id="node17" class="node"><title>Node7</title>
<a xlink:href="midi_8h.html" target="_top" xlink:title="include/fae/midi.h">
<polygon fill="none" stroke="red" points="128.43,-201.695 128.43,-224.305 237.57,-224.305 237.57,-201.695 128.43,-201.695"/>
<text text-anchor="middle" x="183" y="-209.305" font-family="Futura" font-size="11.00">include/fae/midi.h</text>
</a>
</g>
<!-- Node1&#45;&gt;Node7 -->
<g id="edge20" class="edge"><title>Node1&#45;&gt;Node7</title>
<path fill="none" stroke="midnightblue" d="M251.919,-262.693C234.935,-250.693 212.351,-234.737 197.745,-224.417"/>
<polygon fill="midnightblue" stroke="midnightblue" points="250.032,-265.645 260.219,-268.557 254.071,-259.928 250.032,-265.645"/>
</g>
<!-- Node8 -->
<g id="node21" class="node"><title>Node8</title>
<a xlink:href="buffer_8c.html" target="_top" xlink:title="src/fae/buffer.c">
<polygon fill="none" stroke="black" points="312.431,-201.695 312.431,-224.305 407.569,-224.305 407.569,-201.695 312.431,-201.695"/>
<text text-anchor="middle" x="360" y="-209.305" font-family="Futura" font-size="11.00">src/fae/buffer.c</text>
</a>
</g>
<!-- Node1&#45;&gt;Node8 -->
<g id="edge26" class="edge"><title>Node1&#45;&gt;Node8</title>
<path fill="none" stroke="midnightblue" d="M296.758,-262.362C312.399,-250.401 333.006,-234.643 346.377,-224.417"/>
<polygon fill="midnightblue" stroke="midnightblue" points="294.474,-259.702 288.657,-268.557 298.726,-265.262 294.474,-259.702"/>
</g>
<!-- Node9 -->
<g id="node23" class="node"><title>Node9</title>
<a xlink:href="file_8c.html" target="_top" xlink:title="src/fae/device/file.c">
<polygon fill="none" stroke="black" points="425.84,-201.695 425.84,-224.305 544.16,-224.305 544.16,-201.695 425.84,-201.695"/>
<text text-anchor="middle" x="485" y="-209.305" font-family="Futura" font-size="11.00">src/fae/device/file.c</text>
</a>
</g>
<!-- Node1&#45;&gt;Node9 -->
<g id="edge28" class="edge"><title>Node1&#45;&gt;Node9</title>
<path fill="none" stroke="midnightblue" d="M318.39,-265.57C357.972,-253.318 415.628,-235.472 451.69,-224.31"/>
<polygon fill="midnightblue" stroke="midnightblue" points="317.258,-262.256 308.74,-268.557 319.328,-268.943 317.258,-262.256"/>
</g>
<!-- Node10 -->
<g id="node25" class="node"><title>Node10</title>
<a xlink:href="error_8c.html" target="_top" xlink:title="src/fae/error.c">
<polygon fill="none" stroke="black" points="561.802,-201.695 561.802,-224.305 652.198,-224.305 652.198,-201.695 561.802,-201.695"/>
<text text-anchor="middle" x="607" y="-209.305" font-family="Futura" font-size="11.00">src/fae/error.c</text>
</a>
</g>
<!-- Node1&#45;&gt;Node10 -->
<g id="edge30" class="edge"><title>Node1&#45;&gt;Node10</title>
<path fill="none" stroke="midnightblue" d="M341.616,-270.681C398.308,-262.902 481.653,-249.809 553,-232 561.437,-229.894 570.455,-227.109 578.657,-224.36"/>
<polygon fill="midnightblue" stroke="midnightblue" points="341.14,-267.213 331.701,-272.024 342.08,-274.15 341.14,-267.213"/>
</g>
<!-- Node2&#45;&gt;Node3 -->
<g id="edge4" class="edge"><title>Node2&#45;&gt;Node3</title>
<path fill="none" stroke="midnightblue" d="M118.167,-191.233C158.965,-177.82 210.284,-160.948 242.626,-150.315"/>
<polygon fill="midnightblue" stroke="midnightblue" points="116.98,-187.939 108.573,-194.387 119.166,-194.588 116.98,-187.939"/>
</g>
<!-- Node5 -->
<g id="node10" class="node"><title>Node5</title>
<a xlink:href="audio_8c.html" target="_top" xlink:title="src/fae/device/audio.c">
<polygon fill="none" stroke="black" points="97.9036,-0.695312 97.9036,-23.3047 230.096,-23.3047 230.096,-0.695312 97.9036,-0.695312"/>
<text text-anchor="middle" x="164" y="-8.30469" font-family="Futura" font-size="11.00">src/fae/device/audio.c</text>
</a>
</g>
<!-- Node2&#45;&gt;Node5 -->
<g id="edge14" class="edge"><title>Node2&#45;&gt;Node5</title>
<path fill="none" stroke="midnightblue" d="M57.1432,-184.179C59.4445,-165.307 64.1991,-140.213 74,-120 93.6989,-79.3745 132.283,-41.2984 151.911,-23.513"/>
<polygon fill="midnightblue" stroke="midnightblue" points="53.6526,-183.906 56.0763,-194.219 60.6134,-184.645 53.6526,-183.906"/>
</g>
<!-- Node6 -->
<g id="node14" class="node"><title>Node6</title>
<a xlink:href="device_8c.html" target="_top" xlink:title="src/platform/macosx\l/fae/device.c">
<polygon fill="none" stroke="black" points="82.5969,-120.391 82.5969,-157.609 203.403,-157.609 203.403,-120.391 82.5969,-120.391"/>
<text text-anchor="start" x="90.5969" y="-142.609" font-family="Futura" font-size="11.00">src/platform/macosx</text>
<text text-anchor="middle" x="143" y="-128" font-family="Futura" font-size="11.00">/fae/device.c</text>
</a>
</g>
<!-- Node2&#45;&gt;Node6 -->
<g id="edge16" class="edge"><title>Node2&#45;&gt;Node6</title>
<path fill="none" stroke="midnightblue" d="M84.7203,-187.683C96.6648,-177.911 110.184,-166.849 121.192,-157.843"/>
<polygon fill="midnightblue" stroke="midnightblue" points="82.2761,-185.161 76.7528,-194.202 86.7088,-190.579 82.2761,-185.161"/>
</g>
<!-- Node3&#45;&gt;Node1 -->
<g id="edge12" class="edge"><title>Node3&#45;&gt;Node1</title>
<path fill="none" stroke="midnightblue" d="M279.132,-160.806C282.057,-190.964 282.048,-245.711 278.698,-268.552"/>
<polygon fill="midnightblue" stroke="midnightblue" points="282.567,-160.065 277.868,-150.569 275.62,-160.922 282.567,-160.065"/>
</g>
<!-- Node4 -->
<g id="node7" class="node"><title>Node4</title>
<a xlink:href="atomic_8h.html" target="_top" xlink:title="include/fae/atomic.h">
<polygon fill="none" stroke="red" points="213.331,-60.6953 213.331,-83.3047 334.669,-83.3047 334.669,-60.6953 213.331,-60.6953"/>
<text text-anchor="middle" x="274" y="-68.3047" font-family="Futura" font-size="11.00">include/fae/atomic.h</text>
</a>
</g>
<!-- Node3&#45;&gt;Node4 -->
<g id="edge6" class="edge"><title>Node3&#45;&gt;Node4</title>
<path fill="none" stroke="midnightblue" d="M267.663,-117.314C266.845,-106.109 267.242,-92.7368 268.851,-83.6334"/>
<polygon fill="midnightblue" stroke="midnightblue" points="264.225,-118.042 268.885,-127.557 271.176,-117.212 264.225,-118.042"/>
</g>
<!-- Node4&#45;&gt;Node3 -->
<g id="edge8" class="edge"><title>Node4&#45;&gt;Node3</title>
<path fill="none" stroke="midnightblue" d="M280.328,-93.571C281.163,-104.877 280.758,-118.419 279.115,-127.557"/>
<polygon fill="midnightblue" stroke="midnightblue" points="283.803,-93.151 279.149,-83.6334 276.852,-93.9763 283.803,-93.151"/>
</g>
<!-- Node4&#45;&gt;Node5 -->
<g id="edge10" class="edge"><title>Node4&#45;&gt;Node5</title>
<path fill="none" stroke="midnightblue" d="M245.364,-55.901C226.04,-45.7119 201.028,-32.524 183.866,-23.475"/>
<polygon fill="midnightblue" stroke="midnightblue" points="243.856,-59.0626 254.334,-60.6308 247.121,-52.8706 243.856,-59.0626"/>
</g>
<!-- Node7&#45;&gt;Node3 -->
<g id="edge22" class="edge"><title>Node7&#45;&gt;Node3</title>
<path fill="none" stroke="midnightblue" d="M203.989,-195.393C221.456,-181.573 245.792,-162.318 260.69,-150.531"/>
<polygon fill="midnightblue" stroke="midnightblue" points="201.709,-192.735 196.038,-201.684 206.052,-198.224 201.709,-192.735"/>
</g>
<!-- Node7&#45;&gt;Node6 -->
<g id="edge24" class="edge"><title>Node7&#45;&gt;Node6</title>
<path fill="none" stroke="midnightblue" d="M172.229,-192.613C166.211,-181.78 158.764,-168.375 152.893,-157.808"/>
<polygon fill="midnightblue" stroke="midnightblue" points="169.353,-194.642 177.269,-201.684 175.472,-191.243 169.353,-194.642"/>
</g>
</g>
</svg>
