<?xml version="1.0" encoding="UTF-8" standalone="no"?>
<!DOCTYPE svg PUBLIC "-//W3C//DTD SVG 1.1//EN"
 "http://www.w3.org/Graphics/SVG/1.1/DTD/svg11.dtd">
<!-- Generated by graphviz version 2.28.0 (20121015.0031)
 -->
<!-- Title: include/fae/error.h Pages: 1 -->
<svg width="862pt" height="212pt"
 viewBox="0.00 0.00 862.00 212.00" xmlns="http://www.w3.org/2000/svg" xmlns:xlink="http://www.w3.org/1999/xlink">
<g id="graph1" class="graph" transform="scale(1 1) rotate(0) translate(4 208)">
<title>include/fae/error.h</title>
<!-- Node1 -->
<g id="node1" class="node"><title>Node1</title>
<polygon fill="#bfbfbf" stroke="black" points="505.555,-180.695 505.555,-203.305 618.445,-203.305 618.445,-180.695 505.555,-180.695"/>
<text text-anchor="middle" x="562" y="-188.305" font-family="Futura" font-size="11.00">include/fae/error.h</text>
</g>
<!-- Node2 -->
<g id="node3" class="node"><title>Node2</title>
<a xlink:href="fae_2fae_8h.html" target="_top" xlink:title="fae.h">
<polygon fill="none" stroke="red" points="541.23,-120.695 541.23,-143.305 582.77,-143.305 582.77,-120.695 541.23,-120.695"/>
<text text-anchor="middle" x="562" y="-128.305" font-family="Futura" font-size="11.00">fae.h</text>
</a>
</g>
<!-- Node1&#45;&gt;Node2 -->
<g id="edge2" class="edge"><title>Node1&#45;&gt;Node2</title>
<path fill="none" stroke="midnightblue" d="M556.684,-180.631C555.323,-173.137 554.931,-162.764 555.508,-153.611"/>
<polygon fill="midnightblue" stroke="midnightblue" points="558.986,-154.001 556.63,-143.672 552.03,-153.216 558.986,-154.001"/>
</g>
<!-- Node10 -->
<g id="node22" class="node"><title>Node10</title>
<a xlink:href="string_8h.html" target="_top" xlink:title="fae/string.h">
<polygon fill="none" stroke="black" points="779.827,-0.695312 779.827,-23.3047 854.173,-23.3047 854.173,-0.695312 779.827,-0.695312"/>
<text text-anchor="middle" x="817" y="-8.30469" font-family="Futura" font-size="11.00">fae/string.h</text>
</a>
</g>
<!-- Node1&#45;&gt;Node10 -->
<g id="edge28" class="edge"><title>Node1&#45;&gt;Node10</title>
<path fill="none" stroke="midnightblue" d="M618.517,-185.26C679.482,-175.713 773.748,-150.458 818,-84 827.786,-69.3027 826.309,-48.8254 823.108,-33.637"/>
<polygon fill="midnightblue" stroke="midnightblue" points="826.436,-32.5191 820.609,-23.6705 819.646,-34.2214 826.436,-32.5191"/>
</g>
<!-- Node2&#45;&gt;Node1 -->
<g id="edge16" class="edge"><title>Node2&#45;&gt;Node1</title>
<path fill="none" stroke="midnightblue" d="M567.37,-143.672C568.691,-151.16 569.064,-161.411 568.488,-170.459"/>
<polygon fill="midnightblue" stroke="midnightblue" points="564.984,-170.296 567.316,-180.631 571.938,-171.097 564.984,-170.296"/>
</g>
<!-- Node3 -->
<g id="node5" class="node"><title>Node3</title>
<a xlink:href="atomic_8h.html" target="_top" xlink:title="fae/atomic.h">
<polygon fill="none" stroke="red" points="-0.105713,-60.6953 -0.105713,-83.3047 80.1057,-83.3047 80.1057,-60.6953 -0.105713,-60.6953"/>
<text text-anchor="middle" x="40" y="-68.3047" font-family="Futura" font-size="11.00">fae/atomic.h</text>
</a>
</g>
<!-- Node2&#45;&gt;Node3 -->
<g id="edge4" class="edge"><title>Node2&#45;&gt;Node3</title>
<path fill="none" stroke="midnightblue" d="M540.775,-129.991C474.174,-126.335 265.028,-112.559 87.0652,-84.9164"/>
<polygon fill="midnightblue" stroke="midnightblue" points="87.4289,-81.4307 77.0064,-83.3337 86.3408,-88.3456 87.4289,-81.4307"/>
</g>
<!-- Node4 -->
<g id="node8" class="node"><title>Node4</title>
<polygon fill="none" stroke="#bfbfbf" points="98.6057,-60.6953 98.6057,-83.3047 215.394,-83.3047 215.394,-60.6953 98.6057,-60.6953"/>
<text text-anchor="middle" x="157" y="-68.3047" font-family="Futura" font-size="11.00">fae/atomic/queue.h</text>
</g>
<!-- Node2&#45;&gt;Node4 -->
<g id="edge8" class="edge"><title>Node2&#45;&gt;Node4</title>
<path fill="none" stroke="midnightblue" d="M541.01,-128.264C489.283,-121.482 351.323,-103.16 225.635,-84.223"/>
<polygon fill="midnightblue" stroke="midnightblue" points="225.863,-80.7178 215.452,-82.6834 224.816,-87.6392 225.863,-80.7178"/>
</g>
<!-- Node5 -->
<g id="node10" class="node"><title>Node5</title>
<a xlink:href="stack_8h.html" target="_top" xlink:title="fae/atomic/stack.h">
<polygon fill="none" stroke="red" points="233.377,-60.6953 233.377,-83.3047 344.623,-83.3047 344.623,-60.6953 233.377,-60.6953"/>
<text text-anchor="middle" x="289" y="-68.3047" font-family="Futura" font-size="11.00">fae/atomic/stack.h</text>
</a>
</g>
<!-- Node2&#45;&gt;Node5 -->
<g id="edge10" class="edge"><title>Node2&#45;&gt;Node5</title>
<path fill="none" stroke="midnightblue" d="M541.031,-126.545C500.109,-117.851 408.301,-98.3459 347.524,-85.4337"/>
<polygon fill="midnightblue" stroke="midnightblue" points="348.186,-81.9962 337.677,-83.3415 346.731,-88.8434 348.186,-81.9962"/>
</g>
<!-- Node6 -->
<g id="node12" class="node"><title>Node6</title>
<polygon fill="none" stroke="#bfbfbf" points="362.483,-60.6953 362.483,-83.3047 503.517,-83.3047 503.517,-60.6953 362.483,-60.6953"/>
<text text-anchor="middle" x="433" y="-68.3047" font-family="Futura" font-size="11.00">fae/atomic/ring_buffer.h</text>
</g>
<!-- Node2&#45;&gt;Node6 -->
<g id="edge12" class="edge"><title>Node2&#45;&gt;Node6</title>
<path fill="none" stroke="midnightblue" d="M540.987,-121.552C520.531,-112.355 489.152,-98.2464 465.481,-87.6038"/>
<polygon fill="midnightblue" stroke="midnightblue" points="466.741,-84.3327 456.185,-83.4242 463.87,-90.7171 466.741,-84.3327"/>
</g>
<!-- Node7 -->
<g id="node14" class="node"><title>Node7</title>
<a xlink:href="system_8h.html" target="_top" xlink:title="fae/system.h">
<polygon fill="none" stroke="red" points="521.983,-60.6953 521.983,-83.3047 602.017,-83.3047 602.017,-60.6953 521.983,-60.6953"/>
<text text-anchor="middle" x="562" y="-68.3047" font-family="Futura" font-size="11.00">fae/system.h</text>
</a>
</g>
<!-- Node2&#45;&gt;Node7 -->
<g id="edge14" class="edge"><title>Node2&#45;&gt;Node7</title>
<path fill="none" stroke="midnightblue" d="M562,-120.631C562,-113.218 562,-102.989 562,-93.9096"/>
<polygon fill="midnightblue" stroke="midnightblue" points="565.5,-93.6718 562,-83.6719 558.5,-93.6719 565.5,-93.6718"/>
</g>
<!-- Node8 -->
<g id="node17" class="node"><title>Node8</title>
<polygon fill="none" stroke="#bfbfbf" points="620.2,-60.6953 620.2,-83.3047 693.8,-83.3047 693.8,-60.6953 620.2,-60.6953"/>
<text text-anchor="middle" x="657" y="-68.3047" font-family="Futura" font-size="11.00">fae/event.h</text>
</g>
<!-- Node2&#45;&gt;Node8 -->
<g id="edge18" class="edge"><title>Node2&#45;&gt;Node8</title>
<path fill="none" stroke="midnightblue" d="M578.984,-120.631C593.484,-111.778 614.563,-98.9089 631.156,-88.7784"/>
<polygon fill="midnightblue" stroke="midnightblue" points="633.131,-91.6732 639.843,-83.475 629.484,-85.6987 633.131,-91.6732"/>
</g>
<!-- Node9 -->
<g id="node19" class="node"><title>Node9</title>
<a xlink:href="graph_8h.html" target="_top" xlink:title="fae/graph.h">
<polygon fill="none" stroke="red" points="711.457,-60.6953 711.457,-83.3047 788.543,-83.3047 788.543,-60.6953 711.457,-60.6953"/>
<text text-anchor="middle" x="750" y="-68.3047" font-family="Futura" font-size="11.00">fae/graph.h</text>
</a>
</g>
<!-- Node2&#45;&gt;Node9 -->
<g id="edge20" class="edge"><title>Node2&#45;&gt;Node9</title>
<path fill="none" stroke="midnightblue" d="M582.93,-123.057C611.463,-113.573 663.016,-97.5707 701.401,-86.2139"/>
<polygon fill="midnightblue" stroke="midnightblue" points="702.743,-89.4674 711.35,-83.2886 700.768,-82.7517 702.743,-89.4674"/>
</g>
<!-- Node3&#45;&gt;Node2 -->
<g id="edge6" class="edge"><title>Node3&#45;&gt;Node2</title>
<path fill="none" stroke="midnightblue" d="M80.1898,-80.4897C86.5194,-81.792 92.9435,-83.0356 99,-84 260.615,-109.733 455.743,-123.837 530.754,-128.859"/>
<polygon fill="midnightblue" stroke="midnightblue" points="530.722,-132.365 540.931,-129.535 531.185,-125.38 530.722,-132.365"/>
</g>
<!-- Node9&#45;&gt;Node2 -->
<g id="edge22" class="edge"><title>Node9&#45;&gt;Node2</title>
<path fill="none" stroke="midnightblue" d="M721.851,-83.3214C687.215,-94.6445 628.925,-112.581 593.027,-122.923"/>
<polygon fill="midnightblue" stroke="midnightblue" points="591.755,-119.646 583.096,-125.751 593.672,-126.379 591.755,-119.646"/>
</g>
<!-- Node9&#45;&gt;Node10 -->
<g id="edge24" class="edge"><title>Node9&#45;&gt;Node10</title>
<path fill="none" stroke="midnightblue" d="M761.978,-60.6308C771.671,-52.2405 785.531,-40.242 796.915,-30.3869"/>
<polygon fill="midnightblue" stroke="midnightblue" points="799.402,-32.8631 804.672,-23.6719 794.821,-27.5707 799.402,-32.8631"/>
</g>
<!-- Node10&#45;&gt;Node2 -->
<g id="edge26" class="edge"><title>Node10&#45;&gt;Node2</title>
<path fill="none" stroke="midnightblue" d="M817.24,-23.3992C816.997,-38.9611 814.104,-68.1675 797,-84 767.67,-111.15 650.012,-124.02 593.118,-128.752"/>
<polygon fill="midnightblue" stroke="midnightblue" points="592.604,-125.282 582.914,-129.568 593.162,-132.26 592.604,-125.282"/>
</g>
</g>
</svg>
