<?xml version="1.0" encoding="UTF-8" standalone="no"?>
<!DOCTYPE svg PUBLIC "-//W3C//DTD SVG 1.1//EN"
 "http://www.w3.org/Graphics/SVG/1.1/DTD/svg11.dtd">
<!-- Generated by graphviz version 2.28.0 (20121015.0031)
 -->
<!-- Title: include/fa/error.h Pages: 1 -->
<svg width="679pt" height="332pt"
 viewBox="0.00 0.00 679.23 332.00" xmlns="http://www.w3.org/2000/svg" xmlns:xlink="http://www.w3.org/1999/xlink">
<g id="graph1" class="graph" transform="scale(1 1) rotate(0) translate(4 328)">
<title>include/fa/error.h</title>
<!-- Node1 -->
<g id="node1" class="node"><title>Node1</title>
<polygon fill="#bfbfbf" stroke="black" points="194.829,-300.695 194.829,-323.305 301.633,-323.305 301.633,-300.695 194.829,-300.695"/>
<text text-anchor="middle" x="248.231" y="-308.305" font-family="Futura" font-size="11.00">include/fa/error.h</text>
</g>
<!-- Node2 -->
<g id="node3" class="node"><title>Node2</title>
<a xlink:href="audio_8h.html" target="_top" xlink:title="include/fa/audio.h">
<polygon fill="none" stroke="black" points="100.823,-240.695 100.823,-263.305 211.639,-263.305 211.639,-240.695 100.823,-240.695"/>
<text text-anchor="middle" x="156.231" y="-248.305" font-family="Futura" font-size="11.00">include/fa/audio.h</text>
</a>
</g>
<!-- Node1&#45;&gt;Node2 -->
<g id="edge2" class="edge"><title>Node1&#45;&gt;Node2</title>
<path fill="none" stroke="midnightblue" d="M222.948,-295.061C206.983,-284.996 186.809,-272.277 172.847,-263.475"/>
<polygon fill="midnightblue" stroke="midnightblue" points="221.458,-298.258 231.783,-300.631 225.191,-292.337 221.458,-298.258"/>
</g>
<!-- Node3 -->
<g id="node5" class="node"><title>Node3</title>
<a xlink:href="fa_2fa_8h.html" target="_top" xlink:title="include/fa/fa.h">
<polygon fill="none" stroke="red" points="202.078,-180.695 202.078,-203.305 294.385,-203.305 294.385,-180.695 202.078,-180.695"/>
<text text-anchor="middle" x="248.231" y="-188.305" font-family="Futura" font-size="11.00">include/fa/fa.h</text>
</a>
</g>
<!-- Node1&#45;&gt;Node3 -->
<g id="edge40" class="edge"><title>Node1&#45;&gt;Node3</title>
<path fill="none" stroke="midnightblue" d="M242.972,-290.534C240.646,-265.25 241.042,-223.187 244.161,-203.618"/>
<polygon fill="midnightblue" stroke="midnightblue" points="239.506,-291.022 244.184,-300.528 246.455,-290.18 239.506,-291.022"/>
</g>
<!-- Node5 -->
<g id="node11" class="node"><title>Node5</title>
<a xlink:href="midi_8h.html" target="_top" xlink:title="include/fa/midi.h">
<polygon fill="none" stroke="black" points="404.704,-0.695312 404.704,-23.3047 507.759,-23.3047 507.759,-0.695312 404.704,-0.695312"/>
<text text-anchor="middle" x="456.231" y="-8.30469" font-family="Futura" font-size="11.00">include/fa/midi.h</text>
</a>
</g>
<!-- Node1&#45;&gt;Node5 -->
<g id="edge42" class="edge"><title>Node1&#45;&gt;Node5</title>
<path fill="none" stroke="midnightblue" d="M311.807,-306.503C429.9,-296.392 671.231,-266.712 671.231,-193 671.231,-193 671.231,-193 671.231,-131 671.231,-56.8067 571.621,-28.945 508.003,-18.7164"/>
<polygon fill="midnightblue" stroke="midnightblue" points="311.479,-303.018 301.804,-307.338 312.061,-309.994 311.479,-303.018"/>
</g>
<!-- Node2&#45;&gt;Node3 -->
<g id="edge4" class="edge"><title>Node2&#45;&gt;Node3</title>
<path fill="none" stroke="midnightblue" d="M181.514,-235.061C197.479,-224.996 217.654,-212.277 231.616,-203.475"/>
<polygon fill="midnightblue" stroke="midnightblue" points="179.272,-232.337 172.679,-240.631 183.005,-238.258 179.272,-232.337"/>
</g>
<!-- Node3&#45;&gt;Node1 -->
<g id="edge24" class="edge"><title>Node3&#45;&gt;Node1</title>
<path fill="none" stroke="midnightblue" d="M253.507,-213.656C255.821,-239.023 255.411,-281.071 252.278,-300.528"/>
<polygon fill="midnightblue" stroke="midnightblue" points="256.969,-213.129 252.302,-203.618 250.019,-213.964 256.969,-213.129"/>
</g>
<!-- Node4 -->
<g id="node7" class="node"><title>Node4</title>
<a xlink:href="action_8h.html" target="_top" xlink:title="include/fa/action.h">
<polygon fill="none" stroke="black" points="106.977,-60.6953 106.977,-83.3047 219.485,-83.3047 219.485,-60.6953 106.977,-60.6953"/>
<text text-anchor="middle" x="163.231" y="-68.3047" font-family="Futura" font-size="11.00">include/fa/action.h</text>
</a>
</g>
<!-- Node3&#45;&gt;Node4 -->
<g id="edge6" class="edge"><title>Node3&#45;&gt;Node4</title>
<path fill="none" stroke="midnightblue" d="M215.63,-175.147C203.648,-166.94 191.029,-156.106 182.231,-144 168.365,-124.921 160.245,-98.0479 159.609,-83.4436"/>
<polygon fill="midnightblue" stroke="midnightblue" points="213.872,-178.178 224.178,-180.639 217.656,-172.289 213.872,-178.178"/>
</g>
<!-- Node6 -->
<g id="node14" class="node"><title>Node6</title>
<a xlink:href="buffer_8h.html" target="_top" xlink:title="include/fa/buffer.h">
<polygon fill="none" stroke="red" points="313.458,-120.695 313.458,-143.305 425.004,-143.305 425.004,-120.695 313.458,-120.695"/>
<text text-anchor="middle" x="369.231" y="-128.305" font-family="Futura" font-size="11.00">include/fa/buffer.h</text>
</a>
</g>
<!-- Node3&#45;&gt;Node6 -->
<g id="edge16" class="edge"><title>Node3&#45;&gt;Node6</title>
<path fill="none" stroke="midnightblue" d="M279.153,-176.178C300.486,-165.952 328.329,-152.606 347.378,-143.475"/>
<polygon fill="midnightblue" stroke="midnightblue" points="277.368,-173.152 269.864,-180.631 280.394,-179.464 277.368,-173.152"/>
</g>
<!-- Node7 -->
<g id="node16" class="node"><title>Node7</title>
<a xlink:href="clock_8h.html" target="_top" xlink:title="include/fa/clock.h">
<polygon fill="none" stroke="black" points="18.209,-120.695 18.209,-143.305 126.253,-143.305 126.253,-120.695 18.209,-120.695"/>
<text text-anchor="middle" x="72.2312" y="-128.305" font-family="Futura" font-size="11.00">include/fa/clock.h</text>
</a>
</g>
<!-- Node3&#45;&gt;Node7 -->
<g id="edge18" class="edge"><title>Node3&#45;&gt;Node7</title>
<path fill="none" stroke="midnightblue" d="M206.949,-177.396C175.391,-166.996 132.546,-152.876 103.72,-143.377"/>
<polygon fill="midnightblue" stroke="midnightblue" points="206.173,-180.825 216.766,-180.631 208.364,-174.177 206.173,-180.825"/>
</g>
<!-- Node8 -->
<g id="node19" class="node"><title>Node8</title>
<a xlink:href="dynamic_8h.html" target="_top" xlink:title="include/fa/dynamic.h">
<polygon fill="none" stroke="black" points="481.15,-120.695 481.15,-143.305 605.313,-143.305 605.313,-120.695 481.15,-120.695"/>
<text text-anchor="middle" x="543.231" y="-128.305" font-family="Futura" font-size="11.00">include/fa/dynamic.h</text>
</a>
</g>
<!-- Node3&#45;&gt;Node8 -->
<g id="edge22" class="edge"><title>Node3&#45;&gt;Node8</title>
<path fill="none" stroke="midnightblue" d="M304.674,-179.903C358.296,-169.36 438.292,-153.632 490.613,-143.345"/>
<polygon fill="midnightblue" stroke="midnightblue" points="303.786,-176.51 294.649,-181.874 305.137,-183.379 303.786,-176.51"/>
</g>
<!-- Node9 -->
<g id="node22" class="node"><title>Node9</title>
<a xlink:href="list_8h.html" target="_top" xlink:title="include/fa/list.h">
<polygon fill="none" stroke="red" points="200.617,-120.695 200.617,-143.305 295.846,-143.305 295.846,-120.695 200.617,-120.695"/>
<text text-anchor="middle" x="248.231" y="-128.305" font-family="Futura" font-size="11.00">include/fa/list.h</text>
</a>
</g>
<!-- Node3&#45;&gt;Node9 -->
<g id="edge26" class="edge"><title>Node3&#45;&gt;Node9</title>
<path fill="none" stroke="midnightblue" d="M241.743,-170.459C241.168,-161.411 241.54,-151.16 242.861,-143.672"/>
<polygon fill="midnightblue" stroke="midnightblue" points="238.293,-171.097 242.915,-180.631 245.247,-170.296 238.293,-171.097"/>
</g>
<!-- Node10 -->
<g id="node27" class="node"><title>Node10</title>
<a xlink:href="map_8h.html" target="_top" xlink:title="include/fa/map.h">
<polygon fill="none" stroke="red" points="339.145,-60.6953 339.145,-83.3047 443.317,-83.3047 443.317,-60.6953 339.145,-60.6953"/>
<text text-anchor="middle" x="391.231" y="-68.3047" font-family="Futura" font-size="11.00">include/fa/map.h</text>
</a>
</g>
<!-- Node3&#45;&gt;Node10 -->
<g id="edge38" class="edge"><title>Node3&#45;&gt;Node10</title>
<path fill="none" stroke="midnightblue" d="M304.557,-184.289C352.99,-177.223 417.467,-164.27 433.231,-144 448.793,-123.99 422.758,-97.709 405.208,-83.3943"/>
<polygon fill="midnightblue" stroke="midnightblue" points="303.903,-180.846 294.489,-185.708 304.88,-187.778 303.903,-180.846"/>
</g>
<!-- Node4&#45;&gt;Node2 -->
<g id="edge8" class="edge"><title>Node4&#45;&gt;Node2</title>
<path fill="none" stroke="midnightblue" d="M96.6437,-75.7573C64.8114,-80.8458 29.3427,-92.8348 9.23118,-120 -29.9239,-172.888 72.9253,-220.309 126.357,-240.58"/>
<polygon fill="midnightblue" stroke="midnightblue" points="97.4063,-79.1849 106.827,-74.3371 96.4393,-72.252 97.4063,-79.1849"/>
</g>
<!-- Node4&#45;&gt;Node3 -->
<g id="edge10" class="edge"><title>Node4&#45;&gt;Node3</title>
<path fill="none" stroke="midnightblue" d="M175.499,-92.8202C181.492,-107.851 188.965,-128.498 200.231,-144 211.089,-158.941 227.767,-171.944 238.68,-180.463"/>
<polygon fill="midnightblue" stroke="midnightblue" points="178.659,-91.3063 171.558,-83.4436 172.206,-94.0186 178.659,-91.3063"/>
</g>
<!-- Node4&#45;&gt;Node5 -->
<g id="edge12" class="edge"><title>Node4&#45;&gt;Node5</title>
<path fill="none" stroke="midnightblue" d="M225.605,-58.6529C278.792,-48.1246 354.354,-33.1668 404.302,-23.2795"/>
<polygon fill="midnightblue" stroke="midnightblue" points="224.744,-55.2555 215.614,-60.6308 226.103,-62.1222 224.744,-55.2555"/>
</g>
<!-- Node5&#45;&gt;Node3 -->
<g id="edge14" class="edge"><title>Node5&#45;&gt;Node3</title>
<path fill="none" stroke="midnightblue" d="M497.663,-26.8312C557.736,-48.9894 657.373,-94.9636 614.231,-144 593.417,-167.658 388.409,-182.713 294.628,-188.414"/>
<polygon fill="midnightblue" stroke="midnightblue" points="498.624,-23.457 488.029,-23.3555 496.248,-30.0416 498.624,-23.457"/>
</g>
<!-- Node7&#45;&gt;Node2 -->
<g id="edge20" class="edge"><title>Node7&#45;&gt;Node2</title>
<path fill="none" stroke="midnightblue" d="M85.7391,-151.975C103.643,-177.126 134.616,-220.635 148.777,-240.528"/>
<polygon fill="midnightblue" stroke="midnightblue" points="88.4403,-149.735 79.7897,-143.618 82.7377,-153.794 88.4403,-149.735"/>
</g>
<!-- Node9&#45;&gt;Node2 -->
<g id="edge30" class="edge"><title>Node9&#45;&gt;Node2</title>
<path fill="none" stroke="midnightblue" d="M224.796,-149.737C214.278,-158.027 202.24,-168.677 193.231,-180 177.828,-199.362 165.957,-226.124 160.153,-240.635"/>
<polygon fill="midnightblue" stroke="midnightblue" points="226.983,-152.471 232.817,-143.627 222.741,-146.902 226.983,-152.471"/>
</g>
<!-- Node9&#45;&gt;Node3 -->
<g id="edge32" class="edge"><title>Node9&#45;&gt;Node3</title>
<path fill="none" stroke="midnightblue" d="M254.724,-153.611C255.301,-162.764 254.908,-173.137 253.547,-180.631"/>
<polygon fill="midnightblue" stroke="midnightblue" points="258.201,-153.216 253.601,-143.672 251.246,-154.001 258.201,-153.216"/>
</g>
<!-- Node9&#45;&gt;Node4 -->
<g id="edge28" class="edge"><title>Node9&#45;&gt;Node4</title>
<path fill="none" stroke="midnightblue" d="M224.457,-114.778C209.773,-104.758 191.362,-92.1949 178.582,-83.475"/>
<polygon fill="midnightblue" stroke="midnightblue" points="222.802,-117.885 233.035,-120.631 226.747,-112.103 222.802,-117.885"/>
</g>
<!-- Node9&#45;&gt;Node5 -->
<g id="edge36" class="edge"><title>Node9&#45;&gt;Node5</title>
<path fill="none" stroke="midnightblue" d="M265.251,-112.992C280.911,-97.2702 305.405,-74.7244 330.231,-60 357.843,-43.6237 392.143,-31.2803 417.981,-23.3619"/>
<polygon fill="midnightblue" stroke="midnightblue" points="262.391,-110.913 257.913,-120.515 267.401,-115.801 262.391,-110.913"/>
</g>
<!-- Node9&#45;&gt;Node10 -->
<g id="edge34" class="edge"><title>Node9&#45;&gt;Node10</title>
<path fill="none" stroke="midnightblue" d="M283.083,-116.864C308.5,-106.555 342.385,-92.8119 365.405,-83.475"/>
<polygon fill="midnightblue" stroke="midnightblue" points="281.748,-113.629 273.797,-120.631 284.379,-120.116 281.748,-113.629"/>
</g>
</g>
</svg>
