<?xml version="1.0" encoding="UTF-8" standalone="no"?>
<!DOCTYPE svg PUBLIC "-//W3C//DTD SVG 1.1//EN"
 "http://www.w3.org/Graphics/SVG/1.1/DTD/svg11.dtd">
<!-- Generated by graphviz version 2.28.0 (20121015.0031)
 -->
<!-- Title: src/fae/error.c Pages: 1 -->
<svg width="648pt" height="212pt"
 viewBox="0.00 0.00 648.00 212.00" xmlns="http://www.w3.org/2000/svg" xmlns:xlink="http://www.w3.org/1999/xlink">
<g id="graph1" class="graph" transform="scale(1 1) rotate(0) translate(4 208)">
<title>src/fae/error.c</title>
<!-- Node1 -->
<g id="node1" class="node"><title>Node1</title>
<polygon fill="#bfbfbf" stroke="black" points="82.8025,-180.695 82.8025,-203.305 173.198,-203.305 173.198,-180.695 82.8025,-180.695"/>
<text text-anchor="middle" x="128" y="-188.305" font-family="Futura" font-size="11.00">src/fae/error.c</text>
</g>
<!-- Node2 -->
<g id="node3" class="node"><title>Node2</title>
<polygon fill="none" stroke="#bfbfbf" points="-0.769775,-120.695 -0.769775,-143.305 40.7698,-143.305 40.7698,-120.695 -0.769775,-120.695"/>
<text text-anchor="middle" x="20" y="-128.305" font-family="Futura" font-size="11.00">fae.h</text>
</g>
<!-- Node1&#45;&gt;Node2 -->
<g id="edge2" class="edge"><title>Node1&#45;&gt;Node2</title>
<path fill="none" stroke="midnightblue" d="M108.692,-180.631C91.9024,-171.614 67.354,-158.431 48.3378,-148.218"/>
<polygon fill="midnightblue" stroke="midnightblue" points="49.9711,-145.123 39.5052,-143.475 46.6592,-151.29 49.9711,-145.123"/>
</g>
<!-- Node3 -->
<g id="node5" class="node"><title>Node3</title>
<a xlink:href="string_8h.html" target="_top" xlink:title="fae/string.h">
<polygon fill="none" stroke="black" points="58.8269,-120.695 58.8269,-143.305 133.173,-143.305 133.173,-120.695 58.8269,-120.695"/>
<text text-anchor="middle" x="96" y="-128.305" font-family="Futura" font-size="11.00">fae/string.h</text>
</a>
</g>
<!-- Node1&#45;&gt;Node3 -->
<g id="edge4" class="edge"><title>Node1&#45;&gt;Node3</title>
<path fill="none" stroke="midnightblue" d="M122.279,-180.631C118.009,-172.892 112.046,-162.084 106.88,-152.719"/>
<polygon fill="midnightblue" stroke="midnightblue" points="109.783,-150.737 101.888,-143.672 103.654,-154.118 109.783,-150.737"/>
</g>
<!-- Node5 -->
<g id="node9" class="node"><title>Node5</title>
<a xlink:href="error_8h.html" target="_top" xlink:title="fae/error.h">
<polygon fill="none" stroke="black" points="62.1187,-0.695312 62.1187,-23.3047 133.881,-23.3047 133.881,-0.695312 62.1187,-0.695312"/>
<text text-anchor="middle" x="98" y="-8.30469" font-family="Futura" font-size="11.00">fae/error.h</text>
</a>
</g>
<!-- Node1&#45;&gt;Node5 -->
<g id="edge14" class="edge"><title>Node1&#45;&gt;Node5</title>
<path fill="none" stroke="midnightblue" d="M132.661,-180.42C138.181,-166.552 146.134,-141.466 142,-120 135.803,-87.8195 119.632,-53.1949 108.718,-32.3136"/>
<polygon fill="midnightblue" stroke="midnightblue" points="111.798,-30.6511 103.989,-23.491 105.629,-33.9582 111.798,-30.6511"/>
</g>
<!-- Node6 -->
<g id="node14" class="node"><title>Node6</title>
<a xlink:href="util_8h.html" target="_top" xlink:title="fae/util.h">
<polygon fill="none" stroke="red" points="317.141,-120.695 317.141,-143.305 378.859,-143.305 378.859,-120.695 317.141,-120.695"/>
<text text-anchor="middle" x="348" y="-128.305" font-family="Futura" font-size="11.00">fae/util.h</text>
</a>
</g>
<!-- Node1&#45;&gt;Node6 -->
<g id="edge16" class="edge"><title>Node1&#45;&gt;Node6</title>
<path fill="none" stroke="midnightblue" d="M167.332,-180.631C206.754,-170.238 267.177,-154.308 307.134,-143.774"/>
<polygon fill="midnightblue" stroke="midnightblue" points="308.049,-147.152 316.826,-141.219 306.264,-140.384 308.049,-147.152"/>
</g>
<!-- Node4 -->
<g id="node7" class="node"><title>Node4</title>
<a xlink:href="fae_2fae_8h.html" target="_top" xlink:title="fae.h">
<polygon fill="none" stroke="red" points="53.2302,-60.6953 53.2302,-83.3047 94.7698,-83.3047 94.7698,-60.6953 53.2302,-60.6953"/>
<text text-anchor="middle" x="74" y="-68.3047" font-family="Futura" font-size="11.00">fae.h</text>
</a>
</g>
<!-- Node3&#45;&gt;Node4 -->
<g id="edge6" class="edge"><title>Node3&#45;&gt;Node4</title>
<path fill="none" stroke="midnightblue" d="M92.0668,-120.631C89.1933,-113.055 85.204,-102.538 81.7048,-93.3126"/>
<polygon fill="midnightblue" stroke="midnightblue" points="84.867,-91.7805 78.048,-83.6719 78.3221,-94.2632 84.867,-91.7805"/>
</g>
<!-- Node4&#45;&gt;Node5 -->
<g id="edge8" class="edge"><title>Node4&#45;&gt;Node5</title>
<path fill="none" stroke="midnightblue" d="M72.9748,-60.6308C74.7714,-52.8921 78.8713,-42.0841 83.4074,-32.7193"/>
<polygon fill="midnightblue" stroke="midnightblue" points="86.6132,-34.1451 88.214,-23.6719 80.4314,-30.8609 86.6132,-34.1451"/>
</g>
<!-- Node5&#45;&gt;Node3 -->
<g id="edge12" class="edge"><title>Node5&#45;&gt;Node3</title>
<path fill="none" stroke="midnightblue" d="M99.6992,-23.5872C101.707,-37.4633 104.588,-62.5577 103,-84 102.348,-92.8095 101.016,-102.472 99.6881,-110.733"/>
<polygon fill="midnightblue" stroke="midnightblue" points="96.2373,-110.149 98.0014,-120.596 103.137,-111.329 96.2373,-110.149"/>
</g>
<!-- Node5&#45;&gt;Node4 -->
<g id="edge10" class="edge"><title>Node5&#45;&gt;Node4</title>
<path fill="none" stroke="midnightblue" d="M98.9541,-23.6719C97.0981,-31.4894 92.9629,-42.3178 88.4159,-51.6443"/>
<polygon fill="midnightblue" stroke="midnightblue" points="85.2393,-50.1625 83.6066,-60.6308 91.411,-53.4655 85.2393,-50.1625"/>
</g>
<!-- Node7 -->
<g id="node16" class="node"><title>Node7</title>
<a xlink:href="arch_8h.html" target="_top" xlink:title="fae/util/arch.h">
<polygon fill="none" stroke="black" points="189.205,-60.6953 189.205,-83.3047 278.795,-83.3047 278.795,-60.6953 189.205,-60.6953"/>
<text text-anchor="middle" x="234" y="-68.3047" font-family="Futura" font-size="11.00">fae/util/arch.h</text>
</a>
</g>
<!-- Node6&#45;&gt;Node7 -->
<g id="edge18" class="edge"><title>Node6&#45;&gt;Node7</title>
<path fill="none" stroke="midnightblue" d="M327.619,-120.631C309.816,-111.573 283.749,-98.3109 263.639,-88.0794"/>
<polygon fill="midnightblue" stroke="midnightblue" points="265.089,-84.8902 254.589,-83.475 261.915,-91.1291 265.089,-84.8902"/>
</g>
<!-- Node8 -->
<g id="node18" class="node"><title>Node8</title>
<a xlink:href="alignof_8h.html" target="_top" xlink:title="fae/util/alignof.h">
<polygon fill="none" stroke="black" points="297.007,-60.6953 297.007,-83.3047 398.993,-83.3047 398.993,-60.6953 297.007,-60.6953"/>
<text text-anchor="middle" x="348" y="-68.3047" font-family="Futura" font-size="11.00">fae/util/alignof.h</text>
</a>
</g>
<!-- Node6&#45;&gt;Node8 -->
<g id="edge20" class="edge"><title>Node6&#45;&gt;Node8</title>
<path fill="none" stroke="midnightblue" d="M348,-120.631C348,-113.218 348,-102.989 348,-93.9096"/>
<polygon fill="midnightblue" stroke="midnightblue" points="351.5,-93.6718 348,-83.6719 344.5,-93.6719 351.5,-93.6718"/>
</g>
<!-- Node9 -->
<g id="node20" class="node"><title>Node9</title>
<a xlink:href="minmax_8h.html" target="_top" xlink:title="fae/util/minmax.h">
<polygon fill="none" stroke="red" points="416.837,-60.6953 416.837,-83.3047 523.163,-83.3047 523.163,-60.6953 416.837,-60.6953"/>
<text text-anchor="middle" x="470" y="-68.3047" font-family="Futura" font-size="11.00">fae/util/minmax.h</text>
</a>
</g>
<!-- Node6&#45;&gt;Node9 -->
<g id="edge22" class="edge"><title>Node6&#45;&gt;Node9</title>
<path fill="none" stroke="midnightblue" d="M369.811,-120.631C389.036,-111.491 417.265,-98.0705 438.864,-87.8023"/>
<polygon fill="midnightblue" stroke="midnightblue" points="440.438,-90.9296 447.966,-83.475 437.432,-84.6077 440.438,-90.9296"/>
</g>
<!-- Node10 -->
<g id="node22" class="node"><title>Node10</title>
<a xlink:href="literals_8h.html" target="_top" xlink:title="fae/util/literals.h">
<polygon fill="none" stroke="red" points="541.038,-60.6953 541.038,-83.3047 640.962,-83.3047 640.962,-60.6953 541.038,-60.6953"/>
<text text-anchor="middle" x="591" y="-68.3047" font-family="Futura" font-size="11.00">fae/util/literals.h</text>
</a>
</g>
<!-- Node6&#45;&gt;Node10 -->
<g id="edge24" class="edge"><title>Node6&#45;&gt;Node10</title>
<path fill="none" stroke="midnightblue" d="M379.271,-123.536C419.241,-113.996 489.058,-97.3318 537.542,-85.7596"/>
<polygon fill="midnightblue" stroke="midnightblue" points="538.631,-89.0979 547.546,-83.3719 537.006,-82.2892 538.631,-89.0979"/>
</g>
</g>
</svg>
