<?xml version="1.0" encoding="UTF-8" standalone="no"?>
<!DOCTYPE svg PUBLIC "-//W3C//DTD SVG 1.1//EN"
 "http://www.w3.org/Graphics/SVG/1.1/DTD/svg11.dtd">
<!-- Generated by graphviz version 2.28.0 (20121015.0031)
 -->
<!-- Title: include/fae/system/event.h Pages: 1 -->
<svg width="705pt" height="300pt"
 viewBox="0.00 0.00 704.99 300.00" xmlns="http://www.w3.org/2000/svg" xmlns:xlink="http://www.w3.org/1999/xlink">
<g id="graph1" class="graph" transform="scale(1 1) rotate(0) translate(4 296)">
<title>include/fae/system/event.h</title>
<!-- Node1 -->
<g id="node1" class="node"><title>Node1</title>
<polygon fill="#bfbfbf" stroke="black" points="529.133,-254.391 529.133,-291.609 640.867,-291.609 640.867,-254.391 529.133,-254.391"/>
<text text-anchor="start" x="537.133" y="-276.609" font-family="Futura" font-size="11.00">include/fae/system</text>
<text text-anchor="middle" x="585" y="-262" font-family="Futura" font-size="11.00">/event.h</text>
</g>
<!-- Node2 -->
<g id="node3" class="node"><title>Node2</title>
<a xlink:href="system_8h.html" target="_top" xlink:title="include/fae/system.h">
<polygon fill="none" stroke="black" points="478.42,-194.695 478.42,-217.305 599.58,-217.305 599.58,-194.695 478.42,-194.695"/>
<text text-anchor="middle" x="539" y="-202.305" font-family="Futura" font-size="11.00">include/fae/system.h</text>
</a>
</g>
<!-- Node1&#45;&gt;Node2 -->
<g id="edge2" class="edge"><title>Node1&#45;&gt;Node2</title>
<path fill="none" stroke="midnightblue" d="M566.504,-245.864C559.512,-235.985 551.943,-225.289 546.519,-217.624"/>
<polygon fill="midnightblue" stroke="midnightblue" points="563.797,-248.098 572.43,-254.238 569.511,-244.054 563.797,-248.098"/>
</g>
<!-- Node5 -->
<g id="node10" class="node"><title>Node5</title>
<a xlink:href="event_8c.html" target="_top" xlink:title="src/platform/macosx\l/fae/system/event.c">
<polygon fill="none" stroke="black" points="319.597,-0.390625 319.597,-37.6094 440.403,-37.6094 440.403,-0.390625 319.597,-0.390625"/>
<text text-anchor="start" x="327.597" y="-22.6094" font-family="Futura" font-size="11.00">src/platform/macosx</text>
<text text-anchor="middle" x="380" y="-8" font-family="Futura" font-size="11.00">/fae/system/event.c</text>
</a>
</g>
<!-- Node1&#45;&gt;Node5 -->
<g id="edge24" class="edge"><title>Node1&#45;&gt;Node5</title>
<path fill="none" stroke="midnightblue" d="M613.743,-247.28C656.567,-207.511 727.45,-128.298 682,-74 651.83,-37.9567 519.707,-25.9451 440.556,-21.9607"/>
<polygon fill="midnightblue" stroke="midnightblue" points="611.146,-244.911 606.108,-254.231 615.859,-250.087 611.146,-244.911"/>
</g>
<!-- Node3 -->
<g id="node5" class="node"><title>Node3</title>
<a xlink:href="fae_2fae_8h.html" target="_top" xlink:title="include/fae/fae.h">
<polygon fill="none" stroke="red" points="316.761,-134.695 316.761,-157.305 421.239,-157.305 421.239,-134.695 316.761,-134.695"/>
<text text-anchor="middle" x="369" y="-142.305" font-family="Futura" font-size="11.00">include/fae/fae.h</text>
</a>
</g>
<!-- Node2&#45;&gt;Node3 -->
<g id="edge4" class="edge"><title>Node2&#45;&gt;Node3</title>
<path fill="none" stroke="midnightblue" d="M499.125,-191.396C468.643,-180.996 427.258,-166.876 399.416,-157.377"/>
<polygon fill="midnightblue" stroke="midnightblue" points="498.013,-194.714 508.607,-194.631 500.273,-188.089 498.013,-194.714"/>
</g>
<!-- Node10 -->
<g id="node21" class="node"><title>Node10</title>
<a xlink:href="gnuplot_8c.html" target="_top" xlink:title="src/fae/plot/gnuplot.c">
<polygon fill="none" stroke="black" points="474.891,-134.695 474.891,-157.305 603.109,-157.305 603.109,-134.695 474.891,-134.695"/>
<text text-anchor="middle" x="539" y="-142.305" font-family="Futura" font-size="11.00">src/fae/plot/gnuplot.c</text>
</a>
</g>
<!-- Node2&#45;&gt;Node10 -->
<g id="edge22" class="edge"><title>Node2&#45;&gt;Node10</title>
<path fill="none" stroke="midnightblue" d="M539,-184.459C539,-175.411 539,-165.16 539,-157.672"/>
<polygon fill="midnightblue" stroke="midnightblue" points="535.5,-184.631 539,-194.631 542.5,-184.631 535.5,-184.631"/>
</g>
<!-- Node4 -->
<g id="node7" class="node"><title>Node4</title>
<a xlink:href="atomic_8h.html" target="_top" xlink:title="include/fae/atomic.h">
<polygon fill="none" stroke="red" points="-0.668945,-74.6953 -0.668945,-97.3047 120.669,-97.3047 120.669,-74.6953 -0.668945,-74.6953"/>
<text text-anchor="middle" x="60" y="-82.3047" font-family="Futura" font-size="11.00">include/fae/atomic.h</text>
</a>
</g>
<!-- Node3&#45;&gt;Node4 -->
<g id="edge6" class="edge"><title>Node3&#45;&gt;Node4</title>
<path fill="none" stroke="midnightblue" d="M306.566,-134.29C248.543,-123.747 163.362,-107.754 109.78,-97.3406"/>
<polygon fill="midnightblue" stroke="midnightblue" points="306.247,-137.789 316.71,-136.128 307.495,-130.901 306.247,-137.789"/>
</g>
<!-- Node6 -->
<g id="node12" class="node"><title>Node6</title>
<a xlink:href="buffer_8h.html" target="_top" xlink:title="include/fae/buffer.h">
<polygon fill="none" stroke="red" points="138.184,-74.6953 138.184,-97.3047 255.816,-97.3047 255.816,-74.6953 138.184,-74.6953"/>
<text text-anchor="middle" x="197" y="-82.3047" font-family="Futura" font-size="11.00">include/fae/buffer.h</text>
</a>
</g>
<!-- Node3&#45;&gt;Node6 -->
<g id="edge12" class="edge"><title>Node3&#45;&gt;Node6</title>
<path fill="none" stroke="midnightblue" d="M328.656,-131.396C297.816,-120.996 255.944,-106.876 227.773,-97.3771"/>
<polygon fill="midnightblue" stroke="midnightblue" points="327.656,-134.752 338.25,-134.631 329.892,-128.119 327.656,-134.752"/>
</g>
<!-- Node7 -->
<g id="node14" class="node"><title>Node7</title>
<a xlink:href="device_8h.html" target="_top" xlink:title="include/fae/device.h">
<polygon fill="none" stroke="red" points="273.774,-74.6953 273.774,-97.3047 394.226,-97.3047 394.226,-74.6953 273.774,-74.6953"/>
<text text-anchor="middle" x="334" y="-82.3047" font-family="Futura" font-size="11.00">include/fae/device.h</text>
</a>
</g>
<!-- Node3&#45;&gt;Node7 -->
<g id="edge14" class="edge"><title>Node3&#45;&gt;Node7</title>
<path fill="none" stroke="midnightblue" d="M357.497,-125.938C351.83,-116.546 345.207,-105.572 340.44,-97.6719"/>
<polygon fill="midnightblue" stroke="midnightblue" points="354.579,-127.877 362.743,-134.631 360.573,-124.261 354.579,-127.877"/>
</g>
<!-- Node8 -->
<g id="node16" class="node"><title>Node8</title>
<a xlink:href="dynamic_8h.html" target="_top" xlink:title="include/fae/dynamic.h">
<polygon fill="none" stroke="red" points="411.876,-74.6953 411.876,-97.3047 542.124,-97.3047 542.124,-74.6953 411.876,-74.6953"/>
<text text-anchor="middle" x="477" y="-82.3047" font-family="Futura" font-size="11.00">include/fae/dynamic.h</text>
</a>
</g>
<!-- Node3&#45;&gt;Node8 -->
<g id="edge16" class="edge"><title>Node3&#45;&gt;Node8</title>
<path fill="none" stroke="midnightblue" d="M397.374,-129.762C416.311,-119.592 440.722,-106.483 457.495,-97.475"/>
<polygon fill="midnightblue" stroke="midnightblue" points="395.462,-126.816 388.308,-134.631 398.774,-132.983 395.462,-126.816"/>
</g>
<!-- Node9 -->
<g id="node18" class="node"><title>Node9</title>
<a xlink:href="error_8h.html" target="_top" xlink:title="include/fae/error.h">
<polygon fill="none" stroke="red" points="560.555,-74.6953 560.555,-97.3047 673.445,-97.3047 673.445,-74.6953 560.555,-74.6953"/>
<text text-anchor="middle" x="617" y="-82.3047" font-family="Futura" font-size="11.00">include/fae/error.h</text>
</a>
</g>
<!-- Node3&#45;&gt;Node9 -->
<g id="edge18" class="edge"><title>Node3&#45;&gt;Node9</title>
<path fill="none" stroke="midnightblue" d="M417.755,-132.264C461.007,-121.794 523.778,-107.144 567.312,-97.3771"/>
<polygon fill="midnightblue" stroke="midnightblue" points="416.912,-128.867 408.022,-134.631 418.565,-135.669 416.912,-128.867"/>
</g>
<!-- Node4&#45;&gt;Node3 -->
<g id="edge8" class="edge"><title>Node4&#45;&gt;Node3</title>
<path fill="none" stroke="midnightblue" d="M130.451,-99.1697C188.026,-109.675 267.903,-124.687 319.073,-134.631"/>
<polygon fill="midnightblue" stroke="midnightblue" points="130.798,-95.6754 120.333,-97.3282 129.545,-102.562 130.798,-95.6754"/>
</g>
<!-- Node4&#45;&gt;Node5 -->
<g id="edge10" class="edge"><title>Node4&#45;&gt;Node5</title>
<path fill="none" stroke="midnightblue" d="M121.021,-72.605C178.057,-61.0197 262.729,-43.8206 319.572,-32.2744"/>
<polygon fill="midnightblue" stroke="midnightblue" points="120.162,-69.208 111.059,-74.6287 121.555,-76.068 120.162,-69.208"/>
</g>
<!-- Node9&#45;&gt;Node3 -->
<g id="edge20" class="edge"><title>Node9&#45;&gt;Node3</title>
<path fill="none" stroke="midnightblue" d="M568.21,-99.744C524.948,-110.216 462.176,-124.867 418.653,-134.631"/>
<polygon fill="midnightblue" stroke="midnightblue" points="569.056,-103.14 577.946,-97.3771 567.403,-96.3384 569.056,-103.14"/>
</g>
</g>
</svg>
