<?xml version="1.0" encoding="UTF-8" standalone="no"?>
<!DOCTYPE svg PUBLIC "-//W3C//DTD SVG 1.1//EN"
 "http://www.w3.org/Graphics/SVG/1.1/DTD/svg11.dtd">
<!-- Generated by graphviz version 2.28.0 (20121015.0031)
 -->
<!-- Title: src/platform/macosx/fae/system/event.c Pages: 1 -->
<svg width="617pt" height="300pt"
 viewBox="0.00 0.00 617.00 300.00" xmlns="http://www.w3.org/2000/svg" xmlns:xlink="http://www.w3.org/1999/xlink">
<g id="graph1" class="graph" transform="scale(1 1) rotate(0) translate(4 296)">
<title>src/platform/macosx/fae/system/event.c</title>
<!-- Node1 -->
<g id="node1" class="node"><title>Node1</title>
<polygon fill="#bfbfbf" stroke="black" points="210.597,-254.391 210.597,-291.609 331.403,-291.609 331.403,-254.391 210.597,-254.391"/>
<text text-anchor="start" x="218.597" y="-276.609" font-family="Futura" font-size="11.00">src/platform/macosx</text>
<text text-anchor="middle" x="271" y="-262" font-family="Futura" font-size="11.00">/fae/system/event.c</text>
</g>
<!-- Node2 -->
<g id="node3" class="node"><title>Node2</title>
<a xlink:href="atomic_8h.html" target="_top" xlink:title="fae/atomic.h">
<polygon fill="none" stroke="red" points="263.894,-120.695 263.894,-143.305 344.106,-143.305 344.106,-120.695 263.894,-120.695"/>
<text text-anchor="middle" x="304" y="-128.305" font-family="Futura" font-size="11.00">fae/atomic.h</text>
</a>
</g>
<!-- Node1&#45;&gt;Node2 -->
<g id="edge2" class="edge"><title>Node1&#45;&gt;Node2</title>
<path fill="none" stroke="midnightblue" d="M275.247,-254.113C281.367,-228.335 292.639,-180.855 299.102,-153.63"/>
<polygon fill="midnightblue" stroke="midnightblue" points="302.569,-154.178 301.474,-143.64 295.759,-152.561 302.569,-154.178"/>
</g>
<!-- Node4 -->
<g id="node8" class="node"><title>Node4</title>
<polygon fill="none" stroke="#bfbfbf" points="-0.799805,-0.695312 -0.799805,-23.3047 72.7998,-23.3047 72.7998,-0.695312 -0.799805,-0.695312"/>
<text text-anchor="middle" x="36" y="-8.30469" font-family="Futura" font-size="11.00">fae/event.h</text>
</g>
<!-- Node1&#45;&gt;Node4 -->
<g id="edge20" class="edge"><title>Node1&#45;&gt;Node4</title>
<path fill="none" stroke="midnightblue" d="M210.484,-266.128C149.249,-258.816 60.6088,-244 39,-218 -5.38964,-164.59 16.1415,-73.5134 28.8949,-33.2102"/>
<polygon fill="midnightblue" stroke="midnightblue" points="32.2983,-34.0666 32.1239,-23.4732 25.6541,-31.8633 32.2983,-34.0666"/>
</g>
<!-- Node5 -->
<g id="node10" class="node"><title>Node5</title>
<a xlink:href="thread_8h.html" target="_top" xlink:title="fae/thread.h">
<polygon fill="none" stroke="red" points="264.093,-0.695312 264.093,-23.3047 343.907,-23.3047 343.907,-0.695312 264.093,-0.695312"/>
<text text-anchor="middle" x="304" y="-8.30469" font-family="Futura" font-size="11.00">fae/thread.h</text>
</a>
</g>
<!-- Node1&#45;&gt;Node5 -->
<g id="edge22" class="edge"><title>Node1&#45;&gt;Node5</title>
<path fill="none" stroke="midnightblue" d="M287.223,-254.177C307.232,-230.867 340.169,-187.817 353,-144 364.973,-103.114 337.518,-56.7375 319.056,-31.6019"/>
<polygon fill="midnightblue" stroke="midnightblue" points="321.604,-29.1719 312.751,-23.352 316.042,-33.4226 321.604,-29.1719"/>
</g>
<!-- Node6 -->
<g id="node13" class="node"><title>Node6</title>
<a xlink:href="string_8h.html" target="_top" xlink:title="fae/string.h">
<polygon fill="none" stroke="black" points="63.8269,-120.695 63.8269,-143.305 138.173,-143.305 138.173,-120.695 63.8269,-120.695"/>
<text text-anchor="middle" x="101" y="-128.305" font-family="Futura" font-size="11.00">fae/string.h</text>
</a>
</g>
<!-- Node1&#45;&gt;Node6 -->
<g id="edge14" class="edge"><title>Node1&#45;&gt;Node6</title>
<path fill="none" stroke="midnightblue" d="M252.832,-254.297C232.906,-235.198 199.671,-204.266 169,-180 155.192,-169.075 139.001,-157.827 125.882,-149.075"/>
<polygon fill="midnightblue" stroke="midnightblue" points="127.632,-146.036 117.358,-143.448 123.776,-151.878 127.632,-146.036"/>
</g>
<!-- Node7 -->
<g id="node16" class="node"><title>Node7</title>
<polygon fill="none" stroke="#bfbfbf" points="155.891,-120.695 155.891,-143.305 246.109,-143.305 246.109,-120.695 155.891,-120.695"/>
<text text-anchor="middle" x="201" y="-128.305" font-family="Futura" font-size="11.00">fae/message.h</text>
</g>
<!-- Node1&#45;&gt;Node7 -->
<g id="edge18" class="edge"><title>Node1&#45;&gt;Node7</title>
<path fill="none" stroke="midnightblue" d="M261.992,-254.113C248.895,-228.106 224.674,-180.009 211.026,-152.909"/>
<polygon fill="midnightblue" stroke="midnightblue" points="213.982,-150.998 206.358,-143.64 207.73,-154.146 213.982,-150.998"/>
</g>
<!-- Node8 -->
<g id="node20" class="node"><title>Node8</title>
<a xlink:href="event_8h.html" target="_top" xlink:title="fae/system/event.h">
<polygon fill="none" stroke="red" points="47.9529,-187.695 47.9529,-210.305 160.047,-210.305 160.047,-187.695 47.9529,-187.695"/>
<text text-anchor="middle" x="104" y="-195.305" font-family="Futura" font-size="11.00">fae/system/event.h</text>
</a>
</g>
<!-- Node1&#45;&gt;Node8 -->
<g id="edge24" class="edge"><title>Node1&#45;&gt;Node8</title>
<path fill="none" stroke="midnightblue" d="M230.147,-254.387C201.595,-242.077 163.948,-225.846 137.234,-214.329"/>
<polygon fill="midnightblue" stroke="midnightblue" points="138.493,-211.06 127.924,-210.315 135.721,-217.488 138.493,-211.06"/>
</g>
<!-- Node9 -->
<g id="node25" class="node"><title>Node9</title>
<a xlink:href="util_8h.html" target="_top" xlink:title="fae/util.h">
<polygon fill="none" stroke="red" points="400.141,-187.695 400.141,-210.305 461.859,-210.305 461.859,-187.695 400.141,-187.695"/>
<text text-anchor="middle" x="431" y="-195.305" font-family="Futura" font-size="11.00">fae/util.h</text>
</a>
</g>
<!-- Node1&#45;&gt;Node9 -->
<g id="edge32" class="edge"><title>Node1&#45;&gt;Node9</title>
<path fill="none" stroke="midnightblue" d="M310.14,-254.387C337.376,-242.131 373.248,-225.988 398.821,-214.48"/>
<polygon fill="midnightblue" stroke="midnightblue" points="400.396,-217.61 408.079,-210.315 397.523,-211.227 400.396,-217.61"/>
</g>
<!-- Node10 -->
<g id="node27" class="node"><title>Node10</title>
<polygon fill="none" stroke="#bfbfbf" points="480.343,-180.391 480.343,-217.609 609.657,-217.609 609.657,-180.391 480.343,-180.391"/>
<text text-anchor="start" x="488.343" y="-202.609" font-family="Futura" font-size="11.00">ApplicationServices</text>
<text text-anchor="middle" x="545" y="-188" font-family="Futura" font-size="11.00">/ApplicationServices.h</text>
</g>
<!-- Node1&#45;&gt;Node10 -->
<g id="edge34" class="edge"><title>Node1&#45;&gt;Node10</title>
<path fill="none" stroke="midnightblue" d="M331.47,-256.11C372.348,-245.368 426.61,-231.11 470.205,-219.654"/>
<polygon fill="midnightblue" stroke="midnightblue" points="471.12,-223.033 479.902,-217.106 469.341,-216.262 471.12,-223.033"/>
</g>
<!-- Node3 -->
<g id="node5" class="node"><title>Node3</title>
<a xlink:href="fae_2fae_8h.html" target="_top" xlink:title="fae.h">
<polygon fill="none" stroke="red" points="283.23,-60.6953 283.23,-83.3047 324.77,-83.3047 324.77,-60.6953 283.23,-60.6953"/>
<text text-anchor="middle" x="304" y="-68.3047" font-family="Futura" font-size="11.00">fae.h</text>
</a>
</g>
<!-- Node2&#45;&gt;Node3 -->
<g id="edge4" class="edge"><title>Node2&#45;&gt;Node3</title>
<path fill="none" stroke="midnightblue" d="M298.684,-120.631C297.323,-113.137 296.931,-102.764 297.508,-93.6107"/>
<polygon fill="midnightblue" stroke="midnightblue" points="300.986,-94.0015 298.63,-83.6719 294.03,-93.2159 300.986,-94.0015"/>
</g>
<!-- Node3&#45;&gt;Node2 -->
<g id="edge6" class="edge"><title>Node3&#45;&gt;Node2</title>
<path fill="none" stroke="midnightblue" d="M309.37,-83.6719C310.691,-91.1602 311.064,-101.411 310.488,-110.459"/>
<polygon fill="midnightblue" stroke="midnightblue" points="306.984,-110.296 309.316,-120.631 313.938,-111.097 306.984,-110.296"/>
</g>
<!-- Node3&#45;&gt;Node4 -->
<g id="edge8" class="edge"><title>Node3&#45;&gt;Node4</title>
<path fill="none" stroke="midnightblue" d="M282.97,-66.4488C240.044,-57.1588 141.438,-35.8186 82.6306,-23.0917"/>
<polygon fill="midnightblue" stroke="midnightblue" points="83.3566,-19.6679 72.8425,-20.9734 81.8759,-26.5095 83.3566,-19.6679"/>
</g>
<!-- Node3&#45;&gt;Node5 -->
<g id="edge10" class="edge"><title>Node3&#45;&gt;Node5</title>
<path fill="none" stroke="midnightblue" d="M298.684,-60.6308C297.323,-53.1365 296.931,-42.7636 297.508,-33.6107"/>
<polygon fill="midnightblue" stroke="midnightblue" points="300.986,-34.0015 298.63,-23.6719 294.03,-33.2159 300.986,-34.0015"/>
</g>
<!-- Node5&#45;&gt;Node3 -->
<g id="edge12" class="edge"><title>Node5&#45;&gt;Node3</title>
<path fill="none" stroke="midnightblue" d="M309.37,-23.6719C310.691,-31.1602 311.064,-41.4112 310.488,-50.4586"/>
<polygon fill="midnightblue" stroke="midnightblue" points="306.984,-50.2958 309.316,-60.6308 313.938,-51.0972 306.984,-50.2958"/>
</g>
<!-- Node6&#45;&gt;Node3 -->
<g id="edge16" class="edge"><title>Node6&#45;&gt;Node3</title>
<path fill="none" stroke="midnightblue" d="M137.292,-120.631C176.009,-109.569 236.676,-92.2355 273.162,-81.8108"/>
<polygon fill="midnightblue" stroke="midnightblue" points="274.562,-85.0509 283.216,-78.9382 272.639,-78.3202 274.562,-85.0509"/>
</g>
<!-- Node8&#45;&gt;Node4 -->
<g id="edge28" class="edge"><title>Node8&#45;&gt;Node4</title>
<path fill="none" stroke="midnightblue" d="M90.8208,-187.512C79.3556,-177.594 63.312,-161.635 55,-144 37.939,-107.804 35.2968,-60.2413 35.3519,-33.5206"/>
<polygon fill="midnightblue" stroke="midnightblue" points="38.8526,-33.4913 35.5064,-23.4388 31.8534,-33.3839 38.8526,-33.4913"/>
</g>
<!-- Node8&#45;&gt;Node6 -->
<g id="edge30" class="edge"><title>Node8&#45;&gt;Node6</title>
<path fill="none" stroke="midnightblue" d="M103.518,-187.557C103.101,-178.513 102.484,-165.156 101.966,-153.921"/>
<polygon fill="midnightblue" stroke="midnightblue" points="105.448,-153.461 101.491,-143.633 98.4556,-153.784 105.448,-153.461"/>
</g>
<!-- Node8&#45;&gt;Node7 -->
<g id="edge26" class="edge"><title>Node8&#45;&gt;Node7</title>
<path fill="none" stroke="midnightblue" d="M119.585,-187.557C134.999,-177.227 158.812,-161.27 176.71,-149.277"/>
<polygon fill="midnightblue" stroke="midnightblue" points="179.095,-151.892 185.454,-143.417 175.198,-146.077 179.095,-151.892"/>
</g>
</g>
</svg>
