<?xml version="1.0" encoding="UTF-8" standalone="no"?>
<!DOCTYPE svg PUBLIC "-//W3C//DTD SVG 1.1//EN"
 "http://www.w3.org/Graphics/SVG/1.1/DTD/svg11.dtd">
<!-- Generated by graphviz version 2.28.0 (20121015.0031)
 -->
<!-- Title: include/fae/system/event.h Pages: 1 -->
<svg width="661pt" height="286pt"
 viewBox="0.00 0.00 660.87 286.00" xmlns="http://www.w3.org/2000/svg" xmlns:xlink="http://www.w3.org/1999/xlink">
<g id="graph1" class="graph" transform="scale(1 1) rotate(0) translate(4 282)">
<title>include/fae/system/event.h</title>
<!-- Node1 -->
<g id="node1" class="node"><title>Node1</title>
<polygon fill="#bfbfbf" stroke="black" points="57.0047,-240.391 57.0047,-277.609 168.739,-277.609 168.739,-240.391 57.0047,-240.391"/>
<text text-anchor="start" x="65.0047" y="-262.609" font-family="Futura" font-size="11.00">include/fae/system</text>
<text text-anchor="middle" x="112.872" y="-248" font-family="Futura" font-size="11.00">/event.h</text>
</g>
<!-- Node2 -->
<g id="node3" class="node"><title>Node2</title>
<polygon fill="none" stroke="#bfbfbf" points="213.102,-0.695312 213.102,-23.3047 254.642,-23.3047 254.642,-0.695312 213.102,-0.695312"/>
<text text-anchor="middle" x="233.872" y="-8.30469" font-family="Futura" font-size="11.00">fae.h</text>
</g>
<!-- Node1&#45;&gt;Node2 -->
<g id="edge2" class="edge"><title>Node1&#45;&gt;Node2</title>
<path fill="none" stroke="midnightblue" d="M63.8171,-240.197C47.8611,-231.799 31.9395,-220.015 22.8719,-204 1.19767,-165.719 -25.0884,-136.628 48.8719,-60 70,-38.1099 155.99,-23.4424 202.93,-16.8978"/>
<polygon fill="midnightblue" stroke="midnightblue" points="203.426,-20.3627 212.866,-15.5526 202.486,-13.426 203.426,-20.3627"/>
</g>
<!-- Node3 -->
<g id="node5" class="node"><title>Node3</title>
<polygon fill="none" stroke="#bfbfbf" points="31.763,-180.695 31.763,-203.305 121.981,-203.305 121.981,-180.695 31.763,-180.695"/>
<text text-anchor="middle" x="76.8719" y="-188.305" font-family="Futura" font-size="11.00">fae/message.h</text>
</g>
<!-- Node1&#45;&gt;Node3 -->
<g id="edge4" class="edge"><title>Node1&#45;&gt;Node3</title>
<path fill="none" stroke="midnightblue" d="M103.035,-240.238C98.2648,-231.626 92.5245,-221.262 87.6376,-212.438"/>
<polygon fill="midnightblue" stroke="midnightblue" points="90.663,-210.676 82.7561,-203.624 84.5394,-214.068 90.663,-210.676"/>
</g>
<!-- Node4 -->
<g id="node7" class="node"><title>Node4</title>
<polygon fill="none" stroke="#bfbfbf" points="58.0721,-60.6953 58.0721,-83.3047 131.672,-83.3047 131.672,-60.6953 58.0721,-60.6953"/>
<text text-anchor="middle" x="94.8719" y="-68.3047" font-family="Futura" font-size="11.00">fae/event.h</text>
</g>
<!-- Node1&#45;&gt;Node4 -->
<g id="edge6" class="edge"><title>Node1&#45;&gt;Node4</title>
<path fill="none" stroke="midnightblue" d="M120.352,-240.364C124.346,-229.986 128.846,-216.486 130.872,-204 137.443,-163.51 118.471,-117.575 105.629,-92.2799"/>
<polygon fill="midnightblue" stroke="midnightblue" points="108.681,-90.5638 100.913,-83.3588 102.492,-93.8353 108.681,-90.5638"/>
</g>
<!-- Node5 -->
<g id="node9" class="node"><title>Node5</title>
<a xlink:href="string_8h.html" target="_top" xlink:title="fae/string.h">
<polygon fill="none" stroke="black" points="177.699,-180.695 177.699,-203.305 252.045,-203.305 252.045,-180.695 177.699,-180.695"/>
<text text-anchor="middle" x="214.872" y="-188.305" font-family="Futura" font-size="11.00">fae/string.h</text>
</a>
</g>
<!-- Node1&#45;&gt;Node5 -->
<g id="edge8" class="edge"><title>Node1&#45;&gt;Node5</title>
<path fill="none" stroke="midnightblue" d="M140.744,-240.238C156.082,-230.464 174.961,-218.434 189.827,-208.96"/>
<polygon fill="midnightblue" stroke="midnightblue" points="191.946,-211.76 198.498,-203.434 188.184,-205.857 191.946,-211.76"/>
</g>
<!-- Node6 -->
<g id="node11" class="node"><title>Node6</title>
<a xlink:href="fae_2fae_8h.html" target="_top" xlink:title="fae.h">
<polygon fill="none" stroke="red" points="194.102,-120.695 194.102,-143.305 235.642,-143.305 235.642,-120.695 194.102,-120.695"/>
<text text-anchor="middle" x="214.872" y="-128.305" font-family="Futura" font-size="11.00">fae.h</text>
</a>
</g>
<!-- Node5&#45;&gt;Node6 -->
<g id="edge10" class="edge"><title>Node5&#45;&gt;Node6</title>
<path fill="none" stroke="midnightblue" d="M214.872,-180.631C214.872,-173.218 214.872,-162.989 214.872,-153.91"/>
<polygon fill="midnightblue" stroke="midnightblue" points="218.372,-153.672 214.872,-143.672 211.372,-153.672 218.372,-153.672"/>
</g>
<!-- Node6&#45;&gt;Node4 -->
<g id="edge24" class="edge"><title>Node6&#45;&gt;Node4</title>
<path fill="none" stroke="midnightblue" d="M193.969,-120.897C175.017,-111.737 146.847,-98.1215 125.381,-87.746"/>
<polygon fill="midnightblue" stroke="midnightblue" points="126.869,-84.5781 116.343,-83.3776 123.823,-90.8806 126.869,-84.5781"/>
</g>
<!-- Node7 -->
<g id="node13" class="node"><title>Node7</title>
<a xlink:href="atomic_8h.html" target="_top" xlink:title="fae/atomic.h">
<polygon fill="none" stroke="red" points="149.766,-60.6953 149.766,-83.3047 229.978,-83.3047 229.978,-60.6953 149.766,-60.6953"/>
<text text-anchor="middle" x="189.872" y="-68.3047" font-family="Futura" font-size="11.00">fae/atomic.h</text>
</a>
</g>
<!-- Node6&#45;&gt;Node7 -->
<g id="edge12" class="edge"><title>Node6&#45;&gt;Node7</title>
<path fill="none" stroke="midnightblue" d="M205.087,-120.631C200.445,-113.055 195.526,-102.538 192.154,-93.3126"/>
<polygon fill="midnightblue" stroke="midnightblue" points="195.457,-92.149 189.102,-83.6719 188.783,-94.2619 195.457,-92.149"/>
</g>
<!-- Node8 -->
<g id="node16" class="node"><title>Node8</title>
<polygon fill="none" stroke="#bfbfbf" points="248.478,-60.6953 248.478,-83.3047 365.266,-83.3047 365.266,-60.6953 248.478,-60.6953"/>
<text text-anchor="middle" x="306.872" y="-68.3047" font-family="Futura" font-size="11.00">fae/atomic/queue.h</text>
</g>
<!-- Node6&#45;&gt;Node8 -->
<g id="edge16" class="edge"><title>Node6&#45;&gt;Node8</title>
<path fill="none" stroke="midnightblue" d="M231.32,-120.631C245.232,-111.86 265.398,-99.1468 281.397,-89.0605"/>
<polygon fill="midnightblue" stroke="midnightblue" points="283.664,-91.7688 290.256,-83.475 279.931,-85.8473 283.664,-91.7688"/>
</g>
<!-- Node9 -->
<g id="node18" class="node"><title>Node9</title>
<a xlink:href="stack_8h.html" target="_top" xlink:title="fae/atomic/stack.h">
<polygon fill="none" stroke="black" points="383.249,-60.6953 383.249,-83.3047 494.495,-83.3047 494.495,-60.6953 383.249,-60.6953"/>
<text text-anchor="middle" x="438.872" y="-68.3047" font-family="Futura" font-size="11.00">fae/atomic/stack.h</text>
</a>
</g>
<!-- Node6&#45;&gt;Node9 -->
<g id="edge18" class="edge"><title>Node6&#45;&gt;Node9</title>
<path fill="none" stroke="midnightblue" d="M235.945,-125.544C270.719,-116.54 341.038,-98.3319 389.047,-85.9011"/>
<polygon fill="midnightblue" stroke="midnightblue" points="390.129,-89.2365 398.932,-83.3415 388.374,-82.46 390.129,-89.2365"/>
</g>
<!-- Node10 -->
<g id="node21" class="node"><title>Node10</title>
<polygon fill="none" stroke="#bfbfbf" points="512.355,-60.6953 512.355,-83.3047 653.389,-83.3047 653.389,-60.6953 512.355,-60.6953"/>
<text text-anchor="middle" x="582.872" y="-68.3047" font-family="Futura" font-size="11.00">fae/atomic/ring_buffer.h</text>
</g>
<!-- Node6&#45;&gt;Node10 -->
<g id="edge22" class="edge"><title>Node6&#45;&gt;Node10</title>
<path fill="none" stroke="midnightblue" d="M235.712,-127.715C287.047,-119.625 421.643,-98.4111 507.365,-84.9005"/>
<polygon fill="midnightblue" stroke="midnightblue" points="507.976,-88.3475 517.31,-83.3332 506.887,-81.4328 507.976,-88.3475"/>
</g>
<!-- Node7&#45;&gt;Node6 -->
<g id="edge14" class="edge"><title>Node7&#45;&gt;Node6</title>
<path fill="none" stroke="midnightblue" d="M199.842,-83.6719C204.49,-91.3248 209.392,-101.863 212.723,-111.053"/>
<polygon fill="midnightblue" stroke="midnightblue" points="209.393,-112.131 215.718,-120.631 216.074,-110.042 209.393,-112.131"/>
</g>
<!-- Node9&#45;&gt;Node2 -->
<g id="edge20" class="edge"><title>Node9&#45;&gt;Node2</title>
<path fill="none" stroke="midnightblue" d="M402.222,-60.6308C362.957,-49.5215 301.333,-32.0866 264.54,-21.6769"/>
<polygon fill="midnightblue" stroke="midnightblue" points="265.436,-18.2929 254.861,-18.9382 263.53,-25.0285 265.436,-18.2929"/>
</g>
</g>
</svg>
