<?xml version="1.0" encoding="UTF-8" standalone="no"?>
<!DOCTYPE svg PUBLIC "-//W3C//DTD SVG 1.1//EN"
 "http://www.w3.org/Graphics/SVG/1.1/DTD/svg11.dtd">
<!-- Generated by graphviz version 2.28.0 (20121015.0031)
 -->
<!-- Title: include/fa/fa.h Pages: 1 -->
<svg width="804pt" height="332pt"
 viewBox="0.00 0.00 804.00 332.00" xmlns="http://www.w3.org/2000/svg" xmlns:xlink="http://www.w3.org/1999/xlink">
<g id="graph1" class="graph" transform="scale(1 1) rotate(0) translate(4 328)">
<title>include/fa/fa.h</title>
<!-- Node1 -->
<g id="node1" class="node"><title>Node1</title>
<polygon fill="#bfbfbf" stroke="black" points="228.846,-300.695 228.846,-323.305 321.154,-323.305 321.154,-300.695 228.846,-300.695"/>
<text text-anchor="middle" x="275" y="-308.305" font-family="Futura" font-size="11.00">include/fa/fa.h</text>
</g>
<!-- Node2 -->
<g id="node3" class="node"><title>Node2</title>
<a xlink:href="action_8h.html" target="_top" xlink:title="include/fa/action.h">
<polygon fill="none" stroke="red" points="73.7461,-0.695312 73.7461,-23.3047 186.254,-23.3047 186.254,-0.695312 73.7461,-0.695312"/>
<text text-anchor="middle" x="130" y="-8.30469" font-family="Futura" font-size="11.00">include/fa/action.h</text>
</a>
</g>
<!-- Node1&#45;&gt;Node2 -->
<g id="edge2" class="edge"><title>Node1&#45;&gt;Node2</title>
<path fill="none" stroke="midnightblue" d="M218.533,-310.332C137.961,-306.328 0,-286.142 0,-193 0,-193 0,-193 0,-131 0,-77.4502 61.4938,-40.2816 100.065,-23.3528"/>
<polygon fill="midnightblue" stroke="midnightblue" points="218.4,-313.829 228.541,-310.761 218.7,-306.836 218.4,-313.829"/>
</g>
<!-- Node3 -->
<g id="node6" class="node"><title>Node3</title>
<a xlink:href="buffer_8h.html" target="_top" xlink:title="include/fa/buffer.h">
<polygon fill="none" stroke="red" points="102.227,-120.695 102.227,-143.305 213.773,-143.305 213.773,-120.695 102.227,-120.695"/>
<text text-anchor="middle" x="158" y="-128.305" font-family="Futura" font-size="11.00">include/fa/buffer.h</text>
</a>
</g>
<!-- Node1&#45;&gt;Node3 -->
<g id="edge6" class="edge"><title>Node1&#45;&gt;Node3</title>
<path fill="none" stroke="midnightblue" d="M254.818,-293.654C233.128,-273.98 199.073,-239.935 179,-204 167.967,-184.249 162.179,-158.097 159.638,-143.681"/>
<polygon fill="midnightblue" stroke="midnightblue" points="252.673,-296.431 262.47,-300.465 257.327,-291.202 252.673,-296.431"/>
</g>
<!-- Node4 -->
<g id="node8" class="node"><title>Node4</title>
<a xlink:href="signal_8h.html" target="_top" xlink:title="include/fa/signal.h">
<polygon fill="none" stroke="red" points="74.2832,-60.6953 74.2832,-83.3047 185.717,-83.3047 185.717,-60.6953 74.2832,-60.6953"/>
<text text-anchor="middle" x="130" y="-68.3047" font-family="Futura" font-size="11.00">include/fa/signal.h</text>
</a>
</g>
<!-- Node1&#45;&gt;Node4 -->
<g id="edge46" class="edge"><title>Node1&#45;&gt;Node4</title>
<path fill="none" stroke="midnightblue" d="M240.406,-295.993C193.286,-271.288 112.159,-217.38 84,-144 80.1785,-134.041 80.5087,-130.079 84,-120 88.9626,-105.673 100.299,-92.401 110.795,-83.6402"/>
<polygon fill="midnightblue" stroke="midnightblue" points="238.851,-299.129 249.351,-300.542 242.024,-292.889 238.851,-299.129"/>
</g>
<!-- Node5 -->
<g id="node12" class="node"><title>Node5</title>
<a xlink:href="clock_8h.html" target="_top" xlink:title="include/fa/clock.h">
<polygon fill="none" stroke="red" points="421.978,-240.695 421.978,-263.305 530.022,-263.305 530.022,-240.695 421.978,-240.695"/>
<text text-anchor="middle" x="476" y="-248.305" font-family="Futura" font-size="11.00">include/fa/clock.h</text>
</a>
</g>
<!-- Node1&#45;&gt;Node5 -->
<g id="edge14" class="edge"><title>Node1&#45;&gt;Node5</title>
<path fill="none" stroke="midnightblue" d="M320.749,-297.799C356.913,-287.363 406.691,-273 440.038,-263.377"/>
<polygon fill="midnightblue" stroke="midnightblue" points="319.572,-294.495 310.935,-300.631 321.513,-301.221 319.572,-294.495"/>
</g>
<!-- Node6 -->
<g id="node14" class="node"><title>Node6</title>
<a xlink:href="dynamic_8h.html" target="_top" xlink:title="include/fa/dynamic.h">
<polygon fill="none" stroke="black" points="547.918,-240.695 547.918,-263.305 672.082,-263.305 672.082,-240.695 547.918,-240.695"/>
<text text-anchor="middle" x="610" y="-248.305" font-family="Futura" font-size="11.00">include/fa/dynamic.h</text>
</a>
</g>
<!-- Node1&#45;&gt;Node6 -->
<g id="edge16" class="edge"><title>Node1&#45;&gt;Node6</title>
<path fill="none" stroke="midnightblue" d="M331.404,-301.235C392.164,-290.715 488.446,-274.045 550.414,-263.316"/>
<polygon fill="midnightblue" stroke="midnightblue" points="330.485,-297.842 321.229,-302.996 331.679,-304.739 330.485,-297.842"/>
</g>
<!-- Node7 -->
<g id="node16" class="node"><title>Node7</title>
<a xlink:href="error_8h.html" target="_top" xlink:title="include/fa/error.h">
<polygon fill="none" stroke="red" points="689.598,-240.695 689.598,-263.305 796.402,-263.305 796.402,-240.695 689.598,-240.695"/>
<text text-anchor="middle" x="743" y="-248.305" font-family="Futura" font-size="11.00">include/fa/error.h</text>
</a>
</g>
<!-- Node1&#45;&gt;Node7 -->
<g id="edge18" class="edge"><title>Node1&#45;&gt;Node7</title>
<path fill="none" stroke="midnightblue" d="M331.176,-304.956C408.251,-296.954 550.72,-281.762 672,-264 677.625,-263.176 683.522,-262.233 689.426,-261.254"/>
<polygon fill="midnightblue" stroke="midnightblue" points="330.784,-301.478 321.198,-305.99 331.506,-308.441 330.784,-301.478"/>
</g>
<!-- Node8 -->
<g id="node19" class="node"><title>Node8</title>
<a xlink:href="list_8h.html" target="_top" xlink:title="include/fa/list.h">
<polygon fill="none" stroke="red" points="270.385,-240.695 270.385,-263.305 365.615,-263.305 365.615,-240.695 270.385,-240.695"/>
<text text-anchor="middle" x="318" y="-248.305" font-family="Futura" font-size="11.00">include/fa/list.h</text>
</a>
</g>
<!-- Node1&#45;&gt;Node8 -->
<g id="edge22" class="edge"><title>Node1&#45;&gt;Node8</title>
<path fill="none" stroke="midnightblue" d="M282.747,-291.938C288.994,-282.546 297.468,-271.572 304.718,-263.672"/>
<polygon fill="midnightblue" stroke="midnightblue" points="279.655,-290.285 277.372,-300.631 285.608,-293.967 279.655,-290.285"/>
</g>
<!-- Node9 -->
<g id="node23" class="node"><title>Node9</title>
<a xlink:href="map_8h.html" target="_top" xlink:title="include/fa/map.h">
<polygon fill="none" stroke="red" points="345.914,-120.695 345.914,-143.305 450.086,-143.305 450.086,-120.695 345.914,-120.695"/>
<text text-anchor="middle" x="398" y="-128.305" font-family="Futura" font-size="11.00">include/fa/map.h</text>
</a>
</g>
<!-- Node1&#45;&gt;Node9 -->
<g id="edge42" class="edge"><title>Node1&#45;&gt;Node9</title>
<path fill="none" stroke="midnightblue" d="M326.938,-296.996C344.338,-289.831 362.275,-279.285 374,-264 402.287,-227.126 400.95,-167.398 399.07,-143.436"/>
<polygon fill="midnightblue" stroke="midnightblue" points="325.47,-293.81 317.369,-300.637 327.96,-300.352 325.47,-293.81"/>
</g>
<!-- Node10 -->
<g id="node25" class="node"><title>Node10</title>
<a xlink:href="pair_8h.html" target="_top" xlink:title="include/fa/pair.h">
<polygon fill="none" stroke="red" points="188.131,-180.695 188.131,-203.305 289.869,-203.305 289.869,-180.695 188.131,-180.695"/>
<text text-anchor="middle" x="239" y="-188.305" font-family="Futura" font-size="11.00">include/fa/pair.h</text>
</a>
</g>
<!-- Node1&#45;&gt;Node10 -->
<g id="edge44" class="edge"><title>Node1&#45;&gt;Node10</title>
<path fill="none" stroke="midnightblue" d="M263.767,-291.21C253.681,-266.007 241.046,-223.363 238.169,-203.618"/>
<polygon fill="midnightblue" stroke="midnightblue" points="260.604,-292.714 267.758,-300.528 267.038,-289.958 260.604,-292.714"/>
</g>
<!-- Node2&#45;&gt;Node1 -->
<g id="edge4" class="edge"><title>Node2&#45;&gt;Node1</title>
<path fill="none" stroke="midnightblue" d="M102.686,-28.1633C69.3787,-46.7909 18,-82.0522 18,-131 18,-193 18,-193 18,-193 18,-285.705 154.67,-306.137 228.766,-310.274"/>
<polygon fill="midnightblue" stroke="midnightblue" points="104.427,-31.2011 111.544,-23.3528 101.086,-25.0497 104.427,-31.2011"/>
</g>
<!-- Node3&#45;&gt;Node4 -->
<g id="edge8" class="edge"><title>Node3&#45;&gt;Node4</title>
<path fill="none" stroke="midnightblue" d="M148.513,-111.349C144.044,-102.09 138.886,-91.4071 135.152,-83.6719"/>
<polygon fill="midnightblue" stroke="midnightblue" points="145.495,-113.147 152.994,-120.631 151.799,-110.104 145.495,-113.147"/>
</g>
<!-- Node4&#45;&gt;Node1 -->
<g id="edge12" class="edge"><title>Node4&#45;&gt;Node1</title>
<path fill="none" stroke="midnightblue" d="M119.066,-91.5116C112.726,-99.5263 105.644,-109.479 102,-120 98.5087,-130.079 98.1785,-134.041 102,-144 132.036,-222.272 222.338,-278.389 259.334,-300.542"/>
<polygon fill="midnightblue" stroke="midnightblue" points="121.871,-93.61 125.456,-83.6402 116.436,-89.1981 121.871,-93.61"/>
</g>
<!-- Node4&#45;&gt;Node2 -->
<g id="edge10" class="edge"><title>Node4&#45;&gt;Node2</title>
<path fill="none" stroke="midnightblue" d="M130,-50.4586C130,-41.4112 130,-31.1602 130,-23.6719"/>
<polygon fill="midnightblue" stroke="midnightblue" points="126.5,-50.6307 130,-60.6308 133.5,-50.6308 126.5,-50.6307"/>
</g>
<!-- Node7&#45;&gt;Node1 -->
<g id="edge20" class="edge"><title>Node7&#45;&gt;Node1</title>
<path fill="none" stroke="midnightblue" d="M684.477,-264.781C549.263,-284.28 396.532,-300.052 321.372,-307.078"/>
<polygon fill="midnightblue" stroke="midnightblue" points="685.202,-268.213 694.594,-263.31 684.195,-261.286 685.202,-268.213"/>
</g>
<!-- Node8&#45;&gt;Node1 -->
<g id="edge26" class="edge"><title>Node8&#45;&gt;Node1</title>
<path fill="none" stroke="midnightblue" d="M310.011,-272.424C303.708,-281.856 295.222,-292.811 288.003,-300.631"/>
<polygon fill="midnightblue" stroke="midnightblue" points="313.146,-274.011 315.458,-263.672 307.203,-270.313 313.146,-274.011"/>
</g>
<!-- Node8&#45;&gt;Node2 -->
<g id="edge24" class="edge"><title>Node8&#45;&gt;Node2</title>
<path fill="none" stroke="midnightblue" d="M313.828,-230.681C310.485,-216.202 305.168,-196.468 298,-180 273.085,-122.761 271.022,-102.179 225,-60 206.686,-43.2157 181.269,-31.0633 161.333,-23.3252"/>
<polygon fill="midnightblue" stroke="midnightblue" points="310.439,-231.567 315.997,-240.587 317.277,-230.07 310.439,-231.567"/>
</g>
<!-- Node8&#45;&gt;Node9 -->
<g id="edge28" class="edge"><title>Node8&#45;&gt;Node9</title>
<path fill="none" stroke="midnightblue" d="M330.74,-232.208C347.73,-207.148 377.237,-163.626 390.801,-143.618"/>
<polygon fill="midnightblue" stroke="midnightblue" points="327.814,-230.287 325.099,-240.528 333.608,-234.215 327.814,-230.287"/>
</g>
<!-- Node8&#45;&gt;Node10 -->
<g id="edge30" class="edge"><title>Node8&#45;&gt;Node10</title>
<path fill="none" stroke="midnightblue" d="M295.517,-234.494C281.935,-224.522 265.033,-212.113 253.268,-203.475"/>
<polygon fill="midnightblue" stroke="midnightblue" points="293.744,-237.534 303.876,-240.631 297.887,-231.891 293.744,-237.534"/>
</g>
<!-- Node10&#45;&gt;Node1 -->
<g id="edge36" class="edge"><title>Node10&#45;&gt;Node1</title>
<path fill="none" stroke="midnightblue" d="M250.308,-212.978C260.407,-238.267 273.024,-280.897 275.852,-300.528"/>
<polygon fill="midnightblue" stroke="midnightblue" points="253.457,-211.439 246.31,-203.618 247.02,-214.189 253.457,-211.439"/>
</g>
<!-- Node10&#45;&gt;Node2 -->
<g id="edge32" class="edge"><title>Node10&#45;&gt;Node2</title>
<path fill="none" stroke="midnightblue" d="M243.798,-170.595C246.279,-156.075 247.727,-136.328 242,-120 225.889,-74.0697 176.572,-39.5991 149.058,-23.3438"/>
<polygon fill="midnightblue" stroke="midnightblue" points="240.339,-170.042 241.801,-180.536 247.202,-171.421 240.339,-170.042"/>
</g>
<!-- Node10&#45;&gt;Node3 -->
<g id="edge34" class="edge"><title>Node10&#45;&gt;Node3</title>
<path fill="none" stroke="midnightblue" d="M216.345,-174.778C202.352,-164.758 184.807,-152.195 172.629,-143.475"/>
<polygon fill="midnightblue" stroke="midnightblue" points="214.351,-177.655 224.519,-180.631 218.426,-171.963 214.351,-177.655"/>
</g>
<!-- Node10&#45;&gt;Node4 -->
<g id="edge40" class="edge"><title>Node10&#45;&gt;Node4</title>
<path fill="none" stroke="midnightblue" d="M238.59,-170.627C237.302,-155.257 233.354,-134.427 222,-120 208.024,-102.241 185.519,-90.5777 166.266,-83.3119"/>
<polygon fill="midnightblue" stroke="midnightblue" points="235.098,-170.883 239.125,-180.683 242.088,-170.511 235.098,-170.883"/>
</g>
<!-- Node10&#45;&gt;Node9 -->
<g id="edge38" class="edge"><title>Node10&#45;&gt;Node9</title>
<path fill="none" stroke="midnightblue" d="M277.038,-177.125C305.474,-166.752 343.737,-152.794 369.552,-143.377"/>
<polygon fill="midnightblue" stroke="midnightblue" points="275.621,-173.916 267.426,-180.631 278.02,-180.492 275.621,-173.916"/>
</g>
</g>
</svg>
