<?xml version="1.0" encoding="UTF-8" standalone="no"?>
<!DOCTYPE svg PUBLIC "-//W3C//DTD SVG 1.1//EN"
 "http://www.w3.org/Graphics/SVG/1.1/DTD/svg11.dtd">
<!-- Generated by graphviz version 2.28.0 (20121015.0031)
 -->
<!-- Title: include/fa.h Pages: 1 -->
<svg width="648pt" height="272pt"
 viewBox="0.00 0.00 648.00 272.00" xmlns="http://www.w3.org/2000/svg" xmlns:xlink="http://www.w3.org/1999/xlink">
<g id="graph1" class="graph" transform="scale(1 1) rotate(0) translate(4 268)">
<title>include/fa.h</title>
<!-- Node1 -->
<g id="node1" class="node"><title>Node1</title>
<polygon fill="#bfbfbf" stroke="black" points="365.71,-240.695 365.71,-263.305 442.29,-263.305 442.29,-240.695 365.71,-240.695"/>
<text text-anchor="middle" x="404" y="-248.305" font-family="Futura" font-size="11.00">include/fa.h</text>
</g>
<!-- Node2 -->
<g id="node3" class="node"><title>Node2</title>
<a xlink:href="directory_8h.html" target="_top" xlink:title="include/fa/system/directory.h">
<polygon fill="none" stroke="black" points="234.452,-180.695 234.452,-203.305 399.548,-203.305 399.548,-180.695 234.452,-180.695"/>
<text text-anchor="middle" x="317" y="-188.305" font-family="Futura" font-size="11.00">include/fa/system/directory.h</text>
</a>
</g>
<!-- Node1&#45;&gt;Node2 -->
<g id="edge2" class="edge"><title>Node1&#45;&gt;Node2</title>
<path fill="none" stroke="midnightblue" d="M380.091,-235.061C364.993,-224.996 345.916,-212.277 332.713,-203.475"/>
<polygon fill="midnightblue" stroke="midnightblue" points="378.184,-237.996 388.446,-240.631 382.067,-232.172 378.184,-237.996"/>
</g>
<!-- Node10 -->
<g id="node21" class="node"><title>Node10</title>
<a xlink:href="event_8h.html" target="_top" xlink:title="include/fa/system/event.h">
<polygon fill="none" stroke="black" points="417.432,-180.695 417.432,-203.305 564.568,-203.305 564.568,-180.695 417.432,-180.695"/>
<text text-anchor="middle" x="491" y="-188.305" font-family="Futura" font-size="11.00">include/fa/system/event.h</text>
</a>
</g>
<!-- Node1&#45;&gt;Node10 -->
<g id="edge22" class="edge"><title>Node1&#45;&gt;Node10</title>
<path fill="none" stroke="midnightblue" d="M427.909,-235.061C443.007,-224.996 462.084,-212.277 475.287,-203.475"/>
<polygon fill="midnightblue" stroke="midnightblue" points="425.933,-232.172 419.554,-240.631 429.816,-237.996 425.933,-232.172"/>
</g>
<!-- Node3 -->
<g id="node5" class="node"><title>Node3</title>
<a xlink:href="system_8h.html" target="_top" xlink:title="include/fa/system.h">
<polygon fill="none" stroke="black" points="259.462,-120.695 259.462,-143.305 374.538,-143.305 374.538,-120.695 259.462,-120.695"/>
<text text-anchor="middle" x="317" y="-128.305" font-family="Futura" font-size="11.00">include/fa/system.h</text>
</a>
</g>
<!-- Node2&#45;&gt;Node3 -->
<g id="edge4" class="edge"><title>Node2&#45;&gt;Node3</title>
<path fill="none" stroke="midnightblue" d="M317,-170.459C317,-161.411 317,-151.16 317,-143.672"/>
<polygon fill="midnightblue" stroke="midnightblue" points="313.5,-170.631 317,-180.631 320.5,-170.631 313.5,-170.631"/>
</g>
<!-- Node4 -->
<g id="node7" class="node"><title>Node4</title>
<a xlink:href="fa_2fa_8h.html" target="_top" xlink:title="include/fa/fa.h">
<polygon fill="none" stroke="red" points="270.846,-60.6953 270.846,-83.3047 363.154,-83.3047 363.154,-60.6953 270.846,-60.6953"/>
<text text-anchor="middle" x="317" y="-68.3047" font-family="Futura" font-size="11.00">include/fa/fa.h</text>
</a>
</g>
<!-- Node3&#45;&gt;Node4 -->
<g id="edge6" class="edge"><title>Node3&#45;&gt;Node4</title>
<path fill="none" stroke="midnightblue" d="M317,-110.459C317,-101.411 317,-91.1602 317,-83.6719"/>
<polygon fill="midnightblue" stroke="midnightblue" points="313.5,-110.631 317,-120.631 320.5,-110.631 313.5,-110.631"/>
</g>
<!-- Node5 -->
<g id="node9" class="node"><title>Node5</title>
<a xlink:href="action_8h.html" target="_top" xlink:title="include/fa/action.h">
<polygon fill="none" stroke="red" points="-0.253906,-0.695312 -0.253906,-23.3047 112.254,-23.3047 112.254,-0.695312 -0.253906,-0.695312"/>
<text text-anchor="middle" x="56" y="-8.30469" font-family="Futura" font-size="11.00">include/fa/action.h</text>
</a>
</g>
<!-- Node4&#45;&gt;Node5 -->
<g id="edge8" class="edge"><title>Node4&#45;&gt;Node5</title>
<path fill="none" stroke="midnightblue" d="M260.696,-59.705C211.472,-49.1559 141.273,-33.5436 97.1382,-23.3212"/>
<polygon fill="midnightblue" stroke="midnightblue" points="260.045,-63.1448 270.555,-61.8097 261.506,-56.299 260.045,-63.1448"/>
</g>
<!-- Node6 -->
<g id="node12" class="node"><title>Node6</title>
<a xlink:href="buffer_8h.html" target="_top" xlink:title="include/fa/buffer.h">
<polygon fill="none" stroke="red" points="130.227,-0.695312 130.227,-23.3047 241.773,-23.3047 241.773,-0.695312 130.227,-0.695312"/>
<text text-anchor="middle" x="186" y="-8.30469" font-family="Futura" font-size="11.00">include/fa/buffer.h</text>
</a>
</g>
<!-- Node4&#45;&gt;Node6 -->
<g id="edge12" class="edge"><title>Node4&#45;&gt;Node6</title>
<path fill="none" stroke="midnightblue" d="M284.146,-56.4538C260.97,-46.1929 230.469,-32.6885 209.659,-23.475"/>
<polygon fill="midnightblue" stroke="midnightblue" points="283.019,-59.7826 293.58,-60.6308 285.853,-53.3819 283.019,-59.7826"/>
</g>
<!-- Node7 -->
<g id="node14" class="node"><title>Node7</title>
<a xlink:href="device_8h.html" target="_top" xlink:title="include/fa/device.h">
<polygon fill="none" stroke="red" points="259.817,-0.695312 259.817,-23.3047 374.183,-23.3047 374.183,-0.695312 259.817,-0.695312"/>
<text text-anchor="middle" x="317" y="-8.30469" font-family="Futura" font-size="11.00">include/fa/device.h</text>
</a>
</g>
<!-- Node4&#45;&gt;Node7 -->
<g id="edge14" class="edge"><title>Node4&#45;&gt;Node7</title>
<path fill="none" stroke="midnightblue" d="M317,-50.4586C317,-41.4112 317,-31.1602 317,-23.6719"/>
<polygon fill="midnightblue" stroke="midnightblue" points="313.5,-50.6307 317,-60.6308 320.5,-50.6308 313.5,-50.6307"/>
</g>
<!-- Node8 -->
<g id="node16" class="node"><title>Node8</title>
<a xlink:href="dynamic_8h.html" target="_top" xlink:title="include/fa/dynamic.h">
<polygon fill="none" stroke="black" points="391.918,-0.695312 391.918,-23.3047 516.082,-23.3047 516.082,-0.695312 391.918,-0.695312"/>
<text text-anchor="middle" x="454" y="-8.30469" font-family="Futura" font-size="11.00">include/fa/dynamic.h</text>
</a>
</g>
<!-- Node4&#45;&gt;Node8 -->
<g id="edge16" class="edge"><title>Node4&#45;&gt;Node8</title>
<path fill="none" stroke="midnightblue" d="M350.712,-56.7278C375.026,-46.4343 407.3,-32.7708 429.257,-23.475"/>
<polygon fill="midnightblue" stroke="midnightblue" points="349.337,-53.509 341.493,-60.6308 352.066,-59.9552 349.337,-53.509"/>
</g>
<!-- Node9 -->
<g id="node18" class="node"><title>Node9</title>
<a xlink:href="error_8h.html" target="_top" xlink:title="include/fa/error.h">
<polygon fill="none" stroke="red" points="533.598,-0.695312 533.598,-23.3047 640.402,-23.3047 640.402,-0.695312 533.598,-0.695312"/>
<text text-anchor="middle" x="587" y="-8.30469" font-family="Futura" font-size="11.00">include/fa/error.h</text>
</a>
</g>
<!-- Node4&#45;&gt;Node9 -->
<g id="edge18" class="edge"><title>Node4&#45;&gt;Node9</title>
<path fill="none" stroke="midnightblue" d="M369.991,-58.3964C417.234,-47.9177 485.939,-33.1848 533.376,-23.3771"/>
<polygon fill="midnightblue" stroke="midnightblue" points="368.955,-55.0412 359.955,-60.6308 370.476,-61.8739 368.955,-55.0412"/>
</g>
<!-- Node5&#45;&gt;Node4 -->
<g id="edge10" class="edge"><title>Node5&#45;&gt;Node4</title>
<path fill="none" stroke="midnightblue" d="M117.824,-25.4803C166.582,-35.9694 233.135,-50.7846 275.654,-60.6308"/>
<polygon fill="midnightblue" stroke="midnightblue" points="118.526,-22.0512 108.014,-23.3771 117.058,-28.8957 118.526,-22.0512"/>
</g>
<!-- Node9&#45;&gt;Node4 -->
<g id="edge20" class="edge"><title>Node9&#45;&gt;Node4</title>
<path fill="none" stroke="midnightblue" d="M534.252,-25.5497C484.522,-36.5821 410.853,-52.3605 363.324,-62.1279"/>
<polygon fill="midnightblue" stroke="midnightblue" points="535.173,-28.9305 544.173,-23.3406 533.652,-22.0978 535.173,-28.9305"/>
</g>
</g>
</svg>
