<?xml version="1.0" encoding="UTF-8" standalone="no"?>
<!DOCTYPE svg PUBLIC "-//W3C//DTD SVG 1.1//EN"
 "http://www.w3.org/Graphics/SVG/1.1/DTD/svg11.dtd">
<!-- Generated by graphviz version 2.28.0 (20121015.0031)
 -->
<!-- Title: include/fa.h Pages: 1 -->
<svg width="619pt" height="286pt"
 viewBox="0.00 0.00 619.00 286.00" xmlns="http://www.w3.org/2000/svg" xmlns:xlink="http://www.w3.org/1999/xlink">
<g id="graph1" class="graph" transform="scale(1 1) rotate(0) translate(4 282)">
<title>include/fa.h</title>
<!-- Node1 -->
<g id="node1" class="node"><title>Node1</title>
<polygon fill="#bfbfbf" stroke="black" points="175.71,-254.695 175.71,-277.305 252.29,-277.305 252.29,-254.695 175.71,-254.695"/>
<text text-anchor="middle" x="214" y="-262.305" font-family="Futura" font-size="11.00">include/fa.h</text>
</g>
<!-- Node2 -->
<g id="node3" class="node"><title>Node2</title>
<a xlink:href="queue_8h.html" target="_top" xlink:title="include/fa/atomic/queue.h">
<polygon fill="none" stroke="black" points="-0.914795,-127.695 -0.914795,-150.305 150.915,-150.305 150.915,-127.695 -0.914795,-127.695"/>
<text text-anchor="middle" x="75" y="-135.305" font-family="Futura" font-size="11.00">include/fa/atomic/queue.h</text>
</a>
</g>
<!-- Node1&#45;&gt;Node2 -->
<g id="edge2" class="edge"><title>Node1&#45;&gt;Node2</title>
<path fill="none" stroke="midnightblue" d="M176.842,-250.601C159.744,-242.735 139.979,-231.769 125,-218 103.329,-198.08 87.0904,-166.781 79.5918,-150.551"/>
<polygon fill="midnightblue" stroke="midnightblue" points="175.458,-253.815 186.02,-254.649 178.283,-247.411 175.458,-253.815"/>
</g>
<!-- Node6 -->
<g id="node13" class="node"><title>Node6</title>
<a xlink:href="ring__buffer_8h.html" target="_top" xlink:title="include/fa/atomic/ring\l_buffer.h">
<polygon fill="none" stroke="black" points="168.419,-120.391 168.419,-157.609 299.581,-157.609 299.581,-120.391 168.419,-120.391"/>
<text text-anchor="start" x="176.419" y="-142.609" font-family="Futura" font-size="11.00">include/fa/atomic/ring</text>
<text text-anchor="middle" x="234" y="-128" font-family="Futura" font-size="11.00">_buffer.h</text>
</a>
</g>
<!-- Node1&#45;&gt;Node6 -->
<g id="edge14" class="edge"><title>Node1&#45;&gt;Node6</title>
<path fill="none" stroke="midnightblue" d="M175.242,-250.677C147.555,-238.063 117.557,-217.988 132,-194 141.87,-177.607 158.571,-165.93 175.632,-157.731"/>
<polygon fill="midnightblue" stroke="midnightblue" points="173.907,-253.913 184.475,-254.664 176.682,-247.487 173.907,-253.913"/>
</g>
<!-- Node7 -->
<g id="node16" class="node"><title>Node7</title>
<a xlink:href="stack_8h.html" target="_top" xlink:title="include/fa/atomic/stack.h">
<polygon fill="none" stroke="black" points="140.857,-194.695 140.857,-217.305 287.143,-217.305 287.143,-194.695 140.857,-194.695"/>
<text text-anchor="middle" x="214" y="-202.305" font-family="Futura" font-size="11.00">include/fa/atomic/stack.h</text>
</a>
</g>
<!-- Node1&#45;&gt;Node7 -->
<g id="edge18" class="edge"><title>Node1&#45;&gt;Node7</title>
<path fill="none" stroke="midnightblue" d="M214,-244.459C214,-235.411 214,-225.16 214,-217.672"/>
<polygon fill="midnightblue" stroke="midnightblue" points="210.5,-244.631 214,-254.631 217.5,-244.631 210.5,-244.631"/>
</g>
<!-- Node8 -->
<g id="node19" class="node"><title>Node8</title>
<a xlink:href="left_8h.html" target="_top" xlink:title="include/fa/pair/left.h">
<polygon fill="none" stroke="black" points="305.241,-194.695 305.241,-217.305 428.759,-217.305 428.759,-194.695 305.241,-194.695"/>
<text text-anchor="middle" x="367" y="-202.305" font-family="Futura" font-size="11.00">include/fa/pair/left.h</text>
</a>
</g>
<!-- Node1&#45;&gt;Node8 -->
<g id="edge22" class="edge"><title>Node1&#45;&gt;Node8</title>
<path fill="none" stroke="midnightblue" d="M250.961,-250.989C278.286,-240.63 314.893,-226.753 339.626,-217.377"/>
<polygon fill="midnightblue" stroke="midnightblue" points="249.463,-247.813 241.353,-254.631 251.945,-254.359 249.463,-247.813"/>
</g>
<!-- Node9 -->
<g id="node22" class="node"><title>Node9</title>
<a xlink:href="directory_8h.html" target="_top" xlink:title="include/fa/system/directory.h">
<polygon fill="none" stroke="black" points="446.452,-194.695 446.452,-217.305 611.548,-217.305 611.548,-194.695 446.452,-194.695"/>
<text text-anchor="middle" x="529" y="-202.305" font-family="Futura" font-size="11.00">include/fa/system/directory.h</text>
</a>
</g>
<!-- Node1&#45;&gt;Node9 -->
<g id="edge26" class="edge"><title>Node1&#45;&gt;Node9</title>
<path fill="none" stroke="midnightblue" d="M262.46,-256.077C319.216,-245.627 413.071,-228.346 472.923,-217.325"/>
<polygon fill="midnightblue" stroke="midnightblue" points="261.511,-252.693 252.31,-257.946 262.779,-259.577 261.511,-252.693"/>
</g>
<!-- Node3 -->
<g id="node5" class="node"><title>Node3</title>
<a xlink:href="fa_2fa_8h.html" target="_top" xlink:title="include/fa/fa.h">
<polygon fill="none" stroke="red" points="281.846,-60.6953 281.846,-83.3047 374.154,-83.3047 374.154,-60.6953 281.846,-60.6953"/>
<text text-anchor="middle" x="328" y="-68.3047" font-family="Futura" font-size="11.00">include/fa/fa.h</text>
</a>
</g>
<!-- Node2&#45;&gt;Node3 -->
<g id="edge4" class="edge"><title>Node2&#45;&gt;Node3</title>
<path fill="none" stroke="midnightblue" d="M125.177,-125.109C172.871,-112.855 243.68,-94.6632 287.775,-83.3344"/>
<polygon fill="midnightblue" stroke="midnightblue" points="124.183,-121.75 115.368,-127.629 125.925,-128.53 124.183,-121.75"/>
</g>
<!-- Node4 -->
<g id="node7" class="node"><title>Node4</title>
<a xlink:href="action_8h.html" target="_top" xlink:title="include/fa/action.h">
<polygon fill="none" stroke="red" points="205.746,-0.695312 205.746,-23.3047 318.254,-23.3047 318.254,-0.695312 205.746,-0.695312"/>
<text text-anchor="middle" x="262" y="-8.30469" font-family="Futura" font-size="11.00">include/fa/action.h</text>
</a>
</g>
<!-- Node3&#45;&gt;Node4 -->
<g id="edge6" class="edge"><title>Node3&#45;&gt;Node4</title>
<path fill="none" stroke="midnightblue" d="M302.757,-54.2508C290.576,-44.3965 277.003,-32.23 268.774,-23.6719"/>
<polygon fill="midnightblue" stroke="midnightblue" points="300.858,-57.2091 310.885,-60.6308 305.18,-51.7029 300.858,-57.2091"/>
</g>
<!-- Node5 -->
<g id="node10" class="node"><title>Node5</title>
<a xlink:href="atomic_8h.html" target="_top" xlink:title="include/fa/atomic.h">
<polygon fill="none" stroke="black" points="336.374,-0.695312 336.374,-23.3047 451.626,-23.3047 451.626,-0.695312 336.374,-0.695312"/>
<text text-anchor="middle" x="394" y="-8.30469" font-family="Futura" font-size="11.00">include/fa/atomic.h</text>
</a>
</g>
<!-- Node3&#45;&gt;Node5 -->
<g id="edge10" class="edge"><title>Node3&#45;&gt;Node5</title>
<path fill="none" stroke="midnightblue" d="M341.823,-53.3437C352.06,-43.5816 365.797,-31.7836 376.745,-23.475"/>
<polygon fill="midnightblue" stroke="midnightblue" points="339.114,-51.1014 334.484,-60.6308 344.046,-56.0689 339.114,-51.1014"/>
</g>
<!-- Node4&#45;&gt;Node3 -->
<g id="edge8" class="edge"><title>Node4&#45;&gt;Node3</title>
<path fill="none" stroke="midnightblue" d="M287.448,-29.9149C299.72,-39.8566 313.364,-52.1061 321.516,-60.6308"/>
<polygon fill="midnightblue" stroke="midnightblue" points="289.28,-26.9033 279.255,-23.475 284.954,-32.4066 289.28,-26.9033"/>
</g>
<!-- Node5&#45;&gt;Node3 -->
<g id="edge12" class="edge"><title>Node5&#45;&gt;Node3</title>
<path fill="none" stroke="midnightblue" d="M379.854,-30.9633C369.609,-40.7066 355.972,-52.4034 345.115,-60.6308"/>
<polygon fill="midnightblue" stroke="midnightblue" points="382.578,-33.1925 387.226,-23.6719 377.655,-28.2156 382.578,-33.1925"/>
</g>
<!-- Node6&#45;&gt;Node3 -->
<g id="edge16" class="edge"><title>Node6&#45;&gt;Node3</title>
<path fill="none" stroke="midnightblue" d="M267.989,-114.497C283.392,-103.846 300.82,-91.7945 312.91,-83.4344"/>
<polygon fill="midnightblue" stroke="midnightblue" points="265.92,-111.672 259.686,-120.238 269.902,-117.43 265.92,-111.672"/>
</g>
<!-- Node7&#45;&gt;Node3 -->
<g id="edge20" class="edge"><title>Node7&#45;&gt;Node3</title>
<path fill="none" stroke="midnightblue" d="M261.311,-190.84C278.296,-183.558 296.159,-172.973 308,-158 325.585,-135.764 328.151,-100.659 328.257,-83.3501"/>
<polygon fill="midnightblue" stroke="midnightblue" points="259.999,-187.595 252.009,-194.553 262.594,-194.097 259.999,-187.595"/>
</g>
<!-- Node8&#45;&gt;Node3 -->
<g id="edge24" class="edge"><title>Node8&#45;&gt;Node3</title>
<path fill="none" stroke="midnightblue" d="M360.988,-184.486C355.936,-167.266 348.518,-142.02 342,-120 338.279,-107.428 333.968,-92.9731 331.124,-83.4506"/>
<polygon fill="midnightblue" stroke="midnightblue" points="357.76,-185.917 363.933,-194.528 364.477,-183.947 357.76,-185.917"/>
</g>
<!-- Node10 -->
<g id="node24" class="node"><title>Node10</title>
<a xlink:href="system_8h.html" target="_top" xlink:title="include/fa/system.h">
<polygon fill="none" stroke="black" points="432.462,-127.695 432.462,-150.305 547.538,-150.305 547.538,-127.695 432.462,-127.695"/>
<text text-anchor="middle" x="490" y="-135.305" font-family="Futura" font-size="11.00">include/fa/system.h</text>
</a>
</g>
<!-- Node9&#45;&gt;Node10 -->
<g id="edge28" class="edge"><title>Node9&#45;&gt;Node10</title>
<path fill="none" stroke="midnightblue" d="M517.421,-185.702C510.539,-174.231 502.07,-160.116 496.38,-150.633"/>
<polygon fill="midnightblue" stroke="midnightblue" points="514.588,-187.782 522.734,-194.557 520.59,-184.181 514.588,-187.782"/>
</g>
<!-- Node10&#45;&gt;Node3 -->
<g id="edge30" class="edge"><title>Node10&#45;&gt;Node3</title>
<path fill="none" stroke="midnightblue" d="M454.569,-123.784C424.116,-111.565 380.926,-94.2359 353.696,-83.3101"/>
<polygon fill="midnightblue" stroke="midnightblue" points="453.388,-127.081 463.972,-127.557 455.994,-120.584 453.388,-127.081"/>
</g>
</g>
</svg>
