<?xml version="1.0" encoding="UTF-8" standalone="no"?>
<!DOCTYPE svg PUBLIC "-//W3C//DTD SVG 1.1//EN"
 "http://www.w3.org/Graphics/SVG/1.1/DTD/svg11.dtd">
<!-- Generated by graphviz version 2.28.0 (20121015.0031)
 -->
<!-- Title: include/fae.h Pages: 1 -->
<svg width="691pt" height="226pt"
 viewBox="0.00 0.00 691.00 226.00" xmlns="http://www.w3.org/2000/svg" xmlns:xlink="http://www.w3.org/1999/xlink">
<g id="graph1" class="graph" transform="scale(1 1) rotate(0) translate(4 222)">
<title>include/fae.h</title>
<!-- Node1 -->
<g id="node1" class="node"><title>Node1</title>
<polygon fill="#bfbfbf" stroke="black" points="337.667,-194.695 337.667,-217.305 420.333,-217.305 420.333,-194.695 337.667,-194.695"/>
<text text-anchor="middle" x="379" y="-202.305" font-family="Futura" font-size="11.00">include/fae.h</text>
</g>
<!-- Node2 -->
<g id="node3" class="node"><title>Node2</title>
<a xlink:href="stack_8h.html" target="_top" xlink:title="include/fae/atomic\l/stack.h">
<polygon fill="none" stroke="black" points="-0.955811,-120.391 -0.955811,-157.609 110.956,-157.609 110.956,-120.391 -0.955811,-120.391"/>
<text text-anchor="start" x="7.04419" y="-142.609" font-family="Futura" font-size="11.00">include/fae/atomic</text>
<text text-anchor="middle" x="55" y="-128" font-family="Futura" font-size="11.00">/stack.h</text>
</a>
</g>
<!-- Node1&#45;&gt;Node2 -->
<g id="edge2" class="edge"><title>Node1&#45;&gt;Node2</title>
<path fill="none" stroke="midnightblue" d="M327.429,-197.055C274.957,-188.641 191.418,-174.333 120,-158 117.146,-157.347 114.23,-156.651 111.291,-155.924"/>
<polygon fill="midnightblue" stroke="midnightblue" points="327.07,-200.542 337.496,-198.658 328.171,-193.629 327.07,-200.542"/>
</g>
<!-- Node5 -->
<g id="node9" class="node"><title>Node5</title>
<a xlink:href="directory_8h.html" target="_top" xlink:title="include/fae/system\l/directory.h">
<polygon fill="none" stroke="black" points="129.133,-120.391 129.133,-157.609 240.867,-157.609 240.867,-120.391 129.133,-120.391"/>
<text text-anchor="start" x="137.133" y="-142.609" font-family="Futura" font-size="11.00">include/fae/system</text>
<text text-anchor="middle" x="185" y="-128" font-family="Futura" font-size="11.00">/directory.h</text>
</a>
</g>
<!-- Node1&#45;&gt;Node5 -->
<g id="edge8" class="edge"><title>Node1&#45;&gt;Node5</title>
<path fill="none" stroke="midnightblue" d="M338.336,-191.375C309.078,-181.572 269.354,-168.263 237.669,-157.647"/>
<polygon fill="midnightblue" stroke="midnightblue" points="337.237,-194.698 347.831,-194.557 339.461,-188.061 337.237,-194.698"/>
</g>
<!-- Node7 -->
<g id="node14" class="node"><title>Node7</title>
<a xlink:href="event_8h.html" target="_top" xlink:title="include/fae/system\l/event.h">
<polygon fill="none" stroke="red" points="259.133,-120.391 259.133,-157.609 370.867,-157.609 370.867,-120.391 259.133,-120.391"/>
<text text-anchor="start" x="267.133" y="-142.609" font-family="Futura" font-size="11.00">include/fae/system</text>
<text text-anchor="middle" x="315" y="-128" font-family="Futura" font-size="11.00">/event.h</text>
</a>
</g>
<!-- Node1&#45;&gt;Node7 -->
<g id="edge14" class="edge"><title>Node1&#45;&gt;Node7</title>
<path fill="none" stroke="midnightblue" d="M361.673,-187.402C352.624,-178.212 341.576,-166.992 332.502,-157.775"/>
<polygon fill="midnightblue" stroke="midnightblue" points="359.207,-189.887 368.717,-194.557 364.195,-184.975 359.207,-189.887"/>
</g>
<!-- Node8 -->
<g id="node17" class="node"><title>Node8</title>
<a xlink:href="dynamic_8c.html" target="_top" xlink:title="src/fae/dynamic.c">
<polygon fill="none" stroke="black" points="389.123,-127.695 389.123,-150.305 496.877,-150.305 496.877,-127.695 389.123,-127.695"/>
<text text-anchor="middle" x="443" y="-135.305" font-family="Futura" font-size="11.00">src/fae/dynamic.c</text>
</a>
</g>
<!-- Node1&#45;&gt;Node8 -->
<g id="edge18" class="edge"><title>Node1&#45;&gt;Node8</title>
<path fill="none" stroke="midnightblue" d="M396.327,-187.402C407.894,-175.654 422.727,-160.59 432.53,-150.633"/>
<polygon fill="midnightblue" stroke="midnightblue" points="393.805,-184.975 389.283,-194.557 398.793,-189.887 393.805,-184.975"/>
</g>
<!-- Node9 -->
<g id="node19" class="node"><title>Node9</title>
<a xlink:href="error_8c.html" target="_top" xlink:title="src/fae/error.c">
<polygon fill="none" stroke="black" points="514.802,-127.695 514.802,-150.305 605.198,-150.305 605.198,-127.695 514.802,-127.695"/>
<text text-anchor="middle" x="560" y="-135.305" font-family="Futura" font-size="11.00">src/fae/error.c</text>
</a>
</g>
<!-- Node1&#45;&gt;Node9 -->
<g id="edge20" class="edge"><title>Node1&#45;&gt;Node9</title>
<path fill="none" stroke="midnightblue" d="M417.706,-191.1C451.774,-178.866 500.603,-161.33 531.29,-150.31"/>
<polygon fill="midnightblue" stroke="midnightblue" points="416.309,-187.883 408.081,-194.557 418.675,-194.471 416.309,-187.883"/>
</g>
<!-- Node10 -->
<g id="node21" class="node"><title>Node10</title>
<a xlink:href="fae_8c.html" target="_top" xlink:title="src/fae.c">
<polygon fill="none" stroke="black" points="622.914,-127.695 622.914,-150.305 683.086,-150.305 683.086,-127.695 622.914,-127.695"/>
<text text-anchor="middle" x="653" y="-135.305" font-family="Futura" font-size="11.00">src/fae.c</text>
</a>
</g>
<!-- Node1&#45;&gt;Node10 -->
<g id="edge22" class="edge"><title>Node1&#45;&gt;Node10</title>
<path fill="none" stroke="midnightblue" d="M430.696,-198.233C478.914,-191.089 552.45,-178.049 614,-158 620.24,-155.967 626.798,-153.205 632.718,-150.455"/>
<polygon fill="midnightblue" stroke="midnightblue" points="429.899,-194.812 420.505,-199.711 430.904,-201.739 429.899,-194.812"/>
</g>
<!-- Node3 -->
<g id="node5" class="node"><title>Node3</title>
<a xlink:href="fae_2fae_8h.html" target="_top" xlink:title="include/fae/fae.h">
<polygon fill="none" stroke="red" points="74.761,-0.695312 74.761,-23.3047 179.239,-23.3047 179.239,-0.695312 74.761,-0.695312"/>
<text text-anchor="middle" x="127" y="-8.30469" font-family="Futura" font-size="11.00">include/fae/fae.h</text>
</a>
</g>
<!-- Node2&#45;&gt;Node3 -->
<g id="edge4" class="edge"><title>Node2&#45;&gt;Node3</title>
<path fill="none" stroke="midnightblue" d="M34.67,-111.505C25.2078,-95.7384 18.0139,-75.7953 28,-60 39.6414,-41.5865 60.6739,-30.2423 80.3679,-23.3272"/>
<polygon fill="midnightblue" stroke="midnightblue" points="31.9847,-113.793 40.3906,-120.242 37.8412,-109.959 31.9847,-113.793"/>
</g>
<!-- Node4 -->
<g id="node7" class="node"><title>Node4</title>
<a xlink:href="stack_8c.html" target="_top" xlink:title="src/fae/atomic/stack.c">
<polygon fill="none" stroke="black" points="37.061,-60.6953 37.061,-83.3047 166.939,-83.3047 166.939,-60.6953 37.061,-60.6953"/>
<text text-anchor="middle" x="102" y="-68.3047" font-family="Futura" font-size="11.00">src/fae/atomic/stack.c</text>
</a>
</g>
<!-- Node2&#45;&gt;Node4 -->
<g id="edge6" class="edge"><title>Node2&#45;&gt;Node4</title>
<path fill="none" stroke="midnightblue" d="M73.8985,-111.864C81.0417,-101.985 88.7753,-91.2895 94.3178,-83.6243"/>
<polygon fill="midnightblue" stroke="midnightblue" points="70.8662,-110.084 67.843,-120.238 76.5387,-114.186 70.8662,-110.084"/>
</g>
<!-- Node6 -->
<g id="node11" class="node"><title>Node6</title>
<a xlink:href="system_8h.html" target="_top" xlink:title="include/fae/system.h">
<polygon fill="none" stroke="red" points="185.42,-60.6953 185.42,-83.3047 306.58,-83.3047 306.58,-60.6953 185.42,-60.6953"/>
<text text-anchor="middle" x="246" y="-68.3047" font-family="Futura" font-size="11.00">include/fae/system.h</text>
</a>
</g>
<!-- Node5&#45;&gt;Node6 -->
<g id="edge10" class="edge"><title>Node5&#45;&gt;Node6</title>
<path fill="none" stroke="midnightblue" d="M208.687,-112.76C218.188,-102.636 228.618,-91.5218 236.029,-83.6243"/>
<polygon fill="midnightblue" stroke="midnightblue" points="205.96,-110.551 201.669,-120.238 211.064,-115.342 205.96,-110.551"/>
</g>
<!-- Node6&#45;&gt;Node3 -->
<g id="edge12" class="edge"><title>Node6&#45;&gt;Node3</title>
<path fill="none" stroke="midnightblue" d="M215.59,-56.1782C194.609,-45.952 167.227,-32.6062 148.492,-23.475"/>
<polygon fill="midnightblue" stroke="midnightblue" points="214.203,-59.3956 224.725,-60.6308 217.269,-53.1032 214.203,-59.3956"/>
</g>
<!-- Node7&#45;&gt;Node6 -->
<g id="edge16" class="edge"><title>Node7&#45;&gt;Node6</title>
<path fill="none" stroke="midnightblue" d="M288.837,-113.354C277.924,-103.073 265.826,-91.6766 257.278,-83.6243"/>
<polygon fill="midnightblue" stroke="midnightblue" points="286.467,-115.929 296.145,-120.238 291.266,-110.834 286.467,-115.929"/>
</g>
</g>
</svg>
