<?xml version="1.0" encoding="UTF-8" standalone="no"?>
<!DOCTYPE svg PUBLIC "-//W3C//DTD SVG 1.1//EN"
 "http://www.w3.org/Graphics/SVG/1.1/DTD/svg11.dtd">
<!-- Generated by graphviz version 2.28.0 (20121015.0031)
 -->
<!-- Title: src/fae/fae.c Pages: 1 -->
<svg width="610pt" height="152pt"
 viewBox="0.00 0.00 610.00 152.00" xmlns="http://www.w3.org/2000/svg" xmlns:xlink="http://www.w3.org/1999/xlink">
<g id="graph1" class="graph" transform="scale(1 1) rotate(0) translate(4 148)">
<title>src/fae/fae.c</title>
<!-- Node1 -->
<g id="node1" class="node"><title>Node1</title>
<polygon fill="#bfbfbf" stroke="black" points="301.008,-120.695 301.008,-143.305 382.992,-143.305 382.992,-120.695 301.008,-120.695"/>
<text text-anchor="middle" x="342" y="-128.305" font-family="Futura" font-size="11.00">src/fae/fae.c</text>
</g>
<!-- Node2 -->
<g id="node3" class="node"><title>Node2</title>
<a xlink:href="fae_2fae_8h.html" target="_top" xlink:title="fae/fae.h">
<polygon fill="none" stroke="red" points="191.324,-60.6953 191.324,-83.3047 254.676,-83.3047 254.676,-60.6953 191.324,-60.6953"/>
<text text-anchor="middle" x="223" y="-68.3047" font-family="Futura" font-size="11.00">fae/fae.h</text>
</a>
</g>
<!-- Node1&#45;&gt;Node2 -->
<g id="edge2" class="edge"><title>Node1&#45;&gt;Node2</title>
<path fill="none" stroke="midnightblue" d="M320.725,-120.631C302.058,-111.532 274.685,-98.1908 253.654,-87.9407"/>
<polygon fill="midnightblue" stroke="midnightblue" points="255.014,-84.7101 244.492,-83.475 251.948,-91.0025 255.014,-84.7101"/>
</g>
<!-- Node8 -->
<g id="node16" class="node"><title>Node8</title>
<a xlink:href="util_8h.html" target="_top" xlink:title="fae/util.h">
<polygon fill="none" stroke="red" points="273.141,-60.6953 273.141,-83.3047 334.859,-83.3047 334.859,-60.6953 273.141,-60.6953"/>
<text text-anchor="middle" x="304" y="-68.3047" font-family="Futura" font-size="11.00">fae/util.h</text>
</a>
</g>
<!-- Node1&#45;&gt;Node8 -->
<g id="edge16" class="edge"><title>Node1&#45;&gt;Node8</title>
<path fill="none" stroke="midnightblue" d="M335.206,-120.631C330.029,-112.729 322.756,-101.628 316.533,-92.1298"/>
<polygon fill="midnightblue" stroke="midnightblue" points="319.4,-90.1184 310.992,-83.6719 313.545,-93.9546 319.4,-90.1184"/>
</g>
<!-- Node9 -->
<g id="node18" class="node"><title>Node9</title>
<polygon fill="none" stroke="#bfbfbf" points="352.871,-60.6953 352.871,-83.3047 407.129,-83.3047 407.129,-60.6953 352.871,-60.6953"/>
<text text-anchor="middle" x="380" y="-68.3047" font-family="Futura" font-size="11.00">unistd.h</text>
</g>
<!-- Node1&#45;&gt;Node9 -->
<g id="edge18" class="edge"><title>Node1&#45;&gt;Node9</title>
<path fill="none" stroke="midnightblue" d="M348.794,-120.631C353.971,-112.729 361.244,-101.628 367.467,-92.1298"/>
<polygon fill="midnightblue" stroke="midnightblue" points="370.455,-93.9546 373.008,-83.6719 364.6,-90.1184 370.455,-93.9546"/>
</g>
<!-- Node10 -->
<g id="node20" class="node"><title>Node10</title>
<polygon fill="none" stroke="#bfbfbf" points="425.132,-60.6953 425.132,-83.3047 480.868,-83.3047 480.868,-60.6953 425.132,-60.6953"/>
<text text-anchor="middle" x="453" y="-68.3047" font-family="Futura" font-size="11.00">config.h</text>
</g>
<!-- Node1&#45;&gt;Node10 -->
<g id="edge20" class="edge"><title>Node1&#45;&gt;Node10</title>
<path fill="none" stroke="midnightblue" d="M361.845,-120.631C379.1,-111.614 404.331,-98.4308 423.875,-88.2184"/>
<polygon fill="midnightblue" stroke="midnightblue" points="425.711,-91.2082 432.953,-83.475 422.469,-85.0041 425.711,-91.2082"/>
</g>
<!-- Node3 -->
<g id="node5" class="node"><title>Node3</title>
<a xlink:href="atomic_8h.html" target="_top" xlink:title="fae/atomic.h">
<polygon fill="none" stroke="red" points="-0.105713,-0.695312 -0.105713,-23.3047 80.1057,-23.3047 80.1057,-0.695312 -0.105713,-0.695312"/>
<text text-anchor="middle" x="40" y="-8.30469" font-family="Futura" font-size="11.00">fae/atomic.h</text>
</a>
</g>
<!-- Node2&#45;&gt;Node3 -->
<g id="edge4" class="edge"><title>Node2&#45;&gt;Node3</title>
<path fill="none" stroke="midnightblue" d="M191.042,-62.4419C159.255,-53.0181 110.742,-37.7347 77.2474,-26.6522"/>
<polygon fill="midnightblue" stroke="midnightblue" points="77.9635,-23.2016 67.3698,-23.3588 75.7493,-29.8422 77.9635,-23.2016"/>
</g>
<!-- Node4 -->
<g id="node8" class="node"><title>Node4</title>
<polygon fill="none" stroke="#bfbfbf" points="98.6057,-0.695312 98.6057,-23.3047 215.394,-23.3047 215.394,-0.695312 98.6057,-0.695312"/>
<text text-anchor="middle" x="157" y="-8.30469" font-family="Futura" font-size="11.00">fae/atomic/queue.h</text>
</g>
<!-- Node2&#45;&gt;Node4 -->
<g id="edge8" class="edge"><title>Node2&#45;&gt;Node4</title>
<path fill="none" stroke="midnightblue" d="M211.201,-60.6308C201.653,-52.2405 187.999,-40.242 176.785,-30.3869"/>
<polygon fill="midnightblue" stroke="midnightblue" points="178.966,-27.644 169.144,-23.6719 174.345,-32.9021 178.966,-27.644"/>
</g>
<!-- Node5 -->
<g id="node10" class="node"><title>Node5</title>
<a xlink:href="stack_8h.html" target="_top" xlink:title="fae/atomic/stack.h">
<polygon fill="none" stroke="red" points="233.377,-0.695312 233.377,-23.3047 344.623,-23.3047 344.623,-0.695312 233.377,-0.695312"/>
<text text-anchor="middle" x="289" y="-8.30469" font-family="Futura" font-size="11.00">fae/atomic/stack.h</text>
</a>
</g>
<!-- Node2&#45;&gt;Node5 -->
<g id="edge10" class="edge"><title>Node2&#45;&gt;Node5</title>
<path fill="none" stroke="midnightblue" d="M234.799,-60.6308C244.347,-52.2405 258.001,-40.242 269.215,-30.3869"/>
<polygon fill="midnightblue" stroke="midnightblue" points="271.655,-32.9021 276.856,-23.6719 267.034,-27.644 271.655,-32.9021"/>
</g>
<!-- Node6 -->
<g id="node12" class="node"><title>Node6</title>
<polygon fill="none" stroke="#bfbfbf" points="362.483,-0.695312 362.483,-23.3047 503.517,-23.3047 503.517,-0.695312 362.483,-0.695312"/>
<text text-anchor="middle" x="433" y="-8.30469" font-family="Futura" font-size="11.00">fae/atomic/ring_buffer.h</text>
</g>
<!-- Node2&#45;&gt;Node6 -->
<g id="edge12" class="edge"><title>Node2&#45;&gt;Node6</title>
<path fill="none" stroke="midnightblue" d="M254.894,-62.191C289.695,-52.5795 345.764,-37.0937 385.693,-26.0659"/>
<polygon fill="midnightblue" stroke="midnightblue" points="386.766,-29.4005 395.473,-23.3645 384.902,-22.6531 386.766,-29.4005"/>
</g>
<!-- Node7 -->
<g id="node14" class="node"><title>Node7</title>
<a xlink:href="system_8h.html" target="_top" xlink:title="fae/system.h">
<polygon fill="none" stroke="red" points="521.983,-0.695312 521.983,-23.3047 602.017,-23.3047 602.017,-0.695312 521.983,-0.695312"/>
<text text-anchor="middle" x="562" y="-8.30469" font-family="Futura" font-size="11.00">fae/system.h</text>
</a>
</g>
<!-- Node2&#45;&gt;Node7 -->
<g id="edge14" class="edge"><title>Node2&#45;&gt;Node7</title>
<path fill="none" stroke="midnightblue" d="M254.696,-62.1002C257.828,-61.3401 260.968,-60.6245 264,-60 373.087,-37.5304 402.429,-43.9785 512,-24 512.101,-23.9816 512.202,-23.9631 512.304,-23.9445"/>
<polygon fill="midnightblue" stroke="midnightblue" points="512.781,-27.4171 521.934,-22.082 511.452,-20.5445 512.781,-27.4171"/>
</g>
<!-- Node3&#45;&gt;Node2 -->
<g id="edge6" class="edge"><title>Node3&#45;&gt;Node2</title>
<path fill="none" stroke="midnightblue" d="M78.0588,-23.3771C109.755,-32.8764 154.472,-46.9959 185.897,-57.3955"/>
<polygon fill="midnightblue" stroke="midnightblue" points="185.005,-60.7877 195.599,-60.6308 187.22,-54.1472 185.005,-60.7877"/>
</g>
</g>
</svg>
