<?xml version="1.0" encoding="UTF-8" standalone="no"?>
<!DOCTYPE svg PUBLIC "-//W3C//DTD SVG 1.1//EN"
 "http://www.w3.org/Graphics/SVG/1.1/DTD/svg11.dtd">
<!-- Generated by graphviz version 2.28.0 (20121015.0031)
 -->
<!-- Title: src/fae/string.c Pages: 1 -->
<svg width="636pt" height="212pt"
 viewBox="0.00 0.00 636.00 212.00" xmlns="http://www.w3.org/2000/svg" xmlns:xlink="http://www.w3.org/1999/xlink">
<g id="graph1" class="graph" transform="scale(1 1) rotate(0) translate(4 208)">
<title>src/fae/string.c</title>
<!-- Node1 -->
<g id="node1" class="node"><title>Node1</title>
<polygon fill="#bfbfbf" stroke="black" points="306.511,-180.695 306.511,-203.305 399.489,-203.305 399.489,-180.695 306.511,-180.695"/>
<text text-anchor="middle" x="353" y="-188.305" font-family="Futura" font-size="11.00">src/fae/string.c</text>
</g>
<!-- Node2 -->
<g id="node3" class="node"><title>Node2</title>
<a xlink:href="string_8h.html" target="_top" xlink:title="fae/string.h">
<polygon fill="none" stroke="black" points="226.827,-60.6953 226.827,-83.3047 301.173,-83.3047 301.173,-60.6953 226.827,-60.6953"/>
<text text-anchor="middle" x="264" y="-68.3047" font-family="Futura" font-size="11.00">fae/string.h</text>
</a>
</g>
<!-- Node1&#45;&gt;Node2 -->
<g id="edge2" class="edge"><title>Node1&#45;&gt;Node2</title>
<path fill="none" stroke="midnightblue" d="M307.081,-180.645C287.51,-173.714 266.56,-162.364 255,-144 245.427,-128.792 249.543,-108.107 254.936,-92.9873"/>
<polygon fill="midnightblue" stroke="midnightblue" points="258.249,-94.1287 258.721,-83.5444 251.752,-91.5242 258.249,-94.1287"/>
</g>
<!-- Node4 -->
<g id="node7" class="node"><title>Node4</title>
<a xlink:href="util_8h.html" target="_top" xlink:title="fae/util.h">
<polygon fill="none" stroke="red" points="127.141,-120.695 127.141,-143.305 188.859,-143.305 188.859,-120.695 127.141,-120.695"/>
<text text-anchor="middle" x="158" y="-128.305" font-family="Futura" font-size="11.00">fae/util.h</text>
</a>
</g>
<!-- Node1&#45;&gt;Node4 -->
<g id="edge6" class="edge"><title>Node1&#45;&gt;Node4</title>
<path fill="none" stroke="midnightblue" d="M318.138,-180.631C284.736,-170.696 234.326,-155.702 199.011,-145.198"/>
<polygon fill="midnightblue" stroke="midnightblue" points="199.607,-141.724 189.025,-142.228 197.612,-148.434 199.607,-141.724"/>
</g>
<!-- Node7 -->
<g id="node13" class="node"><title>Node7</title>
<a xlink:href="dynamic_8h.html" target="_top" xlink:title="fae/dynamic.h">
<polygon fill="none" stroke="black" points="264.439,-120.695 264.439,-143.305 353.561,-143.305 353.561,-120.695 264.439,-120.695"/>
<text text-anchor="middle" x="309" y="-128.305" font-family="Futura" font-size="11.00">fae/dynamic.h</text>
</a>
</g>
<!-- Node1&#45;&gt;Node7 -->
<g id="edge12" class="edge"><title>Node1&#45;&gt;Node7</title>
<path fill="none" stroke="midnightblue" d="M345.134,-180.631C339.078,-172.648 330.544,-161.398 323.29,-151.837"/>
<polygon fill="midnightblue" stroke="midnightblue" points="325.928,-149.523 317.096,-143.672 320.351,-153.754 325.928,-149.523"/>
</g>
<!-- Node8 -->
<g id="node17" class="node"><title>Node8</title>
<polygon fill="none" stroke="#bfbfbf" points="371.598,-120.695 371.598,-143.305 422.402,-143.305 422.402,-120.695 371.598,-120.695"/>
<text text-anchor="middle" x="397" y="-128.305" font-family="Futura" font-size="11.00">iconv.h</text>
</g>
<!-- Node1&#45;&gt;Node8 -->
<g id="edge18" class="edge"><title>Node1&#45;&gt;Node8</title>
<path fill="none" stroke="midnightblue" d="M360.866,-180.631C366.922,-172.648 375.456,-161.398 382.71,-151.837"/>
<polygon fill="midnightblue" stroke="midnightblue" points="385.649,-153.754 388.904,-143.672 380.072,-149.523 385.649,-153.754"/>
</g>
<!-- Node9 -->
<g id="node19" class="node"><title>Node9</title>
<a xlink:href="trex_8h.html" target="_top" xlink:title="string/trex.h">
<polygon fill="none" stroke="black" points="440.353,-120.695 440.353,-143.305 517.647,-143.305 517.647,-120.695 440.353,-120.695"/>
<text text-anchor="middle" x="479" y="-128.305" font-family="Futura" font-size="11.00">string/trex.h</text>
</a>
</g>
<!-- Node1&#45;&gt;Node9 -->
<g id="edge20" class="edge"><title>Node1&#45;&gt;Node9</title>
<path fill="none" stroke="midnightblue" d="M375.526,-180.631C395.47,-171.45 424.798,-157.95 447.143,-147.664"/>
<polygon fill="midnightblue" stroke="midnightblue" points="448.624,-150.836 456.244,-143.475 445.697,-144.477 448.624,-150.836"/>
</g>
<!-- Node10 -->
<g id="node21" class="node"><title>Node10</title>
<a xlink:href="parson_8h.html" target="_top" xlink:title="string/parson.h">
<polygon fill="none" stroke="red" points="535.677,-120.695 535.677,-143.305 628.323,-143.305 628.323,-120.695 535.677,-120.695"/>
<text text-anchor="middle" x="582" y="-128.305" font-family="Futura" font-size="11.00">string/parson.h</text>
</a>
</g>
<!-- Node1&#45;&gt;Node10 -->
<g id="edge22" class="edge"><title>Node1&#45;&gt;Node10</title>
<path fill="none" stroke="midnightblue" d="M393.941,-180.631C432.329,-170.908 489.848,-156.34 531.16,-145.876"/>
<polygon fill="midnightblue" stroke="midnightblue" points="532.194,-149.225 541.028,-143.377 530.475,-142.44 532.194,-149.225"/>
</g>
<!-- Node3 -->
<g id="node5" class="node"><title>Node3</title>
<a xlink:href="fae_2fae_8h.html" target="_top" xlink:title="fae.h">
<polygon fill="none" stroke="red" points="275.23,-0.695312 275.23,-23.3047 316.77,-23.3047 316.77,-0.695312 275.23,-0.695312"/>
<text text-anchor="middle" x="296" y="-8.30469" font-family="Futura" font-size="11.00">fae.h</text>
</a>
</g>
<!-- Node2&#45;&gt;Node3 -->
<g id="edge4" class="edge"><title>Node2&#45;&gt;Node3</title>
<path fill="none" stroke="midnightblue" d="M269.721,-60.6308C273.991,-52.8921 279.954,-42.0841 285.12,-32.7193"/>
<polygon fill="midnightblue" stroke="midnightblue" points="288.346,-34.1184 290.112,-23.6719 282.217,-30.7369 288.346,-34.1184"/>
</g>
<!-- Node5 -->
<g id="node9" class="node"><title>Node5</title>
<a xlink:href="arch_8h.html" target="_top" xlink:title="fae/util/arch.h">
<polygon fill="none" stroke="black" points="-0.794678,-60.6953 -0.794678,-83.3047 88.7947,-83.3047 88.7947,-60.6953 -0.794678,-60.6953"/>
<text text-anchor="middle" x="44" y="-68.3047" font-family="Futura" font-size="11.00">fae/util/arch.h</text>
</a>
</g>
<!-- Node4&#45;&gt;Node5 -->
<g id="edge8" class="edge"><title>Node4&#45;&gt;Node5</title>
<path fill="none" stroke="midnightblue" d="M137.619,-120.631C119.816,-111.573 93.749,-98.3109 73.6388,-88.0794"/>
<polygon fill="midnightblue" stroke="midnightblue" points="75.0887,-84.8902 64.5888,-83.475 71.9145,-91.1291 75.0887,-84.8902"/>
</g>
<!-- Node6 -->
<g id="node11" class="node"><title>Node6</title>
<a xlink:href="alignof_8h.html" target="_top" xlink:title="fae/util/alignof.h">
<polygon fill="none" stroke="black" points="107.007,-60.6953 107.007,-83.3047 208.993,-83.3047 208.993,-60.6953 107.007,-60.6953"/>
<text text-anchor="middle" x="158" y="-68.3047" font-family="Futura" font-size="11.00">fae/util/alignof.h</text>
</a>
</g>
<!-- Node4&#45;&gt;Node6 -->
<g id="edge10" class="edge"><title>Node4&#45;&gt;Node6</title>
<path fill="none" stroke="midnightblue" d="M158,-120.631C158,-113.218 158,-102.989 158,-93.9096"/>
<polygon fill="midnightblue" stroke="midnightblue" points="161.5,-93.6718 158,-83.6719 154.5,-93.6719 161.5,-93.6718"/>
</g>
<!-- Node7&#45;&gt;Node2 -->
<g id="edge16" class="edge"><title>Node7&#45;&gt;Node2</title>
<path fill="none" stroke="midnightblue" d="M300.955,-120.631C294.761,-112.648 286.033,-101.398 278.615,-91.8366"/>
<polygon fill="midnightblue" stroke="midnightblue" points="281.175,-89.4272 272.28,-83.6719 275.645,-93.7182 281.175,-89.4272"/>
</g>
<!-- Node7&#45;&gt;Node3 -->
<g id="edge14" class="edge"><title>Node7&#45;&gt;Node3</title>
<path fill="none" stroke="midnightblue" d="M310.194,-120.346C311.52,-106.398 313.094,-81.2257 310,-60 308.687,-50.9958 306.031,-41.3181 303.381,-33.0986"/>
<polygon fill="midnightblue" stroke="midnightblue" points="306.687,-31.9496 300.13,-23.6276 300.066,-34.2223 306.687,-31.9496"/>
</g>
</g>
</svg>
