<?xml version="1.0" encoding="UTF-8" standalone="no"?>
<!DOCTYPE svg PUBLIC "-//W3C//DTD SVG 1.1//EN"
 "http://www.w3.org/Graphics/SVG/1.1/DTD/svg11.dtd">
<!-- Generated by graphviz version 2.28.0 (20121015.0031)
 -->
<!-- Title: include/fae/fae.h Pages: 1 -->
<svg width="880pt" height="212pt"
 viewBox="0.00 0.00 880.00 212.00" xmlns="http://www.w3.org/2000/svg" xmlns:xlink="http://www.w3.org/1999/xlink">
<g id="graph1" class="graph" transform="scale(1 1) rotate(0) translate(4 208)">
<title>include/fae/fae.h</title>
<!-- Node1 -->
<g id="node1" class="node"><title>Node1</title>
<polygon fill="#bfbfbf" stroke="black" points="273.761,-180.695 273.761,-203.305 378.239,-203.305 378.239,-180.695 273.761,-180.695"/>
<text text-anchor="middle" x="326" y="-188.305" font-family="Futura" font-size="11.00">include/fae/fae.h</text>
</g>
<!-- Node2 -->
<g id="node3" class="node"><title>Node2</title>
<a xlink:href="atomic_8h.html" target="_top" xlink:title="include/fae/atomic.h">
<polygon fill="none" stroke="red" points="-0.668945,-120.695 -0.668945,-143.305 120.669,-143.305 120.669,-120.695 -0.668945,-120.695"/>
<text text-anchor="middle" x="60" y="-128.305" font-family="Futura" font-size="11.00">include/fae/atomic.h</text>
</a>
</g>
<!-- Node1&#45;&gt;Node2 -->
<g id="edge2" class="edge"><title>Node1&#45;&gt;Node2</title>
<path fill="none" stroke="midnightblue" d="M263.463,-178.596C213.823,-168.114 145.863,-153.272 102.383,-143.402"/>
<polygon fill="midnightblue" stroke="midnightblue" points="262.941,-182.063 273.447,-180.698 264.383,-175.213 262.941,-182.063"/>
</g>
<!-- Node3 -->
<g id="node6" class="node"><title>Node3</title>
<a xlink:href="buffer_8h.html" target="_top" xlink:title="include/fae/buffer.h">
<polygon fill="none" stroke="red" points="90.1841,-0.695312 90.1841,-23.3047 207.816,-23.3047 207.816,-0.695312 90.1841,-0.695312"/>
<text text-anchor="middle" x="149" y="-8.30469" font-family="Futura" font-size="11.00">include/fae/buffer.h</text>
</a>
</g>
<!-- Node1&#45;&gt;Node3 -->
<g id="edge6" class="edge"><title>Node1&#45;&gt;Node3</title>
<path fill="none" stroke="midnightblue" d="M291.379,-176.316C274.976,-168.296 255.787,-157.281 241,-144 199.442,-106.673 166.428,-47.2033 154.16,-23.373"/>
<polygon fill="midnightblue" stroke="midnightblue" points="290.123,-179.593 300.661,-180.686 293.105,-173.26 290.123,-179.593"/>
</g>
<!-- Node4 -->
<g id="node8" class="node"><title>Node4</title>
<a xlink:href="device_8h.html" target="_top" xlink:title="include/fae/device.h">
<polygon fill="none" stroke="red" points="472.774,-120.695 472.774,-143.305 593.226,-143.305 593.226,-120.695 472.774,-120.695"/>
<text text-anchor="middle" x="533" y="-128.305" font-family="Futura" font-size="11.00">include/fae/device.h</text>
</a>
</g>
<!-- Node1&#45;&gt;Node4 -->
<g id="edge8" class="edge"><title>Node1&#45;&gt;Node4</title>
<path fill="none" stroke="midnightblue" d="M372.638,-177.932C409.92,-167.486 461.475,-153.041 495.965,-143.377"/>
<polygon fill="midnightblue" stroke="midnightblue" points="371.692,-174.562 363.007,-180.631 373.581,-181.303 371.692,-174.562"/>
</g>
<!-- Node5 -->
<g id="node10" class="node"><title>Node5</title>
<a xlink:href="dynamic_8h.html" target="_top" xlink:title="include/fae/dynamic.h">
<polygon fill="none" stroke="red" points="610.876,-120.695 610.876,-143.305 741.124,-143.305 741.124,-120.695 610.876,-120.695"/>
<text text-anchor="middle" x="676" y="-128.305" font-family="Futura" font-size="11.00">include/fae/dynamic.h</text>
</a>
</g>
<!-- Node1&#45;&gt;Node5 -->
<g id="edge10" class="edge"><title>Node1&#45;&gt;Node5</title>
<path fill="none" stroke="midnightblue" d="M388.304,-180.675C451.939,-170.13 550.171,-153.852 613.777,-143.311"/>
<polygon fill="midnightblue" stroke="midnightblue" points="387.692,-177.229 378.399,-182.317 388.836,-184.135 387.692,-177.229"/>
</g>
<!-- Node6 -->
<g id="node12" class="node"><title>Node6</title>
<a xlink:href="error_8h.html" target="_top" xlink:title="include/fae/error.h">
<polygon fill="none" stroke="red" points="759.555,-120.695 759.555,-143.305 872.445,-143.305 872.445,-120.695 759.555,-120.695"/>
<text text-anchor="middle" x="816" y="-128.305" font-family="Futura" font-size="11.00">include/fae/error.h</text>
</a>
</g>
<!-- Node1&#45;&gt;Node6 -->
<g id="edge12" class="edge"><title>Node1&#45;&gt;Node6</title>
<path fill="none" stroke="midnightblue" d="M388.498,-184.537C469.856,-176.383 616.126,-161.314 741,-144 746.983,-143.17 753.259,-142.224 759.537,-141.242"/>
<polygon fill="midnightblue" stroke="midnightblue" points="388.024,-181.067 378.422,-185.545 388.721,-188.032 388.024,-181.067"/>
</g>
<!-- Node7 -->
<g id="node15" class="node"><title>Node7</title>
<a xlink:href="graph_8h.html" target="_top" xlink:title="include/fae/graph.h">
<polygon fill="none" stroke="red" points="225.894,-0.695312 225.894,-23.3047 344.106,-23.3047 344.106,-0.695312 225.894,-0.695312"/>
<text text-anchor="middle" x="285" y="-8.30469" font-family="Futura" font-size="11.00">include/fae/graph.h</text>
</a>
</g>
<!-- Node1&#45;&gt;Node7 -->
<g id="edge16" class="edge"><title>Node1&#45;&gt;Node7</title>
<path fill="none" stroke="midnightblue" d="M295.936,-174.998C268.619,-156.452 230.749,-123.345 215,-84 211.036,-74.0972 210.292,-69.5713 215,-60 223.085,-43.565 239.986,-31.2602 255.332,-23.3718"/>
<polygon fill="midnightblue" stroke="midnightblue" points="294.102,-177.979 304.393,-180.497 297.918,-172.111 294.102,-177.979"/>
</g>
<!-- Node8 -->
<g id="node18" class="node"><title>Node8</title>
<a xlink:href="list_8h.html" target="_top" xlink:title="include/fae/list.h">
<polygon fill="none" stroke="red" points="315.343,-120.695 315.343,-143.305 416.657,-143.305 416.657,-120.695 315.343,-120.695"/>
<text text-anchor="middle" x="366" y="-128.305" font-family="Futura" font-size="11.00">include/fae/list.h</text>
</a>
</g>
<!-- Node1&#45;&gt;Node8 -->
<g id="edge20" class="edge"><title>Node1&#45;&gt;Node8</title>
<path fill="none" stroke="midnightblue" d="M338.944,-172.231C345.465,-162.775 353.135,-151.654 358.64,-143.672"/>
<polygon fill="midnightblue" stroke="midnightblue" points="335.947,-170.412 333.151,-180.631 341.71,-174.386 335.947,-170.412"/>
</g>
<!-- Node9 -->
<g id="node21" class="node"><title>Node9</title>
<a xlink:href="map_8h.html" target="_top" xlink:title="include/fae/map.h">
<polygon fill="none" stroke="red" points="361.871,-0.695312 361.871,-23.3047 472.129,-23.3047 472.129,-0.695312 361.871,-0.695312"/>
<text text-anchor="middle" x="417" y="-8.30469" font-family="Futura" font-size="11.00">include/fae/map.h</text>
</a>
</g>
<!-- Node1&#45;&gt;Node9 -->
<g id="edge34" class="edge"><title>Node1&#45;&gt;Node9</title>
<path fill="none" stroke="midnightblue" d="M382.386,-176.9C398.975,-169.845 415.268,-159.393 425,-144 449.352,-105.482 430.771,-47.1921 421.477,-23.5337"/>
<polygon fill="midnightblue" stroke="midnightblue" points="380.696,-173.801 372.632,-180.673 383.221,-180.329 380.696,-173.801"/>
</g>
<!-- Node10 -->
<g id="node23" class="node"><title>Node10</title>
<a xlink:href="pair_8h.html" target="_top" xlink:title="include/fae/pair.h">
<polygon fill="none" stroke="red" points="233.088,-60.6953 233.088,-83.3047 340.912,-83.3047 340.912,-60.6953 233.088,-60.6953"/>
<text text-anchor="middle" x="287" y="-68.3047" font-family="Futura" font-size="11.00">include/fae/pair.h</text>
</a>
</g>
<!-- Node1&#45;&gt;Node10 -->
<g id="edge36" class="edge"><title>Node1&#45;&gt;Node10</title>
<path fill="none" stroke="midnightblue" d="M316.811,-171.13C313.172,-162.846 309.122,-153.06 306,-144 298.766,-123.009 292.588,-97.7525 289.373,-83.7261"/>
<polygon fill="midnightblue" stroke="midnightblue" points="313.66,-172.657 320.954,-180.341 320.044,-169.786 313.66,-172.657"/>
</g>
<!-- Node2&#45;&gt;Node1 -->
<g id="edge4" class="edge"><title>Node2&#45;&gt;Node1</title>
<path fill="none" stroke="midnightblue" d="M122.9,-145.48C172.562,-155.969 240.392,-170.785 283.76,-180.631"/>
<polygon fill="midnightblue" stroke="midnightblue" points="123.415,-142.012 112.909,-143.377 121.973,-148.862 123.415,-142.012"/>
</g>
<!-- Node6&#45;&gt;Node1 -->
<g id="edge14" class="edge"><title>Node6&#45;&gt;Node1</title>
<path fill="none" stroke="midnightblue" d="M753.904,-144.681C614.805,-163.702 458.201,-179.376 378.38,-186.653"/>
<polygon fill="midnightblue" stroke="midnightblue" points="754.459,-148.138 763.888,-143.306 753.504,-141.204 754.459,-148.138"/>
</g>
<!-- Node7&#45;&gt;Node1 -->
<g id="edge18" class="edge"><title>Node7&#45;&gt;Node1</title>
<path fill="none" stroke="midnightblue" d="M262.155,-28.9505C251.248,-36.6351 239.379,-47.0318 233,-60 228.292,-69.5713 229.036,-74.0972 233,-84 250.453,-127.603 295.076,-163.544 315.818,-180.497"/>
<polygon fill="midnightblue" stroke="midnightblue" points="264.171,-31.8136 270.573,-23.3718 260.304,-25.9786 264.171,-31.8136"/>
</g>
<!-- Node8&#45;&gt;Node7 -->
<g id="edge22" class="edge"><title>Node8&#45;&gt;Node7</title>
<path fill="none" stroke="midnightblue" d="M364.807,-110.171C363.089,-95.1543 358.946,-74.977 349,-60 338.4,-44.0372 320.443,-31.5527 306.243,-23.4754"/>
<polygon fill="midnightblue" stroke="midnightblue" points="361.349,-110.818 365.703,-120.477 368.323,-110.211 361.349,-110.818"/>
</g>
<!-- Node8&#45;&gt;Node9 -->
<g id="edge24" class="edge"><title>Node8&#45;&gt;Node9</title>
<path fill="none" stroke="midnightblue" d="M374.553,-111.21C385.446,-86.0067 403.877,-43.3628 412.411,-23.6179"/>
<polygon fill="midnightblue" stroke="midnightblue" points="371.281,-109.96 370.526,-120.528 377.706,-112.738 371.281,-109.96"/>
</g>
<!-- Node8&#45;&gt;Node10 -->
<g id="edge26" class="edge"><title>Node8&#45;&gt;Node10</title>
<path fill="none" stroke="midnightblue" d="M343.517,-114.494C329.935,-104.522 313.033,-92.1126 301.268,-83.475"/>
<polygon fill="midnightblue" stroke="midnightblue" points="341.744,-117.534 351.876,-120.631 345.887,-111.891 341.744,-117.534"/>
</g>
<!-- Node10&#45;&gt;Node3 -->
<g id="edge28" class="edge"><title>Node10&#45;&gt;Node3</title>
<path fill="none" stroke="midnightblue" d="M253.042,-56.7278C228.551,-46.4343 196.041,-32.7708 173.923,-23.475"/>
<polygon fill="midnightblue" stroke="midnightblue" points="251.753,-59.9827 262.328,-60.6308 254.466,-53.5295 251.753,-59.9827"/>
</g>
<!-- Node10&#45;&gt;Node7 -->
<g id="edge30" class="edge"><title>Node10&#45;&gt;Node7</title>
<path fill="none" stroke="midnightblue" d="M286.292,-50.4586C285.98,-41.4112 285.626,-31.1602 285.368,-23.6719"/>
<polygon fill="midnightblue" stroke="midnightblue" points="282.8,-50.7574 286.642,-60.6308 289.796,-50.5161 282.8,-50.7574"/>
</g>
<!-- Node10&#45;&gt;Node9 -->
<g id="edge32" class="edge"><title>Node10&#45;&gt;Node9</title>
<path fill="none" stroke="midnightblue" d="M319.604,-56.4538C342.602,-46.1929 372.871,-32.6885 393.522,-23.475"/>
<polygon fill="midnightblue" stroke="midnightblue" points="317.948,-53.36 310.241,-60.6308 320.8,-59.7526 317.948,-53.36"/>
</g>
</g>
</svg>
