<?xml version="1.0" encoding="UTF-8" standalone="no"?>
<!DOCTYPE svg PUBLIC "-//W3C//DTD SVG 1.1//EN"
 "http://www.w3.org/Graphics/SVG/1.1/DTD/svg11.dtd">
<!-- Generated by graphviz version 2.28.0 (20121015.0031)
 -->
<!-- Title: src/fae/event.c Pages: 1 -->
<svg width="479pt" height="272pt"
 viewBox="0.00 0.00 479.00 272.00" xmlns="http://www.w3.org/2000/svg" xmlns:xlink="http://www.w3.org/1999/xlink">
<g id="graph1" class="graph" transform="scale(1 1) rotate(0) translate(4 268)">
<title>src/fae/event.c</title>
<!-- Node1 -->
<g id="node1" class="node"><title>Node1</title>
<polygon fill="#bfbfbf" stroke="black" points="122.884,-240.695 122.884,-263.305 215.116,-263.305 215.116,-240.695 122.884,-240.695"/>
<text text-anchor="middle" x="169" y="-248.305" font-family="Futura" font-size="11.00">src/fae/event.c</text>
</g>
<!-- Node2 -->
<g id="node3" class="node"><title>Node2</title>
<polygon fill="none" stroke="#bfbfbf" points="-0.799805,-0.695312 -0.799805,-23.3047 72.7998,-23.3047 72.7998,-0.695312 -0.799805,-0.695312"/>
<text text-anchor="middle" x="36" y="-8.30469" font-family="Futura" font-size="11.00">fae/event.h</text>
</g>
<!-- Node1&#45;&gt;Node2 -->
<g id="edge2" class="edge"><title>Node1&#45;&gt;Node2</title>
<path fill="none" stroke="midnightblue" d="M122.617,-241.023C100.351,-234.059 74.9047,-222.571 58,-204 14.6448,-156.372 24.1471,-72.0338 31.457,-33.3815"/>
<polygon fill="midnightblue" stroke="midnightblue" points="34.9339,-33.8478 33.5048,-23.3498 28.0754,-32.4478 34.9339,-33.8478"/>
</g>
<!-- Node3 -->
<g id="node5" class="node"><title>Node3</title>
<a xlink:href="set_8h.html" target="_top" xlink:title="fae/set.h">
<polygon fill="none" stroke="black" points="66.5542,-180.695 66.5542,-203.305 127.446,-203.305 127.446,-180.695 66.5542,-180.695"/>
<text text-anchor="middle" x="97" y="-188.305" font-family="Futura" font-size="11.00">fae/set.h</text>
</a>
</g>
<!-- Node1&#45;&gt;Node3 -->
<g id="edge4" class="edge"><title>Node1&#45;&gt;Node3</title>
<path fill="none" stroke="midnightblue" d="M156.128,-240.631C145.611,-232.159 130.528,-220.009 118.228,-210.1"/>
<polygon fill="midnightblue" stroke="midnightblue" points="120.231,-207.22 110.248,-203.672 115.84,-212.671 120.231,-207.22"/>
</g>
<!-- Node5 -->
<g id="node10" class="node"><title>Node5</title>
<polygon fill="none" stroke="#bfbfbf" points="139.891,-0.695312 139.891,-23.3047 230.109,-23.3047 230.109,-0.695312 139.891,-0.695312"/>
<text text-anchor="middle" x="185" y="-8.30469" font-family="Futura" font-size="11.00">fae/message.h</text>
</g>
<!-- Node1&#45;&gt;Node5 -->
<g id="edge22" class="edge"><title>Node1&#45;&gt;Node5</title>
<path fill="none" stroke="midnightblue" d="M175.22,-240.541C185.894,-221.914 207.295,-181.432 215,-144 223.145,-104.432 206.549,-58.4621 194.953,-32.8503"/>
<polygon fill="midnightblue" stroke="midnightblue" points="197.965,-31.0337 190.523,-23.4935 191.639,-34.0293 197.965,-31.0337"/>
</g>
<!-- Node7 -->
<g id="node15" class="node"><title>Node7</title>
<a xlink:href="string_8h.html" target="_top" xlink:title="fae/string.h">
<polygon fill="none" stroke="black" points="131.827,-120.695 131.827,-143.305 206.173,-143.305 206.173,-120.695 131.827,-120.695"/>
<text text-anchor="middle" x="169" y="-128.305" font-family="Futura" font-size="11.00">fae/string.h</text>
</a>
</g>
<!-- Node1&#45;&gt;Node7 -->
<g id="edge20" class="edge"><title>Node1&#45;&gt;Node7</title>
<path fill="none" stroke="midnightblue" d="M169,-240.528C169,-221.071 169,-179.023 169,-153.656"/>
<polygon fill="midnightblue" stroke="midnightblue" points="172.5,-153.618 169,-143.618 165.5,-153.618 172.5,-153.618"/>
</g>
<!-- Node8 -->
<g id="node20" class="node"><title>Node8</title>
<a xlink:href="util_8h.html" target="_top" xlink:title="fae/util.h">
<polygon fill="none" stroke="red" points="276.141,-180.695 276.141,-203.305 337.859,-203.305 337.859,-180.695 276.141,-180.695"/>
<text text-anchor="middle" x="307" y="-188.305" font-family="Futura" font-size="11.00">fae/util.h</text>
</a>
</g>
<!-- Node1&#45;&gt;Node8 -->
<g id="edge24" class="edge"><title>Node1&#45;&gt;Node8</title>
<path fill="none" stroke="midnightblue" d="M193.672,-240.631C215.71,-231.368 248.21,-217.709 272.763,-207.39"/>
<polygon fill="midnightblue" stroke="midnightblue" points="274.214,-210.576 282.077,-203.475 271.502,-204.123 274.214,-210.576"/>
</g>
<!-- Node4 -->
<g id="node7" class="node"><title>Node4</title>
<a xlink:href="fae_2fae_8h.html" target="_top" xlink:title="fae.h">
<polygon fill="none" stroke="red" points="63.2302,-60.6953 63.2302,-83.3047 104.77,-83.3047 104.77,-60.6953 63.2302,-60.6953"/>
<text text-anchor="middle" x="84" y="-68.3047" font-family="Futura" font-size="11.00">fae.h</text>
</a>
</g>
<!-- Node3&#45;&gt;Node4 -->
<g id="edge6" class="edge"><title>Node3&#45;&gt;Node4</title>
<path fill="none" stroke="midnightblue" d="M79.1633,-180.561C67.0314,-172.347 51.964,-159.681 45,-144 36.6681,-125.238 50.5173,-104.789 63.9616,-90.676"/>
<polygon fill="midnightblue" stroke="midnightblue" points="66.5527,-93.0373 71.2455,-83.5384 61.6534,-88.0375 66.5527,-93.0373"/>
</g>
<!-- Node6 -->
<g id="node12" class="node"><title>Node6</title>
<a xlink:href="list_8h.html" target="_top" xlink:title="fae/list.h">
<polygon fill="none" stroke="black" points="53.906,-120.695 53.906,-143.305 114.094,-143.305 114.094,-120.695 53.906,-120.695"/>
<text text-anchor="middle" x="84" y="-128.305" font-family="Futura" font-size="11.00">fae/list.h</text>
</a>
</g>
<!-- Node3&#45;&gt;Node6 -->
<g id="edge12" class="edge"><title>Node3&#45;&gt;Node6</title>
<path fill="none" stroke="midnightblue" d="M94.6759,-180.631C92.9961,-173.137 90.6712,-162.764 88.6196,-153.611"/>
<polygon fill="midnightblue" stroke="midnightblue" points="91.9944,-152.664 86.392,-143.672 85.1639,-154.195 91.9944,-152.664"/>
</g>
<!-- Node3&#45;&gt;Node7 -->
<g id="edge16" class="edge"><title>Node3&#45;&gt;Node7</title>
<path fill="none" stroke="midnightblue" d="M109.872,-180.631C120.389,-172.159 135.472,-160.009 147.772,-150.1"/>
<polygon fill="midnightblue" stroke="midnightblue" points="150.16,-152.671 155.752,-143.672 145.769,-147.22 150.16,-152.671"/>
</g>
<!-- Node4&#45;&gt;Node2 -->
<g id="edge8" class="edge"><title>Node4&#45;&gt;Node2</title>
<path fill="none" stroke="midnightblue" d="M75.4186,-60.6308C68.7445,-52.5663 59.3118,-41.1685 51.3471,-31.5444"/>
<polygon fill="midnightblue" stroke="midnightblue" points="53.904,-29.1443 44.8319,-23.6719 48.5112,-33.6073 53.904,-29.1443"/>
</g>
<!-- Node4&#45;&gt;Node5 -->
<g id="edge10" class="edge"><title>Node4&#45;&gt;Node5</title>
<path fill="none" stroke="midnightblue" d="M102.057,-60.6308C117.615,-51.6962 140.298,-38.6702 158.013,-28.4977"/>
<polygon fill="midnightblue" stroke="midnightblue" points="159.83,-31.4901 166.759,-23.475 156.344,-25.4198 159.83,-31.4901"/>
</g>
<!-- Node6&#45;&gt;Node4 -->
<g id="edge14" class="edge"><title>Node6&#45;&gt;Node4</title>
<path fill="none" stroke="midnightblue" d="M84,-120.631C84,-113.218 84,-102.989 84,-93.9096"/>
<polygon fill="midnightblue" stroke="midnightblue" points="87.5001,-93.6718 84,-83.6719 80.5001,-93.6719 87.5001,-93.6718"/>
</g>
<!-- Node7&#45;&gt;Node4 -->
<g id="edge18" class="edge"><title>Node7&#45;&gt;Node4</title>
<path fill="none" stroke="midnightblue" d="M153.804,-120.631C141.07,-111.942 122.666,-99.3841 107.952,-89.344"/>
<polygon fill="midnightblue" stroke="midnightblue" points="109.584,-86.2204 99.3513,-83.475 105.639,-92.0025 109.584,-86.2204"/>
</g>
<!-- Node9 -->
<g id="node22" class="node"><title>Node9</title>
<a xlink:href="arch_8h.html" target="_top" xlink:title="fae/util/arch.h">
<polygon fill="none" stroke="black" points="262.205,-120.695 262.205,-143.305 351.795,-143.305 351.795,-120.695 262.205,-120.695"/>
<text text-anchor="middle" x="307" y="-128.305" font-family="Futura" font-size="11.00">fae/util/arch.h</text>
</a>
</g>
<!-- Node8&#45;&gt;Node9 -->
<g id="edge26" class="edge"><title>Node8&#45;&gt;Node9</title>
<path fill="none" stroke="midnightblue" d="M307,-180.631C307,-173.218 307,-162.989 307,-153.91"/>
<polygon fill="midnightblue" stroke="midnightblue" points="310.5,-153.672 307,-143.672 303.5,-153.672 310.5,-153.672"/>
</g>
<!-- Node10 -->
<g id="node24" class="node"><title>Node10</title>
<a xlink:href="alignof_8h.html" target="_top" xlink:title="fae/util/alignof.h">
<polygon fill="none" stroke="black" points="370.007,-120.695 370.007,-143.305 471.993,-143.305 471.993,-120.695 370.007,-120.695"/>
<text text-anchor="middle" x="421" y="-128.305" font-family="Futura" font-size="11.00">fae/util/alignof.h</text>
</a>
</g>
<!-- Node8&#45;&gt;Node10 -->
<g id="edge28" class="edge"><title>Node8&#45;&gt;Node10</title>
<path fill="none" stroke="midnightblue" d="M327.381,-180.631C345.184,-171.573 371.251,-158.311 391.361,-148.079"/>
<polygon fill="midnightblue" stroke="midnightblue" points="393.085,-151.129 400.411,-143.475 389.911,-144.89 393.085,-151.129"/>
</g>
</g>
</svg>
