<?xml version="1.0" encoding="UTF-8" standalone="no"?>
<!DOCTYPE svg PUBLIC "-//W3C//DTD SVG 1.1//EN"
 "http://www.w3.org/Graphics/SVG/1.1/DTD/svg11.dtd">
<!-- Generated by graphviz version 2.28.0 (20121015.0031)
 -->
<!-- Title: src/fae.c Pages: 1 -->
<svg width="639pt" height="332pt"
 viewBox="0.00 0.00 638.84 332.00" xmlns="http://www.w3.org/2000/svg" xmlns:xlink="http://www.w3.org/1999/xlink">
<g id="graph1" class="graph" transform="scale(1 1) rotate(0) translate(4 328)">
<title>src/fae.c</title>
<!-- Node1 -->
<g id="node1" class="node"><title>Node1</title>
<polygon fill="#bfbfbf" stroke="black" points="86.7492,-300.695 86.7492,-323.305 146.921,-323.305 146.921,-300.695 86.7492,-300.695"/>
<text text-anchor="middle" x="116.835" y="-308.305" font-family="Futura" font-size="11.00">src/fae.c</text>
</g>
<!-- Node2 -->
<g id="node3" class="node"><title>Node2</title>
<polygon fill="none" stroke="#bfbfbf" points="138.065,-0.695312 138.065,-23.3047 179.605,-23.3047 179.605,-0.695312 138.065,-0.695312"/>
<text text-anchor="middle" x="158.835" y="-8.30469" font-family="Futura" font-size="11.00">fae.h</text>
</g>
<!-- Node1&#45;&gt;Node2 -->
<g id="edge2" class="edge"><title>Node1&#45;&gt;Node2</title>
<path fill="none" stroke="midnightblue" d="M94.1938,-300.652C60.4357,-283.486 0.835127,-245.715 0.835127,-193 0.835127,-193 0.835127,-193 0.835127,-131 0.835127,-98.3341 -2.50538,-83.832 19.8351,-60 48.088,-29.8609 96.3245,-19.0459 127.889,-15.1668"/>
<polygon fill="midnightblue" stroke="midnightblue" points="128.329,-18.6399 137.902,-14.0993 127.587,-11.6793 128.329,-18.6399"/>
</g>
<!-- Node3 -->
<g id="node5" class="node"><title>Node3</title>
<a xlink:href="dynamic_8h.html" target="_top" xlink:title="fae/dynamic.h">
<polygon fill="none" stroke="black" points="72.2741,-240.695 72.2741,-263.305 161.396,-263.305 161.396,-240.695 72.2741,-240.695"/>
<text text-anchor="middle" x="116.835" y="-248.305" font-family="Futura" font-size="11.00">fae/dynamic.h</text>
</a>
</g>
<!-- Node1&#45;&gt;Node3 -->
<g id="edge4" class="edge"><title>Node1&#45;&gt;Node3</title>
<path fill="none" stroke="midnightblue" d="M116.835,-300.631C116.835,-293.218 116.835,-282.989 116.835,-273.91"/>
<polygon fill="midnightblue" stroke="midnightblue" points="120.335,-273.672 116.835,-263.672 113.335,-273.672 120.335,-273.672"/>
</g>
<!-- Node10 -->
<g id="node21" class="node"><title>Node10</title>
<a xlink:href="string_8h.html" target="_top" xlink:title="fae/string.h">
<polygon fill="none" stroke="black" points="148.662,-180.695 148.662,-203.305 223.008,-203.305 223.008,-180.695 148.662,-180.695"/>
<text text-anchor="middle" x="185.835" y="-188.305" font-family="Futura" font-size="11.00">fae/string.h</text>
</a>
</g>
<!-- Node1&#45;&gt;Node10 -->
<g id="edge26" class="edge"><title>Node1&#45;&gt;Node10</title>
<path fill="none" stroke="midnightblue" d="M133.221,-300.639C145.185,-292.214 160.829,-279.249 169.835,-264 178.95,-248.568 182.876,-228.44 184.565,-213.557"/>
<polygon fill="midnightblue" stroke="midnightblue" points="188.072,-213.634 185.47,-203.364 181.099,-213.015 188.072,-213.634"/>
</g>
<!-- Node4 -->
<g id="node7" class="node"><title>Node4</title>
<a xlink:href="fae_2fae_8h.html" target="_top" xlink:title="fae.h">
<polygon fill="none" stroke="red" points="165.065,-120.695 165.065,-143.305 206.605,-143.305 206.605,-120.695 165.065,-120.695"/>
<text text-anchor="middle" x="185.835" y="-128.305" font-family="Futura" font-size="11.00">fae.h</text>
</a>
</g>
<!-- Node3&#45;&gt;Node4 -->
<g id="edge6" class="edge"><title>Node3&#45;&gt;Node4</title>
<path fill="none" stroke="midnightblue" d="M118.712,-240.249C121.588,-225.754 128.033,-199.513 139.835,-180 146.531,-168.93 156.311,-158.451 165.134,-150.21"/>
<polygon fill="midnightblue" stroke="midnightblue" points="167.725,-152.589 172.851,-143.317 163.061,-147.368 167.725,-152.589"/>
</g>
<!-- Node3&#45;&gt;Node10 -->
<g id="edge22" class="edge"><title>Node3&#45;&gt;Node10</title>
<path fill="none" stroke="midnightblue" d="M129.171,-240.631C139.153,-232.24 153.427,-220.242 165.151,-210.387"/>
<polygon fill="midnightblue" stroke="midnightblue" points="167.736,-212.786 173.139,-203.672 163.232,-207.427 167.736,-212.786"/>
</g>
<!-- Node5 -->
<g id="node9" class="node"><title>Node5</title>
<a xlink:href="atomic_8h.html" target="_top" xlink:title="fae/atomic.h">
<polygon fill="none" stroke="red" points="28.7294,-60.6953 28.7294,-83.3047 108.941,-83.3047 108.941,-60.6953 28.7294,-60.6953"/>
<text text-anchor="middle" x="68.8351" y="-68.3047" font-family="Futura" font-size="11.00">fae/atomic.h</text>
</a>
</g>
<!-- Node4&#45;&gt;Node5 -->
<g id="edge8" class="edge"><title>Node4&#45;&gt;Node5</title>
<path fill="none" stroke="midnightblue" d="M164.995,-123.057C144.898,-114.125 114.812,-99.4099 93.555,-88.2403"/>
<polygon fill="midnightblue" stroke="midnightblue" points="94.9464,-85.0155 84.4768,-83.3912 91.6484,-91.1899 94.9464,-85.0155"/>
</g>
<!-- Node6 -->
<g id="node12" class="node"><title>Node6</title>
<polygon fill="none" stroke="#bfbfbf" points="127.441,-60.6953 127.441,-83.3047 244.229,-83.3047 244.229,-60.6953 127.441,-60.6953"/>
<text text-anchor="middle" x="185.835" y="-68.3047" font-family="Futura" font-size="11.00">fae/atomic/queue.h</text>
</g>
<!-- Node4&#45;&gt;Node6 -->
<g id="edge12" class="edge"><title>Node4&#45;&gt;Node6</title>
<path fill="none" stroke="midnightblue" d="M185.835,-120.631C185.835,-113.218 185.835,-102.989 185.835,-93.9096"/>
<polygon fill="midnightblue" stroke="midnightblue" points="189.335,-93.6718 185.835,-83.6719 182.335,-93.6719 189.335,-93.6718"/>
</g>
<!-- Node7 -->
<g id="node14" class="node"><title>Node7</title>
<a xlink:href="stack_8h.html" target="_top" xlink:title="fae/atomic/stack.h">
<polygon fill="none" stroke="black" points="262.212,-60.6953 262.212,-83.3047 373.458,-83.3047 373.458,-60.6953 262.212,-60.6953"/>
<text text-anchor="middle" x="317.835" y="-68.3047" font-family="Futura" font-size="11.00">fae/atomic/stack.h</text>
</a>
</g>
<!-- Node4&#45;&gt;Node7 -->
<g id="edge14" class="edge"><title>Node4&#45;&gt;Node7</title>
<path fill="none" stroke="midnightblue" d="M206.751,-121.81C227.801,-112.56 260.571,-98.1613 285.072,-87.3957"/>
<polygon fill="midnightblue" stroke="midnightblue" points="286.598,-90.5483 294.346,-83.3212 283.782,-84.1397 286.598,-90.5483"/>
</g>
<!-- Node8 -->
<g id="node17" class="node"><title>Node8</title>
<polygon fill="none" stroke="#bfbfbf" points="391.318,-60.6953 391.318,-83.3047 532.352,-83.3047 532.352,-60.6953 391.318,-60.6953"/>
<text text-anchor="middle" x="461.835" y="-68.3047" font-family="Futura" font-size="11.00">fae/atomic/ring_buffer.h</text>
</g>
<!-- Node4&#45;&gt;Node8 -->
<g id="edge18" class="edge"><title>Node4&#45;&gt;Node8</title>
<path fill="none" stroke="midnightblue" d="M207.034,-126.545C248.406,-117.851 341.223,-98.3459 402.668,-85.4337"/>
<polygon fill="midnightblue" stroke="midnightblue" points="403.557,-88.8233 412.624,-83.3415 402.118,-81.973 403.557,-88.8233"/>
</g>
<!-- Node9 -->
<g id="node19" class="node"><title>Node9</title>
<a xlink:href="system_8h.html" target="_top" xlink:title="fae/system.h">
<polygon fill="none" stroke="red" points="550.818,-60.6953 550.818,-83.3047 630.852,-83.3047 630.852,-60.6953 550.818,-60.6953"/>
<text text-anchor="middle" x="590.835" y="-68.3047" font-family="Futura" font-size="11.00">fae/system.h</text>
</a>
</g>
<!-- Node4&#45;&gt;Node9 -->
<g id="edge20" class="edge"><title>Node4&#45;&gt;Node9</title>
<path fill="none" stroke="midnightblue" d="M206.737,-128.86C261.694,-123.099 414.701,-106.183 540.835,-84 540.936,-83.9822 541.038,-83.9643 541.139,-83.9464"/>
<polygon fill="midnightblue" stroke="midnightblue" points="541.601,-87.4212 550.778,-82.1265 540.302,-80.5427 541.601,-87.4212"/>
</g>
<!-- Node5&#45;&gt;Node4 -->
<g id="edge10" class="edge"><title>Node5&#45;&gt;Node4</title>
<path fill="none" stroke="midnightblue" d="M95.3008,-83.475C115.181,-92.524 142.009,-105.712 161.384,-115.901"/>
<polygon fill="midnightblue" stroke="midnightblue" points="159.765,-119.004 170.234,-120.631 163.064,-112.83 159.765,-119.004"/>
</g>
<!-- Node7&#45;&gt;Node2 -->
<g id="edge16" class="edge"><title>Node7&#45;&gt;Node2</title>
<path fill="none" stroke="midnightblue" d="M289.409,-60.6308C261.283,-50.371 218.367,-34.7159 189.49,-24.1821"/>
<polygon fill="midnightblue" stroke="midnightblue" points="190.502,-20.8259 179.908,-20.687 188.103,-27.402 190.502,-20.8259"/>
</g>
<!-- Node10&#45;&gt;Node4 -->
<g id="edge24" class="edge"><title>Node10&#45;&gt;Node4</title>
<path fill="none" stroke="midnightblue" d="M185.835,-180.631C185.835,-173.218 185.835,-162.989 185.835,-153.91"/>
<polygon fill="midnightblue" stroke="midnightblue" points="189.335,-153.672 185.835,-143.672 182.335,-153.672 189.335,-153.672"/>
</g>
</g>
</svg>
