<?xml version="1.0" encoding="UTF-8" standalone="no"?>
<!DOCTYPE svg PUBLIC "-//W3C//DTD SVG 1.1//EN"
 "http://www.w3.org/Graphics/SVG/1.1/DTD/svg11.dtd">
<!-- Generated by graphviz version 2.28.0 (20121015.0031)
 -->
<!-- Title: include/fae.h Pages: 1 -->
<svg width="270pt" height="92pt"
 viewBox="0.00 0.00 270.00 92.00" xmlns="http://www.w3.org/2000/svg" xmlns:xlink="http://www.w3.org/1999/xlink">
<g id="graph1" class="graph" transform="scale(1 1) rotate(0) translate(4 88)">
<title>include/fae.h</title>
<!-- Node1 -->
<g id="node1" class="node"><title>Node1</title>
<polygon fill="#bfbfbf" stroke="black" points="72.667,-60.6953 72.667,-83.3047 155.333,-83.3047 155.333,-60.6953 72.667,-60.6953"/>
<text text-anchor="middle" x="114" y="-68.3047" font-family="Futura" font-size="11.00">include/fae.h</text>
</g>
<!-- Node2 -->
<g id="node3" class="node"><title>Node2</title>
<polygon fill="none" stroke="#bfbfbf" points="-0.652588,-0.695312 -0.652588,-23.3047 60.6526,-23.3047 60.6526,-0.695312 -0.652588,-0.695312"/>
<text text-anchor="middle" x="30" y="-8.30469" font-family="Futura" font-size="11.00">fae/std.h</text>
</g>
<!-- Node1&#45;&gt;Node2 -->
<g id="edge2" class="edge"><title>Node1&#45;&gt;Node2</title>
<path fill="none" stroke="midnightblue" d="M98.9825,-60.6308C86.3989,-51.9421 68.2115,-39.3841 53.6706,-29.344"/>
<polygon fill="midnightblue" stroke="midnightblue" points="55.3884,-26.2768 45.1707,-23.475 51.411,-32.0371 55.3884,-26.2768"/>
</g>
<!-- Node3 -->
<g id="node5" class="node"><title>Node3</title>
<a xlink:href="alloc_8h.html" target="_top" xlink:title="fae/alloc.h">
<polygon fill="none" stroke="black" points="78.4167,-0.695312 78.4167,-23.3047 149.583,-23.3047 149.583,-0.695312 78.4167,-0.695312"/>
<text text-anchor="middle" x="114" y="-8.30469" font-family="Futura" font-size="11.00">fae/alloc.h</text>
</a>
</g>
<!-- Node1&#45;&gt;Node3 -->
<g id="edge4" class="edge"><title>Node1&#45;&gt;Node3</title>
<path fill="none" stroke="midnightblue" d="M114,-60.6308C114,-53.218 114,-42.9888 114,-33.9096"/>
<polygon fill="midnightblue" stroke="midnightblue" points="117.5,-33.6718 114,-23.6719 110.5,-33.6719 117.5,-33.6718"/>
</g>
<!-- Node4 -->
<g id="node7" class="node"><title>Node4</title>
<a xlink:href="interfaces_8h.html" target="_top" xlink:title="fae/interfaces.h">
<polygon fill="none" stroke="black" points="167.251,-0.695312 167.251,-23.3047 262.749,-23.3047 262.749,-0.695312 167.251,-0.695312"/>
<text text-anchor="middle" x="215" y="-8.30469" font-family="Futura" font-size="11.00">fae/interfaces.h</text>
</a>
</g>
<!-- Node1&#45;&gt;Node4 -->
<g id="edge6" class="edge"><title>Node1&#45;&gt;Node4</title>
<path fill="none" stroke="midnightblue" d="M132.057,-60.6308C147.615,-51.6962 170.298,-38.6702 188.013,-28.4977"/>
<polygon fill="midnightblue" stroke="midnightblue" points="189.83,-31.4901 196.759,-23.475 186.344,-25.4198 189.83,-31.4901"/>
</g>
</g>
</svg>
