<?xml version="1.0" encoding="UTF-8" standalone="no"?>
<!DOCTYPE svg PUBLIC "-//W3C//DTD SVG 1.1//EN"
 "http://www.w3.org/Graphics/SVG/1.1/DTD/svg11.dtd">
<!-- Generated by graphviz version 2.28.0 (20121015.0031)
 -->
<!-- Title: src/fae/device/file.c Pages: 1 -->
<svg width="541pt" height="272pt"
 viewBox="0.00 0.00 540.91 272.00" xmlns="http://www.w3.org/2000/svg" xmlns:xlink="http://www.w3.org/1999/xlink">
<g id="graph1" class="graph" transform="scale(1 1) rotate(0) translate(4 268)">
<title>src/fae/device/file.c</title>
<!-- Node1 -->
<g id="node1" class="node"><title>Node1</title>
<polygon fill="#bfbfbf" stroke="black" points="309.754,-240.695 309.754,-263.305 428.074,-263.305 428.074,-240.695 309.754,-240.695"/>
<text text-anchor="middle" x="368.914" y="-248.305" font-family="Futura" font-size="11.00">src/fae/device/file.c</text>
</g>
<!-- Node2 -->
<g id="node3" class="node"><title>Node2</title>
<a xlink:href="file_8h.html" target="_top" xlink:title="fae/device/file.h">
<polygon fill="none" stroke="black" points="183.071,-180.695 183.071,-203.305 282.758,-203.305 282.758,-180.695 183.071,-180.695"/>
<text text-anchor="middle" x="232.914" y="-188.305" font-family="Futura" font-size="11.00">fae/device/file.h</text>
</a>
</g>
<!-- Node1&#45;&gt;Node2 -->
<g id="edge2" class="edge"><title>Node1&#45;&gt;Node2</title>
<path fill="none" stroke="midnightblue" d="M344.6,-240.631C322.977,-231.409 291.135,-217.829 266.977,-207.527"/>
<polygon fill="midnightblue" stroke="midnightblue" points="268.048,-204.178 257.476,-203.475 265.302,-210.617 268.048,-204.178"/>
</g>
<!-- Node5 -->
<g id="node9" class="node"><title>Node5</title>
<a xlink:href="error_8h.html" target="_top" xlink:title="fae/error.h">
<polygon fill="none" stroke="black" points="132.033,-0.695312 132.033,-23.3047 203.795,-23.3047 203.795,-0.695312 132.033,-0.695312"/>
<text text-anchor="middle" x="167.914" y="-8.30469" font-family="Futura" font-size="11.00">fae/error.h</text>
</a>
</g>
<!-- Node1&#45;&gt;Node5 -->
<g id="edge28" class="edge"><title>Node1&#45;&gt;Node5</title>
<path fill="none" stroke="midnightblue" d="M309.562,-242.334C216.577,-227.372 43.5616,-193.466 8.91402,-144 -28.1135,-91.1358 66.0646,-47.7078 124.873,-26.6802"/>
<polygon fill="midnightblue" stroke="midnightblue" points="126.048,-29.9773 134.337,-23.3789 123.742,-23.3679 126.048,-29.9773"/>
</g>
<!-- Node6 -->
<g id="node14" class="node"><title>Node6</title>
<a xlink:href="thread_8h.html" target="_top" xlink:title="fae/thread.h">
<polygon fill="none" stroke="red" points="222.007,-0.695312 222.007,-23.3047 301.821,-23.3047 301.821,-0.695312 222.007,-0.695312"/>
<text text-anchor="middle" x="261.914" y="-8.30469" font-family="Futura" font-size="11.00">fae/thread.h</text>
</a>
</g>
<!-- Node1&#45;&gt;Node6 -->
<g id="edge26" class="edge"><title>Node1&#45;&gt;Node6</title>
<path fill="none" stroke="midnightblue" d="M369.139,-240.634C369.258,-217.799 367.461,-161.858 348.914,-120 332.988,-84.0567 301.699,-50.2011 281.308,-30.5427"/>
<polygon fill="midnightblue" stroke="midnightblue" points="283.503,-27.8027 273.825,-23.493 278.703,-32.8978 283.503,-27.8027"/>
</g>
<!-- Node9 -->
<g id="node24" class="node"><title>Node9</title>
<a xlink:href="util_8h.html" target="_top" xlink:title="fae/util.h">
<polygon fill="none" stroke="red" points="397.055,-180.695 397.055,-203.305 458.773,-203.305 458.773,-180.695 397.055,-180.695"/>
<text text-anchor="middle" x="427.914" y="-188.305" font-family="Futura" font-size="11.00">fae/util.h</text>
</a>
</g>
<!-- Node1&#45;&gt;Node9 -->
<g id="edge30" class="edge"><title>Node1&#45;&gt;Node9</title>
<path fill="none" stroke="midnightblue" d="M379.462,-240.631C387.831,-232.403 399.73,-220.707 409.641,-210.963"/>
<polygon fill="midnightblue" stroke="midnightblue" points="412.381,-213.178 417.058,-203.672 407.473,-208.186 412.381,-213.178"/>
</g>
<!-- Node10 -->
<g id="node26" class="node"><title>Node10</title>
<polygon fill="none" stroke="#bfbfbf" points="476.324,-180.695 476.324,-203.305 533.504,-203.305 533.504,-180.695 476.324,-180.695"/>
<text text-anchor="middle" x="504.914" y="-188.305" font-family="Futura" font-size="11.00">sndfile.h</text>
</g>
<!-- Node1&#45;&gt;Node10 -->
<g id="edge32" class="edge"><title>Node1&#45;&gt;Node10</title>
<path fill="none" stroke="midnightblue" d="M393.228,-240.631C414.851,-231.409 446.693,-217.829 470.851,-207.527"/>
<polygon fill="midnightblue" stroke="midnightblue" points="472.526,-210.617 480.352,-203.475 469.78,-204.178 472.526,-210.617"/>
</g>
<!-- Node3 -->
<g id="node5" class="node"><title>Node3</title>
<a xlink:href="string_8h.html" target="_top" xlink:title="fae/string.h">
<polygon fill="none" stroke="black" points="130.741,-120.695 130.741,-143.305 205.087,-143.305 205.087,-120.695 130.741,-120.695"/>
<text text-anchor="middle" x="167.914" y="-128.305" font-family="Futura" font-size="11.00">fae/string.h</text>
</a>
</g>
<!-- Node2&#45;&gt;Node3 -->
<g id="edge4" class="edge"><title>Node2&#45;&gt;Node3</title>
<path fill="none" stroke="midnightblue" d="M221.293,-180.631C211.89,-172.24 198.444,-160.242 187.399,-150.387"/>
<polygon fill="midnightblue" stroke="midnightblue" points="189.666,-147.718 179.874,-143.672 185.005,-152.941 189.666,-147.718"/>
</g>
<!-- Node7 -->
<g id="node17" class="node"><title>Node7</title>
<a xlink:href="device_8h.html" target="_top" xlink:title="fae/device.h">
<polygon fill="none" stroke="black" points="261.251,-120.695 261.251,-143.305 340.577,-143.305 340.577,-120.695 261.251,-120.695"/>
<text text-anchor="middle" x="300.914" y="-128.305" font-family="Futura" font-size="11.00">fae/device.h</text>
</a>
</g>
<!-- Node2&#45;&gt;Node7 -->
<g id="edge20" class="edge"><title>Node2&#45;&gt;Node7</title>
<path fill="none" stroke="midnightblue" d="M245.071,-180.631C254.908,-172.24 268.975,-160.242 280.529,-150.387"/>
<polygon fill="midnightblue" stroke="midnightblue" points="283.065,-152.824 288.402,-143.672 278.522,-147.498 283.065,-152.824"/>
</g>
<!-- Node8 -->
<g id="node20" class="node"><title>Node8</title>
<polygon fill="none" stroke="#bfbfbf" points="17.4848,-120.695 17.4848,-143.305 112.343,-143.305 112.343,-120.695 17.4848,-120.695"/>
<text text-anchor="middle" x="64.914" y="-128.305" font-family="Futura" font-size="11.00">fae/processor.h</text>
</g>
<!-- Node2&#45;&gt;Node8 -->
<g id="edge24" class="edge"><title>Node2&#45;&gt;Node8</title>
<path fill="none" stroke="midnightblue" d="M202.879,-180.631C175.49,-171.175 134.828,-157.137 104.737,-146.748"/>
<polygon fill="midnightblue" stroke="midnightblue" points="105.567,-143.332 94.9718,-143.377 103.282,-149.949 105.567,-143.332"/>
</g>
<!-- Node4 -->
<g id="node7" class="node"><title>Node4</title>
<a xlink:href="fae_2fae_8h.html" target="_top" xlink:title="fae.h">
<polygon fill="none" stroke="red" points="212.144,-60.6953 212.144,-83.3047 253.684,-83.3047 253.684,-60.6953 212.144,-60.6953"/>
<text text-anchor="middle" x="232.914" y="-68.3047" font-family="Futura" font-size="11.00">fae.h</text>
</a>
</g>
<!-- Node3&#45;&gt;Node4 -->
<g id="edge6" class="edge"><title>Node3&#45;&gt;Node4</title>
<path fill="none" stroke="midnightblue" d="M179.535,-120.631C188.938,-112.24 202.384,-100.242 213.429,-90.3869"/>
<polygon fill="midnightblue" stroke="midnightblue" points="215.823,-92.9413 220.954,-83.6719 211.162,-87.7183 215.823,-92.9413"/>
</g>
<!-- Node4&#45;&gt;Node2 -->
<g id="edge14" class="edge"><title>Node4&#45;&gt;Node2</title>
<path fill="none" stroke="midnightblue" d="M232.914,-83.6179C232.914,-103.1 232.914,-144.874 232.914,-170.192"/>
<polygon fill="midnightblue" stroke="midnightblue" points="229.414,-170.528 232.914,-180.528 236.414,-170.528 229.414,-170.528"/>
</g>
<!-- Node4&#45;&gt;Node5 -->
<g id="edge8" class="edge"><title>Node4&#45;&gt;Node5</title>
<path fill="none" stroke="midnightblue" d="M215.977,-60.6308C205.263,-52.4034 191.828,-40.7066 181.75,-30.9633"/>
<polygon fill="midnightblue" stroke="midnightblue" points="184.035,-28.2978 174.504,-23.6719 179.07,-33.2321 184.035,-28.2978"/>
</g>
<!-- Node4&#45;&gt;Node6 -->
<g id="edge16" class="edge"><title>Node4&#45;&gt;Node6</title>
<path fill="none" stroke="midnightblue" d="M232.783,-60.6308C235.272,-52.8107 240.384,-41.8562 245.79,-32.4241"/>
<polygon fill="midnightblue" stroke="midnightblue" points="248.921,-34.0168 251.208,-23.6719 242.969,-30.3325 248.921,-34.0168"/>
</g>
<!-- Node5&#45;&gt;Node3 -->
<g id="edge12" class="edge"><title>Node5&#45;&gt;Node3</title>
<path fill="none" stroke="midnightblue" d="M167.914,-23.6179C167.914,-43.0995 167.914,-84.8736 167.914,-110.192"/>
<polygon fill="midnightblue" stroke="midnightblue" points="164.414,-110.528 167.914,-120.528 171.414,-110.528 164.414,-110.528"/>
</g>
<!-- Node5&#45;&gt;Node4 -->
<g id="edge10" class="edge"><title>Node5&#45;&gt;Node4</title>
<path fill="none" stroke="midnightblue" d="M184.988,-23.475C195.793,-31.7836 209.326,-43.5816 219.395,-53.3437"/>
<polygon fill="midnightblue" stroke="midnightblue" points="217.086,-55.9866 226.609,-60.6308 222.061,-51.0618 217.086,-55.9866"/>
</g>
<!-- Node6&#45;&gt;Node4 -->
<g id="edge18" class="edge"><title>Node6&#45;&gt;Node4</title>
<path fill="none" stroke="midnightblue" d="M261.948,-23.6719C259.392,-31.5716 254.243,-42.5461 248.829,-51.9383"/>
<polygon fill="midnightblue" stroke="midnightblue" points="245.731,-50.2923 243.415,-60.6308 251.673,-53.9936 245.731,-50.2923"/>
</g>
<!-- Node7&#45;&gt;Node4 -->
<g id="edge22" class="edge"><title>Node7&#45;&gt;Node4</title>
<path fill="none" stroke="midnightblue" d="M288.757,-120.631C278.92,-112.24 264.853,-100.242 253.299,-90.3869"/>
<polygon fill="midnightblue" stroke="midnightblue" points="255.306,-87.4984 245.426,-83.6719 250.763,-92.8243 255.306,-87.4984"/>
</g>
</g>
</svg>
