<?xml version="1.0" encoding="UTF-8" standalone="no"?>
<!DOCTYPE svg PUBLIC "-//W3C//DTD SVG 1.1//EN"
 "http://www.w3.org/Graphics/SVG/1.1/DTD/svg11.dtd">
<!-- Generated by graphviz version 2.28.0 (20121015.0031)
 -->
<!-- Title: include/fae/device/file.h Pages: 1 -->
<svg width="832pt" height="226pt"
 viewBox="0.00 0.00 832.09 226.00" xmlns="http://www.w3.org/2000/svg" xmlns:xlink="http://www.w3.org/1999/xlink">
<g id="graph1" class="graph" transform="scale(1 1) rotate(0) translate(4 222)">
<title>include/fae/device/file.h</title>
<!-- Node1 -->
<g id="node1" class="node"><title>Node1</title>
<polygon fill="#bfbfbf" stroke="black" points="371.578,-180.391 371.578,-217.609 482.603,-217.609 482.603,-180.391 371.578,-180.391"/>
<text text-anchor="start" x="379.578" y="-202.609" font-family="Futura" font-size="11.00">include/fae/device</text>
<text text-anchor="middle" x="427.09" y="-188" font-family="Futura" font-size="11.00">/file.h</text>
</g>
<!-- Node2 -->
<g id="node3" class="node"><title>Node2</title>
<a xlink:href="fae_2fae_8h.html" target="_top" xlink:title="include/fae/fae.h">
<polygon fill="none" stroke="red" points="306.851,-120.695 306.851,-143.305 411.329,-143.305 411.329,-120.695 306.851,-120.695"/>
<text text-anchor="middle" x="359.09" y="-128.305" font-family="Futura" font-size="11.00">include/fae/fae.h</text>
</a>
</g>
<!-- Node1&#45;&gt;Node2 -->
<g id="edge2" class="edge"><title>Node1&#45;&gt;Node2</title>
<path fill="none" stroke="midnightblue" d="M400.996,-173.057C390.322,-162.854 378.548,-151.599 370.205,-143.624"/>
<polygon fill="midnightblue" stroke="midnightblue" points="398.862,-175.859 408.509,-180.238 403.699,-170.799 398.862,-175.859"/>
</g>
<!-- Node8 -->
<g id="node18" class="node"><title>Node8</title>
<a xlink:href="file_8c.html" target="_top" xlink:title="src/fae/device/file.c">
<polygon fill="none" stroke="black" points="247.931,-0.695312 247.931,-23.3047 366.25,-23.3047 366.25,-0.695312 247.931,-0.695312"/>
<text text-anchor="middle" x="307.09" y="-8.30469" font-family="Futura" font-size="11.00">src/fae/device/file.c</text>
</a>
</g>
<!-- Node1&#45;&gt;Node8 -->
<g id="edge28" class="edge"><title>Node1&#45;&gt;Node8</title>
<path fill="none" stroke="midnightblue" d="M361.41,-189.947C253.981,-175.277 48.2775,-140.402 5.09037,-84 -1.39443,-75.5309 -1.84797,-68.1017 5.09037,-60 35.6793,-24.2823 168.687,-15.4937 247.623,-13.4666"/>
<polygon fill="midnightblue" stroke="midnightblue" points="361.114,-193.439 371.491,-191.304 362.047,-186.501 361.114,-193.439"/>
</g>
<!-- Node10 -->
<g id="node23" class="node"><title>Node10</title>
<a xlink:href="device_2buffer_8c.html" target="_top" xlink:title="src/fae/device/buffer.c">
<polygon fill="none" stroke="black" points="429.629,-120.695 429.629,-143.305 562.552,-143.305 562.552,-120.695 429.629,-120.695"/>
<text text-anchor="middle" x="496.09" y="-128.305" font-family="Futura" font-size="11.00">src/fae/device/buffer.c</text>
</a>
</g>
<!-- Node1&#45;&gt;Node10 -->
<g id="edge26" class="edge"><title>Node1&#45;&gt;Node10</title>
<path fill="none" stroke="midnightblue" d="M453.253,-173.354C464.167,-163.073 476.264,-151.677 484.812,-143.624"/>
<polygon fill="midnightblue" stroke="midnightblue" points="450.824,-170.834 445.945,-180.238 455.624,-175.929 450.824,-170.834"/>
</g>
<!-- Node3 -->
<g id="node5" class="node"><title>Node3</title>
<a xlink:href="atomic_8h.html" target="_top" xlink:title="include/fae/atomic.h">
<polygon fill="none" stroke="red" points="298.421,-60.6953 298.421,-83.3047 419.759,-83.3047 419.759,-60.6953 298.421,-60.6953"/>
<text text-anchor="middle" x="359.09" y="-68.3047" font-family="Futura" font-size="11.00">include/fae/atomic.h</text>
</a>
</g>
<!-- Node2&#45;&gt;Node3 -->
<g id="edge4" class="edge"><title>Node2&#45;&gt;Node3</title>
<path fill="none" stroke="midnightblue" d="M352.602,-110.459C352.027,-101.411 352.4,-91.1602 353.72,-83.6719"/>
<polygon fill="midnightblue" stroke="midnightblue" points="349.153,-111.097 353.775,-120.631 356.107,-110.296 349.153,-111.097"/>
</g>
<!-- Node4 -->
<g id="node8" class="node"><title>Node4</title>
<a xlink:href="buffer_8h.html" target="_top" xlink:title="include/fae/buffer.h">
<polygon fill="none" stroke="red" points="437.274,-60.6953 437.274,-83.3047 554.906,-83.3047 554.906,-60.6953 437.274,-60.6953"/>
<text text-anchor="middle" x="496.09" y="-68.3047" font-family="Futura" font-size="11.00">include/fae/buffer.h</text>
</a>
</g>
<!-- Node2&#45;&gt;Node4 -->
<g id="edge8" class="edge"><title>Node2&#45;&gt;Node4</title>
<path fill="none" stroke="midnightblue" d="M392.802,-116.728C417.116,-106.434 449.39,-92.7708 471.348,-83.475"/>
<polygon fill="midnightblue" stroke="midnightblue" points="391.427,-113.509 383.583,-120.631 394.157,-119.955 391.427,-113.509"/>
</g>
<!-- Node5 -->
<g id="node10" class="node"><title>Node5</title>
<a xlink:href="device_8h.html" target="_top" xlink:title="include/fae/device.h">
<polygon fill="none" stroke="red" points="703.865,-60.6953 703.865,-83.3047 824.316,-83.3047 824.316,-60.6953 703.865,-60.6953"/>
<text text-anchor="middle" x="764.09" y="-68.3047" font-family="Futura" font-size="11.00">include/fae/device.h</text>
</a>
</g>
<!-- Node2&#45;&gt;Node5 -->
<g id="edge10" class="edge"><title>Node2&#45;&gt;Node5</title>
<path fill="none" stroke="midnightblue" d="M421.615,-119.976C543.731,-101.304 576.158,-101.039 694.09,-84 697.256,-83.5426 700.501,-83.0647 703.776,-82.5751"/>
<polygon fill="midnightblue" stroke="midnightblue" points="420.844,-116.553 411.493,-121.534 421.91,-123.471 420.844,-116.553"/>
</g>
<!-- Node6 -->
<g id="node13" class="node"><title>Node6</title>
<a xlink:href="dynamic_8h.html" target="_top" xlink:title="include/fae/dynamic.h">
<polygon fill="none" stroke="red" points="13.9661,-60.6953 13.9661,-83.3047 144.215,-83.3047 144.215,-60.6953 13.9661,-60.6953"/>
<text text-anchor="middle" x="79.0904" y="-68.3047" font-family="Futura" font-size="11.00">include/fae/dynamic.h</text>
</a>
</g>
<!-- Node2&#45;&gt;Node6 -->
<g id="edge14" class="edge"><title>Node2&#45;&gt;Node6</title>
<path fill="none" stroke="midnightblue" d="M299.198,-118.594C248.554,-108.103 176.832,-93.2465 129.187,-83.3771"/>
<polygon fill="midnightblue" stroke="midnightblue" points="298.53,-122.03 309.032,-120.631 299.95,-115.175 298.53,-122.03"/>
</g>
<!-- Node7 -->
<g id="node15" class="node"><title>Node7</title>
<a xlink:href="error_8h.html" target="_top" xlink:title="include/fae/error.h">
<polygon fill="none" stroke="red" points="572.646,-60.6953 572.646,-83.3047 685.535,-83.3047 685.535,-60.6953 572.646,-60.6953"/>
<text text-anchor="middle" x="629.09" y="-68.3047" font-family="Futura" font-size="11.00">include/fae/error.h</text>
</a>
</g>
<!-- Node2&#45;&gt;Node7 -->
<g id="edge16" class="edge"><title>Node2&#45;&gt;Node7</title>
<path fill="none" stroke="midnightblue" d="M412.081,-118.396C459.324,-107.918 528.029,-93.1848 575.466,-83.3771"/>
<polygon fill="midnightblue" stroke="midnightblue" points="411.045,-115.041 402.045,-120.631 412.567,-121.874 411.045,-115.041"/>
</g>
<!-- Node9 -->
<g id="node20" class="node"><title>Node9</title>
<a xlink:href="graph_8h.html" target="_top" xlink:title="include/fae/graph.h">
<polygon fill="none" stroke="red" points="161.984,-60.6953 161.984,-83.3047 280.196,-83.3047 280.196,-60.6953 161.984,-60.6953"/>
<text text-anchor="middle" x="221.09" y="-68.3047" font-family="Futura" font-size="11.00">include/fae/graph.h</text>
</a>
</g>
<!-- Node2&#45;&gt;Node9 -->
<g id="edge22" class="edge"><title>Node2&#45;&gt;Node9</title>
<path fill="none" stroke="midnightblue" d="M319.567,-116.864C293.73,-106.555 261.215,-92.8119 240.679,-83.475"/>
<polygon fill="midnightblue" stroke="midnightblue" points="318.516,-120.212 329.103,-120.631 321.088,-113.702 318.516,-120.212"/>
</g>
<!-- Node3&#45;&gt;Node2 -->
<g id="edge6" class="edge"><title>Node3&#45;&gt;Node2</title>
<path fill="none" stroke="midnightblue" d="M365.583,-93.6107C366.16,-102.764 365.768,-113.137 364.406,-120.631"/>
<polygon fill="midnightblue" stroke="midnightblue" points="369.061,-93.2159 364.46,-83.6719 362.105,-94.0015 369.061,-93.2159"/>
</g>
<!-- Node5&#45;&gt;Node1 -->
<g id="edge12" class="edge"><title>Node5&#45;&gt;Node1</title>
<path fill="none" stroke="midnightblue" d="M726.28,-87.0244C664.54,-109.925 542.203,-155.302 474.659,-180.356"/>
<polygon fill="midnightblue" stroke="midnightblue" points="727.85,-90.1754 736.009,-83.4161 725.416,-83.6123 727.85,-90.1754"/>
</g>
<!-- Node7&#45;&gt;Node2 -->
<g id="edge18" class="edge"><title>Node7&#45;&gt;Node2</title>
<path fill="none" stroke="midnightblue" d="M576.271,-85.5656C528.581,-96.1448 458.92,-111.08 411.388,-120.897"/>
<polygon fill="midnightblue" stroke="midnightblue" points="577.098,-88.9673 586.098,-83.3776 575.577,-82.1346 577.098,-88.9673"/>
</g>
<!-- Node7&#45;&gt;Node8 -->
<g id="edge20" class="edge"><title>Node7&#45;&gt;Node8</title>
<path fill="none" stroke="midnightblue" d="M562.766,-59.0534C504.358,-48.5326 420.164,-33.3673 364.568,-23.353"/>
<polygon fill="midnightblue" stroke="midnightblue" points="562.172,-62.5026 572.634,-60.8308 563.413,-55.6134 562.172,-62.5026"/>
</g>
<!-- Node9&#45;&gt;Node2 -->
<g id="edge24" class="edge"><title>Node9&#45;&gt;Node2</title>
<path fill="none" stroke="midnightblue" d="M260.667,-87.1567C286.592,-97.5023 319.225,-111.298 339.735,-120.631"/>
<polygon fill="midnightblue" stroke="midnightblue" points="261.685,-83.7957 251.098,-83.3771 259.113,-90.3062 261.685,-83.7957"/>
</g>
</g>
</svg>
