<?xml version="1.0" encoding="UTF-8" standalone="no"?>
<!DOCTYPE svg PUBLIC "-//W3C//DTD SVG 1.1//EN"
 "http://www.w3.org/Graphics/SVG/1.1/DTD/svg11.dtd">
<!-- Generated by graphviz version 2.28.0 (20121015.0031)
 -->
<!-- Title: include/fae/device/file.h Pages: 1 -->
<svg width="610pt" height="226pt"
 viewBox="0.00 0.00 610.00 226.00" xmlns="http://www.w3.org/2000/svg" xmlns:xlink="http://www.w3.org/1999/xlink">
<g id="graph1" class="graph" transform="scale(1 1) rotate(0) translate(4 222)">
<title>include/fae/device/file.h</title>
<!-- Node1 -->
<g id="node1" class="node"><title>Node1</title>
<polygon fill="#bfbfbf" stroke="black" points="219.487,-180.391 219.487,-217.609 330.513,-217.609 330.513,-180.391 219.487,-180.391"/>
<text text-anchor="start" x="227.487" y="-202.609" font-family="Futura" font-size="11.00">include/fae/device</text>
<text text-anchor="middle" x="275" y="-188" font-family="Futura" font-size="11.00">/file.h</text>
</g>
<!-- Node2 -->
<g id="node3" class="node"><title>Node2</title>
<a xlink:href="string_8h.html" target="_top" xlink:title="fae/string.h">
<polygon fill="none" stroke="black" points="90.8269,-120.695 90.8269,-143.305 165.173,-143.305 165.173,-120.695 90.8269,-120.695"/>
<text text-anchor="middle" x="128" y="-128.305" font-family="Futura" font-size="11.00">fae/string.h</text>
</a>
</g>
<!-- Node1&#45;&gt;Node2 -->
<g id="edge2" class="edge"><title>Node1&#45;&gt;Node2</title>
<path fill="none" stroke="midnightblue" d="M234.832,-180.238C211.58,-169.957 182.682,-157.179 160.807,-147.506"/>
<polygon fill="midnightblue" stroke="midnightblue" points="162.159,-144.277 151.598,-143.434 159.328,-150.68 162.159,-144.277"/>
</g>
<!-- Node9 -->
<g id="node19" class="node"><title>Node9</title>
<a xlink:href="device_8h.html" target="_top" xlink:title="fae/device.h">
<polygon fill="none" stroke="black" points="183.337,-120.695 183.337,-143.305 262.663,-143.305 262.663,-120.695 183.337,-120.695"/>
<text text-anchor="middle" x="223" y="-128.305" font-family="Futura" font-size="11.00">fae/device.h</text>
</a>
</g>
<!-- Node1&#45;&gt;Node9 -->
<g id="edge20" class="edge"><title>Node1&#45;&gt;Node9</title>
<path fill="none" stroke="midnightblue" d="M260.791,-180.238C253.681,-171.351 245.079,-160.598 237.879,-151.598"/>
<polygon fill="midnightblue" stroke="midnightblue" points="240.479,-149.247 231.499,-143.624 235.013,-153.619 240.479,-149.247"/>
</g>
<!-- Node10 -->
<g id="node22" class="node"><title>Node10</title>
<polygon fill="none" stroke="#bfbfbf" points="280.571,-120.695 280.571,-143.305 375.429,-143.305 375.429,-120.695 280.571,-120.695"/>
<text text-anchor="middle" x="328" y="-128.305" font-family="Futura" font-size="11.00">fae/processor.h</text>
</g>
<!-- Node1&#45;&gt;Node10 -->
<g id="edge24" class="edge"><title>Node1&#45;&gt;Node10</title>
<path fill="none" stroke="midnightblue" d="M289.482,-180.238C296.729,-171.351 305.497,-160.598 312.835,-151.598"/>
<polygon fill="midnightblue" stroke="midnightblue" points="315.73,-153.586 319.337,-143.624 310.305,-149.163 315.73,-153.586"/>
</g>
<!-- Node3 -->
<g id="node5" class="node"><title>Node3</title>
<a xlink:href="fae_2fae_8h.html" target="_top" xlink:title="fae.h">
<polygon fill="none" stroke="red" points="202.23,-60.6953 202.23,-83.3047 243.77,-83.3047 243.77,-60.6953 202.23,-60.6953"/>
<text text-anchor="middle" x="223" y="-68.3047" font-family="Futura" font-size="11.00">fae.h</text>
</a>
</g>
<!-- Node2&#45;&gt;Node3 -->
<g id="edge4" class="edge"><title>Node2&#45;&gt;Node3</title>
<path fill="none" stroke="midnightblue" d="M144.984,-120.631C159.484,-111.778 180.563,-98.9089 197.156,-88.7784"/>
<polygon fill="midnightblue" stroke="midnightblue" points="199.131,-91.6732 205.843,-83.475 195.484,-85.6987 199.131,-91.6732"/>
</g>
<!-- Node3&#45;&gt;Node1 -->
<g id="edge18" class="edge"><title>Node3&#45;&gt;Node1</title>
<path fill="none" stroke="midnightblue" d="M243.775,-75.9586C283.334,-82.0631 367.056,-97.4024 384,-120 402.374,-144.505 373.039,-164.431 340.197,-178.009"/>
<polygon fill="midnightblue" stroke="midnightblue" points="338.906,-174.756 330.877,-181.669 341.465,-181.271 338.906,-174.756"/>
</g>
<!-- Node4 -->
<g id="node7" class="node"><title>Node4</title>
<a xlink:href="atomic_8h.html" target="_top" xlink:title="fae/atomic.h">
<polygon fill="none" stroke="red" points="-0.105713,-0.695312 -0.105713,-23.3047 80.1057,-23.3047 80.1057,-0.695312 -0.105713,-0.695312"/>
<text text-anchor="middle" x="40" y="-8.30469" font-family="Futura" font-size="11.00">fae/atomic.h</text>
</a>
</g>
<!-- Node3&#45;&gt;Node4 -->
<g id="edge6" class="edge"><title>Node3&#45;&gt;Node4</title>
<path fill="none" stroke="midnightblue" d="M201.999,-65.6475C171.417,-56.8433 114.681,-39.0415 77.0493,-26.5866"/>
<polygon fill="midnightblue" stroke="midnightblue" points="78.0443,-23.229 67.4506,-23.386 75.83,-29.8696 78.0443,-23.229"/>
</g>
<!-- Node5 -->
<g id="node10" class="node"><title>Node5</title>
<polygon fill="none" stroke="#bfbfbf" points="98.6057,-0.695312 98.6057,-23.3047 215.394,-23.3047 215.394,-0.695312 98.6057,-0.695312"/>
<text text-anchor="middle" x="157" y="-8.30469" font-family="Futura" font-size="11.00">fae/atomic/queue.h</text>
</g>
<!-- Node3&#45;&gt;Node5 -->
<g id="edge10" class="edge"><title>Node3&#45;&gt;Node5</title>
<path fill="none" stroke="midnightblue" d="M211.201,-60.6308C201.653,-52.2405 187.999,-40.242 176.785,-30.3869"/>
<polygon fill="midnightblue" stroke="midnightblue" points="178.966,-27.644 169.144,-23.6719 174.345,-32.9021 178.966,-27.644"/>
</g>
<!-- Node6 -->
<g id="node12" class="node"><title>Node6</title>
<a xlink:href="stack_8h.html" target="_top" xlink:title="fae/atomic/stack.h">
<polygon fill="none" stroke="red" points="233.377,-0.695312 233.377,-23.3047 344.623,-23.3047 344.623,-0.695312 233.377,-0.695312"/>
<text text-anchor="middle" x="289" y="-8.30469" font-family="Futura" font-size="11.00">fae/atomic/stack.h</text>
</a>
</g>
<!-- Node3&#45;&gt;Node6 -->
<g id="edge12" class="edge"><title>Node3&#45;&gt;Node6</title>
<path fill="none" stroke="midnightblue" d="M234.799,-60.6308C244.347,-52.2405 258.001,-40.242 269.215,-30.3869"/>
<polygon fill="midnightblue" stroke="midnightblue" points="271.655,-32.9021 276.856,-23.6719 267.034,-27.644 271.655,-32.9021"/>
</g>
<!-- Node7 -->
<g id="node14" class="node"><title>Node7</title>
<polygon fill="none" stroke="#bfbfbf" points="362.483,-0.695312 362.483,-23.3047 503.517,-23.3047 503.517,-0.695312 362.483,-0.695312"/>
<text text-anchor="middle" x="433" y="-8.30469" font-family="Futura" font-size="11.00">fae/atomic/ring_buffer.h</text>
</g>
<!-- Node3&#45;&gt;Node7 -->
<g id="edge14" class="edge"><title>Node3&#45;&gt;Node7</title>
<path fill="none" stroke="midnightblue" d="M243.903,-65.2267C276.793,-56.143 341.451,-38.285 385.927,-26.0012"/>
<polygon fill="midnightblue" stroke="midnightblue" points="386.942,-29.352 395.649,-23.316 385.078,-22.6046 386.942,-29.352"/>
</g>
<!-- Node8 -->
<g id="node16" class="node"><title>Node8</title>
<a xlink:href="system_8h.html" target="_top" xlink:title="fae/system.h">
<polygon fill="none" stroke="red" points="521.983,-0.695312 521.983,-23.3047 602.017,-23.3047 602.017,-0.695312 521.983,-0.695312"/>
<text text-anchor="middle" x="562" y="-8.30469" font-family="Futura" font-size="11.00">fae/system.h</text>
</a>
</g>
<!-- Node3&#45;&gt;Node8 -->
<g id="edge16" class="edge"><title>Node3&#45;&gt;Node8</title>
<path fill="none" stroke="midnightblue" d="M244.102,-67.9772C291.921,-61.038 412.143,-43.0891 512,-24 512.101,-23.9807 512.202,-23.9614 512.303,-23.942"/>
<polygon fill="midnightblue" stroke="midnightblue" points="512.802,-27.4115 521.923,-22.0214 511.431,-20.547 512.802,-27.4115"/>
</g>
<!-- Node4&#45;&gt;Node3 -->
<g id="edge8" class="edge"><title>Node4&#45;&gt;Node3</title>
<path fill="none" stroke="midnightblue" d="M78.1329,-23.3993C112.112,-33.5841 161.014,-49.0645 192.479,-59.5847"/>
<polygon fill="midnightblue" stroke="midnightblue" points="191.447,-62.9303 202.042,-62.813 193.687,-56.2981 191.447,-62.9303"/>
</g>
<!-- Node9&#45;&gt;Node3 -->
<g id="edge22" class="edge"><title>Node9&#45;&gt;Node3</title>
<path fill="none" stroke="midnightblue" d="M223,-120.631C223,-113.218 223,-102.989 223,-93.9096"/>
<polygon fill="midnightblue" stroke="midnightblue" points="226.5,-93.6718 223,-83.6719 219.5,-93.6719 226.5,-93.6718"/>
</g>
</g>
</svg>
