<?xml version="1.0" encoding="UTF-8" standalone="no"?>
<!DOCTYPE svg PUBLIC "-//W3C//DTD SVG 1.1//EN"
 "http://www.w3.org/Graphics/SVG/1.1/DTD/svg11.dtd">
<!-- Generated by graphviz version 2.28.0 (20121015.0031)
 -->
<!-- Title: src/fae/plot/gnuplot.c Pages: 1 -->
<svg width="512pt" height="332pt"
 viewBox="0.00 0.00 512.00 332.00" xmlns="http://www.w3.org/2000/svg" xmlns:xlink="http://www.w3.org/1999/xlink">
<g id="graph1" class="graph" transform="scale(1 1) rotate(0) translate(4 328)">
<title>src/fae/plot/gnuplot.c</title>
<!-- Node1 -->
<g id="node1" class="node"><title>Node1</title>
<polygon fill="#bfbfbf" stroke="black" points="298.891,-300.695 298.891,-323.305 427.109,-323.305 427.109,-300.695 298.891,-300.695"/>
<text text-anchor="middle" x="363" y="-308.305" font-family="Futura" font-size="11.00">src/fae/plot/gnuplot.c</text>
</g>
<!-- Node2 -->
<g id="node3" class="node"><title>Node2</title>
<a xlink:href="plot_8h.html" target="_top" xlink:title="fae/plot.h">
<polygon fill="none" stroke="black" points="277.871,-240.695 277.871,-263.305 344.129,-263.305 344.129,-240.695 277.871,-240.695"/>
<text text-anchor="middle" x="311" y="-248.305" font-family="Futura" font-size="11.00">fae/plot.h</text>
</a>
</g>
<!-- Node1&#45;&gt;Node2 -->
<g id="edge2" class="edge"><title>Node1&#45;&gt;Node2</title>
<path fill="none" stroke="midnightblue" d="M353.703,-300.631C346.4,-292.485 336.048,-280.938 327.365,-271.253"/>
<polygon fill="midnightblue" stroke="midnightblue" points="329.849,-268.781 320.568,-263.672 324.637,-273.454 329.849,-268.781"/>
</g>
<!-- Node4 -->
<g id="node7" class="node"><title>Node4</title>
<a xlink:href="system_8h.html" target="_top" xlink:title="fae/system.h">
<polygon fill="none" stroke="black" points="132.983,-60.6953 132.983,-83.3047 213.017,-83.3047 213.017,-60.6953 132.983,-60.6953"/>
<text text-anchor="middle" x="173" y="-68.3047" font-family="Futura" font-size="11.00">fae/system.h</text>
</a>
</g>
<!-- Node1&#45;&gt;Node4 -->
<g id="edge30" class="edge"><title>Node1&#45;&gt;Node4</title>
<path fill="none" stroke="midnightblue" d="M330.202,-300.575C310.507,-292.977 286.048,-281.012 269,-264 218.55,-213.656 189.768,-131.359 178.535,-93.3808"/>
<polygon fill="midnightblue" stroke="midnightblue" points="181.827,-92.1594 175.718,-83.5029 175.095,-94.0794 181.827,-92.1594"/>
</g>
<!-- Node7 -->
<g id="node14" class="node"><title>Node7</title>
<a xlink:href="thread_8h.html" target="_top" xlink:title="fae/thread.h">
<polygon fill="none" stroke="black" points="231.093,-60.6953 231.093,-83.3047 310.907,-83.3047 310.907,-60.6953 231.093,-60.6953"/>
<text text-anchor="middle" x="271" y="-68.3047" font-family="Futura" font-size="11.00">fae/thread.h</text>
</a>
</g>
<!-- Node1&#45;&gt;Node7 -->
<g id="edge28" class="edge"><title>Node1&#45;&gt;Node7</title>
<path fill="none" stroke="midnightblue" d="M364.794,-300.368C368.192,-277.473 373.892,-222.169 358,-180 344.149,-143.248 312.326,-109.661 291.251,-90.2738"/>
<polygon fill="midnightblue" stroke="midnightblue" points="293.543,-87.6282 283.76,-83.5616 288.872,-92.8416 293.543,-87.6282"/>
</g>
<!-- Node10 -->
<g id="node26" class="node"><title>Node10</title>
<a xlink:href="util_8h.html" target="_top" xlink:title="fae/util.h">
<polygon fill="none" stroke="red" points="443.141,-240.695 443.141,-263.305 504.859,-263.305 504.859,-240.695 443.141,-240.695"/>
<text text-anchor="middle" x="474" y="-248.305" font-family="Futura" font-size="11.00">fae/util.h</text>
</a>
</g>
<!-- Node1&#45;&gt;Node10 -->
<g id="edge32" class="edge"><title>Node1&#45;&gt;Node10</title>
<path fill="none" stroke="midnightblue" d="M382.845,-300.631C400.1,-291.614 425.331,-278.431 444.875,-268.218"/>
<polygon fill="midnightblue" stroke="midnightblue" points="446.711,-271.208 453.953,-263.475 443.469,-265.004 446.711,-271.208"/>
</g>
<!-- Node3 -->
<g id="node5" class="node"><title>Node3</title>
<a xlink:href="fae_2fae_8h.html" target="_top" xlink:title="fae.h">
<polygon fill="none" stroke="red" points="233.23,-120.695 233.23,-143.305 274.77,-143.305 274.77,-120.695 233.23,-120.695"/>
<text text-anchor="middle" x="254" y="-128.305" font-family="Futura" font-size="11.00">fae.h</text>
</a>
</g>
<!-- Node2&#45;&gt;Node3 -->
<g id="edge4" class="edge"><title>Node2&#45;&gt;Node3</title>
<path fill="none" stroke="midnightblue" d="M289.002,-240.599C276.555,-232.063 262.468,-218.973 255,-204 247.208,-188.377 244.952,-168.562 245.985,-153.838"/>
<polygon fill="midnightblue" stroke="midnightblue" points="249.481,-154.108 247.379,-143.724 242.547,-153.152 249.481,-154.108"/>
</g>
<!-- Node8 -->
<g id="node17" class="node"><title>Node8</title>
<polygon fill="none" stroke="#bfbfbf" points="308.347,-0.695312 308.347,-23.3047 369.653,-23.3047 369.653,-0.695312 308.347,-0.695312"/>
<text text-anchor="middle" x="339" y="-8.30469" font-family="Futura" font-size="11.00">fae/std.h</text>
</g>
<!-- Node2&#45;&gt;Node8 -->
<g id="edge20" class="edge"><title>Node2&#45;&gt;Node8</title>
<path fill="none" stroke="midnightblue" d="M326.929,-240.346C337.954,-231.944 351.729,-219.139 358,-204 382.154,-145.688 360.166,-69.108 347.092,-33.2121"/>
<polygon fill="midnightblue" stroke="midnightblue" points="350.204,-31.5491 343.381,-23.4435 343.66,-34.0346 350.204,-31.5491"/>
</g>
<!-- Node9 -->
<g id="node20" class="node"><title>Node9</title>
<a xlink:href="buffer_8h.html" target="_top" xlink:title="fae/buffer.h">
<polygon fill="none" stroke="red" points="272.747,-180.695 272.747,-203.305 349.253,-203.305 349.253,-180.695 272.747,-180.695"/>
<text text-anchor="middle" x="311" y="-188.305" font-family="Futura" font-size="11.00">fae/buffer.h</text>
</a>
</g>
<!-- Node2&#45;&gt;Node9 -->
<g id="edge22" class="edge"><title>Node2&#45;&gt;Node9</title>
<path fill="none" stroke="midnightblue" d="M311,-240.631C311,-233.218 311,-222.989 311,-213.91"/>
<polygon fill="midnightblue" stroke="midnightblue" points="314.5,-213.672 311,-203.672 307.5,-213.672 314.5,-213.672"/>
</g>
<!-- Node3&#45;&gt;Node2 -->
<g id="edge12" class="edge"><title>Node3&#45;&gt;Node2</title>
<path fill="none" stroke="midnightblue" d="M259.53,-143.724C262.162,-158.188 263.222,-184.395 273,-204 278.62,-215.269 287.989,-225.471 296.193,-233.468"/>
<polygon fill="midnightblue" stroke="midnightblue" points="293.872,-236.09 303.54,-240.422 298.684,-231.006 293.872,-236.09"/>
</g>
<!-- Node3&#45;&gt;Node4 -->
<g id="edge6" class="edge"><title>Node3&#45;&gt;Node4</title>
<path fill="none" stroke="midnightblue" d="M239.519,-120.631C227.385,-111.942 209.847,-99.3841 195.825,-89.344"/>
<polygon fill="midnightblue" stroke="midnightblue" points="197.797,-86.4512 187.629,-83.475 193.722,-92.1426 197.797,-86.4512"/>
</g>
<!-- Node3&#45;&gt;Node7 -->
<g id="edge14" class="edge"><title>Node3&#45;&gt;Node7</title>
<path fill="none" stroke="midnightblue" d="M251.723,-120.631C252.577,-112.974 255.323,-102.311 258.68,-93.0155"/>
<polygon fill="midnightblue" stroke="midnightblue" points="261.955,-94.2526 262.502,-83.6719 255.476,-91.6023 261.955,-94.2526"/>
</g>
<!-- Node5 -->
<g id="node9" class="node"><title>Node5</title>
<a xlink:href="event_8h.html" target="_top" xlink:title="fae/system/event.h">
<polygon fill="none" stroke="red" points="147.953,-0.695312 147.953,-23.3047 260.047,-23.3047 260.047,-0.695312 147.953,-0.695312"/>
<text text-anchor="middle" x="204" y="-8.30469" font-family="Futura" font-size="11.00">fae/system/event.h</text>
</a>
</g>
<!-- Node4&#45;&gt;Node5 -->
<g id="edge8" class="edge"><title>Node4&#45;&gt;Node5</title>
<path fill="none" stroke="midnightblue" d="M178.542,-60.6308C182.678,-52.8921 188.455,-42.0841 193.46,-32.7193"/>
<polygon fill="midnightblue" stroke="midnightblue" points="196.669,-34.141 198.296,-23.6719 190.495,-30.8414 196.669,-34.141"/>
</g>
<!-- Node6 -->
<g id="node11" class="node"><title>Node6</title>
<a xlink:href="directory_8h.html" target="_top" xlink:title="fae/system/directory.h">
<polygon fill="none" stroke="red" points="-0.0275879,-0.695312 -0.0275879,-23.3047 130.028,-23.3047 130.028,-0.695312 -0.0275879,-0.695312"/>
<text text-anchor="middle" x="65" y="-8.30469" font-family="Futura" font-size="11.00">fae/system/directory.h</text>
</a>
</g>
<!-- Node4&#45;&gt;Node6 -->
<g id="edge10" class="edge"><title>Node4&#45;&gt;Node6</title>
<path fill="none" stroke="midnightblue" d="M153.692,-60.6308C136.902,-51.6142 112.354,-38.4308 93.3378,-28.2184"/>
<polygon fill="midnightblue" stroke="midnightblue" points="94.9711,-25.1229 84.5052,-23.475 91.6592,-31.2898 94.9711,-25.1229"/>
</g>
<!-- Node7&#45;&gt;Node3 -->
<g id="edge16" class="edge"><title>Node7&#45;&gt;Node3</title>
<path fill="none" stroke="midnightblue" d="M273.242,-83.6719C272.339,-91.4071 269.561,-102.09 266.188,-111.349"/>
<polygon fill="midnightblue" stroke="midnightblue" points="262.937,-110.052 262.355,-120.631 269.407,-112.724 262.937,-110.052"/>
</g>
<!-- Node7&#45;&gt;Node8 -->
<g id="edge18" class="edge"><title>Node7&#45;&gt;Node8</title>
<path fill="none" stroke="midnightblue" d="M283.157,-60.6308C292.994,-52.2405 307.061,-40.242 318.615,-30.3869"/>
<polygon fill="midnightblue" stroke="midnightblue" points="321.151,-32.8243 326.488,-23.6719 316.608,-27.4984 321.151,-32.8243"/>
</g>
<!-- Node9&#45;&gt;Node3 -->
<g id="edge24" class="edge"><title>Node9&#45;&gt;Node3</title>
<path fill="none" stroke="midnightblue" d="M300.81,-180.631C292.724,-172.403 281.229,-160.707 271.654,-150.963"/>
<polygon fill="midnightblue" stroke="midnightblue" points="273.994,-148.351 264.488,-143.672 269.001,-153.257 273.994,-148.351"/>
</g>
<!-- Node9&#45;&gt;Node8 -->
<g id="edge26" class="edge"><title>Node9&#45;&gt;Node8</title>
<path fill="none" stroke="midnightblue" d="M312.626,-180.661C317.131,-152.027 329.828,-71.3093 335.809,-33.2881"/>
<polygon fill="midnightblue" stroke="midnightblue" points="339.273,-33.7904 337.369,-23.368 332.358,-32.7026 339.273,-33.7904"/>
</g>
</g>
</svg>
