<?xml version="1.0" encoding="UTF-8" standalone="no"?>
<!DOCTYPE svg PUBLIC "-//W3C//DTD SVG 1.1//EN"
 "http://www.w3.org/Graphics/SVG/1.1/DTD/svg11.dtd">
<!-- Generated by graphviz version 2.28.0 (20121015.0031)
 -->
<!-- Title: include/fae/graph.h Pages: 1 -->
<svg width="610pt" height="272pt"
 viewBox="0.00 0.00 610.00 272.00" xmlns="http://www.w3.org/2000/svg" xmlns:xlink="http://www.w3.org/1999/xlink">
<g id="graph1" class="graph" transform="scale(1 1) rotate(0) translate(4 268)">
<title>include/fae/graph.h</title>
<!-- Node1 -->
<g id="node1" class="node"><title>Node1</title>
<polygon fill="#bfbfbf" stroke="black" points="186.894,-240.695 186.894,-263.305 305.106,-263.305 305.106,-240.695 186.894,-240.695"/>
<text text-anchor="middle" x="246" y="-248.305" font-family="Futura" font-size="11.00">include/fae/graph.h</text>
</g>
<!-- Node2 -->
<g id="node3" class="node"><title>Node2</title>
<a xlink:href="fae_2fae_8h.html" target="_top" xlink:title="fae.h">
<polygon fill="none" stroke="red" points="202.23,-60.6953 202.23,-83.3047 243.77,-83.3047 243.77,-60.6953 202.23,-60.6953"/>
<text text-anchor="middle" x="223" y="-68.3047" font-family="Futura" font-size="11.00">fae.h</text>
</a>
</g>
<!-- Node1&#45;&gt;Node2 -->
<g id="edge2" class="edge"><title>Node1&#45;&gt;Node2</title>
<path fill="none" stroke="midnightblue" d="M225.226,-240.692C213.557,-232.114 200.698,-218.926 195,-204 180.611,-166.305 194.896,-118.698 208.194,-92.5047"/>
<polygon fill="midnightblue" stroke="midnightblue" points="211.359,-94.0166 213.181,-83.5797 205.248,-90.6022 211.359,-94.0166"/>
</g>
<!-- Node8 -->
<g id="node17" class="node"><title>Node8</title>
<a xlink:href="pair_8h.html" target="_top" xlink:title="fae/pair.h">
<polygon fill="none" stroke="black" points="212.651,-180.695 212.651,-203.305 279.349,-203.305 279.349,-180.695 212.651,-180.695"/>
<text text-anchor="middle" x="246" y="-188.305" font-family="Futura" font-size="11.00">fae/pair.h</text>
</a>
</g>
<!-- Node1&#45;&gt;Node8 -->
<g id="edge18" class="edge"><title>Node1&#45;&gt;Node8</title>
<path fill="none" stroke="midnightblue" d="M246,-240.631C246,-233.218 246,-222.989 246,-213.91"/>
<polygon fill="midnightblue" stroke="midnightblue" points="249.5,-213.672 246,-203.672 242.5,-213.672 249.5,-213.672"/>
</g>
<!-- Node9 -->
<g id="node20" class="node"><title>Node9</title>
<a xlink:href="list_8h.html" target="_top" xlink:title="fae/list.h">
<polygon fill="none" stroke="black" points="250.906,-120.695 250.906,-143.305 311.094,-143.305 311.094,-120.695 250.906,-120.695"/>
<text text-anchor="middle" x="281" y="-128.305" font-family="Futura" font-size="11.00">fae/list.h</text>
</a>
</g>
<!-- Node1&#45;&gt;Node9 -->
<g id="edge26" class="edge"><title>Node1&#45;&gt;Node9</title>
<path fill="none" stroke="midnightblue" d="M259.444,-240.692C269.443,-232.114 282.302,-218.926 288,-204 294.195,-187.771 291.501,-168.014 287.799,-153.466"/>
<polygon fill="midnightblue" stroke="midnightblue" points="291.054,-152.126 284.901,-143.501 284.332,-154.08 291.054,-152.126"/>
</g>
<!-- Node10 -->
<g id="node24" class="node"><title>Node10</title>
<a xlink:href="string_8h.html" target="_top" xlink:title="fae/string.h">
<polygon fill="none" stroke="black" points="328.827,-120.695 328.827,-143.305 403.173,-143.305 403.173,-120.695 328.827,-120.695"/>
<text text-anchor="middle" x="366" y="-128.305" font-family="Futura" font-size="11.00">fae/string.h</text>
</a>
</g>
<!-- Node1&#45;&gt;Node10 -->
<g id="edge28" class="edge"><title>Node1&#45;&gt;Node10</title>
<path fill="none" stroke="midnightblue" d="M260.398,-240.438C272.496,-231.309 290.003,-217.491 304,-204 321.335,-187.292 339.223,-166.338 351.302,-151.537"/>
<polygon fill="midnightblue" stroke="midnightblue" points="354.141,-153.592 357.696,-143.612 348.693,-149.197 354.141,-153.592"/>
</g>
<!-- Node2&#45;&gt;Node1 -->
<g id="edge16" class="edge"><title>Node2&#45;&gt;Node1</title>
<path fill="none" stroke="midnightblue" d="M222.853,-83.5797C217.013,-106.372 196.773,-161.489 213,-204 217.273,-215.195 225.575,-225.412 232.973,-233.439"/>
<polygon fill="midnightblue" stroke="midnightblue" points="230.453,-235.869 239.887,-240.692 235.52,-231.039 230.453,-235.869"/>
</g>
<!-- Node3 -->
<g id="node5" class="node"><title>Node3</title>
<a xlink:href="atomic_8h.html" target="_top" xlink:title="fae/atomic.h">
<polygon fill="none" stroke="red" points="-0.105713,-0.695312 -0.105713,-23.3047 80.1057,-23.3047 80.1057,-0.695312 -0.105713,-0.695312"/>
<text text-anchor="middle" x="40" y="-8.30469" font-family="Futura" font-size="11.00">fae/atomic.h</text>
</a>
</g>
<!-- Node2&#45;&gt;Node3 -->
<g id="edge4" class="edge"><title>Node2&#45;&gt;Node3</title>
<path fill="none" stroke="midnightblue" d="M201.999,-65.6475C171.417,-56.8433 114.681,-39.0415 77.0493,-26.5866"/>
<polygon fill="midnightblue" stroke="midnightblue" points="78.0443,-23.229 67.4506,-23.386 75.83,-29.8696 78.0443,-23.229"/>
</g>
<!-- Node4 -->
<g id="node8" class="node"><title>Node4</title>
<polygon fill="none" stroke="#bfbfbf" points="98.6057,-0.695312 98.6057,-23.3047 215.394,-23.3047 215.394,-0.695312 98.6057,-0.695312"/>
<text text-anchor="middle" x="157" y="-8.30469" font-family="Futura" font-size="11.00">fae/atomic/queue.h</text>
</g>
<!-- Node2&#45;&gt;Node4 -->
<g id="edge8" class="edge"><title>Node2&#45;&gt;Node4</title>
<path fill="none" stroke="midnightblue" d="M211.201,-60.6308C201.653,-52.2405 187.999,-40.242 176.785,-30.3869"/>
<polygon fill="midnightblue" stroke="midnightblue" points="178.966,-27.644 169.144,-23.6719 174.345,-32.9021 178.966,-27.644"/>
</g>
<!-- Node5 -->
<g id="node10" class="node"><title>Node5</title>
<a xlink:href="stack_8h.html" target="_top" xlink:title="fae/atomic/stack.h">
<polygon fill="none" stroke="red" points="233.377,-0.695312 233.377,-23.3047 344.623,-23.3047 344.623,-0.695312 233.377,-0.695312"/>
<text text-anchor="middle" x="289" y="-8.30469" font-family="Futura" font-size="11.00">fae/atomic/stack.h</text>
</a>
</g>
<!-- Node2&#45;&gt;Node5 -->
<g id="edge10" class="edge"><title>Node2&#45;&gt;Node5</title>
<path fill="none" stroke="midnightblue" d="M234.799,-60.6308C244.347,-52.2405 258.001,-40.242 269.215,-30.3869"/>
<polygon fill="midnightblue" stroke="midnightblue" points="271.655,-32.9021 276.856,-23.6719 267.034,-27.644 271.655,-32.9021"/>
</g>
<!-- Node6 -->
<g id="node12" class="node"><title>Node6</title>
<polygon fill="none" stroke="#bfbfbf" points="362.483,-0.695312 362.483,-23.3047 503.517,-23.3047 503.517,-0.695312 362.483,-0.695312"/>
<text text-anchor="middle" x="433" y="-8.30469" font-family="Futura" font-size="11.00">fae/atomic/ring_buffer.h</text>
</g>
<!-- Node2&#45;&gt;Node6 -->
<g id="edge12" class="edge"><title>Node2&#45;&gt;Node6</title>
<path fill="none" stroke="midnightblue" d="M243.903,-65.2267C276.793,-56.143 341.451,-38.285 385.927,-26.0012"/>
<polygon fill="midnightblue" stroke="midnightblue" points="386.942,-29.352 395.649,-23.316 385.078,-22.6046 386.942,-29.352"/>
</g>
<!-- Node7 -->
<g id="node14" class="node"><title>Node7</title>
<a xlink:href="system_8h.html" target="_top" xlink:title="fae/system.h">
<polygon fill="none" stroke="red" points="521.983,-0.695312 521.983,-23.3047 602.017,-23.3047 602.017,-0.695312 521.983,-0.695312"/>
<text text-anchor="middle" x="562" y="-8.30469" font-family="Futura" font-size="11.00">fae/system.h</text>
</a>
</g>
<!-- Node2&#45;&gt;Node7 -->
<g id="edge14" class="edge"><title>Node2&#45;&gt;Node7</title>
<path fill="none" stroke="midnightblue" d="M244.102,-67.9772C291.921,-61.038 412.143,-43.0891 512,-24 512.101,-23.9807 512.202,-23.9614 512.303,-23.942"/>
<polygon fill="midnightblue" stroke="midnightblue" points="512.802,-27.4115 521.923,-22.0214 511.431,-20.547 512.802,-27.4115"/>
</g>
<!-- Node3&#45;&gt;Node2 -->
<g id="edge6" class="edge"><title>Node3&#45;&gt;Node2</title>
<path fill="none" stroke="midnightblue" d="M78.1329,-23.3993C112.112,-33.5841 161.014,-49.0645 192.479,-59.5847"/>
<polygon fill="midnightblue" stroke="midnightblue" points="191.447,-62.9303 202.042,-62.813 193.687,-56.2981 191.447,-62.9303"/>
</g>
<!-- Node8&#45;&gt;Node2 -->
<g id="edge20" class="edge"><title>Node8&#45;&gt;Node2</title>
<path fill="none" stroke="midnightblue" d="M243.959,-180.528C240.166,-161.071 231.971,-119.023 227.026,-93.6561"/>
<polygon fill="midnightblue" stroke="midnightblue" points="230.418,-92.7635 225.07,-83.6179 223.547,-94.1028 230.418,-92.7635"/>
</g>
<!-- Node8&#45;&gt;Node9 -->
<g id="edge22" class="edge"><title>Node8&#45;&gt;Node9</title>
<path fill="none" stroke="midnightblue" d="M252.257,-180.631C256.976,-172.811 263.587,-161.856 269.279,-152.424"/>
<polygon fill="midnightblue" stroke="midnightblue" points="272.39,-154.042 274.56,-143.672 266.397,-150.425 272.39,-154.042"/>
</g>
<!-- Node9&#45;&gt;Node2 -->
<g id="edge24" class="edge"><title>Node9&#45;&gt;Node2</title>
<path fill="none" stroke="midnightblue" d="M270.631,-120.631C262.403,-112.403 250.707,-100.707 240.963,-90.9633"/>
<polygon fill="midnightblue" stroke="midnightblue" points="243.218,-88.2681 233.672,-83.6719 238.268,-93.2179 243.218,-88.2681"/>
</g>
<!-- Node10&#45;&gt;Node2 -->
<g id="edge30" class="edge"><title>Node10&#45;&gt;Node2</title>
<path fill="none" stroke="midnightblue" d="M340.434,-120.631C316.072,-110.749 279.371,-95.8638 253.495,-85.3684"/>
<polygon fill="midnightblue" stroke="midnightblue" points="254.738,-82.0958 244.155,-81.5805 252.107,-88.5825 254.738,-82.0958"/>
</g>
</g>
</svg>
