<?xml version="1.0" encoding="UTF-8" standalone="no"?>
<!DOCTYPE svg PUBLIC "-//W3C//DTD SVG 1.1//EN"
 "http://www.w3.org/Graphics/SVG/1.1/DTD/svg11.dtd">
<!-- Generated by graphviz version 2.28.0 (20121015.0031)
 -->
<!-- Title: include/fa/graph.h Pages: 1 -->
<svg width="724pt" height="272pt"
 viewBox="0.00 0.00 723.97 272.00" xmlns="http://www.w3.org/2000/svg" xmlns:xlink="http://www.w3.org/1999/xlink">
<g id="graph1" class="graph" transform="scale(1 1) rotate(0) translate(4 268)">
<title>include/fa/graph.h</title>
<!-- Node1 -->
<g id="node1" class="node"><title>Node1</title>
<polygon fill="#bfbfbf" stroke="black" points="555.937,-240.695 555.937,-263.305 668.063,-263.305 668.063,-240.695 555.937,-240.695"/>
<text text-anchor="middle" x="612" y="-248.305" font-family="Futura" font-size="11.00">include/fa/graph.h</text>
</g>
<!-- Node2 -->
<g id="node3" class="node"><title>Node2</title>
<a xlink:href="fa_2fa_8h.html" target="_top" xlink:title="fa.h">
<polygon fill="none" stroke="red" points="523.273,-120.695 523.273,-143.305 558.727,-143.305 558.727,-120.695 523.273,-120.695"/>
<text text-anchor="middle" x="541" y="-128.305" font-family="Futura" font-size="11.00">fa.h</text>
</a>
</g>
<!-- Node1&#45;&gt;Node2 -->
<g id="edge2" class="edge"><title>Node1&#45;&gt;Node2</title>
<path fill="none" stroke="midnightblue" d="M592.867,-240.375C581.688,-231.422 568.671,-217.883 560,-204 550.155,-188.238 542.693,-168.437 539.438,-153.753"/>
<polygon fill="midnightblue" stroke="midnightblue" points="542.859,-152.981 537.799,-143.673 535.95,-154.105 542.859,-152.981"/>
</g>
<!-- Node8 -->
<g id="node15" class="node"><title>Node8</title>
<a xlink:href="pair_8h.html" target="_top" xlink:title="fa/pair.h">
<polygon fill="none" stroke="black" points="643.694,-60.6953 643.694,-83.3047 704.306,-83.3047 704.306,-60.6953 643.694,-60.6953"/>
<text text-anchor="middle" x="674" y="-68.3047" font-family="Futura" font-size="11.00">fa/pair.h</text>
</a>
</g>
<!-- Node1&#45;&gt;Node8 -->
<g id="edge26" class="edge"><title>Node1&#45;&gt;Node8</title>
<path fill="none" stroke="midnightblue" d="M625.165,-240.507C635.072,-231.827 648.086,-218.592 655,-204 672.135,-167.839 674.751,-120.264 674.671,-93.5313"/>
<polygon fill="midnightblue" stroke="midnightblue" points="678.169,-93.3862 674.506,-83.4447 671.17,-93.5006 678.169,-93.3862"/>
</g>
<!-- Node9 -->
<g id="node18" class="node"><title>Node9</title>
<a xlink:href="list_8h.html" target="_top" xlink:title="fa/list.h">
<polygon fill="none" stroke="black" points="612.949,-0.695312 612.949,-23.3047 667.051,-23.3047 667.051,-0.695312 612.949,-0.695312"/>
<text text-anchor="middle" x="640" y="-8.30469" font-family="Futura" font-size="11.00">fa/list.h</text>
</a>
</g>
<!-- Node1&#45;&gt;Node9 -->
<g id="edge28" class="edge"><title>Node1&#45;&gt;Node9</title>
<path fill="none" stroke="midnightblue" d="M631.321,-240.639C645.024,-232.382 662.884,-219.63 674,-204 706.502,-158.299 704.225,-139.389 713,-84 714.669,-73.4647 718.108,-69.364 713,-60 705.065,-45.4547 690.486,-34.735 676.431,-27.2374"/>
<polygon fill="midnightblue" stroke="midnightblue" points="677.863,-24.0415 667.345,-22.7678 674.773,-30.3226 677.863,-24.0415"/>
</g>
<!-- Node10 -->
<g id="node25" class="node"><title>Node10</title>
<a xlink:href="string_8h.html" target="_top" xlink:title="fa/string.h">
<polygon fill="none" stroke="black" points="577.87,-180.695 577.87,-203.305 646.13,-203.305 646.13,-180.695 577.87,-180.695"/>
<text text-anchor="middle" x="612" y="-188.305" font-family="Futura" font-size="11.00">fa/string.h</text>
</a>
</g>
<!-- Node1&#45;&gt;Node10 -->
<g id="edge30" class="edge"><title>Node1&#45;&gt;Node10</title>
<path fill="none" stroke="midnightblue" d="M612,-240.631C612,-233.218 612,-222.989 612,-213.91"/>
<polygon fill="midnightblue" stroke="midnightblue" points="615.5,-213.672 612,-203.672 608.5,-213.672 615.5,-213.672"/>
</g>
<!-- Node2&#45;&gt;Node1 -->
<g id="edge24" class="edge"><title>Node2&#45;&gt;Node1</title>
<path fill="none" stroke="midnightblue" d="M549.95,-143.673C557.044,-158.079 565.646,-184.221 578,-204 584.503,-214.412 593.451,-224.631 600.767,-232.867"/>
<polygon fill="midnightblue" stroke="midnightblue" points="598.15,-235.19 607.389,-240.375 603.4,-230.56 598.15,-235.19"/>
</g>
<!-- Node3 -->
<g id="node5" class="node"><title>Node3</title>
<polygon fill="none" stroke="#bfbfbf" points="-0.0629883,-60.6953 -0.0629883,-83.3047 74.063,-83.3047 74.063,-60.6953 -0.0629883,-60.6953"/>
<text text-anchor="middle" x="37" y="-68.3047" font-family="Futura" font-size="11.00">fa/atomic.h</text>
</g>
<!-- Node2&#45;&gt;Node3 -->
<g id="edge4" class="edge"><title>Node2&#45;&gt;Node3</title>
<path fill="none" stroke="midnightblue" d="M522.989,-130.012C462.424,-126.511 260.499,-113.386 84.0493,-83.9947"/>
<polygon fill="midnightblue" stroke="midnightblue" points="84.5133,-80.5236 74.0702,-82.3103 83.3482,-87.426 84.5133,-80.5236"/>
</g>
<!-- Node4 -->
<g id="node7" class="node"><title>Node4</title>
<polygon fill="none" stroke="#bfbfbf" points="91.6484,-60.6953 91.6484,-83.3047 202.352,-83.3047 202.352,-60.6953 91.6484,-60.6953"/>
<text text-anchor="middle" x="147" y="-68.3047" font-family="Futura" font-size="11.00">fa/atomic/queue.h</text>
</g>
<!-- Node2&#45;&gt;Node4 -->
<g id="edge6" class="edge"><title>Node2&#45;&gt;Node4</title>
<path fill="none" stroke="midnightblue" d="M523.087,-128.633C474.752,-122.207 337.414,-103.694 212.598,-84.2212"/>
<polygon fill="midnightblue" stroke="midnightblue" points="212.908,-80.7271 202.487,-82.6372 211.825,-87.6428 212.908,-80.7271"/>
</g>
<!-- Node5 -->
<g id="node9" class="node"><title>Node5</title>
<polygon fill="none" stroke="#bfbfbf" points="220.42,-60.6953 220.42,-83.3047 325.58,-83.3047 325.58,-60.6953 220.42,-60.6953"/>
<text text-anchor="middle" x="273" y="-68.3047" font-family="Futura" font-size="11.00">fa/atomic/stack.h</text>
</g>
<!-- Node2&#45;&gt;Node5 -->
<g id="edge8" class="edge"><title>Node2&#45;&gt;Node5</title>
<path fill="none" stroke="midnightblue" d="M523,-127.104C484.256,-118.72 391.542,-98.6546 330.561,-85.4573"/>
<polygon fill="midnightblue" stroke="midnightblue" points="331.201,-82.0148 320.687,-83.3203 329.72,-88.8564 331.201,-82.0148"/>
</g>
<!-- Node6 -->
<g id="node11" class="node"><title>Node6</title>
<polygon fill="none" stroke="#bfbfbf" points="343.526,-60.6953 343.526,-83.3047 478.474,-83.3047 478.474,-60.6953 343.526,-60.6953"/>
<text text-anchor="middle" x="411" y="-68.3047" font-family="Futura" font-size="11.00">fa/atomic/ring_buffer.h</text>
</g>
<!-- Node2&#45;&gt;Node6 -->
<g id="edge10" class="edge"><title>Node2&#45;&gt;Node6</title>
<path fill="none" stroke="midnightblue" d="M523.197,-123.057C502.725,-113.924 468.702,-98.7442 443.48,-87.491"/>
<polygon fill="midnightblue" stroke="midnightblue" points="444.849,-84.2694 434.291,-83.3912 441.997,-90.662 444.849,-84.2694"/>
</g>
<!-- Node7 -->
<g id="node13" class="node"><title>Node7</title>
<a xlink:href="system_8h.html" target="_top" xlink:title="fa/system.h">
<polygon fill="none" stroke="red" points="496.026,-60.6953 496.026,-83.3047 569.974,-83.3047 569.974,-60.6953 496.026,-60.6953"/>
<text text-anchor="middle" x="533" y="-68.3047" font-family="Futura" font-size="11.00">fa/system.h</text>
</a>
</g>
<!-- Node2&#45;&gt;Node7 -->
<g id="edge12" class="edge"><title>Node2&#45;&gt;Node7</title>
<path fill="none" stroke="midnightblue" d="M539.57,-120.631C538.536,-113.137 537.105,-102.764 535.843,-93.6107"/>
<polygon fill="midnightblue" stroke="midnightblue" points="539.306,-93.0998 534.472,-83.6719 532.371,-94.0563 539.306,-93.0998"/>
</g>
<!-- Node2&#45;&gt;Node8 -->
<g id="edge14" class="edge"><title>Node2&#45;&gt;Node8</title>
<path fill="none" stroke="midnightblue" d="M558.9,-120.897C578.543,-111.573 610.302,-97.6316 635.562,-87.1908"/>
<polygon fill="midnightblue" stroke="midnightblue" points="636.955,-90.4025 644.886,-83.3776 634.305,-83.9234 636.955,-90.4025"/>
</g>
<!-- Node2&#45;&gt;Node9 -->
<g id="edge22" class="edge"><title>Node2&#45;&gt;Node9</title>
<path fill="none" stroke="midnightblue" d="M545.739,-120.528C559.403,-100.373 596.328,-55.9768 619.888,-30.9923"/>
<polygon fill="midnightblue" stroke="midnightblue" points="622.584,-33.2389 627.021,-23.6179 617.553,-28.372 622.584,-33.2389"/>
</g>
<!-- Node8&#45;&gt;Node2 -->
<g id="edge16" class="edge"><title>Node8&#45;&gt;Node2</title>
<path fill="none" stroke="midnightblue" d="M655.518,-83.3786C632.715,-94.1774 594.212,-110.946 568.102,-121.433"/>
<polygon fill="midnightblue" stroke="midnightblue" points="566.777,-118.193 558.76,-125.119 569.347,-124.705 566.777,-118.193"/>
</g>
<!-- Node8&#45;&gt;Node9 -->
<g id="edge18" class="edge"><title>Node8&#45;&gt;Node9</title>
<path fill="none" stroke="midnightblue" d="M667.921,-60.6308C663.337,-52.8107 656.916,-41.8562 651.387,-32.4241"/>
<polygon fill="midnightblue" stroke="midnightblue" points="654.333,-30.5288 646.256,-23.6719 648.294,-34.0689 654.333,-30.5288"/>
</g>
<!-- Node9&#45;&gt;Node2 -->
<g id="edge20" class="edge"><title>Node9&#45;&gt;Node2</title>
<path fill="none" stroke="midnightblue" d="M635.162,-23.6179C621.386,-43.8893 584.437,-88.2973 560.942,-113.188"/>
<polygon fill="midnightblue" stroke="midnightblue" points="558.276,-110.91 553.833,-120.528 563.304,-115.78 558.276,-110.91"/>
</g>
<!-- Node10&#45;&gt;Node2 -->
<g id="edge32" class="edge"><title>Node10&#45;&gt;Node2</title>
<path fill="none" stroke="midnightblue" d="M599.307,-180.631C588.936,-172.159 574.062,-160.009 561.933,-150.1"/>
<polygon fill="midnightblue" stroke="midnightblue" points="564.023,-147.288 554.064,-143.672 559.594,-152.709 564.023,-147.288"/>
</g>
</g>
</svg>
