<?xml version="1.0" encoding="UTF-8" standalone="no"?>
<!DOCTYPE svg PUBLIC "-//W3C//DTD SVG 1.1//EN"
 "http://www.w3.org/Graphics/SVG/1.1/DTD/svg11.dtd">
<!-- Generated by graphviz version 2.28.0 (20121015.0031)
 -->
<!-- Title: include/fae/graph.h Pages: 1 -->
<svg width="854pt" height="212pt"
 viewBox="0.00 0.00 853.78 212.00" xmlns="http://www.w3.org/2000/svg" xmlns:xlink="http://www.w3.org/1999/xlink">
<g id="graph1" class="graph" transform="scale(1 1) rotate(0) translate(4 208)">
<title>include/fae/graph.h</title>
<!-- Node1 -->
<g id="node1" class="node"><title>Node1</title>
<polygon fill="#bfbfbf" stroke="black" points="433.67,-180.695 433.67,-203.305 551.882,-203.305 551.882,-180.695 433.67,-180.695"/>
<text text-anchor="middle" x="492.776" y="-188.305" font-family="Futura" font-size="11.00">include/fae/graph.h</text>
</g>
<!-- Node2 -->
<g id="node3" class="node"><title>Node2</title>
<a xlink:href="fae_2fae_8h.html" target="_top" xlink:title="include/fae/fae.h">
<polygon fill="none" stroke="red" points="440.537,-120.695 440.537,-143.305 545.015,-143.305 545.015,-120.695 440.537,-120.695"/>
<text text-anchor="middle" x="492.776" y="-128.305" font-family="Futura" font-size="11.00">include/fae/fae.h</text>
</a>
</g>
<!-- Node1&#45;&gt;Node2 -->
<g id="edge2" class="edge"><title>Node1&#45;&gt;Node2</title>
<path fill="none" stroke="midnightblue" d="M486.288,-170.459C485.713,-161.411 486.085,-151.16 487.406,-143.672"/>
<polygon fill="midnightblue" stroke="midnightblue" points="482.838,-171.097 487.46,-180.631 489.792,-170.296 482.838,-171.097"/>
</g>
<!-- Node7 -->
<g id="node14" class="node"><title>Node7</title>
<a xlink:href="graph_8c.html" target="_top" xlink:title="src/fae/graph.c">
<polygon fill="none" stroke="black" points="54.9172,-0.695312 54.9172,-23.3047 150.635,-23.3047 150.635,-0.695312 54.9172,-0.695312"/>
<text text-anchor="middle" x="102.776" y="-8.30469" font-family="Futura" font-size="11.00">src/fae/graph.c</text>
</a>
</g>
<!-- Node1&#45;&gt;Node7 -->
<g id="edge30" class="edge"><title>Node1&#45;&gt;Node7</title>
<path fill="none" stroke="midnightblue" d="M423.398,-186.173C301.628,-176.101 57.4186,-148.221 5.77609,-84 -15.8027,-57.1653 30.7307,-35.4274 66.5397,-23.3638"/>
<polygon fill="midnightblue" stroke="midnightblue" points="423.121,-189.662 433.371,-186.981 423.686,-182.685 423.121,-189.662"/>
</g>
<!-- Node2&#45;&gt;Node1 -->
<g id="edge20" class="edge"><title>Node2&#45;&gt;Node1</title>
<path fill="none" stroke="midnightblue" d="M499.269,-153.611C499.845,-162.764 499.453,-173.137 498.092,-180.631"/>
<polygon fill="midnightblue" stroke="midnightblue" points="502.746,-153.216 498.146,-143.672 495.79,-154.001 502.746,-153.216"/>
</g>
<!-- Node3 -->
<g id="node5" class="node"><title>Node3</title>
<a xlink:href="atomic_8h.html" target="_top" xlink:title="include/fae/atomic.h">
<polygon fill="none" stroke="red" points="432.107,-60.6953 432.107,-83.3047 553.445,-83.3047 553.445,-60.6953 432.107,-60.6953"/>
<text text-anchor="middle" x="492.776" y="-68.3047" font-family="Futura" font-size="11.00">include/fae/atomic.h</text>
</a>
</g>
<!-- Node2&#45;&gt;Node3 -->
<g id="edge4" class="edge"><title>Node2&#45;&gt;Node3</title>
<path fill="none" stroke="midnightblue" d="M486.288,-110.459C485.713,-101.411 486.085,-91.1602 487.406,-83.6719"/>
<polygon fill="midnightblue" stroke="midnightblue" points="482.838,-111.097 487.46,-120.631 489.792,-110.296 482.838,-111.097"/>
</g>
<!-- Node4 -->
<g id="node8" class="node"><title>Node4</title>
<a xlink:href="buffer_8h.html" target="_top" xlink:title="include/fae/buffer.h">
<polygon fill="none" stroke="red" points="570.96,-60.6953 570.96,-83.3047 688.592,-83.3047 688.592,-60.6953 570.96,-60.6953"/>
<text text-anchor="middle" x="629.776" y="-68.3047" font-family="Futura" font-size="11.00">include/fae/buffer.h</text>
</a>
</g>
<!-- Node2&#45;&gt;Node4 -->
<g id="edge8" class="edge"><title>Node2&#45;&gt;Node4</title>
<path fill="none" stroke="midnightblue" d="M526.488,-116.728C550.802,-106.434 583.076,-92.7708 605.033,-83.475"/>
<polygon fill="midnightblue" stroke="midnightblue" points="525.113,-113.509 517.269,-120.631 527.842,-119.955 525.113,-113.509"/>
</g>
<!-- Node5 -->
<g id="node10" class="node"><title>Node5</title>
<a xlink:href="device_8h.html" target="_top" xlink:title="include/fae/device.h">
<polygon fill="none" stroke="red" points="14.5503,-60.6953 14.5503,-83.3047 135.002,-83.3047 135.002,-60.6953 14.5503,-60.6953"/>
<text text-anchor="middle" x="74.7761" y="-68.3047" font-family="Futura" font-size="11.00">include/fae/device.h</text>
</a>
</g>
<!-- Node2&#45;&gt;Node5 -->
<g id="edge10" class="edge"><title>Node2&#45;&gt;Node5</title>
<path fill="none" stroke="midnightblue" d="M430.432,-123.067C360.564,-114.069 243.946,-98.7273 143.776,-84 141.016,-83.5942 138.194,-83.1725 135.345,-82.741"/>
<polygon fill="midnightblue" stroke="midnightblue" points="430.029,-126.544 440.394,-124.348 430.922,-119.601 430.029,-126.544"/>
</g>
<!-- Node6 -->
<g id="node12" class="node"><title>Node6</title>
<a xlink:href="dynamic_8h.html" target="_top" xlink:title="include/fae/dynamic.h">
<polygon fill="none" stroke="red" points="152.652,-60.6953 152.652,-83.3047 282.9,-83.3047 282.9,-60.6953 152.652,-60.6953"/>
<text text-anchor="middle" x="217.776" y="-68.3047" font-family="Futura" font-size="11.00">include/fae/dynamic.h</text>
</a>
</g>
<!-- Node2&#45;&gt;Node6 -->
<g id="edge12" class="edge"><title>Node2&#45;&gt;Node6</title>
<path fill="none" stroke="midnightblue" d="M433.642,-118.528C383.92,-108.041 313.675,-93.2259 266.978,-83.3771"/>
<polygon fill="midnightblue" stroke="midnightblue" points="433.105,-121.992 443.612,-120.631 434.549,-115.142 433.105,-121.992"/>
</g>
<!-- Node8 -->
<g id="node16" class="node"><title>Node8</title>
<a xlink:href="error_8h.html" target="_top" xlink:title="include/fae/error.h">
<polygon fill="none" stroke="red" points="301.332,-60.6953 301.332,-83.3047 414.221,-83.3047 414.221,-60.6953 301.332,-60.6953"/>
<text text-anchor="middle" x="357.776" y="-68.3047" font-family="Futura" font-size="11.00">include/fae/error.h</text>
</a>
</g>
<!-- Node2&#45;&gt;Node8 -->
<g id="edge16" class="edge"><title>Node2&#45;&gt;Node8</title>
<path fill="none" stroke="midnightblue" d="M453.984,-116.864C428.68,-106.555 396.876,-92.8119 376.823,-83.475"/>
<polygon fill="midnightblue" stroke="midnightblue" points="452.742,-120.137 463.325,-120.631 455.359,-113.645 452.742,-120.137"/>
</g>
<!-- Node9 -->
<g id="node20" class="node"><title>Node9</title>
<a xlink:href="list_8h.html" target="_top" xlink:title="include/fae/list.h">
<polygon fill="none" stroke="red" points="745.119,-60.6953 745.119,-83.3047 846.433,-83.3047 846.433,-60.6953 745.119,-60.6953"/>
<text text-anchor="middle" x="795.776" y="-68.3047" font-family="Futura" font-size="11.00">include/fae/list.h</text>
</a>
</g>
<!-- Node2&#45;&gt;Node9 -->
<g id="edge22" class="edge"><title>Node2&#45;&gt;Node9</title>
<path fill="none" stroke="midnightblue" d="M555.034,-119.083C611.17,-108.337 692.71,-92.7288 744.993,-82.7208"/>
<polygon fill="midnightblue" stroke="midnightblue" points="554.372,-115.646 545.209,-120.963 555.688,-122.521 554.372,-115.646"/>
</g>
<!-- Node10 -->
<g id="node23" class="node"><title>Node10</title>
<a xlink:href="map_8h.html" target="_top" xlink:title="include/fae/map.h">
<polygon fill="none" stroke="red" points="700.647,-0.695312 700.647,-23.3047 810.905,-23.3047 810.905,-0.695312 700.647,-0.695312"/>
<text text-anchor="middle" x="755.776" y="-8.30469" font-family="Futura" font-size="11.00">include/fae/map.h</text>
</a>
</g>
<!-- Node2&#45;&gt;Node10 -->
<g id="edge28" class="edge"><title>Node2&#45;&gt;Node10</title>
<path fill="none" stroke="midnightblue" d="M555.253,-127.056C597.797,-121.97 653.943,-110.376 696.776,-84 721.614,-68.7055 740.956,-39.2722 750.063,-23.534"/>
<polygon fill="midnightblue" stroke="midnightblue" points="554.851,-123.579 545.297,-128.158 555.621,-130.536 554.851,-123.579"/>
</g>
<!-- Node3&#45;&gt;Node2 -->
<g id="edge6" class="edge"><title>Node3&#45;&gt;Node2</title>
<path fill="none" stroke="midnightblue" d="M499.269,-93.6107C499.845,-102.764 499.453,-113.137 498.092,-120.631"/>
<polygon fill="midnightblue" stroke="midnightblue" points="502.746,-93.2159 498.146,-83.6719 495.79,-94.0015 502.746,-93.2159"/>
</g>
<!-- Node6&#45;&gt;Node7 -->
<g id="edge14" class="edge"><title>Node6&#45;&gt;Node7</title>
<path fill="none" stroke="midnightblue" d="M188.114,-56.0398C167.874,-45.8319 141.569,-32.5651 123.546,-23.475"/>
<polygon fill="midnightblue" stroke="midnightblue" points="186.712,-59.2526 197.216,-60.6308 189.864,-53.0025 186.712,-59.2526"/>
</g>
<!-- Node8&#45;&gt;Node2 -->
<g id="edge18" class="edge"><title>Node8&#45;&gt;Node2</title>
<path fill="none" stroke="midnightblue" d="M396.856,-87.2529C422.208,-97.5877 453.992,-111.327 473.957,-120.631"/>
<polygon fill="midnightblue" stroke="midnightblue" points="398.076,-83.9709 387.493,-83.475 395.457,-90.4625 398.076,-83.9709"/>
</g>
<!-- Node9&#45;&gt;Node1 -->
<g id="edge24" class="edge"><title>Node9&#45;&gt;Node1</title>
<path fill="none" stroke="midnightblue" d="M759.542,-87.1111C697.85,-111.136 573.819,-159.439 519.4,-180.632"/>
<polygon fill="midnightblue" stroke="midnightblue" points="760.839,-90.3619 768.887,-83.4715 758.299,-83.8391 760.839,-90.3619"/>
</g>
<!-- Node9&#45;&gt;Node10 -->
<g id="edge26" class="edge"><title>Node9&#45;&gt;Node10</title>
<path fill="none" stroke="midnightblue" d="M782.832,-52.2313C776.311,-42.775 768.641,-31.6539 763.136,-23.6719"/>
<polygon fill="midnightblue" stroke="midnightblue" points="780.066,-54.3857 788.625,-60.6308 785.829,-50.4115 780.066,-54.3857"/>
</g>
</g>
</svg>
