<?xml version="1.0" encoding="UTF-8" standalone="no"?>
<!DOCTYPE svg PUBLIC "-//W3C//DTD SVG 1.1//EN"
 "http://www.w3.org/Graphics/SVG/1.1/DTD/svg11.dtd">
<!-- Generated by graphviz version 2.28.0 (20121015.0031)
 -->
<!-- Title: src/fae/graph.c Pages: 1 -->
<svg width="466pt" height="272pt"
 viewBox="0.00 0.00 466.38 272.00" xmlns="http://www.w3.org/2000/svg" xmlns:xlink="http://www.w3.org/1999/xlink">
<g id="graph1" class="graph" transform="scale(1 1) rotate(0) translate(4 268)">
<title>src/fae/graph.c</title>
<!-- Node1 -->
<g id="node1" class="node"><title>Node1</title>
<polygon fill="#bfbfbf" stroke="black" points="200.522,-240.695 200.522,-263.305 296.24,-263.305 296.24,-240.695 200.522,-240.695"/>
<text text-anchor="middle" x="248.381" y="-248.305" font-family="Futura" font-size="11.00">src/fae/graph.c</text>
</g>
<!-- Node2 -->
<g id="node3" class="node"><title>Node2</title>
<a xlink:href="graph_8h.html" target="_top" xlink:title="fae/graph.h">
<polygon fill="none" stroke="black" points="40.8379,-180.695 40.8379,-203.305 117.923,-203.305 117.923,-180.695 40.8379,-180.695"/>
<text text-anchor="middle" x="79.3806" y="-188.305" font-family="Futura" font-size="11.00">fae/graph.h</text>
</a>
</g>
<!-- Node1&#45;&gt;Node2 -->
<g id="edge2" class="edge"><title>Node1&#45;&gt;Node2</title>
<path fill="none" stroke="midnightblue" d="M218.167,-240.631C190.615,-231.175 149.71,-217.137 119.44,-206.748"/>
<polygon fill="midnightblue" stroke="midnightblue" points="120.212,-203.313 109.617,-203.377 117.94,-209.934 120.212,-203.313"/>
</g>
<!-- Node6 -->
<g id="node15" class="node"><title>Node6</title>
<a xlink:href="string_8h.html" target="_top" xlink:title="fae/string.h">
<polygon fill="none" stroke="black" points="219.208,-120.695 219.208,-143.305 293.554,-143.305 293.554,-120.695 219.208,-120.695"/>
<text text-anchor="middle" x="256.381" y="-128.305" font-family="Futura" font-size="11.00">fae/string.h</text>
</a>
</g>
<!-- Node1&#45;&gt;Node6 -->
<g id="edge30" class="edge"><title>Node1&#45;&gt;Node6</title>
<path fill="none" stroke="midnightblue" d="M249.091,-240.528C250.41,-221.071 253.26,-179.023 254.98,-153.656"/>
<polygon fill="midnightblue" stroke="midnightblue" points="258.476,-153.832 255.661,-143.618 251.492,-153.358 258.476,-153.832"/>
</g>
<!-- Node7 -->
<g id="node18" class="node"><title>Node7</title>
<a xlink:href="set_8h.html" target="_top" xlink:title="fae/set.h">
<polygon fill="none" stroke="black" points="159.935,-180.695 159.935,-203.305 220.826,-203.305 220.826,-180.695 159.935,-180.695"/>
<text text-anchor="middle" x="190.381" y="-188.305" font-family="Futura" font-size="11.00">fae/set.h</text>
</a>
</g>
<!-- Node1&#45;&gt;Node7 -->
<g id="edge22" class="edge"><title>Node1&#45;&gt;Node7</title>
<path fill="none" stroke="midnightblue" d="M238.011,-240.631C229.784,-232.403 218.087,-220.707 208.344,-210.963"/>
<polygon fill="midnightblue" stroke="midnightblue" points="210.598,-208.268 201.053,-203.672 205.649,-213.218 210.598,-208.268"/>
</g>
<!-- Node8 -->
<g id="node24" class="node"><title>Node8</title>
<a xlink:href="dynamic_8h.html" target="_top" xlink:title="fae/dynamic.h">
<polygon fill="none" stroke="black" points="276.82,-180.695 276.82,-203.305 365.942,-203.305 365.942,-180.695 276.82,-180.695"/>
<text text-anchor="middle" x="321.381" y="-188.305" font-family="Futura" font-size="11.00">fae/dynamic.h</text>
</a>
</g>
<!-- Node1&#45;&gt;Node8 -->
<g id="edge32" class="edge"><title>Node1&#45;&gt;Node8</title>
<path fill="none" stroke="midnightblue" d="M261.432,-240.631C272.094,-232.159 287.387,-220.009 299.858,-210.1"/>
<polygon fill="midnightblue" stroke="midnightblue" points="302.296,-212.633 307.949,-203.672 297.942,-207.152 302.296,-212.633"/>
</g>
<!-- Node9 -->
<g id="node28" class="node"><title>Node9</title>
<a xlink:href="util_8h.html" target="_top" xlink:title="fae/util.h">
<polygon fill="none" stroke="red" points="383.521,-180.695 383.521,-203.305 445.24,-203.305 445.24,-180.695 383.521,-180.695"/>
<text text-anchor="middle" x="414.381" y="-188.305" font-family="Futura" font-size="11.00">fae/util.h</text>
</a>
</g>
<!-- Node1&#45;&gt;Node9 -->
<g id="edge38" class="edge"><title>Node1&#45;&gt;Node9</title>
<path fill="none" stroke="midnightblue" d="M278.058,-240.631C305.121,-231.175 345.299,-217.137 375.032,-206.748"/>
<polygon fill="midnightblue" stroke="midnightblue" points="376.395,-209.98 384.681,-203.377 374.086,-203.371 376.395,-209.98"/>
</g>
<!-- Node3 -->
<g id="node5" class="node"><title>Node3</title>
<a xlink:href="fae_2fae_8h.html" target="_top" xlink:title="fae.h">
<polygon fill="none" stroke="red" points="94.6109,-0.695312 94.6109,-23.3047 136.15,-23.3047 136.15,-0.695312 94.6109,-0.695312"/>
<text text-anchor="middle" x="115.381" y="-8.30469" font-family="Futura" font-size="11.00">fae.h</text>
</a>
</g>
<!-- Node2&#45;&gt;Node3 -->
<g id="edge4" class="edge"><title>Node2&#45;&gt;Node3</title>
<path fill="none" stroke="midnightblue" d="M46.5101,-180.66C30.1102,-172.978 12.1648,-160.892 3.38064,-144 -1.5406,-134.536 -0.299441,-130.012 3.38064,-120 18.2309,-79.5997 57.5109,-46.3903 85.5412,-28.1724"/>
<polygon fill="midnightblue" stroke="midnightblue" points="87.5528,-31.0433 94.2014,-22.7942 83.8597,-25.0967 87.5528,-31.0433"/>
</g>
<!-- Node4 -->
<g id="node8" class="node"><title>Node4</title>
<a xlink:href="pair_8h.html" target="_top" xlink:title="fae/pair.h">
<polygon fill="none" stroke="black" points="21.0318,-120.695 21.0318,-143.305 87.7295,-143.305 87.7295,-120.695 21.0318,-120.695"/>
<text text-anchor="middle" x="54.3806" y="-128.305" font-family="Futura" font-size="11.00">fae/pair.h</text>
</a>
</g>
<!-- Node2&#45;&gt;Node4 -->
<g id="edge8" class="edge"><title>Node2&#45;&gt;Node4</title>
<path fill="none" stroke="midnightblue" d="M74.9111,-180.631C71.6106,-172.974 67.0148,-162.311 63.008,-153.016"/>
<polygon fill="midnightblue" stroke="midnightblue" points="66.1531,-151.47 58.9806,-143.672 59.7248,-154.241 66.1531,-151.47"/>
</g>
<!-- Node5 -->
<g id="node11" class="node"><title>Node5</title>
<a xlink:href="list_8h.html" target="_top" xlink:title="fae/list.h">
<polygon fill="none" stroke="black" points="85.2866,-60.6953 85.2866,-83.3047 145.475,-83.3047 145.475,-60.6953 85.2866,-60.6953"/>
<text text-anchor="middle" x="115.381" y="-68.3047" font-family="Futura" font-size="11.00">fae/list.h</text>
</a>
</g>
<!-- Node2&#45;&gt;Node5 -->
<g id="edge16" class="edge"><title>Node2&#45;&gt;Node5</title>
<path fill="none" stroke="midnightblue" d="M83.4198,-180.633C87.0385,-171.168 92.3772,-156.749 96.3806,-144 101.681,-127.12 106.814,-107.697 110.405,-93.4373"/>
<polygon fill="midnightblue" stroke="midnightblue" points="113.818,-94.2156 112.829,-83.6671 107.024,-92.5304 113.818,-94.2156"/>
</g>
<!-- Node2&#45;&gt;Node6 -->
<g id="edge18" class="edge"><title>Node2&#45;&gt;Node6</title>
<path fill="none" stroke="midnightblue" d="M111.025,-180.631C140.006,-171.134 183.094,-157.015 214.837,-146.613"/>
<polygon fill="midnightblue" stroke="midnightblue" points="216.3,-149.817 224.713,-143.377 214.12,-143.165 216.3,-149.817"/>
</g>
<!-- Node3&#45;&gt;Node2 -->
<g id="edge6" class="edge"><title>Node3&#45;&gt;Node2</title>
<path fill="none" stroke="midnightblue" d="M104.715,-23.3359C83.2982,-40.0645 37.6601,-75.7114 21.3806,-120 17.7006,-130.012 16.4594,-134.536 21.3806,-144 28.3805,-157.461 41.1979,-167.869 53.1085,-175.43"/>
<polygon fill="midnightblue" stroke="midnightblue" points="51.5419,-178.57 61.9286,-180.66 55.1123,-172.549 51.5419,-178.57"/>
</g>
<!-- Node4&#45;&gt;Node3 -->
<g id="edge10" class="edge"><title>Node4&#45;&gt;Node3</title>
<path fill="none" stroke="midnightblue" d="M56.3132,-120.383C59.2196,-106.039 65.5605,-79.969 76.3806,-60 82.0634,-49.5122 90.2832,-39.1656 97.7127,-30.8615"/>
<polygon fill="midnightblue" stroke="midnightblue" points="100.496,-33.0092 104.756,-23.3086 95.376,-28.2353 100.496,-33.0092"/>
</g>
<!-- Node4&#45;&gt;Node5 -->
<g id="edge12" class="edge"><title>Node4&#45;&gt;Node5</title>
<path fill="none" stroke="midnightblue" d="M65.2862,-120.631C74.0248,-112.322 86.4849,-100.475 96.7919,-90.6745"/>
<polygon fill="midnightblue" stroke="midnightblue" points="99.3214,-93.099 104.157,-83.6719 94.498,-88.026 99.3214,-93.099"/>
</g>
<!-- Node5&#45;&gt;Node3 -->
<g id="edge14" class="edge"><title>Node5&#45;&gt;Node3</title>
<path fill="none" stroke="midnightblue" d="M115.381,-60.6308C115.381,-53.218 115.381,-42.9888 115.381,-33.9096"/>
<polygon fill="midnightblue" stroke="midnightblue" points="118.881,-33.6718 115.381,-23.6719 111.881,-33.6719 118.881,-33.6718"/>
</g>
<!-- Node6&#45;&gt;Node3 -->
<g id="edge20" class="edge"><title>Node6&#45;&gt;Node3</title>
<path fill="none" stroke="midnightblue" d="M251.021,-120.676C242.847,-105.73 226.016,-77.9016 205.381,-60 187.773,-44.7254 164.343,-32.6905 145.802,-24.6238"/>
<polygon fill="midnightblue" stroke="midnightblue" points="146.918,-21.2966 136.342,-20.6633 144.215,-27.7535 146.918,-21.2966"/>
</g>
<!-- Node7&#45;&gt;Node3 -->
<g id="edge24" class="edge"><title>Node7&#45;&gt;Node3</title>
<path fill="none" stroke="midnightblue" d="M189.047,-180.599C185.794,-157.694 176.072,-101.623 154.381,-60 148.941,-49.5628 140.887,-39.3405 133.508,-31.1089"/>
<polygon fill="midnightblue" stroke="midnightblue" points="135.868,-28.5089 126.475,-23.6067 130.761,-33.2962 135.868,-28.5089"/>
</g>
<!-- Node7&#45;&gt;Node5 -->
<g id="edge26" class="edge"><title>Node7&#45;&gt;Node5</title>
<path fill="none" stroke="midnightblue" d="M183.725,-180.528C171.136,-160.722 143.669,-117.507 127.652,-92.3074"/>
<polygon fill="midnightblue" stroke="midnightblue" points="130.447,-90.18 122.129,-83.6179 124.54,-93.9349 130.447,-90.18"/>
</g>
<!-- Node7&#45;&gt;Node6 -->
<g id="edge28" class="edge"><title>Node7&#45;&gt;Node6</title>
<path fill="none" stroke="midnightblue" d="M202.18,-180.631C211.728,-172.24 225.381,-160.242 236.596,-150.387"/>
<polygon fill="midnightblue" stroke="midnightblue" points="239.036,-152.902 244.237,-143.672 234.415,-147.644 239.036,-152.902"/>
</g>
<!-- Node8&#45;&gt;Node3 -->
<g id="edge34" class="edge"><title>Node8&#45;&gt;Node3</title>
<path fill="none" stroke="midnightblue" d="M320.571,-180.573C319.021,-165.987 314.614,-139.137 302.381,-120 266.292,-63.5436 189.143,-33.705 146.07,-20.8767"/>
<polygon fill="midnightblue" stroke="midnightblue" points="146.983,-17.4976 136.406,-18.1145 145.059,-24.2281 146.983,-17.4976"/>
</g>
<!-- Node8&#45;&gt;Node6 -->
<g id="edge36" class="edge"><title>Node8&#45;&gt;Node6</title>
<path fill="none" stroke="midnightblue" d="M309.76,-180.631C300.357,-172.24 286.91,-160.242 275.866,-150.387"/>
<polygon fill="midnightblue" stroke="midnightblue" points="278.132,-147.718 268.34,-143.672 273.472,-152.941 278.132,-147.718"/>
</g>
<!-- Node10 -->
<g id="node30" class="node"><title>Node10</title>
<a xlink:href="arch_8h.html" target="_top" xlink:title="fae/util/arch.h">
<polygon fill="none" stroke="black" points="369.586,-120.695 369.586,-143.305 459.175,-143.305 459.175,-120.695 369.586,-120.695"/>
<text text-anchor="middle" x="414.381" y="-128.305" font-family="Futura" font-size="11.00">fae/util/arch.h</text>
</a>
</g>
<!-- Node9&#45;&gt;Node10 -->
<g id="edge40" class="edge"><title>Node9&#45;&gt;Node10</title>
<path fill="none" stroke="midnightblue" d="M414.381,-180.631C414.381,-173.218 414.381,-162.989 414.381,-153.91"/>
<polygon fill="midnightblue" stroke="midnightblue" points="417.881,-153.672 414.381,-143.672 410.881,-153.672 417.881,-153.672"/>
</g>
</g>
</svg>
