<?xml version="1.0" encoding="UTF-8" standalone="no"?>
<!DOCTYPE svg PUBLIC "-//W3C//DTD SVG 1.1//EN"
 "http://www.w3.org/Graphics/SVG/1.1/DTD/svg11.dtd">
<!-- Generated by graphviz version 2.28.0 (20121015.0031)
 -->
<!-- Title: String Pages: 1 -->
<svg width="214pt" height="30pt"
 viewBox="0.00 0.00 214.00 30.00" xmlns="http://www.w3.org/2000/svg" xmlns:xlink="http://www.w3.org/1999/xlink">
<g id="graph1" class="graph" transform="scale(1 1) rotate(0) translate(4 26)">
<title>String</title>
<!-- Node2 -->
<g id="node1" class="node"><title>Node2</title>
<a xlink:href="group___doremir_string_list.html" target="_top" xlink:title="Provides conversions between String and List.">
<polygon fill="none" stroke="black" points="174.456,0.304688 174.456,-22.3047 205.544,-22.3047 205.544,0.304688 174.456,0.304688"/>
<text text-anchor="middle" x="190" y="-7.30469" font-family="Futura" font-size="11.00">List</text>
</a>
</g>
<!-- Node0 -->
<g id="node2" class="node"><title>Node0</title>
<polygon fill="#bfbfbf" stroke="black" points="92.3772,0.304688 92.3772,-22.3047 137.623,-22.3047 137.623,0.304688 92.3772,0.304688"/>
<text text-anchor="middle" x="115" y="-7.30469" font-family="Futura" font-size="11.00">String</text>
</g>
<!-- Node0&#45;&gt;Node2 -->
<g id="edge4" class="edge"><title>Node0&#45;&gt;Node2</title>
<path fill="none" stroke="midnightblue" d="M147.966,-11C157.136,-11 166.695,-11 174.277,-11"/>
<polygon fill="midnightblue" stroke="midnightblue" points="147.902,-7.5001 137.902,-11 147.902,-14.5001 147.902,-7.5001"/>
</g>
<!-- Node1 -->
<g id="node3" class="node"><title>Node1</title>
<a xlink:href="group___doremir.html" target="_top" xlink:title="Core definitions.">
<polygon fill="none" stroke="black" points="-0.138916,0.304688 -0.138916,-22.3047 56.1389,-22.3047 56.1389,0.304688 -0.138916,0.304688"/>
<text text-anchor="middle" x="28" y="-7.30469" font-family="Futura" font-size="11.00">Doremir</text>
</a>
</g>
<!-- Node1&#45;&gt;Node0 -->
<g id="edge2" class="edge"><title>Node1&#45;&gt;Node0</title>
<path fill="none" stroke="midnightblue" d="M66.5108,-11C75.3495,-11 84.48,-11 92.3447,-11"/>
<polygon fill="midnightblue" stroke="midnightblue" points="66.3624,-7.5001 56.3624,-11 66.3624,-14.5001 66.3624,-7.5001"/>
</g>
</g>
</svg>
