<?xml version="1.0" encoding="UTF-8" standalone="no"?>
<!DOCTYPE svg PUBLIC "-//W3C//DTD SVG 1.1//EN"
 "http://www.w3.org/Graphics/SVG/1.1/DTD/svg11.dtd">
<!-- Generated by graphviz version 2.28.0 (20121015.0031)
 -->
<!-- Title: Processor Pages: 1 -->
<svg width="268pt" height="492pt"
 viewBox="0.00 0.00 268.00 492.00" xmlns="http://www.w3.org/2000/svg" xmlns:xlink="http://www.w3.org/1999/xlink">
<g id="graph1" class="graph" transform="scale(1 1) rotate(0) translate(4 488)">
<title>Processor</title>
<!-- Node12 -->
<g id="node1" class="node"><title>Node12</title>
<a xlink:href="group___doremir_processor_unary.html" target="_top" xlink:title="Unary">
<polygon fill="none" stroke="black" points="202.298,-461.695 202.298,-484.305 249.702,-484.305 249.702,-461.695 202.298,-461.695"/>
<text text-anchor="middle" x="226" y="-469.305" font-family="Futura" font-size="11.00">Unary</text>
</a>
</g>
<!-- Node11 -->
<g id="node2" class="node"><title>Node11</title>
<a xlink:href="group___doremir_processor_split.html" target="_top" xlink:title="Split">
<polygon fill="none" stroke="black" points="207.252,-419.695 207.252,-442.305 244.748,-442.305 244.748,-419.695 207.252,-419.695"/>
<text text-anchor="middle" x="226" y="-427.305" font-family="Futura" font-size="11.00">Split</text>
</a>
</g>
<!-- Node2 -->
<g id="node3" class="node"><title>Node2</title>
<a xlink:href="group___doremir_processor_audio_unit.html" target="_top" xlink:title="AudioUnit">
<polygon fill="none" stroke="black" points="192.971,-377.695 192.971,-400.305 259.029,-400.305 259.029,-377.695 192.971,-377.695"/>
<text text-anchor="middle" x="226" y="-385.305" font-family="Futura" font-size="11.00">AudioUnit</text>
</a>
</g>
<!-- Node5 -->
<g id="node4" class="node"><title>Node5</title>
<a xlink:href="group___doremir_processor_delay.html" target="_top" xlink:title="Delay">
<polygon fill="none" stroke="black" points="203.259,-335.695 203.259,-358.305 248.741,-358.305 248.741,-335.695 203.259,-335.695"/>
<text text-anchor="middle" x="226" y="-343.305" font-family="Futura" font-size="11.00">Delay</text>
</a>
</g>
<!-- Node0 -->
<g id="node5" class="node"><title>Node0</title>
<polygon fill="#bfbfbf" stroke="black" points="92.2249,-230.695 92.2249,-253.305 155.775,-253.305 155.775,-230.695 92.2249,-230.695"/>
<text text-anchor="middle" x="124" y="-238.305" font-family="Futura" font-size="11.00">Processor</text>
</g>
<!-- Node0&#45;&gt;Node12 -->
<g id="edge24" class="edge"><title>Node0&#45;&gt;Node12</title>
<path fill="none" stroke="midnightblue" d="M127.209,-263.737C132.285,-304.283 147.94,-392.619 192,-451 195.069,-455.067 199.122,-458.621 203.332,-461.619"/>
<polygon fill="midnightblue" stroke="midnightblue" points="130.667,-263.166 126.043,-253.633 123.713,-263.968 130.667,-263.166"/>
</g>
<!-- Node0&#45;&gt;Node11 -->
<g id="edge22" class="edge"><title>Node0&#45;&gt;Node11</title>
<path fill="none" stroke="midnightblue" d="M129.296,-263.512C136.966,-297.5 155.725,-364.34 192,-409 196.081,-414.024 201.614,-418.325 206.983,-421.756"/>
<polygon fill="midnightblue" stroke="midnightblue" points="132.63,-262.368 127.11,-253.324 125.786,-263.836 132.63,-262.368"/>
</g>
<!-- Node0&#45;&gt;Node2 -->
<g id="edge4" class="edge"><title>Node0&#45;&gt;Node2</title>
<path fill="none" stroke="midnightblue" d="M132.524,-262.941C142.823,-289.453 163.354,-335.464 192,-367 195.611,-370.976 200.085,-374.571 204.561,-377.648"/>
<polygon fill="midnightblue" stroke="midnightblue" points="135.767,-261.62 128.969,-253.494 129.215,-264.086 135.767,-261.62"/>
</g>
<!-- Node0&#45;&gt;Node5 -->
<g id="edge10" class="edge"><title>Node0&#45;&gt;Node5</title>
<path fill="none" stroke="midnightblue" d="M138.369,-261.827C150.935,-279.598 170.918,-305.757 192,-325 196.17,-328.806 201.055,-332.432 205.768,-335.601"/>
<polygon fill="midnightblue" stroke="midnightblue" points="141.084,-259.6 132.508,-253.379 135.333,-263.59 141.084,-259.6"/>
</g>
<!-- Node8 -->
<g id="node6" class="node"><title>Node8</title>
<a xlink:href="group___doremir_processor_loop.html" target="_top" xlink:title="Loop">
<polygon fill="none" stroke="black" points="205.652,-293.695 205.652,-316.305 246.348,-316.305 246.348,-293.695 205.652,-293.695"/>
<text text-anchor="middle" x="226" y="-301.305" font-family="Futura" font-size="11.00">Loop</text>
</a>
</g>
<!-- Node0&#45;&gt;Node8 -->
<g id="edge16" class="edge"><title>Node0&#45;&gt;Node8</title>
<path fill="none" stroke="midnightblue" d="M151.933,-258.968C169.309,-269.914 191.444,-283.86 206.775,-293.518"/>
<polygon fill="midnightblue" stroke="midnightblue" points="153.668,-255.924 143.342,-253.555 149.937,-261.847 153.668,-255.924"/>
</g>
<!-- Node9 -->
<g id="node7" class="node"><title>Node9</title>
<a xlink:href="group___doremir_processor_par.html" target="_top" xlink:title="Par">
<polygon fill="none" stroke="black" points="209.823,-251.695 209.823,-274.305 242.177,-274.305 242.177,-251.695 209.823,-251.695"/>
<text text-anchor="middle" x="226" y="-259.305" font-family="Futura" font-size="11.00">Par</text>
</a>
</g>
<!-- Node0&#45;&gt;Node9 -->
<g id="edge18" class="edge"><title>Node0&#45;&gt;Node9</title>
<path fill="none" stroke="midnightblue" d="M165.78,-250.564C181.307,-253.824 198.062,-257.343 209.775,-259.803"/>
<polygon fill="midnightblue" stroke="midnightblue" points="166.325,-247.102 155.819,-248.472 164.886,-253.953 166.325,-247.102"/>
</g>
<!-- Node7 -->
<g id="node8" class="node"><title>Node7</title>
<a xlink:href="group___doremir_processor_id.html" target="_top" xlink:title="Id">
<polygon fill="none" stroke="black" points="211.5,-209.695 211.5,-232.305 240.5,-232.305 240.5,-209.695 211.5,-209.695"/>
<text text-anchor="middle" x="226" y="-217.305" font-family="Futura" font-size="11.00">Id</text>
</a>
</g>
<!-- Node0&#45;&gt;Node7 -->
<g id="edge14" class="edge"><title>Node0&#45;&gt;Node7</title>
<path fill="none" stroke="midnightblue" d="M165.712,-233.451C181.985,-230.033 199.62,-226.33 211.388,-223.858"/>
<polygon fill="midnightblue" stroke="midnightblue" points="164.886,-230.047 155.819,-235.528 166.325,-236.898 164.886,-230.047"/>
</g>
<!-- Node4 -->
<g id="node9" class="node"><title>Node4</title>
<a xlink:href="group___doremir_processor_const.html" target="_top" xlink:title="Const">
<polygon fill="none" stroke="black" points="204.089,-167.695 204.089,-190.305 247.911,-190.305 247.911,-167.695 204.089,-167.695"/>
<text text-anchor="middle" x="226" y="-175.305" font-family="Futura" font-size="11.00">Const</text>
</a>
</g>
<!-- Node0&#45;&gt;Node4 -->
<g id="edge8" class="edge"><title>Node0&#45;&gt;Node4</title>
<path fill="none" stroke="midnightblue" d="M151.933,-225.032C169.309,-214.086 191.444,-200.14 206.775,-190.482"/>
<polygon fill="midnightblue" stroke="midnightblue" points="149.937,-222.153 143.342,-230.445 153.668,-228.076 149.937,-222.153"/>
</g>
<!-- Node6 -->
<g id="node10" class="node"><title>Node6</title>
<a xlink:href="group___doremir_processor_fluid_synth.html" target="_top" xlink:title="FluidSynth">
<polygon fill="none" stroke="black" points="192.329,-125.695 192.329,-148.305 259.671,-148.305 259.671,-125.695 192.329,-125.695"/>
<text text-anchor="middle" x="226" y="-133.305" font-family="Futura" font-size="11.00">FluidSynth</text>
</a>
</g>
<!-- Node0&#45;&gt;Node6 -->
<g id="edge12" class="edge"><title>Node0&#45;&gt;Node6</title>
<path fill="none" stroke="midnightblue" d="M138.019,-222.112C150.474,-204.039 170.497,-177.325 192,-158 195.839,-154.55 200.306,-151.298 204.692,-148.43"/>
<polygon fill="midnightblue" stroke="midnightblue" points="134.923,-220.443 132.229,-230.69 140.725,-224.36 134.923,-220.443"/>
</g>
<!-- Node3 -->
<g id="node11" class="node"><title>Node3</title>
<a xlink:href="group___doremir_processor_binary.html" target="_top" xlink:title="Binary">
<polygon fill="none" stroke="black" points="201.777,-83.6953 201.777,-106.305 250.223,-106.305 250.223,-83.6953 201.777,-83.6953"/>
<text text-anchor="middle" x="226" y="-91.3047" font-family="Futura" font-size="11.00">Binary</text>
</a>
</g>
<!-- Node0&#45;&gt;Node3 -->
<g id="edge6" class="edge"><title>Node0&#45;&gt;Node3</title>
<path fill="none" stroke="midnightblue" d="M132.379,-220.791C142.524,-193.962 162.892,-147.472 192,-116 195.32,-112.41 199.383,-109.179 203.508,-106.388"/>
<polygon fill="midnightblue" stroke="midnightblue" points="129.029,-219.761 128.882,-230.355 135.603,-222.165 129.029,-219.761"/>
</g>
<!-- Node13 -->
<g id="node12" class="node"><title>Node13</title>
<a xlink:href="group___doremir_processor_vst.html" target="_top" xlink:title="Vst">
<polygon fill="none" stroke="black" points="210.545,-41.6953 210.545,-64.3047 241.455,-64.3047 241.455,-41.6953 210.545,-41.6953"/>
<text text-anchor="middle" x="226" y="-49.3047" font-family="Futura" font-size="11.00">Vst</text>
</a>
</g>
<!-- Node0&#45;&gt;Node13 -->
<g id="edge26" class="edge"><title>Node0&#45;&gt;Node13</title>
<path fill="none" stroke="midnightblue" d="M129.053,-220.713C136.46,-186.536 154.947,-118.732 192,-74 196.938,-68.0381 204.023,-63.2217 210.362,-59.7128"/>
<polygon fill="midnightblue" stroke="midnightblue" points="125.615,-220.056 127.029,-230.556 132.472,-221.466 125.615,-220.056"/>
</g>
<!-- Node10 -->
<g id="node13" class="node"><title>Node10</title>
<a xlink:href="group___doremir_processor_seq.html" target="_top" xlink:title="Seq">
<polygon fill="none" stroke="black" points="208.453,0.304688 208.453,-22.3047 243.547,-22.3047 243.547,0.304688 208.453,0.304688"/>
<text text-anchor="middle" x="226" y="-7.30469" font-family="Futura" font-size="11.00">Seq</text>
</a>
</g>
<!-- Node0&#45;&gt;Node10 -->
<g id="edge20" class="edge"><title>Node0&#45;&gt;Node10</title>
<path fill="none" stroke="midnightblue" d="M127.064,-220.071C131.898,-179.184 147.168,-90.191 192,-32 196.227,-26.513 202.325,-22.0646 208.131,-18.6983"/>
<polygon fill="midnightblue" stroke="midnightblue" points="123.558,-219.943 125.962,-230.262 130.517,-220.697 123.558,-219.943"/>
</g>
<!-- Node1 -->
<g id="node14" class="node"><title>Node1</title>
<a xlink:href="group___doremir.html" target="_top" xlink:title="Core definitions.">
<polygon fill="none" stroke="black" points="-0.138916,-230.695 -0.138916,-253.305 56.1389,-253.305 56.1389,-230.695 -0.138916,-230.695"/>
<text text-anchor="middle" x="28" y="-238.305" font-family="Futura" font-size="11.00">Doremir</text>
</a>
</g>
<!-- Node1&#45;&gt;Node0 -->
<g id="edge2" class="edge"><title>Node1&#45;&gt;Node0</title>
<path fill="none" stroke="midnightblue" d="M66.2538,-242C74.7511,-242 83.693,-242 91.9013,-242"/>
<polygon fill="midnightblue" stroke="midnightblue" points="66.1887,-238.5 56.1887,-242 66.1887,-245.5 66.1887,-238.5"/>
</g>
</g>
</svg>
