<?xml version="1.0" encoding="UTF-8" standalone="no"?>
<!DOCTYPE svg PUBLIC "-//W3C//DTD SVG 1.1//EN"
 "http://www.w3.org/Graphics/SVG/1.1/DTD/svg11.dtd">
<!-- Generated by graphviz version 2.28.0 (20121015.0031)
 -->
<!-- Title: Device Pages: 1 -->
<svg width="232pt" height="156pt"
 viewBox="0.00 0.00 232.00 156.00" xmlns="http://www.w3.org/2000/svg" xmlns:xlink="http://www.w3.org/1999/xlink">
<g id="graph1" class="graph" transform="scale(1 1) rotate(0) translate(4 152)">
<title>Device</title>
<!-- Node4 -->
<g id="node1" class="node"><title>Node4</title>
<a xlink:href="group___doremir_device_file.html" target="_top" xlink:title="Non&#45;real&#45;time file device.">
<polygon fill="none" stroke="black" points="184.412,-125.695 184.412,-148.305 217.588,-148.305 217.588,-125.695 184.412,-125.695"/>
<text text-anchor="middle" x="201" y="-133.305" font-family="Futura" font-size="11.00">File</text>
</a>
</g>
<!-- Node3 -->
<g id="node2" class="node"><title>Node3</title>
<a xlink:href="group___doremir_device_buffer.html" target="_top" xlink:title="Non&#45;real&#45;time memory device.">
<polygon fill="none" stroke="black" points="178.119,-83.6953 178.119,-106.305 223.881,-106.305 223.881,-83.6953 178.119,-83.6953"/>
<text text-anchor="middle" x="201" y="-91.3047" font-family="Futura" font-size="11.00">Buffer</text>
</a>
</g>
<!-- Node2 -->
<g id="node3" class="node"><title>Node2</title>
<a xlink:href="group___doremir_device_audio.html" target="_top" xlink:title="Real&#45;time audio device.">
<polygon fill="none" stroke="black" points="177.961,-41.6953 177.961,-64.3047 224.039,-64.3047 224.039,-41.6953 177.961,-41.6953"/>
<text text-anchor="middle" x="201" y="-49.3047" font-family="Futura" font-size="11.00">Audio</text>
</a>
</g>
<!-- Node5 -->
<g id="node4" class="node"><title>Node5</title>
<a xlink:href="group___doremir_device_midi.html" target="_top" xlink:title="Real&#45;time midi device.">
<polygon fill="none" stroke="black" points="181.675,0.304688 181.675,-22.3047 220.325,-22.3047 220.325,0.304688 181.675,0.304688"/>
<text text-anchor="middle" x="201" y="-7.30469" font-family="Futura" font-size="11.00">Midi</text>
</a>
</g>
<!-- Node0 -->
<g id="node5" class="node"><title>Node0</title>
<polygon fill="#bfbfbf" stroke="black" points="92.261,-62.6953 92.261,-85.3047 141.739,-85.3047 141.739,-62.6953 92.261,-62.6953"/>
<text text-anchor="middle" x="117" y="-70.3047" font-family="Futura" font-size="11.00">Device</text>
</g>
<!-- Node0&#45;&gt;Node4 -->
<g id="edge8" class="edge"><title>Node0&#45;&gt;Node4</title>
<path fill="none" stroke="midnightblue" d="M141.27,-91.8782C155.328,-102.679 172.83,-116.126 185.055,-125.518"/>
<polygon fill="midnightblue" stroke="midnightblue" points="143.102,-88.8722 133.04,-85.5552 138.838,-94.4231 143.102,-88.8722"/>
</g>
<!-- Node0&#45;&gt;Node3 -->
<g id="edge6" class="edge"><title>Node0&#45;&gt;Node3</title>
<path fill="none" stroke="midnightblue" d="M152.12,-82.7382C160.858,-84.9758 170.025,-87.3234 177.972,-89.3586"/>
<polygon fill="midnightblue" stroke="midnightblue" points="152.715,-79.2775 142.159,-80.1871 150.978,-86.0587 152.715,-79.2775"/>
</g>
<!-- Node0&#45;&gt;Node2 -->
<g id="edge4" class="edge"><title>Node0&#45;&gt;Node2</title>
<path fill="none" stroke="midnightblue" d="M152.035,-65.2837C160.697,-63.0654 169.786,-60.7377 177.695,-58.7123"/>
<polygon fill="midnightblue" stroke="midnightblue" points="150.978,-61.9413 142.159,-67.8129 152.715,-68.7225 150.978,-61.9413"/>
</g>
<!-- Node0&#45;&gt;Node5 -->
<g id="edge10" class="edge"><title>Node0&#45;&gt;Node5</title>
<path fill="none" stroke="midnightblue" d="M141.27,-56.1218C155.328,-45.3212 172.83,-31.8744 185.055,-22.4819"/>
<polygon fill="midnightblue" stroke="midnightblue" points="138.838,-53.5769 133.04,-62.4448 143.102,-59.1278 138.838,-53.5769"/>
</g>
<!-- Node1 -->
<g id="node6" class="node"><title>Node1</title>
<a xlink:href="group___doremir.html" target="_top" xlink:title="Core definitions.">
<polygon fill="none" stroke="black" points="-0.138916,-62.6953 -0.138916,-85.3047 56.1389,-85.3047 56.1389,-62.6953 -0.138916,-62.6953"/>
<text text-anchor="middle" x="28" y="-70.3047" font-family="Futura" font-size="11.00">Doremir</text>
</a>
</g>
<!-- Node1&#45;&gt;Node0 -->
<g id="edge2" class="edge"><title>Node1&#45;&gt;Node0</title>
<path fill="none" stroke="midnightblue" d="M66.7932,-74C75.4093,-74 84.3292,-74 92.1694,-74"/>
<polygon fill="midnightblue" stroke="midnightblue" points="66.5274,-70.5001 56.5273,-74 66.5273,-77.5001 66.5274,-70.5001"/>
</g>
</g>
</svg>
