<?xml version="1.0" encoding="UTF-8" standalone="no"?>
<!DOCTYPE svg PUBLIC "-//W3C//DTD SVG 1.1//EN"
 "http://www.w3.org/Graphics/SVG/1.1/DTD/svg11.dtd">
<!-- Generated by graphviz version 2.28.0 (20121015.0031)
 -->
<!-- Title: Thread Pages: 1 -->
<svg width="254pt" height="72pt"
 viewBox="0.00 0.00 254.00 72.00" xmlns="http://www.w3.org/2000/svg" xmlns:xlink="http://www.w3.org/1999/xlink">
<g id="graph1" class="graph" transform="scale(1 1) rotate(0) translate(4 68)">
<title>Thread</title>
<!-- Node0 -->
<g id="node1" class="node"><title>Node0</title>
<polygon fill="#bfbfbf" stroke="black" points="92.6729,-20.6953 92.6729,-43.3047 143.327,-43.3047 143.327,-20.6953 92.6729,-20.6953"/>
<text text-anchor="middle" x="118" y="-28.3047" font-family="Futura" font-size="11.00">Thread</text>
</g>
<!-- Node2 -->
<g id="node2" class="node"><title>Node2</title>
<a xlink:href="group___doremir_thread_future.html" target="_top" xlink:title="Future values.">
<polygon fill="none" stroke="black" points="189.698,-41.6953 189.698,-64.3047 236.302,-64.3047 236.302,-41.6953 189.698,-41.6953"/>
<text text-anchor="middle" x="213" y="-49.3047" font-family="Futura" font-size="11.00">Future</text>
</a>
</g>
<!-- Node0&#45;&gt;Node2 -->
<g id="edge4" class="edge"><title>Node0&#45;&gt;Node2</title>
<path fill="none" stroke="midnightblue" d="M153.271,-39.7385C165.41,-42.4797 178.747,-45.4913 189.639,-47.9508"/>
<polygon fill="midnightblue" stroke="midnightblue" points="153.96,-36.3061 143.435,-37.5175 152.418,-43.1342 153.96,-36.3061"/>
</g>
<!-- Node3 -->
<g id="node3" class="node"><title>Node3</title>
<a xlink:href="group___doremir_thread_improving.html" target="_top" xlink:title="Improving values.">
<polygon fill="none" stroke="black" points="180.016,0.304688 180.016,-22.3047 245.984,-22.3047 245.984,0.304688 180.016,0.304688"/>
<text text-anchor="middle" x="213" y="-7.30469" font-family="Futura" font-size="11.00">Improving</text>
</a>
</g>
<!-- Node0&#45;&gt;Node3 -->
<g id="edge6" class="edge"><title>Node0&#45;&gt;Node3</title>
<path fill="none" stroke="midnightblue" d="M153.227,-24.2714C161.874,-22.3188 171.131,-20.2284 179.681,-18.2978"/>
<polygon fill="midnightblue" stroke="midnightblue" points="152.418,-20.8658 143.435,-26.4825 153.96,-27.6939 152.418,-20.8658"/>
</g>
<!-- Node1 -->
<g id="node4" class="node"><title>Node1</title>
<a xlink:href="group___doremir.html" target="_top" xlink:title="Core definitions.">
<polygon fill="none" stroke="black" points="-0.138916,-20.6953 -0.138916,-43.3047 56.1389,-43.3047 56.1389,-20.6953 -0.138916,-20.6953"/>
<text text-anchor="middle" x="28" y="-28.3047" font-family="Futura" font-size="11.00">Doremir</text>
</a>
</g>
<!-- Node1&#45;&gt;Node0 -->
<g id="edge2" class="edge"><title>Node1&#45;&gt;Node0</title>
<path fill="none" stroke="midnightblue" d="M66.4941,-32C75.3413,-32 84.5473,-32 92.6386,-32"/>
<polygon fill="midnightblue" stroke="midnightblue" points="66.3614,-28.5001 56.3614,-32 66.3613,-35.5001 66.3614,-28.5001"/>
</g>
</g>
</svg>
