<?xml version="1.0" encoding="UTF-8" standalone="no"?>
<!DOCTYPE svg PUBLIC "-//W3C//DTD SVG 1.1//EN"
 "http://www.w3.org/Graphics/SVG/1.1/DTD/svg11.dtd">
<!-- Generated by graphviz version 2.28.0 (20121015.0031)
 -->
<!-- Title: Atomic Pages: 1 -->
<svg width="256pt" height="114pt"
 viewBox="0.00 0.00 256.00 114.00" xmlns="http://www.w3.org/2000/svg" xmlns:xlink="http://www.w3.org/1999/xlink">
<g id="graph1" class="graph" transform="scale(1 1) rotate(0) translate(4 110)">
<title>Atomic</title>
<!-- Node4 -->
<g id="node1" class="node"><title>Node4</title>
<a xlink:href="group___doremir_atomic_stack.html" target="_top" xlink:title="Lock&#45;free stack (LIFO) data structure.">
<polygon fill="none" stroke="black" points="192.347,-83.6953 192.347,-106.305 235.653,-106.305 235.653,-83.6953 192.347,-83.6953"/>
<text text-anchor="middle" x="214" y="-91.3047" font-family="Futura" font-size="11.00">Stack</text>
</a>
</g>
<!-- Node2 -->
<g id="node2" class="node"><title>Node2</title>
<a xlink:href="group___doremir_atomic_queue.html" target="_top" xlink:title="Lock&#45;free queue (FIFO) data structure.">
<polygon fill="none" stroke="black" points="189.006,-41.6953 189.006,-64.3047 238.994,-64.3047 238.994,-41.6953 189.006,-41.6953"/>
<text text-anchor="middle" x="214" y="-49.3047" font-family="Futura" font-size="11.00">Queue</text>
</a>
</g>
<!-- Node3 -->
<g id="node3" class="node"><title>Node3</title>
<a xlink:href="group___doremir_atomic_ring_buffer.html" target="_top" xlink:title="Circular buffer data structure.">
<polygon fill="none" stroke="black" points="180.13,0.304688 180.13,-22.3047 247.87,-22.3047 247.87,0.304688 180.13,0.304688"/>
<text text-anchor="middle" x="214" y="-7.30469" font-family="Futura" font-size="11.00">RingBuffer</text>
</a>
</g>
<!-- Node0 -->
<g id="node4" class="node"><title>Node0</title>
<polygon fill="#bfbfbf" stroke="black" points="92.6755,-41.6953 92.6755,-64.3047 143.324,-64.3047 143.324,-41.6953 92.6755,-41.6953"/>
<text text-anchor="middle" x="118" y="-49.3047" font-family="Futura" font-size="11.00">Atomic</text>
</g>
<!-- Node0&#45;&gt;Node4 -->
<g id="edge8" class="edge"><title>Node0&#45;&gt;Node4</title>
<path fill="none" stroke="midnightblue" d="M152.951,-68.1697C166.11,-74.049 180.75,-80.5904 192.28,-85.7423"/>
<polygon fill="midnightblue" stroke="midnightblue" points="154.255,-64.9189 143.697,-64.035 151.4,-71.31 154.255,-64.9189"/>
</g>
<!-- Node0&#45;&gt;Node2 -->
<g id="edge4" class="edge"><title>Node0&#45;&gt;Node2</title>
<path fill="none" stroke="midnightblue" d="M153.96,-53C165.553,-53 178.193,-53 188.793,-53"/>
<polygon fill="midnightblue" stroke="midnightblue" points="153.697,-49.5001 143.697,-53 153.697,-56.5001 153.697,-49.5001"/>
</g>
<!-- Node0&#45;&gt;Node3 -->
<g id="edge6" class="edge"><title>Node0&#45;&gt;Node3</title>
<path fill="none" stroke="midnightblue" d="M152.943,-37.834C164.339,-32.7422 176.847,-27.1533 187.485,-22.4004"/>
<polygon fill="midnightblue" stroke="midnightblue" points="151.4,-34.69 143.697,-41.965 154.255,-41.0811 151.4,-34.69"/>
</g>
<!-- Node1 -->
<g id="node5" class="node"><title>Node1</title>
<a xlink:href="group___doremir.html" target="_top" xlink:title="Core definitions.">
<polygon fill="none" stroke="black" points="-0.138916,-41.6953 -0.138916,-64.3047 56.1389,-64.3047 56.1389,-41.6953 -0.138916,-41.6953"/>
<text text-anchor="middle" x="28" y="-49.3047" font-family="Futura" font-size="11.00">Doremir</text>
</a>
</g>
<!-- Node1&#45;&gt;Node0 -->
<g id="edge2" class="edge"><title>Node1&#45;&gt;Node0</title>
<path fill="none" stroke="midnightblue" d="M66.4941,-53C75.3413,-53 84.5473,-53 92.6386,-53"/>
<polygon fill="midnightblue" stroke="midnightblue" points="66.3614,-49.5001 56.3614,-53 66.3613,-56.5001 66.3614,-49.5001"/>
</g>
</g>
</svg>
