<?xml version="1.0" encoding="UTF-8" standalone="no"?>
<!DOCTYPE svg PUBLIC "-//W3C//DTD SVG 1.1//EN"
 "http://www.w3.org/Graphics/SVG/1.1/DTD/svg11.dtd">
<!-- Generated by graphviz version 2.28.0 (20121015.0031)
 -->
<!-- Title: Doremir Pages: 1 -->
<svg width="186pt" height="996pt"
 viewBox="0.00 0.00 186.00 996.00" xmlns="http://www.w3.org/2000/svg" xmlns:xlink="http://www.w3.org/1999/xlink">
<g id="graph1" class="graph" transform="scale(1 1) rotate(0) translate(4 992)">
<title>Doremir</title>
<!-- Node10 -->
<g id="node1" class="node"><title>Node10</title>
<a xlink:href="group___doremir_message.html" target="_top" xlink:title="Provides message dispatching.">
<polygon fill="none" stroke="black" points="104.573,-965.695 104.573,-988.305 165.427,-988.305 165.427,-965.695 104.573,-965.695"/>
<text text-anchor="middle" x="135" y="-973.305" font-family="Futura" font-size="11.00">Message</text>
</a>
</g>
<!-- Node5 -->
<g id="node2" class="node"><title>Node5</title>
<a xlink:href="group___doremir_error.html" target="_top" xlink:title="Error handling types and functions.">
<polygon fill="none" stroke="black" points="114.378,-923.695 114.378,-946.305 155.622,-946.305 155.622,-923.695 114.378,-923.695"/>
<text text-anchor="middle" x="135" y="-931.305" font-family="Futura" font-size="11.00">Error</text>
</a>
</g>
<!-- Node18 -->
<g id="node3" class="node"><title>Node18</title>
<a xlink:href="group___doremir_set.html" target="_top" xlink:title="Immutable ordered set data structure.">
<polygon fill="none" stroke="black" points="119.198,-881.695 119.198,-904.305 150.802,-904.305 150.802,-881.695 119.198,-881.695"/>
<text text-anchor="middle" x="135" y="-889.305" font-family="Futura" font-size="11.00">Set</text>
</a>
</g>
<!-- Node14 -->
<g id="node4" class="node"><title>Node14</title>
<a xlink:href="group___doremir_priority_queue.html" target="_top" xlink:title="Priority queue data structure.">
<polygon fill="none" stroke="black" points="92.2168,-839.695 92.2168,-862.305 177.783,-862.305 177.783,-839.695 92.2168,-839.695"/>
<text text-anchor="middle" x="135" y="-847.305" font-family="Futura" font-size="11.00">PriorityQueue</text>
</a>
</g>
<!-- Node22 -->
<g id="node5" class="node"><title>Node22</title>
<a xlink:href="group___doremir_thread.html" target="_top" xlink:title="Cross&#45;platform threads.">
<polygon fill="none" stroke="black" points="109.673,-797.695 109.673,-820.305 160.327,-820.305 160.327,-797.695 109.673,-797.695"/>
<text text-anchor="middle" x="135" y="-805.305" font-family="Futura" font-size="11.00">Thread</text>
</a>
</g>
<!-- Node20 -->
<g id="node6" class="node"><title>Node20</title>
<a xlink:href="group___doremir_std.html" target="_top" xlink:title="This module just exports the C standard library.">
<polygon fill="none" stroke="black" points="118.898,-755.695 118.898,-778.305 151.102,-778.305 151.102,-755.695 118.898,-755.695"/>
<text text-anchor="middle" x="135" y="-763.305" font-family="Futura" font-size="11.00">Std</text>
</a>
</g>
<!-- Node15 -->
<g id="node7" class="node"><title>Node15</title>
<a xlink:href="group___doremir_processor.html" target="_top" xlink:title="Provides signal processors.">
<polygon fill="none" stroke="black" points="103.225,-713.695 103.225,-736.305 166.775,-736.305 166.775,-713.695 103.225,-713.695"/>
<text text-anchor="middle" x="135" y="-721.305" font-family="Futura" font-size="11.00">Processor</text>
</a>
</g>
<!-- Node2 -->
<g id="node8" class="node"><title>Node2</title>
<a xlink:href="group___doremir_audio_engine.html" target="_top" xlink:title="This modules exports the entire audio engine.">
<polygon fill="none" stroke="black" points="95.1145,-671.695 95.1145,-694.305 174.885,-694.305 174.885,-671.695 95.1145,-671.695"/>
<text text-anchor="middle" x="135" y="-679.305" font-family="Futura" font-size="11.00">AudioEngine</text>
</a>
</g>
<!-- Node23 -->
<g id="node9" class="node"><title>Node23</title>
<a xlink:href="group___doremir_time.html" target="_top" xlink:title="Aribitrary precision time interval.">
<polygon fill="none" stroke="black" points="115.484,-629.695 115.484,-652.305 154.516,-652.305 154.516,-629.695 115.484,-629.695"/>
<text text-anchor="middle" x="135" y="-637.305" font-family="Futura" font-size="11.00">Time</text>
</a>
</g>
<!-- Node13 -->
<g id="node10" class="node"><title>Node13</title>
<a xlink:href="group___doremir_plot.html" target="_top" xlink:title="Provides basic plotting.">
<polygon fill="none" stroke="black" points="117.818,-587.695 117.818,-610.305 152.182,-610.305 152.182,-587.695 117.818,-587.695"/>
<text text-anchor="middle" x="135" y="-595.305" font-family="Futura" font-size="11.00">Plot</text>
</a>
</g>
<!-- Node24 -->
<g id="node11" class="node"><title>Node24</title>
<a xlink:href="group___doremir_type.html" target="_top" xlink:title="Provides signal types.">
<polygon fill="none" stroke="black" points="115.264,-545.695 115.264,-568.305 154.736,-568.305 154.736,-545.695 115.264,-545.695"/>
<text text-anchor="middle" x="135" y="-553.305" font-family="Futura" font-size="11.00">Type</text>
</a>
</g>
<!-- Node9 -->
<g id="node12" class="node"><title>Node9</title>
<a xlink:href="group___doremir_map.html" target="_top" xlink:title="Immutable ordered map data structure.">
<polygon fill="none" stroke="black" points="115.116,-503.695 115.116,-526.305 154.884,-526.305 154.884,-503.695 115.116,-503.695"/>
<text text-anchor="middle" x="135" y="-511.305" font-family="Futura" font-size="11.00">Map</text>
</a>
</g>
<!-- Node21 -->
<g id="node13" class="node"><title>Node21</title>
<a xlink:href="group___doremir_string.html" target="_top" xlink:title="Immutable string type.">
<polygon fill="none" stroke="black" points="112.377,-461.695 112.377,-484.305 157.623,-484.305 157.623,-461.695 112.377,-461.695"/>
<text text-anchor="middle" x="135" y="-469.305" font-family="Futura" font-size="11.00">String</text>
</a>
</g>
<!-- Node11 -->
<g id="node14" class="node"><title>Node11</title>
<a xlink:href="group___doremir_midi.html" target="_top" xlink:title="Midi messages.">
<polygon fill="none" stroke="black" points="115.675,-419.695 115.675,-442.305 154.325,-442.305 154.325,-419.695 115.675,-419.695"/>
<text text-anchor="middle" x="135" y="-427.305" font-family="Futura" font-size="11.00">Midi</text>
</a>
</g>
<!-- Node17 -->
<g id="node15" class="node"><title>Node17</title>
<a xlink:href="group___doremir_scheduler.html" target="_top" xlink:title="Provides task scheduling.">
<polygon fill="none" stroke="black" points="102.207,-377.695 102.207,-400.305 167.793,-400.305 167.793,-377.695 102.207,-377.695"/>
<text text-anchor="middle" x="135" y="-385.305" font-family="Futura" font-size="11.00">Scheduler</text>
</a>
</g>
<!-- Node3 -->
<g id="node16" class="node"><title>Node3</title>
<a xlink:href="group___doremir_buffer.html" target="_top" xlink:title="Low&#45;level buffer data structure.">
<polygon fill="none" stroke="black" points="112.119,-335.695 112.119,-358.305 157.881,-358.305 157.881,-335.695 112.119,-335.695"/>
<text text-anchor="middle" x="135" y="-343.305" font-family="Futura" font-size="11.00">Buffer</text>
</a>
</g>
<!-- Node12 -->
<g id="node17" class="node"><title>Node12</title>
<a xlink:href="group___doremir_pair.html" target="_top" xlink:title="Pair data structure.">
<polygon fill="none" stroke="black" points="117.453,-293.695 117.453,-316.305 152.547,-316.305 152.547,-293.695 117.453,-293.695"/>
<text text-anchor="middle" x="135" y="-301.305" font-family="Futura" font-size="11.00">Pair</text>
</a>
</g>
<!-- Node7 -->
<g id="node18" class="node"><title>Node7</title>
<a xlink:href="group___doremir_graph.html" target="_top" xlink:title="Immutable directed graph data structure.">
<polygon fill="none" stroke="black" points="110.736,-251.695 110.736,-274.305 159.264,-274.305 159.264,-251.695 110.736,-251.695"/>
<text text-anchor="middle" x="135" y="-259.305" font-family="Futura" font-size="11.00">Graph</text>
</a>
</g>
<!-- Node4 -->
<g id="node19" class="node"><title>Node4</title>
<a xlink:href="group___doremir_device.html" target="_top" xlink:title="Provides input and output devices.">
<polygon fill="none" stroke="black" points="110.261,-209.695 110.261,-232.305 159.739,-232.305 159.739,-209.695 110.261,-209.695"/>
<text text-anchor="middle" x="135" y="-217.305" font-family="Futura" font-size="11.00">Device</text>
</a>
</g>
<!-- Node1 -->
<g id="node20" class="node"><title>Node1</title>
<a xlink:href="group___doremir_atomic.html" target="_top" xlink:title="Cross&#45;platform atomic variables.">
<polygon fill="none" stroke="black" points="109.676,-167.695 109.676,-190.305 160.324,-190.305 160.324,-167.695 109.676,-167.695"/>
<text text-anchor="middle" x="135" y="-175.305" font-family="Futura" font-size="11.00">Atomic</text>
</a>
</g>
<!-- Node8 -->
<g id="node21" class="node"><title>Node8</title>
<a xlink:href="group___doremir_list.html" target="_top" xlink:title="Immutable list data structure.">
<polygon fill="none" stroke="black" points="119.456,-125.695 119.456,-148.305 150.544,-148.305 150.544,-125.695 119.456,-125.695"/>
<text text-anchor="middle" x="135" y="-133.305" font-family="Futura" font-size="11.00">List</text>
</a>
</g>
<!-- Node6 -->
<g id="node22" class="node"><title>Node6</title>
<a xlink:href="group___doremir_event.html" target="_top" xlink:title="Event">
<polygon fill="none" stroke="black" points="113.658,-83.6953 113.658,-106.305 156.342,-106.305 156.342,-83.6953 113.658,-83.6953"/>
<text text-anchor="middle" x="135" y="-91.3047" font-family="Futura" font-size="11.00">Event</text>
</a>
</g>
<!-- Node16 -->
<g id="node23" class="node"><title>Node16</title>
<a xlink:href="group___doremir_ratio.html" target="_top" xlink:title="Fixed&#45;precision rational numbers.">
<polygon fill="none" stroke="black" points="114.305,-41.6953 114.305,-64.3047 155.695,-64.3047 155.695,-41.6953 114.305,-41.6953"/>
<text text-anchor="middle" x="135" y="-49.3047" font-family="Futura" font-size="11.00">Ratio</text>
</a>
</g>
<!-- Node0 -->
<g id="node24" class="node"><title>Node0</title>
<polygon fill="#bfbfbf" stroke="black" points="-0.138916,-482.695 -0.138916,-505.305 56.1389,-505.305 56.1389,-482.695 -0.138916,-482.695"/>
<text text-anchor="middle" x="28" y="-490.305" font-family="Futura" font-size="11.00">Doremir</text>
</g>
<!-- Node0&#45;&gt;Node10 -->
<g id="edge20" class="edge"><title>Node0&#45;&gt;Node10</title>
<path fill="none" stroke="midnightblue" d="M29.3781,-515.358C31.1874,-596.204 41.1356,-882.541 92,-955 95.216,-959.581 99.6868,-963.281 104.519,-966.244"/>
<polygon fill="midnightblue" stroke="midnightblue" points="32.8775,-515.284 29.1734,-505.358 25.8789,-515.428 32.8775,-515.284"/>
</g>
<!-- Node0&#45;&gt;Node5 -->
<g id="edge10" class="edge"><title>Node0&#45;&gt;Node5</title>
<path fill="none" stroke="midnightblue" d="M29.723,-515.824C32.644,-592.443 45.7344,-848.024 92,-913 97.3474,-920.51 106.055,-925.66 114.159,-929.077"/>
<polygon fill="midnightblue" stroke="midnightblue" points="33.2086,-515.357 29.3505,-505.489 26.2131,-515.609 33.2086,-515.357"/>
</g>
<!-- Node0&#45;&gt;Node18 -->
<g id="edge36" class="edge"><title>Node0&#45;&gt;Node18</title>
<path fill="none" stroke="midnightblue" d="M30.11,-515.469C34.1589,-586.587 50.1503,-813.23 92,-871 98.471,-879.933 109.675,-885.542 118.884,-888.859"/>
<polygon fill="midnightblue" stroke="midnightblue" points="33.6024,-515.234 29.5606,-505.44 26.6129,-515.617 33.6024,-515.234"/>
</g>
<!-- Node0&#45;&gt;Node14 -->
<g id="edge28" class="edge"><title>Node0&#45;&gt;Node14</title>
<path fill="none" stroke="midnightblue" d="M30.6198,-515.61C35.9287,-581.513 54.6455,-778.523 92,-829 95.1338,-833.235 99.3257,-836.727 103.851,-839.584"/>
<polygon fill="midnightblue" stroke="midnightblue" points="34.1015,-515.239 29.832,-505.543 27.1228,-515.785 34.1015,-515.239"/>
</g>
<!-- Node0&#45;&gt;Node22 -->
<g id="edge44" class="edge"><title>Node0&#45;&gt;Node22</title>
<path fill="none" stroke="midnightblue" d="M31.2606,-515.601C37.9206,-575.771 59.0887,-743.711 92,-787 96.4836,-792.897 103.006,-797.367 109.579,-800.685"/>
<polygon fill="midnightblue" stroke="midnightblue" points="34.7094,-514.937 30.1544,-505.372 27.75,-515.69 34.7094,-514.937"/>
</g>
<!-- Node0&#45;&gt;Node20 -->
<g id="edge40" class="edge"><title>Node0&#45;&gt;Node20</title>
<path fill="none" stroke="midnightblue" d="M28.755,-515.609C29.3263,-562.478 36.7879,-674.893 92,-745 98.7226,-753.536 109.679,-759.119 118.716,-762.524"/>
<polygon fill="midnightblue" stroke="midnightblue" points="32.2547,-515.405 28.7314,-505.413 25.2547,-515.421 32.2547,-515.405"/>
</g>
<!-- Node0&#45;&gt;Node15 -->
<g id="edge30" class="edge"><title>Node0&#45;&gt;Node15</title>
<path fill="none" stroke="midnightblue" d="M30.1106,-515.583C33.2794,-556.581 45.4447,-646.653 92,-703 95.4604,-707.188 99.9281,-710.679 104.654,-713.554"/>
<polygon fill="midnightblue" stroke="midnightblue" points="33.5887,-515.135 29.4343,-505.389 26.6041,-515.599 33.5887,-515.135"/>
</g>
<!-- Node0&#45;&gt;Node2 -->
<g id="edge4" class="edge"><title>Node0&#45;&gt;Node2</title>
<path fill="none" stroke="midnightblue" d="M32.0841,-515.516C38.0277,-549.99 54.0095,-618.077 92,-661 95.7098,-665.191 100.412,-668.708 105.318,-671.614"/>
<polygon fill="midnightblue" stroke="midnightblue" points="35.53,-514.9 30.492,-505.579 28.6182,-516.007 35.53,-514.9"/>
</g>
<!-- Node0&#45;&gt;Node23 -->
<g id="edge46" class="edge"><title>Node0&#45;&gt;Node23</title>
<path fill="none" stroke="midnightblue" d="M35.1327,-515.024C43.9097,-541.995 62.3497,-588.881 92,-619 98.4677,-625.57 107.315,-630.602 115.222,-634.184"/>
<polygon fill="midnightblue" stroke="midnightblue" points="38.4579,-513.93 32.1446,-505.422 31.774,-516.01 38.4579,-513.93"/>
</g>
<!-- Node0&#45;&gt;Node13 -->
<g id="edge26" class="edge"><title>Node0&#45;&gt;Node13</title>
<path fill="none" stroke="midnightblue" d="M40.6868,-514.114C52.0147,-532.29 70.5923,-558.894 92,-577 99.542,-583.379 109.242,-588.611 117.419,-592.371"/>
<polygon fill="midnightblue" stroke="midnightblue" points="43.6228,-512.205 35.4473,-505.467 37.6361,-515.833 43.6228,-512.205"/>
</g>
<!-- Node0&#45;&gt;Node24 -->
<g id="edge48" class="edge"><title>Node0&#45;&gt;Node24</title>
<path fill="none" stroke="midnightblue" d="M54.1497,-511.145C65.5487,-518.713 79.2933,-527.56 92,-535 99.3874,-539.326 107.704,-543.768 114.976,-547.517"/>
<polygon fill="midnightblue" stroke="midnightblue" points="55.8315,-508.059 45.5754,-505.401 51.9356,-513.875 55.8315,-508.059"/>
</g>
<!-- Node0&#45;&gt;Node9 -->
<g id="edge18" class="edge"><title>Node0&#45;&gt;Node9</title>
<path fill="none" stroke="midnightblue" d="M66.2553,-501.451C82.7869,-504.757 101.527,-508.505 115.099,-511.22"/>
<polygon fill="midnightblue" stroke="midnightblue" points="66.8057,-497.992 56.3134,-499.463 65.4328,-504.856 66.8057,-497.992"/>
</g>
<!-- Node0&#45;&gt;Node21 -->
<g id="edge42" class="edge"><title>Node0&#45;&gt;Node21</title>
<path fill="none" stroke="midnightblue" d="M66.5264,-486.495C81.8077,-483.438 98.9361,-480.013 112.111,-477.378"/>
<polygon fill="midnightblue" stroke="midnightblue" points="65.4328,-483.144 56.3134,-488.537 66.8057,-490.008 65.4328,-483.144"/>
</g>
<!-- Node0&#45;&gt;Node11 -->
<g id="edge22" class="edge"><title>Node0&#45;&gt;Node11</title>
<path fill="none" stroke="midnightblue" d="M53.2193,-476.83C64.7504,-468.922 78.863,-459.624 92,-452 99.4741,-447.663 107.96,-443.317 115.337,-439.713"/>
<polygon fill="midnightblue" stroke="midnightblue" points="51.1862,-473.98 44.9634,-482.555 55.1753,-479.732 51.1862,-473.98"/>
</g>
<!-- Node0&#45;&gt;Node17 -->
<g id="edge34" class="edge"><title>Node0&#45;&gt;Node17</title>
<path fill="none" stroke="midnightblue" d="M40.37,-473.844C51.5879,-455.371 70.19,-428.202 92,-410 96.3813,-406.343 101.507,-403.117 106.642,-400.358"/>
<polygon fill="midnightblue" stroke="midnightblue" points="37.2609,-472.226 35.199,-482.619 43.2916,-475.78 37.2609,-472.226"/>
</g>
<!-- Node0&#45;&gt;Node3 -->
<g id="edge6" class="edge"><title>Node0&#45;&gt;Node3</title>
<path fill="none" stroke="midnightblue" d="M35.0013,-472.721C43.6366,-445.439 61.9238,-398.076 92,-368 97.534,-362.466 104.824,-358.129 111.774,-354.87"/>
<polygon fill="midnightblue" stroke="midnightblue" points="31.6078,-471.851 32.0677,-482.436 38.309,-473.874 31.6078,-471.851"/>
</g>
<!-- Node0&#45;&gt;Node12 -->
<g id="edge24" class="edge"><title>Node0&#45;&gt;Node12</title>
<path fill="none" stroke="midnightblue" d="M31.9543,-472.273C37.7156,-437.477 53.4471,-368.824 92,-326 98.7636,-318.487 108.829,-313.325 117.411,-310"/>
<polygon fill="midnightblue" stroke="midnightblue" points="28.4722,-471.89 30.4178,-482.304 35.3915,-472.95 28.4722,-471.89"/>
</g>
<!-- Node0&#45;&gt;Node7 -->
<g id="edge14" class="edge"><title>Node0&#45;&gt;Node7</title>
<path fill="none" stroke="midnightblue" d="M29.9643,-472.499C32.8843,-431.293 44.6447,-340.302 92,-284 96.8277,-278.26 103.61,-273.934 110.318,-270.746"/>
<polygon fill="midnightblue" stroke="midnightblue" points="26.4688,-472.321 29.3634,-482.512 33.4562,-472.74 26.4688,-472.321"/>
</g>
<!-- Node0&#45;&gt;Node4 -->
<g id="edge8" class="edge"><title>Node0&#45;&gt;Node4</title>
<path fill="none" stroke="midnightblue" d="M28.6291,-472.227C28.9517,-425.018 35.9524,-311.87 92,-242 96.693,-236.15 103.437,-231.792 110.152,-228.61"/>
<polygon fill="midnightblue" stroke="midnightblue" points="25.1299,-472.51 28.6618,-482.499 32.1299,-472.488 25.1299,-472.51"/>
</g>
<!-- Node0&#45;&gt;Node1 -->
<g id="edge2" class="edge"><title>Node0&#45;&gt;Node1</title>
<path fill="none" stroke="midnightblue" d="M31.21,-472.295C37.7369,-411.837 58.5882,-243.129 92,-200 96.4934,-194.2 103.018,-189.882 109.591,-186.722"/>
<polygon fill="midnightblue" stroke="midnightblue" points="27.6943,-472.261 30.127,-482.573 34.6558,-472.994 27.6943,-472.261"/>
</g>
<!-- Node0&#45;&gt;Node8 -->
<g id="edge16" class="edge"><title>Node0&#45;&gt;Node8</title>
<path fill="none" stroke="midnightblue" d="M30.5698,-472.294C35.7338,-406.106 54.0756,-208.278 92,-158 98.6766,-149.149 110.113,-143.775 119.367,-140.682"/>
<polygon fill="midnightblue" stroke="midnightblue" points="27.0692,-472.17 29.8046,-482.406 34.0493,-472.699 27.0692,-472.17"/>
</g>
<!-- Node0&#45;&gt;Node6 -->
<g id="edge12" class="edge"><title>Node0&#45;&gt;Node6</title>
<path fill="none" stroke="midnightblue" d="M30.0607,-472.444C33.9539,-401.041 49.5102,-173.529 92,-116 97.2308,-108.918 105.523,-104.074 113.363,-100.84"/>
<polygon fill="midnightblue" stroke="midnightblue" points="26.5613,-472.344 29.5337,-482.513 33.5517,-472.71 26.5613,-472.344"/>
</g>
<!-- Node0&#45;&gt;Node16 -->
<g id="edge32" class="edge"><title>Node0&#45;&gt;Node16</title>
<path fill="none" stroke="midnightblue" d="M29.6733,-472.093C32.4273,-395.189 45.0255,-138.696 92,-74 97.3646,-66.6116 106.074,-61.6685 114.175,-58.4453"/>
<polygon fill="midnightblue" stroke="midnightblue" points="26.1626,-472.355 29.3237,-482.467 33.1587,-472.59 26.1626,-472.355"/>
</g>
<!-- Node19 -->
<g id="node25" class="node"><title>Node19</title>
<a xlink:href="group___doremir_signal.html" target="_top" xlink:title="Provides signals.">
<polygon fill="none" stroke="black" points="111.448,0.304688 111.448,-22.3047 158.552,-22.3047 158.552,0.304688 111.448,0.304688"/>
<text text-anchor="middle" x="135" y="-7.30469" font-family="Futura" font-size="11.00">Signal</text>
</a>
</g>
<!-- Node0&#45;&gt;Node19 -->
<g id="edge38" class="edge"><title>Node0&#45;&gt;Node19</title>
<path fill="none" stroke="midnightblue" d="M29.3297,-472.566C30.9629,-391.437 40.3551,-104.137 92,-32 96.6508,-25.5039 103.896,-20.9039 111.067,-17.7003"/>
<polygon fill="midnightblue" stroke="midnightblue" points="25.8297,-472.539 29.1472,-482.601 32.8286,-472.667 25.8297,-472.539"/>
</g>
</g>
</svg>
