<?xml version="1.0" encoding="UTF-8" standalone="no"?>
<!DOCTYPE svg PUBLIC "-//W3C//DTD SVG 1.1//EN"
 "http://www.w3.org/Graphics/SVG/1.1/DTD/svg11.dtd">
<!-- Generated by graphviz version 2.28.0 (20121015.0031)
 -->
<!-- Title: include/doremir/processor/id.h Pages: 1 -->
<svg width="313pt" height="92pt"
 viewBox="0.00 0.00 313.00 92.00" xmlns="http://www.w3.org/2000/svg" xmlns:xlink="http://www.w3.org/1999/xlink">
<g id="graph1" class="graph" transform="scale(1 1) rotate(0) translate(4 88)">
<title>include/doremir/processor/id.h</title>
<!-- Node1 -->
<g id="node1" class="node"><title>Node1</title>
<polygon fill="#bfbfbf" stroke="black" points="68.8113,-60.6953 68.8113,-83.3047 243.189,-83.3047 243.189,-60.6953 68.8113,-60.6953"/>
<text text-anchor="middle" x="156" y="-68.3047" font-family="Futura" font-size="11.00">include/doremir/processor/id.h</text>
</g>
<!-- Node2 -->
<g id="node3" class="node"><title>Node2</title>
<a xlink:href="id_8c.html" target="_top" xlink:title="src/doremir/processor/id.c">
<polygon fill="none" stroke="black" points="-0.94165,-0.695312 -0.94165,-23.3047 150.942,-23.3047 150.942,-0.695312 -0.94165,-0.695312"/>
<text text-anchor="middle" x="75" y="-8.30469" font-family="Futura" font-size="11.00">src/doremir/processor/id.c</text>
</a>
</g>
<!-- Node1&#45;&gt;Node2 -->
<g id="edge2" class="edge"><title>Node1&#45;&gt;Node2</title>
<path fill="none" stroke="midnightblue" d="M133.345,-54.7779C119.352,-44.7583 101.807,-32.1949 89.6289,-23.475"/>
<polygon fill="midnightblue" stroke="midnightblue" points="131.351,-57.6545 141.519,-60.6308 135.426,-51.9631 131.351,-57.6545"/>
</g>
<!-- Node3 -->
<g id="node5" class="node"><title>Node3</title>
<a xlink:href="processor_8c.html" target="_top" xlink:title="src/doremir/processor.c">
<polygon fill="none" stroke="black" points="168.868,-0.695312 168.868,-23.3047 305.132,-23.3047 305.132,-0.695312 168.868,-0.695312"/>
<text text-anchor="middle" x="237" y="-8.30469" font-family="Futura" font-size="11.00">src/doremir/processor.c</text>
</a>
</g>
<!-- Node1&#45;&gt;Node3 -->
<g id="edge4" class="edge"><title>Node1&#45;&gt;Node3</title>
<path fill="none" stroke="midnightblue" d="M178.655,-54.7779C192.648,-44.7583 210.193,-32.1949 222.371,-23.475"/>
<polygon fill="midnightblue" stroke="midnightblue" points="176.574,-51.9631 170.481,-60.6308 180.649,-57.6545 176.574,-51.9631"/>
</g>
</g>
</svg>
