<?xml version="1.0" encoding="UTF-8" standalone="no"?>
<!DOCTYPE svg PUBLIC "-//W3C//DTD SVG 1.1//EN"
 "http://www.w3.org/Graphics/SVG/1.1/DTD/svg11.dtd">
<!-- Generated by graphviz version 2.28.0 (20121015.0031)
 -->
<!-- Title: src/doremir/processor/id.c Pages: 1 -->
<svg width="875pt" height="152pt"
 viewBox="0.00 0.00 875.00 152.00" xmlns="http://www.w3.org/2000/svg" xmlns:xlink="http://www.w3.org/1999/xlink">
<g id="graph1" class="graph" transform="scale(1 1) rotate(0) translate(4 148)">
<title>src/doremir/processor/id.c</title>
<!-- Node1 -->
<g id="node1" class="node"><title>Node1</title>
<polygon fill="#bfbfbf" stroke="black" points="123.058,-120.695 123.058,-143.305 274.942,-143.305 274.942,-120.695 123.058,-120.695"/>
<text text-anchor="middle" x="199" y="-128.305" font-family="Futura" font-size="11.00">src/doremir/processor/id.c</text>
</g>
<!-- Node2 -->
<g id="node3" class="node"><title>Node2</title>
<polygon fill="none" stroke="#bfbfbf" points="-0.625488,-60.6953 -0.625488,-83.3047 132.625,-83.3047 132.625,-60.6953 -0.625488,-60.6953"/>
<text text-anchor="middle" x="66" y="-68.3047" font-family="Futura" font-size="11.00">doremir/processor/id.h</text>
</g>
<!-- Node1&#45;&gt;Node2 -->
<g id="edge2" class="edge"><title>Node1&#45;&gt;Node2</title>
<path fill="none" stroke="midnightblue" d="M175.222,-120.631C154.077,-111.409 122.936,-97.8294 99.3115,-87.5268"/>
<polygon fill="midnightblue" stroke="midnightblue" points="100.586,-84.2642 90.0203,-83.475 97.7875,-90.6806 100.586,-84.2642"/>
</g>
<!-- Node3 -->
<g id="node5" class="node"><title>Node3</title>
<a xlink:href="string_8h.html" target="_top" xlink:title="doremir/string.h">
<polygon fill="none" stroke="black" points="150.44,-60.6953 150.44,-83.3047 247.56,-83.3047 247.56,-60.6953 150.44,-60.6953"/>
<text text-anchor="middle" x="199" y="-68.3047" font-family="Futura" font-size="11.00">doremir/string.h</text>
</a>
</g>
<!-- Node1&#45;&gt;Node3 -->
<g id="edge4" class="edge"><title>Node1&#45;&gt;Node3</title>
<path fill="none" stroke="midnightblue" d="M199,-120.631C199,-113.218 199,-102.989 199,-93.9096"/>
<polygon fill="midnightblue" stroke="midnightblue" points="202.5,-93.6718 199,-83.6719 195.5,-93.6719 202.5,-93.6718"/>
</g>
<!-- Node5 -->
<g id="node9" class="node"><title>Node5</title>
<a xlink:href="util_8h.html" target="_top" xlink:title="doremir/util.h">
<polygon fill="none" stroke="black" points="411.754,-60.6953 411.754,-83.3047 496.246,-83.3047 496.246,-60.6953 411.754,-60.6953"/>
<text text-anchor="middle" x="454" y="-68.3047" font-family="Futura" font-size="11.00">doremir/util.h</text>
</a>
</g>
<!-- Node1&#45;&gt;Node5 -->
<g id="edge8" class="edge"><title>Node1&#45;&gt;Node5</title>
<path fill="none" stroke="midnightblue" d="M244.589,-120.631C288.632,-110.613 355.288,-95.4521 401.52,-84.9366"/>
<polygon fill="midnightblue" stroke="midnightblue" points="402.375,-88.3315 411.35,-82.7007 400.823,-81.5059 402.375,-88.3315"/>
</g>
<!-- Node4 -->
<g id="node7" class="node"><title>Node4</title>
<a xlink:href="doremir_8h.html" target="_top" xlink:title="doremir.h">
<polygon fill="none" stroke="red" points="93.1362,-0.695312 93.1362,-23.3047 156.864,-23.3047 156.864,-0.695312 93.1362,-0.695312"/>
<text text-anchor="middle" x="125" y="-8.30469" font-family="Futura" font-size="11.00">doremir.h</text>
</a>
</g>
<!-- Node3&#45;&gt;Node4 -->
<g id="edge6" class="edge"><title>Node3&#45;&gt;Node4</title>
<path fill="none" stroke="midnightblue" d="M185.77,-60.6308C174.961,-52.159 159.459,-40.0087 146.818,-30.1004"/>
<polygon fill="midnightblue" stroke="midnightblue" points="148.646,-27.086 138.616,-23.6719 144.327,-32.5954 148.646,-27.086"/>
</g>
<!-- Node6 -->
<g id="node11" class="node"><title>Node6</title>
<a xlink:href="alignof_8h.html" target="_top" xlink:title="doremir/util/alignof.h">
<polygon fill="none" stroke="black" points="174.62,-0.695312 174.62,-23.3047 299.38,-23.3047 299.38,-0.695312 174.62,-0.695312"/>
<text text-anchor="middle" x="237" y="-8.30469" font-family="Futura" font-size="11.00">doremir/util/alignof.h</text>
</a>
</g>
<!-- Node5&#45;&gt;Node6 -->
<g id="edge10" class="edge"><title>Node5&#45;&gt;Node6</title>
<path fill="none" stroke="midnightblue" d="M415.205,-60.6308C379.059,-50.9696 325.013,-36.5243 285.923,-26.0761"/>
<polygon fill="midnightblue" stroke="midnightblue" points="286.389,-22.578 275.825,-23.3771 284.582,-29.3406 286.389,-22.578"/>
</g>
<!-- Node7 -->
<g id="node13" class="node"><title>Node7</title>
<a xlink:href="minmax_8h.html" target="_top" xlink:title="doremir/util/minmax.h">
<polygon fill="none" stroke="red" points="317.45,-0.695312 317.45,-23.3047 446.55,-23.3047 446.55,-0.695312 317.45,-0.695312"/>
<text text-anchor="middle" x="382" y="-8.30469" font-family="Futura" font-size="11.00">doremir/util/minmax.h</text>
</a>
</g>
<!-- Node5&#45;&gt;Node7 -->
<g id="edge12" class="edge"><title>Node5&#45;&gt;Node7</title>
<path fill="none" stroke="midnightblue" d="M441.128,-60.6308C430.611,-52.159 415.528,-40.0087 403.228,-30.1004"/>
<polygon fill="midnightblue" stroke="midnightblue" points="405.231,-27.2196 395.248,-23.6719 400.84,-32.6708 405.231,-27.2196"/>
</g>
<!-- Node8 -->
<g id="node15" class="node"><title>Node8</title>
<a xlink:href="literals_8h.html" target="_top" xlink:title="doremir/util/literals.h">
<polygon fill="none" stroke="red" points="464.652,-0.695312 464.652,-23.3047 587.348,-23.3047 587.348,-0.695312 464.652,-0.695312"/>
<text text-anchor="middle" x="526" y="-8.30469" font-family="Futura" font-size="11.00">doremir/util/literals.h</text>
</a>
</g>
<!-- Node5&#45;&gt;Node8 -->
<g id="edge14" class="edge"><title>Node5&#45;&gt;Node8</title>
<path fill="none" stroke="midnightblue" d="M466.872,-60.6308C477.389,-52.159 492.472,-40.0087 504.772,-30.1004"/>
<polygon fill="midnightblue" stroke="midnightblue" points="507.16,-32.6708 512.752,-23.6719 502.769,-27.2196 507.16,-32.6708"/>
</g>
<!-- Node9 -->
<g id="node17" class="node"><title>Node9</title>
<a xlink:href="macros_8h.html" target="_top" xlink:title="doremir/util/macros.h">
<polygon fill="none" stroke="black" points="605.089,-0.695312 605.089,-23.3047 730.911,-23.3047 730.911,-0.695312 605.089,-0.695312"/>
<text text-anchor="middle" x="668" y="-8.30469" font-family="Futura" font-size="11.00">doremir/util/macros.h</text>
</a>
</g>
<!-- Node5&#45;&gt;Node9 -->
<g id="edge16" class="edge"><title>Node5&#45;&gt;Node9</title>
<path fill="none" stroke="midnightblue" d="M492.259,-60.6308C527.905,-50.9696 581.203,-36.5243 619.754,-26.0761"/>
<polygon fill="midnightblue" stroke="midnightblue" points="620.976,-29.3712 629.712,-23.3771 619.145,-22.6149 620.976,-29.3712"/>
</g>
<!-- Node10 -->
<g id="node19" class="node"><title>Node10</title>
<a xlink:href="apply_8h.html" target="_top" xlink:title="doremir/util/apply.h">
<polygon fill="none" stroke="black" points="748.929,-0.695312 748.929,-23.3047 867.071,-23.3047 867.071,-0.695312 748.929,-0.695312"/>
<text text-anchor="middle" x="808" y="-8.30469" font-family="Futura" font-size="11.00">doremir/util/apply.h</text>
</a>
</g>
<!-- Node5&#45;&gt;Node10 -->
<g id="edge18" class="edge"><title>Node5&#45;&gt;Node10</title>
<path fill="none" stroke="midnightblue" d="M496.349,-64.0615C556.382,-54.2256 666.917,-36.1153 738.919,-24.3184"/>
<polygon fill="midnightblue" stroke="midnightblue" points="739.511,-27.7681 748.813,-22.6972 738.379,-20.8602 739.511,-27.7681"/>
</g>
</g>
</svg>
