<?xml version="1.0" encoding="UTF-8" standalone="no"?>
<!DOCTYPE svg PUBLIC "-//W3C//DTD SVG 1.1//EN"
 "http://www.w3.org/Graphics/SVG/1.1/DTD/svg11.dtd">
<!-- Generated by graphviz version 2.28.0 (20121015.0031)
 -->
<!-- Title: include/fae/thread/improving.h Pages: 1 -->
<svg width="499pt" height="226pt"
 viewBox="0.00 0.00 499.00 226.00" xmlns="http://www.w3.org/2000/svg" xmlns:xlink="http://www.w3.org/1999/xlink">
<g id="graph1" class="graph" transform="scale(1 1) rotate(0) translate(4 222)">
<title>include/fae/thread/improving.h</title>
<!-- Node1 -->
<g id="node1" class="node"><title>Node1</title>
<polygon fill="#bfbfbf" stroke="black" points="199.243,-180.391 199.243,-217.609 310.757,-217.609 310.757,-180.391 199.243,-180.391"/>
<text text-anchor="start" x="207.243" y="-202.609" font-family="Futura" font-size="11.00">include/fae/thread</text>
<text text-anchor="middle" x="255" y="-188" font-family="Futura" font-size="11.00">/improving.h</text>
</g>
<!-- Node2 -->
<g id="node3" class="node"><title>Node2</title>
<a xlink:href="std_8h.html" target="_top" xlink:title="fae/std.h">
<polygon fill="none" stroke="red" points="224.347,-60.6953 224.347,-83.3047 285.653,-83.3047 285.653,-60.6953 224.347,-60.6953"/>
<text text-anchor="middle" x="255" y="-68.3047" font-family="Futura" font-size="11.00">fae/std.h</text>
</a>
</g>
<!-- Node1&#45;&gt;Node2 -->
<g id="edge2" class="edge"><title>Node1&#45;&gt;Node2</title>
<path fill="none" stroke="midnightblue" d="M247.988,-180.095C242.668,-164.326 236.775,-140.711 240,-120 241.408,-110.955 244.255,-101.271 247.094,-93.057"/>
<polygon fill="midnightblue" stroke="midnightblue" points="250.406,-94.1923 250.576,-83.5988 243.837,-91.7736 250.406,-94.1923"/>
</g>
<!-- Node10 -->
<g id="node19" class="node"><title>Node10</title>
<a xlink:href="thread_8h.html" target="_top" xlink:title="fae/thread.h">
<polygon fill="none" stroke="red" points="249.093,-120.695 249.093,-143.305 328.907,-143.305 328.907,-120.695 249.093,-120.695"/>
<text text-anchor="middle" x="289" y="-128.305" font-family="Futura" font-size="11.00">fae/thread.h</text>
</a>
</g>
<!-- Node1&#45;&gt;Node10 -->
<g id="edge18" class="edge"><title>Node1&#45;&gt;Node10</title>
<path fill="none" stroke="midnightblue" d="M264.291,-180.238C268.748,-171.718 274.102,-161.482 278.685,-152.72"/>
<polygon fill="midnightblue" stroke="midnightblue" points="281.909,-154.108 283.443,-143.624 275.706,-150.863 281.909,-154.108"/>
</g>
<!-- Node3 -->
<g id="node5" class="node"><title>Node3</title>
<polygon fill="none" stroke="#bfbfbf" points="-0.276855,-0.695312 -0.276855,-23.3047 54.2769,-23.3047 54.2769,-0.695312 -0.276855,-0.695312"/>
<text text-anchor="middle" x="27" y="-8.30469" font-family="Futura" font-size="11.00">assert.h</text>
</g>
<!-- Node2&#45;&gt;Node3 -->
<g id="edge4" class="edge"><title>Node2&#45;&gt;Node3</title>
<path fill="none" stroke="midnightblue" d="M224.269,-64.0415C188.173,-55.7452 126.28,-41.1379 64.3983,-24.2909"/>
<polygon fill="midnightblue" stroke="midnightblue" points="65.0404,-20.8379 54.4708,-21.5685 63.1891,-27.5886 65.0404,-20.8379"/>
</g>
<!-- Node4 -->
<g id="node7" class="node"><title>Node4</title>
<polygon fill="none" stroke="#bfbfbf" points="72.2671,-0.695312 72.2671,-23.3047 139.733,-23.3047 139.733,-0.695312 72.2671,-0.695312"/>
<text text-anchor="middle" x="106" y="-8.30469" font-family="Futura" font-size="11.00">complex.h</text>
</g>
<!-- Node2&#45;&gt;Node4 -->
<g id="edge6" class="edge"><title>Node2&#45;&gt;Node4</title>
<path fill="none" stroke="midnightblue" d="M228.362,-60.6308C204.282,-51.2573 168.633,-37.3807 142.017,-27.0202"/>
<polygon fill="midnightblue" stroke="midnightblue" points="143.247,-23.743 132.658,-23.3771 140.708,-30.2662 143.247,-23.743"/>
</g>
<!-- Node5 -->
<g id="node9" class="node"><title>Node5</title>
<polygon fill="none" stroke="#bfbfbf" points="157.832,-0.695312 157.832,-23.3047 210.168,-23.3047 210.168,-0.695312 157.832,-0.695312"/>
<text text-anchor="middle" x="184" y="-8.30469" font-family="Futura" font-size="11.00">ctype.h</text>
</g>
<!-- Node2&#45;&gt;Node5 -->
<g id="edge8" class="edge"><title>Node2&#45;&gt;Node5</title>
<path fill="none" stroke="midnightblue" d="M242.307,-60.6308C231.936,-52.159 217.062,-40.0087 204.933,-30.1004"/>
<polygon fill="midnightblue" stroke="midnightblue" points="207.023,-27.2878 197.064,-23.6719 202.594,-32.7089 207.023,-27.2878"/>
</g>
<!-- Node6 -->
<g id="node11" class="node"><title>Node6</title>
<polygon fill="none" stroke="#bfbfbf" points="228.642,-0.695312 228.642,-23.3047 281.358,-23.3047 281.358,-0.695312 228.642,-0.695312"/>
<text text-anchor="middle" x="255" y="-8.30469" font-family="Futura" font-size="11.00">errno.h</text>
</g>
<!-- Node2&#45;&gt;Node6 -->
<g id="edge10" class="edge"><title>Node2&#45;&gt;Node6</title>
<path fill="none" stroke="midnightblue" d="M255,-60.6308C255,-53.218 255,-42.9888 255,-33.9096"/>
<polygon fill="midnightblue" stroke="midnightblue" points="258.5,-33.6718 255,-23.6719 251.5,-33.6719 258.5,-33.6718"/>
</g>
<!-- Node7 -->
<g id="node13" class="node"><title>Node7</title>
<polygon fill="none" stroke="#bfbfbf" points="299.135,-0.695312 299.135,-23.3047 344.865,-23.3047 344.865,-0.695312 299.135,-0.695312"/>
<text text-anchor="middle" x="322" y="-8.30469" font-family="Futura" font-size="11.00">fenv.h</text>
</g>
<!-- Node2&#45;&gt;Node7 -->
<g id="edge12" class="edge"><title>Node2&#45;&gt;Node7</title>
<path fill="none" stroke="midnightblue" d="M266.978,-60.6308C276.671,-52.2405 290.531,-40.242 301.915,-30.3869"/>
<polygon fill="midnightblue" stroke="midnightblue" points="304.402,-32.8631 309.672,-23.6719 299.821,-27.5707 304.402,-32.8631"/>
</g>
<!-- Node8 -->
<g id="node15" class="node"><title>Node8</title>
<polygon fill="none" stroke="#bfbfbf" points="363.26,-0.695312 363.26,-23.3047 410.74,-23.3047 410.74,-0.695312 363.26,-0.695312"/>
<text text-anchor="middle" x="387" y="-8.30469" font-family="Futura" font-size="11.00">float.h</text>
</g>
<!-- Node2&#45;&gt;Node8 -->
<g id="edge14" class="edge"><title>Node2&#45;&gt;Node8</title>
<path fill="none" stroke="midnightblue" d="M278.599,-60.6308C299.586,-51.4093 330.492,-37.8294 353.939,-27.5268"/>
<polygon fill="midnightblue" stroke="midnightblue" points="355.413,-30.7021 363.16,-23.475 352.597,-24.2935 355.413,-30.7021"/>
</g>
<!-- Node9 -->
<g id="node17" class="node"><title>Node9</title>
<polygon fill="none" stroke="#bfbfbf" points="428.332,-0.695312 428.332,-23.3047 491.668,-23.3047 491.668,-0.695312 428.332,-0.695312"/>
<text text-anchor="middle" x="460" y="-8.30469" font-family="Futura" font-size="11.00">inttypes.h</text>
</g>
<!-- Node2&#45;&gt;Node9 -->
<g id="edge16" class="edge"><title>Node2&#45;&gt;Node9</title>
<path fill="none" stroke="midnightblue" d="M285.691,-62.3168C320.934,-52.3454 378.94,-35.934 418.267,-24.8073"/>
<polygon fill="midnightblue" stroke="midnightblue" points="419.416,-28.1197 428.086,-22.0294 417.511,-21.3841 419.416,-28.1197"/>
</g>
<!-- Node10&#45;&gt;Node2 -->
<g id="edge20" class="edge"><title>Node10&#45;&gt;Node2</title>
<path fill="none" stroke="midnightblue" d="M282.921,-120.631C278.337,-112.811 271.916,-101.856 266.387,-92.4241"/>
<polygon fill="midnightblue" stroke="midnightblue" points="269.333,-90.5288 261.256,-83.6719 263.294,-94.0689 269.333,-90.5288"/>
</g>
</g>
</svg>
