<?xml version="1.0" encoding="UTF-8" standalone="no"?>
<!DOCTYPE svg PUBLIC "-//W3C//DTD SVG 1.1//EN"
 "http://www.w3.org/Graphics/SVG/1.1/DTD/svg11.dtd">
<!-- Generated by graphviz version 2.28.0 (20121015.0031)
 -->
<!-- Title: include/doremir/thread/improving.h Pages: 1 -->
<svg width="304pt" height="240pt"
 viewBox="0.00 0.00 304.00 240.00" xmlns="http://www.w3.org/2000/svg" xmlns:xlink="http://www.w3.org/1999/xlink">
<g id="graph1" class="graph" transform="scale(1 1) rotate(0) translate(4 236)">
<title>include/doremir/thread/improving.h</title>
<!-- Node1 -->
<g id="node1" class="node"><title>Node1</title>
<polygon fill="#bfbfbf" stroke="black" points="85.8562,-194.391 85.8562,-231.609 220.144,-231.609 220.144,-194.391 85.8562,-194.391"/>
<text text-anchor="start" x="93.8562" y="-216.609" font-family="Futura" font-size="11.00">include/doremir/thread</text>
<text text-anchor="middle" x="153" y="-202" font-family="Futura" font-size="11.00">/improving.h</text>
</g>
<!-- Node2 -->
<g id="node3" class="node"><title>Node2</title>
<a xlink:href="scheduler_8h.html" target="_top" xlink:title="include/doremir/scheduler.h">
<polygon fill="none" stroke="black" points="73.9055,-134.695 73.9055,-157.305 232.094,-157.305 232.094,-134.695 73.9055,-134.695"/>
<text text-anchor="middle" x="153" y="-142.305" font-family="Futura" font-size="11.00">include/doremir/scheduler.h</text>
</a>
</g>
<!-- Node1&#45;&gt;Node2 -->
<g id="edge2" class="edge"><title>Node1&#45;&gt;Node2</title>
<path fill="none" stroke="midnightblue" d="M153,-184.06C153,-174.7 153,-164.825 153,-157.624"/>
<polygon fill="midnightblue" stroke="midnightblue" points="149.5,-184.238 153,-194.238 156.5,-184.238 149.5,-184.238"/>
</g>
<!-- Node3 -->
<g id="node5" class="node"><title>Node3</title>
<a xlink:href="audio__engine_8h.html" target="_top" xlink:title="include/doremir/audio\l_engine.h">
<polygon fill="none" stroke="black" points="12.8757,-60.3906 12.8757,-97.6094 143.124,-97.6094 143.124,-60.3906 12.8757,-60.3906"/>
<text text-anchor="start" x="20.8757" y="-82.6094" font-family="Futura" font-size="11.00">include/doremir/audio</text>
<text text-anchor="middle" x="78" y="-68" font-family="Futura" font-size="11.00">_engine.h</text>
</a>
</g>
<!-- Node2&#45;&gt;Node3 -->
<g id="edge4" class="edge"><title>Node2&#45;&gt;Node3</title>
<path fill="none" stroke="midnightblue" d="M133.328,-127.951C122.609,-118.661 109.357,-107.176 98.5096,-97.775"/>
<polygon fill="midnightblue" stroke="midnightblue" points="131.101,-130.652 140.95,-134.557 135.685,-125.362 131.101,-130.652"/>
</g>
<!-- Node5 -->
<g id="node9" class="node"><title>Node5</title>
<a xlink:href="scheduler_8c.html" target="_top" xlink:title="src/doremir/scheduler.c">
<polygon fill="none" stroke="black" points="161.153,-67.6953 161.153,-90.3047 296.847,-90.3047 296.847,-67.6953 161.153,-67.6953"/>
<text text-anchor="middle" x="229" y="-75.3047" font-family="Futura" font-size="11.00">src/doremir/scheduler.c</text>
</a>
</g>
<!-- Node2&#45;&gt;Node5 -->
<g id="edge8" class="edge"><title>Node2&#45;&gt;Node5</title>
<path fill="none" stroke="midnightblue" d="M173.184,-127.737C186.976,-115.942 204.814,-100.685 216.567,-90.6334"/>
<polygon fill="midnightblue" stroke="midnightblue" points="170.535,-125.397 165.211,-134.557 175.085,-130.717 170.535,-125.397"/>
</g>
<!-- Node4 -->
<g id="node7" class="node"><title>Node4</title>
<a xlink:href="audio__engine_8c.html" target="_top" xlink:title="src/doremir/audio_engine.c">
<polygon fill="none" stroke="black" points="-0.479492,-0.695312 -0.479492,-23.3047 156.479,-23.3047 156.479,-0.695312 -0.479492,-0.695312"/>
<text text-anchor="middle" x="78" y="-8.30469" font-family="Futura" font-size="11.00">src/doremir/audio_engine.c</text>
</a>
</g>
<!-- Node3&#45;&gt;Node4 -->
<g id="edge6" class="edge"><title>Node3&#45;&gt;Node4</title>
<path fill="none" stroke="midnightblue" d="M78,-50.0595C78,-40.6996 78,-30.8249 78,-23.6243"/>
<polygon fill="midnightblue" stroke="midnightblue" points="74.5001,-50.2384 78,-60.2385 81.5001,-50.2385 74.5001,-50.2384"/>
</g>
</g>
</svg>
