<?xml version="1.0" encoding="UTF-8" standalone="no"?>
<!DOCTYPE svg PUBLIC "-//W3C//DTD SVG 1.1//EN"
 "http://www.w3.org/Graphics/SVG/1.1/DTD/svg11.dtd">
<!-- Generated by graphviz version 2.28.0 (20121015.0031)
 -->
<!-- Title: Graphical Class Hierarchy Pages: 1 -->
<svg width="286pt" height="114pt"
 viewBox="0.00 0.00 286.00 114.00" xmlns="http://www.w3.org/2000/svg" xmlns:xlink="http://www.w3.org/1999/xlink">
<g id="graph1" class="graph" transform="scale(1 1) rotate(0) translate(4 110)">
<title>Graphical Class Hierarchy</title>
<!-- Node1 -->
<g id="node1" class="node"><title>Node1</title>
<polygon fill="none" stroke="#bfbfbf" points="9.22827,-83.6953 9.22827,-106.305 134.772,-106.305 134.772,-83.6953 9.22827,-83.6953"/>
<text text-anchor="middle" x="72" y="-91.3047" font-family="Futura" font-size="11.00">&lt;CPTPlotDataSource&gt;</text>
</g>
<!-- Node2 -->
<g id="node3" class="node"><title>Node2</title>
<a xlink:href="interface_a_e_app_delegate.html" target="_top" xlink:title="AEAppDelegate">
<polygon fill="none" stroke="black" points="180.513,-41.6953 180.513,-64.3047 277.487,-64.3047 277.487,-41.6953 180.513,-41.6953"/>
<text text-anchor="middle" x="229" y="-49.3047" font-family="Futura" font-size="11.00">AEAppDelegate</text>
</a>
</g>
<!-- Node1&#45;&gt;Node2 -->
<g id="edge2" class="edge"><title>Node1&#45;&gt;Node2</title>
<path fill="none" stroke="midnightblue" d="M124.786,-80.9676C144.691,-75.5739 167.149,-69.4886 186.021,-64.3749"/>
<polygon fill="midnightblue" stroke="midnightblue" points="123.682,-77.6406 114.945,-83.6342 125.513,-84.3969 123.682,-77.6406"/>
</g>
<!-- Node3 -->
<g id="node4" class="node"><title>Node3</title>
<polygon fill="none" stroke="#bfbfbf" points="0.451904,-41.6953 0.451904,-64.3047 143.548,-64.3047 143.548,-41.6953 0.451904,-41.6953"/>
<text text-anchor="middle" x="72" y="-49.3047" font-family="Futura" font-size="11.00">&lt;CPTPlotSpaceDelegate&gt;</text>
</g>
<!-- Node3&#45;&gt;Node2 -->
<g id="edge4" class="edge"><title>Node3&#45;&gt;Node2</title>
<path fill="none" stroke="midnightblue" d="M153.94,-53C163.013,-53 172.023,-53 180.471,-53"/>
<polygon fill="midnightblue" stroke="midnightblue" points="153.696,-49.5001 143.696,-53 153.696,-56.5001 153.696,-49.5001"/>
</g>
<!-- Node4 -->
<g id="node6" class="node"><title>Node4</title>
<polygon fill="none" stroke="#bfbfbf" points="39.4004,0.304688 39.4004,-22.3047 104.6,-22.3047 104.6,0.304688 39.4004,0.304688"/>
<text text-anchor="middle" x="72" y="-7.30469" font-family="Futura" font-size="11.00">NSObject</text>
</g>
<!-- Node4&#45;&gt;Node2 -->
<g id="edge6" class="edge"><title>Node4&#45;&gt;Node2</title>
<path fill="none" stroke="midnightblue" d="M114.518,-22.25C136.647,-28.2462 163.806,-35.6055 186.006,-41.621"/>
<polygon fill="midnightblue" stroke="midnightblue" points="115.308,-18.8379 104.741,-19.6007 113.477,-25.5943 115.308,-18.8379"/>
</g>
</g>
</svg>
