<?xml version="1.0" encoding="UTF-8" standalone="no"?>
<!DOCTYPE svg PUBLIC "-//W3C//DTD SVG 1.1//EN"
 "http://www.w3.org/Graphics/SVG/1.1/DTD/svg11.dtd">
<!-- Generated by graphviz version 2.28.0 (20121015.0031)
 -->
<!-- Title: include/fae/interfaces.h Pages: 1 -->
<svg width="755pt" height="226pt"
 viewBox="0.00 0.00 755.00 226.00" xmlns="http://www.w3.org/2000/svg" xmlns:xlink="http://www.w3.org/1999/xlink">
<g id="graph1" class="graph" transform="scale(1 1) rotate(0) translate(4 222)">
<title>include/fae/interfaces.h</title>
<!-- Node1 -->
<g id="node1" class="node"><title>Node1</title>
<polygon fill="#bfbfbf" stroke="black" points="374.688,-194.695 374.688,-217.305 511.312,-217.305 511.312,-194.695 374.688,-194.695"/>
<text text-anchor="middle" x="443" y="-202.305" font-family="Futura" font-size="11.00">include/fae/interfaces.h</text>
</g>
<!-- Node2 -->
<g id="node3" class="node"><title>Node2</title>
<a xlink:href="fae_8h.html" target="_top" xlink:title="include/fae.h">
<polygon fill="none" stroke="black" points="401.667,-134.695 401.667,-157.305 484.333,-157.305 484.333,-134.695 401.667,-134.695"/>
<text text-anchor="middle" x="443" y="-142.305" font-family="Futura" font-size="11.00">include/fae.h</text>
</a>
</g>
<!-- Node1&#45;&gt;Node2 -->
<g id="edge2" class="edge"><title>Node1&#45;&gt;Node2</title>
<path fill="none" stroke="midnightblue" d="M443,-184.459C443,-175.411 443,-165.16 443,-157.672"/>
<polygon fill="midnightblue" stroke="midnightblue" points="439.5,-184.631 443,-194.631 446.5,-184.631 439.5,-184.631"/>
</g>
<!-- Node3 -->
<g id="node5" class="node"><title>Node3</title>
<a xlink:href="stack_8h.html" target="_top" xlink:title="include/fae/atomic\l/stack.h">
<polygon fill="none" stroke="black" points="63.0442,-60.3906 63.0442,-97.6094 174.956,-97.6094 174.956,-60.3906 63.0442,-60.3906"/>
<text text-anchor="start" x="71.0442" y="-82.6094" font-family="Futura" font-size="11.00">include/fae/atomic</text>
<text text-anchor="middle" x="119" y="-68" font-family="Futura" font-size="11.00">/stack.h</text>
</a>
</g>
<!-- Node2&#45;&gt;Node3 -->
<g id="edge4" class="edge"><title>Node2&#45;&gt;Node3</title>
<path fill="none" stroke="midnightblue" d="M391.429,-137.055C338.957,-128.641 255.418,-114.333 184,-98 181.146,-97.3474 178.23,-96.6505 175.291,-95.9244"/>
<polygon fill="midnightblue" stroke="midnightblue" points="391.07,-140.542 401.496,-138.658 392.171,-133.629 391.07,-140.542"/>
</g>
<!-- Node6 -->
<g id="node11" class="node"><title>Node6</title>
<a xlink:href="directory_8h.html" target="_top" xlink:title="include/fae/system\l/directory.h">
<polygon fill="none" stroke="red" points="193.133,-60.3906 193.133,-97.6094 304.867,-97.6094 304.867,-60.3906 193.133,-60.3906"/>
<text text-anchor="start" x="201.133" y="-82.6094" font-family="Futura" font-size="11.00">include/fae/system</text>
<text text-anchor="middle" x="249" y="-68" font-family="Futura" font-size="11.00">/directory.h</text>
</a>
</g>
<!-- Node2&#45;&gt;Node6 -->
<g id="edge10" class="edge"><title>Node2&#45;&gt;Node6</title>
<path fill="none" stroke="midnightblue" d="M402.336,-131.375C373.078,-121.572 333.354,-108.263 301.669,-97.6469"/>
<polygon fill="midnightblue" stroke="midnightblue" points="401.237,-134.698 411.831,-134.557 403.461,-128.061 401.237,-134.698"/>
</g>
<!-- Node7 -->
<g id="node13" class="node"><title>Node7</title>
<a xlink:href="event_8h.html" target="_top" xlink:title="include/fae/system\l/event.h">
<polygon fill="none" stroke="red" points="323.133,-60.3906 323.133,-97.6094 434.867,-97.6094 434.867,-60.3906 323.133,-60.3906"/>
<text text-anchor="start" x="331.133" y="-82.6094" font-family="Futura" font-size="11.00">include/fae/system</text>
<text text-anchor="middle" x="379" y="-68" font-family="Futura" font-size="11.00">/event.h</text>
</a>
</g>
<!-- Node2&#45;&gt;Node7 -->
<g id="edge12" class="edge"><title>Node2&#45;&gt;Node7</title>
<path fill="none" stroke="midnightblue" d="M425.673,-127.402C416.624,-118.212 405.576,-106.992 396.502,-97.775"/>
<polygon fill="midnightblue" stroke="midnightblue" points="423.207,-129.887 432.717,-134.557 428.195,-124.975 423.207,-129.887"/>
</g>
<!-- Node8 -->
<g id="node15" class="node"><title>Node8</title>
<a xlink:href="dynamic_8c.html" target="_top" xlink:title="src/fae/dynamic.c">
<polygon fill="none" stroke="black" points="453.123,-67.6953 453.123,-90.3047 560.877,-90.3047 560.877,-67.6953 453.123,-67.6953"/>
<text text-anchor="middle" x="507" y="-75.3047" font-family="Futura" font-size="11.00">src/fae/dynamic.c</text>
</a>
</g>
<!-- Node2&#45;&gt;Node8 -->
<g id="edge14" class="edge"><title>Node2&#45;&gt;Node8</title>
<path fill="none" stroke="midnightblue" d="M460.327,-127.402C471.894,-115.654 486.727,-100.59 496.53,-90.6334"/>
<polygon fill="midnightblue" stroke="midnightblue" points="457.805,-124.975 453.283,-134.557 462.793,-129.887 457.805,-124.975"/>
</g>
<!-- Node9 -->
<g id="node17" class="node"><title>Node9</title>
<a xlink:href="error_8c.html" target="_top" xlink:title="src/fae/error.c">
<polygon fill="none" stroke="black" points="578.802,-67.6953 578.802,-90.3047 669.198,-90.3047 669.198,-67.6953 578.802,-67.6953"/>
<text text-anchor="middle" x="624" y="-75.3047" font-family="Futura" font-size="11.00">src/fae/error.c</text>
</a>
</g>
<!-- Node2&#45;&gt;Node9 -->
<g id="edge16" class="edge"><title>Node2&#45;&gt;Node9</title>
<path fill="none" stroke="midnightblue" d="M481.706,-131.1C515.774,-118.866 564.603,-101.33 595.29,-90.3101"/>
<polygon fill="midnightblue" stroke="midnightblue" points="480.309,-127.883 472.081,-134.557 482.675,-134.471 480.309,-127.883"/>
</g>
<!-- Node10 -->
<g id="node19" class="node"><title>Node10</title>
<a xlink:href="fae_8c.html" target="_top" xlink:title="src/fae.c">
<polygon fill="none" stroke="black" points="686.914,-67.6953 686.914,-90.3047 747.086,-90.3047 747.086,-67.6953 686.914,-67.6953"/>
<text text-anchor="middle" x="717" y="-75.3047" font-family="Futura" font-size="11.00">src/fae.c</text>
</a>
</g>
<!-- Node2&#45;&gt;Node10 -->
<g id="edge18" class="edge"><title>Node2&#45;&gt;Node10</title>
<path fill="none" stroke="midnightblue" d="M494.696,-138.233C542.914,-131.089 616.45,-118.049 678,-98 684.24,-95.9675 690.798,-93.2054 696.718,-90.4554"/>
<polygon fill="midnightblue" stroke="midnightblue" points="493.899,-134.812 484.505,-139.711 494.904,-141.739 493.899,-134.812"/>
</g>
<!-- Node4 -->
<g id="node7" class="node"><title>Node4</title>
<a xlink:href="fae_2fae_8h.html" target="_top" xlink:title="include/fae/fae.h">
<polygon fill="none" stroke="red" points="-0.239014,-0.695312 -0.239014,-23.3047 104.239,-23.3047 104.239,-0.695312 -0.239014,-0.695312"/>
<text text-anchor="middle" x="52" y="-8.30469" font-family="Futura" font-size="11.00">include/fae/fae.h</text>
</a>
</g>
<!-- Node3&#45;&gt;Node4 -->
<g id="edge6" class="edge"><title>Node3&#45;&gt;Node4</title>
<path fill="none" stroke="midnightblue" d="M93.2895,-53.057C82.7727,-42.8541 71.1715,-31.5992 62.9512,-23.6243"/>
<polygon fill="midnightblue" stroke="midnightblue" points="91.0774,-55.7874 100.692,-60.2385 95.9517,-50.7632 91.0774,-55.7874"/>
</g>
<!-- Node5 -->
<g id="node9" class="node"><title>Node5</title>
<a xlink:href="stack_8c.html" target="_top" xlink:title="src/fae/atomic/stack.c">
<polygon fill="none" stroke="black" points="122.061,-0.695312 122.061,-23.3047 251.939,-23.3047 251.939,-0.695312 122.061,-0.695312"/>
<text text-anchor="middle" x="187" y="-8.30469" font-family="Futura" font-size="11.00">src/fae/atomic/stack.c</text>
</a>
</g>
<!-- Node3&#45;&gt;Node5 -->
<g id="edge8" class="edge"><title>Node3&#45;&gt;Node5</title>
<path fill="none" stroke="midnightblue" d="M145.094,-53.057C155.768,-42.8541 167.542,-31.5992 175.885,-23.6243"/>
<polygon fill="midnightblue" stroke="midnightblue" points="142.392,-50.7986 137.581,-60.2385 147.228,-55.8587 142.392,-50.7986"/>
</g>
</g>
</svg>
