<?xml version="1.0" encoding="UTF-8" standalone="no"?>
<!DOCTYPE svg PUBLIC "-//W3C//DTD SVG 1.1//EN"
 "http://www.w3.org/Graphics/SVG/1.1/DTD/svg11.dtd">
<!-- Generated by graphviz version 2.28.0 (20121015.0031)
 -->
<!-- Title: include/doremir/system/interaction.h Pages: 1 -->
<svg width="519pt" height="226pt"
 viewBox="0.00 0.00 519.00 226.00" xmlns="http://www.w3.org/2000/svg" xmlns:xlink="http://www.w3.org/1999/xlink">
<g id="graph1" class="graph" transform="scale(1 1) rotate(0) translate(4 222)">
<title>include/doremir/system/interaction.h</title>
<!-- Node1 -->
<g id="node1" class="node"><title>Node1</title>
<polygon fill="#bfbfbf" stroke="black" points="370.746,-180.391 370.746,-217.609 505.254,-217.609 505.254,-180.391 370.746,-180.391"/>
<text text-anchor="start" x="378.746" y="-202.609" font-family="Futura" font-size="11.00">include/doremir/system</text>
<text text-anchor="middle" x="438" y="-188" font-family="Futura" font-size="11.00">/interaction.h</text>
</g>
<!-- Node2 -->
<g id="node3" class="node"><title>Node2</title>
<a xlink:href="doremir_8h.html" target="_top" xlink:title="doremir.h">
<polygon fill="none" stroke="black" points="344.136,-120.695 344.136,-143.305 407.864,-143.305 407.864,-120.695 344.136,-120.695"/>
<text text-anchor="middle" x="376" y="-128.305" font-family="Futura" font-size="11.00">doremir.h</text>
</a>
</g>
<!-- Node1&#45;&gt;Node2 -->
<g id="edge2" class="edge"><title>Node1&#45;&gt;Node2</title>
<path fill="none" stroke="midnightblue" d="M421.058,-180.238C412.406,-171.168 401.901,-160.154 393.211,-151.044"/>
<polygon fill="midnightblue" stroke="midnightblue" points="395.569,-148.445 386.134,-143.624 390.503,-153.276 395.569,-148.445"/>
</g>
<!-- Node8 -->
<g id="node15" class="node"><title>Node8</title>
<a xlink:href="string_8h.html" target="_top" xlink:title="doremir/string.h">
<polygon fill="none" stroke="black" points="414.44,-0.695312 414.44,-23.3047 511.56,-23.3047 511.56,-0.695312 414.44,-0.695312"/>
<text text-anchor="middle" x="463" y="-8.30469" font-family="Futura" font-size="11.00">doremir/string.h</text>
</a>
</g>
<!-- Node1&#45;&gt;Node8 -->
<g id="edge22" class="edge"><title>Node1&#45;&gt;Node8</title>
<path fill="none" stroke="midnightblue" d="M443.411,-180.051C449.82,-157.772 460.116,-118.495 464,-84 465.193,-73.4003 464.113,-70.6661 464,-60 463.908,-51.3594 463.721,-41.8268 463.534,-33.618"/>
<polygon fill="midnightblue" stroke="midnightblue" points="467.028,-33.3645 463.286,-23.4527 460.031,-33.5349 467.028,-33.3645"/>
</g>
<!-- Node3 -->
<g id="node5" class="node"><title>Node3</title>
<a xlink:href="std_8h.html" target="_top" xlink:title="doremir/std.h">
<polygon fill="none" stroke="red" points="102.961,-60.6953 102.961,-83.3047 187.039,-83.3047 187.039,-60.6953 102.961,-60.6953"/>
<text text-anchor="middle" x="145" y="-68.3047" font-family="Futura" font-size="11.00">doremir/std.h</text>
</a>
</g>
<!-- Node2&#45;&gt;Node3 -->
<g id="edge4" class="edge"><title>Node2&#45;&gt;Node3</title>
<path fill="none" stroke="midnightblue" d="M343.88,-122.935C305.616,-113.328 241.21,-97.1565 196.086,-85.8268"/>
<polygon fill="midnightblue" stroke="midnightblue" points="196.75,-82.3848 186.198,-83.3442 195.045,-89.1741 196.75,-82.3848"/>
</g>
<!-- Node9 -->
<g id="node18" class="node"><title>Node9</title>
<a xlink:href="alloc_8h.html" target="_top" xlink:title="doremir/alloc.h">
<polygon fill="none" stroke="black" points="205.03,-60.6953 205.03,-83.3047 298.97,-83.3047 298.97,-60.6953 205.03,-60.6953"/>
<text text-anchor="middle" x="252" y="-68.3047" font-family="Futura" font-size="11.00">doremir/alloc.h</text>
</a>
</g>
<!-- Node2&#45;&gt;Node9 -->
<g id="edge18" class="edge"><title>Node2&#45;&gt;Node9</title>
<path fill="none" stroke="midnightblue" d="M353.831,-120.631C334.292,-111.491 305.599,-98.0705 283.646,-87.8023"/>
<polygon fill="midnightblue" stroke="midnightblue" points="284.936,-84.5416 274.395,-83.475 281.97,-90.8823 284.936,-84.5416"/>
</g>
<!-- Node10 -->
<g id="node20" class="node"><title>Node10</title>
<a xlink:href="interfaces_8h.html" target="_top" xlink:title="doremir/interfaces.h">
<polygon fill="none" stroke="black" points="316.865,-60.6953 316.865,-83.3047 435.135,-83.3047 435.135,-60.6953 316.865,-60.6953"/>
<text text-anchor="middle" x="376" y="-68.3047" font-family="Futura" font-size="11.00">doremir/interfaces.h</text>
</a>
</g>
<!-- Node2&#45;&gt;Node10 -->
<g id="edge20" class="edge"><title>Node2&#45;&gt;Node10</title>
<path fill="none" stroke="midnightblue" d="M376,-120.631C376,-113.218 376,-102.989 376,-93.9096"/>
<polygon fill="midnightblue" stroke="midnightblue" points="379.5,-93.6718 376,-83.6719 372.5,-93.6719 379.5,-93.6718"/>
</g>
<!-- Node4 -->
<g id="node7" class="node"><title>Node4</title>
<polygon fill="none" stroke="#bfbfbf" points="-0.276855,-0.695312 -0.276855,-23.3047 54.2769,-23.3047 54.2769,-0.695312 -0.276855,-0.695312"/>
<text text-anchor="middle" x="27" y="-8.30469" font-family="Futura" font-size="11.00">assert.h</text>
</g>
<!-- Node3&#45;&gt;Node4 -->
<g id="edge6" class="edge"><title>Node3&#45;&gt;Node4</title>
<path fill="none" stroke="midnightblue" d="M123.904,-60.6308C105.393,-51.5323 78.2503,-38.1908 57.3965,-27.9407"/>
<polygon fill="midnightblue" stroke="midnightblue" points="58.8297,-24.7452 48.3112,-23.475 55.7418,-31.0273 58.8297,-24.7452"/>
</g>
<!-- Node5 -->
<g id="node9" class="node"><title>Node5</title>
<polygon fill="none" stroke="#bfbfbf" points="72.2671,-0.695312 72.2671,-23.3047 139.733,-23.3047 139.733,-0.695312 72.2671,-0.695312"/>
<text text-anchor="middle" x="106" y="-8.30469" font-family="Futura" font-size="11.00">complex.h</text>
</g>
<!-- Node3&#45;&gt;Node5 -->
<g id="edge8" class="edge"><title>Node3&#45;&gt;Node5</title>
<path fill="none" stroke="midnightblue" d="M138.028,-60.6308C132.714,-52.7292 125.25,-41.6276 118.863,-32.1298"/>
<polygon fill="midnightblue" stroke="midnightblue" points="121.66,-30.0173 113.176,-23.6719 115.851,-33.9233 121.66,-30.0173"/>
</g>
<!-- Node6 -->
<g id="node11" class="node"><title>Node6</title>
<polygon fill="none" stroke="#bfbfbf" points="157.832,-0.695312 157.832,-23.3047 210.168,-23.3047 210.168,-0.695312 157.832,-0.695312"/>
<text text-anchor="middle" x="184" y="-8.30469" font-family="Futura" font-size="11.00">ctype.h</text>
</g>
<!-- Node3&#45;&gt;Node6 -->
<g id="edge10" class="edge"><title>Node3&#45;&gt;Node6</title>
<path fill="none" stroke="midnightblue" d="M151.972,-60.6308C157.286,-52.7292 164.75,-41.6276 171.137,-32.1298"/>
<polygon fill="midnightblue" stroke="midnightblue" points="174.149,-33.9233 176.824,-23.6719 168.34,-30.0173 174.149,-33.9233"/>
</g>
<!-- Node7 -->
<g id="node13" class="node"><title>Node7</title>
<polygon fill="none" stroke="#bfbfbf" points="228.642,-0.695312 228.642,-23.3047 281.358,-23.3047 281.358,-0.695312 228.642,-0.695312"/>
<text text-anchor="middle" x="255" y="-8.30469" font-family="Futura" font-size="11.00">errno.h</text>
</g>
<!-- Node3&#45;&gt;Node7 -->
<g id="edge12" class="edge"><title>Node3&#45;&gt;Node7</title>
<path fill="none" stroke="midnightblue" d="M164.666,-60.6308C181.766,-51.6142 206.769,-38.4308 226.137,-28.2184"/>
<polygon fill="midnightblue" stroke="midnightblue" points="227.92,-31.2352 235.134,-23.475 224.655,-25.0432 227.92,-31.2352"/>
</g>
<!-- Node3&#45;&gt;Node8 -->
<g id="edge14" class="edge"><title>Node3&#45;&gt;Node8</title>
<path fill="none" stroke="midnightblue" d="M187.275,-61.7518C190.225,-61.1465 193.156,-60.5569 196,-60 267.382,-46.0246 349.881,-31.7945 404.063,-22.7102"/>
<polygon fill="midnightblue" stroke="midnightblue" points="404.889,-26.1207 414.175,-21.0194 403.735,-19.2166 404.889,-26.1207"/>
</g>
<!-- Node8&#45;&gt;Node2 -->
<g id="edge16" class="edge"><title>Node8&#45;&gt;Node2</title>
<path fill="none" stroke="midnightblue" d="M462.426,-23.586C461.157,-38.3596 457.081,-65.4322 444,-84 434.733,-97.1544 420.538,-107.802 407.511,-115.615"/>
<polygon fill="midnightblue" stroke="midnightblue" points="405.735,-112.599 398.754,-120.568 409.181,-118.692 405.735,-112.599"/>
</g>
</g>
</svg>
