<?xml version="1.0" encoding="UTF-8" standalone="no"?>
<!DOCTYPE svg PUBLIC "-//W3C//DTD SVG 1.1//EN"
 "http://www.w3.org/Graphics/SVG/1.1/DTD/svg11.dtd">
<!-- Generated by graphviz version 2.28.0 (20121015.0031)
 -->
<!-- Title: AEAppDelegate Pages: 1 -->
<svg width="376pt" height="92pt"
 viewBox="0.00 0.00 376.00 92.00" xmlns="http://www.w3.org/2000/svg" xmlns:xlink="http://www.w3.org/1999/xlink">
<g id="graph1" class="graph" transform="scale(1 1) rotate(0) translate(4 88)">
<title>AEAppDelegate</title>
<!-- Node1 -->
<g id="node1" class="node"><title>Node1</title>
<polygon fill="#bfbfbf" stroke="black" points="96.5127,-0.695312 96.5127,-23.3047 193.487,-23.3047 193.487,-0.695312 96.5127,-0.695312"/>
<text text-anchor="middle" x="145" y="-8.30469" font-family="Futura" font-size="11.00">AEAppDelegate</text>
</g>
<!-- Node2 -->
<g id="node2" class="node"><title>Node2</title>
<polygon fill="none" stroke="#bfbfbf" points="-0.599609,-60.6953 -0.599609,-83.3047 64.5996,-83.3047 64.5996,-60.6953 -0.599609,-60.6953"/>
<text text-anchor="middle" x="32" y="-68.3047" font-family="Futura" font-size="11.00">NSObject</text>
</g>
<!-- Node2&#45;&gt;Node1 -->
<g id="edge2" class="edge"><title>Node2&#45;&gt;Node1</title>
<path fill="none" stroke="midnightblue" d="M61.1466,-56.0398C81.0344,-45.8319 106.882,-32.5651 124.592,-23.475"/>
<polygon fill="midnightblue" stroke="midnightblue" points="59.5004,-52.9506 52.2021,-60.6308 62.6969,-59.1781 59.5004,-52.9506"/>
</g>
<!-- Node3 -->
<g id="node4" class="node"><title>Node3</title>
<polygon fill="none" stroke="#bfbfbf" points="82.2283,-60.6953 82.2283,-83.3047 207.772,-83.3047 207.772,-60.6953 82.2283,-60.6953"/>
<text text-anchor="middle" x="145" y="-68.3047" font-family="Futura" font-size="11.00">&lt;CPTPlotDataSource&gt;</text>
</g>
<!-- Node3&#45;&gt;Node1 -->
<g id="edge4" class="edge"><title>Node3&#45;&gt;Node1</title>
<path fill="none" stroke="midnightblue" d="M145,-50.4586C145,-41.4112 145,-31.1602 145,-23.6719"/>
<polygon fill="midnightblue" stroke="midnightblue" points="141.5,-50.6307 145,-60.6308 148.5,-50.6308 141.5,-50.6307"/>
</g>
<!-- Node4 -->
<g id="node6" class="node"><title>Node4</title>
<polygon fill="none" stroke="#bfbfbf" points="225.452,-60.6953 225.452,-83.3047 368.548,-83.3047 368.548,-60.6953 225.452,-60.6953"/>
<text text-anchor="middle" x="297" y="-68.3047" font-family="Futura" font-size="11.00">&lt;CPTPlotSpaceDelegate&gt;</text>
</g>
<!-- Node4&#45;&gt;Node1 -->
<g id="edge6" class="edge"><title>Node4&#45;&gt;Node1</title>
<path fill="none" stroke="midnightblue" d="M260.28,-56.9885C233.134,-46.63 196.766,-32.753 172.195,-23.3771"/>
<polygon fill="midnightblue" stroke="midnightblue" points="259.235,-60.3357 269.825,-60.6308 261.73,-53.7956 259.235,-60.3357"/>
</g>
</g>
</svg>
