<?xml version="1.0" encoding="UTF-8" standalone="no"?>
<!DOCTYPE svg PUBLIC "-//W3C//DTD SVG 1.1//EN"
 "http://www.w3.org/Graphics/SVG/1.1/DTD/svg11.dtd">
<!-- Generated by graphviz version 2.28.0 (20121015.0031)
 -->
<!-- Title: include/fa/pair/left.h Pages: 1 -->
<svg width="650pt" height="212pt"
 viewBox="0.00 0.00 650.00 212.00" xmlns="http://www.w3.org/2000/svg" xmlns:xlink="http://www.w3.org/1999/xlink">
<g id="graph1" class="graph" transform="scale(1 1) rotate(0) translate(4 208)">
<title>include/fa/pair/left.h</title>
<!-- Node1 -->
<g id="node1" class="node"><title>Node1</title>
<polygon fill="#bfbfbf" stroke="black" points="466.241,-180.695 466.241,-203.305 589.759,-203.305 589.759,-180.695 466.241,-180.695"/>
<text text-anchor="middle" x="528" y="-188.305" font-family="Futura" font-size="11.00">include/fa/pair/left.h</text>
</g>
<!-- Node2 -->
<g id="node3" class="node"><title>Node2</title>
<polygon fill="none" stroke="#bfbfbf" points="435.273,-120.695 435.273,-143.305 470.727,-143.305 470.727,-120.695 435.273,-120.695"/>
<text text-anchor="middle" x="453" y="-128.305" font-family="Futura" font-size="11.00">fa.h</text>
</g>
<!-- Node1&#45;&gt;Node2 -->
<g id="edge2" class="edge"><title>Node1&#45;&gt;Node2</title>
<path fill="none" stroke="midnightblue" d="M514.592,-180.631C503.462,-172.024 487.423,-159.621 474.503,-149.629"/>
<polygon fill="midnightblue" stroke="midnightblue" points="476.597,-146.824 466.545,-143.475 472.315,-152.361 476.597,-146.824"/>
</g>
<!-- Node3 -->
<g id="node5" class="node"><title>Node3</title>
<a xlink:href="pair_8h.html" target="_top" xlink:title="fa/pair.h">
<polygon fill="none" stroke="black" points="526.694,-120.695 526.694,-143.305 587.306,-143.305 587.306,-120.695 526.694,-120.695"/>
<text text-anchor="middle" x="557" y="-128.305" font-family="Futura" font-size="11.00">fa/pair.h</text>
</a>
</g>
<!-- Node1&#45;&gt;Node3 -->
<g id="edge4" class="edge"><title>Node1&#45;&gt;Node3</title>
<path fill="none" stroke="midnightblue" d="M533.185,-180.631C537.054,-172.892 542.458,-162.084 547.14,-152.719"/>
<polygon fill="midnightblue" stroke="midnightblue" points="550.322,-154.181 551.664,-143.672 544.061,-151.051 550.322,-154.181"/>
</g>
<!-- Node10 -->
<g id="node21" class="node"><title>Node10</title>
<a xlink:href="list_8h.html" target="_top" xlink:title="fa/list.h">
<polygon fill="none" stroke="black" points="587.949,-0.695312 587.949,-23.3047 642.051,-23.3047 642.051,-0.695312 587.949,-0.695312"/>
<text text-anchor="middle" x="615" y="-8.30469" font-family="Futura" font-size="11.00">fa/list.h</text>
</a>
</g>
<!-- Node1&#45;&gt;Node10 -->
<g id="edge28" class="edge"><title>Node1&#45;&gt;Node10</title>
<path fill="none" stroke="midnightblue" d="M552.037,-180.634C567.166,-172.816 585.715,-160.588 596,-144 617.193,-109.82 618.29,-61.1543 616.862,-33.7797"/>
<polygon fill="midnightblue" stroke="midnightblue" points="620.33,-33.1898 616.147,-23.4556 613.347,-33.6735 620.33,-33.1898"/>
</g>
<!-- Node4 -->
<g id="node7" class="node"><title>Node4</title>
<a xlink:href="fa_2fa_8h.html" target="_top" xlink:title="fa.h">
<polygon fill="none" stroke="red" points="487.273,-60.6953 487.273,-83.3047 522.727,-83.3047 522.727,-60.6953 487.273,-60.6953"/>
<text text-anchor="middle" x="505" y="-68.3047" font-family="Futura" font-size="11.00">fa.h</text>
</a>
</g>
<!-- Node3&#45;&gt;Node4 -->
<g id="edge6" class="edge"><title>Node3&#45;&gt;Node4</title>
<path fill="none" stroke="midnightblue" d="M542.388,-120.631C533.78,-112.648 523.344,-101.398 515.521,-91.8366"/>
<polygon fill="midnightblue" stroke="midnightblue" points="518.088,-89.4352 509.198,-83.6719 512.554,-93.7213 518.088,-89.4352"/>
</g>
<!-- Node3&#45;&gt;Node10 -->
<g id="edge26" class="edge"><title>Node3&#45;&gt;Node10</title>
<path fill="none" stroke="midnightblue" d="M562.147,-120.528C571.839,-100.81 592.937,-57.8874 605.346,-32.6415"/>
<polygon fill="midnightblue" stroke="midnightblue" points="608.511,-34.1363 609.781,-23.6179 602.229,-31.0484 608.511,-34.1363"/>
</g>
<!-- Node4&#45;&gt;Node1 -->
<g id="edge20" class="edge"><title>Node4&#45;&gt;Node1</title>
<path fill="none" stroke="midnightblue" d="M506.844,-83.6034C509.283,-97.497 513.767,-122.61 518,-144 519.734,-152.763 521.767,-162.418 523.546,-170.686"/>
<polygon fill="midnightblue" stroke="midnightblue" points="520.148,-171.534 525.69,-180.564 526.989,-170.049 520.148,-171.534"/>
</g>
<!-- Node4&#45;&gt;Node3 -->
<g id="edge18" class="edge"><title>Node4&#45;&gt;Node3</title>
<path fill="none" stroke="midnightblue" d="M519.938,-83.6719C528.59,-91.7362 539.016,-103.005 546.773,-112.523"/>
<polygon fill="midnightblue" stroke="midnightblue" points="544.144,-114.845 553.019,-120.631 549.689,-110.573 544.144,-114.845"/>
</g>
<!-- Node5 -->
<g id="node9" class="node"><title>Node5</title>
<polygon fill="none" stroke="#bfbfbf" points="-0.0629883,-0.695312 -0.0629883,-23.3047 74.063,-23.3047 74.063,-0.695312 -0.0629883,-0.695312"/>
<text text-anchor="middle" x="37" y="-8.30469" font-family="Futura" font-size="11.00">fa/atomic.h</text>
</g>
<!-- Node4&#45;&gt;Node5 -->
<g id="edge8" class="edge"><title>Node4&#45;&gt;Node5</title>
<path fill="none" stroke="midnightblue" d="M487.2,-69.8104C430.078,-65.8278 246.161,-51.7226 84.2167,-24.0391"/>
<polygon fill="midnightblue" stroke="midnightblue" points="84.5257,-20.5406 74.075,-22.2824 83.3309,-27.4379 84.5257,-20.5406"/>
</g>
<!-- Node6 -->
<g id="node11" class="node"><title>Node6</title>
<polygon fill="none" stroke="#bfbfbf" points="91.6484,-0.695312 91.6484,-23.3047 202.352,-23.3047 202.352,-0.695312 91.6484,-0.695312"/>
<text text-anchor="middle" x="147" y="-8.30469" font-family="Futura" font-size="11.00">fa/atomic/queue.h</text>
</g>
<!-- Node4&#45;&gt;Node6 -->
<g id="edge10" class="edge"><title>Node4&#45;&gt;Node6</title>
<path fill="none" stroke="midnightblue" d="M487.091,-68.2116C442.524,-61.2571 322.829,-42.4827 212.462,-24.2301"/>
<polygon fill="midnightblue" stroke="midnightblue" points="212.934,-20.7608 202.496,-22.5792 211.79,-27.6666 212.934,-20.7608"/>
</g>
<!-- Node7 -->
<g id="node13" class="node"><title>Node7</title>
<polygon fill="none" stroke="#bfbfbf" points="220.42,-0.695312 220.42,-23.3047 325.58,-23.3047 325.58,-0.695312 220.42,-0.695312"/>
<text text-anchor="middle" x="273" y="-8.30469" font-family="Futura" font-size="11.00">fa/atomic/stack.h</text>
</g>
<!-- Node4&#45;&gt;Node7 -->
<g id="edge12" class="edge"><title>Node4&#45;&gt;Node7</title>
<path fill="none" stroke="midnightblue" d="M487.181,-66.5451C452.763,-57.9407 375.988,-38.747 324.341,-25.8351"/>
<polygon fill="midnightblue" stroke="midnightblue" points="324.917,-22.3715 314.366,-23.3415 323.219,-29.1625 324.917,-22.3715"/>
</g>
<!-- Node8 -->
<g id="node15" class="node"><title>Node8</title>
<polygon fill="none" stroke="#bfbfbf" points="343.526,-0.695312 343.526,-23.3047 478.474,-23.3047 478.474,-0.695312 343.526,-0.695312"/>
<text text-anchor="middle" x="411" y="-8.30469" font-family="Futura" font-size="11.00">fa/atomic/ring_buffer.h</text>
</g>
<!-- Node4&#45;&gt;Node8 -->
<g id="edge14" class="edge"><title>Node4&#45;&gt;Node8</title>
<path fill="none" stroke="midnightblue" d="M488.195,-60.6308C473.847,-51.7782 452.99,-38.9089 436.572,-28.7784"/>
<polygon fill="midnightblue" stroke="midnightblue" points="438.325,-25.7475 427.977,-23.475 434.649,-31.7048 438.325,-25.7475"/>
</g>
<!-- Node9 -->
<g id="node17" class="node"><title>Node9</title>
<a xlink:href="system_8h.html" target="_top" xlink:title="fa/system.h">
<polygon fill="none" stroke="red" points="496.026,-0.695312 496.026,-23.3047 569.974,-23.3047 569.974,-0.695312 496.026,-0.695312"/>
<text text-anchor="middle" x="533" y="-8.30469" font-family="Futura" font-size="11.00">fa/system.h</text>
</a>
</g>
<!-- Node4&#45;&gt;Node9 -->
<g id="edge16" class="edge"><title>Node4&#45;&gt;Node9</title>
<path fill="none" stroke="midnightblue" d="M510.006,-60.6308C513.742,-52.8921 518.959,-42.0841 523.48,-32.7193"/>
<polygon fill="midnightblue" stroke="midnightblue" points="526.652,-34.199 527.848,-23.6719 520.349,-31.1558 526.652,-34.199"/>
</g>
<!-- Node4&#45;&gt;Node10 -->
<g id="edge22" class="edge"><title>Node4&#45;&gt;Node10</title>
<path fill="none" stroke="midnightblue" d="M519.35,-60.6308C534.953,-51.5323 560.032,-38.1908 580.676,-27.9407"/>
<polygon fill="midnightblue" stroke="midnightblue" points="582.356,-31.0151 589.799,-23.475 579.278,-24.7279 582.356,-31.0151"/>
</g>
<!-- Node10&#45;&gt;Node4 -->
<g id="edge24" class="edge"><title>Node10&#45;&gt;Node4</title>
<path fill="none" stroke="midnightblue" d="M600.405,-23.5118C582.908,-33.6999 553.734,-49.1097 532.132,-59.5914"/>
<polygon fill="midnightblue" stroke="midnightblue" points="530.629,-56.4309 523.102,-63.8881 533.636,-62.7519 530.629,-56.4309"/>
</g>
</g>
</svg>
