<?xml version="1.0" encoding="UTF-8" standalone="no"?>
<!DOCTYPE svg PUBLIC "-//W3C//DTD SVG 1.1//EN"
 "http://www.w3.org/Graphics/SVG/1.1/DTD/svg11.dtd">
<!-- Generated by graphviz version 2.28.0 (20121015.0031)
 -->
<!-- Title: include/fa/pair/left.h Pages: 1 -->
<svg width="667pt" height="272pt"
 viewBox="0.00 0.00 666.87 272.00" xmlns="http://www.w3.org/2000/svg" xmlns:xlink="http://www.w3.org/1999/xlink">
<g id="graph1" class="graph" transform="scale(1 1) rotate(0) translate(4 268)">
<title>include/fa/pair/left.h</title>
<!-- Node1 -->
<g id="node1" class="node"><title>Node1</title>
<polygon fill="#bfbfbf" stroke="black" points="350.111,-240.695 350.111,-263.305 473.63,-263.305 473.63,-240.695 350.111,-240.695"/>
<text text-anchor="middle" x="411.871" y="-248.305" font-family="Futura" font-size="11.00">include/fa/pair/left.h</text>
</g>
<!-- Node2 -->
<g id="node3" class="node"><title>Node2</title>
<polygon fill="none" stroke="#bfbfbf" points="209.144,-0.695312 209.144,-23.3047 244.598,-23.3047 244.598,-0.695312 209.144,-0.695312"/>
<text text-anchor="middle" x="226.871" y="-8.30469" font-family="Futura" font-size="11.00">fa.h</text>
</g>
<!-- Node1&#45;&gt;Node2 -->
<g id="edge2" class="edge"><title>Node1&#45;&gt;Node2</title>
<path fill="none" stroke="midnightblue" d="M349.745,-246.034C256.927,-234.887 84.7579,-198.98 7.87056,-84 -37.6825,-15.8784 130.208,-11.3317 198.867,-12.2216"/>
<polygon fill="midnightblue" stroke="midnightblue" points="198.926,-15.7231 208.986,-12.4022 199.051,-8.72423 198.926,-15.7231"/>
</g>
<!-- Node3 -->
<g id="node5" class="node"><title>Node3</title>
<a xlink:href="pair_8h.html" target="_top" xlink:title="fa/pair.h">
<polygon fill="none" stroke="black" points="410.564,-180.695 410.564,-203.305 471.177,-203.305 471.177,-180.695 410.564,-180.695"/>
<text text-anchor="middle" x="440.871" y="-188.305" font-family="Futura" font-size="11.00">fa/pair.h</text>
</a>
</g>
<!-- Node1&#45;&gt;Node3 -->
<g id="edge4" class="edge"><title>Node1&#45;&gt;Node3</title>
<path fill="none" stroke="midnightblue" d="M417.055,-240.631C420.924,-232.892 426.329,-222.084 431.011,-212.719"/>
<polygon fill="midnightblue" stroke="midnightblue" points="434.193,-214.181 435.535,-203.672 427.932,-211.051 434.193,-214.181"/>
</g>
<!-- Node10 -->
<g id="node25" class="node"><title>Node10</title>
<a xlink:href="list_8h.html" target="_top" xlink:title="fa/list.h">
<polygon fill="none" stroke="black" points="604.819,-60.6953 604.819,-83.3047 658.922,-83.3047 658.922,-60.6953 604.819,-60.6953"/>
<text text-anchor="middle" x="631.871" y="-68.3047" font-family="Futura" font-size="11.00">fa/list.h</text>
</a>
</g>
<!-- Node1&#45;&gt;Node10 -->
<g id="edge36" class="edge"><title>Node1&#45;&gt;Node10</title>
<path fill="none" stroke="midnightblue" d="M427.866,-240.626C441.861,-231.39 462.594,-217.317 479.871,-204 529.593,-165.672 584.634,-116.39 612.866,-90.5688"/>
<polygon fill="midnightblue" stroke="midnightblue" points="615.412,-92.9823 620.412,-83.6412 610.678,-87.8258 615.412,-92.9823"/>
</g>
<!-- Node4 -->
<g id="node7" class="node"><title>Node4</title>
<a xlink:href="fa_2fa_8h.html" target="_top" xlink:title="fa.h">
<polygon fill="none" stroke="red" points="410.144,-120.695 410.144,-143.305 445.598,-143.305 445.598,-120.695 410.144,-120.695"/>
<text text-anchor="middle" x="427.871" y="-128.305" font-family="Futura" font-size="11.00">fa.h</text>
</a>
</g>
<!-- Node3&#45;&gt;Node4 -->
<g id="edge6" class="edge"><title>Node3&#45;&gt;Node4</title>
<path fill="none" stroke="midnightblue" d="M433.231,-180.631C430.19,-173.137 427.472,-162.764 425.998,-153.611"/>
<polygon fill="midnightblue" stroke="midnightblue" points="429.476,-153.224 424.892,-143.672 422.519,-153.997 429.476,-153.224"/>
</g>
<!-- Node3&#45;&gt;Node10 -->
<g id="edge34" class="edge"><title>Node3&#45;&gt;Node10</title>
<path fill="none" stroke="midnightblue" d="M457.821,-180.528C491.447,-159.754 566.761,-113.225 606.385,-88.7449"/>
<polygon fill="midnightblue" stroke="midnightblue" points="608.291,-91.6818 614.959,-83.4482 604.612,-85.7266 608.291,-91.6818"/>
</g>
<!-- Node4&#45;&gt;Node1 -->
<g id="edge28" class="edge"><title>Node4&#45;&gt;Node1</title>
<path fill="none" stroke="midnightblue" d="M419.987,-143.535C413.692,-152.648 405.367,-166.456 401.871,-180 397.556,-196.712 400.849,-216.149 404.774,-230.457"/>
<polygon fill="midnightblue" stroke="midnightblue" points="401.505,-231.734 407.783,-240.268 408.197,-229.681 401.505,-231.734"/>
</g>
<!-- Node4&#45;&gt;Node3 -->
<g id="edge26" class="edge"><title>Node4&#45;&gt;Node3</title>
<path fill="none" stroke="midnightblue" d="M435.633,-143.672C438.632,-151.16 441.302,-161.411 442.754,-170.459"/>
<polygon fill="midnightblue" stroke="midnightblue" points="439.3,-171.068 443.862,-180.631 446.259,-170.311 439.3,-171.068"/>
</g>
<!-- Node5 -->
<g id="node9" class="node"><title>Node5</title>
<a xlink:href="atomic_8h.html" target="_top" xlink:title="fa/atomic.h">
<polygon fill="none" stroke="red" points="16.8076,-60.6953 16.8076,-83.3047 90.9335,-83.3047 90.9335,-60.6953 16.8076,-60.6953"/>
<text text-anchor="middle" x="53.8706" y="-68.3047" font-family="Futura" font-size="11.00">fa/atomic.h</text>
</a>
</g>
<!-- Node4&#45;&gt;Node5 -->
<g id="edge8" class="edge"><title>Node4&#45;&gt;Node5</title>
<path fill="none" stroke="midnightblue" d="M409.948,-129.447C360.403,-124.467 219.226,-107.922 97.3077,-85.1878"/>
<polygon fill="midnightblue" stroke="midnightblue" points="97.9227,-81.7422 87.4471,-83.3273 96.6248,-88.6208 97.9227,-81.7422"/>
</g>
<!-- Node6 -->
<g id="node12" class="node"><title>Node6</title>
<a xlink:href="queue_8h.html" target="_top" xlink:title="fa/atomic/queue.h">
<polygon fill="none" stroke="black" points="108.519,-60.6953 108.519,-83.3047 219.222,-83.3047 219.222,-60.6953 108.519,-60.6953"/>
<text text-anchor="middle" x="163.871" y="-68.3047" font-family="Futura" font-size="11.00">fa/atomic/queue.h</text>
</a>
</g>
<!-- Node4&#45;&gt;Node6 -->
<g id="edge12" class="edge"><title>Node4&#45;&gt;Node6</title>
<path fill="none" stroke="midnightblue" d="M410.139,-127.104C372.052,-118.737 281.02,-98.7373 220.945,-85.539"/>
<polygon fill="midnightblue" stroke="midnightblue" points="221.364,-82.0477 210.846,-83.3203 219.862,-88.8846 221.364,-82.0477"/>
</g>
<!-- Node7 -->
<g id="node15" class="node"><title>Node7</title>
<a xlink:href="stack_8h.html" target="_top" xlink:title="fa/atomic/stack.h">
<polygon fill="none" stroke="black" points="237.29,-60.6953 237.29,-83.3047 342.451,-83.3047 342.451,-60.6953 237.29,-60.6953"/>
<text text-anchor="middle" x="289.871" y="-68.3047" font-family="Futura" font-size="11.00">fa/atomic/stack.h</text>
</a>
</g>
<!-- Node4&#45;&gt;Node7 -->
<g id="edge16" class="edge"><title>Node4&#45;&gt;Node7</title>
<path fill="none" stroke="midnightblue" d="M410.112,-123.536C388.457,-114.435 351.377,-98.8506 324.105,-87.3886"/>
<polygon fill="midnightblue" stroke="midnightblue" points="325.123,-84.0199 314.548,-83.3719 322.411,-90.4731 325.123,-84.0199"/>
</g>
<!-- Node8 -->
<g id="node18" class="node"><title>Node8</title>
<a xlink:href="ring__buffer_8h.html" target="_top" xlink:title="fa/atomic/ring_buffer.h">
<polygon fill="none" stroke="black" points="360.396,-60.6953 360.396,-83.3047 495.345,-83.3047 495.345,-60.6953 360.396,-60.6953"/>
<text text-anchor="middle" x="427.871" y="-68.3047" font-family="Futura" font-size="11.00">fa/atomic/ring_buffer.h</text>
</a>
</g>
<!-- Node4&#45;&gt;Node8 -->
<g id="edge20" class="edge"><title>Node4&#45;&gt;Node8</title>
<path fill="none" stroke="midnightblue" d="M427.871,-120.631C427.871,-113.218 427.871,-102.989 427.871,-93.9096"/>
<polygon fill="midnightblue" stroke="midnightblue" points="431.371,-93.6718 427.871,-83.6719 424.371,-93.6719 431.371,-93.6718"/>
</g>
<!-- Node9 -->
<g id="node21" class="node"><title>Node9</title>
<a xlink:href="system_8h.html" target="_top" xlink:title="fa/system.h">
<polygon fill="none" stroke="red" points="512.896,-60.6953 512.896,-83.3047 586.845,-83.3047 586.845,-60.6953 512.896,-60.6953"/>
<text text-anchor="middle" x="549.871" y="-68.3047" font-family="Futura" font-size="11.00">fa/system.h</text>
</a>
</g>
<!-- Node4&#45;&gt;Node9 -->
<g id="edge24" class="edge"><title>Node4&#45;&gt;Node9</title>
<path fill="none" stroke="midnightblue" d="M445.61,-122.566C464.778,-113.454 495.687,-98.7595 518.883,-87.7316"/>
<polygon fill="midnightblue" stroke="midnightblue" points="520.453,-90.861 527.981,-83.4064 517.447,-84.539 520.453,-90.861"/>
</g>
<!-- Node4&#45;&gt;Node10 -->
<g id="edge30" class="edge"><title>Node4&#45;&gt;Node10</title>
<path fill="none" stroke="midnightblue" d="M445.61,-124.416C475.111,-115.424 534.949,-98.7341 585.871,-84 588.739,-83.1699 591.73,-82.2956 594.762,-81.4174"/>
<polygon fill="midnightblue" stroke="midnightblue" points="595.822,-84.7547 604.481,-78.6493 593.905,-78.0224 595.822,-84.7547"/>
</g>
<!-- Node5&#45;&gt;Node4 -->
<g id="edge10" class="edge"><title>Node5&#45;&gt;Node4</title>
<path fill="none" stroke="midnightblue" d="M91.0543,-80.2192C97.0554,-81.5747 103.144,-82.9074 108.871,-84 215.88,-104.416 344.06,-120.346 399.887,-127.255"/>
<polygon fill="midnightblue" stroke="midnightblue" points="399.705,-130.759 410.06,-128.515 400.566,-123.813 399.705,-130.759"/>
</g>
<!-- Node6&#45;&gt;Node2 -->
<g id="edge14" class="edge"><title>Node6&#45;&gt;Node2</title>
<path fill="none" stroke="midnightblue" d="M175.134,-60.6308C184.159,-52.3219 197.027,-40.4746 207.672,-30.6745"/>
<polygon fill="midnightblue" stroke="midnightblue" points="210.292,-33.0199 215.279,-23.6719 205.551,-27.87 210.292,-33.0199"/>
</g>
<!-- Node7&#45;&gt;Node2 -->
<g id="edge18" class="edge"><title>Node7&#45;&gt;Node2</title>
<path fill="none" stroke="midnightblue" d="M278.607,-60.6308C269.582,-52.3219 256.714,-40.4746 246.069,-30.6745"/>
<polygon fill="midnightblue" stroke="midnightblue" points="248.19,-27.87 238.462,-23.6719 243.449,-33.0199 248.19,-27.87"/>
</g>
<!-- Node8&#45;&gt;Node2 -->
<g id="edge22" class="edge"><title>Node8&#45;&gt;Node2</title>
<path fill="none" stroke="midnightblue" d="M391.936,-60.6308C352.573,-49.2724 290.295,-31.3016 254.551,-20.9875"/>
<polygon fill="midnightblue" stroke="midnightblue" points="255.368,-17.5803 244.789,-18.1706 253.427,-24.3059 255.368,-17.5803"/>
</g>
<!-- Node10&#45;&gt;Node4 -->
<g id="edge32" class="edge"><title>Node10&#45;&gt;Node4</title>
<path fill="none" stroke="midnightblue" d="M606.211,-83.3206C605.424,-83.5497 604.643,-83.7765 603.871,-84 551.955,-99.0219 490.77,-116.076 455.718,-124.934"/>
<polygon fill="midnightblue" stroke="midnightblue" points="454.584,-121.609 445.717,-127.408 456.265,-128.404 454.584,-121.609"/>
</g>
</g>
</svg>
