<?xml version="1.0" encoding="UTF-8" standalone="no"?>
<!DOCTYPE svg PUBLIC "-//W3C//DTD SVG 1.1//EN"
 "http://www.w3.org/Graphics/SVG/1.1/DTD/svg11.dtd">
<!-- Generated by graphviz version 2.28.0 (20121015.0031)
 -->
<!-- Title: include/fa/list.h Pages: 1 -->
<svg width="450pt" height="392pt"
 viewBox="0.00 0.00 450.00 392.00" xmlns="http://www.w3.org/2000/svg" xmlns:xlink="http://www.w3.org/1999/xlink">
<g id="graph1" class="graph" transform="scale(1 1) rotate(0) translate(4 388)">
<title>include/fa/list.h</title>
<!-- Node1 -->
<g id="node1" class="node"><title>Node1</title>
<polygon fill="#bfbfbf" stroke="black" points="228.385,-360.695 228.385,-383.305 323.615,-383.305 323.615,-360.695 228.385,-360.695"/>
<text text-anchor="middle" x="276" y="-368.305" font-family="Futura" font-size="11.00">include/fa/list.h</text>
</g>
<!-- Node2 -->
<g id="node3" class="node"><title>Node2</title>
<a xlink:href="action_8h.html" target="_top" xlink:title="include/fa/action.h">
<polygon fill="none" stroke="black" points="70.7461,-300.695 70.7461,-323.305 183.254,-323.305 183.254,-300.695 70.7461,-300.695"/>
<text text-anchor="middle" x="127" y="-308.305" font-family="Futura" font-size="11.00">include/fa/action.h</text>
</a>
</g>
<!-- Node1&#45;&gt;Node2 -->
<g id="edge2" class="edge"><title>Node1&#45;&gt;Node2</title>
<path fill="none" stroke="midnightblue" d="M240.005,-356.989C213.394,-346.63 177.745,-332.753 153.658,-323.377"/>
<polygon fill="midnightblue" stroke="midnightblue" points="238.773,-360.265 249.362,-360.631 241.313,-353.742 238.773,-360.265"/>
</g>
<!-- Node3 -->
<g id="node5" class="node"><title>Node3</title>
<a xlink:href="audio_8h.html" target="_top" xlink:title="include/fa/audio.h">
<polygon fill="none" stroke="black" points="163.592,-240.695 163.592,-263.305 274.408,-263.305 274.408,-240.695 163.592,-240.695"/>
<text text-anchor="middle" x="219" y="-248.305" font-family="Futura" font-size="11.00">include/fa/audio.h</text>
</a>
</g>
<!-- Node1&#45;&gt;Node3 -->
<g id="edge42" class="edge"><title>Node1&#45;&gt;Node3</title>
<path fill="none" stroke="midnightblue" d="M266.44,-351.21C254.266,-326.007 233.667,-283.363 224.129,-263.618"/>
<polygon fill="midnightblue" stroke="midnightblue" points="263.44,-353.046 270.942,-360.528 269.744,-350.001 263.44,-353.046"/>
</g>
<!-- Node4 -->
<g id="node7" class="node"><title>Node4</title>
<a xlink:href="fa_2fa_8h.html" target="_top" xlink:title="include/fa/fa.h">
<polygon fill="none" stroke="red" points="149.846,-180.695 149.846,-203.305 242.154,-203.305 242.154,-180.695 149.846,-180.695"/>
<text text-anchor="middle" x="196" y="-188.305" font-family="Futura" font-size="11.00">include/fa/fa.h</text>
</a>
</g>
<!-- Node1&#45;&gt;Node4 -->
<g id="edge44" class="edge"><title>Node1&#45;&gt;Node4</title>
<path fill="none" stroke="midnightblue" d="M277.585,-350.601C283.551,-323.313 294.506,-274.385 274,-240 263.272,-222.012 243.011,-210.494 225.713,-203.366"/>
<polygon fill="midnightblue" stroke="midnightblue" points="274.125,-350.048 275.499,-360.553 280.977,-351.484 274.125,-350.048"/>
</g>
<!-- Node7 -->
<g id="node15" class="node"><title>Node7</title>
<a xlink:href="midi_8h.html" target="_top" xlink:title="include/fa/midi.h">
<polygon fill="none" stroke="black" points="268.473,-60.6953 268.473,-83.3047 371.527,-83.3047 371.527,-60.6953 268.473,-60.6953"/>
<text text-anchor="middle" x="320" y="-68.3047" font-family="Futura" font-size="11.00">include/fa/midi.h</text>
</a>
</g>
<!-- Node1&#45;&gt;Node7 -->
<g id="edge48" class="edge"><title>Node1&#45;&gt;Node7</title>
<path fill="none" stroke="midnightblue" d="M311.751,-356.386C349.621,-338.252 404,-303.432 404,-253 404,-253 404,-253 404,-191 404,-158.334 403.528,-146.903 385,-120 373.942,-103.944 355.539,-91.3925 341.132,-83.3148"/>
<polygon fill="midnightblue" stroke="midnightblue" points="310.141,-353.275 302.522,-360.637 313.069,-359.633 310.141,-353.275"/>
</g>
<!-- Node8 -->
<g id="node19" class="node"><title>Node8</title>
<a xlink:href="map_8h.html" target="_top" xlink:title="include/fa/map.h">
<polygon fill="none" stroke="black" points="16.9141,-60.6953 16.9141,-83.3047 121.086,-83.3047 121.086,-60.6953 16.9141,-60.6953"/>
<text text-anchor="middle" x="69" y="-68.3047" font-family="Futura" font-size="11.00">include/fa/map.h</text>
</a>
</g>
<!-- Node1&#45;&gt;Node8 -->
<g id="edge46" class="edge"><title>Node1&#45;&gt;Node8</title>
<path fill="none" stroke="midnightblue" d="M218.18,-370.809C137.253,-367.151 0,-347.078 0,-253 0,-253 0,-253 0,-191 0,-158.334 2.23618,-148.036 19,-120 27.9263,-105.071 42.9339,-91.8836 54.1829,-83.3067"/>
<polygon fill="midnightblue" stroke="midnightblue" points="218.113,-374.309 228.24,-371.193 218.38,-367.314 218.113,-374.309"/>
</g>
<!-- Node9 -->
<g id="node21" class="node"><title>Node9</title>
<a xlink:href="literals_8h.html" target="_top" xlink:title="include/fa/util/literals.h">
<polygon fill="none" stroke="red" points="187.518,-0.695312 187.518,-23.3047 322.482,-23.3047 322.482,-0.695312 187.518,-0.695312"/>
<text text-anchor="middle" x="255" y="-8.30469" font-family="Futura" font-size="11.00">include/fa/util/literals.h</text>
</a>
</g>
<!-- Node1&#45;&gt;Node9 -->
<g id="edge52" class="edge"><title>Node1&#45;&gt;Node9</title>
<path fill="none" stroke="midnightblue" d="M328.543,-357.525C377.174,-341.516 442,-309.566 442,-253 442,-253 442,-253 442,-131 442,-67.9469 365.021,-37.2288 309.843,-23.3092"/>
<polygon fill="midnightblue" stroke="midnightblue" points="327.236,-354.267 318.749,-360.609 329.339,-360.944 327.236,-354.267"/>
</g>
<!-- Node10 -->
<g id="node23" class="node"><title>Node10</title>
<a xlink:href="pair_8h.html" target="_top" xlink:title="include/fa/pair.h">
<polygon fill="none" stroke="red" points="28.1306,-120.695 28.1306,-143.305 129.869,-143.305 129.869,-120.695 28.1306,-120.695"/>
<text text-anchor="middle" x="79" y="-128.305" font-family="Futura" font-size="11.00">include/fa/pair.h</text>
</a>
</g>
<!-- Node1&#45;&gt;Node10 -->
<g id="edge50" class="edge"><title>Node1&#45;&gt;Node10</title>
<path fill="none" stroke="midnightblue" d="M217.865,-366.294C161.332,-360.369 81.2436,-347.929 62,-324 17.9789,-269.261 58.0725,-175.003 73.5282,-143.556"/>
<polygon fill="midnightblue" stroke="midnightblue" points="217.826,-369.808 228.126,-367.326 218.527,-362.843 217.826,-369.808"/>
</g>
<!-- Node2&#45;&gt;Node3 -->
<g id="edge4" class="edge"><title>Node2&#45;&gt;Node3</title>
<path fill="none" stroke="midnightblue" d="M152.283,-295.061C168.248,-284.996 188.422,-272.277 202.384,-263.475"/>
<polygon fill="midnightblue" stroke="midnightblue" points="150.04,-292.337 143.448,-300.631 153.774,-298.258 150.04,-292.337"/>
</g>
<!-- Node2&#45;&gt;Node4 -->
<g id="edge40" class="edge"><title>Node2&#45;&gt;Node4</title>
<path fill="none" stroke="midnightblue" d="M125.553,-290.318C128.863,-275.668 136.342,-255.877 146,-240 154.441,-226.123 167.066,-212.372 177.885,-203.364"/>
<polygon fill="midnightblue" stroke="midnightblue" points="122.07,-289.929 123.868,-300.37 128.973,-291.086 122.07,-289.929"/>
</g>
<!-- Node3&#45;&gt;Node4 -->
<g id="edge6" class="edge"><title>Node3&#45;&gt;Node4</title>
<path fill="none" stroke="midnightblue" d="M211.09,-231.053C207.446,-221.863 203.267,-211.325 200.232,-203.672"/>
<polygon fill="midnightblue" stroke="midnightblue" points="207.948,-232.625 214.888,-240.631 214.455,-230.045 207.948,-232.625"/>
</g>
<!-- Node4&#45;&gt;Node1 -->
<g id="edge20" class="edge"><title>Node4&#45;&gt;Node1</title>
<path fill="none" stroke="midnightblue" d="M251.273,-207.238C267.403,-214.448 283.032,-224.963 292,-240 315.331,-279.122 297.935,-337.072 284.916,-360.553"/>
<polygon fill="midnightblue" stroke="midnightblue" points="252.346,-203.896 241.765,-203.366 249.706,-210.379 252.346,-203.896"/>
</g>
<!-- Node4&#45;&gt;Node2 -->
<g id="edge8" class="edge"><title>Node4&#45;&gt;Node2</title>
<path fill="none" stroke="midnightblue" d="M185.779,-211.198C178.834,-219.471 170.265,-229.701 164,-240 151.881,-259.924 143.191,-286.011 136.019,-300.37"/>
<polygon fill="midnightblue" stroke="midnightblue" points="188.584,-213.299 192.264,-203.364 183.191,-208.835 188.584,-213.299"/>
</g>
<!-- Node5 -->
<g id="node10" class="node"><title>Node5</title>
<a xlink:href="buffer_8h.html" target="_top" xlink:title="include/fa/buffer.h">
<polygon fill="none" stroke="red" points="139.227,-60.6953 139.227,-83.3047 250.773,-83.3047 250.773,-60.6953 139.227,-60.6953"/>
<text text-anchor="middle" x="195" y="-68.3047" font-family="Futura" font-size="11.00">include/fa/buffer.h</text>
</a>
</g>
<!-- Node4&#45;&gt;Node5 -->
<g id="edge10" class="edge"><title>Node4&#45;&gt;Node5</title>
<path fill="none" stroke="midnightblue" d="M195.824,-170.192C195.609,-144.874 195.255,-103.1 195.09,-83.6179"/>
<polygon fill="midnightblue" stroke="midnightblue" points="192.327,-170.558 195.911,-180.528 199.326,-170.499 192.327,-170.558"/>
</g>
<!-- Node6 -->
<g id="node12" class="node"><title>Node6</title>
<a xlink:href="device_8h.html" target="_top" xlink:title="include/fa/device.h">
<polygon fill="none" stroke="black" points="261.817,-120.695 261.817,-143.305 376.183,-143.305 376.183,-120.695 261.817,-120.695"/>
<text text-anchor="middle" x="319" y="-128.305" font-family="Futura" font-size="11.00">include/fa/device.h</text>
</a>
</g>
<!-- Node4&#45;&gt;Node6 -->
<g id="edge12" class="edge"><title>Node4&#45;&gt;Node6</title>
<path fill="none" stroke="midnightblue" d="M227.14,-176.316C248.864,-166.072 277.334,-152.647 296.786,-143.475"/>
<polygon fill="midnightblue" stroke="midnightblue" points="225.542,-173.2 217.99,-180.631 228.528,-179.531 225.542,-173.2"/>
</g>
<!-- Node4&#45;&gt;Node8 -->
<g id="edge22" class="edge"><title>Node4&#45;&gt;Node8</title>
<path fill="none" stroke="midnightblue" d="M182.881,-172.069C171.904,-156.99 155.296,-135.853 138,-120 122.293,-105.603 101.874,-92.2432 87.3323,-83.4762"/>
<polygon fill="midnightblue" stroke="midnightblue" points="180.29,-174.463 188.945,-180.574 185.989,-170.4 180.29,-174.463"/>
</g>
<!-- Node4&#45;&gt;Node10 -->
<g id="edge26" class="edge"><title>Node4&#45;&gt;Node10</title>
<path fill="none" stroke="midnightblue" d="M160.421,-176.316C138.523,-166.072 111.649,-152.647 94.7957,-143.475"/>
<polygon fill="midnightblue" stroke="midnightblue" points="159.221,-179.617 169.767,-180.631 162.155,-173.262 159.221,-179.617"/>
</g>
<!-- Node6&#45;&gt;Node3 -->
<g id="edge14" class="edge"><title>Node6&#45;&gt;Node3</title>
<path fill="none" stroke="midnightblue" d="M303.476,-151.318C282.254,-176.361 244.881,-220.461 227.874,-240.528"/>
<polygon fill="midnightblue" stroke="midnightblue" points="306.207,-153.51 310.002,-143.618 300.866,-148.984 306.207,-153.51"/>
</g>
<!-- Node6&#45;&gt;Node7 -->
<g id="edge16" class="edge"><title>Node6&#45;&gt;Node7</title>
<path fill="none" stroke="midnightblue" d="M319.354,-110.459C319.51,-101.411 319.687,-91.1602 319.816,-83.6719"/>
<polygon fill="midnightblue" stroke="midnightblue" points="315.852,-110.572 319.179,-120.631 322.851,-110.693 315.852,-110.572"/>
</g>
<!-- Node7&#45;&gt;Node4 -->
<g id="edge18" class="edge"><title>Node7&#45;&gt;Node4</title>
<path fill="none" stroke="midnightblue" d="M293.977,-88.7752C281.004,-97.2381 265.466,-108.316 253,-120 232.471,-139.242 212.933,-166.051 202.933,-180.602"/>
<polygon fill="midnightblue" stroke="midnightblue" points="295.926,-91.6835 302.48,-83.3587 292.165,-85.7797 295.926,-91.6835"/>
</g>
<!-- Node8&#45;&gt;Node9 -->
<g id="edge24" class="edge"><title>Node8&#45;&gt;Node9</title>
<path fill="none" stroke="midnightblue" d="M112.196,-57.5304C145.586,-47.1183 191.127,-32.9175 221.722,-23.3771"/>
<polygon fill="midnightblue" stroke="midnightblue" points="110.758,-54.3125 102.253,-60.6308 112.842,-60.9951 110.758,-54.3125"/>
</g>
<!-- Node10&#45;&gt;Node2 -->
<g id="edge28" class="edge"><title>Node10&#45;&gt;Node2</title>
<path fill="none" stroke="midnightblue" d="M84.471,-153.288C94.7238,-191.309 116.49,-272.027 124.212,-300.661"/>
<polygon fill="midnightblue" stroke="midnightblue" points="87.7788,-152.112 81.7959,-143.368 81.0203,-153.934 87.7788,-152.112"/>
</g>
<!-- Node10&#45;&gt;Node3 -->
<g id="edge30" class="edge"><title>Node10&#45;&gt;Node3</title>
<path fill="none" stroke="midnightblue" d="M92.6941,-151.695C104.425,-166.912 122.339,-188.357 141,-204 158.69,-218.828 181.572,-232.03 197.971,-240.638"/>
<polygon fill="midnightblue" stroke="midnightblue" points="95.3609,-149.418 86.5426,-143.546 89.7739,-153.636 95.3609,-149.418"/>
</g>
<!-- Node10&#45;&gt;Node4 -->
<g id="edge34" class="edge"><title>Node10&#45;&gt;Node4</title>
<path fill="none" stroke="midnightblue" d="M114.832,-147.802C136.768,-158.071 163.622,-171.491 180.399,-180.631"/>
<polygon fill="midnightblue" stroke="midnightblue" points="116.012,-144.492 105.466,-143.475 113.076,-150.846 116.012,-144.492"/>
</g>
<!-- Node10&#45;&gt;Node5 -->
<g id="edge32" class="edge"><title>Node10&#45;&gt;Node5</title>
<path fill="none" stroke="midnightblue" d="M108.92,-116.04C129.336,-105.832 155.87,-92.5651 174.05,-83.475"/>
<polygon fill="midnightblue" stroke="midnightblue" points="107.117,-113.028 99.7385,-120.631 110.248,-119.289 107.117,-113.028"/>
</g>
<!-- Node10&#45;&gt;Node7 -->
<g id="edge38" class="edge"><title>Node10&#45;&gt;Node7</title>
<path fill="none" stroke="midnightblue" d="M131.919,-118.264C175.424,-107.794 236.3,-93.1437 276.881,-83.3771"/>
<polygon fill="midnightblue" stroke="midnightblue" points="130.989,-114.888 122.086,-120.631 132.627,-121.694 130.989,-114.888"/>
</g>
<!-- Node10&#45;&gt;Node8 -->
<g id="edge36" class="edge"><title>Node10&#45;&gt;Node8</title>
<path fill="none" stroke="midnightblue" d="M75.5097,-110.756C73.9374,-101.637 72.1453,-91.2425 70.84,-83.6719"/>
<polygon fill="midnightblue" stroke="midnightblue" points="72.0639,-111.371 77.2122,-120.631 78.9622,-110.181 72.0639,-111.371"/>
</g>
</g>
</svg>
