<?xml version="1.0" encoding="UTF-8" standalone="no"?>
<!DOCTYPE svg PUBLIC "-//W3C//DTD SVG 1.1//EN"
 "http://www.w3.org/Graphics/SVG/1.1/DTD/svg11.dtd">
<!-- Generated by graphviz version 2.28.0 (20121015.0031)
 -->
<!-- Title: include/fae/list.h Pages: 1 -->
<svg width="710pt" height="226pt"
 viewBox="0.00 0.00 709.85 226.00" xmlns="http://www.w3.org/2000/svg" xmlns:xlink="http://www.w3.org/1999/xlink">
<g id="graph1" class="graph" transform="scale(1 1) rotate(0) translate(4 222)">
<title>include/fae/list.h</title>
<!-- Node1 -->
<g id="node1" class="node"><title>Node1</title>
<polygon fill="#bfbfbf" stroke="black" points="301.196,-194.695 301.196,-217.305 402.51,-217.305 402.51,-194.695 301.196,-194.695"/>
<text text-anchor="middle" x="351.853" y="-202.305" font-family="Futura" font-size="11.00">include/fae/list.h</text>
</g>
<!-- Node2 -->
<g id="node3" class="node"><title>Node2</title>
<a xlink:href="audio_8h.html" target="_top" xlink:title="include/fae/device\l/audio.h">
<polygon fill="none" stroke="red" points="26.3401,-60.3906 26.3401,-97.6094 137.365,-97.6094 137.365,-60.3906 26.3401,-60.3906"/>
<text text-anchor="start" x="34.3401" y="-82.6094" font-family="Futura" font-size="11.00">include/fae/device</text>
<text text-anchor="middle" x="81.8528" y="-68" font-family="Futura" font-size="11.00">/audio.h</text>
</a>
</g>
<!-- Node1&#45;&gt;Node2 -->
<g id="edge2" class="edge"><title>Node1&#45;&gt;Node2</title>
<path fill="none" stroke="midnightblue" d="M294.097,-192.129C263.983,-184.304 227.029,-172.919 195.853,-158 161.242,-141.437 125.364,-115.109 103.322,-97.6922"/>
<polygon fill="midnightblue" stroke="midnightblue" points="293.476,-195.582 304.029,-194.646 295.196,-188.797 293.476,-195.582"/>
</g>
<!-- Node3 -->
<g id="node5" class="node"><title>Node3</title>
<a xlink:href="graph_8h.html" target="_top" xlink:title="include/fae/graph.h">
<polygon fill="none" stroke="red" points="155.747,-67.6953 155.747,-90.3047 273.959,-90.3047 273.959,-67.6953 155.747,-67.6953"/>
<text text-anchor="middle" x="214.853" y="-75.3047" font-family="Futura" font-size="11.00">include/fae/graph.h</text>
</a>
</g>
<!-- Node1&#45;&gt;Node3 -->
<g id="edge4" class="edge"><title>Node1&#45;&gt;Node3</title>
<path fill="none" stroke="midnightblue" d="M291.003,-201.509C260.513,-196.308 226.078,-184.441 206.853,-158 192.203,-137.852 202.586,-106.651 209.699,-90.4952"/>
<polygon fill="midnightblue" stroke="midnightblue" points="290.756,-205.011 301.164,-203.029 291.792,-198.088 290.756,-205.011"/>
</g>
<!-- Node4 -->
<g id="node7" class="node"><title>Node4</title>
<a xlink:href="map_8h.html" target="_top" xlink:title="include/fae/map.h">
<polygon fill="none" stroke="red" points="291.724,-67.6953 291.724,-90.3047 401.981,-90.3047 401.981,-67.6953 291.724,-67.6953"/>
<text text-anchor="middle" x="346.853" y="-75.3047" font-family="Futura" font-size="11.00">include/fae/map.h</text>
</a>
</g>
<!-- Node1&#45;&gt;Node4 -->
<g id="edge6" class="edge"><title>Node1&#45;&gt;Node4</title>
<path fill="none" stroke="midnightblue" d="M351.016,-184.073C349.937,-157.115 348.104,-111.273 347.278,-90.6305"/>
<polygon fill="midnightblue" stroke="midnightblue" points="347.53,-184.49 351.427,-194.343 354.524,-184.211 347.53,-184.49"/>
</g>
<!-- Node5 -->
<g id="node9" class="node"><title>Node5</title>
<a xlink:href="literals_8h.html" target="_top" xlink:title="include/fae/util/literals.h">
<polygon fill="none" stroke="red" points="276.328,-0.695312 276.328,-23.3047 417.378,-23.3047 417.378,-0.695312 276.328,-0.695312"/>
<text text-anchor="middle" x="346.853" y="-8.30469" font-family="Futura" font-size="11.00">include/fae/util/literals.h</text>
</a>
</g>
<!-- Node1&#45;&gt;Node5 -->
<g id="edge28" class="edge"><title>Node1&#45;&gt;Node5</title>
<path fill="none" stroke="midnightblue" d="M290.699,-200.187C173.489,-188.742 -64.2834,-153.511 16.8528,-60 49.7059,-22.1363 189.232,-13.9956 276.001,-12.6891"/>
<polygon fill="midnightblue" stroke="midnightblue" points="290.684,-203.701 300.97,-201.159 291.344,-196.732 290.684,-203.701"/>
</g>
<!-- Node6 -->
<g id="node11" class="node"><title>Node6</title>
<a xlink:href="midi_8h.html" target="_top" xlink:title="include/fae/midi.h">
<polygon fill="none" stroke="red" points="458.283,-67.6953 458.283,-90.3047 567.423,-90.3047 567.423,-67.6953 458.283,-67.6953"/>
<text text-anchor="middle" x="512.853" y="-75.3047" font-family="Futura" font-size="11.00">include/fae/midi.h</text>
</a>
</g>
<!-- Node1&#45;&gt;Node6 -->
<g id="edge10" class="edge"><title>Node1&#45;&gt;Node6</title>
<path fill="none" stroke="midnightblue" d="M412.676,-197.463C439.932,-191.127 470.459,-179.464 490.853,-158 508.782,-139.13 512.287,-106.799 512.852,-90.3167"/>
<polygon fill="midnightblue" stroke="midnightblue" points="411.859,-194.058 402.808,-199.564 413.317,-200.905 411.859,-194.058"/>
</g>
<!-- Node7 -->
<g id="node13" class="node"><title>Node7</title>
<a xlink:href="midi_8c.html" target="_top" xlink:title="src/fae/midi.c">
<polygon fill="none" stroke="black" points="510.53,-0.695312 510.53,-23.3047 597.176,-23.3047 597.176,-0.695312 510.53,-0.695312"/>
<text text-anchor="middle" x="553.853" y="-8.30469" font-family="Futura" font-size="11.00">src/fae/midi.c</text>
</a>
</g>
<!-- Node1&#45;&gt;Node7 -->
<g id="edge32" class="edge"><title>Node1&#45;&gt;Node7</title>
<path fill="none" stroke="midnightblue" d="M412.411,-194.227C443.529,-186.994 481.237,-175.506 511.853,-158 545.7,-138.646 560.353,-133.777 575.853,-98 586.942,-72.4038 570.935,-39.967 560.904,-23.5493"/>
<polygon fill="midnightblue" stroke="midnightblue" points="411.554,-190.833 402.557,-196.429 413.08,-197.664 411.554,-190.833"/>
</g>
<!-- Node8 -->
<g id="node15" class="node"><title>Node8</title>
<a xlink:href="pair_8h.html" target="_top" xlink:title="include/fae/pair.h">
<polygon fill="none" stroke="red" points="215.941,-134.695 215.941,-157.305 323.765,-157.305 323.765,-134.695 215.941,-134.695"/>
<text text-anchor="middle" x="269.853" y="-142.305" font-family="Futura" font-size="11.00">include/fae/pair.h</text>
</a>
</g>
<!-- Node1&#45;&gt;Node8 -->
<g id="edge14" class="edge"><title>Node1&#45;&gt;Node8</title>
<path fill="none" stroke="midnightblue" d="M328.918,-188.778C314.752,-178.758 296.99,-166.195 284.662,-157.475"/>
<polygon fill="midnightblue" stroke="midnightblue" points="327.008,-191.714 337.193,-194.631 331.05,-185.999 327.008,-191.714"/>
</g>
<!-- Node9 -->
<g id="node21" class="node"><title>Node9</title>
<a xlink:href="set_8h.html" target="_top" xlink:title="include/fae/set.h">
<polygon fill="none" stroke="red" points="379.844,-134.695 379.844,-157.305 481.862,-157.305 481.862,-134.695 379.844,-134.695"/>
<text text-anchor="middle" x="430.853" y="-142.305" font-family="Futura" font-size="11.00">include/fae/set.h</text>
</a>
</g>
<!-- Node1&#45;&gt;Node9 -->
<g id="edge24" class="edge"><title>Node1&#45;&gt;Node9</title>
<path fill="none" stroke="midnightblue" d="M374.336,-188.494C387.918,-178.522 404.82,-166.113 416.585,-157.475"/>
<polygon fill="midnightblue" stroke="midnightblue" points="371.966,-185.891 365.976,-194.631 376.109,-191.534 371.966,-185.891"/>
</g>
<!-- Node10 -->
<g id="node25" class="node"><title>Node10</title>
<a xlink:href="list_8c.html" target="_top" xlink:title="src/fae/list.c">
<polygon fill="none" stroke="black" points="623.443,-134.695 623.443,-157.305 702.263,-157.305 702.263,-134.695 623.443,-134.695"/>
<text text-anchor="middle" x="662.853" y="-142.305" font-family="Futura" font-size="11.00">src/fae/list.c</text>
</a>
</g>
<!-- Node1&#45;&gt;Node10 -->
<g id="edge30" class="edge"><title>Node1&#45;&gt;Node10</title>
<path fill="none" stroke="midnightblue" d="M412.955,-194.303C465.282,-185.038 542.61,-171.101 609.853,-158 614.188,-157.155 618.718,-156.25 623.225,-155.335"/>
<polygon fill="midnightblue" stroke="midnightblue" points="412.071,-190.905 402.833,-196.092 413.29,-197.798 412.071,-190.905"/>
</g>
<!-- Node4&#45;&gt;Node5 -->
<g id="edge8" class="edge"><title>Node4&#45;&gt;Node5</title>
<path fill="none" stroke="midnightblue" d="M346.853,-57.3136C346.853,-46.1093 346.853,-32.7368 346.853,-23.6334"/>
<polygon fill="midnightblue" stroke="midnightblue" points="343.353,-57.5566 346.853,-67.5566 350.353,-57.5567 343.353,-57.5566"/>
</g>
<!-- Node6&#45;&gt;Node7 -->
<g id="edge12" class="edge"><title>Node6&#45;&gt;Node7</title>
<path fill="none" stroke="midnightblue" d="M524.809,-59.0457C532.083,-47.5139 541.104,-33.2109 547.146,-23.6334"/>
<polygon fill="midnightblue" stroke="midnightblue" points="521.815,-57.2314 519.44,-67.5566 527.736,-60.9659 521.815,-57.2314"/>
</g>
<!-- Node8&#45;&gt;Node2 -->
<g id="edge16" class="edge"><title>Node8&#45;&gt;Node2</title>
<path fill="none" stroke="midnightblue" d="M230.076,-131.247C201.759,-121.457 163.464,-108.217 132.893,-97.6469"/>
<polygon fill="midnightblue" stroke="midnightblue" points="229.053,-134.597 239.647,-134.557 231.34,-127.981 229.053,-134.597"/>
</g>
<!-- Node8&#45;&gt;Node3 -->
<g id="edge18" class="edge"><title>Node8&#45;&gt;Node3</title>
<path fill="none" stroke="midnightblue" d="M254.391,-126.727C244.538,-115.082 232.115,-100.401 223.85,-90.6334"/>
<polygon fill="midnightblue" stroke="midnightblue" points="251.885,-129.184 261.016,-134.557 257.229,-124.662 251.885,-129.184"/>
</g>
<!-- Node8&#45;&gt;Node4 -->
<g id="edge20" class="edge"><title>Node8&#45;&gt;Node4</title>
<path fill="none" stroke="midnightblue" d="M289.958,-128.028C304.077,-116.109 322.511,-100.548 334.512,-90.4175"/>
<polygon fill="midnightblue" stroke="midnightblue" points="287.608,-125.432 282.224,-134.557 292.123,-130.781 287.608,-125.432"/>
</g>
<!-- Node8&#45;&gt;Node6 -->
<g id="edge22" class="edge"><title>Node8&#45;&gt;Node6</title>
<path fill="none" stroke="midnightblue" d="M318.334,-132.032C364.139,-119.779 431.955,-101.639 474.218,-90.3344"/>
<polygon fill="midnightblue" stroke="midnightblue" points="317.381,-128.663 308.626,-134.629 319.19,-135.426 317.381,-128.663"/>
</g>
<!-- Node9&#45;&gt;Node5 -->
<g id="edge26" class="edge"><title>Node9&#45;&gt;Node5</title>
<path fill="none" stroke="midnightblue" d="M429.991,-124.557C428.353,-106.289 423.732,-79.478 410.853,-60 400.284,-44.0165 382.324,-31.5338 368.115,-23.4624"/>
<polygon fill="midnightblue" stroke="midnightblue" points="426.509,-124.943 430.673,-134.685 433.494,-124.473 426.509,-124.943"/>
</g>
</g>
</svg>
