<?xml version="1.0" encoding="UTF-8" standalone="no"?>
<!DOCTYPE svg PUBLIC "-//W3C//DTD SVG 1.1//EN"
 "http://www.w3.org/Graphics/SVG/1.1/DTD/svg11.dtd">
<!-- Generated by graphviz version 2.28.0 (20121015.0031)
 -->
<!-- Title: include/fae/list.h Pages: 1 -->
<svg width="715pt" height="212pt"
 viewBox="0.00 0.00 714.66 212.00" xmlns="http://www.w3.org/2000/svg" xmlns:xlink="http://www.w3.org/1999/xlink">
<g id="graph1" class="graph" transform="scale(1 1) rotate(0) translate(4 208)">
<title>include/fae/list.h</title>
<!-- Node1 -->
<g id="node1" class="node"><title>Node1</title>
<polygon fill="#bfbfbf" stroke="black" points="306.007,-180.695 306.007,-203.305 407.321,-203.305 407.321,-180.695 306.007,-180.695"/>
<text text-anchor="middle" x="356.664" y="-188.305" font-family="Futura" font-size="11.00">include/fae/list.h</text>
</g>
<!-- Node2 -->
<g id="node3" class="node"><title>Node2</title>
<a xlink:href="audio_8h.html" target="_top" xlink:title="include/fae/audio.h">
<polygon fill="none" stroke="red" points="25.2132,-60.6953 25.2132,-83.3047 142.115,-83.3047 142.115,-60.6953 25.2132,-60.6953"/>
<text text-anchor="middle" x="83.6639" y="-68.3047" font-family="Futura" font-size="11.00">include/fae/audio.h</text>
</a>
</g>
<!-- Node1&#45;&gt;Node2 -->
<g id="edge2" class="edge"><title>Node1&#45;&gt;Node2</title>
<path fill="none" stroke="midnightblue" d="M302.239,-178.035C271.966,-169.954 233.987,-158.359 201.664,-144 162.334,-126.529 119.975,-98.5252 98.2897,-83.4378"/>
<polygon fill="midnightblue" stroke="midnightblue" points="301.631,-181.493 312.191,-180.639 303.403,-174.721 301.631,-181.493"/>
</g>
<!-- Node3 -->
<g id="node5" class="node"><title>Node3</title>
<a xlink:href="graph_8h.html" target="_top" xlink:title="include/fae/graph.h">
<polygon fill="none" stroke="red" points="160.558,-60.6953 160.558,-83.3047 278.77,-83.3047 278.77,-60.6953 160.558,-60.6953"/>
<text text-anchor="middle" x="219.664" y="-68.3047" font-family="Futura" font-size="11.00">include/fae/graph.h</text>
</a>
</g>
<!-- Node1&#45;&gt;Node3 -->
<g id="edge4" class="edge"><title>Node1&#45;&gt;Node3</title>
<path fill="none" stroke="midnightblue" d="M295.814,-187.509C265.324,-182.308 230.889,-170.441 211.664,-144 198.606,-126.041 207.72,-98.4843 214.384,-83.5318"/>
<polygon fill="midnightblue" stroke="midnightblue" points="295.567,-191.011 305.975,-189.029 296.603,-184.088 295.567,-191.011"/>
</g>
<!-- Node4 -->
<g id="node7" class="node"><title>Node4</title>
<a xlink:href="map_8h.html" target="_top" xlink:title="include/fae/map.h">
<polygon fill="none" stroke="red" points="296.535,-60.6953 296.535,-83.3047 406.793,-83.3047 406.793,-60.6953 296.535,-60.6953"/>
<text text-anchor="middle" x="351.664" y="-68.3047" font-family="Futura" font-size="11.00">include/fae/map.h</text>
</a>
</g>
<!-- Node1&#45;&gt;Node4 -->
<g id="edge6" class="edge"><title>Node1&#45;&gt;Node4</title>
<path fill="none" stroke="midnightblue" d="M355.797,-170.534C354.725,-145.25 352.943,-103.187 352.114,-83.6179"/>
<polygon fill="midnightblue" stroke="midnightblue" points="352.3,-170.685 356.22,-180.528 359.294,-170.389 352.3,-170.685"/>
</g>
<!-- Node5 -->
<g id="node9" class="node"><title>Node5</title>
<a xlink:href="literals_8h.html" target="_top" xlink:title="include/fae/util/literals.h">
<polygon fill="none" stroke="red" points="281.139,-0.695312 281.139,-23.3047 422.189,-23.3047 422.189,-0.695312 281.139,-0.695312"/>
<text text-anchor="middle" x="351.664" y="-8.30469" font-family="Futura" font-size="11.00">include/fae/util/literals.h</text>
</a>
</g>
<!-- Node1&#45;&gt;Node5 -->
<g id="edge28" class="edge"><title>Node1&#45;&gt;Node5</title>
<path fill="none" stroke="midnightblue" d="M295.608,-188.18C177.321,-180.59 -64.6029,-153.464 16.6639,-60 50.1895,-21.4425 192.903,-13.5862 280.889,-12.5094"/>
<polygon fill="midnightblue" stroke="midnightblue" points="295.429,-191.675 305.624,-188.795 295.858,-184.688 295.429,-191.675"/>
</g>
<!-- Node6 -->
<g id="node11" class="node"><title>Node6</title>
<a xlink:href="midi_8h.html" target="_top" xlink:title="include/fae/midi.h">
<polygon fill="none" stroke="red" points="463.094,-60.6953 463.094,-83.3047 572.234,-83.3047 572.234,-60.6953 463.094,-60.6953"/>
<text text-anchor="middle" x="517.664" y="-68.3047" font-family="Futura" font-size="11.00">include/fae/midi.h</text>
</a>
</g>
<!-- Node1&#45;&gt;Node6 -->
<g id="edge10" class="edge"><title>Node1&#45;&gt;Node6</title>
<path fill="none" stroke="midnightblue" d="M417.244,-183.228C444.445,-176.84 474.998,-165.202 495.664,-144 511.967,-127.274 516.214,-98.7072 517.303,-83.4044"/>
<polygon fill="midnightblue" stroke="midnightblue" points="416.435,-179.822 407.398,-185.352 417.911,-186.664 416.435,-179.822"/>
</g>
<!-- Node7 -->
<g id="node13" class="node"><title>Node7</title>
<a xlink:href="midi_8c.html" target="_top" xlink:title="src/fae/midi.c">
<polygon fill="none" stroke="black" points="515.341,-0.695312 515.341,-23.3047 601.987,-23.3047 601.987,-0.695312 515.341,-0.695312"/>
<text text-anchor="middle" x="558.664" y="-8.30469" font-family="Futura" font-size="11.00">src/fae/midi.c</text>
</a>
</g>
<!-- Node1&#45;&gt;Node7 -->
<g id="edge32" class="edge"><title>Node1&#45;&gt;Node7</title>
<path fill="none" stroke="midnightblue" d="M417.311,-180.469C448.705,-173.285 486.813,-161.768 517.664,-144 551.171,-124.703 565.432,-119.54 580.664,-84 589.611,-63.1243 575.857,-37.3941 566.388,-23.3514"/>
<polygon fill="midnightblue" stroke="midnightblue" points="416.388,-177.088 407.371,-182.651 417.889,-183.925 416.388,-177.088"/>
</g>
<!-- Node8 -->
<g id="node15" class="node"><title>Node8</title>
<a xlink:href="pair_8h.html" target="_top" xlink:title="include/fae/pair.h">
<polygon fill="none" stroke="red" points="220.752,-120.695 220.752,-143.305 328.576,-143.305 328.576,-120.695 220.752,-120.695"/>
<text text-anchor="middle" x="274.664" y="-128.305" font-family="Futura" font-size="11.00">include/fae/pair.h</text>
</a>
</g>
<!-- Node1&#45;&gt;Node8 -->
<g id="edge14" class="edge"><title>Node1&#45;&gt;Node8</title>
<path fill="none" stroke="midnightblue" d="M333.729,-174.778C319.564,-164.758 301.802,-152.195 289.473,-143.475"/>
<polygon fill="midnightblue" stroke="midnightblue" points="331.819,-177.714 342.004,-180.631 335.861,-171.999 331.819,-177.714"/>
</g>
<!-- Node9 -->
<g id="node21" class="node"><title>Node9</title>
<a xlink:href="set_8h.html" target="_top" xlink:title="include/fae/set.h">
<polygon fill="none" stroke="red" points="384.655,-120.695 384.655,-143.305 486.673,-143.305 486.673,-120.695 384.655,-120.695"/>
<text text-anchor="middle" x="435.664" y="-128.305" font-family="Futura" font-size="11.00">include/fae/set.h</text>
</a>
</g>
<!-- Node1&#45;&gt;Node9 -->
<g id="edge24" class="edge"><title>Node1&#45;&gt;Node9</title>
<path fill="none" stroke="midnightblue" d="M379.147,-174.494C392.729,-164.522 409.631,-152.113 421.396,-143.475"/>
<polygon fill="midnightblue" stroke="midnightblue" points="376.777,-171.891 370.787,-180.631 380.92,-177.534 376.777,-171.891"/>
</g>
<!-- Node10 -->
<g id="node25" class="node"><title>Node10</title>
<a xlink:href="list_8c.html" target="_top" xlink:title="src/fae/list.c">
<polygon fill="none" stroke="black" points="628.254,-120.695 628.254,-143.305 707.074,-143.305 707.074,-120.695 628.254,-120.695"/>
<text text-anchor="middle" x="667.664" y="-128.305" font-family="Futura" font-size="11.00">src/fae/list.c</text>
</a>
</g>
<!-- Node1&#45;&gt;Node10 -->
<g id="edge30" class="edge"><title>Node1&#45;&gt;Node10</title>
<path fill="none" stroke="midnightblue" d="M417.766,-180.303C470.093,-171.038 547.422,-157.101 614.664,-144 618.999,-143.155 623.529,-142.25 628.036,-141.335"/>
<polygon fill="midnightblue" stroke="midnightblue" points="416.882,-176.905 407.644,-182.092 418.101,-183.798 416.882,-176.905"/>
</g>
<!-- Node4&#45;&gt;Node5 -->
<g id="edge8" class="edge"><title>Node4&#45;&gt;Node5</title>
<path fill="none" stroke="midnightblue" d="M351.664,-50.4586C351.664,-41.4112 351.664,-31.1602 351.664,-23.6719"/>
<polygon fill="midnightblue" stroke="midnightblue" points="348.164,-50.6307 351.664,-60.6308 355.164,-50.6308 348.164,-50.6307"/>
</g>
<!-- Node6&#45;&gt;Node7 -->
<g id="edge12" class="edge"><title>Node6&#45;&gt;Node7</title>
<path fill="none" stroke="midnightblue" d="M530.931,-52.2313C537.616,-42.775 545.477,-31.6539 551.12,-23.6719"/>
<polygon fill="midnightblue" stroke="midnightblue" points="527.908,-50.4446 524.994,-60.6308 533.624,-54.4853 527.908,-50.4446"/>
</g>
<!-- Node8&#45;&gt;Node2 -->
<g id="edge16" class="edge"><title>Node8&#45;&gt;Node2</title>
<path fill="none" stroke="midnightblue" d="M230.75,-117.665C196.422,-107.241 149.39,-92.9586 117.837,-83.3771"/>
<polygon fill="midnightblue" stroke="midnightblue" points="229.931,-121.074 240.517,-120.631 231.965,-114.376 229.931,-121.074"/>
</g>
<!-- Node8&#45;&gt;Node3 -->
<g id="edge18" class="edge"><title>Node8&#45;&gt;Node3</title>
<path fill="none" stroke="midnightblue" d="M257.693,-113.104C248.554,-103.466 237.587,-91.9008 229.784,-83.6719"/>
<polygon fill="midnightblue" stroke="midnightblue" points="255.41,-115.783 264.831,-120.631 260.49,-110.966 255.41,-115.783"/>
</g>
<!-- Node8&#45;&gt;Node4 -->
<g id="edge20" class="edge"><title>Node8&#45;&gt;Node4</title>
<path fill="none" stroke="midnightblue" d="M296.577,-114.494C309.816,-104.522 326.29,-92.1126 337.757,-83.475"/>
<polygon fill="midnightblue" stroke="midnightblue" points="294.312,-111.818 288.43,-120.631 298.523,-117.41 294.312,-111.818"/>
</g>
<!-- Node8&#45;&gt;Node6 -->
<g id="edge22" class="edge"><title>Node8&#45;&gt;Node6</title>
<path fill="none" stroke="midnightblue" d="M328.022,-118.264C371.888,-107.794 433.269,-93.1437 474.187,-83.3771"/>
<polygon fill="midnightblue" stroke="midnightblue" points="327.022,-114.905 318.107,-120.631 328.647,-121.713 327.022,-114.905"/>
</g>
<!-- Node9&#45;&gt;Node5 -->
<g id="edge26" class="edge"><title>Node9&#45;&gt;Node5</title>
<path fill="none" stroke="midnightblue" d="M433.452,-110.143C431.031,-95.1127 426.01,-74.9304 415.664,-60 404.672,-44.1367 386.561,-31.5675 372.406,-23.4337"/>
<polygon fill="midnightblue" stroke="midnightblue" points="430.038,-111.018 434.841,-120.461 436.975,-110.083 430.038,-111.018"/>
</g>
</g>
</svg>
