<?xml version="1.0" encoding="UTF-8" standalone="no"?>
<!DOCTYPE svg PUBLIC "-//W3C//DTD SVG 1.1//EN"
 "http://www.w3.org/Graphics/SVG/1.1/DTD/svg11.dtd">
<!-- Generated by graphviz version 2.28.0 (20121015.0031)
 -->
<!-- Title: include/fa/list.h Pages: 1 -->
<svg width="517pt" height="392pt"
 viewBox="0.00 0.00 517.00 392.00" xmlns="http://www.w3.org/2000/svg" xmlns:xlink="http://www.w3.org/1999/xlink">
<g id="graph1" class="graph" transform="scale(1 1) rotate(0) translate(4 388)">
<title>include/fa/list.h</title>
<!-- Node1 -->
<g id="node1" class="node"><title>Node1</title>
<polygon fill="#bfbfbf" stroke="black" points="230.385,-360.695 230.385,-383.305 325.615,-383.305 325.615,-360.695 230.385,-360.695"/>
<text text-anchor="middle" x="278" y="-368.305" font-family="Futura" font-size="11.00">include/fa/list.h</text>
</g>
<!-- Node2 -->
<g id="node3" class="node"><title>Node2</title>
<a xlink:href="action_8h.html" target="_top" xlink:title="include/fa/action.h">
<polygon fill="none" stroke="black" points="128.746,-300.695 128.746,-323.305 241.254,-323.305 241.254,-300.695 128.746,-300.695"/>
<text text-anchor="middle" x="185" y="-308.305" font-family="Futura" font-size="11.00">include/fa/action.h</text>
</a>
</g>
<!-- Node1&#45;&gt;Node2 -->
<g id="edge2" class="edge"><title>Node1&#45;&gt;Node2</title>
<path fill="none" stroke="midnightblue" d="M252.442,-355.061C236.303,-344.996 215.91,-332.277 201.796,-323.475"/>
<polygon fill="midnightblue" stroke="midnightblue" points="251.036,-358.309 261.373,-360.631 254.74,-352.369 251.036,-358.309"/>
</g>
<!-- Node3 -->
<g id="node5" class="node"><title>Node3</title>
<a xlink:href="audio_8h.html" target="_top" xlink:title="include/fa/audio.h">
<polygon fill="none" stroke="black" points="74.592,-240.695 74.592,-263.305 185.408,-263.305 185.408,-240.695 74.592,-240.695"/>
<text text-anchor="middle" x="130" y="-248.305" font-family="Futura" font-size="11.00">include/fa/audio.h</text>
</a>
</g>
<!-- Node1&#45;&gt;Node3 -->
<g id="edge44" class="edge"><title>Node1&#45;&gt;Node3</title>
<path fill="none" stroke="midnightblue" d="M220.009,-370.077C185.012,-366.141 142.892,-354.693 120,-324 106.604,-306.039 116.99,-278.234 124.337,-263.308"/>
<polygon fill="midnightblue" stroke="midnightblue" points="219.855,-373.578 230.14,-371.035 220.513,-366.609 219.855,-373.578"/>
</g>
<!-- Node4 -->
<g id="node7" class="node"><title>Node4</title>
<a xlink:href="fa_2fa_8h.html" target="_top" xlink:title="include/fa/fa.h">
<polygon fill="none" stroke="red" points="199.846,-180.695 199.846,-203.305 292.154,-203.305 292.154,-180.695 199.846,-180.695"/>
<text text-anchor="middle" x="246" y="-188.305" font-family="Futura" font-size="11.00">include/fa/fa.h</text>
</a>
</g>
<!-- Node1&#45;&gt;Node4 -->
<g id="edge46" class="edge"><title>Node1&#45;&gt;Node4</title>
<path fill="none" stroke="midnightblue" d="M269.88,-350.75C259.692,-312.757 245.547,-232.036 244.484,-203.368"/>
<polygon fill="midnightblue" stroke="midnightblue" points="266.61,-352.037 272.766,-360.661 273.331,-350.081 266.61,-352.037"/>
</g>
<!-- Node7 -->
<g id="node15" class="node"><title>Node7</title>
<a xlink:href="midi_8h.html" target="_top" xlink:title="include/fa/midi.h">
<polygon fill="none" stroke="black" points="71.4727,-60.6953 71.4727,-83.3047 174.527,-83.3047 174.527,-60.6953 71.4727,-60.6953"/>
<text text-anchor="middle" x="123" y="-68.3047" font-family="Futura" font-size="11.00">include/fa/midi.h</text>
</a>
</g>
<!-- Node1&#45;&gt;Node7 -->
<g id="edge50" class="edge"><title>Node1&#45;&gt;Node7</title>
<path fill="none" stroke="midnightblue" d="M220.086,-370.974C138.615,-367.543 0,-347.78 0,-253 0,-253 0,-253 0,-191 0,-137.143 62.1682,-100.223 98.1091,-83.3786"/>
<polygon fill="midnightblue" stroke="midnightblue" points="220.094,-374.476 230.21,-371.329 220.339,-367.48 220.094,-374.476"/>
</g>
<!-- Node8 -->
<g id="node19" class="node"><title>Node8</title>
<a xlink:href="map_8h.html" target="_top" xlink:title="include/fa/map.h">
<polygon fill="none" stroke="black" points="349.914,-60.6953 349.914,-83.3047 454.086,-83.3047 454.086,-60.6953 349.914,-60.6953"/>
<text text-anchor="middle" x="402" y="-68.3047" font-family="Futura" font-size="11.00">include/fa/map.h</text>
</a>
</g>
<!-- Node1&#45;&gt;Node8 -->
<g id="edge48" class="edge"><title>Node1&#45;&gt;Node8</title>
<path fill="none" stroke="midnightblue" d="M329.489,-357.475C377.58,-341.364 442,-309.279 442,-253 442,-253 442,-253 442,-191 442,-149.252 419.265,-103.384 408.075,-83.3366"/>
<polygon fill="midnightblue" stroke="midnightblue" points="328.262,-354.193 319.808,-360.581 330.4,-360.859 328.262,-354.193"/>
</g>
<!-- Node9 -->
<g id="node21" class="node"><title>Node9</title>
<a xlink:href="literals_8h.html" target="_top" xlink:title="include/fa/util/literals.h">
<polygon fill="none" stroke="red" points="374.518,-0.695312 374.518,-23.3047 509.482,-23.3047 509.482,-0.695312 374.518,-0.695312"/>
<text text-anchor="middle" x="442" y="-8.30469" font-family="Futura" font-size="11.00">include/fa/util/literals.h</text>
</a>
</g>
<!-- Node1&#45;&gt;Node9 -->
<g id="edge54" class="edge"><title>Node1&#45;&gt;Node9</title>
<path fill="none" stroke="midnightblue" d="M336.019,-362.663C396.325,-350.336 482,-320.879 482,-253 482,-253 482,-253 482,-131 482,-89.2519 459.265,-43.3839 448.075,-23.3366"/>
<polygon fill="midnightblue" stroke="midnightblue" points="334.982,-359.299 325.829,-364.635 336.312,-366.171 334.982,-359.299"/>
</g>
<!-- Node10 -->
<g id="node23" class="node"><title>Node10</title>
<a xlink:href="pair_8h.html" target="_top" xlink:title="include/fa/pair.h">
<polygon fill="none" stroke="red" points="274.131,-120.695 274.131,-143.305 375.869,-143.305 375.869,-120.695 274.131,-120.695"/>
<text text-anchor="middle" x="325" y="-128.305" font-family="Futura" font-size="11.00">include/fa/pair.h</text>
</a>
</g>
<!-- Node1&#45;&gt;Node10 -->
<g id="edge52" class="edge"><title>Node1&#45;&gt;Node10</title>
<path fill="none" stroke="midnightblue" d="M283.736,-350.69C286.041,-342.422 288.692,-332.767 291,-324 304.995,-270.837 312.751,-258.352 321,-204 324.224,-182.761 324.913,-157.594 325.024,-143.65"/>
<polygon fill="midnightblue" stroke="midnightblue" points="280.297,-349.993 280.966,-360.566 287.037,-351.883 280.297,-349.993"/>
</g>
<!-- Node2&#45;&gt;Node3 -->
<g id="edge4" class="edge"><title>Node2&#45;&gt;Node3</title>
<path fill="none" stroke="midnightblue" d="M168.029,-293.104C158.89,-283.466 147.923,-271.901 140.12,-263.672"/>
<polygon fill="midnightblue" stroke="midnightblue" points="165.746,-295.783 175.167,-300.631 170.826,-290.966 165.746,-295.783"/>
</g>
<!-- Node2&#45;&gt;Node4 -->
<g id="edge40" class="edge"><title>Node2&#45;&gt;Node4</title>
<path fill="none" stroke="midnightblue" d="M190.035,-291.21C200.667,-266.007 223.087,-223.363 236.441,-203.618"/>
<polygon fill="midnightblue" stroke="midnightblue" points="186.773,-289.941 186.366,-300.528 193.286,-292.506 186.773,-289.941"/>
</g>
<!-- Node2&#45;&gt;Node7 -->
<g id="edge42" class="edge"><title>Node2&#45;&gt;Node7</title>
<path fill="none" stroke="midnightblue" d="M119.167,-299.233C99.0052,-292.326 78.7922,-281.371 66,-264 27.9754,-212.365 27.6167,-176.997 57,-120 65.6372,-103.246 83.3155,-91.1538 98.2034,-83.4337"/>
<polygon fill="midnightblue" stroke="midnightblue" points="118.124,-302.574 128.713,-302.22 120.215,-295.894 118.124,-302.574"/>
</g>
<!-- Node3&#45;&gt;Node4 -->
<g id="edge6" class="edge"><title>Node3&#45;&gt;Node4</title>
<path fill="none" stroke="midnightblue" d="M159.92,-236.04C180.336,-225.832 206.87,-212.565 225.05,-203.475"/>
<polygon fill="midnightblue" stroke="midnightblue" points="158.117,-233.028 150.738,-240.631 161.248,-239.289 158.117,-233.028"/>
</g>
<!-- Node4&#45;&gt;Node1 -->
<g id="edge20" class="edge"><title>Node4&#45;&gt;Node1</title>
<path fill="none" stroke="midnightblue" d="M254.13,-213.288C264.321,-251.309 278.463,-332.027 279.517,-360.661"/>
<polygon fill="midnightblue" stroke="midnightblue" points="257.398,-211.992 251.244,-203.368 250.677,-213.948 257.398,-211.992"/>
</g>
<!-- Node4&#45;&gt;Node2 -->
<g id="edge8" class="edge"><title>Node4&#45;&gt;Node2</title>
<path fill="none" stroke="midnightblue" d="M240.886,-212.978C230.196,-238.267 207.769,-280.897 194.46,-300.528"/>
<polygon fill="midnightblue" stroke="midnightblue" points="244.164,-214.204 244.581,-203.618 237.653,-211.634 244.164,-214.204"/>
</g>
<!-- Node5 -->
<g id="node10" class="node"><title>Node5</title>
<a xlink:href="buffer_8h.html" target="_top" xlink:title="include/fa/buffer.h">
<polygon fill="none" stroke="red" points="206.227,-60.6953 206.227,-83.3047 317.773,-83.3047 317.773,-60.6953 206.227,-60.6953"/>
<text text-anchor="middle" x="262" y="-68.3047" font-family="Futura" font-size="11.00">include/fa/buffer.h</text>
</a>
</g>
<!-- Node4&#45;&gt;Node5 -->
<g id="edge10" class="edge"><title>Node4&#45;&gt;Node5</title>
<path fill="none" stroke="midnightblue" d="M248.775,-170.534C252.203,-145.25 257.907,-103.187 260.56,-83.6179"/>
<polygon fill="midnightblue" stroke="midnightblue" points="245.295,-170.149 247.42,-180.528 252.232,-171.089 245.295,-170.149"/>
</g>
<!-- Node6 -->
<g id="node12" class="node"><title>Node6</title>
<a xlink:href="device_8h.html" target="_top" xlink:title="include/fa/device.h">
<polygon fill="none" stroke="black" points="65.8169,-120.695 65.8169,-143.305 180.183,-143.305 180.183,-120.695 65.8169,-120.695"/>
<text text-anchor="middle" x="123" y="-128.305" font-family="Futura" font-size="11.00">include/fa/device.h</text>
</a>
</g>
<!-- Node4&#45;&gt;Node6 -->
<g id="edge12" class="edge"><title>Node4&#45;&gt;Node6</title>
<path fill="none" stroke="midnightblue" d="M214.86,-176.316C193.136,-166.072 164.666,-152.647 145.214,-143.475"/>
<polygon fill="midnightblue" stroke="midnightblue" points="213.472,-179.531 224.01,-180.631 216.458,-173.2 213.472,-179.531"/>
</g>
<!-- Node4&#45;&gt;Node8 -->
<g id="edge22" class="edge"><title>Node4&#45;&gt;Node8</title>
<path fill="none" stroke="midnightblue" d="M302.315,-184.567C330.489,-178.516 362.977,-166.775 384,-144 399.612,-127.087 402.146,-98.5978 402.29,-83.3563"/>
<polygon fill="midnightblue" stroke="midnightblue" points="301.304,-181.198 292.159,-186.549 302.645,-188.069 301.304,-181.198"/>
</g>
<!-- Node4&#45;&gt;Node10 -->
<g id="edge26" class="edge"><title>Node4&#45;&gt;Node10</title>
<path fill="none" stroke="midnightblue" d="M262.684,-174.208C275.23,-164.286 292.206,-152.03 305.397,-143.475"/>
<polygon fill="midnightblue" stroke="midnightblue" points="260.346,-171.599 254.808,-180.631 264.77,-177.024 260.346,-171.599"/>
</g>
<!-- Node6&#45;&gt;Node3 -->
<g id="edge14" class="edge"><title>Node6&#45;&gt;Node3</title>
<path fill="none" stroke="midnightblue" d="M124.225,-153.656C125.73,-179.023 128.225,-221.071 129.379,-240.528"/>
<polygon fill="midnightblue" stroke="midnightblue" points="127.716,-153.393 123.63,-143.618 120.728,-153.808 127.716,-153.393"/>
</g>
<!-- Node6&#45;&gt;Node7 -->
<g id="edge16" class="edge"><title>Node6&#45;&gt;Node7</title>
<path fill="none" stroke="midnightblue" d="M123,-110.459C123,-101.411 123,-91.1602 123,-83.6719"/>
<polygon fill="midnightblue" stroke="midnightblue" points="119.5,-110.631 123,-120.631 126.5,-110.631 119.5,-110.631"/>
</g>
<!-- Node7&#45;&gt;Node4 -->
<g id="edge18" class="edge"><title>Node7&#45;&gt;Node4</title>
<path fill="none" stroke="midnightblue" d="M148.986,-89.082C161.686,-97.5285 176.818,-108.5 189,-120 209.461,-139.314 229.025,-166.095 239.048,-180.622"/>
<polygon fill="midnightblue" stroke="midnightblue" points="150.538,-85.9168 140.245,-83.4066 146.726,-91.7879 150.538,-85.9168"/>
</g>
<!-- Node8&#45;&gt;Node9 -->
<g id="edge24" class="edge"><title>Node8&#45;&gt;Node9</title>
<path fill="none" stroke="midnightblue" d="M414.944,-52.2313C421.465,-42.775 429.135,-31.6539 434.64,-23.6719"/>
<polygon fill="midnightblue" stroke="midnightblue" points="411.947,-50.4115 409.151,-60.6308 417.71,-54.3857 411.947,-50.4115"/>
</g>
<!-- Node10&#45;&gt;Node2 -->
<g id="edge28" class="edge"><title>Node10&#45;&gt;Node2</title>
<path fill="none" stroke="midnightblue" d="M320.824,-153.458C317.165,-168.291 310.864,-188.401 301,-204 274.056,-246.608 225.918,-283.243 200.972,-300.48"/>
<polygon fill="midnightblue" stroke="midnightblue" points="324.328,-153.831 323.121,-143.305 317.5,-152.286 324.328,-153.831"/>
</g>
<!-- Node10&#45;&gt;Node3 -->
<g id="edge30" class="edge"><title>Node10&#45;&gt;Node3</title>
<path fill="none" stroke="midnightblue" d="M267.225,-146.079C242.36,-153.463 213.826,-164.412 191,-180 166.71,-196.589 146.274,-225.212 136.385,-240.56"/>
<polygon fill="midnightblue" stroke="midnightblue" points="268.25,-149.426 276.911,-143.325 266.335,-142.693 268.25,-149.426"/>
</g>
<!-- Node10&#45;&gt;Node4 -->
<g id="edge34" class="edge"><title>Node10&#45;&gt;Node4</title>
<path fill="none" stroke="midnightblue" d="M307.925,-150.1C295.367,-160.009 278.517,-172.159 265.439,-180.631"/>
<polygon fill="midnightblue" stroke="midnightblue" points="310.282,-152.695 315.834,-143.672 305.867,-147.263 310.282,-152.695"/>
</g>
<!-- Node10&#45;&gt;Node5 -->
<g id="edge32" class="edge"><title>Node10&#45;&gt;Node5</title>
<path fill="none" stroke="midnightblue" d="M306.187,-113.68C295.596,-103.93 282.709,-92.0654 273.592,-83.6719"/>
<polygon fill="midnightblue" stroke="midnightblue" points="304.009,-116.433 313.737,-120.631 308.75,-111.283 304.009,-116.433"/>
</g>
<!-- Node10&#45;&gt;Node7 -->
<g id="edge38" class="edge"><title>Node10&#45;&gt;Node7</title>
<path fill="none" stroke="midnightblue" d="M279.023,-117.799C242.68,-107.363 192.654,-92.9997 159.141,-83.3771"/>
<polygon fill="midnightblue" stroke="midnightblue" points="278.309,-121.235 288.886,-120.631 280.241,-114.507 278.309,-121.235"/>
</g>
<!-- Node10&#45;&gt;Node8 -->
<g id="edge36" class="edge"><title>Node10&#45;&gt;Node8</title>
<path fill="none" stroke="midnightblue" d="M346.914,-114.494C360.152,-104.522 376.626,-92.1126 388.094,-83.475"/>
<polygon fill="midnightblue" stroke="midnightblue" points="344.648,-111.818 338.766,-120.631 348.859,-117.41 344.648,-111.818"/>
</g>
</g>
</svg>
