<?xml version="1.0" encoding="UTF-8" standalone="no"?>
<!DOCTYPE svg PUBLIC "-//W3C//DTD SVG 1.1//EN"
 "http://www.w3.org/Graphics/SVG/1.1/DTD/svg11.dtd">
<!-- Generated by graphviz version 2.28.0 (20121015.0031)
 -->
<!-- Title: src/fae/list.c Pages: 1 -->
<svg width="656pt" height="272pt"
 viewBox="0.00 0.00 656.00 272.00" xmlns="http://www.w3.org/2000/svg" xmlns:xlink="http://www.w3.org/1999/xlink">
<g id="graph1" class="graph" transform="scale(1 1) rotate(0) translate(4 268)">
<title>src/fae/list.c</title>
<!-- Node1 -->
<g id="node1" class="node"><title>Node1</title>
<polygon fill="#bfbfbf" stroke="black" points="91.5898,-240.695 91.5898,-263.305 170.41,-263.305 170.41,-240.695 91.5898,-240.695"/>
<text text-anchor="middle" x="131" y="-248.305" font-family="Futura" font-size="11.00">src/fae/list.c</text>
</g>
<!-- Node2 -->
<g id="node3" class="node"><title>Node2</title>
<a xlink:href="list_8h.html" target="_top" xlink:title="fae/list.h">
<polygon fill="none" stroke="black" points="137.906,-60.6953 137.906,-83.3047 198.094,-83.3047 198.094,-60.6953 137.906,-60.6953"/>
<text text-anchor="middle" x="168" y="-68.3047" font-family="Futura" font-size="11.00">fae/list.h</text>
</a>
</g>
<!-- Node1&#45;&gt;Node2 -->
<g id="edge2" class="edge"><title>Node1&#45;&gt;Node2</title>
<path fill="none" stroke="midnightblue" d="M135.526,-240.36C139.363,-230.954 144.746,-216.781 148,-204 157.79,-165.546 163.466,-119.444 166.129,-93.4546"/>
<polygon fill="midnightblue" stroke="midnightblue" points="169.629,-93.6205 167.116,-83.328 162.662,-92.9411 169.629,-93.6205"/>
</g>
<!-- Node4 -->
<g id="node7" class="node"><title>Node4</title>
<a xlink:href="string_8h.html" target="_top" xlink:title="fae/string.h">
<polygon fill="none" stroke="black" points="-0.173096,-120.695 -0.173096,-143.305 74.1731,-143.305 74.1731,-120.695 -0.173096,-120.695"/>
<text text-anchor="middle" x="37" y="-128.305" font-family="Futura" font-size="11.00">fae/string.h</text>
</a>
</g>
<!-- Node1&#45;&gt;Node4 -->
<g id="edge6" class="edge"><title>Node1&#45;&gt;Node4</title>
<path fill="none" stroke="midnightblue" d="M91.9581,-240.527C73.3006,-233.404 52.5619,-221.923 41,-204 31.4142,-189.14 31.3028,-168.682 33.0647,-153.542"/>
<polygon fill="midnightblue" stroke="midnightblue" points="36.5313,-154.026 34.5701,-143.614 29.6104,-152.976 36.5313,-154.026"/>
</g>
<!-- Node5 -->
<g id="node10" class="node"><title>Node5</title>
<a xlink:href="dynamic_8h.html" target="_top" xlink:title="fae/dynamic.h">
<polygon fill="none" stroke="black" points="50.439,-180.695 50.439,-203.305 139.561,-203.305 139.561,-180.695 50.439,-180.695"/>
<text text-anchor="middle" x="95" y="-188.305" font-family="Futura" font-size="11.00">fae/dynamic.h</text>
</a>
</g>
<!-- Node1&#45;&gt;Node5 -->
<g id="edge10" class="edge"><title>Node1&#45;&gt;Node5</title>
<path fill="none" stroke="midnightblue" d="M124.564,-240.631C119.71,-232.811 112.911,-221.856 107.056,-212.424"/>
<polygon fill="midnightblue" stroke="midnightblue" points="109.871,-210.323 101.624,-203.672 103.924,-214.014 109.871,-210.323"/>
</g>
<!-- Node6 -->
<g id="node14" class="node"><title>Node6</title>
<a xlink:href="util_8h.html" target="_top" xlink:title="fae/util.h">
<polygon fill="none" stroke="red" points="328.141,-180.695 328.141,-203.305 389.859,-203.305 389.859,-180.695 328.141,-180.695"/>
<text text-anchor="middle" x="359" y="-188.305" font-family="Futura" font-size="11.00">fae/util.h</text>
</a>
</g>
<!-- Node1&#45;&gt;Node6 -->
<g id="edge16" class="edge"><title>Node1&#45;&gt;Node6</title>
<path fill="none" stroke="midnightblue" d="M170.454,-240.963C211.783,-230.45 276.389,-214.015 318.211,-203.376"/>
<polygon fill="midnightblue" stroke="midnightblue" points="319.237,-206.727 328.065,-200.869 317.511,-199.943 319.237,-206.727"/>
</g>
<!-- Node3 -->
<g id="node5" class="node"><title>Node3</title>
<a xlink:href="fae_2fae_8h.html" target="_top" xlink:title="fae.h">
<polygon fill="none" stroke="red" points="81.2302,-0.695312 81.2302,-23.3047 122.77,-23.3047 122.77,-0.695312 81.2302,-0.695312"/>
<text text-anchor="middle" x="102" y="-8.30469" font-family="Futura" font-size="11.00">fae.h</text>
</a>
</g>
<!-- Node2&#45;&gt;Node3 -->
<g id="edge4" class="edge"><title>Node2&#45;&gt;Node3</title>
<path fill="none" stroke="midnightblue" d="M156.201,-60.6308C146.653,-52.2405 132.999,-40.242 121.785,-30.3869"/>
<polygon fill="midnightblue" stroke="midnightblue" points="123.966,-27.644 114.144,-23.6719 119.345,-32.9021 123.966,-27.644"/>
</g>
<!-- Node4&#45;&gt;Node3 -->
<g id="edge8" class="edge"><title>Node4&#45;&gt;Node3</title>
<path fill="none" stroke="midnightblue" d="M42.7683,-120.528C53.6303,-100.81 77.2739,-57.8874 91.1805,-32.6415"/>
<polygon fill="midnightblue" stroke="midnightblue" points="94.3919,-34.0656 96.1512,-23.6179 88.2606,-30.6882 94.3919,-34.0656"/>
</g>
<!-- Node5&#45;&gt;Node3 -->
<g id="edge12" class="edge"><title>Node5&#45;&gt;Node3</title>
<path fill="none" stroke="midnightblue" d="M95.4066,-180.661C96.5278,-152.15 99.6797,-72.0012 101.183,-33.78"/>
<polygon fill="midnightblue" stroke="midnightblue" points="104.697,-33.4978 101.592,-23.368 97.7019,-33.2227 104.697,-33.4978"/>
</g>
<!-- Node5&#45;&gt;Node4 -->
<g id="edge14" class="edge"><title>Node5&#45;&gt;Node4</title>
<path fill="none" stroke="midnightblue" d="M84.6308,-180.631C76.4034,-172.403 64.7066,-160.707 54.9633,-150.963"/>
<polygon fill="midnightblue" stroke="midnightblue" points="57.2179,-148.268 47.6719,-143.672 52.2681,-153.218 57.2179,-148.268"/>
</g>
<!-- Node7 -->
<g id="node16" class="node"><title>Node7</title>
<a xlink:href="arch_8h.html" target="_top" xlink:title="fae/util/arch.h">
<polygon fill="none" stroke="black" points="314.205,-120.695 314.205,-143.305 403.795,-143.305 403.795,-120.695 314.205,-120.695"/>
<text text-anchor="middle" x="359" y="-128.305" font-family="Futura" font-size="11.00">fae/util/arch.h</text>
</a>
</g>
<!-- Node6&#45;&gt;Node7 -->
<g id="edge18" class="edge"><title>Node6&#45;&gt;Node7</title>
<path fill="none" stroke="midnightblue" d="M359,-180.631C359,-173.218 359,-162.989 359,-153.91"/>
<polygon fill="midnightblue" stroke="midnightblue" points="362.5,-153.672 359,-143.672 355.5,-153.672 362.5,-153.672"/>
</g>
<!-- Node8 -->
<g id="node18" class="node"><title>Node8</title>
<a xlink:href="alignof_8h.html" target="_top" xlink:title="fae/util/alignof.h">
<polygon fill="none" stroke="black" points="422.007,-120.695 422.007,-143.305 523.993,-143.305 523.993,-120.695 422.007,-120.695"/>
<text text-anchor="middle" x="473" y="-128.305" font-family="Futura" font-size="11.00">fae/util/alignof.h</text>
</a>
</g>
<!-- Node6&#45;&gt;Node8 -->
<g id="edge20" class="edge"><title>Node6&#45;&gt;Node8</title>
<path fill="none" stroke="midnightblue" d="M379.381,-180.631C397.184,-171.573 423.251,-158.311 443.361,-148.079"/>
<polygon fill="midnightblue" stroke="midnightblue" points="445.085,-151.129 452.411,-143.475 441.911,-144.89 445.085,-151.129"/>
</g>
<!-- Node9 -->
<g id="node20" class="node"><title>Node9</title>
<a xlink:href="minmax_8h.html" target="_top" xlink:title="fae/util/minmax.h">
<polygon fill="none" stroke="red" points="541.837,-120.695 541.837,-143.305 648.163,-143.305 648.163,-120.695 541.837,-120.695"/>
<text text-anchor="middle" x="595" y="-128.305" font-family="Futura" font-size="11.00">fae/util/minmax.h</text>
</a>
</g>
<!-- Node6&#45;&gt;Node9 -->
<g id="edge22" class="edge"><title>Node6&#45;&gt;Node9</title>
<path fill="none" stroke="midnightblue" d="M390.339,-183.298C429.238,-173.738 496.138,-157.297 542.824,-145.823"/>
<polygon fill="midnightblue" stroke="midnightblue" points="543.88,-149.168 552.756,-143.382 542.209,-142.37 543.88,-149.168"/>
</g>
<!-- Node10 -->
<g id="node22" class="node"><title>Node10</title>
<a xlink:href="literals_8h.html" target="_top" xlink:title="fae/util/literals.h">
<polygon fill="none" stroke="red" points="196.038,-120.695 196.038,-143.305 295.962,-143.305 295.962,-120.695 196.038,-120.695"/>
<text text-anchor="middle" x="246" y="-128.305" font-family="Futura" font-size="11.00">fae/util/literals.h</text>
</a>
</g>
<!-- Node6&#45;&gt;Node10 -->
<g id="edge24" class="edge"><title>Node6&#45;&gt;Node10</title>
<path fill="none" stroke="midnightblue" d="M338.798,-180.631C321.151,-171.573 295.313,-158.311 275.379,-148.079"/>
<polygon fill="midnightblue" stroke="midnightblue" points="276.903,-144.928 266.408,-143.475 273.707,-151.155 276.903,-144.928"/>
</g>
<!-- Node10&#45;&gt;Node2 -->
<g id="edge26" class="edge"><title>Node10&#45;&gt;Node2</title>
<path fill="none" stroke="midnightblue" d="M232.055,-120.631C220.481,-112.024 203.8,-99.6207 190.363,-89.6288"/>
<polygon fill="midnightblue" stroke="midnightblue" points="192.2,-86.6335 182.087,-83.475 188.023,-92.2507 192.2,-86.6335"/>
</g>
</g>
</svg>
