<?xml version="1.0" encoding="UTF-8" standalone="no"?>
<!DOCTYPE svg PUBLIC "-//W3C//DTD SVG 1.1//EN"
 "http://www.w3.org/Graphics/SVG/1.1/DTD/svg11.dtd">
<!-- Generated by graphviz version 2.28.0 (20121015.0031)
 -->
<!-- Title: include/fae/util/literals.h Pages: 1 -->
<svg width="1058pt" height="166pt"
 viewBox="0.00 0.00 1058.00 166.00" xmlns="http://www.w3.org/2000/svg" xmlns:xlink="http://www.w3.org/1999/xlink">
<g id="graph1" class="graph" transform="scale(1 1) rotate(0) translate(4 162)">
<title>include/fae/util/literals.h</title>
<!-- Node1 -->
<g id="node1" class="node"><title>Node1</title>
<polygon fill="#bfbfbf" stroke="black" points="477.475,-134.695 477.475,-157.305 618.525,-157.305 618.525,-134.695 477.475,-134.695"/>
<text text-anchor="middle" x="548" y="-142.305" font-family="Futura" font-size="11.00">include/fae/util/literals.h</text>
</g>
<!-- Node2 -->
<g id="node3" class="node"><title>Node2</title>
<a xlink:href="util_8h.html" target="_top" xlink:title="include/fae/util.h">
<polygon fill="none" stroke="red" points="496.577,-74.6953 496.577,-97.3047 599.423,-97.3047 599.423,-74.6953 496.577,-74.6953"/>
<text text-anchor="middle" x="548" y="-82.3047" font-family="Futura" font-size="11.00">include/fae/util.h</text>
</a>
</g>
<!-- Node1&#45;&gt;Node2 -->
<g id="edge2" class="edge"><title>Node1&#45;&gt;Node2</title>
<path fill="none" stroke="midnightblue" d="M548,-124.459C548,-115.411 548,-105.16 548,-97.6719"/>
<polygon fill="midnightblue" stroke="midnightblue" points="544.5,-124.631 548,-134.631 551.5,-124.631 544.5,-124.631"/>
</g>
<!-- Node3 -->
<g id="node5" class="node"><title>Node3</title>
<a xlink:href="queue_8c.html" target="_top" xlink:title="src/fae/atomic/queue.c">
<polygon fill="none" stroke="black" points="-0.710449,-7.69531 -0.710449,-30.3047 134.71,-30.3047 134.71,-7.69531 -0.710449,-7.69531"/>
<text text-anchor="middle" x="67" y="-15.3047" font-family="Futura" font-size="11.00">src/fae/atomic/queue.c</text>
</a>
</g>
<!-- Node2&#45;&gt;Node3 -->
<g id="edge4" class="edge"><title>Node2&#45;&gt;Node3</title>
<path fill="none" stroke="midnightblue" d="M486.229,-80.0957C406.529,-73.2505 263.762,-59.2329 143,-38 131.114,-35.9102 118.307,-33.0979 106.656,-30.3181"/>
<polygon fill="midnightblue" stroke="midnightblue" points="486.315,-83.6155 496.575,-80.9743 486.907,-76.6406 486.315,-83.6155"/>
</g>
<!-- Node4 -->
<g id="node7" class="node"><title>Node4</title>
<a xlink:href="ring__buffer_8c.html" target="_top" xlink:title="src/fae/atomic/ring\l_buffer.c">
<polygon fill="none" stroke="black" points="152.229,-0.390625 152.229,-37.6094 267.771,-37.6094 267.771,-0.390625 152.229,-0.390625"/>
<text text-anchor="start" x="160.229" y="-22.6094" font-family="Futura" font-size="11.00">src/fae/atomic/ring</text>
<text text-anchor="middle" x="210" y="-8" font-family="Futura" font-size="11.00">_buffer.c</text>
</a>
</g>
<!-- Node2&#45;&gt;Node4 -->
<g id="edge6" class="edge"><title>Node2&#45;&gt;Node4</title>
<path fill="none" stroke="midnightblue" d="M486.571,-75.9749C431.441,-67.4891 348.444,-53.7582 277,-38 274.06,-37.3514 271.054,-36.6579 268.025,-35.9343"/>
<polygon fill="midnightblue" stroke="midnightblue" points="486.118,-79.4462 496.532,-77.4977 487.176,-72.5266 486.118,-79.4462"/>
</g>
<!-- Node5 -->
<g id="node9" class="node"><title>Node5</title>
<a xlink:href="stack_8c.html" target="_top" xlink:title="src/fae/atomic/stack.c">
<polygon fill="none" stroke="black" points="286.061,-7.69531 286.061,-30.3047 415.939,-30.3047 415.939,-7.69531 286.061,-7.69531"/>
<text text-anchor="middle" x="351" y="-15.3047" font-family="Futura" font-size="11.00">src/fae/atomic/stack.c</text>
</a>
</g>
<!-- Node2&#45;&gt;Node5 -->
<g id="edge8" class="edge"><title>Node2&#45;&gt;Node5</title>
<path fill="none" stroke="midnightblue" d="M506.823,-71.4138C469.707,-59.1672 415.934,-41.4251 382.248,-30.3101"/>
<polygon fill="midnightblue" stroke="midnightblue" points="505.755,-74.747 516.349,-74.5566 507.949,-68.0995 505.755,-74.747"/>
</g>
<!-- Node6 -->
<g id="node11" class="node"><title>Node6</title>
<a xlink:href="buffer_8c.html" target="_top" xlink:title="src/fae/buffer.c">
<polygon fill="none" stroke="black" points="434.431,-7.69531 434.431,-30.3047 529.569,-30.3047 529.569,-7.69531 434.431,-7.69531"/>
<text text-anchor="middle" x="482" y="-15.3047" font-family="Futura" font-size="11.00">src/fae/buffer.c</text>
</a>
</g>
<!-- Node2&#45;&gt;Node6 -->
<g id="edge10" class="edge"><title>Node2&#45;&gt;Node6</title>
<path fill="none" stroke="midnightblue" d="M530.132,-67.4023C518.203,-55.6542 502.907,-40.5902 492.797,-30.6334"/>
<polygon fill="midnightblue" stroke="midnightblue" points="527.815,-70.0334 537.396,-74.5566 532.727,-65.046 527.815,-70.0334"/>
</g>
<!-- Node7 -->
<g id="node13" class="node"><title>Node7</title>
<a xlink:href="audio_8c.html" target="_top" xlink:title="src/fae/device/audio.c">
<polygon fill="none" stroke="black" points="547.904,-7.69531 547.904,-30.3047 680.096,-30.3047 680.096,-7.69531 547.904,-7.69531"/>
<text text-anchor="middle" x="614" y="-15.3047" font-family="Futura" font-size="11.00">src/fae/device/audio.c</text>
</a>
</g>
<!-- Node2&#45;&gt;Node7 -->
<g id="edge12" class="edge"><title>Node2&#45;&gt;Node7</title>
<path fill="none" stroke="midnightblue" d="M565.868,-67.4023C577.797,-55.6542 593.093,-40.5902 603.203,-30.6334"/>
<polygon fill="midnightblue" stroke="midnightblue" points="563.273,-65.046 558.604,-74.5566 568.185,-70.0334 563.273,-65.046"/>
</g>
<!-- Node8 -->
<g id="node15" class="node"><title>Node8</title>
<a xlink:href="file_8c.html" target="_top" xlink:title="src/fae/device/file.c">
<polygon fill="none" stroke="black" points="697.84,-7.69531 697.84,-30.3047 816.16,-30.3047 816.16,-7.69531 697.84,-7.69531"/>
<text text-anchor="middle" x="757" y="-15.3047" font-family="Futura" font-size="11.00">src/fae/device/file.c</text>
</a>
</g>
<!-- Node2&#45;&gt;Node8 -->
<g id="edge14" class="edge"><title>Node2&#45;&gt;Node8</title>
<path fill="none" stroke="midnightblue" d="M591.183,-71.5698C630.577,-59.3183 687.958,-41.4724 723.849,-30.3101"/>
<polygon fill="midnightblue" stroke="midnightblue" points="590.089,-68.2447 581.579,-74.5566 592.168,-74.9289 590.089,-68.2447"/>
</g>
<!-- Node9 -->
<g id="node17" class="node"><title>Node9</title>
<a xlink:href="dynamic_8c.html" target="_top" xlink:title="src/fae/dynamic.c">
<polygon fill="none" stroke="black" points="834.123,-7.69531 834.123,-30.3047 941.877,-30.3047 941.877,-7.69531 834.123,-7.69531"/>
<text text-anchor="middle" x="888" y="-15.3047" font-family="Futura" font-size="11.00">src/fae/dynamic.c</text>
</a>
</g>
<!-- Node2&#45;&gt;Node9 -->
<g id="edge16" class="edge"><title>Node2&#45;&gt;Node9</title>
<path fill="none" stroke="midnightblue" d="M609.823,-76.505C666.213,-68.2849 751.672,-54.6432 825,-38 834.651,-35.8095 845.018,-33.029 854.501,-30.3125"/>
<polygon fill="midnightblue" stroke="midnightblue" points="609.038,-73.082 599.641,-77.9763 610.039,-80.01 609.038,-73.082"/>
</g>
<!-- Node10 -->
<g id="node19" class="node"><title>Node10</title>
<a xlink:href="error_8c.html" target="_top" xlink:title="src/fae/error.c">
<polygon fill="none" stroke="black" points="959.802,-7.69531 959.802,-30.3047 1050.2,-30.3047 1050.2,-7.69531 959.802,-7.69531"/>
<text text-anchor="middle" x="1005" y="-15.3047" font-family="Futura" font-size="11.00">src/fae/error.c</text>
</a>
</g>
<!-- Node2&#45;&gt;Node10 -->
<g id="edge18" class="edge"><title>Node2&#45;&gt;Node10</title>
<path fill="none" stroke="midnightblue" d="M609.952,-81.6092C689.454,-76.3817 831.283,-64.0911 950,-38 958.93,-36.0375 968.461,-33.1957 977.037,-30.3478"/>
<polygon fill="midnightblue" stroke="midnightblue" points="609.384,-78.1384 599.629,-82.2712 609.832,-85.124 609.384,-78.1384"/>
</g>
</g>
</svg>
