<?xml version="1.0" encoding="UTF-8" standalone="no"?>
<!DOCTYPE svg PUBLIC "-//W3C//DTD SVG 1.1//EN"
 "http://www.w3.org/Graphics/SVG/1.1/DTD/svg11.dtd">
<!-- Generated by graphviz version 2.28.0 (20121015.0031)
 -->
<!-- Title: include/fae/util/literals.h Pages: 1 -->
<svg width="350pt" height="332pt"
 viewBox="0.00 0.00 350.00 332.00" xmlns="http://www.w3.org/2000/svg" xmlns:xlink="http://www.w3.org/1999/xlink">
<g id="graph1" class="graph" transform="scale(1 1) rotate(0) translate(4 328)">
<title>include/fae/util/literals.h</title>
<!-- Node1 -->
<g id="node1" class="node"><title>Node1</title>
<polygon fill="#bfbfbf" stroke="black" points="51.4751,-300.695 51.4751,-323.305 192.525,-323.305 192.525,-300.695 51.4751,-300.695"/>
<text text-anchor="middle" x="122" y="-308.305" font-family="Futura" font-size="11.00">include/fae/util/literals.h</text>
</g>
<!-- Node2 -->
<g id="node3" class="node"><title>Node2</title>
<a xlink:href="list_8h.html" target="_top" xlink:title="fae/list.h">
<polygon fill="none" stroke="black" points="136.906,-120.695 136.906,-143.305 197.094,-143.305 197.094,-120.695 136.906,-120.695"/>
<text text-anchor="middle" x="167" y="-128.305" font-family="Futura" font-size="11.00">fae/list.h</text>
</a>
</g>
<!-- Node1&#45;&gt;Node2 -->
<g id="edge2" class="edge"><title>Node1&#45;&gt;Node2</title>
<path fill="none" stroke="midnightblue" d="M118.28,-300.287C113.951,-286.274 107.994,-261.032 113,-240 120.856,-206.999 140.606,-172.635 153.915,-152.028"/>
<polygon fill="midnightblue" stroke="midnightblue" points="156.906,-153.852 159.511,-143.583 151.07,-149.986 156.906,-153.852"/>
</g>
<!-- Node6 -->
<g id="node12" class="node"><title>Node6</title>
<a xlink:href="set_8h.html" target="_top" xlink:title="fae/set.h">
<polygon fill="none" stroke="black" points="-0.445801,-180.695 -0.445801,-203.305 60.4458,-203.305 60.4458,-180.695 -0.445801,-180.695"/>
<text text-anchor="middle" x="30" y="-188.305" font-family="Futura" font-size="11.00">fae/set.h</text>
</a>
</g>
<!-- Node1&#45;&gt;Node6 -->
<g id="edge12" class="edge"><title>Node1&#45;&gt;Node6</title>
<path fill="none" stroke="midnightblue" d="M109.752,-300.522C99.5368,-291.444 84.9372,-277.654 74,-264 60.911,-247.659 48.591,-227.168 40.3356,-212.405"/>
<polygon fill="midnightblue" stroke="midnightblue" points="43.404,-210.721 35.5304,-203.631 37.2646,-214.083 43.404,-210.721"/>
</g>
<!-- Node8 -->
<g id="node19" class="node"><title>Node8</title>
<a xlink:href="map_8h.html" target="_top" xlink:title="fae/map.h">
<polygon fill="none" stroke="black" points="122.435,-240.695 122.435,-263.305 191.565,-263.305 191.565,-240.695 122.435,-240.695"/>
<text text-anchor="middle" x="157" y="-248.305" font-family="Futura" font-size="11.00">fae/map.h</text>
</a>
</g>
<!-- Node1&#45;&gt;Node8 -->
<g id="edge22" class="edge"><title>Node1&#45;&gt;Node8</title>
<path fill="none" stroke="midnightblue" d="M128.257,-300.631C132.976,-292.811 139.587,-281.856 145.279,-272.424"/>
<polygon fill="midnightblue" stroke="midnightblue" points="148.39,-274.042 150.56,-263.672 142.397,-270.425 148.39,-274.042"/>
</g>
<!-- Node10 -->
<g id="node28" class="node"><title>Node10</title>
<a xlink:href="vararg_8h.html" target="_top" xlink:title="fae/util/vararg.h">
<polygon fill="none" stroke="black" points="209.657,-240.695 209.657,-263.305 310.343,-263.305 310.343,-240.695 209.657,-240.695"/>
<text text-anchor="middle" x="260" y="-248.305" font-family="Futura" font-size="11.00">fae/util/vararg.h</text>
</a>
</g>
<!-- Node1&#45;&gt;Node10 -->
<g id="edge36" class="edge"><title>Node1&#45;&gt;Node10</title>
<path fill="none" stroke="midnightblue" d="M146.672,-300.631C168.71,-291.368 201.21,-277.709 225.763,-267.39"/>
<polygon fill="midnightblue" stroke="midnightblue" points="227.214,-270.576 235.077,-263.475 224.502,-264.123 227.214,-270.576"/>
</g>
<!-- Node3 -->
<g id="node5" class="node"><title>Node3</title>
<a xlink:href="fae_2fae_8h.html" target="_top" xlink:title="fae.h">
<polygon fill="none" stroke="red" points="146.23,-60.6953 146.23,-83.3047 187.77,-83.3047 187.77,-60.6953 146.23,-60.6953"/>
<text text-anchor="middle" x="167" y="-68.3047" font-family="Futura" font-size="11.00">fae.h</text>
</a>
</g>
<!-- Node2&#45;&gt;Node3 -->
<g id="edge4" class="edge"><title>Node2&#45;&gt;Node3</title>
<path fill="none" stroke="midnightblue" d="M167,-120.631C167,-113.218 167,-102.989 167,-93.9096"/>
<polygon fill="midnightblue" stroke="midnightblue" points="170.5,-93.6718 167,-83.6719 163.5,-93.6719 170.5,-93.6718"/>
</g>
<!-- Node4 -->
<g id="node7" class="node"><title>Node4</title>
<a xlink:href="atomic_8h.html" target="_top" xlink:title="fae/atomic.h">
<polygon fill="none" stroke="red" points="126.894,-0.695312 126.894,-23.3047 207.106,-23.3047 207.106,-0.695312 126.894,-0.695312"/>
<text text-anchor="middle" x="167" y="-8.30469" font-family="Futura" font-size="11.00">fae/atomic.h</text>
</a>
</g>
<!-- Node3&#45;&gt;Node4 -->
<g id="edge6" class="edge"><title>Node3&#45;&gt;Node4</title>
<path fill="none" stroke="midnightblue" d="M161.684,-60.6308C160.323,-53.1365 159.931,-42.7636 160.508,-33.6107"/>
<polygon fill="midnightblue" stroke="midnightblue" points="163.986,-34.0015 161.63,-23.6719 157.03,-33.2159 163.986,-34.0015"/>
</g>
<!-- Node5 -->
<g id="node10" class="node"><title>Node5</title>
<polygon fill="none" stroke="#bfbfbf" points="225.606,-0.695312 225.606,-23.3047 342.394,-23.3047 342.394,-0.695312 225.606,-0.695312"/>
<text text-anchor="middle" x="284" y="-8.30469" font-family="Futura" font-size="11.00">fae/atomic/queue.h</text>
</g>
<!-- Node3&#45;&gt;Node5 -->
<g id="edge10" class="edge"><title>Node3&#45;&gt;Node5</title>
<path fill="none" stroke="midnightblue" d="M187.917,-60.6308C206.271,-51.5323 233.184,-38.1908 253.861,-27.9407"/>
<polygon fill="midnightblue" stroke="midnightblue" points="255.464,-31.0524 262.869,-23.475 252.355,-24.7807 255.464,-31.0524"/>
</g>
<!-- Node4&#45;&gt;Node3 -->
<g id="edge8" class="edge"><title>Node4&#45;&gt;Node3</title>
<path fill="none" stroke="midnightblue" d="M172.37,-23.6719C173.691,-31.1602 174.064,-41.4112 173.488,-50.4586"/>
<polygon fill="midnightblue" stroke="midnightblue" points="169.984,-50.2958 172.316,-60.6308 176.938,-51.0972 169.984,-50.2958"/>
</g>
<!-- Node6&#45;&gt;Node2 -->
<g id="edge16" class="edge"><title>Node6&#45;&gt;Node2</title>
<path fill="none" stroke="midnightblue" d="M54.4929,-180.631C76.3713,-171.368 108.636,-157.709 133.011,-147.39"/>
<polygon fill="midnightblue" stroke="midnightblue" points="134.413,-150.597 142.257,-143.475 131.684,-144.151 134.413,-150.597"/>
</g>
<!-- Node6&#45;&gt;Node3 -->
<g id="edge14" class="edge"><title>Node6&#45;&gt;Node3</title>
<path fill="none" stroke="midnightblue" d="M27.6846,-180.611C24.9768,-165.584 22.4306,-137.654 36,-120 59.7093,-89.1536 105.417,-78.5167 136.072,-74.87"/>
<polygon fill="midnightblue" stroke="midnightblue" points="136.626,-78.332 146.226,-73.8499 135.926,-71.3671 136.626,-78.332"/>
</g>
<!-- Node7 -->
<g id="node16" class="node"><title>Node7</title>
<a xlink:href="string_8h.html" target="_top" xlink:title="fae/string.h">
<polygon fill="none" stroke="black" points="44.8269,-120.695 44.8269,-143.305 119.173,-143.305 119.173,-120.695 44.8269,-120.695"/>
<text text-anchor="middle" x="82" y="-128.305" font-family="Futura" font-size="11.00">fae/string.h</text>
</a>
</g>
<!-- Node6&#45;&gt;Node7 -->
<g id="edge18" class="edge"><title>Node6&#45;&gt;Node7</title>
<path fill="none" stroke="midnightblue" d="M39.2966,-180.631C46.5998,-172.485 56.9523,-160.938 65.635,-151.253"/>
<polygon fill="midnightblue" stroke="midnightblue" points="68.3626,-153.454 72.4321,-143.672 63.1506,-148.781 68.3626,-153.454"/>
</g>
<!-- Node7&#45;&gt;Node3 -->
<g id="edge20" class="edge"><title>Node7&#45;&gt;Node3</title>
<path fill="none" stroke="midnightblue" d="M97.1963,-120.631C109.93,-111.942 128.334,-99.3841 143.048,-89.344"/>
<polygon fill="midnightblue" stroke="midnightblue" points="145.361,-92.0025 151.649,-83.475 141.416,-86.2204 145.361,-92.0025"/>
</g>
<!-- Node8&#45;&gt;Node2 -->
<g id="edge32" class="edge"><title>Node8&#45;&gt;Node2</title>
<path fill="none" stroke="midnightblue" d="M157.887,-240.528C159.536,-221.071 163.1,-179.023 165.249,-153.656"/>
<polygon fill="midnightblue" stroke="midnightblue" points="168.743,-153.878 166.1,-143.618 161.768,-153.287 168.743,-153.878"/>
</g>
<!-- Node8&#45;&gt;Node3 -->
<g id="edge24" class="edge"><title>Node8&#45;&gt;Node3</title>
<path fill="none" stroke="midnightblue" d="M191.841,-240.736C220.665,-231.457 258.247,-217.258 267,-204 295.677,-160.562 233.101,-112.709 194.482,-88.6495"/>
<polygon fill="midnightblue" stroke="midnightblue" points="196.081,-85.5261 185.715,-83.3364 192.453,-91.5126 196.081,-85.5261"/>
</g>
<!-- Node8&#45;&gt;Node7 -->
<g id="edge34" class="edge"><title>Node8&#45;&gt;Node7</title>
<path fill="none" stroke="midnightblue" d="M150.344,-240.528C137.756,-220.722 110.288,-177.507 94.2717,-152.307"/>
<polygon fill="midnightblue" stroke="midnightblue" points="97.0667,-150.18 88.7486,-143.618 91.159,-153.935 97.0667,-150.18"/>
</g>
<!-- Node9 -->
<g id="node22" class="node"><title>Node9</title>
<a xlink:href="pair_8h.html" target="_top" xlink:title="fae/pair.h">
<polygon fill="none" stroke="black" points="191.651,-180.695 191.651,-203.305 258.349,-203.305 258.349,-180.695 191.651,-180.695"/>
<text text-anchor="middle" x="225" y="-188.305" font-family="Futura" font-size="11.00">fae/pair.h</text>
</a>
</g>
<!-- Node8&#45;&gt;Node9 -->
<g id="edge26" class="edge"><title>Node8&#45;&gt;Node9</title>
<path fill="none" stroke="midnightblue" d="M169.157,-240.631C178.994,-232.24 193.061,-220.242 204.615,-210.387"/>
<polygon fill="midnightblue" stroke="midnightblue" points="207.151,-212.824 212.488,-203.672 202.608,-207.498 207.151,-212.824"/>
</g>
<!-- Node9&#45;&gt;Node2 -->
<g id="edge30" class="edge"><title>Node9&#45;&gt;Node2</title>
<path fill="none" stroke="midnightblue" d="M214.631,-180.631C206.403,-172.403 194.707,-160.707 184.963,-150.963"/>
<polygon fill="midnightblue" stroke="midnightblue" points="187.218,-148.268 177.672,-143.672 182.268,-153.218 187.218,-148.268"/>
</g>
<!-- Node9&#45;&gt;Node3 -->
<g id="edge28" class="edge"><title>Node9&#45;&gt;Node3</title>
<path fill="none" stroke="midnightblue" d="M223.614,-180.378C221.425,-166.028 216.312,-139.95 206,-120 200.596,-109.545 192.546,-99.3199 185.161,-91.0914"/>
<polygon fill="midnightblue" stroke="midnightblue" points="187.517,-88.4873 178.12,-83.5937 182.414,-93.2792 187.517,-88.4873"/>
</g>
</g>
</svg>
