<?xml version="1.0" encoding="UTF-8" standalone="no"?>
<!DOCTYPE svg PUBLIC "-//W3C//DTD SVG 1.1//EN"
 "http://www.w3.org/Graphics/SVG/1.1/DTD/svg11.dtd">
<!-- Generated by graphviz version 2.28.0 (20121015.0031)
 -->
<!-- Title: include/fae/processor/loop.h Pages: 1 -->
<svg width="281pt" height="106pt"
 viewBox="0.00 0.00 281.00 106.00" xmlns="http://www.w3.org/2000/svg" xmlns:xlink="http://www.w3.org/1999/xlink">
<g id="graph1" class="graph" transform="scale(1 1) rotate(0) translate(4 102)">
<title>include/fae/processor/loop.h</title>
<!-- Node1 -->
<g id="node1" class="node"><title>Node1</title>
<polygon fill="#bfbfbf" stroke="black" points="80.428,-60.3906 80.428,-97.6094 207.572,-97.6094 207.572,-60.3906 80.428,-60.3906"/>
<text text-anchor="start" x="88.428" y="-82.6094" font-family="Futura" font-size="11.00">include/fae/processor</text>
<text text-anchor="middle" x="144" y="-68" font-family="Futura" font-size="11.00">/loop.h</text>
</g>
<!-- Node2 -->
<g id="node3" class="node"><title>Node2</title>
<a xlink:href="loop_8c.html" target="_top" xlink:title="src/fae/processor/loop.c">
<polygon fill="none" stroke="black" points="-0.166748,-0.695312 -0.166748,-23.3047 142.167,-23.3047 142.167,-0.695312 -0.166748,-0.695312"/>
<text text-anchor="middle" x="71" y="-8.30469" font-family="Futura" font-size="11.00">src/fae/processor/loop.c</text>
</a>
</g>
<!-- Node1&#45;&gt;Node2 -->
<g id="edge2" class="edge"><title>Node1&#45;&gt;Node2</title>
<path fill="none" stroke="midnightblue" d="M116.321,-53.3539C104.774,-43.0729 91.9753,-31.6766 82.9319,-23.6243"/>
<polygon fill="midnightblue" stroke="midnightblue" points="114.256,-56.2024 124.052,-60.2385 118.911,-50.9745 114.256,-56.2024"/>
</g>
<!-- Node3 -->
<g id="node5" class="node"><title>Node3</title>
<a xlink:href="processor_8c.html" target="_top" xlink:title="src/fae/processor.c">
<polygon fill="none" stroke="black" points="160.255,-0.695312 160.255,-23.3047 273.745,-23.3047 273.745,-0.695312 160.255,-0.695312"/>
<text text-anchor="middle" x="217" y="-8.30469" font-family="Futura" font-size="11.00">src/fae/processor.c</text>
</a>
</g>
<!-- Node1&#45;&gt;Node3 -->
<g id="edge4" class="edge"><title>Node1&#45;&gt;Node3</title>
<path fill="none" stroke="midnightblue" d="M171.679,-53.3539C183.226,-43.0729 196.025,-31.6766 205.068,-23.6243"/>
<polygon fill="midnightblue" stroke="midnightblue" points="169.089,-50.9745 163.948,-60.2385 173.744,-56.2024 169.089,-50.9745"/>
</g>
</g>
</svg>
