<?xml version="1.0" encoding="UTF-8" standalone="no"?>
<!DOCTYPE svg PUBLIC "-//W3C//DTD SVG 1.1//EN"
 "http://www.w3.org/Graphics/SVG/1.1/DTD/svg11.dtd">
<!-- Generated by graphviz version 2.28.0 (20121015.0031)
 -->
<!-- Title: src/fae/processor/loop.c Pages: 1 -->
<svg width="738pt" height="152pt"
 viewBox="0.00 0.00 738.00 152.00" xmlns="http://www.w3.org/2000/svg" xmlns:xlink="http://www.w3.org/1999/xlink">
<g id="graph1" class="graph" transform="scale(1 1) rotate(0) translate(4 148)">
<title>src/fae/processor/loop.c</title>
<!-- Node1 -->
<g id="node1" class="node"><title>Node1</title>
<polygon fill="#bfbfbf" stroke="black" points="106.833,-120.695 106.833,-143.305 249.167,-143.305 249.167,-120.695 106.833,-120.695"/>
<text text-anchor="middle" x="178" y="-128.305" font-family="Futura" font-size="11.00">src/fae/processor/loop.c</text>
</g>
<!-- Node2 -->
<g id="node3" class="node"><title>Node2</title>
<polygon fill="none" stroke="#bfbfbf" points="-0.850586,-60.6953 -0.850586,-83.3047 122.851,-83.3047 122.851,-60.6953 -0.850586,-60.6953"/>
<text text-anchor="middle" x="61" y="-68.3047" font-family="Futura" font-size="11.00">fae/processor/loop.h</text>
</g>
<!-- Node1&#45;&gt;Node2 -->
<g id="edge2" class="edge"><title>Node1&#45;&gt;Node2</title>
<path fill="none" stroke="midnightblue" d="M157.083,-120.631C138.729,-111.532 111.816,-98.1908 91.1389,-87.9407"/>
<polygon fill="midnightblue" stroke="midnightblue" points="92.6447,-84.7807 82.1306,-83.475 89.5357,-91.0524 92.6447,-84.7807"/>
</g>
<!-- Node3 -->
<g id="node5" class="node"><title>Node3</title>
<a xlink:href="string_8h.html" target="_top" xlink:title="fae/string.h">
<polygon fill="none" stroke="black" points="140.827,-60.6953 140.827,-83.3047 215.173,-83.3047 215.173,-60.6953 140.827,-60.6953"/>
<text text-anchor="middle" x="178" y="-68.3047" font-family="Futura" font-size="11.00">fae/string.h</text>
</a>
</g>
<!-- Node1&#45;&gt;Node3 -->
<g id="edge4" class="edge"><title>Node1&#45;&gt;Node3</title>
<path fill="none" stroke="midnightblue" d="M178,-120.631C178,-113.218 178,-102.989 178,-93.9096"/>
<polygon fill="midnightblue" stroke="midnightblue" points="181.5,-93.6718 178,-83.6719 174.5,-93.6719 181.5,-93.6718"/>
</g>
<!-- Node5 -->
<g id="node9" class="node"><title>Node5</title>
<a xlink:href="util_8h.html" target="_top" xlink:title="fae/util.h">
<polygon fill="none" stroke="red" points="350.141,-60.6953 350.141,-83.3047 411.859,-83.3047 411.859,-60.6953 350.141,-60.6953"/>
<text text-anchor="middle" x="381" y="-68.3047" font-family="Futura" font-size="11.00">fae/util.h</text>
</a>
</g>
<!-- Node1&#45;&gt;Node5 -->
<g id="edge8" class="edge"><title>Node1&#45;&gt;Node5</title>
<path fill="none" stroke="midnightblue" d="M214.292,-120.631C249.631,-110.534 303.256,-95.2125 340.09,-84.6885"/>
<polygon fill="midnightblue" stroke="midnightblue" points="341.351,-87.9684 350.005,-81.8558 339.428,-81.2377 341.351,-87.9684"/>
</g>
<!-- Node4 -->
<g id="node7" class="node"><title>Node4</title>
<a xlink:href="fae_2fae_8h.html" target="_top" xlink:title="fae.h">
<polygon fill="none" stroke="red" points="98.2302,-0.695312 98.2302,-23.3047 139.77,-23.3047 139.77,-0.695312 98.2302,-0.695312"/>
<text text-anchor="middle" x="119" y="-8.30469" font-family="Futura" font-size="11.00">fae.h</text>
</a>
</g>
<!-- Node3&#45;&gt;Node4 -->
<g id="edge6" class="edge"><title>Node3&#45;&gt;Node4</title>
<path fill="none" stroke="midnightblue" d="M167.452,-60.6308C159.083,-52.4034 147.184,-40.7066 137.273,-30.9633"/>
<polygon fill="midnightblue" stroke="midnightblue" points="139.441,-28.1863 129.856,-23.6719 134.533,-33.1782 139.441,-28.1863"/>
</g>
<!-- Node6 -->
<g id="node11" class="node"><title>Node6</title>
<a xlink:href="arch_8h.html" target="_top" xlink:title="fae/util/arch.h">
<polygon fill="none" stroke="black" points="158.205,-0.695312 158.205,-23.3047 247.795,-23.3047 247.795,-0.695312 158.205,-0.695312"/>
<text text-anchor="middle" x="203" y="-8.30469" font-family="Futura" font-size="11.00">fae/util/arch.h</text>
</a>
</g>
<!-- Node5&#45;&gt;Node6 -->
<g id="edge10" class="edge"><title>Node5&#45;&gt;Node6</title>
<path fill="none" stroke="midnightblue" d="M349.995,-60.8972C320.748,-51.3673 276.702,-37.0152 244.45,-26.5061"/>
<polygon fill="midnightblue" stroke="midnightblue" points="245.441,-23.148 234.849,-23.3776 243.272,-29.8036 245.441,-23.148"/>
</g>
<!-- Node7 -->
<g id="node13" class="node"><title>Node7</title>
<a xlink:href="alignof_8h.html" target="_top" xlink:title="fae/util/alignof.h">
<polygon fill="none" stroke="black" points="266.007,-0.695312 266.007,-23.3047 367.993,-23.3047 367.993,-0.695312 266.007,-0.695312"/>
<text text-anchor="middle" x="317" y="-8.30469" font-family="Futura" font-size="11.00">fae/util/alignof.h</text>
</a>
</g>
<!-- Node5&#45;&gt;Node7 -->
<g id="edge12" class="edge"><title>Node5&#45;&gt;Node7</title>
<path fill="none" stroke="midnightblue" d="M369.558,-60.6308C360.39,-52.3219 347.317,-40.4746 336.503,-30.6745"/>
<polygon fill="midnightblue" stroke="midnightblue" points="338.536,-27.7936 328.776,-23.6719 333.835,-32.9806 338.536,-27.7936"/>
</g>
<!-- Node8 -->
<g id="node15" class="node"><title>Node8</title>
<a xlink:href="minmax_8h.html" target="_top" xlink:title="fae/util/minmax.h">
<polygon fill="none" stroke="red" points="385.837,-0.695312 385.837,-23.3047 492.163,-23.3047 492.163,-0.695312 385.837,-0.695312"/>
<text text-anchor="middle" x="439" y="-8.30469" font-family="Futura" font-size="11.00">fae/util/minmax.h</text>
</a>
</g>
<!-- Node5&#45;&gt;Node8 -->
<g id="edge14" class="edge"><title>Node5&#45;&gt;Node8</title>
<path fill="none" stroke="midnightblue" d="M391.369,-60.6308C399.597,-52.4034 411.293,-40.7066 421.037,-30.9633"/>
<polygon fill="midnightblue" stroke="midnightblue" points="423.732,-33.2179 428.328,-23.6719 418.782,-28.2681 423.732,-33.2179"/>
</g>
<!-- Node9 -->
<g id="node17" class="node"><title>Node9</title>
<a xlink:href="literals_8h.html" target="_top" xlink:title="fae/util/literals.h">
<polygon fill="none" stroke="red" points="510.038,-0.695312 510.038,-23.3047 609.962,-23.3047 609.962,-0.695312 510.038,-0.695312"/>
<text text-anchor="middle" x="560" y="-8.30469" font-family="Futura" font-size="11.00">fae/util/literals.h</text>
</a>
</g>
<!-- Node5&#45;&gt;Node9 -->
<g id="edge16" class="edge"><title>Node5&#45;&gt;Node9</title>
<path fill="none" stroke="midnightblue" d="M412.179,-60.8972C441.59,-51.3673 485.884,-37.0152 518.317,-26.5061"/>
<polygon fill="midnightblue" stroke="midnightblue" points="519.538,-29.7897 527.973,-23.3776 517.381,-23.1305 519.538,-29.7897"/>
</g>
<!-- Node10 -->
<g id="node19" class="node"><title>Node10</title>
<a xlink:href="macros_8h.html" target="_top" xlink:title="fae/util/macros.h">
<polygon fill="none" stroke="black" points="627.475,-0.695312 627.475,-23.3047 730.525,-23.3047 730.525,-0.695312 627.475,-0.695312"/>
<text text-anchor="middle" x="679" y="-8.30469" font-family="Futura" font-size="11.00">fae/util/macros.h</text>
</a>
</g>
<!-- Node5&#45;&gt;Node10 -->
<g id="edge18" class="edge"><title>Node5&#45;&gt;Node10</title>
<path fill="none" stroke="midnightblue" d="M412.048,-64.9571C460.413,-55.5438 554.674,-37.1977 617.245,-25.0194"/>
<polygon fill="midnightblue" stroke="midnightblue" points="618.24,-28.3915 627.387,-23.0455 616.903,-21.5205 618.24,-28.3915"/>
</g>
</g>
</svg>
