<?xml version="1.0" encoding="UTF-8" standalone="no"?>
<!DOCTYPE svg PUBLIC "-//W3C//DTD SVG 1.1//EN"
 "http://www.w3.org/Graphics/SVG/1.1/DTD/svg11.dtd">
<!-- Generated by graphviz version 2.28.0 (20121015.0031)
 -->
<!-- Title: src/platform/macosx/fae/thread.c Pages: 1 -->
<svg width="479pt" height="166pt"
 viewBox="0.00 0.00 479.00 166.00" xmlns="http://www.w3.org/2000/svg" xmlns:xlink="http://www.w3.org/1999/xlink">
<g id="graph1" class="graph" transform="scale(1 1) rotate(0) translate(4 162)">
<title>src/platform/macosx/fae/thread.c</title>
<!-- Node1 -->
<g id="node1" class="node"><title>Node1</title>
<polygon fill="#bfbfbf" stroke="black" points="218.597,-120.391 218.597,-157.609 339.403,-157.609 339.403,-120.391 218.597,-120.391"/>
<text text-anchor="start" x="226.597" y="-142.609" font-family="Futura" font-size="11.00">src/platform/macosx</text>
<text text-anchor="middle" x="279" y="-128" font-family="Futura" font-size="11.00">/fae/thread.c</text>
</g>
<!-- Node2 -->
<g id="node3" class="node"><title>Node2</title>
<a xlink:href="thread_8h.html" target="_top" xlink:title="fae/thread.h">
<polygon fill="none" stroke="black" points="14.093,-60.6953 14.093,-83.3047 93.907,-83.3047 93.907,-60.6953 14.093,-60.6953"/>
<text text-anchor="middle" x="54" y="-68.3047" font-family="Futura" font-size="11.00">fae/thread.h</text>
</a>
</g>
<!-- Node1&#45;&gt;Node2 -->
<g id="edge2" class="edge"><title>Node1&#45;&gt;Node2</title>
<path fill="none" stroke="midnightblue" d="M218.408,-120.496C180.973,-109.681 133.717,-96.0292 99.4854,-86.1402"/>
<polygon fill="midnightblue" stroke="midnightblue" points="100.33,-82.741 89.751,-83.3281 98.3867,-89.466 100.33,-82.741"/>
</g>
<!-- Node5 -->
<g id="node10" class="node"><title>Node5</title>
<a xlink:href="util_8h.html" target="_top" xlink:title="fae/util.h">
<polygon fill="none" stroke="red" points="208.141,-60.6953 208.141,-83.3047 269.859,-83.3047 269.859,-60.6953 208.141,-60.6953"/>
<text text-anchor="middle" x="239" y="-68.3047" font-family="Futura" font-size="11.00">fae/util.h</text>
</a>
</g>
<!-- Node1&#45;&gt;Node5 -->
<g id="edge10" class="edge"><title>Node1&#45;&gt;Node5</title>
<path fill="none" stroke="midnightblue" d="M268.07,-120.238C262.713,-111.534 256.256,-101.041 250.789,-92.1571"/>
<polygon fill="midnightblue" stroke="midnightblue" points="253.76,-90.3066 245.538,-83.6243 247.798,-93.9753 253.76,-90.3066"/>
</g>
<!-- Node9 -->
<g id="node18" class="node"><title>Node9</title>
<polygon fill="none" stroke="#bfbfbf" points="287.653,-60.6953 287.653,-83.3047 352.347,-83.3047 352.347,-60.6953 287.653,-60.6953"/>
<text text-anchor="middle" x="320" y="-68.3047" font-family="Futura" font-size="11.00">pthread.h</text>
</g>
<!-- Node1&#45;&gt;Node9 -->
<g id="edge18" class="edge"><title>Node1&#45;&gt;Node9</title>
<path fill="none" stroke="midnightblue" d="M290.203,-120.238C295.694,-111.534 302.313,-101.041 307.916,-92.1571"/>
<polygon fill="midnightblue" stroke="midnightblue" points="310.924,-93.9496 313.299,-83.6243 305.003,-90.215 310.924,-93.9496"/>
</g>
<!-- Node10 -->
<g id="node20" class="node"><title>Node10</title>
<polygon fill="none" stroke="#bfbfbf" points="369.871,-60.6953 369.871,-83.3047 424.129,-83.3047 424.129,-60.6953 369.871,-60.6953"/>
<text text-anchor="middle" x="397" y="-68.3047" font-family="Futura" font-size="11.00">unistd.h</text>
</g>
<!-- Node1&#45;&gt;Node10 -->
<g id="edge20" class="edge"><title>Node1&#45;&gt;Node10</title>
<path fill="none" stroke="midnightblue" d="M311.244,-120.238C329.323,-110.28 351.654,-97.9789 368.995,-88.4263"/>
<polygon fill="midnightblue" stroke="midnightblue" points="370.987,-91.325 378.058,-83.4344 367.61,-85.1936 370.987,-91.325"/>
</g>
<!-- Node3 -->
<g id="node5" class="node"><title>Node3</title>
<a xlink:href="fae_2fae_8h.html" target="_top" xlink:title="fae.h">
<polygon fill="none" stroke="red" points="-0.769775,-0.695312 -0.769775,-23.3047 40.7698,-23.3047 40.7698,-0.695312 -0.769775,-0.695312"/>
<text text-anchor="middle" x="20" y="-8.30469" font-family="Futura" font-size="11.00">fae.h</text>
</a>
</g>
<!-- Node2&#45;&gt;Node3 -->
<g id="edge4" class="edge"><title>Node2&#45;&gt;Node3</title>
<path fill="none" stroke="midnightblue" d="M42.6056,-60.6308C36.7261,-52.9736 30.0965,-42.3113 25.2798,-33.0155"/>
<polygon fill="midnightblue" stroke="midnightblue" points="28.3087,-31.2318 20.8859,-23.6719 21.9742,-34.2107 28.3087,-31.2318"/>
</g>
<!-- Node4 -->
<g id="node8" class="node"><title>Node4</title>
<polygon fill="none" stroke="#bfbfbf" points="58.3474,-0.695312 58.3474,-23.3047 119.653,-23.3047 119.653,-0.695312 58.3474,-0.695312"/>
<text text-anchor="middle" x="89" y="-8.30469" font-family="Futura" font-size="11.00">fae/std.h</text>
</g>
<!-- Node2&#45;&gt;Node4 -->
<g id="edge8" class="edge"><title>Node2&#45;&gt;Node4</title>
<path fill="none" stroke="midnightblue" d="M60.2573,-60.6308C64.9763,-52.8107 71.5868,-41.8562 77.2786,-32.4241"/>
<polygon fill="midnightblue" stroke="midnightblue" points="80.39,-34.0421 82.5601,-23.6719 74.3967,-30.4254 80.39,-34.0421"/>
</g>
<!-- Node3&#45;&gt;Node2 -->
<g id="edge6" class="edge"><title>Node3&#45;&gt;Node2</title>
<path fill="none" stroke="midnightblue" d="M31.626,-23.6719C37.5247,-31.4071 44.1399,-42.0901 48.9087,-51.3493"/>
<polygon fill="midnightblue" stroke="midnightblue" points="45.8386,-53.0473 53.2374,-60.6308 52.1826,-50.0886 45.8386,-53.0473"/>
</g>
<!-- Node6 -->
<g id="node12" class="node"><title>Node6</title>
<a xlink:href="arch_8h.html" target="_top" xlink:title="fae/util/arch.h">
<polygon fill="none" stroke="black" points="137.205,-0.695312 137.205,-23.3047 226.795,-23.3047 226.795,-0.695312 137.205,-0.695312"/>
<text text-anchor="middle" x="182" y="-8.30469" font-family="Futura" font-size="11.00">fae/util/arch.h</text>
</a>
</g>
<!-- Node5&#45;&gt;Node6 -->
<g id="edge12" class="edge"><title>Node5&#45;&gt;Node6</title>
<path fill="none" stroke="midnightblue" d="M228.81,-60.6308C220.724,-52.4034 209.229,-40.7066 199.654,-30.9633"/>
<polygon fill="midnightblue" stroke="midnightblue" points="201.994,-28.3509 192.488,-23.6719 197.001,-33.2575 201.994,-28.3509"/>
</g>
<!-- Node7 -->
<g id="node14" class="node"><title>Node7</title>
<a xlink:href="alignof_8h.html" target="_top" xlink:title="fae/util/alignof.h">
<polygon fill="none" stroke="black" points="245.007,-0.695312 245.007,-23.3047 346.993,-23.3047 346.993,-0.695312 245.007,-0.695312"/>
<text text-anchor="middle" x="296" y="-8.30469" font-family="Futura" font-size="11.00">fae/util/alignof.h</text>
</a>
</g>
<!-- Node5&#45;&gt;Node7 -->
<g id="edge14" class="edge"><title>Node5&#45;&gt;Node7</title>
<path fill="none" stroke="midnightblue" d="M249.19,-60.6308C257.276,-52.4034 268.771,-40.7066 278.346,-30.9633"/>
<polygon fill="midnightblue" stroke="midnightblue" points="280.999,-33.2575 285.512,-23.6719 276.006,-28.3509 280.999,-33.2575"/>
</g>
<!-- Node8 -->
<g id="node16" class="node"><title>Node8</title>
<a xlink:href="minmax_8h.html" target="_top" xlink:title="fae/util/minmax.h">
<polygon fill="none" stroke="red" points="364.837,-0.695312 364.837,-23.3047 471.163,-23.3047 471.163,-0.695312 364.837,-0.695312"/>
<text text-anchor="middle" x="418" y="-8.30469" font-family="Futura" font-size="11.00">fae/util/minmax.h</text>
</a>
</g>
<!-- Node5&#45;&gt;Node8 -->
<g id="edge16" class="edge"><title>Node5&#45;&gt;Node8</title>
<path fill="none" stroke="midnightblue" d="M270.179,-60.8972C299.59,-51.3673 343.884,-37.0152 376.317,-26.5061"/>
<polygon fill="midnightblue" stroke="midnightblue" points="377.538,-29.7897 385.973,-23.3776 375.381,-23.1305 377.538,-29.7897"/>
</g>
</g>
</svg>
