<?xml version="1.0" encoding="UTF-8" standalone="no"?>
<!DOCTYPE svg PUBLIC "-//W3C//DTD SVG 1.1//EN"
 "http://www.w3.org/Graphics/SVG/1.1/DTD/svg11.dtd">
<!-- Generated by graphviz version 2.28.0 (20121015.0031)
 -->
<!-- Title: src/platform/macosx/fae/atomic.c Pages: 1 -->
<svg width="520pt" height="166pt"
 viewBox="0.00 0.00 520.00 166.00" xmlns="http://www.w3.org/2000/svg" xmlns:xlink="http://www.w3.org/1999/xlink">
<g id="graph1" class="graph" transform="scale(1 1) rotate(0) translate(4 162)">
<title>src/platform/macosx/fae/atomic.c</title>
<!-- Node1 -->
<g id="node1" class="node"><title>Node1</title>
<polygon fill="#bfbfbf" stroke="black" points="116.597,-120.391 116.597,-157.609 237.403,-157.609 237.403,-120.391 116.597,-120.391"/>
<text text-anchor="start" x="124.597" y="-142.609" font-family="Futura" font-size="11.00">src/platform/macosx</text>
<text text-anchor="middle" x="177" y="-128" font-family="Futura" font-size="11.00">/fae/atomic.c</text>
</g>
<!-- Node2 -->
<g id="node3" class="node"><title>Node2</title>
<a xlink:href="atomic_8h.html" target="_top" xlink:title="fae/atomic.h">
<polygon fill="none" stroke="black" points="91.8943,-60.6953 91.8943,-83.3047 172.106,-83.3047 172.106,-60.6953 91.8943,-60.6953"/>
<text text-anchor="middle" x="132" y="-68.3047" font-family="Futura" font-size="11.00">fae/atomic.h</text>
</a>
</g>
<!-- Node1&#45;&gt;Node2 -->
<g id="edge2" class="edge"><title>Node1&#45;&gt;Node2</title>
<path fill="none" stroke="midnightblue" d="M164.704,-120.238C158.614,-111.443 151.26,-100.82 145.069,-91.8771"/>
<polygon fill="midnightblue" stroke="midnightblue" points="147.925,-89.854 139.355,-83.6243 142.17,-93.8385 147.925,-89.854"/>
</g>
<!-- Node5 -->
<g id="node10" class="node"><title>Node5</title>
<a xlink:href="string_8h.html" target="_top" xlink:title="fae/string.h">
<polygon fill="none" stroke="black" points="-0.173096,-60.6953 -0.173096,-83.3047 74.1731,-83.3047 74.1731,-60.6953 -0.173096,-60.6953"/>
<text text-anchor="middle" x="37" y="-68.3047" font-family="Futura" font-size="11.00">fae/string.h</text>
</a>
</g>
<!-- Node1&#45;&gt;Node5 -->
<g id="edge10" class="edge"><title>Node1&#45;&gt;Node5</title>
<path fill="none" stroke="midnightblue" d="M138.744,-120.238C116.799,-110.049 89.5715,-97.4082 68.8067,-87.7674"/>
<polygon fill="midnightblue" stroke="midnightblue" points="70.018,-84.471 59.474,-83.4344 67.0702,-90.8201 70.018,-84.471"/>
</g>
<!-- Node6 -->
<g id="node13" class="node"><title>Node6</title>
<a xlink:href="util_8h.html" target="_top" xlink:title="fae/util.h">
<polygon fill="none" stroke="red" points="192.141,-60.6953 192.141,-83.3047 253.859,-83.3047 253.859,-60.6953 192.141,-60.6953"/>
<text text-anchor="middle" x="223" y="-68.3047" font-family="Futura" font-size="11.00">fae/util.h</text>
</a>
</g>
<!-- Node1&#45;&gt;Node6 -->
<g id="edge14" class="edge"><title>Node1&#45;&gt;Node6</title>
<path fill="none" stroke="midnightblue" d="M189.57,-120.238C195.794,-111.443 203.312,-100.82 209.641,-91.8771"/>
<polygon fill="midnightblue" stroke="midnightblue" points="212.561,-93.8089 215.481,-83.6243 206.848,-89.7652 212.561,-93.8089"/>
</g>
<!-- Node10 -->
<g id="node21" class="node"><title>Node10</title>
<polygon fill="none" stroke="#bfbfbf" points="272.148,-60.6953 272.148,-83.3047 387.852,-83.3047 387.852,-60.6953 272.148,-60.6953"/>
<text text-anchor="middle" x="330" y="-68.3047" font-family="Futura" font-size="11.00">libkern/OSAtomic.h</text>
</g>
<!-- Node1&#45;&gt;Node10 -->
<g id="edge22" class="edge"><title>Node1&#45;&gt;Node10</title>
<path fill="none" stroke="midnightblue" d="M218.808,-120.238C243.117,-109.911 273.356,-97.0645 296.16,-87.3765"/>
<polygon fill="midnightblue" stroke="midnightblue" points="297.604,-90.5659 305.439,-83.4344 294.867,-84.1232 297.604,-90.5659"/>
</g>
<!-- Node3 -->
<g id="node5" class="node"><title>Node3</title>
<a xlink:href="fae_2fae_8h.html" target="_top" xlink:title="fae.h">
<polygon fill="none" stroke="red" points="40.2302,-0.695312 40.2302,-23.3047 81.7698,-23.3047 81.7698,-0.695312 40.2302,-0.695312"/>
<text text-anchor="middle" x="61" y="-8.30469" font-family="Futura" font-size="11.00">fae.h</text>
</a>
</g>
<!-- Node2&#45;&gt;Node3 -->
<g id="edge4" class="edge"><title>Node2&#45;&gt;Node3</title>
<path fill="none" stroke="midnightblue" d="M113.991,-60.6308C102.31,-52.3219 87.4896,-40.4746 76.3661,-30.6745"/>
<polygon fill="midnightblue" stroke="midnightblue" points="78.4394,-27.8282 68.6938,-23.6719 73.7204,-32.9984 78.4394,-27.8282"/>
</g>
<!-- Node4 -->
<g id="node8" class="node"><title>Node4</title>
<polygon fill="none" stroke="#bfbfbf" points="99.3474,-0.695312 99.3474,-23.3047 160.653,-23.3047 160.653,-0.695312 99.3474,-0.695312"/>
<text text-anchor="middle" x="130" y="-8.30469" font-family="Futura" font-size="11.00">fae/std.h</text>
</g>
<!-- Node2&#45;&gt;Node4 -->
<g id="edge8" class="edge"><title>Node2&#45;&gt;Node4</title>
<path fill="none" stroke="midnightblue" d="M131.642,-60.6308C131.387,-53.218 131.034,-42.9888 130.721,-33.9096"/>
<polygon fill="midnightblue" stroke="midnightblue" points="134.211,-33.5453 130.368,-23.6719 127.215,-33.7866 134.211,-33.5453"/>
</g>
<!-- Node3&#45;&gt;Node2 -->
<g id="edge6" class="edge"><title>Node3&#45;&gt;Node2</title>
<path fill="none" stroke="midnightblue" d="M79.1579,-23.475C90.9379,-31.8659 105.868,-43.8156 116.983,-53.6331"/>
<polygon fill="midnightblue" stroke="midnightblue" points="114.884,-56.4574 124.622,-60.6308 119.612,-51.2954 114.884,-56.4574"/>
</g>
<!-- Node5&#45;&gt;Node3 -->
<g id="edge12" class="edge"><title>Node5&#45;&gt;Node3</title>
<path fill="none" stroke="midnightblue" d="M41.2907,-60.6308C44.4592,-52.9736 48.8712,-42.3113 52.7177,-33.0155"/>
<polygon fill="midnightblue" stroke="midnightblue" points="55.9945,-34.2503 56.5841,-23.6719 49.5264,-31.5738 55.9945,-34.2503"/>
</g>
<!-- Node7 -->
<g id="node15" class="node"><title>Node7</title>
<a xlink:href="arch_8h.html" target="_top" xlink:title="fae/util/arch.h">
<polygon fill="none" stroke="black" points="178.205,-0.695312 178.205,-23.3047 267.795,-23.3047 267.795,-0.695312 178.205,-0.695312"/>
<text text-anchor="middle" x="223" y="-8.30469" font-family="Futura" font-size="11.00">fae/util/arch.h</text>
</a>
</g>
<!-- Node6&#45;&gt;Node7 -->
<g id="edge16" class="edge"><title>Node6&#45;&gt;Node7</title>
<path fill="none" stroke="midnightblue" d="M223,-60.6308C223,-53.218 223,-42.9888 223,-33.9096"/>
<polygon fill="midnightblue" stroke="midnightblue" points="226.5,-33.6718 223,-23.6719 219.5,-33.6719 226.5,-33.6718"/>
</g>
<!-- Node8 -->
<g id="node17" class="node"><title>Node8</title>
<a xlink:href="alignof_8h.html" target="_top" xlink:title="fae/util/alignof.h">
<polygon fill="none" stroke="black" points="286.007,-0.695312 286.007,-23.3047 387.993,-23.3047 387.993,-0.695312 286.007,-0.695312"/>
<text text-anchor="middle" x="337" y="-8.30469" font-family="Futura" font-size="11.00">fae/util/alignof.h</text>
</a>
</g>
<!-- Node6&#45;&gt;Node8 -->
<g id="edge18" class="edge"><title>Node6&#45;&gt;Node8</title>
<path fill="none" stroke="midnightblue" d="M243.381,-60.6308C261.184,-51.5733 287.251,-38.3109 307.361,-28.0794"/>
<polygon fill="midnightblue" stroke="midnightblue" points="309.085,-31.1291 316.411,-23.475 305.911,-24.8902 309.085,-31.1291"/>
</g>
<!-- Node9 -->
<g id="node19" class="node"><title>Node9</title>
<a xlink:href="minmax_8h.html" target="_top" xlink:title="fae/util/minmax.h">
<polygon fill="none" stroke="red" points="405.837,-0.695312 405.837,-23.3047 512.163,-23.3047 512.163,-0.695312 405.837,-0.695312"/>
<text text-anchor="middle" x="459" y="-8.30469" font-family="Futura" font-size="11.00">fae/util/minmax.h</text>
</a>
</g>
<!-- Node6&#45;&gt;Node9 -->
<g id="edge20" class="edge"><title>Node6&#45;&gt;Node9</title>
<path fill="none" stroke="midnightblue" d="M253.982,-62.3714C257.026,-61.5564 260.07,-60.7538 263,-60 310.541,-47.7665 364.837,-34.8266 404.207,-25.6283"/>
<polygon fill="midnightblue" stroke="midnightblue" points="405.191,-28.993 414.135,-23.3142 403.602,-22.1757 405.191,-28.993"/>
</g>
</g>
</svg>
