<?xml version="1.0" encoding="UTF-8" standalone="no"?>
<!DOCTYPE svg PUBLIC "-//W3C//DTD SVG 1.1//EN"
 "http://www.w3.org/Graphics/SVG/1.1/DTD/svg11.dtd">
<!-- Generated by graphviz version 2.28.0 (20121015.0031)
 -->
<!-- Title: src/platform/macosx/doremir/atomic.c Pages: 1 -->
<svg width="594pt" height="286pt"
 viewBox="0.00 0.00 594.00 286.00" xmlns="http://www.w3.org/2000/svg" xmlns:xlink="http://www.w3.org/1999/xlink">
<g id="graph1" class="graph" transform="scale(1 1) rotate(0) translate(4 282)">
<title>src/platform/macosx/doremir/atomic.c</title>
<!-- Node1 -->
<g id="node1" class="node"><title>Node1</title>
<polygon fill="#bfbfbf" stroke="black" points="137.597,-240.391 137.597,-277.609 258.403,-277.609 258.403,-240.391 137.597,-240.391"/>
<text text-anchor="start" x="145.597" y="-262.609" font-family="Futura" font-size="11.00">src/platform/macosx</text>
<text text-anchor="middle" x="198" y="-248" font-family="Futura" font-size="11.00">/doremir/atomic.c</text>
</g>
<!-- Node2 -->
<g id="node3" class="node"><title>Node2</title>
<a xlink:href="atomic_8h.html" target="_top" xlink:title="doremir/atomic.h">
<polygon fill="none" stroke="black" points="25.5076,-180.695 25.5076,-203.305 128.492,-203.305 128.492,-180.695 25.5076,-180.695"/>
<text text-anchor="middle" x="77" y="-188.305" font-family="Futura" font-size="11.00">doremir/atomic.h</text>
</a>
</g>
<!-- Node1&#45;&gt;Node2 -->
<g id="edge2" class="edge"><title>Node1&#45;&gt;Node2</title>
<path fill="none" stroke="midnightblue" d="M164.936,-240.238C146.398,-230.28 123.499,-217.979 105.717,-208.426"/>
<polygon fill="midnightblue" stroke="midnightblue" points="106.89,-205.083 96.424,-203.434 103.577,-211.25 106.89,-205.083"/>
</g>
<!-- Node5 -->
<g id="node9" class="node"><title>Node5</title>
<a xlink:href="string_8h.html" target="_top" xlink:title="doremir/string.h">
<polygon fill="none" stroke="black" points="63.4402,-0.695312 63.4402,-23.3047 160.56,-23.3047 160.56,-0.695312 63.4402,-0.695312"/>
<text text-anchor="middle" x="112" y="-8.30469" font-family="Futura" font-size="11.00">doremir/string.h</text>
</a>
</g>
<!-- Node1&#45;&gt;Node5 -->
<g id="edge14" class="edge"><title>Node1&#45;&gt;Node5</title>
<path fill="none" stroke="midnightblue" d="M191.815,-240.38C176.237,-196 135.457,-79.8259 119.019,-32.9953"/>
<polygon fill="midnightblue" stroke="midnightblue" points="122.258,-31.6569 115.644,-23.3806 115.653,-33.9754 122.258,-31.6569"/>
</g>
<!-- Node6 -->
<g id="node14" class="node"><title>Node6</title>
<a xlink:href="util_8h.html" target="_top" xlink:title="doremir/util.h">
<polygon fill="none" stroke="red" points="197.754,-180.695 197.754,-203.305 282.246,-203.305 282.246,-180.695 197.754,-180.695"/>
<text text-anchor="middle" x="240" y="-188.305" font-family="Futura" font-size="11.00">doremir/util.h</text>
</a>
</g>
<!-- Node1&#45;&gt;Node6 -->
<g id="edge16" class="edge"><title>Node1&#45;&gt;Node6</title>
<path fill="none" stroke="midnightblue" d="M209.477,-240.238C215.101,-231.534 221.881,-221.041 227.622,-212.157"/>
<polygon fill="midnightblue" stroke="midnightblue" points="230.648,-213.923 233.135,-203.624 224.768,-210.124 230.648,-213.923"/>
</g>
<!-- Node10 -->
<g id="node22" class="node"><title>Node10</title>
<polygon fill="none" stroke="#bfbfbf" points="300.148,-180.695 300.148,-203.305 415.852,-203.305 415.852,-180.695 300.148,-180.695"/>
<text text-anchor="middle" x="358" y="-188.305" font-family="Futura" font-size="11.00">libkern/OSAtomic.h</text>
</g>
<!-- Node1&#45;&gt;Node10 -->
<g id="edge24" class="edge"><title>Node1&#45;&gt;Node10</title>
<path fill="none" stroke="midnightblue" d="M241.721,-240.238C267.256,-229.865 299.047,-216.95 322.931,-207.247"/>
<polygon fill="midnightblue" stroke="midnightblue" points="324.368,-210.441 332.315,-203.434 321.733,-203.956 324.368,-210.441"/>
</g>
<!-- Node3 -->
<g id="node5" class="node"><title>Node3</title>
<a xlink:href="doremir_8h.html" target="_top" xlink:title="doremir.h">
<polygon fill="none" stroke="red" points="64.1362,-120.695 64.1362,-143.305 127.864,-143.305 127.864,-120.695 64.1362,-120.695"/>
<text text-anchor="middle" x="96" y="-128.305" font-family="Futura" font-size="11.00">doremir.h</text>
</a>
</g>
<!-- Node2&#45;&gt;Node3 -->
<g id="edge4" class="edge"><title>Node2&#45;&gt;Node3</title>
<path fill="none" stroke="midnightblue" d="M80.3968,-180.631C82.8785,-173.055 86.3238,-162.538 89.3459,-153.313"/>
<polygon fill="midnightblue" stroke="midnightblue" points="92.717,-154.265 92.504,-143.672 86.0648,-152.085 92.717,-154.265"/>
</g>
<!-- Node4 -->
<g id="node7" class="node"><title>Node4</title>
<a xlink:href="std_8h.html" target="_top" xlink:title="doremir/std.h">
<polygon fill="none" stroke="red" points="-0.0393066,-60.6953 -0.0393066,-83.3047 84.0393,-83.3047 84.0393,-60.6953 -0.0393066,-60.6953"/>
<text text-anchor="middle" x="42" y="-68.3047" font-family="Futura" font-size="11.00">doremir/std.h</text>
</a>
</g>
<!-- Node2&#45;&gt;Node4 -->
<g id="edge12" class="edge"><title>Node2&#45;&gt;Node4</title>
<path fill="none" stroke="midnightblue" d="M71.1223,-180.49C66.1442,-171.167 59.1703,-157.044 55,-144 49.7004,-127.424 46.3249,-107.938 44.3456,-93.5773"/>
<polygon fill="midnightblue" stroke="midnightblue" points="47.7746,-92.7945 43.0474,-83.3127 40.8299,-93.6729 47.7746,-92.7945"/>
</g>
<!-- Node3&#45;&gt;Node4 -->
<g id="edge6" class="edge"><title>Node3&#45;&gt;Node4</title>
<path fill="none" stroke="midnightblue" d="M86.3459,-120.631C78.7617,-112.485 68.0111,-100.938 58.9945,-91.2533"/>
<polygon fill="midnightblue" stroke="midnightblue" points="61.3117,-88.6059 51.9359,-83.6719 56.1885,-93.3758 61.3117,-88.6059"/>
</g>
<!-- Node4&#45;&gt;Node5 -->
<g id="edge8" class="edge"><title>Node4&#45;&gt;Node5</title>
<path fill="none" stroke="midnightblue" d="M54.5146,-60.6308C64.7391,-52.159 79.4033,-40.0087 91.3615,-30.1004"/>
<polygon fill="midnightblue" stroke="midnightblue" points="93.653,-32.7472 99.1202,-23.6719 89.1868,-27.357 93.653,-32.7472"/>
</g>
<!-- Node5&#45;&gt;Node3 -->
<g id="edge10" class="edge"><title>Node5&#45;&gt;Node3</title>
<path fill="none" stroke="midnightblue" d="M110.56,-23.6179C107.907,-43.1873 102.203,-85.2504 98.7751,-110.534"/>
<polygon fill="midnightblue" stroke="midnightblue" points="95.2954,-110.149 97.4199,-120.528 102.232,-111.089 95.2954,-110.149"/>
</g>
<!-- Node7 -->
<g id="node16" class="node"><title>Node7</title>
<a xlink:href="arch_8h.html" target="_top" xlink:title="doremir/util/arch.h">
<polygon fill="none" stroke="black" points="183.819,-120.695 183.819,-143.305 296.181,-143.305 296.181,-120.695 183.819,-120.695"/>
<text text-anchor="middle" x="240" y="-128.305" font-family="Futura" font-size="11.00">doremir/util/arch.h</text>
</a>
</g>
<!-- Node6&#45;&gt;Node7 -->
<g id="edge18" class="edge"><title>Node6&#45;&gt;Node7</title>
<path fill="none" stroke="midnightblue" d="M240,-180.631C240,-173.218 240,-162.989 240,-153.91"/>
<polygon fill="midnightblue" stroke="midnightblue" points="243.5,-153.672 240,-143.672 236.5,-153.672 243.5,-153.672"/>
</g>
<!-- Node8 -->
<g id="node18" class="node"><title>Node8</title>
<a xlink:href="alignof_8h.html" target="_top" xlink:title="doremir/util/alignof.h">
<polygon fill="none" stroke="black" points="314.62,-120.695 314.62,-143.305 439.38,-143.305 439.38,-120.695 314.62,-120.695"/>
<text text-anchor="middle" x="377" y="-128.305" font-family="Futura" font-size="11.00">doremir/util/alignof.h</text>
</a>
</g>
<!-- Node6&#45;&gt;Node8 -->
<g id="edge20" class="edge"><title>Node6&#45;&gt;Node8</title>
<path fill="none" stroke="midnightblue" d="M264.493,-180.631C286.371,-171.368 318.636,-157.709 343.011,-147.39"/>
<polygon fill="midnightblue" stroke="midnightblue" points="344.413,-150.597 352.257,-143.475 341.684,-144.151 344.413,-150.597"/>
</g>
<!-- Node9 -->
<g id="node20" class="node"><title>Node9</title>
<a xlink:href="minmax_8h.html" target="_top" xlink:title="doremir/util/minmax.h">
<polygon fill="none" stroke="red" points="457.45,-120.695 457.45,-143.305 586.55,-143.305 586.55,-120.695 457.45,-120.695"/>
<text text-anchor="middle" x="522" y="-128.305" font-family="Futura" font-size="11.00">doremir/util/minmax.h</text>
</a>
</g>
<!-- Node6&#45;&gt;Node9 -->
<g id="edge22" class="edge"><title>Node6&#45;&gt;Node9</title>
<path fill="none" stroke="midnightblue" d="M282.293,-181.838C285.239,-181.212 288.163,-180.595 291,-180 348.282,-167.995 413.652,-154.736 460.197,-145.37"/>
<polygon fill="midnightblue" stroke="midnightblue" points="461.015,-148.776 470.129,-143.373 459.635,-141.913 461.015,-148.776"/>
</g>
</g>
</svg>
