<?xml version="1.0" encoding="UTF-8" standalone="no"?>
<!DOCTYPE svg PUBLIC "-//W3C//DTD SVG 1.1//EN"
 "http://www.w3.org/Graphics/SVG/1.1/DTD/svg11.dtd">
<!-- Generated by graphviz version 2.28.0 (20121015.0031)
 -->
<!-- Title: src/platform/macosx/doremir/thread.c Pages: 1 -->
<svg width="529pt" height="226pt"
 viewBox="0.00 0.00 529.00 226.00" xmlns="http://www.w3.org/2000/svg" xmlns:xlink="http://www.w3.org/1999/xlink">
<g id="graph1" class="graph" transform="scale(1 1) rotate(0) translate(4 222)">
<title>src/platform/macosx/doremir/thread.c</title>
<!-- Node1 -->
<g id="node1" class="node"><title>Node1</title>
<polygon fill="#bfbfbf" stroke="black" points="242.597,-180.391 242.597,-217.609 363.403,-217.609 363.403,-180.391 242.597,-180.391"/>
<text text-anchor="start" x="250.597" y="-202.609" font-family="Futura" font-size="11.00">src/platform/macosx</text>
<text text-anchor="middle" x="303" y="-188" font-family="Futura" font-size="11.00">/doremir/thread.c</text>
</g>
<!-- Node2 -->
<g id="node3" class="node"><title>Node2</title>
<a xlink:href="thread_8h.html" target="_top" xlink:title="doremir/thread.h">
<polygon fill="none" stroke="black" points="39.7063,-120.695 39.7063,-143.305 142.294,-143.305 142.294,-120.695 39.7063,-120.695"/>
<text text-anchor="middle" x="91" y="-128.305" font-family="Futura" font-size="11.00">doremir/thread.h</text>
</a>
</g>
<!-- Node1&#45;&gt;Node2 -->
<g id="edge2" class="edge"><title>Node1&#45;&gt;Node2</title>
<path fill="none" stroke="midnightblue" d="M245.35,-180.324C210.499,-169.639 166.773,-156.232 134.768,-146.419"/>
<polygon fill="midnightblue" stroke="midnightblue" points="135.401,-142.953 124.814,-143.368 133.349,-149.645 135.401,-142.953"/>
</g>
<!-- Node5 -->
<g id="node10" class="node"><title>Node5</title>
<a xlink:href="util_8h.html" target="_top" xlink:title="doremir/util.h">
<polygon fill="none" stroke="red" points="214.754,-120.695 214.754,-143.305 299.246,-143.305 299.246,-120.695 214.754,-120.695"/>
<text text-anchor="middle" x="257" y="-128.305" font-family="Futura" font-size="11.00">doremir/util.h</text>
</a>
</g>
<!-- Node1&#45;&gt;Node5 -->
<g id="edge10" class="edge"><title>Node1&#45;&gt;Node5</title>
<path fill="none" stroke="midnightblue" d="M290.43,-180.238C284.206,-171.443 276.688,-160.82 270.359,-151.877"/>
<polygon fill="midnightblue" stroke="midnightblue" points="273.152,-149.765 264.519,-143.624 267.439,-153.809 273.152,-149.765"/>
</g>
<!-- Node9 -->
<g id="node18" class="node"><title>Node9</title>
<polygon fill="none" stroke="#bfbfbf" points="317.653,-120.695 317.653,-143.305 382.347,-143.305 382.347,-120.695 317.653,-120.695"/>
<text text-anchor="middle" x="350" y="-128.305" font-family="Futura" font-size="11.00">pthread.h</text>
</g>
<!-- Node1&#45;&gt;Node9 -->
<g id="edge18" class="edge"><title>Node1&#45;&gt;Node9</title>
<path fill="none" stroke="midnightblue" d="M315.843,-180.238C322.203,-171.443 329.884,-160.82 336.35,-151.877"/>
<polygon fill="midnightblue" stroke="midnightblue" points="339.295,-153.779 342.318,-143.624 333.622,-149.677 339.295,-153.779"/>
</g>
<!-- Node10 -->
<g id="node20" class="node"><title>Node10</title>
<polygon fill="none" stroke="#bfbfbf" points="399.871,-120.695 399.871,-143.305 454.129,-143.305 454.129,-120.695 399.871,-120.695"/>
<text text-anchor="middle" x="427" y="-128.305" font-family="Futura" font-size="11.00">unistd.h</text>
</g>
<!-- Node1&#45;&gt;Node10 -->
<g id="edge20" class="edge"><title>Node1&#45;&gt;Node10</title>
<path fill="none" stroke="midnightblue" d="M336.884,-180.238C356.057,-170.188 379.783,-157.751 398.076,-148.162"/>
<polygon fill="midnightblue" stroke="midnightblue" points="399.863,-151.177 407.094,-143.434 396.613,-144.977 399.863,-151.177"/>
</g>
<!-- Node3 -->
<g id="node5" class="node"><title>Node3</title>
<a xlink:href="doremir_8h.html" target="_top" xlink:title="doremir.h">
<polygon fill="none" stroke="red" points="-0.86377,-60.6953 -0.86377,-83.3047 62.8638,-83.3047 62.8638,-60.6953 -0.86377,-60.6953"/>
<text text-anchor="middle" x="31" y="-68.3047" font-family="Futura" font-size="11.00">doremir.h</text>
</a>
</g>
<!-- Node2&#45;&gt;Node3 -->
<g id="edge4" class="edge"><title>Node2&#45;&gt;Node3</title>
<path fill="none" stroke="midnightblue" d="M80.2732,-120.631C71.6778,-112.322 59.422,-100.475 49.284,-90.6745"/>
<polygon fill="midnightblue" stroke="midnightblue" points="51.6624,-88.1057 42.0399,-83.6719 46.7972,-93.1386 51.6624,-88.1057"/>
</g>
<!-- Node4 -->
<g id="node7" class="node"><title>Node4</title>
<a xlink:href="std_8h.html" target="_top" xlink:title="doremir/std.h">
<polygon fill="none" stroke="red" points="18.9607,-0.695312 18.9607,-23.3047 103.039,-23.3047 103.039,-0.695312 18.9607,-0.695312"/>
<text text-anchor="middle" x="61" y="-8.30469" font-family="Futura" font-size="11.00">doremir/std.h</text>
</a>
</g>
<!-- Node2&#45;&gt;Node4 -->
<g id="edge8" class="edge"><title>Node2&#45;&gt;Node4</title>
<path fill="none" stroke="midnightblue" d="M88.3377,-120.528C83.3689,-100.984 72.6047,-58.6453 66.1651,-33.3159"/>
<polygon fill="midnightblue" stroke="midnightblue" points="69.5556,-32.4471 63.6995,-23.6179 62.7714,-34.172 69.5556,-32.4471"/>
</g>
<!-- Node3&#45;&gt;Node4 -->
<g id="edge6" class="edge"><title>Node3&#45;&gt;Node4</title>
<path fill="none" stroke="midnightblue" d="M36.3634,-60.6308C40.3661,-52.8921 45.9565,-42.0841 50.8004,-32.7193"/>
<polygon fill="midnightblue" stroke="midnightblue" points="53.9946,-34.1621 55.4801,-23.6719 47.777,-30.9461 53.9946,-34.1621"/>
</g>
<!-- Node6 -->
<g id="node12" class="node"><title>Node6</title>
<a xlink:href="arch_8h.html" target="_top" xlink:title="doremir/util/arch.h">
<polygon fill="none" stroke="black" points="118.819,-60.6953 118.819,-83.3047 231.181,-83.3047 231.181,-60.6953 118.819,-60.6953"/>
<text text-anchor="middle" x="175" y="-68.3047" font-family="Futura" font-size="11.00">doremir/util/arch.h</text>
</a>
</g>
<!-- Node5&#45;&gt;Node6 -->
<g id="edge12" class="edge"><title>Node5&#45;&gt;Node6</title>
<path fill="none" stroke="midnightblue" d="M242.34,-120.631C230.056,-111.942 212.302,-99.3841 198.107,-89.344"/>
<polygon fill="midnightblue" stroke="midnightblue" points="199.995,-86.3922 189.81,-83.475 195.953,-92.1072 199.995,-86.3922"/>
</g>
<!-- Node7 -->
<g id="node14" class="node"><title>Node7</title>
<a xlink:href="alignof_8h.html" target="_top" xlink:title="doremir/util/alignof.h">
<polygon fill="none" stroke="black" points="249.62,-60.6953 249.62,-83.3047 374.38,-83.3047 374.38,-60.6953 249.62,-60.6953"/>
<text text-anchor="middle" x="312" y="-68.3047" font-family="Futura" font-size="11.00">doremir/util/alignof.h</text>
</a>
</g>
<!-- Node5&#45;&gt;Node7 -->
<g id="edge14" class="edge"><title>Node5&#45;&gt;Node7</title>
<path fill="none" stroke="midnightblue" d="M266.833,-120.631C274.635,-112.403 285.727,-100.707 294.966,-90.9633"/>
<polygon fill="midnightblue" stroke="midnightblue" points="297.539,-93.3365 301.88,-83.6719 292.459,-88.5198 297.539,-93.3365"/>
</g>
<!-- Node8 -->
<g id="node16" class="node"><title>Node8</title>
<a xlink:href="minmax_8h.html" target="_top" xlink:title="doremir/util/minmax.h">
<polygon fill="none" stroke="red" points="392.45,-60.6953 392.45,-83.3047 521.55,-83.3047 521.55,-60.6953 392.45,-60.6953"/>
<text text-anchor="middle" x="457" y="-68.3047" font-family="Futura" font-size="11.00">doremir/util/minmax.h</text>
</a>
</g>
<!-- Node5&#45;&gt;Node8 -->
<g id="edge16" class="edge"><title>Node5&#45;&gt;Node8</title>
<path fill="none" stroke="midnightblue" d="M292.756,-120.631C325.929,-111.011 375.458,-96.6472 411.449,-86.2097"/>
<polygon fill="midnightblue" stroke="midnightblue" points="412.588,-89.5239 421.217,-83.3771 410.638,-82.8009 412.588,-89.5239"/>
</g>
</g>
</svg>
