<?xml version="1.0" encoding="UTF-8" standalone="no"?>
<!DOCTYPE svg PUBLIC "-//W3C//DTD SVG 1.1//EN"
 "http://www.w3.org/Graphics/SVG/1.1/DTD/svg11.dtd">
<!-- Generated by graphviz version 2.28.0 (20121015.0031)
 -->
<!-- Title: include/fae/map.h Pages: 1 -->
<svg width="891pt" height="226pt"
 viewBox="0.00 0.00 891.00 226.00" xmlns="http://www.w3.org/2000/svg" xmlns:xlink="http://www.w3.org/1999/xlink">
<g id="graph1" class="graph" transform="scale(1 1) rotate(0) translate(4 222)">
<title>include/fae/map.h</title>
<!-- Node1 -->
<g id="node1" class="node"><title>Node1</title>
<polygon fill="#bfbfbf" stroke="black" points="669.871,-194.695 669.871,-217.305 780.129,-217.305 780.129,-194.695 669.871,-194.695"/>
<text text-anchor="middle" x="725" y="-202.305" font-family="Futura" font-size="11.00">include/fae/map.h</text>
</g>
<!-- Node2 -->
<g id="node3" class="node"><title>Node2</title>
<a xlink:href="literals_8h.html" target="_top" xlink:title="include/fae/util/literals.h">
<polygon fill="none" stroke="black" points="572.475,-134.695 572.475,-157.305 713.525,-157.305 713.525,-134.695 572.475,-134.695"/>
<text text-anchor="middle" x="643" y="-142.305" font-family="Futura" font-size="11.00">include/fae/util/literals.h</text>
</a>
</g>
<!-- Node1&#45;&gt;Node2 -->
<g id="edge2" class="edge"><title>Node1&#45;&gt;Node2</title>
<path fill="none" stroke="midnightblue" d="M702.065,-188.778C687.9,-178.758 670.138,-166.195 657.81,-157.475"/>
<polygon fill="midnightblue" stroke="midnightblue" points="700.155,-191.714 710.34,-194.631 704.197,-185.999 700.155,-191.714"/>
</g>
<!-- Node10 -->
<g id="node19" class="node"><title>Node10</title>
<a xlink:href="map_8c.html" target="_top" xlink:title="src/fae/map.c">
<polygon fill="none" stroke="black" points="796.118,-7.69531 796.118,-30.3047 883.882,-30.3047 883.882,-7.69531 796.118,-7.69531"/>
<text text-anchor="middle" x="840" y="-15.3047" font-family="Futura" font-size="11.00">src/fae/map.c</text>
</a>
</g>
<!-- Node1&#45;&gt;Node10 -->
<g id="edge20" class="edge"><title>Node1&#45;&gt;Node10</title>
<path fill="none" stroke="midnightblue" d="M736.975,-185.735C761.135,-146.87 814.989,-60.2347 833.559,-30.3616"/>
<polygon fill="midnightblue" stroke="midnightblue" points="733.819,-184.183 731.512,-194.524 739.764,-187.878 733.819,-184.183"/>
</g>
<!-- Node3 -->
<g id="node5" class="node"><title>Node3</title>
<a xlink:href="util_8h.html" target="_top" xlink:title="include/fae/util.h">
<polygon fill="none" stroke="red" points="461.577,-74.6953 461.577,-97.3047 564.423,-97.3047 564.423,-74.6953 461.577,-74.6953"/>
<text text-anchor="middle" x="513" y="-82.3047" font-family="Futura" font-size="11.00">include/fae/util.h</text>
</a>
</g>
<!-- Node2&#45;&gt;Node3 -->
<g id="edge4" class="edge"><title>Node2&#45;&gt;Node3</title>
<path fill="none" stroke="midnightblue" d="M610.396,-130.454C587.398,-120.193 557.129,-106.688 536.478,-97.475"/>
<polygon fill="midnightblue" stroke="midnightblue" points="609.2,-133.753 619.759,-134.631 612.052,-127.36 609.2,-133.753"/>
</g>
<!-- Node4 -->
<g id="node7" class="node"><title>Node4</title>
<a xlink:href="queue_8c.html" target="_top" xlink:title="src/fae/atomic/queue.c">
<polygon fill="none" stroke="black" points="-0.710449,-7.69531 -0.710449,-30.3047 134.71,-30.3047 134.71,-7.69531 -0.710449,-7.69531"/>
<text text-anchor="middle" x="67" y="-15.3047" font-family="Futura" font-size="11.00">src/fae/atomic/queue.c</text>
</a>
</g>
<!-- Node3&#45;&gt;Node4 -->
<g id="edge6" class="edge"><title>Node3&#45;&gt;Node4</title>
<path fill="none" stroke="midnightblue" d="M451.53,-79.2103C377.865,-71.8074 250.857,-57.5659 143,-38 131.259,-35.8702 118.61,-33.0777 107.064,-30.3297"/>
<polygon fill="midnightblue" stroke="midnightblue" points="451.265,-82.7012 461.563,-80.2094 451.959,-75.7357 451.265,-82.7012"/>
</g>
<!-- Node5 -->
<g id="node9" class="node"><title>Node5</title>
<a xlink:href="ring__buffer_8c.html" target="_top" xlink:title="src/fae/atomic/ring\l_buffer.c">
<polygon fill="none" stroke="black" points="152.229,-0.390625 152.229,-37.6094 267.771,-37.6094 267.771,-0.390625 152.229,-0.390625"/>
<text text-anchor="start" x="160.229" y="-22.6094" font-family="Futura" font-size="11.00">src/fae/atomic/ring</text>
<text text-anchor="middle" x="210" y="-8" font-family="Futura" font-size="11.00">_buffer.c</text>
</a>
</g>
<!-- Node3&#45;&gt;Node5 -->
<g id="edge8" class="edge"><title>Node3&#45;&gt;Node5</title>
<path fill="none" stroke="midnightblue" d="M451.35,-73.8732C403.592,-64.9762 335.869,-51.7539 277,-38 274.068,-37.3149 271.069,-36.592 268.046,-35.8452"/>
<polygon fill="midnightblue" stroke="midnightblue" points="450.757,-77.3228 461.227,-75.7047 452.033,-70.4401 450.757,-77.3228"/>
</g>
<!-- Node6 -->
<g id="node11" class="node"><title>Node6</title>
<a xlink:href="stack_8c.html" target="_top" xlink:title="src/fae/atomic/stack.c">
<polygon fill="none" stroke="black" points="286.061,-7.69531 286.061,-30.3047 415.939,-30.3047 415.939,-7.69531 286.061,-7.69531"/>
<text text-anchor="middle" x="351" y="-15.3047" font-family="Futura" font-size="11.00">src/fae/atomic/stack.c</text>
</a>
</g>
<!-- Node3&#45;&gt;Node6 -->
<g id="edge10" class="edge"><title>Node3&#45;&gt;Node6</title>
<path fill="none" stroke="midnightblue" d="M477.569,-70.7837C447.116,-58.5651 403.926,-41.2359 376.696,-30.3101"/>
<polygon fill="midnightblue" stroke="midnightblue" points="476.388,-74.0811 486.972,-74.5566 478.994,-67.5845 476.388,-74.0811"/>
</g>
<!-- Node7 -->
<g id="node13" class="node"><title>Node7</title>
<a xlink:href="audio_8c.html" target="_top" xlink:title="src/fae/audio.c">
<polygon fill="none" stroke="black" points="433.796,-7.69531 433.796,-30.3047 528.204,-30.3047 528.204,-7.69531 433.796,-7.69531"/>
<text text-anchor="middle" x="481" y="-15.3047" font-family="Futura" font-size="11.00">src/fae/audio.c</text>
</a>
</g>
<!-- Node3&#45;&gt;Node7 -->
<g id="edge12" class="edge"><title>Node3&#45;&gt;Node7</title>
<path fill="none" stroke="midnightblue" d="M503.33,-65.3574C497.713,-53.9493 490.857,-40.0212 486.235,-30.6334"/>
<polygon fill="midnightblue" stroke="midnightblue" points="500.302,-67.1308 507.859,-74.5566 506.582,-64.039 500.302,-67.1308"/>
</g>
<!-- Node8 -->
<g id="node15" class="node"><title>Node8</title>
<a xlink:href="buffer_8c.html" target="_top" xlink:title="src/fae/buffer.c">
<polygon fill="none" stroke="black" points="546.431,-7.69531 546.431,-30.3047 641.569,-30.3047 641.569,-7.69531 546.431,-7.69531"/>
<text text-anchor="middle" x="594" y="-15.3047" font-family="Futura" font-size="11.00">src/fae/buffer.c</text>
</a>
</g>
<!-- Node3&#45;&gt;Node8 -->
<g id="edge14" class="edge"><title>Node3&#45;&gt;Node8</title>
<path fill="none" stroke="midnightblue" d="M534.149,-68.0284C549.002,-56.1094 568.394,-40.5479 581.018,-30.4175"/>
<polygon fill="midnightblue" stroke="midnightblue" points="531.623,-65.5681 526.014,-74.5566 536.004,-71.0277 531.623,-65.5681"/>
</g>
<!-- Node9 -->
<g id="node17" class="node"><title>Node9</title>
<a xlink:href="file_8c.html" target="_top" xlink:title="src/fae/device/file.c">
<polygon fill="none" stroke="black" points="659.84,-7.69531 659.84,-30.3047 778.16,-30.3047 778.16,-7.69531 659.84,-7.69531"/>
<text text-anchor="middle" x="719" y="-15.3047" font-family="Futura" font-size="11.00">src/fae/device/file.c</text>
</a>
</g>
<!-- Node3&#45;&gt;Node9 -->
<g id="edge16" class="edge"><title>Node3&#45;&gt;Node9</title>
<path fill="none" stroke="midnightblue" d="M556.058,-71.4138C594.87,-59.1672 651.099,-41.4251 686.325,-30.3101"/>
<polygon fill="midnightblue" stroke="midnightblue" points="554.581,-68.2097 546.097,-74.5566 556.687,-74.8852 554.581,-68.2097"/>
</g>
<!-- Node3&#45;&gt;Node10 -->
<g id="edge18" class="edge"><title>Node3&#45;&gt;Node10</title>
<path fill="none" stroke="midnightblue" d="M574.609,-77.2608C630.526,-69.5699 714.996,-56.2813 787,-38 795.288,-35.8956 804.141,-33.111 812.191,-30.3626"/>
<polygon fill="midnightblue" stroke="midnightblue" points="573.948,-73.8183 564.51,-78.6317 574.89,-80.7547 573.948,-73.8183"/>
</g>
</g>
</svg>
