<?xml version="1.0" encoding="UTF-8" standalone="no"?>
<!DOCTYPE svg PUBLIC "-//W3C//DTD SVG 1.1//EN"
 "http://www.w3.org/Graphics/SVG/1.1/DTD/svg11.dtd">
<!-- Generated by graphviz version 2.28.0 (20121015.0031)
 -->
<!-- Title: include/fae/map.h Pages: 1 -->
<svg width="610pt" height="272pt"
 viewBox="0.00 0.00 610.00 272.00" xmlns="http://www.w3.org/2000/svg" xmlns:xlink="http://www.w3.org/1999/xlink">
<g id="graph1" class="graph" transform="scale(1 1) rotate(0) translate(4 268)">
<title>include/fae/map.h</title>
<!-- Node1 -->
<g id="node1" class="node"><title>Node1</title>
<polygon fill="#bfbfbf" stroke="black" points="191.871,-240.695 191.871,-263.305 302.129,-263.305 302.129,-240.695 191.871,-240.695"/>
<text text-anchor="middle" x="247" y="-248.305" font-family="Futura" font-size="11.00">include/fae/map.h</text>
</g>
<!-- Node2 -->
<g id="node3" class="node"><title>Node2</title>
<a xlink:href="fae_2fae_8h.html" target="_top" xlink:title="fae.h">
<polygon fill="none" stroke="red" points="202.23,-60.6953 202.23,-83.3047 243.77,-83.3047 243.77,-60.6953 202.23,-60.6953"/>
<text text-anchor="middle" x="223" y="-68.3047" font-family="Futura" font-size="11.00">fae.h</text>
</a>
</g>
<!-- Node1&#45;&gt;Node2 -->
<g id="edge2" class="edge"><title>Node1&#45;&gt;Node2</title>
<path fill="none" stroke="midnightblue" d="M218.925,-240.626C202.946,-233.101 184.311,-221.196 175,-204 154.485,-166.109 185.659,-117.622 206.592,-91.562"/>
<polygon fill="midnightblue" stroke="midnightblue" points="209.489,-93.5521 213.209,-83.6315 204.115,-89.0675 209.489,-93.5521"/>
</g>
<!-- Node8 -->
<g id="node16" class="node"><title>Node8</title>
<a xlink:href="pair_8h.html" target="_top" xlink:title="fae/pair.h">
<polygon fill="none" stroke="black" points="183.651,-180.695 183.651,-203.305 250.349,-203.305 250.349,-180.695 183.651,-180.695"/>
<text text-anchor="middle" x="217" y="-188.305" font-family="Futura" font-size="11.00">fae/pair.h</text>
</a>
</g>
<!-- Node1&#45;&gt;Node8 -->
<g id="edge16" class="edge"><title>Node1&#45;&gt;Node8</title>
<path fill="none" stroke="midnightblue" d="M241.637,-240.631C237.634,-232.892 232.043,-222.084 227.2,-212.719"/>
<polygon fill="midnightblue" stroke="midnightblue" points="230.223,-210.946 222.52,-203.672 224.005,-214.162 230.223,-210.946"/>
</g>
<!-- Node9 -->
<g id="node19" class="node"><title>Node9</title>
<a xlink:href="list_8h.html" target="_top" xlink:title="fae/list.h">
<polygon fill="none" stroke="black" points="221.906,-120.695 221.906,-143.305 282.094,-143.305 282.094,-120.695 221.906,-120.695"/>
<text text-anchor="middle" x="252" y="-128.305" font-family="Futura" font-size="11.00">fae/list.h</text>
</a>
</g>
<!-- Node1&#45;&gt;Node9 -->
<g id="edge24" class="edge"><title>Node1&#45;&gt;Node9</title>
<path fill="none" stroke="midnightblue" d="M250.427,-240.69C253.369,-231.262 257.383,-216.868 259,-204 261.12,-187.127 258.953,-167.93 256.487,-153.756"/>
<polygon fill="midnightblue" stroke="midnightblue" points="259.859,-152.758 254.521,-143.605 252.986,-154.088 259.859,-152.758"/>
</g>
<!-- Node10 -->
<g id="node23" class="node"><title>Node10</title>
<a xlink:href="string_8h.html" target="_top" xlink:title="fae/string.h">
<polygon fill="none" stroke="black" points="299.827,-120.695 299.827,-143.305 374.173,-143.305 374.173,-120.695 299.827,-120.695"/>
<text text-anchor="middle" x="337" y="-128.305" font-family="Futura" font-size="11.00">fae/string.h</text>
</a>
</g>
<!-- Node1&#45;&gt;Node10 -->
<g id="edge26" class="edge"><title>Node1&#45;&gt;Node10</title>
<path fill="none" stroke="midnightblue" d="M254.987,-240.528C270.226,-220.548 303.636,-176.744 322.779,-151.646"/>
<polygon fill="midnightblue" stroke="midnightblue" points="325.62,-153.692 328.902,-143.618 320.054,-149.447 325.62,-153.692"/>
</g>
<!-- Node3 -->
<g id="node5" class="node"><title>Node3</title>
<a xlink:href="atomic_8h.html" target="_top" xlink:title="fae/atomic.h">
<polygon fill="none" stroke="red" points="-0.105713,-0.695312 -0.105713,-23.3047 80.1057,-23.3047 80.1057,-0.695312 -0.105713,-0.695312"/>
<text text-anchor="middle" x="40" y="-8.30469" font-family="Futura" font-size="11.00">fae/atomic.h</text>
</a>
</g>
<!-- Node2&#45;&gt;Node3 -->
<g id="edge4" class="edge"><title>Node2&#45;&gt;Node3</title>
<path fill="none" stroke="midnightblue" d="M201.999,-65.6475C171.417,-56.8433 114.681,-39.0415 77.0493,-26.5866"/>
<polygon fill="midnightblue" stroke="midnightblue" points="78.0443,-23.229 67.4506,-23.386 75.83,-29.8696 78.0443,-23.229"/>
</g>
<!-- Node4 -->
<g id="node8" class="node"><title>Node4</title>
<polygon fill="none" stroke="#bfbfbf" points="98.6057,-0.695312 98.6057,-23.3047 215.394,-23.3047 215.394,-0.695312 98.6057,-0.695312"/>
<text text-anchor="middle" x="157" y="-8.30469" font-family="Futura" font-size="11.00">fae/atomic/queue.h</text>
</g>
<!-- Node2&#45;&gt;Node4 -->
<g id="edge8" class="edge"><title>Node2&#45;&gt;Node4</title>
<path fill="none" stroke="midnightblue" d="M211.201,-60.6308C201.653,-52.2405 187.999,-40.242 176.785,-30.3869"/>
<polygon fill="midnightblue" stroke="midnightblue" points="178.966,-27.644 169.144,-23.6719 174.345,-32.9021 178.966,-27.644"/>
</g>
<!-- Node5 -->
<g id="node10" class="node"><title>Node5</title>
<a xlink:href="stack_8h.html" target="_top" xlink:title="fae/atomic/stack.h">
<polygon fill="none" stroke="red" points="233.377,-0.695312 233.377,-23.3047 344.623,-23.3047 344.623,-0.695312 233.377,-0.695312"/>
<text text-anchor="middle" x="289" y="-8.30469" font-family="Futura" font-size="11.00">fae/atomic/stack.h</text>
</a>
</g>
<!-- Node2&#45;&gt;Node5 -->
<g id="edge10" class="edge"><title>Node2&#45;&gt;Node5</title>
<path fill="none" stroke="midnightblue" d="M234.799,-60.6308C244.347,-52.2405 258.001,-40.242 269.215,-30.3869"/>
<polygon fill="midnightblue" stroke="midnightblue" points="271.655,-32.9021 276.856,-23.6719 267.034,-27.644 271.655,-32.9021"/>
</g>
<!-- Node6 -->
<g id="node12" class="node"><title>Node6</title>
<polygon fill="none" stroke="#bfbfbf" points="362.483,-0.695312 362.483,-23.3047 503.517,-23.3047 503.517,-0.695312 362.483,-0.695312"/>
<text text-anchor="middle" x="433" y="-8.30469" font-family="Futura" font-size="11.00">fae/atomic/ring_buffer.h</text>
</g>
<!-- Node2&#45;&gt;Node6 -->
<g id="edge12" class="edge"><title>Node2&#45;&gt;Node6</title>
<path fill="none" stroke="midnightblue" d="M243.903,-65.2267C276.793,-56.143 341.451,-38.285 385.927,-26.0012"/>
<polygon fill="midnightblue" stroke="midnightblue" points="386.942,-29.352 395.649,-23.316 385.078,-22.6046 386.942,-29.352"/>
</g>
<!-- Node7 -->
<g id="node14" class="node"><title>Node7</title>
<a xlink:href="system_8h.html" target="_top" xlink:title="fae/system.h">
<polygon fill="none" stroke="red" points="521.983,-0.695312 521.983,-23.3047 602.017,-23.3047 602.017,-0.695312 521.983,-0.695312"/>
<text text-anchor="middle" x="562" y="-8.30469" font-family="Futura" font-size="11.00">fae/system.h</text>
</a>
</g>
<!-- Node2&#45;&gt;Node7 -->
<g id="edge14" class="edge"><title>Node2&#45;&gt;Node7</title>
<path fill="none" stroke="midnightblue" d="M244.102,-67.9772C291.921,-61.038 412.143,-43.0891 512,-24 512.101,-23.9807 512.202,-23.9614 512.303,-23.942"/>
<polygon fill="midnightblue" stroke="midnightblue" points="512.802,-27.4115 521.923,-22.0214 511.431,-20.547 512.802,-27.4115"/>
</g>
<!-- Node3&#45;&gt;Node2 -->
<g id="edge6" class="edge"><title>Node3&#45;&gt;Node2</title>
<path fill="none" stroke="midnightblue" d="M78.1329,-23.3993C112.112,-33.5841 161.014,-49.0645 192.479,-59.5847"/>
<polygon fill="midnightblue" stroke="midnightblue" points="191.447,-62.9303 202.042,-62.813 193.687,-56.2981 191.447,-62.9303"/>
</g>
<!-- Node8&#45;&gt;Node2 -->
<g id="edge18" class="edge"><title>Node8&#45;&gt;Node2</title>
<path fill="none" stroke="midnightblue" d="M215.34,-180.389C213.408,-166.487 210.752,-141.364 213,-120 213.935,-111.116 215.837,-101.441 217.734,-93.1914"/>
<polygon fill="midnightblue" stroke="midnightblue" points="221.164,-93.8988 220.143,-83.3533 214.365,-92.234 221.164,-93.8988"/>
</g>
<!-- Node8&#45;&gt;Node9 -->
<g id="edge20" class="edge"><title>Node8&#45;&gt;Node9</title>
<path fill="none" stroke="midnightblue" d="M223.257,-180.631C227.976,-172.811 234.587,-161.856 240.279,-152.424"/>
<polygon fill="midnightblue" stroke="midnightblue" points="243.39,-154.042 245.56,-143.672 237.397,-150.425 243.39,-154.042"/>
</g>
<!-- Node9&#45;&gt;Node2 -->
<g id="edge22" class="edge"><title>Node9&#45;&gt;Node2</title>
<path fill="none" stroke="midnightblue" d="M246.815,-120.631C242.946,-112.892 237.542,-102.084 232.86,-92.7193"/>
<polygon fill="midnightblue" stroke="midnightblue" points="235.939,-91.0509 228.336,-83.6719 229.678,-94.1814 235.939,-91.0509"/>
</g>
<!-- Node10&#45;&gt;Node2 -->
<g id="edge28" class="edge"><title>Node10&#45;&gt;Node2</title>
<path fill="none" stroke="midnightblue" d="M316.619,-120.631C298.816,-111.573 272.749,-98.3109 252.639,-88.0794"/>
<polygon fill="midnightblue" stroke="midnightblue" points="254.089,-84.8902 243.589,-83.475 250.915,-91.1291 254.089,-84.8902"/>
</g>
</g>
</svg>
