<?xml version="1.0" encoding="UTF-8" standalone="no"?>
<!DOCTYPE svg PUBLIC "-//W3C//DTD SVG 1.1//EN"
 "http://www.w3.org/Graphics/SVG/1.1/DTD/svg11.dtd">
<!-- Generated by graphviz version 2.28.0 (20121015.0031)
 -->
<!-- Title: include/fae/map.h Pages: 1 -->
<svg width="929pt" height="226pt"
 viewBox="0.00 0.00 929.00 226.00" xmlns="http://www.w3.org/2000/svg" xmlns:xlink="http://www.w3.org/1999/xlink">
<g id="graph1" class="graph" transform="scale(1 1) rotate(0) translate(4 222)">
<title>include/fae/map.h</title>
<!-- Node1 -->
<g id="node1" class="node"><title>Node1</title>
<polygon fill="#bfbfbf" stroke="black" points="697.871,-194.695 697.871,-217.305 808.129,-217.305 808.129,-194.695 697.871,-194.695"/>
<text text-anchor="middle" x="753" y="-202.305" font-family="Futura" font-size="11.00">include/fae/map.h</text>
</g>
<!-- Node2 -->
<g id="node3" class="node"><title>Node2</title>
<a xlink:href="literals_8h.html" target="_top" xlink:title="include/fae/util/literals.h">
<polygon fill="none" stroke="black" points="596.475,-134.695 596.475,-157.305 737.525,-157.305 737.525,-134.695 596.475,-134.695"/>
<text text-anchor="middle" x="667" y="-142.305" font-family="Futura" font-size="11.00">include/fae/util/literals.h</text>
</a>
</g>
<!-- Node1&#45;&gt;Node2 -->
<g id="edge2" class="edge"><title>Node1&#45;&gt;Node2</title>
<path fill="none" stroke="midnightblue" d="M728.947,-188.778C714.09,-178.758 695.461,-166.195 682.532,-157.475"/>
<polygon fill="midnightblue" stroke="midnightblue" points="727.377,-191.941 737.625,-194.631 731.291,-186.138 727.377,-191.941"/>
</g>
<!-- Node10 -->
<g id="node19" class="node"><title>Node10</title>
<a xlink:href="map_8c.html" target="_top" xlink:title="src/fae/map.c">
<polygon fill="none" stroke="black" points="834.118,-7.69531 834.118,-30.3047 921.882,-30.3047 921.882,-7.69531 834.118,-7.69531"/>
<text text-anchor="middle" x="878" y="-15.3047" font-family="Futura" font-size="11.00">src/fae/map.c</text>
</a>
</g>
<!-- Node1&#45;&gt;Node10 -->
<g id="edge20" class="edge"><title>Node1&#45;&gt;Node10</title>
<path fill="none" stroke="midnightblue" d="M765.685,-186.227C791.78,-147.605 850.729,-60.3612 870.999,-30.3616"/>
<polygon fill="midnightblue" stroke="midnightblue" points="762.777,-184.278 760.079,-194.524 768.577,-188.197 762.777,-184.278"/>
</g>
<!-- Node3 -->
<g id="node5" class="node"><title>Node3</title>
<a xlink:href="util_8h.html" target="_top" xlink:title="include/fae/util.h">
<polygon fill="none" stroke="red" points="467.577,-74.6953 467.577,-97.3047 570.423,-97.3047 570.423,-74.6953 467.577,-74.6953"/>
<text text-anchor="middle" x="519" y="-82.3047" font-family="Futura" font-size="11.00">include/fae/util.h</text>
</a>
</g>
<!-- Node2&#45;&gt;Node3 -->
<g id="edge4" class="edge"><title>Node2&#45;&gt;Node3</title>
<path fill="none" stroke="midnightblue" d="M630.93,-130.864C604.624,-120.555 569.554,-106.812 545.729,-97.475"/>
<polygon fill="midnightblue" stroke="midnightblue" points="629.953,-134.241 640.541,-134.631 632.507,-127.723 629.953,-134.241"/>
</g>
<!-- Node4 -->
<g id="node7" class="node"><title>Node4</title>
<a xlink:href="queue_8c.html" target="_top" xlink:title="src/fae/atomic/queue.c">
<polygon fill="none" stroke="black" points="-0.710449,-7.69531 -0.710449,-30.3047 134.71,-30.3047 134.71,-7.69531 -0.710449,-7.69531"/>
<text text-anchor="middle" x="67" y="-15.3047" font-family="Futura" font-size="11.00">src/fae/atomic/queue.c</text>
</a>
</g>
<!-- Node3&#45;&gt;Node4 -->
<g id="edge6" class="edge"><title>Node3&#45;&gt;Node4</title>
<path fill="none" stroke="midnightblue" d="M457.162,-79.3421C382.396,-72.0248 252.908,-57.8246 143,-38 131.257,-35.8819 118.607,-33.093 107.061,-30.3448"/>
<polygon fill="midnightblue" stroke="midnightblue" points="457.05,-82.8476 467.341,-80.3288 457.726,-75.8802 457.05,-82.8476"/>
</g>
<!-- Node5 -->
<g id="node9" class="node"><title>Node5</title>
<a xlink:href="ring__buffer_8c.html" target="_top" xlink:title="src/fae/atomic/ring\l_buffer.c">
<polygon fill="none" stroke="black" points="152.229,-0.390625 152.229,-37.6094 267.771,-37.6094 267.771,-0.390625 152.229,-0.390625"/>
<text text-anchor="start" x="160.229" y="-22.6094" font-family="Futura" font-size="11.00">src/fae/atomic/ring</text>
<text text-anchor="middle" x="210" y="-8" font-family="Futura" font-size="11.00">_buffer.c</text>
</a>
</g>
<!-- Node3&#45;&gt;Node5 -->
<g id="edge8" class="edge"><title>Node3&#45;&gt;Node5</title>
<path fill="none" stroke="midnightblue" d="M457.185,-74.238C408.135,-65.3994 337.926,-52.082 277,-38 274.066,-37.3219 271.067,-36.6046 268.042,-35.8622"/>
<polygon fill="midnightblue" stroke="midnightblue" points="456.859,-77.7353 467.32,-76.0548 458.094,-70.8451 456.859,-77.7353"/>
</g>
<!-- Node6 -->
<g id="node11" class="node"><title>Node6</title>
<a xlink:href="stack_8c.html" target="_top" xlink:title="src/fae/atomic/stack.c">
<polygon fill="none" stroke="black" points="286.061,-7.69531 286.061,-30.3047 415.939,-30.3047 415.939,-7.69531 286.061,-7.69531"/>
<text text-anchor="middle" x="351" y="-15.3047" font-family="Futura" font-size="11.00">src/fae/atomic/stack.c</text>
</a>
</g>
<!-- Node3&#45;&gt;Node6 -->
<g id="edge10" class="edge"><title>Node3&#45;&gt;Node6</title>
<path fill="none" stroke="midnightblue" d="M482.666,-70.9421C451.064,-58.7153 406.009,-41.2832 377.648,-30.3101"/>
<polygon fill="midnightblue" stroke="midnightblue" points="481.419,-74.2124 492.008,-74.5566 483.945,-67.684 481.419,-74.2124"/>
</g>
<!-- Node7 -->
<g id="node13" class="node"><title>Node7</title>
<a xlink:href="buffer_8c.html" target="_top" xlink:title="src/fae/buffer.c">
<polygon fill="none" stroke="black" points="434.431,-7.69531 434.431,-30.3047 529.569,-30.3047 529.569,-7.69531 434.431,-7.69531"/>
<text text-anchor="middle" x="482" y="-15.3047" font-family="Futura" font-size="11.00">src/fae/buffer.c</text>
</a>
</g>
<!-- Node3&#45;&gt;Node7 -->
<g id="edge12" class="edge"><title>Node3&#45;&gt;Node7</title>
<path fill="none" stroke="midnightblue" d="M508.015,-65.7023C501.485,-54.2311 493.451,-40.1161 488.053,-30.6334"/>
<polygon fill="midnightblue" stroke="midnightblue" points="505.067,-67.5974 513.055,-74.5566 511.15,-64.1345 505.067,-67.5974"/>
</g>
<!-- Node8 -->
<g id="node15" class="node"><title>Node8</title>
<a xlink:href="audio_8c.html" target="_top" xlink:title="src/fae/device/audio.c">
<polygon fill="none" stroke="black" points="547.904,-7.69531 547.904,-30.3047 680.096,-30.3047 680.096,-7.69531 547.904,-7.69531"/>
<text text-anchor="middle" x="614" y="-15.3047" font-family="Futura" font-size="11.00">src/fae/device/audio.c</text>
</a>
</g>
<!-- Node3&#45;&gt;Node8 -->
<g id="edge14" class="edge"><title>Node3&#45;&gt;Node8</title>
<path fill="none" stroke="midnightblue" d="M542.833,-68.6929C560.372,-56.6931 583.692,-40.7372 598.774,-30.4175"/>
<polygon fill="midnightblue" stroke="midnightblue" points="540.54,-66.0212 534.263,-74.5566 544.493,-71.7983 540.54,-66.0212"/>
</g>
<!-- Node9 -->
<g id="node17" class="node"><title>Node9</title>
<a xlink:href="file_8c.html" target="_top" xlink:title="src/fae/device/file.c">
<polygon fill="none" stroke="black" points="697.84,-7.69531 697.84,-30.3047 816.16,-30.3047 816.16,-7.69531 697.84,-7.69531"/>
<text text-anchor="middle" x="757" y="-15.3047" font-family="Futura" font-size="11.00">src/fae/device/file.c</text>
</a>
</g>
<!-- Node3&#45;&gt;Node9 -->
<g id="edge16" class="edge"><title>Node3&#45;&gt;Node9</title>
<path fill="none" stroke="midnightblue" d="M566.766,-71.9546C611.625,-59.7033 677.853,-41.6158 719.16,-30.3344"/>
<polygon fill="midnightblue" stroke="midnightblue" points="565.7,-68.6177 556.975,-74.6287 567.544,-75.3704 565.7,-68.6177"/>
</g>
<!-- Node3&#45;&gt;Node10 -->
<g id="edge18" class="edge"><title>Node3&#45;&gt;Node10</title>
<path fill="none" stroke="midnightblue" d="M580.477,-78.7609C642.71,-71.699 741.42,-58.4447 825,-38 833.401,-35.945 842.366,-33.1433 850.489,-30.3625"/>
<polygon fill="midnightblue" stroke="midnightblue" points="579.981,-75.2944 570.431,-79.8829 580.758,-82.2512 579.981,-75.2944"/>
</g>
</g>
</svg>
