<?xml version="1.0" encoding="UTF-8" standalone="no"?>
<!DOCTYPE svg PUBLIC "-//W3C//DTD SVG 1.1//EN"
 "http://www.w3.org/Graphics/SVG/1.1/DTD/svg11.dtd">
<!-- Generated by graphviz version 2.28.0 (20121015.0031)
 -->
<!-- Title: src/fae/map.c Pages: 1 -->
<svg width="458pt" height="272pt"
 viewBox="0.00 0.00 457.78 272.00" xmlns="http://www.w3.org/2000/svg" xmlns:xlink="http://www.w3.org/1999/xlink">
<g id="graph1" class="graph" transform="scale(1 1) rotate(0) translate(4 268)">
<title>src/fae/map.c</title>
<!-- Node1 -->
<g id="node1" class="node"><title>Node1</title>
<polygon fill="#bfbfbf" stroke="black" points="195.899,-240.695 195.899,-263.305 283.662,-263.305 283.662,-240.695 195.899,-240.695"/>
<text text-anchor="middle" x="239.78" y="-248.305" font-family="Futura" font-size="11.00">src/fae/map.c</text>
</g>
<!-- Node2 -->
<g id="node3" class="node"><title>Node2</title>
<a xlink:href="map_8h.html" target="_top" xlink:title="fae/map.h">
<polygon fill="none" stroke="black" points="64.2148,-180.695 64.2148,-203.305 133.346,-203.305 133.346,-180.695 64.2148,-180.695"/>
<text text-anchor="middle" x="98.7802" y="-188.305" font-family="Futura" font-size="11.00">fae/map.h</text>
</a>
</g>
<!-- Node1&#45;&gt;Node2 -->
<g id="edge2" class="edge"><title>Node1&#45;&gt;Node2</title>
<path fill="none" stroke="midnightblue" d="M214.572,-240.631C192.055,-231.368 158.848,-217.709 133.762,-207.39"/>
<polygon fill="midnightblue" stroke="midnightblue" points="134.825,-204.042 124.245,-203.475 132.162,-210.516 134.825,-204.042"/>
</g>
<!-- Node6 -->
<g id="node14" class="node"><title>Node6</title>
<a xlink:href="string_8h.html" target="_top" xlink:title="fae/string.h">
<polygon fill="none" stroke="black" points="210.607,-120.695 210.607,-143.305 284.953,-143.305 284.953,-120.695 210.607,-120.695"/>
<text text-anchor="middle" x="247.78" y="-128.305" font-family="Futura" font-size="11.00">fae/string.h</text>
</a>
</g>
<!-- Node1&#45;&gt;Node6 -->
<g id="edge28" class="edge"><title>Node1&#45;&gt;Node6</title>
<path fill="none" stroke="midnightblue" d="M240.49,-240.528C241.809,-221.071 244.66,-179.023 246.38,-153.656"/>
<polygon fill="midnightblue" stroke="midnightblue" points="249.876,-153.832 247.06,-143.618 242.892,-153.358 249.876,-153.832"/>
</g>
<!-- Node7 -->
<g id="node17" class="node"><title>Node7</title>
<a xlink:href="set_8h.html" target="_top" xlink:title="fae/set.h">
<polygon fill="none" stroke="black" points="151.334,-180.695 151.334,-203.305 212.226,-203.305 212.226,-180.695 151.334,-180.695"/>
<text text-anchor="middle" x="181.78" y="-188.305" font-family="Futura" font-size="11.00">fae/set.h</text>
</a>
</g>
<!-- Node1&#45;&gt;Node7 -->
<g id="edge20" class="edge"><title>Node1&#45;&gt;Node7</title>
<path fill="none" stroke="midnightblue" d="M229.411,-240.631C221.184,-232.403 209.487,-220.707 199.744,-210.963"/>
<polygon fill="midnightblue" stroke="midnightblue" points="201.998,-208.268 192.452,-203.672 197.048,-213.218 201.998,-208.268"/>
</g>
<!-- Node8 -->
<g id="node23" class="node"><title>Node8</title>
<a xlink:href="dynamic_8h.html" target="_top" xlink:title="fae/dynamic.h">
<polygon fill="none" stroke="black" points="268.219,-180.695 268.219,-203.305 357.341,-203.305 357.341,-180.695 268.219,-180.695"/>
<text text-anchor="middle" x="312.78" y="-188.305" font-family="Futura" font-size="11.00">fae/dynamic.h</text>
</a>
</g>
<!-- Node1&#45;&gt;Node8 -->
<g id="edge30" class="edge"><title>Node1&#45;&gt;Node8</title>
<path fill="none" stroke="midnightblue" d="M252.831,-240.631C263.494,-232.159 278.787,-220.009 291.257,-210.1"/>
<polygon fill="midnightblue" stroke="midnightblue" points="293.696,-212.633 299.348,-203.672 289.341,-207.152 293.696,-212.633"/>
</g>
<!-- Node9 -->
<g id="node27" class="node"><title>Node9</title>
<a xlink:href="util_8h.html" target="_top" xlink:title="fae/util.h">
<polygon fill="none" stroke="red" points="374.921,-180.695 374.921,-203.305 436.64,-203.305 436.64,-180.695 374.921,-180.695"/>
<text text-anchor="middle" x="405.78" y="-188.305" font-family="Futura" font-size="11.00">fae/util.h</text>
</a>
</g>
<!-- Node1&#45;&gt;Node9 -->
<g id="edge36" class="edge"><title>Node1&#45;&gt;Node9</title>
<path fill="none" stroke="midnightblue" d="M269.458,-240.631C296.52,-231.175 336.699,-217.137 366.432,-206.748"/>
<polygon fill="midnightblue" stroke="midnightblue" points="367.794,-209.98 376.08,-203.377 365.485,-203.371 367.794,-209.98"/>
</g>
<!-- Node3 -->
<g id="node5" class="node"><title>Node3</title>
<a xlink:href="fae_2fae_8h.html" target="_top" xlink:title="fae.h">
<polygon fill="none" stroke="red" points="128.01,-0.695312 128.01,-23.3047 169.55,-23.3047 169.55,-0.695312 128.01,-0.695312"/>
<text text-anchor="middle" x="148.78" y="-8.30469" font-family="Futura" font-size="11.00">fae.h</text>
</a>
</g>
<!-- Node2&#45;&gt;Node3 -->
<g id="edge4" class="edge"><title>Node2&#45;&gt;Node3</title>
<path fill="none" stroke="midnightblue" d="M63.9556,-183.57C42.5867,-177.02 16.8847,-165.104 3.78019,-144 -1.84674,-134.938 -0.0867198,-129.941 3.78019,-120 23.2185,-70.028 81.6191,-39.0088 118.101,-23.9629"/>
<polygon fill="midnightblue" stroke="midnightblue" points="119.749,-27.075 127.759,-20.1403 117.172,-20.5662 119.749,-27.075"/>
</g>
<!-- Node4 -->
<g id="node7" class="node"><title>Node4</title>
<a xlink:href="pair_8h.html" target="_top" xlink:title="fae/pair.h">
<polygon fill="none" stroke="black" points="12.4313,-120.695 12.4313,-143.305 79.1291,-143.305 79.1291,-120.695 12.4313,-120.695"/>
<text text-anchor="middle" x="45.7802" y="-128.305" font-family="Futura" font-size="11.00">fae/pair.h</text>
</a>
</g>
<!-- Node2&#45;&gt;Node4 -->
<g id="edge6" class="edge"><title>Node2&#45;&gt;Node4</title>
<path fill="none" stroke="midnightblue" d="M89.3049,-180.631C81.8612,-172.485 71.3096,-160.938 62.4599,-151.253"/>
<polygon fill="midnightblue" stroke="midnightblue" points="64.8616,-148.693 55.5321,-143.672 59.6941,-153.415 64.8616,-148.693"/>
</g>
<!-- Node5 -->
<g id="node10" class="node"><title>Node5</title>
<a xlink:href="list_8h.html" target="_top" xlink:title="fae/list.h">
<polygon fill="none" stroke="black" points="85.6862,-60.6953 85.6862,-83.3047 145.874,-83.3047 145.874,-60.6953 85.6862,-60.6953"/>
<text text-anchor="middle" x="115.78" y="-68.3047" font-family="Futura" font-size="11.00">fae/list.h</text>
</a>
</g>
<!-- Node2&#45;&gt;Node5 -->
<g id="edge14" class="edge"><title>Node2&#45;&gt;Node5</title>
<path fill="none" stroke="midnightblue" d="M100.289,-180.528C103.092,-161.071 109.15,-119.023 112.804,-93.6561"/>
<polygon fill="midnightblue" stroke="midnightblue" points="116.289,-94.0148 114.25,-83.6179 109.36,-93.0166 116.289,-94.0148"/>
</g>
<!-- Node2&#45;&gt;Node6 -->
<g id="edge16" class="edge"><title>Node2&#45;&gt;Node6</title>
<path fill="none" stroke="midnightblue" d="M125.418,-180.631C149.498,-171.257 185.147,-157.381 211.763,-147.02"/>
<polygon fill="midnightblue" stroke="midnightblue" points="213.073,-150.266 221.122,-143.377 210.533,-143.743 213.073,-150.266"/>
</g>
<!-- Node4&#45;&gt;Node3 -->
<g id="edge8" class="edge"><title>Node4&#45;&gt;Node3</title>
<path fill="none" stroke="midnightblue" d="M48.3541,-120.334C52.3713,-105.465 61.319,-78.2792 76.7802,-60 88.2468,-46.4435 104.601,-35.3381 118.826,-27.3327"/>
<polygon fill="midnightblue" stroke="midnightblue" points="120.634,-30.3347 127.794,-22.525 117.327,-24.1654 120.634,-30.3347"/>
</g>
<!-- Node4&#45;&gt;Node5 -->
<g id="edge10" class="edge"><title>Node4&#45;&gt;Node5</title>
<path fill="none" stroke="midnightblue" d="M58.2948,-120.631C68.5193,-112.159 83.1835,-100.009 95.1417,-90.1004"/>
<polygon fill="midnightblue" stroke="midnightblue" points="97.4332,-92.7472 102.9,-83.6719 92.967,-87.357 97.4332,-92.7472"/>
</g>
<!-- Node5&#45;&gt;Node3 -->
<g id="edge12" class="edge"><title>Node5&#45;&gt;Node3</title>
<path fill="none" stroke="midnightblue" d="M121.68,-60.6308C126.129,-52.8107 132.362,-41.8562 137.729,-32.4241"/>
<polygon fill="midnightblue" stroke="midnightblue" points="140.805,-34.0944 142.708,-23.6719 134.721,-30.6327 140.805,-34.0944"/>
</g>
<!-- Node6&#45;&gt;Node3 -->
<g id="edge18" class="edge"><title>Node6&#45;&gt;Node3</title>
<path fill="none" stroke="midnightblue" d="M241.049,-120.47C231.76,-106.225 214.18,-80.2669 196.78,-60 187.849,-49.5967 176.998,-38.8365 167.874,-30.2411"/>
<polygon fill="midnightblue" stroke="midnightblue" points="170.106,-27.5379 160.392,-23.3084 165.348,-32.6725 170.106,-27.5379"/>
</g>
<!-- Node7&#45;&gt;Node3 -->
<g id="edge22" class="edge"><title>Node7&#45;&gt;Node3</title>
<path fill="none" stroke="midnightblue" d="M179.863,-180.661C174.555,-152.027 159.59,-71.3093 152.541,-33.2881"/>
<polygon fill="midnightblue" stroke="midnightblue" points="155.967,-32.5624 150.702,-23.368 149.084,-33.8384 155.967,-32.5624"/>
</g>
<!-- Node7&#45;&gt;Node5 -->
<g id="edge24" class="edge"><title>Node7&#45;&gt;Node5</title>
<path fill="none" stroke="midnightblue" d="M175.923,-180.528C164.894,-160.81 140.887,-117.887 126.766,-92.6415"/>
<polygon fill="midnightblue" stroke="midnightblue" points="129.655,-90.6369 121.719,-83.6179 123.546,-94.054 129.655,-90.6369"/>
</g>
<!-- Node7&#45;&gt;Node6 -->
<g id="edge26" class="edge"><title>Node7&#45;&gt;Node6</title>
<path fill="none" stroke="midnightblue" d="M193.58,-180.631C203.127,-172.24 216.781,-160.242 227.995,-150.387"/>
<polygon fill="midnightblue" stroke="midnightblue" points="230.435,-152.902 235.636,-143.672 225.814,-147.644 230.435,-152.902"/>
</g>
<!-- Node8&#45;&gt;Node3 -->
<g id="edge32" class="edge"><title>Node8&#45;&gt;Node3</title>
<path fill="none" stroke="midnightblue" d="M312.006,-180.55C310.499,-165.937 306.142,-139.055 293.78,-120 265.343,-76.165 212.295,-43.9841 178.852,-26.9082"/>
<polygon fill="midnightblue" stroke="midnightblue" points="180.077,-23.6089 169.564,-22.2963 176.964,-29.8785 180.077,-23.6089"/>
</g>
<!-- Node8&#45;&gt;Node6 -->
<g id="edge34" class="edge"><title>Node8&#45;&gt;Node6</title>
<path fill="none" stroke="midnightblue" d="M301.159,-180.631C291.757,-172.24 278.31,-160.242 267.265,-150.387"/>
<polygon fill="midnightblue" stroke="midnightblue" points="269.532,-147.718 259.74,-143.672 264.871,-152.941 269.532,-147.718"/>
</g>
<!-- Node10 -->
<g id="node29" class="node"><title>Node10</title>
<a xlink:href="arch_8h.html" target="_top" xlink:title="fae/util/arch.h">
<polygon fill="none" stroke="black" points="360.986,-120.695 360.986,-143.305 450.575,-143.305 450.575,-120.695 360.986,-120.695"/>
<text text-anchor="middle" x="405.78" y="-128.305" font-family="Futura" font-size="11.00">fae/util/arch.h</text>
</a>
</g>
<!-- Node9&#45;&gt;Node10 -->
<g id="edge38" class="edge"><title>Node9&#45;&gt;Node10</title>
<path fill="none" stroke="midnightblue" d="M405.78,-180.631C405.78,-173.218 405.78,-162.989 405.78,-153.91"/>
<polygon fill="midnightblue" stroke="midnightblue" points="409.28,-153.672 405.78,-143.672 402.28,-153.672 409.28,-153.672"/>
</g>
</g>
</svg>
