<?xml version="1.0" encoding="UTF-8" standalone="no"?>
<!DOCTYPE svg PUBLIC "-//W3C//DTD SVG 1.1//EN"
 "http://www.w3.org/Graphics/SVG/1.1/DTD/svg11.dtd">
<!-- Generated by graphviz version 2.28.0 (20121015.0031)
 -->
<!-- Title: include/fa/midi/message.h Pages: 1 -->
<svg width="800pt" height="272pt"
 viewBox="0.00 0.00 800.00 272.00" xmlns="http://www.w3.org/2000/svg" xmlns:xlink="http://www.w3.org/1999/xlink">
<g id="graph1" class="graph" transform="scale(1 1) rotate(0) translate(4 268)">
<title>include/fa/midi/message.h</title>
<!-- Node1 -->
<g id="node1" class="node"><title>Node1</title>
<polygon fill="#bfbfbf" stroke="black" points="641.134,-240.695 641.134,-263.305 792.866,-263.305 792.866,-240.695 641.134,-240.695"/>
<text text-anchor="middle" x="717" y="-248.305" font-family="Futura" font-size="11.00">include/fa/midi/message.h</text>
</g>
<!-- Node2 -->
<g id="node3" class="node"><title>Node2</title>
<a xlink:href="fa_2fa_8h.html" target="_top" xlink:title="include/fa/fa.h">
<polygon fill="none" stroke="red" points="411.846,-180.695 411.846,-203.305 504.154,-203.305 504.154,-180.695 411.846,-180.695"/>
<text text-anchor="middle" x="458" y="-188.305" font-family="Futura" font-size="11.00">include/fa/fa.h</text>
</a>
</g>
<!-- Node1&#45;&gt;Node2 -->
<g id="edge2" class="edge"><title>Node1&#45;&gt;Node2</title>
<path fill="none" stroke="midnightblue" d="M660.719,-238.396C613.925,-227.918 548.136,-213.185 504.339,-203.377"/>
<polygon fill="midnightblue" stroke="midnightblue" points="660.173,-241.861 670.696,-240.631 661.703,-235.03 660.173,-241.861"/>
</g>
<!-- Node3 -->
<g id="node5" class="node"><title>Node3</title>
<a xlink:href="action_8h.html" target="_top" xlink:title="include/fa/action.h">
<polygon fill="none" stroke="red" points="354.746,-0.695312 354.746,-23.3047 467.254,-23.3047 467.254,-0.695312 354.746,-0.695312"/>
<text text-anchor="middle" x="411" y="-8.30469" font-family="Futura" font-size="11.00">include/fa/action.h</text>
</a>
</g>
<!-- Node2&#45;&gt;Node3 -->
<g id="edge4" class="edge"><title>Node2&#45;&gt;Node3</title>
<path fill="none" stroke="midnightblue" d="M443.623,-171.269C440.388,-162.885 437.47,-152.988 435,-144 422.759,-99.4475 409.816,-45.8887 408.601,-23.5679"/>
<polygon fill="midnightblue" stroke="midnightblue" points="440.489,-172.837 447.717,-180.583 446.897,-170.02 440.489,-172.837"/>
</g>
<!-- Node4 -->
<g id="node8" class="node"><title>Node4</title>
<a xlink:href="buffer_8h.html" target="_top" xlink:title="include/fa/buffer.h">
<polygon fill="none" stroke="red" points="636.227,-0.695312 636.227,-23.3047 747.773,-23.3047 747.773,-0.695312 636.227,-0.695312"/>
<text text-anchor="middle" x="692" y="-8.30469" font-family="Futura" font-size="11.00">include/fa/buffer.h</text>
</a>
</g>
<!-- Node2&#45;&gt;Node4 -->
<g id="edge8" class="edge"><title>Node2&#45;&gt;Node4</title>
<path fill="none" stroke="midnightblue" d="M514.181,-183.155C547.278,-176.578 588.827,-164.782 621,-144 650.399,-125.01 655.543,-114.888 672,-84 682.598,-64.1084 688.077,-38.0092 690.466,-23.6397"/>
<polygon fill="midnightblue" stroke="midnightblue" points="513.381,-179.744 504.201,-185.033 514.676,-186.624 513.381,-179.744"/>
</g>
<!-- Node5 -->
<g id="node11" class="node"><title>Node5</title>
<a xlink:href="clock_8h.html" target="_top" xlink:title="include/fa/clock.h">
<polygon fill="none" stroke="red" points="-0.0222168,-120.695 -0.0222168,-143.305 108.022,-143.305 108.022,-120.695 -0.0222168,-120.695"/>
<text text-anchor="middle" x="54" y="-128.305" font-family="Futura" font-size="11.00">include/fa/clock.h</text>
</a>
</g>
<!-- Node2&#45;&gt;Node5 -->
<g id="edge12" class="edge"><title>Node2&#45;&gt;Node5</title>
<path fill="none" stroke="midnightblue" d="M401.563,-183.852C333.86,-175.131 216.969,-159.612 117,-144 114.148,-143.555 111.225,-143.086 108.276,-142.604"/>
<polygon fill="midnightblue" stroke="midnightblue" points="401.228,-187.337 411.592,-185.14 402.12,-180.395 401.228,-187.337"/>
</g>
<!-- Node6 -->
<g id="node13" class="node"><title>Node6</title>
<a xlink:href="dynamic_8h.html" target="_top" xlink:title="include/fa/dynamic.h">
<polygon fill="none" stroke="black" points="125.918,-120.695 125.918,-143.305 250.082,-143.305 250.082,-120.695 125.918,-120.695"/>
<text text-anchor="middle" x="188" y="-128.305" font-family="Futura" font-size="11.00">include/fa/dynamic.h</text>
</a>
</g>
<!-- Node2&#45;&gt;Node6 -->
<g id="edge14" class="edge"><title>Node2&#45;&gt;Node6</title>
<path fill="none" stroke="midnightblue" d="M401.778,-178.923C352.786,-168.399 282.504,-153.301 236.08,-143.328"/>
<polygon fill="midnightblue" stroke="midnightblue" points="401.073,-182.351 411.585,-181.029 402.543,-175.507 401.073,-182.351"/>
</g>
<!-- Node7 -->
<g id="node15" class="node"><title>Node7</title>
<a xlink:href="error_8h.html" target="_top" xlink:title="include/fa/error.h">
<polygon fill="none" stroke="red" points="267.598,-120.695 267.598,-143.305 374.402,-143.305 374.402,-120.695 267.598,-120.695"/>
<text text-anchor="middle" x="321" y="-128.305" font-family="Futura" font-size="11.00">include/fa/error.h</text>
</a>
</g>
<!-- Node2&#45;&gt;Node7 -->
<g id="edge16" class="edge"><title>Node2&#45;&gt;Node7</title>
<path fill="none" stroke="midnightblue" d="M418.72,-176.864C393.061,-166.555 360.783,-152.812 340.408,-143.475"/>
<polygon fill="midnightblue" stroke="midnightblue" points="417.606,-180.188 428.191,-180.631 420.192,-173.683 417.606,-180.188"/>
</g>
<!-- Node8 -->
<g id="node18" class="node"><title>Node8</title>
<a xlink:href="list_8h.html" target="_top" xlink:title="include/fa/list.h">
<polygon fill="none" stroke="red" points="486.385,-120.695 486.385,-143.305 581.615,-143.305 581.615,-120.695 486.385,-120.695"/>
<text text-anchor="middle" x="534" y="-128.305" font-family="Futura" font-size="11.00">include/fa/list.h</text>
</a>
</g>
<!-- Node2&#45;&gt;Node8 -->
<g id="edge20" class="edge"><title>Node2&#45;&gt;Node8</title>
<path fill="none" stroke="midnightblue" d="M474.164,-173.921C486.162,-164.05 502.313,-151.948 514.939,-143.475"/>
<polygon fill="midnightblue" stroke="midnightblue" points="471.623,-171.487 466.271,-180.631 476.157,-176.82 471.623,-171.487"/>
</g>
<!-- Node9 -->
<g id="node22" class="node"><title>Node9</title>
<a xlink:href="map_8h.html" target="_top" xlink:title="include/fa/map.h">
<polygon fill="none" stroke="red" points="484.914,-0.695312 484.914,-23.3047 589.086,-23.3047 589.086,-0.695312 484.914,-0.695312"/>
<text text-anchor="middle" x="537" y="-8.30469" font-family="Futura" font-size="11.00">include/fa/map.h</text>
</a>
</g>
<!-- Node2&#45;&gt;Node9 -->
<g id="edge40" class="edge"><title>Node2&#45;&gt;Node9</title>
<path fill="none" stroke="midnightblue" d="M462.005,-170.748C465.2,-156.301 470.258,-136.578 477,-120 492.164,-82.7132 517.641,-42.1614 529.938,-23.489"/>
<polygon fill="midnightblue" stroke="midnightblue" points="458.561,-170.121 459.928,-180.627 465.411,-171.562 458.561,-170.121"/>
</g>
<!-- Node10 -->
<g id="node24" class="node"><title>Node10</title>
<a xlink:href="pair_8h.html" target="_top" xlink:title="include/fa/pair.h">
<polygon fill="none" stroke="red" points="562.131,-60.6953 562.131,-83.3047 663.869,-83.3047 663.869,-60.6953 562.131,-60.6953"/>
<text text-anchor="middle" x="613" y="-68.3047" font-family="Futura" font-size="11.00">include/fa/pair.h</text>
</a>
</g>
<!-- Node2&#45;&gt;Node10 -->
<g id="edge42" class="edge"><title>Node2&#45;&gt;Node10</title>
<path fill="none" stroke="midnightblue" d="M514.062,-180.525C537.372,-173.704 563.052,-162.472 581,-144 597.343,-127.18 602.073,-98.652 606.623,-83.3802"/>
<polygon fill="midnightblue" stroke="midnightblue" points="512.982,-177.191 504.247,-183.186 514.814,-183.947 512.982,-177.191"/>
</g>
<!-- Node3&#45;&gt;Node2 -->
<g id="edge6" class="edge"><title>Node3&#45;&gt;Node2</title>
<path fill="none" stroke="midnightblue" d="M421.967,-32.9794C430.94,-58.7279 442.241,-104.843 453,-144 456.474,-156.643 460.834,-171.083 461.799,-180.583"/>
<polygon fill="midnightblue" stroke="midnightblue" points="425.217,-31.6773 418.399,-23.5679 418.672,-34.1592 425.217,-31.6773"/>
</g>
<!-- Node4&#45;&gt;Node1 -->
<g id="edge10" class="edge"><title>Node4&#45;&gt;Node1</title>
<path fill="none" stroke="midnightblue" d="M694.142,-33.3903C699.259,-82.1039 712.054,-203.911 715.894,-240.466"/>
<polygon fill="midnightblue" stroke="midnightblue" points="697.619,-32.9916 693.094,-23.412 690.658,-33.723 697.619,-32.9916"/>
</g>
<!-- Node7&#45;&gt;Node2 -->
<g id="edge18" class="edge"><title>Node7&#45;&gt;Node2</title>
<path fill="none" stroke="midnightblue" d="M360.571,-147.253C386.28,-157.588 418.538,-171.327 438.823,-180.631"/>
<polygon fill="midnightblue" stroke="midnightblue" points="361.663,-143.92 351.078,-143.475 359.075,-150.424 361.663,-143.92"/>
</g>
<!-- Node8&#45;&gt;Node2 -->
<g id="edge24" class="edge"><title>Node8&#45;&gt;Node2</title>
<path fill="none" stroke="midnightblue" d="M517.461,-150.387C505.453,-160.242 489.421,-172.24 476.903,-180.631"/>
<polygon fill="midnightblue" stroke="midnightblue" points="520.019,-152.807 525.386,-143.672 515.494,-147.466 520.019,-152.807"/>
</g>
<!-- Node8&#45;&gt;Node3 -->
<g id="edge22" class="edge"><title>Node8&#45;&gt;Node3</title>
<path fill="none" stroke="midnightblue" d="M515.769,-113.51C489.889,-88.6823 443.29,-43.9771 422.068,-23.6179"/>
<polygon fill="midnightblue" stroke="midnightblue" points="513.445,-116.131 523.085,-120.528 518.291,-111.08 513.445,-116.131"/>
</g>
<!-- Node8&#45;&gt;Node9 -->
<g id="edge26" class="edge"><title>Node8&#45;&gt;Node9</title>
<path fill="none" stroke="midnightblue" d="M534.529,-110.192C535.173,-84.8736 536.235,-43.0995 536.73,-23.6179"/>
<polygon fill="midnightblue" stroke="midnightblue" points="531.022,-110.443 534.266,-120.528 538.019,-110.621 531.022,-110.443"/>
</g>
<!-- Node8&#45;&gt;Node10 -->
<g id="edge28" class="edge"><title>Node8&#45;&gt;Node10</title>
<path fill="none" stroke="midnightblue" d="M556.483,-114.494C570.065,-104.522 586.967,-92.1126 598.732,-83.475"/>
<polygon fill="midnightblue" stroke="midnightblue" points="554.113,-111.891 548.124,-120.631 558.256,-117.534 554.113,-111.891"/>
</g>
<!-- Node10&#45;&gt;Node1 -->
<g id="edge38" class="edge"><title>Node10&#45;&gt;Node1</title>
<path fill="none" stroke="midnightblue" d="M624.287,-92.3185C646.256,-129.92 694.086,-211.781 710.959,-240.661"/>
<polygon fill="midnightblue" stroke="midnightblue" points="627.124,-90.2366 619.058,-83.368 621.08,-93.7679 627.124,-90.2366"/>
</g>
<!-- Node10&#45;&gt;Node2 -->
<g id="edge34" class="edge"><title>Node10&#45;&gt;Node2</title>
<path fill="none" stroke="midnightblue" d="M618.537,-93.6596C617.783,-109.349 612.151,-130.465 599,-144 574.42,-169.298 535.337,-181.016 504.43,-186.422"/>
<polygon fill="midnightblue" stroke="midnightblue" points="622.028,-93.2829 618.262,-83.3802 615.03,-93.4703 622.028,-93.2829"/>
</g>
<!-- Node10&#45;&gt;Node3 -->
<g id="edge30" class="edge"><title>Node10&#45;&gt;Node3</title>
<path fill="none" stroke="midnightblue" d="M567.023,-57.7988C530.68,-47.3635 480.654,-32.9997 447.141,-23.3771"/>
<polygon fill="midnightblue" stroke="midnightblue" points="566.309,-61.235 576.886,-60.6308 568.241,-54.5068 566.309,-61.235"/>
</g>
<!-- Node10&#45;&gt;Node4 -->
<g id="edge32" class="edge"><title>Node10&#45;&gt;Node4</title>
<path fill="none" stroke="midnightblue" d="M635.483,-54.4937C649.065,-44.5216 665.967,-32.1126 677.732,-23.475"/>
<polygon fill="midnightblue" stroke="midnightblue" points="633.113,-51.8914 627.124,-60.6308 637.256,-57.534 633.113,-51.8914"/>
</g>
<!-- Node10&#45;&gt;Node9 -->
<g id="edge36" class="edge"><title>Node10&#45;&gt;Node9</title>
<path fill="none" stroke="midnightblue" d="M591.371,-54.4937C578.304,-44.5216 562.044,-32.1126 550.726,-23.475"/>
<polygon fill="midnightblue" stroke="midnightblue" points="589.34,-57.3463 599.413,-60.6308 593.587,-51.7817 589.34,-57.3463"/>
</g>
</g>
</svg>
