<?xml version="1.0" encoding="UTF-8" standalone="no"?>
<!DOCTYPE svg PUBLIC "-//W3C//DTD SVG 1.1//EN"
 "http://www.w3.org/Graphics/SVG/1.1/DTD/svg11.dtd">
<!-- Generated by graphviz version 2.28.0 (20121015.0031)
 -->
<!-- Title: include/fae/message.h Pages: 1 -->
<svg width="793pt" height="240pt"
 viewBox="0.00 0.00 793.40 240.00" xmlns="http://www.w3.org/2000/svg" xmlns:xlink="http://www.w3.org/1999/xlink">
<g id="graph1" class="graph" transform="scale(1 1) rotate(0) translate(4 236)">
<title>include/fae/message.h</title>
<!-- Node1 -->
<g id="node1" class="node"><title>Node1</title>
<polygon fill="#bfbfbf" stroke="black" points="434.732,-208.695 434.732,-231.305 566.076,-231.305 566.076,-208.695 434.732,-208.695"/>
<text text-anchor="middle" x="500.404" y="-216.305" font-family="Futura" font-size="11.00">include/fae/message.h</text>
</g>
<!-- Node2 -->
<g id="node3" class="node"><title>Node2</title>
<a xlink:href="fae_2fae_8h.html" target="_top" xlink:title="include/fae/fae.h">
<polygon fill="none" stroke="red" points="310.165,-148.695 310.165,-171.305 414.643,-171.305 414.643,-148.695 310.165,-148.695"/>
<text text-anchor="middle" x="362.404" y="-156.305" font-family="Futura" font-size="11.00">include/fae/fae.h</text>
</a>
</g>
<!-- Node1&#45;&gt;Node2 -->
<g id="edge2" class="edge"><title>Node1&#45;&gt;Node2</title>
<path fill="none" stroke="midnightblue" d="M460.88,-204.864C435.044,-194.555 402.529,-180.812 381.992,-171.475"/>
<polygon fill="midnightblue" stroke="midnightblue" points="459.83,-208.212 470.416,-208.631 462.401,-201.702 459.83,-208.212"/>
</g>
<!-- Node4 -->
<g id="node8" class="node"><title>Node4</title>
<a xlink:href="platform_2macosx_2fae_2system_2event_8c.html" target="_top" xlink:title="src/platform/macosx\l/fae/system/event.c">
<polygon fill="none" stroke="black" points="440.001,-0.390625 440.001,-37.6094 560.807,-37.6094 560.807,-0.390625 440.001,-0.390625"/>
<text text-anchor="start" x="448.001" y="-22.6094" font-family="Futura" font-size="11.00">src/platform/macosx</text>
<text text-anchor="middle" x="500.404" y="-8" font-family="Futura" font-size="11.00">/fae/system/event.c</text>
</a>
</g>
<!-- Node1&#45;&gt;Node4 -->
<g id="edge32" class="edge"><title>Node1&#45;&gt;Node4</title>
<path fill="none" stroke="midnightblue" d="M500.404,-198.384C500.404,-159.152 500.404,-74.3948 500.404,-37.6197"/>
<polygon fill="midnightblue" stroke="midnightblue" points="496.904,-198.581 500.404,-208.581 503.904,-198.581 496.904,-198.581"/>
</g>
<!-- Node6 -->
<g id="node12" class="node"><title>Node6</title>
<a xlink:href="processor_8h.html" target="_top" xlink:title="include/fae/processor.h">
<polygon fill="none" stroke="red" points="197.411,-7.69531 197.411,-30.3047 333.396,-30.3047 333.396,-7.69531 197.411,-7.69531"/>
<text text-anchor="middle" x="265.404" y="-15.3047" font-family="Futura" font-size="11.00">include/fae/processor.h</text>
</a>
</g>
<!-- Node1&#45;&gt;Node6 -->
<g id="edge22" class="edge"><title>Node1&#45;&gt;Node6</title>
<path fill="none" stroke="midnightblue" d="M424.07,-213.665C299.773,-203.214 62.3488,-175.298 11.4038,-112 -41.4543,-46.3251 105.141,-27.5201 197.158,-22.1443"/>
<polygon fill="midnightblue" stroke="midnightblue" points="424.025,-217.173 434.278,-214.505 424.599,-210.197 424.025,-217.173"/>
</g>
<!-- Node8 -->
<g id="node20" class="node"><title>Node8</title>
<a xlink:href="event_8h.html" target="_top" xlink:title="include/fae/system\l/event.h">
<polygon fill="none" stroke="red" points="528.537,-74.3906 528.537,-111.609 640.271,-111.609 640.271,-74.3906 528.537,-74.3906"/>
<text text-anchor="start" x="536.537" y="-96.6094" font-family="Futura" font-size="11.00">include/fae/system</text>
<text text-anchor="middle" x="584.404" y="-82" font-family="Futura" font-size="11.00">/event.h</text>
</a>
</g>
<!-- Node1&#45;&gt;Node8 -->
<g id="edge24" class="edge"><title>Node1&#45;&gt;Node8</title>
<path fill="none" stroke="midnightblue" d="M513.343,-199.745C529.475,-175.739 556.828,-135.035 572.475,-111.752"/>
<polygon fill="midnightblue" stroke="midnightblue" points="510.238,-198.09 507.566,-208.343 516.048,-201.995 510.238,-198.09"/>
</g>
<!-- Node9 -->
<g id="node23" class="node"><title>Node9</title>
<a xlink:href="fae_2event_8c.html" target="_top" xlink:title="src/fae/event.c">
<polygon fill="none" stroke="black" points="566.288,-148.695 566.288,-171.305 658.52,-171.305 658.52,-148.695 566.288,-148.695"/>
<text text-anchor="middle" x="612.404" y="-156.305" font-family="Futura" font-size="11.00">src/fae/event.c</text>
</a>
</g>
<!-- Node1&#45;&gt;Node9 -->
<g id="edge28" class="edge"><title>Node1&#45;&gt;Node9</title>
<path fill="none" stroke="midnightblue" d="M529.56,-203.901C549.236,-193.712 574.702,-180.524 592.176,-171.475"/>
<polygon fill="midnightblue" stroke="midnightblue" points="527.698,-200.924 520.427,-208.631 530.917,-207.14 527.698,-200.924"/>
</g>
<!-- Node10 -->
<g id="node25" class="node"><title>Node10</title>
<a xlink:href="message_8c.html" target="_top" xlink:title="src/fae/message.c">
<polygon fill="none" stroke="black" points="676.979,-148.695 676.979,-171.305 785.829,-171.305 785.829,-148.695 676.979,-148.695"/>
<text text-anchor="middle" x="731.404" y="-156.305" font-family="Futura" font-size="11.00">src/fae/message.c</text>
</a>
</g>
<!-- Node1&#45;&gt;Node10 -->
<g id="edge30" class="edge"><title>Node1&#45;&gt;Node10</title>
<path fill="none" stroke="midnightblue" d="M551.654,-206.132C593.318,-195.671 651.34,-181.103 690.074,-171.377"/>
<polygon fill="midnightblue" stroke="midnightblue" points="550.549,-202.801 541.702,-208.631 552.253,-209.59 550.549,-202.801"/>
</g>
<!-- Node2&#45;&gt;Node1 -->
<g id="edge18" class="edge"><title>Node2&#45;&gt;Node1</title>
<path fill="none" stroke="midnightblue" d="M401.98,-175.157C427.906,-185.502 460.539,-199.298 481.048,-208.631"/>
<polygon fill="midnightblue" stroke="midnightblue" points="402.998,-171.796 392.411,-171.377 400.426,-178.306 402.998,-171.796"/>
</g>
<!-- Node3 -->
<g id="node5" class="node"><title>Node3</title>
<a xlink:href="atomic_8h.html" target="_top" xlink:title="include/fae/atomic.h">
<polygon fill="none" stroke="red" points="350.735,-81.6953 350.735,-104.305 472.073,-104.305 472.073,-81.6953 350.735,-81.6953"/>
<text text-anchor="middle" x="411.404" y="-89.3047" font-family="Futura" font-size="11.00">include/fae/atomic.h</text>
</a>
</g>
<!-- Node2&#45;&gt;Node3 -->
<g id="edge4" class="edge"><title>Node2&#45;&gt;Node3</title>
<path fill="none" stroke="midnightblue" d="M370.493,-140.046C378.193,-128.514 389.326,-114.211 398.239,-104.633"/>
<polygon fill="midnightblue" stroke="midnightblue" points="367.504,-138.224 365.162,-148.557 373.436,-141.94 367.504,-138.224"/>
</g>
<!-- Node5 -->
<g id="node10" class="node"><title>Node5</title>
<a xlink:href="buffer_8h.html" target="_top" xlink:title="include/fae/buffer.h">
<polygon fill="none" stroke="red" points="158.588,-81.6953 158.588,-104.305 276.22,-104.305 276.22,-81.6953 158.588,-81.6953"/>
<text text-anchor="middle" x="217.404" y="-89.3047" font-family="Futura" font-size="11.00">include/fae/buffer.h</text>
</a>
</g>
<!-- Node2&#45;&gt;Node5 -->
<g id="edge10" class="edge"><title>Node2&#45;&gt;Node5</title>
<path fill="none" stroke="midnightblue" d="M329.652,-144.318C302.55,-132.169 264.72,-115.211 240.643,-104.417"/>
<polygon fill="midnightblue" stroke="midnightblue" points="328.55,-147.66 339.107,-148.557 331.414,-141.272 328.55,-147.66"/>
</g>
<!-- Node2&#45;&gt;Node6 -->
<g id="edge20" class="edge"><title>Node2&#45;&gt;Node6</title>
<path fill="none" stroke="midnightblue" d="M344.878,-140.685C321.341,-111.199 281.834,-54.1297 268.987,-30.5688"/>
<polygon fill="midnightblue" stroke="midnightblue" points="342.288,-143.047 351.34,-148.552 347.697,-138.604 342.288,-143.047"/>
</g>
<!-- Node7 -->
<g id="node15" class="node"><title>Node7</title>
<a xlink:href="device_8h.html" target="_top" xlink:title="include/fae/device.h">
<polygon fill="none" stroke="red" points="20.178,-81.6953 20.178,-104.305 140.63,-104.305 140.63,-81.6953 20.178,-81.6953"/>
<text text-anchor="middle" x="80.4038" y="-89.3047" font-family="Futura" font-size="11.00">include/fae/device.h</text>
</a>
</g>
<!-- Node2&#45;&gt;Node7 -->
<g id="edge16" class="edge"><title>Node2&#45;&gt;Node7</title>
<path fill="none" stroke="midnightblue" d="M302.82,-146.486C260.034,-137.346 201.042,-124.428 149.404,-112 139.534,-109.625 128.908,-106.924 119.022,-104.351"/>
<polygon fill="midnightblue" stroke="midnightblue" points="302.277,-149.949 312.786,-148.61 303.735,-143.103 302.277,-149.949"/>
</g>
<!-- Node3&#45;&gt;Node2 -->
<g id="edge6" class="edge"><title>Node3&#45;&gt;Node2</title>
<path fill="none" stroke="midnightblue" d="M403.161,-113.184C395.415,-124.752 384.275,-139.042 375.391,-148.557"/>
<polygon fill="midnightblue" stroke="midnightblue" points="406.177,-114.962 408.537,-104.633 400.251,-111.236 406.177,-114.962"/>
</g>
<!-- Node3&#45;&gt;Node4 -->
<g id="edge8" class="edge"><title>Node3&#45;&gt;Node4</title>
<path fill="none" stroke="midnightblue" d="M432.156,-75.2118C446.031,-63.987 464.262,-49.2379 478.391,-37.8079"/>
<polygon fill="midnightblue" stroke="midnightblue" points="429.729,-72.6736 424.155,-81.6842 434.131,-78.1157 429.729,-72.6736"/>
</g>
<!-- Node5&#45;&gt;Node6 -->
<g id="edge12" class="edge"><title>Node5&#45;&gt;Node6</title>
<path fill="none" stroke="midnightblue" d="M229.978,-73.1389C238.979,-59.6373 250.777,-41.9404 258.226,-30.767"/>
<polygon fill="midnightblue" stroke="midnightblue" points="226.916,-71.4222 224.281,-81.6842 232.74,-75.3051 226.916,-71.4222"/>
</g>
<!-- Node6&#45;&gt;Node2 -->
<g id="edge14" class="edge"><title>Node6&#45;&gt;Node2</title>
<path fill="none" stroke="midnightblue" d="M283.052,-38.4669C306.643,-68.0479 346.132,-125.107 358.886,-148.552"/>
<polygon fill="midnightblue" stroke="midnightblue" points="285.62,-36.0794 276.571,-30.5688 280.209,-40.5197 285.62,-36.0794"/>
</g>
<!-- Node8&#45;&gt;Node4 -->
<g id="edge26" class="edge"><title>Node8&#45;&gt;Node4</title>
<path fill="none" stroke="midnightblue" d="M556.034,-67.6834C544.633,-57.9106 531.728,-46.8495 521.22,-37.8425"/>
<polygon fill="midnightblue" stroke="midnightblue" points="553.769,-70.3517 563.64,-74.2022 558.325,-65.0369 553.769,-70.3517"/>
</g>
</g>
</svg>
