<?xml version="1.0" encoding="UTF-8" standalone="no"?>
<!DOCTYPE svg PUBLIC "-//W3C//DTD SVG 1.1//EN"
 "http://www.w3.org/Graphics/SVG/1.1/DTD/svg11.dtd">
<!-- Generated by graphviz version 2.28.0 (20121015.0031)
 -->
<!-- Title: include/fa/midi/message.h Pages: 1 -->
<svg width="806pt" height="272pt"
 viewBox="0.00 0.00 806.00 272.00" xmlns="http://www.w3.org/2000/svg" xmlns:xlink="http://www.w3.org/1999/xlink">
<g id="graph1" class="graph" transform="scale(1 1) rotate(0) translate(4 268)">
<title>include/fa/midi/message.h</title>
<!-- Node1 -->
<g id="node1" class="node"><title>Node1</title>
<polygon fill="#bfbfbf" stroke="black" points="647.134,-240.695 647.134,-263.305 798.866,-263.305 798.866,-240.695 647.134,-240.695"/>
<text text-anchor="middle" x="723" y="-248.305" font-family="Futura" font-size="11.00">include/fa/midi/message.h</text>
</g>
<!-- Node2 -->
<g id="node3" class="node"><title>Node2</title>
<a xlink:href="fa_2fa_8h.html" target="_top" xlink:title="include/fa/fa.h">
<polygon fill="none" stroke="red" points="417.846,-180.695 417.846,-203.305 510.154,-203.305 510.154,-180.695 417.846,-180.695"/>
<text text-anchor="middle" x="464" y="-188.305" font-family="Futura" font-size="11.00">include/fa/fa.h</text>
</a>
</g>
<!-- Node1&#45;&gt;Node2 -->
<g id="edge2" class="edge"><title>Node1&#45;&gt;Node2</title>
<path fill="none" stroke="midnightblue" d="M666.719,-238.396C619.925,-227.918 554.136,-213.185 510.339,-203.377"/>
<polygon fill="midnightblue" stroke="midnightblue" points="666.173,-241.861 676.696,-240.631 667.703,-235.03 666.173,-241.861"/>
</g>
<!-- Node3 -->
<g id="node5" class="node"><title>Node3</title>
<a xlink:href="action_8h.html" target="_top" xlink:title="include/fa/action.h">
<polygon fill="none" stroke="red" points="360.746,-0.695312 360.746,-23.3047 473.254,-23.3047 473.254,-0.695312 360.746,-0.695312"/>
<text text-anchor="middle" x="417" y="-8.30469" font-family="Futura" font-size="11.00">include/fa/action.h</text>
</a>
</g>
<!-- Node2&#45;&gt;Node3 -->
<g id="edge4" class="edge"><title>Node2&#45;&gt;Node3</title>
<path fill="none" stroke="midnightblue" d="M449.623,-171.269C446.388,-162.885 443.47,-152.988 441,-144 428.759,-99.4475 415.816,-45.8887 414.601,-23.5679"/>
<polygon fill="midnightblue" stroke="midnightblue" points="446.489,-172.837 453.717,-180.583 452.897,-170.02 446.489,-172.837"/>
</g>
<!-- Node4 -->
<g id="node8" class="node"><title>Node4</title>
<a xlink:href="buffer_8h.html" target="_top" xlink:title="include/fa/buffer.h">
<polygon fill="none" stroke="red" points="642.227,-0.695312 642.227,-23.3047 753.773,-23.3047 753.773,-0.695312 642.227,-0.695312"/>
<text text-anchor="middle" x="698" y="-8.30469" font-family="Futura" font-size="11.00">include/fa/buffer.h</text>
</a>
</g>
<!-- Node2&#45;&gt;Node4 -->
<g id="edge8" class="edge"><title>Node2&#45;&gt;Node4</title>
<path fill="none" stroke="midnightblue" d="M520.181,-183.155C553.278,-176.578 594.827,-164.782 627,-144 656.399,-125.01 661.543,-114.888 678,-84 688.598,-64.1084 694.077,-38.0092 696.466,-23.6397"/>
<polygon fill="midnightblue" stroke="midnightblue" points="519.381,-179.744 510.201,-185.033 520.676,-186.624 519.381,-179.744"/>
</g>
<!-- Node5 -->
<g id="node11" class="node"><title>Node5</title>
<a xlink:href="device_8h.html" target="_top" xlink:title="include/fa/device.h">
<polygon fill="none" stroke="red" points="-0.183105,-120.695 -0.183105,-143.305 114.183,-143.305 114.183,-120.695 -0.183105,-120.695"/>
<text text-anchor="middle" x="57" y="-128.305" font-family="Futura" font-size="11.00">include/fa/device.h</text>
</a>
</g>
<!-- Node2&#45;&gt;Node5 -->
<g id="edge12" class="edge"><title>Node2&#45;&gt;Node5</title>
<path fill="none" stroke="midnightblue" d="M407.584,-183.719C339.9,-174.87 223.028,-159.226 123,-144 120.129,-143.563 117.189,-143.106 114.222,-142.638"/>
<polygon fill="midnightblue" stroke="midnightblue" points="407.241,-187.204 417.609,-185.027 408.146,-180.263 407.241,-187.204"/>
</g>
<!-- Node6 -->
<g id="node13" class="node"><title>Node6</title>
<a xlink:href="dynamic_8h.html" target="_top" xlink:title="include/fa/dynamic.h">
<polygon fill="none" stroke="black" points="131.918,-120.695 131.918,-143.305 256.082,-143.305 256.082,-120.695 131.918,-120.695"/>
<text text-anchor="middle" x="194" y="-128.305" font-family="Futura" font-size="11.00">include/fa/dynamic.h</text>
</a>
</g>
<!-- Node2&#45;&gt;Node6 -->
<g id="edge14" class="edge"><title>Node2&#45;&gt;Node6</title>
<path fill="none" stroke="midnightblue" d="M407.778,-178.923C358.786,-168.399 288.504,-153.301 242.08,-143.328"/>
<polygon fill="midnightblue" stroke="midnightblue" points="407.073,-182.351 417.585,-181.029 408.543,-175.507 407.073,-182.351"/>
</g>
<!-- Node7 -->
<g id="node15" class="node"><title>Node7</title>
<a xlink:href="error_8h.html" target="_top" xlink:title="include/fa/error.h">
<polygon fill="none" stroke="red" points="273.598,-120.695 273.598,-143.305 380.402,-143.305 380.402,-120.695 273.598,-120.695"/>
<text text-anchor="middle" x="327" y="-128.305" font-family="Futura" font-size="11.00">include/fa/error.h</text>
</a>
</g>
<!-- Node2&#45;&gt;Node7 -->
<g id="edge16" class="edge"><title>Node2&#45;&gt;Node7</title>
<path fill="none" stroke="midnightblue" d="M424.72,-176.864C399.061,-166.555 366.783,-152.812 346.408,-143.475"/>
<polygon fill="midnightblue" stroke="midnightblue" points="423.606,-180.188 434.191,-180.631 426.192,-173.683 423.606,-180.188"/>
</g>
<!-- Node8 -->
<g id="node18" class="node"><title>Node8</title>
<a xlink:href="list_8h.html" target="_top" xlink:title="include/fa/list.h">
<polygon fill="none" stroke="red" points="492.385,-120.695 492.385,-143.305 587.615,-143.305 587.615,-120.695 492.385,-120.695"/>
<text text-anchor="middle" x="540" y="-128.305" font-family="Futura" font-size="11.00">include/fa/list.h</text>
</a>
</g>
<!-- Node2&#45;&gt;Node8 -->
<g id="edge20" class="edge"><title>Node2&#45;&gt;Node8</title>
<path fill="none" stroke="midnightblue" d="M480.164,-173.921C492.162,-164.05 508.313,-151.948 520.939,-143.475"/>
<polygon fill="midnightblue" stroke="midnightblue" points="477.623,-171.487 472.271,-180.631 482.157,-176.82 477.623,-171.487"/>
</g>
<!-- Node9 -->
<g id="node22" class="node"><title>Node9</title>
<a xlink:href="map_8h.html" target="_top" xlink:title="include/fa/map.h">
<polygon fill="none" stroke="red" points="490.914,-0.695312 490.914,-23.3047 595.086,-23.3047 595.086,-0.695312 490.914,-0.695312"/>
<text text-anchor="middle" x="543" y="-8.30469" font-family="Futura" font-size="11.00">include/fa/map.h</text>
</a>
</g>
<!-- Node2&#45;&gt;Node9 -->
<g id="edge40" class="edge"><title>Node2&#45;&gt;Node9</title>
<path fill="none" stroke="midnightblue" d="M468.005,-170.748C471.2,-156.301 476.258,-136.578 483,-120 498.164,-82.7132 523.641,-42.1614 535.938,-23.489"/>
<polygon fill="midnightblue" stroke="midnightblue" points="464.561,-170.121 465.928,-180.627 471.411,-171.562 464.561,-170.121"/>
</g>
<!-- Node10 -->
<g id="node24" class="node"><title>Node10</title>
<a xlink:href="pair_8h.html" target="_top" xlink:title="include/fa/pair.h">
<polygon fill="none" stroke="red" points="568.131,-60.6953 568.131,-83.3047 669.869,-83.3047 669.869,-60.6953 568.131,-60.6953"/>
<text text-anchor="middle" x="619" y="-68.3047" font-family="Futura" font-size="11.00">include/fa/pair.h</text>
</a>
</g>
<!-- Node2&#45;&gt;Node10 -->
<g id="edge42" class="edge"><title>Node2&#45;&gt;Node10</title>
<path fill="none" stroke="midnightblue" d="M520.062,-180.525C543.372,-173.704 569.052,-162.472 587,-144 603.343,-127.18 608.073,-98.652 612.623,-83.3802"/>
<polygon fill="midnightblue" stroke="midnightblue" points="518.982,-177.191 510.247,-183.186 520.814,-183.947 518.982,-177.191"/>
</g>
<!-- Node3&#45;&gt;Node2 -->
<g id="edge6" class="edge"><title>Node3&#45;&gt;Node2</title>
<path fill="none" stroke="midnightblue" d="M427.967,-32.9794C436.94,-58.7279 448.241,-104.843 459,-144 462.474,-156.643 466.834,-171.083 467.799,-180.583"/>
<polygon fill="midnightblue" stroke="midnightblue" points="431.217,-31.6773 424.399,-23.5679 424.672,-34.1592 431.217,-31.6773"/>
</g>
<!-- Node4&#45;&gt;Node1 -->
<g id="edge10" class="edge"><title>Node4&#45;&gt;Node1</title>
<path fill="none" stroke="midnightblue" d="M700.142,-33.3903C705.259,-82.1039 718.054,-203.911 721.894,-240.466"/>
<polygon fill="midnightblue" stroke="midnightblue" points="703.619,-32.9916 699.094,-23.412 696.658,-33.723 703.619,-32.9916"/>
</g>
<!-- Node7&#45;&gt;Node2 -->
<g id="edge18" class="edge"><title>Node7&#45;&gt;Node2</title>
<path fill="none" stroke="midnightblue" d="M366.571,-147.253C392.28,-157.588 424.538,-171.327 444.823,-180.631"/>
<polygon fill="midnightblue" stroke="midnightblue" points="367.663,-143.92 357.078,-143.475 365.075,-150.424 367.663,-143.92"/>
</g>
<!-- Node8&#45;&gt;Node2 -->
<g id="edge24" class="edge"><title>Node8&#45;&gt;Node2</title>
<path fill="none" stroke="midnightblue" d="M523.461,-150.387C511.453,-160.242 495.421,-172.24 482.903,-180.631"/>
<polygon fill="midnightblue" stroke="midnightblue" points="526.019,-152.807 531.386,-143.672 521.494,-147.466 526.019,-152.807"/>
</g>
<!-- Node8&#45;&gt;Node3 -->
<g id="edge22" class="edge"><title>Node8&#45;&gt;Node3</title>
<path fill="none" stroke="midnightblue" d="M521.769,-113.51C495.889,-88.6823 449.29,-43.9771 428.068,-23.6179"/>
<polygon fill="midnightblue" stroke="midnightblue" points="519.445,-116.131 529.085,-120.528 524.291,-111.08 519.445,-116.131"/>
</g>
<!-- Node8&#45;&gt;Node9 -->
<g id="edge26" class="edge"><title>Node8&#45;&gt;Node9</title>
<path fill="none" stroke="midnightblue" d="M540.529,-110.192C541.173,-84.8736 542.235,-43.0995 542.73,-23.6179"/>
<polygon fill="midnightblue" stroke="midnightblue" points="537.022,-110.443 540.266,-120.528 544.019,-110.621 537.022,-110.443"/>
</g>
<!-- Node8&#45;&gt;Node10 -->
<g id="edge28" class="edge"><title>Node8&#45;&gt;Node10</title>
<path fill="none" stroke="midnightblue" d="M562.483,-114.494C576.065,-104.522 592.967,-92.1126 604.732,-83.475"/>
<polygon fill="midnightblue" stroke="midnightblue" points="560.113,-111.891 554.124,-120.631 564.256,-117.534 560.113,-111.891"/>
</g>
<!-- Node10&#45;&gt;Node1 -->
<g id="edge38" class="edge"><title>Node10&#45;&gt;Node1</title>
<path fill="none" stroke="midnightblue" d="M630.287,-92.3185C652.256,-129.92 700.086,-211.781 716.959,-240.661"/>
<polygon fill="midnightblue" stroke="midnightblue" points="633.124,-90.2366 625.058,-83.368 627.08,-93.7679 633.124,-90.2366"/>
</g>
<!-- Node10&#45;&gt;Node2 -->
<g id="edge34" class="edge"><title>Node10&#45;&gt;Node2</title>
<path fill="none" stroke="midnightblue" d="M624.537,-93.6596C623.783,-109.349 618.151,-130.465 605,-144 580.42,-169.298 541.337,-181.016 510.43,-186.422"/>
<polygon fill="midnightblue" stroke="midnightblue" points="628.028,-93.2829 624.262,-83.3802 621.03,-93.4703 628.028,-93.2829"/>
</g>
<!-- Node10&#45;&gt;Node3 -->
<g id="edge30" class="edge"><title>Node10&#45;&gt;Node3</title>
<path fill="none" stroke="midnightblue" d="M573.023,-57.7988C536.68,-47.3635 486.654,-32.9997 453.141,-23.3771"/>
<polygon fill="midnightblue" stroke="midnightblue" points="572.309,-61.235 582.886,-60.6308 574.241,-54.5068 572.309,-61.235"/>
</g>
<!-- Node10&#45;&gt;Node4 -->
<g id="edge32" class="edge"><title>Node10&#45;&gt;Node4</title>
<path fill="none" stroke="midnightblue" d="M641.483,-54.4937C655.065,-44.5216 671.967,-32.1126 683.732,-23.475"/>
<polygon fill="midnightblue" stroke="midnightblue" points="639.113,-51.8914 633.124,-60.6308 643.256,-57.534 639.113,-51.8914"/>
</g>
<!-- Node10&#45;&gt;Node9 -->
<g id="edge36" class="edge"><title>Node10&#45;&gt;Node9</title>
<path fill="none" stroke="midnightblue" d="M597.371,-54.4937C584.304,-44.5216 568.044,-32.1126 556.726,-23.475"/>
<polygon fill="midnightblue" stroke="midnightblue" points="595.34,-57.3463 605.413,-60.6308 599.587,-51.7817 595.34,-57.3463"/>
</g>
</g>
</svg>
