<?xml version="1.0" encoding="UTF-8" standalone="no"?>
<!DOCTYPE svg PUBLIC "-//W3C//DTD SVG 1.1//EN"
 "http://www.w3.org/Graphics/SVG/1.1/DTD/svg11.dtd">
<!-- Generated by graphviz version 2.28.0 (20121015.0031)
 -->
<!-- Title: include/fae/message.h Pages: 1 -->
<svg width="638pt" height="332pt"
 viewBox="0.00 0.00 638.28 332.00" xmlns="http://www.w3.org/2000/svg" xmlns:xlink="http://www.w3.org/1999/xlink">
<g id="graph1" class="graph" transform="scale(1 1) rotate(0) translate(4 328)">
<title>include/fae/message.h</title>
<!-- Node1 -->
<g id="node1" class="node"><title>Node1</title>
<polygon fill="#bfbfbf" stroke="black" points="241.612,-300.695 241.612,-323.305 372.957,-323.305 372.957,-300.695 241.612,-300.695"/>
<text text-anchor="middle" x="307.285" y="-308.305" font-family="Futura" font-size="11.00">include/fae/message.h</text>
</g>
<!-- Node2 -->
<g id="node3" class="node"><title>Node2</title>
<a xlink:href="fae_2fae_8h.html" target="_top" xlink:title="fae.h">
<polygon fill="none" stroke="red" points="342.515,-120.695 342.515,-143.305 384.054,-143.305 384.054,-120.695 342.515,-120.695"/>
<text text-anchor="middle" x="363.285" y="-128.305" font-family="Futura" font-size="11.00">fae.h</text>
</a>
</g>
<!-- Node1&#45;&gt;Node2 -->
<g id="edge2" class="edge"><title>Node1&#45;&gt;Node2</title>
<path fill="none" stroke="midnightblue" d="M307.162,-300.661C312.098,-271.904 337.317,-190.615 352.616,-152.801"/>
<polygon fill="midnightblue" stroke="midnightblue" points="355.936,-153.939 356.643,-143.368 349.498,-151.191 355.936,-153.939"/>
</g>
<!-- Node4 -->
<g id="node8" class="node"><title>Node4</title>
<a xlink:href="std_8h.html" target="_top" xlink:title="fae/std.h">
<polygon fill="none" stroke="red" points="264.632,-0.695312 264.632,-23.3047 325.937,-23.3047 325.937,-0.695312 264.632,-0.695312"/>
<text text-anchor="middle" x="295.285" y="-8.30469" font-family="Futura" font-size="11.00">fae/std.h</text>
</a>
</g>
<!-- Node1&#45;&gt;Node4 -->
<g id="edge20" class="edge"><title>Node1&#45;&gt;Node4</title>
<path fill="none" stroke="midnightblue" d="M248.285,-300.679C159.365,-283.424 1.28456,-245.383 1.28456,-193 1.28456,-193 1.28456,-193 1.28456,-131 1.28456,-98.3341 -3.85369,-82.0092 20.2846,-60 53.8333,-29.4103 185.721,-18.4178 253.928,-14.7247"/>
<polygon fill="midnightblue" stroke="midnightblue" points="254.496,-18.2003 264.304,-14.1927 254.137,-11.2094 254.496,-18.2003"/>
</g>
<!-- Node9 -->
<g id="node20" class="node"><title>Node9</title>
<a xlink:href="pair_8h.html" target="_top" xlink:title="fae/pair.h">
<polygon fill="none" stroke="black" points="212.936,-240.695 212.936,-263.305 279.633,-263.305 279.633,-240.695 212.936,-240.695"/>
<text text-anchor="middle" x="246.285" y="-248.305" font-family="Futura" font-size="11.00">fae/pair.h</text>
</a>
</g>
<!-- Node1&#45;&gt;Node9 -->
<g id="edge22" class="edge"><title>Node1&#45;&gt;Node9</title>
<path fill="none" stroke="midnightblue" d="M296.379,-300.631C287.64,-292.322 275.18,-280.475 264.873,-270.675"/>
<polygon fill="midnightblue" stroke="midnightblue" points="267.167,-268.026 257.508,-263.672 262.344,-273.099 267.167,-268.026"/>
</g>
<!-- Node10 -->
<g id="node23" class="node"><title>Node10</title>
<a xlink:href="list_8h.html" target="_top" xlink:title="fae/list.h">
<polygon fill="none" stroke="black" points="266.191,-180.695 266.191,-203.305 326.379,-203.305 326.379,-180.695 266.191,-180.695"/>
<text text-anchor="middle" x="296.285" y="-188.305" font-family="Futura" font-size="11.00">fae/list.h</text>
</a>
</g>
<!-- Node1&#45;&gt;Node10 -->
<g id="edge30" class="edge"><title>Node1&#45;&gt;Node10</title>
<path fill="none" stroke="midnightblue" d="M306.308,-300.528C304.495,-281.071 300.575,-239.023 298.21,-213.656"/>
<polygon fill="midnightblue" stroke="midnightblue" points="301.688,-213.25 297.274,-203.618 294.718,-213.9 301.688,-213.25"/>
</g>
<!-- Node2&#45;&gt;Node1 -->
<g id="edge18" class="edge"><title>Node2&#45;&gt;Node1</title>
<path fill="none" stroke="midnightblue" d="M363.403,-143.368C358.453,-172.159 333.23,-253.451 317.938,-291.237"/>
<polygon fill="midnightblue" stroke="midnightblue" points="314.622,-290.089 313.913,-300.661 321.06,-292.839 314.622,-290.089"/>
</g>
<!-- Node3 -->
<g id="node5" class="node"><title>Node3</title>
<a xlink:href="atomic_8h.html" target="_top" xlink:title="fae/atomic.h">
<polygon fill="none" stroke="black" points="550.179,-60.6953 550.179,-83.3047 630.39,-83.3047 630.39,-60.6953 550.179,-60.6953"/>
<text text-anchor="middle" x="590.285" y="-68.3047" font-family="Futura" font-size="11.00">fae/atomic.h</text>
</a>
</g>
<!-- Node2&#45;&gt;Node3 -->
<g id="edge4" class="edge"><title>Node2&#45;&gt;Node3</title>
<path fill="none" stroke="midnightblue" d="M384.42,-124.459C419.837,-114.731 491.577,-96.3139 540.357,-84.355"/>
<polygon fill="midnightblue" stroke="midnightblue" points="541.207,-87.7504 550.092,-81.9803 539.548,-80.9498 541.207,-87.7504"/>
</g>
<!-- Node5 -->
<g id="node10" class="node"><title>Node5</title>
<a xlink:href="queue_8h.html" target="_top" xlink:title="fae/atomic/queue.h">
<polygon fill="none" stroke="red" points="28.8903,-60.6953 28.8903,-83.3047 145.679,-83.3047 145.679,-60.6953 28.8903,-60.6953"/>
<text text-anchor="middle" x="87.2846" y="-68.3047" font-family="Futura" font-size="11.00">fae/atomic/queue.h</text>
</a>
</g>
<!-- Node2&#45;&gt;Node5 -->
<g id="edge10" class="edge"><title>Node2&#45;&gt;Node5</title>
<path fill="none" stroke="midnightblue" d="M342.086,-126.545C300.714,-117.851 207.896,-98.3459 146.452,-85.4337"/>
<polygon fill="midnightblue" stroke="midnightblue" points="147.002,-81.973 136.496,-83.3415 145.562,-88.8233 147.002,-81.973"/>
</g>
<!-- Node6 -->
<g id="node12" class="node"><title>Node6</title>
<a xlink:href="stack_8h.html" target="_top" xlink:title="fae/atomic/stack.h">
<polygon fill="none" stroke="red" points="163.662,-60.6953 163.662,-83.3047 274.907,-83.3047 274.907,-60.6953 163.662,-60.6953"/>
<text text-anchor="middle" x="219.285" y="-68.3047" font-family="Futura" font-size="11.00">fae/atomic/stack.h</text>
</a>
</g>
<!-- Node2&#45;&gt;Node6 -->
<g id="edge12" class="edge"><title>Node2&#45;&gt;Node6</title>
<path fill="none" stroke="midnightblue" d="M342.346,-122.566C319.25,-113.264 281.711,-98.1439 254.158,-87.0463"/>
<polygon fill="midnightblue" stroke="midnightblue" points="255.452,-83.7944 244.869,-83.3048 252.837,-90.2875 255.452,-83.7944"/>
</g>
<!-- Node7 -->
<g id="node14" class="node"><title>Node7</title>
<a xlink:href="ring__buffer_8h.html" target="_top" xlink:title="fae/atomic/ring_buffer.h">
<polygon fill="none" stroke="red" points="292.768,-60.6953 292.768,-83.3047 433.801,-83.3047 433.801,-60.6953 292.768,-60.6953"/>
<text text-anchor="middle" x="363.285" y="-68.3047" font-family="Futura" font-size="11.00">fae/atomic/ring_buffer.h</text>
</a>
</g>
<!-- Node2&#45;&gt;Node7 -->
<g id="edge14" class="edge"><title>Node2&#45;&gt;Node7</title>
<path fill="none" stroke="midnightblue" d="M363.285,-120.631C363.285,-113.218 363.285,-102.989 363.285,-93.9096"/>
<polygon fill="midnightblue" stroke="midnightblue" points="366.785,-93.6718 363.285,-83.6719 359.785,-93.6719 366.785,-93.6718"/>
</g>
<!-- Node8 -->
<g id="node16" class="node"><title>Node8</title>
<a xlink:href="system_8h.html" target="_top" xlink:title="fae/system.h">
<polygon fill="none" stroke="red" points="452.267,-60.6953 452.267,-83.3047 532.302,-83.3047 532.302,-60.6953 452.267,-60.6953"/>
<text text-anchor="middle" x="492.285" y="-68.3047" font-family="Futura" font-size="11.00">fae/system.h</text>
</a>
</g>
<!-- Node2&#45;&gt;Node8 -->
<g id="edge16" class="edge"><title>Node2&#45;&gt;Node8</title>
<path fill="none" stroke="midnightblue" d="M384.298,-121.552C404.754,-112.355 436.133,-98.2464 459.804,-87.6038"/>
<polygon fill="midnightblue" stroke="midnightblue" points="461.414,-90.7171 469.1,-83.4242 458.544,-84.3327 461.414,-90.7171"/>
</g>
<!-- Node3&#45;&gt;Node2 -->
<g id="edge6" class="edge"><title>Node3&#45;&gt;Node2</title>
<path fill="none" stroke="midnightblue" d="M554.959,-83.3849C510.75,-95.2295 436.038,-114.25 394.051,-124.291"/>
<polygon fill="midnightblue" stroke="midnightblue" points="393.045,-120.932 384.12,-126.641 394.657,-127.744 393.045,-120.932"/>
</g>
<!-- Node3&#45;&gt;Node4 -->
<g id="edge8" class="edge"><title>Node3&#45;&gt;Node4</title>
<path fill="none" stroke="midnightblue" d="M549.93,-61.8333C547.007,-61.2022 544.102,-60.5851 541.285,-60 469.147,-45.0158 384.729,-29.2763 335.892,-20.3462"/>
<polygon fill="midnightblue" stroke="midnightblue" points="336.494,-16.8983 326.028,-18.5467 335.238,-23.7847 336.494,-16.8983"/>
</g>
<!-- Node9&#45;&gt;Node2 -->
<g id="edge24" class="edge"><title>Node9&#45;&gt;Node2</title>
<path fill="none" stroke="midnightblue" d="M245.008,-240.656C243.741,-225.685 243.633,-197.825 257.285,-180 275.492,-156.227 308.328,-144.212 332.646,-138.318"/>
<polygon fill="midnightblue" stroke="midnightblue" points="333.467,-141.721 342.479,-136.15 331.96,-134.885 333.467,-141.721"/>
</g>
<!-- Node9&#45;&gt;Node10 -->
<g id="edge26" class="edge"><title>Node9&#45;&gt;Node10</title>
<path fill="none" stroke="midnightblue" d="M255.224,-240.631C262.246,-232.485 272.2,-220.938 280.549,-211.253"/>
<polygon fill="midnightblue" stroke="midnightblue" points="283.206,-213.531 287.085,-203.672 277.904,-208.961 283.206,-213.531"/>
</g>
<!-- Node10&#45;&gt;Node2 -->
<g id="edge28" class="edge"><title>Node10&#45;&gt;Node2</title>
<path fill="none" stroke="midnightblue" d="M308.263,-180.631C317.955,-172.24 331.815,-160.242 343.2,-150.387"/>
<polygon fill="midnightblue" stroke="midnightblue" points="345.687,-152.863 350.957,-143.672 341.105,-147.571 345.687,-152.863"/>
</g>
</g>
</svg>
