<?xml version="1.0" encoding="UTF-8" standalone="no"?>
<!DOCTYPE svg PUBLIC "-//W3C//DTD SVG 1.1//EN"
 "http://www.w3.org/Graphics/SVG/1.1/DTD/svg11.dtd">
<!-- Generated by graphviz version 2.28.0 (20121015.0031)
 -->
<!-- Title: include/fae/midi/message.h Pages: 1 -->
<svg width="829pt" height="152pt"
 viewBox="0.00 0.00 829.00 152.00" xmlns="http://www.w3.org/2000/svg" xmlns:xlink="http://www.w3.org/1999/xlink">
<g id="graph1" class="graph" transform="scale(1 1) rotate(0) translate(4 148)">
<title>include/fae/midi/message.h</title>
<!-- Node1 -->
<g id="node1" class="node"><title>Node1</title>
<polygon fill="#bfbfbf" stroke="black" points="564.091,-120.695 564.091,-143.305 721.909,-143.305 721.909,-120.695 564.091,-120.695"/>
<text text-anchor="middle" x="643" y="-128.305" font-family="Futura" font-size="11.00">include/fae/midi/message.h</text>
</g>
<!-- Node2 -->
<g id="node3" class="node"><title>Node2</title>
<a xlink:href="fae_2fae_8h.html" target="_top" xlink:title="include/fae/fae.h">
<polygon fill="none" stroke="red" points="417.761,-60.6953 417.761,-83.3047 522.239,-83.3047 522.239,-60.6953 417.761,-60.6953"/>
<text text-anchor="middle" x="470" y="-68.3047" font-family="Futura" font-size="11.00">include/fae/fae.h</text>
</a>
</g>
<!-- Node1&#45;&gt;Node2 -->
<g id="edge2" class="edge"><title>Node1&#45;&gt;Node2</title>
<path fill="none" stroke="midnightblue" d="M602.421,-117.396C571.402,-106.996 529.286,-92.8764 500.952,-83.3771"/>
<polygon fill="midnightblue" stroke="midnightblue" points="601.477,-120.77 612.071,-120.631 603.702,-114.134 601.477,-120.77"/>
</g>
<!-- Node9 -->
<g id="node21" class="node"><title>Node9</title>
<a xlink:href="midi_8c.html" target="_top" xlink:title="src/fae/midi.c">
<polygon fill="none" stroke="black" points="540.677,-60.6953 540.677,-83.3047 627.323,-83.3047 627.323,-60.6953 540.677,-60.6953"/>
<text text-anchor="middle" x="584" y="-68.3047" font-family="Futura" font-size="11.00">src/fae/midi.c</text>
</a>
</g>
<!-- Node1&#45;&gt;Node9 -->
<g id="edge24" class="edge"><title>Node1&#45;&gt;Node9</title>
<path fill="none" stroke="midnightblue" d="M625.089,-113.392C615.227,-103.698 603.31,-91.9831 594.856,-83.6719"/>
<polygon fill="midnightblue" stroke="midnightblue" points="622.867,-116.116 632.452,-120.631 627.774,-111.124 622.867,-116.116"/>
</g>
<!-- Node10 -->
<g id="node23" class="node"><title>Node10</title>
<a xlink:href="midi__msg_8c.html" target="_top" xlink:title="src/fae/midi_msg.c">
<polygon fill="none" stroke="black" points="645.692,-60.6953 645.692,-83.3047 758.308,-83.3047 758.308,-60.6953 645.692,-60.6953"/>
<text text-anchor="middle" x="702" y="-68.3047" font-family="Futura" font-size="11.00">src/fae/midi_msg.c</text>
</a>
</g>
<!-- Node1&#45;&gt;Node10 -->
<g id="edge26" class="edge"><title>Node1&#45;&gt;Node10</title>
<path fill="none" stroke="midnightblue" d="M660.911,-113.392C670.773,-103.698 682.69,-91.9831 691.144,-83.6719"/>
<polygon fill="midnightblue" stroke="midnightblue" points="658.226,-111.124 653.548,-120.631 663.133,-116.116 658.226,-111.124"/>
</g>
<!-- Node3 -->
<g id="node5" class="node"><title>Node3</title>
<a xlink:href="atomic_8h.html" target="_top" xlink:title="include/fae/atomic.h">
<polygon fill="none" stroke="red" points="-0.668945,-0.695312 -0.668945,-23.3047 120.669,-23.3047 120.669,-0.695312 -0.668945,-0.695312"/>
<text text-anchor="middle" x="60" y="-8.30469" font-family="Futura" font-size="11.00">include/fae/atomic.h</text>
</a>
</g>
<!-- Node2&#45;&gt;Node3 -->
<g id="edge4" class="edge"><title>Node2&#45;&gt;Node3</title>
<path fill="none" stroke="midnightblue" d="M407.513,-63.5692C337.463,-54.5606 220.871,-38.7486 121,-24 119.54,-23.7843 118.062,-23.5647 116.574,-23.342"/>
<polygon fill="midnightblue" stroke="midnightblue" points="407.14,-67.0498 417.503,-64.848 408.028,-60.1065 407.14,-67.0498"/>
</g>
<!-- Node4 -->
<g id="node8" class="node"><title>Node4</title>
<a xlink:href="buffer_8h.html" target="_top" xlink:title="include/fae/buffer.h">
<polygon fill="none" stroke="red" points="704.184,-0.695312 704.184,-23.3047 821.816,-23.3047 821.816,-0.695312 704.184,-0.695312"/>
<text text-anchor="middle" x="763" y="-8.30469" font-family="Futura" font-size="11.00">include/fae/buffer.h</text>
</a>
</g>
<!-- Node2&#45;&gt;Node4 -->
<g id="edge8" class="edge"><title>Node2&#45;&gt;Node4</title>
<path fill="none" stroke="midnightblue" d="M532.343,-58.6592C585.356,-48.1651 660.617,-33.267 710.578,-23.3771"/>
<polygon fill="midnightblue" stroke="midnightblue" points="531.513,-55.2555 522.383,-60.6308 532.872,-62.1222 531.513,-55.2555"/>
</g>
<!-- Node5 -->
<g id="node11" class="node"><title>Node5</title>
<a xlink:href="device_8h.html" target="_top" xlink:title="include/fae/device.h">
<polygon fill="none" stroke="red" points="138.774,-0.695312 138.774,-23.3047 259.226,-23.3047 259.226,-0.695312 138.774,-0.695312"/>
<text text-anchor="middle" x="199" y="-8.30469" font-family="Futura" font-size="11.00">include/fae/device.h</text>
</a>
</g>
<!-- Node2&#45;&gt;Node5 -->
<g id="edge12" class="edge"><title>Node2&#45;&gt;Node5</title>
<path fill="none" stroke="midnightblue" d="M411.726,-58.528C362.727,-48.0413 293.504,-33.2259 247.486,-23.3771"/>
<polygon fill="midnightblue" stroke="midnightblue" points="411.04,-61.9604 421.551,-60.6308 412.505,-55.1154 411.04,-61.9604"/>
</g>
<!-- Node6 -->
<g id="node13" class="node"><title>Node6</title>
<a xlink:href="dynamic_8h.html" target="_top" xlink:title="include/fae/dynamic.h">
<polygon fill="none" stroke="red" points="276.876,-0.695312 276.876,-23.3047 407.124,-23.3047 407.124,-0.695312 276.876,-0.695312"/>
<text text-anchor="middle" x="342" y="-8.30469" font-family="Futura" font-size="11.00">include/fae/dynamic.h</text>
</a>
</g>
<!-- Node2&#45;&gt;Node6 -->
<g id="edge14" class="edge"><title>Node2&#45;&gt;Node6</title>
<path fill="none" stroke="midnightblue" d="M437.898,-56.4538C415.253,-46.1929 385.45,-32.6885 365.117,-23.475"/>
<polygon fill="midnightblue" stroke="midnightblue" points="436.563,-59.6914 447.116,-60.6308 439.452,-53.3154 436.563,-59.6914"/>
</g>
<!-- Node7 -->
<g id="node15" class="node"><title>Node7</title>
<a xlink:href="error_8h.html" target="_top" xlink:title="include/fae/error.h">
<polygon fill="none" stroke="red" points="425.555,-0.695312 425.555,-23.3047 538.445,-23.3047 538.445,-0.695312 425.555,-0.695312"/>
<text text-anchor="middle" x="482" y="-8.30469" font-family="Futura" font-size="11.00">include/fae/error.h</text>
</a>
</g>
<!-- Node2&#45;&gt;Node7 -->
<g id="edge16" class="edge"><title>Node2&#45;&gt;Node7</title>
<path fill="none" stroke="midnightblue" d="M467.762,-50.4586C469.058,-41.4112 471.552,-31.1602 474.422,-23.6719"/>
<polygon fill="midnightblue" stroke="midnightblue" points="464.257,-50.353 466.829,-60.6308 471.228,-50.992 464.257,-50.353"/>
</g>
<!-- Node8 -->
<g id="node18" class="node"><title>Node8</title>
<a xlink:href="graph_8h.html" target="_top" xlink:title="include/fae/graph.h">
<polygon fill="none" stroke="red" points="556.894,-0.695312 556.894,-23.3047 675.106,-23.3047 675.106,-0.695312 556.894,-0.695312"/>
<text text-anchor="middle" x="616" y="-8.30469" font-family="Futura" font-size="11.00">include/fae/graph.h</text>
</a>
</g>
<!-- Node2&#45;&gt;Node8 -->
<g id="edge20" class="edge"><title>Node2&#45;&gt;Node8</title>
<path fill="none" stroke="midnightblue" d="M500.049,-56.7151C524.756,-46.3869 559.48,-32.6708 584.561,-23.3771"/>
<polygon fill="midnightblue" stroke="midnightblue" points="498.634,-53.5134 490.786,-60.6308 501.36,-59.961 498.634,-53.5134"/>
</g>
<!-- Node3&#45;&gt;Node2 -->
<g id="edge6" class="edge"><title>Node3&#45;&gt;Node2</title>
<path fill="none" stroke="midnightblue" d="M130.916,-22.7934C133.651,-23.2052 136.353,-23.6091 139,-24 237.446,-38.5381 352.139,-54.1095 417.489,-63.1793"/>
<polygon fill="midnightblue" stroke="midnightblue" points="131.323,-19.3153 120.912,-21.2764 130.274,-26.2362 131.323,-19.3153"/>
</g>
<!-- Node4&#45;&gt;Node1 -->
<g id="edge10" class="edge"><title>Node4&#45;&gt;Node1</title>
<path fill="none" stroke="midnightblue" d="M770.373,-33.2792C774.55,-48.5545 777.144,-69.3063 767,-84 754.182,-102.567 733.006,-113.806 711.749,-120.607"/>
<polygon fill="midnightblue" stroke="midnightblue" points="773.705,-32.2089 767.365,-23.7206 767.028,-34.3101 773.705,-32.2089"/>
</g>
<!-- Node7&#45;&gt;Node2 -->
<g id="edge18" class="edge"><title>Node7&#45;&gt;Node2</title>
<path fill="none" stroke="midnightblue" d="M484.185,-33.9096C482.856,-42.9888 480.341,-53.218 477.461,-60.6308"/>
<polygon fill="midnightblue" stroke="midnightblue" points="487.696,-33.9592 485.162,-23.6719 480.728,-33.294 487.696,-33.9592"/>
</g>
<!-- Node8&#45;&gt;Node2 -->
<g id="edge22" class="edge"><title>Node8&#45;&gt;Node2</title>
<path fill="none" stroke="midnightblue" d="M585.7,-27.3897C561.003,-37.7086 526.416,-51.3683 501.418,-60.6308"/>
<polygon fill="midnightblue" stroke="midnightblue" points="587.117,-30.5906 594.967,-23.475 584.393,-24.1423 587.117,-30.5906"/>
</g>
</g>
</svg>
