<?xml version="1.0" encoding="UTF-8" standalone="no"?>
<!DOCTYPE svg PUBLIC "-//W3C//DTD SVG 1.1//EN"
 "http://www.w3.org/Graphics/SVG/1.1/DTD/svg11.dtd">
<!-- Generated by graphviz version 2.28.0 (20121015.0031)
 -->
<!-- Title: include/fa/midi/message.h Pages: 1 -->
<svg width="481pt" height="272pt"
 viewBox="0.00 0.00 481.00 272.00" xmlns="http://www.w3.org/2000/svg" xmlns:xlink="http://www.w3.org/1999/xlink">
<g id="graph1" class="graph" transform="scale(1 1) rotate(0) translate(4 268)">
<title>include/fa/midi/message.h</title>
<!-- Node1 -->
<g id="node1" class="node"><title>Node1</title>
<polygon fill="#bfbfbf" stroke="black" points="58.1335,-240.695 58.1335,-263.305 209.866,-263.305 209.866,-240.695 58.1335,-240.695"/>
<text text-anchor="middle" x="134" y="-248.305" font-family="Futura" font-size="11.00">include/fa/midi/message.h</text>
</g>
<!-- Node2 -->
<g id="node3" class="node"><title>Node2</title>
<polygon fill="none" stroke="#bfbfbf" points="-0.609863,-120.695 -0.609863,-143.305 54.6099,-143.305 54.6099,-120.695 -0.609863,-120.695"/>
<text text-anchor="middle" x="27" y="-128.305" font-family="Futura" font-size="11.00">fa/std.h</text>
</g>
<!-- Node1&#45;&gt;Node2 -->
<g id="edge2" class="edge"><title>Node1&#45;&gt;Node2</title>
<path fill="none" stroke="midnightblue" d="M124.504,-240.528C106.308,-220.461 66.3186,-176.361 43.6103,-151.318"/>
<polygon fill="midnightblue" stroke="midnightblue" points="45.9382,-148.675 36.6281,-143.618 40.7527,-153.377 45.9382,-148.675"/>
</g>
<!-- Node3 -->
<g id="node5" class="node"><title>Node3</title>
<a xlink:href="pair_8h.html" target="_top" xlink:title="fa/pair.h">
<polygon fill="none" stroke="black" points="72.6938,-120.695 72.6938,-143.305 133.306,-143.305 133.306,-120.695 72.6938,-120.695"/>
<text text-anchor="middle" x="103" y="-128.305" font-family="Futura" font-size="11.00">fa/pair.h</text>
</a>
</g>
<!-- Node1&#45;&gt;Node3 -->
<g id="edge4" class="edge"><title>Node1&#45;&gt;Node3</title>
<path fill="none" stroke="midnightblue" d="M131.249,-240.528C126.114,-220.984 114.992,-178.645 108.337,-153.316"/>
<polygon fill="midnightblue" stroke="midnightblue" points="111.716,-152.4 105.789,-143.618 104.945,-154.179 111.716,-152.4"/>
</g>
<!-- Node9 -->
<g id="node21" class="node"><title>Node9</title>
<a xlink:href="buffer_8h.html" target="_top" xlink:title="fa/buffer.h">
<polygon fill="none" stroke="black" points="130.79,-180.695 130.79,-203.305 201.21,-203.305 201.21,-180.695 130.79,-180.695"/>
<text text-anchor="middle" x="166" y="-188.305" font-family="Futura" font-size="11.00">fa/buffer.h</text>
</a>
</g>
<!-- Node1&#45;&gt;Node9 -->
<g id="edge24" class="edge"><title>Node1&#45;&gt;Node9</title>
<path fill="none" stroke="midnightblue" d="M139.721,-240.631C143.991,-232.892 149.954,-222.084 155.12,-212.719"/>
<polygon fill="midnightblue" stroke="midnightblue" points="158.346,-214.118 160.112,-203.672 152.217,-210.737 158.346,-214.118"/>
</g>
<!-- Node4 -->
<g id="node7" class="node"><title>Node4</title>
<a xlink:href="fa_2fa_8h.html" target="_top" xlink:title="fa.h">
<polygon fill="none" stroke="red" points="167.273,-60.6953 167.273,-83.3047 202.727,-83.3047 202.727,-60.6953 167.273,-60.6953"/>
<text text-anchor="middle" x="185" y="-68.3047" font-family="Futura" font-size="11.00">fa.h</text>
</a>
</g>
<!-- Node3&#45;&gt;Node4 -->
<g id="edge6" class="edge"><title>Node3&#45;&gt;Node4</title>
<path fill="none" stroke="midnightblue" d="M112.344,-120.631C123.621,-111.479 142.412,-98.0339 158.165,-87.7603"/>
<polygon fill="midnightblue" stroke="midnightblue" points="160.45,-90.4548 167.009,-82.1343 156.693,-84.5486 160.45,-90.4548"/>
</g>
<!-- Node8 -->
<g id="node16" class="node"><title>Node8</title>
<a xlink:href="list_8h.html" target="_top" xlink:title="fa/list.h">
<polygon fill="none" stroke="black" points="75.9487,-0.695312 75.9487,-23.3047 130.051,-23.3047 130.051,-0.695312 75.9487,-0.695312"/>
<text text-anchor="middle" x="103" y="-8.30469" font-family="Futura" font-size="11.00">fa/list.h</text>
</a>
</g>
<!-- Node3&#45;&gt;Node8 -->
<g id="edge22" class="edge"><title>Node3&#45;&gt;Node8</title>
<path fill="none" stroke="midnightblue" d="M103,-120.528C103,-101.071 103,-59.0228 103,-33.6561"/>
<polygon fill="midnightblue" stroke="midnightblue" points="106.5,-33.6178 103,-23.6179 99.5001,-33.6179 106.5,-33.6178"/>
</g>
<!-- Node4&#45;&gt;Node1 -->
<g id="edge20" class="edge"><title>Node4&#45;&gt;Node1</title>
<path fill="none" stroke="midnightblue" d="M202.851,-81.7922C216.65,-89.6822 234.745,-102.686 243,-120 247.59,-129.628 245.654,-133.669 243,-144 235.429,-173.477 230.964,-181.938 210,-204 197.64,-217.008 180.934,-227.856 166.333,-235.84"/>
<polygon fill="midnightblue" stroke="midnightblue" points="164.346,-232.93 157.109,-240.667 167.592,-239.132 164.346,-232.93"/>
</g>
<!-- Node4&#45;&gt;Node3 -->
<g id="edge14" class="edge"><title>Node4&#45;&gt;Node3</title>
<path fill="none" stroke="midnightblue" d="M175.282,-83.6719C164.387,-92.4768 146.78,-105.101 131.579,-115.098"/>
<polygon fill="midnightblue" stroke="midnightblue" points="129.493,-112.278 122.976,-120.631 133.28,-118.165 129.493,-112.278"/>
</g>
<!-- Node5 -->
<g id="node9" class="node"><title>Node5</title>
<polygon fill="none" stroke="#bfbfbf" points="147.937,-0.695312 147.937,-23.3047 222.063,-23.3047 222.063,-0.695312 147.937,-0.695312"/>
<text text-anchor="middle" x="185" y="-8.30469" font-family="Futura" font-size="11.00">fa/atomic.h</text>
</g>
<!-- Node4&#45;&gt;Node5 -->
<g id="edge8" class="edge"><title>Node4&#45;&gt;Node5</title>
<path fill="none" stroke="midnightblue" d="M185,-60.6308C185,-53.218 185,-42.9888 185,-33.9096"/>
<polygon fill="midnightblue" stroke="midnightblue" points="188.5,-33.6718 185,-23.6719 181.5,-33.6719 188.5,-33.6718"/>
</g>
<!-- Node6 -->
<g id="node11" class="node"><title>Node6</title>
<polygon fill="none" stroke="#bfbfbf" points="239.648,-0.695312 239.648,-23.3047 350.352,-23.3047 350.352,-0.695312 239.648,-0.695312"/>
<text text-anchor="middle" x="295" y="-8.30469" font-family="Futura" font-size="11.00">fa/atomic/queue.h</text>
</g>
<!-- Node4&#45;&gt;Node6 -->
<g id="edge10" class="edge"><title>Node4&#45;&gt;Node6</title>
<path fill="none" stroke="midnightblue" d="M203.164,-61.4225C220.338,-52.3675 246.378,-38.6369 266.35,-28.1065"/>
<polygon fill="midnightblue" stroke="midnightblue" points="268.109,-31.1357 275.322,-23.3755 264.844,-24.9437 268.109,-31.1357"/>
</g>
<!-- Node7 -->
<g id="node13" class="node"><title>Node7</title>
<polygon fill="none" stroke="#bfbfbf" points="368.42,-0.695312 368.42,-23.3047 473.58,-23.3047 473.58,-0.695312 368.42,-0.695312"/>
<text text-anchor="middle" x="421" y="-8.30469" font-family="Futura" font-size="11.00">fa/atomic/stack.h</text>
</g>
<!-- Node4&#45;&gt;Node7 -->
<g id="edge12" class="edge"><title>Node4&#45;&gt;Node7</title>
<path fill="none" stroke="midnightblue" d="M202.738,-66.6406C237.583,-58.0772 316.155,-38.767 368.889,-25.807"/>
<polygon fill="midnightblue" stroke="midnightblue" points="369.868,-29.1705 378.744,-23.3849 368.198,-22.3727 369.868,-29.1705"/>
</g>
<!-- Node4&#45;&gt;Node8 -->
<g id="edge16" class="edge"><title>Node4&#45;&gt;Node8</title>
<path fill="none" stroke="midnightblue" d="M167.125,-61.9375C153.232,-53.3651 134.368,-40.2877 120.573,-29.8076"/>
<polygon fill="midnightblue" stroke="midnightblue" points="122.377,-26.7746 112.344,-23.3692 118.063,-32.2878 122.377,-26.7746"/>
</g>
<!-- Node8&#45;&gt;Node4 -->
<g id="edge18" class="edge"><title>Node8&#45;&gt;Node4</title>
<path fill="none" stroke="midnightblue" d="M123.144,-23.475C136.778,-32.0304 154.389,-44.2855 167.447,-54.2081"/>
<polygon fill="midnightblue" stroke="midnightblue" points="165.623,-57.225 175.656,-60.6308 169.937,-51.712 165.623,-57.225"/>
</g>
<!-- Node9&#45;&gt;Node2 -->
<g id="edge28" class="edge"><title>Node9&#45;&gt;Node2</title>
<path fill="none" stroke="midnightblue" d="M141.15,-180.631C118.952,-171.368 86.2156,-157.709 61.4856,-147.39"/>
<polygon fill="midnightblue" stroke="midnightblue" points="62.6806,-144.096 52.1039,-143.475 59.9849,-150.556 62.6806,-144.096"/>
</g>
<!-- Node9&#45;&gt;Node3 -->
<g id="edge30" class="edge"><title>Node9&#45;&gt;Node3</title>
<path fill="none" stroke="midnightblue" d="M154.737,-180.631C145.712,-172.322 132.843,-160.475 122.198,-150.675"/>
<polygon fill="midnightblue" stroke="midnightblue" points="124.319,-147.87 114.592,-143.672 119.578,-153.02 124.319,-147.87"/>
</g>
<!-- Node9&#45;&gt;Node4 -->
<g id="edge26" class="edge"><title>Node9&#45;&gt;Node4</title>
<path fill="none" stroke="midnightblue" d="M188.71,-180.545C202.84,-172.688 219.827,-160.451 228,-144 237.445,-124.987 221.78,-104.344 206.776,-90.2436"/>
<polygon fill="midnightblue" stroke="midnightblue" points="208.946,-87.4905 199.127,-83.5096 204.32,-92.7445 208.946,-87.4905"/>
</g>
<!-- Node10 -->
<g id="node26" class="node"><title>Node10</title>
<a xlink:href="string_8h.html" target="_top" xlink:title="fa/string.h">
<polygon fill="none" stroke="black" points="150.87,-120.695 150.87,-143.305 219.13,-143.305 219.13,-120.695 150.87,-120.695"/>
<text text-anchor="middle" x="185" y="-128.305" font-family="Futura" font-size="11.00">fa/string.h</text>
</a>
</g>
<!-- Node9&#45;&gt;Node10 -->
<g id="edge32" class="edge"><title>Node9&#45;&gt;Node10</title>
<path fill="none" stroke="midnightblue" d="M169.397,-180.631C171.879,-173.055 175.324,-162.538 178.346,-153.313"/>
<polygon fill="midnightblue" stroke="midnightblue" points="181.717,-154.265 181.504,-143.672 175.065,-152.085 181.717,-154.265"/>
</g>
<!-- Node10&#45;&gt;Node4 -->
<g id="edge34" class="edge"><title>Node10&#45;&gt;Node4</title>
<path fill="none" stroke="midnightblue" d="M185,-120.631C185,-113.218 185,-102.989 185,-93.9096"/>
<polygon fill="midnightblue" stroke="midnightblue" points="188.5,-93.6718 185,-83.6719 181.5,-93.6719 188.5,-93.6718"/>
</g>
</g>
</svg>
