<?xml version="1.0" encoding="UTF-8" standalone="no"?>
<!DOCTYPE svg PUBLIC "-//W3C//DTD SVG 1.1//EN"
 "http://www.w3.org/Graphics/SVG/1.1/DTD/svg11.dtd">
<!-- Generated by graphviz version 2.28.0 (20121015.0031)
 -->
<!-- Title: src/fae/message.c Pages: 1 -->
<svg width="409pt" height="332pt"
 viewBox="0.00 0.00 409.00 332.00" xmlns="http://www.w3.org/2000/svg" xmlns:xlink="http://www.w3.org/1999/xlink">
<g id="graph1" class="graph" transform="scale(1 1) rotate(0) translate(4 328)">
<title>src/fae/message.c</title>
<!-- Node1 -->
<g id="node1" class="node"><title>Node1</title>
<polygon fill="#bfbfbf" stroke="black" points="162.575,-300.695 162.575,-323.305 271.425,-323.305 271.425,-300.695 162.575,-300.695"/>
<text text-anchor="middle" x="217" y="-308.305" font-family="Futura" font-size="11.00">src/fae/message.c</text>
</g>
<!-- Node2 -->
<g id="node3" class="node"><title>Node2</title>
<polygon fill="none" stroke="#bfbfbf" points="3.89111,-0.695312 3.89111,-23.3047 94.1089,-23.3047 94.1089,-0.695312 3.89111,-0.695312"/>
<text text-anchor="middle" x="49" y="-8.30469" font-family="Futura" font-size="11.00">fae/message.h</text>
</g>
<!-- Node1&#45;&gt;Node2 -->
<g id="edge2" class="edge"><title>Node1&#45;&gt;Node2</title>
<path fill="none" stroke="midnightblue" d="M162.522,-305.093C98.2422,-294.753 0,-266.867 0,-193 0,-193 0,-193 0,-131 0,-93.7339 21.1025,-54.5612 35.6105,-32.0335"/>
<polygon fill="midnightblue" stroke="midnightblue" points="38.6988,-33.7113 41.3438,-23.4519 32.8783,-29.8227 38.6988,-33.7113"/>
</g>
<!-- Node3 -->
<g id="node5" class="node"><title>Node3</title>
<polygon fill="none" stroke="#bfbfbf" points="168.606,-0.695312 168.606,-23.3047 285.394,-23.3047 285.394,-0.695312 168.606,-0.695312"/>
<text text-anchor="middle" x="227" y="-8.30469" font-family="Futura" font-size="11.00">fae/atomic/queue.h</text>
</g>
<!-- Node1&#45;&gt;Node3 -->
<g id="edge4" class="edge"><title>Node1&#45;&gt;Node3</title>
<path fill="none" stroke="midnightblue" d="M228.064,-300.44C247.094,-281.079 284,-237.76 284,-193 284,-193 284,-193 284,-131 284,-92.6379 259.271,-53.6186 242.39,-31.4506"/>
<polygon fill="midnightblue" stroke="midnightblue" points="245.101,-29.236 236.158,-23.5544 239.606,-33.5726 245.101,-29.236"/>
</g>
<!-- Node4 -->
<g id="node7" class="node"><title>Node4</title>
<a xlink:href="map_8h.html" target="_top" xlink:title="fae/map.h">
<polygon fill="none" stroke="black" points="131.435,-240.695 131.435,-263.305 200.565,-263.305 200.565,-240.695 131.435,-240.695"/>
<text text-anchor="middle" x="166" y="-248.305" font-family="Futura" font-size="11.00">fae/map.h</text>
</a>
</g>
<!-- Node1&#45;&gt;Node4 -->
<g id="edge6" class="edge"><title>Node1&#45;&gt;Node4</title>
<path fill="none" stroke="midnightblue" d="M207.882,-300.631C200.719,-292.485 190.566,-280.938 182.05,-271.253"/>
<polygon fill="midnightblue" stroke="midnightblue" points="184.616,-268.87 175.384,-263.672 179.359,-273.493 184.616,-268.87"/>
</g>
<!-- Node9 -->
<g id="node23" class="node"><title>Node9</title>
<a xlink:href="util_8h.html" target="_top" xlink:title="fae/util.h">
<polygon fill="none" stroke="red" points="319.141,-240.695 319.141,-263.305 380.859,-263.305 380.859,-240.695 319.141,-240.695"/>
<text text-anchor="middle" x="350" y="-248.305" font-family="Futura" font-size="11.00">fae/util.h</text>
</a>
</g>
<!-- Node1&#45;&gt;Node9 -->
<g id="edge28" class="edge"><title>Node1&#45;&gt;Node9</title>
<path fill="none" stroke="midnightblue" d="M240.778,-300.631C261.923,-291.409 293.064,-277.829 316.688,-267.527"/>
<polygon fill="midnightblue" stroke="midnightblue" points="318.212,-270.681 325.98,-263.475 315.414,-264.264 318.212,-270.681"/>
</g>
<!-- Node5 -->
<g id="node9" class="node"><title>Node5</title>
<a xlink:href="fae_2fae_8h.html" target="_top" xlink:title="fae.h">
<polygon fill="none" stroke="red" points="78.2302,-60.6953 78.2302,-83.3047 119.77,-83.3047 119.77,-60.6953 78.2302,-60.6953"/>
<text text-anchor="middle" x="99" y="-68.3047" font-family="Futura" font-size="11.00">fae.h</text>
</a>
</g>
<!-- Node4&#45;&gt;Node5 -->
<g id="edge8" class="edge"><title>Node4&#45;&gt;Node5</title>
<path fill="none" stroke="midnightblue" d="M131.392,-245.181C107.711,-239.203 77.9872,-227.313 63,-204 40.181,-168.505 66.8384,-118.642 84.9635,-91.8285"/>
<polygon fill="midnightblue" stroke="midnightblue" points="88.0264,-93.5579 90.9237,-83.3669 82.3036,-89.5269 88.0264,-93.5579"/>
</g>
<!-- Node6 -->
<g id="node13" class="node"><title>Node6</title>
<a xlink:href="pair_8h.html" target="_top" xlink:title="fae/pair.h">
<polygon fill="none" stroke="black" points="71.6511,-180.695 71.6511,-203.305 138.349,-203.305 138.349,-180.695 71.6511,-180.695"/>
<text text-anchor="middle" x="105" y="-188.305" font-family="Futura" font-size="11.00">fae/pair.h</text>
</a>
</g>
<!-- Node4&#45;&gt;Node6 -->
<g id="edge14" class="edge"><title>Node4&#45;&gt;Node6</title>
<path fill="none" stroke="midnightblue" d="M155.094,-240.631C146.356,-232.322 133.896,-220.475 123.589,-210.675"/>
<polygon fill="midnightblue" stroke="midnightblue" points="125.883,-208.026 116.224,-203.672 121.059,-213.099 125.883,-208.026"/>
</g>
<!-- Node7 -->
<g id="node16" class="node"><title>Node7</title>
<a xlink:href="list_8h.html" target="_top" xlink:title="fae/list.h">
<polygon fill="none" stroke="black" points="103.906,-120.695 103.906,-143.305 164.094,-143.305 164.094,-120.695 103.906,-120.695"/>
<text text-anchor="middle" x="134" y="-128.305" font-family="Futura" font-size="11.00">fae/list.h</text>
</a>
</g>
<!-- Node4&#45;&gt;Node7 -->
<g id="edge22" class="edge"><title>Node4&#45;&gt;Node7</title>
<path fill="none" stroke="midnightblue" d="M163.195,-240.407C159.512,-226.525 152.829,-201.424 147,-180 144.62,-171.253 141.956,-161.6 139.663,-153.33"/>
<polygon fill="midnightblue" stroke="midnightblue" points="142.966,-152.144 136.917,-143.447 136.222,-154.019 142.966,-152.144"/>
</g>
<!-- Node8 -->
<g id="node20" class="node"><title>Node8</title>
<a xlink:href="string_8h.html" target="_top" xlink:title="fae/string.h">
<polygon fill="none" stroke="black" points="181.827,-120.695 181.827,-143.305 256.173,-143.305 256.173,-120.695 181.827,-120.695"/>
<text text-anchor="middle" x="219" y="-128.305" font-family="Futura" font-size="11.00">fae/string.h</text>
</a>
</g>
<!-- Node4&#45;&gt;Node8 -->
<g id="edge24" class="edge"><title>Node4&#45;&gt;Node8</title>
<path fill="none" stroke="midnightblue" d="M170.703,-240.528C179.521,-220.897 198.668,-178.267 210.027,-152.978"/>
<polygon fill="midnightblue" stroke="midnightblue" points="213.326,-154.174 214.231,-143.618 206.941,-151.306 213.326,-154.174"/>
</g>
<!-- Node5&#45;&gt;Node2 -->
<g id="edge12" class="edge"><title>Node5&#45;&gt;Node2</title>
<path fill="none" stroke="midnightblue" d="M90.061,-60.6308C83.0387,-52.4848 73.0844,-40.9379 64.7356,-31.2533"/>
<polygon fill="midnightblue" stroke="midnightblue" points="67.3803,-28.9607 58.1999,-23.6719 62.0784,-33.5313 67.3803,-28.9607"/>
</g>
<!-- Node5&#45;&gt;Node3 -->
<g id="edge10" class="edge"><title>Node5&#45;&gt;Node3</title>
<path fill="none" stroke="midnightblue" d="M119.85,-61.5522C140.148,-52.3549 171.284,-38.2464 194.771,-27.6038"/>
<polygon fill="midnightblue" stroke="midnightblue" points="196.331,-30.7395 203.995,-23.4242 193.442,-24.3635 196.331,-30.7395"/>
</g>
<!-- Node6&#45;&gt;Node5 -->
<g id="edge16" class="edge"><title>Node6&#45;&gt;Node5</title>
<path fill="none" stroke="midnightblue" d="M102.143,-180.647C99.6899,-171.19 96.3442,-156.777 95,-144 93.2265,-127.142 94.5058,-107.945 96.0736,-93.7659"/>
<polygon fill="midnightblue" stroke="midnightblue" points="99.5755,-93.9675 97.3399,-83.6113 92.6293,-93.1013 99.5755,-93.9675"/>
</g>
<!-- Node6&#45;&gt;Node7 -->
<g id="edge18" class="edge"><title>Node6&#45;&gt;Node7</title>
<path fill="none" stroke="midnightblue" d="M110.185,-180.631C114.054,-172.892 119.458,-162.084 124.14,-152.719"/>
<polygon fill="midnightblue" stroke="midnightblue" points="127.322,-154.181 128.664,-143.672 121.061,-151.051 127.322,-154.181"/>
</g>
<!-- Node7&#45;&gt;Node5 -->
<g id="edge20" class="edge"><title>Node7&#45;&gt;Node5</title>
<path fill="none" stroke="midnightblue" d="M127.743,-120.631C123.024,-112.811 116.413,-101.856 110.721,-92.4241"/>
<polygon fill="midnightblue" stroke="midnightblue" points="113.603,-90.4254 105.44,-83.6719 107.61,-94.0421 113.603,-90.4254"/>
</g>
<!-- Node8&#45;&gt;Node5 -->
<g id="edge26" class="edge"><title>Node8&#45;&gt;Node5</title>
<path fill="none" stroke="midnightblue" d="M197.546,-120.631C178.488,-111.419 150.432,-97.8587 129.124,-87.5601"/>
<polygon fill="midnightblue" stroke="midnightblue" points="130.393,-84.2857 119.866,-83.0852 127.346,-90.5882 130.393,-84.2857"/>
</g>
<!-- Node10 -->
<g id="node25" class="node"><title>Node10</title>
<a xlink:href="arch_8h.html" target="_top" xlink:title="fae/util/arch.h">
<polygon fill="none" stroke="black" points="312.205,-180.695 312.205,-203.305 401.795,-203.305 401.795,-180.695 312.205,-180.695"/>
<text text-anchor="middle" x="357" y="-188.305" font-family="Futura" font-size="11.00">fae/util/arch.h</text>
</a>
</g>
<!-- Node9&#45;&gt;Node10 -->
<g id="edge30" class="edge"><title>Node9&#45;&gt;Node10</title>
<path fill="none" stroke="midnightblue" d="M351.251,-240.631C352.156,-233.137 353.408,-222.764 354.513,-213.611"/>
<polygon fill="midnightblue" stroke="midnightblue" points="357.989,-214.019 355.712,-203.672 351.039,-213.18 357.989,-214.019"/>
</g>
</g>
</svg>
