<?xml version="1.0" encoding="UTF-8" standalone="no"?>
<!DOCTYPE svg PUBLIC "-//W3C//DTD SVG 1.1//EN"
 "http://www.w3.org/Graphics/SVG/1.1/DTD/svg11.dtd">
<!-- Generated by graphviz version 2.28.0 (20121015.0031)
 -->
<!-- Title: include/fae/midi.h Pages: 1 -->
<svg width="819pt" height="166pt"
 viewBox="0.00 0.00 819.00 166.00" xmlns="http://www.w3.org/2000/svg" xmlns:xlink="http://www.w3.org/1999/xlink">
<g id="graph1" class="graph" transform="scale(1 1) rotate(0) translate(4 162)">
<title>include/fae/midi.h</title>
<!-- Node1 -->
<g id="node1" class="node"><title>Node1</title>
<polygon fill="#bfbfbf" stroke="black" points="503.43,-134.695 503.43,-157.305 612.57,-157.305 612.57,-134.695 503.43,-134.695"/>
<text text-anchor="middle" x="558" y="-142.305" font-family="Futura" font-size="11.00">include/fae/midi.h</text>
</g>
<!-- Node2 -->
<g id="node3" class="node"><title>Node2</title>
<a xlink:href="fae_2fae_8h.html" target="_top" xlink:title="include/fae/fae.h">
<polygon fill="none" stroke="red" points="425.761,-67.6953 425.761,-90.3047 530.239,-90.3047 530.239,-67.6953 425.761,-67.6953"/>
<text text-anchor="middle" x="478" y="-75.3047" font-family="Futura" font-size="11.00">include/fae/fae.h</text>
</a>
</g>
<!-- Node1&#45;&gt;Node2 -->
<g id="edge2" class="edge"><title>Node1&#45;&gt;Node2</title>
<path fill="none" stroke="midnightblue" d="M537.112,-128.028C522.442,-116.109 503.29,-100.548 490.821,-90.4175"/>
<polygon fill="midnightblue" stroke="midnightblue" points="535.178,-130.967 545.147,-134.557 539.593,-125.534 535.178,-130.967"/>
</g>
<!-- Node9 -->
<g id="node22" class="node"><title>Node9</title>
<a xlink:href="midi_8c.html" target="_top" xlink:title="src/fae/midi.c">
<polygon fill="none" stroke="black" points="585.677,-67.6953 585.677,-90.3047 672.323,-90.3047 672.323,-67.6953 585.677,-67.6953"/>
<text text-anchor="middle" x="629" y="-75.3047" font-family="Futura" font-size="11.00">src/fae/midi.c</text>
</a>
</g>
<!-- Node1&#45;&gt;Node9 -->
<g id="edge26" class="edge"><title>Node1&#45;&gt;Node9</title>
<path fill="none" stroke="midnightblue" d="M576.856,-127.737C589.741,-115.942 606.406,-100.685 617.385,-90.6334"/>
<polygon fill="midnightblue" stroke="midnightblue" points="574.42,-125.222 569.407,-134.557 579.147,-130.386 574.42,-125.222"/>
</g>
<!-- Node10 -->
<g id="node24" class="node"><title>Node10</title>
<a xlink:href="device_8c.html" target="_top" xlink:title="src/platform/macosx\l/fae/device.c">
<polygon fill="none" stroke="black" points="690.597,-60.3906 690.597,-97.6094 811.403,-97.6094 811.403,-60.3906 690.597,-60.3906"/>
<text text-anchor="start" x="698.597" y="-82.6094" font-family="Futura" font-size="11.00">src/platform/macosx</text>
<text text-anchor="middle" x="751" y="-68" font-family="Futura" font-size="11.00">/fae/device.c</text>
</a>
</g>
<!-- Node1&#45;&gt;Node10 -->
<g id="edge28" class="edge"><title>Node1&#45;&gt;Node10</title>
<path fill="none" stroke="midnightblue" d="M598.835,-131.247C627.905,-121.457 667.218,-108.217 698.602,-97.6469"/>
<polygon fill="midnightblue" stroke="midnightblue" points="597.369,-128.048 589.009,-134.557 599.603,-134.682 597.369,-128.048"/>
</g>
<!-- Node3 -->
<g id="node5" class="node"><title>Node3</title>
<a xlink:href="atomic_8h.html" target="_top" xlink:title="include/fae/atomic.h">
<polygon fill="none" stroke="red" points="138.331,-0.695312 138.331,-23.3047 259.669,-23.3047 259.669,-0.695312 138.331,-0.695312"/>
<text text-anchor="middle" x="199" y="-8.30469" font-family="Futura" font-size="11.00">include/fae/atomic.h</text>
</a>
</g>
<!-- Node2&#45;&gt;Node3 -->
<g id="edge4" class="edge"><title>Node2&#45;&gt;Node3</title>
<path fill="none" stroke="midnightblue" d="M418.516,-65.4151C364.087,-53.1603 285.222,-34.758 238.263,-23.3344"/>
<polygon fill="midnightblue" stroke="midnightblue" points="417.858,-68.8543 428.381,-67.6287 419.39,-62.0242 417.858,-68.8543"/>
</g>
<!-- Node4 -->
<g id="node8" class="node"><title>Node4</title>
<a xlink:href="buffer_8h.html" target="_top" xlink:title="include/fae/buffer.h">
<polygon fill="none" stroke="red" points="277.184,-0.695312 277.184,-23.3047 394.816,-23.3047 394.816,-0.695312 277.184,-0.695312"/>
<text text-anchor="middle" x="336" y="-8.30469" font-family="Futura" font-size="11.00">include/fae/buffer.h</text>
</a>
</g>
<!-- Node2&#45;&gt;Node4 -->
<g id="edge8" class="edge"><title>Node2&#45;&gt;Node4</title>
<path fill="none" stroke="midnightblue" d="M445.926,-63.3184C419.384,-51.1688 382.337,-34.2106 358.758,-23.4175"/>
<polygon fill="midnightblue" stroke="midnightblue" points="444.636,-66.5769 455.185,-67.5566 447.549,-60.212 444.636,-66.5769"/>
</g>
<!-- Node5 -->
<g id="node10" class="node"><title>Node5</title>
<a xlink:href="device_8h.html" target="_top" xlink:title="include/fae/device.h">
<polygon fill="none" stroke="red" points="-0.22583,-0.695312 -0.22583,-23.3047 120.226,-23.3047 120.226,-0.695312 -0.22583,-0.695312"/>
<text text-anchor="middle" x="60" y="-8.30469" font-family="Futura" font-size="11.00">include/fae/device.h</text>
</a>
</g>
<!-- Node2&#45;&gt;Node5 -->
<g id="edge10" class="edge"><title>Node2&#45;&gt;Node5</title>
<path fill="none" stroke="midnightblue" d="M415.706,-68.4495C345.884,-57.7241 229.305,-39.7552 129,-24 126.244,-23.5671 123.426,-23.1231 120.58,-22.6737"/>
<polygon fill="midnightblue" stroke="midnightblue" points="415.246,-71.9197 425.661,-69.9782 416.309,-65.0008 415.246,-71.9197"/>
</g>
<!-- Node6 -->
<g id="node13" class="node"><title>Node6</title>
<a xlink:href="dynamic_8h.html" target="_top" xlink:title="include/fae/dynamic.h">
<polygon fill="none" stroke="red" points="412.876,-0.695312 412.876,-23.3047 543.124,-23.3047 543.124,-0.695312 412.876,-0.695312"/>
<text text-anchor="middle" x="478" y="-8.30469" font-family="Futura" font-size="11.00">include/fae/dynamic.h</text>
</a>
</g>
<!-- Node2&#45;&gt;Node6 -->
<g id="edge14" class="edge"><title>Node2&#45;&gt;Node6</title>
<path fill="none" stroke="midnightblue" d="M478,-57.3136C478,-46.1093 478,-32.7368 478,-23.6334"/>
<polygon fill="midnightblue" stroke="midnightblue" points="474.5,-57.5566 478,-67.5566 481.5,-57.5567 474.5,-57.5566"/>
</g>
<!-- Node7 -->
<g id="node15" class="node"><title>Node7</title>
<a xlink:href="error_8h.html" target="_top" xlink:title="include/fae/error.h">
<polygon fill="none" stroke="red" points="697.555,-0.695312 697.555,-23.3047 810.445,-23.3047 810.445,-0.695312 697.555,-0.695312"/>
<text text-anchor="middle" x="754" y="-8.30469" font-family="Futura" font-size="11.00">include/fae/error.h</text>
</a>
</g>
<!-- Node2&#45;&gt;Node7 -->
<g id="edge16" class="edge"><title>Node2&#45;&gt;Node7</title>
<path fill="none" stroke="midnightblue" d="M515.953,-64.932C522.285,-63.2266 528.797,-61.5392 535,-60 589.754,-46.414 652.977,-32.5032 697.476,-23.3776"/>
<polygon fill="midnightblue" stroke="midnightblue" points="514.933,-61.5823 506.219,-67.6078 516.789,-68.3319 514.933,-61.5823"/>
</g>
<!-- Node8 -->
<g id="node19" class="node"><title>Node8</title>
<a xlink:href="graph_8h.html" target="_top" xlink:title="include/fae/graph.h">
<polygon fill="none" stroke="red" points="560.894,-0.695312 560.894,-23.3047 679.106,-23.3047 679.106,-0.695312 560.894,-0.695312"/>
<text text-anchor="middle" x="620" y="-8.30469" font-family="Futura" font-size="11.00">include/fae/graph.h</text>
</a>
</g>
<!-- Node2&#45;&gt;Node8 -->
<g id="edge22" class="edge"><title>Node2&#45;&gt;Node8</title>
<path fill="none" stroke="midnightblue" d="M504.68,-63.1444C529.784,-50.9669 566.976,-34.0467 592.386,-23.3101"/>
<polygon fill="midnightblue" stroke="midnightblue" points="503.132,-60.0054 495.7,-67.5566 506.219,-66.288 503.132,-60.0054"/>
</g>
<!-- Node3&#45;&gt;Node2 -->
<g id="edge6" class="edge"><title>Node3&#45;&gt;Node2</title>
<path fill="none" stroke="midnightblue" d="M258.308,-25.5453C312.685,-37.7868 391.558,-56.1901 438.585,-67.6287"/>
<polygon fill="midnightblue" stroke="midnightblue" points="258.977,-22.1084 248.453,-23.3344 257.445,-28.9387 258.977,-22.1084"/>
</g>
<!-- Node5&#45;&gt;Node1 -->
<g id="edge12" class="edge"><title>Node5&#45;&gt;Node1</title>
<path fill="none" stroke="midnightblue" d="M108.607,-25.8837C207.191,-52.0145 428.92,-110.786 518.923,-134.642"/>
<polygon fill="midnightblue" stroke="midnightblue" points="109.459,-22.4887 98.8957,-23.3097 107.665,-29.2551 109.459,-22.4887"/>
</g>
<!-- Node7&#45;&gt;Node1 -->
<g id="edge20" class="edge"><title>Node7&#45;&gt;Node1</title>
<path fill="none" stroke="midnightblue" d="M694.411,-25.6182C646.343,-36.3187 585.382,-51.2792 577,-60 557.301,-80.4958 556.288,-116.729 557.14,-134.532"/>
<polygon fill="midnightblue" stroke="midnightblue" points="695.438,-28.9758 704.449,-23.4032 693.929,-22.1402 695.438,-28.9758"/>
</g>
<!-- Node7&#45;&gt;Node2 -->
<g id="edge18" class="edge"><title>Node7&#45;&gt;Node2</title>
<path fill="none" stroke="midnightblue" d="M701.823,-25.6016C661.15,-34.6748 603.476,-47.4755 553,-60 543.548,-62.3454 533.379,-65.0351 523.627,-67.6078"/>
<polygon fill="midnightblue" stroke="midnightblue" points="702.786,-28.9729 711.783,-23.3776 701.26,-22.1412 702.786,-28.9729"/>
</g>
<!-- Node8&#45;&gt;Node2 -->
<g id="edge24" class="edge"><title>Node8&#45;&gt;Node2</title>
<path fill="none" stroke="midnightblue" d="M593.078,-27.9731C568.081,-40.0914 531.249,-56.8484 505.93,-67.5566"/>
<polygon fill="midnightblue" stroke="midnightblue" points="594.92,-30.9679 602.352,-23.4175 591.833,-24.685 594.92,-30.9679"/>
</g>
</g>
</svg>
