<?xml version="1.0" encoding="UTF-8" standalone="no"?>
<!DOCTYPE svg PUBLIC "-//W3C//DTD SVG 1.1//EN"
 "http://www.w3.org/Graphics/SVG/1.1/DTD/svg11.dtd">
<!-- Generated by graphviz version 2.28.0 (20121015.0031)
 -->
<!-- Title: include/fa/midi.h Pages: 1 -->
<svg width="533pt" height="272pt"
 viewBox="0.00 0.00 533.00 272.00" xmlns="http://www.w3.org/2000/svg" xmlns:xlink="http://www.w3.org/1999/xlink">
<g id="graph1" class="graph" transform="scale(1 1) rotate(0) translate(4 268)">
<title>include/fa/midi.h</title>
<!-- Node1 -->
<g id="node1" class="node"><title>Node1</title>
<polygon fill="#bfbfbf" stroke="black" points="350.473,-240.695 350.473,-263.305 453.527,-263.305 453.527,-240.695 350.473,-240.695"/>
<text text-anchor="middle" x="402" y="-248.305" font-family="Futura" font-size="11.00">include/fa/midi.h</text>
</g>
<!-- Node2 -->
<g id="node3" class="node"><title>Node2</title>
<a xlink:href="list_8h.html" target="_top" xlink:title="fa/list.h">
<polygon fill="none" stroke="black" points="374.949,-180.695 374.949,-203.305 429.051,-203.305 429.051,-180.695 374.949,-180.695"/>
<text text-anchor="middle" x="402" y="-188.305" font-family="Futura" font-size="11.00">fa/list.h</text>
</a>
</g>
<!-- Node1&#45;&gt;Node2 -->
<g id="edge2" class="edge"><title>Node1&#45;&gt;Node2</title>
<path fill="none" stroke="midnightblue" d="M402,-240.631C402,-233.218 402,-222.989 402,-213.91"/>
<polygon fill="midnightblue" stroke="midnightblue" points="405.5,-213.672 402,-203.672 398.5,-213.672 405.5,-213.672"/>
</g>
<!-- Node7 -->
<g id="node13" class="node"><title>Node7</title>
<a xlink:href="error_8h.html" target="_top" xlink:title="fa/error.h">
<polygon fill="none" stroke="black" points="381.161,-60.6953 381.161,-83.3047 446.839,-83.3047 446.839,-60.6953 381.161,-60.6953"/>
<text text-anchor="middle" x="414" y="-68.3047" font-family="Futura" font-size="11.00">fa/error.h</text>
</a>
</g>
<!-- Node1&#45;&gt;Node7 -->
<g id="edge36" class="edge"><title>Node1&#45;&gt;Node7</title>
<path fill="none" stroke="midnightblue" d="M413.208,-240.655C421.847,-231.864 433.117,-218.407 438,-204 450.975,-165.723 435.042,-118.643 423.629,-92.6265"/>
<polygon fill="midnightblue" stroke="midnightblue" points="426.764,-91.0672 419.401,-83.4493 420.406,-93.9963 426.764,-91.0672"/>
</g>
<!-- Node9 -->
<g id="node19" class="node"><title>Node9</title>
<a xlink:href="pair_8h.html" target="_top" xlink:title="fa/pair.h">
<polygon fill="none" stroke="black" points="464.694,-60.6953 464.694,-83.3047 525.306,-83.3047 525.306,-60.6953 464.694,-60.6953"/>
<text text-anchor="middle" x="495" y="-68.3047" font-family="Futura" font-size="11.00">fa/pair.h</text>
</a>
</g>
<!-- Node1&#45;&gt;Node9 -->
<g id="edge30" class="edge"><title>Node1&#45;&gt;Node9</title>
<path fill="none" stroke="midnightblue" d="M417.724,-240.357C429.278,-231.783 444.55,-218.757 454,-204 476.478,-168.9 487.379,-120.613 492.031,-93.5426"/>
<polygon fill="midnightblue" stroke="midnightblue" points="495.489,-94.0786 493.611,-83.6516 488.577,-92.9741 495.489,-94.0786"/>
</g>
<!-- Node10 -->
<g id="node26" class="node"><title>Node10</title>
<a xlink:href="device_8h.html" target="_top" xlink:title="fa/device.h">
<polygon fill="none" stroke="black" points="245.38,-180.695 245.38,-203.305 318.62,-203.305 318.62,-180.695 245.38,-180.695"/>
<text text-anchor="middle" x="282" y="-188.305" font-family="Futura" font-size="11.00">fa/device.h</text>
</a>
</g>
<!-- Node1&#45;&gt;Node10 -->
<g id="edge32" class="edge"><title>Node1&#45;&gt;Node10</title>
<path fill="none" stroke="midnightblue" d="M380.546,-240.631C361.722,-231.532 334.119,-218.191 312.912,-207.941"/>
<polygon fill="midnightblue" stroke="midnightblue" points="314.199,-204.676 303.672,-203.475 311.153,-210.978 314.199,-204.676"/>
</g>
<!-- Node3 -->
<g id="node5" class="node"><title>Node3</title>
<a xlink:href="fa_2fa_8h.html" target="_top" xlink:title="fa.h">
<polygon fill="none" stroke="red" points="337.273,-120.695 337.273,-143.305 372.727,-143.305 372.727,-120.695 337.273,-120.695"/>
<text text-anchor="middle" x="355" y="-128.305" font-family="Futura" font-size="11.00">fa.h</text>
</a>
</g>
<!-- Node2&#45;&gt;Node3 -->
<g id="edge4" class="edge"><title>Node2&#45;&gt;Node3</title>
<path fill="none" stroke="midnightblue" d="M388.281,-180.631C380.443,-172.729 371.089,-161.628 364.112,-152.13"/>
<polygon fill="midnightblue" stroke="midnightblue" points="366.837,-149.916 358.278,-143.672 361.075,-153.891 366.837,-149.916"/>
</g>
<!-- Node3&#45;&gt;Node1 -->
<g id="edge28" class="edge"><title>Node3&#45;&gt;Node1</title>
<path fill="none" stroke="midnightblue" d="M355.025,-143.553C355.411,-157.823 357.377,-183.811 366,-204 370.435,-214.383 377.692,-224.508 384.532,-232.686"/>
<polygon fill="midnightblue" stroke="midnightblue" points="382.131,-235.255 391.375,-240.432 387.378,-230.62 382.131,-235.255"/>
</g>
<!-- Node3&#45;&gt;Node2 -->
<g id="edge26" class="edge"><title>Node3&#45;&gt;Node2</title>
<path fill="none" stroke="midnightblue" d="M369.018,-143.672C376.894,-151.654 386.237,-162.775 393.153,-172.231"/>
<polygon fill="midnightblue" stroke="midnightblue" points="390.371,-174.363 398.913,-180.631 396.144,-170.404 390.371,-174.363"/>
</g>
<!-- Node4 -->
<g id="node7" class="node"><title>Node4</title>
<polygon fill="none" stroke="#bfbfbf" points="160.937,-60.6953 160.937,-83.3047 235.063,-83.3047 235.063,-60.6953 160.937,-60.6953"/>
<text text-anchor="middle" x="198" y="-68.3047" font-family="Futura" font-size="11.00">fa/atomic.h</text>
</g>
<!-- Node3&#45;&gt;Node4 -->
<g id="edge6" class="edge"><title>Node3&#45;&gt;Node4</title>
<path fill="none" stroke="midnightblue" d="M336.99,-124.347C312.391,-115.259 267.685,-98.7435 235.612,-86.8947"/>
<polygon fill="midnightblue" stroke="midnightblue" points="236.693,-83.563 226.1,-83.3807 234.267,-90.1293 236.693,-83.563"/>
</g>
<!-- Node5 -->
<g id="node9" class="node"><title>Node5</title>
<polygon fill="none" stroke="#bfbfbf" points="252.648,-60.6953 252.648,-83.3047 363.352,-83.3047 363.352,-60.6953 252.648,-60.6953"/>
<text text-anchor="middle" x="308" y="-68.3047" font-family="Futura" font-size="11.00">fa/atomic/queue.h</text>
</g>
<!-- Node3&#45;&gt;Node5 -->
<g id="edge8" class="edge"><title>Node3&#45;&gt;Node5</title>
<path fill="none" stroke="midnightblue" d="M346.597,-120.631C340.062,-112.566 330.826,-101.168 323.027,-91.5444"/>
<polygon fill="midnightblue" stroke="midnightblue" points="325.663,-89.2377 316.648,-83.6719 320.224,-93.6448 325.663,-89.2377"/>
</g>
<!-- Node6 -->
<g id="node11" class="node"><title>Node6</title>
<polygon fill="none" stroke="#bfbfbf" points="-0.580078,-60.6953 -0.580078,-83.3047 104.58,-83.3047 104.58,-60.6953 -0.580078,-60.6953"/>
<text text-anchor="middle" x="52" y="-68.3047" font-family="Futura" font-size="11.00">fa/atomic/stack.h</text>
</g>
<!-- Node3&#45;&gt;Node6 -->
<g id="edge10" class="edge"><title>Node3&#45;&gt;Node6</title>
<path fill="none" stroke="midnightblue" d="M336.953,-127.546C294.149,-119.352 184.819,-98.4242 114.705,-85.0029"/>
<polygon fill="midnightblue" stroke="midnightblue" points="115.137,-81.5221 104.657,-83.0795 113.821,-88.3973 115.137,-81.5221"/>
</g>
<!-- Node3&#45;&gt;Node7 -->
<g id="edge12" class="edge"><title>Node3&#45;&gt;Node7</title>
<path fill="none" stroke="midnightblue" d="M360.232,-120.631C367.243,-112.24 379.139,-100.242 390.069,-90.3869"/>
<polygon fill="midnightblue" stroke="midnightblue" points="392.535,-92.8807 397.774,-83.6719 387.936,-87.6037 392.535,-92.8807"/>
</g>
<!-- Node3&#45;&gt;Node9 -->
<g id="edge20" class="edge"><title>Node3&#45;&gt;Node9</title>
<path fill="none" stroke="midnightblue" d="M372.952,-121.422C393.666,-112.081 427.987,-97.7624 455.04,-87.1158"/>
<polygon fill="midnightblue" stroke="midnightblue" points="456.592,-90.2674 464.639,-83.3755 454.05,-83.745 456.592,-90.2674"/>
</g>
<!-- Node7&#45;&gt;Node3 -->
<g id="edge14" class="edge"><title>Node7&#45;&gt;Node3</title>
<path fill="none" stroke="midnightblue" d="M408.514,-83.6719C401.387,-92.1477 389.445,-104.163 378.539,-113.966"/>
<polygon fill="midnightblue" stroke="midnightblue" points="376.119,-111.431 370.864,-120.631 380.709,-116.717 376.119,-111.431"/>
</g>
<!-- Node8 -->
<g id="node16" class="node"><title>Node8</title>
<a xlink:href="string_8h.html" target="_top" xlink:title="fa/string.h">
<polygon fill="none" stroke="black" points="238.87,-0.695312 238.87,-23.3047 307.13,-23.3047 307.13,-0.695312 238.87,-0.695312"/>
<text text-anchor="middle" x="273" y="-8.30469" font-family="Futura" font-size="11.00">fa/string.h</text>
</a>
</g>
<!-- Node7&#45;&gt;Node8 -->
<g id="edge16" class="edge"><title>Node7&#45;&gt;Node8</title>
<path fill="none" stroke="midnightblue" d="M388.792,-60.6308C366.275,-51.3683 333.068,-37.7086 307.982,-27.3897"/>
<polygon fill="midnightblue" stroke="midnightblue" points="309.045,-24.0424 298.465,-23.475 306.382,-30.5161 309.045,-24.0424"/>
</g>
<!-- Node8&#45;&gt;Node3 -->
<g id="edge18" class="edge"><title>Node8&#45;&gt;Node3</title>
<path fill="none" stroke="midnightblue" d="M238.633,-19.3054C194.059,-28.9935 125.022,-50.0621 152,-84 173.549,-111.108 276.403,-123.957 326.901,-128.713"/>
<polygon fill="midnightblue" stroke="midnightblue" points="326.845,-132.222 337.118,-129.632 327.472,-125.25 326.845,-132.222"/>
</g>
<!-- Node9&#45;&gt;Node2 -->
<g id="edge24" class="edge"><title>Node9&#45;&gt;Node2</title>
<path fill="none" stroke="midnightblue" d="M486.632,-83.6179C470.793,-103.714 436.26,-147.53 416.551,-172.537"/>
<polygon fill="midnightblue" stroke="midnightblue" points="413.694,-170.508 410.253,-180.528 419.192,-174.841 413.694,-170.508"/>
</g>
<!-- Node9&#45;&gt;Node3 -->
<g id="edge22" class="edge"><title>Node9&#45;&gt;Node3</title>
<path fill="none" stroke="midnightblue" d="M475.065,-83.4687C450.642,-94.4012 409.577,-111.38 382.271,-121.81"/>
<polygon fill="midnightblue" stroke="midnightblue" points="381.021,-118.541 372.89,-125.333 383.482,-125.094 381.021,-118.541"/>
</g>
<!-- Node10&#45;&gt;Node3 -->
<g id="edge34" class="edge"><title>Node10&#45;&gt;Node3</title>
<path fill="none" stroke="midnightblue" d="M295.051,-180.631C305.714,-172.159 321.006,-160.009 333.477,-150.1"/>
<polygon fill="midnightblue" stroke="midnightblue" points="335.916,-152.633 341.568,-143.672 331.561,-147.152 335.916,-152.633"/>
</g>
</g>
</svg>
