<?xml version="1.0" encoding="UTF-8" standalone="no"?>
<!DOCTYPE svg PUBLIC "-//W3C//DTD SVG 1.1//EN"
 "http://www.w3.org/Graphics/SVG/1.1/DTD/svg11.dtd">
<!-- Generated by graphviz version 2.28.0 (20121015.0031)
 -->
<!-- Title: src/fae/midi_msg.c Pages: 1 -->
<svg width="624pt" height="212pt"
 viewBox="0.00 0.00 624.00 212.00" xmlns="http://www.w3.org/2000/svg" xmlns:xlink="http://www.w3.org/1999/xlink">
<g id="graph1" class="graph" transform="scale(1 1) rotate(0) translate(4 208)">
<title>src/fae/midi_msg.c</title>
<!-- Node1 -->
<g id="node1" class="node"><title>Node1</title>
<polygon fill="#bfbfbf" stroke="black" points="173.692,-180.695 173.692,-203.305 286.308,-203.305 286.308,-180.695 173.692,-180.695"/>
<text text-anchor="middle" x="230" y="-188.305" font-family="Futura" font-size="11.00">src/fae/midi_msg.c</text>
</g>
<!-- Node2 -->
<g id="node3" class="node"><title>Node2</title>
<a xlink:href="message_8h.html" target="_top" xlink:title="fae/midi/message.h">
<polygon fill="none" stroke="black" points="45.6541,-120.695 45.6541,-143.305 162.346,-143.305 162.346,-120.695 45.6541,-120.695"/>
<text text-anchor="middle" x="104" y="-128.305" font-family="Futura" font-size="11.00">fae/midi/message.h</text>
</a>
</g>
<!-- Node1&#45;&gt;Node2 -->
<g id="edge2" class="edge"><title>Node1&#45;&gt;Node2</title>
<path fill="none" stroke="midnightblue" d="M207.474,-180.631C187.53,-171.45 158.202,-157.95 135.857,-147.664"/>
<polygon fill="midnightblue" stroke="midnightblue" points="137.303,-144.477 126.756,-143.475 134.376,-150.836 137.303,-144.477"/>
</g>
<!-- Node6 -->
<g id="node13" class="node"><title>Node6</title>
<a xlink:href="util_8h.html" target="_top" xlink:title="fae/util.h">
<polygon fill="none" stroke="red" points="293.141,-120.695 293.141,-143.305 354.859,-143.305 354.859,-120.695 293.141,-120.695"/>
<text text-anchor="middle" x="324" y="-128.305" font-family="Futura" font-size="11.00">fae/util.h</text>
</a>
</g>
<!-- Node1&#45;&gt;Node6 -->
<g id="edge14" class="edge"><title>Node1&#45;&gt;Node6</title>
<path fill="none" stroke="midnightblue" d="M246.805,-180.631C261.153,-171.778 282.01,-158.909 298.428,-148.778"/>
<polygon fill="midnightblue" stroke="midnightblue" points="300.351,-151.705 307.023,-143.475 296.675,-145.748 300.351,-151.705"/>
</g>
<!-- Node3 -->
<g id="node5" class="node"><title>Node3</title>
<polygon fill="none" stroke="#bfbfbf" points="-0.652588,-0.695312 -0.652588,-23.3047 60.6526,-23.3047 60.6526,-0.695312 -0.652588,-0.695312"/>
<text text-anchor="middle" x="30" y="-8.30469" font-family="Futura" font-size="11.00">fae/std.h</text>
</g>
<!-- Node2&#45;&gt;Node3 -->
<g id="edge4" class="edge"><title>Node2&#45;&gt;Node3</title>
<path fill="none" stroke="midnightblue" d="M70.8619,-120.577C53.6191,-113.277 34.0816,-101.616 24,-84 15.1989,-68.6218 18.1247,-48.2255 22.41,-33.2406"/>
<polygon fill="midnightblue" stroke="midnightblue" points="25.8352,-34.0275 25.6223,-23.4348 19.183,-31.8482 25.8352,-34.0275"/>
</g>
<!-- Node4 -->
<g id="node7" class="node"><title>Node4</title>
<a xlink:href="pair_8h.html" target="_top" xlink:title="fae/pair.h">
<polygon fill="none" stroke="red" points="90.6511,-0.695312 90.6511,-23.3047 157.349,-23.3047 157.349,-0.695312 90.6511,-0.695312"/>
<text text-anchor="middle" x="124" y="-8.30469" font-family="Futura" font-size="11.00">fae/pair.h</text>
</a>
</g>
<!-- Node2&#45;&gt;Node4 -->
<g id="edge6" class="edge"><title>Node2&#45;&gt;Node4</title>
<path fill="none" stroke="midnightblue" d="M107.864,-120.328C111.111,-110.901 115.595,-96.7159 118,-84 121.156,-67.3117 122.653,-48.1018 123.362,-33.8751"/>
<polygon fill="midnightblue" stroke="midnightblue" points="126.867,-33.8119 123.779,-23.6773 119.873,-33.526 126.867,-33.8119"/>
</g>
<!-- Node5 -->
<g id="node9" class="node"><title>Node5</title>
<a xlink:href="buffer_8h.html" target="_top" xlink:title="fae/buffer.h">
<polygon fill="none" stroke="red" points="32.7473,-60.6953 32.7473,-83.3047 109.253,-83.3047 109.253,-60.6953 32.7473,-60.6953"/>
<text text-anchor="middle" x="71" y="-68.3047" font-family="Futura" font-size="11.00">fae/buffer.h</text>
</a>
</g>
<!-- Node2&#45;&gt;Node5 -->
<g id="edge8" class="edge"><title>Node2&#45;&gt;Node5</title>
<path fill="none" stroke="midnightblue" d="M98.1003,-120.631C93.6509,-112.811 87.4182,-101.856 82.0516,-92.4241"/>
<polygon fill="midnightblue" stroke="midnightblue" points="85.0593,-90.6327 77.0719,-83.6719 78.9751,-94.0944 85.0593,-90.6327"/>
</g>
<!-- Node5&#45;&gt;Node3 -->
<g id="edge10" class="edge"><title>Node5&#45;&gt;Node3</title>
<path fill="none" stroke="midnightblue" d="M63.67,-60.6308C58.0844,-52.7292 50.2368,-41.6276 43.5228,-32.1298"/>
<polygon fill="midnightblue" stroke="midnightblue" points="46.1743,-29.8173 37.5439,-23.6719 40.4583,-33.858 46.1743,-29.8173"/>
</g>
<!-- Node5&#45;&gt;Node4 -->
<g id="edge12" class="edge"><title>Node5&#45;&gt;Node4</title>
<path fill="none" stroke="midnightblue" d="M80.4753,-60.6308C87.919,-52.4848 98.4706,-40.9379 107.32,-31.2533"/>
<polygon fill="midnightblue" stroke="midnightblue" points="110.086,-33.415 114.248,-23.6719 104.919,-28.693 110.086,-33.415"/>
</g>
<!-- Node7 -->
<g id="node15" class="node"><title>Node7</title>
<a xlink:href="arch_8h.html" target="_top" xlink:title="fae/util/arch.h">
<polygon fill="none" stroke="black" points="165.205,-60.6953 165.205,-83.3047 254.795,-83.3047 254.795,-60.6953 165.205,-60.6953"/>
<text text-anchor="middle" x="210" y="-68.3047" font-family="Futura" font-size="11.00">fae/util/arch.h</text>
</a>
</g>
<!-- Node6&#45;&gt;Node7 -->
<g id="edge16" class="edge"><title>Node6&#45;&gt;Node7</title>
<path fill="none" stroke="midnightblue" d="M303.619,-120.631C285.816,-111.573 259.749,-98.3109 239.639,-88.0794"/>
<polygon fill="midnightblue" stroke="midnightblue" points="241.089,-84.8902 230.589,-83.475 237.915,-91.1291 241.089,-84.8902"/>
</g>
<!-- Node8 -->
<g id="node17" class="node"><title>Node8</title>
<a xlink:href="alignof_8h.html" target="_top" xlink:title="fae/util/alignof.h">
<polygon fill="none" stroke="black" points="273.007,-60.6953 273.007,-83.3047 374.993,-83.3047 374.993,-60.6953 273.007,-60.6953"/>
<text text-anchor="middle" x="324" y="-68.3047" font-family="Futura" font-size="11.00">fae/util/alignof.h</text>
</a>
</g>
<!-- Node6&#45;&gt;Node8 -->
<g id="edge18" class="edge"><title>Node6&#45;&gt;Node8</title>
<path fill="none" stroke="midnightblue" d="M324,-120.631C324,-113.218 324,-102.989 324,-93.9096"/>
<polygon fill="midnightblue" stroke="midnightblue" points="327.5,-93.6718 324,-83.6719 320.5,-93.6719 327.5,-93.6718"/>
</g>
<!-- Node9 -->
<g id="node19" class="node"><title>Node9</title>
<a xlink:href="minmax_8h.html" target="_top" xlink:title="fae/util/minmax.h">
<polygon fill="none" stroke="red" points="392.837,-60.6953 392.837,-83.3047 499.163,-83.3047 499.163,-60.6953 392.837,-60.6953"/>
<text text-anchor="middle" x="446" y="-68.3047" font-family="Futura" font-size="11.00">fae/util/minmax.h</text>
</a>
</g>
<!-- Node6&#45;&gt;Node9 -->
<g id="edge20" class="edge"><title>Node6&#45;&gt;Node9</title>
<path fill="none" stroke="midnightblue" d="M345.811,-120.631C365.036,-111.491 393.265,-98.0705 414.864,-87.8023"/>
<polygon fill="midnightblue" stroke="midnightblue" points="416.438,-90.9296 423.966,-83.475 413.432,-84.6077 416.438,-90.9296"/>
</g>
<!-- Node10 -->
<g id="node21" class="node"><title>Node10</title>
<a xlink:href="literals_8h.html" target="_top" xlink:title="fae/util/literals.h">
<polygon fill="none" stroke="red" points="517.038,-60.6953 517.038,-83.3047 616.962,-83.3047 616.962,-60.6953 517.038,-60.6953"/>
<text text-anchor="middle" x="567" y="-68.3047" font-family="Futura" font-size="11.00">fae/util/literals.h</text>
</a>
</g>
<!-- Node6&#45;&gt;Node10 -->
<g id="edge22" class="edge"><title>Node6&#45;&gt;Node10</title>
<path fill="none" stroke="midnightblue" d="M355.271,-123.536C395.241,-113.996 465.058,-97.3318 513.542,-85.7596"/>
<polygon fill="midnightblue" stroke="midnightblue" points="514.631,-89.0979 523.546,-83.3719 513.006,-82.2892 514.631,-89.0979"/>
</g>
</g>
</svg>
