<?xml version="1.0" encoding="UTF-8" standalone="no"?>
<!DOCTYPE svg PUBLIC "-//W3C//DTD SVG 1.1//EN"
 "http://www.w3.org/Graphics/SVG/1.1/DTD/svg11.dtd">
<!-- Generated by graphviz version 2.28.0 (20121015.0031)
 -->
<!-- Title: src/fae/midi.c Pages: 1 -->
<svg width="585pt" height="212pt"
 viewBox="0.00 0.00 584.73 212.00" xmlns="http://www.w3.org/2000/svg" xmlns:xlink="http://www.w3.org/1999/xlink">
<g id="graph1" class="graph" transform="scale(1 1) rotate(0) translate(4 208)">
<title>src/fae/midi.c</title>
<!-- Node1 -->
<g id="node1" class="node"><title>Node1</title>
<polygon fill="#bfbfbf" stroke="black" points="295.405,-180.695 295.405,-203.305 382.051,-203.305 382.051,-180.695 295.405,-180.695"/>
<text text-anchor="middle" x="338.728" y="-188.305" font-family="Futura" font-size="11.00">src/fae/midi.c</text>
</g>
<!-- Node2 -->
<g id="node3" class="node"><title>Node2</title>
<a xlink:href="midi_8h.html" target="_top" xlink:title="fae/midi.h">
<polygon fill="none" stroke="red" points="96.7209,-120.695 96.7209,-143.305 164.735,-143.305 164.735,-120.695 96.7209,-120.695"/>
<text text-anchor="middle" x="130.728" y="-128.305" font-family="Futura" font-size="11.00">fae/midi.h</text>
</a>
</g>
<!-- Node1&#45;&gt;Node2 -->
<g id="edge2" class="edge"><title>Node1&#45;&gt;Node2</title>
<path fill="none" stroke="midnightblue" d="M301.541,-180.631C265.929,-170.7 212.191,-155.716 174.523,-145.212"/>
<polygon fill="midnightblue" stroke="midnightblue" points="175.407,-141.825 164.834,-142.511 173.527,-148.568 175.407,-141.825"/>
</g>
<!-- Node3 -->
<g id="node5" class="node"><title>Node3</title>
<a xlink:href="list_8h.html" target="_top" xlink:title="fae/list.h">
<polygon fill="none" stroke="red" points="206.634,-0.695312 206.634,-23.3047 266.822,-23.3047 266.822,-0.695312 206.634,-0.695312"/>
<text text-anchor="middle" x="236.728" y="-8.30469" font-family="Futura" font-size="11.00">fae/list.h</text>
</a>
</g>
<!-- Node1&#45;&gt;Node3 -->
<g id="edge18" class="edge"><title>Node1&#45;&gt;Node3</title>
<path fill="none" stroke="midnightblue" d="M335.182,-180.604C327.121,-157.708 305.983,-101.656 278.728,-60 271.917,-49.591 262.874,-39.1591 254.924,-30.777"/>
<polygon fill="midnightblue" stroke="midnightblue" points="257.239,-28.1385 247.744,-23.4362 252.234,-33.0328 257.239,-28.1385"/>
</g>
<!-- Node7 -->
<g id="node14" class="node"><title>Node7</title>
<a xlink:href="midi__msg_8h.html" target="_top" xlink:title="fae/midi_msg.h">
<polygon fill="none" stroke="red" points="182.736,-120.695 182.736,-143.305 276.719,-143.305 276.719,-120.695 182.736,-120.695"/>
<text text-anchor="middle" x="229.728" y="-128.305" font-family="Futura" font-size="11.00">fae/midi_msg.h</text>
</a>
</g>
<!-- Node1&#45;&gt;Node7 -->
<g id="edge14" class="edge"><title>Node1&#45;&gt;Node7</title>
<path fill="none" stroke="midnightblue" d="M319.241,-180.631C302.296,-171.614 277.52,-158.431 258.328,-148.218"/>
<polygon fill="midnightblue" stroke="midnightblue" points="259.886,-145.083 249.414,-143.475 256.597,-151.262 259.886,-145.083"/>
</g>
<!-- Node8 -->
<g id="node18" class="node"><title>Node8</title>
<a xlink:href="thread_8h.html" target="_top" xlink:title="fae/thread.h">
<polygon fill="none" stroke="red" points="332.821,-120.695 332.821,-143.305 412.635,-143.305 412.635,-120.695 332.821,-120.695"/>
<text text-anchor="middle" x="372.728" y="-128.305" font-family="Futura" font-size="11.00">fae/thread.h</text>
</a>
</g>
<!-- Node1&#45;&gt;Node8 -->
<g id="edge20" class="edge"><title>Node1&#45;&gt;Node8</title>
<path fill="none" stroke="midnightblue" d="M344.806,-180.631C349.39,-172.811 355.812,-161.856 361.341,-152.424"/>
<polygon fill="midnightblue" stroke="midnightblue" points="364.434,-154.069 366.472,-143.672 358.395,-150.529 364.434,-154.069"/>
</g>
<!-- Node9 -->
<g id="node20" class="node"><title>Node9</title>
<a xlink:href="util_8h.html" target="_top" xlink:title="fae/util.h">
<polygon fill="none" stroke="red" points="430.868,-120.695 430.868,-143.305 492.587,-143.305 492.587,-120.695 430.868,-120.695"/>
<text text-anchor="middle" x="461.728" y="-128.305" font-family="Futura" font-size="11.00">fae/util.h</text>
</a>
</g>
<!-- Node1&#45;&gt;Node9 -->
<g id="edge22" class="edge"><title>Node1&#45;&gt;Node9</title>
<path fill="none" stroke="midnightblue" d="M360.718,-180.631C380.1,-171.491 408.561,-158.071 430.337,-147.802"/>
<polygon fill="midnightblue" stroke="midnightblue" points="431.961,-150.906 439.513,-143.475 428.976,-144.574 431.961,-150.906"/>
</g>
<!-- Node10 -->
<g id="node22" class="node"><title>Node10</title>
<polygon fill="none" stroke="#bfbfbf" points="510.263,-120.695 510.263,-143.305 577.192,-143.305 577.192,-120.695 510.263,-120.695"/>
<text text-anchor="middle" x="543.728" y="-128.305" font-family="Futura" font-size="11.00">portmidi.h</text>
</g>
<!-- Node1&#45;&gt;Node10 -->
<g id="edge24" class="edge"><title>Node1&#45;&gt;Node10</title>
<path fill="none" stroke="midnightblue" d="M375.378,-180.631C410.327,-170.743 462.989,-155.843 500.089,-145.347"/>
<polygon fill="midnightblue" stroke="midnightblue" points="501.443,-148.601 510.113,-142.511 499.538,-141.865 501.443,-148.601"/>
</g>
<!-- Node2&#45;&gt;Node3 -->
<g id="edge4" class="edge"><title>Node2&#45;&gt;Node3</title>
<path fill="none" stroke="midnightblue" d="M96.583,-125.01C50.8621,-115.523 -21.4309,-94.4946 6.7277,-60 30.1898,-31.2587 136.616,-19.6261 196.13,-15.3044"/>
<polygon fill="midnightblue" stroke="midnightblue" points="196.579,-18.7818 206.314,-14.6028 196.097,-11.7984 196.579,-18.7818"/>
</g>
<!-- Node4 -->
<g id="node7" class="node"><title>Node4</title>
<a xlink:href="pair_8h.html" target="_top" xlink:title="fae/pair.h">
<polygon fill="none" stroke="red" points="203.379,-60.6953 203.379,-83.3047 270.077,-83.3047 270.077,-60.6953 203.379,-60.6953"/>
<text text-anchor="middle" x="236.728" y="-68.3047" font-family="Futura" font-size="11.00">fae/pair.h</text>
</a>
</g>
<!-- Node2&#45;&gt;Node4 -->
<g id="edge6" class="edge"><title>Node2&#45;&gt;Node4</title>
<path fill="none" stroke="midnightblue" d="M149.678,-120.631C166.082,-111.655 190.032,-98.5506 208.66,-88.3579"/>
<polygon fill="midnightblue" stroke="midnightblue" points="210.491,-91.3456 217.584,-83.475 207.131,-85.2048 210.491,-91.3456"/>
</g>
<!-- Node5 -->
<g id="node10" class="node"><title>Node5</title>
<a xlink:href="device_8h.html" target="_top" xlink:title="fae/device.h">
<polygon fill="none" stroke="red" points="16.0651,-60.6953 16.0651,-83.3047 95.3903,-83.3047 95.3903,-60.6953 16.0651,-60.6953"/>
<text text-anchor="middle" x="55.7277" y="-68.3047" font-family="Futura" font-size="11.00">fae/device.h</text>
</a>
</g>
<!-- Node2&#45;&gt;Node5 -->
<g id="edge10" class="edge"><title>Node2&#45;&gt;Node5</title>
<path fill="none" stroke="midnightblue" d="M117.319,-120.631C106.19,-112.024 90.151,-99.6207 77.2304,-89.6288"/>
<polygon fill="midnightblue" stroke="midnightblue" points="79.3247,-86.8238 69.273,-83.475 75.0424,-92.3612 79.3247,-86.8238"/>
</g>
<!-- Node6 -->
<g id="node12" class="node"><title>Node6</title>
<a xlink:href="error_8h.html" target="_top" xlink:title="fae/error.h">
<polygon fill="none" stroke="red" points="113.846,-60.6953 113.846,-83.3047 185.609,-83.3047 185.609,-60.6953 113.846,-60.6953"/>
<text text-anchor="middle" x="149.728" y="-68.3047" font-family="Futura" font-size="11.00">fae/error.h</text>
</a>
</g>
<!-- Node2&#45;&gt;Node6 -->
<g id="edge12" class="edge"><title>Node2&#45;&gt;Node6</title>
<path fill="none" stroke="midnightblue" d="M134.125,-120.631C136.606,-113.055 140.052,-102.538 143.074,-93.3126"/>
<polygon fill="midnightblue" stroke="midnightblue" points="146.445,-94.2646 146.232,-83.6719 139.793,-92.0854 146.445,-94.2646"/>
</g>
<!-- Node4&#45;&gt;Node3 -->
<g id="edge8" class="edge"><title>Node4&#45;&gt;Node3</title>
<path fill="none" stroke="midnightblue" d="M236.728,-60.6308C236.728,-53.218 236.728,-42.9888 236.728,-33.9096"/>
<polygon fill="midnightblue" stroke="midnightblue" points="240.228,-33.6718 236.728,-23.6719 233.228,-33.6719 240.228,-33.6718"/>
</g>
<!-- Node7&#45;&gt;Node4 -->
<g id="edge16" class="edge"><title>Node7&#45;&gt;Node4</title>
<path fill="none" stroke="midnightblue" d="M230.979,-120.631C231.884,-113.137 233.136,-102.764 234.24,-93.6107"/>
<polygon fill="midnightblue" stroke="midnightblue" points="237.716,-94.0192 235.44,-83.6719 230.767,-93.1804 237.716,-94.0192"/>
</g>
</g>
</svg>
