<?xml version="1.0" encoding="UTF-8" standalone="no"?>
<!DOCTYPE svg PUBLIC "-//W3C//DTD SVG 1.1//EN"
 "http://www.w3.org/Graphics/SVG/1.1/DTD/svg11.dtd">
<!-- Generated by graphviz version 2.28.0 (20121015.0031)
 -->
<!-- Title: include/fae/midi_msg.h Pages: 1 -->
<svg width="368pt" height="452pt"
 viewBox="0.00 0.00 368.49 452.00" xmlns="http://www.w3.org/2000/svg" xmlns:xlink="http://www.w3.org/1999/xlink">
<g id="graph1" class="graph" transform="scale(1 1) rotate(0) translate(4 448)">
<title>include/fae/midi_msg.h</title>
<!-- Node1 -->
<g id="node1" class="node"><title>Node1</title>
<polygon fill="#bfbfbf" stroke="black" points="185.445,-420.695 185.445,-443.305 320.555,-443.305 320.555,-420.695 185.445,-420.695"/>
<text text-anchor="middle" x="253" y="-428.305" font-family="Futura" font-size="11.00">include/fae/midi_msg.h</text>
</g>
<!-- Node2 -->
<g id="node3" class="node"><title>Node2</title>
<polygon fill="none" stroke="#bfbfbf" points="7.34741,-0.695312 7.34741,-23.3047 68.6526,-23.3047 68.6526,-0.695312 7.34741,-0.695312"/>
<text text-anchor="middle" x="38" y="-8.30469" font-family="Futura" font-size="11.00">fae/std.h</text>
</g>
<!-- Node1&#45;&gt;Node2 -->
<g id="edge2" class="edge"><title>Node1&#45;&gt;Node2</title>
<path fill="none" stroke="midnightblue" d="M185.201,-427.758C110.259,-420.097 0,-394.908 0,-313 0,-313 0,-313 0,-131 0,-94.8167 16.3888,-55.2666 27.6407,-32.3771"/>
<polygon fill="midnightblue" stroke="midnightblue" points="30.8062,-33.8737 32.2286,-23.3748 24.5694,-30.6952 30.8062,-33.8737"/>
</g>
<!-- Node3 -->
<g id="node5" class="node"><title>Node3</title>
<a xlink:href="pair_8h.html" target="_top" xlink:title="fae/pair.h">
<polygon fill="none" stroke="black" points="233.651,-240.695 233.651,-263.305 300.349,-263.305 300.349,-240.695 233.651,-240.695"/>
<text text-anchor="middle" x="267" y="-248.305" font-family="Futura" font-size="11.00">fae/pair.h</text>
</a>
</g>
<!-- Node1&#45;&gt;Node3 -->
<g id="edge4" class="edge"><title>Node1&#45;&gt;Node3</title>
<path fill="none" stroke="midnightblue" d="M254.669,-420.405C257.603,-401.231 263.602,-359.474 266,-324 267.141,-307.113 267.346,-287.918 267.291,-273.747"/>
<polygon fill="midnightblue" stroke="midnightblue" points="270.789,-273.569 267.203,-263.6 263.79,-273.63 270.789,-273.569"/>
</g>
<!-- Node8 -->
<g id="node19" class="node"><title>Node8</title>
<a xlink:href="buffer_8h.html" target="_top" xlink:title="fae/buffer.h">
<polygon fill="none" stroke="black" points="133.747,-360.695 133.747,-383.305 210.253,-383.305 210.253,-360.695 133.747,-360.695"/>
<text text-anchor="middle" x="172" y="-368.305" font-family="Futura" font-size="11.00">fae/buffer.h</text>
</a>
</g>
<!-- Node1&#45;&gt;Node8 -->
<g id="edge22" class="edge"><title>Node1&#45;&gt;Node8</title>
<path fill="none" stroke="midnightblue" d="M238.519,-420.631C226.385,-411.942 208.847,-399.384 194.825,-389.344"/>
<polygon fill="midnightblue" stroke="midnightblue" points="196.797,-386.451 186.629,-383.475 192.722,-392.143 196.797,-386.451"/>
</g>
<!-- Node4 -->
<g id="node7" class="node"><title>Node4</title>
<a xlink:href="fae_2fae_8h.html" target="_top" xlink:title="fae.h">
<polygon fill="none" stroke="red" points="220.23,-120.695 220.23,-143.305 261.77,-143.305 261.77,-120.695 220.23,-120.695"/>
<text text-anchor="middle" x="241" y="-128.305" font-family="Futura" font-size="11.00">fae.h</text>
</a>
</g>
<!-- Node3&#45;&gt;Node4 -->
<g id="edge6" class="edge"><title>Node3&#45;&gt;Node4</title>
<path fill="none" stroke="midnightblue" d="M264.693,-240.528C260.406,-221.071 251.141,-179.023 245.551,-153.656"/>
<polygon fill="midnightblue" stroke="midnightblue" points="248.909,-152.63 243.34,-143.618 242.073,-154.137 248.909,-152.63"/>
</g>
<!-- Node7 -->
<g id="node16" class="node"><title>Node7</title>
<a xlink:href="list_8h.html" target="_top" xlink:title="fae/list.h">
<polygon fill="none" stroke="black" points="271.906,-180.695 271.906,-203.305 332.094,-203.305 332.094,-180.695 271.906,-180.695"/>
<text text-anchor="middle" x="302" y="-188.305" font-family="Futura" font-size="11.00">fae/list.h</text>
</a>
</g>
<!-- Node3&#45;&gt;Node7 -->
<g id="edge18" class="edge"><title>Node3&#45;&gt;Node7</title>
<path fill="none" stroke="midnightblue" d="M273.257,-240.631C277.976,-232.811 284.587,-221.856 290.279,-212.424"/>
<polygon fill="midnightblue" stroke="midnightblue" points="293.39,-214.042 295.56,-203.672 287.397,-210.425 293.39,-214.042"/>
</g>
<!-- Node4&#45;&gt;Node1 -->
<g id="edge16" class="edge"><title>Node4&#45;&gt;Node1</title>
<path fill="none" stroke="midnightblue" d="M261.814,-137.285C284.589,-143.062 320.572,-155.572 341,-180 361.955,-205.059 360,-218.334 360,-251 360,-313 360,-313 360,-313 360,-359.564 313.711,-395.923 282.024,-415.357"/>
<polygon fill="midnightblue" stroke="midnightblue" points="279.957,-412.513 273.126,-420.611 283.516,-418.54 279.957,-412.513"/>
</g>
<!-- Node5 -->
<g id="node9" class="node"><title>Node5</title>
<a xlink:href="atomic_8h.html" target="_top" xlink:title="fae/atomic.h">
<polygon fill="none" stroke="black" points="200.894,-60.6953 200.894,-83.3047 281.106,-83.3047 281.106,-60.6953 200.894,-60.6953"/>
<text text-anchor="middle" x="241" y="-68.3047" font-family="Futura" font-size="11.00">fae/atomic.h</text>
</a>
</g>
<!-- Node4&#45;&gt;Node5 -->
<g id="edge8" class="edge"><title>Node4&#45;&gt;Node5</title>
<path fill="none" stroke="midnightblue" d="M235.684,-120.631C234.323,-113.137 233.931,-102.764 234.508,-93.6107"/>
<polygon fill="midnightblue" stroke="midnightblue" points="237.986,-94.0015 235.63,-83.6719 231.03,-93.2159 237.986,-94.0015"/>
</g>
<!-- Node6 -->
<g id="node13" class="node"><title>Node6</title>
<polygon fill="none" stroke="#bfbfbf" points="65.6057,-60.6953 65.6057,-83.3047 182.394,-83.3047 182.394,-60.6953 65.6057,-60.6953"/>
<text text-anchor="middle" x="124" y="-68.3047" font-family="Futura" font-size="11.00">fae/atomic/queue.h</text>
</g>
<!-- Node4&#45;&gt;Node6 -->
<g id="edge14" class="edge"><title>Node4&#45;&gt;Node6</title>
<path fill="none" stroke="midnightblue" d="M220.083,-120.631C201.729,-111.532 174.816,-98.1908 154.139,-87.9407"/>
<polygon fill="midnightblue" stroke="midnightblue" points="155.645,-84.7807 145.131,-83.475 152.536,-91.0524 155.645,-84.7807"/>
</g>
<!-- Node5&#45;&gt;Node2 -->
<g id="edge12" class="edge"><title>Node5&#45;&gt;Node2</title>
<path fill="none" stroke="midnightblue" d="M204.708,-60.6308C169.265,-50.5044 115.427,-35.1221 78.5844,-24.5955"/>
<polygon fill="midnightblue" stroke="midnightblue" points="79.2497,-21.1456 68.6729,-21.7637 77.3266,-27.8763 79.2497,-21.1456"/>
</g>
<!-- Node5&#45;&gt;Node4 -->
<g id="edge10" class="edge"><title>Node5&#45;&gt;Node4</title>
<path fill="none" stroke="midnightblue" d="M246.37,-83.6719C247.691,-91.1602 248.064,-101.411 247.488,-110.459"/>
<polygon fill="midnightblue" stroke="midnightblue" points="243.984,-110.296 246.316,-120.631 250.938,-111.097 243.984,-110.296"/>
</g>
<!-- Node7&#45;&gt;Node4 -->
<g id="edge20" class="edge"><title>Node7&#45;&gt;Node4</title>
<path fill="none" stroke="midnightblue" d="M291.094,-180.631C282.356,-172.322 269.896,-160.475 259.589,-150.675"/>
<polygon fill="midnightblue" stroke="midnightblue" points="261.883,-148.026 252.224,-143.672 257.059,-153.099 261.883,-148.026"/>
</g>
<!-- Node8&#45;&gt;Node2 -->
<g id="edge26" class="edge"><title>Node8&#45;&gt;Node2</title>
<path fill="none" stroke="midnightblue" d="M143.254,-360.592C103.88,-344.268 38,-308.642 38,-253 38,-253 38,-253 38,-131 38,-96.8458 38,-57.1309 38,-33.5836"/>
<polygon fill="midnightblue" stroke="midnightblue" points="41.5001,-33.4179 38,-23.4179 34.5001,-33.418 41.5001,-33.4179"/>
</g>
<!-- Node8&#45;&gt;Node3 -->
<g id="edge28" class="edge"><title>Node8&#45;&gt;Node3</title>
<path fill="none" stroke="midnightblue" d="M197.319,-360.593C213.43,-352.756 233.535,-340.524 246,-324 257.088,-309.301 262.342,-288.824 264.82,-273.636"/>
<polygon fill="midnightblue" stroke="midnightblue" points="268.295,-274.051 266.177,-263.67 261.36,-273.106 268.295,-274.051"/>
</g>
<!-- Node8&#45;&gt;Node4 -->
<g id="edge24" class="edge"><title>Node8&#45;&gt;Node4</title>
<path fill="none" stroke="midnightblue" d="M157.578,-360.453C129.566,-338.601 72.4511,-286.531 95,-240 118.362,-191.791 175.352,-160.34 210.823,-144.706"/>
<polygon fill="midnightblue" stroke="midnightblue" points="212.378,-147.848 220.212,-140.715 209.64,-141.406 212.378,-147.848"/>
</g>
<!-- Node9 -->
<g id="node24" class="node"><title>Node9</title>
<a xlink:href="string_8h.html" target="_top" xlink:title="fae/string.h">
<polygon fill="none" stroke="black" points="103.827,-240.695 103.827,-263.305 178.173,-263.305 178.173,-240.695 103.827,-240.695"/>
<text text-anchor="middle" x="141" y="-248.305" font-family="Futura" font-size="11.00">fae/string.h</text>
</a>
</g>
<!-- Node8&#45;&gt;Node9 -->
<g id="edge30" class="edge"><title>Node8&#45;&gt;Node9</title>
<path fill="none" stroke="midnightblue" d="M169.249,-360.528C164.114,-340.984 152.992,-298.645 146.337,-273.316"/>
<polygon fill="midnightblue" stroke="midnightblue" points="149.716,-272.4 143.789,-263.618 142.945,-274.179 149.716,-272.4"/>
</g>
<!-- Node10 -->
<g id="node27" class="node"><title>Node10</title>
<a xlink:href="type_8h.html" target="_top" xlink:title="fae/type.h">
<polygon fill="none" stroke="black" points="168.547,-300.695 168.547,-323.305 237.453,-323.305 237.453,-300.695 168.547,-300.695"/>
<text text-anchor="middle" x="203" y="-308.305" font-family="Futura" font-size="11.00">fae/type.h</text>
</a>
</g>
<!-- Node8&#45;&gt;Node10 -->
<g id="edge34" class="edge"><title>Node8&#45;&gt;Node10</title>
<path fill="none" stroke="midnightblue" d="M177.542,-360.631C181.678,-352.892 187.455,-342.084 192.46,-332.719"/>
<polygon fill="midnightblue" stroke="midnightblue" points="195.669,-334.141 197.296,-323.672 189.495,-330.841 195.669,-334.141"/>
</g>
<!-- Node9&#45;&gt;Node4 -->
<g id="edge32" class="edge"><title>Node9&#45;&gt;Node4</title>
<path fill="none" stroke="midnightblue" d="M147.701,-240.444C156.955,-226.169 174.496,-200.177 192,-180 200.961,-169.67 211.864,-159.05 221.108,-150.524"/>
<polygon fill="midnightblue" stroke="midnightblue" points="223.654,-152.94 228.714,-143.631 218.954,-147.753 223.654,-152.94"/>
</g>
<!-- Node10&#45;&gt;Node3 -->
<g id="edge38" class="edge"><title>Node10&#45;&gt;Node3</title>
<path fill="none" stroke="midnightblue" d="M214.442,-300.631C223.61,-292.322 236.683,-280.475 247.497,-270.675"/>
<polygon fill="midnightblue" stroke="midnightblue" points="250.165,-272.981 255.224,-263.672 245.464,-267.794 250.165,-272.981"/>
</g>
<!-- Node10&#45;&gt;Node4 -->
<g id="edge36" class="edge"><title>Node10&#45;&gt;Node4</title>
<path fill="none" stroke="midnightblue" d="M205.207,-300.661C211.32,-272.027 228.552,-191.309 236.669,-153.288"/>
<polygon fill="midnightblue" stroke="midnightblue" points="240.122,-153.878 238.787,-143.368 233.276,-152.417 240.122,-153.878"/>
</g>
</g>
</svg>
