<?xml version="1.0" encoding="UTF-8" standalone="no"?>
<!DOCTYPE svg PUBLIC "-//W3C//DTD SVG 1.1//EN"
 "http://www.w3.org/Graphics/SVG/1.1/DTD/svg11.dtd">
<!-- Generated by graphviz version 2.28.0 (20121015.0031)
 -->
<!-- Title: include/fae/midi_msg.h Pages: 1 -->
<svg width="343pt" height="452pt"
 viewBox="0.00 0.00 343.06 452.00" xmlns="http://www.w3.org/2000/svg" xmlns:xlink="http://www.w3.org/1999/xlink">
<g id="graph1" class="graph" transform="scale(1 1) rotate(0) translate(4 448)">
<title>include/fae/midi_msg.h</title>
<!-- Node1 -->
<g id="node1" class="node"><title>Node1</title>
<polygon fill="#bfbfbf" stroke="black" points="199.503,-420.695 199.503,-443.305 334.612,-443.305 334.612,-420.695 199.503,-420.695"/>
<text text-anchor="middle" x="267.057" y="-428.305" font-family="Futura" font-size="11.00">include/fae/midi_msg.h</text>
</g>
<!-- Node2 -->
<g id="node3" class="node"><title>Node2</title>
<polygon fill="none" stroke="#bfbfbf" points="173.405,-0.695312 173.405,-23.3047 234.71,-23.3047 234.71,-0.695312 173.405,-0.695312"/>
<text text-anchor="middle" x="204.057" y="-8.30469" font-family="Futura" font-size="11.00">fae/std.h</text>
</g>
<!-- Node1&#45;&gt;Node2 -->
<g id="edge2" class="edge"><title>Node1&#45;&gt;Node2</title>
<path fill="none" stroke="midnightblue" d="M276.055,-420.418C291.885,-400.679 323.057,-356.311 323.057,-313 323.057,-313 323.057,-313 323.057,-131 323.057,-82.1242 271.815,-46.5822 236.582,-27.9206"/>
<polygon fill="midnightblue" stroke="midnightblue" points="238.067,-24.7489 227.568,-23.3247 234.887,-30.9851 238.067,-24.7489"/>
</g>
<!-- Node3 -->
<g id="node5" class="node"><title>Node3</title>
<a xlink:href="pair_8h.html" target="_top" xlink:title="fae/pair.h">
<polygon fill="none" stroke="black" points="196.708,-240.695 196.708,-263.305 263.406,-263.305 263.406,-240.695 196.708,-240.695"/>
<text text-anchor="middle" x="230.057" y="-248.305" font-family="Futura" font-size="11.00">fae/pair.h</text>
</a>
</g>
<!-- Node1&#45;&gt;Node3 -->
<g id="edge4" class="edge"><title>Node1&#45;&gt;Node3</title>
<path fill="none" stroke="midnightblue" d="M264.908,-420.661C258.956,-392.027 242.178,-311.309 234.275,-273.288"/>
<polygon fill="midnightblue" stroke="midnightblue" points="237.674,-272.446 232.213,-263.368 230.821,-273.871 237.674,-272.446"/>
</g>
<!-- Node8 -->
<g id="node18" class="node"><title>Node8</title>
<a xlink:href="buffer_8h.html" target="_top" xlink:title="fae/buffer.h">
<polygon fill="none" stroke="black" points="97.8047,-360.695 97.8047,-383.305 174.31,-383.305 174.31,-360.695 97.8047,-360.695"/>
<text text-anchor="middle" x="136.057" y="-368.305" font-family="Futura" font-size="11.00">fae/buffer.h</text>
</a>
</g>
<!-- Node1&#45;&gt;Node8 -->
<g id="edge20" class="edge"><title>Node1&#45;&gt;Node8</title>
<path fill="none" stroke="midnightblue" d="M243.637,-420.631C222.809,-411.409 192.138,-397.829 168.868,-387.527"/>
<polygon fill="midnightblue" stroke="midnightblue" points="170.277,-384.323 159.716,-383.475 167.443,-390.724 170.277,-384.323"/>
</g>
<!-- Node4 -->
<g id="node7" class="node"><title>Node4</title>
<a xlink:href="fae_2fae_8h.html" target="_top" xlink:title="fae.h">
<polygon fill="none" stroke="red" points="166.288,-120.695 166.288,-143.305 207.827,-143.305 207.827,-120.695 166.288,-120.695"/>
<text text-anchor="middle" x="187.057" y="-128.305" font-family="Futura" font-size="11.00">fae.h</text>
</a>
</g>
<!-- Node3&#45;&gt;Node4 -->
<g id="edge6" class="edge"><title>Node3&#45;&gt;Node4</title>
<path fill="none" stroke="midnightblue" d="M226.241,-240.528C219.119,-220.984 203.691,-178.645 194.461,-153.316"/>
<polygon fill="midnightblue" stroke="midnightblue" points="197.639,-151.815 190.927,-143.618 191.062,-154.212 197.639,-151.815"/>
</g>
<!-- Node7 -->
<g id="node15" class="node"><title>Node7</title>
<a xlink:href="list_8h.html" target="_top" xlink:title="fae/list.h">
<polygon fill="none" stroke="black" points="234.963,-180.695 234.963,-203.305 295.151,-203.305 295.151,-180.695 234.963,-180.695"/>
<text text-anchor="middle" x="265.057" y="-188.305" font-family="Futura" font-size="11.00">fae/list.h</text>
</a>
</g>
<!-- Node3&#45;&gt;Node7 -->
<g id="edge16" class="edge"><title>Node3&#45;&gt;Node7</title>
<path fill="none" stroke="midnightblue" d="M236.315,-240.631C241.034,-232.811 247.644,-221.856 253.336,-212.424"/>
<polygon fill="midnightblue" stroke="midnightblue" points="256.447,-214.042 258.617,-203.672 250.454,-210.425 256.447,-214.042"/>
</g>
<!-- Node5 -->
<g id="node9" class="node"><title>Node5</title>
<a xlink:href="atomic_8h.html" target="_top" xlink:title="fae/atomic.h">
<polygon fill="none" stroke="black" points="163.952,-60.6953 163.952,-83.3047 244.163,-83.3047 244.163,-60.6953 163.952,-60.6953"/>
<text text-anchor="middle" x="204.057" y="-68.3047" font-family="Futura" font-size="11.00">fae/atomic.h</text>
</a>
</g>
<!-- Node4&#45;&gt;Node5 -->
<g id="edge8" class="edge"><title>Node4&#45;&gt;Node5</title>
<path fill="none" stroke="midnightblue" d="M184.781,-120.631C185.634,-112.974 188.38,-102.311 191.737,-93.0155"/>
<polygon fill="midnightblue" stroke="midnightblue" points="195.013,-94.2526 195.559,-83.6719 188.534,-91.6023 195.013,-94.2526"/>
</g>
<!-- Node6 -->
<g id="node13" class="node"><title>Node6</title>
<polygon fill="none" stroke="#bfbfbf" points="28.6631,-60.6953 28.6631,-83.3047 145.452,-83.3047 145.452,-60.6953 28.6631,-60.6953"/>
<text text-anchor="middle" x="87.0574" y="-68.3047" font-family="Futura" font-size="11.00">fae/atomic/queue.h</text>
</g>
<!-- Node4&#45;&gt;Node6 -->
<g id="edge14" class="edge"><title>Node4&#45;&gt;Node6</title>
<path fill="none" stroke="midnightblue" d="M169.179,-120.631C153.775,-111.696 131.316,-98.6702 113.778,-88.4977"/>
<polygon fill="midnightblue" stroke="midnightblue" points="115.524,-85.4646 105.118,-83.475 112.012,-91.5199 115.524,-85.4646"/>
</g>
<!-- Node5&#45;&gt;Node2 -->
<g id="edge12" class="edge"><title>Node5&#45;&gt;Node2</title>
<path fill="none" stroke="midnightblue" d="M204.057,-60.6308C204.057,-53.218 204.057,-42.9888 204.057,-33.9096"/>
<polygon fill="midnightblue" stroke="midnightblue" points="207.557,-33.6718 204.057,-23.6719 200.557,-33.6719 207.557,-33.6718"/>
</g>
<!-- Node5&#45;&gt;Node4 -->
<g id="edge10" class="edge"><title>Node5&#45;&gt;Node4</title>
<path fill="none" stroke="midnightblue" d="M206.299,-83.6719C205.397,-91.4071 202.618,-102.09 199.245,-111.349"/>
<polygon fill="midnightblue" stroke="midnightblue" points="195.994,-110.052 195.413,-120.631 202.464,-112.724 195.994,-110.052"/>
</g>
<!-- Node7&#45;&gt;Node4 -->
<g id="edge18" class="edge"><title>Node7&#45;&gt;Node4</title>
<path fill="none" stroke="midnightblue" d="M251.113,-180.631C239.538,-172.024 222.858,-159.621 209.42,-149.629"/>
<polygon fill="midnightblue" stroke="midnightblue" points="211.258,-146.633 201.144,-143.475 207.081,-152.251 211.258,-146.633"/>
</g>
<!-- Node8&#45;&gt;Node2 -->
<g id="edge24" class="edge"><title>Node8&#45;&gt;Node2</title>
<path fill="none" stroke="midnightblue" d="M107.096,-360.655C67.429,-344.408 1.05737,-308.876 1.05737,-253 1.05737,-253 1.05737,-253 1.05737,-131 1.05737,-98.3341 -3.17211,-82.9663 20.0574,-60 40.0984,-40.186 115.428,-25.8757 163.266,-18.5545"/>
<polygon fill="midnightblue" stroke="midnightblue" points="163.945,-21.9921 173.319,-17.0563 162.913,-15.0685 163.945,-21.9921"/>
</g>
<!-- Node8&#45;&gt;Node3 -->
<g id="edge26" class="edge"><title>Node8&#45;&gt;Node3</title>
<path fill="none" stroke="midnightblue" d="M161.448,-360.646C177.588,-352.832 197.7,-340.605 210.057,-324 221.008,-309.285 225.966,-288.81 228.209,-273.626"/>
<polygon fill="midnightblue" stroke="midnightblue" points="231.687,-274.011 229.409,-263.664 224.738,-273.174 231.687,-274.011"/>
</g>
<!-- Node8&#45;&gt;Node4 -->
<g id="edge22" class="edge"><title>Node8&#45;&gt;Node4</title>
<path fill="none" stroke="midnightblue" d="M121.577,-360.523C93.4394,-338.801 35.9984,-286.957 58.0574,-240 78.3513,-196.801 125.6,-165.031 156.93,-147.78"/>
<polygon fill="midnightblue" stroke="midnightblue" points="158.916,-150.688 166.095,-142.896 155.623,-144.511 158.916,-150.688"/>
</g>
<!-- Node9 -->
<g id="node23" class="node"><title>Node9</title>
<a xlink:href="string_8h.html" target="_top" xlink:title="fae/string.h">
<polygon fill="none" stroke="black" points="66.8843,-240.695 66.8843,-263.305 141.23,-263.305 141.23,-240.695 66.8843,-240.695"/>
<text text-anchor="middle" x="104.057" y="-248.305" font-family="Futura" font-size="11.00">fae/string.h</text>
</a>
</g>
<!-- Node8&#45;&gt;Node9 -->
<g id="edge28" class="edge"><title>Node8&#45;&gt;Node9</title>
<path fill="none" stroke="midnightblue" d="M133.218,-360.528C127.917,-340.984 116.436,-298.645 109.567,-273.316"/>
<polygon fill="midnightblue" stroke="midnightblue" points="112.932,-272.353 106.937,-263.618 106.176,-274.185 112.932,-272.353"/>
</g>
<!-- Node10 -->
<g id="node26" class="node"><title>Node10</title>
<a xlink:href="type_8h.html" target="_top" xlink:title="fae/type.h">
<polygon fill="none" stroke="black" points="132.605,-300.695 132.605,-323.305 201.51,-323.305 201.51,-300.695 132.605,-300.695"/>
<text text-anchor="middle" x="167.057" y="-308.305" font-family="Futura" font-size="11.00">fae/type.h</text>
</a>
</g>
<!-- Node8&#45;&gt;Node10 -->
<g id="edge32" class="edge"><title>Node8&#45;&gt;Node10</title>
<path fill="none" stroke="midnightblue" d="M141.6,-360.631C145.736,-352.892 151.512,-342.084 156.518,-332.719"/>
<polygon fill="midnightblue" stroke="midnightblue" points="159.726,-334.141 161.353,-323.672 153.553,-330.841 159.726,-334.141"/>
</g>
<!-- Node9&#45;&gt;Node4 -->
<g id="edge30" class="edge"><title>Node9&#45;&gt;Node4</title>
<path fill="none" stroke="midnightblue" d="M111.423,-240.528C125.416,-220.635 156.02,-177.126 173.71,-151.975"/>
<polygon fill="midnightblue" stroke="midnightblue" points="176.698,-153.811 179.589,-143.618 170.973,-149.784 176.698,-153.811"/>
</g>
<!-- Node10&#45;&gt;Node3 -->
<g id="edge36" class="edge"><title>Node10&#45;&gt;Node3</title>
<path fill="none" stroke="midnightblue" d="M178.321,-300.631C187.346,-292.322 200.214,-280.475 210.859,-270.675"/>
<polygon fill="midnightblue" stroke="midnightblue" points="213.479,-273.02 218.466,-263.672 208.738,-267.87 213.479,-273.02"/>
</g>
<!-- Node10&#45;&gt;Node4 -->
<g id="edge34" class="edge"><title>Node10&#45;&gt;Node4</title>
<path fill="none" stroke="midnightblue" d="M168.219,-300.661C171.423,-272.15 180.428,-192.001 184.723,-153.78"/>
<polygon fill="midnightblue" stroke="midnightblue" points="188.254,-153.696 185.892,-143.368 181.298,-152.915 188.254,-153.696"/>
</g>
</g>
</svg>
