<?xml version="1.0" encoding="UTF-8" standalone="no"?>
<!DOCTYPE svg PUBLIC "-//W3C//DTD SVG 1.1//EN"
 "http://www.w3.org/Graphics/SVG/1.1/DTD/svg11.dtd">
<!-- Generated by graphviz version 2.28.0 (20121015.0031)
 -->
<!-- Title: include/fa/midi.h Pages: 1 -->
<svg width="711pt" height="272pt"
 viewBox="0.00 0.00 710.57 272.00" xmlns="http://www.w3.org/2000/svg" xmlns:xlink="http://www.w3.org/1999/xlink">
<g id="graph1" class="graph" transform="scale(1 1) rotate(0) translate(4 268)">
<title>include/fa/midi.h</title>
<!-- Node1 -->
<g id="node1" class="node"><title>Node1</title>
<polygon fill="#bfbfbf" stroke="black" points="306.047,-240.695 306.047,-263.305 409.102,-263.305 409.102,-240.695 306.047,-240.695"/>
<text text-anchor="middle" x="357.575" y="-248.305" font-family="Futura" font-size="11.00">include/fa/midi.h</text>
</g>
<!-- Node2 -->
<g id="node3" class="node"><title>Node2</title>
<a xlink:href="fa_2fa_8h.html" target="_top" xlink:title="include/fa/fa.h">
<polygon fill="none" stroke="red" points="311.421,-180.695 311.421,-203.305 403.728,-203.305 403.728,-180.695 311.421,-180.695"/>
<text text-anchor="middle" x="357.575" y="-188.305" font-family="Futura" font-size="11.00">include/fa/fa.h</text>
</a>
</g>
<!-- Node1&#45;&gt;Node2 -->
<g id="edge2" class="edge"><title>Node1&#45;&gt;Node2</title>
<path fill="none" stroke="midnightblue" d="M357.575,-230.459C357.575,-221.411 357.575,-211.16 357.575,-203.672"/>
<polygon fill="midnightblue" stroke="midnightblue" points="354.075,-230.631 357.575,-240.631 361.075,-230.631 354.075,-230.631"/>
</g>
<!-- Node3 -->
<g id="node5" class="node"><title>Node3</title>
<a xlink:href="action_8h.html" target="_top" xlink:title="include/fa/action.h">
<polygon fill="none" stroke="red" points="245.321,-0.695312 245.321,-23.3047 357.829,-23.3047 357.829,-0.695312 245.321,-0.695312"/>
<text text-anchor="middle" x="301.575" y="-8.30469" font-family="Futura" font-size="11.00">include/fa/action.h</text>
</a>
</g>
<!-- Node2&#45;&gt;Node3 -->
<g id="edge4" class="edge"><title>Node2&#45;&gt;Node3</title>
<path fill="none" stroke="midnightblue" d="M357.12,-170.343C360.552,-143.474 367.619,-95.7506 350.575,-60 342.878,-43.8555 326.625,-31.4591 314.687,-23.4614"/>
<polygon fill="midnightblue" stroke="midnightblue" points="353.619,-170.151 355.953,-180.485 360.573,-170.951 353.619,-170.151"/>
</g>
<!-- Node4 -->
<g id="node8" class="node"><title>Node4</title>
<a xlink:href="buffer_8h.html" target="_top" xlink:title="include/fa/buffer.h">
<polygon fill="none" stroke="red" points="377.801,-0.695312 377.801,-23.3047 489.348,-23.3047 489.348,-0.695312 377.801,-0.695312"/>
<text text-anchor="middle" x="433.575" y="-8.30469" font-family="Futura" font-size="11.00">include/fa/buffer.h</text>
</a>
</g>
<!-- Node2&#45;&gt;Node4 -->
<g id="edge8" class="edge"><title>Node2&#45;&gt;Node4</title>
<path fill="none" stroke="midnightblue" d="M373.543,-172.601C380.139,-164.292 387.428,-154.089 392.575,-144 414.124,-101.755 426.946,-46.0294 431.587,-23.3083"/>
<polygon fill="midnightblue" stroke="midnightblue" points="370.7,-170.548 367.041,-180.491 376.102,-175 370.7,-170.548"/>
</g>
<!-- Node5 -->
<g id="node10" class="node"><title>Node5</title>
<a xlink:href="device_8h.html" target="_top" xlink:title="include/fa/device.h">
<polygon fill="none" stroke="red" points="588.392,-120.695 588.392,-143.305 702.758,-143.305 702.758,-120.695 588.392,-120.695"/>
<text text-anchor="middle" x="645.575" y="-128.305" font-family="Futura" font-size="11.00">include/fa/device.h</text>
</a>
</g>
<!-- Node2&#45;&gt;Node5 -->
<g id="edge10" class="edge"><title>Node2&#45;&gt;Node5</title>
<path fill="none" stroke="midnightblue" d="M413.958,-179.645C466.247,-169.115 543.4,-153.577 594.068,-143.373"/>
<polygon fill="midnightblue" stroke="midnightblue" points="412.959,-176.276 403.847,-181.681 414.341,-183.138 412.959,-176.276"/>
</g>
<!-- Node6 -->
<g id="node13" class="node"><title>Node6</title>
<a xlink:href="dynamic_8h.html" target="_top" xlink:title="include/fa/dynamic.h">
<polygon fill="none" stroke="black" points="171.493,-120.695 171.493,-143.305 295.656,-143.305 295.656,-120.695 171.493,-120.695"/>
<text text-anchor="middle" x="233.575" y="-128.305" font-family="Futura" font-size="11.00">include/fa/dynamic.h</text>
</a>
</g>
<!-- Node2&#45;&gt;Node6 -->
<g id="edge14" class="edge"><title>Node2&#45;&gt;Node6</title>
<path fill="none" stroke="midnightblue" d="M326.182,-176.316C304.281,-166.072 275.579,-152.647 255.97,-143.475"/>
<polygon fill="midnightblue" stroke="midnightblue" points="324.865,-179.564 335.406,-180.631 327.831,-173.224 324.865,-179.564"/>
</g>
<!-- Node7 -->
<g id="node15" class="node"><title>Node7</title>
<a xlink:href="error_8h.html" target="_top" xlink:title="include/fa/error.h">
<polygon fill="none" stroke="red" points="463.173,-120.695 463.173,-143.305 569.977,-143.305 569.977,-120.695 463.173,-120.695"/>
<text text-anchor="middle" x="516.575" y="-128.305" font-family="Futura" font-size="11.00">include/fa/error.h</text>
</a>
</g>
<!-- Node2&#45;&gt;Node7 -->
<g id="edge16" class="edge"><title>Node2&#45;&gt;Node7</title>
<path fill="none" stroke="midnightblue" d="M390.111,-176.989C417.177,-166.63 455.405,-152.753 482.81,-143.377"/>
<polygon fill="midnightblue" stroke="midnightblue" points="388.751,-173.762 380.685,-180.631 391.274,-180.291 388.751,-173.762"/>
</g>
<!-- Node8 -->
<g id="node19" class="node"><title>Node8</title>
<a xlink:href="list_8h.html" target="_top" xlink:title="include/fa/list.h">
<polygon fill="none" stroke="red" points="19.9602,-120.695 19.9602,-143.305 115.189,-143.305 115.189,-120.695 19.9602,-120.695"/>
<text text-anchor="middle" x="67.5747" y="-128.305" font-family="Futura" font-size="11.00">include/fa/list.h</text>
</a>
</g>
<!-- Node2&#45;&gt;Node8 -->
<g id="edge22" class="edge"><title>Node2&#45;&gt;Node8</title>
<path fill="none" stroke="midnightblue" d="M301.261,-180.794C246.678,-170.267 165.004,-153.933 114.022,-143.352"/>
<polygon fill="midnightblue" stroke="midnightblue" points="300.643,-184.24 311.124,-182.69 301.964,-177.366 300.643,-184.24"/>
</g>
<!-- Node9 -->
<g id="node23" class="node"><title>Node9</title>
<a xlink:href="map_8h.html" target="_top" xlink:title="include/fa/map.h">
<polygon fill="none" stroke="red" points="15.4888,-0.695312 15.4888,-23.3047 119.661,-23.3047 119.661,-0.695312 15.4888,-0.695312"/>
<text text-anchor="middle" x="67.5747" y="-8.30469" font-family="Futura" font-size="11.00">include/fa/map.h</text>
</a>
</g>
<!-- Node2&#45;&gt;Node9 -->
<g id="edge44" class="edge"><title>Node2&#45;&gt;Node9</title>
<path fill="none" stroke="midnightblue" d="M301.086,-191.931C212.612,-192.045 47.6069,-186.386 10.5747,-144 -22.226,-106.457 31.6194,-47.1106 56.2702,-23.3431"/>
<polygon fill="midnightblue" stroke="midnightblue" points="301.236,-195.431 311.223,-191.893 301.209,-188.431 301.236,-195.431"/>
</g>
<!-- Node10 -->
<g id="node26" class="node"><title>Node10</title>
<a xlink:href="pair_8h.html" target="_top" xlink:title="include/fa/pair.h">
<polygon fill="none" stroke="red" points="249.705,-60.6953 249.705,-83.3047 351.444,-83.3047 351.444,-60.6953 249.705,-60.6953"/>
<text text-anchor="middle" x="300.575" y="-68.3047" font-family="Futura" font-size="11.00">include/fa/pair.h</text>
</a>
</g>
<!-- Node2&#45;&gt;Node10 -->
<g id="edge46" class="edge"><title>Node2&#45;&gt;Node10</title>
<path fill="none" stroke="midnightblue" d="M343.207,-171.878C328.609,-146.767 308.081,-103.538 301.633,-83.6179"/>
<polygon fill="midnightblue" stroke="midnightblue" points="340.282,-173.804 348.469,-180.528 346.262,-170.166 340.282,-173.804"/>
</g>
<!-- Node3&#45;&gt;Node2 -->
<g id="edge6" class="edge"><title>Node3&#45;&gt;Node2</title>
<path fill="none" stroke="midnightblue" d="M338.61,-28.6461C350.647,-36.4445 362.381,-47.0087 368.575,-60 388.054,-100.858 376.041,-157.353 365.498,-180.485"/>
<polygon fill="midnightblue" stroke="midnightblue" points="340.254,-25.5515 329.867,-23.4614 336.683,-31.5725 340.254,-25.5515"/>
</g>
<!-- Node5&#45;&gt;Node1 -->
<g id="edge12" class="edge"><title>Node5&#45;&gt;Node1</title>
<path fill="none" stroke="midnightblue" d="M610.407,-147.409C551.527,-171.533 434.393,-219.526 382.88,-240.632"/>
<polygon fill="midnightblue" stroke="midnightblue" points="612.091,-150.502 620.017,-143.472 609.437,-144.024 612.091,-150.502"/>
</g>
<!-- Node7&#45;&gt;Node1 -->
<g id="edge20" class="edge"><title>Node7&#45;&gt;Node1</title>
<path fill="none" stroke="midnightblue" d="M494.056,-149.712C460.747,-174.432 399.313,-220.024 371.685,-240.528"/>
<polygon fill="midnightblue" stroke="midnightblue" points="496.323,-152.388 502.268,-143.618 492.151,-146.767 496.323,-152.388"/>
</g>
<!-- Node7&#45;&gt;Node2 -->
<g id="edge18" class="edge"><title>Node7&#45;&gt;Node2</title>
<path fill="none" stroke="midnightblue" d="M484.016,-147.02C456.943,-157.381 418.715,-171.257 391.317,-180.631"/>
<polygon fill="midnightblue" stroke="midnightblue" points="485.378,-150.246 493.444,-143.377 482.855,-143.717 485.378,-150.246"/>
</g>
<!-- Node8&#45;&gt;Node1 -->
<g id="edge30" class="edge"><title>Node8&#45;&gt;Node1</title>
<path fill="none" stroke="midnightblue" d="M79.1104,-152.112C90.0316,-168.494 107.951,-191.385 129.575,-204 184.207,-235.873 257.252,-246.341 305.779,-249.664"/>
<polygon fill="midnightblue" stroke="midnightblue" points="81.8451,-149.891 73.5138,-143.346 75.945,-153.658 81.8451,-149.891"/>
</g>
<!-- Node8&#45;&gt;Node2 -->
<g id="edge26" class="edge"><title>Node8&#45;&gt;Node2</title>
<path fill="none" stroke="midnightblue" d="M125.434,-143.504C180.089,-154.056 260.879,-170.217 311.366,-180.698"/>
<polygon fill="midnightblue" stroke="midnightblue" points="126.027,-140.054 115.546,-141.601 124.704,-146.928 126.027,-140.054"/>
</g>
<!-- Node8&#45;&gt;Node3 -->
<g id="edge24" class="edge"><title>Node8&#45;&gt;Node3</title>
<path fill="none" stroke="midnightblue" d="M97.3331,-115.994C145.482,-91.7132 239.264,-44.4216 280.855,-23.4482"/>
<polygon fill="midnightblue" stroke="midnightblue" points="95.6937,-112.9 88.3406,-120.528 98.8455,-119.151 95.6937,-112.9"/>
</g>
<!-- Node8&#45;&gt;Node9 -->
<g id="edge28" class="edge"><title>Node8&#45;&gt;Node9</title>
<path fill="none" stroke="midnightblue" d="M67.5747,-110.192C67.5747,-84.8736 67.5747,-43.0995 67.5747,-23.6179"/>
<polygon fill="midnightblue" stroke="midnightblue" points="64.0748,-110.528 67.5747,-120.528 71.0748,-110.528 64.0748,-110.528"/>
</g>
<!-- Node8&#45;&gt;Node10 -->
<g id="edge32" class="edge"><title>Node8&#45;&gt;Node10</title>
<path fill="none" stroke="midnightblue" d="M119.002,-118.198C161.046,-107.733 219.735,-93.1231 258.887,-83.3771"/>
<polygon fill="midnightblue" stroke="midnightblue" points="118.089,-114.819 109.23,-120.631 119.78,-121.611 118.089,-114.819"/>
</g>
<!-- Node10&#45;&gt;Node1 -->
<g id="edge42" class="edge"><title>Node10&#45;&gt;Node1</title>
<path fill="none" stroke="midnightblue" d="M239.445,-81.379C193.536,-90.5965 141.861,-109.007 162.575,-144 194.834,-198.498 265.789,-227.083 312.622,-240.591"/>
<polygon fill="midnightblue" stroke="midnightblue" points="240.25,-84.7891 249.427,-79.4955 238.952,-77.9104 240.25,-84.7891"/>
</g>
<!-- Node10&#45;&gt;Node2 -->
<g id="edge38" class="edge"><title>Node10&#45;&gt;Node2</title>
<path fill="none" stroke="midnightblue" d="M315.05,-92.3074C329.677,-117.507 350.185,-160.722 356.563,-180.528"/>
<polygon fill="midnightblue" stroke="midnightblue" points="317.956,-90.349 309.774,-83.6179 311.972,-93.9821 317.956,-90.349"/>
</g>
<!-- Node10&#45;&gt;Node3 -->
<g id="edge34" class="edge"><title>Node10&#45;&gt;Node3</title>
<path fill="none" stroke="midnightblue" d="M300.929,-50.4586C301.085,-41.4112 301.262,-31.1602 301.391,-23.6719"/>
<polygon fill="midnightblue" stroke="midnightblue" points="297.426,-50.5719 300.753,-60.6308 304.425,-50.6926 297.426,-50.5719"/>
</g>
<!-- Node10&#45;&gt;Node4 -->
<g id="edge36" class="edge"><title>Node10&#45;&gt;Node4</title>
<path fill="none" stroke="midnightblue" d="M333.616,-56.591C357.183,-46.3135 388.333,-32.7296 409.554,-23.475"/>
<polygon fill="midnightblue" stroke="midnightblue" points="332.12,-53.4252 324.352,-60.6308 334.918,-59.8416 332.12,-53.4252"/>
</g>
<!-- Node10&#45;&gt;Node9 -->
<g id="edge40" class="edge"><title>Node10&#45;&gt;Node9</title>
<path fill="none" stroke="midnightblue" d="M249.147,-58.1982C207.104,-47.7325 148.414,-33.1231 109.262,-23.3771"/>
<polygon fill="midnightblue" stroke="midnightblue" points="248.37,-61.6115 258.919,-60.6308 250.061,-54.8188 248.37,-61.6115"/>
</g>
</g>
</svg>
