<?xml version="1.0" encoding="UTF-8" standalone="no"?>
<!DOCTYPE svg PUBLIC "-//W3C//DTD SVG 1.1//EN"
 "http://www.w3.org/Graphics/SVG/1.1/DTD/svg11.dtd">
<!-- Generated by graphviz version 2.28.0 (20121015.0031)
 -->
<!-- Title: include/fae/midi.h Pages: 1 -->
<svg width="441pt" height="332pt"
 viewBox="0.00 0.00 441.00 332.00" xmlns="http://www.w3.org/2000/svg" xmlns:xlink="http://www.w3.org/1999/xlink">
<g id="graph1" class="graph" transform="scale(1 1) rotate(0) translate(4 328)">
<title>include/fae/midi.h</title>
<!-- Node1 -->
<g id="node1" class="node"><title>Node1</title>
<polygon fill="#bfbfbf" stroke="black" points="147.43,-300.695 147.43,-323.305 256.57,-323.305 256.57,-300.695 147.43,-300.695"/>
<text text-anchor="middle" x="202" y="-308.305" font-family="Futura" font-size="11.00">include/fae/midi.h</text>
</g>
<!-- Node2 -->
<g id="node3" class="node"><title>Node2</title>
<a xlink:href="list_8h.html" target="_top" xlink:title="fae/list.h">
<polygon fill="none" stroke="black" points="237.906,-180.695 237.906,-203.305 298.094,-203.305 298.094,-180.695 237.906,-180.695"/>
<text text-anchor="middle" x="268" y="-188.305" font-family="Futura" font-size="11.00">fae/list.h</text>
</a>
</g>
<!-- Node1&#45;&gt;Node2 -->
<g id="edge2" class="edge"><title>Node1&#45;&gt;Node2</title>
<path fill="none" stroke="midnightblue" d="M230.825,-300.552C246.938,-293.053 265.616,-281.202 275,-264 283.496,-248.425 280.293,-228.052 275.824,-213.126"/>
<polygon fill="midnightblue" stroke="midnightblue" points="279.036,-211.701 272.494,-203.367 272.41,-213.961 279.036,-211.701"/>
</g>
<!-- Node6 -->
<g id="node12" class="node"><title>Node6</title>
<a xlink:href="error_8h.html" target="_top" xlink:title="fae/error.h">
<polygon fill="none" stroke="black" points="362.119,-60.6953 362.119,-83.3047 433.881,-83.3047 433.881,-60.6953 362.119,-60.6953"/>
<text text-anchor="middle" x="398" y="-68.3047" font-family="Futura" font-size="11.00">fae/error.h</text>
</a>
</g>
<!-- Node1&#45;&gt;Node6 -->
<g id="edge34" class="edge"><title>Node1&#45;&gt;Node6</title>
<path fill="none" stroke="midnightblue" d="M231.892,-300.559C250.864,-292.774 274.961,-280.612 292,-264 344.148,-213.159 377.708,-131.111 391.222,-93.2878"/>
<polygon fill="midnightblue" stroke="midnightblue" points="394.663,-94.0471 394.637,-83.4523 388.051,-91.7513 394.663,-94.0471"/>
</g>
<!-- Node8 -->
<g id="node18" class="node"><title>Node8</title>
<polygon fill="none" stroke="#bfbfbf" points="-0.799805,-60.6953 -0.799805,-83.3047 72.7998,-83.3047 72.7998,-60.6953 -0.799805,-60.6953"/>
<text text-anchor="middle" x="36" y="-68.3047" font-family="Futura" font-size="11.00">fae/event.h</text>
</g>
<!-- Node1&#45;&gt;Node8 -->
<g id="edge36" class="edge"><title>Node1&#45;&gt;Node8</title>
<path fill="none" stroke="midnightblue" d="M177.403,-300.686C143.632,-285.121 83.8222,-252.231 55,-204 34.37,-169.478 33.0664,-120.937 34.3067,-93.6768"/>
<polygon fill="midnightblue" stroke="midnightblue" points="37.8184,-93.5971 34.9452,-83.3993 30.8318,-93.1631 37.8184,-93.5971"/>
</g>
<!-- Node9 -->
<g id="node21" class="node"><title>Node9</title>
<a xlink:href="pair_8h.html" target="_top" xlink:title="fae/pair.h">
<polygon fill="none" stroke="black" points="199.651,-240.695 199.651,-263.305 266.349,-263.305 266.349,-240.695 199.651,-240.695"/>
<text text-anchor="middle" x="233" y="-248.305" font-family="Futura" font-size="11.00">fae/pair.h</text>
</a>
</g>
<!-- Node1&#45;&gt;Node9 -->
<g id="edge24" class="edge"><title>Node1&#45;&gt;Node9</title>
<path fill="none" stroke="midnightblue" d="M207.542,-300.631C211.678,-292.892 217.455,-282.084 222.46,-272.719"/>
<polygon fill="midnightblue" stroke="midnightblue" points="225.669,-274.141 227.296,-263.672 219.495,-270.841 225.669,-274.141"/>
</g>
<!-- Node10 -->
<g id="node25" class="node"><title>Node10</title>
<a xlink:href="device_8h.html" target="_top" xlink:title="fae/device.h">
<polygon fill="none" stroke="black" points="64.3374,-180.695 64.3374,-203.305 143.663,-203.305 143.663,-180.695 64.3374,-180.695"/>
<text text-anchor="middle" x="104" y="-188.305" font-family="Futura" font-size="11.00">fae/device.h</text>
</a>
</g>
<!-- Node1&#45;&gt;Node10 -->
<g id="edge30" class="edge"><title>Node1&#45;&gt;Node10</title>
<path fill="none" stroke="midnightblue" d="M191.543,-300.458C182.419,-291.115 168.962,-276.98 158,-264 143.436,-246.756 127.952,-226.133 117.316,-211.568"/>
<polygon fill="midnightblue" stroke="midnightblue" points="120.074,-209.41 111.372,-203.367 114.407,-213.518 120.074,-209.41"/>
</g>
<!-- Node3 -->
<g id="node5" class="node"><title>Node3</title>
<a xlink:href="fae_2fae_8h.html" target="_top" xlink:title="fae.h">
<polygon fill="none" stroke="red" points="151.23,-120.695 151.23,-143.305 192.77,-143.305 192.77,-120.695 151.23,-120.695"/>
<text text-anchor="middle" x="172" y="-128.305" font-family="Futura" font-size="11.00">fae.h</text>
</a>
</g>
<!-- Node2&#45;&gt;Node3 -->
<g id="edge4" class="edge"><title>Node2&#45;&gt;Node3</title>
<path fill="none" stroke="midnightblue" d="M250.837,-180.631C236.185,-171.778 214.884,-158.909 198.116,-148.778"/>
<polygon fill="midnightblue" stroke="midnightblue" points="199.707,-145.651 189.338,-143.475 196.087,-151.642 199.707,-145.651"/>
</g>
<!-- Node3&#45;&gt;Node1 -->
<g id="edge22" class="edge"><title>Node3&#45;&gt;Node1</title>
<path fill="none" stroke="midnightblue" d="M173.221,-143.579C175.87,-165.92 182.585,-219.516 191,-264 192.668,-272.817 194.865,-282.481 196.857,-290.741"/>
<polygon fill="midnightblue" stroke="midnightblue" points="193.497,-291.734 199.295,-300.601 200.292,-290.053 193.497,-291.734"/>
</g>
<!-- Node4 -->
<g id="node7" class="node"><title>Node4</title>
<a xlink:href="atomic_8h.html" target="_top" xlink:title="fae/atomic.h">
<polygon fill="none" stroke="red" points="128.894,-60.6953 128.894,-83.3047 209.106,-83.3047 209.106,-60.6953 128.894,-60.6953"/>
<text text-anchor="middle" x="169" y="-68.3047" font-family="Futura" font-size="11.00">fae/atomic.h</text>
</a>
</g>
<!-- Node3&#45;&gt;Node4 -->
<g id="edge6" class="edge"><title>Node3&#45;&gt;Node4</title>
<path fill="none" stroke="midnightblue" d="M166.148,-120.631C164.418,-113.218 163.49,-102.989 163.571,-93.9096"/>
<polygon fill="midnightblue" stroke="midnightblue" points="167.08,-93.8627 164.182,-83.6719 160.092,-93.4454 167.08,-93.8627"/>
</g>
<!-- Node5 -->
<g id="node10" class="node"><title>Node5</title>
<polygon fill="none" stroke="#bfbfbf" points="227.606,-60.6953 227.606,-83.3047 344.394,-83.3047 344.394,-60.6953 227.606,-60.6953"/>
<text text-anchor="middle" x="286" y="-68.3047" font-family="Futura" font-size="11.00">fae/atomic/queue.h</text>
</g>
<!-- Node3&#45;&gt;Node5 -->
<g id="edge10" class="edge"><title>Node3&#45;&gt;Node5</title>
<path fill="none" stroke="midnightblue" d="M192.381,-120.631C210.184,-111.573 236.251,-98.3109 256.361,-88.0794"/>
<polygon fill="midnightblue" stroke="midnightblue" points="258.085,-91.1291 265.411,-83.475 254.911,-84.8902 258.085,-91.1291"/>
</g>
<!-- Node3&#45;&gt;Node6 -->
<g id="edge12" class="edge"><title>Node3&#45;&gt;Node6</title>
<path fill="none" stroke="midnightblue" d="M193.022,-124.459C229.201,-114.475 303.482,-95.3375 352.058,-83.4236"/>
<polygon fill="midnightblue" stroke="midnightblue" points="353.124,-86.7663 362.01,-80.9969 351.466,-79.9655 353.124,-86.7663"/>
</g>
<!-- Node3&#45;&gt;Node8 -->
<g id="edge20" class="edge"><title>Node3&#45;&gt;Node8</title>
<path fill="none" stroke="midnightblue" d="M151.048,-122.065C129.377,-112.823 95.2025,-98.2481 69.7225,-87.3816"/>
<polygon fill="midnightblue" stroke="midnightblue" points="70.9984,-84.1208 60.4269,-83.4174 68.2524,-90.5597 70.9984,-84.1208"/>
</g>
<!-- Node4&#45;&gt;Node3 -->
<g id="edge8" class="edge"><title>Node4&#45;&gt;Node3</title>
<path fill="none" stroke="midnightblue" d="M174.922,-83.6719C176.63,-91.1602 177.533,-101.411 177.426,-110.459"/>
<polygon fill="midnightblue" stroke="midnightblue" points="173.92,-110.429 176.78,-120.631 180.906,-110.873 173.92,-110.429"/>
</g>
<!-- Node6&#45;&gt;Node3 -->
<g id="edge14" class="edge"><title>Node6&#45;&gt;Node3</title>
<path fill="none" stroke="midnightblue" d="M363.014,-83.3415C319.187,-95.1408 245.046,-114.102 203.1,-124.183"/>
<polygon fill="midnightblue" stroke="midnightblue" points="202.086,-120.827 193.167,-126.545 203.705,-127.637 202.086,-120.827"/>
</g>
<!-- Node7 -->
<g id="node15" class="node"><title>Node7</title>
<a xlink:href="string_8h.html" target="_top" xlink:title="fae/string.h">
<polygon fill="none" stroke="black" points="211.827,-0.695312 211.827,-23.3047 286.173,-23.3047 286.173,-0.695312 211.827,-0.695312"/>
<text text-anchor="middle" x="249" y="-8.30469" font-family="Futura" font-size="11.00">fae/string.h</text>
</a>
</g>
<!-- Node6&#45;&gt;Node7 -->
<g id="edge16" class="edge"><title>Node6&#45;&gt;Node7</title>
<path fill="none" stroke="midnightblue" d="M371.362,-60.6308C347.282,-51.2573 311.633,-37.3807 285.017,-27.0202"/>
<polygon fill="midnightblue" stroke="midnightblue" points="286.247,-23.743 275.658,-23.3771 283.708,-30.2662 286.247,-23.743"/>
</g>
<!-- Node7&#45;&gt;Node3 -->
<g id="edge18" class="edge"><title>Node7&#45;&gt;Node3</title>
<path fill="none" stroke="midnightblue" d="M211.813,-15.3938C181.54,-19.5332 140.571,-30.6111 120,-60 106.72,-78.9722 127.394,-100.368 146.471,-114.666"/>
<polygon fill="midnightblue" stroke="midnightblue" points="144.538,-117.586 154.72,-120.517 148.588,-111.877 144.538,-117.586"/>
</g>
<!-- Node9&#45;&gt;Node2 -->
<g id="edge28" class="edge"><title>Node9&#45;&gt;Node2</title>
<path fill="none" stroke="midnightblue" d="M239.257,-240.631C243.976,-232.811 250.587,-221.856 256.279,-212.424"/>
<polygon fill="midnightblue" stroke="midnightblue" points="259.39,-214.042 261.56,-203.672 253.397,-210.425 259.39,-214.042"/>
</g>
<!-- Node9&#45;&gt;Node3 -->
<g id="edge26" class="edge"><title>Node9&#45;&gt;Node3</title>
<path fill="none" stroke="midnightblue" d="M227.587,-240.528C217.393,-220.81 195.204,-177.887 182.154,-152.641"/>
<polygon fill="midnightblue" stroke="midnightblue" points="185.19,-150.894 177.489,-143.618 178.972,-154.108 185.19,-150.894"/>
</g>
<!-- Node10&#45;&gt;Node3 -->
<g id="edge32" class="edge"><title>Node10&#45;&gt;Node3</title>
<path fill="none" stroke="midnightblue" d="M116.157,-180.631C125.994,-172.24 140.061,-160.242 151.615,-150.387"/>
<polygon fill="midnightblue" stroke="midnightblue" points="154.151,-152.824 159.488,-143.672 149.608,-147.498 154.151,-152.824"/>
</g>
</g>
</svg>
