<?xml version="1.0" encoding="UTF-8" standalone="no"?>
<!DOCTYPE svg PUBLIC "-//W3C//DTD SVG 1.1//EN"
 "http://www.w3.org/Graphics/SVG/1.1/DTD/svg11.dtd">
<!-- Generated by graphviz version 2.28.0 (20121015.0031)
 -->
<!-- Title: include/fa/midi.h Pages: 1 -->
<svg width="426pt" height="392pt"
 viewBox="0.00 0.00 426.00 392.00" xmlns="http://www.w3.org/2000/svg" xmlns:xlink="http://www.w3.org/1999/xlink">
<g id="graph1" class="graph" transform="scale(1 1) rotate(0) translate(4 388)">
<title>include/fa/midi.h</title>
<!-- Node1 -->
<g id="node1" class="node"><title>Node1</title>
<polygon fill="#bfbfbf" stroke="black" points="156.473,-360.695 156.473,-383.305 259.527,-383.305 259.527,-360.695 156.473,-360.695"/>
<text text-anchor="middle" x="208" y="-368.305" font-family="Futura" font-size="11.00">include/fa/midi.h</text>
</g>
<!-- Node2 -->
<g id="node3" class="node"><title>Node2</title>
<a xlink:href="list_8h.html" target="_top" xlink:title="fa/list.h">
<polygon fill="none" stroke="black" points="262.949,-300.695 262.949,-323.305 317.051,-323.305 317.051,-300.695 262.949,-300.695"/>
<text text-anchor="middle" x="290" y="-308.305" font-family="Futura" font-size="11.00">fa/list.h</text>
</a>
</g>
<!-- Node1&#45;&gt;Node2 -->
<g id="edge2" class="edge"><title>Node1&#45;&gt;Node2</title>
<path fill="none" stroke="midnightblue" d="M222.66,-360.631C234.944,-351.942 252.698,-339.384 266.893,-329.344"/>
<polygon fill="midnightblue" stroke="midnightblue" points="269.047,-332.107 275.19,-323.475 265.005,-326.392 269.047,-332.107"/>
</g>
<!-- Node4 -->
<g id="node7" class="node"><title>Node4</title>
<a xlink:href="error_8h.html" target="_top" xlink:title="fa/error.h">
<polygon fill="none" stroke="red" points="28.1614,-180.695 28.1614,-203.305 93.8386,-203.305 93.8386,-180.695 28.1614,-180.695"/>
<text text-anchor="middle" x="61" y="-188.305" font-family="Futura" font-size="11.00">fa/error.h</text>
</a>
</g>
<!-- Node1&#45;&gt;Node4 -->
<g id="edge54" class="edge"><title>Node1&#45;&gt;Node4</title>
<path fill="none" stroke="midnightblue" d="M194.91,-360.485C183.952,-351.384 168.195,-337.582 156,-324 122.734,-286.951 89.9952,-238.412 72.9983,-212.051"/>
<polygon fill="midnightblue" stroke="midnightblue" points="75.8087,-209.949 67.4767,-203.404 69.9091,-213.716 75.8087,-209.949"/>
</g>
<!-- Node5 -->
<g id="node10" class="node"><title>Node5</title>
<a xlink:href="pair_8h.html" target="_top" xlink:title="fa/pair.h">
<polygon fill="none" stroke="black" points="261.694,-60.6953 261.694,-83.3047 322.306,-83.3047 322.306,-60.6953 261.694,-60.6953"/>
<text text-anchor="middle" x="292" y="-68.3047" font-family="Futura" font-size="11.00">fa/pair.h</text>
</a>
</g>
<!-- Node1&#45;&gt;Node5 -->
<g id="edge44" class="edge"><title>Node1&#45;&gt;Node5</title>
<path fill="none" stroke="midnightblue" d="M259.641,-364.694C321.82,-353.884 418,-325.453 418,-253 418,-253 418,-253 418,-191 418,-140.854 364.175,-105.851 326.884,-87.6169"/>
<polygon fill="midnightblue" stroke="midnightblue" points="328.341,-84.4344 317.802,-83.3435 325.36,-90.7682 328.341,-84.4344"/>
</g>
<!-- Node6 -->
<g id="node16" class="node"><title>Node6</title>
<a xlink:href="time_8h.html" target="_top" xlink:title="fa/time.h">
<polygon fill="none" stroke="red" points="94.1567,-60.6953 94.1567,-83.3047 155.843,-83.3047 155.843,-60.6953 94.1567,-60.6953"/>
<text text-anchor="middle" x="125" y="-68.3047" font-family="Futura" font-size="11.00">fa/time.h</text>
</a>
</g>
<!-- Node1&#45;&gt;Node6 -->
<g id="edge52" class="edge"><title>Node1&#45;&gt;Node6</title>
<path fill="none" stroke="midnightblue" d="M156.317,-364.434C94.7152,-353.379 0,-324.721 0,-253 0,-253 0,-253 0,-191 0,-141.277 52.9467,-106.295 89.922,-87.9267"/>
<polygon fill="midnightblue" stroke="midnightblue" points="91.8854,-90.8678 99.4027,-83.4019 88.8703,-84.5504 91.8854,-90.8678"/>
</g>
<!-- Node8 -->
<g id="node21" class="node"><title>Node8</title>
<a xlink:href="action_8h.html" target="_top" xlink:title="fa/action.h">
<polygon fill="none" stroke="black" points="280.309,-180.695 280.309,-203.305 351.691,-203.305 351.691,-180.695 280.309,-180.695"/>
<text text-anchor="middle" x="316" y="-188.305" font-family="Futura" font-size="11.00">fa/action.h</text>
</a>
</g>
<!-- Node1&#45;&gt;Node8 -->
<g id="edge50" class="edge"><title>Node1&#45;&gt;Node8</title>
<path fill="none" stroke="midnightblue" d="M259.646,-363.921C284.069,-357.694 311.087,-345.992 326,-324 348.702,-290.521 335.152,-240.56 324.681,-213.019"/>
<polygon fill="midnightblue" stroke="midnightblue" points="327.887,-211.609 320.902,-203.643 321.394,-214.226 327.887,-211.609"/>
</g>
<!-- Node10 -->
<g id="node33" class="node"><title>Node10</title>
<a xlink:href="device_8h.html" target="_top" xlink:title="fa/device.h">
<polygon fill="none" stroke="black" points="171.38,-300.695 171.38,-323.305 244.62,-323.305 244.62,-300.695 171.38,-300.695"/>
<text text-anchor="middle" x="208" y="-308.305" font-family="Futura" font-size="11.00">fa/device.h</text>
</a>
</g>
<!-- Node1&#45;&gt;Node10 -->
<g id="edge46" class="edge"><title>Node1&#45;&gt;Node10</title>
<path fill="none" stroke="midnightblue" d="M208,-360.631C208,-353.218 208,-342.989 208,-333.91"/>
<polygon fill="midnightblue" stroke="midnightblue" points="211.5,-333.672 208,-323.672 204.5,-333.672 211.5,-333.672"/>
</g>
<!-- Node3 -->
<g id="node5" class="node"><title>Node3</title>
<a xlink:href="fa_2fa_8h.html" target="_top" xlink:title="fa.h">
<polygon fill="none" stroke="red" points="173.273,-240.695 173.273,-263.305 208.727,-263.305 208.727,-240.695 173.273,-240.695"/>
<text text-anchor="middle" x="191" y="-248.305" font-family="Futura" font-size="11.00">fa.h</text>
</a>
</g>
<!-- Node2&#45;&gt;Node3 -->
<g id="edge4" class="edge"><title>Node2&#45;&gt;Node3</title>
<path fill="none" stroke="midnightblue" d="M266.985,-300.631C250.421,-291.86 228.455,-279.147 212.3,-269.06"/>
<polygon fill="midnightblue" stroke="midnightblue" points="213.858,-265.903 203.545,-263.475 210.093,-271.804 213.858,-265.903"/>
</g>
<!-- Node3&#45;&gt;Node1 -->
<g id="edge18" class="edge"><title>Node3&#45;&gt;Node1</title>
<path fill="none" stroke="midnightblue" d="M181.286,-263.584C169.791,-277.457 153.249,-302.548 162,-324 166.803,-335.774 176.134,-346.199 185.143,-354.221"/>
<polygon fill="midnightblue" stroke="midnightblue" points="182.926,-356.93 192.856,-360.625 187.398,-351.544 182.926,-356.93"/>
</g>
<!-- Node3&#45;&gt;Node2 -->
<g id="edge16" class="edge"><title>Node3&#45;&gt;Node2</title>
<path fill="none" stroke="midnightblue" d="M208.877,-260.687C225.886,-269.426 251.088,-283.93 268.998,-295.126"/>
<polygon fill="midnightblue" stroke="midnightblue" points="267.305,-298.197 277.617,-300.631 271.073,-292.298 267.305,-298.197"/>
</g>
<!-- Node3&#45;&gt;Node4 -->
<g id="edge6" class="edge"><title>Node3&#45;&gt;Node4</title>
<path fill="none" stroke="midnightblue" d="M173.27,-245.011C151.159,-236.286 113.661,-219.802 88.0356,-207.722"/>
<polygon fill="midnightblue" stroke="midnightblue" points="89.3842,-204.488 78.8524,-203.334 86.3658,-210.804 89.3842,-204.488"/>
</g>
<!-- Node3&#45;&gt;Node5 -->
<g id="edge10" class="edge"><title>Node3&#45;&gt;Node5</title>
<path fill="none" stroke="midnightblue" d="M193.491,-240.661C205.801,-211.658 252.252,-129.222 276.958,-91.8409"/>
<polygon fill="midnightblue" stroke="midnightblue" points="279.994,-93.6015 282.737,-83.368 274.211,-89.6573 279.994,-93.6015"/>
</g>
<!-- Node3&#45;&gt;Node6 -->
<g id="edge20" class="edge"><title>Node3&#45;&gt;Node6</title>
<path fill="none" stroke="midnightblue" d="M183.791,-240.661C169.08,-212.027 138.782,-131.309 128.04,-93.2881"/>
<polygon fill="midnightblue" stroke="midnightblue" points="131.365,-92.1675 125.465,-83.368 124.59,-93.9266 131.365,-92.1675"/>
</g>
<!-- Node3&#45;&gt;Node8 -->
<g id="edge26" class="edge"><title>Node3&#45;&gt;Node8</title>
<path fill="none" stroke="midnightblue" d="M208.032,-240.631C226.23,-231.409 255.29,-217.829 278.753,-207.527"/>
<polygon fill="midnightblue" stroke="midnightblue" points="280.31,-210.667 288.09,-203.475 277.523,-204.245 280.31,-210.667"/>
</g>
<!-- Node9 -->
<g id="node26" class="node"><title>Node9</title>
<a xlink:href="signal_8h.html" target="_top" xlink:title="fa/signal.h">
<polygon fill="none" stroke="red" points="161.846,-120.695 161.846,-143.305 232.154,-143.305 232.154,-120.695 161.846,-120.695"/>
<text text-anchor="middle" x="197" y="-128.305" font-family="Futura" font-size="11.00">fa/signal.h</text>
</a>
</g>
<!-- Node3&#45;&gt;Node9 -->
<g id="edge42" class="edge"><title>Node3&#45;&gt;Node9</title>
<path fill="none" stroke="midnightblue" d="M187.486,-240.528C185.342,-221.071 187.07,-179.023 190.674,-153.656"/>
<polygon fill="midnightblue" stroke="midnightblue" points="194.154,-154.065 192.39,-143.618 187.254,-152.885 194.154,-154.065"/>
</g>
<!-- Node4&#45;&gt;Node3 -->
<g id="edge8" class="edge"><title>Node4&#45;&gt;Node3</title>
<path fill="none" stroke="midnightblue" d="M89.8135,-203.475C112.021,-212.647 142.319,-226.072 164.046,-236.316"/>
<polygon fill="midnightblue" stroke="midnightblue" points="162.543,-239.477 173.074,-240.631 165.561,-233.161 162.543,-239.477"/>
</g>
<!-- Node5&#45;&gt;Node2 -->
<g id="edge14" class="edge"><title>Node5&#45;&gt;Node2</title>
<path fill="none" stroke="midnightblue" d="M304.174,-83.6125C327.347,-105.171 374.272,-156.114 360,-204 349.625,-238.809 323.916,-272.833 306.713,-292.855"/>
<polygon fill="midnightblue" stroke="midnightblue" points="303.923,-290.727 299.931,-300.541 309.172,-295.359 303.923,-290.727"/>
</g>
<!-- Node5&#45;&gt;Node3 -->
<g id="edge12" class="edge"><title>Node5&#45;&gt;Node3</title>
<path fill="none" stroke="midnightblue" d="M289.497,-83.368C277.164,-112.405 230.71,-194.844 206.017,-232.196"/>
<polygon fill="midnightblue" stroke="midnightblue" points="202.987,-230.427 200.242,-240.661 208.769,-234.372 202.987,-230.427"/>
</g>
<!-- Node6&#45;&gt;Node3 -->
<g id="edge22" class="edge"><title>Node6&#45;&gt;Node3</title>
<path fill="none" stroke="midnightblue" d="M132.224,-83.368C146.945,-112.036 177.242,-192.757 187.971,-230.75"/>
<polygon fill="midnightblue" stroke="midnightblue" points="184.643,-231.86 190.542,-240.661 191.418,-230.102 184.643,-231.86"/>
</g>
<!-- Node7 -->
<g id="node19" class="node"><title>Node7</title>
<a xlink:href="ratio_8h.html" target="_top" xlink:title="fa/ratio.h">
<polygon fill="none" stroke="red" points="92.9268,-0.695312 92.9268,-23.3047 157.073,-23.3047 157.073,-0.695312 92.9268,-0.695312"/>
<text text-anchor="middle" x="125" y="-8.30469" font-family="Futura" font-size="11.00">fa/ratio.h</text>
</a>
</g>
<!-- Node6&#45;&gt;Node7 -->
<g id="edge24" class="edge"><title>Node6&#45;&gt;Node7</title>
<path fill="none" stroke="midnightblue" d="M125,-60.6308C125,-53.218 125,-42.9888 125,-33.9096"/>
<polygon fill="midnightblue" stroke="midnightblue" points="128.5,-33.6718 125,-23.6719 121.5,-33.6719 128.5,-33.6718"/>
</g>
<!-- Node8&#45;&gt;Node2 -->
<g id="edge32" class="edge"><title>Node8&#45;&gt;Node2</title>
<path fill="none" stroke="midnightblue" d="M313.66,-203.618C309.349,-223.187 300.08,-265.25 294.51,-290.534"/>
<polygon fill="midnightblue" stroke="midnightblue" points="291.041,-290.009 292.307,-300.528 297.877,-291.516 291.041,-290.009"/>
</g>
<!-- Node8&#45;&gt;Node3 -->
<g id="edge28" class="edge"><title>Node8&#45;&gt;Node3</title>
<path fill="none" stroke="midnightblue" d="M298.795,-203.457C277.876,-214.048 242.785,-230.323 218.232,-240.815"/>
<polygon fill="midnightblue" stroke="midnightblue" points="216.616,-237.698 208.748,-244.793 219.323,-244.153 216.616,-237.698"/>
</g>
<!-- Node8&#45;&gt;Node5 -->
<g id="edge30" class="edge"><title>Node8&#45;&gt;Node5</title>
<path fill="none" stroke="midnightblue" d="M313.87,-180.528C309.913,-161.071 301.361,-119.023 296.201,-93.6561"/>
<polygon fill="midnightblue" stroke="midnightblue" points="299.583,-92.7196 294.16,-83.6179 292.723,-94.1148 299.583,-92.7196"/>
</g>
<!-- Node8&#45;&gt;Node9 -->
<g id="edge34" class="edge"><title>Node8&#45;&gt;Node9</title>
<path fill="none" stroke="midnightblue" d="M294.725,-180.631C276.058,-171.532 248.685,-158.191 227.654,-147.941"/>
<polygon fill="midnightblue" stroke="midnightblue" points="229.014,-144.71 218.492,-143.475 225.948,-151.003 229.014,-144.71"/>
</g>
<!-- Node9&#45;&gt;Node3 -->
<g id="edge36" class="edge"><title>Node9&#45;&gt;Node3</title>
<path fill="none" stroke="midnightblue" d="M200.53,-143.618C202.654,-163.187 200.912,-205.25 197.299,-230.534"/>
<polygon fill="midnightblue" stroke="midnightblue" points="193.826,-230.08 195.579,-240.528 200.725,-231.267 193.826,-230.08"/>
</g>
<!-- Node9&#45;&gt;Node5 -->
<g id="edge38" class="edge"><title>Node9&#45;&gt;Node5</title>
<path fill="none" stroke="midnightblue" d="M213.984,-120.631C228.484,-111.778 249.563,-98.9089 266.156,-88.7784"/>
<polygon fill="midnightblue" stroke="midnightblue" points="268.131,-91.6732 274.843,-83.475 264.484,-85.6987 268.131,-91.6732"/>
</g>
<!-- Node9&#45;&gt;Node6 -->
<g id="edge40" class="edge"><title>Node9&#45;&gt;Node6</title>
<path fill="none" stroke="midnightblue" d="M184.128,-120.631C173.611,-112.159 158.528,-100.009 146.228,-90.1004"/>
<polygon fill="midnightblue" stroke="midnightblue" points="148.231,-87.2196 138.248,-83.6719 143.84,-92.6708 148.231,-87.2196"/>
</g>
<!-- Node10&#45;&gt;Node3 -->
<g id="edge48" class="edge"><title>Node10&#45;&gt;Node3</title>
<path fill="none" stroke="midnightblue" d="M204.961,-300.631C202.74,-293.055 199.658,-282.538 196.954,-273.313"/>
<polygon fill="midnightblue" stroke="midnightblue" points="200.299,-272.284 194.128,-263.672 193.582,-274.253 200.299,-272.284"/>
</g>
</g>
</svg>
