<?xml version="1.0" encoding="UTF-8" standalone="no"?>
<!DOCTYPE svg PUBLIC "-//W3C//DTD SVG 1.1//EN"
 "http://www.w3.org/Graphics/SVG/1.1/DTD/svg11.dtd">
<!-- Generated by graphviz version 2.28.0 (20121015.0031)
 -->
<!-- Title: src/fae/midi.c Pages: 1 -->
<svg width="589pt" height="212pt"
 viewBox="0.00 0.00 589.19 212.00" xmlns="http://www.w3.org/2000/svg" xmlns:xlink="http://www.w3.org/1999/xlink">
<g id="graph1" class="graph" transform="scale(1 1) rotate(0) translate(4 208)">
<title>src/fae/midi.c</title>
<!-- Node1 -->
<g id="node1" class="node"><title>Node1</title>
<polygon fill="#bfbfbf" stroke="black" points="299.867,-180.695 299.867,-203.305 386.513,-203.305 386.513,-180.695 299.867,-180.695"/>
<text text-anchor="middle" x="343.19" y="-188.305" font-family="Futura" font-size="11.00">src/fae/midi.c</text>
</g>
<!-- Node2 -->
<g id="node3" class="node"><title>Node2</title>
<a xlink:href="midi_8h.html" target="_top" xlink:title="fae/midi.h">
<polygon fill="none" stroke="red" points="79.1836,-120.695 79.1836,-143.305 147.197,-143.305 147.197,-120.695 79.1836,-120.695"/>
<text text-anchor="middle" x="113.19" y="-128.305" font-family="Futura" font-size="11.00">fae/midi.h</text>
</a>
</g>
<!-- Node1&#45;&gt;Node2 -->
<g id="edge2" class="edge"><title>Node1&#45;&gt;Node2</title>
<path fill="none" stroke="midnightblue" d="M301.954,-180.689C266.202,-171.737 212.799,-158.337 157.443,-144.311"/>
<polygon fill="midnightblue" stroke="midnightblue" points="158.008,-140.844 147.455,-141.779 156.288,-147.629 158.008,-140.844"/>
</g>
<!-- Node3 -->
<g id="node5" class="node"><title>Node3</title>
<a xlink:href="list_8h.html" target="_top" xlink:title="fae/list.h">
<polygon fill="none" stroke="red" points="206.096,-0.695312 206.096,-23.3047 266.284,-23.3047 266.284,-0.695312 206.096,-0.695312"/>
<text text-anchor="middle" x="236.19" y="-8.30469" font-family="Futura" font-size="11.00">fae/list.h</text>
</a>
</g>
<!-- Node1&#45;&gt;Node3 -->
<g id="edge18" class="edge"><title>Node1&#45;&gt;Node3</title>
<path fill="none" stroke="midnightblue" d="M339.17,-180.632C330.077,-157.792 306.507,-101.843 278.19,-60 271.219,-49.6981 262.158,-39.2782 254.237,-30.8763"/>
<polygon fill="midnightblue" stroke="midnightblue" points="256.57,-28.2548 247.098,-23.5089 251.543,-33.1261 256.57,-28.2548"/>
</g>
<!-- Node7 -->
<g id="node14" class="node"><title>Node7</title>
<a xlink:href="message_8h.html" target="_top" xlink:title="fae/midi/message.h">
<polygon fill="none" stroke="red" points="164.845,-120.695 164.845,-143.305 281.536,-143.305 281.536,-120.695 164.845,-120.695"/>
<text text-anchor="middle" x="223.19" y="-128.305" font-family="Futura" font-size="11.00">fae/midi/message.h</text>
</a>
</g>
<!-- Node1&#45;&gt;Node7 -->
<g id="edge14" class="edge"><title>Node1&#45;&gt;Node7</title>
<path fill="none" stroke="midnightblue" d="M321.737,-180.631C302.912,-171.532 275.309,-158.191 254.102,-147.941"/>
<polygon fill="midnightblue" stroke="midnightblue" points="255.39,-144.676 244.863,-143.475 252.343,-150.978 255.39,-144.676"/>
</g>
<!-- Node8 -->
<g id="node18" class="node"><title>Node8</title>
<a xlink:href="thread_8h.html" target="_top" xlink:title="fae/thread.h">
<polygon fill="none" stroke="red" points="337.283,-120.695 337.283,-143.305 417.097,-143.305 417.097,-120.695 337.283,-120.695"/>
<text text-anchor="middle" x="377.19" y="-128.305" font-family="Futura" font-size="11.00">fae/thread.h</text>
</a>
</g>
<!-- Node1&#45;&gt;Node8 -->
<g id="edge20" class="edge"><title>Node1&#45;&gt;Node8</title>
<path fill="none" stroke="midnightblue" d="M349.269,-180.631C353.853,-172.811 360.275,-161.856 365.804,-152.424"/>
<polygon fill="midnightblue" stroke="midnightblue" points="368.897,-154.069 370.935,-143.672 362.858,-150.529 368.897,-154.069"/>
</g>
<!-- Node9 -->
<g id="node20" class="node"><title>Node9</title>
<a xlink:href="util_8h.html" target="_top" xlink:title="fae/util.h">
<polygon fill="none" stroke="red" points="435.331,-120.695 435.331,-143.305 497.05,-143.305 497.05,-120.695 435.331,-120.695"/>
<text text-anchor="middle" x="466.19" y="-128.305" font-family="Futura" font-size="11.00">fae/util.h</text>
</a>
</g>
<!-- Node1&#45;&gt;Node9 -->
<g id="edge22" class="edge"><title>Node1&#45;&gt;Node9</title>
<path fill="none" stroke="midnightblue" d="M365.18,-180.631C384.562,-171.491 413.024,-158.071 434.799,-147.802"/>
<polygon fill="midnightblue" stroke="midnightblue" points="436.424,-150.906 443.976,-143.475 433.439,-144.574 436.424,-150.906"/>
</g>
<!-- Node10 -->
<g id="node22" class="node"><title>Node10</title>
<polygon fill="none" stroke="#bfbfbf" points="514.726,-120.695 514.726,-143.305 581.655,-143.305 581.655,-120.695 514.726,-120.695"/>
<text text-anchor="middle" x="548.19" y="-128.305" font-family="Futura" font-size="11.00">portmidi.h</text>
</g>
<!-- Node1&#45;&gt;Node10 -->
<g id="edge24" class="edge"><title>Node1&#45;&gt;Node10</title>
<path fill="none" stroke="midnightblue" d="M379.84,-180.631C414.79,-170.743 467.452,-155.843 504.552,-145.347"/>
<polygon fill="midnightblue" stroke="midnightblue" points="505.906,-148.601 514.576,-142.511 504,-141.865 505.906,-148.601"/>
</g>
<!-- Node2&#45;&gt;Node3 -->
<g id="edge4" class="edge"><title>Node2&#45;&gt;Node3</title>
<path fill="none" stroke="midnightblue" d="M79.0497,-122.871C39.2401,-111.798 -18.1992,-89.8777 6.19048,-60 29.6525,-31.2587 136.079,-19.6261 195.593,-15.3044"/>
<polygon fill="midnightblue" stroke="midnightblue" points="196.041,-18.7818 205.777,-14.6028 195.56,-11.7984 196.041,-18.7818"/>
</g>
<!-- Node4 -->
<g id="node7" class="node"><title>Node4</title>
<a xlink:href="pair_8h.html" target="_top" xlink:title="fae/pair.h">
<polygon fill="none" stroke="red" points="202.842,-60.6953 202.842,-83.3047 269.539,-83.3047 269.539,-60.6953 202.842,-60.6953"/>
<text text-anchor="middle" x="236.19" y="-68.3047" font-family="Futura" font-size="11.00">fae/pair.h</text>
</a>
</g>
<!-- Node2&#45;&gt;Node4 -->
<g id="edge6" class="edge"><title>Node2&#45;&gt;Node4</title>
<path fill="none" stroke="midnightblue" d="M135.18,-120.631C154.562,-111.491 183.024,-98.0705 204.799,-87.8023"/>
<polygon fill="midnightblue" stroke="midnightblue" points="206.424,-90.9058 213.976,-83.475 203.439,-84.5744 206.424,-90.9058"/>
</g>
<!-- Node5 -->
<g id="node10" class="node"><title>Node5</title>
<a xlink:href="device_8h.html" target="_top" xlink:title="fae/device.h">
<polygon fill="none" stroke="red" points="15.5279,-60.6953 15.5279,-83.3047 94.8531,-83.3047 94.8531,-60.6953 15.5279,-60.6953"/>
<text text-anchor="middle" x="55.1905" y="-68.3047" font-family="Futura" font-size="11.00">fae/device.h</text>
</a>
</g>
<!-- Node2&#45;&gt;Node5 -->
<g id="edge10" class="edge"><title>Node2&#45;&gt;Node5</title>
<path fill="none" stroke="midnightblue" d="M102.821,-120.631C94.5939,-112.403 82.8971,-100.707 73.1538,-90.9633"/>
<polygon fill="midnightblue" stroke="midnightblue" points="75.4083,-88.2681 65.8623,-83.6719 70.4586,-93.2179 75.4083,-88.2681"/>
</g>
<!-- Node6 -->
<g id="node12" class="node"><title>Node6</title>
<a xlink:href="error_8h.html" target="_top" xlink:title="fae/error.h">
<polygon fill="none" stroke="red" points="113.309,-60.6953 113.309,-83.3047 185.072,-83.3047 185.072,-60.6953 113.309,-60.6953"/>
<text text-anchor="middle" x="149.19" y="-68.3047" font-family="Futura" font-size="11.00">fae/error.h</text>
</a>
</g>
<!-- Node2&#45;&gt;Node6 -->
<g id="edge12" class="edge"><title>Node2&#45;&gt;Node6</title>
<path fill="none" stroke="midnightblue" d="M119.627,-120.631C124.48,-112.811 131.28,-101.856 137.134,-92.4241"/>
<polygon fill="midnightblue" stroke="midnightblue" points="140.267,-94.0141 142.567,-83.6719 134.319,-90.3225 140.267,-94.0141"/>
</g>
<!-- Node4&#45;&gt;Node3 -->
<g id="edge8" class="edge"><title>Node4&#45;&gt;Node3</title>
<path fill="none" stroke="midnightblue" d="M236.19,-60.6308C236.19,-53.218 236.19,-42.9888 236.19,-33.9096"/>
<polygon fill="midnightblue" stroke="midnightblue" points="239.691,-33.6718 236.19,-23.6719 232.691,-33.6719 239.691,-33.6718"/>
</g>
<!-- Node7&#45;&gt;Node4 -->
<g id="edge16" class="edge"><title>Node7&#45;&gt;Node4</title>
<path fill="none" stroke="midnightblue" d="M225.515,-120.631C227.194,-113.137 229.519,-102.764 231.571,-93.6107"/>
<polygon fill="midnightblue" stroke="midnightblue" points="235.027,-94.1953 233.799,-83.6719 228.196,-92.6643 235.027,-94.1953"/>
</g>
</g>
</svg>
