<?xml version="1.0" encoding="UTF-8" standalone="no"?>
<!DOCTYPE svg PUBLIC "-//W3C//DTD SVG 1.1//EN"
 "http://www.w3.org/Graphics/SVG/1.1/DTD/svg11.dtd">
<!-- Generated by graphviz version 2.28.0 (20121015.0031)
 -->
<!-- Title: include/fae/pair.h Pages: 1 -->
<svg width="861pt" height="212pt"
 viewBox="0.00 0.00 861.00 212.00" xmlns="http://www.w3.org/2000/svg" xmlns:xlink="http://www.w3.org/1999/xlink">
<g id="graph1" class="graph" transform="scale(1 1) rotate(0) translate(4 208)">
<title>include/fae/pair.h</title>
<!-- Node1 -->
<g id="node1" class="node"><title>Node1</title>
<polygon fill="#bfbfbf" stroke="black" points="347.088,-180.695 347.088,-203.305 454.912,-203.305 454.912,-180.695 347.088,-180.695"/>
<text text-anchor="middle" x="401" y="-188.305" font-family="Futura" font-size="11.00">include/fae/pair.h</text>
</g>
<!-- Node2 -->
<g id="node3" class="node"><title>Node2</title>
<a xlink:href="audio_8h.html" target="_top" xlink:title="include/fae/audio.h">
<polygon fill="none" stroke="red" points="-0.450684,-120.695 -0.450684,-143.305 116.451,-143.305 116.451,-120.695 -0.450684,-120.695"/>
<text text-anchor="middle" x="58" y="-128.305" font-family="Futura" font-size="11.00">include/fae/audio.h</text>
</a>
</g>
<!-- Node1&#45;&gt;Node2 -->
<g id="edge2" class="edge"><title>Node1&#45;&gt;Node2</title>
<path fill="none" stroke="midnightblue" d="M336.779,-180.141C273.528,-169.445 177.743,-153.248 116.535,-142.898"/>
<polygon fill="midnightblue" stroke="midnightblue" points="336.585,-183.657 347.029,-181.874 337.752,-176.755 336.585,-183.657"/>
</g>
<!-- Node3 -->
<g id="node5" class="node"><title>Node3</title>
<a xlink:href="buffer_8h.html" target="_top" xlink:title="include/fae/buffer.h">
<polygon fill="none" stroke="red" points="172.184,-60.6953 172.184,-83.3047 289.816,-83.3047 289.816,-60.6953 172.184,-60.6953"/>
<text text-anchor="middle" x="231" y="-68.3047" font-family="Futura" font-size="11.00">include/fae/buffer.h</text>
</a>
</g>
<!-- Node1&#45;&gt;Node3 -->
<g id="edge4" class="edge"><title>Node1&#45;&gt;Node3</title>
<path fill="none" stroke="midnightblue" d="M336.52,-184.473C284.66,-177.735 217.768,-165.165 201,-144 186.209,-125.33 206.49,-98.2973 220.223,-83.5575"/>
<polygon fill="midnightblue" stroke="midnightblue" points="336.316,-187.975 346.673,-185.744 337.185,-181.029 336.316,-187.975"/>
</g>
<!-- Node4 -->
<g id="node7" class="node"><title>Node4</title>
<a xlink:href="message_8h.html" target="_top" xlink:title="include/fae/midi/message.h">
<polygon fill="none" stroke="red" points="108.091,-0.695312 108.091,-23.3047 265.909,-23.3047 265.909,-0.695312 108.091,-0.695312"/>
<text text-anchor="middle" x="187" y="-8.30469" font-family="Futura" font-size="11.00">include/fae/midi/message.h</text>
</a>
</g>
<!-- Node1&#45;&gt;Node4 -->
<g id="edge12" class="edge"><title>Node1&#45;&gt;Node4</title>
<path fill="none" stroke="midnightblue" d="M336.707,-182.762C283.844,-174.88 214.167,-161.594 192,-144 161.064,-119.446 153.763,-98.4002 163,-60 166.214,-46.6381 173.901,-32.7985 179.716,-23.6285"/>
<polygon fill="midnightblue" stroke="midnightblue" points="336.301,-186.24 346.701,-184.218 337.311,-179.313 336.301,-186.24"/>
</g>
<!-- Node5 -->
<g id="node9" class="node"><title>Node5</title>
<a xlink:href="graph_8h.html" target="_top" xlink:title="include/fae/graph.h">
<polygon fill="none" stroke="red" points="209.894,-120.695 209.894,-143.305 328.106,-143.305 328.106,-120.695 209.894,-120.695"/>
<text text-anchor="middle" x="269" y="-128.305" font-family="Futura" font-size="11.00">include/fae/graph.h</text>
</a>
</g>
<!-- Node1&#45;&gt;Node5 -->
<g id="edge8" class="edge"><title>Node1&#45;&gt;Node5</title>
<path fill="none" stroke="midnightblue" d="M368.207,-176.591C344.817,-166.314 313.902,-152.73 292.84,-143.475"/>
<polygon fill="midnightblue" stroke="midnightblue" points="366.838,-179.812 377.401,-180.631 369.654,-173.404 366.838,-179.812"/>
</g>
<!-- Node6 -->
<g id="node11" class="node"><title>Node6</title>
<a xlink:href="map_8h.html" target="_top" xlink:title="include/fae/map.h">
<polygon fill="none" stroke="red" points="345.871,-120.695 345.871,-143.305 456.129,-143.305 456.129,-120.695 345.871,-120.695"/>
<text text-anchor="middle" x="401" y="-128.305" font-family="Futura" font-size="11.00">include/fae/map.h</text>
</a>
</g>
<!-- Node1&#45;&gt;Node6 -->
<g id="edge10" class="edge"><title>Node1&#45;&gt;Node6</title>
<path fill="none" stroke="midnightblue" d="M401,-170.459C401,-161.411 401,-151.16 401,-143.672"/>
<polygon fill="midnightblue" stroke="midnightblue" points="397.5,-170.631 401,-180.631 404.5,-170.631 397.5,-170.631"/>
</g>
<!-- Node7 -->
<g id="node14" class="node"><title>Node7</title>
<a xlink:href="midi_8h.html" target="_top" xlink:title="include/fae/midi.h">
<polygon fill="none" stroke="red" points="474.43,-120.695 474.43,-143.305 583.57,-143.305 583.57,-120.695 474.43,-120.695"/>
<text text-anchor="middle" x="529" y="-128.305" font-family="Futura" font-size="11.00">include/fae/midi.h</text>
</a>
</g>
<!-- Node1&#45;&gt;Node7 -->
<g id="edge14" class="edge"><title>Node1&#45;&gt;Node7</title>
<path fill="none" stroke="midnightblue" d="M433.102,-176.454C455.747,-166.193 485.55,-152.688 505.883,-143.475"/>
<polygon fill="midnightblue" stroke="midnightblue" points="431.548,-173.315 423.884,-180.631 434.437,-179.691 431.548,-173.315"/>
</g>
<!-- Node8 -->
<g id="node16" class="node"><title>Node8</title>
<a xlink:href="signal_8h.html" target="_top" xlink:title="include/fae/signal.h">
<polygon fill="none" stroke="red" points="639.24,-60.6953 639.24,-83.3047 756.76,-83.3047 756.76,-60.6953 639.24,-60.6953"/>
<text text-anchor="middle" x="698" y="-68.3047" font-family="Futura" font-size="11.00">include/fae/signal.h</text>
</a>
</g>
<!-- Node1&#45;&gt;Node8 -->
<g id="edge16" class="edge"><title>Node1&#45;&gt;Node8</title>
<path fill="none" stroke="midnightblue" d="M465.195,-191.064C548.939,-189.622 688.626,-181.477 721,-144 736.246,-126.351 718.682,-98.4195 706.909,-83.3907"/>
<polygon fill="midnightblue" stroke="midnightblue" points="464.968,-187.567 455.02,-191.211 465.07,-194.566 464.968,-187.567"/>
</g>
<!-- Node9 -->
<g id="node18" class="node"><title>Node9</title>
<a xlink:href="type_8h.html" target="_top" xlink:title="include/fae/type.h">
<polygon fill="none" stroke="red" points="601.984,-120.695 601.984,-143.305 712.016,-143.305 712.016,-120.695 601.984,-120.695"/>
<text text-anchor="middle" x="657" y="-128.305" font-family="Futura" font-size="11.00">include/fae/type.h</text>
</a>
</g>
<!-- Node1&#45;&gt;Node9 -->
<g id="edge18" class="edge"><title>Node1&#45;&gt;Node9</title>
<path fill="none" stroke="midnightblue" d="M456.629,-178.396C502.881,-167.918 567.909,-153.185 611.198,-143.377"/>
<polygon fill="midnightblue" stroke="midnightblue" points="455.747,-175.008 446.768,-180.631 457.294,-181.835 455.747,-175.008"/>
</g>
<!-- Node10 -->
<g id="node22" class="node"><title>Node10</title>
<a xlink:href="pair_8c.html" target="_top" xlink:title="src/fae/pair.c">
<polygon fill="none" stroke="black" points="768.335,-120.695 768.335,-143.305 853.665,-143.305 853.665,-120.695 768.335,-120.695"/>
<text text-anchor="middle" x="811" y="-128.305" font-family="Futura" font-size="11.00">src/fae/pair.c</text>
</a>
</g>
<!-- Node1&#45;&gt;Node10 -->
<g id="edge24" class="edge"><title>Node1&#45;&gt;Node10</title>
<path fill="none" stroke="midnightblue" d="M465.076,-183.607C535.932,-175.167 653.382,-160.393 754,-144 758.576,-143.255 763.347,-142.422 768.097,-141.557"/>
<polygon fill="midnightblue" stroke="midnightblue" points="464.486,-180.152 454.968,-184.806 465.31,-187.104 464.486,-180.152"/>
</g>
<!-- Node3&#45;&gt;Node4 -->
<g id="edge6" class="edge"><title>Node3&#45;&gt;Node4</title>
<path fill="none" stroke="midnightblue" d="M216.983,-52.5233C209.762,-43.0047 201.214,-31.7362 195.096,-23.6719"/>
<polygon fill="midnightblue" stroke="midnightblue" points="214.301,-54.7792 223.134,-60.6308 219.878,-50.5485 214.301,-54.7792"/>
</g>
<!-- Node9&#45;&gt;Node3 -->
<g id="edge20" class="edge"><title>Node9&#45;&gt;Node3</title>
<path fill="none" stroke="midnightblue" d="M591.492,-119.971C478.5,-103.195 359.317,-88.3367 289.873,-79.9647"/>
<polygon fill="midnightblue" stroke="midnightblue" points="591.297,-123.48 601.705,-121.495 592.331,-116.557 591.297,-123.48"/>
</g>
<!-- Node9&#45;&gt;Node8 -->
<g id="edge22" class="edge"><title>Node9&#45;&gt;Node8</title>
<path fill="none" stroke="midnightblue" d="M670.268,-112.231C676.952,-102.775 684.814,-91.6539 690.456,-83.6719"/>
<polygon fill="midnightblue" stroke="midnightblue" points="667.244,-110.445 664.33,-120.631 672.96,-114.485 667.244,-110.445"/>
</g>
</g>
</svg>
