<?xml version="1.0" encoding="UTF-8" standalone="no"?>
<!DOCTYPE svg PUBLIC "-//W3C//DTD SVG 1.1//EN"
 "http://www.w3.org/Graphics/SVG/1.1/DTD/svg11.dtd">
<!-- Generated by graphviz version 2.28.0 (20121015.0031)
 -->
<!-- Title: include/fa/pair.h Pages: 1 -->
<svg width="676pt" height="332pt"
 viewBox="0.00 0.00 676.00 332.00" xmlns="http://www.w3.org/2000/svg" xmlns:xlink="http://www.w3.org/1999/xlink">
<g id="graph1" class="graph" transform="scale(1 1) rotate(0) translate(4 328)">
<title>include/fa/pair.h</title>
<!-- Node1 -->
<g id="node1" class="node"><title>Node1</title>
<polygon fill="#bfbfbf" stroke="black" points="164.131,-300.695 164.131,-323.305 265.869,-323.305 265.869,-300.695 164.131,-300.695"/>
<text text-anchor="middle" x="215" y="-308.305" font-family="Futura" font-size="11.00">include/fa/pair.h</text>
</g>
<!-- Node2 -->
<g id="node3" class="node"><title>Node2</title>
<a xlink:href="action_8h.html" target="_top" xlink:title="include/fa/action.h">
<polygon fill="none" stroke="black" points="342.746,-240.695 342.746,-263.305 455.254,-263.305 455.254,-240.695 342.746,-240.695"/>
<text text-anchor="middle" x="399" y="-248.305" font-family="Futura" font-size="11.00">include/fa/action.h</text>
</a>
</g>
<!-- Node1&#45;&gt;Node2 -->
<g id="edge2" class="edge"><title>Node1&#45;&gt;Node2</title>
<path fill="none" stroke="midnightblue" d="M257.731,-297.53C290.763,-287.118 335.813,-272.917 366.08,-263.377"/>
<polygon fill="midnightblue" stroke="midnightblue" points="256.381,-294.286 247.896,-300.631 258.485,-300.962 256.381,-294.286"/>
</g>
<!-- Node3 -->
<g id="node5" class="node"><title>Node3</title>
<a xlink:href="audio_8h.html" target="_top" xlink:title="include/fa/audio.h">
<polygon fill="none" stroke="black" points="251.592,-180.695 251.592,-203.305 362.408,-203.305 362.408,-180.695 251.592,-180.695"/>
<text text-anchor="middle" x="307" y="-188.305" font-family="Futura" font-size="11.00">include/fa/audio.h</text>
</a>
</g>
<!-- Node1&#45;&gt;Node3 -->
<g id="edge40" class="edge"><title>Node1&#45;&gt;Node3</title>
<path fill="none" stroke="midnightblue" d="M229.395,-292.537C248.892,-267.53 283.054,-223.714 298.722,-203.618"/>
<polygon fill="midnightblue" stroke="midnightblue" points="226.553,-290.49 223.164,-300.528 232.073,-294.794 226.553,-290.49"/>
</g>
<!-- Node4 -->
<g id="node7" class="node"><title>Node4</title>
<a xlink:href="fa_2fa_8h.html" target="_top" xlink:title="include/fa/fa.h">
<polygon fill="none" stroke="red" points="252.846,-120.695 252.846,-143.305 345.154,-143.305 345.154,-120.695 252.846,-120.695"/>
<text text-anchor="middle" x="299" y="-128.305" font-family="Futura" font-size="11.00">include/fa/fa.h</text>
</a>
</g>
<!-- Node1&#45;&gt;Node4 -->
<g id="edge44" class="edge"><title>Node1&#45;&gt;Node4</title>
<path fill="none" stroke="midnightblue" d="M209.21,-290.429C207.639,-263.286 213.02,-214.875 234,-180 243.291,-164.556 259.505,-151.784 273.639,-143.472"/>
<polygon fill="midnightblue" stroke="midnightblue" points="205.758,-291.078 210.283,-300.659 212.72,-290.348 205.758,-291.078"/>
</g>
<!-- Node5 -->
<g id="node10" class="node"><title>Node5</title>
<a xlink:href="buffer_8h.html" target="_top" xlink:title="include/fa/buffer.h">
<polygon fill="none" stroke="black" points="28.2268,-60.6953 28.2268,-83.3047 139.773,-83.3047 139.773,-60.6953 28.2268,-60.6953"/>
<text text-anchor="middle" x="84" y="-68.3047" font-family="Futura" font-size="11.00">include/fa/buffer.h</text>
</a>
</g>
<!-- Node1&#45;&gt;Node5 -->
<g id="edge42" class="edge"><title>Node1&#45;&gt;Node5</title>
<path fill="none" stroke="midnightblue" d="M187.821,-294.994C176.085,-286.946 163.01,-276.285 154,-264 110.139,-204.195 91.1334,-113.981 85.7196,-83.4917"/>
<polygon fill="midnightblue" stroke="midnightblue" points="186.158,-298.088 196.446,-300.623 189.985,-292.226 186.158,-298.088"/>
</g>
<!-- Node6 -->
<g id="node12" class="node"><title>Node6</title>
<a xlink:href="message_8h.html" target="_top" xlink:title="include/fa/midi/message.h">
<polygon fill="none" stroke="black" points="8.13354,-0.695312 8.13354,-23.3047 159.866,-23.3047 159.866,-0.695312 8.13354,-0.695312"/>
<text text-anchor="middle" x="84" y="-8.30469" font-family="Futura" font-size="11.00">include/fa/midi/message.h</text>
</a>
</g>
<!-- Node1&#45;&gt;Node6 -->
<g id="edge48" class="edge"><title>Node1&#45;&gt;Node6</title>
<path fill="none" stroke="midnightblue" d="M154.095,-303.732C90.5247,-292.352 0,-263.729 0,-193 0,-193 0,-193 0,-131 0,-98.3341 0.471566,-86.9028 19,-60 30.0583,-43.9436 48.4613,-31.3925 62.8685,-23.3148"/>
<polygon fill="midnightblue" stroke="midnightblue" points="153.605,-307.199 164.048,-305.415 154.771,-300.297 153.605,-307.199"/>
</g>
<!-- Node7 -->
<g id="node15" class="node"><title>Node7</title>
<a xlink:href="signal_8h.html" target="_top" xlink:title="include/fa/signal.h">
<polygon fill="none" stroke="black" points="207.283,-0.695312 207.283,-23.3047 318.717,-23.3047 318.717,-0.695312 207.283,-0.695312"/>
<text text-anchor="middle" x="263" y="-8.30469" font-family="Futura" font-size="11.00">include/fa/signal.h</text>
</a>
</g>
<!-- Node1&#45;&gt;Node7 -->
<g id="edge52" class="edge"><title>Node1&#45;&gt;Node7</title>
<path fill="none" stroke="midnightblue" d="M202.157,-291.889C188.241,-269.288 168,-230.046 168,-193 168,-193 168,-193 168,-131 168,-81.8186 218.691,-41.5252 246.016,-23.3774"/>
<polygon fill="midnightblue" stroke="midnightblue" points="199.325,-293.956 207.656,-300.501 205.224,-290.189 199.325,-293.956"/>
</g>
<!-- Node9 -->
<g id="node23" class="node"><title>Node9</title>
<a xlink:href="midi_8h.html" target="_top" xlink:title="include/fa/midi.h">
<polygon fill="none" stroke="black" points="371.473,-0.695312 371.473,-23.3047 474.527,-23.3047 474.527,-0.695312 371.473,-0.695312"/>
<text text-anchor="middle" x="423" y="-8.30469" font-family="Futura" font-size="11.00">include/fa/midi.h</text>
</a>
</g>
<!-- Node1&#45;&gt;Node9 -->
<g id="edge50" class="edge"><title>Node1&#45;&gt;Node9</title>
<path fill="none" stroke="midnightblue" d="M276.163,-307.837C399.844,-299.766 668,-273.036 668,-193 668,-193 668,-193 668,-131 668,-95.4167 659.191,-81.7129 631,-60 585.978,-25.3237 520.165,-15.3339 474.68,-12.8933"/>
<polygon fill="midnightblue" stroke="midnightblue" points="275.843,-304.351 266.084,-308.475 276.285,-311.337 275.843,-304.351"/>
</g>
<!-- Node10 -->
<g id="node26" class="node"><title>Node10</title>
<a xlink:href="map_8h.html" target="_top" xlink:title="include/fa/map.h">
<polygon fill="none" stroke="red" points="497.914,-60.6953 497.914,-83.3047 602.086,-83.3047 602.086,-60.6953 497.914,-60.6953"/>
<text text-anchor="middle" x="550" y="-68.3047" font-family="Futura" font-size="11.00">include/fa/map.h</text>
</a>
</g>
<!-- Node1&#45;&gt;Node10 -->
<g id="edge46" class="edge"><title>Node1&#45;&gt;Node10</title>
<path fill="none" stroke="midnightblue" d="M276.022,-305.938C340.101,-299.516 435.459,-286.479 464,-264 524.566,-216.297 543.798,-116.616 548.619,-83.7599"/>
<polygon fill="midnightblue" stroke="midnightblue" points="275.635,-302.459 266.021,-306.912 276.313,-309.426 275.635,-302.459"/>
</g>
<!-- Node2&#45;&gt;Node3 -->
<g id="edge4" class="edge"><title>Node2&#45;&gt;Node3</title>
<path fill="none" stroke="midnightblue" d="M373.717,-235.061C357.752,-224.996 337.578,-212.277 323.616,-203.475"/>
<polygon fill="midnightblue" stroke="midnightblue" points="372.226,-238.258 382.552,-240.631 375.96,-232.337 372.226,-238.258"/>
</g>
<!-- Node2&#45;&gt;Node4 -->
<g id="edge38" class="edge"><title>Node2&#45;&gt;Node4</title>
<path fill="none" stroke="midnightblue" d="M387.211,-230.811C381.474,-215.583 374.11,-194.852 362,-180 348.888,-163.919 328.788,-151.445 314.595,-143.401"/>
<polygon fill="midnightblue" stroke="midnightblue" points="384.041,-232.312 390.962,-240.334 390.554,-229.747 384.041,-232.312"/>
</g>
<!-- Node3&#45;&gt;Node4 -->
<g id="edge6" class="edge"><title>Node3&#45;&gt;Node4</title>
<path fill="none" stroke="midnightblue" d="M304.167,-170.459C302.919,-161.411 301.505,-151.16 300.472,-143.672"/>
<polygon fill="midnightblue" stroke="midnightblue" points="300.736,-171.203 305.57,-180.631 307.67,-170.246 300.736,-171.203"/>
</g>
<!-- Node4&#45;&gt;Node1 -->
<g id="edge34" class="edge"><title>Node4&#45;&gt;Node1</title>
<path fill="none" stroke="midnightblue" d="M280.395,-149.787C270.513,-157.708 259.186,-168.055 252,-180 228.023,-219.858 224.42,-277.394 219.7,-300.659"/>
<polygon fill="midnightblue" stroke="midnightblue" points="282.795,-152.356 288.567,-143.472 278.514,-146.818 282.795,-152.356"/>
</g>
<!-- Node4&#45;&gt;Node2 -->
<g id="edge8" class="edge"><title>Node4&#45;&gt;Node2</title>
<path fill="none" stroke="midnightblue" d="M338.735,-147.937C353.491,-155.839 369.141,-166.683 380,-180 394.905,-198.279 402.619,-225.464 402.911,-240.334"/>
<polygon fill="midnightblue" stroke="midnightblue" points="340.22,-144.766 329.714,-143.401 337.076,-151.02 340.22,-144.766"/>
</g>
<!-- Node4&#45;&gt;Node5 -->
<g id="edge10" class="edge"><title>Node4&#45;&gt;Node5</title>
<path fill="none" stroke="midnightblue" d="M250.56,-117.932C211.837,-107.486 158.289,-93.0409 122.467,-83.3771"/>
<polygon fill="midnightblue" stroke="midnightblue" points="249.996,-121.405 260.562,-120.631 251.819,-114.647 249.996,-121.405"/>
</g>
<!-- Node4&#45;&gt;Node7 -->
<g id="edge36" class="edge"><title>Node4&#45;&gt;Node7</title>
<path fill="none" stroke="midnightblue" d="M287.767,-111.21C277.681,-86.0067 265.046,-43.3628 262.169,-23.6179"/>
<polygon fill="midnightblue" stroke="midnightblue" points="284.604,-112.714 291.758,-120.528 291.038,-109.958 284.604,-112.714"/>
</g>
<!-- Node8 -->
<g id="node20" class="node"><title>Node8</title>
<a xlink:href="device_8h.html" target="_top" xlink:title="include/fa/device.h">
<polygon fill="none" stroke="black" points="365.817,-60.6953 365.817,-83.3047 480.183,-83.3047 480.183,-60.6953 365.817,-60.6953"/>
<text text-anchor="middle" x="423" y="-68.3047" font-family="Futura" font-size="11.00">include/fa/device.h</text>
</a>
</g>
<!-- Node4&#45;&gt;Node8 -->
<g id="edge24" class="edge"><title>Node4&#45;&gt;Node8</title>
<path fill="none" stroke="midnightblue" d="M330.393,-116.316C352.294,-106.072 380.995,-92.6474 400.605,-83.475"/>
<polygon fill="midnightblue" stroke="midnightblue" points="328.744,-113.224 321.169,-120.631 331.71,-119.564 328.744,-113.224"/>
</g>
<!-- Node4&#45;&gt;Node10 -->
<g id="edge32" class="edge"><title>Node4&#45;&gt;Node10</title>
<path fill="none" stroke="midnightblue" d="M353.828,-118.33C399.158,-107.856 462.738,-93.1642 505.092,-83.3771"/>
<polygon fill="midnightblue" stroke="midnightblue" points="352.829,-114.969 343.874,-120.631 354.405,-121.789 352.829,-114.969"/>
</g>
<!-- Node5&#45;&gt;Node6 -->
<g id="edge12" class="edge"><title>Node5&#45;&gt;Node6</title>
<path fill="none" stroke="midnightblue" d="M84,-50.4586C84,-41.4112 84,-31.1602 84,-23.6719"/>
<polygon fill="midnightblue" stroke="midnightblue" points="80.5001,-50.6307 84,-60.6308 87.5001,-50.6308 80.5001,-50.6307"/>
</g>
<!-- Node5&#45;&gt;Node7 -->
<g id="edge16" class="edge"><title>Node5&#45;&gt;Node7</title>
<path fill="none" stroke="midnightblue" d="M125.57,-57.5304C157.704,-47.1183 201.53,-32.9175 230.974,-23.3771"/>
<polygon fill="midnightblue" stroke="midnightblue" points="124.436,-54.2187 116.002,-60.6308 126.594,-60.8778 124.436,-54.2187"/>
</g>
<!-- Node6&#45;&gt;Node4 -->
<g id="edge14" class="edge"><title>Node6&#45;&gt;Node4</title>
<path fill="none" stroke="midnightblue" d="M111.847,-28.2837C156.218,-52.6361 241.83,-99.6228 279.92,-120.528"/>
<polygon fill="midnightblue" stroke="midnightblue" points="113.488,-25.1914 103.037,-23.4482 110.12,-31.3279 113.488,-25.1914"/>
</g>
<!-- Node7&#45;&gt;Node2 -->
<g id="edge18" class="edge"><title>Node7&#45;&gt;Node2</title>
<path fill="none" stroke="midnightblue" d="M328.719,-20.7754C428.289,-32.7086 606.382,-54.7161 611,-60 678.078,-136.746 500.392,-213.506 428.051,-240.683"/>
<polygon fill="midnightblue" stroke="midnightblue" points="329.094,-17.2953 318.749,-19.5826 328.262,-24.2457 329.094,-17.2953"/>
</g>
<!-- Node7&#45;&gt;Node3 -->
<g id="edge20" class="edge"><title>Node7&#45;&gt;Node3</title>
<path fill="none" stroke="midnightblue" d="M253.217,-32.9374C241.589,-59.6621 225.899,-107.912 244,-144 252.321,-160.589 269.581,-172.816 283.934,-180.635"/>
<polygon fill="midnightblue" stroke="midnightblue" points="256.553,-34.0599 257.544,-23.5115 250.191,-31.1394 256.553,-34.0599"/>
</g>
<!-- Node7&#45;&gt;Node4 -->
<g id="edge22" class="edge"><title>Node7&#45;&gt;Node4</title>
<path fill="none" stroke="midnightblue" d="M274.308,-32.9777C284.407,-58.2668 297.024,-100.897 299.852,-120.528"/>
<polygon fill="midnightblue" stroke="midnightblue" points="277.457,-31.4389 270.31,-23.6179 271.02,-34.1889 277.457,-31.4389"/>
</g>
<!-- Node8&#45;&gt;Node3 -->
<g id="edge26" class="edge"><title>Node8&#45;&gt;Node3</title>
<path fill="none" stroke="midnightblue" d="M405.719,-90.9227C391.805,-105.32 371.716,-126.029 354,-144 341.524,-156.655 327.05,-171.093 317.497,-180.589"/>
<polygon fill="midnightblue" stroke="midnightblue" points="408.331,-93.2564 412.76,-83.6314 403.296,-88.394 408.331,-93.2564"/>
</g>
<!-- Node8&#45;&gt;Node9 -->
<g id="edge28" class="edge"><title>Node8&#45;&gt;Node9</title>
<path fill="none" stroke="midnightblue" d="M423,-50.4586C423,-41.4112 423,-31.1602 423,-23.6719"/>
<polygon fill="midnightblue" stroke="midnightblue" points="419.5,-50.6307 423,-60.6308 426.5,-50.6308 419.5,-50.6307"/>
</g>
<!-- Node9&#45;&gt;Node4 -->
<g id="edge30" class="edge"><title>Node9&#45;&gt;Node4</title>
<path fill="none" stroke="midnightblue" d="M397.056,-29.1266C384.366,-37.584 369.231,-48.5523 357,-60 336.315,-79.3598 316.355,-106.123 306.111,-120.635"/>
<polygon fill="midnightblue" stroke="midnightblue" points="399.317,-31.8308 405.787,-23.4411 395.497,-25.9647 399.317,-31.8308"/>
</g>
</g>
</svg>
