<?xml version="1.0" encoding="UTF-8" standalone="no"?>
<!DOCTYPE svg PUBLIC "-//W3C//DTD SVG 1.1//EN"
 "http://www.w3.org/Graphics/SVG/1.1/DTD/svg11.dtd">
<!-- Generated by graphviz version 2.28.0 (20121015.0031)
 -->
<!-- Title: src/fae/pair.c Pages: 1 -->
<svg width="563pt" height="212pt"
 viewBox="0.00 0.00 562.59 212.00" xmlns="http://www.w3.org/2000/svg" xmlns:xlink="http://www.w3.org/1999/xlink">
<g id="graph1" class="graph" transform="scale(1 1) rotate(0) translate(4 208)">
<title>src/fae/pair.c</title>
<!-- Node1 -->
<g id="node1" class="node"><title>Node1</title>
<polygon fill="#bfbfbf" stroke="black" points="108.926,-180.695 108.926,-203.305 194.256,-203.305 194.256,-180.695 108.926,-180.695"/>
<text text-anchor="middle" x="151.591" y="-188.305" font-family="Futura" font-size="11.00">src/fae/pair.c</text>
</g>
<!-- Node2 -->
<g id="node3" class="node"><title>Node2</title>
<a xlink:href="pair_8h.html" target="_top" xlink:title="fae/pair.h">
<polygon fill="none" stroke="black" points="9.24209,-120.695 9.24209,-143.305 75.9398,-143.305 75.9398,-120.695 9.24209,-120.695"/>
<text text-anchor="middle" x="42.591" y="-128.305" font-family="Futura" font-size="11.00">fae/pair.h</text>
</a>
</g>
<!-- Node1&#45;&gt;Node2 -->
<g id="edge2" class="edge"><title>Node1&#45;&gt;Node2</title>
<path fill="none" stroke="midnightblue" d="M132.104,-180.631C115.159,-171.614 90.3834,-158.431 71.1911,-148.218"/>
<polygon fill="midnightblue" stroke="midnightblue" points="72.7489,-145.083 62.2768,-143.475 69.4607,-151.262 72.7489,-145.083"/>
</g>
<!-- Node5 -->
<g id="node10" class="node"><title>Node5</title>
<a xlink:href="dynamic_8h.html" target="_top" xlink:title="fae/dynamic.h">
<polygon fill="none" stroke="black" points="107.03,-120.695 107.03,-143.305 196.152,-143.305 196.152,-120.695 107.03,-120.695"/>
<text text-anchor="middle" x="151.591" y="-128.305" font-family="Futura" font-size="11.00">fae/dynamic.h</text>
</a>
</g>
<!-- Node1&#45;&gt;Node5 -->
<g id="edge10" class="edge"><title>Node1&#45;&gt;Node5</title>
<path fill="none" stroke="midnightblue" d="M151.591,-180.631C151.591,-173.218 151.591,-162.989 151.591,-153.91"/>
<polygon fill="midnightblue" stroke="midnightblue" points="155.091,-153.672 151.591,-143.672 148.091,-153.672 155.091,-153.672"/>
</g>
<!-- Node7 -->
<g id="node16" class="node"><title>Node7</title>
<a xlink:href="util_8h.html" target="_top" xlink:title="fae/util.h">
<polygon fill="none" stroke="red" points="291.732,-120.695 291.732,-143.305 353.45,-143.305 353.45,-120.695 291.732,-120.695"/>
<text text-anchor="middle" x="322.591" y="-128.305" font-family="Futura" font-size="11.00">fae/util.h</text>
</a>
</g>
<!-- Node1&#45;&gt;Node7 -->
<g id="edge18" class="edge"><title>Node1&#45;&gt;Node7</title>
<path fill="none" stroke="midnightblue" d="M182.162,-180.631C210.161,-171.134 251.789,-157.015 282.456,-146.613"/>
<polygon fill="midnightblue" stroke="midnightblue" points="283.651,-149.904 291.996,-143.377 281.402,-143.275 283.651,-149.904"/>
</g>
<!-- Node3 -->
<g id="node5" class="node"><title>Node3</title>
<a xlink:href="fae_2fae_8h.html" target="_top" xlink:title="fae.h">
<polygon fill="none" stroke="red" points="50.8212,-0.695312 50.8212,-23.3047 92.3607,-23.3047 92.3607,-0.695312 50.8212,-0.695312"/>
<text text-anchor="middle" x="71.591" y="-8.30469" font-family="Futura" font-size="11.00">fae.h</text>
</a>
</g>
<!-- Node2&#45;&gt;Node3 -->
<g id="edge4" class="edge"><title>Node2&#45;&gt;Node3</title>
<path fill="none" stroke="midnightblue" d="M29.6519,-120.483C14.3271,-106.683 -7.7743,-81.6712 3.59097,-60 11.683,-44.5701 27.3935,-33.2047 41.6765,-25.5189"/>
<polygon fill="midnightblue" stroke="midnightblue" points="43.3711,-28.585 50.7619,-20.9938 40.2503,-22.3191 43.3711,-28.585"/>
</g>
<!-- Node4 -->
<g id="node7" class="node"><title>Node4</title>
<a xlink:href="list_8h.html" target="_top" xlink:title="fae/list.h">
<polygon fill="none" stroke="black" points="12.497,-60.6953 12.497,-83.3047 72.685,-83.3047 72.685,-60.6953 12.497,-60.6953"/>
<text text-anchor="middle" x="42.591" y="-68.3047" font-family="Futura" font-size="11.00">fae/list.h</text>
</a>
</g>
<!-- Node2&#45;&gt;Node4 -->
<g id="edge6" class="edge"><title>Node2&#45;&gt;Node4</title>
<path fill="none" stroke="midnightblue" d="M42.591,-120.631C42.591,-113.218 42.591,-102.989 42.591,-93.9096"/>
<polygon fill="midnightblue" stroke="midnightblue" points="46.0911,-93.6718 42.591,-83.6719 39.0911,-93.6719 46.0911,-93.6718"/>
</g>
<!-- Node4&#45;&gt;Node3 -->
<g id="edge8" class="edge"><title>Node4&#45;&gt;Node3</title>
<path fill="none" stroke="midnightblue" d="M47.7756,-60.6308C51.6449,-52.8921 57.0489,-42.0841 61.7313,-32.7193"/>
<polygon fill="midnightblue" stroke="midnightblue" points="64.9133,-34.1814 66.255,-23.6719 58.6523,-31.0509 64.9133,-34.1814"/>
</g>
<!-- Node5&#45;&gt;Node3 -->
<g id="edge12" class="edge"><title>Node5&#45;&gt;Node3</title>
<path fill="none" stroke="midnightblue" d="M144.464,-120.553C137.972,-111.033 128.126,-96.58 119.591,-84 107.668,-66.4256 94.1184,-46.3769 84.463,-32.0764"/>
<polygon fill="midnightblue" stroke="midnightblue" points="87.2323,-29.9231 78.7365,-23.5928 81.4303,-33.8394 87.2323,-29.9231"/>
</g>
<!-- Node6 -->
<g id="node13" class="node"><title>Node6</title>
<a xlink:href="string_8h.html" target="_top" xlink:title="fae/string.h">
<polygon fill="none" stroke="black" points="128.418,-60.6953 128.418,-83.3047 202.764,-83.3047 202.764,-60.6953 128.418,-60.6953"/>
<text text-anchor="middle" x="165.591" y="-68.3047" font-family="Futura" font-size="11.00">fae/string.h</text>
</a>
</g>
<!-- Node5&#45;&gt;Node6 -->
<g id="edge14" class="edge"><title>Node5&#45;&gt;Node6</title>
<path fill="none" stroke="midnightblue" d="M154.094,-120.631C155.903,-113.137 158.407,-102.764 160.616,-93.6107"/>
<polygon fill="midnightblue" stroke="midnightblue" points="164.071,-94.214 163.015,-83.6719 157.266,-92.5714 164.071,-94.214"/>
</g>
<!-- Node6&#45;&gt;Node3 -->
<g id="edge16" class="edge"><title>Node6&#45;&gt;Node3</title>
<path fill="none" stroke="midnightblue" d="M148.786,-60.6308C134.438,-51.7782 113.581,-38.9089 97.1628,-28.7784"/>
<polygon fill="midnightblue" stroke="midnightblue" points="98.916,-25.7475 88.5677,-23.475 95.2402,-31.7048 98.916,-25.7475"/>
</g>
<!-- Node8 -->
<g id="node18" class="node"><title>Node8</title>
<a xlink:href="arch_8h.html" target="_top" xlink:title="fae/util/arch.h">
<polygon fill="none" stroke="black" points="220.796,-60.6953 220.796,-83.3047 310.386,-83.3047 310.386,-60.6953 220.796,-60.6953"/>
<text text-anchor="middle" x="265.591" y="-68.3047" font-family="Futura" font-size="11.00">fae/util/arch.h</text>
</a>
</g>
<!-- Node7&#45;&gt;Node8 -->
<g id="edge20" class="edge"><title>Node7&#45;&gt;Node8</title>
<path fill="none" stroke="midnightblue" d="M312.401,-120.631C304.315,-112.403 292.82,-100.707 283.245,-90.9633"/>
<polygon fill="midnightblue" stroke="midnightblue" points="285.584,-88.3509 276.079,-83.6719 280.592,-93.2575 285.584,-88.3509"/>
</g>
<!-- Node9 -->
<g id="node20" class="node"><title>Node9</title>
<a xlink:href="alignof_8h.html" target="_top" xlink:title="fae/util/alignof.h">
<polygon fill="none" stroke="black" points="328.598,-60.6953 328.598,-83.3047 430.584,-83.3047 430.584,-60.6953 328.598,-60.6953"/>
<text text-anchor="middle" x="379.591" y="-68.3047" font-family="Futura" font-size="11.00">fae/util/alignof.h</text>
</a>
</g>
<!-- Node7&#45;&gt;Node9 -->
<g id="edge22" class="edge"><title>Node7&#45;&gt;Node9</title>
<path fill="none" stroke="midnightblue" d="M332.781,-120.631C340.867,-112.403 352.362,-100.707 361.937,-90.9633"/>
<polygon fill="midnightblue" stroke="midnightblue" points="364.59,-93.2575 369.103,-83.6719 359.597,-88.3509 364.59,-93.2575"/>
</g>
<!-- Node10 -->
<g id="node22" class="node"><title>Node10</title>
<a xlink:href="minmax_8h.html" target="_top" xlink:title="fae/util/minmax.h">
<polygon fill="none" stroke="red" points="448.428,-60.6953 448.428,-83.3047 554.754,-83.3047 554.754,-60.6953 448.428,-60.6953"/>
<text text-anchor="middle" x="501.591" y="-68.3047" font-family="Futura" font-size="11.00">fae/util/minmax.h</text>
</a>
</g>
<!-- Node7&#45;&gt;Node10 -->
<g id="edge24" class="edge"><title>Node7&#45;&gt;Node10</title>
<path fill="none" stroke="midnightblue" d="M353.77,-120.897C383.181,-111.367 427.475,-97.0152 459.908,-86.5061"/>
<polygon fill="midnightblue" stroke="midnightblue" points="461.129,-89.7897 469.564,-83.3776 458.972,-83.1305 461.129,-89.7897"/>
</g>
</g>
</svg>
