<?xml version="1.0" encoding="UTF-8" standalone="no"?>
<!DOCTYPE svg PUBLIC "-//W3C//DTD SVG 1.1//EN"
 "http://www.w3.org/Graphics/SVG/1.1/DTD/svg11.dtd">
<!-- Generated by graphviz version 2.28.0 (20121015.0031)
 -->
<!-- Title: include/fa/pair.h Pages: 1 -->
<svg width="834pt" height="152pt"
 viewBox="0.00 0.00 834.00 152.00" xmlns="http://www.w3.org/2000/svg" xmlns:xlink="http://www.w3.org/1999/xlink">
<g id="graph1" class="graph" transform="scale(1 1) rotate(0) translate(4 148)">
<title>include/fa/pair.h</title>
<!-- Node1 -->
<g id="node1" class="node"><title>Node1</title>
<polygon fill="#bfbfbf" stroke="black" points="570.131,-120.695 570.131,-143.305 671.869,-143.305 671.869,-120.695 570.131,-120.695"/>
<text text-anchor="middle" x="621" y="-128.305" font-family="Futura" font-size="11.00">include/fa/pair.h</text>
</g>
<!-- Node2 -->
<g id="node3" class="node"><title>Node2</title>
<a xlink:href="fa_2fa_8h.html" target="_top" xlink:title="fa.h">
<polygon fill="none" stroke="red" points="603.273,-60.6953 603.273,-83.3047 638.727,-83.3047 638.727,-60.6953 603.273,-60.6953"/>
<text text-anchor="middle" x="621" y="-68.3047" font-family="Futura" font-size="11.00">fa.h</text>
</a>
</g>
<!-- Node1&#45;&gt;Node2 -->
<g id="edge2" class="edge"><title>Node1&#45;&gt;Node2</title>
<path fill="none" stroke="midnightblue" d="M615.684,-120.631C614.323,-113.137 613.931,-102.764 614.508,-93.6107"/>
<polygon fill="midnightblue" stroke="midnightblue" points="617.986,-94.0015 615.63,-83.6719 611.03,-93.2159 617.986,-94.0015"/>
</g>
<!-- Node10 -->
<g id="node21" class="node"><title>Node10</title>
<a xlink:href="list_8h.html" target="_top" xlink:title="fa/list.h">
<polygon fill="none" stroke="black" points="771.949,-0.695312 771.949,-23.3047 826.051,-23.3047 826.051,-0.695312 771.949,-0.695312"/>
<text text-anchor="middle" x="799" y="-8.30469" font-family="Futura" font-size="11.00">fa/list.h</text>
</a>
</g>
<!-- Node1&#45;&gt;Node10 -->
<g id="edge26" class="edge"><title>Node1&#45;&gt;Node10</title>
<path fill="none" stroke="midnightblue" d="M636.796,-120.528C667.936,-99.8852 737.437,-53.8116 774.546,-29.2113"/>
<polygon fill="midnightblue" stroke="midnightblue" points="776.838,-31.8909 783.239,-23.4482 772.97,-26.0564 776.838,-31.8909"/>
</g>
<!-- Node2&#45;&gt;Node1 -->
<g id="edge18" class="edge"><title>Node2&#45;&gt;Node1</title>
<path fill="none" stroke="midnightblue" d="M626.37,-83.6719C627.691,-91.1602 628.064,-101.411 627.488,-110.459"/>
<polygon fill="midnightblue" stroke="midnightblue" points="623.984,-110.296 626.316,-120.631 630.938,-111.097 623.984,-110.296"/>
</g>
<!-- Node3 -->
<g id="node5" class="node"><title>Node3</title>
<polygon fill="none" stroke="#bfbfbf" points="-0.0629883,-0.695312 -0.0629883,-23.3047 74.063,-23.3047 74.063,-0.695312 -0.0629883,-0.695312"/>
<text text-anchor="middle" x="37" y="-8.30469" font-family="Futura" font-size="11.00">fa/atomic.h</text>
</g>
<!-- Node2&#45;&gt;Node3 -->
<g id="edge4" class="edge"><title>Node2&#45;&gt;Node3</title>
<path fill="none" stroke="midnightblue" d="M603.235,-70.4003C536.371,-67.9455 293.435,-57.2435 84.2481,-24.0095"/>
<polygon fill="midnightblue" stroke="midnightblue" points="84.7424,-20.544 74.3132,-22.4098 83.6296,-27.455 84.7424,-20.544"/>
</g>
<!-- Node4 -->
<g id="node7" class="node"><title>Node4</title>
<polygon fill="none" stroke="#bfbfbf" points="91.6484,-0.695312 91.6484,-23.3047 202.352,-23.3047 202.352,-0.695312 91.6484,-0.695312"/>
<text text-anchor="middle" x="147" y="-8.30469" font-family="Futura" font-size="11.00">fa/atomic/queue.h</text>
</g>
<!-- Node2&#45;&gt;Node4 -->
<g id="edge6" class="edge"><title>Node2&#45;&gt;Node4</title>
<path fill="none" stroke="midnightblue" d="M602.97,-69.2976C546.815,-63.9193 369.895,-46.399 212.791,-24.1992"/>
<polygon fill="midnightblue" stroke="midnightblue" points="212.866,-20.6747 202.473,-22.7302 211.88,-27.6049 212.866,-20.6747"/>
</g>
<!-- Node5 -->
<g id="node9" class="node"><title>Node5</title>
<polygon fill="none" stroke="#bfbfbf" points="220.42,-0.695312 220.42,-23.3047 325.58,-23.3047 325.58,-0.695312 220.42,-0.695312"/>
<text text-anchor="middle" x="273" y="-8.30469" font-family="Futura" font-size="11.00">fa/atomic/stack.h</text>
</g>
<!-- Node2&#45;&gt;Node5 -->
<g id="edge8" class="edge"><title>Node2&#45;&gt;Node5</title>
<path fill="none" stroke="midnightblue" d="M603.248,-68.1633C559.675,-61.1831 443.741,-42.509 335.837,-24.1275"/>
<polygon fill="midnightblue" stroke="midnightblue" points="336.204,-20.6395 325.757,-22.4072 335.026,-27.5397 336.204,-20.6395"/>
</g>
<!-- Node6 -->
<g id="node11" class="node"><title>Node6</title>
<polygon fill="none" stroke="#bfbfbf" points="343.526,-0.695312 343.526,-23.3047 478.474,-23.3047 478.474,-0.695312 343.526,-0.695312"/>
<text text-anchor="middle" x="411" y="-8.30469" font-family="Futura" font-size="11.00">fa/atomic/ring_buffer.h</text>
</g>
<!-- Node2&#45;&gt;Node6 -->
<g id="edge10" class="edge"><title>Node2&#45;&gt;Node6</title>
<path fill="none" stroke="midnightblue" d="M603.096,-66.055C571.308,-57.2754 504.05,-38.6995 458.182,-26.0312"/>
<polygon fill="midnightblue" stroke="midnightblue" points="459.024,-22.6328 448.453,-23.3442 457.16,-29.3802 459.024,-22.6328"/>
</g>
<!-- Node7 -->
<g id="node13" class="node"><title>Node7</title>
<polygon fill="none" stroke="#bfbfbf" points="496.026,-0.695312 496.026,-23.3047 569.974,-23.3047 569.974,-0.695312 496.026,-0.695312"/>
<text text-anchor="middle" x="533" y="-8.30469" font-family="Futura" font-size="11.00">fa/system.h</text>
</g>
<!-- Node2&#45;&gt;Node7 -->
<g id="edge12" class="edge"><title>Node2&#45;&gt;Node7</title>
<path fill="none" stroke="midnightblue" d="M605.267,-60.6308C591.96,-51.8601 572.671,-39.1468 557.368,-29.0605"/>
<polygon fill="midnightblue" stroke="midnightblue" points="559.169,-26.0558 548.893,-23.475 555.317,-31.9006 559.169,-26.0558"/>
</g>
<!-- Node8 -->
<g id="node15" class="node"><title>Node8</title>
<a xlink:href="error_8h.html" target="_top" xlink:title="fa/error.h">
<polygon fill="none" stroke="red" points="588.161,-0.695312 588.161,-23.3047 653.839,-23.3047 653.839,-0.695312 588.161,-0.695312"/>
<text text-anchor="middle" x="621" y="-8.30469" font-family="Futura" font-size="11.00">fa/error.h</text>
</a>
</g>
<!-- Node2&#45;&gt;Node8 -->
<g id="edge14" class="edge"><title>Node2&#45;&gt;Node8</title>
<path fill="none" stroke="midnightblue" d="M615.684,-60.6308C614.323,-53.1365 613.931,-42.7636 614.508,-33.6107"/>
<polygon fill="midnightblue" stroke="midnightblue" points="617.986,-34.0015 615.63,-23.6719 611.03,-33.2159 617.986,-34.0015"/>
</g>
<!-- Node9 -->
<g id="node19" class="node"><title>Node9</title>
<polygon fill="none" stroke="#bfbfbf" points="671.804,-0.695312 671.804,-23.3047 754.196,-23.3047 754.196,-0.695312 671.804,-0.695312"/>
<text text-anchor="middle" x="713" y="-8.30469" font-family="Futura" font-size="11.00">fa/pair/left.h</text>
</g>
<!-- Node2&#45;&gt;Node9 -->
<g id="edge20" class="edge"><title>Node2&#45;&gt;Node9</title>
<path fill="none" stroke="midnightblue" d="M637.448,-60.6308C651.36,-51.8601 671.526,-39.1468 687.525,-29.0605"/>
<polygon fill="midnightblue" stroke="midnightblue" points="689.792,-31.7688 696.384,-23.475 686.059,-25.8473 689.792,-31.7688"/>
</g>
<!-- Node2&#45;&gt;Node10 -->
<g id="edge22" class="edge"><title>Node2&#45;&gt;Node10</title>
<path fill="none" stroke="midnightblue" d="M638.871,-63.6543C667.676,-53.4409 724.36,-34.9021 762.059,-23.3083"/>
<polygon fill="midnightblue" stroke="midnightblue" points="763.132,-26.6404 771.678,-20.3775 761.092,-19.9443 763.132,-26.6404"/>
</g>
<!-- Node8&#45;&gt;Node2 -->
<g id="edge16" class="edge"><title>Node8&#45;&gt;Node2</title>
<path fill="none" stroke="midnightblue" d="M626.37,-23.6719C627.691,-31.1602 628.064,-41.4112 627.488,-50.4586"/>
<polygon fill="midnightblue" stroke="midnightblue" points="623.984,-50.2958 626.316,-60.6308 630.938,-51.0972 623.984,-50.2958"/>
</g>
<!-- Node10&#45;&gt;Node2 -->
<g id="edge24" class="edge"><title>Node10&#45;&gt;Node2</title>
<path fill="none" stroke="midnightblue" d="M772.378,-23.409C738.978,-34.9741 682.347,-53.3589 648.524,-63.5617"/>
<polygon fill="midnightblue" stroke="midnightblue" points="647.399,-60.2447 638.81,-66.4488 649.393,-66.9546 647.399,-60.2447"/>
</g>
</g>
</svg>
