<?xml version="1.0" encoding="UTF-8" standalone="no"?>
<!DOCTYPE svg PUBLIC "-//W3C//DTD SVG 1.1//EN"
 "http://www.w3.org/Graphics/SVG/1.1/DTD/svg11.dtd">
<!-- Generated by graphviz version 2.28.0 (20121015.0031)
 -->
<!-- Title: include/fa/pair.h Pages: 1 -->
<svg width="643pt" height="332pt"
 viewBox="0.00 0.00 642.85 332.00" xmlns="http://www.w3.org/2000/svg" xmlns:xlink="http://www.w3.org/1999/xlink">
<g id="graph1" class="graph" transform="scale(1 1) rotate(0) translate(4 328)">
<title>include/fa/pair.h</title>
<!-- Node1 -->
<g id="node1" class="node"><title>Node1</title>
<polygon fill="#bfbfbf" stroke="black" points="340.131,-300.695 340.131,-323.305 441.869,-323.305 441.869,-300.695 340.131,-300.695"/>
<text text-anchor="middle" x="391" y="-308.305" font-family="Futura" font-size="11.00">include/fa/pair.h</text>
</g>
<!-- Node2 -->
<g id="node3" class="node"><title>Node2</title>
<a xlink:href="action_8h.html" target="_top" xlink:title="include/fa/action.h">
<polygon fill="none" stroke="black" points="156.746,-240.695 156.746,-263.305 269.254,-263.305 269.254,-240.695 156.746,-240.695"/>
<text text-anchor="middle" x="213" y="-248.305" font-family="Futura" font-size="11.00">include/fa/action.h</text>
</a>
</g>
<!-- Node1&#45;&gt;Node2 -->
<g id="edge2" class="edge"><title>Node1&#45;&gt;Node2</title>
<path fill="none" stroke="midnightblue" d="M349.662,-297.53C317.708,-287.118 274.126,-272.917 244.847,-263.377"/>
<polygon fill="midnightblue" stroke="midnightblue" points="348.585,-300.86 359.177,-300.631 350.754,-294.205 348.585,-300.86"/>
</g>
<!-- Node3 -->
<g id="node5" class="node"><title>Node3</title>
<a xlink:href="audio_8h.html" target="_top" xlink:title="include/fa/audio.h">
<polygon fill="none" stroke="black" points="27.592,-180.695 27.592,-203.305 138.408,-203.305 138.408,-180.695 27.592,-180.695"/>
<text text-anchor="middle" x="83" y="-188.305" font-family="Futura" font-size="11.00">include/fa/audio.h</text>
</a>
</g>
<!-- Node1&#45;&gt;Node3 -->
<g id="edge40" class="edge"><title>Node1&#45;&gt;Node3</title>
<path fill="none" stroke="midnightblue" d="M329.604,-309.701C278.157,-306.228 204.302,-295.513 148,-264 121.313,-249.063 99.5651,-219.2 89.3319,-203.384"/>
<polygon fill="midnightblue" stroke="midnightblue" points="329.713,-313.214 339.905,-310.321 330.133,-306.227 329.713,-313.214"/>
</g>
<!-- Node4 -->
<g id="node7" class="node"><title>Node4</title>
<a xlink:href="fa_2fa_8h.html" target="_top" xlink:title="include/fa/fa.h">
<polygon fill="none" stroke="red" points="254.846,-120.695 254.846,-143.305 347.154,-143.305 347.154,-120.695 254.846,-120.695"/>
<text text-anchor="middle" x="301" y="-128.305" font-family="Futura" font-size="11.00">include/fa/fa.h</text>
</a>
</g>
<!-- Node1&#45;&gt;Node4 -->
<g id="edge44" class="edge"><title>Node1&#45;&gt;Node4</title>
<path fill="none" stroke="midnightblue" d="M384.625,-290.652C380.436,-263.422 374.961,-214.559 353,-180 342.962,-164.203 325.659,-151.627 313.512,-143.474"/>
<polygon fill="midnightblue" stroke="midnightblue" points="381.187,-291.314 386.322,-300.581 388.087,-290.135 381.187,-291.314"/>
</g>
<!-- Node5 -->
<g id="node10" class="node"><title>Node5</title>
<a xlink:href="buffer_8h.html" target="_top" xlink:title="include/fa/buffer.h">
<polygon fill="none" stroke="black" points="334.227,-60.6953 334.227,-83.3047 445.773,-83.3047 445.773,-60.6953 334.227,-60.6953"/>
<text text-anchor="middle" x="390" y="-68.3047" font-family="Futura" font-size="11.00">include/fa/buffer.h</text>
</a>
</g>
<!-- Node1&#45;&gt;Node5 -->
<g id="edge42" class="edge"><title>Node1&#45;&gt;Node5</title>
<path fill="none" stroke="midnightblue" d="M400.883,-291.407C404.516,-283.165 408.184,-273.336 410,-264 423.239,-195.926 401.762,-112.382 393.242,-83.4468"/>
<polygon fill="midnightblue" stroke="midnightblue" points="397.679,-289.995 396.595,-300.534 404.015,-292.971 397.679,-289.995"/>
</g>
<!-- Node6 -->
<g id="node12" class="node"><title>Node6</title>
<a xlink:href="message_8h.html" target="_top" xlink:title="include/fa/midi/message.h">
<polygon fill="none" stroke="black" points="398.134,-0.695312 398.134,-23.3047 549.866,-23.3047 549.866,-0.695312 398.134,-0.695312"/>
<text text-anchor="middle" x="474" y="-8.30469" font-family="Futura" font-size="11.00">include/fa/midi/message.h</text>
</a>
</g>
<!-- Node1&#45;&gt;Node6 -->
<g id="edge48" class="edge"><title>Node1&#45;&gt;Node6</title>
<path fill="none" stroke="midnightblue" d="M452.27,-307.284C524.256,-299.215 634,-273.684 634,-193 634,-193 634,-193 634,-131 634,-98.3341 637.392,-83.7838 615,-60 597.489,-41.4007 572.435,-30.1579 548.291,-23.3633"/>
<polygon fill="midnightblue" stroke="midnightblue" points="451.528,-303.842 441.941,-308.352 452.248,-310.805 451.528,-303.842"/>
</g>
<!-- Node7 -->
<g id="node15" class="node"><title>Node7</title>
<a xlink:href="signal_8h.html" target="_top" xlink:title="include/fa/signal.h">
<polygon fill="none" stroke="black" points="154.283,-0.695312 154.283,-23.3047 265.717,-23.3047 265.717,-0.695312 154.283,-0.695312"/>
<text text-anchor="middle" x="210" y="-8.30469" font-family="Futura" font-size="11.00">include/fa/signal.h</text>
</a>
</g>
<!-- Node1&#45;&gt;Node7 -->
<g id="edge52" class="edge"><title>Node1&#45;&gt;Node7</title>
<path fill="none" stroke="midnightblue" d="M329.916,-305.327C219.951,-293.412 0,-261.072 0,-193 0,-193 0,-193 0,-131 0,-60.1155 92.0617,-31.3677 154.275,-20.0334"/>
<polygon fill="midnightblue" stroke="midnightblue" points="329.57,-308.809 339.884,-306.383 330.308,-301.848 329.57,-308.809"/>
</g>
<!-- Node9 -->
<g id="node23" class="node"><title>Node9</title>
<a xlink:href="map_8h.html" target="_top" xlink:title="include/fa/map.h">
<polygon fill="none" stroke="red" points="501.914,-60.6953 501.914,-83.3047 606.086,-83.3047 606.086,-60.6953 501.914,-60.6953"/>
<text text-anchor="middle" x="554" y="-68.3047" font-family="Futura" font-size="11.00">include/fa/map.h</text>
</a>
</g>
<!-- Node1&#45;&gt;Node9 -->
<g id="edge46" class="edge"><title>Node1&#45;&gt;Node9</title>
<path fill="none" stroke="midnightblue" d="M405.131,-292.469C411.593,-283.881 419.289,-273.496 426,-264 473.921,-196.197 528.47,-112.484 547.242,-83.4754"/>
<polygon fill="midnightblue" stroke="midnightblue" points="402.179,-290.569 398.935,-300.655 407.761,-294.794 402.179,-290.569"/>
</g>
<!-- Node10 -->
<g id="node28" class="node"><title>Node10</title>
<a xlink:href="midi_8h.html" target="_top" xlink:title="include/fa/midi.h">
<polygon fill="none" stroke="black" points="250.473,-180.695 250.473,-203.305 353.527,-203.305 353.527,-180.695 250.473,-180.695"/>
<text text-anchor="middle" x="302" y="-188.305" font-family="Futura" font-size="11.00">include/fa/midi.h</text>
</a>
</g>
<!-- Node1&#45;&gt;Node10 -->
<g id="edge50" class="edge"><title>Node1&#45;&gt;Node10</title>
<path fill="none" stroke="midnightblue" d="M377.075,-292.537C358.213,-267.53 325.166,-223.714 310.008,-203.618"/>
<polygon fill="midnightblue" stroke="midnightblue" points="374.286,-294.652 383.102,-300.528 379.874,-290.437 374.286,-294.652"/>
</g>
<!-- Node2&#45;&gt;Node3 -->
<g id="edge4" class="edge"><title>Node2&#45;&gt;Node3</title>
<path fill="none" stroke="midnightblue" d="M180.396,-236.454C157.398,-226.193 127.129,-212.688 106.478,-203.475"/>
<polygon fill="midnightblue" stroke="midnightblue" points="179.2,-239.753 189.759,-240.631 182.052,-233.36 179.2,-239.753"/>
</g>
<!-- Node2&#45;&gt;Node4 -->
<g id="edge34" class="edge"><title>Node2&#45;&gt;Node4</title>
<path fill="none" stroke="midnightblue" d="M210.564,-230.223C213.381,-215.232 220.761,-195.064 232,-180 243.394,-164.728 260.954,-151.766 275.74,-143.347"/>
<polygon fill="midnightblue" stroke="midnightblue" points="207.046,-230.158 209.312,-240.508 213.995,-231.004 207.046,-230.158"/>
</g>
<!-- Node2&#45;&gt;Node10 -->
<g id="edge36" class="edge"><title>Node2&#45;&gt;Node10</title>
<path fill="none" stroke="midnightblue" d="M237.458,-235.061C252.903,-224.996 272.42,-212.277 285.926,-203.475"/>
<polygon fill="midnightblue" stroke="midnightblue" points="235.378,-232.239 228.911,-240.631 239.2,-238.103 235.378,-232.239"/>
</g>
<!-- Node3&#45;&gt;Node4 -->
<g id="edge6" class="edge"><title>Node3&#45;&gt;Node4</title>
<path fill="none" stroke="midnightblue" d="M131.866,-177.999C171.148,-167.548 225.597,-153.061 261.996,-143.377"/>
<polygon fill="midnightblue" stroke="midnightblue" points="130.738,-174.677 121.974,-180.631 132.538,-181.442 130.738,-174.677"/>
</g>
<!-- Node4&#45;&gt;Node1 -->
<g id="edge30" class="edge"><title>Node4&#45;&gt;Node1</title>
<path fill="none" stroke="midnightblue" d="M337.228,-148.519C349.892,-156.456 362.844,-167.165 371,-180 395.986,-219.32 399.632,-277.159 395.739,-300.581"/>
<polygon fill="midnightblue" stroke="midnightblue" points="338.971,-145.484 328.568,-143.474 335.447,-151.532 338.971,-145.484"/>
</g>
<!-- Node4&#45;&gt;Node2 -->
<g id="edge8" class="edge"><title>Node4&#45;&gt;Node2</title>
<path fill="none" stroke="midnightblue" d="M282.205,-149.501C271.567,-157.547 258.901,-168.069 250,-180 235.896,-198.904 227.869,-225.845 221.261,-240.508"/>
<polygon fill="midnightblue" stroke="midnightblue" points="284.572,-152.103 290.536,-143.347 280.413,-146.473 284.572,-152.103"/>
</g>
<!-- Node4&#45;&gt;Node5 -->
<g id="edge10" class="edge"><title>Node4&#45;&gt;Node5</title>
<path fill="none" stroke="midnightblue" d="M325.458,-115.061C340.903,-104.996 360.42,-92.2772 373.926,-83.475"/>
<polygon fill="midnightblue" stroke="midnightblue" points="323.378,-112.239 316.911,-120.631 327.2,-118.103 323.378,-112.239"/>
</g>
<!-- Node4&#45;&gt;Node7 -->
<g id="edge32" class="edge"><title>Node4&#45;&gt;Node7</title>
<path fill="none" stroke="midnightblue" d="M287.537,-111.144C280.655,-96.0933 272.001,-75.4381 260,-60 248.426,-45.1114 231.205,-32.1013 219.953,-23.5674"/>
<polygon fill="midnightblue" stroke="midnightblue" points="284.559,-113.029 292.037,-120.535 290.872,-110.004 284.559,-113.029"/>
</g>
<!-- Node8 -->
<g id="node20" class="node"><title>Node8</title>
<a xlink:href="clock_8h.html" target="_top" xlink:title="include/fa/clock.h">
<polygon fill="none" stroke="black" points="151.978,-60.6953 151.978,-83.3047 260.022,-83.3047 260.022,-60.6953 151.978,-60.6953"/>
<text text-anchor="middle" x="206" y="-68.3047" font-family="Futura" font-size="11.00">include/fa/clock.h</text>
</a>
</g>
<!-- Node4&#45;&gt;Node8 -->
<g id="edge24" class="edge"><title>Node4&#45;&gt;Node8</title>
<path fill="none" stroke="midnightblue" d="M275.354,-115.342C258.797,-105.234 237.709,-92.3594 223.157,-83.475"/>
<polygon fill="midnightblue" stroke="midnightblue" points="273.657,-118.407 284.016,-120.631 277.305,-112.433 273.657,-118.407"/>
</g>
<!-- Node4&#45;&gt;Node9 -->
<g id="edge28" class="edge"><title>Node4&#45;&gt;Node9</title>
<path fill="none" stroke="midnightblue" d="M356.265,-118.33C401.956,-107.856 466.042,-93.1642 508.734,-83.3771"/>
<polygon fill="midnightblue" stroke="midnightblue" points="355.196,-114.985 346.231,-120.631 356.761,-121.808 355.196,-114.985"/>
</g>
<!-- Node5&#45;&gt;Node6 -->
<g id="edge12" class="edge"><title>Node5&#45;&gt;Node6</title>
<path fill="none" stroke="midnightblue" d="M413.494,-54.7779C428.005,-44.7583 446.2,-32.1949 458.829,-23.475"/>
<polygon fill="midnightblue" stroke="midnightblue" points="411.258,-52.0687 405.018,-60.6308 415.235,-57.829 411.258,-52.0687"/>
</g>
<!-- Node5&#45;&gt;Node7 -->
<g id="edge16" class="edge"><title>Node5&#45;&gt;Node7</title>
<path fill="none" stroke="midnightblue" d="M348.198,-57.5304C315.884,-47.1183 271.813,-32.9175 242.205,-23.3771"/>
<polygon fill="midnightblue" stroke="midnightblue" points="347.228,-60.8951 357.82,-60.6308 349.375,-54.2324 347.228,-60.8951"/>
</g>
<!-- Node6&#45;&gt;Node4 -->
<g id="edge14" class="edge"><title>Node6&#45;&gt;Node4</title>
<path fill="none" stroke="midnightblue" d="M473.32,-33.7667C471.71,-49.5149 467.033,-70.6573 454,-84 426.04,-112.624 381.125,-123.917 347.176,-128.32"/>
<polygon fill="midnightblue" stroke="midnightblue" points="476.836,-33.6573 474.026,-23.4417 469.852,-33.1796 476.836,-33.6573"/>
</g>
<!-- Node7&#45;&gt;Node2 -->
<g id="edge18" class="edge"><title>Node7&#45;&gt;Node2</title>
<path fill="none" stroke="midnightblue" d="M175.75,-28.3482C163.069,-35.9267 150.069,-46.4072 143,-60 138.079,-69.4636 140.897,-73.5427 143,-84 155.582,-146.565 192.226,-214.915 206.859,-240.535"/>
<polygon fill="midnightblue" stroke="midnightblue" points="177.77,-31.2317 184.839,-23.3397 174.391,-25.101 177.77,-31.2317"/>
</g>
<!-- Node7&#45;&gt;Node3 -->
<g id="edge20" class="edge"><title>Node7&#45;&gt;Node3</title>
<path fill="none" stroke="midnightblue" d="M157.732,-27.0354C140.176,-34.2037 122.021,-44.744 110,-60 81.113,-96.6611 80.9429,-156.51 82.2032,-180.535"/>
<polygon fill="midnightblue" stroke="midnightblue" points="159.263,-30.1987 167.381,-23.3913 156.79,-23.6501 159.263,-30.1987"/>
</g>
<!-- Node7&#45;&gt;Node4 -->
<g id="edge22" class="edge"><title>Node7&#45;&gt;Node4</title>
<path fill="none" stroke="midnightblue" d="M243.219,-28.8903C255.536,-37.1056 268.622,-47.9361 278,-60 292.77,-79.0008 302.471,-105.904 303.986,-120.535"/>
<polygon fill="midnightblue" stroke="midnightblue" points="244.78,-25.7385 234.449,-23.3902 241.061,-31.6686 244.78,-25.7385"/>
</g>
<!-- Node8&#45;&gt;Node3 -->
<g id="edge26" class="edge"><title>Node8&#45;&gt;Node3</title>
<path fill="none" stroke="midnightblue" d="M187.582,-90.6689C161.603,-115.592 115.015,-160.286 93.9154,-180.528"/>
<polygon fill="midnightblue" stroke="midnightblue" points="190.139,-93.0665 194.932,-83.6179 185.293,-88.0151 190.139,-93.0665"/>
</g>
<!-- Node10&#45;&gt;Node4 -->
<g id="edge38" class="edge"><title>Node10&#45;&gt;Node4</title>
<path fill="none" stroke="midnightblue" d="M301.646,-170.459C301.49,-161.411 301.313,-151.16 301.184,-143.672"/>
<polygon fill="midnightblue" stroke="midnightblue" points="298.149,-170.693 301.821,-180.631 305.148,-170.572 298.149,-170.693"/>
</g>
</g>
</svg>
