<?xml version="1.0" encoding="UTF-8" standalone="no"?>
<!DOCTYPE svg PUBLIC "-//W3C//DTD SVG 1.1//EN"
 "http://www.w3.org/Graphics/SVG/1.1/DTD/svg11.dtd">
<!-- Generated by graphviz version 2.28.0 (20121015.0031)
 -->
<!-- Title: include/fae/pair.h Pages: 1 -->
<svg width="871pt" height="226pt"
 viewBox="0.00 0.00 871.00 226.00" xmlns="http://www.w3.org/2000/svg" xmlns:xlink="http://www.w3.org/1999/xlink">
<g id="graph1" class="graph" transform="scale(1 1) rotate(0) translate(4 222)">
<title>include/fae/pair.h</title>
<!-- Node1 -->
<g id="node1" class="node"><title>Node1</title>
<polygon fill="#bfbfbf" stroke="black" points="357.088,-194.695 357.088,-217.305 464.912,-217.305 464.912,-194.695 357.088,-194.695"/>
<text text-anchor="middle" x="411" y="-202.305" font-family="Futura" font-size="11.00">include/fae/pair.h</text>
</g>
<!-- Node2 -->
<g id="node3" class="node"><title>Node2</title>
<a xlink:href="buffer_8h.html" target="_top" xlink:title="include/fae/buffer.h">
<polygon fill="none" stroke="red" points="52.1841,-60.6953 52.1841,-83.3047 169.816,-83.3047 169.816,-60.6953 52.1841,-60.6953"/>
<text text-anchor="middle" x="111" y="-68.3047" font-family="Futura" font-size="11.00">include/fae/buffer.h</text>
</a>
</g>
<!-- Node1&#45;&gt;Node2 -->
<g id="edge2" class="edge"><title>Node1&#45;&gt;Node2</title>
<path fill="none" stroke="midnightblue" d="M346.834,-205.4C260.738,-204.409 114.711,-196.852 81,-158 61.8216,-135.897 86.6692,-100.73 101.457,-83.3791"/>
<polygon fill="midnightblue" stroke="midnightblue" points="346.994,-208.901 357.025,-205.49 347.056,-201.901 346.994,-208.901"/>
</g>
<!-- Node3 -->
<g id="node5" class="node"><title>Node3</title>
<a xlink:href="midi__msg_8h.html" target="_top" xlink:title="include/fae/midi_msg.h">
<polygon fill="none" stroke="red" points="-0.554688,-0.695312 -0.554688,-23.3047 134.555,-23.3047 134.555,-0.695312 -0.554688,-0.695312"/>
<text text-anchor="middle" x="67" y="-8.30469" font-family="Futura" font-size="11.00">include/fae/midi_msg.h</text>
</a>
</g>
<!-- Node1&#45;&gt;Node3 -->
<g id="edge14" class="edge"><title>Node1&#45;&gt;Node3</title>
<path fill="none" stroke="midnightblue" d="M346.76,-203.767C260.266,-200.848 112.411,-191.025 71,-158 35.5847,-129.756 32.4058,-104.042 43,-60 46.2141,-46.6381 53.9015,-32.7985 59.7165,-23.6285"/>
<polygon fill="midnightblue" stroke="midnightblue" points="346.887,-207.273 356.993,-204.09 347.108,-200.276 346.887,-207.273"/>
</g>
<!-- Node4 -->
<g id="node7" class="node"><title>Node4</title>
<a xlink:href="audio_8h.html" target="_top" xlink:title="include/fae/device\l/audio.h">
<polygon fill="none" stroke="red" points="90.4873,-120.391 90.4873,-157.609 201.513,-157.609 201.513,-120.391 90.4873,-120.391"/>
<text text-anchor="start" x="98.4873" y="-142.609" font-family="Futura" font-size="11.00">include/fae/device</text>
<text text-anchor="middle" x="146" y="-128" font-family="Futura" font-size="11.00">/audio.h</text>
</a>
</g>
<!-- Node1&#45;&gt;Node4 -->
<g id="edge6" class="edge"><title>Node1&#45;&gt;Node4</title>
<path fill="none" stroke="midnightblue" d="M354.927,-192.444C314.755,-183.297 259.42,-170.389 211,-158 207.937,-157.216 204.797,-156.398 201.631,-155.56"/>
<polygon fill="midnightblue" stroke="midnightblue" points="354.274,-195.884 364.801,-194.686 355.824,-189.058 354.274,-195.884"/>
</g>
<!-- Node5 -->
<g id="node9" class="node"><title>Node5</title>
<a xlink:href="graph_8h.html" target="_top" xlink:title="include/fae/graph.h">
<polygon fill="none" stroke="red" points="219.894,-127.695 219.894,-150.305 338.106,-150.305 338.106,-127.695 219.894,-127.695"/>
<text text-anchor="middle" x="279" y="-135.305" font-family="Futura" font-size="11.00">include/fae/graph.h</text>
</a>
</g>
<!-- Node1&#45;&gt;Node5 -->
<g id="edge8" class="edge"><title>Node1&#45;&gt;Node5</title>
<path fill="none" stroke="midnightblue" d="M380.533,-189.998C355.909,-177.872 321.882,-161.116 300.155,-150.417"/>
<polygon fill="midnightblue" stroke="midnightblue" points="379.274,-193.279 389.792,-194.557 382.367,-186.999 379.274,-193.279"/>
</g>
<!-- Node6 -->
<g id="node11" class="node"><title>Node6</title>
<a xlink:href="map_8h.html" target="_top" xlink:title="include/fae/map.h">
<polygon fill="none" stroke="red" points="355.871,-127.695 355.871,-150.305 466.129,-150.305 466.129,-127.695 355.871,-127.695"/>
<text text-anchor="middle" x="411" y="-135.305" font-family="Futura" font-size="11.00">include/fae/map.h</text>
</a>
</g>
<!-- Node1&#45;&gt;Node6 -->
<g id="edge10" class="edge"><title>Node1&#45;&gt;Node6</title>
<path fill="none" stroke="midnightblue" d="M411,-184.314C411,-173.109 411,-159.737 411,-150.633"/>
<polygon fill="midnightblue" stroke="midnightblue" points="407.5,-184.557 411,-194.557 414.5,-184.557 407.5,-184.557"/>
</g>
<!-- Node7 -->
<g id="node13" class="node"><title>Node7</title>
<a xlink:href="midi_8h.html" target="_top" xlink:title="include/fae/midi.h">
<polygon fill="none" stroke="red" points="484.43,-127.695 484.43,-150.305 593.57,-150.305 593.57,-127.695 484.43,-127.695"/>
<text text-anchor="middle" x="539" y="-135.305" font-family="Futura" font-size="11.00">include/fae/midi.h</text>
</a>
</g>
<!-- Node1&#45;&gt;Node7 -->
<g id="edge12" class="edge"><title>Node1&#45;&gt;Node7</title>
<path fill="none" stroke="midnightblue" d="M440.543,-189.998C464.422,-177.872 497.418,-161.116 518.486,-150.417"/>
<polygon fill="midnightblue" stroke="midnightblue" points="438.897,-186.908 431.565,-194.557 442.066,-193.149 438.897,-186.908"/>
</g>
<!-- Node8 -->
<g id="node16" class="node"><title>Node8</title>
<a xlink:href="signal_8h.html" target="_top" xlink:title="include/fae/signal.h">
<polygon fill="none" stroke="red" points="649.24,-60.6953 649.24,-83.3047 766.76,-83.3047 766.76,-60.6953 649.24,-60.6953"/>
<text text-anchor="middle" x="708" y="-68.3047" font-family="Futura" font-size="11.00">include/fae/signal.h</text>
</a>
</g>
<!-- Node1&#45;&gt;Node8 -->
<g id="edge16" class="edge"><title>Node1&#45;&gt;Node8</title>
<path fill="none" stroke="midnightblue" d="M475.195,-205.064C558.939,-203.622 698.626,-195.477 731,-158 749.688,-136.366 728.802,-100.983 716.185,-83.4814"/>
<polygon fill="midnightblue" stroke="midnightblue" points="474.968,-201.567 465.02,-205.211 475.07,-208.566 474.968,-201.567"/>
</g>
<!-- Node9 -->
<g id="node18" class="node"><title>Node9</title>
<a xlink:href="type_8h.html" target="_top" xlink:title="include/fae/type.h">
<polygon fill="none" stroke="red" points="611.984,-127.695 611.984,-150.305 722.016,-150.305 722.016,-127.695 611.984,-127.695"/>
<text text-anchor="middle" x="667" y="-135.305" font-family="Futura" font-size="11.00">include/fae/type.h</text>
</a>
</g>
<!-- Node1&#45;&gt;Node9 -->
<g id="edge18" class="edge"><title>Node1&#45;&gt;Node9</title>
<path fill="none" stroke="midnightblue" d="M464.627,-192.242C502.967,-183.014 555.749,-170.092 602,-158 611.176,-155.601 621.053,-152.918 630.268,-150.371"/>
<polygon fill="midnightblue" stroke="midnightblue" points="463.615,-188.885 454.709,-194.624 465.25,-195.691 463.615,-188.885"/>
</g>
<!-- Node10 -->
<g id="node22" class="node"><title>Node10</title>
<a xlink:href="pair_8c.html" target="_top" xlink:title="src/fae/pair.c">
<polygon fill="none" stroke="black" points="778.335,-127.695 778.335,-150.305 863.665,-150.305 863.665,-127.695 778.335,-127.695"/>
<text text-anchor="middle" x="821" y="-135.305" font-family="Futura" font-size="11.00">src/fae/pair.c</text>
</a>
</g>
<!-- Node1&#45;&gt;Node10 -->
<g id="edge24" class="edge"><title>Node1&#45;&gt;Node10</title>
<path fill="none" stroke="midnightblue" d="M475.19,-199.827C546.382,-193.31 664.349,-180.192 764,-158 773.116,-155.97 782.868,-153.142 791.681,-150.329"/>
<polygon fill="midnightblue" stroke="midnightblue" points="474.679,-196.358 465.033,-200.741 475.307,-203.33 474.679,-196.358"/>
</g>
<!-- Node2&#45;&gt;Node3 -->
<g id="edge4" class="edge"><title>Node2&#45;&gt;Node3</title>
<path fill="none" stroke="midnightblue" d="M96.9832,-52.5233C89.7622,-43.0047 81.2137,-31.7362 75.0959,-23.6719"/>
<polygon fill="midnightblue" stroke="midnightblue" points="94.3014,-54.7792 103.134,-60.6308 99.8782,-50.5485 94.3014,-54.7792"/>
</g>
<!-- Node9&#45;&gt;Node2 -->
<g id="edge20" class="edge"><title>Node9&#45;&gt;Node2</title>
<path fill="none" stroke="midnightblue" d="M624.088,-124.981C616.768,-123.087 609.204,-121.332 602,-120 447.692,-91.4753 262.71,-79.705 170.035,-75.3188"/>
<polygon fill="midnightblue" stroke="midnightblue" points="623.292,-128.391 633.859,-127.62 625.118,-121.633 623.292,-128.391"/>
</g>
<!-- Node9&#45;&gt;Node8 -->
<g id="edge22" class="edge"><title>Node9&#45;&gt;Node8</title>
<path fill="none" stroke="midnightblue" d="M678.956,-119.046C686.23,-107.514 695.252,-93.2109 701.293,-83.6334"/>
<polygon fill="midnightblue" stroke="midnightblue" points="675.962,-117.231 673.587,-127.557 681.883,-120.966 675.962,-117.231"/>
</g>
</g>
</svg>
