<?xml version="1.0" encoding="UTF-8" standalone="no"?>
<!DOCTYPE svg PUBLIC "-//W3C//DTD SVG 1.1//EN"
 "http://www.w3.org/Graphics/SVG/1.1/DTD/svg11.dtd">
<!-- Generated by graphviz version 2.28.0 (20121015.0031)
 -->
<!-- Title: include/fa/pair.h Pages: 1 -->
<svg width="715pt" height="332pt"
 viewBox="0.00 0.00 714.85 332.00" xmlns="http://www.w3.org/2000/svg" xmlns:xlink="http://www.w3.org/1999/xlink">
<g id="graph1" class="graph" transform="scale(1 1) rotate(0) translate(4 328)">
<title>include/fa/pair.h</title>
<!-- Node1 -->
<g id="node1" class="node"><title>Node1</title>
<polygon fill="#bfbfbf" stroke="black" points="364.131,-300.695 364.131,-323.305 465.869,-323.305 465.869,-300.695 364.131,-300.695"/>
<text text-anchor="middle" x="415" y="-308.305" font-family="Futura" font-size="11.00">include/fa/pair.h</text>
</g>
<!-- Node2 -->
<g id="node3" class="node"><title>Node2</title>
<a xlink:href="action_8h.html" target="_top" xlink:title="include/fa/action.h">
<polygon fill="none" stroke="black" points="261.746,-240.695 261.746,-263.305 374.254,-263.305 374.254,-240.695 261.746,-240.695"/>
<text text-anchor="middle" x="318" y="-248.305" font-family="Futura" font-size="11.00">include/fa/action.h</text>
</a>
</g>
<!-- Node1&#45;&gt;Node2 -->
<g id="edge2" class="edge"><title>Node1&#45;&gt;Node2</title>
<path fill="none" stroke="midnightblue" d="M388.814,-295.342C371.908,-285.234 350.377,-272.359 335.519,-263.475"/>
<polygon fill="midnightblue" stroke="midnightblue" points="387.279,-298.503 397.658,-300.631 390.872,-292.495 387.279,-298.503"/>
</g>
<!-- Node3 -->
<g id="node5" class="node"><title>Node3</title>
<a xlink:href="audio_8h.html" target="_top" xlink:title="include/fa/audio.h">
<polygon fill="none" stroke="black" points="173.592,-180.695 173.592,-203.305 284.408,-203.305 284.408,-180.695 173.592,-180.695"/>
<text text-anchor="middle" x="229" y="-188.305" font-family="Futura" font-size="11.00">include/fa/audio.h</text>
</a>
</g>
<!-- Node1&#45;&gt;Node3 -->
<g id="edge42" class="edge"><title>Node1&#45;&gt;Node3</title>
<path fill="none" stroke="midnightblue" d="M353.776,-306.858C320.152,-301.548 279.935,-289.785 253,-264 235.988,-247.714 231.035,-218.965 229.592,-203.518"/>
<polygon fill="midnightblue" stroke="midnightblue" points="353.584,-310.365 363.977,-308.307 354.569,-303.435 353.584,-310.365"/>
</g>
<!-- Node4 -->
<g id="node7" class="node"><title>Node4</title>
<a xlink:href="fa_2fa_8h.html" target="_top" xlink:title="include/fa/fa.h">
<polygon fill="none" stroke="red" points="339.846,-120.695 339.846,-143.305 432.154,-143.305 432.154,-120.695 339.846,-120.695"/>
<text text-anchor="middle" x="386" y="-128.305" font-family="Futura" font-size="11.00">include/fa/fa.h</text>
</a>
</g>
<!-- Node1&#45;&gt;Node4 -->
<g id="edge46" class="edge"><title>Node1&#45;&gt;Node4</title>
<path fill="none" stroke="midnightblue" d="M407.222,-290.75C397.674,-252.757 384.889,-172.036 384.309,-143.368"/>
<polygon fill="midnightblue" stroke="midnightblue" points="403.919,-291.942 409.94,-300.661 410.67,-290.091 403.919,-291.942"/>
</g>
<!-- Node5 -->
<g id="node10" class="node"><title>Node5</title>
<a xlink:href="buffer_8h.html" target="_top" xlink:title="include/fa/buffer.h">
<polygon fill="none" stroke="black" points="406.227,-60.6953 406.227,-83.3047 517.773,-83.3047 517.773,-60.6953 406.227,-60.6953"/>
<text text-anchor="middle" x="462" y="-68.3047" font-family="Futura" font-size="11.00">include/fa/buffer.h</text>
</a>
</g>
<!-- Node1&#45;&gt;Node5 -->
<g id="edge44" class="edge"><title>Node1&#45;&gt;Node5</title>
<path fill="none" stroke="midnightblue" d="M421.503,-291.078C424.067,-282.767 426.896,-272.976 429,-264 444.977,-195.854 456.777,-112.355 460.64,-83.4392"/>
<polygon fill="midnightblue" stroke="midnightblue" points="418.157,-290.051 418.471,-300.641 424.829,-292.167 418.157,-290.051"/>
</g>
<!-- Node6 -->
<g id="node12" class="node"><title>Node6</title>
<a xlink:href="message_8h.html" target="_top" xlink:title="include/fa/midi/message.h">
<polygon fill="none" stroke="black" points="470.134,-0.695312 470.134,-23.3047 621.866,-23.3047 621.866,-0.695312 470.134,-0.695312"/>
<text text-anchor="middle" x="546" y="-8.30469" font-family="Futura" font-size="11.00">include/fa/midi/message.h</text>
</a>
</g>
<!-- Node1&#45;&gt;Node6 -->
<g id="edge50" class="edge"><title>Node1&#45;&gt;Node6</title>
<path fill="none" stroke="midnightblue" d="M475.862,-299.132C561.174,-280.725 706,-242.228 706,-193 706,-193 706,-193 706,-131 706,-98.3341 709.392,-83.7838 687,-60 669.489,-41.4007 644.435,-30.1579 620.291,-23.3633"/>
<polygon fill="midnightblue" stroke="midnightblue" points="475.075,-295.721 466.021,-301.223 476.53,-302.568 475.075,-295.721"/>
</g>
<!-- Node7 -->
<g id="node15" class="node"><title>Node7</title>
<a xlink:href="signal_8h.html" target="_top" xlink:title="include/fa/signal.h">
<polygon fill="none" stroke="black" points="289.283,-0.695312 289.283,-23.3047 400.717,-23.3047 400.717,-0.695312 289.283,-0.695312"/>
<text text-anchor="middle" x="345" y="-8.30469" font-family="Futura" font-size="11.00">include/fa/signal.h</text>
</a>
</g>
<!-- Node1&#45;&gt;Node7 -->
<g id="edge54" class="edge"><title>Node1&#45;&gt;Node7</title>
<path fill="none" stroke="midnightblue" d="M353.837,-302.516C256.199,-287.235 76,-251.156 76,-193 76,-193 76,-193 76,-131 76,-38.6953 210.471,-17.9278 289.263,-13.682"/>
<polygon fill="midnightblue" stroke="midnightblue" points="353.465,-306 363.881,-304.06 354.529,-299.081 353.465,-306"/>
</g>
<!-- Node9 -->
<g id="node23" class="node"><title>Node9</title>
<a xlink:href="midi_8h.html" target="_top" xlink:title="include/fa/midi.h">
<polygon fill="none" stroke="black" points="66.4727,-0.695312 66.4727,-23.3047 169.527,-23.3047 169.527,-0.695312 66.4727,-0.695312"/>
<text text-anchor="middle" x="118" y="-8.30469" font-family="Futura" font-size="11.00">include/fa/midi.h</text>
</a>
</g>
<!-- Node1&#45;&gt;Node9 -->
<g id="edge52" class="edge"><title>Node1&#45;&gt;Node9</title>
<path fill="none" stroke="midnightblue" d="M354.016,-306.396C238.672,-296.002 0,-265.71 0,-193 0,-193 0,-193 0,-131 0,-77.9817 60.2982,-40.4648 94.687,-23.3796"/>
<polygon fill="midnightblue" stroke="midnightblue" points="353.845,-309.895 364.113,-307.284 354.458,-302.922 353.845,-309.895"/>
</g>
<!-- Node10 -->
<g id="node26" class="node"><title>Node10</title>
<a xlink:href="map_8h.html" target="_top" xlink:title="include/fa/map.h">
<polygon fill="none" stroke="red" points="573.914,-60.6953 573.914,-83.3047 678.086,-83.3047 678.086,-60.6953 573.914,-60.6953"/>
<text text-anchor="middle" x="626" y="-68.3047" font-family="Futura" font-size="11.00">include/fa/map.h</text>
</a>
</g>
<!-- Node1&#45;&gt;Node10 -->
<g id="edge48" class="edge"><title>Node1&#45;&gt;Node10</title>
<path fill="none" stroke="midnightblue" d="M431.088,-292.854C472.894,-245.698 583.986,-120.39 616.769,-83.412"/>
<polygon fill="midnightblue" stroke="midnightblue" points="428.354,-290.662 424.339,-300.466 433.592,-295.305 428.354,-290.662"/>
</g>
<!-- Node2&#45;&gt;Node3 -->
<g id="edge4" class="edge"><title>Node2&#45;&gt;Node3</title>
<path fill="none" stroke="midnightblue" d="M293.542,-235.061C278.097,-224.996 258.58,-212.277 245.074,-203.475"/>
<polygon fill="midnightblue" stroke="midnightblue" points="291.8,-238.103 302.089,-240.631 295.622,-232.239 291.8,-238.103"/>
</g>
<!-- Node2&#45;&gt;Node4 -->
<g id="edge38" class="edge"><title>Node2&#45;&gt;Node4</title>
<path fill="none" stroke="midnightblue" d="M324.209,-231.21C336.336,-206.007 361.285,-163.363 375.811,-143.618"/>
<polygon fill="midnightblue" stroke="midnightblue" points="320.926,-229.975 319.988,-240.528 327.302,-232.864 320.926,-229.975"/>
</g>
<!-- Node2&#45;&gt;Node9 -->
<g id="edge40" class="edge"><title>Node2&#45;&gt;Node9</title>
<path fill="none" stroke="midnightblue" d="M251.571,-242.789C222.296,-236.31 189.143,-224.722 165,-204 109.806,-156.626 113.921,-55.8605 116.861,-23.3463"/>
<polygon fill="midnightblue" stroke="midnightblue" points="251.243,-246.295 261.742,-244.874 252.649,-239.437 251.243,-246.295"/>
</g>
<!-- Node3&#45;&gt;Node4 -->
<g id="edge6" class="edge"><title>Node3&#45;&gt;Node4</title>
<path fill="none" stroke="midnightblue" d="M266.559,-177.125C294.637,-166.752 332.419,-152.794 357.91,-143.377"/>
<polygon fill="midnightblue" stroke="midnightblue" points="265.236,-173.882 257.068,-180.631 267.662,-180.448 265.236,-173.882"/>
</g>
<!-- Node4&#45;&gt;Node1 -->
<g id="edge34" class="edge"><title>Node4&#45;&gt;Node1</title>
<path fill="none" stroke="midnightblue" d="M393.788,-153.288C403.338,-191.309 416.12,-272.027 416.691,-300.661"/>
<polygon fill="midnightblue" stroke="midnightblue" points="397.088,-152.087 391.069,-143.368 390.337,-153.937 397.088,-152.087"/>
</g>
<!-- Node4&#45;&gt;Node2 -->
<g id="edge8" class="edge"><title>Node4&#45;&gt;Node2</title>
<path fill="none" stroke="midnightblue" d="M379.701,-152.978C367.511,-178.267 342.555,-220.897 328.081,-240.528"/>
<polygon fill="midnightblue" stroke="midnightblue" points="383.003,-154.17 383.952,-143.618 376.63,-151.276 383.003,-154.17"/>
</g>
<!-- Node4&#45;&gt;Node5 -->
<g id="edge10" class="edge"><title>Node4&#45;&gt;Node5</title>
<path fill="none" stroke="midnightblue" d="M407.629,-114.494C420.696,-104.522 436.956,-92.1126 448.274,-83.475"/>
<polygon fill="midnightblue" stroke="midnightblue" points="405.413,-111.782 399.587,-120.631 409.66,-117.346 405.413,-111.782"/>
</g>
<!-- Node4&#45;&gt;Node7 -->
<g id="edge36" class="edge"><title>Node4&#45;&gt;Node7</title>
<path fill="none" stroke="midnightblue" d="M373.928,-111.21C362.774,-86.0067 348.332,-43.3628 344.619,-23.6179"/>
<polygon fill="midnightblue" stroke="midnightblue" points="370.889,-112.971 378.315,-120.528 377.222,-109.99 370.889,-112.971"/>
</g>
<!-- Node8 -->
<g id="node20" class="node"><title>Node8</title>
<a xlink:href="device_8h.html" target="_top" xlink:title="include/fa/device.h">
<polygon fill="none" stroke="black" points="141.817,-60.6953 141.817,-83.3047 256.183,-83.3047 256.183,-60.6953 141.817,-60.6953"/>
<text text-anchor="middle" x="199" y="-68.3047" font-family="Futura" font-size="11.00">include/fa/device.h</text>
</a>
</g>
<!-- Node4&#45;&gt;Node8 -->
<g id="edge24" class="edge"><title>Node4&#45;&gt;Node8</title>
<path fill="none" stroke="midnightblue" d="M343.006,-117.665C309.397,-107.241 263.349,-92.9586 232.457,-83.3771"/>
<polygon fill="midnightblue" stroke="midnightblue" points="341.98,-121.011 352.568,-120.631 344.054,-114.325 341.98,-121.011"/>
</g>
<!-- Node4&#45;&gt;Node10 -->
<g id="edge32" class="edge"><title>Node4&#45;&gt;Node10</title>
<path fill="none" stroke="midnightblue" d="M438.699,-118.264C482.024,-107.794 542.647,-93.1437 583.06,-83.3771"/>
<polygon fill="midnightblue" stroke="midnightblue" points="437.805,-114.88 428.907,-120.631 439.45,-121.684 437.805,-114.88"/>
</g>
<!-- Node5&#45;&gt;Node6 -->
<g id="edge12" class="edge"><title>Node5&#45;&gt;Node6</title>
<path fill="none" stroke="midnightblue" d="M485.494,-54.7779C500.005,-44.7583 518.2,-32.1949 530.829,-23.475"/>
<polygon fill="midnightblue" stroke="midnightblue" points="483.258,-52.0687 477.018,-60.6308 487.235,-57.829 483.258,-52.0687"/>
</g>
<!-- Node5&#45;&gt;Node7 -->
<g id="edge16" class="edge"><title>Node5&#45;&gt;Node7</title>
<path fill="none" stroke="midnightblue" d="M432.101,-56.1782C411.472,-45.952 384.55,-32.6062 366.131,-23.475"/>
<polygon fill="midnightblue" stroke="midnightblue" points="430.569,-59.3251 441.083,-60.6308 433.678,-53.0534 430.569,-59.3251"/>
</g>
<!-- Node6&#45;&gt;Node4 -->
<g id="edge14" class="edge"><title>Node6&#45;&gt;Node4</title>
<path fill="none" stroke="midnightblue" d="M545.224,-33.6735C543.56,-49.3706 538.86,-70.49 526,-84 501.606,-109.628 462.829,-121.283 432.265,-126.583"/>
<polygon fill="midnightblue" stroke="midnightblue" points="548.737,-33.6156 545.971,-23.3882 541.755,-33.1082 548.737,-33.6156"/>
</g>
<!-- Node7&#45;&gt;Node2 -->
<g id="edge18" class="edge"><title>Node7&#45;&gt;Node2</title>
<path fill="none" stroke="midnightblue" d="M342.162,-33.2315C339.19,-54.7302 334.482,-89.7278 331,-120 325.856,-164.729 320.93,-218.193 318.934,-240.46"/>
<polygon fill="midnightblue" stroke="midnightblue" points="345.63,-33.703 343.541,-23.316 338.697,-32.7382 345.63,-33.703"/>
</g>
<!-- Node7&#45;&gt;Node3 -->
<g id="edge20" class="edge"><title>Node7&#45;&gt;Node3</title>
<path fill="none" stroke="midnightblue" d="M279.166,-18.6952C223.898,-25.0023 151.132,-37.4076 133,-60 98.0557,-103.54 174.594,-158.094 211.069,-180.579"/>
<polygon fill="midnightblue" stroke="midnightblue" points="279.706,-22.157 289.265,-17.5874 278.943,-15.1987 279.706,-22.157"/>
</g>
<!-- Node7&#45;&gt;Node4 -->
<g id="edge22" class="edge"><title>Node7&#45;&gt;Node4</title>
<path fill="none" stroke="midnightblue" d="M357.155,-32.9777C368.325,-58.2668 382.748,-100.897 386.408,-120.528"/>
<polygon fill="midnightblue" stroke="midnightblue" points="360.178,-31.182 352.76,-23.6179 353.842,-34.1573 360.178,-31.182"/>
</g>
<!-- Node8&#45;&gt;Node3 -->
<g id="edge26" class="edge"><title>Node8&#45;&gt;Node3</title>
<path fill="none" stroke="midnightblue" d="M204.165,-93.3159C210.605,-118.645 221.369,-160.984 226.338,-180.528"/>
<polygon fill="midnightblue" stroke="midnightblue" points="207.556,-92.4471 201.699,-83.6179 200.771,-94.172 207.556,-92.4471"/>
</g>
<!-- Node8&#45;&gt;Node9 -->
<g id="edge28" class="edge"><title>Node8&#45;&gt;Node9</title>
<path fill="none" stroke="midnightblue" d="M176.345,-54.7779C162.352,-44.7583 144.807,-32.1949 132.629,-23.475"/>
<polygon fill="midnightblue" stroke="midnightblue" points="174.351,-57.6545 184.519,-60.6308 178.426,-51.9631 174.351,-57.6545"/>
</g>
<!-- Node9&#45;&gt;Node4 -->
<g id="edge30" class="edge"><title>Node9&#45;&gt;Node4</title>
<path fill="none" stroke="midnightblue" d="M168.373,-26.1131C197.239,-34.3613 233.815,-46.0719 265,-60 305.03,-77.8787 348.589,-105.717 370.923,-120.67"/>
<polygon fill="midnightblue" stroke="midnightblue" points="169.08,-22.6762 158.506,-23.3421 167.187,-29.4155 169.08,-22.6762"/>
</g>
</g>
</svg>
