<?xml version="1.0" encoding="UTF-8" standalone="no"?>
<!DOCTYPE svg PUBLIC "-//W3C//DTD SVG 1.1//EN"
 "http://www.w3.org/Graphics/SVG/1.1/DTD/svg11.dtd">
<!-- Generated by graphviz version 2.28.0 (20121015.0031)
 -->
<!-- Title: src/fae/processor/par.c Pages: 1 -->
<svg width="732pt" height="152pt"
 viewBox="0.00 0.00 732.00 152.00" xmlns="http://www.w3.org/2000/svg" xmlns:xlink="http://www.w3.org/1999/xlink">
<g id="graph1" class="graph" transform="scale(1 1) rotate(0) translate(4 148)">
<title>src/fae/processor/par.c</title>
<!-- Node1 -->
<g id="node1" class="node"><title>Node1</title>
<polygon fill="#bfbfbf" stroke="black" points="103.752,-120.695 103.752,-143.305 240.248,-143.305 240.248,-120.695 103.752,-120.695"/>
<text text-anchor="middle" x="172" y="-128.305" font-family="Futura" font-size="11.00">src/fae/processor/par.c</text>
</g>
<!-- Node2 -->
<g id="node3" class="node"><title>Node2</title>
<polygon fill="none" stroke="#bfbfbf" points="-0.931396,-60.6953 -0.931396,-83.3047 116.931,-83.3047 116.931,-60.6953 -0.931396,-60.6953"/>
<text text-anchor="middle" x="58" y="-68.3047" font-family="Futura" font-size="11.00">fae/processor/par.h</text>
</g>
<!-- Node1&#45;&gt;Node2 -->
<g id="edge2" class="edge"><title>Node1&#45;&gt;Node2</title>
<path fill="none" stroke="midnightblue" d="M151.619,-120.631C133.816,-111.573 107.749,-98.3109 87.6388,-88.0794"/>
<polygon fill="midnightblue" stroke="midnightblue" points="89.0887,-84.8902 78.5888,-83.475 85.9145,-91.1291 89.0887,-84.8902"/>
</g>
<!-- Node3 -->
<g id="node5" class="node"><title>Node3</title>
<a xlink:href="string_8h.html" target="_top" xlink:title="fae/string.h">
<polygon fill="none" stroke="black" points="134.827,-60.6953 134.827,-83.3047 209.173,-83.3047 209.173,-60.6953 134.827,-60.6953"/>
<text text-anchor="middle" x="172" y="-68.3047" font-family="Futura" font-size="11.00">fae/string.h</text>
</a>
</g>
<!-- Node1&#45;&gt;Node3 -->
<g id="edge4" class="edge"><title>Node1&#45;&gt;Node3</title>
<path fill="none" stroke="midnightblue" d="M172,-120.631C172,-113.218 172,-102.989 172,-93.9096"/>
<polygon fill="midnightblue" stroke="midnightblue" points="175.5,-93.6718 172,-83.6719 168.5,-93.6719 175.5,-93.6718"/>
</g>
<!-- Node5 -->
<g id="node9" class="node"><title>Node5</title>
<a xlink:href="util_8h.html" target="_top" xlink:title="fae/util.h">
<polygon fill="none" stroke="red" points="344.141,-60.6953 344.141,-83.3047 405.859,-83.3047 405.859,-60.6953 344.141,-60.6953"/>
<text text-anchor="middle" x="375" y="-68.3047" font-family="Futura" font-size="11.00">fae/util.h</text>
</a>
</g>
<!-- Node1&#45;&gt;Node5 -->
<g id="edge8" class="edge"><title>Node1&#45;&gt;Node5</title>
<path fill="none" stroke="midnightblue" d="M208.292,-120.631C243.631,-110.534 297.256,-95.2125 334.09,-84.6885"/>
<polygon fill="midnightblue" stroke="midnightblue" points="335.351,-87.9684 344.005,-81.8558 333.428,-81.2377 335.351,-87.9684"/>
</g>
<!-- Node4 -->
<g id="node7" class="node"><title>Node4</title>
<a xlink:href="fae_2fae_8h.html" target="_top" xlink:title="fae.h">
<polygon fill="none" stroke="red" points="92.2302,-0.695312 92.2302,-23.3047 133.77,-23.3047 133.77,-0.695312 92.2302,-0.695312"/>
<text text-anchor="middle" x="113" y="-8.30469" font-family="Futura" font-size="11.00">fae.h</text>
</a>
</g>
<!-- Node3&#45;&gt;Node4 -->
<g id="edge6" class="edge"><title>Node3&#45;&gt;Node4</title>
<path fill="none" stroke="midnightblue" d="M161.452,-60.6308C153.083,-52.4034 141.184,-40.7066 131.273,-30.9633"/>
<polygon fill="midnightblue" stroke="midnightblue" points="133.441,-28.1863 123.856,-23.6719 128.533,-33.1782 133.441,-28.1863"/>
</g>
<!-- Node6 -->
<g id="node11" class="node"><title>Node6</title>
<a xlink:href="arch_8h.html" target="_top" xlink:title="fae/util/arch.h">
<polygon fill="none" stroke="black" points="152.205,-0.695312 152.205,-23.3047 241.795,-23.3047 241.795,-0.695312 152.205,-0.695312"/>
<text text-anchor="middle" x="197" y="-8.30469" font-family="Futura" font-size="11.00">fae/util/arch.h</text>
</a>
</g>
<!-- Node5&#45;&gt;Node6 -->
<g id="edge10" class="edge"><title>Node5&#45;&gt;Node6</title>
<path fill="none" stroke="midnightblue" d="M343.995,-60.8972C314.748,-51.3673 270.702,-37.0152 238.45,-26.5061"/>
<polygon fill="midnightblue" stroke="midnightblue" points="239.441,-23.148 228.849,-23.3776 237.272,-29.8036 239.441,-23.148"/>
</g>
<!-- Node7 -->
<g id="node13" class="node"><title>Node7</title>
<a xlink:href="alignof_8h.html" target="_top" xlink:title="fae/util/alignof.h">
<polygon fill="none" stroke="black" points="260.007,-0.695312 260.007,-23.3047 361.993,-23.3047 361.993,-0.695312 260.007,-0.695312"/>
<text text-anchor="middle" x="311" y="-8.30469" font-family="Futura" font-size="11.00">fae/util/alignof.h</text>
</a>
</g>
<!-- Node5&#45;&gt;Node7 -->
<g id="edge12" class="edge"><title>Node5&#45;&gt;Node7</title>
<path fill="none" stroke="midnightblue" d="M363.558,-60.6308C354.39,-52.3219 341.317,-40.4746 330.503,-30.6745"/>
<polygon fill="midnightblue" stroke="midnightblue" points="332.536,-27.7936 322.776,-23.6719 327.835,-32.9806 332.536,-27.7936"/>
</g>
<!-- Node8 -->
<g id="node15" class="node"><title>Node8</title>
<a xlink:href="minmax_8h.html" target="_top" xlink:title="fae/util/minmax.h">
<polygon fill="none" stroke="red" points="379.837,-0.695312 379.837,-23.3047 486.163,-23.3047 486.163,-0.695312 379.837,-0.695312"/>
<text text-anchor="middle" x="433" y="-8.30469" font-family="Futura" font-size="11.00">fae/util/minmax.h</text>
</a>
</g>
<!-- Node5&#45;&gt;Node8 -->
<g id="edge14" class="edge"><title>Node5&#45;&gt;Node8</title>
<path fill="none" stroke="midnightblue" d="M385.369,-60.6308C393.597,-52.4034 405.293,-40.7066 415.037,-30.9633"/>
<polygon fill="midnightblue" stroke="midnightblue" points="417.732,-33.2179 422.328,-23.6719 412.782,-28.2681 417.732,-33.2179"/>
</g>
<!-- Node9 -->
<g id="node17" class="node"><title>Node9</title>
<a xlink:href="literals_8h.html" target="_top" xlink:title="fae/util/literals.h">
<polygon fill="none" stroke="red" points="504.038,-0.695312 504.038,-23.3047 603.962,-23.3047 603.962,-0.695312 504.038,-0.695312"/>
<text text-anchor="middle" x="554" y="-8.30469" font-family="Futura" font-size="11.00">fae/util/literals.h</text>
</a>
</g>
<!-- Node5&#45;&gt;Node9 -->
<g id="edge16" class="edge"><title>Node5&#45;&gt;Node9</title>
<path fill="none" stroke="midnightblue" d="M406.179,-60.8972C435.59,-51.3673 479.884,-37.0152 512.317,-26.5061"/>
<polygon fill="midnightblue" stroke="midnightblue" points="513.538,-29.7897 521.973,-23.3776 511.381,-23.1305 513.538,-29.7897"/>
</g>
<!-- Node10 -->
<g id="node19" class="node"><title>Node10</title>
<a xlink:href="macros_8h.html" target="_top" xlink:title="fae/util/macros.h">
<polygon fill="none" stroke="black" points="621.475,-0.695312 621.475,-23.3047 724.525,-23.3047 724.525,-0.695312 621.475,-0.695312"/>
<text text-anchor="middle" x="673" y="-8.30469" font-family="Futura" font-size="11.00">fae/util/macros.h</text>
</a>
</g>
<!-- Node5&#45;&gt;Node10 -->
<g id="edge18" class="edge"><title>Node5&#45;&gt;Node10</title>
<path fill="none" stroke="midnightblue" d="M406.048,-64.9571C454.413,-55.5438 548.674,-37.1977 611.245,-25.0194"/>
<polygon fill="midnightblue" stroke="midnightblue" points="612.24,-28.3915 621.387,-23.0455 610.903,-21.5205 612.24,-28.3915"/>
</g>
</g>
</svg>
