<?xml version="1.0" encoding="UTF-8" standalone="no"?>
<!DOCTYPE svg PUBLIC "-//W3C//DTD SVG 1.1//EN"
 "http://www.w3.org/Graphics/SVG/1.1/DTD/svg11.dtd">
<!-- Generated by graphviz version 2.28.0 (20121015.0031)
 -->
<!-- Title: src/fae/string/parson.h Pages: 1 -->
<svg width="251pt" height="92pt"
 viewBox="0.00 0.00 251.00 92.00" xmlns="http://www.w3.org/2000/svg" xmlns:xlink="http://www.w3.org/1999/xlink">
<g id="graph1" class="graph" transform="scale(1 1) rotate(0) translate(4 88)">
<title>src/fae/string/parson.h</title>
<!-- Node1 -->
<g id="node1" class="node"><title>Node1</title>
<polygon fill="#bfbfbf" stroke="black" points="64.0603,-60.6953 64.0603,-83.3047 197.94,-83.3047 197.94,-60.6953 64.0603,-60.6953"/>
<text text-anchor="middle" x="131" y="-68.3047" font-family="Futura" font-size="11.00">src/fae/string/parson.h</text>
</g>
<!-- Node2 -->
<g id="node3" class="node"><title>Node2</title>
<a xlink:href="parson_8c.html" target="_top" xlink:title="src/fae/string/parson.c">
<polygon fill="none" stroke="black" points="-0.544922,-0.695312 -0.544922,-23.3047 132.545,-23.3047 132.545,-0.695312 -0.544922,-0.695312"/>
<text text-anchor="middle" x="66" y="-8.30469" font-family="Futura" font-size="11.00">src/fae/string/parson.c</text>
</a>
</g>
<!-- Node1&#45;&gt;Node2 -->
<g id="edge2" class="edge"><title>Node1&#45;&gt;Node2</title>
<path fill="none" stroke="midnightblue" d="M111.91,-53.9659C100.924,-44.1629 87.4586,-32.1477 77.9599,-23.6719"/>
<polygon fill="midnightblue" stroke="midnightblue" points="109.588,-56.5844 119.379,-60.6308 114.248,-51.3613 109.588,-56.5844"/>
</g>
<!-- Node3 -->
<g id="node5" class="node"><title>Node3</title>
<a xlink:href="fae_2string_8c.html" target="_top" xlink:title="src/fae/string.c">
<polygon fill="none" stroke="black" points="150.511,-0.695312 150.511,-23.3047 243.489,-23.3047 243.489,-0.695312 150.511,-0.695312"/>
<text text-anchor="middle" x="197" y="-8.30469" font-family="Futura" font-size="11.00">src/fae/string.c</text>
</a>
</g>
<!-- Node1&#45;&gt;Node3 -->
<g id="edge4" class="edge"><title>Node1&#45;&gt;Node3</title>
<path fill="none" stroke="midnightblue" d="M150.384,-53.9659C161.539,-44.1629 175.211,-32.1477 184.856,-23.6719"/>
<polygon fill="midnightblue" stroke="midnightblue" points="148.001,-51.4005 142.799,-60.6308 152.622,-56.6587 148.001,-51.4005"/>
</g>
</g>
</svg>
