<?xml version="1.0" encoding="UTF-8" standalone="no"?>
<!DOCTYPE svg PUBLIC "-//W3C//DTD SVG 1.1//EN"
 "http://www.w3.org/Graphics/SVG/1.1/DTD/svg11.dtd">
<!-- Generated by graphviz version 2.28.0 (20121015.0031)
 -->
<!-- Title: src/fae/string/parson.c Pages: 1 -->
<svg width="422pt" height="212pt"
 viewBox="0.00 0.00 422.00 212.00" xmlns="http://www.w3.org/2000/svg" xmlns:xlink="http://www.w3.org/1999/xlink">
<g id="graph1" class="graph" transform="scale(1 1) rotate(0) translate(4 208)">
<title>src/fae/string/parson.c</title>
<!-- Node1 -->
<g id="node1" class="node"><title>Node1</title>
<polygon fill="#bfbfbf" stroke="black" points="102.455,-180.695 102.455,-203.305 235.545,-203.305 235.545,-180.695 102.455,-180.695"/>
<text text-anchor="middle" x="169" y="-188.305" font-family="Futura" font-size="11.00">src/fae/string/parson.c</text>
</g>
<!-- Node2 -->
<g id="node3" class="node"><title>Node2</title>
<a xlink:href="parson_8h.html" target="_top" xlink:title="parson.h">
<polygon fill="none" stroke="black" points="-0.919434,-120.695 -0.919434,-143.305 58.9194,-143.305 58.9194,-120.695 -0.919434,-120.695"/>
<text text-anchor="middle" x="29" y="-128.305" font-family="Futura" font-size="11.00">parson.h</text>
</a>
</g>
<!-- Node1&#45;&gt;Node2 -->
<g id="edge2" class="edge"><title>Node1&#45;&gt;Node2</title>
<path fill="none" stroke="midnightblue" d="M143.971,-180.631C121.613,-171.368 88.6416,-157.709 63.7337,-147.39"/>
<polygon fill="midnightblue" stroke="midnightblue" points="64.8627,-144.069 54.2845,-143.475 62.1835,-150.536 64.8627,-144.069"/>
</g>
<!-- Node4 -->
<g id="node7" class="node"><title>Node4</title>
<polygon fill="none" stroke="#bfbfbf" points="76.5779,-120.695 76.5779,-143.305 125.422,-143.305 125.422,-120.695 76.5779,-120.695"/>
<text text-anchor="middle" x="101" y="-128.305" font-family="Futura" font-size="11.00">stdio.h</text>
</g>
<!-- Node1&#45;&gt;Node4 -->
<g id="edge6" class="edge"><title>Node1&#45;&gt;Node4</title>
<path fill="none" stroke="midnightblue" d="M156.843,-180.631C147.006,-172.24 132.939,-160.242 121.385,-150.387"/>
<polygon fill="midnightblue" stroke="midnightblue" points="123.392,-147.498 113.512,-143.672 118.849,-152.824 123.392,-147.498"/>
</g>
<!-- Node5 -->
<g id="node9" class="node"><title>Node5</title>
<polygon fill="none" stroke="#bfbfbf" points="143.216,-120.695 143.216,-143.305 194.784,-143.305 194.784,-120.695 143.216,-120.695"/>
<text text-anchor="middle" x="169" y="-128.305" font-family="Futura" font-size="11.00">stdlib.h</text>
</g>
<!-- Node1&#45;&gt;Node5 -->
<g id="edge8" class="edge"><title>Node1&#45;&gt;Node5</title>
<path fill="none" stroke="midnightblue" d="M169,-180.631C169,-173.218 169,-162.989 169,-153.91"/>
<polygon fill="midnightblue" stroke="midnightblue" points="172.5,-153.672 169,-143.672 165.5,-153.672 172.5,-153.672"/>
</g>
<!-- Node6 -->
<g id="node11" class="node"><title>Node6</title>
<a xlink:href="string_8h.html" target="_top" xlink:title="string.h">
<polygon fill="none" stroke="black" points="212.733,-120.695 212.733,-143.305 265.267,-143.305 265.267,-120.695 212.733,-120.695"/>
<text text-anchor="middle" x="239" y="-128.305" font-family="Futura" font-size="11.00">string.h</text>
</a>
</g>
<!-- Node1&#45;&gt;Node6 -->
<g id="edge10" class="edge"><title>Node1&#45;&gt;Node6</title>
<path fill="none" stroke="midnightblue" d="M181.515,-180.631C191.739,-172.159 206.403,-160.009 218.362,-150.1"/>
<polygon fill="midnightblue" stroke="midnightblue" points="220.653,-152.747 226.12,-143.672 216.187,-147.357 220.653,-152.747"/>
</g>
<!-- Node10 -->
<g id="node20" class="node"><title>Node10</title>
<polygon fill="none" stroke="#bfbfbf" points="282.832,-120.695 282.832,-143.305 335.168,-143.305 335.168,-120.695 282.832,-120.695"/>
<text text-anchor="middle" x="309" y="-128.305" font-family="Futura" font-size="11.00">ctype.h</text>
</g>
<!-- Node1&#45;&gt;Node10 -->
<g id="edge20" class="edge"><title>Node1&#45;&gt;Node10</title>
<path fill="none" stroke="midnightblue" d="M194.029,-180.631C216.387,-171.368 249.358,-157.709 274.266,-147.39"/>
<polygon fill="midnightblue" stroke="midnightblue" points="275.817,-150.536 283.715,-143.475 273.137,-144.069 275.817,-150.536"/>
</g>
<!-- Node3 -->
<g id="node5" class="node"><title>Node3</title>
<polygon fill="none" stroke="#bfbfbf" points="1.28003,-60.6953 1.28003,-83.3047 56.72,-83.3047 56.72,-60.6953 1.28003,-60.6953"/>
<text text-anchor="middle" x="29" y="-68.3047" font-family="Futura" font-size="11.00">stddef.h</text>
</g>
<!-- Node2&#45;&gt;Node3 -->
<g id="edge4" class="edge"><title>Node2&#45;&gt;Node3</title>
<path fill="none" stroke="midnightblue" d="M29,-120.631C29,-113.218 29,-102.989 29,-93.9096"/>
<polygon fill="midnightblue" stroke="midnightblue" points="32.5001,-93.6718 29,-83.6719 25.5001,-93.6719 32.5001,-93.6718"/>
</g>
<!-- Node7 -->
<g id="node13" class="node"><title>Node7</title>
<a xlink:href="fae_2fae_8h.html" target="_top" xlink:title="fae.h">
<polygon fill="none" stroke="red" points="218.23,-60.6953 218.23,-83.3047 259.77,-83.3047 259.77,-60.6953 218.23,-60.6953"/>
<text text-anchor="middle" x="239" y="-68.3047" font-family="Futura" font-size="11.00">fae.h</text>
</a>
</g>
<!-- Node6&#45;&gt;Node7 -->
<g id="edge12" class="edge"><title>Node6&#45;&gt;Node7</title>
<path fill="none" stroke="midnightblue" d="M239,-120.631C239,-113.218 239,-102.989 239,-93.9096"/>
<polygon fill="midnightblue" stroke="midnightblue" points="242.5,-93.6718 239,-83.6719 235.5,-93.6719 242.5,-93.6718"/>
</g>
<!-- Node8 -->
<g id="node15" class="node"><title>Node8</title>
<a xlink:href="atomic_8h.html" target="_top" xlink:title="fae/atomic.h">
<polygon fill="none" stroke="red" points="198.894,-0.695312 198.894,-23.3047 279.106,-23.3047 279.106,-0.695312 198.894,-0.695312"/>
<text text-anchor="middle" x="239" y="-8.30469" font-family="Futura" font-size="11.00">fae/atomic.h</text>
</a>
</g>
<!-- Node7&#45;&gt;Node8 -->
<g id="edge14" class="edge"><title>Node7&#45;&gt;Node8</title>
<path fill="none" stroke="midnightblue" d="M233.684,-60.6308C232.323,-53.1365 231.931,-42.7636 232.508,-33.6107"/>
<polygon fill="midnightblue" stroke="midnightblue" points="235.986,-34.0015 233.63,-23.6719 229.03,-33.2159 235.986,-34.0015"/>
</g>
<!-- Node9 -->
<g id="node18" class="node"><title>Node9</title>
<polygon fill="none" stroke="#bfbfbf" points="297.606,-0.695312 297.606,-23.3047 414.394,-23.3047 414.394,-0.695312 297.606,-0.695312"/>
<text text-anchor="middle" x="356" y="-8.30469" font-family="Futura" font-size="11.00">fae/atomic/queue.h</text>
</g>
<!-- Node7&#45;&gt;Node9 -->
<g id="edge18" class="edge"><title>Node7&#45;&gt;Node9</title>
<path fill="none" stroke="midnightblue" d="M259.917,-60.6308C278.271,-51.5323 305.184,-38.1908 325.861,-27.9407"/>
<polygon fill="midnightblue" stroke="midnightblue" points="327.464,-31.0524 334.869,-23.475 324.355,-24.7807 327.464,-31.0524"/>
</g>
<!-- Node8&#45;&gt;Node7 -->
<g id="edge16" class="edge"><title>Node8&#45;&gt;Node7</title>
<path fill="none" stroke="midnightblue" d="M244.37,-23.6719C245.691,-31.1602 246.064,-41.4112 245.488,-50.4586"/>
<polygon fill="midnightblue" stroke="midnightblue" points="241.984,-50.2958 244.316,-60.6308 248.938,-51.0972 241.984,-50.2958"/>
</g>
</g>
</svg>
