<?xml version="1.0" encoding="UTF-8" standalone="no"?>
<!DOCTYPE svg PUBLIC "-//W3C//DTD SVG 1.1//EN"
 "http://www.w3.org/Graphics/SVG/1.1/DTD/svg11.dtd">
<!-- Generated by graphviz version 2.28.0 (20121015.0031)
 -->
<!-- Title: src/platform/macosx/doremir/system/event.c Pages: 1 -->
<svg width="627pt" height="300pt"
 viewBox="0.00 0.00 627.00 300.00" xmlns="http://www.w3.org/2000/svg" xmlns:xlink="http://www.w3.org/1999/xlink">
<g id="graph1" class="graph" transform="scale(1 1) rotate(0) translate(4 296)">
<title>src/platform/macosx/doremir/system/event.c</title>
<!-- Node1 -->
<g id="node1" class="node"><title>Node1</title>
<polygon fill="#bfbfbf" stroke="black" points="233.112,-254.391 233.112,-291.609 372.888,-291.609 372.888,-254.391 233.112,-254.391"/>
<text text-anchor="start" x="241.112" y="-276.609" font-family="Futura" font-size="11.00">src/platform/macosx</text>
<text text-anchor="middle" x="303" y="-262" font-family="Futura" font-size="11.00">/doremir/system/event.c</text>
</g>
<!-- Node2 -->
<g id="node3" class="node"><title>Node2</title>
<a xlink:href="atomic_8h.html" target="_top" xlink:title="doremir/atomic.h">
<polygon fill="none" stroke="red" points="-0.492432,-60.6953 -0.492432,-83.3047 102.492,-83.3047 102.492,-60.6953 -0.492432,-60.6953"/>
<text text-anchor="middle" x="51" y="-68.3047" font-family="Futura" font-size="11.00">doremir/atomic.h</text>
</a>
</g>
<!-- Node1&#45;&gt;Node2 -->
<g id="edge2" class="edge"><title>Node1&#45;&gt;Node2</title>
<path fill="none" stroke="midnightblue" d="M232.836,-266.955C190.893,-260.827 138.622,-247.382 101,-218 62.3275,-187.798 53.4224,-125.946 51.4682,-93.657"/>
<polygon fill="midnightblue" stroke="midnightblue" points="54.9608,-93.4078 51.0295,-83.5694 47.9674,-93.712 54.9608,-93.4078"/>
</g>
<!-- Node4 -->
<g id="node7" class="node"><title>Node4</title>
<a xlink:href="string_8h.html" target="_top" xlink:title="doremir/string.h">
<polygon fill="none" stroke="black" points="69.4402,-120.695 69.4402,-143.305 166.56,-143.305 166.56,-120.695 69.4402,-120.695"/>
<text text-anchor="middle" x="118" y="-128.305" font-family="Futura" font-size="11.00">doremir/string.h</text>
</a>
</g>
<!-- Node1&#45;&gt;Node4 -->
<g id="edge6" class="edge"><title>Node1&#45;&gt;Node4</title>
<path fill="none" stroke="midnightblue" d="M233.01,-261.113C185.131,-252.07 127.753,-237.53 113,-218 99.0066,-199.475 104.064,-171.689 110.065,-152.977"/>
<polygon fill="midnightblue" stroke="midnightblue" points="113.421,-153.984 113.475,-143.389 106.826,-151.638 113.421,-153.984"/>
</g>
<!-- Node5 -->
<g id="node10" class="node"><title>Node5</title>
<a xlink:href="message_8h.html" target="_top" xlink:title="doremir/message.h">
<polygon fill="none" stroke="red" points="222.504,-60.6953 222.504,-83.3047 335.496,-83.3047 335.496,-60.6953 222.504,-60.6953"/>
<text text-anchor="middle" x="279" y="-68.3047" font-family="Futura" font-size="11.00">doremir/message.h</text>
</a>
</g>
<!-- Node1&#45;&gt;Node5 -->
<g id="edge10" class="edge"><title>Node1&#45;&gt;Node5</title>
<path fill="none" stroke="midnightblue" d="M300.87,-254.34C296.434,-217.553 286.221,-132.878 281.49,-93.6466"/>
<polygon fill="midnightblue" stroke="midnightblue" points="284.957,-93.1641 280.285,-83.6551 278.008,-94.0023 284.957,-93.1641"/>
</g>
<!-- Node6 -->
<g id="node13" class="node"><title>Node6</title>
<a xlink:href="event_8h.html" target="_top" xlink:title="doremir/event.h">
<polygon fill="none" stroke="red" points="306.813,-120.695 306.813,-143.305 403.187,-143.305 403.187,-120.695 306.813,-120.695"/>
<text text-anchor="middle" x="355" y="-128.305" font-family="Futura" font-size="11.00">doremir/event.h</text>
</a>
</g>
<!-- Node1&#45;&gt;Node6 -->
<g id="edge14" class="edge"><title>Node1&#45;&gt;Node6</title>
<path fill="none" stroke="midnightblue" d="M309.692,-254.113C319.378,-228.22 337.255,-180.433 347.418,-153.268"/>
<polygon fill="midnightblue" stroke="midnightblue" points="350.794,-154.233 351.019,-143.64 344.237,-151.78 350.794,-154.233"/>
</g>
<!-- Node7 -->
<g id="node17" class="node"><title>Node7</title>
<a xlink:href="thread_8h.html" target="_top" xlink:title="doremir/thread.h">
<polygon fill="none" stroke="red" points="420.706,-120.695 420.706,-143.305 523.294,-143.305 523.294,-120.695 420.706,-120.695"/>
<text text-anchor="middle" x="472" y="-128.305" font-family="Futura" font-size="11.00">doremir/thread.h</text>
</a>
</g>
<!-- Node1&#45;&gt;Node7 -->
<g id="edge20" class="edge"><title>Node1&#45;&gt;Node7</title>
<path fill="none" stroke="midnightblue" d="M317.192,-254.028C337.102,-228.939 371.717,-185.82 379,-180 395.695,-166.661 416.784,-155.624 434.657,-147.606"/>
<polygon fill="midnightblue" stroke="midnightblue" points="436.424,-150.655 444.208,-143.467 433.64,-144.232 436.424,-150.655"/>
</g>
<!-- Node8 -->
<g id="node20" class="node"><title>Node8</title>
<a xlink:href="system_2event_8h.html" target="_top" xlink:title="doremir/system/event.h">
<polygon fill="none" stroke="black" points="121.566,-187.695 121.566,-210.305 256.434,-210.305 256.434,-187.695 121.566,-187.695"/>
<text text-anchor="middle" x="189" y="-195.305" font-family="Futura" font-size="11.00">doremir/system/event.h</text>
</a>
</g>
<!-- Node1&#45;&gt;Node8 -->
<g id="edge24" class="edge"><title>Node1&#45;&gt;Node8</title>
<path fill="none" stroke="midnightblue" d="M275.112,-254.387C256.476,-242.617 232.165,-227.262 214.128,-215.871"/>
<polygon fill="midnightblue" stroke="midnightblue" points="215.655,-212.695 205.332,-210.315 211.917,-218.614 215.655,-212.695"/>
</g>
<!-- Node9 -->
<g id="node26" class="node"><title>Node9</title>
<a xlink:href="util_8h.html" target="_top" xlink:title="doremir/util.h">
<polygon fill="none" stroke="red" points="387.754,-187.695 387.754,-210.305 472.246,-210.305 472.246,-187.695 387.754,-187.695"/>
<text text-anchor="middle" x="430" y="-195.305" font-family="Futura" font-size="11.00">doremir/util.h</text>
</a>
</g>
<!-- Node1&#45;&gt;Node9 -->
<g id="edge34" class="edge"><title>Node1&#45;&gt;Node9</title>
<path fill="none" stroke="midnightblue" d="M334.068,-254.387C355.21,-242.401 382.909,-226.697 403.105,-215.248"/>
<polygon fill="midnightblue" stroke="midnightblue" points="404.833,-218.291 411.806,-210.315 401.381,-212.202 404.833,-218.291"/>
</g>
<!-- Node10 -->
<g id="node28" class="node"><title>Node10</title>
<polygon fill="none" stroke="#bfbfbf" points="490.343,-180.391 490.343,-217.609 619.657,-217.609 619.657,-180.391 490.343,-180.391"/>
<text text-anchor="start" x="498.343" y="-202.609" font-family="Futura" font-size="11.00">ApplicationServices</text>
<text text-anchor="middle" x="555" y="-188" font-family="Futura" font-size="11.00">/ApplicationServices.h</text>
</g>
<!-- Node1&#45;&gt;Node10 -->
<g id="edge36" class="edge"><title>Node1&#45;&gt;Node10</title>
<path fill="none" stroke="midnightblue" d="M364.646,-254.387C400.493,-244.145 445.84,-231.188 483.281,-220.491"/>
<polygon fill="midnightblue" stroke="midnightblue" points="484.463,-223.794 493.117,-217.681 482.54,-217.063 484.463,-223.794"/>
</g>
<!-- Node3 -->
<g id="node5" class="node"><title>Node3</title>
<a xlink:href="doremir_8h.html" target="_top" xlink:title="doremir.h">
<polygon fill="none" stroke="red" points="205.136,-0.695312 205.136,-23.3047 268.864,-23.3047 268.864,-0.695312 205.136,-0.695312"/>
<text text-anchor="middle" x="237" y="-8.30469" font-family="Futura" font-size="11.00">doremir.h</text>
</a>
</g>
<!-- Node2&#45;&gt;Node3 -->
<g id="edge4" class="edge"><title>Node2&#45;&gt;Node3</title>
<path fill="none" stroke="midnightblue" d="M84.2531,-60.6308C115.219,-50.9748 161.51,-36.5399 195.012,-26.093"/>
<polygon fill="midnightblue" stroke="midnightblue" points="196.463,-29.3069 204.968,-22.9886 194.379,-22.6243 196.463,-29.3069"/>
</g>
<!-- Node4&#45;&gt;Node3 -->
<g id="edge8" class="edge"><title>Node4&#45;&gt;Node3</title>
<path fill="none" stroke="midnightblue" d="M126.521,-120.458C138.23,-106.199 160.211,-80.2245 181,-60 191.912,-49.3847 204.891,-38.3997 215.605,-29.7214"/>
<polygon fill="midnightblue" stroke="midnightblue" points="218.004,-32.285 223.629,-23.3073 213.633,-26.8171 218.004,-32.285"/>
</g>
<!-- Node5&#45;&gt;Node3 -->
<g id="edge12" class="edge"><title>Node5&#45;&gt;Node3</title>
<path fill="none" stroke="midnightblue" d="M271.491,-60.6308C265.71,-52.6478 257.564,-41.3984 250.64,-31.8366"/>
<polygon fill="midnightblue" stroke="midnightblue" points="253.428,-29.7185 244.728,-23.6719 247.758,-33.8241 253.428,-29.7185"/>
</g>
<!-- Node6&#45;&gt;Node3 -->
<g id="edge16" class="edge"><title>Node6&#45;&gt;Node3</title>
<path fill="none" stroke="midnightblue" d="M356.285,-120.649C357.562,-105.671 357.683,-77.8014 344,-60 328.221,-39.4709 301.584,-27.7298 278.836,-21.1165"/>
<polygon fill="midnightblue" stroke="midnightblue" points="279.604,-17.6991 269.04,-18.5055 277.801,-24.463 279.604,-17.6991"/>
</g>
<!-- Node6&#45;&gt;Node5 -->
<g id="edge18" class="edge"><title>Node6&#45;&gt;Node5</title>
<path fill="none" stroke="midnightblue" d="M341.413,-120.631C330.135,-112.024 313.882,-99.6207 300.789,-89.6288"/>
<polygon fill="midnightblue" stroke="midnightblue" points="302.799,-86.7595 292.726,-83.475 298.552,-92.3241 302.799,-86.7595"/>
</g>
<!-- Node7&#45;&gt;Node3 -->
<g id="edge22" class="edge"><title>Node7&#45;&gt;Node3</title>
<path fill="none" stroke="midnightblue" d="M458.295,-120.512C438.366,-105.612 399.847,-78.119 364,-60 336.493,-46.0963 303.853,-34.1072 278.552,-25.718"/>
<polygon fill="midnightblue" stroke="midnightblue" points="279.485,-22.3411 268.893,-22.5713 277.317,-28.9968 279.485,-22.3411"/>
</g>
<!-- Node8&#45;&gt;Node3 -->
<g id="edge26" class="edge"><title>Node8&#45;&gt;Node3</title>
<path fill="none" stroke="midnightblue" d="M189.919,-187.369C192.164,-163.889 198.889,-106.037 214,-60 217.095,-50.5703 221.737,-40.6293 226.043,-32.3307"/>
<polygon fill="midnightblue" stroke="midnightblue" points="229.154,-33.9341 230.829,-23.4724 222.996,-30.6066 229.154,-33.9341"/>
</g>
<!-- Node8&#45;&gt;Node4 -->
<g id="edge32" class="edge"><title>Node8&#45;&gt;Node4</title>
<path fill="none" stroke="midnightblue" d="M177.593,-187.557C166.685,-177.571 150.033,-162.326 137.101,-150.487"/>
<polygon fill="midnightblue" stroke="midnightblue" points="139.354,-147.804 129.615,-143.633 134.627,-152.968 139.354,-147.804"/>
</g>
<!-- Node8&#45;&gt;Node5 -->
<g id="edge28" class="edge"><title>Node8&#45;&gt;Node5</title>
<path fill="none" stroke="midnightblue" d="M196.673,-187.343C211.95,-166.125 246.341,-118.36 265.487,-91.7679"/>
<polygon fill="midnightblue" stroke="midnightblue" points="268.343,-93.7909 271.346,-83.6305 262.663,-89.7007 268.343,-93.7909"/>
</g>
<!-- Node8&#45;&gt;Node6 -->
<g id="edge30" class="edge"><title>Node8&#45;&gt;Node6</title>
<path fill="none" stroke="midnightblue" d="M215.671,-187.557C243.706,-176.579 287.975,-159.245 319.073,-147.068"/>
<polygon fill="midnightblue" stroke="midnightblue" points="320.634,-150.215 328.67,-143.31 318.082,-143.697 320.634,-150.215"/>
</g>
</g>
</svg>
