<?xml version="1.0" encoding="UTF-8" standalone="no"?>
<!DOCTYPE svg PUBLIC "-//W3C//DTD SVG 1.1//EN"
 "http://www.w3.org/Graphics/SVG/1.1/DTD/svg11.dtd">
<!-- Generated by graphviz version 2.28.0 (20121015.0031)
 -->
<!-- Title: src/platform/macosx/fae/string.c Pages: 1 -->
<svg width="750pt" height="226pt"
 viewBox="0.00 0.00 750.00 226.00" xmlns="http://www.w3.org/2000/svg" xmlns:xlink="http://www.w3.org/1999/xlink">
<g id="graph1" class="graph" transform="scale(1 1) rotate(0) translate(4 222)">
<title>src/platform/macosx/fae/string.c</title>
<!-- Node1 -->
<g id="node1" class="node"><title>Node1</title>
<polygon fill="#bfbfbf" stroke="black" points="359.597,-180.391 359.597,-217.609 480.403,-217.609 480.403,-180.391 359.597,-180.391"/>
<text text-anchor="start" x="367.597" y="-202.609" font-family="Futura" font-size="11.00">src/platform/macosx</text>
<text text-anchor="middle" x="420" y="-188" font-family="Futura" font-size="11.00">/fae/string.c</text>
</g>
<!-- Node2 -->
<g id="node3" class="node"><title>Node2</title>
<a xlink:href="string_8h.html" target="_top" xlink:title="fae/string.h">
<polygon fill="none" stroke="black" points="350.827,-60.6953 350.827,-83.3047 425.173,-83.3047 425.173,-60.6953 350.827,-60.6953"/>
<text text-anchor="middle" x="388" y="-68.3047" font-family="Futura" font-size="11.00">fae/string.h</text>
</a>
</g>
<!-- Node1&#45;&gt;Node2 -->
<g id="edge2" class="edge"><title>Node1&#45;&gt;Node2</title>
<path fill="none" stroke="midnightblue" d="M394.778,-180.203C383.726,-170.842 371.936,-158.331 366,-144 358.87,-126.787 366.78,-106.407 375.033,-91.9071"/>
<polygon fill="midnightblue" stroke="midnightblue" points="378.061,-93.6643 380.351,-83.3199 372.11,-89.9785 378.061,-93.6643"/>
</g>
<!-- Node4 -->
<g id="node7" class="node"><title>Node4</title>
<a xlink:href="util_8h.html" target="_top" xlink:title="fae/util.h">
<polygon fill="none" stroke="red" points="188.141,-120.695 188.141,-143.305 249.859,-143.305 249.859,-120.695 188.141,-120.695"/>
<text text-anchor="middle" x="219" y="-128.305" font-family="Futura" font-size="11.00">fae/util.h</text>
</a>
</g>
<!-- Node1&#45;&gt;Node4 -->
<g id="edge6" class="edge"><title>Node1&#45;&gt;Node4</title>
<path fill="none" stroke="midnightblue" d="M365.341,-180.324C332.024,-169.55 290.152,-156.009 259.742,-146.175"/>
<polygon fill="midnightblue" stroke="midnightblue" points="260.489,-142.739 249.898,-142.992 258.335,-149.399 260.489,-142.739"/>
</g>
<!-- Node8 -->
<g id="node15" class="node"><title>Node8</title>
<a xlink:href="dynamic_8h.html" target="_top" xlink:title="fae/dynamic.h">
<polygon fill="none" stroke="black" points="375.439,-120.695 375.439,-143.305 464.561,-143.305 464.561,-120.695 375.439,-120.695"/>
<text text-anchor="middle" x="420" y="-128.305" font-family="Futura" font-size="11.00">fae/dynamic.h</text>
</a>
</g>
<!-- Node1&#45;&gt;Node8 -->
<g id="edge14" class="edge"><title>Node1&#45;&gt;Node8</title>
<path fill="none" stroke="midnightblue" d="M420,-180.238C420,-172.084 420,-162.359 420,-153.859"/>
<polygon fill="midnightblue" stroke="midnightblue" points="423.5,-153.624 420,-143.624 416.5,-153.624 423.5,-153.624"/>
</g>
<!-- Node9 -->
<g id="node19" class="node"><title>Node9</title>
<polygon fill="none" stroke="#bfbfbf" points="482.598,-120.695 482.598,-143.305 533.402,-143.305 533.402,-120.695 482.598,-120.695"/>
<text text-anchor="middle" x="508" y="-128.305" font-family="Futura" font-size="11.00">iconv.h</text>
</g>
<!-- Node1&#45;&gt;Node9 -->
<g id="edge20" class="edge"><title>Node1&#45;&gt;Node9</title>
<path fill="none" stroke="midnightblue" d="M444.046,-180.238C457.029,-170.649 472.953,-158.887 485.663,-149.499"/>
<polygon fill="midnightblue" stroke="midnightblue" points="487.909,-152.191 493.873,-143.434 483.75,-146.56 487.909,-152.191"/>
</g>
<!-- Node10 -->
<g id="node21" class="node"><title>Node10</title>
<polygon fill="none" stroke="#bfbfbf" points="551.279,-120.695 551.279,-143.305 742.721,-143.305 742.721,-120.695 551.279,-120.695"/>
<text text-anchor="middle" x="647" y="-128.305" font-family="Futura" font-size="11.00">CoreFoundation/CoreFoundation.h</text>
</g>
<!-- Node1&#45;&gt;Node10 -->
<g id="edge22" class="edge"><title>Node1&#45;&gt;Node10</title>
<path fill="none" stroke="midnightblue" d="M480.534,-180.667C518.308,-169.85 566.172,-156.145 600.871,-146.209"/>
<polygon fill="midnightblue" stroke="midnightblue" points="602.089,-149.501 610.739,-143.383 600.162,-142.771 602.089,-149.501"/>
</g>
<!-- Node3 -->
<g id="node5" class="node"><title>Node3</title>
<a xlink:href="fae_2fae_8h.html" target="_top" xlink:title="fae.h">
<polygon fill="none" stroke="red" points="399.23,-0.695312 399.23,-23.3047 440.77,-23.3047 440.77,-0.695312 399.23,-0.695312"/>
<text text-anchor="middle" x="420" y="-8.30469" font-family="Futura" font-size="11.00">fae.h</text>
</a>
</g>
<!-- Node2&#45;&gt;Node3 -->
<g id="edge4" class="edge"><title>Node2&#45;&gt;Node3</title>
<path fill="none" stroke="midnightblue" d="M393.721,-60.6308C397.991,-52.8921 403.954,-42.0841 409.12,-32.7193"/>
<polygon fill="midnightblue" stroke="midnightblue" points="412.346,-34.1184 414.112,-23.6719 406.217,-30.7369 412.346,-34.1184"/>
</g>
<!-- Node5 -->
<g id="node9" class="node"><title>Node5</title>
<a xlink:href="arch_8h.html" target="_top" xlink:title="fae/util/arch.h">
<polygon fill="none" stroke="black" points="-0.794678,-60.6953 -0.794678,-83.3047 88.7947,-83.3047 88.7947,-60.6953 -0.794678,-60.6953"/>
<text text-anchor="middle" x="44" y="-68.3047" font-family="Futura" font-size="11.00">fae/util/arch.h</text>
</a>
</g>
<!-- Node4&#45;&gt;Node5 -->
<g id="edge8" class="edge"><title>Node4&#45;&gt;Node5</title>
<path fill="none" stroke="midnightblue" d="M188.116,-120.764C159.429,-111.257 116.513,-97.033 84.9721,-86.5793"/>
<polygon fill="midnightblue" stroke="midnightblue" points="85.7569,-83.1523 75.1636,-83.3285 83.5547,-89.7968 85.7569,-83.1523"/>
</g>
<!-- Node6 -->
<g id="node11" class="node"><title>Node6</title>
<a xlink:href="alignof_8h.html" target="_top" xlink:title="fae/util/alignof.h">
<polygon fill="none" stroke="black" points="107.007,-60.6953 107.007,-83.3047 208.993,-83.3047 208.993,-60.6953 107.007,-60.6953"/>
<text text-anchor="middle" x="158" y="-68.3047" font-family="Futura" font-size="11.00">fae/util/alignof.h</text>
</a>
</g>
<!-- Node4&#45;&gt;Node6 -->
<g id="edge10" class="edge"><title>Node4&#45;&gt;Node6</title>
<path fill="none" stroke="midnightblue" d="M208.094,-120.631C199.356,-112.322 186.896,-100.475 176.589,-90.6745"/>
<polygon fill="midnightblue" stroke="midnightblue" points="178.883,-88.026 169.224,-83.6719 174.059,-93.099 178.883,-88.026"/>
</g>
<!-- Node7 -->
<g id="node13" class="node"><title>Node7</title>
<a xlink:href="minmax_8h.html" target="_top" xlink:title="fae/util/minmax.h">
<polygon fill="none" stroke="red" points="226.837,-60.6953 226.837,-83.3047 333.163,-83.3047 333.163,-60.6953 226.837,-60.6953"/>
<text text-anchor="middle" x="280" y="-68.3047" font-family="Futura" font-size="11.00">fae/util/minmax.h</text>
</a>
</g>
<!-- Node4&#45;&gt;Node7 -->
<g id="edge12" class="edge"><title>Node4&#45;&gt;Node7</title>
<path fill="none" stroke="midnightblue" d="M229.906,-120.631C238.644,-112.322 251.104,-100.475 261.411,-90.6745"/>
<polygon fill="midnightblue" stroke="midnightblue" points="263.941,-93.099 268.776,-83.6719 259.117,-88.026 263.941,-93.099"/>
</g>
<!-- Node8&#45;&gt;Node2 -->
<g id="edge18" class="edge"><title>Node8&#45;&gt;Node2</title>
<path fill="none" stroke="midnightblue" d="M414.279,-120.631C410.009,-112.892 404.046,-102.084 398.88,-92.7193"/>
<polygon fill="midnightblue" stroke="midnightblue" points="401.783,-90.7369 393.888,-83.6719 395.654,-94.1184 401.783,-90.7369"/>
</g>
<!-- Node8&#45;&gt;Node3 -->
<g id="edge16" class="edge"><title>Node8&#45;&gt;Node3</title>
<path fill="none" stroke="midnightblue" d="M424.13,-120.372C427.548,-110.974 432.133,-96.806 434,-84 435.539,-73.4449 435.539,-70.5551 434,-60 432.687,-50.9958 430.031,-41.3181 427.381,-33.0986"/>
<polygon fill="midnightblue" stroke="midnightblue" points="430.687,-31.9496 424.13,-23.6276 424.066,-34.2223 430.687,-31.9496"/>
</g>
</g>
</svg>
