<?xml version="1.0" encoding="UTF-8" standalone="no"?>
<!DOCTYPE svg PUBLIC "-//W3C//DTD SVG 1.1//EN"
 "http://www.w3.org/Graphics/SVG/1.1/DTD/svg11.dtd">
<!-- Generated by graphviz version 2.28.0 (20121015.0031)
 -->
<!-- Title: src/platform/macosx/fae/system/event.c Pages: 1 -->
<svg width="585pt" height="300pt"
 viewBox="0.00 0.00 585.00 300.00" xmlns="http://www.w3.org/2000/svg" xmlns:xlink="http://www.w3.org/1999/xlink">
<g id="graph1" class="graph" transform="scale(1 1) rotate(0) translate(4 296)">
<title>src/platform/macosx/fae/system/event.c</title>
<!-- Node1 -->
<g id="node1" class="node"><title>Node1</title>
<polygon fill="#bfbfbf" stroke="black" points="222.597,-254.391 222.597,-291.609 343.403,-291.609 343.403,-254.391 222.597,-254.391"/>
<text text-anchor="start" x="230.597" y="-276.609" font-family="Futura" font-size="11.00">src/platform/macosx</text>
<text text-anchor="middle" x="283" y="-262" font-family="Futura" font-size="11.00">/fae/system/event.c</text>
</g>
<!-- Node2 -->
<g id="node3" class="node"><title>Node2</title>
<a xlink:href="atomic_8h.html" target="_top" xlink:title="fae/atomic.h">
<polygon fill="none" stroke="red" points="193.894,-120.695 193.894,-143.305 274.106,-143.305 274.106,-120.695 193.894,-120.695"/>
<text text-anchor="middle" x="234" y="-128.305" font-family="Futura" font-size="11.00">fae/atomic.h</text>
</a>
</g>
<!-- Node1&#45;&gt;Node2 -->
<g id="edge2" class="edge"><title>Node1&#45;&gt;Node2</title>
<path fill="none" stroke="midnightblue" d="M276.694,-254.113C267.567,-228.22 250.721,-180.433 241.145,-153.268"/>
<polygon fill="midnightblue" stroke="midnightblue" points="244.377,-151.908 237.751,-143.64 237.775,-154.235 244.377,-151.908"/>
</g>
<!-- Node4 -->
<g id="node8" class="node"><title>Node4</title>
<polygon fill="none" stroke="#bfbfbf" points="-0.799805,-0.695312 -0.799805,-23.3047 72.7998,-23.3047 72.7998,-0.695312 -0.799805,-0.695312"/>
<text text-anchor="middle" x="36" y="-8.30469" font-family="Futura" font-size="11.00">fae/event.h</text>
</g>
<!-- Node1&#45;&gt;Node4 -->
<g id="edge22" class="edge"><title>Node1&#45;&gt;Node4</title>
<path fill="none" stroke="midnightblue" d="M222.53,-266.888C158.32,-260.081 62.9625,-245.557 40,-218 -4.46188,-164.643 16.5263,-73.5384 29.0255,-33.2191"/>
<polygon fill="midnightblue" stroke="midnightblue" points="32.429,-34.0703 32.1923,-23.4781 25.772,-31.906 32.429,-34.0703"/>
</g>
<!-- Node5 -->
<g id="node10" class="node"><title>Node5</title>
<polygon fill="none" stroke="#bfbfbf" points="139.891,-0.695312 139.891,-23.3047 230.109,-23.3047 230.109,-0.695312 139.891,-0.695312"/>
<text text-anchor="middle" x="185" y="-8.30469" font-family="Futura" font-size="11.00">fae/message.h</text>
</g>
<!-- Node1&#45;&gt;Node5 -->
<g id="edge20" class="edge"><title>Node1&#45;&gt;Node5</title>
<path fill="none" stroke="midnightblue" d="M287.181,-254.29C295.424,-214.646 309.211,-117.718 263,-60 251.953,-46.2022 235.679,-35.4921 220.85,-27.8043"/>
<polygon fill="midnightblue" stroke="midnightblue" points="222.384,-24.6584 211.864,-23.4075 219.308,-30.9462 222.384,-24.6584"/>
</g>
<!-- Node6 -->
<g id="node12" class="node"><title>Node6</title>
<a xlink:href="thread_8h.html" target="_top" xlink:title="fae/thread.h">
<polygon fill="none" stroke="red" points="248.093,-0.695312 248.093,-23.3047 327.907,-23.3047 327.907,-0.695312 248.093,-0.695312"/>
<text text-anchor="middle" x="288" y="-8.30469" font-family="Futura" font-size="11.00">fae/thread.h</text>
</a>
</g>
<!-- Node1&#45;&gt;Node6 -->
<g id="edge24" class="edge"><title>Node1&#45;&gt;Node6</title>
<path fill="none" stroke="midnightblue" d="M297.33,-254.195C304.452,-244.194 312.31,-231.115 316,-218 335.02,-150.403 334.639,-127.704 316,-60 313.253,-50.02 307.77,-40.0192 302.378,-31.824"/>
<polygon fill="midnightblue" stroke="midnightblue" points="305.096,-29.6036 296.481,-23.4361 299.369,-33.6296 305.096,-29.6036"/>
</g>
<!-- Node7 -->
<g id="node15" class="node"><title>Node7</title>
<a xlink:href="string_8h.html" target="_top" xlink:title="fae/string.h">
<polygon fill="none" stroke="black" points="101.827,-120.695 101.827,-143.305 176.173,-143.305 176.173,-120.695 101.827,-120.695"/>
<text text-anchor="middle" x="139" y="-128.305" font-family="Futura" font-size="11.00">fae/string.h</text>
</a>
</g>
<!-- Node1&#45;&gt;Node7 -->
<g id="edge16" class="edge"><title>Node1&#45;&gt;Node7</title>
<path fill="none" stroke="midnightblue" d="M264.469,-254.113C236.815,-227.418 185.05,-177.451 157.445,-150.805"/>
<polygon fill="midnightblue" stroke="midnightblue" points="159.649,-148.067 150.023,-143.64 154.787,-153.104 159.649,-148.067"/>
</g>
<!-- Node8 -->
<g id="node21" class="node"><title>Node8</title>
<a xlink:href="event_8h.html" target="_top" xlink:title="fae/system/event.h">
<polygon fill="none" stroke="red" points="48.9529,-187.695 48.9529,-210.305 161.047,-210.305 161.047,-187.695 48.9529,-187.695"/>
<text text-anchor="middle" x="105" y="-195.305" font-family="Futura" font-size="11.00">fae/system/event.h</text>
</a>
</g>
<!-- Node1&#45;&gt;Node8 -->
<g id="edge26" class="edge"><title>Node1&#45;&gt;Node8</title>
<path fill="none" stroke="midnightblue" d="M239.456,-254.387C208.89,-242.023 168.545,-225.704 140.05,-214.177"/>
<polygon fill="midnightblue" stroke="midnightblue" points="141.083,-210.82 130.5,-210.315 138.458,-217.309 141.083,-210.82"/>
</g>
<!-- Node9 -->
<g id="node26" class="node"><title>Node9</title>
<a xlink:href="util_8h.html" target="_top" xlink:title="fae/util.h">
<polygon fill="none" stroke="red" points="368.141,-187.695 368.141,-210.305 429.859,-210.305 429.859,-187.695 368.141,-187.695"/>
<text text-anchor="middle" x="399" y="-195.305" font-family="Futura" font-size="11.00">fae/util.h</text>
</a>
</g>
<!-- Node1&#45;&gt;Node9 -->
<g id="edge34" class="edge"><title>Node1&#45;&gt;Node9</title>
<path fill="none" stroke="midnightblue" d="M311.377,-254.387C330.427,-242.563 355.305,-227.121 373.683,-215.714"/>
<polygon fill="midnightblue" stroke="midnightblue" points="375.731,-218.562 382.382,-210.315 372.04,-212.615 375.731,-218.562"/>
</g>
<!-- Node10 -->
<g id="node28" class="node"><title>Node10</title>
<polygon fill="none" stroke="#bfbfbf" points="448.343,-180.391 448.343,-217.609 577.657,-217.609 577.657,-180.391 448.343,-180.391"/>
<text text-anchor="start" x="456.343" y="-202.609" font-family="Futura" font-size="11.00">ApplicationServices</text>
<text text-anchor="middle" x="513" y="-188" font-family="Futura" font-size="11.00">/ApplicationServices.h</text>
</g>
<!-- Node1&#45;&gt;Node10 -->
<g id="edge36" class="edge"><title>Node1&#45;&gt;Node10</title>
<path fill="none" stroke="midnightblue" d="M339.264,-254.387C371.704,-244.232 412.666,-231.409 446.668,-220.765"/>
<polygon fill="midnightblue" stroke="midnightblue" points="448.022,-224.009 456.519,-217.681 445.93,-217.328 448.022,-224.009"/>
</g>
<!-- Node3 -->
<g id="node5" class="node"><title>Node3</title>
<a xlink:href="fae_2fae_8h.html" target="_top" xlink:title="fae.h">
<polygon fill="none" stroke="red" points="213.23,-60.6953 213.23,-83.3047 254.77,-83.3047 254.77,-60.6953 213.23,-60.6953"/>
<text text-anchor="middle" x="234" y="-68.3047" font-family="Futura" font-size="11.00">fae.h</text>
</a>
</g>
<!-- Node2&#45;&gt;Node3 -->
<g id="edge4" class="edge"><title>Node2&#45;&gt;Node3</title>
<path fill="none" stroke="midnightblue" d="M228.684,-120.631C227.323,-113.137 226.931,-102.764 227.508,-93.6107"/>
<polygon fill="midnightblue" stroke="midnightblue" points="230.986,-94.0015 228.63,-83.6719 224.03,-93.2159 230.986,-94.0015"/>
</g>
<!-- Node3&#45;&gt;Node2 -->
<g id="edge6" class="edge"><title>Node3&#45;&gt;Node2</title>
<path fill="none" stroke="midnightblue" d="M239.37,-83.6719C240.691,-91.1602 241.064,-101.411 240.488,-110.459"/>
<polygon fill="midnightblue" stroke="midnightblue" points="236.984,-110.296 239.316,-120.631 243.938,-111.097 236.984,-110.296"/>
</g>
<!-- Node3&#45;&gt;Node4 -->
<g id="edge8" class="edge"><title>Node3&#45;&gt;Node4</title>
<path fill="none" stroke="midnightblue" d="M213.185,-64.9026C182.09,-55.794 122.742,-38.4092 81.3382,-26.2809"/>
<polygon fill="midnightblue" stroke="midnightblue" points="82.0693,-22.848 71.4886,-23.3956 80.1014,-29.5657 82.0693,-22.848"/>
</g>
<!-- Node3&#45;&gt;Node5 -->
<g id="edge10" class="edge"><title>Node3&#45;&gt;Node5</title>
<path fill="none" stroke="midnightblue" d="M225.24,-60.6308C218.427,-52.5663 208.797,-41.1685 200.667,-31.5444"/>
<polygon fill="midnightblue" stroke="midnightblue" points="203.143,-29.052 194.016,-23.6719 197.796,-33.5695 203.143,-29.052"/>
</g>
<!-- Node3&#45;&gt;Node6 -->
<g id="edge12" class="edge"><title>Node3&#45;&gt;Node6</title>
<path fill="none" stroke="midnightblue" d="M238.338,-60.6308C244.565,-52.3219 255.277,-40.4746 265.274,-30.6745"/>
<polygon fill="midnightblue" stroke="midnightblue" points="267.824,-33.081 272.694,-23.6719 263.019,-27.9903 267.824,-33.081"/>
</g>
<!-- Node6&#45;&gt;Node3 -->
<g id="edge14" class="edge"><title>Node6&#45;&gt;Node3</title>
<path fill="none" stroke="midnightblue" d="M283.434,-23.6719C277.1,-32.0654 266.343,-43.9299 256.364,-53.6797"/>
<polygon fill="midnightblue" stroke="midnightblue" points="253.858,-51.231 248.97,-60.6308 258.653,-56.3311 253.858,-51.231"/>
</g>
<!-- Node7&#45;&gt;Node3 -->
<g id="edge18" class="edge"><title>Node7&#45;&gt;Node3</title>
<path fill="none" stroke="midnightblue" d="M155.984,-120.631C170.484,-111.778 191.563,-98.9089 208.156,-88.7784"/>
<polygon fill="midnightblue" stroke="midnightblue" points="210.131,-91.6732 216.843,-83.475 206.484,-85.6987 210.131,-91.6732"/>
</g>
<!-- Node8&#45;&gt;Node4 -->
<g id="edge30" class="edge"><title>Node8&#45;&gt;Node4</title>
<path fill="none" stroke="midnightblue" d="M93.4609,-187.61C83.0179,-177.521 68.0738,-161.241 60,-144 42.9256,-107.54 37.975,-60.0724 36.5549,-33.4396"/>
<polygon fill="midnightblue" stroke="midnightblue" points="40.0497,-33.2399 36.1374,-23.3939 33.0558,-33.5306 40.0497,-33.2399"/>
</g>
<!-- Node8&#45;&gt;Node5 -->
<g id="edge28" class="edge"><title>Node8&#45;&gt;Node5</title>
<path fill="none" stroke="midnightblue" d="M100.188,-187.572C93.8418,-172.291 84.4259,-143.123 93,-120 106.972,-82.3184 140.815,-48.9931 163.324,-29.9138"/>
<polygon fill="midnightblue" stroke="midnightblue" points="165.837,-32.3785 171.332,-23.3197 161.387,-26.975 165.837,-32.3785"/>
</g>
<!-- Node8&#45;&gt;Node7 -->
<g id="edge32" class="edge"><title>Node8&#45;&gt;Node7</title>
<path fill="none" stroke="midnightblue" d="M110.463,-187.557C115.39,-178.136 122.766,-164.035 128.785,-152.529"/>
<polygon fill="midnightblue" stroke="midnightblue" points="131.904,-154.117 133.438,-143.633 125.702,-150.872 131.904,-154.117"/>
</g>
</g>
</svg>
