<?xml version="1.0" encoding="UTF-8" standalone="no"?>
<!DOCTYPE svg PUBLIC "-//W3C//DTD SVG 1.1//EN"
 "http://www.w3.org/Graphics/SVG/1.1/DTD/svg11.dtd">
<!-- Generated by graphviz version 2.28.0 (20121015.0031)
 -->
<!-- Title: src/platform/macosx/doremir/string.c Pages: 1 -->
<svg width="848pt" height="226pt"
 viewBox="0.00 0.00 848.00 226.00" xmlns="http://www.w3.org/2000/svg" xmlns:xlink="http://www.w3.org/1999/xlink">
<g id="graph1" class="graph" transform="scale(1 1) rotate(0) translate(4 222)">
<title>src/platform/macosx/doremir/string.c</title>
<!-- Node1 -->
<g id="node1" class="node"><title>Node1</title>
<polygon fill="#bfbfbf" stroke="black" points="446.597,-180.391 446.597,-217.609 567.403,-217.609 567.403,-180.391 446.597,-180.391"/>
<text text-anchor="start" x="454.597" y="-202.609" font-family="Futura" font-size="11.00">src/platform/macosx</text>
<text text-anchor="middle" x="507" y="-188" font-family="Futura" font-size="11.00">/doremir/string.c</text>
</g>
<!-- Node2 -->
<g id="node3" class="node"><title>Node2</title>
<a xlink:href="string_8h.html" target="_top" xlink:title="doremir/string.h">
<polygon fill="none" stroke="black" points="420.44,-60.6953 420.44,-83.3047 517.56,-83.3047 517.56,-60.6953 420.44,-60.6953"/>
<text text-anchor="middle" x="469" y="-68.3047" font-family="Futura" font-size="11.00">doremir/string.h</text>
</a>
</g>
<!-- Node1&#45;&gt;Node2 -->
<g id="edge2" class="edge"><title>Node1&#45;&gt;Node2</title>
<path fill="none" stroke="midnightblue" d="M475.406,-180.324C462.533,-171.288 449.043,-159.008 442,-144 433.834,-126.6 443.718,-105.999 453.747,-91.4814"/>
<polygon fill="midnightblue" stroke="midnightblue" points="456.669,-93.4179 459.849,-83.3116 451.06,-89.2288 456.669,-93.4179"/>
</g>
<!-- Node4 -->
<g id="node7" class="node"><title>Node4</title>
<a xlink:href="util_8h.html" target="_top" xlink:title="doremir/util.h">
<polygon fill="none" stroke="red" points="222.754,-120.695 222.754,-143.305 307.246,-143.305 307.246,-120.695 222.754,-120.695"/>
<text text-anchor="middle" x="265" y="-128.305" font-family="Futura" font-size="11.00">doremir/util.h</text>
</a>
</g>
<!-- Node1&#45;&gt;Node4 -->
<g id="edge6" class="edge"><title>Node1&#45;&gt;Node4</title>
<path fill="none" stroke="midnightblue" d="M446.557,-181.765C405.433,-170.72 351.735,-156.297 313.427,-146.007"/>
<polygon fill="midnightblue" stroke="midnightblue" points="314.112,-142.567 303.546,-143.353 312.296,-149.328 314.112,-142.567"/>
</g>
<!-- Node8 -->
<g id="node15" class="node"><title>Node8</title>
<a xlink:href="dynamic_8h.html" target="_top" xlink:title="doremir/dynamic.h">
<polygon fill="none" stroke="black" points="451.052,-120.695 451.052,-143.305 562.948,-143.305 562.948,-120.695 451.052,-120.695"/>
<text text-anchor="middle" x="507" y="-128.305" font-family="Futura" font-size="11.00">doremir/dynamic.h</text>
</a>
</g>
<!-- Node1&#45;&gt;Node8 -->
<g id="edge14" class="edge"><title>Node1&#45;&gt;Node8</title>
<path fill="none" stroke="midnightblue" d="M507,-180.238C507,-172.084 507,-162.359 507,-153.859"/>
<polygon fill="midnightblue" stroke="midnightblue" points="510.5,-153.624 507,-143.624 503.5,-153.624 510.5,-153.624"/>
</g>
<!-- Node9 -->
<g id="node19" class="node"><title>Node9</title>
<polygon fill="none" stroke="#bfbfbf" points="580.598,-120.695 580.598,-143.305 631.402,-143.305 631.402,-120.695 580.598,-120.695"/>
<text text-anchor="middle" x="606" y="-128.305" font-family="Futura" font-size="11.00">iconv.h</text>
</g>
<!-- Node1&#45;&gt;Node9 -->
<g id="edge20" class="edge"><title>Node1&#45;&gt;Node9</title>
<path fill="none" stroke="midnightblue" d="M534.052,-180.238C548.939,-170.464 567.262,-158.434 581.692,-148.96"/>
<polygon fill="midnightblue" stroke="midnightblue" points="583.669,-151.849 590.108,-143.434 579.827,-145.997 583.669,-151.849"/>
</g>
<!-- Node10 -->
<g id="node21" class="node"><title>Node10</title>
<polygon fill="none" stroke="#bfbfbf" points="649.279,-120.695 649.279,-143.305 840.721,-143.305 840.721,-120.695 649.279,-120.695"/>
<text text-anchor="middle" x="745" y="-128.305" font-family="Futura" font-size="11.00">CoreFoundation/CoreFoundation.h</text>
</g>
<!-- Node1&#45;&gt;Node10 -->
<g id="edge22" class="edge"><title>Node1&#45;&gt;Node10</title>
<path fill="none" stroke="midnightblue" d="M567.673,-181.43C607.831,-170.462 659.762,-156.279 697.032,-146.101"/>
<polygon fill="midnightblue" stroke="midnightblue" points="698.408,-149.353 707.133,-143.342 696.564,-142.6 698.408,-149.353"/>
</g>
<!-- Node3 -->
<g id="node5" class="node"><title>Node3</title>
<a xlink:href="doremir_8h.html" target="_top" xlink:title="doremir.h">
<polygon fill="none" stroke="red" points="475.136,-0.695312 475.136,-23.3047 538.864,-23.3047 538.864,-0.695312 475.136,-0.695312"/>
<text text-anchor="middle" x="507" y="-8.30469" font-family="Futura" font-size="11.00">doremir.h</text>
</a>
</g>
<!-- Node2&#45;&gt;Node3 -->
<g id="edge4" class="edge"><title>Node2&#45;&gt;Node3</title>
<path fill="none" stroke="midnightblue" d="M475.794,-60.6308C480.971,-52.7292 488.244,-41.6276 494.467,-32.1298"/>
<polygon fill="midnightblue" stroke="midnightblue" points="497.455,-33.9546 500.008,-23.6719 491.6,-30.1184 497.455,-33.9546"/>
</g>
<!-- Node5 -->
<g id="node9" class="node"><title>Node5</title>
<a xlink:href="arch_8h.html" target="_top" xlink:title="doremir/util/arch.h">
<polygon fill="none" stroke="black" points="-0.181396,-60.6953 -0.181396,-83.3047 112.181,-83.3047 112.181,-60.6953 -0.181396,-60.6953"/>
<text text-anchor="middle" x="56" y="-68.3047" font-family="Futura" font-size="11.00">doremir/util/arch.h</text>
</a>
</g>
<!-- Node4&#45;&gt;Node5 -->
<g id="edge8" class="edge"><title>Node4&#45;&gt;Node5</title>
<path fill="none" stroke="midnightblue" d="M227.635,-120.631C192.821,-110.97 140.769,-96.5243 103.119,-86.0761"/>
<polygon fill="midnightblue" stroke="midnightblue" points="103.965,-82.6787 93.3933,-83.3771 102.093,-89.4238 103.965,-82.6787"/>
</g>
<!-- Node6 -->
<g id="node11" class="node"><title>Node6</title>
<a xlink:href="alignof_8h.html" target="_top" xlink:title="doremir/util/alignof.h">
<polygon fill="none" stroke="black" points="130.62,-60.6953 130.62,-83.3047 255.38,-83.3047 255.38,-60.6953 130.62,-60.6953"/>
<text text-anchor="middle" x="193" y="-68.3047" font-family="Futura" font-size="11.00">doremir/util/alignof.h</text>
</a>
</g>
<!-- Node4&#45;&gt;Node6 -->
<g id="edge10" class="edge"><title>Node4&#45;&gt;Node6</title>
<path fill="none" stroke="midnightblue" d="M252.128,-120.631C241.611,-112.159 226.528,-100.009 214.228,-90.1004"/>
<polygon fill="midnightblue" stroke="midnightblue" points="216.231,-87.2196 206.248,-83.6719 211.84,-92.6708 216.231,-87.2196"/>
</g>
<!-- Node7 -->
<g id="node13" class="node"><title>Node7</title>
<a xlink:href="minmax_8h.html" target="_top" xlink:title="doremir/util/minmax.h">
<polygon fill="none" stroke="red" points="273.45,-60.6953 273.45,-83.3047 402.55,-83.3047 402.55,-60.6953 273.45,-60.6953"/>
<text text-anchor="middle" x="338" y="-68.3047" font-family="Futura" font-size="11.00">doremir/util/minmax.h</text>
</a>
</g>
<!-- Node4&#45;&gt;Node7 -->
<g id="edge12" class="edge"><title>Node4&#45;&gt;Node7</title>
<path fill="none" stroke="midnightblue" d="M278.051,-120.631C288.714,-112.159 304.006,-100.009 316.477,-90.1004"/>
<polygon fill="midnightblue" stroke="midnightblue" points="318.916,-92.633 324.568,-83.6719 314.561,-87.1523 318.916,-92.633"/>
</g>
<!-- Node8&#45;&gt;Node2 -->
<g id="edge18" class="edge"><title>Node8&#45;&gt;Node2</title>
<path fill="none" stroke="midnightblue" d="M500.206,-120.631C495.029,-112.729 487.756,-101.628 481.533,-92.1298"/>
<polygon fill="midnightblue" stroke="midnightblue" points="484.4,-90.1184 475.992,-83.6719 478.545,-93.9546 484.4,-90.1184"/>
</g>
<!-- Node8&#45;&gt;Node3 -->
<g id="edge16" class="edge"><title>Node8&#45;&gt;Node3</title>
<path fill="none" stroke="midnightblue" d="M512.595,-120.534C517.227,-111.239 523.446,-97.1319 526,-84 528.036,-73.5295 528.036,-70.4705 526,-60 524.184,-50.6641 520.516,-40.8352 516.883,-32.5931"/>
<polygon fill="midnightblue" stroke="midnightblue" points="520.015,-31.029 512.595,-23.4663 513.679,-34.0055 520.015,-31.029"/>
</g>
</g>
</svg>
