<?xml version="1.0" encoding="UTF-8" standalone="no"?>
<!DOCTYPE svg PUBLIC "-//W3C//DTD SVG 1.1//EN"
 "http://www.w3.org/Graphics/SVG/1.1/DTD/svg11.dtd">
<!-- Generated by graphviz version 2.28.0 (20121015.0031)
 -->
<!-- Title: include/fae/plot.h Pages: 1 -->
<svg width="747pt" height="272pt"
 viewBox="0.00 0.00 746.85 272.00" xmlns="http://www.w3.org/2000/svg" xmlns:xlink="http://www.w3.org/1999/xlink">
<g id="graph1" class="graph" transform="scale(1 1) rotate(0) translate(4 268)">
<title>include/fae/plot.h</title>
<!-- Node1 -->
<g id="node1" class="node"><title>Node1</title>
<polygon fill="#bfbfbf" stroke="black" points="401.192,-240.695 401.192,-263.305 508.576,-263.305 508.576,-240.695 401.192,-240.695"/>
<text text-anchor="middle" x="454.884" y="-248.305" font-family="Futura" font-size="11.00">include/fae/plot.h</text>
</g>
<!-- Node2 -->
<g id="node3" class="node"><title>Node2</title>
<a xlink:href="fae_2fae_8h.html" target="_top" xlink:title="fae.h">
<polygon fill="none" stroke="red" points="434.114,-120.695 434.114,-143.305 475.654,-143.305 475.654,-120.695 434.114,-120.695"/>
<text text-anchor="middle" x="454.884" y="-128.305" font-family="Futura" font-size="11.00">fae.h</text>
</a>
</g>
<!-- Node1&#45;&gt;Node2 -->
<g id="edge2" class="edge"><title>Node1&#45;&gt;Node2</title>
<path fill="none" stroke="midnightblue" d="M450.837,-240.528C447.704,-221.071 447.295,-179.023 449.608,-153.656"/>
<polygon fill="midnightblue" stroke="midnightblue" points="453.096,-153.964 450.814,-143.618 446.146,-153.129 453.096,-153.964"/>
</g>
<!-- Node4 -->
<g id="node8" class="node"><title>Node4</title>
<polygon fill="none" stroke="#bfbfbf" points="518.231,-0.695312 518.231,-23.3047 579.537,-23.3047 579.537,-0.695312 518.231,-0.695312"/>
<text text-anchor="middle" x="548.884" y="-8.30469" font-family="Futura" font-size="11.00">fae/std.h</text>
</g>
<!-- Node1&#45;&gt;Node4 -->
<g id="edge24" class="edge"><title>Node1&#45;&gt;Node4</title>
<path fill="none" stroke="midnightblue" d="M401.123,-246.478C261.906,-232.888 -91.7488,-185.332 22.8841,-60 55.4317,-24.4144 389.781,-15.5751 507.86,-13.5552"/>
<polygon fill="midnightblue" stroke="midnightblue" points="508.004,-17.0534 517.946,-13.3904 507.89,-10.0544 508.004,-17.0534"/>
</g>
<!-- Node10 -->
<g id="node23" class="node"><title>Node10</title>
<a xlink:href="buffer_8h.html" target="_top" xlink:title="fae/buffer.h">
<polygon fill="none" stroke="red" points="491.631,-180.695 491.631,-203.305 568.137,-203.305 568.137,-180.695 491.631,-180.695"/>
<text text-anchor="middle" x="529.884" y="-188.305" font-family="Futura" font-size="11.00">fae/buffer.h</text>
</a>
</g>
<!-- Node1&#45;&gt;Node10 -->
<g id="edge26" class="edge"><title>Node1&#45;&gt;Node10</title>
<path fill="none" stroke="midnightblue" d="M468.293,-240.631C479.422,-232.024 495.461,-219.621 508.381,-209.629"/>
<polygon fill="midnightblue" stroke="midnightblue" points="510.569,-212.361 516.339,-203.475 506.287,-206.824 510.569,-212.361"/>
</g>
<!-- Node2&#45;&gt;Node1 -->
<g id="edge22" class="edge"><title>Node2&#45;&gt;Node1</title>
<path fill="none" stroke="midnightblue" d="M458.954,-143.618C462.073,-163.187 462.47,-205.25 460.143,-230.534"/>
<polygon fill="midnightblue" stroke="midnightblue" points="456.66,-230.18 458.931,-240.528 463.609,-231.022 456.66,-230.18"/>
</g>
<!-- Node3 -->
<g id="node5" class="node"><title>Node3</title>
<a xlink:href="atomic_8h.html" target="_top" xlink:title="fae/atomic.h">
<polygon fill="none" stroke="black" points="508.778,-60.6953 508.778,-83.3047 588.99,-83.3047 588.99,-60.6953 508.778,-60.6953"/>
<text text-anchor="middle" x="548.884" y="-68.3047" font-family="Futura" font-size="11.00">fae/atomic.h</text>
</a>
</g>
<!-- Node2&#45;&gt;Node3 -->
<g id="edge4" class="edge"><title>Node2&#45;&gt;Node3</title>
<path fill="none" stroke="midnightblue" d="M466.373,-120.631C479.231,-111.696 500.096,-98.6702 517.715,-88.4977"/>
<polygon fill="midnightblue" stroke="midnightblue" points="519.6,-91.4523 526.572,-83.475 516.147,-85.3631 519.6,-91.4523"/>
</g>
<!-- Node5 -->
<g id="node10" class="node"><title>Node5</title>
<polygon fill="none" stroke="#bfbfbf" points="607.49,-60.6953 607.49,-83.3047 724.278,-83.3047 724.278,-60.6953 607.49,-60.6953"/>
<text text-anchor="middle" x="665.884" y="-68.3047" font-family="Futura" font-size="11.00">fae/atomic/queue.h</text>
</g>
<!-- Node2&#45;&gt;Node5 -->
<g id="edge10" class="edge"><title>Node2&#45;&gt;Node5</title>
<path fill="none" stroke="midnightblue" d="M475.887,-125.227C508.933,-116.143 573.899,-98.285 618.587,-86.0012"/>
<polygon fill="midnightblue" stroke="midnightblue" points="619.641,-89.3414 628.355,-83.316 617.785,-82.5917 619.641,-89.3414"/>
</g>
<!-- Node6 -->
<g id="node12" class="node"><title>Node6</title>
<a xlink:href="stack_8h.html" target="_top" xlink:title="fae/atomic/stack.h">
<polygon fill="none" stroke="red" points="32.2613,-60.6953 32.2613,-83.3047 143.507,-83.3047 143.507,-60.6953 32.2613,-60.6953"/>
<text text-anchor="middle" x="87.8841" y="-68.3047" font-family="Futura" font-size="11.00">fae/atomic/stack.h</text>
</a>
</g>
<!-- Node2&#45;&gt;Node6 -->
<g id="edge12" class="edge"><title>Node2&#45;&gt;Node6</title>
<path fill="none" stroke="midnightblue" d="M433.927,-127.87C386.121,-120.703 265.115,-102.42 153.775,-84.293"/>
<polygon fill="midnightblue" stroke="midnightblue" points="154.156,-80.809 143.723,-82.6525 153.028,-87.7176 154.156,-80.809"/>
</g>
<!-- Node7 -->
<g id="node14" class="node"><title>Node7</title>
<polygon fill="none" stroke="#bfbfbf" points="161.367,-60.6953 161.367,-83.3047 302.401,-83.3047 302.401,-60.6953 161.367,-60.6953"/>
<text text-anchor="middle" x="231.884" y="-68.3047" font-family="Futura" font-size="11.00">fae/atomic/ring_buffer.h</text>
</g>
<!-- Node2&#45;&gt;Node7 -->
<g id="edge14" class="edge"><title>Node2&#45;&gt;Node7</title>
<path fill="none" stroke="midnightblue" d="M433.905,-125.544C399.286,-116.54 329.281,-98.3319 281.486,-85.9011"/>
<polygon fill="midnightblue" stroke="midnightblue" points="282.205,-82.4715 271.646,-83.3415 280.443,-89.2461 282.205,-82.4715"/>
</g>
<!-- Node8 -->
<g id="node16" class="node"><title>Node8</title>
<a xlink:href="system_8h.html" target="_top" xlink:title="fae/system.h">
<polygon fill="none" stroke="red" points="320.867,-60.6953 320.867,-83.3047 400.901,-83.3047 400.901,-60.6953 320.867,-60.6953"/>
<text text-anchor="middle" x="360.884" y="-68.3047" font-family="Futura" font-size="11.00">fae/system.h</text>
</a>
</g>
<!-- Node2&#45;&gt;Node8 -->
<g id="edge16" class="edge"><title>Node2&#45;&gt;Node8</title>
<path fill="none" stroke="midnightblue" d="M438.079,-120.631C423.731,-111.778 402.874,-98.9089 386.456,-88.7784"/>
<polygon fill="midnightblue" stroke="midnightblue" points="388.209,-85.7475 377.861,-83.475 384.533,-91.7048 388.209,-85.7475"/>
</g>
<!-- Node9 -->
<g id="node18" class="node"><title>Node9</title>
<a xlink:href="error_8h.html" target="_top" xlink:title="fae/error.h">
<polygon fill="none" stroke="red" points="419.003,-60.6953 419.003,-83.3047 490.765,-83.3047 490.765,-60.6953 419.003,-60.6953"/>
<text text-anchor="middle" x="454.884" y="-68.3047" font-family="Futura" font-size="11.00">fae/error.h</text>
</a>
</g>
<!-- Node2&#45;&gt;Node9 -->
<g id="edge18" class="edge"><title>Node2&#45;&gt;Node9</title>
<path fill="none" stroke="midnightblue" d="M449.568,-120.631C448.207,-113.137 447.815,-102.764 448.392,-93.6107"/>
<polygon fill="midnightblue" stroke="midnightblue" points="451.87,-94.0015 449.514,-83.6719 444.914,-93.2159 451.87,-94.0015"/>
</g>
<!-- Node3&#45;&gt;Node2 -->
<g id="edge6" class="edge"><title>Node3&#45;&gt;Node2</title>
<path fill="none" stroke="midnightblue" d="M537.241,-83.4761C524.101,-92.5953 502.724,-105.917 484.95,-116.138"/>
<polygon fill="midnightblue" stroke="midnightblue" points="483.037,-113.199 476.047,-121.161 486.476,-119.296 483.037,-113.199"/>
</g>
<!-- Node3&#45;&gt;Node4 -->
<g id="edge8" class="edge"><title>Node3&#45;&gt;Node4</title>
<path fill="none" stroke="midnightblue" d="M548.884,-60.6308C548.884,-53.218 548.884,-42.9888 548.884,-33.9096"/>
<polygon fill="midnightblue" stroke="midnightblue" points="552.384,-33.6718 548.884,-23.6719 545.384,-33.6719 552.384,-33.6718"/>
</g>
<!-- Node9&#45;&gt;Node2 -->
<g id="edge20" class="edge"><title>Node9&#45;&gt;Node2</title>
<path fill="none" stroke="midnightblue" d="M460.254,-83.6719C461.575,-91.1602 461.948,-101.411 461.372,-110.459"/>
<polygon fill="midnightblue" stroke="midnightblue" points="457.868,-110.296 460.2,-120.631 464.822,-111.097 457.868,-110.296"/>
</g>
<!-- Node10&#45;&gt;Node2 -->
<g id="edge28" class="edge"><title>Node10&#45;&gt;Node2</title>
<path fill="none" stroke="midnightblue" d="M516.476,-180.631C505.346,-172.024 489.307,-159.621 476.387,-149.629"/>
<polygon fill="midnightblue" stroke="midnightblue" points="478.481,-146.824 468.429,-143.475 474.199,-152.361 478.481,-146.824"/>
</g>
<!-- Node10&#45;&gt;Node4 -->
<g id="edge30" class="edge"><title>Node10&#45;&gt;Node4</title>
<path fill="none" stroke="midnightblue" d="M568.418,-183.265C616.627,-171.294 697.177,-143.184 732.884,-84 765.808,-29.4287 653.578,-16.6791 589.871,-13.7845"/>
<polygon fill="midnightblue" stroke="midnightblue" points="589.845,-10.2809 579.715,-13.3872 589.571,-17.2756 589.845,-10.2809"/>
</g>
</g>
</svg>
