<?xml version="1.0" encoding="UTF-8" standalone="no"?>
<!DOCTYPE svg PUBLIC "-//W3C//DTD SVG 1.1//EN"
 "http://www.w3.org/Graphics/SVG/1.1/DTD/svg11.dtd">
<!-- Generated by graphviz version 2.28.0 (20121015.0031)
 -->
<!-- Title: src/fae/plot.c Pages: 1 -->
<svg width="553pt" height="332pt"
 viewBox="0.00 0.00 552.75 332.00" xmlns="http://www.w3.org/2000/svg" xmlns:xlink="http://www.w3.org/1999/xlink">
<g id="graph1" class="graph" transform="scale(1 1) rotate(0) translate(4 328)">
<title>src/fae/plot.c</title>
<!-- Node1 -->
<g id="node1" class="node"><title>Node1</title>
<polygon fill="#bfbfbf" stroke="black" points="141.31,-300.695 141.31,-323.305 226.2,-323.305 226.2,-300.695 141.31,-300.695"/>
<text text-anchor="middle" x="183.755" y="-308.305" font-family="Futura" font-size="11.00">src/fae/plot.c</text>
</g>
<!-- Node2 -->
<g id="node3" class="node"><title>Node2</title>
<a xlink:href="plot_8h.html" target="_top" xlink:title="fae/plot.h">
<polygon fill="none" stroke="black" points="89.6261,-240.695 89.6261,-263.305 155.883,-263.305 155.883,-240.695 89.6261,-240.695"/>
<text text-anchor="middle" x="122.755" y="-248.305" font-family="Futura" font-size="11.00">fae/plot.h</text>
</a>
</g>
<!-- Node1&#45;&gt;Node2 -->
<g id="edge2" class="edge"><title>Node1&#45;&gt;Node2</title>
<path fill="none" stroke="midnightblue" d="M172.849,-300.631C164.111,-292.322 151.65,-280.475 141.343,-270.675"/>
<polygon fill="midnightblue" stroke="midnightblue" points="143.637,-268.026 133.979,-263.672 138.814,-273.099 143.637,-268.026"/>
</g>
<!-- Node4 -->
<g id="node8" class="node"><title>Node4</title>
<a xlink:href="thread_8h.html" target="_top" xlink:title="fae/thread.h">
<polygon fill="none" stroke="black" points="94.8478,-60.6953 94.8478,-83.3047 174.662,-83.3047 174.662,-60.6953 94.8478,-60.6953"/>
<text text-anchor="middle" x="134.755" y="-68.3047" font-family="Futura" font-size="11.00">fae/thread.h</text>
</a>
</g>
<!-- Node1&#45;&gt;Node4 -->
<g id="edge22" class="edge"><title>Node1&#45;&gt;Node4</title>
<path fill="none" stroke="midnightblue" d="M184.269,-300.296C185.35,-270.705 186.134,-185.639 163.755,-120 160.383,-110.11 154.626,-100.122 149.126,-91.9128"/>
<polygon fill="midnightblue" stroke="midnightblue" points="151.803,-89.6365 143.166,-83.4995 146.091,-93.6828 151.803,-89.6365"/>
</g>
<!-- Node7 -->
<g id="node19" class="node"><title>Node7</title>
<a xlink:href="util_8h.html" target="_top" xlink:title="fae/util.h">
<polygon fill="none" stroke="red" points="292.895,-240.695 292.895,-263.305 354.614,-263.305 354.614,-240.695 292.895,-240.695"/>
<text text-anchor="middle" x="323.755" y="-248.305" font-family="Futura" font-size="11.00">fae/util.h</text>
</a>
</g>
<!-- Node1&#45;&gt;Node7 -->
<g id="edge24" class="edge"><title>Node1&#45;&gt;Node7</title>
<path fill="none" stroke="midnightblue" d="M208.784,-300.631C231.142,-291.368 264.113,-277.709 289.021,-267.39"/>
<polygon fill="midnightblue" stroke="midnightblue" points="290.571,-270.536 298.47,-263.475 287.892,-264.069 290.571,-270.536"/>
</g>
<!-- Node3 -->
<g id="node5" class="node"><title>Node3</title>
<a xlink:href="fae_2fae_8h.html" target="_top" xlink:title="fae.h">
<polygon fill="none" stroke="red" points="113.985,-120.695 113.985,-143.305 155.525,-143.305 155.525,-120.695 113.985,-120.695"/>
<text text-anchor="middle" x="134.755" y="-128.305" font-family="Futura" font-size="11.00">fae.h</text>
</a>
</g>
<!-- Node2&#45;&gt;Node3 -->
<g id="edge4" class="edge"><title>Node2&#45;&gt;Node3</title>
<path fill="none" stroke="midnightblue" d="M119.773,-240.528C118.619,-221.071 122.485,-179.023 127.378,-153.656"/>
<polygon fill="midnightblue" stroke="midnightblue" points="130.856,-154.139 129.605,-143.618 124.022,-152.623 130.856,-154.139"/>
</g>
<!-- Node5 -->
<g id="node11" class="node"><title>Node5</title>
<polygon fill="none" stroke="#bfbfbf" points="30.1022,-0.695312 30.1022,-23.3047 91.4074,-23.3047 91.4074,-0.695312 30.1022,-0.695312"/>
<text text-anchor="middle" x="60.7548" y="-8.30469" font-family="Futura" font-size="11.00">fae/std.h</text>
</g>
<!-- Node2&#45;&gt;Node5 -->
<g id="edge14" class="edge"><title>Node2&#45;&gt;Node5</title>
<path fill="none" stroke="midnightblue" d="M89.6147,-246.514C64.1,-241.129 30.4597,-229.395 13.7548,-204 -22.4233,-149.002 22.5353,-68.5287 46.9497,-32.1329"/>
<polygon fill="midnightblue" stroke="midnightblue" points="50.123,-33.6975 52.9301,-23.4813 44.3648,-29.7171 50.123,-33.6975"/>
</g>
<!-- Node6 -->
<g id="node14" class="node"><title>Node6</title>
<a xlink:href="buffer_8h.html" target="_top" xlink:title="fae/buffer.h">
<polygon fill="none" stroke="red" points="22.5021,-180.695 22.5021,-203.305 99.0075,-203.305 99.0075,-180.695 22.5021,-180.695"/>
<text text-anchor="middle" x="60.7548" y="-188.305" font-family="Futura" font-size="11.00">fae/buffer.h</text>
</a>
</g>
<!-- Node2&#45;&gt;Node6 -->
<g id="edge16" class="edge"><title>Node2&#45;&gt;Node6</title>
<path fill="none" stroke="midnightblue" d="M111.67,-240.631C102.789,-232.322 90.1242,-220.475 79.6482,-210.675"/>
<polygon fill="midnightblue" stroke="midnightblue" points="81.8564,-207.948 72.1626,-203.672 77.0743,-213.059 81.8564,-207.948"/>
</g>
<!-- Node3&#45;&gt;Node2 -->
<g id="edge6" class="edge"><title>Node3&#45;&gt;Node2</title>
<path fill="none" stroke="midnightblue" d="M137.745,-143.618C138.874,-163.187 134.993,-205.25 130.095,-230.534"/>
<polygon fill="midnightblue" stroke="midnightblue" points="126.627,-230.006 127.867,-240.528 133.459,-231.53 126.627,-230.006"/>
</g>
<!-- Node3&#45;&gt;Node4 -->
<g id="edge8" class="edge"><title>Node3&#45;&gt;Node4</title>
<path fill="none" stroke="midnightblue" d="M129.439,-120.631C128.078,-113.137 127.685,-102.764 128.262,-93.6107"/>
<polygon fill="midnightblue" stroke="midnightblue" points="131.74,-94.0015 129.385,-83.6719 124.785,-93.2159 131.74,-94.0015"/>
</g>
<!-- Node4&#45;&gt;Node3 -->
<g id="edge10" class="edge"><title>Node4&#45;&gt;Node3</title>
<path fill="none" stroke="midnightblue" d="M140.125,-83.6719C141.446,-91.1602 141.818,-101.411 141.243,-110.459"/>
<polygon fill="midnightblue" stroke="midnightblue" points="137.738,-110.296 140.071,-120.631 144.692,-111.097 137.738,-110.296"/>
</g>
<!-- Node4&#45;&gt;Node5 -->
<g id="edge12" class="edge"><title>Node4&#45;&gt;Node5</title>
<path fill="none" stroke="midnightblue" d="M121.525,-60.6308C110.716,-52.159 95.2141,-40.0087 82.5726,-30.1004"/>
<polygon fill="midnightblue" stroke="midnightblue" points="84.4003,-27.086 74.3706,-23.6719 80.0821,-32.5954 84.4003,-27.086"/>
</g>
<!-- Node6&#45;&gt;Node3 -->
<g id="edge18" class="edge"><title>Node6&#45;&gt;Node3</title>
<path fill="none" stroke="midnightblue" d="M73.9845,-180.631C84.7933,-172.159 100.295,-160.009 112.937,-150.1"/>
<polygon fill="midnightblue" stroke="midnightblue" points="115.427,-152.595 121.139,-143.672 111.109,-147.086 115.427,-152.595"/>
</g>
<!-- Node6&#45;&gt;Node5 -->
<g id="edge20" class="edge"><title>Node6&#45;&gt;Node5</title>
<path fill="none" stroke="midnightblue" d="M60.7548,-180.661C60.7548,-152.15 60.7548,-72.0012 60.7548,-33.78"/>
<polygon fill="midnightblue" stroke="midnightblue" points="64.2549,-33.3679 60.7548,-23.368 57.2549,-33.368 64.2549,-33.3679"/>
</g>
<!-- Node8 -->
<g id="node21" class="node"><title>Node8</title>
<a xlink:href="arch_8h.html" target="_top" xlink:title="fae/util/arch.h">
<polygon fill="none" stroke="black" points="455.96,-180.695 455.96,-203.305 545.549,-203.305 545.549,-180.695 455.96,-180.695"/>
<text text-anchor="middle" x="500.755" y="-188.305" font-family="Futura" font-size="11.00">fae/util/arch.h</text>
</a>
</g>
<!-- Node7&#45;&gt;Node8 -->
<g id="edge26" class="edge"><title>Node7&#45;&gt;Node8</title>
<path fill="none" stroke="midnightblue" d="M354.991,-240.764C384.132,-231.215 427.789,-216.91 459.728,-206.444"/>
<polygon fill="midnightblue" stroke="midnightblue" points="460.822,-209.768 469.235,-203.328 458.642,-203.116 460.822,-209.768"/>
</g>
<!-- Node9 -->
<g id="node23" class="node"><title>Node9</title>
<a xlink:href="alignof_8h.html" target="_top" xlink:title="fae/util/alignof.h">
<polygon fill="none" stroke="black" points="211.762,-180.695 211.762,-203.305 313.748,-203.305 313.748,-180.695 211.762,-180.695"/>
<text text-anchor="middle" x="262.755" y="-188.305" font-family="Futura" font-size="11.00">fae/util/alignof.h</text>
</a>
</g>
<!-- Node7&#45;&gt;Node9 -->
<g id="edge28" class="edge"><title>Node7&#45;&gt;Node9</title>
<path fill="none" stroke="midnightblue" d="M312.849,-240.631C304.111,-232.322 291.65,-220.475 281.343,-210.675"/>
<polygon fill="midnightblue" stroke="midnightblue" points="283.637,-208.026 273.979,-203.672 278.814,-213.099 283.637,-208.026"/>
</g>
<!-- Node10 -->
<g id="node25" class="node"><title>Node10</title>
<a xlink:href="minmax_8h.html" target="_top" xlink:title="fae/util/minmax.h">
<polygon fill="none" stroke="red" points="331.592,-180.695 331.592,-203.305 437.918,-203.305 437.918,-180.695 331.592,-180.695"/>
<text text-anchor="middle" x="384.755" y="-188.305" font-family="Futura" font-size="11.00">fae/util/minmax.h</text>
</a>
</g>
<!-- Node7&#45;&gt;Node10 -->
<g id="edge30" class="edge"><title>Node7&#45;&gt;Node10</title>
<path fill="none" stroke="midnightblue" d="M334.66,-240.631C343.399,-232.322 355.859,-220.475 366.166,-210.675"/>
<polygon fill="midnightblue" stroke="midnightblue" points="368.696,-213.099 373.531,-203.672 363.872,-208.026 368.696,-213.099"/>
</g>
</g>
</svg>
