<?xml version="1.0" encoding="UTF-8" standalone="no"?>
<!DOCTYPE svg PUBLIC "-//W3C//DTD SVG 1.1//EN"
 "http://www.w3.org/Graphics/SVG/1.1/DTD/svg11.dtd">
<!-- Generated by graphviz version 2.28.0 (20121015.0031)
 -->
<!-- Title: src/doremir/plot_core_osx.m Pages: 1 -->
<svg width="469pt" height="286pt"
 viewBox="0.00 0.00 469.23 286.00" xmlns="http://www.w3.org/2000/svg" xmlns:xlink="http://www.w3.org/1999/xlink">
<g id="graph1" class="graph" transform="scale(1 1) rotate(0) translate(4 282)">
<title>src/doremir/plot_core_osx.m</title>
<!-- Node1 -->
<g id="node1" class="node"><title>Node1</title>
<polygon fill="#bfbfbf" stroke="black" points="176.62,-240.391 176.62,-277.609 303.845,-277.609 303.845,-240.391 176.62,-240.391"/>
<text text-anchor="start" x="184.62" y="-262.609" font-family="Futura" font-size="11.00">src/doremir/plot_core</text>
<text text-anchor="middle" x="240.232" y="-248" font-family="Futura" font-size="11.00">_osx.m</text>
</g>
<!-- Node2 -->
<g id="node3" class="node"><title>Node2</title>
<a xlink:href="plot_8h.html" target="_top" xlink:title="doremir/plot.h">
<polygon fill="none" stroke="black" points="42.717,-180.695 42.717,-203.305 131.748,-203.305 131.748,-180.695 42.717,-180.695"/>
<text text-anchor="middle" x="87.2323" y="-188.305" font-family="Futura" font-size="11.00">doremir/plot.h</text>
</a>
</g>
<!-- Node1&#45;&gt;Node2 -->
<g id="edge2" class="edge"><title>Node1&#45;&gt;Node2</title>
<path fill="none" stroke="midnightblue" d="M198.424,-240.238C174.115,-229.911 143.877,-217.065 121.072,-207.376"/>
<polygon fill="midnightblue" stroke="midnightblue" points="122.366,-204.123 111.793,-203.434 119.629,-210.566 122.366,-204.123"/>
</g>
<!-- Node8 -->
<g id="node18" class="node"><title>Node8</title>
<a xlink:href="thread_8h.html" target="_top" xlink:title="doremir/thread.h">
<polygon fill="none" stroke="black" points="171.939,-120.695 171.939,-143.305 274.526,-143.305 274.526,-120.695 171.939,-120.695"/>
<text text-anchor="middle" x="223.232" y="-128.305" font-family="Futura" font-size="11.00">doremir/thread.h</text>
</a>
</g>
<!-- Node1&#45;&gt;Node8 -->
<g id="edge20" class="edge"><title>Node1&#45;&gt;Node8</title>
<path fill="none" stroke="midnightblue" d="M232.141,-239.917C227.976,-229.618 223.341,-216.344 221.232,-204 218.382,-187.311 219.164,-168.101 220.503,-153.875"/>
<polygon fill="midnightblue" stroke="midnightblue" points="224.01,-154.003 221.636,-143.677 217.053,-153.229 224.01,-154.003"/>
</g>
<!-- Node9 -->
<g id="node22" class="node"><title>Node9</title>
<polygon fill="none" stroke="#bfbfbf" points="229.901,-180.695 229.901,-203.305 326.564,-203.305 326.564,-180.695 229.901,-180.695"/>
<text text-anchor="middle" x="278.232" y="-188.305" font-family="Futura" font-size="11.00">Cocoa/Cocoa.h</text>
</g>
<!-- Node1&#45;&gt;Node9 -->
<g id="edge26" class="edge"><title>Node1&#45;&gt;Node9</title>
<path fill="none" stroke="midnightblue" d="M250.616,-240.238C255.651,-231.626 261.71,-221.262 266.868,-212.438"/>
<polygon fill="midnightblue" stroke="midnightblue" points="269.996,-214.024 272.021,-203.624 263.953,-210.491 269.996,-214.024"/>
</g>
<!-- Node10 -->
<g id="node24" class="node"><title>Node10</title>
<polygon fill="none" stroke="#bfbfbf" points="344.862,-180.695 344.862,-203.305 461.602,-203.305 461.602,-180.695 344.862,-180.695"/>
<text text-anchor="middle" x="403.232" y="-188.305" font-family="Futura" font-size="11.00">CorePlot/CorePlot.h</text>
</g>
<!-- Node1&#45;&gt;Node10 -->
<g id="edge28" class="edge"><title>Node1&#45;&gt;Node10</title>
<path fill="none" stroke="midnightblue" d="M284.773,-240.238C310.786,-229.865 343.174,-216.95 367.505,-207.247"/>
<polygon fill="midnightblue" stroke="midnightblue" points="369.074,-210.39 377.066,-203.434 366.481,-203.887 369.074,-210.39"/>
</g>
<!-- Node3 -->
<g id="node5" class="node"><title>Node3</title>
<a xlink:href="doremir_8h.html" target="_top" xlink:title="doremir.h">
<polygon fill="none" stroke="black" points="117.369,-60.6953 117.369,-83.3047 181.096,-83.3047 181.096,-60.6953 117.369,-60.6953"/>
<text text-anchor="middle" x="149.232" y="-68.3047" font-family="Futura" font-size="11.00">doremir.h</text>
</a>
</g>
<!-- Node2&#45;&gt;Node3 -->
<g id="edge4" class="edge"><title>Node2&#45;&gt;Node3</title>
<path fill="none" stroke="midnightblue" d="M97.1494,-180.52C105.314,-171.44 116.727,-157.65 124.232,-144 133.063,-127.94 139.722,-108.167 143.937,-93.5693"/>
<polygon fill="midnightblue" stroke="midnightblue" points="147.412,-94.1323 146.681,-83.5627 140.661,-92.2815 147.412,-94.1323"/>
</g>
<!-- Node4 -->
<g id="node7" class="node"><title>Node4</title>
<a xlink:href="std_8h.html" target="_top" xlink:title="doremir/std.h">
<polygon fill="none" stroke="red" points="14.193,-0.695312 14.193,-23.3047 98.2716,-23.3047 98.2716,-0.695312 14.193,-0.695312"/>
<text text-anchor="middle" x="56.2323" y="-8.30469" font-family="Futura" font-size="11.00">doremir/std.h</text>
</a>
</g>
<!-- Node2&#45;&gt;Node4 -->
<g id="edge12" class="edge"><title>Node2&#45;&gt;Node4</title>
<path fill="none" stroke="midnightblue" d="M54.0943,-180.577C36.8514,-173.277 17.314,-161.616 7.23234,-144 -14.3318,-106.321 18.1246,-57.3756 39.6643,-31.2788"/>
<polygon fill="midnightblue" stroke="midnightblue" points="42.6065,-33.2243 46.4567,-23.3538 37.2915,-28.6689 42.6065,-33.2243"/>
</g>
<!-- Node7 -->
<g id="node14" class="node"><title>Node7</title>
<a xlink:href="buffer_8h.html" target="_top" xlink:title="doremir/buffer.h">
<polygon fill="none" stroke="red" points="16.5929,-120.695 16.5929,-143.305 115.872,-143.305 115.872,-120.695 16.5929,-120.695"/>
<text text-anchor="middle" x="66.2323" y="-128.305" font-family="Futura" font-size="11.00">doremir/buffer.h</text>
</a>
</g>
<!-- Node2&#45;&gt;Node7 -->
<g id="edge14" class="edge"><title>Node2&#45;&gt;Node7</title>
<path fill="none" stroke="midnightblue" d="M83.478,-180.631C80.735,-173.055 76.927,-162.538 73.5869,-153.313"/>
<polygon fill="midnightblue" stroke="midnightblue" points="76.7917,-151.883 70.0963,-143.672 70.2098,-154.266 76.7917,-151.883"/>
</g>
<!-- Node3&#45;&gt;Node4 -->
<g id="edge6" class="edge"><title>Node3&#45;&gt;Node4</title>
<path fill="none" stroke="midnightblue" d="M132.606,-60.6308C118.411,-51.7782 97.7759,-38.9089 81.5322,-28.7784"/>
<polygon fill="midnightblue" stroke="midnightblue" points="83.3658,-25.7971 73.0285,-23.475 79.6615,-31.7366 83.3658,-25.7971"/>
</g>
<!-- Node5 -->
<g id="node9" class="node"><title>Node5</title>
<a xlink:href="alloc_8h.html" target="_top" xlink:title="doremir/alloc.h">
<polygon fill="none" stroke="black" points="116.262,-0.695312 116.262,-23.3047 210.202,-23.3047 210.202,-0.695312 116.262,-0.695312"/>
<text text-anchor="middle" x="163.232" y="-8.30469" font-family="Futura" font-size="11.00">doremir/alloc.h</text>
</a>
</g>
<!-- Node3&#45;&gt;Node5 -->
<g id="edge8" class="edge"><title>Node3&#45;&gt;Node5</title>
<path fill="none" stroke="midnightblue" d="M151.735,-60.6308C153.544,-53.1365 156.048,-42.7636 158.257,-33.6107"/>
<polygon fill="midnightblue" stroke="midnightblue" points="161.712,-34.214 160.656,-23.6719 154.908,-32.5714 161.712,-34.214"/>
</g>
<!-- Node6 -->
<g id="node11" class="node"><title>Node6</title>
<a xlink:href="interfaces_8h.html" target="_top" xlink:title="doremir/interfaces.h">
<polygon fill="none" stroke="black" points="228.097,-0.695312 228.097,-23.3047 346.368,-23.3047 346.368,-0.695312 228.097,-0.695312"/>
<text text-anchor="middle" x="287.232" y="-8.30469" font-family="Futura" font-size="11.00">doremir/interfaces.h</text>
</a>
</g>
<!-- Node3&#45;&gt;Node6 -->
<g id="edge10" class="edge"><title>Node3&#45;&gt;Node6</title>
<path fill="none" stroke="midnightblue" d="M173.904,-60.6308C195.942,-51.3683 228.443,-37.7086 252.995,-27.3897"/>
<polygon fill="midnightblue" stroke="midnightblue" points="254.446,-30.5763 262.309,-23.475 251.734,-24.1231 254.446,-30.5763"/>
</g>
<!-- Node7&#45;&gt;Node3 -->
<g id="edge16" class="edge"><title>Node7&#45;&gt;Node3</title>
<path fill="none" stroke="midnightblue" d="M81.0711,-120.631C93.5048,-111.942 111.476,-99.3841 125.844,-89.344"/>
<polygon fill="midnightblue" stroke="midnightblue" points="128.05,-92.072 134.242,-83.475 124.04,-86.3341 128.05,-92.072"/>
</g>
<!-- Node7&#45;&gt;Node4 -->
<g id="edge18" class="edge"><title>Node7&#45;&gt;Node4</title>
<path fill="none" stroke="midnightblue" d="M65.3449,-120.528C63.696,-101.071 60.1326,-59.0228 57.9829,-33.6561"/>
<polygon fill="midnightblue" stroke="midnightblue" points="61.4642,-33.2866 57.1322,-23.6179 54.4892,-33.8777 61.4642,-33.2866"/>
</g>
<!-- Node8&#45;&gt;Node3 -->
<g id="edge22" class="edge"><title>Node8&#45;&gt;Node3</title>
<path fill="none" stroke="midnightblue" d="M210.003,-120.631C199.194,-112.159 183.692,-100.009 171.05,-90.1004"/>
<polygon fill="midnightblue" stroke="midnightblue" points="172.878,-87.086 162.848,-83.6719 168.56,-92.5954 172.878,-87.086"/>
</g>
<!-- Node8&#45;&gt;Node4 -->
<g id="edge24" class="edge"><title>Node8&#45;&gt;Node4</title>
<path fill="none" stroke="midnightblue" d="M220.926,-120.546C217.011,-105.179 207.634,-76.5321 189.232,-60 176.479,-48.542 137.89,-35.558 105.542,-26.1449"/>
<polygon fill="midnightblue" stroke="midnightblue" points="106.316,-22.7259 95.7393,-23.3438 104.393,-29.4566 106.316,-22.7259"/>
</g>
</g>
</svg>
