<?xml version="1.0" encoding="UTF-8" standalone="no"?>
<!DOCTYPE svg PUBLIC "-//W3C//DTD SVG 1.1//EN"
 "http://www.w3.org/Graphics/SVG/1.1/DTD/svg11.dtd">
<!-- Generated by graphviz version 2.28.0 (20121015.0031)
 -->
<!-- Title: include/fa/plot.h Pages: 1 -->
<svg width="750pt" height="272pt"
 viewBox="0.00 0.00 750.00 272.00" xmlns="http://www.w3.org/2000/svg" xmlns:xlink="http://www.w3.org/1999/xlink">
<g id="graph1" class="graph" transform="scale(1 1) rotate(0) translate(4 268)">
<title>include/fa/plot.h</title>
<!-- Node1 -->
<g id="node1" class="node"><title>Node1</title>
<polygon fill="#bfbfbf" stroke="black" points="247.351,-240.695 247.351,-263.305 348.649,-263.305 348.649,-240.695 247.351,-240.695"/>
<text text-anchor="middle" x="298" y="-248.305" font-family="Futura" font-size="11.00">include/fa/plot.h</text>
</g>
<!-- Node2 -->
<g id="node3" class="node"><title>Node2</title>
<a xlink:href="fa_2fa_8h.html" target="_top" xlink:title="include/fa/fa.h">
<polygon fill="none" stroke="red" points="251.846,-180.695 251.846,-203.305 344.154,-203.305 344.154,-180.695 251.846,-180.695"/>
<text text-anchor="middle" x="298" y="-188.305" font-family="Futura" font-size="11.00">include/fa/fa.h</text>
</a>
</g>
<!-- Node1&#45;&gt;Node2 -->
<g id="edge2" class="edge"><title>Node1&#45;&gt;Node2</title>
<path fill="none" stroke="midnightblue" d="M291.512,-230.459C290.936,-221.411 291.309,-211.16 292.63,-203.672"/>
<polygon fill="midnightblue" stroke="midnightblue" points="288.062,-231.097 292.684,-240.631 295.016,-230.296 288.062,-231.097"/>
</g>
<!-- Node2&#45;&gt;Node1 -->
<g id="edge42" class="edge"><title>Node2&#45;&gt;Node1</title>
<path fill="none" stroke="midnightblue" d="M304.492,-213.611C305.069,-222.764 304.677,-233.137 303.316,-240.631"/>
<polygon fill="midnightblue" stroke="midnightblue" points="307.97,-213.216 303.37,-203.672 301.014,-214.001 307.97,-213.216"/>
</g>
<!-- Node3 -->
<g id="node5" class="node"><title>Node3</title>
<a xlink:href="action_8h.html" target="_top" xlink:title="include/fa/action.h">
<polygon fill="none" stroke="red" points="-0.253906,-0.695312 -0.253906,-23.3047 112.254,-23.3047 112.254,-0.695312 -0.253906,-0.695312"/>
<text text-anchor="middle" x="56" y="-8.30469" font-family="Futura" font-size="11.00">include/fa/action.h</text>
</a>
</g>
<!-- Node2&#45;&gt;Node3 -->
<g id="edge4" class="edge"><title>Node2&#45;&gt;Node3</title>
<path fill="none" stroke="midnightblue" d="M241.662,-188.083C176.865,-183.331 76.6514,-171.517 53,-144 23.023,-109.123 36.6177,-47.7233 48.1084,-23.3719"/>
<polygon fill="midnightblue" stroke="midnightblue" points="241.52,-191.581 251.74,-188.786 242.008,-184.598 241.52,-191.581"/>
</g>
<!-- Node4 -->
<g id="node8" class="node"><title>Node4</title>
<a xlink:href="buffer_8h.html" target="_top" xlink:title="include/fa/buffer.h">
<polygon fill="none" stroke="red" points="631.227,-0.695312 631.227,-23.3047 742.773,-23.3047 742.773,-0.695312 631.227,-0.695312"/>
<text text-anchor="middle" x="687" y="-8.30469" font-family="Futura" font-size="11.00">include/fa/buffer.h</text>
</a>
</g>
<!-- Node2&#45;&gt;Node4 -->
<g id="edge8" class="edge"><title>Node2&#45;&gt;Node4</title>
<path fill="none" stroke="midnightblue" d="M354.556,-190.529C441.655,-188.65 603.072,-180.221 646,-144 682.974,-112.803 687.09,-48.7098 687.21,-23.5083"/>
<polygon fill="midnightblue" stroke="midnightblue" points="354.246,-187.034 344.316,-190.727 354.382,-194.033 354.246,-187.034"/>
</g>
<!-- Node5 -->
<g id="node11" class="node"><title>Node5</title>
<a xlink:href="device_8h.html" target="_top" xlink:title="include/fa/device.h">
<polygon fill="none" stroke="red" points="240.817,-120.695 240.817,-143.305 355.183,-143.305 355.183,-120.695 240.817,-120.695"/>
<text text-anchor="middle" x="298" y="-128.305" font-family="Futura" font-size="11.00">include/fa/device.h</text>
</a>
</g>
<!-- Node2&#45;&gt;Node5 -->
<g id="edge12" class="edge"><title>Node2&#45;&gt;Node5</title>
<path fill="none" stroke="midnightblue" d="M298,-170.459C298,-161.411 298,-151.16 298,-143.672"/>
<polygon fill="midnightblue" stroke="midnightblue" points="294.5,-170.631 298,-180.631 301.5,-170.631 294.5,-170.631"/>
</g>
<!-- Node6 -->
<g id="node13" class="node"><title>Node6</title>
<a xlink:href="dynamic_8h.html" target="_top" xlink:title="include/fa/dynamic.h">
<polygon fill="none" stroke="black" points="372.918,-120.695 372.918,-143.305 497.082,-143.305 497.082,-120.695 372.918,-120.695"/>
<text text-anchor="middle" x="435" y="-128.305" font-family="Futura" font-size="11.00">include/fa/dynamic.h</text>
</a>
</g>
<!-- Node2&#45;&gt;Node6 -->
<g id="edge14" class="edge"><title>Node2&#45;&gt;Node6</title>
<path fill="none" stroke="midnightblue" d="M331.712,-176.728C356.026,-166.434 388.3,-152.771 410.257,-143.475"/>
<polygon fill="midnightblue" stroke="midnightblue" points="330.337,-173.509 322.493,-180.631 333.066,-179.955 330.337,-173.509"/>
</g>
<!-- Node7 -->
<g id="node15" class="node"><title>Node7</title>
<a xlink:href="error_8h.html" target="_top" xlink:title="include/fa/error.h">
<polygon fill="none" stroke="red" points="514.598,-120.695 514.598,-143.305 621.402,-143.305 621.402,-120.695 514.598,-120.695"/>
<text text-anchor="middle" x="568" y="-128.305" font-family="Futura" font-size="11.00">include/fa/error.h</text>
</a>
</g>
<!-- Node2&#45;&gt;Node7 -->
<g id="edge16" class="edge"><title>Node2&#45;&gt;Node7</title>
<path fill="none" stroke="midnightblue" d="M350.991,-178.396C398.234,-167.918 466.939,-153.185 514.376,-143.377"/>
<polygon fill="midnightblue" stroke="midnightblue" points="349.955,-175.041 340.955,-180.631 351.476,-181.874 349.955,-175.041"/>
</g>
<!-- Node8 -->
<g id="node18" class="node"><title>Node8</title>
<a xlink:href="list_8h.html" target="_top" xlink:title="include/fa/list.h">
<polygon fill="none" stroke="red" points="71.3855,-120.695 71.3855,-143.305 166.615,-143.305 166.615,-120.695 71.3855,-120.695"/>
<text text-anchor="middle" x="119" y="-128.305" font-family="Futura" font-size="11.00">include/fa/list.h</text>
</a>
</g>
<!-- Node2&#45;&gt;Node8 -->
<g id="edge20" class="edge"><title>Node2&#45;&gt;Node8</title>
<path fill="none" stroke="midnightblue" d="M251.06,-177.665C217.462,-167.241 173.54,-152.959 145.709,-143.377"/>
<polygon fill="midnightblue" stroke="midnightblue" points="250.095,-181.03 260.683,-180.631 252.157,-174.34 250.095,-181.03"/>
</g>
<!-- Node9 -->
<g id="node22" class="node"><title>Node9</title>
<a xlink:href="map_8h.html" target="_top" xlink:title="include/fa/map.h">
<polygon fill="none" stroke="red" points="151.914,-0.695312 151.914,-23.3047 256.086,-23.3047 256.086,-0.695312 151.914,-0.695312"/>
<text text-anchor="middle" x="204" y="-8.30469" font-family="Futura" font-size="11.00">include/fa/map.h</text>
</a>
</g>
<!-- Node2&#45;&gt;Node9 -->
<g id="edge38" class="edge"><title>Node2&#45;&gt;Node9</title>
<path fill="none" stroke="midnightblue" d="M354.32,-191.53C439.517,-190.993 594.972,-184.336 630,-144 636.994,-135.946 636.56,-128.411 630,-120 584.16,-61.222 359.892,-29.8164 256.451,-18.2551"/>
<polygon fill="midnightblue" stroke="midnightblue" points="354.279,-188.03 344.292,-191.567 354.304,-195.03 354.279,-188.03"/>
</g>
<!-- Node10 -->
<g id="node24" class="node"><title>Node10</title>
<a xlink:href="pair_8h.html" target="_top" xlink:title="include/fa/pair.h">
<polygon fill="none" stroke="red" points="153.131,-60.6953 153.131,-83.3047 254.869,-83.3047 254.869,-60.6953 153.131,-60.6953"/>
<text text-anchor="middle" x="204" y="-68.3047" font-family="Futura" font-size="11.00">include/fa/pair.h</text>
</a>
</g>
<!-- Node2&#45;&gt;Node10 -->
<g id="edge40" class="edge"><title>Node2&#45;&gt;Node10</title>
<path fill="none" stroke="midnightblue" d="M261.112,-175.667C247.463,-167.645 233.024,-156.815 223,-144 208.468,-125.423 200.608,-98.3539 200.192,-83.5834"/>
<polygon fill="midnightblue" stroke="midnightblue" points="259.466,-178.756 269.912,-180.525 262.849,-172.628 259.466,-178.756"/>
</g>
<!-- Node3&#45;&gt;Node2 -->
<g id="edge6" class="edge"><title>Node3&#45;&gt;Node2</title>
<path fill="none" stroke="midnightblue" d="M55.9712,-33.357C52.0298,-61.7497 44.5359,-113.21 71,-144 94.3509,-171.167 192.331,-183.028 251.763,-187.898"/>
<polygon fill="midnightblue" stroke="midnightblue" points="59.4509,-33.7388 57.2653,-23.3719 52.509,-32.8391 59.4509,-33.7388"/>
</g>
<!-- Node4&#45;&gt;Node1 -->
<g id="edge10" class="edge"><title>Node4&#45;&gt;Node1</title>
<path fill="none" stroke="midnightblue" d="M691.74,-33.2194C693.448,-41.4734 695.16,-51.1438 696,-60 699.704,-99.0392 698.627,-118.309 669,-144 576.319,-224.369 426.561,-244.512 348.689,-249.466"/>
<polygon fill="midnightblue" stroke="midnightblue" points="695.141,-32.3856 689.572,-23.3722 688.304,-33.8909 695.141,-32.3856"/>
</g>
<!-- Node7&#45;&gt;Node2 -->
<g id="edge18" class="edge"><title>Node7&#45;&gt;Node2</title>
<path fill="none" stroke="midnightblue" d="M515.252,-145.55C465.522,-156.582 391.853,-172.361 344.324,-182.128"/>
<polygon fill="midnightblue" stroke="midnightblue" points="516.173,-148.93 525.173,-143.341 514.652,-142.098 516.173,-148.93"/>
</g>
<!-- Node8&#45;&gt;Node2 -->
<g id="edge24" class="edge"><title>Node8&#45;&gt;Node2</title>
<path fill="none" stroke="midnightblue" d="M165.967,-146.344C199.571,-156.77 243.492,-171.052 271.314,-180.631"/>
<polygon fill="midnightblue" stroke="midnightblue" points="166.93,-142.978 156.343,-143.377 164.868,-149.668 166.93,-142.978"/>
</g>
<!-- Node8&#45;&gt;Node3 -->
<g id="edge22" class="edge"><title>Node8&#45;&gt;Node3</title>
<path fill="none" stroke="midnightblue" d="M108.613,-111.545C95.1808,-86.3862 72.2575,-43.4506 61.6689,-23.6179"/>
<polygon fill="midnightblue" stroke="midnightblue" points="105.612,-113.355 113.409,-120.528 111.787,-110.058 105.612,-113.355"/>
</g>
<!-- Node8&#45;&gt;Node9 -->
<g id="edge26" class="edge"><title>Node8&#45;&gt;Node9</title>
<path fill="none" stroke="midnightblue" d="M122.927,-110.66C126.56,-95.6244 133.087,-75.2078 144,-60 155.032,-44.6266 172.46,-31.7629 185.697,-23.402"/>
<polygon fill="midnightblue" stroke="midnightblue" points="119.491,-109.989 120.771,-120.506 126.329,-111.486 119.491,-109.989"/>
</g>
<!-- Node8&#45;&gt;Node10 -->
<g id="edge28" class="edge"><title>Node8&#45;&gt;Node10</title>
<path fill="none" stroke="midnightblue" d="M142.774,-114.778C157.458,-104.758 175.87,-92.1949 188.649,-83.475"/>
<polygon fill="midnightblue" stroke="midnightblue" points="140.484,-112.103 134.196,-120.631 144.429,-117.885 140.484,-112.103"/>
</g>
<!-- Node10&#45;&gt;Node2 -->
<g id="edge34" class="edge"><title>Node10&#45;&gt;Node2</title>
<path fill="none" stroke="midnightblue" d="M215.961,-93.0519C221.79,-108.206 229.193,-128.906 241,-144 253.22,-159.622 272.001,-172.294 284.904,-180.525"/>
<polygon fill="midnightblue" stroke="midnightblue" points="219.128,-91.5482 212.142,-83.5834 212.636,-94.1667 219.128,-91.5482"/>
</g>
<!-- Node10&#45;&gt;Node3 -->
<g id="edge30" class="edge"><title>Node10&#45;&gt;Node3</title>
<path fill="none" stroke="midnightblue" d="M167.93,-56.8643C141.624,-46.5553 106.554,-32.8119 82.7294,-23.475"/>
<polygon fill="midnightblue" stroke="midnightblue" points="166.953,-60.2407 177.541,-60.6308 169.507,-53.7233 166.953,-60.2407"/>
</g>
<!-- Node10&#45;&gt;Node4 -->
<g id="edge32" class="edge"><title>Node10&#45;&gt;Node4</title>
<path fill="none" stroke="midnightblue" d="M265.218,-63.6488C359.765,-52.2953 539.907,-30.6633 631.115,-19.7109"/>
<polygon fill="midnightblue" stroke="midnightblue" points="264.744,-60.1805 255.232,-64.8479 265.578,-67.1306 264.744,-60.1805"/>
</g>
<!-- Node10&#45;&gt;Node9 -->
<g id="edge36" class="edge"><title>Node10&#45;&gt;Node9</title>
<path fill="none" stroke="midnightblue" d="M204,-50.4586C204,-41.4112 204,-31.1602 204,-23.6719"/>
<polygon fill="midnightblue" stroke="midnightblue" points="200.5,-50.6307 204,-60.6308 207.5,-50.6308 200.5,-50.6307"/>
</g>
</g>
</svg>
