<?xml version="1.0" encoding="UTF-8" standalone="no"?>
<!DOCTYPE svg PUBLIC "-//W3C//DTD SVG 1.1//EN"
 "http://www.w3.org/Graphics/SVG/1.1/DTD/svg11.dtd">
<!-- Generated by graphviz version 2.28.0 (20121015.0031)
 -->
<!-- Title: src/doremir/plot_gnu.c Pages: 1 -->
<svg width="628pt" height="212pt"
 viewBox="0.00 0.00 628.00 212.00" xmlns="http://www.w3.org/2000/svg" xmlns:xlink="http://www.w3.org/1999/xlink">
<g id="graph1" class="graph" transform="scale(1 1) rotate(0) translate(4 208)">
<title>src/doremir/plot_gnu.c</title>
<!-- Node1 -->
<g id="node1" class="node"><title>Node1</title>
<polygon fill="#bfbfbf" stroke="black" points="290.753,-180.695 290.753,-203.305 423.247,-203.305 423.247,-180.695 290.753,-180.695"/>
<text text-anchor="middle" x="357" y="-188.305" font-family="Futura" font-size="11.00">src/doremir/plot_gnu.c</text>
</g>
<!-- Node2 -->
<g id="node3" class="node"><title>Node2</title>
<a xlink:href="plot_8h.html" target="_top" xlink:title="doremir/plot.h">
<polygon fill="none" stroke="red" points="-0.515381,-120.695 -0.515381,-143.305 88.5154,-143.305 88.5154,-120.695 -0.515381,-120.695"/>
<text text-anchor="middle" x="44" y="-128.305" font-family="Futura" font-size="11.00">doremir/plot.h</text>
</a>
</g>
<!-- Node1&#45;&gt;Node2 -->
<g id="edge2" class="edge"><title>Node1&#45;&gt;Node2</title>
<path fill="none" stroke="midnightblue" d="M298.043,-180.672C247.761,-171.78 173.283,-158.409 98.8041,-144.127"/>
<polygon fill="midnightblue" stroke="midnightblue" points="99.2555,-140.649 88.7744,-142.198 97.9334,-147.523 99.2555,-140.649"/>
</g>
<!-- Node5 -->
<g id="node10" class="node"><title>Node5</title>
<a xlink:href="thread_8h.html" target="_top" xlink:title="doremir/thread.h">
<polygon fill="none" stroke="black" points="106.706,-120.695 106.706,-143.305 209.294,-143.305 209.294,-120.695 106.706,-120.695"/>
<text text-anchor="middle" x="158" y="-128.305" font-family="Futura" font-size="11.00">doremir/thread.h</text>
</a>
</g>
<!-- Node1&#45;&gt;Node5 -->
<g id="edge10" class="edge"><title>Node1&#45;&gt;Node5</title>
<path fill="none" stroke="midnightblue" d="M321.423,-180.631C288.416,-171.011 239.134,-156.647 203.323,-146.21"/>
<polygon fill="midnightblue" stroke="midnightblue" points="204.184,-142.815 193.604,-143.377 202.225,-149.535 204.184,-142.815"/>
</g>
<!-- Node6 -->
<g id="node14" class="node"><title>Node6</title>
<a xlink:href="util_8h.html" target="_top" xlink:title="doremir/util.h">
<polygon fill="none" stroke="red" points="227.754,-120.695 227.754,-143.305 312.246,-143.305 312.246,-120.695 227.754,-120.695"/>
<text text-anchor="middle" x="270" y="-128.305" font-family="Futura" font-size="11.00">doremir/util.h</text>
</a>
</g>
<!-- Node1&#45;&gt;Node6 -->
<g id="edge16" class="edge"><title>Node1&#45;&gt;Node6</title>
<path fill="none" stroke="midnightblue" d="M341.446,-180.631C328.29,-171.86 309.22,-159.147 294.091,-149.06"/>
<polygon fill="midnightblue" stroke="midnightblue" points="295.975,-146.11 285.713,-143.475 292.092,-151.934 295.975,-146.11"/>
</g>
<!-- Node7 -->
<g id="node16" class="node"><title>Node7</title>
<polygon fill="none" stroke="#bfbfbf" points="329.871,-120.695 329.871,-143.305 384.129,-143.305 384.129,-120.695 329.871,-120.695"/>
<text text-anchor="middle" x="357" y="-128.305" font-family="Futura" font-size="11.00">unistd.h</text>
</g>
<!-- Node1&#45;&gt;Node7 -->
<g id="edge18" class="edge"><title>Node1&#45;&gt;Node7</title>
<path fill="none" stroke="midnightblue" d="M357,-180.631C357,-173.218 357,-162.989 357,-153.91"/>
<polygon fill="midnightblue" stroke="midnightblue" points="360.5,-153.672 357,-143.672 353.5,-153.672 360.5,-153.672"/>
</g>
<!-- Node8 -->
<g id="node18" class="node"><title>Node8</title>
<polygon fill="none" stroke="#bfbfbf" points="401.92,-120.695 401.92,-143.305 474.08,-143.305 474.08,-120.695 401.92,-120.695"/>
<text text-anchor="middle" x="438" y="-128.305" font-family="Futura" font-size="11.00">sys/types.h</text>
</g>
<!-- Node1&#45;&gt;Node8 -->
<g id="edge20" class="edge"><title>Node1&#45;&gt;Node8</title>
<path fill="none" stroke="midnightblue" d="M371.481,-180.631C383.615,-171.942 401.153,-159.384 415.175,-149.344"/>
<polygon fill="midnightblue" stroke="midnightblue" points="417.278,-152.143 423.371,-143.475 413.203,-146.451 417.278,-152.143"/>
</g>
<!-- Node9 -->
<g id="node20" class="node"><title>Node9</title>
<polygon fill="none" stroke="#bfbfbf" points="492.399,-120.695 492.399,-143.305 555.601,-143.305 555.601,-120.695 492.399,-120.695"/>
<text text-anchor="middle" x="524" y="-128.305" font-family="Futura" font-size="11.00">sys/stat.h</text>
</g>
<!-- Node1&#45;&gt;Node9 -->
<g id="edge22" class="edge"><title>Node1&#45;&gt;Node9</title>
<path fill="none" stroke="midnightblue" d="M386.856,-180.631C414.082,-171.175 454.502,-157.137 484.414,-146.748"/>
<polygon fill="midnightblue" stroke="midnightblue" points="485.823,-149.964 494.121,-143.377 483.526,-143.352 485.823,-149.964"/>
</g>
<!-- Node10 -->
<g id="node22" class="node"><title>Node10</title>
<polygon fill="none" stroke="#bfbfbf" points="573.435,-120.695 573.435,-143.305 620.565,-143.305 620.565,-120.695 573.435,-120.695"/>
<text text-anchor="middle" x="597" y="-128.305" font-family="Futura" font-size="11.00">pwd.h</text>
</g>
<!-- Node1&#45;&gt;Node10 -->
<g id="edge24" class="edge"><title>Node1&#45;&gt;Node10</title>
<path fill="none" stroke="midnightblue" d="M409.249,-180.624C449.099,-172.373 505.496,-159.974 563.58,-143.927"/>
<polygon fill="midnightblue" stroke="midnightblue" points="564.604,-147.274 573.293,-141.213 562.72,-140.533 564.604,-147.274"/>
</g>
<!-- Node3 -->
<g id="node5" class="node"><title>Node3</title>
<a xlink:href="doremir_8h.html" target="_top" xlink:title="doremir.h">
<polygon fill="none" stroke="red" points="69.1362,-60.6953 69.1362,-83.3047 132.864,-83.3047 132.864,-60.6953 69.1362,-60.6953"/>
<text text-anchor="middle" x="101" y="-68.3047" font-family="Futura" font-size="11.00">doremir.h</text>
</a>
</g>
<!-- Node2&#45;&gt;Node3 -->
<g id="edge4" class="edge"><title>Node2&#45;&gt;Node3</title>
<path fill="none" stroke="midnightblue" d="M54.1905,-120.631C62.276,-112.403 73.7711,-100.707 83.3464,-90.9633"/>
<polygon fill="midnightblue" stroke="midnightblue" points="85.9991,-93.2575 90.5121,-83.6719 81.0065,-88.3509 85.9991,-93.2575"/>
</g>
<!-- Node4 -->
<g id="node7" class="node"><title>Node4</title>
<a xlink:href="std_8h.html" target="_top" xlink:title="doremir/std.h">
<polygon fill="none" stroke="red" points="58.9607,-0.695312 58.9607,-23.3047 143.039,-23.3047 143.039,-0.695312 58.9607,-0.695312"/>
<text text-anchor="middle" x="101" y="-8.30469" font-family="Futura" font-size="11.00">doremir/std.h</text>
</a>
</g>
<!-- Node2&#45;&gt;Node4 -->
<g id="edge8" class="edge"><title>Node2&#45;&gt;Node4</title>
<path fill="none" stroke="midnightblue" d="M44.7633,-120.343C46.1492,-105.954 49.9387,-79.8323 60,-60 65.4945,-49.1696 74.0441,-38.8078 81.9174,-30.5828"/>
<polygon fill="midnightblue" stroke="midnightblue" points="84.5122,-32.9385 89.1368,-23.4062 79.5772,-27.974 84.5122,-32.9385"/>
</g>
<!-- Node3&#45;&gt;Node4 -->
<g id="edge6" class="edge"><title>Node3&#45;&gt;Node4</title>
<path fill="none" stroke="midnightblue" d="M101,-60.6308C101,-53.218 101,-42.9888 101,-33.9096"/>
<polygon fill="midnightblue" stroke="midnightblue" points="104.5,-33.6718 101,-23.6719 97.5001,-33.6719 104.5,-33.6718"/>
</g>
<!-- Node5&#45;&gt;Node3 -->
<g id="edge12" class="edge"><title>Node5&#45;&gt;Node3</title>
<path fill="none" stroke="midnightblue" d="M147.81,-120.631C139.724,-112.403 128.229,-100.707 118.654,-90.9633"/>
<polygon fill="midnightblue" stroke="midnightblue" points="120.994,-88.3509 111.488,-83.6719 116.001,-93.2575 120.994,-88.3509"/>
</g>
<!-- Node5&#45;&gt;Node4 -->
<g id="edge14" class="edge"><title>Node5&#45;&gt;Node4</title>
<path fill="none" stroke="midnightblue" d="M157.017,-120.359C155.35,-105.989 151.104,-79.8882 141,-60 135.557,-49.2861 127.205,-38.9387 119.539,-30.6932"/>
<polygon fill="midnightblue" stroke="midnightblue" points="122.002,-28.2059 112.516,-23.4883 116.99,-33.0921 122.002,-28.2059"/>
</g>
</g>
</svg>
