<?xml version="1.0" encoding="UTF-8" standalone="no"?>
<!DOCTYPE svg PUBLIC "-//W3C//DTD SVG 1.1//EN"
 "http://www.w3.org/Graphics/SVG/1.1/DTD/svg11.dtd">
<!-- Generated by graphviz version 2.28.0 (20121015.0031)
 -->
<!-- Title: include/fa/plot.h Pages: 1 -->
<svg width="661pt" height="212pt"
 viewBox="0.00 0.00 661.00 212.00" xmlns="http://www.w3.org/2000/svg" xmlns:xlink="http://www.w3.org/1999/xlink">
<g id="graph1" class="graph" transform="scale(1 1) rotate(0) translate(4 208)">
<title>include/fa/plot.h</title>
<!-- Node1 -->
<g id="node1" class="node"><title>Node1</title>
<polygon fill="#bfbfbf" stroke="black" points="396.351,-180.695 396.351,-203.305 497.649,-203.305 497.649,-180.695 396.351,-180.695"/>
<text text-anchor="middle" x="447" y="-188.305" font-family="Futura" font-size="11.00">include/fa/plot.h</text>
</g>
<!-- Node2 -->
<g id="node3" class="node"><title>Node2</title>
<a xlink:href="fa_2fa_8h.html" target="_top" xlink:title="fa.h">
<polygon fill="none" stroke="red" points="393.273,-60.6953 393.273,-83.3047 428.727,-83.3047 428.727,-60.6953 393.273,-60.6953"/>
<text text-anchor="middle" x="411" y="-68.3047" font-family="Futura" font-size="11.00">fa.h</text>
</a>
</g>
<!-- Node1&#45;&gt;Node2 -->
<g id="edge2" class="edge"><title>Node1&#45;&gt;Node2</title>
<path fill="none" stroke="midnightblue" d="M439.758,-180.528C430.69,-161.071 417.452,-119.023 412.026,-93.6561"/>
<polygon fill="midnightblue" stroke="midnightblue" points="415.429,-92.8145 410.169,-83.6179 408.546,-94.0877 415.429,-92.8145"/>
</g>
<!-- Node9 -->
<g id="node19" class="node"><title>Node9</title>
<a xlink:href="std_8h.html" target="_top" xlink:title="fa/std.h">
<polygon fill="none" stroke="red" points="486.39,-60.6953 486.39,-83.3047 541.61,-83.3047 541.61,-60.6953 486.39,-60.6953"/>
<text text-anchor="middle" x="514" y="-68.3047" font-family="Futura" font-size="11.00">fa/std.h</text>
</a>
</g>
<!-- Node1&#45;&gt;Node9 -->
<g id="edge20" class="edge"><title>Node1&#45;&gt;Node9</title>
<path fill="none" stroke="midnightblue" d="M480.138,-180.577C497.381,-173.277 516.918,-161.616 527,-144 536.002,-128.27 530.684,-107.653 524.352,-92.691"/>
<polygon fill="midnightblue" stroke="midnightblue" points="527.391,-90.9279 519.971,-83.3655 521.056,-93.9047 527.391,-90.9279"/>
</g>
<!-- Node10 -->
<g id="node21" class="node"><title>Node10</title>
<a xlink:href="buffer_8h.html" target="_top" xlink:title="fa/buffer.h">
<polygon fill="none" stroke="red" points="447.79,-120.695 447.79,-143.305 518.21,-143.305 518.21,-120.695 447.79,-120.695"/>
<text text-anchor="middle" x="483" y="-128.305" font-family="Futura" font-size="11.00">fa/buffer.h</text>
</a>
</g>
<!-- Node1&#45;&gt;Node10 -->
<g id="edge22" class="edge"><title>Node1&#45;&gt;Node10</title>
<path fill="none" stroke="midnightblue" d="M453.436,-180.631C458.29,-172.811 465.089,-161.856 470.944,-152.424"/>
<polygon fill="midnightblue" stroke="midnightblue" points="474.076,-154.014 476.376,-143.672 468.129,-150.323 474.076,-154.014"/>
</g>
<!-- Node2&#45;&gt;Node1 -->
<g id="edge18" class="edge"><title>Node2&#45;&gt;Node1</title>
<path fill="none" stroke="midnightblue" d="M418.31,-83.6179C427.399,-103.187 440.628,-145.25 446.015,-170.534"/>
<polygon fill="midnightblue" stroke="midnightblue" points="442.602,-171.326 447.852,-180.528 449.486,-170.06 442.602,-171.326"/>
</g>
<!-- Node3 -->
<g id="node5" class="node"><title>Node3</title>
<polygon fill="none" stroke="#bfbfbf" points="-0.0629883,-0.695312 -0.0629883,-23.3047 74.063,-23.3047 74.063,-0.695312 -0.0629883,-0.695312"/>
<text text-anchor="middle" x="37" y="-8.30469" font-family="Futura" font-size="11.00">fa/atomic.h</text>
</g>
<!-- Node2&#45;&gt;Node3 -->
<g id="edge4" class="edge"><title>Node2&#45;&gt;Node3</title>
<path fill="none" stroke="midnightblue" d="M393.127,-69.0277C344.912,-63.5839 208.014,-47.3134 84.1278,-24.0837"/>
<polygon fill="midnightblue" stroke="midnightblue" points="84.5705,-20.6053 74.0935,-22.1812 83.2665,-27.4828 84.5705,-20.6053"/>
</g>
<!-- Node4 -->
<g id="node7" class="node"><title>Node4</title>
<polygon fill="none" stroke="#bfbfbf" points="91.6484,-0.695312 91.6484,-23.3047 202.352,-23.3047 202.352,-0.695312 91.6484,-0.695312"/>
<text text-anchor="middle" x="147" y="-8.30469" font-family="Futura" font-size="11.00">fa/atomic/queue.h</text>
</g>
<!-- Node2&#45;&gt;Node4 -->
<g id="edge6" class="edge"><title>Node2&#45;&gt;Node4</title>
<path fill="none" stroke="midnightblue" d="M393.268,-67.1044C355.182,-58.7369 264.149,-38.7373 204.074,-25.539"/>
<polygon fill="midnightblue" stroke="midnightblue" points="204.493,-22.0477 193.975,-23.3203 202.991,-28.8846 204.493,-22.0477"/>
</g>
<!-- Node5 -->
<g id="node9" class="node"><title>Node5</title>
<polygon fill="none" stroke="#bfbfbf" points="220.42,-0.695312 220.42,-23.3047 325.58,-23.3047 325.58,-0.695312 220.42,-0.695312"/>
<text text-anchor="middle" x="273" y="-8.30469" font-family="Futura" font-size="11.00">fa/atomic/stack.h</text>
</g>
<!-- Node2&#45;&gt;Node5 -->
<g id="edge8" class="edge"><title>Node2&#45;&gt;Node5</title>
<path fill="none" stroke="midnightblue" d="M393.241,-63.5363C371.587,-54.4351 334.507,-38.8506 307.235,-27.3886"/>
<polygon fill="midnightblue" stroke="midnightblue" points="308.253,-24.0199 297.678,-23.3719 305.541,-30.4731 308.253,-24.0199"/>
</g>
<!-- Node6 -->
<g id="node11" class="node"><title>Node6</title>
<polygon fill="none" stroke="#bfbfbf" points="343.526,-0.695312 343.526,-23.3047 478.474,-23.3047 478.474,-0.695312 343.526,-0.695312"/>
<text text-anchor="middle" x="411" y="-8.30469" font-family="Futura" font-size="11.00">fa/atomic/ring_buffer.h</text>
</g>
<!-- Node2&#45;&gt;Node6 -->
<g id="edge10" class="edge"><title>Node2&#45;&gt;Node6</title>
<path fill="none" stroke="midnightblue" d="M411,-60.6308C411,-53.218 411,-42.9888 411,-33.9096"/>
<polygon fill="midnightblue" stroke="midnightblue" points="414.5,-33.6718 411,-23.6719 407.5,-33.6719 414.5,-33.6718"/>
</g>
<!-- Node7 -->
<g id="node13" class="node"><title>Node7</title>
<polygon fill="none" stroke="#bfbfbf" points="496.026,-0.695312 496.026,-23.3047 569.974,-23.3047 569.974,-0.695312 496.026,-0.695312"/>
<text text-anchor="middle" x="533" y="-8.30469" font-family="Futura" font-size="11.00">fa/system.h</text>
</g>
<!-- Node2&#45;&gt;Node7 -->
<g id="edge12" class="edge"><title>Node2&#45;&gt;Node7</title>
<path fill="none" stroke="midnightblue" d="M428.74,-62.5663C447.908,-53.4538 478.816,-38.7595 502.013,-27.7316"/>
<polygon fill="midnightblue" stroke="midnightblue" points="503.582,-30.861 511.111,-23.4064 500.577,-24.539 503.582,-30.861"/>
</g>
<!-- Node8 -->
<g id="node15" class="node"><title>Node8</title>
<a xlink:href="error_8h.html" target="_top" xlink:title="fa/error.h">
<polygon fill="none" stroke="red" points="588.161,-0.695312 588.161,-23.3047 653.839,-23.3047 653.839,-0.695312 588.161,-0.695312"/>
<text text-anchor="middle" x="621" y="-8.30469" font-family="Futura" font-size="11.00">fa/error.h</text>
</a>
</g>
<!-- Node2&#45;&gt;Node8 -->
<g id="edge14" class="edge"><title>Node2&#45;&gt;Node8</title>
<path fill="none" stroke="midnightblue" d="M428.738,-64.9026C461.693,-55.0124 532.51,-35.365 578.466,-23.2836"/>
<polygon fill="midnightblue" stroke="midnightblue" points="579.364,-26.6665 588.156,-20.7533 577.596,-19.8936 579.364,-26.6665"/>
</g>
<!-- Node8&#45;&gt;Node2 -->
<g id="edge16" class="edge"><title>Node8&#45;&gt;Node2</title>
<path fill="none" stroke="midnightblue" d="M588.894,-23.3337C547.97,-35.2358 478.183,-54.4327 439.196,-64.4463"/>
<polygon fill="midnightblue" stroke="midnightblue" points="437.9,-61.1641 429.066,-67.0134 439.619,-67.9496 437.9,-61.1641"/>
</g>
<!-- Node10&#45;&gt;Node2 -->
<g id="edge24" class="edge"><title>Node10&#45;&gt;Node2</title>
<path fill="none" stroke="midnightblue" d="M470.128,-120.631C459.611,-112.159 444.528,-100.009 432.228,-90.1004"/>
<polygon fill="midnightblue" stroke="midnightblue" points="434.231,-87.2196 424.248,-83.6719 429.84,-92.6708 434.231,-87.2196"/>
</g>
<!-- Node10&#45;&gt;Node9 -->
<g id="edge26" class="edge"><title>Node10&#45;&gt;Node9</title>
<path fill="none" stroke="midnightblue" d="M488.542,-120.631C492.678,-112.892 498.455,-102.084 503.46,-92.7193"/>
<polygon fill="midnightblue" stroke="midnightblue" points="506.669,-94.141 508.296,-83.6719 500.495,-90.8414 506.669,-94.141"/>
</g>
</g>
</svg>
