<?xml version="1.0" encoding="UTF-8" standalone="no"?>
<!DOCTYPE svg PUBLIC "-//W3C//DTD SVG 1.1//EN"
 "http://www.w3.org/Graphics/SVG/1.1/DTD/svg11.dtd">
<!-- Generated by graphviz version 2.28.0 (20121015.0031)
 -->
<!-- Title: include/fae/plot.h Pages: 1 -->
<svg width="734pt" height="166pt"
 viewBox="0.00 0.00 734.32 166.00" xmlns="http://www.w3.org/2000/svg" xmlns:xlink="http://www.w3.org/1999/xlink">
<g id="graph1" class="graph" transform="scale(1 1) rotate(0) translate(4 162)">
<title>include/fae/plot.h</title>
<!-- Node1 -->
<g id="node1" class="node"><title>Node1</title>
<polygon fill="#bfbfbf" stroke="black" points="412.308,-134.695 412.308,-157.305 519.692,-157.305 519.692,-134.695 412.308,-134.695"/>
<text text-anchor="middle" x="466" y="-142.305" font-family="Futura" font-size="11.00">include/fae/plot.h</text>
</g>
<!-- Node2 -->
<g id="node3" class="node"><title>Node2</title>
<a xlink:href="fae_2fae_8h.html" target="_top" xlink:title="include/fae/fae.h">
<polygon fill="none" stroke="red" points="217.761,-67.6953 217.761,-90.3047 322.239,-90.3047 322.239,-67.6953 217.761,-67.6953"/>
<text text-anchor="middle" x="270" y="-75.3047" font-family="Futura" font-size="11.00">include/fae/fae.h</text>
</a>
</g>
<!-- Node1&#45;&gt;Node2 -->
<g id="edge2" class="edge"><title>Node1&#45;&gt;Node2</title>
<path fill="none" stroke="midnightblue" d="M419.423,-131.414C380.817,-119.167 327.491,-101.425 295.998,-90.3101"/>
<polygon fill="midnightblue" stroke="midnightblue" points="418.805,-134.888 429.394,-134.557 420.909,-128.212 418.805,-134.888"/>
</g>
<!-- Node8 -->
<g id="node19" class="node"><title>Node8</title>
<a xlink:href="gnuplot_8c.html" target="_top" xlink:title="src/fae/plot/gnuplot.c">
<polygon fill="none" stroke="black" points="339.891,-67.6953 339.891,-90.3047 468.109,-90.3047 468.109,-67.6953 339.891,-67.6953"/>
<text text-anchor="middle" x="404" y="-75.3047" font-family="Futura" font-size="11.00">src/fae/plot/gnuplot.c</text>
</a>
</g>
<!-- Node1&#45;&gt;Node8 -->
<g id="edge22" class="edge"><title>Node1&#45;&gt;Node8</title>
<path fill="none" stroke="midnightblue" d="M448.893,-127.066C437.735,-115.368 423.549,-100.495 414.143,-90.6334"/>
<polygon fill="midnightblue" stroke="midnightblue" points="446.604,-129.736 456.039,-134.557 451.669,-124.905 446.604,-129.736"/>
</g>
<!-- Node9 -->
<g id="node21" class="node"><title>Node9</title>
<a xlink:href="plot_8c.html" target="_top" xlink:title="src/fae/plot.c">
<polygon fill="none" stroke="black" points="486.555,-67.6953 486.555,-90.3047 571.445,-90.3047 571.445,-67.6953 486.555,-67.6953"/>
<text text-anchor="middle" x="529" y="-75.3047" font-family="Futura" font-size="11.00">src/fae/plot.c</text>
</a>
</g>
<!-- Node1&#45;&gt;Node9 -->
<g id="edge24" class="edge"><title>Node1&#45;&gt;Node9</title>
<path fill="none" stroke="midnightblue" d="M483.382,-127.066C494.721,-115.368 509.135,-100.495 518.694,-90.6334"/>
<polygon fill="midnightblue" stroke="midnightblue" points="480.569,-124.94 476.122,-134.557 485.595,-129.812 480.569,-124.94"/>
</g>
<!-- Node10 -->
<g id="node23" class="node"><title>Node10</title>
<a xlink:href="coreplot_8m.html" target="_top" xlink:title="src/platform/macosx\l/fae/plot/coreplot.m">
<polygon fill="none" stroke="black" points="589.339,-60.3906 589.339,-97.6094 710.661,-97.6094 710.661,-60.3906 589.339,-60.3906"/>
<text text-anchor="start" x="597.339" y="-82.6094" font-family="Futura" font-size="11.00">src/platform/macosx</text>
<text text-anchor="middle" x="650" y="-68" font-family="Futura" font-size="11.00">/fae/plot/coreplot.m</text>
</a>
</g>
<!-- Node1&#45;&gt;Node10 -->
<g id="edge26" class="edge"><title>Node1&#45;&gt;Node10</title>
<path fill="none" stroke="midnightblue" d="M505.294,-131.119C532.973,-121.341 570.256,-108.17 600.046,-97.6469"/>
<polygon fill="midnightblue" stroke="midnightblue" points="503.826,-127.926 495.563,-134.557 506.158,-134.526 503.826,-127.926"/>
</g>
<!-- Node2&#45;&gt;Node1 -->
<g id="edge20" class="edge"><title>Node2&#45;&gt;Node1</title>
<path fill="none" stroke="midnightblue" d="M316.116,-93.44C354.604,-105.643 407.958,-123.389 439.624,-134.557"/>
<polygon fill="midnightblue" stroke="midnightblue" points="316.769,-89.9764 306.18,-90.3101 314.666,-96.653 316.769,-89.9764"/>
</g>
<!-- Node3 -->
<g id="node5" class="node"><title>Node3</title>
<a xlink:href="atomic_8h.html" target="_top" xlink:title="include/fae/atomic.h">
<polygon fill="none" stroke="red" points="-0.668945,-0.695312 -0.668945,-23.3047 120.669,-23.3047 120.669,-0.695312 -0.668945,-0.695312"/>
<text text-anchor="middle" x="60" y="-8.30469" font-family="Futura" font-size="11.00">include/fae/atomic.h</text>
</a>
</g>
<!-- Node2&#45;&gt;Node3 -->
<g id="edge4" class="edge"><title>Node2&#45;&gt;Node3</title>
<path fill="none" stroke="midnightblue" d="M221.547,-64.7253C180.228,-52.4697 122.394,-34.5197 88.2188,-23.3101"/>
<polygon fill="midnightblue" stroke="midnightblue" points="220.563,-68.0843 231.145,-67.5566 222.544,-61.3703 220.563,-68.0843"/>
</g>
<!-- Node4 -->
<g id="node8" class="node"><title>Node4</title>
<a xlink:href="buffer_8h.html" target="_top" xlink:title="include/fae/buffer.h">
<polygon fill="none" stroke="red" points="582.184,-0.695312 582.184,-23.3047 699.816,-23.3047 699.816,-0.695312 582.184,-0.695312"/>
<text text-anchor="middle" x="641" y="-8.30469" font-family="Futura" font-size="11.00">include/fae/buffer.h</text>
</a>
</g>
<!-- Node2&#45;&gt;Node4 -->
<g id="edge8" class="edge"><title>Node2&#45;&gt;Node4</title>
<path fill="none" stroke="midnightblue" d="M311.889,-64.8238C318.255,-63.0588 324.775,-61.3835 331,-60 377.628,-49.6365 506.017,-31.3935 582.151,-20.9451"/>
<polygon fill="midnightblue" stroke="midnightblue" points="310.722,-61.5175 302.077,-67.6423 312.654,-68.2454 310.722,-61.5175"/>
</g>
<!-- Node5 -->
<g id="node11" class="node"><title>Node5</title>
<a xlink:href="device_8h.html" target="_top" xlink:title="include/fae/device.h">
<polygon fill="none" stroke="red" points="138.774,-0.695312 138.774,-23.3047 259.226,-23.3047 259.226,-0.695312 138.774,-0.695312"/>
<text text-anchor="middle" x="199" y="-8.30469" font-family="Futura" font-size="11.00">include/fae/device.h</text>
</a>
</g>
<!-- Node2&#45;&gt;Node5 -->
<g id="edge12" class="edge"><title>Node2&#45;&gt;Node5</title>
<path fill="none" stroke="midnightblue" d="M251.144,-60.737C238.259,-48.9416 221.594,-33.685 210.615,-23.6334"/>
<polygon fill="midnightblue" stroke="midnightblue" points="248.853,-63.3856 258.593,-67.5566 253.58,-58.2225 248.853,-63.3856"/>
</g>
<!-- Node6 -->
<g id="node13" class="node"><title>Node6</title>
<a xlink:href="dynamic_8h.html" target="_top" xlink:title="include/fae/dynamic.h">
<polygon fill="none" stroke="red" points="276.876,-0.695312 276.876,-23.3047 407.124,-23.3047 407.124,-0.695312 276.876,-0.695312"/>
<text text-anchor="middle" x="342" y="-8.30469" font-family="Futura" font-size="11.00">include/fae/dynamic.h</text>
</a>
</g>
<!-- Node2&#45;&gt;Node6 -->
<g id="edge14" class="edge"><title>Node2&#45;&gt;Node6</title>
<path fill="none" stroke="midnightblue" d="M289.122,-60.737C302.188,-48.9416 319.087,-33.685 330.221,-23.6334"/>
<polygon fill="midnightblue" stroke="midnightblue" points="286.645,-58.2576 281.568,-67.5566 291.336,-63.4535 286.645,-58.2576"/>
</g>
<!-- Node7 -->
<g id="node15" class="node"><title>Node7</title>
<a xlink:href="error_8h.html" target="_top" xlink:title="include/fae/error.h">
<polygon fill="none" stroke="red" points="425.555,-0.695312 425.555,-23.3047 538.445,-23.3047 538.445,-0.695312 425.555,-0.695312"/>
<text text-anchor="middle" x="482" y="-8.30469" font-family="Futura" font-size="11.00">include/fae/error.h</text>
</a>
</g>
<!-- Node2&#45;&gt;Node7 -->
<g id="edge16" class="edge"><title>Node2&#45;&gt;Node7</title>
<path fill="none" stroke="midnightblue" d="M308.703,-64.4138C346.968,-52.1672 405.007,-34.4251 443.283,-23.3101"/>
<polygon fill="midnightblue" stroke="midnightblue" points="307.392,-61.159 298.947,-67.5566 309.538,-67.8218 307.392,-61.159"/>
</g>
<!-- Node3&#45;&gt;Node2 -->
<g id="edge6" class="edge"><title>Node3&#45;&gt;Node2</title>
<path fill="none" stroke="midnightblue" d="M108.225,-26.207C149.396,-38.4157 207.086,-56.3177 241.375,-67.5566"/>
<polygon fill="midnightblue" stroke="midnightblue" points="108.982,-22.7813 98.4003,-23.3101 107.002,-29.4955 108.982,-22.7813"/>
</g>
<!-- Node4&#45;&gt;Node1 -->
<g id="edge10" class="edge"><title>Node4&#45;&gt;Node1</title>
<path fill="none" stroke="midnightblue" d="M682.213,-27.8532C696.473,-35.207 710.898,-45.6594 719,-60 727.307,-74.7045 729.797,-85.0129 719,-98 694.189,-127.845 586.513,-138.828 519.884,-142.805"/>
<polygon fill="midnightblue" stroke="midnightblue" points="683.469,-24.5756 672.934,-23.4583 680.473,-30.902 683.469,-24.5756"/>
</g>
<!-- Node7&#45;&gt;Node2 -->
<g id="edge18" class="edge"><title>Node7&#45;&gt;Node2</title>
<path fill="none" stroke="midnightblue" d="M443.754,-26.44C405.647,-38.6426 347.609,-56.389 309.176,-67.5566"/>
<polygon fill="midnightblue" stroke="midnightblue" points="445.02,-29.7093 453.464,-23.3101 442.872,-23.0468 445.02,-29.7093"/>
</g>
</g>
</svg>
