<?xml version="1.0" encoding="UTF-8" standalone="no"?>
<!DOCTYPE svg PUBLIC "-//W3C//DTD SVG 1.1//EN"
 "http://www.w3.org/Graphics/SVG/1.1/DTD/svg11.dtd">
<!-- Generated by graphviz version 2.28.0 (20121015.0031)
 -->
<!-- Title: include/fa/priority_queue.h Pages: 1 -->
<svg width="841pt" height="166pt"
 viewBox="0.00 0.00 841.00 166.00" xmlns="http://www.w3.org/2000/svg" xmlns:xlink="http://www.w3.org/1999/xlink">
<g id="graph1" class="graph" transform="scale(1 1) rotate(0) translate(4 162)">
<title>include/fa/priority_queue.h</title>
<!-- Node1 -->
<g id="node1" class="node"><title>Node1</title>
<polygon fill="#bfbfbf" stroke="black" points="522.457,-120.391 522.457,-157.609 631.543,-157.609 631.543,-120.391 522.457,-120.391"/>
<text text-anchor="start" x="530.457" y="-142.609" font-family="Futura" font-size="11.00">include/fa/priority</text>
<text text-anchor="middle" x="577" y="-128" font-family="Futura" font-size="11.00">_queue.h</text>
</g>
<!-- Node2 -->
<g id="node3" class="node"><title>Node2</title>
<a xlink:href="fa_2fa_8h.html" target="_top" xlink:title="fa.h">
<polygon fill="none" stroke="red" points="559.273,-60.6953 559.273,-83.3047 594.727,-83.3047 594.727,-60.6953 559.273,-60.6953"/>
<text text-anchor="middle" x="577" y="-68.3047" font-family="Futura" font-size="11.00">fa.h</text>
</a>
</g>
<!-- Node1&#45;&gt;Node2 -->
<g id="edge2" class="edge"><title>Node1&#45;&gt;Node2</title>
<path fill="none" stroke="midnightblue" d="M570.909,-120.238C570.118,-111.992 570.039,-102.141 570.671,-93.5727"/>
<polygon fill="midnightblue" stroke="midnightblue" points="574.149,-93.9673 571.853,-83.6243 567.198,-93.1417 574.149,-93.9673"/>
</g>
<!-- Node2&#45;&gt;Node1 -->
<g id="edge24" class="edge"><title>Node2&#45;&gt;Node1</title>
<path fill="none" stroke="midnightblue" d="M582.147,-83.6243C583.421,-90.8249 583.936,-100.7 583.691,-110.06"/>
<polygon fill="midnightblue" stroke="midnightblue" points="580.185,-110.05 583.091,-120.238 587.173,-110.462 580.185,-110.05"/>
</g>
<!-- Node3 -->
<g id="node5" class="node"><title>Node3</title>
<polygon fill="none" stroke="#bfbfbf" points="-0.0629883,-0.695312 -0.0629883,-23.3047 74.063,-23.3047 74.063,-0.695312 -0.0629883,-0.695312"/>
<text text-anchor="middle" x="37" y="-8.30469" font-family="Futura" font-size="11.00">fa/atomic.h</text>
</g>
<!-- Node2&#45;&gt;Node3 -->
<g id="edge4" class="edge"><title>Node2&#45;&gt;Node3</title>
<path fill="none" stroke="midnightblue" d="M558.938,-70.1952C495.246,-67.1672 275.117,-55.0905 84.0074,-23.9746"/>
<polygon fill="midnightblue" stroke="midnightblue" points="84.5026,-20.509 74.0662,-22.3342 83.3629,-27.4156 84.5026,-20.509"/>
</g>
<!-- Node4 -->
<g id="node7" class="node"><title>Node4</title>
<polygon fill="none" stroke="#bfbfbf" points="91.6484,-0.695312 91.6484,-23.3047 202.352,-23.3047 202.352,-0.695312 91.6484,-0.695312"/>
<text text-anchor="middle" x="147" y="-8.30469" font-family="Futura" font-size="11.00">fa/atomic/queue.h</text>
</g>
<!-- Node2&#45;&gt;Node4 -->
<g id="edge6" class="edge"><title>Node2&#45;&gt;Node4</title>
<path fill="none" stroke="midnightblue" d="M559.063,-68.9704C507.112,-63.0345 351.871,-44.892 212.486,-24.1796"/>
<polygon fill="midnightblue" stroke="midnightblue" points="212.887,-20.7007 202.48,-22.684 211.852,-27.6238 212.887,-20.7007"/>
</g>
<!-- Node5 -->
<g id="node9" class="node"><title>Node5</title>
<polygon fill="none" stroke="#bfbfbf" points="220.42,-0.695312 220.42,-23.3047 325.58,-23.3047 325.58,-0.695312 220.42,-0.695312"/>
<text text-anchor="middle" x="273" y="-8.30469" font-family="Futura" font-size="11.00">fa/atomic/stack.h</text>
</g>
<!-- Node2&#45;&gt;Node5 -->
<g id="edge8" class="edge"><title>Node2&#45;&gt;Node5</title>
<path fill="none" stroke="midnightblue" d="M558.894,-67.5455C515.948,-59.352 406.258,-38.4242 335.911,-25.0029"/>
<polygon fill="midnightblue" stroke="midnightblue" points="336.309,-21.5157 325.831,-23.0795 334.998,-28.3917 336.309,-21.5157"/>
</g>
<!-- Node6 -->
<g id="node11" class="node"><title>Node6</title>
<polygon fill="none" stroke="#bfbfbf" points="343.526,-0.695312 343.526,-23.3047 478.474,-23.3047 478.474,-0.695312 343.526,-0.695312"/>
<text text-anchor="middle" x="411" y="-8.30469" font-family="Futura" font-size="11.00">fa/atomic/ring_buffer.h</text>
</g>
<!-- Node2&#45;&gt;Node6 -->
<g id="edge10" class="edge"><title>Node2&#45;&gt;Node6</title>
<path fill="none" stroke="midnightblue" d="M559.235,-64.793C533.429,-55.7763 484.893,-38.8181 450.394,-26.7643"/>
<polygon fill="midnightblue" stroke="midnightblue" points="451.218,-23.3448 440.624,-23.3504 448.91,-29.9531 451.218,-23.3448"/>
</g>
<!-- Node7 -->
<g id="node13" class="node"><title>Node7</title>
<polygon fill="none" stroke="#bfbfbf" points="496.026,-0.695312 496.026,-23.3047 569.974,-23.3047 569.974,-0.695312 496.026,-0.695312"/>
<text text-anchor="middle" x="533" y="-8.30469" font-family="Futura" font-size="11.00">fa/system.h</text>
</g>
<!-- Node2&#45;&gt;Node7 -->
<g id="edge12" class="edge"><title>Node2&#45;&gt;Node7</title>
<path fill="none" stroke="midnightblue" d="M569.134,-60.6308C563.078,-52.6478 554.544,-41.3984 547.29,-31.8366"/>
<polygon fill="midnightblue" stroke="midnightblue" points="549.928,-29.5234 541.096,-23.6719 544.351,-33.7542 549.928,-29.5234"/>
</g>
<!-- Node8 -->
<g id="node15" class="node"><title>Node8</title>
<a xlink:href="error_8h.html" target="_top" xlink:title="fa/error.h">
<polygon fill="none" stroke="red" points="588.161,-0.695312 588.161,-23.3047 653.839,-23.3047 653.839,-0.695312 588.161,-0.695312"/>
<text text-anchor="middle" x="621" y="-8.30469" font-family="Futura" font-size="11.00">fa/error.h</text>
</a>
</g>
<!-- Node2&#45;&gt;Node8 -->
<g id="edge14" class="edge"><title>Node2&#45;&gt;Node8</title>
<path fill="none" stroke="midnightblue" d="M579.55,-60.6308C584.25,-52.4848 592.676,-40.9379 600.833,-31.2533"/>
<polygon fill="midnightblue" stroke="midnightblue" points="603.534,-33.4825 607.534,-23.6719 598.289,-28.8465 603.534,-33.4825"/>
</g>
<!-- Node9 -->
<g id="node18" class="node"><title>Node9</title>
<a xlink:href="pair_8h.html" target="_top" xlink:title="fa/pair.h">
<polygon fill="none" stroke="red" points="671.694,-0.695312 671.694,-23.3047 732.306,-23.3047 732.306,-0.695312 671.694,-0.695312"/>
<text text-anchor="middle" x="702" y="-8.30469" font-family="Futura" font-size="11.00">fa/pair.h</text>
</a>
</g>
<!-- Node2&#45;&gt;Node9 -->
<g id="edge18" class="edge"><title>Node2&#45;&gt;Node9</title>
<path fill="none" stroke="midnightblue" d="M594.032,-60.6308C612.23,-51.4093 641.29,-37.8294 664.753,-27.5268"/>
<polygon fill="midnightblue" stroke="midnightblue" points="666.31,-30.6668 674.09,-23.475 663.523,-24.2454 666.31,-30.6668"/>
</g>
<!-- Node10 -->
<g id="node21" class="node"><title>Node10</title>
<polygon fill="none" stroke="#bfbfbf" points="750.804,-0.695312 750.804,-23.3047 833.196,-23.3047 833.196,-0.695312 750.804,-0.695312"/>
<text text-anchor="middle" x="792" y="-8.30469" font-family="Futura" font-size="11.00">fa/pair/left.h</text>
</g>
<!-- Node2&#45;&gt;Node10 -->
<g id="edge22" class="edge"><title>Node2&#45;&gt;Node10</title>
<path fill="none" stroke="midnightblue" d="M594.961,-66.1547C627.373,-57.4109 696.649,-38.7225 743.79,-26.0054"/>
<polygon fill="midnightblue" stroke="midnightblue" points="744.749,-29.3719 753.493,-23.3881 742.926,-22.6135 744.749,-29.3719"/>
</g>
<!-- Node8&#45;&gt;Node2 -->
<g id="edge16" class="edge"><title>Node8&#45;&gt;Node2</title>
<path fill="none" stroke="midnightblue" d="M618.274,-23.6719C613.483,-31.9008 605.016,-43.4659 596.866,-53.1038"/>
<polygon fill="midnightblue" stroke="midnightblue" points="594.205,-50.8293 590.182,-60.6308 599.439,-55.4772 594.205,-50.8293"/>
</g>
<!-- Node9&#45;&gt;Node2 -->
<g id="edge20" class="edge"><title>Node9&#45;&gt;Node2</title>
<path fill="none" stroke="midnightblue" d="M684.795,-23.4572C663.876,-34.0484 628.785,-50.323 604.232,-60.8154"/>
<polygon fill="midnightblue" stroke="midnightblue" points="602.616,-57.6977 594.748,-64.793 605.323,-64.153 602.616,-57.6977"/>
</g>
</g>
</svg>
