<?xml version="1.0" encoding="UTF-8" standalone="no"?>
<!DOCTYPE svg PUBLIC "-//W3C//DTD SVG 1.1//EN"
 "http://www.w3.org/Graphics/SVG/1.1/DTD/svg11.dtd">
<!-- Generated by graphviz version 2.28.0 (20121015.0031)
 -->
<!-- Title: src/fae/priority_queue.c Pages: 1 -->
<svg width="778pt" height="152pt"
 viewBox="0.00 0.00 778.00 152.00" xmlns="http://www.w3.org/2000/svg" xmlns:xlink="http://www.w3.org/1999/xlink">
<g id="graph1" class="graph" transform="scale(1 1) rotate(0) translate(4 148)">
<title>src/fae/priority_queue.c</title>
<!-- Node1 -->
<g id="node1" class="node"><title>Node1</title>
<polygon fill="#bfbfbf" stroke="black" points="276.399,-120.695 276.399,-143.305 415.601,-143.305 415.601,-120.695 276.399,-120.695"/>
<text text-anchor="middle" x="346" y="-128.305" font-family="Futura" font-size="11.00">src/fae/priority_queue.c</text>
</g>
<!-- Node2 -->
<g id="node3" class="node"><title>Node2</title>
<polygon fill="none" stroke="#bfbfbf" points="231.715,-60.6953 231.715,-83.3047 352.285,-83.3047 352.285,-60.6953 231.715,-60.6953"/>
<text text-anchor="middle" x="292" y="-68.3047" font-family="Futura" font-size="11.00">fae/priority_queue.h</text>
</g>
<!-- Node1&#45;&gt;Node2 -->
<g id="edge2" class="edge"><title>Node1&#45;&gt;Node2</title>
<path fill="none" stroke="midnightblue" d="M336.346,-120.631C328.762,-112.485 318.011,-100.938 308.994,-91.2533"/>
<polygon fill="midnightblue" stroke="midnightblue" points="311.312,-88.6059 301.936,-83.6719 306.188,-93.3758 311.312,-88.6059"/>
</g>
<!-- Node3 -->
<g id="node5" class="node"><title>Node3</title>
<a xlink:href="util_8h.html" target="_top" xlink:title="fae/util.h">
<polygon fill="none" stroke="black" points="370.141,-60.6953 370.141,-83.3047 431.859,-83.3047 431.859,-60.6953 370.141,-60.6953"/>
<text text-anchor="middle" x="401" y="-68.3047" font-family="Futura" font-size="11.00">fae/util.h</text>
</a>
</g>
<!-- Node1&#45;&gt;Node3 -->
<g id="edge4" class="edge"><title>Node1&#45;&gt;Node3</title>
<path fill="none" stroke="midnightblue" d="M355.833,-120.631C363.635,-112.403 374.727,-100.707 383.966,-90.9633"/>
<polygon fill="midnightblue" stroke="midnightblue" points="386.539,-93.3365 390.88,-83.6719 381.459,-88.5198 386.539,-93.3365"/>
</g>
<!-- Node4 -->
<g id="node7" class="node"><title>Node4</title>
<a xlink:href="arch_8h.html" target="_top" xlink:title="fae/util/arch.h">
<polygon fill="none" stroke="black" points="-0.794678,-0.695312 -0.794678,-23.3047 88.7947,-23.3047 88.7947,-0.695312 -0.794678,-0.695312"/>
<text text-anchor="middle" x="44" y="-8.30469" font-family="Futura" font-size="11.00">fae/util/arch.h</text>
</a>
</g>
<!-- Node3&#45;&gt;Node4 -->
<g id="edge6" class="edge"><title>Node3&#45;&gt;Node4</title>
<path fill="none" stroke="midnightblue" d="M370.089,-62.0646C367.031,-61.3117 363.963,-60.6075 361,-60 248.585,-36.9546 216.073,-43.3993 99.1086,-24.093"/>
<polygon fill="midnightblue" stroke="midnightblue" points="99.4818,-20.6068 89.0403,-22.4025 98.3226,-27.5101 99.4818,-20.6068"/>
</g>
<!-- Node5 -->
<g id="node9" class="node"><title>Node5</title>
<a xlink:href="alignof_8h.html" target="_top" xlink:title="fae/util/alignof.h">
<polygon fill="none" stroke="black" points="107.007,-0.695312 107.007,-23.3047 208.993,-23.3047 208.993,-0.695312 107.007,-0.695312"/>
<text text-anchor="middle" x="158" y="-8.30469" font-family="Futura" font-size="11.00">fae/util/alignof.h</text>
</a>
</g>
<!-- Node3&#45;&gt;Node5 -->
<g id="edge8" class="edge"><title>Node3&#45;&gt;Node5</title>
<path fill="none" stroke="midnightblue" d="M370.024,-62.3473C366.979,-61.5372 363.932,-60.7424 361,-60 312.021,-47.6009 256.064,-34.7418 215.32,-25.615"/>
<polygon fill="midnightblue" stroke="midnightblue" points="215.825,-22.1417 205.303,-23.3776 214.3,-28.9734 215.825,-22.1417"/>
</g>
<!-- Node6 -->
<g id="node11" class="node"><title>Node6</title>
<a xlink:href="minmax_8h.html" target="_top" xlink:title="fae/util/minmax.h">
<polygon fill="none" stroke="red" points="226.837,-0.695312 226.837,-23.3047 333.163,-23.3047 333.163,-0.695312 226.837,-0.695312"/>
<text text-anchor="middle" x="280" y="-8.30469" font-family="Futura" font-size="11.00">fae/util/minmax.h</text>
</a>
</g>
<!-- Node3&#45;&gt;Node6 -->
<g id="edge10" class="edge"><title>Node3&#45;&gt;Node6</title>
<path fill="none" stroke="midnightblue" d="M379.368,-60.6308C360.301,-51.4913 332.302,-38.0705 310.881,-27.8023"/>
<polygon fill="midnightblue" stroke="midnightblue" points="312.384,-24.6414 301.853,-23.475 309.358,-30.9537 312.384,-24.6414"/>
</g>
<!-- Node7 -->
<g id="node13" class="node"><title>Node7</title>
<a xlink:href="literals_8h.html" target="_top" xlink:title="fae/util/literals.h">
<polygon fill="none" stroke="red" points="351.038,-0.695312 351.038,-23.3047 450.962,-23.3047 450.962,-0.695312 351.038,-0.695312"/>
<text text-anchor="middle" x="401" y="-8.30469" font-family="Futura" font-size="11.00">fae/util/literals.h</text>
</a>
</g>
<!-- Node3&#45;&gt;Node7 -->
<g id="edge12" class="edge"><title>Node3&#45;&gt;Node7</title>
<path fill="none" stroke="midnightblue" d="M401,-60.6308C401,-53.218 401,-42.9888 401,-33.9096"/>
<polygon fill="midnightblue" stroke="midnightblue" points="404.5,-33.6718 401,-23.6719 397.5,-33.6719 404.5,-33.6718"/>
</g>
<!-- Node8 -->
<g id="node15" class="node"><title>Node8</title>
<a xlink:href="macros_8h.html" target="_top" xlink:title="fae/util/macros.h">
<polygon fill="none" stroke="black" points="468.475,-0.695312 468.475,-23.3047 571.525,-23.3047 571.525,-0.695312 468.475,-0.695312"/>
<text text-anchor="middle" x="520" y="-8.30469" font-family="Futura" font-size="11.00">fae/util/macros.h</text>
</a>
</g>
<!-- Node3&#45;&gt;Node8 -->
<g id="edge14" class="edge"><title>Node3&#45;&gt;Node8</title>
<path fill="none" stroke="midnightblue" d="M422.275,-60.6308C440.942,-51.5323 468.315,-38.1908 489.346,-27.9407"/>
<polygon fill="midnightblue" stroke="midnightblue" points="491.052,-31.0025 498.508,-23.475 487.986,-24.7101 491.052,-31.0025"/>
</g>
<!-- Node9 -->
<g id="node17" class="node"><title>Node9</title>
<a xlink:href="apply_8h.html" target="_top" xlink:title="fae/util/apply.h">
<polygon fill="none" stroke="black" points="589.316,-0.695312 589.316,-23.3047 684.684,-23.3047 684.684,-0.695312 589.316,-0.695312"/>
<text text-anchor="middle" x="637" y="-8.30469" font-family="Futura" font-size="11.00">fae/util/apply.h</text>
</a>
</g>
<!-- Node3&#45;&gt;Node9 -->
<g id="edge16" class="edge"><title>Node3&#45;&gt;Node9</title>
<path fill="none" stroke="midnightblue" d="M432.339,-63.298C471.238,-53.7382 538.138,-37.2966 584.824,-25.8228"/>
<polygon fill="midnightblue" stroke="midnightblue" points="585.88,-29.1676 594.756,-23.382 584.209,-22.3699 585.88,-29.1676"/>
</g>
<!-- Node10 -->
<g id="node19" class="node"><title>Node10</title>
<a xlink:href="time_8h.html" target="_top" xlink:title="fae/time.h">
<polygon fill="none" stroke="red" points="703.114,-0.695312 703.114,-23.3047 770.886,-23.3047 770.886,-0.695312 703.114,-0.695312"/>
<text text-anchor="middle" x="737" y="-8.30469" font-family="Futura" font-size="11.00">fae/time.h</text>
</a>
</g>
<!-- Node3&#45;&gt;Node10 -->
<g id="edge18" class="edge"><title>Node3&#45;&gt;Node10</title>
<path fill="none" stroke="midnightblue" d="M432.274,-66.8602C485.887,-59.564 598.688,-43.3425 693,-24 693.101,-23.9792 693.203,-23.9584 693.304,-23.9375"/>
<polygon fill="midnightblue" stroke="midnightblue" points="693.94,-27.3813 702.956,-21.816 692.438,-20.5444 693.94,-27.3813"/>
</g>
</g>
</svg>
