<?xml version="1.0" encoding="UTF-8" standalone="no"?>
<!DOCTYPE svg PUBLIC "-//W3C//DTD SVG 1.1//EN"
 "http://www.w3.org/Graphics/SVG/1.1/DTD/svg11.dtd">
<!-- Generated by graphviz version 2.28.0 (20121015.0031)
 -->
<!-- Title: include/fae/priority_queue.h Pages: 1 -->
<svg width="825pt" height="166pt"
 viewBox="0.00 0.00 825.00 166.00" xmlns="http://www.w3.org/2000/svg" xmlns:xlink="http://www.w3.org/1999/xlink">
<g id="graph1" class="graph" transform="scale(1 1) rotate(0) translate(4 162)">
<title>include/fae/priority_queue.h</title>
<!-- Node1 -->
<g id="node1" class="node"><title>Node1</title>
<polygon fill="#bfbfbf" stroke="black" points="489.414,-120.391 489.414,-157.609 604.586,-157.609 604.586,-120.391 489.414,-120.391"/>
<text text-anchor="start" x="497.414" y="-142.609" font-family="Futura" font-size="11.00">include/fae/priority</text>
<text text-anchor="middle" x="547" y="-128" font-family="Futura" font-size="11.00">_queue.h</text>
</g>
<!-- Node2 -->
<g id="node3" class="node"><title>Node2</title>
<a xlink:href="fae_2fae_8h.html" target="_top" xlink:title="include/fae/fae.h">
<polygon fill="none" stroke="red" points="424.761,-60.6953 424.761,-83.3047 529.239,-83.3047 529.239,-60.6953 424.761,-60.6953"/>
<text text-anchor="middle" x="477" y="-68.3047" font-family="Futura" font-size="11.00">include/fae/fae.h</text>
</a>
</g>
<!-- Node1&#45;&gt;Node2 -->
<g id="edge2" class="edge"><title>Node1&#45;&gt;Node2</title>
<path fill="none" stroke="midnightblue" d="M514.219,-113.65C502.567,-103.292 490.611,-91.754 483.294,-83.6243"/>
<polygon fill="midnightblue" stroke="midnightblue" points="511.942,-116.308 521.781,-120.238 516.541,-111.031 511.942,-116.308"/>
</g>
<!-- Node9 -->
<g id="node21" class="node"><title>Node9</title>
<a xlink:href="priority__queue_8c.html" target="_top" xlink:title="src/fae/priority_queue.c">
<polygon fill="none" stroke="black" points="547.399,-60.6953 547.399,-83.3047 686.601,-83.3047 686.601,-60.6953 547.399,-60.6953"/>
<text text-anchor="middle" x="617" y="-68.3047" font-family="Futura" font-size="11.00">src/fae/priority_queue.c</text>
</a>
</g>
<!-- Node1&#45;&gt;Node9 -->
<g id="edge24" class="edge"><title>Node1&#45;&gt;Node9</title>
<path fill="none" stroke="midnightblue" d="M573.542,-113.354C584.614,-103.073 596.887,-91.6766 605.558,-83.6243"/>
<polygon fill="midnightblue" stroke="midnightblue" points="571.074,-110.869 566.128,-120.238 575.837,-115.999 571.074,-110.869"/>
</g>
<!-- Node10 -->
<g id="node23" class="node"><title>Node10</title>
<a xlink:href="scheduler_8c.html" target="_top" xlink:title="src/fae/scheduler.c">
<polygon fill="none" stroke="black" points="704.539,-60.6953 704.539,-83.3047 817.461,-83.3047 817.461,-60.6953 704.539,-60.6953"/>
<text text-anchor="middle" x="761" y="-68.3047" font-family="Futura" font-size="11.00">src/fae/scheduler.c</text>
</a>
</g>
<!-- Node1&#45;&gt;Node10 -->
<g id="edge26" class="edge"><title>Node1&#45;&gt;Node10</title>
<path fill="none" stroke="midnightblue" d="M614.468,-117.507C651.899,-106.138 696.84,-92.4878 726.997,-83.3281"/>
<polygon fill="midnightblue" stroke="midnightblue" points="613.181,-114.24 604.63,-120.496 615.215,-120.938 613.181,-114.24"/>
</g>
<!-- Node2&#45;&gt;Node1 -->
<g id="edge22" class="edge"><title>Node2&#45;&gt;Node1</title>
<path fill="none" stroke="midnightblue" d="M501.583,-90.2209C512.491,-99.4848 524.795,-110.893 533.963,-120.238"/>
<polygon fill="midnightblue" stroke="midnightblue" points="503.53,-87.2891 493.589,-83.6243 499.074,-92.6884 503.53,-87.2891"/>
</g>
<!-- Node3 -->
<g id="node5" class="node"><title>Node3</title>
<a xlink:href="atomic_8h.html" target="_top" xlink:title="include/fae/atomic.h">
<polygon fill="none" stroke="red" points="-0.668945,-0.695312 -0.668945,-23.3047 120.669,-23.3047 120.669,-0.695312 -0.668945,-0.695312"/>
<text text-anchor="middle" x="60" y="-8.30469" font-family="Futura" font-size="11.00">include/fae/atomic.h</text>
</a>
</g>
<!-- Node2&#45;&gt;Node3 -->
<g id="edge4" class="edge"><title>Node2&#45;&gt;Node3</title>
<path fill="none" stroke="midnightblue" d="M414.385,-63.8201C342.875,-54.9369 222.759,-39.128 120,-24 118.56,-23.788 117.103,-23.5717 115.635,-23.352"/>
<polygon fill="midnightblue" stroke="midnightblue" points="414.222,-67.3264 424.575,-65.0795 415.08,-60.3792 414.222,-67.3264"/>
</g>
<!-- Node4 -->
<g id="node8" class="node"><title>Node4</title>
<a xlink:href="buffer_8h.html" target="_top" xlink:title="include/fae/buffer.h">
<polygon fill="none" stroke="red" points="138.184,-0.695312 138.184,-23.3047 255.816,-23.3047 255.816,-0.695312 138.184,-0.695312"/>
<text text-anchor="middle" x="197" y="-8.30469" font-family="Futura" font-size="11.00">include/fae/buffer.h</text>
</a>
</g>
<!-- Node2&#45;&gt;Node4 -->
<g id="edge8" class="edge"><title>Node2&#45;&gt;Node4</title>
<path fill="none" stroke="midnightblue" d="M417.107,-58.5937C366.464,-48.1032 294.742,-33.2465 247.096,-23.3771"/>
<polygon fill="midnightblue" stroke="midnightblue" points="416.44,-62.0296 426.942,-60.6308 417.859,-55.1751 416.44,-62.0296"/>
</g>
<!-- Node5 -->
<g id="node10" class="node"><title>Node5</title>
<a xlink:href="device_8h.html" target="_top" xlink:title="include/fae/device.h">
<polygon fill="none" stroke="red" points="273.774,-0.695312 273.774,-23.3047 394.226,-23.3047 394.226,-0.695312 273.774,-0.695312"/>
<text text-anchor="middle" x="334" y="-8.30469" font-family="Futura" font-size="11.00">include/fae/device.h</text>
</a>
</g>
<!-- Node2&#45;&gt;Node5 -->
<g id="edge10" class="edge"><title>Node2&#45;&gt;Node5</title>
<path fill="none" stroke="midnightblue" d="M442.148,-56.8643C416.731,-46.5553 382.847,-32.8119 359.826,-23.475"/>
<polygon fill="midnightblue" stroke="midnightblue" points="440.852,-60.1155 451.434,-60.6308 443.483,-53.6288 440.852,-60.1155"/>
</g>
<!-- Node6 -->
<g id="node12" class="node"><title>Node6</title>
<a xlink:href="dynamic_8h.html" target="_top" xlink:title="include/fae/dynamic.h">
<polygon fill="none" stroke="red" points="411.876,-0.695312 411.876,-23.3047 542.124,-23.3047 542.124,-0.695312 411.876,-0.695312"/>
<text text-anchor="middle" x="477" y="-8.30469" font-family="Futura" font-size="11.00">include/fae/dynamic.h</text>
</a>
</g>
<!-- Node2&#45;&gt;Node6 -->
<g id="edge12" class="edge"><title>Node2&#45;&gt;Node6</title>
<path fill="none" stroke="midnightblue" d="M477,-50.4586C477,-41.4112 477,-31.1602 477,-23.6719"/>
<polygon fill="midnightblue" stroke="midnightblue" points="473.5,-50.6307 477,-60.6308 480.5,-50.6308 473.5,-50.6307"/>
</g>
<!-- Node7 -->
<g id="node14" class="node"><title>Node7</title>
<a xlink:href="error_8h.html" target="_top" xlink:title="include/fae/error.h">
<polygon fill="none" stroke="red" points="560.555,-0.695312 560.555,-23.3047 673.445,-23.3047 673.445,-0.695312 560.555,-0.695312"/>
<text text-anchor="middle" x="617" y="-8.30469" font-family="Futura" font-size="11.00">include/fae/error.h</text>
</a>
</g>
<!-- Node2&#45;&gt;Node7 -->
<g id="edge14" class="edge"><title>Node2&#45;&gt;Node7</title>
<path fill="none" stroke="midnightblue" d="M505.886,-56.5778C529.504,-46.2656 562.621,-32.6296 586.635,-23.3771"/>
<polygon fill="midnightblue" stroke="midnightblue" points="504.446,-53.3877 496.713,-60.6308 507.275,-59.7905 504.446,-53.3877"/>
</g>
<!-- Node8 -->
<g id="node17" class="node"><title>Node8</title>
<a xlink:href="event_8h.html" target="_top" xlink:title="include/fae/event.h">
<polygon fill="none" stroke="red" points="691.637,-0.695312 691.637,-23.3047 806.363,-23.3047 806.363,-0.695312 691.637,-0.695312"/>
<text text-anchor="middle" x="749" y="-8.30469" font-family="Futura" font-size="11.00">include/fae/event.h</text>
</a>
</g>
<!-- Node2&#45;&gt;Node8 -->
<g id="edge18" class="edge"><title>Node2&#45;&gt;Node8</title>
<path fill="none" stroke="midnightblue" d="M530.126,-58.4623C577.739,-47.9794 647.143,-33.2054 695.018,-23.3771"/>
<polygon fill="midnightblue" stroke="midnightblue" points="529.322,-55.0556 520.312,-60.6308 530.832,-61.8907 529.322,-55.0556"/>
</g>
<!-- Node3&#45;&gt;Node2 -->
<g id="edge6" class="edge"><title>Node3&#45;&gt;Node2</title>
<path fill="none" stroke="midnightblue" d="M130.899,-22.9414C133.299,-23.303 135.671,-23.6571 138,-24 239.48,-38.9397 357.887,-54.5433 424.582,-63.4851"/>
<polygon fill="midnightblue" stroke="midnightblue" points="131.333,-19.4673 120.92,-21.4215 130.279,-26.3875 131.333,-19.4673"/>
</g>
<!-- Node7&#45;&gt;Node2 -->
<g id="edge16" class="edge"><title>Node7&#45;&gt;Node2</title>
<path fill="none" stroke="midnightblue" d="M587.874,-27.5268C564.265,-37.8294 531.279,-51.4093 507.345,-60.6308"/>
<polygon fill="midnightblue" stroke="midnightblue" points="589.316,-30.7162 597.05,-23.475 586.489,-24.3127 589.316,-30.7162"/>
</g>
<!-- Node8&#45;&gt;Node2 -->
<g id="edge20" class="edge"><title>Node8&#45;&gt;Node2</title>
<path fill="none" stroke="midnightblue" d="M695.615,-25.5948C647.455,-36.1961 577.156,-51.1561 529.323,-60.9634"/>
<polygon fill="midnightblue" stroke="midnightblue" points="696.53,-28.9771 705.539,-23.4022 695.02,-22.1419 696.53,-28.9771"/>
</g>
</g>
</svg>
