<?xml version="1.0" encoding="UTF-8" standalone="no"?>
<!DOCTYPE svg PUBLIC "-//W3C//DTD SVG 1.1//EN"
 "http://www.w3.org/Graphics/SVG/1.1/DTD/svg11.dtd">
<!-- Generated by graphviz version 2.28.0 (20121015.0031)
 -->
<!-- Title: include/fae/processor.h Pages: 1 -->
<svg width="641pt" height="272pt"
 viewBox="0.00 0.00 641.00 272.00" xmlns="http://www.w3.org/2000/svg" xmlns:xlink="http://www.w3.org/1999/xlink">
<g id="graph1" class="graph" transform="scale(1 1) rotate(0) translate(4 268)">
<title>include/fae/processor.h</title>
<!-- Node1 -->
<g id="node1" class="node"><title>Node1</title>
<polygon fill="#bfbfbf" stroke="black" points="334.008,-240.695 334.008,-263.305 469.992,-263.305 469.992,-240.695 334.008,-240.695"/>
<text text-anchor="middle" x="402" y="-248.305" font-family="Futura" font-size="11.00">include/fae/processor.h</text>
</g>
<!-- Node2 -->
<g id="node3" class="node"><title>Node2</title>
<a xlink:href="fae_2fae_8h.html" target="_top" xlink:title="fae.h">
<polygon fill="none" stroke="red" points="339.23,-60.6953 339.23,-83.3047 380.77,-83.3047 380.77,-60.6953 339.23,-60.6953"/>
<text text-anchor="middle" x="360" y="-68.3047" font-family="Futura" font-size="11.00">fae.h</text>
</a>
</g>
<!-- Node1&#45;&gt;Node2 -->
<g id="edge2" class="edge"><title>Node1&#45;&gt;Node2</title>
<path fill="none" stroke="midnightblue" d="M379.468,-240.604C365.82,-231.883 349.374,-218.544 338,-204 319.634,-180.514 314.85,-173.017 308,-144 305.549,-133.619 304.138,-129.943 308,-120 312.567,-108.241 321.601,-97.6304 331.011,-89.4789"/>
<polygon fill="midnightblue" stroke="midnightblue" points="333.234,-92.183 338.913,-83.2389 328.896,-86.6892 333.234,-92.183"/>
</g>
<!-- Node6 -->
<g id="node12" class="node"><title>Node6</title>
<a xlink:href="graph_8h.html" target="_top" xlink:title="fae/graph.h">
<polygon fill="none" stroke="red" points="362.457,-0.695312 362.457,-23.3047 439.543,-23.3047 439.543,-0.695312 362.457,-0.695312"/>
<text text-anchor="middle" x="401" y="-8.30469" font-family="Futura" font-size="11.00">fae/graph.h</text>
</a>
</g>
<!-- Node1&#45;&gt;Node6 -->
<g id="edge30" class="edge"><title>Node1&#45;&gt;Node6</title>
<path fill="none" stroke="midnightblue" d="M417.929,-240.346C428.954,-231.944 442.729,-219.139 449,-204 473.876,-143.943 435.327,-67.7424 413.841,-32.5026"/>
<polygon fill="midnightblue" stroke="midnightblue" points="416.588,-30.2966 408.3,-23.6968 410.663,-34.0247 416.588,-30.2966"/>
</g>
<!-- Node7 -->
<g id="node15" class="node"><title>Node7</title>
<polygon fill="none" stroke="#bfbfbf" points="542.891,-0.695312 542.891,-23.3047 633.109,-23.3047 633.109,-0.695312 542.891,-0.695312"/>
<text text-anchor="middle" x="588" y="-8.30469" font-family="Futura" font-size="11.00">fae/message.h</text>
</g>
<!-- Node1&#45;&gt;Node7 -->
<g id="edge38" class="edge"><title>Node1&#45;&gt;Node7</title>
<path fill="none" stroke="midnightblue" d="M429.535,-240.662C447.612,-232.788 470.818,-220.487 487,-204 537.459,-152.589 569.051,-70.8263 581.686,-33.1811"/>
<polygon fill="midnightblue" stroke="midnightblue" points="585.105,-33.9866 584.874,-23.3943 578.449,-31.8187 585.105,-33.9866"/>
</g>
<!-- Node8 -->
<g id="node18" class="node"><title>Node8</title>
<a xlink:href="time_8h.html" target="_top" xlink:title="fae/time.h">
<polygon fill="none" stroke="red" points="457.114,-0.695312 457.114,-23.3047 524.886,-23.3047 524.886,-0.695312 457.114,-0.695312"/>
<text text-anchor="middle" x="491" y="-8.30469" font-family="Futura" font-size="11.00">fae/time.h</text>
</a>
</g>
<!-- Node1&#45;&gt;Node8 -->
<g id="edge24" class="edge"><title>Node1&#45;&gt;Node8</title>
<path fill="none" stroke="midnightblue" d="M424.774,-240.614C439.343,-232.72 457.275,-220.414 467,-204 499.421,-149.28 496.902,-70.3613 493.474,-33.4643"/>
<polygon fill="midnightblue" stroke="midnightblue" points="496.946,-33.0147 492.419,-23.4359 489.985,-33.7473 496.946,-33.0147"/>
</g>
<!-- Node9 -->
<g id="node22" class="node"><title>Node9</title>
<a xlink:href="type_8h.html" target="_top" xlink:title="fae/type.h">
<polygon fill="none" stroke="red" points="325.547,-120.695 325.547,-143.305 394.453,-143.305 394.453,-120.695 325.547,-120.695"/>
<text text-anchor="middle" x="360" y="-128.305" font-family="Futura" font-size="11.00">fae/type.h</text>
</a>
</g>
<!-- Node1&#45;&gt;Node9 -->
<g id="edge26" class="edge"><title>Node1&#45;&gt;Node9</title>
<path fill="none" stroke="midnightblue" d="M386.071,-240.346C375.046,-231.944 361.271,-219.139 355,-204 348.368,-187.989 350.503,-168.211 353.79,-153.599"/>
<polygon fill="midnightblue" stroke="midnightblue" points="357.266,-154.14 356.402,-143.581 350.493,-152.374 357.266,-154.14"/>
</g>
<!-- Node10 -->
<g id="node26" class="node"><title>Node10</title>
<a xlink:href="buffer_8h.html" target="_top" xlink:title="fae/buffer.h">
<polygon fill="none" stroke="red" points="363.747,-180.695 363.747,-203.305 440.253,-203.305 440.253,-180.695 363.747,-180.695"/>
<text text-anchor="middle" x="402" y="-188.305" font-family="Futura" font-size="11.00">fae/buffer.h</text>
</a>
</g>
<!-- Node1&#45;&gt;Node10 -->
<g id="edge32" class="edge"><title>Node1&#45;&gt;Node10</title>
<path fill="none" stroke="midnightblue" d="M402,-240.631C402,-233.218 402,-222.989 402,-213.91"/>
<polygon fill="midnightblue" stroke="midnightblue" points="405.5,-213.672 402,-203.672 398.5,-213.672 405.5,-213.672"/>
</g>
<!-- Node2&#45;&gt;Node1 -->
<g id="edge18" class="edge"><title>Node2&#45;&gt;Node1</title>
<path fill="none" stroke="midnightblue" d="M353.22,-83.5924C344.651,-92.1395 331.766,-105.155 326,-120 322.138,-129.943 323.549,-133.619 326,-144 332.85,-173.017 337.634,-180.514 356,-204 364.737,-215.173 376.467,-225.634 386.078,-233.837"/>
<polygon fill="midnightblue" stroke="midnightblue" points="383.959,-236.629 393.85,-240.426 388.486,-231.289 383.959,-236.629"/>
</g>
<!-- Node3 -->
<g id="node5" class="node"><title>Node3</title>
<a xlink:href="atomic_8h.html" target="_top" xlink:title="fae/atomic.h">
<polygon fill="none" stroke="red" points="-0.105713,-0.695312 -0.105713,-23.3047 80.1057,-23.3047 80.1057,-0.695312 -0.105713,-0.695312"/>
<text text-anchor="middle" x="40" y="-8.30469" font-family="Futura" font-size="11.00">fae/atomic.h</text>
</a>
</g>
<!-- Node2&#45;&gt;Node3 -->
<g id="edge4" class="edge"><title>Node2&#45;&gt;Node3</title>
<path fill="none" stroke="midnightblue" d="M339.138,-68.3912C293.825,-61.872 184.299,-44.0822 87.4893,-25.2571"/>
<polygon fill="midnightblue" stroke="midnightblue" points="88.0492,-21.8003 77.5631,-23.3143 86.7046,-28.67 88.0492,-21.8003"/>
</g>
<!-- Node4 -->
<g id="node8" class="node"><title>Node4</title>
<polygon fill="none" stroke="#bfbfbf" points="98.6057,-0.695312 98.6057,-23.3047 215.394,-23.3047 215.394,-0.695312 98.6057,-0.695312"/>
<text text-anchor="middle" x="157" y="-8.30469" font-family="Futura" font-size="11.00">fae/atomic/queue.h</text>
</g>
<!-- Node2&#45;&gt;Node4 -->
<g id="edge8" class="edge"><title>Node2&#45;&gt;Node4</title>
<path fill="none" stroke="midnightblue" d="M339.04,-65.0114C307.154,-55.9011 245.671,-38.3347 203.034,-26.1526"/>
<polygon fill="midnightblue" stroke="midnightblue" points="203.745,-22.7157 193.168,-23.3337 201.822,-29.4463 203.745,-22.7157"/>
</g>
<!-- Node5 -->
<g id="node10" class="node"><title>Node5</title>
<a xlink:href="stack_8h.html" target="_top" xlink:title="fae/atomic/stack.h">
<polygon fill="none" stroke="red" points="233.377,-0.695312 233.377,-23.3047 344.623,-23.3047 344.623,-0.695312 233.377,-0.695312"/>
<text text-anchor="middle" x="289" y="-8.30469" font-family="Futura" font-size="11.00">fae/atomic/stack.h</text>
</a>
</g>
<!-- Node2&#45;&gt;Node5 -->
<g id="edge10" class="edge"><title>Node2&#45;&gt;Node5</title>
<path fill="none" stroke="midnightblue" d="M347.307,-60.6308C336.936,-52.159 322.062,-40.0087 309.933,-30.1004"/>
<polygon fill="midnightblue" stroke="midnightblue" points="312.023,-27.2878 302.064,-23.6719 307.594,-32.7089 312.023,-27.2878"/>
</g>
<!-- Node2&#45;&gt;Node6 -->
<g id="edge12" class="edge"><title>Node2&#45;&gt;Node6</title>
<path fill="none" stroke="midnightblue" d="M362.014,-60.6308C366.25,-52.5663 373.964,-41.1685 381.547,-31.5444"/>
<polygon fill="midnightblue" stroke="midnightblue" points="384.389,-33.6007 388.086,-23.6719 379.004,-29.1281 384.389,-33.6007"/>
</g>
<!-- Node2&#45;&gt;Node7 -->
<g id="edge16" class="edge"><title>Node2&#45;&gt;Node7</title>
<path fill="none" stroke="midnightblue" d="M381.041,-65.6475C416.313,-56.6747 488.323,-38.3565 537.38,-25.8771"/>
<polygon fill="midnightblue" stroke="midnightblue" points="538.344,-29.2434 547.172,-23.386 536.618,-22.4594 538.344,-29.2434"/>
</g>
<!-- Node2&#45;&gt;Node8 -->
<g id="edge20" class="edge"><title>Node2&#45;&gt;Node8</title>
<path fill="none" stroke="midnightblue" d="M378.104,-60.6308C397.342,-51.3683 427.992,-37.7086 452.577,-27.3897"/>
<polygon fill="midnightblue" stroke="midnightblue" points="454.112,-30.542 462.006,-23.475 451.428,-24.077 454.112,-30.542"/>
</g>
<!-- Node3&#45;&gt;Node2 -->
<g id="edge6" class="edge"><title>Node3&#45;&gt;Node2</title>
<path fill="none" stroke="midnightblue" d="M80.2527,-20.1365C86.5768,-21.4696 92.9828,-22.815 99,-24 182.07,-40.3595 280.108,-56.6844 329.149,-65.1188"/>
<polygon fill="midnightblue" stroke="midnightblue" points="328.677,-68.589 339.127,-66.8448 329.87,-61.6915 328.677,-68.589"/>
</g>
<!-- Node6&#45;&gt;Node2 -->
<g id="edge14" class="edge"><title>Node6&#45;&gt;Node2</title>
<path fill="none" stroke="midnightblue" d="M398.826,-23.6719C394.504,-31.8185 386.749,-43.235 379.17,-52.8141"/>
<polygon fill="midnightblue" stroke="midnightblue" points="376.367,-50.7107 372.646,-60.6308 381.741,-55.1961 376.367,-50.7107"/>
</g>
<!-- Node8&#45;&gt;Node2 -->
<g id="edge22" class="edge"><title>Node8&#45;&gt;Node2</title>
<path fill="none" stroke="midnightblue" d="M472.697,-23.4651C451.321,-33.7483 416.045,-49.3837 390.55,-59.8853"/>
<polygon fill="midnightblue" stroke="midnightblue" points="388.921,-56.7691 380.97,-63.7715 391.552,-63.2558 388.921,-56.7691"/>
</g>
<!-- Node9&#45;&gt;Node2 -->
<g id="edge28" class="edge"><title>Node9&#45;&gt;Node2</title>
<path fill="none" stroke="midnightblue" d="M360,-120.631C360,-113.218 360,-102.989 360,-93.9096"/>
<polygon fill="midnightblue" stroke="midnightblue" points="363.5,-93.6718 360,-83.6719 356.5,-93.6719 363.5,-93.6718"/>
</g>
<!-- Node10&#45;&gt;Node2 -->
<g id="edge34" class="edge"><title>Node10&#45;&gt;Node2</title>
<path fill="none" stroke="midnightblue" d="M404.533,-180.458C407.437,-166.199 410.856,-140.224 403,-120 398.585,-108.634 389.998,-98.341 381.65,-90.3045"/>
<polygon fill="midnightblue" stroke="midnightblue" points="383.957,-87.6715 374.179,-83.5924 379.279,-92.8789 383.957,-87.6715"/>
</g>
<!-- Node10&#45;&gt;Node9 -->
<g id="edge36" class="edge"><title>Node10&#45;&gt;Node9</title>
<path fill="none" stroke="midnightblue" d="M394.491,-180.631C388.71,-172.648 380.564,-161.398 373.64,-151.837"/>
<polygon fill="midnightblue" stroke="midnightblue" points="376.428,-149.719 367.728,-143.672 370.758,-153.824 376.428,-149.719"/>
</g>
</g>
</svg>
