<?xml version="1.0" encoding="UTF-8" standalone="no"?>
<!DOCTYPE svg PUBLIC "-//W3C//DTD SVG 1.1//EN"
 "http://www.w3.org/Graphics/SVG/1.1/DTD/svg11.dtd">
<!-- Generated by graphviz version 2.28.0 (20121015.0031)
 -->
<!-- Title: include/fae/processor.h Pages: 1 -->
<svg width="729pt" height="240pt"
 viewBox="0.00 0.00 729.23 240.00" xmlns="http://www.w3.org/2000/svg" xmlns:xlink="http://www.w3.org/1999/xlink">
<g id="graph1" class="graph" transform="scale(1 1) rotate(0) translate(4 236)">
<title>include/fae/processor.h</title>
<!-- Node1 -->
<g id="node1" class="node"><title>Node1</title>
<polygon fill="#bfbfbf" stroke="black" points="245.234,-208.695 245.234,-231.305 381.219,-231.305 381.219,-208.695 245.234,-208.695"/>
<text text-anchor="middle" x="313.227" y="-216.305" font-family="Futura" font-size="11.00">include/fae/processor.h</text>
</g>
<!-- Node2 -->
<g id="node3" class="node"><title>Node2</title>
<a xlink:href="audio_8h.html" target="_top" xlink:title="include/fae/device\l/audio.h">
<polygon fill="none" stroke="black" points="164.714,-134.391 164.714,-171.609 275.739,-171.609 275.739,-134.391 164.714,-134.391"/>
<text text-anchor="start" x="172.714" y="-156.609" font-family="Futura" font-size="11.00">include/fae/device</text>
<text text-anchor="middle" x="220.227" y="-142" font-family="Futura" font-size="11.00">/audio.h</text>
</a>
</g>
<!-- Node1&#45;&gt;Node2 -->
<g id="edge2" class="edge"><title>Node1&#45;&gt;Node2</title>
<path fill="none" stroke="midnightblue" d="M289.998,-202.765C276.511,-193.339 259.505,-181.452 245.658,-171.775"/>
<polygon fill="midnightblue" stroke="midnightblue" points="288.083,-205.697 298.285,-208.557 292.093,-199.959 288.083,-205.697"/>
</g>
<!-- Node3 -->
<g id="node5" class="node"><title>Node3</title>
<a xlink:href="fae_2fae_8h.html" target="_top" xlink:title="include/fae/fae.h">
<polygon fill="none" stroke="red" points="303.988,-67.6953 303.988,-90.3047 408.466,-90.3047 408.466,-67.6953 303.988,-67.6953"/>
<text text-anchor="middle" x="356.227" y="-75.3047" font-family="Futura" font-size="11.00">include/fae/fae.h</text>
</a>
</g>
<!-- Node1&#45;&gt;Node3 -->
<g id="edge22" class="edge"><title>Node1&#45;&gt;Node3</title>
<path fill="none" stroke="midnightblue" d="M314.646,-198.354C321.23,-168.282 338.561,-113.523 349.165,-90.5688"/>
<polygon fill="midnightblue" stroke="midnightblue" points="311.136,-198.071 312.685,-208.552 318.01,-199.393 311.136,-198.071"/>
</g>
<!-- Node4 -->
<g id="node8" class="node"><title>Node4</title>
<a xlink:href="signal_8h.html" target="_top" xlink:title="include/fae/signal.h">
<polygon fill="none" stroke="red" points="113.467,-0.695312 113.467,-23.3047 230.986,-23.3047 230.986,-0.695312 113.467,-0.695312"/>
<text text-anchor="middle" x="172.227" y="-8.30469" font-family="Futura" font-size="11.00">include/fae/signal.h</text>
</a>
</g>
<!-- Node1&#45;&gt;Node4 -->
<g id="edge24" class="edge"><title>Node1&#45;&gt;Node4</title>
<path fill="none" stroke="midnightblue" d="M234.986,-213.287C161.164,-203.154 54.9147,-175.161 7.22661,-98 -1.65241,-83.6335 -2.9492,-73.4791 7.22661,-60 20.2375,-42.7654 71.4442,-29.976 113.404,-22.1254"/>
<polygon fill="midnightblue" stroke="midnightblue" points="234.812,-216.793 245.177,-214.601 235.707,-209.851 234.812,-216.793"/>
</g>
<!-- Node7 -->
<g id="node14" class="node"><title>Node7</title>
<a xlink:href="device_2buffer_8h.html" target="_top" xlink:title="include/fae/device\l/buffer.h">
<polygon fill="none" stroke="black" points="350.714,-134.391 350.714,-171.609 461.739,-171.609 461.739,-134.391 350.714,-134.391"/>
<text text-anchor="start" x="358.714" y="-156.609" font-family="Futura" font-size="11.00">include/fae/device</text>
<text text-anchor="middle" x="406.227" y="-142" font-family="Futura" font-size="11.00">/buffer.h</text>
</a>
</g>
<!-- Node1&#45;&gt;Node7 -->
<g id="edge14" class="edge"><title>Node1&#45;&gt;Node7</title>
<path fill="none" stroke="midnightblue" d="M336.455,-202.765C349.942,-193.339 366.949,-181.452 380.795,-171.775"/>
<polygon fill="midnightblue" stroke="midnightblue" points="334.36,-199.959 328.169,-208.557 338.37,-205.697 334.36,-199.959"/>
</g>
<!-- Node8 -->
<g id="node16" class="node"><title>Node8</title>
<a xlink:href="file_8h.html" target="_top" xlink:title="include/fae/device\l/file.h">
<polygon fill="none" stroke="red" points="479.714,-134.391 479.714,-171.609 590.739,-171.609 590.739,-134.391 479.714,-134.391"/>
<text text-anchor="start" x="487.714" y="-156.609" font-family="Futura" font-size="11.00">include/fae/device</text>
<text text-anchor="middle" x="535.227" y="-142" font-family="Futura" font-size="11.00">/file.h</text>
</a>
</g>
<!-- Node1&#45;&gt;Node8 -->
<g id="edge16" class="edge"><title>Node1&#45;&gt;Node8</title>
<path fill="none" stroke="midnightblue" d="M358.851,-205.641C393.885,-195.384 442.419,-181.173 479.708,-170.256"/>
<polygon fill="midnightblue" stroke="midnightblue" points="357.508,-202.388 348.895,-208.557 359.475,-209.106 357.508,-202.388"/>
</g>
<!-- Node10 -->
<g id="node23" class="node"><title>Node10</title>
<a xlink:href="processor_8c.html" target="_top" xlink:title="src/fae/processor.c">
<polygon fill="none" stroke="black" points="608.481,-141.695 608.481,-164.305 721.972,-164.305 721.972,-141.695 608.481,-141.695"/>
<text text-anchor="middle" x="665.227" y="-149.305" font-family="Futura" font-size="11.00">src/fae/processor.c</text>
</a>
</g>
<!-- Node1&#45;&gt;Node10 -->
<g id="edge26" class="edge"><title>Node1&#45;&gt;Node10</title>
<path fill="none" stroke="midnightblue" d="M391.644,-208.345C449.347,-199.964 529.54,-187.186 599.227,-172 609.206,-169.825 619.929,-167.08 629.77,-164.394"/>
<polygon fill="midnightblue" stroke="midnightblue" points="390.899,-204.916 381.5,-209.807 391.897,-211.844 390.899,-204.916"/>
</g>
<!-- Node2&#45;&gt;Node3 -->
<g id="edge4" class="edge"><title>Node2&#45;&gt;Node3</title>
<path fill="none" stroke="midnightblue" d="M262.367,-129.69C287.193,-116.547 317.421,-100.544 336.743,-90.3146"/>
<polygon fill="midnightblue" stroke="midnightblue" points="260.696,-126.615 253.496,-134.387 263.971,-132.801 260.696,-126.615"/>
</g>
<!-- Node5 -->
<g id="node10" class="node"><title>Node5</title>
<a xlink:href="audio_8c.html" target="_top" xlink:title="src/fae/device/audio.c">
<polygon fill="none" stroke="black" points="154.13,-67.6953 154.13,-90.3047 286.323,-90.3047 286.323,-67.6953 154.13,-67.6953"/>
<text text-anchor="middle" x="220.227" y="-75.3047" font-family="Futura" font-size="11.00">src/fae/device/audio.c</text>
</a>
</g>
<!-- Node2&#45;&gt;Node5 -->
<g id="edge10" class="edge"><title>Node2&#45;&gt;Node5</title>
<path fill="none" stroke="midnightblue" d="M220.227,-123.967C220.227,-112.298 220.227,-99.4536 220.227,-90.6771"/>
<polygon fill="midnightblue" stroke="midnightblue" points="216.727,-124.202 220.227,-134.202 223.727,-124.202 216.727,-124.202"/>
</g>
<!-- Node6 -->
<g id="node12" class="node"><title>Node6</title>
<a xlink:href="device_8c.html" target="_top" xlink:title="src/platform/macosx\l/fae/device.c">
<polygon fill="none" stroke="black" points="15.8235,-60.3906 15.8235,-97.6094 136.63,-97.6094 136.63,-60.3906 15.8235,-60.3906"/>
<text text-anchor="start" x="23.8235" y="-82.6094" font-family="Futura" font-size="11.00">src/platform/macosx</text>
<text text-anchor="middle" x="76.2266" y="-68" font-family="Futura" font-size="11.00">/fae/device.c</text>
</a>
</g>
<!-- Node2&#45;&gt;Node6 -->
<g id="edge12" class="edge"><title>Node2&#45;&gt;Node6</title>
<path fill="none" stroke="midnightblue" d="M175.798,-129.786C155.16,-119.467 130.962,-107.368 111.588,-97.6809"/>
<polygon fill="midnightblue" stroke="midnightblue" points="174.491,-133.045 185,-134.387 177.621,-126.784 174.491,-133.045"/>
</g>
<!-- Node3&#45;&gt;Node1 -->
<g id="edge6" class="edge"><title>Node3&#45;&gt;Node1</title>
<path fill="none" stroke="midnightblue" d="M354.859,-100.409C348.304,-130.481 330.858,-185.61 320.232,-208.552"/>
<polygon fill="midnightblue" stroke="midnightblue" points="358.3,-101.05 356.749,-90.5688 351.426,-99.7292 358.3,-101.05"/>
</g>
<!-- Node3&#45;&gt;Node4 -->
<g id="edge8" class="edge"><title>Node3&#45;&gt;Node4</title>
<path fill="none" stroke="midnightblue" d="M316.879,-64.0999C282.246,-51.8657 232.608,-34.3305 201.412,-23.3101"/>
<polygon fill="midnightblue" stroke="midnightblue" points="316.069,-67.5258 326.664,-67.5566 318.401,-60.9255 316.069,-67.5258"/>
</g>
<!-- Node8&#45;&gt;Node3 -->
<g id="edge18" class="edge"><title>Node8&#45;&gt;Node3</title>
<path fill="none" stroke="midnightblue" d="M481.901,-130.551C448.839,-117.252 407.859,-100.768 381.87,-90.3146"/>
<polygon fill="midnightblue" stroke="midnightblue" points="480.855,-133.902 491.438,-134.387 483.467,-127.408 480.855,-133.902"/>
</g>
<!-- Node9 -->
<g id="node19" class="node"><title>Node9</title>
<a xlink:href="device_2buffer_8c.html" target="_top" xlink:title="src/fae/device/buffer.c">
<polygon fill="none" stroke="black" points="468.765,-67.6953 468.765,-90.3047 601.688,-90.3047 601.688,-67.6953 468.765,-67.6953"/>
<text text-anchor="middle" x="535.227" y="-75.3047" font-family="Futura" font-size="11.00">src/fae/device/buffer.c</text>
</a>
</g>
<!-- Node8&#45;&gt;Node9 -->
<g id="edge20" class="edge"><title>Node8&#45;&gt;Node9</title>
<path fill="none" stroke="midnightblue" d="M535.227,-123.967C535.227,-112.298 535.227,-99.4536 535.227,-90.6771"/>
<polygon fill="midnightblue" stroke="midnightblue" points="531.727,-124.202 535.227,-134.202 538.727,-124.202 531.727,-124.202"/>
</g>
</g>
</svg>
