<?xml version="1.0" encoding="UTF-8" standalone="no"?>
<!DOCTYPE svg PUBLIC "-//W3C//DTD SVG 1.1//EN"
 "http://www.w3.org/Graphics/SVG/1.1/DTD/svg11.dtd">
<!-- Generated by graphviz version 2.28.0 (20121015.0031)
 -->
<!-- Title: src/doremir/processor.c Pages: 1 -->
<svg width="1385pt" height="92pt"
 viewBox="0.00 0.00 1385.00 92.00" xmlns="http://www.w3.org/2000/svg" xmlns:xlink="http://www.w3.org/1999/xlink">
<g id="graph1" class="graph" transform="scale(1 1) rotate(0) translate(4 88)">
<title>src/doremir/processor.c</title>
<!-- Node1 -->
<g id="node1" class="node"><title>Node1</title>
<polygon fill="#bfbfbf" stroke="black" points="642.868,-60.6953 642.868,-83.3047 779.132,-83.3047 779.132,-60.6953 642.868,-60.6953"/>
<text text-anchor="middle" x="711" y="-68.3047" font-family="Futura" font-size="11.00">src/doremir/processor.c</text>
</g>
<!-- Node2 -->
<g id="node3" class="node"><title>Node2</title>
<a xlink:href="processor_8h.html" target="_top" xlink:title="doremir/processor.h">
<polygon fill="none" stroke="red" points="-0.815918,-0.695312 -0.815918,-23.3047 116.816,-23.3047 116.816,-0.695312 -0.815918,-0.695312"/>
<text text-anchor="middle" x="58" y="-8.30469" font-family="Futura" font-size="11.00">doremir/processor.h</text>
</a>
</g>
<!-- Node1&#45;&gt;Node2 -->
<g id="edge2" class="edge"><title>Node1&#45;&gt;Node2</title>
<path fill="none" stroke="midnightblue" d="M642.82,-67.3017C535.374,-61.0806 319.901,-47.016 126.973,-24.0363"/>
<polygon fill="midnightblue" stroke="midnightblue" points="127.277,-20.5477 116.931,-22.8295 126.442,-27.4977 127.277,-20.5477"/>
</g>
<!-- Node3 -->
<g id="node5" class="node"><title>Node3</title>
<polygon fill="none" stroke="#bfbfbf" points="134.768,-0.695312 134.768,-23.3047 287.232,-23.3047 287.232,-0.695312 134.768,-0.695312"/>
<text text-anchor="middle" x="211" y="-8.30469" font-family="Futura" font-size="11.00">doremir/processor/unary.h</text>
</g>
<!-- Node1&#45;&gt;Node3 -->
<g id="edge4" class="edge"><title>Node1&#45;&gt;Node3</title>
<path fill="none" stroke="midnightblue" d="M642.666,-63.5983C562.472,-54.8359 425.2,-39.6008 297.415,-24.1589"/>
<polygon fill="midnightblue" stroke="midnightblue" points="297.797,-20.6796 287.448,-22.9517 296.955,-27.6288 297.797,-20.6796"/>
</g>
<!-- Node4 -->
<g id="node7" class="node"><title>Node4</title>
<polygon fill="none" stroke="#bfbfbf" points="305.098,-0.695312 305.098,-23.3047 460.902,-23.3047 460.902,-0.695312 305.098,-0.695312"/>
<text text-anchor="middle" x="383" y="-8.30469" font-family="Futura" font-size="11.00">doremir/processor/binary.h</text>
</g>
<!-- Node1&#45;&gt;Node4 -->
<g id="edge6" class="edge"><title>Node1&#45;&gt;Node4</title>
<path fill="none" stroke="midnightblue" d="M652.36,-60.6308C596.01,-50.6664 510.88,-35.613 451.453,-25.1045"/>
<polygon fill="midnightblue" stroke="midnightblue" points="451.865,-21.6231 441.408,-23.3282 450.646,-28.5161 451.865,-21.6231"/>
</g>
<!-- Node5 -->
<g id="node9" class="node"><title>Node5</title>
<polygon fill="none" stroke="#bfbfbf" points="479.269,-0.695312 479.269,-23.3047 622.731,-23.3047 622.731,-0.695312 479.269,-0.695312"/>
<text text-anchor="middle" x="551" y="-8.30469" font-family="Futura" font-size="11.00">doremir/processor/split.h</text>
</g>
<!-- Node1&#45;&gt;Node5 -->
<g id="edge8" class="edge"><title>Node1&#45;&gt;Node5</title>
<path fill="none" stroke="midnightblue" d="M682.395,-60.6308C656.424,-51.2162 617.921,-37.2588 589.301,-26.884"/>
<polygon fill="midnightblue" stroke="midnightblue" points="590.221,-23.4947 579.626,-23.3771 587.835,-30.0756 590.221,-23.4947"/>
</g>
<!-- Node6 -->
<g id="node11" class="node"><title>Node6</title>
<polygon fill="none" stroke="#bfbfbf" points="640.47,-0.695312 640.47,-23.3047 781.53,-23.3047 781.53,-0.695312 640.47,-0.695312"/>
<text text-anchor="middle" x="711" y="-8.30469" font-family="Futura" font-size="11.00">doremir/processor/seq.h</text>
</g>
<!-- Node1&#45;&gt;Node6 -->
<g id="edge10" class="edge"><title>Node1&#45;&gt;Node6</title>
<path fill="none" stroke="midnightblue" d="M711,-60.6308C711,-53.218 711,-42.9888 711,-33.9096"/>
<polygon fill="midnightblue" stroke="midnightblue" points="714.5,-33.6718 711,-23.6719 707.5,-33.6719 714.5,-33.6718"/>
</g>
<!-- Node7 -->
<g id="node13" class="node"><title>Node7</title>
<polygon fill="none" stroke="#bfbfbf" points="799.682,-0.695312 799.682,-23.3047 940.318,-23.3047 940.318,-0.695312 799.682,-0.695312"/>
<text text-anchor="middle" x="870" y="-8.30469" font-family="Futura" font-size="11.00">doremir/processor/par.h</text>
</g>
<!-- Node1&#45;&gt;Node7 -->
<g id="edge12" class="edge"><title>Node1&#45;&gt;Node7</title>
<path fill="none" stroke="midnightblue" d="M739.426,-60.6308C765.235,-51.2162 803.497,-37.2588 831.939,-26.884"/>
<polygon fill="midnightblue" stroke="midnightblue" points="833.357,-30.0921 841.552,-23.3771 830.959,-23.516 833.357,-30.0921"/>
</g>
<!-- Node8 -->
<g id="node15" class="node"><title>Node8</title>
<polygon fill="none" stroke="#bfbfbf" points="958.763,-0.695312 958.763,-23.3047 1105.24,-23.3047 1105.24,-0.695312 958.763,-0.695312"/>
<text text-anchor="middle" x="1032" y="-8.30469" font-family="Futura" font-size="11.00">doremir/processor/loop.h</text>
</g>
<!-- Node1&#45;&gt;Node8 -->
<g id="edge14" class="edge"><title>Node1&#45;&gt;Node8</title>
<path fill="none" stroke="midnightblue" d="M768.388,-60.6308C823.422,-50.687 906.505,-35.6752 964.647,-25.1697"/>
<polygon fill="midnightblue" stroke="midnightblue" points="965.62,-28.5506 974.839,-23.3282 964.376,-21.6621 965.62,-28.5506"/>
</g>
<!-- Node9 -->
<g id="node17" class="node"><title>Node9</title>
<polygon fill="none" stroke="#bfbfbf" points="1123.32,-0.695312 1123.32,-23.3047 1274.68,-23.3047 1274.68,-0.695312 1123.32,-0.695312"/>
<text text-anchor="middle" x="1199" y="-8.30469" font-family="Futura" font-size="11.00">doremir/processor/delay.h</text>
</g>
<!-- Node1&#45;&gt;Node9 -->
<g id="edge16" class="edge"><title>Node1&#45;&gt;Node9</title>
<path fill="none" stroke="midnightblue" d="M779.485,-63.2789C857.579,-54.4145 989.369,-39.273 1112.98,-24.1142"/>
<polygon fill="midnightblue" stroke="midnightblue" points="1113.51,-27.5761 1123.01,-22.8827 1112.65,-20.6283 1113.51,-27.5761"/>
</g>
<!-- Node10 -->
<g id="node19" class="node"><title>Node10</title>
<a xlink:href="util_8h.html" target="_top" xlink:title="doremir/util.h">
<polygon fill="none" stroke="red" points="1292.75,-0.695312 1292.75,-23.3047 1377.25,-23.3047 1377.25,-0.695312 1292.75,-0.695312"/>
<text text-anchor="middle" x="1335" y="-8.30469" font-family="Futura" font-size="11.00">doremir/util.h</text>
</a>
</g>
<!-- Node1&#45;&gt;Node10 -->
<g id="edge18" class="edge"><title>Node1&#45;&gt;Node10</title>
<path fill="none" stroke="midnightblue" d="M779.555,-68.1721C885.331,-63.1899 1094.8,-50.8669 1282.46,-23.9064"/>
<polygon fill="midnightblue" stroke="midnightblue" points="1283.12,-27.3475 1292.51,-22.4452 1282.11,-20.4203 1283.12,-27.3475"/>
</g>
</g>
</svg>
