<?xml version="1.0" encoding="UTF-8" standalone="no"?>
<!DOCTYPE svg PUBLIC "-//W3C//DTD SVG 1.1//EN"
 "http://www.w3.org/Graphics/SVG/1.1/DTD/svg11.dtd">
<!-- Generated by graphviz version 2.28.0 (20121015.0031)
 -->
<!-- Title: src/fae/atomic/queue.c Pages: 1 -->
<svg width="566pt" height="212pt"
 viewBox="0.00 0.00 566.00 212.00" xmlns="http://www.w3.org/2000/svg" xmlns:xlink="http://www.w3.org/1999/xlink">
<g id="graph1" class="graph" transform="scale(1 1) rotate(0) translate(4 208)">
<title>src/fae/atomic/queue.c</title>
<!-- Node1 -->
<g id="node1" class="node"><title>Node1</title>
<polygon fill="#bfbfbf" stroke="black" points="67.2896,-180.695 67.2896,-203.305 202.71,-203.305 202.71,-180.695 67.2896,-180.695"/>
<text text-anchor="middle" x="135" y="-188.305" font-family="Futura" font-size="11.00">src/fae/atomic/queue.c</text>
</g>
<!-- Node2 -->
<g id="node3" class="node"><title>Node2</title>
<polygon fill="none" stroke="#bfbfbf" points="-0.394287,-0.695312 -0.394287,-23.3047 116.394,-23.3047 116.394,-0.695312 -0.394287,-0.695312"/>
<text text-anchor="middle" x="58" y="-8.30469" font-family="Futura" font-size="11.00">fae/atomic/queue.h</text>
</g>
<!-- Node1&#45;&gt;Node2 -->
<g id="edge2" class="edge"><title>Node1&#45;&gt;Node2</title>
<path fill="none" stroke="midnightblue" d="M92.8115,-180.603C73.8165,-173.589 53.1837,-162.183 42,-144 20.7121,-109.39 36.597,-59.8648 48.3679,-32.699"/>
<polygon fill="midnightblue" stroke="midnightblue" points="51.617,-34.0099 52.5917,-23.46 45.2507,-31.0994 51.617,-34.0099"/>
</g>
<!-- Node3 -->
<g id="node5" class="node"><title>Node3</title>
<a xlink:href="atomic_8h.html" target="_top" xlink:title="fae/atomic.h">
<polygon fill="none" stroke="black" points="142.894,-120.695 142.894,-143.305 223.106,-143.305 223.106,-120.695 142.894,-120.695"/>
<text text-anchor="middle" x="183" y="-128.305" font-family="Futura" font-size="11.00">fae/atomic.h</text>
</a>
</g>
<!-- Node1&#45;&gt;Node3 -->
<g id="edge4" class="edge"><title>Node1&#45;&gt;Node3</title>
<path fill="none" stroke="midnightblue" d="M143.581,-180.631C150.255,-172.566 159.688,-161.168 167.653,-151.544"/>
<polygon fill="midnightblue" stroke="midnightblue" points="170.489,-153.607 174.168,-143.672 165.096,-149.144 170.489,-153.607"/>
</g>
<!-- Node6 -->
<g id="node13" class="node"><title>Node6</title>
<a xlink:href="string_8h.html" target="_top" xlink:title="fae/string.h">
<polygon fill="none" stroke="black" points="50.8269,-120.695 50.8269,-143.305 125.173,-143.305 125.173,-120.695 50.8269,-120.695"/>
<text text-anchor="middle" x="88" y="-128.305" font-family="Futura" font-size="11.00">fae/string.h</text>
</a>
</g>
<!-- Node1&#45;&gt;Node6 -->
<g id="edge14" class="edge"><title>Node1&#45;&gt;Node6</title>
<path fill="none" stroke="midnightblue" d="M126.597,-180.631C120.062,-172.566 110.826,-161.168 103.027,-151.544"/>
<polygon fill="midnightblue" stroke="midnightblue" points="105.663,-149.238 96.6479,-143.672 100.224,-153.645 105.663,-149.238"/>
</g>
<!-- Node7 -->
<g id="node16" class="node"><title>Node7</title>
<a xlink:href="util_8h.html" target="_top" xlink:title="fae/util.h">
<polygon fill="none" stroke="red" points="287.141,-120.695 287.141,-143.305 348.859,-143.305 348.859,-120.695 287.141,-120.695"/>
<text text-anchor="middle" x="318" y="-128.305" font-family="Futura" font-size="11.00">fae/util.h</text>
</a>
</g>
<!-- Node1&#45;&gt;Node7 -->
<g id="edge18" class="edge"><title>Node1&#45;&gt;Node7</title>
<path fill="none" stroke="midnightblue" d="M167.717,-180.631C198.369,-170.916 244.285,-156.363 277.293,-145.902"/>
<polygon fill="midnightblue" stroke="midnightblue" points="278.616,-149.154 287.091,-142.796 276.501,-142.481 278.616,-149.154"/>
</g>
<!-- Node4 -->
<g id="node7" class="node"><title>Node4</title>
<a xlink:href="fae_2fae_8h.html" target="_top" xlink:title="fae.h">
<polygon fill="none" stroke="red" points="73.2302,-60.6953 73.2302,-83.3047 114.77,-83.3047 114.77,-60.6953 73.2302,-60.6953"/>
<text text-anchor="middle" x="94" y="-68.3047" font-family="Futura" font-size="11.00">fae.h</text>
</a>
</g>
<!-- Node3&#45;&gt;Node4 -->
<g id="edge6" class="edge"><title>Node3&#45;&gt;Node4</title>
<path fill="none" stroke="midnightblue" d="M161.773,-120.631C146.862,-111.942 127.316,-99.3841 112.937,-89.344"/>
<polygon fill="midnightblue" stroke="midnightblue" points="114.907,-86.4502 104.739,-83.475 110.833,-92.142 114.907,-86.4502"/>
</g>
<!-- Node5 -->
<g id="node11" class="node"><title>Node5</title>
<polygon fill="none" stroke="#bfbfbf" points="145.347,-60.6953 145.347,-83.3047 206.653,-83.3047 206.653,-60.6953 145.347,-60.6953"/>
<text text-anchor="middle" x="176" y="-68.3047" font-family="Futura" font-size="11.00">fae/std.h</text>
</g>
<!-- Node3&#45;&gt;Node5 -->
<g id="edge12" class="edge"><title>Node3&#45;&gt;Node5</title>
<path fill="none" stroke="midnightblue" d="M181.749,-120.631C180.844,-113.137 179.592,-102.764 178.487,-93.6107"/>
<polygon fill="midnightblue" stroke="midnightblue" points="181.961,-93.1804 177.288,-83.6719 175.011,-94.0192 181.961,-93.1804"/>
</g>
<!-- Node4&#45;&gt;Node2 -->
<g id="edge10" class="edge"><title>Node4&#45;&gt;Node2</title>
<path fill="none" stroke="midnightblue" d="M87.5639,-60.6308C82.7101,-52.8107 75.9107,-41.8562 70.0563,-32.4241"/>
<polygon fill="midnightblue" stroke="midnightblue" points="72.8713,-30.3225 64.6239,-23.6719 66.9238,-34.0141 72.8713,-30.3225"/>
</g>
<!-- Node4&#45;&gt;Node3 -->
<g id="edge8" class="edge"><title>Node4&#45;&gt;Node3</title>
<path fill="none" stroke="midnightblue" d="M115.073,-83.2795C130.044,-91.9951 149.742,-104.651 164.182,-114.739"/>
<polygon fill="midnightblue" stroke="midnightblue" points="162.237,-117.651 172.404,-120.631 166.314,-111.961 162.237,-117.651"/>
</g>
<!-- Node6&#45;&gt;Node4 -->
<g id="edge16" class="edge"><title>Node6&#45;&gt;Node4</title>
<path fill="none" stroke="midnightblue" d="M89.0727,-120.631C89.8395,-113.218 90.8977,-102.989 91.8369,-93.9096"/>
<polygon fill="midnightblue" stroke="midnightblue" points="95.3484,-93.979 92.896,-83.6719 88.3855,-93.2586 95.3484,-93.979"/>
</g>
<!-- Node8 -->
<g id="node18" class="node"><title>Node8</title>
<a xlink:href="arch_8h.html" target="_top" xlink:title="fae/util/arch.h">
<polygon fill="none" stroke="black" points="224.205,-60.6953 224.205,-83.3047 313.795,-83.3047 313.795,-60.6953 224.205,-60.6953"/>
<text text-anchor="middle" x="269" y="-68.3047" font-family="Futura" font-size="11.00">fae/util/arch.h</text>
</a>
</g>
<!-- Node7&#45;&gt;Node8 -->
<g id="edge20" class="edge"><title>Node7&#45;&gt;Node8</title>
<path fill="none" stroke="midnightblue" d="M309.24,-120.631C302.427,-112.566 292.797,-101.168 284.667,-91.5444"/>
<polygon fill="midnightblue" stroke="midnightblue" points="287.143,-89.052 278.016,-83.6719 281.796,-93.5695 287.143,-89.052"/>
</g>
<!-- Node9 -->
<g id="node20" class="node"><title>Node9</title>
<a xlink:href="alignof_8h.html" target="_top" xlink:title="fae/util/alignof.h">
<polygon fill="none" stroke="black" points="332.007,-60.6953 332.007,-83.3047 433.993,-83.3047 433.993,-60.6953 332.007,-60.6953"/>
<text text-anchor="middle" x="383" y="-68.3047" font-family="Futura" font-size="11.00">fae/util/alignof.h</text>
</a>
</g>
<!-- Node7&#45;&gt;Node9 -->
<g id="edge22" class="edge"><title>Node7&#45;&gt;Node9</title>
<path fill="none" stroke="midnightblue" d="M329.621,-120.631C339.024,-112.24 352.47,-100.242 363.515,-90.3869"/>
<polygon fill="midnightblue" stroke="midnightblue" points="365.909,-92.9413 371.04,-83.6719 361.248,-87.7183 365.909,-92.9413"/>
</g>
<!-- Node10 -->
<g id="node22" class="node"><title>Node10</title>
<a xlink:href="minmax_8h.html" target="_top" xlink:title="fae/util/minmax.h">
<polygon fill="none" stroke="red" points="451.837,-60.6953 451.837,-83.3047 558.163,-83.3047 558.163,-60.6953 451.837,-60.6953"/>
<text text-anchor="middle" x="505" y="-68.3047" font-family="Futura" font-size="11.00">fae/util/minmax.h</text>
</a>
</g>
<!-- Node7&#45;&gt;Node10 -->
<g id="edge24" class="edge"><title>Node7&#45;&gt;Node10</title>
<path fill="none" stroke="midnightblue" d="M348.879,-121.422C379.659,-111.876 427.195,-97.132 461.73,-86.4207"/>
<polygon fill="midnightblue" stroke="midnightblue" points="463.034,-89.6809 471.548,-83.3755 460.96,-82.9951 463.034,-89.6809"/>
</g>
</g>
</svg>
