<?xml version="1.0" encoding="UTF-8" standalone="no"?>
<!DOCTYPE svg PUBLIC "-//W3C//DTD SVG 1.1//EN"
 "http://www.w3.org/Graphics/SVG/1.1/DTD/svg11.dtd">
<!-- Generated by graphviz version 2.28.0 (20121015.0031)
 -->
<!-- Title: include/fa/atomic/queue.h Pages: 1 -->
<svg width="945pt" height="212pt"
 viewBox="0.00 0.00 945.00 212.00" xmlns="http://www.w3.org/2000/svg" xmlns:xlink="http://www.w3.org/1999/xlink">
<g id="graph1" class="graph" transform="scale(1 1) rotate(0) translate(4 208)">
<title>include/fa/atomic/queue.h</title>
<!-- Node1 -->
<g id="node1" class="node"><title>Node1</title>
<polygon fill="#bfbfbf" stroke="black" points="468.085,-180.695 468.085,-203.305 619.915,-203.305 619.915,-180.695 468.085,-180.695"/>
<text text-anchor="middle" x="544" y="-188.305" font-family="Futura" font-size="11.00">include/fa/atomic/queue.h</text>
</g>
<!-- Node2 -->
<g id="node3" class="node"><title>Node2</title>
<a xlink:href="fa_2fa_8h.html" target="_top" xlink:title="include/fa/fa.h">
<polygon fill="none" stroke="red" points="497.846,-120.695 497.846,-143.305 590.154,-143.305 590.154,-120.695 497.846,-120.695"/>
<text text-anchor="middle" x="544" y="-128.305" font-family="Futura" font-size="11.00">include/fa/fa.h</text>
</a>
</g>
<!-- Node1&#45;&gt;Node2 -->
<g id="edge2" class="edge"><title>Node1&#45;&gt;Node2</title>
<path fill="none" stroke="midnightblue" d="M544,-170.459C544,-161.411 544,-151.16 544,-143.672"/>
<polygon fill="midnightblue" stroke="midnightblue" points="540.5,-170.631 544,-180.631 547.5,-170.631 540.5,-170.631"/>
</g>
<!-- Node3 -->
<g id="node5" class="node"><title>Node3</title>
<a xlink:href="action_8h.html" target="_top" xlink:title="include/fa/action.h">
<polygon fill="none" stroke="red" points="-0.253906,-0.695312 -0.253906,-23.3047 112.254,-23.3047 112.254,-0.695312 -0.253906,-0.695312"/>
<text text-anchor="middle" x="56" y="-8.30469" font-family="Futura" font-size="11.00">include/fa/action.h</text>
</a>
</g>
<!-- Node2&#45;&gt;Node3 -->
<g id="edge4" class="edge"><title>Node2&#45;&gt;Node3</title>
<path fill="none" stroke="midnightblue" d="M487.417,-128.714C369.665,-123.288 106.985,-108.239 75,-84 55.6744,-69.3546 49.6703,-39.3664 51.1051,-23.4547"/>
<polygon fill="midnightblue" stroke="midnightblue" points="487.524,-132.223 497.672,-129.179 487.841,-125.23 487.524,-132.223"/>
</g>
<!-- Node4 -->
<g id="node8" class="node"><title>Node4</title>
<a xlink:href="atomic_8h.html" target="_top" xlink:title="include/fa/atomic.h">
<polygon fill="none" stroke="black" points="93.3738,-60.6953 93.3738,-83.3047 208.626,-83.3047 208.626,-60.6953 93.3738,-60.6953"/>
<text text-anchor="middle" x="151" y="-68.3047" font-family="Futura" font-size="11.00">include/fa/atomic.h</text>
</a>
</g>
<!-- Node2&#45;&gt;Node4 -->
<g id="edge8" class="edge"><title>Node2&#45;&gt;Node4</title>
<path fill="none" stroke="midnightblue" d="M487.722,-124.161C420.748,-115.307 305.979,-99.2042 208,-84 206.623,-83.7862 205.229,-83.5684 203.825,-83.3472"/>
<polygon fill="midnightblue" stroke="midnightblue" points="487.278,-127.633 497.649,-125.466 488.191,-120.693 487.278,-127.633"/>
</g>
<!-- Node5 -->
<g id="node11" class="node"><title>Node5</title>
<a xlink:href="buffer_8h.html" target="_top" xlink:title="include/fa/buffer.h">
<polygon fill="none" stroke="red" points="226.227,-60.6953 226.227,-83.3047 337.773,-83.3047 337.773,-60.6953 226.227,-60.6953"/>
<text text-anchor="middle" x="282" y="-68.3047" font-family="Futura" font-size="11.00">include/fa/buffer.h</text>
</a>
</g>
<!-- Node2&#45;&gt;Node5 -->
<g id="edge12" class="edge"><title>Node2&#45;&gt;Node5</title>
<path fill="none" stroke="midnightblue" d="M487.95,-118.592C440.484,-108.084 373.235,-93.1971 328.656,-83.3285"/>
<polygon fill="midnightblue" stroke="midnightblue" points="487.243,-122.02 497.763,-120.764 488.756,-115.186 487.243,-122.02"/>
</g>
<!-- Node6 -->
<g id="node13" class="node"><title>Node6</title>
<a xlink:href="clock_8h.html" target="_top" xlink:title="include/fa/clock.h">
<polygon fill="none" stroke="red" points="355.978,-60.6953 355.978,-83.3047 464.022,-83.3047 464.022,-60.6953 355.978,-60.6953"/>
<text text-anchor="middle" x="410" y="-68.3047" font-family="Futura" font-size="11.00">include/fa/clock.h</text>
</a>
</g>
<!-- Node2&#45;&gt;Node6 -->
<g id="edge14" class="edge"><title>Node2&#45;&gt;Node6</title>
<path fill="none" stroke="midnightblue" d="M510.71,-116.591C486.966,-106.314 455.582,-92.7296 434.201,-83.475"/>
<polygon fill="midnightblue" stroke="midnightblue" points="509.476,-119.871 520.043,-120.631 512.257,-113.446 509.476,-119.871"/>
</g>
<!-- Node7 -->
<g id="node15" class="node"><title>Node7</title>
<a xlink:href="dynamic_8h.html" target="_top" xlink:title="include/fa/dynamic.h">
<polygon fill="none" stroke="black" points="481.918,-60.6953 481.918,-83.3047 606.082,-83.3047 606.082,-60.6953 481.918,-60.6953"/>
<text text-anchor="middle" x="544" y="-68.3047" font-family="Futura" font-size="11.00">include/fa/dynamic.h</text>
</a>
</g>
<!-- Node2&#45;&gt;Node7 -->
<g id="edge16" class="edge"><title>Node2&#45;&gt;Node7</title>
<path fill="none" stroke="midnightblue" d="M544,-110.459C544,-101.411 544,-91.1602 544,-83.6719"/>
<polygon fill="midnightblue" stroke="midnightblue" points="540.5,-110.631 544,-120.631 547.5,-110.631 540.5,-110.631"/>
</g>
<!-- Node8 -->
<g id="node17" class="node"><title>Node8</title>
<a xlink:href="error_8h.html" target="_top" xlink:title="include/fa/error.h">
<polygon fill="none" stroke="red" points="623.598,-60.6953 623.598,-83.3047 730.402,-83.3047 730.402,-60.6953 623.598,-60.6953"/>
<text text-anchor="middle" x="677" y="-68.3047" font-family="Futura" font-size="11.00">include/fa/error.h</text>
</a>
</g>
<!-- Node2&#45;&gt;Node8 -->
<g id="edge18" class="edge"><title>Node2&#45;&gt;Node8</title>
<path fill="none" stroke="midnightblue" d="M571.713,-116.316C593.97,-106.072 624.963,-92.6474 647.645,-83.475"/>
<polygon fill="midnightblue" stroke="midnightblue" points="570.045,-113.232 562.462,-120.631 573.004,-119.576 570.045,-113.232"/>
</g>
<!-- Node9 -->
<g id="node20" class="node"><title>Node9</title>
<a xlink:href="graph_8h.html" target="_top" xlink:title="include/fa/graph.h">
<polygon fill="none" stroke="black" points="824.937,-0.695312 824.937,-23.3047 937.063,-23.3047 937.063,-0.695312 824.937,-0.695312"/>
<text text-anchor="middle" x="881" y="-8.30469" font-family="Futura" font-size="11.00">include/fa/graph.h</text>
</a>
</g>
<!-- Node2&#45;&gt;Node9 -->
<g id="edge22" class="edge"><title>Node2&#45;&gt;Node9</title>
<path fill="none" stroke="midnightblue" d="M600.611,-128.608C676.582,-124.407 805.969,-113.171 843,-84 862.141,-68.9218 868.735,-39.1196 874.227,-23.3491"/>
<polygon fill="midnightblue" stroke="midnightblue" points="600.062,-125.132 590.26,-129.155 600.431,-132.122 600.062,-125.132"/>
</g>
<!-- Node10 -->
<g id="node23" class="node"><title>Node10</title>
<a xlink:href="list_8h.html" target="_top" xlink:title="include/fa/list.h">
<polygon fill="none" stroke="red" points="748.385,-60.6953 748.385,-83.3047 843.615,-83.3047 843.615,-60.6953 748.385,-60.6953"/>
<text text-anchor="middle" x="796" y="-68.3047" font-family="Futura" font-size="11.00">include/fa/list.h</text>
</a>
</g>
<!-- Node2&#45;&gt;Node10 -->
<g id="edge26" class="edge"><title>Node2&#45;&gt;Node10</title>
<path fill="none" stroke="midnightblue" d="M593.542,-118.286C638.399,-107.605 703.921,-92.562 748.228,-82.7964"/>
<polygon fill="midnightblue" stroke="midnightblue" points="592.649,-114.901 583.737,-120.631 594.276,-121.709 592.649,-114.901"/>
</g>
<!-- Node3&#45;&gt;Node2 -->
<g id="edge6" class="edge"><title>Node3&#45;&gt;Node2</title>
<path fill="none" stroke="midnightblue" d="M65.4569,-33.2249C70.2581,-49.6481 77.1469,-71.9862 93,-84 125.07,-108.304 389.073,-123.368 497.711,-128.758"/>
<polygon fill="midnightblue" stroke="midnightblue" points="68.7526,-32.0297 62.53,-23.4547 62.047,-34.0385 68.7526,-32.0297"/>
</g>
<!-- Node4&#45;&gt;Node2 -->
<g id="edge10" class="edge"><title>Node4&#45;&gt;Node2</title>
<path fill="none" stroke="midnightblue" d="M218.908,-82.8867C221.306,-83.2668 223.676,-83.6393 226,-84 322.632,-98.9953 435.597,-114.865 497.616,-123.792"/>
<polygon fill="midnightblue" stroke="midnightblue" points="219.365,-79.4154 208.938,-81.2915 218.259,-86.3275 219.365,-79.4154"/>
</g>
<!-- Node8&#45;&gt;Node2 -->
<g id="edge20" class="edge"><title>Node8&#45;&gt;Node2</title>
<path fill="none" stroke="midnightblue" d="M649.029,-87.8023C626.706,-98.0705 595.711,-111.491 573.094,-120.631"/>
<polygon fill="midnightblue" stroke="midnightblue" points="650.729,-90.8716 658.315,-83.475 647.772,-84.5267 650.729,-90.8716"/>
</g>
<!-- Node9&#45;&gt;Node2 -->
<g id="edge24" class="edge"><title>Node9&#45;&gt;Node2</title>
<path fill="none" stroke="midnightblue" d="M885.42,-33.5104C883.821,-49.7778 876.552,-71.749 861,-84 820.315,-116.05 668.15,-126.45 590.288,-129.656"/>
<polygon fill="midnightblue" stroke="midnightblue" points="888.922,-33.4266 885.652,-23.3491 881.924,-33.2664 888.922,-33.4266"/>
</g>
<!-- Node10&#45;&gt;Node2 -->
<g id="edge30" class="edge"><title>Node10&#45;&gt;Node2</title>
<path fill="none" stroke="midnightblue" d="M746.532,-85.6961C701.136,-96.5063 634.53,-111.794 590.19,-121.552"/>
<polygon fill="midnightblue" stroke="midnightblue" points="747.538,-89.0545 756.449,-83.3246 745.909,-82.2464 747.538,-89.0545"/>
</g>
<!-- Node10&#45;&gt;Node3 -->
<g id="edge28" class="edge"><title>Node10&#45;&gt;Node3</title>
<path fill="none" stroke="midnightblue" d="M737.937,-60.006C499.86,-29.5126 227.987,-18.2465 112.451,-14.5566"/>
<polygon fill="midnightblue" stroke="midnightblue" points="737.808,-63.5184 748.175,-61.3319 738.707,-56.5764 737.808,-63.5184"/>
</g>
<!-- Node10&#45;&gt;Node9 -->
<g id="edge32" class="edge"><title>Node10&#45;&gt;Node9</title>
<path fill="none" stroke="midnightblue" d="M819.774,-54.7779C834.458,-44.7583 852.87,-32.1949 865.649,-23.475"/>
<polygon fill="midnightblue" stroke="midnightblue" points="817.484,-52.1033 811.196,-60.6308 821.429,-57.8854 817.484,-52.1033"/>
</g>
</g>
</svg>
