<?xml version="1.0" encoding="UTF-8" standalone="no"?>
<!DOCTYPE svg PUBLIC "-//W3C//DTD SVG 1.1//EN"
 "http://www.w3.org/Graphics/SVG/1.1/DTD/svg11.dtd">
<!-- Generated by graphviz version 2.28.0 (20121015.0031)
 -->
<!-- Title: include/fae/ratio.h Pages: 1 -->
<svg width="749pt" height="212pt"
 viewBox="0.00 0.00 749.00 212.00" xmlns="http://www.w3.org/2000/svg" xmlns:xlink="http://www.w3.org/1999/xlink">
<g id="graph1" class="graph" transform="scale(1 1) rotate(0) translate(4 208)">
<title>include/fae/ratio.h</title>
<!-- Node1 -->
<g id="node1" class="node"><title>Node1</title>
<polygon fill="#bfbfbf" stroke="black" points="541.321,-180.695 541.321,-203.305 652.679,-203.305 652.679,-180.695 541.321,-180.695"/>
<text text-anchor="middle" x="597" y="-188.305" font-family="Futura" font-size="11.00">include/fae/ratio.h</text>
</g>
<!-- Node2 -->
<g id="node3" class="node"><title>Node2</title>
<a xlink:href="time_8h.html" target="_top" xlink:title="include/fae/time.h">
<polygon fill="none" stroke="black" points="436.551,-120.695 436.551,-143.305 545.449,-143.305 545.449,-120.695 436.551,-120.695"/>
<text text-anchor="middle" x="491" y="-128.305" font-family="Futura" font-size="11.00">include/fae/time.h</text>
</a>
</g>
<!-- Node1&#45;&gt;Node2 -->
<g id="edge2" class="edge"><title>Node1&#45;&gt;Node2</title>
<path fill="none" stroke="midnightblue" d="M569.151,-175.762C550.565,-165.592 526.607,-152.483 510.144,-143.475"/>
<polygon fill="midnightblue" stroke="midnightblue" points="567.597,-178.901 578.049,-180.631 570.957,-172.76 567.597,-178.901"/>
</g>
<!-- Node9 -->
<g id="node20" class="node"><title>Node9</title>
<a xlink:href="ratio_8c.html" target="_top" xlink:title="src/fae/ratio.c">
<polygon fill="none" stroke="black" points="652.568,-0.695312 652.568,-23.3047 741.432,-23.3047 741.432,-0.695312 652.568,-0.695312"/>
<text text-anchor="middle" x="697" y="-8.30469" font-family="Futura" font-size="11.00">src/fae/ratio.c</text>
</a>
</g>
<!-- Node1&#45;&gt;Node9 -->
<g id="edge28" class="edge"><title>Node1&#45;&gt;Node9</title>
<path fill="none" stroke="midnightblue" d="M607.832,-171.719C628.94,-134.147 674.931,-52.2822 691.175,-23.368"/>
<polygon fill="midnightblue" stroke="midnightblue" points="604.655,-170.228 602.809,-180.661 610.758,-173.657 604.655,-170.228"/>
</g>
<!-- Node3 -->
<g id="node5" class="node"><title>Node3</title>
<a xlink:href="fae_2fae_8h.html" target="_top" xlink:title="include/fae/fae.h">
<polygon fill="none" stroke="red" points="281.761,-60.6953 281.761,-83.3047 386.239,-83.3047 386.239,-60.6953 281.761,-60.6953"/>
<text text-anchor="middle" x="334" y="-68.3047" font-family="Futura" font-size="11.00">include/fae/fae.h</text>
</a>
</g>
<!-- Node2&#45;&gt;Node3 -->
<g id="edge4" class="edge"><title>Node2&#45;&gt;Node3</title>
<path fill="none" stroke="midnightblue" d="M448,-117.271C418.613,-106.919 380.927,-92.9353 357.02,-83.475"/>
<polygon fill="midnightblue" stroke="midnightblue" points="447.021,-120.637 457.616,-120.631 449.33,-114.028 447.021,-120.637"/>
</g>
<!-- Node7 -->
<g id="node14" class="node"><title>Node7</title>
<a xlink:href="signal_8h.html" target="_top" xlink:title="include/fae/signal.h">
<polygon fill="none" stroke="red" points="412.24,-0.695312 412.24,-23.3047 529.76,-23.3047 529.76,-0.695312 412.24,-0.695312"/>
<text text-anchor="middle" x="471" y="-8.30469" font-family="Futura" font-size="11.00">include/fae/signal.h</text>
</a>
</g>
<!-- Node2&#45;&gt;Node7 -->
<g id="edge18" class="edge"><title>Node2&#45;&gt;Node7</title>
<path fill="none" stroke="midnightblue" d="M487.531,-110.534C483.246,-85.2504 476.116,-43.1873 472.8,-23.6179"/>
<polygon fill="midnightblue" stroke="midnightblue" points="484.103,-111.254 489.225,-120.528 491.005,-110.084 484.103,-111.254"/>
</g>
<!-- Node8 -->
<g id="node18" class="node"><title>Node8</title>
<a xlink:href="util_8h.html" target="_top" xlink:title="include/fae/util.h">
<polygon fill="none" stroke="red" points="539.577,-60.6953 539.577,-83.3047 642.423,-83.3047 642.423,-60.6953 539.577,-60.6953"/>
<text text-anchor="middle" x="591" y="-68.3047" font-family="Futura" font-size="11.00">include/fae/util.h</text>
</a>
</g>
<!-- Node2&#45;&gt;Node8 -->
<g id="edge20" class="edge"><title>Node2&#45;&gt;Node8</title>
<path fill="none" stroke="midnightblue" d="M517.996,-115.342C535.425,-105.234 557.622,-92.3594 572.94,-83.475"/>
<polygon fill="midnightblue" stroke="midnightblue" points="515.772,-112.586 508.878,-120.631 519.284,-118.641 515.772,-112.586"/>
</g>
<!-- Node10 -->
<g id="node22" class="node"><title>Node10</title>
<a xlink:href="time_8c.html" target="_top" xlink:title="src/fae/time.c">
<polygon fill="none" stroke="black" points="547.798,-0.695312 547.798,-23.3047 634.202,-23.3047 634.202,-0.695312 547.798,-0.695312"/>
<text text-anchor="middle" x="591" y="-8.30469" font-family="Futura" font-size="11.00">src/fae/time.c</text>
</a>
</g>
<!-- Node2&#45;&gt;Node10 -->
<g id="edge26" class="edge"><title>Node2&#45;&gt;Node10</title>
<path fill="none" stroke="midnightblue" d="M499.555,-111.191C506.633,-96.1658 517.667,-75.5215 531,-60 543.588,-45.3453 561.333,-32.1191 574.259,-23.4585"/>
<polygon fill="midnightblue" stroke="midnightblue" points="496.247,-110.01 495.307,-120.563 502.623,-112.9 496.247,-110.01"/>
</g>
<!-- Node3&#45;&gt;Node2 -->
<g id="edge16" class="edge"><title>Node3&#45;&gt;Node2</title>
<path fill="none" stroke="midnightblue" d="M377.056,-86.7483C406.544,-97.1369 444.37,-111.175 468.247,-120.631"/>
<polygon fill="midnightblue" stroke="midnightblue" points="378.002,-83.3715 367.407,-83.3771 375.693,-89.9797 378.002,-83.3715"/>
</g>
<!-- Node4 -->
<g id="node7" class="node"><title>Node4</title>
<a xlink:href="atomic_8h.html" target="_top" xlink:title="include/fae/atomic.h">
<polygon fill="none" stroke="red" points="-0.668945,-0.695312 -0.668945,-23.3047 120.669,-23.3047 120.669,-0.695312 -0.668945,-0.695312"/>
<text text-anchor="middle" x="60" y="-8.30469" font-family="Futura" font-size="11.00">include/fae/atomic.h</text>
</a>
</g>
<!-- Node3&#45;&gt;Node4 -->
<g id="edge6" class="edge"><title>Node3&#45;&gt;Node4</title>
<path fill="none" stroke="midnightblue" d="M271.664,-58.9885C220.3,-48.4616 148.871,-33.3217 103.484,-23.3282"/>
<polygon fill="midnightblue" stroke="midnightblue" points="271.158,-62.4572 281.656,-61.0294 272.559,-55.5988 271.158,-62.4572"/>
</g>
<!-- Node5 -->
<g id="node10" class="node"><title>Node5</title>
<a xlink:href="buffer_8h.html" target="_top" xlink:title="include/fae/buffer.h">
<polygon fill="none" stroke="red" points="138.184,-0.695312 138.184,-23.3047 255.816,-23.3047 255.816,-0.695312 138.184,-0.695312"/>
<text text-anchor="middle" x="197" y="-8.30469" font-family="Futura" font-size="11.00">include/fae/buffer.h</text>
</a>
</g>
<!-- Node3&#45;&gt;Node5 -->
<g id="edge10" class="edge"><title>Node3&#45;&gt;Node5</title>
<path fill="none" stroke="midnightblue" d="M300.288,-56.7278C275.974,-46.4343 243.7,-32.7708 221.743,-23.475"/>
<polygon fill="midnightblue" stroke="midnightblue" points="298.934,-59.9552 309.507,-60.6308 301.663,-53.509 298.934,-59.9552"/>
</g>
<!-- Node6 -->
<g id="node12" class="node"><title>Node6</title>
<a xlink:href="device_8h.html" target="_top" xlink:title="include/fae/device.h">
<polygon fill="none" stroke="red" points="273.774,-0.695312 273.774,-23.3047 394.226,-23.3047 394.226,-0.695312 273.774,-0.695312"/>
<text text-anchor="middle" x="334" y="-8.30469" font-family="Futura" font-size="11.00">include/fae/device.h</text>
</a>
</g>
<!-- Node3&#45;&gt;Node6 -->
<g id="edge12" class="edge"><title>Node3&#45;&gt;Node6</title>
<path fill="none" stroke="midnightblue" d="M334,-50.4586C334,-41.4112 334,-31.1602 334,-23.6719"/>
<polygon fill="midnightblue" stroke="midnightblue" points="330.5,-50.6307 334,-60.6308 337.5,-50.6308 330.5,-50.6307"/>
</g>
<!-- Node3&#45;&gt;Node7 -->
<g id="edge14" class="edge"><title>Node3&#45;&gt;Node7</title>
<path fill="none" stroke="midnightblue" d="M367.712,-56.7278C392.026,-46.4343 424.3,-32.7708 446.257,-23.475"/>
<polygon fill="midnightblue" stroke="midnightblue" points="366.337,-53.509 358.493,-60.6308 369.066,-59.9552 366.337,-53.509"/>
</g>
<!-- Node4&#45;&gt;Node3 -->
<g id="edge8" class="edge"><title>Node4&#45;&gt;Node3</title>
<path fill="none" stroke="midnightblue" d="M124.302,-25.4147C175.439,-35.9075 245.51,-50.764 290.33,-60.6308"/>
<polygon fill="midnightblue" stroke="midnightblue" points="124.839,-21.9521 114.34,-23.3771 123.436,-28.8101 124.839,-21.9521"/>
</g>
<!-- Node8&#45;&gt;Node9 -->
<g id="edge22" class="edge"><title>Node8&#45;&gt;Node9</title>
<path fill="none" stroke="midnightblue" d="M618.849,-55.7619C637.435,-45.5921 661.393,-32.4828 677.856,-23.475"/>
<polygon fill="midnightblue" stroke="midnightblue" points="617.043,-52.7602 609.951,-60.6308 620.403,-58.901 617.043,-52.7602"/>
</g>
<!-- Node8&#45;&gt;Node10 -->
<g id="edge24" class="edge"><title>Node8&#45;&gt;Node10</title>
<path fill="none" stroke="midnightblue" d="M591,-50.4586C591,-41.4112 591,-31.1602 591,-23.6719"/>
<polygon fill="midnightblue" stroke="midnightblue" points="587.5,-50.6307 591,-60.6308 594.5,-50.6308 587.5,-50.6307"/>
</g>
</g>
</svg>
