<?xml version="1.0" encoding="UTF-8" standalone="no"?>
<!DOCTYPE svg PUBLIC "-//W3C//DTD SVG 1.1//EN"
 "http://www.w3.org/Graphics/SVG/1.1/DTD/svg11.dtd">
<!-- Generated by graphviz version 2.28.0 (20121015.0031)
 -->
<!-- Title: include/fa/ratio.h Pages: 1 -->
<svg width="414pt" height="512pt"
 viewBox="0.00 0.00 413.63 512.00" xmlns="http://www.w3.org/2000/svg" xmlns:xlink="http://www.w3.org/1999/xlink">
<g id="graph1" class="graph" transform="scale(1 1) rotate(0) translate(4 508)">
<title>include/fa/ratio.h</title>
<!-- Node1 -->
<g id="node1" class="node"><title>Node1</title>
<polygon fill="#bfbfbf" stroke="black" points="156.05,-480.695 156.05,-503.305 261.323,-503.305 261.323,-480.695 156.05,-480.695"/>
<text text-anchor="middle" x="208.686" y="-488.305" font-family="Futura" font-size="11.00">include/fa/ratio.h</text>
</g>
<!-- Node2 -->
<g id="node3" class="node"><title>Node2</title>
<a xlink:href="time_8h.html" target="_top" xlink:title="include/fa/time.h">
<polygon fill="none" stroke="black" points="157.28,-420.695 157.28,-443.305 260.093,-443.305 260.093,-420.695 157.28,-420.695"/>
<text text-anchor="middle" x="208.686" y="-428.305" font-family="Futura" font-size="11.00">include/fa/time.h</text>
</a>
</g>
<!-- Node1&#45;&gt;Node2 -->
<g id="edge2" class="edge"><title>Node1&#45;&gt;Node2</title>
<path fill="none" stroke="midnightblue" d="M208.686,-470.459C208.686,-461.411 208.686,-451.16 208.686,-443.672"/>
<polygon fill="midnightblue" stroke="midnightblue" points="205.186,-470.631 208.686,-480.631 212.186,-470.631 205.186,-470.631"/>
</g>
<!-- Node3 -->
<g id="node5" class="node"><title>Node3</title>
<a xlink:href="clock_8h.html" target="_top" xlink:title="include/fa/clock.h">
<polygon fill="none" stroke="black" points="30.6639,-360.695 30.6639,-383.305 138.708,-383.305 138.708,-360.695 30.6639,-360.695"/>
<text text-anchor="middle" x="84.6862" y="-368.305" font-family="Futura" font-size="11.00">include/fa/clock.h</text>
</a>
</g>
<!-- Node2&#45;&gt;Node3 -->
<g id="edge4" class="edge"><title>Node2&#45;&gt;Node3</title>
<path fill="none" stroke="midnightblue" d="M177.293,-416.316C155.393,-406.072 126.691,-392.647 107.081,-383.475"/>
<polygon fill="midnightblue" stroke="midnightblue" points="175.976,-419.564 186.517,-420.631 178.942,-413.224 175.976,-419.564"/>
</g>
<!-- Node5 -->
<g id="node9" class="node"><title>Node5</title>
<a xlink:href="fa_2fa_8h.html" target="_top" xlink:title="include/fa/fa.h">
<polygon fill="none" stroke="red" points="205.533,-240.695 205.533,-263.305 297.84,-263.305 297.84,-240.695 205.533,-240.695"/>
<text text-anchor="middle" x="251.686" y="-248.305" font-family="Futura" font-size="11.00">include/fa/fa.h</text>
</a>
</g>
<!-- Node2&#45;&gt;Node5 -->
<g id="edge36" class="edge"><title>Node2&#45;&gt;Node5</title>
<path fill="none" stroke="midnightblue" d="M209.175,-410.258C215.089,-372.065 234.832,-291.913 245.802,-263.368"/>
<polygon fill="midnightblue" stroke="midnightblue" points="205.641,-410.29 207.808,-420.661 212.581,-411.202 205.641,-410.29"/>
</g>
<!-- Node7 -->
<g id="node15" class="node"><title>Node7</title>
<a xlink:href="midi_8h.html" target="_top" xlink:title="include/fa/midi.h">
<polygon fill="none" stroke="black" points="229.159,-0.695312 229.159,-23.3047 332.214,-23.3047 332.214,-0.695312 229.159,-0.695312"/>
<text text-anchor="middle" x="280.686" y="-8.30469" font-family="Futura" font-size="11.00">include/fa/midi.h</text>
</a>
</g>
<!-- Node2&#45;&gt;Node7 -->
<g id="edge38" class="edge"><title>Node2&#45;&gt;Node7</title>
<path fill="none" stroke="midnightblue" d="M147.333,-422.266C100.003,-414.339 39.6702,-401.256 21.6862,-384 -2.05848,-361.217 0.686161,-345.907 0.686161,-313 0.686161,-313 0.686161,-313 0.686161,-131 0.686161,-33.0141 148.099,-15.0985 229.004,-12.6446"/>
<polygon fill="midnightblue" stroke="midnightblue" points="146.782,-425.722 157.216,-423.879 147.91,-418.814 146.782,-425.722"/>
</g>
<!-- Node9 -->
<g id="node20" class="node"><title>Node9</title>
<a xlink:href="signal_8h.html" target="_top" xlink:title="include/fa/signal.h">
<polygon fill="none" stroke="black" points="150.969,-120.695 150.969,-143.305 262.403,-143.305 262.403,-120.695 150.969,-120.695"/>
<text text-anchor="middle" x="206.686" y="-128.305" font-family="Futura" font-size="11.00">include/fa/signal.h</text>
</a>
</g>
<!-- Node2&#45;&gt;Node9 -->
<g id="edge40" class="edge"><title>Node2&#45;&gt;Node9</title>
<path fill="none" stroke="midnightblue" d="M205.901,-410.309C201.519,-375.273 193.794,-302.022 196.686,-240 198.346,-204.403 203.096,-162.361 205.4,-143.307"/>
<polygon fill="midnightblue" stroke="midnightblue" points="202.485,-411.186 207.239,-420.654 209.428,-410.288 202.485,-411.186"/>
</g>
<!-- Node10 -->
<g id="node31" class="node"><title>Node10</title>
<a xlink:href="util_8h.html" target="_top" xlink:title="include/fa/util.h">
<polygon fill="none" stroke="black" points="288.306,-360.695 288.306,-383.305 385.066,-383.305 385.066,-360.695 288.306,-360.695"/>
<text text-anchor="middle" x="336.686" y="-368.305" font-family="Futura" font-size="11.00">include/fa/util.h</text>
</a>
</g>
<!-- Node2&#45;&gt;Node10 -->
<g id="edge42" class="edge"><title>Node2&#45;&gt;Node10</title>
<path fill="none" stroke="midnightblue" d="M240.788,-416.454C263.433,-406.193 293.236,-392.688 313.569,-383.475"/>
<polygon fill="midnightblue" stroke="midnightblue" points="239.234,-413.315 231.57,-420.631 242.123,-419.691 239.234,-413.315"/>
</g>
<!-- Node4 -->
<g id="node7" class="node"><title>Node4</title>
<a xlink:href="audio_8h.html" target="_top" xlink:title="include/fa/audio.h">
<polygon fill="none" stroke="black" points="28.2782,-300.695 28.2782,-323.305 139.094,-323.305 139.094,-300.695 28.2782,-300.695"/>
<text text-anchor="middle" x="83.6862" y="-308.305" font-family="Futura" font-size="11.00">include/fa/audio.h</text>
</a>
</g>
<!-- Node3&#45;&gt;Node4 -->
<g id="edge6" class="edge"><title>Node3&#45;&gt;Node4</title>
<path fill="none" stroke="midnightblue" d="M84.332,-350.459C84.176,-341.411 83.9993,-331.16 83.8702,-323.672"/>
<polygon fill="midnightblue" stroke="midnightblue" points="80.8354,-350.693 84.5074,-360.631 87.8344,-350.572 80.8354,-350.693"/>
</g>
<!-- Node4&#45;&gt;Node5 -->
<g id="edge8" class="edge"><title>Node4&#45;&gt;Node5</title>
<path fill="none" stroke="midnightblue" d="M123.484,-297.26C153.569,-286.874 194.232,-272.835 221.628,-263.377"/>
<polygon fill="midnightblue" stroke="midnightblue" points="122.032,-294.059 113.721,-300.631 124.316,-300.676 122.032,-294.059"/>
</g>
<!-- Node5&#45;&gt;Node2 -->
<g id="edge34" class="edge"><title>Node5&#45;&gt;Node2</title>
<path fill="none" stroke="midnightblue" d="M251.268,-273.288C245.438,-311.309 225.57,-392.027 214.56,-420.661"/>
<polygon fill="midnightblue" stroke="midnightblue" points="254.739,-273.737 252.561,-263.368 247.797,-272.831 254.739,-273.737"/>
</g>
<!-- Node5&#45;&gt;Node3 -->
<g id="edge30" class="edge"><title>Node5&#45;&gt;Node3</title>
<path fill="none" stroke="midnightblue" d="M228.479,-269.398C193.599,-294.044 128.648,-339.937 99.5063,-360.528"/>
<polygon fill="midnightblue" stroke="midnightblue" points="230.512,-272.247 236.659,-263.618 226.472,-266.53 230.512,-272.247"/>
</g>
<!-- Node6 -->
<g id="node11" class="node"><title>Node6</title>
<a xlink:href="action_8h.html" target="_top" xlink:title="include/fa/action.h">
<polygon fill="none" stroke="black" points="224.432,-60.6953 224.432,-83.3047 336.94,-83.3047 336.94,-60.6953 224.432,-60.6953"/>
<text text-anchor="middle" x="280.686" y="-68.3047" font-family="Futura" font-size="11.00">include/fa/action.h</text>
</a>
</g>
<!-- Node5&#45;&gt;Node6 -->
<g id="edge10" class="edge"><title>Node5&#45;&gt;Node6</title>
<path fill="none" stroke="midnightblue" d="M307.932,-238.111C325.828,-231.15 343.752,-220.446 354.686,-204 384.051,-159.831 319.071,-106.066 291.66,-83.629"/>
<polygon fill="midnightblue" stroke="midnightblue" points="306.301,-234.975 298.038,-241.606 308.633,-241.575 306.301,-234.975"/>
</g>
<!-- Node8 -->
<g id="node18" class="node"><title>Node8</title>
<a xlink:href="buffer_8h.html" target="_top" xlink:title="include/fa/buffer.h">
<polygon fill="none" stroke="red" points="243.913,-180.695 243.913,-203.305 355.459,-203.305 355.459,-180.695 243.913,-180.695"/>
<text text-anchor="middle" x="299.686" y="-188.305" font-family="Futura" font-size="11.00">include/fa/buffer.h</text>
</a>
</g>
<!-- Node5&#45;&gt;Node8 -->
<g id="edge20" class="edge"><title>Node5&#45;&gt;Node8</title>
<path fill="none" stroke="midnightblue" d="M266.737,-232.814C274.664,-223.235 284.112,-211.819 290.854,-203.672"/>
<polygon fill="midnightblue" stroke="midnightblue" points="263.947,-230.695 260.268,-240.631 269.34,-235.158 263.947,-230.695"/>
</g>
<!-- Node5&#45;&gt;Node9 -->
<g id="edge32" class="edge"><title>Node5&#45;&gt;Node9</title>
<path fill="none" stroke="midnightblue" d="M239.103,-231.545C227.077,-206.386 211.067,-163.451 206.665,-143.618"/>
<polygon fill="midnightblue" stroke="midnightblue" points="236.01,-233.184 243.646,-240.528 242.257,-230.025 236.01,-233.184"/>
</g>
<!-- Node6&#45;&gt;Node4 -->
<g id="edge12" class="edge"><title>Node6&#45;&gt;Node4</title>
<path fill="none" stroke="midnightblue" d="M214.257,-82.8444C188.823,-89.5844 161.251,-100.926 141.686,-120 89.081,-171.286 83.8273,-268.616 83.5753,-300.558"/>
<polygon fill="midnightblue" stroke="midnightblue" points="215.369,-86.1755 224.249,-80.3963 213.703,-79.3766 215.369,-86.1755"/>
</g>
<!-- Node6&#45;&gt;Node5 -->
<g id="edge14" class="edge"><title>Node6&#45;&gt;Node5</title>
<path fill="none" stroke="midnightblue" d="M310.007,-89.2521C346.378,-114.16 399.826,-163.178 372.686,-204 356.458,-228.409 324.833,-240.168 297.876,-245.817"/>
<polygon fill="midnightblue" stroke="midnightblue" points="311.467,-86.0237 301.187,-83.4588 307.624,-91.8744 311.467,-86.0237"/>
</g>
<!-- Node6&#45;&gt;Node7 -->
<g id="edge16" class="edge"><title>Node6&#45;&gt;Node7</title>
<path fill="none" stroke="midnightblue" d="M280.686,-50.4586C280.686,-41.4112 280.686,-31.1602 280.686,-23.6719"/>
<polygon fill="midnightblue" stroke="midnightblue" points="277.186,-50.6307 280.686,-60.6308 284.186,-50.6308 277.186,-50.6307"/>
</g>
<!-- Node7&#45;&gt;Node5 -->
<g id="edge18" class="edge"><title>Node7&#45;&gt;Node5</title>
<path fill="none" stroke="midnightblue" d="M308.969,-28.6912C321.503,-36.75 335.65,-47.508 345.686,-60 387.6,-112.169 428.639,-149.584 389.686,-204 368.988,-232.915 329.442,-244.249 297.971,-248.589"/>
<polygon fill="midnightblue" stroke="midnightblue" points="310.562,-25.5626 300.209,-23.314 306.9,-31.5283 310.562,-25.5626"/>
</g>
<!-- Node8&#45;&gt;Node9 -->
<g id="edge22" class="edge"><title>Node8&#45;&gt;Node9</title>
<path fill="none" stroke="midnightblue" d="M274.129,-175.061C257.99,-164.996 237.596,-152.277 223.482,-143.475"/>
<polygon fill="midnightblue" stroke="midnightblue" points="272.722,-178.309 283.06,-180.631 276.427,-172.369 272.722,-178.309"/>
</g>
<!-- Node9&#45;&gt;Node4 -->
<g id="edge26" class="edge"><title>Node9&#45;&gt;Node4</title>
<path fill="none" stroke="midnightblue" d="M180.501,-149.056C168.748,-157.225 155.378,-167.971 145.686,-180 114.115,-219.188 94.0318,-277.101 86.7563,-300.562"/>
<polygon fill="midnightblue" stroke="midnightblue" points="182.707,-151.791 189.086,-143.332 178.824,-145.967 182.707,-151.791"/>
</g>
<!-- Node9&#45;&gt;Node5 -->
<g id="edge28" class="edge"><title>Node9&#45;&gt;Node5</title>
<path fill="none" stroke="midnightblue" d="M219.358,-152.641C231.404,-177.887 247.395,-220.81 251.74,-240.528"/>
<polygon fill="midnightblue" stroke="midnightblue" points="222.435,-150.97 214.806,-143.618 216.185,-154.123 222.435,-150.97"/>
</g>
<!-- Node9&#45;&gt;Node6 -->
<g id="edge24" class="edge"><title>Node9&#45;&gt;Node6</title>
<path fill="none" stroke="midnightblue" d="M228.056,-114.251C240.629,-104.396 256.151,-92.23 267.07,-83.6719"/>
<polygon fill="midnightblue" stroke="midnightblue" points="225.627,-111.707 219.916,-120.631 229.946,-117.217 225.627,-111.707"/>
</g>
</g>
</svg>
