<?xml version="1.0" encoding="UTF-8" standalone="no"?>
<!DOCTYPE svg PUBLIC "-//W3C//DTD SVG 1.1//EN"
 "http://www.w3.org/Graphics/SVG/1.1/DTD/svg11.dtd">
<!-- Generated by graphviz version 2.28.0 (20121015.0031)
 -->
<!-- Title: src/fae/ratio.c Pages: 1 -->
<svg width="551pt" height="212pt"
 viewBox="0.00 0.00 551.00 212.00" xmlns="http://www.w3.org/2000/svg" xmlns:xlink="http://www.w3.org/1999/xlink">
<g id="graph1" class="graph" transform="scale(1 1) rotate(0) translate(4 208)">
<title>src/fae/ratio.c</title>
<!-- Node1 -->
<g id="node1" class="node"><title>Node1</title>
<polygon fill="#bfbfbf" stroke="black" points="102.568,-180.695 102.568,-203.305 191.432,-203.305 191.432,-180.695 102.568,-180.695"/>
<text text-anchor="middle" x="147" y="-188.305" font-family="Futura" font-size="11.00">src/fae/ratio.c</text>
</g>
<!-- Node2 -->
<g id="node3" class="node"><title>Node2</title>
<a xlink:href="ratio_8h.html" target="_top" xlink:title="fae/ratio.h">
<polygon fill="none" stroke="black" points="0.884033,-120.695 0.884033,-143.305 71.116,-143.305 71.116,-120.695 0.884033,-120.695"/>
<text text-anchor="middle" x="36" y="-128.305" font-family="Futura" font-size="11.00">fae/ratio.h</text>
</a>
</g>
<!-- Node1&#45;&gt;Node2 -->
<g id="edge2" class="edge"><title>Node1&#45;&gt;Node2</title>
<path fill="none" stroke="midnightblue" d="M127.155,-180.631C109.9,-171.614 84.6694,-158.431 65.125,-148.218"/>
<polygon fill="midnightblue" stroke="midnightblue" points="66.5309,-145.004 56.047,-143.475 63.2891,-151.208 66.5309,-145.004"/>
</g>
<!-- Node4 -->
<g id="node7" class="node"><title>Node4</title>
<a xlink:href="dynamic_8h.html" target="_top" xlink:title="fae/dynamic.h">
<polygon fill="none" stroke="black" points="102.439,-120.695 102.439,-143.305 191.561,-143.305 191.561,-120.695 102.439,-120.695"/>
<text text-anchor="middle" x="147" y="-128.305" font-family="Futura" font-size="11.00">fae/dynamic.h</text>
</a>
</g>
<!-- Node1&#45;&gt;Node4 -->
<g id="edge6" class="edge"><title>Node1&#45;&gt;Node4</title>
<path fill="none" stroke="midnightblue" d="M147,-180.631C147,-173.218 147,-162.989 147,-153.91"/>
<polygon fill="midnightblue" stroke="midnightblue" points="150.5,-153.672 147,-143.672 143.5,-153.672 150.5,-153.672"/>
</g>
<!-- Node7 -->
<g id="node14" class="node"><title>Node7</title>
<a xlink:href="util_8h.html" target="_top" xlink:title="fae/util.h">
<polygon fill="none" stroke="red" points="280.141,-120.695 280.141,-143.305 341.859,-143.305 341.859,-120.695 280.141,-120.695"/>
<text text-anchor="middle" x="311" y="-128.305" font-family="Futura" font-size="11.00">fae/util.h</text>
</a>
</g>
<!-- Node1&#45;&gt;Node7 -->
<g id="edge14" class="edge"><title>Node1&#45;&gt;Node7</title>
<path fill="none" stroke="midnightblue" d="M176.32,-180.631C203.057,-171.175 242.751,-157.137 272.125,-146.748"/>
<polygon fill="midnightblue" stroke="midnightblue" points="273.397,-150.011 281.658,-143.377 271.063,-143.412 273.397,-150.011"/>
</g>
<!-- Node3 -->
<g id="node5" class="node"><title>Node3</title>
<polygon fill="none" stroke="#bfbfbf" points="-0.652588,-60.6953 -0.652588,-83.3047 60.6526,-83.3047 60.6526,-60.6953 -0.652588,-60.6953"/>
<text text-anchor="middle" x="30" y="-68.3047" font-family="Futura" font-size="11.00">fae/std.h</text>
</g>
<!-- Node2&#45;&gt;Node3 -->
<g id="edge4" class="edge"><title>Node2&#45;&gt;Node3</title>
<path fill="none" stroke="midnightblue" d="M34.9273,-120.631C34.1605,-113.218 33.1023,-102.989 32.1631,-93.9096"/>
<polygon fill="midnightblue" stroke="midnightblue" points="35.6145,-93.2586 31.104,-83.6719 28.6516,-93.979 35.6145,-93.2586"/>
</g>
<!-- Node5 -->
<g id="node9" class="node"><title>Node5</title>
<a xlink:href="fae_2fae_8h.html" target="_top" xlink:title="fae.h">
<polygon fill="none" stroke="red" points="100.23,-0.695312 100.23,-23.3047 141.77,-23.3047 141.77,-0.695312 100.23,-0.695312"/>
<text text-anchor="middle" x="121" y="-8.30469" font-family="Futura" font-size="11.00">fae.h</text>
</a>
</g>
<!-- Node4&#45;&gt;Node5 -->
<g id="edge8" class="edge"><title>Node4&#45;&gt;Node5</title>
<path fill="none" stroke="midnightblue" d="M134.497,-120.49C125.201,-111.801 113.255,-98.5614 108,-84 101.976,-67.3062 106.596,-47.3533 111.926,-32.8565"/>
<polygon fill="midnightblue" stroke="midnightblue" points="115.252,-33.9706 115.792,-23.3895 108.771,-31.3246 115.252,-33.9706"/>
</g>
<!-- Node6 -->
<g id="node11" class="node"><title>Node6</title>
<a xlink:href="string_8h.html" target="_top" xlink:title="fae/string.h">
<polygon fill="none" stroke="black" points="116.827,-60.6953 116.827,-83.3047 191.173,-83.3047 191.173,-60.6953 116.827,-60.6953"/>
<text text-anchor="middle" x="154" y="-68.3047" font-family="Futura" font-size="11.00">fae/string.h</text>
</a>
</g>
<!-- Node4&#45;&gt;Node6 -->
<g id="edge10" class="edge"><title>Node4&#45;&gt;Node6</title>
<path fill="none" stroke="midnightblue" d="M148.251,-120.631C149.156,-113.137 150.408,-102.764 151.513,-93.6107"/>
<polygon fill="midnightblue" stroke="midnightblue" points="154.989,-94.0192 152.712,-83.6719 148.039,-93.1804 154.989,-94.0192"/>
</g>
<!-- Node6&#45;&gt;Node5 -->
<g id="edge12" class="edge"><title>Node6&#45;&gt;Node5</title>
<path fill="none" stroke="midnightblue" d="M148.1,-60.6308C143.651,-52.8107 137.418,-41.8562 132.052,-32.4241"/>
<polygon fill="midnightblue" stroke="midnightblue" points="135.059,-30.6327 127.072,-23.6719 128.975,-34.0944 135.059,-30.6327"/>
</g>
<!-- Node8 -->
<g id="node16" class="node"><title>Node8</title>
<a xlink:href="arch_8h.html" target="_top" xlink:title="fae/util/arch.h">
<polygon fill="none" stroke="black" points="209.205,-60.6953 209.205,-83.3047 298.795,-83.3047 298.795,-60.6953 209.205,-60.6953"/>
<text text-anchor="middle" x="254" y="-68.3047" font-family="Futura" font-size="11.00">fae/util/arch.h</text>
</a>
</g>
<!-- Node7&#45;&gt;Node8 -->
<g id="edge16" class="edge"><title>Node7&#45;&gt;Node8</title>
<path fill="none" stroke="midnightblue" d="M300.81,-120.631C292.724,-112.403 281.229,-100.707 271.654,-90.9633"/>
<polygon fill="midnightblue" stroke="midnightblue" points="273.994,-88.3509 264.488,-83.6719 269.001,-93.2575 273.994,-88.3509"/>
</g>
<!-- Node9 -->
<g id="node18" class="node"><title>Node9</title>
<a xlink:href="alignof_8h.html" target="_top" xlink:title="fae/util/alignof.h">
<polygon fill="none" stroke="black" points="317.007,-60.6953 317.007,-83.3047 418.993,-83.3047 418.993,-60.6953 317.007,-60.6953"/>
<text text-anchor="middle" x="368" y="-68.3047" font-family="Futura" font-size="11.00">fae/util/alignof.h</text>
</a>
</g>
<!-- Node7&#45;&gt;Node9 -->
<g id="edge18" class="edge"><title>Node7&#45;&gt;Node9</title>
<path fill="none" stroke="midnightblue" d="M321.19,-120.631C329.276,-112.403 340.771,-100.707 350.346,-90.9633"/>
<polygon fill="midnightblue" stroke="midnightblue" points="352.999,-93.2575 357.512,-83.6719 348.006,-88.3509 352.999,-93.2575"/>
</g>
<!-- Node10 -->
<g id="node20" class="node"><title>Node10</title>
<a xlink:href="minmax_8h.html" target="_top" xlink:title="fae/util/minmax.h">
<polygon fill="none" stroke="red" points="436.837,-60.6953 436.837,-83.3047 543.163,-83.3047 543.163,-60.6953 436.837,-60.6953"/>
<text text-anchor="middle" x="490" y="-68.3047" font-family="Futura" font-size="11.00">fae/util/minmax.h</text>
</a>
</g>
<!-- Node7&#45;&gt;Node10 -->
<g id="edge20" class="edge"><title>Node7&#45;&gt;Node10</title>
<path fill="none" stroke="midnightblue" d="M342.179,-120.897C371.59,-111.367 415.884,-97.0152 448.317,-86.5061"/>
<polygon fill="midnightblue" stroke="midnightblue" points="449.538,-89.7897 457.973,-83.3776 447.381,-83.1305 449.538,-89.7897"/>
</g>
</g>
</svg>
