<?xml version="1.0" encoding="UTF-8" standalone="no"?>
<!DOCTYPE svg PUBLIC "-//W3C//DTD SVG 1.1//EN"
 "http://www.w3.org/Graphics/SVG/1.1/DTD/svg11.dtd">
<!-- Generated by graphviz version 2.28.0 (20121015.0031)
 -->
<!-- Title: include/fa/ratio.h Pages: 1 -->
<svg width="724pt" height="392pt"
 viewBox="0.00 0.00 724.00 392.00" xmlns="http://www.w3.org/2000/svg" xmlns:xlink="http://www.w3.org/1999/xlink">
<g id="graph1" class="graph" transform="scale(1 1) rotate(0) translate(4 388)">
<title>include/fa/ratio.h</title>
<!-- Node1 -->
<g id="node1" class="node"><title>Node1</title>
<polygon fill="#bfbfbf" stroke="black" points="220.364,-360.695 220.364,-383.305 325.636,-383.305 325.636,-360.695 220.364,-360.695"/>
<text text-anchor="middle" x="273" y="-368.305" font-family="Futura" font-size="11.00">include/fa/ratio.h</text>
</g>
<!-- Node2 -->
<g id="node3" class="node"><title>Node2</title>
<a xlink:href="time_8h.html" target="_top" xlink:title="include/fa/time.h">
<polygon fill="none" stroke="black" points="221.594,-300.695 221.594,-323.305 324.406,-323.305 324.406,-300.695 221.594,-300.695"/>
<text text-anchor="middle" x="273" y="-308.305" font-family="Futura" font-size="11.00">include/fa/time.h</text>
</a>
</g>
<!-- Node1&#45;&gt;Node2 -->
<g id="edge2" class="edge"><title>Node1&#45;&gt;Node2</title>
<path fill="none" stroke="midnightblue" d="M273,-350.459C273,-341.411 273,-331.16 273,-323.672"/>
<polygon fill="midnightblue" stroke="midnightblue" points="269.5,-350.631 273,-360.631 276.5,-350.631 269.5,-350.631"/>
</g>
<!-- Node3 -->
<g id="node5" class="node"><title>Node3</title>
<a xlink:href="fa_2fa_8h.html" target="_top" xlink:title="include/fa/fa.h">
<polygon fill="none" stroke="red" points="226.846,-240.695 226.846,-263.305 319.154,-263.305 319.154,-240.695 226.846,-240.695"/>
<text text-anchor="middle" x="273" y="-248.305" font-family="Futura" font-size="11.00">include/fa/fa.h</text>
</a>
</g>
<!-- Node2&#45;&gt;Node3 -->
<g id="edge4" class="edge"><title>Node2&#45;&gt;Node3</title>
<path fill="none" stroke="midnightblue" d="M266.512,-290.459C265.936,-281.411 266.309,-271.16 267.63,-263.672"/>
<polygon fill="midnightblue" stroke="midnightblue" points="263.062,-291.097 267.684,-300.631 270.016,-290.296 263.062,-291.097"/>
</g>
<!-- Node5 -->
<g id="node10" class="node"><title>Node5</title>
<a xlink:href="midi_8h.html" target="_top" xlink:title="include/fa/midi.h">
<polygon fill="none" stroke="black" points="17.4727,-0.695312 17.4727,-23.3047 120.527,-23.3047 120.527,-0.695312 17.4727,-0.695312"/>
<text text-anchor="middle" x="69" y="-8.30469" font-family="Futura" font-size="11.00">include/fa/midi.h</text>
</a>
</g>
<!-- Node2&#45;&gt;Node5 -->
<g id="edge32" class="edge"><title>Node2&#45;&gt;Node5</title>
<path fill="none" stroke="midnightblue" d="M211.287,-310.347C130.76,-305.857 0,-284.481 0,-193 0,-193 0,-193 0,-131 0,-85.9103 38.0081,-42.7512 57.6061,-23.4943"/>
<polygon fill="midnightblue" stroke="midnightblue" points="211.172,-313.845 221.33,-310.835 211.511,-306.854 211.172,-313.845"/>
</g>
<!-- Node7 -->
<g id="node15" class="node"><title>Node7</title>
<a xlink:href="signal_8h.html" target="_top" xlink:title="include/fa/signal.h">
<polygon fill="none" stroke="red" points="254.283,-120.695 254.283,-143.305 365.717,-143.305 365.717,-120.695 254.283,-120.695"/>
<text text-anchor="middle" x="310" y="-128.305" font-family="Futura" font-size="11.00">include/fa/signal.h</text>
</a>
</g>
<!-- Node2&#45;&gt;Node7 -->
<g id="edge34" class="edge"><title>Node2&#45;&gt;Node7</title>
<path fill="none" stroke="midnightblue" d="M334.612,-308.714C405.307,-302.395 518.369,-280.154 572,-204 578.142,-195.279 578.844,-188.181 572,-180 546.24,-149.207 434.757,-138.563 365.78,-134.902"/>
<polygon fill="midnightblue" stroke="midnightblue" points="334.184,-305.238 324.5,-309.536 334.751,-312.215 334.184,-305.238"/>
</g>
<!-- Node10 -->
<g id="node28" class="node"><title>Node10</title>
<a xlink:href="util_8h.html" target="_top" xlink:title="include/fa/util.h">
<polygon fill="none" stroke="black" points="619.62,-240.695 619.62,-263.305 716.38,-263.305 716.38,-240.695 619.62,-240.695"/>
<text text-anchor="middle" x="668" y="-248.305" font-family="Futura" font-size="11.00">include/fa/util.h</text>
</a>
</g>
<!-- Node2&#45;&gt;Node10 -->
<g id="edge36" class="edge"><title>Node2&#45;&gt;Node10</title>
<path fill="none" stroke="midnightblue" d="M334.378,-302.999C401.267,-294.125 511.395,-279.064 606,-264 610.318,-263.312 614.801,-262.571 619.291,-261.81"/>
<polygon fill="midnightblue" stroke="midnightblue" points="333.881,-299.534 324.426,-304.316 334.799,-306.474 333.881,-299.534"/>
</g>
<!-- Node3&#45;&gt;Node2 -->
<g id="edge30" class="edge"><title>Node3&#45;&gt;Node2</title>
<path fill="none" stroke="midnightblue" d="M279.492,-273.611C280.069,-282.764 279.677,-293.137 278.316,-300.631"/>
<polygon fill="midnightblue" stroke="midnightblue" points="282.97,-273.216 278.37,-263.672 276.014,-274.001 282.97,-273.216"/>
</g>
<!-- Node4 -->
<g id="node7" class="node"><title>Node4</title>
<a xlink:href="action_8h.html" target="_top" xlink:title="include/fa/action.h">
<polygon fill="none" stroke="red" points="160.746,-60.6953 160.746,-83.3047 273.254,-83.3047 273.254,-60.6953 160.746,-60.6953"/>
<text text-anchor="middle" x="217" y="-68.3047" font-family="Futura" font-size="11.00">include/fa/action.h</text>
</a>
</g>
<!-- Node3&#45;&gt;Node4 -->
<g id="edge6" class="edge"><title>Node3&#45;&gt;Node4</title>
<path fill="none" stroke="midnightblue" d="M262.347,-231.237C247.054,-193.451 221.831,-112.159 216.882,-83.368"/>
<polygon fill="midnightblue" stroke="midnightblue" points="259.225,-232.839 266.371,-240.661 265.663,-230.089 259.225,-232.839"/>
</g>
<!-- Node6 -->
<g id="node13" class="node"><title>Node6</title>
<a xlink:href="buffer_8h.html" target="_top" xlink:title="include/fa/buffer.h">
<polygon fill="none" stroke="red" points="452.227,-180.695 452.227,-203.305 563.773,-203.305 563.773,-180.695 452.227,-180.695"/>
<text text-anchor="middle" x="508" y="-188.305" font-family="Futura" font-size="11.00">include/fa/buffer.h</text>
</a>
</g>
<!-- Node3&#45;&gt;Node6 -->
<g id="edge14" class="edge"><title>Node3&#45;&gt;Node6</title>
<path fill="none" stroke="midnightblue" d="M324.869,-238.198C367.273,-227.733 426.467,-213.123 465.955,-203.377"/>
<polygon fill="midnightblue" stroke="midnightblue" points="323.883,-234.836 315.013,-240.631 325.561,-241.633 323.883,-234.836"/>
</g>
<!-- Node3&#45;&gt;Node7 -->
<g id="edge28" class="edge"><title>Node3&#45;&gt;Node7</title>
<path fill="none" stroke="midnightblue" d="M274.159,-230.534C279.76,-205.25 293.345,-163.187 302.6,-143.618"/>
<polygon fill="midnightblue" stroke="midnightblue" points="270.688,-230.047 272.237,-240.528 277.562,-231.369 270.688,-230.047"/>
</g>
<!-- Node8 -->
<g id="node19" class="node"><title>Node8</title>
<a xlink:href="device_8h.html" target="_top" xlink:title="include/fa/device.h">
<polygon fill="none" stroke="red" points="65.8169,-120.695 65.8169,-143.305 180.183,-143.305 180.183,-120.695 65.8169,-120.695"/>
<text text-anchor="middle" x="123" y="-128.305" font-family="Futura" font-size="11.00">include/fa/device.h</text>
</a>
</g>
<!-- Node3&#45;&gt;Node8 -->
<g id="edge22" class="edge"><title>Node3&#45;&gt;Node8</title>
<path fill="none" stroke="midnightblue" d="M243.257,-235.619C227.95,-227.139 209.335,-215.927 194,-204 169.507,-184.95 144.749,-158.066 131.936,-143.452"/>
<polygon fill="midnightblue" stroke="midnightblue" points="241.843,-238.833 252.302,-240.527 245.182,-232.681 241.843,-238.833"/>
</g>
<!-- Node9 -->
<g id="node22" class="node"><title>Node9</title>
<a xlink:href="dynamic_8h.html" target="_top" xlink:title="include/fa/dynamic.h">
<polygon fill="none" stroke="black" points="309.918,-180.695 309.918,-203.305 434.082,-203.305 434.082,-180.695 309.918,-180.695"/>
<text text-anchor="middle" x="372" y="-188.305" font-family="Futura" font-size="11.00">include/fa/dynamic.h</text>
</a>
</g>
<!-- Node3&#45;&gt;Node9 -->
<g id="edge26" class="edge"><title>Node3&#45;&gt;Node9</title>
<path fill="none" stroke="midnightblue" d="M299.726,-235.342C316.98,-225.234 338.955,-212.359 354.12,-203.475"/>
<polygon fill="midnightblue" stroke="midnightblue" points="297.558,-232.556 290.699,-240.631 301.097,-238.596 297.558,-232.556"/>
</g>
<!-- Node4&#45;&gt;Node3 -->
<g id="edge8" class="edge"><title>Node4&#45;&gt;Node3</title>
<path fill="none" stroke="midnightblue" d="M227.669,-92.801C242.968,-130.615 268.187,-211.904 273.123,-240.661"/>
<polygon fill="midnightblue" stroke="midnightblue" points="230.787,-91.1908 223.642,-83.368 224.349,-93.9392 230.787,-91.1908"/>
</g>
<!-- Node4&#45;&gt;Node5 -->
<g id="edge10" class="edge"><title>Node4&#45;&gt;Node5</title>
<path fill="none" stroke="midnightblue" d="M180.93,-56.8643C154.624,-46.5553 119.554,-32.8119 95.7294,-23.475"/>
<polygon fill="midnightblue" stroke="midnightblue" points="179.953,-60.2407 190.541,-60.6308 182.507,-53.7233 179.953,-60.2407"/>
</g>
<!-- Node5&#45;&gt;Node3 -->
<g id="edge12" class="edge"><title>Node5&#45;&gt;Node3</title>
<path fill="none" stroke="midnightblue" d="M60.3635,-32.9622C50.0599,-60.0921 36.6195,-109.206 57,-144 92.5342,-204.665 174.453,-231.788 226.574,-243.267"/>
<polygon fill="midnightblue" stroke="midnightblue" points="63.7233,-33.9887 64.2145,-23.4052 57.2306,-31.3724 63.7233,-33.9887"/>
</g>
<!-- Node6&#45;&gt;Node7 -->
<g id="edge16" class="edge"><title>Node6&#45;&gt;Node7</title>
<path fill="none" stroke="midnightblue" d="M462.934,-177.799C427.31,-167.363 378.275,-153 345.425,-143.377"/>
<polygon fill="midnightblue" stroke="midnightblue" points="462.021,-181.178 472.602,-180.631 463.989,-174.461 462.021,-181.178"/>
</g>
<!-- Node7&#45;&gt;Node3 -->
<g id="edge20" class="edge"><title>Node7&#45;&gt;Node3</title>
<path fill="none" stroke="midnightblue" d="M308.799,-153.656C303.158,-179.023 289.564,-221.071 280.33,-240.528"/>
<polygon fill="midnightblue" stroke="midnightblue" points="312.278,-154.101 310.741,-143.618 305.405,-152.771 312.278,-154.101"/>
</g>
<!-- Node7&#45;&gt;Node4 -->
<g id="edge18" class="edge"><title>Node7&#45;&gt;Node4</title>
<path fill="none" stroke="midnightblue" d="M284.442,-115.061C268.303,-104.996 247.91,-92.2772 233.796,-83.475"/>
<polygon fill="midnightblue" stroke="midnightblue" points="283.036,-118.309 293.373,-120.631 286.74,-112.369 283.036,-118.309"/>
</g>
<!-- Node8&#45;&gt;Node5 -->
<g id="edge24" class="edge"><title>Node8&#45;&gt;Node5</title>
<path fill="none" stroke="midnightblue" d="M113.943,-111.21C102.41,-86.0067 82.8948,-43.3628 73.859,-23.6179"/>
<polygon fill="midnightblue" stroke="midnightblue" points="110.864,-112.892 118.208,-120.528 117.229,-109.979 110.864,-112.892"/>
</g>
</g>
</svg>
