<?xml version="1.0" encoding="UTF-8" standalone="no"?>
<!DOCTYPE svg PUBLIC "-//W3C//DTD SVG 1.1//EN"
 "http://www.w3.org/Graphics/SVG/1.1/DTD/svg11.dtd">
<!-- Generated by graphviz version 2.28.0 (20121015.0031)
 -->
<!-- Title: include/fa/atomic/ring_buffer.h Pages: 1 -->
<svg width="951pt" height="226pt"
 viewBox="0.00 0.00 951.00 226.00" xmlns="http://www.w3.org/2000/svg" xmlns:xlink="http://www.w3.org/1999/xlink">
<g id="graph1" class="graph" transform="scale(1 1) rotate(0) translate(4 222)">
<title>include/fa/atomic/ring_buffer.h</title>
<!-- Node1 -->
<g id="node1" class="node"><title>Node1</title>
<polygon fill="#bfbfbf" stroke="black" points="484.419,-180.391 484.419,-217.609 615.581,-217.609 615.581,-180.391 484.419,-180.391"/>
<text text-anchor="start" x="492.419" y="-202.609" font-family="Futura" font-size="11.00">include/fa/atomic/ring</text>
<text text-anchor="middle" x="550" y="-188" font-family="Futura" font-size="11.00">_buffer.h</text>
</g>
<!-- Node2 -->
<g id="node3" class="node"><title>Node2</title>
<a xlink:href="fa_2fa_8h.html" target="_top" xlink:title="include/fa/fa.h">
<polygon fill="none" stroke="red" points="503.846,-120.695 503.846,-143.305 596.154,-143.305 596.154,-120.695 503.846,-120.695"/>
<text text-anchor="middle" x="550" y="-128.305" font-family="Futura" font-size="11.00">include/fa/fa.h</text>
</a>
</g>
<!-- Node1&#45;&gt;Node2 -->
<g id="edge2" class="edge"><title>Node1&#45;&gt;Node2</title>
<path fill="none" stroke="midnightblue" d="M550,-170.06C550,-160.7 550,-150.825 550,-143.624"/>
<polygon fill="midnightblue" stroke="midnightblue" points="546.5,-170.238 550,-180.238 553.5,-170.238 546.5,-170.238"/>
</g>
<!-- Node3 -->
<g id="node5" class="node"><title>Node3</title>
<a xlink:href="action_8h.html" target="_top" xlink:title="include/fa/action.h">
<polygon fill="none" stroke="red" points="-0.253906,-0.695312 -0.253906,-23.3047 112.254,-23.3047 112.254,-0.695312 -0.253906,-0.695312"/>
<text text-anchor="middle" x="56" y="-8.30469" font-family="Futura" font-size="11.00">include/fa/action.h</text>
</a>
</g>
<!-- Node2&#45;&gt;Node3 -->
<g id="edge4" class="edge"><title>Node2&#45;&gt;Node3</title>
<path fill="none" stroke="midnightblue" d="M493.534,-128.792C374.697,-123.481 107.485,-108.585 75,-84 55.6648,-69.3672 49.6649,-39.3736 51.1028,-23.4578"/>
<polygon fill="midnightblue" stroke="midnightblue" points="493.393,-132.289 503.537,-129.231 493.701,-125.295 493.393,-132.289"/>
</g>
<!-- Node4 -->
<g id="node8" class="node"><title>Node4</title>
<a xlink:href="atomic_8h.html" target="_top" xlink:title="include/fa/atomic.h">
<polygon fill="none" stroke="black" points="93.3738,-60.6953 93.3738,-83.3047 208.626,-83.3047 208.626,-60.6953 93.3738,-60.6953"/>
<text text-anchor="middle" x="151" y="-68.3047" font-family="Futura" font-size="11.00">include/fa/atomic.h</text>
</a>
</g>
<!-- Node2&#45;&gt;Node4 -->
<g id="edge8" class="edge"><title>Node2&#45;&gt;Node4</title>
<path fill="none" stroke="midnightblue" d="M493.639,-124.316C425.606,-115.535 308.172,-99.4144 208,-84 206.622,-83.788 205.229,-83.5717 203.825,-83.352"/>
<polygon fill="midnightblue" stroke="midnightblue" points="493.353,-127.808 503.717,-125.609 494.244,-120.865 493.353,-127.808"/>
</g>
<!-- Node5 -->
<g id="node11" class="node"><title>Node5</title>
<a xlink:href="buffer_8h.html" target="_top" xlink:title="include/fa/buffer.h">
<polygon fill="none" stroke="red" points="226.227,-60.6953 226.227,-83.3047 337.773,-83.3047 337.773,-60.6953 226.227,-60.6953"/>
<text text-anchor="middle" x="282" y="-68.3047" font-family="Futura" font-size="11.00">include/fa/buffer.h</text>
</a>
</g>
<!-- Node2&#45;&gt;Node5 -->
<g id="edge12" class="edge"><title>Node2&#45;&gt;Node5</title>
<path fill="none" stroke="midnightblue" d="M493.608,-118.796C445.127,-108.304 375.963,-93.3353 330.065,-83.4022"/>
<polygon fill="midnightblue" stroke="midnightblue" points="493.11,-122.269 503.624,-120.963 494.591,-115.427 493.11,-122.269"/>
</g>
<!-- Node6 -->
<g id="node13" class="node"><title>Node6</title>
<a xlink:href="device_8h.html" target="_top" xlink:title="include/fa/device.h">
<polygon fill="none" stroke="red" points="355.817,-60.6953 355.817,-83.3047 470.183,-83.3047 470.183,-60.6953 355.817,-60.6953"/>
<text text-anchor="middle" x="413" y="-68.3047" font-family="Futura" font-size="11.00">include/fa/device.h</text>
</a>
</g>
<!-- Node2&#45;&gt;Node6 -->
<g id="edge14" class="edge"><title>Node2&#45;&gt;Node6</title>
<path fill="none" stroke="midnightblue" d="M516.288,-116.728C491.974,-106.434 459.7,-92.7708 437.743,-83.475"/>
<polygon fill="midnightblue" stroke="midnightblue" points="514.934,-119.955 525.507,-120.631 517.663,-113.509 514.934,-119.955"/>
</g>
<!-- Node7 -->
<g id="node15" class="node"><title>Node7</title>
<a xlink:href="dynamic_8h.html" target="_top" xlink:title="include/fa/dynamic.h">
<polygon fill="none" stroke="black" points="487.918,-60.6953 487.918,-83.3047 612.082,-83.3047 612.082,-60.6953 487.918,-60.6953"/>
<text text-anchor="middle" x="550" y="-68.3047" font-family="Futura" font-size="11.00">include/fa/dynamic.h</text>
</a>
</g>
<!-- Node2&#45;&gt;Node7 -->
<g id="edge16" class="edge"><title>Node2&#45;&gt;Node7</title>
<path fill="none" stroke="midnightblue" d="M550,-110.459C550,-101.411 550,-91.1602 550,-83.6719"/>
<polygon fill="midnightblue" stroke="midnightblue" points="546.5,-110.631 550,-120.631 553.5,-110.631 546.5,-110.631"/>
</g>
<!-- Node8 -->
<g id="node17" class="node"><title>Node8</title>
<a xlink:href="error_8h.html" target="_top" xlink:title="include/fa/error.h">
<polygon fill="none" stroke="red" points="629.598,-60.6953 629.598,-83.3047 736.402,-83.3047 736.402,-60.6953 629.598,-60.6953"/>
<text text-anchor="middle" x="683" y="-68.3047" font-family="Futura" font-size="11.00">include/fa/error.h</text>
</a>
</g>
<!-- Node2&#45;&gt;Node8 -->
<g id="edge18" class="edge"><title>Node2&#45;&gt;Node8</title>
<path fill="none" stroke="midnightblue" d="M577.713,-116.316C599.97,-106.072 630.963,-92.6474 653.645,-83.475"/>
<polygon fill="midnightblue" stroke="midnightblue" points="576.045,-113.232 568.462,-120.631 579.004,-119.576 576.045,-113.232"/>
</g>
<!-- Node9 -->
<g id="node20" class="node"><title>Node9</title>
<a xlink:href="graph_8h.html" target="_top" xlink:title="include/fa/graph.h">
<polygon fill="none" stroke="black" points="830.937,-0.695312 830.937,-23.3047 943.063,-23.3047 943.063,-0.695312 830.937,-0.695312"/>
<text text-anchor="middle" x="887" y="-8.30469" font-family="Futura" font-size="11.00">include/fa/graph.h</text>
</a>
</g>
<!-- Node2&#45;&gt;Node9 -->
<g id="edge22" class="edge"><title>Node2&#45;&gt;Node9</title>
<path fill="none" stroke="midnightblue" d="M606.611,-128.608C682.582,-124.407 811.969,-113.171 849,-84 868.141,-68.9218 874.735,-39.1196 880.227,-23.3491"/>
<polygon fill="midnightblue" stroke="midnightblue" points="606.062,-125.132 596.26,-129.155 606.431,-132.122 606.062,-125.132"/>
</g>
<!-- Node10 -->
<g id="node23" class="node"><title>Node10</title>
<a xlink:href="list_8h.html" target="_top" xlink:title="include/fa/list.h">
<polygon fill="none" stroke="red" points="754.385,-60.6953 754.385,-83.3047 849.615,-83.3047 849.615,-60.6953 754.385,-60.6953"/>
<text text-anchor="middle" x="802" y="-68.3047" font-family="Futura" font-size="11.00">include/fa/list.h</text>
</a>
</g>
<!-- Node2&#45;&gt;Node10 -->
<g id="edge26" class="edge"><title>Node2&#45;&gt;Node10</title>
<path fill="none" stroke="midnightblue" d="M599.542,-118.286C644.399,-107.605 709.921,-92.562 754.228,-82.7964"/>
<polygon fill="midnightblue" stroke="midnightblue" points="598.649,-114.901 589.737,-120.631 600.276,-121.709 598.649,-114.901"/>
</g>
<!-- Node3&#45;&gt;Node2 -->
<g id="edge6" class="edge"><title>Node3&#45;&gt;Node2</title>
<path fill="none" stroke="midnightblue" d="M65.4529,-33.2302C70.2517,-49.6566 77.1391,-71.9965 93,-84 125.541,-108.627 393.607,-123.532 503.459,-128.819"/>
<polygon fill="midnightblue" stroke="midnightblue" points="68.7483,-32.0341 62.5277,-23.4578 62.0423,-34.0415 68.7483,-32.0341"/>
</g>
<!-- Node4&#45;&gt;Node2 -->
<g id="edge10" class="edge"><title>Node4&#45;&gt;Node2</title>
<path fill="none" stroke="midnightblue" d="M218.907,-82.8942C221.305,-83.2722 223.675,-83.6422 226,-84 324.966,-99.2289 440.782,-115.147 503.75,-123.996"/>
<polygon fill="midnightblue" stroke="midnightblue" points="219.362,-79.4226 208.935,-81.3054 218.26,-86.3354 219.362,-79.4226"/>
</g>
<!-- Node8&#45;&gt;Node2 -->
<g id="edge20" class="edge"><title>Node8&#45;&gt;Node2</title>
<path fill="none" stroke="midnightblue" d="M655.029,-87.8023C632.706,-98.0705 601.711,-111.491 579.094,-120.631"/>
<polygon fill="midnightblue" stroke="midnightblue" points="656.729,-90.8716 664.315,-83.475 653.772,-84.5267 656.729,-90.8716"/>
</g>
<!-- Node9&#45;&gt;Node2 -->
<g id="edge24" class="edge"><title>Node9&#45;&gt;Node2</title>
<path fill="none" stroke="midnightblue" d="M891.42,-33.5104C889.821,-49.7778 882.552,-71.749 867,-84 826.315,-116.05 674.15,-126.45 596.288,-129.656"/>
<polygon fill="midnightblue" stroke="midnightblue" points="894.922,-33.4266 891.652,-23.3491 887.924,-33.2664 894.922,-33.4266"/>
</g>
<!-- Node10&#45;&gt;Node2 -->
<g id="edge30" class="edge"><title>Node10&#45;&gt;Node2</title>
<path fill="none" stroke="midnightblue" d="M752.532,-85.6961C707.136,-96.5063 640.53,-111.794 596.19,-121.552"/>
<polygon fill="midnightblue" stroke="midnightblue" points="753.538,-89.0545 762.449,-83.3246 751.909,-82.2464 753.538,-89.0545"/>
</g>
<!-- Node10&#45;&gt;Node3 -->
<g id="edge28" class="edge"><title>Node10&#45;&gt;Node3</title>
<path fill="none" stroke="midnightblue" d="M744.195,-60.0399C503.722,-29.294 228.845,-18.1296 112.496,-14.5108"/>
<polygon fill="midnightblue" stroke="midnightblue" points="743.809,-63.519 754.175,-61.3298 744.706,-56.5767 743.809,-63.519"/>
</g>
<!-- Node10&#45;&gt;Node9 -->
<g id="edge32" class="edge"><title>Node10&#45;&gt;Node9</title>
<path fill="none" stroke="midnightblue" d="M825.774,-54.7779C840.458,-44.7583 858.87,-32.1949 871.649,-23.475"/>
<polygon fill="midnightblue" stroke="midnightblue" points="823.484,-52.1033 817.196,-60.6308 827.429,-57.8854 823.484,-52.1033"/>
</g>
</g>
</svg>
