<?xml version="1.0" encoding="UTF-8" standalone="no"?>
<!DOCTYPE svg PUBLIC "-//W3C//DTD SVG 1.1//EN"
 "http://www.w3.org/Graphics/SVG/1.1/DTD/svg11.dtd">
<!-- Generated by graphviz version 2.28.0 (20121015.0031)
 -->
<!-- Title: src/fae/atomic/ring_buffer.c Pages: 1 -->
<svg width="409pt" height="346pt"
 viewBox="0.00 0.00 409.00 346.00" xmlns="http://www.w3.org/2000/svg" xmlns:xlink="http://www.w3.org/1999/xlink">
<g id="graph1" class="graph" transform="scale(1 1) rotate(0) translate(4 342)">
<title>src/fae/atomic/ring_buffer.c</title>
<!-- Node1 -->
<g id="node1" class="node"><title>Node1</title>
<polygon fill="#bfbfbf" stroke="black" points="135.229,-300.391 135.229,-337.609 250.771,-337.609 250.771,-300.391 135.229,-300.391"/>
<text text-anchor="start" x="143.229" y="-322.609" font-family="Futura" font-size="11.00">src/fae/atomic/ring</text>
<text text-anchor="middle" x="193" y="-308" font-family="Futura" font-size="11.00">_buffer.c</text>
</g>
<!-- Node2 -->
<g id="node3" class="node"><title>Node2</title>
<polygon fill="none" stroke="#bfbfbf" points="16.4832,-0.695312 16.4832,-23.3047 157.517,-23.3047 157.517,-0.695312 16.4832,-0.695312"/>
<text text-anchor="middle" x="87" y="-8.30469" font-family="Futura" font-size="11.00">fae/atomic/ring_buffer.h</text>
</g>
<!-- Node1&#45;&gt;Node2 -->
<g id="edge2" class="edge"><title>Node1&#45;&gt;Node2</title>
<path fill="none" stroke="midnightblue" d="M135.094,-306.259C78.2443,-290.954 0,-258.071 0,-193 0,-193 0,-193 0,-131 0,-88.0096 37.8731,-50.3804 63.6427,-29.7525"/>
<polygon fill="midnightblue" stroke="midnightblue" points="66.065,-32.3044 71.8458,-23.4256 61.7898,-26.7615 66.065,-32.3044"/>
</g>
<!-- Node3 -->
<g id="node5" class="node"><title>Node3</title>
<a xlink:href="atomic_8h.html" target="_top" xlink:title="fae/atomic.h">
<polygon fill="none" stroke="black" points="51.8943,-240.695 51.8943,-263.305 132.106,-263.305 132.106,-240.695 51.8943,-240.695"/>
<text text-anchor="middle" x="92" y="-248.305" font-family="Futura" font-size="11.00">fae/atomic.h</text>
</a>
</g>
<!-- Node1&#45;&gt;Node3 -->
<g id="edge4" class="edge"><title>Node1&#45;&gt;Node3</title>
<path fill="none" stroke="midnightblue" d="M165.401,-300.238C150.214,-290.464 131.52,-278.434 116.799,-268.96"/>
<polygon fill="midnightblue" stroke="midnightblue" points="118.517,-265.903 108.213,-263.434 114.728,-271.789 118.517,-265.903"/>
</g>
<!-- Node6 -->
<g id="node13" class="node"><title>Node6</title>
<a xlink:href="buffer_8h.html" target="_top" xlink:title="fae/buffer.h">
<polygon fill="none" stroke="black" points="154.747,-240.695 154.747,-263.305 231.253,-263.305 231.253,-240.695 154.747,-240.695"/>
<text text-anchor="middle" x="193" y="-248.305" font-family="Futura" font-size="11.00">fae/buffer.h</text>
</a>
</g>
<!-- Node1&#45;&gt;Node6 -->
<g id="edge14" class="edge"><title>Node1&#45;&gt;Node6</title>
<path fill="none" stroke="midnightblue" d="M193,-300.238C193,-292.084 193,-282.359 193,-273.859"/>
<polygon fill="midnightblue" stroke="midnightblue" points="196.5,-273.624 193,-263.624 189.5,-273.624 196.5,-273.624"/>
</g>
<!-- Node8 -->
<g id="node20" class="node"><title>Node8</title>
<a xlink:href="string_8h.html" target="_top" xlink:title="fae/string.h">
<polygon fill="none" stroke="black" points="326.827,-180.695 326.827,-203.305 401.173,-203.305 401.173,-180.695 326.827,-180.695"/>
<text text-anchor="middle" x="364" y="-188.305" font-family="Futura" font-size="11.00">fae/string.h</text>
</a>
</g>
<!-- Node1&#45;&gt;Node8 -->
<g id="edge34" class="edge"><title>Node1&#45;&gt;Node8</title>
<path fill="none" stroke="midnightblue" d="M209.833,-300.239C226.255,-283.494 252.432,-258.304 278,-240 295.001,-227.829 315.496,-216.513 332.213,-208.036"/>
<polygon fill="midnightblue" stroke="midnightblue" points="334.168,-210.973 341.565,-203.388 331.052,-204.705 334.168,-210.973"/>
</g>
<!-- Node10 -->
<g id="node28" class="node"><title>Node10</title>
<a xlink:href="util_8h.html" target="_top" xlink:title="fae/util.h">
<polygon fill="none" stroke="red" points="287.141,-240.695 287.141,-263.305 348.859,-263.305 348.859,-240.695 287.141,-240.695"/>
<text text-anchor="middle" x="318" y="-248.305" font-family="Futura" font-size="11.00">fae/util.h</text>
</a>
</g>
<!-- Node1&#45;&gt;Node10 -->
<g id="edge36" class="edge"><title>Node1&#45;&gt;Node10</title>
<path fill="none" stroke="midnightblue" d="M227.157,-300.238C246.485,-290.188 270.402,-277.751 288.843,-268.162"/>
<polygon fill="midnightblue" stroke="midnightblue" points="290.677,-271.153 297.934,-263.434 287.447,-264.943 290.677,-271.153"/>
</g>
<!-- Node4 -->
<g id="node7" class="node"><title>Node4</title>
<a xlink:href="fae_2fae_8h.html" target="_top" xlink:title="fae.h">
<polygon fill="none" stroke="red" points="153.23,-60.6953 153.23,-83.3047 194.77,-83.3047 194.77,-60.6953 153.23,-60.6953"/>
<text text-anchor="middle" x="174" y="-68.3047" font-family="Futura" font-size="11.00">fae.h</text>
</a>
</g>
<!-- Node3&#45;&gt;Node4 -->
<g id="edge6" class="edge"><title>Node3&#45;&gt;Node4</title>
<path fill="none" stroke="midnightblue" d="M79.5983,-240.618C68.9507,-226.541 57.8648,-200.771 66,-180 81.2573,-141.044 118.092,-107.781 144.699,-89.1035"/>
<polygon fill="midnightblue" stroke="midnightblue" points="146.931,-91.8204 153.283,-83.3412 143.03,-86.0083 146.931,-91.8204"/>
</g>
<!-- Node5 -->
<g id="node11" class="node"><title>Node5</title>
<polygon fill="none" stroke="#bfbfbf" points="84.3474,-180.695 84.3474,-203.305 145.653,-203.305 145.653,-180.695 84.3474,-180.695"/>
<text text-anchor="middle" x="115" y="-188.305" font-family="Futura" font-size="11.00">fae/std.h</text>
</g>
<!-- Node3&#45;&gt;Node5 -->
<g id="edge12" class="edge"><title>Node3&#45;&gt;Node5</title>
<path fill="none" stroke="midnightblue" d="M96.1119,-240.631C99.1484,-232.974 103.377,-222.311 107.063,-213.016"/>
<polygon fill="midnightblue" stroke="midnightblue" points="110.335,-214.258 110.768,-203.672 103.828,-211.677 110.335,-214.258"/>
</g>
<!-- Node4&#45;&gt;Node2 -->
<g id="edge10" class="edge"><title>Node4&#45;&gt;Node2</title>
<path fill="none" stroke="midnightblue" d="M158.446,-60.6308C145.29,-51.8601 126.22,-39.1468 111.091,-29.0605"/>
<polygon fill="midnightblue" stroke="midnightblue" points="112.975,-26.1099 102.713,-23.475 109.092,-31.9342 112.975,-26.1099"/>
</g>
<!-- Node4&#45;&gt;Node3 -->
<g id="edge8" class="edge"><title>Node4&#45;&gt;Node3</title>
<path fill="none" stroke="midnightblue" d="M164.6,-83.3412C144.696,-100.334 100.982,-136.64 84,-180 77.4537,-196.714 83.3535,-216.665 88.4081,-231.156"/>
<polygon fill="midnightblue" stroke="midnightblue" points="85.1193,-232.354 91.7492,-240.618 91.7199,-230.023 85.1193,-232.354"/>
</g>
<!-- Node6&#45;&gt;Node4 -->
<g id="edge16" class="edge"><title>Node6&#45;&gt;Node4</title>
<path fill="none" stroke="midnightblue" d="M191.896,-240.661C188.853,-212.15 180.298,-132.001 176.218,-93.78"/>
<polygon fill="midnightblue" stroke="midnightblue" points="179.648,-92.94 175.107,-83.368 172.688,-93.683 179.648,-92.94"/>
</g>
<!-- Node6&#45;&gt;Node5 -->
<g id="edge18" class="edge"><title>Node6&#45;&gt;Node5</title>
<path fill="none" stroke="midnightblue" d="M179.055,-240.631C167.481,-232.024 150.8,-219.621 137.363,-209.629"/>
<polygon fill="midnightblue" stroke="midnightblue" points="139.2,-206.633 129.087,-203.475 135.023,-212.251 139.2,-206.633"/>
</g>
<!-- Node7 -->
<g id="node17" class="node"><title>Node7</title>
<a xlink:href="pair_8h.html" target="_top" xlink:title="fae/pair.h">
<polygon fill="none" stroke="red" points="201.651,-120.695 201.651,-143.305 268.349,-143.305 268.349,-120.695 201.651,-120.695"/>
<text text-anchor="middle" x="235" y="-128.305" font-family="Futura" font-size="11.00">fae/pair.h</text>
</a>
</g>
<!-- Node6&#45;&gt;Node7 -->
<g id="edge20" class="edge"><title>Node6&#45;&gt;Node7</title>
<path fill="none" stroke="midnightblue" d="M196.727,-240.528C203.684,-220.984 218.753,-178.645 227.769,-153.316"/>
<polygon fill="midnightblue" stroke="midnightblue" points="231.165,-154.213 231.221,-143.618 224.57,-151.865 231.165,-154.213"/>
</g>
<!-- Node6&#45;&gt;Node8 -->
<g id="edge24" class="edge"><title>Node6&#45;&gt;Node8</title>
<path fill="none" stroke="midnightblue" d="M223.571,-240.631C251.57,-231.134 293.198,-217.015 323.865,-206.613"/>
<polygon fill="midnightblue" stroke="midnightblue" points="325.06,-209.904 333.406,-203.377 322.811,-203.275 325.06,-209.904"/>
</g>
<!-- Node9 -->
<g id="node23" class="node"><title>Node9</title>
<a xlink:href="type_8h.html" target="_top" xlink:title="fae/type.h">
<polygon fill="none" stroke="black" points="239.547,-180.695 239.547,-203.305 308.453,-203.305 308.453,-180.695 239.547,-180.695"/>
<text text-anchor="middle" x="274" y="-188.305" font-family="Futura" font-size="11.00">fae/type.h</text>
</a>
</g>
<!-- Node6&#45;&gt;Node9 -->
<g id="edge28" class="edge"><title>Node6&#45;&gt;Node9</title>
<path fill="none" stroke="midnightblue" d="M207.481,-240.631C219.615,-231.942 237.153,-219.384 251.175,-209.344"/>
<polygon fill="midnightblue" stroke="midnightblue" points="253.278,-212.143 259.371,-203.475 249.203,-206.451 253.278,-212.143"/>
</g>
<!-- Node7&#45;&gt;Node4 -->
<g id="edge22" class="edge"><title>Node7&#45;&gt;Node4</title>
<path fill="none" stroke="midnightblue" d="M224.094,-120.631C215.356,-112.322 202.896,-100.475 192.589,-90.6745"/>
<polygon fill="midnightblue" stroke="midnightblue" points="194.883,-88.026 185.224,-83.6719 190.059,-93.099 194.883,-88.026"/>
</g>
<!-- Node8&#45;&gt;Node4 -->
<g id="edge26" class="edge"><title>Node8&#45;&gt;Node4</title>
<path fill="none" stroke="midnightblue" d="M356.187,-180.461C344.427,-165.247 320.793,-137.087 295,-120 266.929,-101.404 230.407,-88.5046 204.861,-80.987"/>
<polygon fill="midnightblue" stroke="midnightblue" points="205.554,-77.5454 194.978,-78.1853 203.644,-84.28 205.554,-77.5454"/>
</g>
<!-- Node9&#45;&gt;Node4 -->
<g id="edge30" class="edge"><title>Node9&#45;&gt;Node4</title>
<path fill="none" stroke="midnightblue" d="M277.973,-180.387C282.786,-165.582 288.876,-138.473 277,-120 261.189,-95.406 228.977,-83.5246 204.762,-77.8859"/>
<polygon fill="midnightblue" stroke="midnightblue" points="205.449,-74.454 194.944,-75.8326 204.016,-81.3057 205.449,-74.454"/>
</g>
<!-- Node9&#45;&gt;Node7 -->
<g id="edge32" class="edge"><title>Node9&#45;&gt;Node7</title>
<path fill="none" stroke="midnightblue" d="M267.028,-180.631C261.714,-172.729 254.25,-161.628 247.863,-152.13"/>
<polygon fill="midnightblue" stroke="midnightblue" points="250.66,-150.017 242.176,-143.672 244.851,-153.923 250.66,-150.017"/>
</g>
</g>
</svg>
