<?xml version="1.0" encoding="UTF-8" standalone="no"?>
<!DOCTYPE svg PUBLIC "-//W3C//DTD SVG 1.1//EN"
 "http://www.w3.org/Graphics/SVG/1.1/DTD/svg11.dtd">
<!-- Generated by graphviz version 2.28.0 (20121015.0031)
 -->
<!-- Title: include/fae/atomic/ring_buffer.h Pages: 1 -->
<svg width="1006pt" height="240pt"
 viewBox="0.00 0.00 1006.00 240.00" xmlns="http://www.w3.org/2000/svg" xmlns:xlink="http://www.w3.org/1999/xlink">
<g id="graph1" class="graph" transform="scale(1 1) rotate(0) translate(4 236)">
<title>include/fae/atomic/ring_buffer.h</title>
<!-- Node1 -->
<g id="node1" class="node"><title>Node1</title>
<polygon fill="#bfbfbf" stroke="black" points="782.044,-194.391 782.044,-231.609 893.956,-231.609 893.956,-194.391 782.044,-194.391"/>
<text text-anchor="start" x="790.044" y="-216.609" font-family="Futura" font-size="11.00">include/fae/atomic</text>
<text text-anchor="middle" x="838" y="-202" font-family="Futura" font-size="11.00">/ring_buffer.h</text>
</g>
<!-- Node2 -->
<g id="node3" class="node"><title>Node2</title>
<a xlink:href="fae_2fae_8h.html" target="_top" xlink:title="include/fae/fae.h">
<polygon fill="none" stroke="red" points="494.761,-134.695 494.761,-157.305 599.239,-157.305 599.239,-134.695 494.761,-134.695"/>
<text text-anchor="middle" x="547" y="-142.305" font-family="Futura" font-size="11.00">include/fae/fae.h</text>
</a>
</g>
<!-- Node1&#45;&gt;Node2 -->
<g id="edge2" class="edge"><title>Node1&#45;&gt;Node2</title>
<path fill="none" stroke="midnightblue" d="M771.981,-197.253C717.501,-185.084 641.571,-168.124 593.351,-157.353"/>
<polygon fill="midnightblue" stroke="midnightblue" points="771.37,-200.703 781.892,-199.467 772.896,-193.871 771.37,-200.703"/>
</g>
<!-- Node4 -->
<g id="node8" class="node"><title>Node4</title>
<a xlink:href="ring__buffer_8c.html" target="_top" xlink:title="src/fae/atomic/ring\l_buffer.c">
<polygon fill="none" stroke="black" points="139.229,-0.390625 139.229,-37.6094 254.771,-37.6094 254.771,-0.390625 139.229,-0.390625"/>
<text text-anchor="start" x="147.229" y="-22.6094" font-family="Futura" font-size="11.00">src/fae/atomic/ring</text>
<text text-anchor="middle" x="197" y="-8" font-family="Futura" font-size="11.00">_buffer.c</text>
</a>
</g>
<!-- Node1&#45;&gt;Node4 -->
<g id="edge26" class="edge"><title>Node1&#45;&gt;Node4</title>
<path fill="none" stroke="midnightblue" d="M843.244,-184.221C847.424,-152.686 848.443,-102 819,-74 778.598,-35.5781 401.357,-24.035 254.818,-20.9838"/>
<polygon fill="midnightblue" stroke="midnightblue" points="839.782,-183.709 841.745,-194.121 846.703,-184.757 839.782,-183.709"/>
</g>
<!-- Node10 -->
<g id="node24" class="node"><title>Node10</title>
<a xlink:href="device_2buffer_8c.html" target="_top" xlink:title="src/fae/device/buffer.c">
<polygon fill="none" stroke="black" points="865.538,-134.695 865.538,-157.305 998.462,-157.305 998.462,-134.695 865.538,-134.695"/>
<text text-anchor="middle" x="932" y="-142.305" font-family="Futura" font-size="11.00">src/fae/device/buffer.c</text>
</a>
</g>
<!-- Node1&#45;&gt;Node10 -->
<g id="edge28" class="edge"><title>Node1&#45;&gt;Node10</title>
<path fill="none" stroke="midnightblue" d="M871.989,-188.497C887.392,-177.846 904.82,-165.795 916.91,-157.434"/>
<polygon fill="midnightblue" stroke="midnightblue" points="869.92,-185.672 863.686,-194.238 873.902,-191.43 869.92,-185.672"/>
</g>
<!-- Node3 -->
<g id="node5" class="node"><title>Node3</title>
<a xlink:href="atomic_8h.html" target="_top" xlink:title="include/fae/atomic.h">
<polygon fill="none" stroke="red" points="-0.668945,-74.6953 -0.668945,-97.3047 120.669,-97.3047 120.669,-74.6953 -0.668945,-74.6953"/>
<text text-anchor="middle" x="60" y="-82.3047" font-family="Futura" font-size="11.00">include/fae/atomic.h</text>
</a>
</g>
<!-- Node2&#45;&gt;Node3 -->
<g id="edge4" class="edge"><title>Node2&#45;&gt;Node3</title>
<path fill="none" stroke="midnightblue" d="M484.57,-139.485C401.11,-131.442 249.031,-115.53 120,-98 118.437,-97.7877 116.856,-97.5686 115.262,-97.344"/>
<polygon fill="midnightblue" stroke="midnightblue" points="484.36,-142.981 494.648,-140.45 485.027,-136.013 484.36,-142.981"/>
</g>
<!-- Node5 -->
<g id="node10" class="node"><title>Node5</title>
<a xlink:href="buffer_8h.html" target="_top" xlink:title="include/fae/buffer.h">
<polygon fill="none" stroke="red" points="138.184,-74.6953 138.184,-97.3047 255.816,-97.3047 255.816,-74.6953 138.184,-74.6953"/>
<text text-anchor="middle" x="197" y="-82.3047" font-family="Futura" font-size="11.00">include/fae/buffer.h</text>
</a>
</g>
<!-- Node2&#45;&gt;Node5 -->
<g id="edge10" class="edge"><title>Node2&#45;&gt;Node5</title>
<path fill="none" stroke="midnightblue" d="M484.526,-134.647C419.767,-123.916 319.313,-107.269 255.905,-96.7614"/>
<polygon fill="midnightblue" stroke="midnightblue" points="484.164,-138.135 494.601,-136.317 485.308,-131.229 484.164,-138.135"/>
</g>
<!-- Node6 -->
<g id="node13" class="node"><title>Node6</title>
<a xlink:href="device_8h.html" target="_top" xlink:title="include/fae/device.h">
<polygon fill="none" stroke="red" points="273.774,-74.6953 273.774,-97.3047 394.226,-97.3047 394.226,-74.6953 273.774,-74.6953"/>
<text text-anchor="middle" x="334" y="-82.3047" font-family="Futura" font-size="11.00">include/fae/device.h</text>
</a>
</g>
<!-- Node2&#45;&gt;Node6 -->
<g id="edge14" class="edge"><title>Node2&#45;&gt;Node6</title>
<path fill="none" stroke="midnightblue" d="M499.01,-131.932C460.648,-121.486 407.598,-107.041 372.109,-97.3771"/>
<polygon fill="midnightblue" stroke="midnightblue" points="498.352,-135.38 508.92,-134.631 500.191,-128.626 498.352,-135.38"/>
</g>
<!-- Node7 -->
<g id="node15" class="node"><title>Node7</title>
<a xlink:href="dynamic_8h.html" target="_top" xlink:title="include/fae/dynamic.h">
<polygon fill="none" stroke="red" points="411.876,-74.6953 411.876,-97.3047 542.124,-97.3047 542.124,-74.6953 411.876,-74.6953"/>
<text text-anchor="middle" x="477" y="-82.3047" font-family="Futura" font-size="11.00">include/fae/dynamic.h</text>
</a>
</g>
<!-- Node2&#45;&gt;Node7 -->
<g id="edge16" class="edge"><title>Node2&#45;&gt;Node7</title>
<path fill="none" stroke="midnightblue" d="M526.442,-127.966C514.61,-118.163 500.109,-106.148 489.88,-97.6719"/>
<polygon fill="midnightblue" stroke="midnightblue" points="524.552,-130.946 534.485,-134.631 529.018,-125.555 524.552,-130.946"/>
</g>
<!-- Node8 -->
<g id="node17" class="node"><title>Node8</title>
<a xlink:href="error_8h.html" target="_top" xlink:title="include/fae/error.h">
<polygon fill="none" stroke="red" points="560.555,-74.6953 560.555,-97.3047 673.445,-97.3047 673.445,-74.6953 560.555,-74.6953"/>
<text text-anchor="middle" x="617" y="-82.3047" font-family="Futura" font-size="11.00">include/fae/error.h</text>
</a>
</g>
<!-- Node2&#45;&gt;Node8 -->
<g id="edge18" class="edge"><title>Node2&#45;&gt;Node8</title>
<path fill="none" stroke="midnightblue" d="M561.718,-127.633C572.663,-117.816 587.387,-105.866 599.023,-97.475"/>
<polygon fill="midnightblue" stroke="midnightblue" points="559.135,-125.256 554.199,-134.631 563.904,-130.38 559.135,-125.256"/>
</g>
<!-- Node9 -->
<g id="node20" class="node"><title>Node9</title>
<a xlink:href="graph_8h.html" target="_top" xlink:title="include/fae/graph.h">
<polygon fill="none" stroke="red" points="691.894,-74.6953 691.894,-97.3047 810.106,-97.3047 810.106,-74.6953 691.894,-74.6953"/>
<text text-anchor="middle" x="751" y="-82.3047" font-family="Futura" font-size="11.00">include/fae/graph.h</text>
</a>
</g>
<!-- Node2&#45;&gt;Node9 -->
<g id="edge22" class="edge"><title>Node2&#45;&gt;Node9</title>
<path fill="none" stroke="midnightblue" d="M588.118,-131.665C623.355,-121.241 673.744,-106.959 709.184,-97.3771"/>
<polygon fill="midnightblue" stroke="midnightblue" points="586.741,-128.423 578.155,-134.631 588.738,-135.132 586.741,-128.423"/>
</g>
<!-- Node3&#45;&gt;Node2 -->
<g id="edge6" class="edge"><title>Node3&#45;&gt;Node2</title>
<path fill="none" stroke="midnightblue" d="M130.89,-97.0079C133.292,-97.351 135.667,-97.6831 138,-98 265.9,-115.376 416.446,-131.163 494.436,-139.272"/>
<polygon fill="midnightblue" stroke="midnightblue" points="131.304,-93.5314 120.903,-95.5457 130.29,-100.458 131.304,-93.5314"/>
</g>
<!-- Node3&#45;&gt;Node4 -->
<g id="edge8" class="edge"><title>Node3&#45;&gt;Node4</title>
<path fill="none" stroke="midnightblue" d="M91.1749,-70.209C111.565,-60.5349 138.306,-47.8474 159.806,-37.6469"/>
<polygon fill="midnightblue" stroke="midnightblue" points="89.5458,-67.1079 82.0114,-74.5566 92.5464,-73.4322 89.5458,-67.1079"/>
</g>
<!-- Node5&#45;&gt;Node4 -->
<g id="edge12" class="edge"><title>Node5&#45;&gt;Node4</title>
<path fill="none" stroke="midnightblue" d="M197,-64.3011C197,-55.7674 197,-45.9777 197,-37.775"/>
<polygon fill="midnightblue" stroke="midnightblue" points="193.5,-64.5566 197,-74.5566 200.5,-64.5567 193.5,-64.5566"/>
</g>
<!-- Node8&#45;&gt;Node2 -->
<g id="edge20" class="edge"><title>Node8&#45;&gt;Node2</title>
<path fill="none" stroke="midnightblue" d="M601.939,-104.675C590.984,-114.475 576.368,-126.322 564.83,-134.631"/>
<polygon fill="midnightblue" stroke="midnightblue" points="604.537,-107.038 609.49,-97.6719 599.778,-101.905 604.537,-107.038"/>
</g>
<!-- Node9&#45;&gt;Node2 -->
<g id="edge24" class="edge"><title>Node9&#45;&gt;Node2</title>
<path fill="none" stroke="midnightblue" d="M709.853,-100.344C674.608,-110.77 624.218,-125.052 588.787,-134.631"/>
<polygon fill="midnightblue" stroke="midnightblue" points="711.233,-103.585 719.819,-97.3771 709.236,-96.8758 711.233,-103.585"/>
</g>
</g>
</svg>
