<?xml version="1.0" encoding="UTF-8" standalone="no"?>
<!DOCTYPE svg PUBLIC "-//W3C//DTD SVG 1.1//EN"
 "http://www.w3.org/Graphics/SVG/1.1/DTD/svg11.dtd">
<!-- Generated by graphviz version 2.28.0 (20121015.0031)
 -->
<!-- Title: src/fae/scheduler.c Pages: 1 -->
<svg width="569pt" height="212pt"
 viewBox="0.00 0.00 569.00 212.00" xmlns="http://www.w3.org/2000/svg" xmlns:xlink="http://www.w3.org/1999/xlink">
<g id="graph1" class="graph" transform="scale(1 1) rotate(0) translate(4 208)">
<title>src/fae/scheduler.c</title>
<!-- Node1 -->
<g id="node1" class="node"><title>Node1</title>
<polygon fill="#bfbfbf" stroke="black" points="98.5393,-180.695 98.5393,-203.305 211.461,-203.305 211.461,-180.695 98.5393,-180.695"/>
<text text-anchor="middle" x="155" y="-188.305" font-family="Futura" font-size="11.00">src/fae/scheduler.c</text>
</g>
<!-- Node2 -->
<g id="node3" class="node"><title>Node2</title>
<polygon fill="none" stroke="#bfbfbf" points="-0.144531,-0.695312 -0.144531,-23.3047 94.1445,-23.3047 94.1445,-0.695312 -0.144531,-0.695312"/>
<text text-anchor="middle" x="47" y="-8.30469" font-family="Futura" font-size="11.00">fae/scheduler.h</text>
</g>
<!-- Node1&#45;&gt;Node2 -->
<g id="edge2" class="edge"><title>Node1&#45;&gt;Node2</title>
<path fill="none" stroke="midnightblue" d="M119.851,-180.644C100.384,-173.276 77.1342,-161.526 62,-144 35.3194,-113.103 38.5313,-61.6846 42.9363,-33.3274"/>
<polygon fill="midnightblue" stroke="midnightblue" points="46.405,-33.8102 44.6865,-23.3557 39.5104,-32.6001 46.405,-33.8102"/>
</g>
<!-- Node3 -->
<g id="node5" class="node"><title>Node3</title>
<polygon fill="none" stroke="#bfbfbf" points="125.715,-0.695312 125.715,-23.3047 246.285,-23.3047 246.285,-0.695312 125.715,-0.695312"/>
<text text-anchor="middle" x="186" y="-8.30469" font-family="Futura" font-size="11.00">fae/priority_queue.h</text>
</g>
<!-- Node1&#45;&gt;Node3 -->
<g id="edge4" class="edge"><title>Node1&#45;&gt;Node3</title>
<path fill="none" stroke="midnightblue" d="M157.999,-180.47C163.308,-161.4 174.336,-119.8 180,-84 182.654,-67.2246 184.187,-48.021 185.038,-33.8189"/>
<polygon fill="midnightblue" stroke="midnightblue" points="188.543,-33.8161 185.583,-23.6433 181.553,-33.4419 188.543,-33.8161"/>
</g>
<!-- Node4 -->
<g id="node7" class="node"><title>Node4</title>
<a xlink:href="thread_8h.html" target="_top" xlink:title="fae/thread.h">
<polygon fill="none" stroke="black" points="71.093,-120.695 71.093,-143.305 150.907,-143.305 150.907,-120.695 71.093,-120.695"/>
<text text-anchor="middle" x="111" y="-128.305" font-family="Futura" font-size="11.00">fae/thread.h</text>
</a>
</g>
<!-- Node1&#45;&gt;Node4 -->
<g id="edge6" class="edge"><title>Node1&#45;&gt;Node4</title>
<path fill="none" stroke="midnightblue" d="M147.134,-180.631C141.078,-172.648 132.544,-161.398 125.29,-151.837"/>
<polygon fill="midnightblue" stroke="midnightblue" points="127.928,-149.523 119.096,-143.672 122.351,-153.754 127.928,-149.523"/>
</g>
<!-- Node7 -->
<g id="node16" class="node"><title>Node7</title>
<a xlink:href="util_8h.html" target="_top" xlink:title="fae/util.h">
<polygon fill="none" stroke="red" points="309.141,-120.695 309.141,-143.305 370.859,-143.305 370.859,-120.695 309.141,-120.695"/>
<text text-anchor="middle" x="340" y="-128.305" font-family="Futura" font-size="11.00">fae/util.h</text>
</a>
</g>
<!-- Node1&#45;&gt;Node7 -->
<g id="edge18" class="edge"><title>Node1&#45;&gt;Node7</title>
<path fill="none" stroke="midnightblue" d="M188.074,-180.631C219.156,-170.886 265.762,-156.275 299.152,-145.806"/>
<polygon fill="midnightblue" stroke="midnightblue" points="300.563,-149.032 309.058,-142.701 298.469,-142.353 300.563,-149.032"/>
</g>
<!-- Node5 -->
<g id="node9" class="node"><title>Node5</title>
<a xlink:href="fae_2fae_8h.html" target="_top" xlink:title="fae.h">
<polygon fill="none" stroke="red" points="51.2302,-60.6953 51.2302,-83.3047 92.7698,-83.3047 92.7698,-60.6953 51.2302,-60.6953"/>
<text text-anchor="middle" x="72" y="-68.3047" font-family="Futura" font-size="11.00">fae.h</text>
</a>
</g>
<!-- Node4&#45;&gt;Node5 -->
<g id="edge8" class="edge"><title>Node4&#45;&gt;Node5</title>
<path fill="none" stroke="midnightblue" d="M98.7117,-120.631C92.0329,-112.811 84.3017,-101.856 78.6493,-92.4241"/>
<polygon fill="midnightblue" stroke="midnightblue" points="81.7103,-90.7267 73.8059,-83.6719 75.5856,-94.1162 81.7103,-90.7267"/>
</g>
<!-- Node6 -->
<g id="node14" class="node"><title>Node6</title>
<polygon fill="none" stroke="#bfbfbf" points="110.347,-60.6953 110.347,-83.3047 171.653,-83.3047 171.653,-60.6953 110.347,-60.6953"/>
<text text-anchor="middle" x="141" y="-68.3047" font-family="Futura" font-size="11.00">fae/std.h</text>
</g>
<!-- Node4&#45;&gt;Node6 -->
<g id="edge16" class="edge"><title>Node4&#45;&gt;Node6</title>
<path fill="none" stroke="midnightblue" d="M116.363,-120.631C120.366,-112.892 125.957,-102.084 130.8,-92.7193"/>
<polygon fill="midnightblue" stroke="midnightblue" points="133.995,-94.1621 135.48,-83.6719 127.777,-90.9461 133.995,-94.1621"/>
</g>
<!-- Node5&#45;&gt;Node2 -->
<g id="edge10" class="edge"><title>Node5&#45;&gt;Node2</title>
<path fill="none" stroke="midnightblue" d="M67.5305,-60.6308C64.23,-52.9736 59.6342,-42.3113 55.6274,-33.0155"/>
<polygon fill="midnightblue" stroke="midnightblue" points="58.7724,-31.4697 51.5999,-23.6719 52.3442,-34.2405 58.7724,-31.4697"/>
</g>
<!-- Node5&#45;&gt;Node3 -->
<g id="edge14" class="edge"><title>Node5&#45;&gt;Node3</title>
<path fill="none" stroke="midnightblue" d="M92.3809,-60.6308C110.184,-51.5733 136.251,-38.3109 156.361,-28.0794"/>
<polygon fill="midnightblue" stroke="midnightblue" points="158.085,-31.1291 165.411,-23.475 154.911,-24.8902 158.085,-31.1291"/>
</g>
<!-- Node5&#45;&gt;Node4 -->
<g id="edge12" class="edge"><title>Node5&#45;&gt;Node4</title>
<path fill="none" stroke="midnightblue" d="M84.546,-83.6719C91.1814,-91.4894 98.8081,-102.318 104.392,-111.644"/>
<polygon fill="midnightblue" stroke="midnightblue" points="101.452,-113.562 109.343,-120.631 107.583,-110.183 101.452,-113.562"/>
</g>
<!-- Node8 -->
<g id="node18" class="node"><title>Node8</title>
<a xlink:href="arch_8h.html" target="_top" xlink:title="fae/util/arch.h">
<polygon fill="none" stroke="black" points="472.205,-60.6953 472.205,-83.3047 561.795,-83.3047 561.795,-60.6953 472.205,-60.6953"/>
<text text-anchor="middle" x="517" y="-68.3047" font-family="Futura" font-size="11.00">fae/util/arch.h</text>
</a>
</g>
<!-- Node7&#45;&gt;Node8 -->
<g id="edge20" class="edge"><title>Node7&#45;&gt;Node8</title>
<path fill="none" stroke="midnightblue" d="M371.237,-120.764C400.377,-111.215 444.034,-96.9098 475.973,-86.4438"/>
<polygon fill="midnightblue" stroke="midnightblue" points="477.067,-89.7685 485.48,-83.3285 474.888,-83.1165 477.067,-89.7685"/>
</g>
<!-- Node9 -->
<g id="node20" class="node"><title>Node9</title>
<a xlink:href="alignof_8h.html" target="_top" xlink:title="fae/util/alignof.h">
<polygon fill="none" stroke="black" points="228.007,-60.6953 228.007,-83.3047 329.993,-83.3047 329.993,-60.6953 228.007,-60.6953"/>
<text text-anchor="middle" x="279" y="-68.3047" font-family="Futura" font-size="11.00">fae/util/alignof.h</text>
</a>
</g>
<!-- Node7&#45;&gt;Node9 -->
<g id="edge22" class="edge"><title>Node7&#45;&gt;Node9</title>
<path fill="none" stroke="midnightblue" d="M329.094,-120.631C320.356,-112.322 307.896,-100.475 297.589,-90.6745"/>
<polygon fill="midnightblue" stroke="midnightblue" points="299.883,-88.026 290.224,-83.6719 295.059,-93.099 299.883,-88.026"/>
</g>
<!-- Node10 -->
<g id="node22" class="node"><title>Node10</title>
<a xlink:href="minmax_8h.html" target="_top" xlink:title="fae/util/minmax.h">
<polygon fill="none" stroke="red" points="347.837,-60.6953 347.837,-83.3047 454.163,-83.3047 454.163,-60.6953 347.837,-60.6953"/>
<text text-anchor="middle" x="401" y="-68.3047" font-family="Futura" font-size="11.00">fae/util/minmax.h</text>
</a>
</g>
<!-- Node7&#45;&gt;Node10 -->
<g id="edge24" class="edge"><title>Node7&#45;&gt;Node10</title>
<path fill="none" stroke="midnightblue" d="M350.906,-120.631C359.644,-112.322 372.104,-100.475 382.411,-90.6745"/>
<polygon fill="midnightblue" stroke="midnightblue" points="384.941,-93.099 389.776,-83.6719 380.117,-88.026 384.941,-93.099"/>
</g>
</g>
</svg>
