<?xml version="1.0" encoding="UTF-8" standalone="no"?>
<!DOCTYPE svg PUBLIC "-//W3C//DTD SVG 1.1//EN"
 "http://www.w3.org/Graphics/SVG/1.1/DTD/svg11.dtd">
<!-- Generated by graphviz version 2.28.0 (20121015.0031)
 -->
<!-- Title: include/fae/scheduler.h Pages: 1 -->
<svg width="950pt" height="152pt"
 viewBox="0.00 0.00 950.00 152.00" xmlns="http://www.w3.org/2000/svg" xmlns:xlink="http://www.w3.org/1999/xlink">
<g id="graph1" class="graph" transform="scale(1 1) rotate(0) translate(4 148)">
<title>include/fae/scheduler.h</title>
<!-- Node1 -->
<g id="node1" class="node"><title>Node1</title>
<polygon fill="#bfbfbf" stroke="black" points="612.292,-120.695 612.292,-143.305 747.708,-143.305 747.708,-120.695 612.292,-120.695"/>
<text text-anchor="middle" x="680" y="-128.305" font-family="Futura" font-size="11.00">include/fae/scheduler.h</text>
</g>
<!-- Node2 -->
<g id="node3" class="node"><title>Node2</title>
<a xlink:href="fae_2fae_8h.html" target="_top" xlink:title="include/fae/fae.h">
<polygon fill="none" stroke="red" points="564.761,-60.6953 564.761,-83.3047 669.239,-83.3047 669.239,-60.6953 564.761,-60.6953"/>
<text text-anchor="middle" x="617" y="-68.3047" font-family="Futura" font-size="11.00">include/fae/fae.h</text>
</a>
</g>
<!-- Node1&#45;&gt;Node2 -->
<g id="edge2" class="edge"><title>Node1&#45;&gt;Node2</title>
<path fill="none" stroke="midnightblue" d="M655.623,-114.251C643.952,-104.396 631.008,-92.23 623.222,-83.6719"/>
<polygon fill="midnightblue" stroke="midnightblue" points="653.465,-117.007 663.421,-120.631 657.898,-111.589 653.465,-117.007"/>
</g>
<!-- Node10 -->
<g id="node25" class="node"><title>Node10</title>
<a xlink:href="scheduler_8c.html" target="_top" xlink:title="src/fae/scheduler.c">
<polygon fill="none" stroke="black" points="687.539,-60.6953 687.539,-83.3047 800.461,-83.3047 800.461,-60.6953 687.539,-60.6953"/>
<text text-anchor="middle" x="744" y="-68.3047" font-family="Futura" font-size="11.00">src/fae/scheduler.c</text>
</a>
</g>
<!-- Node1&#45;&gt;Node10 -->
<g id="edge30" class="edge"><title>Node1&#45;&gt;Node10</title>
<path fill="none" stroke="midnightblue" d="M699.112,-113.68C709.87,-103.93 722.962,-92.0654 732.224,-83.6719"/>
<polygon fill="midnightblue" stroke="midnightblue" points="696.501,-111.322 691.442,-120.631 701.202,-116.509 696.501,-111.322"/>
</g>
<!-- Node2&#45;&gt;Node1 -->
<g id="edge28" class="edge"><title>Node2&#45;&gt;Node1</title>
<path fill="none" stroke="midnightblue" d="M641.792,-90.1004C653.492,-100.009 666.389,-112.159 674.053,-120.631"/>
<polygon fill="midnightblue" stroke="midnightblue" points="643.912,-87.3123 633.962,-83.6719 639.47,-92.7225 643.912,-87.3123"/>
</g>
<!-- Node3 -->
<g id="node5" class="node"><title>Node3</title>
<a xlink:href="atomic_8h.html" target="_top" xlink:title="include/fae/atomic.h">
<polygon fill="none" stroke="red" points="-0.668945,-0.695312 -0.668945,-23.3047 120.669,-23.3047 120.669,-0.695312 -0.668945,-0.695312"/>
<text text-anchor="middle" x="60" y="-8.30469" font-family="Futura" font-size="11.00">include/fae/atomic.h</text>
</a>
</g>
<!-- Node2&#45;&gt;Node3 -->
<g id="edge4" class="edge"><title>Node2&#45;&gt;Node3</title>
<path fill="none" stroke="midnightblue" d="M554.267,-66.6586C459.682,-59.4594 275.431,-43.8549 120,-24 118.315,-23.7848 116.609,-23.5603 114.889,-23.328"/>
<polygon fill="midnightblue" stroke="midnightblue" points="554.285,-70.1699 564.52,-67.4326 554.812,-63.1897 554.285,-70.1699"/>
</g>
<!-- Node4 -->
<g id="node8" class="node"><title>Node4</title>
<a xlink:href="buffer_8h.html" target="_top" xlink:title="include/fae/buffer.h">
<polygon fill="none" stroke="red" points="138.184,-0.695312 138.184,-23.3047 255.816,-23.3047 255.816,-0.695312 138.184,-0.695312"/>
<text text-anchor="middle" x="197" y="-8.30469" font-family="Futura" font-size="11.00">include/fae/buffer.h</text>
</a>
</g>
<!-- Node2&#45;&gt;Node4 -->
<g id="edge8" class="edge"><title>Node2&#45;&gt;Node4</title>
<path fill="none" stroke="midnightblue" d="M554.718,-63.2123C484.312,-54.286 366.298,-38.953 265,-24 262.042,-23.5634 259.014,-23.1072 255.956,-22.6393"/>
<polygon fill="midnightblue" stroke="midnightblue" points="554.393,-66.6989 564.753,-64.482 555.271,-59.7543 554.393,-66.6989"/>
</g>
<!-- Node5 -->
<g id="node10" class="node"><title>Node5</title>
<a xlink:href="device_8h.html" target="_top" xlink:title="include/fae/device.h">
<polygon fill="none" stroke="red" points="273.774,-0.695312 273.774,-23.3047 394.226,-23.3047 394.226,-0.695312 273.774,-0.695312"/>
<text text-anchor="middle" x="334" y="-8.30469" font-family="Futura" font-size="11.00">include/fae/device.h</text>
</a>
</g>
<!-- Node2&#45;&gt;Node5 -->
<g id="edge10" class="edge"><title>Node2&#45;&gt;Node5</title>
<path fill="none" stroke="midnightblue" d="M556.466,-58.5937C505.279,-48.1032 432.789,-33.2465 384.633,-23.3771"/>
<polygon fill="midnightblue" stroke="midnightblue" points="555.906,-62.0517 566.405,-60.6308 557.312,-55.1942 555.906,-62.0517"/>
</g>
<!-- Node6 -->
<g id="node12" class="node"><title>Node6</title>
<a xlink:href="dynamic_8h.html" target="_top" xlink:title="include/fae/dynamic.h">
<polygon fill="none" stroke="red" points="411.876,-0.695312 411.876,-23.3047 542.124,-23.3047 542.124,-0.695312 411.876,-0.695312"/>
<text text-anchor="middle" x="477" y="-8.30469" font-family="Futura" font-size="11.00">include/fae/dynamic.h</text>
</a>
</g>
<!-- Node2&#45;&gt;Node6 -->
<g id="edge12" class="edge"><title>Node2&#45;&gt;Node6</title>
<path fill="none" stroke="midnightblue" d="M582.55,-56.7278C557.704,-46.4343 524.723,-32.7708 502.285,-23.475"/>
<polygon fill="midnightblue" stroke="midnightblue" points="581.393,-60.0368 591.971,-60.6308 584.072,-53.5698 581.393,-60.0368"/>
</g>
<!-- Node7 -->
<g id="node14" class="node"><title>Node7</title>
<a xlink:href="error_8h.html" target="_top" xlink:title="include/fae/error.h">
<polygon fill="none" stroke="red" points="560.555,-0.695312 560.555,-23.3047 673.445,-23.3047 673.445,-0.695312 560.555,-0.695312"/>
<text text-anchor="middle" x="617" y="-8.30469" font-family="Futura" font-size="11.00">include/fae/error.h</text>
</a>
</g>
<!-- Node2&#45;&gt;Node7 -->
<g id="edge14" class="edge"><title>Node2&#45;&gt;Node7</title>
<path fill="none" stroke="midnightblue" d="M610.512,-50.4586C609.936,-41.4112 610.309,-31.1602 611.63,-23.6719"/>
<polygon fill="midnightblue" stroke="midnightblue" points="607.062,-51.0972 611.684,-60.6308 614.016,-50.2958 607.062,-51.0972"/>
</g>
<!-- Node8 -->
<g id="node17" class="node"><title>Node8</title>
<a xlink:href="event_8h.html" target="_top" xlink:title="include/fae/event.h">
<polygon fill="none" stroke="red" points="827.637,-0.695312 827.637,-23.3047 942.363,-23.3047 942.363,-0.695312 827.637,-0.695312"/>
<text text-anchor="middle" x="885" y="-8.30469" font-family="Futura" font-size="11.00">include/fae/event.h</text>
</a>
</g>
<!-- Node2&#45;&gt;Node8 -->
<g id="edge18" class="edge"><title>Node2&#45;&gt;Node8</title>
<path fill="none" stroke="midnightblue" d="M669.556,-58.3964C716.438,-47.9177 784.635,-33.1848 831.733,-23.3771"/>
<polygon fill="midnightblue" stroke="midnightblue" points="668.588,-55.0264 659.597,-60.6308 670.121,-61.8567 668.588,-55.0264"/>
</g>
<!-- Node9 -->
<g id="node21" class="node"><title>Node9</title>
<a xlink:href="graph_8h.html" target="_top" xlink:title="include/fae/graph.h">
<polygon fill="none" stroke="red" points="691.894,-0.695312 691.894,-23.3047 810.106,-23.3047 810.106,-0.695312 691.894,-0.695312"/>
<text text-anchor="middle" x="751" y="-8.30469" font-family="Futura" font-size="11.00">include/fae/graph.h</text>
</a>
</g>
<!-- Node2&#45;&gt;Node9 -->
<g id="edge24" class="edge"><title>Node2&#45;&gt;Node9</title>
<path fill="none" stroke="midnightblue" d="M644.967,-56.3162C667.4,-46.0724 698.624,-32.6474 721.464,-23.475"/>
<polygon fill="midnightblue" stroke="midnightblue" points="643.247,-53.2553 635.641,-60.6308 646.186,-59.6084 643.247,-53.2553"/>
</g>
<!-- Node3&#45;&gt;Node2 -->
<g id="edge6" class="edge"><title>Node3&#45;&gt;Node2</title>
<path fill="none" stroke="midnightblue" d="M130.883,-23.0556C133.287,-23.3854 135.665,-23.7017 138,-24 292.926,-43.7903 476.484,-59.3579 564.713,-66.5881"/>
<polygon fill="midnightblue" stroke="midnightblue" points="131.284,-19.5775 120.891,-21.6348 130.299,-26.5078 131.284,-19.5775"/>
</g>
<!-- Node7&#45;&gt;Node2 -->
<g id="edge16" class="edge"><title>Node7&#45;&gt;Node2</title>
<path fill="none" stroke="midnightblue" d="M623.492,-33.6107C624.069,-42.7636 623.677,-53.1365 622.316,-60.6308"/>
<polygon fill="midnightblue" stroke="midnightblue" points="626.97,-33.2159 622.37,-23.6719 620.014,-34.0015 626.97,-33.2159"/>
</g>
<!-- Node8&#45;&gt;Node1 -->
<g id="edge22" class="edge"><title>Node8&#45;&gt;Node1</title>
<path fill="none" stroke="midnightblue" d="M869.743,-30.8649C855.428,-46.678 832.721,-69.4438 809,-84 781.675,-100.768 747.454,-112.89 721.126,-120.62"/>
<polygon fill="midnightblue" stroke="midnightblue" points="872.422,-33.1192 876.425,-23.3098 867.179,-28.4817 872.422,-33.1192"/>
</g>
<!-- Node8&#45;&gt;Node2 -->
<g id="edge20" class="edge"><title>Node8&#45;&gt;Node2</title>
<path fill="none" stroke="midnightblue" d="M832.448,-25.6027C785.234,-36.1558 716.398,-51.0241 669.268,-60.8308"/>
<polygon fill="midnightblue" stroke="midnightblue" points="833.484,-28.9574 842.475,-23.353 831.951,-22.1272 833.484,-28.9574"/>
</g>
<!-- Node9&#45;&gt;Node2 -->
<g id="edge26" class="edge"><title>Node9&#45;&gt;Node2</title>
<path fill="none" stroke="midnightblue" d="M722.774,-27.8023C700.273,-38.0705 669.048,-51.4913 646.272,-60.6308"/>
<polygon fill="midnightblue" stroke="midnightblue" points="724.526,-30.8484 732.134,-23.475 721.588,-24.4945 724.526,-30.8484"/>
</g>
</g>
</svg>
