<?xml version="1.0" encoding="UTF-8" standalone="no"?>
<!DOCTYPE svg PUBLIC "-//W3C//DTD SVG 1.1//EN"
 "http://www.w3.org/Graphics/SVG/1.1/DTD/svg11.dtd">
<!-- Generated by graphviz version 2.28.0 (20121015.0031)
 -->
<!-- Title: include/fae/scheduler.h Pages: 1 -->
<svg width="860pt" height="212pt"
 viewBox="0.00 0.00 859.86 212.00" xmlns="http://www.w3.org/2000/svg" xmlns:xlink="http://www.w3.org/1999/xlink">
<g id="graph1" class="graph" transform="scale(1 1) rotate(0) translate(4 208)">
<title>include/fae/scheduler.h</title>
<!-- Node1 -->
<g id="node1" class="node"><title>Node1</title>
<polygon fill="#bfbfbf" stroke="black" points="637.292,-180.695 637.292,-203.305 772.708,-203.305 772.708,-180.695 637.292,-180.695"/>
<text text-anchor="middle" x="705" y="-188.305" font-family="Futura" font-size="11.00">include/fae/scheduler.h</text>
</g>
<!-- Node2 -->
<g id="node3" class="node"><title>Node2</title>
<a xlink:href="fae_2fae_8h.html" target="_top" xlink:title="fae.h">
<polygon fill="none" stroke="red" points="635.23,-120.695 635.23,-143.305 676.77,-143.305 676.77,-120.695 635.23,-120.695"/>
<text text-anchor="middle" x="656" y="-128.305" font-family="Futura" font-size="11.00">fae.h</text>
</a>
</g>
<!-- Node1&#45;&gt;Node2 -->
<g id="edge2" class="edge"><title>Node1&#45;&gt;Node2</title>
<path fill="none" stroke="midnightblue" d="M690.924,-180.631C682.73,-172.648 672.875,-161.398 665.546,-151.837"/>
<polygon fill="midnightblue" stroke="midnightblue" points="668.34,-149.727 659.646,-143.672 662.667,-153.827 668.34,-149.727"/>
</g>
<!-- Node9 -->
<g id="node19" class="node"><title>Node9</title>
<a xlink:href="event_8h.html" target="_top" xlink:title="fae/event.h">
<polygon fill="none" stroke="red" points="766.2,-60.6953 766.2,-83.3047 839.8,-83.3047 839.8,-60.6953 766.2,-60.6953"/>
<text text-anchor="middle" x="803" y="-68.3047" font-family="Futura" font-size="11.00">fae/event.h</text>
</a>
</g>
<!-- Node1&#45;&gt;Node9 -->
<g id="edge34" class="edge"><title>Node1&#45;&gt;Node9</title>
<path fill="none" stroke="midnightblue" d="M713.697,-180.528C730.363,-160.461 766.989,-116.361 787.787,-91.3178"/>
<polygon fill="midnightblue" stroke="midnightblue" points="790.485,-93.5469 794.182,-83.6179 785.1,-89.0746 790.485,-93.5469"/>
</g>
<!-- Node10 -->
<g id="node22" class="node"><title>Node10</title>
<a xlink:href="time_8h.html" target="_top" xlink:title="fae/time.h">
<polygon fill="none" stroke="red" points="732.114,-0.695312 732.114,-23.3047 799.886,-23.3047 799.886,-0.695312 732.114,-0.695312"/>
<text text-anchor="middle" x="766" y="-8.30469" font-family="Futura" font-size="11.00">fae/time.h</text>
</a>
</g>
<!-- Node1&#45;&gt;Node10 -->
<g id="edge32" class="edge"><title>Node1&#45;&gt;Node10</title>
<path fill="none" stroke="midnightblue" d="M730.769,-180.635C764.916,-165.31 823.673,-133.023 848,-84 852.741,-74.4451 853.348,-69.2292 848,-60 839.416,-45.1858 824.207,-34.6397 809.199,-27.3435"/>
<polygon fill="midnightblue" stroke="midnightblue" points="810.5,-24.0914 799.942,-23.2115 807.647,-30.4836 810.5,-24.0914"/>
</g>
<!-- Node2&#45;&gt;Node1 -->
<g id="edge28" class="edge"><title>Node2&#45;&gt;Node1</title>
<path fill="none" stroke="midnightblue" d="M670.386,-143.672C678.537,-151.654 688.263,-162.775 695.506,-172.231"/>
<polygon fill="midnightblue" stroke="midnightblue" points="692.871,-174.562 701.556,-180.631 698.551,-170.471 692.871,-174.562"/>
</g>
<!-- Node3 -->
<g id="node5" class="node"><title>Node3</title>
<a xlink:href="atomic_8h.html" target="_top" xlink:title="fae/atomic.h">
<polygon fill="none" stroke="red" points="-0.105713,-60.6953 -0.105713,-83.3047 80.1057,-83.3047 80.1057,-60.6953 -0.105713,-60.6953"/>
<text text-anchor="middle" x="40" y="-68.3047" font-family="Futura" font-size="11.00">fae/atomic.h</text>
</a>
</g>
<!-- Node2&#45;&gt;Node3 -->
<g id="edge4" class="edge"><title>Node2&#45;&gt;Node3</title>
<path fill="none" stroke="midnightblue" d="M635.007,-130.392C560.479,-127.849 303.443,-116.697 86.6973,-84.8026"/>
<polygon fill="midnightblue" stroke="midnightblue" points="87.1397,-81.3299 76.7329,-83.3172 86.1076,-88.2534 87.1397,-81.3299"/>
</g>
<!-- Node4 -->
<g id="node8" class="node"><title>Node4</title>
<a xlink:href="queue_8h.html" target="_top" xlink:title="fae/atomic/queue.h">
<polygon fill="none" stroke="red" points="98.6057,-60.6953 98.6057,-83.3047 215.394,-83.3047 215.394,-60.6953 98.6057,-60.6953"/>
<text text-anchor="middle" x="157" y="-68.3047" font-family="Futura" font-size="11.00">fae/atomic/queue.h</text>
</a>
</g>
<!-- Node2&#45;&gt;Node4 -->
<g id="edge8" class="edge"><title>Node2&#45;&gt;Node4</title>
<path fill="none" stroke="midnightblue" d="M634.823,-129.107C573.305,-123.523 389.116,-106.191 225.675,-84.1751"/>
<polygon fill="midnightblue" stroke="midnightblue" points="225.817,-80.6624 215.437,-82.7862 224.876,-87.5989 225.817,-80.6624"/>
</g>
<!-- Node5 -->
<g id="node10" class="node"><title>Node5</title>
<a xlink:href="stack_8h.html" target="_top" xlink:title="fae/atomic/stack.h">
<polygon fill="none" stroke="red" points="233.377,-60.6953 233.377,-83.3047 344.623,-83.3047 344.623,-60.6953 233.377,-60.6953"/>
<text text-anchor="middle" x="289" y="-68.3047" font-family="Futura" font-size="11.00">fae/atomic/stack.h</text>
</a>
</g>
<!-- Node2&#45;&gt;Node5 -->
<g id="edge10" class="edge"><title>Node2&#45;&gt;Node5</title>
<path fill="none" stroke="midnightblue" d="M635.042,-127.87C587.237,-120.703 466.231,-102.42 354.891,-84.293"/>
<polygon fill="midnightblue" stroke="midnightblue" points="355.272,-80.809 344.839,-82.6525 354.144,-87.7176 355.272,-80.809"/>
</g>
<!-- Node6 -->
<g id="node12" class="node"><title>Node6</title>
<a xlink:href="ring__buffer_8h.html" target="_top" xlink:title="fae/atomic/ring_buffer.h">
<polygon fill="none" stroke="red" points="362.483,-60.6953 362.483,-83.3047 503.517,-83.3047 503.517,-60.6953 362.483,-60.6953"/>
<text text-anchor="middle" x="433" y="-68.3047" font-family="Futura" font-size="11.00">fae/atomic/ring_buffer.h</text>
</a>
</g>
<!-- Node2&#45;&gt;Node6 -->
<g id="edge12" class="edge"><title>Node2&#45;&gt;Node6</title>
<path fill="none" stroke="midnightblue" d="M635.021,-125.544C600.402,-116.54 530.397,-98.3319 482.602,-85.9011"/>
<polygon fill="midnightblue" stroke="midnightblue" points="483.321,-82.4715 472.761,-83.3415 481.558,-89.2461 483.321,-82.4715"/>
</g>
<!-- Node7 -->
<g id="node14" class="node"><title>Node7</title>
<a xlink:href="system_8h.html" target="_top" xlink:title="fae/system.h">
<polygon fill="none" stroke="red" points="521.983,-60.6953 521.983,-83.3047 602.017,-83.3047 602.017,-60.6953 521.983,-60.6953"/>
<text text-anchor="middle" x="562" y="-68.3047" font-family="Futura" font-size="11.00">fae/system.h</text>
</a>
</g>
<!-- Node2&#45;&gt;Node7 -->
<g id="edge14" class="edge"><title>Node2&#45;&gt;Node7</title>
<path fill="none" stroke="midnightblue" d="M639.195,-120.631C624.847,-111.778 603.99,-98.9089 587.572,-88.7784"/>
<polygon fill="midnightblue" stroke="midnightblue" points="589.325,-85.7475 578.977,-83.475 585.649,-91.7048 589.325,-85.7475"/>
</g>
<!-- Node8 -->
<g id="node16" class="node"><title>Node8</title>
<a xlink:href="error_8h.html" target="_top" xlink:title="fae/error.h">
<polygon fill="none" stroke="red" points="620.119,-60.6953 620.119,-83.3047 691.881,-83.3047 691.881,-60.6953 620.119,-60.6953"/>
<text text-anchor="middle" x="656" y="-68.3047" font-family="Futura" font-size="11.00">fae/error.h</text>
</a>
</g>
<!-- Node2&#45;&gt;Node8 -->
<g id="edge16" class="edge"><title>Node2&#45;&gt;Node8</title>
<path fill="none" stroke="midnightblue" d="M650.684,-120.631C649.323,-113.137 648.931,-102.764 649.508,-93.6107"/>
<polygon fill="midnightblue" stroke="midnightblue" points="652.986,-94.0015 650.63,-83.6719 646.03,-93.2159 652.986,-94.0015"/>
</g>
<!-- Node2&#45;&gt;Node9 -->
<g id="edge20" class="edge"><title>Node2&#45;&gt;Node9</title>
<path fill="none" stroke="midnightblue" d="M676.965,-120.631C699.116,-111.216 734.31,-97.2588 761.953,-86.884"/>
<polygon fill="midnightblue" stroke="midnightblue" points="763.23,-90.1436 771.382,-83.3771 760.789,-83.5827 763.23,-90.1436"/>
</g>
<!-- Node2&#45;&gt;Node10 -->
<g id="edge30" class="edge"><title>Node2&#45;&gt;Node10</title>
<path fill="none" stroke="midnightblue" d="M658.756,-120.556C665.721,-111.038 679.258,-96.5867 691,-84 708.108,-65.6609 727.663,-44.6135 742.795,-30.2254"/>
<polygon fill="midnightblue" stroke="midnightblue" points="745.273,-32.7015 750.268,-23.358 740.536,-27.5473 745.273,-32.7015"/>
</g>
<!-- Node3&#45;&gt;Node2 -->
<g id="edge6" class="edge"><title>Node3&#45;&gt;Node2</title>
<path fill="none" stroke="midnightblue" d="M80.1774,-80.5693C86.5082,-81.8646 92.9358,-83.0853 99,-84 298.186,-114.043 539.917,-126.068 624.863,-129.699"/>
<polygon fill="midnightblue" stroke="midnightblue" points="624.974,-133.207 635.112,-130.129 625.268,-126.213 624.974,-133.207"/>
</g>
<!-- Node8&#45;&gt;Node2 -->
<g id="edge18" class="edge"><title>Node8&#45;&gt;Node2</title>
<path fill="none" stroke="midnightblue" d="M661.37,-83.6719C662.691,-91.1602 663.064,-101.411 662.488,-110.459"/>
<polygon fill="midnightblue" stroke="midnightblue" points="658.984,-110.296 661.316,-120.631 665.938,-111.097 658.984,-110.296"/>
</g>
<!-- Node9&#45;&gt;Node2 -->
<g id="edge22" class="edge"><title>Node9&#45;&gt;Node2</title>
<path fill="none" stroke="midnightblue" d="M782.149,-83.3207C757.1,-93.9712 715.256,-110.473 686.584,-121.003"/>
<polygon fill="midnightblue" stroke="midnightblue" points="685.251,-117.763 677.04,-124.459 687.635,-124.345 685.251,-117.763"/>
</g>
<!-- Node9&#45;&gt;Node10 -->
<g id="edge24" class="edge"><title>Node9&#45;&gt;Node10</title>
<path fill="none" stroke="midnightblue" d="M796.385,-60.6308C791.344,-52.7292 784.262,-41.6276 778.203,-32.1298"/>
<polygon fill="midnightblue" stroke="midnightblue" points="781.137,-30.2201 772.808,-23.6719 775.235,-33.9849 781.137,-30.2201"/>
</g>
<!-- Node10&#45;&gt;Node2 -->
<g id="edge26" class="edge"><title>Node10&#45;&gt;Node2</title>
<path fill="none" stroke="midnightblue" d="M762.346,-23.5963C752.287,-37.4822 728.975,-62.5873 709,-84 699.827,-93.8333 689.557,-104.805 680.314,-113.673"/>
<polygon fill="midnightblue" stroke="midnightblue" points="677.824,-111.208 672.838,-120.556 682.565,-116.358 677.824,-111.208"/>
</g>
</g>
</svg>
