<?xml version="1.0" encoding="UTF-8" standalone="no"?>
<!DOCTYPE svg PUBLIC "-//W3C//DTD SVG 1.1//EN"
 "http://www.w3.org/Graphics/SVG/1.1/DTD/svg11.dtd">
<!-- Generated by graphviz version 2.28.0 (20121015.0031)
 -->
<!-- Title: src/fae/processor/seq.c Pages: 1 -->
<svg width="733pt" height="152pt"
 viewBox="0.00 0.00 733.00 152.00" xmlns="http://www.w3.org/2000/svg" xmlns:xlink="http://www.w3.org/1999/xlink">
<g id="graph1" class="graph" transform="scale(1 1) rotate(0) translate(4 148)">
<title>src/fae/processor/seq.c</title>
<!-- Node1 -->
<g id="node1" class="node"><title>Node1</title>
<polygon fill="#bfbfbf" stroke="black" points="104.54,-120.695 104.54,-143.305 241.46,-143.305 241.46,-120.695 104.54,-120.695"/>
<text text-anchor="middle" x="173" y="-128.305" font-family="Futura" font-size="11.00">src/fae/processor/seq.c</text>
</g>
<!-- Node2 -->
<g id="node3" class="node"><title>Node2</title>
<polygon fill="none" stroke="#bfbfbf" points="-0.143555,-60.6953 -0.143555,-83.3047 118.144,-83.3047 118.144,-60.6953 -0.143555,-60.6953"/>
<text text-anchor="middle" x="59" y="-68.3047" font-family="Futura" font-size="11.00">fae/processor/seq.h</text>
</g>
<!-- Node1&#45;&gt;Node2 -->
<g id="edge2" class="edge"><title>Node1&#45;&gt;Node2</title>
<path fill="none" stroke="midnightblue" d="M152.619,-120.631C134.816,-111.573 108.749,-98.3109 88.6388,-88.0794"/>
<polygon fill="midnightblue" stroke="midnightblue" points="90.0887,-84.8902 79.5888,-83.475 86.9145,-91.1291 90.0887,-84.8902"/>
</g>
<!-- Node3 -->
<g id="node5" class="node"><title>Node3</title>
<a xlink:href="string_8h.html" target="_top" xlink:title="fae/string.h">
<polygon fill="none" stroke="black" points="135.827,-60.6953 135.827,-83.3047 210.173,-83.3047 210.173,-60.6953 135.827,-60.6953"/>
<text text-anchor="middle" x="173" y="-68.3047" font-family="Futura" font-size="11.00">fae/string.h</text>
</a>
</g>
<!-- Node1&#45;&gt;Node3 -->
<g id="edge4" class="edge"><title>Node1&#45;&gt;Node3</title>
<path fill="none" stroke="midnightblue" d="M173,-120.631C173,-113.218 173,-102.989 173,-93.9096"/>
<polygon fill="midnightblue" stroke="midnightblue" points="176.5,-93.6718 173,-83.6719 169.5,-93.6719 176.5,-93.6718"/>
</g>
<!-- Node5 -->
<g id="node9" class="node"><title>Node5</title>
<a xlink:href="util_8h.html" target="_top" xlink:title="fae/util.h">
<polygon fill="none" stroke="red" points="345.141,-60.6953 345.141,-83.3047 406.859,-83.3047 406.859,-60.6953 345.141,-60.6953"/>
<text text-anchor="middle" x="376" y="-68.3047" font-family="Futura" font-size="11.00">fae/util.h</text>
</a>
</g>
<!-- Node1&#45;&gt;Node5 -->
<g id="edge8" class="edge"><title>Node1&#45;&gt;Node5</title>
<path fill="none" stroke="midnightblue" d="M209.292,-120.631C244.631,-110.534 298.256,-95.2125 335.09,-84.6885"/>
<polygon fill="midnightblue" stroke="midnightblue" points="336.351,-87.9684 345.005,-81.8558 334.428,-81.2377 336.351,-87.9684"/>
</g>
<!-- Node4 -->
<g id="node7" class="node"><title>Node4</title>
<a xlink:href="fae_2fae_8h.html" target="_top" xlink:title="fae.h">
<polygon fill="none" stroke="red" points="93.2302,-0.695312 93.2302,-23.3047 134.77,-23.3047 134.77,-0.695312 93.2302,-0.695312"/>
<text text-anchor="middle" x="114" y="-8.30469" font-family="Futura" font-size="11.00">fae.h</text>
</a>
</g>
<!-- Node3&#45;&gt;Node4 -->
<g id="edge6" class="edge"><title>Node3&#45;&gt;Node4</title>
<path fill="none" stroke="midnightblue" d="M162.452,-60.6308C154.083,-52.4034 142.184,-40.7066 132.273,-30.9633"/>
<polygon fill="midnightblue" stroke="midnightblue" points="134.441,-28.1863 124.856,-23.6719 129.533,-33.1782 134.441,-28.1863"/>
</g>
<!-- Node6 -->
<g id="node11" class="node"><title>Node6</title>
<a xlink:href="arch_8h.html" target="_top" xlink:title="fae/util/arch.h">
<polygon fill="none" stroke="black" points="153.205,-0.695312 153.205,-23.3047 242.795,-23.3047 242.795,-0.695312 153.205,-0.695312"/>
<text text-anchor="middle" x="198" y="-8.30469" font-family="Futura" font-size="11.00">fae/util/arch.h</text>
</a>
</g>
<!-- Node5&#45;&gt;Node6 -->
<g id="edge10" class="edge"><title>Node5&#45;&gt;Node6</title>
<path fill="none" stroke="midnightblue" d="M344.995,-60.8972C315.748,-51.3673 271.702,-37.0152 239.45,-26.5061"/>
<polygon fill="midnightblue" stroke="midnightblue" points="240.441,-23.148 229.849,-23.3776 238.272,-29.8036 240.441,-23.148"/>
</g>
<!-- Node7 -->
<g id="node13" class="node"><title>Node7</title>
<a xlink:href="alignof_8h.html" target="_top" xlink:title="fae/util/alignof.h">
<polygon fill="none" stroke="black" points="261.007,-0.695312 261.007,-23.3047 362.993,-23.3047 362.993,-0.695312 261.007,-0.695312"/>
<text text-anchor="middle" x="312" y="-8.30469" font-family="Futura" font-size="11.00">fae/util/alignof.h</text>
</a>
</g>
<!-- Node5&#45;&gt;Node7 -->
<g id="edge12" class="edge"><title>Node5&#45;&gt;Node7</title>
<path fill="none" stroke="midnightblue" d="M364.558,-60.6308C355.39,-52.3219 342.317,-40.4746 331.503,-30.6745"/>
<polygon fill="midnightblue" stroke="midnightblue" points="333.536,-27.7936 323.776,-23.6719 328.835,-32.9806 333.536,-27.7936"/>
</g>
<!-- Node8 -->
<g id="node15" class="node"><title>Node8</title>
<a xlink:href="minmax_8h.html" target="_top" xlink:title="fae/util/minmax.h">
<polygon fill="none" stroke="red" points="380.837,-0.695312 380.837,-23.3047 487.163,-23.3047 487.163,-0.695312 380.837,-0.695312"/>
<text text-anchor="middle" x="434" y="-8.30469" font-family="Futura" font-size="11.00">fae/util/minmax.h</text>
</a>
</g>
<!-- Node5&#45;&gt;Node8 -->
<g id="edge14" class="edge"><title>Node5&#45;&gt;Node8</title>
<path fill="none" stroke="midnightblue" d="M386.369,-60.6308C394.597,-52.4034 406.293,-40.7066 416.037,-30.9633"/>
<polygon fill="midnightblue" stroke="midnightblue" points="418.732,-33.2179 423.328,-23.6719 413.782,-28.2681 418.732,-33.2179"/>
</g>
<!-- Node9 -->
<g id="node17" class="node"><title>Node9</title>
<a xlink:href="literals_8h.html" target="_top" xlink:title="fae/util/literals.h">
<polygon fill="none" stroke="red" points="505.038,-0.695312 505.038,-23.3047 604.962,-23.3047 604.962,-0.695312 505.038,-0.695312"/>
<text text-anchor="middle" x="555" y="-8.30469" font-family="Futura" font-size="11.00">fae/util/literals.h</text>
</a>
</g>
<!-- Node5&#45;&gt;Node9 -->
<g id="edge16" class="edge"><title>Node5&#45;&gt;Node9</title>
<path fill="none" stroke="midnightblue" d="M407.179,-60.8972C436.59,-51.3673 480.884,-37.0152 513.317,-26.5061"/>
<polygon fill="midnightblue" stroke="midnightblue" points="514.538,-29.7897 522.973,-23.3776 512.381,-23.1305 514.538,-29.7897"/>
</g>
<!-- Node10 -->
<g id="node19" class="node"><title>Node10</title>
<a xlink:href="macros_8h.html" target="_top" xlink:title="fae/util/macros.h">
<polygon fill="none" stroke="black" points="622.475,-0.695312 622.475,-23.3047 725.525,-23.3047 725.525,-0.695312 622.475,-0.695312"/>
<text text-anchor="middle" x="674" y="-8.30469" font-family="Futura" font-size="11.00">fae/util/macros.h</text>
</a>
</g>
<!-- Node5&#45;&gt;Node10 -->
<g id="edge18" class="edge"><title>Node5&#45;&gt;Node10</title>
<path fill="none" stroke="midnightblue" d="M407.048,-64.9571C455.413,-55.5438 549.674,-37.1977 612.245,-25.0194"/>
<polygon fill="midnightblue" stroke="midnightblue" points="613.24,-28.3915 622.387,-23.0455 611.903,-21.5205 613.24,-28.3915"/>
</g>
</g>
</svg>
