<?xml version="1.0" encoding="UTF-8" standalone="no"?>
<!DOCTYPE svg PUBLIC "-//W3C//DTD SVG 1.1//EN"
 "http://www.w3.org/Graphics/SVG/1.1/DTD/svg11.dtd">
<!-- Generated by graphviz version 2.28.0 (20121015.0031)
 -->
<!-- Title: include/fae/processor/seq.h Pages: 1 -->
<svg width="275pt" height="106pt"
 viewBox="0.00 0.00 275.00 106.00" xmlns="http://www.w3.org/2000/svg" xmlns:xlink="http://www.w3.org/1999/xlink">
<g id="graph1" class="graph" transform="scale(1 1) rotate(0) translate(4 102)">
<title>include/fae/processor/seq.h</title>
<!-- Node1 -->
<g id="node1" class="node"><title>Node1</title>
<polygon fill="#bfbfbf" stroke="black" points="75.428,-60.3906 75.428,-97.6094 202.572,-97.6094 202.572,-60.3906 75.428,-60.3906"/>
<text text-anchor="start" x="83.428" y="-82.6094" font-family="Futura" font-size="11.00">include/fae/processor</text>
<text text-anchor="middle" x="139" y="-68" font-family="Futura" font-size="11.00">/seq.h</text>
</g>
<!-- Node2 -->
<g id="node3" class="node"><title>Node2</title>
<a xlink:href="seq_8c.html" target="_top" xlink:title="src/fae/processor/seq.c">
<polygon fill="none" stroke="black" points="-0.459717,-0.695312 -0.459717,-23.3047 136.46,-23.3047 136.46,-0.695312 -0.459717,-0.695312"/>
<text text-anchor="middle" x="68" y="-8.30469" font-family="Futura" font-size="11.00">src/fae/processor/seq.c</text>
</a>
</g>
<!-- Node1&#45;&gt;Node2 -->
<g id="edge2" class="edge"><title>Node1&#45;&gt;Node2</title>
<path fill="none" stroke="midnightblue" d="M112.079,-53.3539C100.849,-43.0729 88.4006,-31.6766 79.605,-23.6243"/>
<polygon fill="midnightblue" stroke="midnightblue" points="109.86,-56.0674 119.599,-60.2385 114.586,-50.9043 109.86,-56.0674"/>
</g>
<!-- Node3 -->
<g id="node5" class="node"><title>Node3</title>
<a xlink:href="processor_8c.html" target="_top" xlink:title="src/fae/processor.c">
<polygon fill="none" stroke="black" points="154.255,-0.695312 154.255,-23.3047 267.745,-23.3047 267.745,-0.695312 154.255,-0.695312"/>
<text text-anchor="middle" x="211" y="-8.30469" font-family="Futura" font-size="11.00">src/fae/processor.c</text>
</a>
</g>
<!-- Node1&#45;&gt;Node3 -->
<g id="edge4" class="edge"><title>Node1&#45;&gt;Node3</title>
<path fill="none" stroke="midnightblue" d="M166.3,-53.3539C177.688,-43.0729 190.312,-31.6766 199.232,-23.6243"/>
<polygon fill="midnightblue" stroke="midnightblue" points="163.752,-50.9395 158.674,-60.2385 168.442,-56.1353 163.752,-50.9395"/>
</g>
</g>
</svg>
