<?xml version="1.0" encoding="UTF-8" standalone="no"?>
<!DOCTYPE svg PUBLIC "-//W3C//DTD SVG 1.1//EN"
 "http://www.w3.org/Graphics/SVG/1.1/DTD/svg11.dtd">
<!-- Generated by graphviz version 2.28.0 (20121015.0031)
 -->
<!-- Title: include/fae/set.h Pages: 1 -->
<svg width="854pt" height="226pt"
 viewBox="0.00 0.00 854.00 226.00" xmlns="http://www.w3.org/2000/svg" xmlns:xlink="http://www.w3.org/1999/xlink">
<g id="graph1" class="graph" transform="scale(1 1) rotate(0) translate(4 222)">
<title>include/fae/set.h</title>
<!-- Node1 -->
<g id="node1" class="node"><title>Node1</title>
<polygon fill="#bfbfbf" stroke="black" points="598.991,-194.695 598.991,-217.305 701.009,-217.305 701.009,-194.695 598.991,-194.695"/>
<text text-anchor="middle" x="650" y="-202.305" font-family="Futura" font-size="11.00">include/fae/set.h</text>
</g>
<!-- Node2 -->
<g id="node3" class="node"><title>Node2</title>
<a xlink:href="literals_8h.html" target="_top" xlink:title="include/fae/util/literals.h">
<polygon fill="none" stroke="black" points="426.475,-134.695 426.475,-157.305 567.525,-157.305 567.525,-134.695 426.475,-134.695"/>
<text text-anchor="middle" x="497" y="-142.305" font-family="Futura" font-size="11.00">include/fae/util/literals.h</text>
</a>
</g>
<!-- Node1&#45;&gt;Node2 -->
<g id="edge2" class="edge"><title>Node1&#45;&gt;Node2</title>
<path fill="none" stroke="midnightblue" d="M613.039,-190.989C585.714,-180.63 549.107,-166.753 524.374,-157.377"/>
<polygon fill="midnightblue" stroke="midnightblue" points="612.055,-194.359 622.647,-194.631 614.537,-187.813 612.055,-194.359"/>
</g>
<!-- Node8 -->
<g id="node15" class="node"><title>Node8</title>
<a xlink:href="graph_8c.html" target="_top" xlink:title="src/fae/graph.c">
<polygon fill="none" stroke="black" points="547.141,-7.69531 547.141,-30.3047 642.859,-30.3047 642.859,-7.69531 547.141,-7.69531"/>
<text text-anchor="middle" x="595" y="-15.3047" font-family="Futura" font-size="11.00">src/fae/graph.c</text>
</a>
</g>
<!-- Node1&#45;&gt;Node8 -->
<g id="edge20" class="edge"><title>Node1&#45;&gt;Node8</title>
<path fill="none" stroke="midnightblue" d="M643.976,-184.737C632.283,-145.406 606.886,-59.9815 598.08,-30.3616"/>
<polygon fill="midnightblue" stroke="midnightblue" points="640.681,-185.936 646.885,-194.524 647.39,-183.941 640.681,-185.936"/>
</g>
<!-- Node9 -->
<g id="node17" class="node"><title>Node9</title>
<a xlink:href="map_8c.html" target="_top" xlink:title="src/fae/map.c">
<polygon fill="none" stroke="black" points="661.118,-7.69531 661.118,-30.3047 748.882,-30.3047 748.882,-7.69531 661.118,-7.69531"/>
<text text-anchor="middle" x="705" y="-15.3047" font-family="Futura" font-size="11.00">src/fae/map.c</text>
</a>
</g>
<!-- Node1&#45;&gt;Node9 -->
<g id="edge22" class="edge"><title>Node1&#45;&gt;Node9</title>
<path fill="none" stroke="midnightblue" d="M656.024,-184.737C667.717,-145.406 693.114,-59.9815 701.92,-30.3616"/>
<polygon fill="midnightblue" stroke="midnightblue" points="652.61,-183.941 653.115,-194.524 659.319,-185.936 652.61,-183.941"/>
</g>
<!-- Node10 -->
<g id="node19" class="node"><title>Node10</title>
<a xlink:href="set_8c.html" target="_top" xlink:title="src/fae/set.c">
<polygon fill="none" stroke="black" points="767.238,-7.69531 767.238,-30.3047 846.762,-30.3047 846.762,-7.69531 767.238,-7.69531"/>
<text text-anchor="middle" x="807" y="-15.3047" font-family="Futura" font-size="11.00">src/fae/set.c</text>
</a>
</g>
<!-- Node1&#45;&gt;Node10 -->
<g id="edge24" class="edge"><title>Node1&#45;&gt;Node10</title>
<path fill="none" stroke="midnightblue" d="M665.519,-186.713C698.082,-148.342 772.64,-60.4878 798.207,-30.3616"/>
<polygon fill="midnightblue" stroke="midnightblue" points="662.693,-184.634 658.891,-194.524 668.03,-189.164 662.693,-184.634"/>
</g>
<!-- Node3 -->
<g id="node5" class="node"><title>Node3</title>
<a xlink:href="util_8h.html" target="_top" xlink:title="include/fae/util.h">
<polygon fill="none" stroke="red" points="418.577,-74.6953 418.577,-97.3047 521.423,-97.3047 521.423,-74.6953 418.577,-74.6953"/>
<text text-anchor="middle" x="470" y="-82.3047" font-family="Futura" font-size="11.00">include/fae/util.h</text>
</a>
</g>
<!-- Node2&#45;&gt;Node3 -->
<g id="edge4" class="edge"><title>Node2&#45;&gt;Node3</title>
<path fill="none" stroke="midnightblue" d="M487.852,-125.349C483.542,-116.09 478.569,-105.407 474.968,-97.6719"/>
<polygon fill="midnightblue" stroke="midnightblue" points="484.78,-127.042 492.173,-134.631 491.126,-124.088 484.78,-127.042"/>
</g>
<!-- Node4 -->
<g id="node7" class="node"><title>Node4</title>
<a xlink:href="queue_8c.html" target="_top" xlink:title="src/fae/atomic/queue.c">
<polygon fill="none" stroke="black" points="393.29,-7.69531 393.29,-30.3047 528.71,-30.3047 528.71,-7.69531 393.29,-7.69531"/>
<text text-anchor="middle" x="461" y="-15.3047" font-family="Futura" font-size="11.00">src/fae/atomic/queue.c</text>
</a>
</g>
<!-- Node3&#45;&gt;Node4 -->
<g id="edge6" class="edge"><title>Node3&#45;&gt;Node4</title>
<path fill="none" stroke="midnightblue" d="M467.136,-64.3136C465.584,-53.1093 463.733,-39.7368 462.472,-30.6334"/>
<polygon fill="midnightblue" stroke="midnightblue" points="463.715,-65.1312 468.554,-74.5566 470.649,-64.1711 463.715,-65.1312"/>
</g>
<!-- Node5 -->
<g id="node9" class="node"><title>Node5</title>
<a xlink:href="ring__buffer_8c.html" target="_top" xlink:title="src/fae/atomic/ring\l_buffer.c">
<polygon fill="none" stroke="black" points="-0.77124,-0.390625 -0.77124,-37.6094 114.771,-37.6094 114.771,-0.390625 -0.77124,-0.390625"/>
<text text-anchor="start" x="7.22876" y="-22.6094" font-family="Futura" font-size="11.00">src/fae/atomic/ring</text>
<text text-anchor="middle" x="57" y="-8" font-family="Futura" font-size="11.00">_buffer.c</text>
</a>
</g>
<!-- Node3&#45;&gt;Node5 -->
<g id="edge8" class="edge"><title>Node3&#45;&gt;Node5</title>
<path fill="none" stroke="midnightblue" d="M408.029,-78.99C338.485,-71.6884 222.497,-57.8367 124,-38 121.048,-37.4055 118.034,-36.7555 114.998,-36.0664"/>
<polygon fill="midnightblue" stroke="midnightblue" points="408.056,-82.5114 418.364,-80.0626 408.778,-75.5488 408.056,-82.5114"/>
</g>
<!-- Node6 -->
<g id="node11" class="node"><title>Node6</title>
<a xlink:href="stack_8c.html" target="_top" xlink:title="src/fae/atomic/stack.c">
<polygon fill="none" stroke="black" points="133.061,-7.69531 133.061,-30.3047 262.939,-30.3047 262.939,-7.69531 133.061,-7.69531"/>
<text text-anchor="middle" x="198" y="-15.3047" font-family="Futura" font-size="11.00">src/fae/atomic/stack.c</text>
</a>
</g>
<!-- Node3&#45;&gt;Node6 -->
<g id="edge10" class="edge"><title>Node3&#45;&gt;Node6</title>
<path fill="none" stroke="midnightblue" d="M416.171,-72.3075C376.341,-62.8952 320.769,-49.7196 272,-38 261.715,-35.5285 250.632,-32.8439 240.254,-30.3207"/>
<polygon fill="midnightblue" stroke="midnightblue" points="415.408,-75.7235 425.944,-74.6162 417.017,-68.911 415.408,-75.7235"/>
</g>
<!-- Node7 -->
<g id="node13" class="node"><title>Node7</title>
<a xlink:href="audio_8c.html" target="_top" xlink:title="src/fae/audio.c">
<polygon fill="none" stroke="black" points="280.796,-7.69531 280.796,-30.3047 375.204,-30.3047 375.204,-7.69531 280.796,-7.69531"/>
<text text-anchor="middle" x="328" y="-15.3047" font-family="Futura" font-size="11.00">src/fae/audio.c</text>
</a>
</g>
<!-- Node3&#45;&gt;Node7 -->
<g id="edge12" class="edge"><title>Node3&#45;&gt;Node7</title>
<path fill="none" stroke="midnightblue" d="M437.926,-70.3184C411.384,-58.1688 374.337,-41.2106 350.758,-30.4175"/>
<polygon fill="midnightblue" stroke="midnightblue" points="436.636,-73.5769 447.185,-74.5566 439.549,-67.212 436.636,-73.5769"/>
</g>
<!-- Node3&#45;&gt;Node8 -->
<g id="edge14" class="edge"><title>Node3&#45;&gt;Node8</title>
<path fill="none" stroke="midnightblue" d="M499.161,-69.8363C522.455,-57.7236 554.483,-41.0686 574.966,-30.4175"/>
<polygon fill="midnightblue" stroke="midnightblue" points="497.341,-66.8378 490.083,-74.5566 500.57,-73.0483 497.341,-66.8378"/>
</g>
<!-- Node3&#45;&gt;Node9 -->
<g id="edge16" class="edge"><title>Node3&#45;&gt;Node9</title>
<path fill="none" stroke="midnightblue" d="M523.238,-72.1827C559.436,-63.2218 608.319,-50.6393 651,-38 658.865,-35.6711 667.306,-32.9602 675.123,-30.3598"/>
<polygon fill="midnightblue" stroke="midnightblue" points="522.253,-68.8206 513.381,-74.6111 523.928,-75.6174 522.253,-68.8206"/>
</g>
<!-- Node3&#45;&gt;Node10 -->
<g id="edge18" class="edge"><title>Node3&#45;&gt;Node10</title>
<path fill="none" stroke="midnightblue" d="M531.859,-78.196C590.448,-70.9724 680.585,-57.833 757,-38 764.948,-35.9372 773.413,-33.1332 781.074,-30.3525"/>
<polygon fill="midnightblue" stroke="midnightblue" points="531.162,-74.7547 521.656,-79.4333 532.005,-81.7038 531.162,-74.7547"/>
</g>
</g>
</svg>
