<?xml version="1.0" encoding="UTF-8" standalone="no"?>
<!DOCTYPE svg PUBLIC "-//W3C//DTD SVG 1.1//EN"
 "http://www.w3.org/Graphics/SVG/1.1/DTD/svg11.dtd">
<!-- Generated by graphviz version 2.28.0 (20121015.0031)
 -->
<!-- Title: src/fae/set.c Pages: 1 -->
<svg width="540pt" height="212pt"
 viewBox="0.00 0.00 540.00 212.00" xmlns="http://www.w3.org/2000/svg" xmlns:xlink="http://www.w3.org/1999/xlink">
<g id="graph1" class="graph" transform="scale(1 1) rotate(0) translate(4 208)">
<title>src/fae/set.c</title>
<!-- Node1 -->
<g id="node1" class="node"><title>Node1</title>
<polygon fill="#bfbfbf" stroke="black" points="164.238,-180.695 164.238,-203.305 243.762,-203.305 243.762,-180.695 164.238,-180.695"/>
<text text-anchor="middle" x="204" y="-188.305" font-family="Futura" font-size="11.00">src/fae/set.c</text>
</g>
<!-- Node2 -->
<g id="node3" class="node"><title>Node2</title>
<a xlink:href="set_8h.html" target="_top" xlink:title="fae/set.h">
<polygon fill="none" stroke="black" points="144.554,-120.695 144.554,-143.305 205.446,-143.305 205.446,-120.695 144.554,-120.695"/>
<text text-anchor="middle" x="175" y="-128.305" font-family="Futura" font-size="11.00">fae/set.h</text>
</a>
</g>
<!-- Node1&#45;&gt;Node2 -->
<g id="edge2" class="edge"><title>Node1&#45;&gt;Node2</title>
<path fill="none" stroke="midnightblue" d="M198.815,-180.631C194.946,-172.892 189.542,-162.084 184.86,-152.719"/>
<polygon fill="midnightblue" stroke="midnightblue" points="187.939,-151.051 180.336,-143.672 181.678,-154.181 187.939,-151.051"/>
</g>
<!-- Node4 -->
<g id="node7" class="node"><title>Node4</title>
<a xlink:href="list_8h.html" target="_top" xlink:title="fae/list.h">
<polygon fill="none" stroke="black" points="202.906,-60.6953 202.906,-83.3047 263.094,-83.3047 263.094,-60.6953 202.906,-60.6953"/>
<text text-anchor="middle" x="233" y="-68.3047" font-family="Futura" font-size="11.00">fae/list.h</text>
</a>
</g>
<!-- Node1&#45;&gt;Node4 -->
<g id="edge20" class="edge"><title>Node1&#45;&gt;Node4</title>
<path fill="none" stroke="midnightblue" d="M206.574,-180.528C211.355,-161.071 221.689,-119.023 227.923,-93.6561"/>
<polygon fill="midnightblue" stroke="midnightblue" points="231.403,-94.1642 230.391,-83.6179 224.605,-92.4936 231.403,-94.1642"/>
</g>
<!-- Node5 -->
<g id="node10" class="node"><title>Node5</title>
<a xlink:href="string_8h.html" target="_top" xlink:title="fae/string.h">
<polygon fill="none" stroke="black" points="72.8269,-60.6953 72.8269,-83.3047 147.173,-83.3047 147.173,-60.6953 72.8269,-60.6953"/>
<text text-anchor="middle" x="110" y="-68.3047" font-family="Futura" font-size="11.00">fae/string.h</text>
</a>
</g>
<!-- Node1&#45;&gt;Node5 -->
<g id="edge22" class="edge"><title>Node1&#45;&gt;Node5</title>
<path fill="none" stroke="midnightblue" d="M182.341,-180.583C167.479,-172.457 148.295,-159.89 136,-144 124.494,-129.129 117.724,-108.673 113.992,-93.5361"/>
<polygon fill="midnightblue" stroke="midnightblue" points="117.373,-92.6137 111.788,-83.6105 110.54,-94.1315 117.373,-92.6137"/>
</g>
<!-- Node6 -->
<g id="node13" class="node"><title>Node6</title>
<a xlink:href="pair_8h.html" target="_top" xlink:title="fae/pair.h">
<polygon fill="none" stroke="black" points="260.651,-120.695 260.651,-143.305 327.349,-143.305 327.349,-120.695 260.651,-120.695"/>
<text text-anchor="middle" x="294" y="-128.305" font-family="Futura" font-size="11.00">fae/pair.h</text>
</a>
</g>
<!-- Node1&#45;&gt;Node6 -->
<g id="edge14" class="edge"><title>Node1&#45;&gt;Node6</title>
<path fill="none" stroke="midnightblue" d="M220.09,-180.631C233.7,-171.86 253.427,-159.147 269.079,-149.06"/>
<polygon fill="midnightblue" stroke="midnightblue" points="271.236,-151.834 277.746,-143.475 267.444,-145.95 271.236,-151.834"/>
</g>
<!-- Node7 -->
<g id="node19" class="node"><title>Node7</title>
<a xlink:href="dynamic_8h.html" target="_top" xlink:title="fae/dynamic.h">
<polygon fill="none" stroke="black" points="-0.561035,-120.695 -0.561035,-143.305 88.561,-143.305 88.561,-120.695 -0.561035,-120.695"/>
<text text-anchor="middle" x="44" y="-128.305" font-family="Futura" font-size="11.00">fae/dynamic.h</text>
</a>
</g>
<!-- Node1&#45;&gt;Node7 -->
<g id="edge24" class="edge"><title>Node1&#45;&gt;Node7</title>
<path fill="none" stroke="midnightblue" d="M175.395,-180.631C149.424,-171.216 110.921,-157.259 82.3008,-146.884"/>
<polygon fill="midnightblue" stroke="midnightblue" points="83.2206,-143.495 72.6264,-143.377 80.835,-150.076 83.2206,-143.495"/>
</g>
<!-- Node8 -->
<g id="node23" class="node"><title>Node8</title>
<a xlink:href="util_8h.html" target="_top" xlink:title="fae/util.h">
<polygon fill="none" stroke="red" points="345.141,-120.695 345.141,-143.305 406.859,-143.305 406.859,-120.695 345.141,-120.695"/>
<text text-anchor="middle" x="376" y="-128.305" font-family="Futura" font-size="11.00">fae/util.h</text>
</a>
</g>
<!-- Node1&#45;&gt;Node8 -->
<g id="edge30" class="edge"><title>Node1&#45;&gt;Node8</title>
<path fill="none" stroke="midnightblue" d="M234.75,-180.631C262.913,-171.134 304.784,-157.015 335.63,-146.613"/>
<polygon fill="midnightblue" stroke="midnightblue" points="336.869,-149.889 345.227,-143.377 334.632,-143.256 336.869,-149.889"/>
</g>
<!-- Node3 -->
<g id="node5" class="node"><title>Node3</title>
<a xlink:href="fae_2fae_8h.html" target="_top" xlink:title="fae.h">
<polygon fill="none" stroke="red" points="154.23,-0.695312 154.23,-23.3047 195.77,-23.3047 195.77,-0.695312 154.23,-0.695312"/>
<text text-anchor="middle" x="175" y="-8.30469" font-family="Futura" font-size="11.00">fae.h</text>
</a>
</g>
<!-- Node2&#45;&gt;Node3 -->
<g id="edge4" class="edge"><title>Node2&#45;&gt;Node3</title>
<path fill="none" stroke="midnightblue" d="M175,-120.528C175,-101.071 175,-59.0228 175,-33.6561"/>
<polygon fill="midnightblue" stroke="midnightblue" points="178.5,-33.6178 175,-23.6179 171.5,-33.6179 178.5,-33.6178"/>
</g>
<!-- Node2&#45;&gt;Node4 -->
<g id="edge6" class="edge"><title>Node2&#45;&gt;Node4</title>
<path fill="none" stroke="midnightblue" d="M185.369,-120.631C193.597,-112.403 205.293,-100.707 215.037,-90.9633"/>
<polygon fill="midnightblue" stroke="midnightblue" points="217.732,-93.2179 222.328,-83.6719 212.782,-88.2681 217.732,-93.2179"/>
</g>
<!-- Node2&#45;&gt;Node5 -->
<g id="edge10" class="edge"><title>Node2&#45;&gt;Node5</title>
<path fill="none" stroke="midnightblue" d="M163.379,-120.631C153.976,-112.24 140.53,-100.242 129.485,-90.3869"/>
<polygon fill="midnightblue" stroke="midnightblue" points="131.752,-87.7183 121.96,-83.6719 127.091,-92.9413 131.752,-87.7183"/>
</g>
<!-- Node4&#45;&gt;Node3 -->
<g id="edge8" class="edge"><title>Node4&#45;&gt;Node3</title>
<path fill="none" stroke="midnightblue" d="M222.631,-60.6308C214.403,-52.4034 202.707,-40.7066 192.963,-30.9633"/>
<polygon fill="midnightblue" stroke="midnightblue" points="195.218,-28.2681 185.672,-23.6719 190.268,-33.2179 195.218,-28.2681"/>
</g>
<!-- Node5&#45;&gt;Node3 -->
<g id="edge12" class="edge"><title>Node5&#45;&gt;Node3</title>
<path fill="none" stroke="midnightblue" d="M121.621,-60.6308C131.024,-52.2405 144.47,-40.242 155.515,-30.3869"/>
<polygon fill="midnightblue" stroke="midnightblue" points="157.909,-32.9413 163.04,-23.6719 153.248,-27.7183 157.909,-32.9413"/>
</g>
<!-- Node6&#45;&gt;Node3 -->
<g id="edge16" class="edge"><title>Node6&#45;&gt;Node3</title>
<path fill="none" stroke="midnightblue" d="M293.338,-120.6C291.867,-105.56 287.142,-77.6149 272,-60 254.73,-39.909 226.894,-27.6651 205.461,-20.7338"/>
<polygon fill="midnightblue" stroke="midnightblue" points="206.412,-17.3649 195.828,-17.8302 204.392,-24.0671 206.412,-17.3649"/>
</g>
<!-- Node6&#45;&gt;Node4 -->
<g id="edge18" class="edge"><title>Node6&#45;&gt;Node4</title>
<path fill="none" stroke="midnightblue" d="M283.094,-120.631C274.356,-112.322 261.896,-100.475 251.589,-90.6745"/>
<polygon fill="midnightblue" stroke="midnightblue" points="253.883,-88.026 244.224,-83.6719 249.059,-93.099 253.883,-88.026"/>
</g>
<!-- Node7&#45;&gt;Node3 -->
<g id="edge26" class="edge"><title>Node7&#45;&gt;Node3</title>
<path fill="none" stroke="midnightblue" d="M44.2116,-120.515C45.0628,-105.369 48.7587,-77.293 64,-60 84.5826,-36.6466 118.722,-24.5641 143.715,-18.5391"/>
<polygon fill="midnightblue" stroke="midnightblue" points="144.79,-21.8862 153.8,-16.3126 143.281,-15.0508 144.79,-21.8862"/>
</g>
<!-- Node7&#45;&gt;Node5 -->
<g id="edge28" class="edge"><title>Node7&#45;&gt;Node5</title>
<path fill="none" stroke="midnightblue" d="M55.7995,-120.631C65.3471,-112.24 79.0005,-100.242 90.2149,-90.3869"/>
<polygon fill="midnightblue" stroke="midnightblue" points="92.6549,-92.9021 97.8561,-83.6719 88.0341,-87.644 92.6549,-92.9021"/>
</g>
<!-- Node9 -->
<g id="node25" class="node"><title>Node9</title>
<a xlink:href="arch_8h.html" target="_top" xlink:title="fae/util/arch.h">
<polygon fill="none" stroke="black" points="443.205,-60.6953 443.205,-83.3047 532.795,-83.3047 532.795,-60.6953 443.205,-60.6953"/>
<text text-anchor="middle" x="488" y="-68.3047" font-family="Futura" font-size="11.00">fae/util/arch.h</text>
</a>
</g>
<!-- Node8&#45;&gt;Node9 -->
<g id="edge32" class="edge"><title>Node8&#45;&gt;Node9</title>
<path fill="none" stroke="midnightblue" d="M396.023,-120.631C413.514,-111.573 439.124,-98.3109 458.881,-88.0794"/>
<polygon fill="midnightblue" stroke="midnightblue" points="460.502,-91.1816 467.772,-83.475 457.283,-84.9656 460.502,-91.1816"/>
</g>
<!-- Node10 -->
<g id="node27" class="node"><title>Node10</title>
<a xlink:href="alignof_8h.html" target="_top" xlink:title="fae/util/alignof.h">
<polygon fill="none" stroke="black" points="323.007,-60.6953 323.007,-83.3047 424.993,-83.3047 424.993,-60.6953 323.007,-60.6953"/>
<text text-anchor="middle" x="374" y="-68.3047" font-family="Futura" font-size="11.00">fae/util/alignof.h</text>
</a>
</g>
<!-- Node8&#45;&gt;Node10 -->
<g id="edge34" class="edge"><title>Node8&#45;&gt;Node10</title>
<path fill="none" stroke="midnightblue" d="M375.642,-120.631C375.387,-113.218 375.034,-102.989 374.721,-93.9096"/>
<polygon fill="midnightblue" stroke="midnightblue" points="378.211,-93.5453 374.368,-83.6719 371.215,-93.7866 378.211,-93.5453"/>
</g>
</g>
</svg>
