<?xml version="1.0" encoding="UTF-8" standalone="no"?>
<!DOCTYPE svg PUBLIC "-//W3C//DTD SVG 1.1//EN"
 "http://www.w3.org/Graphics/SVG/1.1/DTD/svg11.dtd">
<!-- Generated by graphviz version 2.28.0 (20121015.0031)
 -->
<!-- Title: include/fae/set.h Pages: 1 -->
<svg width="855pt" height="226pt"
 viewBox="0.00 0.00 855.00 226.00" xmlns="http://www.w3.org/2000/svg" xmlns:xlink="http://www.w3.org/1999/xlink">
<g id="graph1" class="graph" transform="scale(1 1) rotate(0) translate(4 222)">
<title>include/fae/set.h</title>
<!-- Node1 -->
<g id="node1" class="node"><title>Node1</title>
<polygon fill="#bfbfbf" stroke="black" points="599.991,-194.695 599.991,-217.305 702.009,-217.305 702.009,-194.695 599.991,-194.695"/>
<text text-anchor="middle" x="651" y="-202.305" font-family="Futura" font-size="11.00">include/fae/set.h</text>
</g>
<!-- Node2 -->
<g id="node3" class="node"><title>Node2</title>
<a xlink:href="literals_8h.html" target="_top" xlink:title="include/fae/util/literals.h">
<polygon fill="none" stroke="black" points="427.475,-134.695 427.475,-157.305 568.525,-157.305 568.525,-134.695 427.475,-134.695"/>
<text text-anchor="middle" x="498" y="-142.305" font-family="Futura" font-size="11.00">include/fae/util/literals.h</text>
</a>
</g>
<!-- Node1&#45;&gt;Node2 -->
<g id="edge2" class="edge"><title>Node1&#45;&gt;Node2</title>
<path fill="none" stroke="midnightblue" d="M614.039,-190.989C586.714,-180.63 550.107,-166.753 525.374,-157.377"/>
<polygon fill="midnightblue" stroke="midnightblue" points="613.055,-194.359 623.647,-194.631 615.537,-187.813 613.055,-194.359"/>
</g>
<!-- Node8 -->
<g id="node15" class="node"><title>Node8</title>
<a xlink:href="graph_8c.html" target="_top" xlink:title="src/fae/graph.c">
<polygon fill="none" stroke="black" points="548.141,-7.69531 548.141,-30.3047 643.859,-30.3047 643.859,-7.69531 548.141,-7.69531"/>
<text text-anchor="middle" x="596" y="-15.3047" font-family="Futura" font-size="11.00">src/fae/graph.c</text>
</a>
</g>
<!-- Node1&#45;&gt;Node8 -->
<g id="edge20" class="edge"><title>Node1&#45;&gt;Node8</title>
<path fill="none" stroke="midnightblue" d="M644.976,-184.737C633.283,-145.406 607.886,-59.9815 599.08,-30.3616"/>
<polygon fill="midnightblue" stroke="midnightblue" points="641.681,-185.936 647.885,-194.524 648.39,-183.941 641.681,-185.936"/>
</g>
<!-- Node9 -->
<g id="node17" class="node"><title>Node9</title>
<a xlink:href="map_8c.html" target="_top" xlink:title="src/fae/map.c">
<polygon fill="none" stroke="black" points="662.118,-7.69531 662.118,-30.3047 749.882,-30.3047 749.882,-7.69531 662.118,-7.69531"/>
<text text-anchor="middle" x="706" y="-15.3047" font-family="Futura" font-size="11.00">src/fae/map.c</text>
</a>
</g>
<!-- Node1&#45;&gt;Node9 -->
<g id="edge22" class="edge"><title>Node1&#45;&gt;Node9</title>
<path fill="none" stroke="midnightblue" d="M657.024,-184.737C668.717,-145.406 694.114,-59.9815 702.92,-30.3616"/>
<polygon fill="midnightblue" stroke="midnightblue" points="653.61,-183.941 654.115,-194.524 660.319,-185.936 653.61,-183.941"/>
</g>
<!-- Node10 -->
<g id="node19" class="node"><title>Node10</title>
<a xlink:href="set_8c.html" target="_top" xlink:title="src/fae/set.c">
<polygon fill="none" stroke="black" points="768.238,-7.69531 768.238,-30.3047 847.762,-30.3047 847.762,-7.69531 768.238,-7.69531"/>
<text text-anchor="middle" x="808" y="-15.3047" font-family="Futura" font-size="11.00">src/fae/set.c</text>
</a>
</g>
<!-- Node1&#45;&gt;Node10 -->
<g id="edge24" class="edge"><title>Node1&#45;&gt;Node10</title>
<path fill="none" stroke="midnightblue" d="M666.519,-186.713C699.082,-148.342 773.64,-60.4878 799.207,-30.3616"/>
<polygon fill="midnightblue" stroke="midnightblue" points="663.693,-184.634 659.891,-194.524 669.03,-189.164 663.693,-184.634"/>
</g>
<!-- Node3 -->
<g id="node5" class="node"><title>Node3</title>
<a xlink:href="util_8h.html" target="_top" xlink:title="include/fae/util.h">
<polygon fill="none" stroke="red" points="419.577,-74.6953 419.577,-97.3047 522.423,-97.3047 522.423,-74.6953 419.577,-74.6953"/>
<text text-anchor="middle" x="471" y="-82.3047" font-family="Futura" font-size="11.00">include/fae/util.h</text>
</a>
</g>
<!-- Node2&#45;&gt;Node3 -->
<g id="edge4" class="edge"><title>Node2&#45;&gt;Node3</title>
<path fill="none" stroke="midnightblue" d="M488.852,-125.349C484.542,-116.09 479.569,-105.407 475.968,-97.6719"/>
<polygon fill="midnightblue" stroke="midnightblue" points="485.78,-127.042 493.173,-134.631 492.126,-124.088 485.78,-127.042"/>
</g>
<!-- Node4 -->
<g id="node7" class="node"><title>Node4</title>
<a xlink:href="queue_8c.html" target="_top" xlink:title="src/fae/atomic/queue.c">
<polygon fill="none" stroke="black" points="394.29,-7.69531 394.29,-30.3047 529.71,-30.3047 529.71,-7.69531 394.29,-7.69531"/>
<text text-anchor="middle" x="462" y="-15.3047" font-family="Futura" font-size="11.00">src/fae/atomic/queue.c</text>
</a>
</g>
<!-- Node3&#45;&gt;Node4 -->
<g id="edge6" class="edge"><title>Node3&#45;&gt;Node4</title>
<path fill="none" stroke="midnightblue" d="M468.136,-64.3136C466.584,-53.1093 464.733,-39.7368 463.472,-30.6334"/>
<polygon fill="midnightblue" stroke="midnightblue" points="464.715,-65.1312 469.554,-74.5566 471.649,-64.1711 464.715,-65.1312"/>
</g>
<!-- Node5 -->
<g id="node9" class="node"><title>Node5</title>
<a xlink:href="ring__buffer_8c.html" target="_top" xlink:title="src/fae/atomic/ring\l_buffer.c">
<polygon fill="none" stroke="black" points="-0.77124,-0.390625 -0.77124,-37.6094 114.771,-37.6094 114.771,-0.390625 -0.77124,-0.390625"/>
<text text-anchor="start" x="7.22876" y="-22.6094" font-family="Futura" font-size="11.00">src/fae/atomic/ring</text>
<text text-anchor="middle" x="57" y="-8" font-family="Futura" font-size="11.00">_buffer.c</text>
</a>
</g>
<!-- Node3&#45;&gt;Node5 -->
<g id="edge8" class="edge"><title>Node3&#45;&gt;Node5</title>
<path fill="none" stroke="midnightblue" d="M409.15,-79.0352C339.438,-71.7544 222.922,-57.9025 124,-38 121.048,-37.4061 118.034,-36.7565 114.997,-36.0678"/>
<polygon fill="midnightblue" stroke="midnightblue" points="409.2,-82.559 419.507,-80.1045 409.919,-75.596 409.2,-82.559"/>
</g>
<!-- Node6 -->
<g id="node11" class="node"><title>Node6</title>
<a xlink:href="stack_8c.html" target="_top" xlink:title="src/fae/atomic/stack.c">
<polygon fill="none" stroke="black" points="133.061,-7.69531 133.061,-30.3047 262.939,-30.3047 262.939,-7.69531 133.061,-7.69531"/>
<text text-anchor="middle" x="198" y="-15.3047" font-family="Futura" font-size="11.00">src/fae/atomic/stack.c</text>
</a>
</g>
<!-- Node3&#45;&gt;Node6 -->
<g id="edge10" class="edge"><title>Node3&#45;&gt;Node6</title>
<path fill="none" stroke="midnightblue" d="M416.895,-72.3244C376.862,-62.9204 321.009,-49.748 272,-38 261.714,-35.5343 250.63,-32.8519 240.252,-30.329"/>
<polygon fill="midnightblue" stroke="midnightblue" points="416.183,-75.7524 426.719,-74.6309 417.783,-68.9377 416.183,-75.7524"/>
</g>
<!-- Node7 -->
<g id="node13" class="node"><title>Node7</title>
<a xlink:href="buffer_8c.html" target="_top" xlink:title="src/fae/buffer.c">
<polygon fill="none" stroke="black" points="281.431,-7.69531 281.431,-30.3047 376.569,-30.3047 376.569,-7.69531 281.431,-7.69531"/>
<text text-anchor="middle" x="329" y="-15.3047" font-family="Futura" font-size="11.00">src/fae/buffer.c</text>
</a>
</g>
<!-- Node3&#45;&gt;Node7 -->
<g id="edge12" class="edge"><title>Node3&#45;&gt;Node7</title>
<path fill="none" stroke="midnightblue" d="M438.926,-70.3184C412.384,-58.1688 375.337,-41.2106 351.758,-30.4175"/>
<polygon fill="midnightblue" stroke="midnightblue" points="437.636,-73.5769 448.185,-74.5566 440.549,-67.212 437.636,-73.5769"/>
</g>
<!-- Node3&#45;&gt;Node8 -->
<g id="edge14" class="edge"><title>Node3&#45;&gt;Node8</title>
<path fill="none" stroke="midnightblue" d="M500.161,-69.8363C523.455,-57.7236 555.483,-41.0686 575.966,-30.4175"/>
<polygon fill="midnightblue" stroke="midnightblue" points="498.341,-66.8378 491.083,-74.5566 501.57,-73.0483 498.341,-66.8378"/>
</g>
<!-- Node3&#45;&gt;Node9 -->
<g id="edge16" class="edge"><title>Node3&#45;&gt;Node9</title>
<path fill="none" stroke="midnightblue" d="M524.238,-72.1827C560.436,-63.2218 609.319,-50.6393 652,-38 659.865,-35.6711 668.306,-32.9602 676.123,-30.3598"/>
<polygon fill="midnightblue" stroke="midnightblue" points="523.253,-68.8206 514.381,-74.6111 524.928,-75.6174 523.253,-68.8206"/>
</g>
<!-- Node3&#45;&gt;Node10 -->
<g id="edge18" class="edge"><title>Node3&#45;&gt;Node10</title>
<path fill="none" stroke="midnightblue" d="M532.859,-78.196C591.448,-70.9724 681.585,-57.833 758,-38 765.948,-35.9372 774.413,-33.1332 782.074,-30.3525"/>
<polygon fill="midnightblue" stroke="midnightblue" points="532.162,-74.7547 522.656,-79.4333 533.005,-81.7038 532.162,-74.7547"/>
</g>
</g>
</svg>
