<?xml version="1.0" encoding="UTF-8" standalone="no"?>
<!DOCTYPE svg PUBLIC "-//W3C//DTD SVG 1.1//EN"
 "http://www.w3.org/Graphics/SVG/1.1/DTD/svg11.dtd">
<!-- Generated by graphviz version 2.28.0 (20121015.0031)
 -->
<!-- Title: include/fa/set.h Pages: 1 -->
<svg width="792pt" height="212pt"
 viewBox="0.00 0.00 792.00 212.00" xmlns="http://www.w3.org/2000/svg" xmlns:xlink="http://www.w3.org/1999/xlink">
<g id="graph1" class="graph" transform="scale(1 1) rotate(0) translate(4 208)">
<title>include/fa/set.h</title>
<!-- Node1 -->
<g id="node1" class="node"><title>Node1</title>
<polygon fill="#bfbfbf" stroke="black" points="689.034,-180.695 689.034,-203.305 784.966,-203.305 784.966,-180.695 689.034,-180.695"/>
<text text-anchor="middle" x="737" y="-188.305" font-family="Futura" font-size="11.00">include/fa/set.h</text>
</g>
<!-- Node2 -->
<g id="node3" class="node"><title>Node2</title>
<a xlink:href="fa_2fa_8h.html" target="_top" xlink:title="fa.h">
<polygon fill="none" stroke="red" points="559.273,-120.695 559.273,-143.305 594.727,-143.305 594.727,-120.695 559.273,-120.695"/>
<text text-anchor="middle" x="577" y="-128.305" font-family="Futura" font-size="11.00">fa.h</text>
</a>
</g>
<!-- Node1&#45;&gt;Node2 -->
<g id="edge2" class="edge"><title>Node1&#45;&gt;Node2</title>
<path fill="none" stroke="midnightblue" d="M708.395,-180.631C678.967,-169.963 633.447,-153.462 604.449,-142.95"/>
<polygon fill="midnightblue" stroke="midnightblue" points="605.528,-139.619 594.934,-139.501 603.143,-146.2 605.528,-139.619"/>
</g>
<!-- Node9 -->
<g id="node19" class="node"><title>Node9</title>
<a xlink:href="string_8h.html" target="_top" xlink:title="fa/string.h">
<polygon fill="none" stroke="black" points="647.87,-0.695312 647.87,-23.3047 716.13,-23.3047 716.13,-0.695312 647.87,-0.695312"/>
<text text-anchor="middle" x="682" y="-8.30469" font-family="Futura" font-size="11.00">fa/string.h</text>
</a>
</g>
<!-- Node1&#45;&gt;Node9 -->
<g id="edge30" class="edge"><title>Node1&#45;&gt;Node9</title>
<path fill="none" stroke="midnightblue" d="M745.19,-180.371C762.118,-157.01 797.414,-100.087 773,-60 762.621,-42.9577 743.855,-31.8253 726.05,-24.6963"/>
<polygon fill="midnightblue" stroke="midnightblue" points="726.91,-21.2841 716.316,-21.1354 724.505,-27.858 726.91,-21.2841"/>
</g>
<!-- Node10 -->
<g id="node22" class="node"><title>Node10</title>
<a xlink:href="list_8h.html" target="_top" xlink:title="fa/list.h">
<polygon fill="none" stroke="black" points="709.949,-60.6953 709.949,-83.3047 764.051,-83.3047 764.051,-60.6953 709.949,-60.6953"/>
<text text-anchor="middle" x="737" y="-68.3047" font-family="Futura" font-size="11.00">fa/list.h</text>
</a>
</g>
<!-- Node1&#45;&gt;Node10 -->
<g id="edge28" class="edge"><title>Node1&#45;&gt;Node10</title>
<path fill="none" stroke="midnightblue" d="M737,-180.528C737,-161.071 737,-119.023 737,-93.6561"/>
<polygon fill="midnightblue" stroke="midnightblue" points="740.5,-93.6178 737,-83.6179 733.5,-93.6179 740.5,-93.6178"/>
</g>
<!-- Node3 -->
<g id="node5" class="node"><title>Node3</title>
<a xlink:href="atomic_8h.html" target="_top" xlink:title="fa/atomic.h">
<polygon fill="none" stroke="red" points="-0.0629883,-60.6953 -0.0629883,-83.3047 74.063,-83.3047 74.063,-60.6953 -0.0629883,-60.6953"/>
<text text-anchor="middle" x="37" y="-68.3047" font-family="Futura" font-size="11.00">fa/atomic.h</text>
</a>
</g>
<!-- Node2&#45;&gt;Node3 -->
<g id="edge4" class="edge"><title>Node2&#45;&gt;Node3</title>
<path fill="none" stroke="midnightblue" d="M559.146,-130.356C494.665,-127.616 269.909,-115.664 80.2159,-84.9736"/>
<polygon fill="midnightblue" stroke="midnightblue" points="80.5032,-81.474 70.0684,-83.3082 79.3695,-88.3816 80.5032,-81.474"/>
</g>
<!-- Node4 -->
<g id="node8" class="node"><title>Node4</title>
<a xlink:href="queue_8h.html" target="_top" xlink:title="fa/atomic/queue.h">
<polygon fill="none" stroke="red" points="91.6484,-60.6953 91.6484,-83.3047 202.352,-83.3047 202.352,-60.6953 91.6484,-60.6953"/>
<text text-anchor="middle" x="147" y="-68.3047" font-family="Futura" font-size="11.00">fa/atomic/queue.h</text>
</a>
</g>
<!-- Node2&#45;&gt;Node4 -->
<g id="edge8" class="edge"><title>Node2&#45;&gt;Node4</title>
<path fill="none" stroke="midnightblue" d="M559.063,-128.97C507.112,-123.035 351.871,-104.892 212.486,-84.1796"/>
<polygon fill="midnightblue" stroke="midnightblue" points="212.887,-80.7007 202.48,-82.684 211.852,-87.6238 212.887,-80.7007"/>
</g>
<!-- Node5 -->
<g id="node10" class="node"><title>Node5</title>
<a xlink:href="stack_8h.html" target="_top" xlink:title="fa/atomic/stack.h">
<polygon fill="none" stroke="red" points="220.42,-60.6953 220.42,-83.3047 325.58,-83.3047 325.58,-60.6953 220.42,-60.6953"/>
<text text-anchor="middle" x="273" y="-68.3047" font-family="Futura" font-size="11.00">fa/atomic/stack.h</text>
</a>
</g>
<!-- Node2&#45;&gt;Node5 -->
<g id="edge10" class="edge"><title>Node2&#45;&gt;Node5</title>
<path fill="none" stroke="midnightblue" d="M558.894,-127.546C515.948,-119.352 406.258,-98.4242 335.911,-85.0029"/>
<polygon fill="midnightblue" stroke="midnightblue" points="336.309,-81.5157 325.831,-83.0795 334.998,-88.3917 336.309,-81.5157"/>
</g>
<!-- Node6 -->
<g id="node12" class="node"><title>Node6</title>
<a xlink:href="ring__buffer_8h.html" target="_top" xlink:title="fa/atomic/ring_buffer.h">
<polygon fill="none" stroke="red" points="343.526,-60.6953 343.526,-83.3047 478.474,-83.3047 478.474,-60.6953 343.526,-60.6953"/>
<text text-anchor="middle" x="411" y="-68.3047" font-family="Futura" font-size="11.00">fa/atomic/ring_buffer.h</text>
</a>
</g>
<!-- Node2&#45;&gt;Node6 -->
<g id="edge12" class="edge"><title>Node2&#45;&gt;Node6</title>
<path fill="none" stroke="midnightblue" d="M559.235,-124.793C533.429,-115.776 484.893,-98.8181 450.394,-86.7643"/>
<polygon fill="midnightblue" stroke="midnightblue" points="451.218,-83.3448 440.624,-83.3504 448.91,-89.9531 451.218,-83.3448"/>
</g>
<!-- Node7 -->
<g id="node14" class="node"><title>Node7</title>
<a xlink:href="system_8h.html" target="_top" xlink:title="fa/system.h">
<polygon fill="none" stroke="red" points="496.026,-60.6953 496.026,-83.3047 569.974,-83.3047 569.974,-60.6953 496.026,-60.6953"/>
<text text-anchor="middle" x="533" y="-68.3047" font-family="Futura" font-size="11.00">fa/system.h</text>
</a>
</g>
<!-- Node2&#45;&gt;Node7 -->
<g id="edge14" class="edge"><title>Node2&#45;&gt;Node7</title>
<path fill="none" stroke="midnightblue" d="M569.134,-120.631C563.078,-112.648 554.544,-101.398 547.29,-91.8366"/>
<polygon fill="midnightblue" stroke="midnightblue" points="549.928,-89.5234 541.096,-83.6719 544.351,-93.7542 549.928,-89.5234"/>
</g>
<!-- Node8 -->
<g id="node16" class="node"><title>Node8</title>
<a xlink:href="error_8h.html" target="_top" xlink:title="fa/error.h">
<polygon fill="none" stroke="black" points="588.161,-60.6953 588.161,-83.3047 653.839,-83.3047 653.839,-60.6953 588.161,-60.6953"/>
<text text-anchor="middle" x="621" y="-68.3047" font-family="Futura" font-size="11.00">fa/error.h</text>
</a>
</g>
<!-- Node2&#45;&gt;Node8 -->
<g id="edge16" class="edge"><title>Node2&#45;&gt;Node8</title>
<path fill="none" stroke="midnightblue" d="M579.55,-120.631C584.25,-112.485 592.676,-100.938 600.833,-91.2533"/>
<polygon fill="midnightblue" stroke="midnightblue" points="603.534,-93.4825 607.534,-83.6719 598.289,-88.8465 603.534,-93.4825"/>
</g>
<!-- Node2&#45;&gt;Node10 -->
<g id="edge24" class="edge"><title>Node2&#45;&gt;Node10</title>
<path fill="none" stroke="midnightblue" d="M595.024,-122.69C620.496,-112.641 667.097,-95.6764 700.035,-84.4079"/>
<polygon fill="midnightblue" stroke="midnightblue" points="701.431,-87.6304 709.779,-81.1076 699.185,-81.0003 701.431,-87.6304"/>
</g>
<!-- Node3&#45;&gt;Node2 -->
<g id="edge6" class="edge"><title>Node3&#45;&gt;Node2</title>
<path fill="none" stroke="midnightblue" d="M74.1456,-80.4326C80.1497,-81.7716 86.249,-83.0436 92,-84 264.531,-112.691 474.092,-125.435 548.959,-129.481"/>
<polygon fill="midnightblue" stroke="midnightblue" points="548.835,-132.979 559.007,-130.015 549.207,-125.989 548.835,-132.979"/>
</g>
<!-- Node8&#45;&gt;Node2 -->
<g id="edge18" class="edge"><title>Node8&#45;&gt;Node2</title>
<path fill="none" stroke="midnightblue" d="M618.274,-83.6719C613.483,-91.9008 605.016,-103.466 596.866,-113.104"/>
<polygon fill="midnightblue" stroke="midnightblue" points="594.205,-110.829 590.182,-120.631 599.439,-115.477 594.205,-110.829"/>
</g>
<!-- Node8&#45;&gt;Node9 -->
<g id="edge20" class="edge"><title>Node8&#45;&gt;Node9</title>
<path fill="none" stroke="midnightblue" d="M631.906,-60.6308C640.644,-52.3219 653.104,-40.4746 663.411,-30.6745"/>
<polygon fill="midnightblue" stroke="midnightblue" points="665.941,-33.099 670.776,-23.6719 661.117,-28.026 665.941,-33.099"/>
</g>
<!-- Node9&#45;&gt;Node2 -->
<g id="edge22" class="edge"><title>Node9&#45;&gt;Node2</title>
<path fill="none" stroke="midnightblue" d="M681.524,-23.53C680.343,-38.4802 676.237,-66.0345 662,-84 647.352,-102.484 623.338,-114.8 604.564,-122.17"/>
<polygon fill="midnightblue" stroke="midnightblue" points="603.214,-118.937 595.035,-125.672 605.628,-125.508 603.214,-118.937"/>
</g>
<!-- Node10&#45;&gt;Node2 -->
<g id="edge26" class="edge"><title>Node10&#45;&gt;Node2</title>
<path fill="none" stroke="midnightblue" d="M713.607,-83.4098C684.569,-94.6746 635.502,-112.409 604.644,-122.751"/>
<polygon fill="midnightblue" stroke="midnightblue" points="603.333,-119.498 594.933,-125.954 605.526,-126.145 603.333,-119.498"/>
</g>
</g>
</svg>
