<?xml version="1.0" encoding="UTF-8" standalone="no"?>
<!DOCTYPE svg PUBLIC "-//W3C//DTD SVG 1.1//EN"
 "http://www.w3.org/Graphics/SVG/1.1/DTD/svg11.dtd">
<!-- Generated by graphviz version 2.28.0 (20121015.0031)
 -->
<!-- Title: include/fae/set.h Pages: 1 -->
<svg width="766pt" height="272pt"
 viewBox="0.00 0.00 766.00 272.00" xmlns="http://www.w3.org/2000/svg" xmlns:xlink="http://www.w3.org/1999/xlink">
<g id="graph1" class="graph" transform="scale(1 1) rotate(0) translate(4 268)">
<title>include/fae/set.h</title>
<!-- Node1 -->
<g id="node1" class="node"><title>Node1</title>
<polygon fill="#bfbfbf" stroke="black" points="503.991,-240.695 503.991,-263.305 606.009,-263.305 606.009,-240.695 503.991,-240.695"/>
<text text-anchor="middle" x="555" y="-248.305" font-family="Futura" font-size="11.00">include/fae/set.h</text>
</g>
<!-- Node2 -->
<g id="node3" class="node"><title>Node2</title>
<a xlink:href="fae_2fae_8h.html" target="_top" xlink:title="fae.h">
<polygon fill="none" stroke="red" points="476.23,-120.695 476.23,-143.305 517.77,-143.305 517.77,-120.695 476.23,-120.695"/>
<text text-anchor="middle" x="497" y="-128.305" font-family="Futura" font-size="11.00">fae.h</text>
</a>
</g>
<!-- Node1&#45;&gt;Node2 -->
<g id="edge2" class="edge"><title>Node1&#45;&gt;Node2</title>
<path fill="none" stroke="midnightblue" d="M543.88,-240.406C535.115,-231.471 523.206,-217.94 516,-204 507.783,-188.102 502.866,-168.314 500.101,-153.669"/>
<polygon fill="midnightblue" stroke="midnightblue" points="503.518,-152.891 498.386,-143.622 496.618,-154.069 503.518,-152.891"/>
</g>
<!-- Node9 -->
<g id="node19" class="node"><title>Node9</title>
<a xlink:href="string_8h.html" target="_top" xlink:title="fae/string.h">
<polygon fill="none" stroke="black" points="682.827,-0.695312 682.827,-23.3047 757.173,-23.3047 757.173,-0.695312 682.827,-0.695312"/>
<text text-anchor="middle" x="720" y="-8.30469" font-family="Futura" font-size="11.00">fae/string.h</text>
</a>
</g>
<!-- Node1&#45;&gt;Node9 -->
<g id="edge28" class="edge"><title>Node1&#45;&gt;Node9</title>
<path fill="none" stroke="midnightblue" d="M572.322,-240.544C608.44,-217.589 691.01,-158.815 722,-84 728.618,-68.0219 727.385,-48.241 724.916,-33.6197"/>
<polygon fill="midnightblue" stroke="midnightblue" points="728.302,-32.7053 722.897,-23.593 721.44,-34.0871 728.302,-32.7053"/>
</g>
<!-- Node10 -->
<g id="node22" class="node"><title>Node10</title>
<a xlink:href="list_8h.html" target="_top" xlink:title="fae/list.h">
<polygon fill="none" stroke="black" points="524.906,-180.695 524.906,-203.305 585.094,-203.305 585.094,-180.695 524.906,-180.695"/>
<text text-anchor="middle" x="555" y="-188.305" font-family="Futura" font-size="11.00">fae/list.h</text>
</a>
</g>
<!-- Node1&#45;&gt;Node10 -->
<g id="edge24" class="edge"><title>Node1&#45;&gt;Node10</title>
<path fill="none" stroke="midnightblue" d="M555,-240.631C555,-233.218 555,-222.989 555,-213.91"/>
<polygon fill="midnightblue" stroke="midnightblue" points="558.5,-213.672 555,-203.672 551.5,-213.672 558.5,-213.672"/>
</g>
<!-- Node3 -->
<g id="node5" class="node"><title>Node3</title>
<a xlink:href="atomic_8h.html" target="_top" xlink:title="fae/atomic.h">
<polygon fill="none" stroke="red" points="-0.105713,-60.6953 -0.105713,-83.3047 80.1057,-83.3047 80.1057,-60.6953 -0.105713,-60.6953"/>
<text text-anchor="middle" x="40" y="-68.3047" font-family="Futura" font-size="11.00">fae/atomic.h</text>
</a>
</g>
<!-- Node2&#45;&gt;Node3 -->
<g id="edge4" class="edge"><title>Node2&#45;&gt;Node3</title>
<path fill="none" stroke="midnightblue" d="M476.11,-129.648C415.99,-125.182 238.96,-109.797 86.9836,-84.9561"/>
<polygon fill="midnightblue" stroke="midnightblue" points="87.448,-81.4855 77.0108,-83.3062 86.3054,-88.3916 87.448,-81.4855"/>
</g>
<!-- Node4 -->
<g id="node8" class="node"><title>Node4</title>
<polygon fill="none" stroke="#bfbfbf" points="98.6057,-60.6953 98.6057,-83.3047 215.394,-83.3047 215.394,-60.6953 98.6057,-60.6953"/>
<text text-anchor="middle" x="157" y="-68.3047" font-family="Futura" font-size="11.00">fae/atomic/queue.h</text>
</g>
<!-- Node2&#45;&gt;Node4 -->
<g id="edge8" class="edge"><title>Node2&#45;&gt;Node4</title>
<path fill="none" stroke="midnightblue" d="M475.988,-127.416C427.077,-119.072 303.833,-98.0479 225.644,-84.7099"/>
<polygon fill="midnightblue" stroke="midnightblue" points="225.842,-81.1932 215.396,-82.9617 224.665,-88.0935 225.842,-81.1932"/>
</g>
<!-- Node5 -->
<g id="node10" class="node"><title>Node5</title>
<a xlink:href="stack_8h.html" target="_top" xlink:title="fae/atomic/stack.h">
<polygon fill="none" stroke="red" points="233.377,-60.6953 233.377,-83.3047 344.623,-83.3047 344.623,-60.6953 233.377,-60.6953"/>
<text text-anchor="middle" x="289" y="-68.3047" font-family="Futura" font-size="11.00">fae/atomic/stack.h</text>
</a>
</g>
<!-- Node2&#45;&gt;Node5 -->
<g id="edge10" class="edge"><title>Node2&#45;&gt;Node5</title>
<path fill="none" stroke="midnightblue" d="M475.911,-125.119C443.333,-116.035 379.955,-98.3624 336.091,-86.1312"/>
<polygon fill="midnightblue" stroke="midnightblue" points="336.793,-82.6933 326.22,-83.3786 334.912,-89.4361 336.793,-82.6933"/>
</g>
<!-- Node6 -->
<g id="node12" class="node"><title>Node6</title>
<polygon fill="none" stroke="#bfbfbf" points="362.483,-60.6953 362.483,-83.3047 503.517,-83.3047 503.517,-60.6953 362.483,-60.6953"/>
<text text-anchor="middle" x="433" y="-68.3047" font-family="Futura" font-size="11.00">fae/atomic/ring_buffer.h</text>
</g>
<!-- Node2&#45;&gt;Node6 -->
<g id="edge12" class="edge"><title>Node2&#45;&gt;Node6</title>
<path fill="none" stroke="midnightblue" d="M485.558,-120.631C476.39,-112.322 463.317,-100.475 452.503,-90.6745"/>
<polygon fill="midnightblue" stroke="midnightblue" points="454.536,-87.7936 444.776,-83.6719 449.835,-92.9806 454.536,-87.7936"/>
</g>
<!-- Node7 -->
<g id="node14" class="node"><title>Node7</title>
<a xlink:href="system_8h.html" target="_top" xlink:title="fae/system.h">
<polygon fill="none" stroke="red" points="521.983,-60.6953 521.983,-83.3047 602.017,-83.3047 602.017,-60.6953 521.983,-60.6953"/>
<text text-anchor="middle" x="562" y="-68.3047" font-family="Futura" font-size="11.00">fae/system.h</text>
</a>
</g>
<!-- Node2&#45;&gt;Node7 -->
<g id="edge14" class="edge"><title>Node2&#45;&gt;Node7</title>
<path fill="none" stroke="midnightblue" d="M508.621,-120.631C518.024,-112.24 531.47,-100.242 542.515,-90.3869"/>
<polygon fill="midnightblue" stroke="midnightblue" points="544.909,-92.9413 550.04,-83.6719 540.248,-87.7183 544.909,-92.9413"/>
</g>
<!-- Node8 -->
<g id="node16" class="node"><title>Node8</title>
<a xlink:href="error_8h.html" target="_top" xlink:title="fae/error.h">
<polygon fill="none" stroke="black" points="620.119,-60.6953 620.119,-83.3047 691.881,-83.3047 691.881,-60.6953 620.119,-60.6953"/>
<text text-anchor="middle" x="656" y="-68.3047" font-family="Futura" font-size="11.00">fae/error.h</text>
</a>
</g>
<!-- Node2&#45;&gt;Node8 -->
<g id="edge16" class="edge"><title>Node2&#45;&gt;Node8</title>
<path fill="none" stroke="midnightblue" d="M518.089,-121.422C542.177,-111.958 581.905,-97.3847 612.616,-86.6975"/>
<polygon fill="midnightblue" stroke="midnightblue" points="613.929,-89.947 622.24,-83.3755 611.645,-83.3302 613.929,-89.947"/>
</g>
<!-- Node3&#45;&gt;Node2 -->
<g id="edge6" class="edge"><title>Node3&#45;&gt;Node2</title>
<path fill="none" stroke="midnightblue" d="M80.2022,-80.4136C86.5308,-81.7225 92.9512,-82.9881 99,-84 234.9,-106.735 398.176,-121.975 465.681,-128.045"/>
<polygon fill="midnightblue" stroke="midnightblue" points="465.771,-131.567 476.044,-128.973 466.396,-124.595 465.771,-131.567"/>
</g>
<!-- Node8&#45;&gt;Node2 -->
<g id="edge18" class="edge"><title>Node8&#45;&gt;Node2</title>
<path fill="none" stroke="midnightblue" d="M632.822,-83.3956C605.012,-94.2582 558.648,-111.147 527.852,-121.616"/>
<polygon fill="midnightblue" stroke="midnightblue" points="526.422,-118.404 518.054,-124.903 528.648,-125.041 526.422,-118.404"/>
</g>
<!-- Node8&#45;&gt;Node9 -->
<g id="edge20" class="edge"><title>Node8&#45;&gt;Node9</title>
<path fill="none" stroke="midnightblue" d="M667.442,-60.6308C676.61,-52.3219 689.683,-40.4746 700.497,-30.6745"/>
<polygon fill="midnightblue" stroke="midnightblue" points="703.165,-32.9806 708.224,-23.6719 698.464,-27.7936 703.165,-32.9806"/>
</g>
<!-- Node9&#45;&gt;Node2 -->
<g id="edge22" class="edge"><title>Node9&#45;&gt;Node2</title>
<path fill="none" stroke="midnightblue" d="M720.18,-23.335C719.858,-38.8133 716.864,-67.9117 700,-84 675.503,-107.371 578.297,-121.693 527.808,-127.704"/>
<polygon fill="midnightblue" stroke="midnightblue" points="527.319,-124.237 517.787,-128.86 528.122,-131.191 527.319,-124.237"/>
</g>
<!-- Node10&#45;&gt;Node2 -->
<g id="edge26" class="edge"><title>Node10&#45;&gt;Node2</title>
<path fill="none" stroke="midnightblue" d="M544.631,-180.631C536.403,-172.403 524.707,-160.707 514.963,-150.963"/>
<polygon fill="midnightblue" stroke="midnightblue" points="517.218,-148.268 507.672,-143.672 512.268,-153.218 517.218,-148.268"/>
</g>
</g>
</svg>
