<?xml version="1.0" encoding="UTF-8" standalone="no"?>
<!DOCTYPE svg PUBLIC "-//W3C//DTD SVG 1.1//EN"
 "http://www.w3.org/Graphics/SVG/1.1/DTD/svg11.dtd">
<!-- Generated by graphviz version 2.28.0 (20121015.0031)
 -->
<!-- Title: include/fa/signal.h Pages: 1 -->
<svg width="683pt" height="332pt"
 viewBox="0.00 0.00 683.00 332.00" xmlns="http://www.w3.org/2000/svg" xmlns:xlink="http://www.w3.org/1999/xlink">
<g id="graph1" class="graph" transform="scale(1 1) rotate(0) translate(4 328)">
<title>include/fa/signal.h</title>
<!-- Node1 -->
<g id="node1" class="node"><title>Node1</title>
<polygon fill="#bfbfbf" stroke="black" points="183.283,-300.695 183.283,-323.305 294.717,-323.305 294.717,-300.695 183.283,-300.695"/>
<text text-anchor="middle" x="239" y="-308.305" font-family="Futura" font-size="11.00">include/fa/signal.h</text>
</g>
<!-- Node2 -->
<g id="node3" class="node"><title>Node2</title>
<a xlink:href="action_8h.html" target="_top" xlink:title="include/fa/action.h">
<polygon fill="none" stroke="black" points="89.7459,-240.695 89.7459,-263.305 202.254,-263.305 202.254,-240.695 89.7459,-240.695"/>
<text text-anchor="middle" x="146" y="-248.305" font-family="Futura" font-size="11.00">include/fa/action.h</text>
</a>
</g>
<!-- Node1&#45;&gt;Node2 -->
<g id="edge2" class="edge"><title>Node1&#45;&gt;Node2</title>
<path fill="none" stroke="midnightblue" d="M213.442,-295.061C197.303,-284.996 176.91,-272.277 162.796,-263.475"/>
<polygon fill="midnightblue" stroke="midnightblue" points="212.036,-298.309 222.373,-300.631 215.74,-292.369 212.036,-298.309"/>
</g>
<!-- Node3 -->
<g id="node5" class="node"><title>Node3</title>
<a xlink:href="audio_8h.html" target="_top" xlink:title="include/fa/audio.h">
<polygon fill="none" stroke="black" points="275.592,-180.695 275.592,-203.305 386.408,-203.305 386.408,-180.695 275.592,-180.695"/>
<text text-anchor="middle" x="331" y="-188.305" font-family="Futura" font-size="11.00">include/fa/audio.h</text>
</a>
</g>
<!-- Node1&#45;&gt;Node3 -->
<g id="edge48" class="edge"><title>Node1&#45;&gt;Node3</title>
<path fill="none" stroke="midnightblue" d="M253.395,-292.537C272.891,-267.53 307.053,-223.714 322.721,-203.618"/>
<polygon fill="midnightblue" stroke="midnightblue" points="250.553,-290.49 247.164,-300.528 256.073,-294.794 250.553,-290.49"/>
</g>
<!-- Node4 -->
<g id="node7" class="node"><title>Node4</title>
<a xlink:href="fa_2fa_8h.html" target="_top" xlink:title="include/fa/fa.h">
<polygon fill="none" stroke="red" points="192.846,-120.695 192.846,-143.305 285.153,-143.305 285.153,-120.695 192.846,-120.695"/>
<text text-anchor="middle" x="239" y="-128.305" font-family="Futura" font-size="11.00">include/fa/fa.h</text>
</a>
</g>
<!-- Node1&#45;&gt;Node4 -->
<g id="edge50" class="edge"><title>Node1&#45;&gt;Node4</title>
<path fill="none" stroke="midnightblue" d="M234.478,-290.258C231.166,-252.065 231.546,-171.913 235.62,-143.368"/>
<polygon fill="midnightblue" stroke="midnightblue" points="231.05,-291.104 235.624,-300.661 238.007,-290.337 231.05,-291.104"/>
</g>
<!-- Node2&#45;&gt;Node3 -->
<g id="edge4" class="edge"><title>Node2&#45;&gt;Node3</title>
<path fill="none" stroke="midnightblue" d="M188.963,-237.53C222.174,-227.118 267.47,-212.917 297.9,-203.377"/>
<polygon fill="midnightblue" stroke="midnightblue" points="187.569,-234.299 179.074,-240.631 189.663,-240.979 187.569,-234.299"/>
</g>
<!-- Node2&#45;&gt;Node4 -->
<g id="edge44" class="edge"><title>Node2&#45;&gt;Node4</title>
<path fill="none" stroke="midnightblue" d="M155.94,-231.878C173.263,-206.767 207.686,-163.538 226.561,-143.618"/>
<polygon fill="midnightblue" stroke="midnightblue" points="152.813,-230.259 150.206,-240.528 158.648,-234.127 152.813,-230.259"/>
</g>
<!-- Node7 -->
<g id="node16" class="node"><title>Node7</title>
<a xlink:href="midi_8h.html" target="_top" xlink:title="include/fa/midi.h">
<polygon fill="none" stroke="black" points="85.4724,-0.695312 85.4724,-23.3047 188.527,-23.3047 188.527,-0.695312 85.4724,-0.695312"/>
<text text-anchor="middle" x="137" y="-8.30469" font-family="Futura" font-size="11.00">include/fa/midi.h</text>
</a>
</g>
<!-- Node2&#45;&gt;Node7 -->
<g id="edge46" class="edge"><title>Node2&#45;&gt;Node7</title>
<path fill="none" stroke="midnightblue" d="M124.057,-234.154C90.5771,-206.9 28.093,-149.528 3.99977,-84 0.318816,-73.9886 -2.15929,-68.7088 3.99977,-60 22.3826,-34.007 56.3925,-22.2931 85.4178,-17.0589"/>
<polygon fill="midnightblue" stroke="midnightblue" points="121.905,-236.915 131.902,-240.421 126.273,-231.445 121.905,-236.915"/>
</g>
<!-- Node3&#45;&gt;Node4 -->
<g id="edge6" class="edge"><title>Node3&#45;&gt;Node4</title>
<path fill="none" stroke="midnightblue" d="M305.717,-175.061C289.752,-164.996 269.577,-152.277 255.615,-143.475"/>
<polygon fill="midnightblue" stroke="midnightblue" points="304.226,-178.258 314.552,-180.631 307.959,-172.337 304.226,-178.258"/>
</g>
<!-- Node4&#45;&gt;Node1 -->
<g id="edge42" class="edge"><title>Node4&#45;&gt;Node1</title>
<path fill="none" stroke="midnightblue" d="M243.525,-153.78C246.835,-192.001 246.452,-272.15 242.375,-300.661"/>
<polygon fill="midnightblue" stroke="midnightblue" points="246.952,-152.925 242.38,-143.368 239.994,-153.691 246.952,-152.925"/>
</g>
<!-- Node4&#45;&gt;Node2 -->
<g id="edge8" class="edge"><title>Node4&#45;&gt;Node2</title>
<path fill="none" stroke="midnightblue" d="M229.161,-151.975C211.829,-177.126 177.181,-220.635 158.3,-240.528"/>
<polygon fill="midnightblue" stroke="midnightblue" points="232.093,-153.887 234.702,-143.618 226.259,-150.019 232.093,-153.887"/>
</g>
<!-- Node5 -->
<g id="node10" class="node"><title>Node5</title>
<a xlink:href="buffer_8h.html" target="_top" xlink:title="include/fa/buffer.h">
<polygon fill="none" stroke="red" points="564.227,-60.6953 564.227,-83.3047 675.773,-83.3047 675.773,-60.6953 564.227,-60.6953"/>
<text text-anchor="middle" x="620" y="-68.3047" font-family="Futura" font-size="11.00">include/fa/buffer.h</text>
</a>
</g>
<!-- Node4&#45;&gt;Node5 -->
<g id="edge10" class="edge"><title>Node4&#45;&gt;Node5</title>
<path fill="none" stroke="midnightblue" d="M295.524,-122.94C358.79,-113.839 464.325,-98.4142 555,-84 557.939,-83.5328 560.951,-83.0471 563.992,-82.5514"/>
<polygon fill="midnightblue" stroke="midnightblue" points="294.762,-119.514 285.361,-124.4 295.757,-126.443 294.762,-119.514"/>
</g>
<!-- Node6 -->
<g id="node13" class="node"><title>Node6</title>
<a xlink:href="device_8h.html" target="_top" xlink:title="include/fa/device.h">
<polygon fill="none" stroke="black" points="431.817,-60.6953 431.817,-83.3047 546.183,-83.3047 546.183,-60.6953 431.817,-60.6953"/>
<text text-anchor="middle" x="489" y="-68.3047" font-family="Futura" font-size="11.00">include/fa/device.h</text>
</a>
</g>
<!-- Node4&#45;&gt;Node6 -->
<g id="edge14" class="edge"><title>Node4&#45;&gt;Node6</title>
<path fill="none" stroke="midnightblue" d="M293.61,-118.33C338.759,-107.856 402.085,-93.1642 444.271,-83.3771"/>
<polygon fill="midnightblue" stroke="midnightblue" points="292.645,-114.961 283.695,-120.631 294.227,-121.78 292.645,-114.961"/>
</g>
<!-- Node8 -->
<g id="node19" class="node"><title>Node8</title>
<a xlink:href="dynamic_8h.html" target="_top" xlink:title="include/fa/dynamic.h">
<polygon fill="none" stroke="black" points="164.918,-60.6953 164.918,-83.3047 289.081,-83.3047 289.081,-60.6953 164.918,-60.6953"/>
<text text-anchor="middle" x="227" y="-68.3047" font-family="Futura" font-size="11.00">include/fa/dynamic.h</text>
</a>
</g>
<!-- Node4&#45;&gt;Node8 -->
<g id="edge22" class="edge"><title>Node4&#45;&gt;Node8</title>
<path fill="none" stroke="midnightblue" d="M234.811,-110.756C232.925,-101.637 230.774,-91.2425 229.208,-83.6719"/>
<polygon fill="midnightblue" stroke="midnightblue" points="231.401,-111.547 236.854,-120.631 238.256,-110.129 231.401,-111.547"/>
</g>
<!-- Node9 -->
<g id="node21" class="node"><title>Node9</title>
<a xlink:href="error_8h.html" target="_top" xlink:title="include/fa/error.h">
<polygon fill="none" stroke="black" points="306.598,-60.6953 306.598,-83.3047 413.402,-83.3047 413.402,-60.6953 306.598,-60.6953"/>
<text text-anchor="middle" x="360" y="-68.3047" font-family="Futura" font-size="11.00">include/fa/error.h</text>
</a>
</g>
<!-- Node4&#45;&gt;Node9 -->
<g id="edge24" class="edge"><title>Node4&#45;&gt;Node9</title>
<path fill="none" stroke="midnightblue" d="M264.219,-116.04C284.318,-105.832 312.214,-92.5651 332.812,-83.475"/>
<polygon fill="midnightblue" stroke="midnightblue" points="262.6,-112.937 255.316,-120.631 265.808,-119.158 262.6,-112.937"/>
</g>
<!-- Node10 -->
<g id="node26" class="node"><title>Node10</title>
<a xlink:href="list_8h.html" target="_top" xlink:title="include/fa/list.h">
<polygon fill="none" stroke="red" points="13.3853,-60.6953 13.3853,-83.3047 108.614,-83.3047 108.614,-60.6953 13.3853,-60.6953"/>
<text text-anchor="middle" x="60.9998" y="-68.3047" font-family="Futura" font-size="11.00">include/fa/list.h</text>
</a>
</g>
<!-- Node4&#45;&gt;Node10 -->
<g id="edge32" class="edge"><title>Node4&#45;&gt;Node10</title>
<path fill="none" stroke="midnightblue" d="M192.29,-117.665C158.871,-107.241 115.196,-92.9586 87.5294,-83.3771"/>
<polygon fill="midnightblue" stroke="midnightblue" points="191.273,-121.014 201.861,-120.631 193.345,-114.328 191.273,-121.014"/>
</g>
<!-- Node5&#45;&gt;Node1 -->
<g id="edge12" class="edge"><title>Node5&#45;&gt;Node1</title>
<path fill="none" stroke="midnightblue" d="M594.831,-88.7225C522.667,-133.801 316.353,-262.679 255.862,-300.466"/>
<polygon fill="midnightblue" stroke="midnightblue" points="596.705,-91.6785 603.332,-83.412 592.996,-85.7416 596.705,-91.6785"/>
</g>
<!-- Node6&#45;&gt;Node3 -->
<g id="edge16" class="edge"><title>Node6&#45;&gt;Node3</title>
<path fill="none" stroke="midnightblue" d="M466.623,-89.7121C433.523,-114.432 372.476,-160.024 345.021,-180.528"/>
<polygon fill="midnightblue" stroke="midnightblue" points="468.865,-92.4059 474.783,-83.6179 464.676,-86.7974 468.865,-92.4059"/>
</g>
<!-- Node6&#45;&gt;Node7 -->
<g id="edge18" class="edge"><title>Node6&#45;&gt;Node7</title>
<path fill="none" stroke="midnightblue" d="M421.487,-59.8758C353.54,-48.6798 250.223,-31.6561 188.581,-21.4992"/>
<polygon fill="midnightblue" stroke="midnightblue" points="421.225,-63.3798 431.661,-61.5522 422.364,-56.4729 421.225,-63.3798"/>
</g>
<!-- Node7&#45;&gt;Node4 -->
<g id="edge20" class="edge"><title>Node7&#45;&gt;Node4</title>
<path fill="none" stroke="midnightblue" d="M138.27,-33.5212C140.147,-48.808 144.753,-69.4636 156,-84 169.275,-101.157 190.698,-113.062 208.453,-120.598"/>
<polygon fill="midnightblue" stroke="midnightblue" points="141.749,-33.132 137.329,-23.503 134.779,-33.7865 141.749,-33.132"/>
</g>
<!-- Node9&#45;&gt;Node3 -->
<g id="edge26" class="edge"><title>Node9&#45;&gt;Node3</title>
<path fill="none" stroke="midnightblue" d="M354.923,-93.6561C348.689,-119.023 338.355,-161.071 333.573,-180.528"/>
<polygon fill="midnightblue" stroke="midnightblue" points="358.402,-94.1642 357.39,-83.6179 351.605,-92.4936 358.402,-94.1642"/>
</g>
<!-- Node9&#45;&gt;Node4 -->
<g id="edge28" class="edge"><title>Node9&#45;&gt;Node4</title>
<path fill="none" stroke="midnightblue" d="M334.546,-88.0794C314.387,-98.3109 286.489,-111.573 265.948,-120.631"/>
<polygon fill="midnightblue" stroke="midnightblue" points="336.196,-91.1668 343.482,-83.475 332.989,-84.9443 336.196,-91.1668"/>
</g>
<!-- Node9&#45;&gt;Node7 -->
<g id="edge30" class="edge"><title>Node9&#45;&gt;Node7</title>
<path fill="none" stroke="midnightblue" d="M310.269,-58.0655C270.067,-47.6093 214.212,-33.082 176.898,-23.3771"/>
<polygon fill="midnightblue" stroke="midnightblue" points="309.573,-61.5008 320.132,-60.6308 311.335,-54.7262 309.573,-61.5008"/>
</g>
<!-- Node10&#45;&gt;Node2 -->
<g id="edge34" class="edge"><title>Node10&#45;&gt;Node2</title>
<path fill="none" stroke="midnightblue" d="M70.4553,-92.801C88.5128,-130.615 127.33,-211.904 141.062,-240.661"/>
<polygon fill="midnightblue" stroke="midnightblue" points="73.4184,-90.8836 65.9508,-83.368 67.1016,-93.9001 73.4184,-90.8836"/>
</g>
<!-- Node10&#45;&gt;Node3 -->
<g id="edge36" class="edge"><title>Node10&#45;&gt;Node3</title>
<path fill="none" stroke="midnightblue" d="M84.8748,-88.8461C109.085,-104.412 148.01,-128.079 184,-144 219.039,-159.5 260.801,-172.349 290.842,-180.672"/>
<polygon fill="midnightblue" stroke="midnightblue" points="86.6459,-85.8229 76.3533,-83.31 82.8324,-91.6929 86.6459,-85.8229"/>
</g>
<!-- Node10&#45;&gt;Node4 -->
<g id="edge38" class="edge"><title>Node10&#45;&gt;Node4</title>
<path fill="none" stroke="midnightblue" d="M107.737,-86.3437C141.161,-96.7699 184.835,-111.052 212.493,-120.631"/>
<polygon fill="midnightblue" stroke="midnightblue" points="108.752,-82.994 98.164,-83.3771 106.68,-89.6803 108.752,-82.994"/>
</g>
<!-- Node10&#45;&gt;Node7 -->
<g id="edge40" class="edge"><title>Node10&#45;&gt;Node7</title>
<path fill="none" stroke="midnightblue" d="M82.6287,-54.4937C95.6956,-44.5216 111.956,-32.1126 123.274,-23.475"/>
<polygon fill="midnightblue" stroke="midnightblue" points="80.4132,-51.7817 74.587,-60.6308 84.6599,-57.3463 80.4132,-51.7817"/>
</g>
</g>
</svg>
