<?xml version="1.0" encoding="UTF-8" standalone="no"?>
<!DOCTYPE svg PUBLIC "-//W3C//DTD SVG 1.1//EN"
 "http://www.w3.org/Graphics/SVG/1.1/DTD/svg11.dtd">
<!-- Generated by graphviz version 2.28.0 (20121015.0031)
 -->
<!-- Title: src/fae/signal.c Pages: 1 -->
<svg width="458pt" height="332pt"
 viewBox="0.00 0.00 458.00 332.00" xmlns="http://www.w3.org/2000/svg" xmlns:xlink="http://www.w3.org/1999/xlink">
<g id="graph1" class="graph" transform="scale(1 1) rotate(0) translate(4 328)">
<title>src/fae/signal.c</title>
<!-- Node1 -->
<g id="node1" class="node"><title>Node1</title>
<polygon fill="#bfbfbf" stroke="black" points="179.488,-300.695 179.488,-323.305 274.512,-323.305 274.512,-300.695 179.488,-300.695"/>
<text text-anchor="middle" x="227" y="-308.305" font-family="Futura" font-size="11.00">src/fae/signal.c</text>
</g>
<!-- Node2 -->
<g id="node3" class="node"><title>Node2</title>
<a xlink:href="signal_8h.html" target="_top" xlink:title="fae/signal.h">
<polygon fill="none" stroke="black" points="82.8037,-240.695 82.8037,-263.305 159.196,-263.305 159.196,-240.695 82.8037,-240.695"/>
<text text-anchor="middle" x="121" y="-248.305" font-family="Futura" font-size="11.00">fae/signal.h</text>
</a>
</g>
<!-- Node1&#45;&gt;Node2 -->
<g id="edge2" class="edge"><title>Node1&#45;&gt;Node2</title>
<path fill="none" stroke="midnightblue" d="M208.049,-300.631C191.646,-291.655 167.696,-278.551 149.068,-268.358"/>
<polygon fill="midnightblue" stroke="midnightblue" points="150.597,-265.205 140.144,-263.475 147.237,-271.346 150.597,-265.205"/>
</g>
<!-- Node9 -->
<g id="node23" class="node"><title>Node9</title>
<a xlink:href="util_8h.html" target="_top" xlink:title="fae/util.h">
<polygon fill="none" stroke="red" points="302.141,-240.695 302.141,-263.305 363.859,-263.305 363.859,-240.695 302.141,-240.695"/>
<text text-anchor="middle" x="333" y="-248.305" font-family="Futura" font-size="11.00">fae/util.h</text>
</a>
</g>
<!-- Node1&#45;&gt;Node9 -->
<g id="edge28" class="edge"><title>Node1&#45;&gt;Node9</title>
<path fill="none" stroke="midnightblue" d="M245.951,-300.631C262.354,-291.655 286.304,-278.551 304.932,-268.358"/>
<polygon fill="midnightblue" stroke="midnightblue" points="306.763,-271.346 313.856,-263.475 303.403,-265.205 306.763,-271.346"/>
</g>
<!-- Node3 -->
<g id="node5" class="node"><title>Node3</title>
<a xlink:href="fae_2fae_8h.html" target="_top" xlink:title="fae.h">
<polygon fill="none" stroke="red" points="87.2302,-60.6953 87.2302,-83.3047 128.77,-83.3047 128.77,-60.6953 87.2302,-60.6953"/>
<text text-anchor="middle" x="108" y="-68.3047" font-family="Futura" font-size="11.00">fae.h</text>
</a>
</g>
<!-- Node2&#45;&gt;Node3 -->
<g id="edge4" class="edge"><title>Node2&#45;&gt;Node3</title>
<path fill="none" stroke="midnightblue" d="M107.148,-240.567C96.0842,-231.725 80.7123,-218.241 70,-204 52.0776,-180.174 46.8499,-173.017 40,-144 37.5493,-133.619 35.0459,-129.446 40,-120 48.0921,-104.57 63.8026,-93.2047 78.0856,-85.5189"/>
<polygon fill="midnightblue" stroke="midnightblue" points="79.7801,-88.585 87.171,-80.9938 76.6593,-82.3191 79.7801,-88.585"/>
</g>
<!-- Node4 -->
<g id="node7" class="node"><title>Node4</title>
<polygon fill="none" stroke="#bfbfbf" points="-0.799805,-0.695312 -0.799805,-23.3047 72.7998,-23.3047 72.7998,-0.695312 -0.799805,-0.695312"/>
<text text-anchor="middle" x="36" y="-8.30469" font-family="Futura" font-size="11.00">fae/event.h</text>
</g>
<!-- Node2&#45;&gt;Node4 -->
<g id="edge24" class="edge"><title>Node2&#45;&gt;Node4</title>
<path fill="none" stroke="midnightblue" d="M96.9014,-240.634C81.3245,-232.748 61.8219,-220.443 50,-204 12.8872,-152.379 23.406,-71.3093 31.1062,-33.5854"/>
<polygon fill="midnightblue" stroke="midnightblue" points="34.6273,-33.8677 33.3495,-23.3502 27.7896,-32.3689 34.6273,-33.8677"/>
</g>
<!-- Node5 -->
<g id="node9" class="node"><title>Node5</title>
<a xlink:href="time_8h.html" target="_top" xlink:title="fae/time.h">
<polygon fill="none" stroke="red" points="118.114,-0.695312 118.114,-23.3047 185.886,-23.3047 185.886,-0.695312 118.114,-0.695312"/>
<text text-anchor="middle" x="152" y="-8.30469" font-family="Futura" font-size="11.00">fae/time.h</text>
</a>
</g>
<!-- Node2&#45;&gt;Node5 -->
<g id="edge22" class="edge"><title>Node2&#45;&gt;Node5</title>
<path fill="none" stroke="midnightblue" d="M135.179,-240.408C145.349,-231.861 158.234,-218.845 164,-204 186.785,-145.339 169.286,-68.9267 158.639,-33.1414"/>
<polygon fill="midnightblue" stroke="midnightblue" points="161.922,-31.9119 155.607,-23.4046 155.239,-33.993 161.922,-31.9119"/>
</g>
<!-- Node6 -->
<g id="node12" class="node"><title>Node6</title>
<a xlink:href="pair_8h.html" target="_top" xlink:title="fae/pair.h">
<polygon fill="none" stroke="red" points="48.6511,-120.695 48.6511,-143.305 115.349,-143.305 115.349,-120.695 48.6511,-120.695"/>
<text text-anchor="middle" x="82" y="-128.305" font-family="Futura" font-size="11.00">fae/pair.h</text>
</a>
</g>
<!-- Node2&#45;&gt;Node6 -->
<g id="edge12" class="edge"><title>Node2&#45;&gt;Node6</title>
<path fill="none" stroke="midnightblue" d="M106.821,-240.408C96.6509,-231.861 83.7662,-218.845 78,-204 71.7306,-187.86 73.5312,-168.094 76.4411,-153.52"/>
<polygon fill="midnightblue" stroke="midnightblue" points="79.9075,-154.067 78.7674,-143.533 73.09,-152.479 79.9075,-154.067"/>
</g>
<!-- Node7 -->
<g id="node15" class="node"><title>Node7</title>
<a xlink:href="type_8h.html" target="_top" xlink:title="fae/type.h">
<polygon fill="none" stroke="black" points="86.5474,-180.695 86.5474,-203.305 155.453,-203.305 155.453,-180.695 86.5474,-180.695"/>
<text text-anchor="middle" x="121" y="-188.305" font-family="Futura" font-size="11.00">fae/type.h</text>
</a>
</g>
<!-- Node2&#45;&gt;Node7 -->
<g id="edge16" class="edge"><title>Node2&#45;&gt;Node7</title>
<path fill="none" stroke="midnightblue" d="M121,-240.631C121,-233.218 121,-222.989 121,-213.91"/>
<polygon fill="midnightblue" stroke="midnightblue" points="124.5,-213.672 121,-203.672 117.5,-213.672 124.5,-213.672"/>
</g>
<!-- Node8 -->
<g id="node21" class="node"><title>Node8</title>
<polygon fill="none" stroke="#bfbfbf" points="210.571,-180.695 210.571,-203.305 305.429,-203.305 305.429,-180.695 210.571,-180.695"/>
<text text-anchor="middle" x="258" y="-188.305" font-family="Futura" font-size="11.00">fae/processor.h</text>
</g>
<!-- Node2&#45;&gt;Node8 -->
<g id="edge26" class="edge"><title>Node2&#45;&gt;Node8</title>
<path fill="none" stroke="midnightblue" d="M145.493,-240.631C167.371,-231.368 199.636,-217.709 224.011,-207.39"/>
<polygon fill="midnightblue" stroke="midnightblue" points="225.413,-210.597 233.257,-203.475 222.684,-204.151 225.413,-210.597"/>
</g>
<!-- Node3&#45;&gt;Node4 -->
<g id="edge6" class="edge"><title>Node3&#45;&gt;Node4</title>
<path fill="none" stroke="midnightblue" d="M95.1278,-60.6308C84.6112,-52.159 69.528,-40.0087 57.2281,-30.1004"/>
<polygon fill="midnightblue" stroke="midnightblue" points="59.2311,-27.2196 49.2478,-23.6719 54.8397,-32.6708 59.2311,-27.2196"/>
</g>
<!-- Node3&#45;&gt;Node5 -->
<g id="edge8" class="edge"><title>Node3&#45;&gt;Node5</title>
<path fill="none" stroke="midnightblue" d="M110.55,-60.6308C115.25,-52.4848 123.676,-40.9379 131.833,-31.2533"/>
<polygon fill="midnightblue" stroke="midnightblue" points="134.534,-33.4825 138.534,-23.6719 129.289,-28.8465 134.534,-33.4825"/>
</g>
<!-- Node5&#45;&gt;Node3 -->
<g id="edge10" class="edge"><title>Node5&#45;&gt;Node3</title>
<path fill="none" stroke="midnightblue" d="M149.274,-23.6719C144.483,-31.9008 136.016,-43.4659 127.866,-53.1038"/>
<polygon fill="midnightblue" stroke="midnightblue" points="125.205,-50.8293 121.182,-60.6308 130.439,-55.4772 125.205,-50.8293"/>
</g>
<!-- Node6&#45;&gt;Node3 -->
<g id="edge14" class="edge"><title>Node6&#45;&gt;Node3</title>
<path fill="none" stroke="midnightblue" d="M86.6483,-120.631C90.0808,-112.974 94.8605,-102.311 99.0275,-93.0155"/>
<polygon fill="midnightblue" stroke="midnightblue" points="102.319,-94.2287 103.216,-83.6719 95.9317,-91.3653 102.319,-94.2287"/>
</g>
<!-- Node7&#45;&gt;Node3 -->
<g id="edge18" class="edge"><title>Node7&#45;&gt;Node3</title>
<path fill="none" stroke="midnightblue" d="M122.805,-180.332C124.86,-166.368 127.506,-141.179 124,-120 122.495,-110.912 119.458,-101.22 116.431,-93.0129"/>
<polygon fill="midnightblue" stroke="midnightblue" points="119.634,-91.5937 112.717,-83.5683 113.119,-94.1555 119.634,-91.5937"/>
</g>
<!-- Node7&#45;&gt;Node6 -->
<g id="edge20" class="edge"><title>Node7&#45;&gt;Node6</title>
<path fill="none" stroke="midnightblue" d="M114.028,-180.631C108.714,-172.729 101.25,-161.628 94.8631,-152.13"/>
<polygon fill="midnightblue" stroke="midnightblue" points="97.6604,-150.017 89.1759,-143.672 91.8515,-153.923 97.6604,-150.017"/>
</g>
<!-- Node9&#45;&gt;Node5 -->
<g id="edge32" class="edge"><title>Node9&#45;&gt;Node5</title>
<path fill="none" stroke="midnightblue" d="M331.839,-240.256C329.904,-225.768 325.078,-199.536 314,-180 277.264,-115.216 209.413,-57.1242 174.321,-29.6892"/>
<polygon fill="midnightblue" stroke="midnightblue" points="176.202,-26.7199 166.144,-23.3893 171.929,-32.265 176.202,-26.7199"/>
</g>
<!-- Node10 -->
<g id="node25" class="node"><title>Node10</title>
<a xlink:href="arch_8h.html" target="_top" xlink:title="fae/util/arch.h">
<polygon fill="none" stroke="black" points="361.205,-180.695 361.205,-203.305 450.795,-203.305 450.795,-180.695 361.205,-180.695"/>
<text text-anchor="middle" x="406" y="-188.305" font-family="Futura" font-size="11.00">fae/util/arch.h</text>
</a>
</g>
<!-- Node9&#45;&gt;Node10 -->
<g id="edge30" class="edge"><title>Node9&#45;&gt;Node10</title>
<path fill="none" stroke="midnightblue" d="M346.051,-240.631C356.714,-232.159 372.006,-220.009 384.477,-210.1"/>
<polygon fill="midnightblue" stroke="midnightblue" points="386.916,-212.633 392.568,-203.672 382.561,-207.152 386.916,-212.633"/>
</g>
</g>
</svg>
