<?xml version="1.0" encoding="UTF-8" standalone="no"?>
<!DOCTYPE svg PUBLIC "-//W3C//DTD SVG 1.1//EN"
 "http://www.w3.org/Graphics/SVG/1.1/DTD/svg11.dtd">
<!-- Generated by graphviz version 2.28.0 (20121015.0031)
 -->
<!-- Title: include/fae/signal.h Pages: 1 -->
<svg width="572pt" height="272pt"
 viewBox="0.00 0.00 572.00 272.00" xmlns="http://www.w3.org/2000/svg" xmlns:xlink="http://www.w3.org/1999/xlink">
<g id="graph1" class="graph" transform="scale(1 1) rotate(0) translate(4 268)">
<title>include/fae/signal.h</title>
<!-- Node1 -->
<g id="node1" class="node"><title>Node1</title>
<polygon fill="#bfbfbf" stroke="black" points="314.24,-240.695 314.24,-263.305 431.76,-263.305 431.76,-240.695 314.24,-240.695"/>
<text text-anchor="middle" x="373" y="-248.305" font-family="Futura" font-size="11.00">include/fae/signal.h</text>
</g>
<!-- Node2 -->
<g id="node3" class="node"><title>Node2</title>
<a xlink:href="fae_2fae_8h.html" target="_top" xlink:title="fae.h">
<polygon fill="none" stroke="red" points="268.23,-60.6953 268.23,-83.3047 309.77,-83.3047 309.77,-60.6953 268.23,-60.6953"/>
<text text-anchor="middle" x="289" y="-68.3047" font-family="Futura" font-size="11.00">fae.h</text>
</a>
</g>
<!-- Node1&#45;&gt;Node2 -->
<g id="edge2" class="edge"><title>Node1&#45;&gt;Node2</title>
<path fill="none" stroke="midnightblue" d="M346.087,-240.658C327.685,-232.642 303.543,-220.176 286,-204 262.618,-182.44 256.039,-174.493 247,-144 243.968,-133.773 243.196,-129.965 247,-120 251.318,-108.689 259.748,-98.3755 267.93,-90.3106"/>
<polygon fill="midnightblue" stroke="midnightblue" points="270.558,-92.6497 275.556,-83.308 265.823,-87.4936 270.558,-92.6497"/>
</g>
<!-- Node6 -->
<g id="node12" class="node"><title>Node6</title>
<polygon fill="none" stroke="#bfbfbf" points="449.2,-0.695312 449.2,-23.3047 522.8,-23.3047 522.8,-0.695312 449.2,-0.695312"/>
<text text-anchor="middle" x="486" y="-8.30469" font-family="Futura" font-size="11.00">fae/event.h</text>
</g>
<!-- Node1&#45;&gt;Node6 -->
<g id="edge30" class="edge"><title>Node1&#45;&gt;Node6</title>
<path fill="none" stroke="midnightblue" d="M379.821,-240.379C385.733,-230.985 394.359,-216.819 401,-204 432.472,-143.252 463.682,-68.4087 477.952,-33.1639"/>
<polygon fill="midnightblue" stroke="midnightblue" points="481.332,-34.1403 481.818,-23.5567 474.838,-31.5268 481.332,-34.1403"/>
</g>
<!-- Node7 -->
<g id="node14" class="node"><title>Node7</title>
<a xlink:href="time_8h.html" target="_top" xlink:title="fae/time.h">
<polygon fill="none" stroke="red" points="363.114,-0.695312 363.114,-23.3047 430.886,-23.3047 430.886,-0.695312 363.114,-0.695312"/>
<text text-anchor="middle" x="397" y="-8.30469" font-family="Futura" font-size="11.00">fae/time.h</text>
</a>
</g>
<!-- Node1&#45;&gt;Node7 -->
<g id="edge28" class="edge"><title>Node1&#45;&gt;Node7</title>
<path fill="none" stroke="midnightblue" d="M376.235,-240.663C379.048,-231.217 382.98,-216.811 385,-204 394.669,-142.668 396.616,-69.0999 396.963,-33.842"/>
<polygon fill="midnightblue" stroke="midnightblue" points="400.465,-33.4483 397.028,-23.4266 393.465,-33.4046 400.465,-33.4483"/>
</g>
<!-- Node8 -->
<g id="node17" class="node"><title>Node8</title>
<a xlink:href="pair_8h.html" target="_top" xlink:title="fae/pair.h">
<polygon fill="none" stroke="red" points="255.651,-120.695 255.651,-143.305 322.349,-143.305 322.349,-120.695 255.651,-120.695"/>
<text text-anchor="middle" x="289" y="-128.305" font-family="Futura" font-size="11.00">fae/pair.h</text>
</a>
</g>
<!-- Node1&#45;&gt;Node8 -->
<g id="edge18" class="edge"><title>Node1&#45;&gt;Node8</title>
<path fill="none" stroke="midnightblue" d="M345.76,-240.66C329.51,-233.036 309.965,-221.015 299,-204 289.436,-189.158 287.4,-168.966 287.486,-153.909"/>
<polygon fill="midnightblue" stroke="midnightblue" points="290.997,-153.695 287.877,-143.57 284.002,-153.431 290.997,-153.695"/>
</g>
<!-- Node9 -->
<g id="node20" class="node"><title>Node9</title>
<a xlink:href="type_8h.html" target="_top" xlink:title="fae/type.h">
<polygon fill="none" stroke="black" points="307.547,-180.695 307.547,-203.305 376.453,-203.305 376.453,-180.695 307.547,-180.695"/>
<text text-anchor="middle" x="342" y="-188.305" font-family="Futura" font-size="11.00">fae/type.h</text>
</a>
</g>
<!-- Node1&#45;&gt;Node9 -->
<g id="edge22" class="edge"><title>Node1&#45;&gt;Node9</title>
<path fill="none" stroke="midnightblue" d="M367.458,-240.631C363.322,-232.892 357.545,-222.084 352.54,-212.719"/>
<polygon fill="midnightblue" stroke="midnightblue" points="355.505,-210.841 347.704,-203.672 349.331,-214.141 355.505,-210.841"/>
</g>
<!-- Node10 -->
<g id="node26" class="node"><title>Node10</title>
<polygon fill="none" stroke="#bfbfbf" points="469.571,-180.695 469.571,-203.305 564.429,-203.305 564.429,-180.695 469.571,-180.695"/>
<text text-anchor="middle" x="517" y="-188.305" font-family="Futura" font-size="11.00">fae/processor.h</text>
</g>
<!-- Node1&#45;&gt;Node10 -->
<g id="edge32" class="edge"><title>Node1&#45;&gt;Node10</title>
<path fill="none" stroke="midnightblue" d="M398.744,-240.631C421.842,-231.327 455.955,-217.588 481.614,-207.253"/>
<polygon fill="midnightblue" stroke="midnightblue" points="483.025,-210.458 490.993,-203.475 480.41,-203.965 483.025,-210.458"/>
</g>
<!-- Node3 -->
<g id="node5" class="node"><title>Node3</title>
<a xlink:href="atomic_8h.html" target="_top" xlink:title="fae/atomic.h">
<polygon fill="none" stroke="red" points="-0.105713,-0.695312 -0.105713,-23.3047 80.1057,-23.3047 80.1057,-0.695312 -0.105713,-0.695312"/>
<text text-anchor="middle" x="40" y="-8.30469" font-family="Futura" font-size="11.00">fae/atomic.h</text>
</a>
</g>
<!-- Node2&#45;&gt;Node3 -->
<g id="edge4" class="edge"><title>Node2&#45;&gt;Node3</title>
<path fill="none" stroke="midnightblue" d="M267.823,-66.9216C228.41,-58.4983 143.479,-38.8735 89.1163,-25.7697"/>
<polygon fill="midnightblue" stroke="midnightblue" points="89.8818,-22.354 79.3391,-23.403 88.2349,-29.1575 89.8818,-22.354"/>
</g>
<!-- Node4 -->
<g id="node8" class="node"><title>Node4</title>
<polygon fill="none" stroke="#bfbfbf" points="98.6057,-0.695312 98.6057,-23.3047 215.394,-23.3047 215.394,-0.695312 98.6057,-0.695312"/>
<text text-anchor="middle" x="157" y="-8.30469" font-family="Futura" font-size="11.00">fae/atomic/queue.h</text>
</g>
<!-- Node2&#45;&gt;Node4 -->
<g id="edge8" class="edge"><title>Node2&#45;&gt;Node4</title>
<path fill="none" stroke="midnightblue" d="M268.084,-61.8097C247.034,-52.5605 214.264,-38.1613 189.763,-27.3957"/>
<polygon fill="midnightblue" stroke="midnightblue" points="191.053,-24.1397 180.49,-23.3212 188.237,-30.5483 191.053,-24.1397"/>
</g>
<!-- Node5 -->
<g id="node10" class="node"><title>Node5</title>
<a xlink:href="stack_8h.html" target="_top" xlink:title="fae/atomic/stack.h">
<polygon fill="none" stroke="red" points="233.377,-0.695312 233.377,-23.3047 344.623,-23.3047 344.623,-0.695312 233.377,-0.695312"/>
<text text-anchor="middle" x="289" y="-8.30469" font-family="Futura" font-size="11.00">fae/atomic/stack.h</text>
</a>
</g>
<!-- Node2&#45;&gt;Node5 -->
<g id="edge10" class="edge"><title>Node2&#45;&gt;Node5</title>
<path fill="none" stroke="midnightblue" d="M289,-60.6308C289,-53.218 289,-42.9888 289,-33.9096"/>
<polygon fill="midnightblue" stroke="midnightblue" points="292.5,-33.6718 289,-23.6719 285.5,-33.6719 292.5,-33.6718"/>
</g>
<!-- Node2&#45;&gt;Node6 -->
<g id="edge12" class="edge"><title>Node2&#45;&gt;Node6</title>
<path fill="none" stroke="midnightblue" d="M310.082,-64.793C341.168,-55.6408 400.044,-38.3068 441.082,-26.2244"/>
<polygon fill="midnightblue" stroke="midnightblue" points="442.24,-29.5323 450.844,-23.3504 440.263,-22.8173 442.24,-29.5323"/>
</g>
<!-- Node2&#45;&gt;Node7 -->
<g id="edge14" class="edge"><title>Node2&#45;&gt;Node7</title>
<path fill="none" stroke="midnightblue" d="M302.992,-60.6308C318.282,-51.5323 342.9,-38.1908 363.191,-27.9407"/>
<polygon fill="midnightblue" stroke="midnightblue" points="364.768,-31.0653 372.16,-23.475 361.648,-24.799 364.768,-31.0653"/>
</g>
<!-- Node3&#45;&gt;Node2 -->
<g id="edge6" class="edge"><title>Node3&#45;&gt;Node2</title>
<path fill="none" stroke="midnightblue" d="M80.1385,-21.2131C129.878,-32.2194 213.283,-51.6454 258.254,-62.6972"/>
<polygon fill="midnightblue" stroke="midnightblue" points="257.481,-66.1115 268.03,-65.1195 259.165,-59.317 257.481,-66.1115"/>
</g>
<!-- Node7&#45;&gt;Node2 -->
<g id="edge16" class="edge"><title>Node7&#45;&gt;Node2</title>
<path fill="none" stroke="midnightblue" d="M383.025,-23.3588C366.777,-33.0289 339.977,-47.4985 319.04,-57.9528"/>
<polygon fill="midnightblue" stroke="midnightblue" points="317.327,-54.8946 309.891,-62.4419 320.41,-61.1788 317.327,-54.8946"/>
</g>
<!-- Node8&#45;&gt;Node2 -->
<g id="edge20" class="edge"><title>Node8&#45;&gt;Node2</title>
<path fill="none" stroke="midnightblue" d="M289,-120.631C289,-113.218 289,-102.989 289,-93.9096"/>
<polygon fill="midnightblue" stroke="midnightblue" points="292.5,-93.6718 289,-83.6719 285.5,-93.6719 292.5,-93.6718"/>
</g>
<!-- Node9&#45;&gt;Node2 -->
<g id="edge24" class="edge"><title>Node9&#45;&gt;Node2</title>
<path fill="none" stroke="midnightblue" d="M342.197,-180.348C342.062,-165.964 340.38,-139.848 331,-120 325.88,-109.166 317.456,-99.0016 309.491,-90.9156"/>
<polygon fill="midnightblue" stroke="midnightblue" points="311.463,-87.959 301.818,-83.5747 306.624,-93.0169 311.463,-87.959"/>
</g>
<!-- Node9&#45;&gt;Node8 -->
<g id="edge26" class="edge"><title>Node9&#45;&gt;Node8</title>
<path fill="none" stroke="midnightblue" d="M332.525,-180.631C325.081,-172.485 314.529,-160.938 305.68,-151.253"/>
<polygon fill="midnightblue" stroke="midnightblue" points="308.081,-148.693 298.752,-143.672 302.914,-153.415 308.081,-148.693"/>
</g>
</g>
</svg>
