<?xml version="1.0" encoding="UTF-8" standalone="no"?>
<!DOCTYPE svg PUBLIC "-//W3C//DTD SVG 1.1//EN"
 "http://www.w3.org/Graphics/SVG/1.1/DTD/svg11.dtd">
<!-- Generated by graphviz version 2.28.0 (20121015.0031)
 -->
<!-- Title: include/fa/signal.h Pages: 1 -->
<svg width="736pt" height="212pt"
 viewBox="0.00 0.00 736.00 212.00" xmlns="http://www.w3.org/2000/svg" xmlns:xlink="http://www.w3.org/1999/xlink">
<g id="graph1" class="graph" transform="scale(1 1) rotate(0) translate(4 208)">
<title>include/fa/signal.h</title>
<!-- Node1 -->
<g id="node1" class="node"><title>Node1</title>
<polygon fill="#bfbfbf" stroke="black" points="543.283,-180.695 543.283,-203.305 654.717,-203.305 654.717,-180.695 543.283,-180.695"/>
<text text-anchor="middle" x="599" y="-188.305" font-family="Futura" font-size="11.00">include/fa/signal.h</text>
</g>
<!-- Node2 -->
<g id="node3" class="node"><title>Node2</title>
<a xlink:href="fa_2fa_8h.html" target="_top" xlink:title="fa.h">
<polygon fill="none" stroke="red" points="534.273,-60.6953 534.273,-83.3047 569.727,-83.3047 569.727,-60.6953 534.273,-60.6953"/>
<text text-anchor="middle" x="552" y="-68.3047" font-family="Futura" font-size="11.00">fa.h</text>
</a>
</g>
<!-- Node1&#45;&gt;Node2 -->
<g id="edge2" class="edge"><title>Node1&#45;&gt;Node2</title>
<path fill="none" stroke="midnightblue" d="M590.782,-180.528C579.851,-160.984 562.588,-118.645 554.847,-93.3159"/>
<polygon fill="midnightblue" stroke="midnightblue" points="558.203,-92.3195 552.159,-83.6179 551.457,-94.1895 558.203,-92.3195"/>
</g>
<!-- Node8 -->
<g id="node15" class="node"><title>Node8</title>
<a xlink:href="pair_8h.html" target="_top" xlink:title="fa/pair.h">
<polygon fill="none" stroke="red" points="667.694,-0.695312 667.694,-23.3047 728.306,-23.3047 728.306,-0.695312 667.694,-0.695312"/>
<text text-anchor="middle" x="698" y="-8.30469" font-family="Futura" font-size="11.00">fa/pair.h</text>
</a>
</g>
<!-- Node1&#45;&gt;Node8 -->
<g id="edge24" class="edge"><title>Node1&#45;&gt;Node8</title>
<path fill="none" stroke="midnightblue" d="M652.364,-180.623C672.716,-173.787 693.909,-162.517 706,-144 727.995,-110.315 715.845,-60.7803 706.187,-33.2825"/>
<polygon fill="midnightblue" stroke="midnightblue" points="709.341,-31.7245 702.558,-23.5856 702.785,-34.178 709.341,-31.7245"/>
</g>
<!-- Node9 -->
<g id="node18" class="node"><title>Node9</title>
<a xlink:href="time_8h.html" target="_top" xlink:title="fa/time.h">
<polygon fill="none" stroke="red" points="588.157,-0.695312 588.157,-23.3047 649.843,-23.3047 649.843,-0.695312 588.157,-0.695312"/>
<text text-anchor="middle" x="619" y="-8.30469" font-family="Futura" font-size="11.00">fa/time.h</text>
</a>
</g>
<!-- Node1&#45;&gt;Node9 -->
<g id="edge26" class="edge"><title>Node1&#45;&gt;Node9</title>
<path fill="none" stroke="midnightblue" d="M600.162,-180.661C603.365,-152.15 612.371,-72.0012 616.665,-33.78"/>
<polygon fill="midnightblue" stroke="midnightblue" points="620.197,-33.6963 617.835,-23.368 613.24,-32.9146 620.197,-33.6963"/>
</g>
<!-- Node10 -->
<g id="node24" class="node"><title>Node10</title>
<a xlink:href="buffer_8h.html" target="_top" xlink:title="fa/buffer.h">
<polygon fill="none" stroke="red" points="626.79,-120.695 626.79,-143.305 697.21,-143.305 697.21,-120.695 626.79,-120.695"/>
<text text-anchor="middle" x="662" y="-128.305" font-family="Futura" font-size="11.00">fa/buffer.h</text>
</a>
</g>
<!-- Node1&#45;&gt;Node10 -->
<g id="edge28" class="edge"><title>Node1&#45;&gt;Node10</title>
<path fill="none" stroke="midnightblue" d="M610.263,-180.631C619.288,-172.322 632.157,-160.475 642.802,-150.675"/>
<polygon fill="midnightblue" stroke="midnightblue" points="645.422,-153.02 650.408,-143.672 640.681,-147.87 645.422,-153.02"/>
</g>
<!-- Node2&#45;&gt;Node1 -->
<g id="edge22" class="edge"><title>Node2&#45;&gt;Node1</title>
<path fill="none" stroke="midnightblue" d="M560.3,-83.6179C571.262,-103.275 588.517,-145.628 596.211,-170.873"/>
<polygon fill="midnightblue" stroke="midnightblue" points="592.841,-171.82 598.876,-180.528 599.589,-169.957 592.841,-171.82"/>
</g>
<!-- Node3 -->
<g id="node5" class="node"><title>Node3</title>
<polygon fill="none" stroke="#bfbfbf" points="495.937,-0.695312 495.937,-23.3047 570.063,-23.3047 570.063,-0.695312 495.937,-0.695312"/>
<text text-anchor="middle" x="533" y="-8.30469" font-family="Futura" font-size="11.00">fa/atomic.h</text>
</g>
<!-- Node2&#45;&gt;Node3 -->
<g id="edge4" class="edge"><title>Node2&#45;&gt;Node3</title>
<path fill="none" stroke="midnightblue" d="M548.603,-60.6308C546.121,-53.0551 542.676,-42.5378 539.654,-33.3126"/>
<polygon fill="midnightblue" stroke="midnightblue" points="542.935,-32.0854 536.496,-23.6719 536.283,-34.2646 542.935,-32.0854"/>
</g>
<!-- Node4 -->
<g id="node7" class="node"><title>Node4</title>
<polygon fill="none" stroke="#bfbfbf" points="-0.351562,-0.695312 -0.351562,-23.3047 110.352,-23.3047 110.352,-0.695312 -0.351562,-0.695312"/>
<text text-anchor="middle" x="55" y="-8.30469" font-family="Futura" font-size="11.00">fa/atomic/queue.h</text>
</g>
<!-- Node2&#45;&gt;Node4 -->
<g id="edge6" class="edge"><title>Node2&#45;&gt;Node4</title>
<path fill="none" stroke="midnightblue" d="M534.216,-69.4689C476.226,-64.3927 287.209,-47.1895 120.41,-24.1354"/>
<polygon fill="midnightblue" stroke="midnightblue" points="120.857,-20.6639 110.47,-22.7507 119.891,-27.597 120.857,-20.6639"/>
</g>
<!-- Node5 -->
<g id="node9" class="node"><title>Node5</title>
<polygon fill="none" stroke="#bfbfbf" points="128.42,-0.695312 128.42,-23.3047 233.58,-23.3047 233.58,-0.695312 128.42,-0.695312"/>
<text text-anchor="middle" x="181" y="-8.30469" font-family="Futura" font-size="11.00">fa/atomic/stack.h</text>
</g>
<!-- Node2&#45;&gt;Node5 -->
<g id="edge8" class="edge"><title>Node2&#45;&gt;Node5</title>
<path fill="none" stroke="midnightblue" d="M534.21,-68.4508C488.156,-61.8183 361.041,-43.303 243.96,-24.128"/>
<polygon fill="midnightblue" stroke="midnightblue" points="244.185,-20.6183 233.75,-22.45 243.05,-27.5256 244.185,-20.6183"/>
</g>
<!-- Node6 -->
<g id="node11" class="node"><title>Node6</title>
<polygon fill="none" stroke="#bfbfbf" points="251.526,-0.695312 251.526,-23.3047 386.474,-23.3047 386.474,-0.695312 251.526,-0.695312"/>
<text text-anchor="middle" x="319" y="-8.30469" font-family="Futura" font-size="11.00">fa/atomic/ring_buffer.h</text>
</g>
<!-- Node2&#45;&gt;Node6 -->
<g id="edge10" class="edge"><title>Node2&#45;&gt;Node6</title>
<path fill="none" stroke="midnightblue" d="M534.104,-66.5451C499.538,-57.9407 422.432,-38.747 370.562,-25.8351"/>
<polygon fill="midnightblue" stroke="midnightblue" points="371.094,-22.3608 360.544,-23.3415 369.403,-29.1535 371.094,-22.3608"/>
</g>
<!-- Node7 -->
<g id="node13" class="node"><title>Node7</title>
<polygon fill="none" stroke="#bfbfbf" points="404.026,-0.695312 404.026,-23.3047 477.974,-23.3047 477.974,-0.695312 404.026,-0.695312"/>
<text text-anchor="middle" x="441" y="-8.30469" font-family="Futura" font-size="11.00">fa/system.h</text>
</g>
<!-- Node2&#45;&gt;Node7 -->
<g id="edge12" class="edge"><title>Node2&#45;&gt;Node7</title>
<path fill="none" stroke="midnightblue" d="M534.166,-61.6813C516.919,-52.6694 490.484,-38.8563 470.172,-28.2429"/>
<polygon fill="midnightblue" stroke="midnightblue" points="471.527,-25.002 461.043,-23.4729 468.285,-31.2061 471.527,-25.002"/>
</g>
<!-- Node2&#45;&gt;Node8 -->
<g id="edge14" class="edge"><title>Node2&#45;&gt;Node8</title>
<path fill="none" stroke="midnightblue" d="M569.75,-61.9375C591.706,-52.4342 629.317,-37.3943 658.225,-26.4944"/>
<polygon fill="midnightblue" stroke="midnightblue" points="659.516,-29.7482 667.66,-22.9706 657.067,-23.1907 659.516,-29.7482"/>
</g>
<!-- Node2&#45;&gt;Node9 -->
<g id="edge18" class="edge"><title>Node2&#45;&gt;Node9</title>
<path fill="none" stroke="midnightblue" d="M558.662,-60.6308C567.041,-52.0241 581.084,-39.6207 593.619,-29.6288"/>
<polygon fill="midnightblue" stroke="midnightblue" points="595.802,-32.3655 601.565,-23.475 591.515,-26.8314 595.802,-32.3655"/>
</g>
<!-- Node8&#45;&gt;Node2 -->
<g id="edge16" class="edge"><title>Node8&#45;&gt;Node2</title>
<path fill="none" stroke="midnightblue" d="M677.279,-23.3415C651.587,-34.3439 608.127,-51.5734 579.639,-62.0241"/>
<polygon fill="midnightblue" stroke="midnightblue" points="578.101,-58.8581 569.881,-65.5435 580.476,-65.4429 578.101,-58.8581"/>
</g>
<!-- Node9&#45;&gt;Node2 -->
<g id="edge20" class="edge"><title>Node9&#45;&gt;Node2</title>
<path fill="none" stroke="midnightblue" d="M612.042,-23.6719C603.666,-32.23 589.882,-44.3965 577.532,-54.2508"/>
<polygon fill="midnightblue" stroke="midnightblue" points="575.057,-51.7403 569.294,-60.6308 579.343,-57.2746 575.057,-51.7403"/>
</g>
<!-- Node10&#45;&gt;Node2 -->
<g id="edge30" class="edge"><title>Node10&#45;&gt;Node2</title>
<path fill="none" stroke="midnightblue" d="M642.334,-120.631C624.703,-111.334 598.67,-97.608 579.075,-87.2758"/>
<polygon fill="midnightblue" stroke="midnightblue" points="580.515,-84.0787 570.037,-82.5105 577.25,-90.2707 580.515,-84.0787"/>
</g>
<!-- Node10&#45;&gt;Node8 -->
<g id="edge32" class="edge"><title>Node10&#45;&gt;Node8</title>
<path fill="none" stroke="midnightblue" d="M665.195,-120.528C671.157,-100.984 684.074,-58.6453 691.802,-33.3159"/>
<polygon fill="midnightblue" stroke="midnightblue" points="695.19,-34.204 694.761,-23.6179 688.495,-32.1613 695.19,-34.204"/>
</g>
</g>
</svg>
