<?xml version="1.0" encoding="UTF-8" standalone="no"?>
<!DOCTYPE svg PUBLIC "-//W3C//DTD SVG 1.1//EN"
 "http://www.w3.org/Graphics/SVG/1.1/DTD/svg11.dtd">
<!-- Generated by graphviz version 2.28.0 (20121015.0031)
 -->
<!-- Title: include/fa/signal.h Pages: 1 -->
<svg width="688pt" height="332pt"
 viewBox="0.00 0.00 687.75 332.00" xmlns="http://www.w3.org/2000/svg" xmlns:xlink="http://www.w3.org/1999/xlink">
<g id="graph1" class="graph" transform="scale(1 1) rotate(0) translate(4 328)">
<title>include/fa/signal.h</title>
<!-- Node1 -->
<g id="node1" class="node"><title>Node1</title>
<polygon fill="#bfbfbf" stroke="black" points="291.036,-300.695 291.036,-323.305 402.47,-323.305 402.47,-300.695 291.036,-300.695"/>
<text text-anchor="middle" x="346.753" y="-308.305" font-family="Futura" font-size="11.00">include/fa/signal.h</text>
</g>
<!-- Node2 -->
<g id="node3" class="node"><title>Node2</title>
<a xlink:href="action_8h.html" target="_top" xlink:title="include/fa/action.h">
<polygon fill="none" stroke="black" points="195.499,-240.695 195.499,-263.305 308.007,-263.305 308.007,-240.695 195.499,-240.695"/>
<text text-anchor="middle" x="251.753" y="-248.305" font-family="Futura" font-size="11.00">include/fa/action.h</text>
</a>
</g>
<!-- Node1&#45;&gt;Node2 -->
<g id="edge2" class="edge"><title>Node1&#45;&gt;Node2</title>
<path fill="none" stroke="midnightblue" d="M321.107,-295.342C304.55,-285.234 283.463,-272.359 268.911,-263.475"/>
<polygon fill="midnightblue" stroke="midnightblue" points="319.41,-298.407 329.769,-300.631 323.058,-292.433 319.41,-298.407"/>
</g>
<!-- Node3 -->
<g id="node5" class="node"><title>Node3</title>
<a xlink:href="audio_8h.html" target="_top" xlink:title="include/fa/audio.h">
<polygon fill="none" stroke="black" points="105.345,-180.695 105.345,-203.305 216.161,-203.305 216.161,-180.695 105.345,-180.695"/>
<text text-anchor="middle" x="160.753" y="-188.305" font-family="Futura" font-size="11.00">include/fa/audio.h</text>
</a>
</g>
<!-- Node1&#45;&gt;Node3 -->
<g id="edge46" class="edge"><title>Node1&#45;&gt;Node3</title>
<path fill="none" stroke="midnightblue" d="M280.74,-305.411C248.856,-299.565 212.111,-287.753 186.753,-264 169.413,-247.757 163.596,-218.99 161.675,-203.529"/>
<polygon fill="midnightblue" stroke="midnightblue" points="280.461,-308.913 290.9,-307.107 281.613,-302.008 280.461,-308.913"/>
</g>
<!-- Node4 -->
<g id="node7" class="node"><title>Node4</title>
<a xlink:href="fa_2fa_8h.html" target="_top" xlink:title="include/fa/fa.h">
<polygon fill="none" stroke="red" points="271.6,-120.695 271.6,-143.305 363.907,-143.305 363.907,-120.695 271.6,-120.695"/>
<text text-anchor="middle" x="317.753" y="-128.305" font-family="Futura" font-size="11.00">include/fa/fa.h</text>
</a>
</g>
<!-- Node1&#45;&gt;Node4 -->
<g id="edge48" class="edge"><title>Node1&#45;&gt;Node4</title>
<path fill="none" stroke="midnightblue" d="M338.975,-290.75C329.427,-252.757 316.642,-172.036 316.063,-143.368"/>
<polygon fill="midnightblue" stroke="midnightblue" points="335.673,-291.942 341.693,-300.661 342.423,-290.091 335.673,-291.942"/>
</g>
<!-- Node2&#45;&gt;Node3 -->
<g id="edge4" class="edge"><title>Node2&#45;&gt;Node3</title>
<path fill="none" stroke="midnightblue" d="M226.745,-235.061C210.953,-224.996 190.998,-212.277 177.188,-203.475"/>
<polygon fill="midnightblue" stroke="midnightblue" points="225.17,-238.207 235.484,-240.631 228.933,-232.304 225.17,-238.207"/>
</g>
<!-- Node2&#45;&gt;Node4 -->
<g id="edge42" class="edge"><title>Node2&#45;&gt;Node4</title>
<path fill="none" stroke="midnightblue" d="M257.627,-231.21C269.326,-206.007 293.553,-163.363 307.744,-143.618"/>
<polygon fill="midnightblue" stroke="midnightblue" points="254.352,-229.963 253.563,-240.528 260.769,-232.761 254.352,-229.963"/>
</g>
<!-- Node9 -->
<g id="node22" class="node"><title>Node9</title>
<a xlink:href="midi_8h.html" target="_top" xlink:title="include/fa/midi.h">
<polygon fill="none" stroke="black" points="206.226,-0.695312 206.226,-23.3047 309.281,-23.3047 309.281,-0.695312 206.226,-0.695312"/>
<text text-anchor="middle" x="257.753" y="-8.30469" font-family="Futura" font-size="11.00">include/fa/midi.h</text>
</a>
</g>
<!-- Node2&#45;&gt;Node9 -->
<g id="edge44" class="edge"><title>Node2&#45;&gt;Node9</title>
<path fill="none" stroke="midnightblue" d="M185.093,-241.158C155.873,-234.357 122.458,-222.968 96.7532,-204 37.6684,-160.4 -30.9587,-116.657 15.7532,-60 39.4059,-31.3117 142.429,-19.915 206.188,-15.5532"/>
<polygon fill="midnightblue" stroke="midnightblue" points="184.717,-244.659 195.234,-243.377 186.214,-237.821 184.717,-244.659"/>
</g>
<!-- Node3&#45;&gt;Node4 -->
<g id="edge6" class="edge"><title>Node3&#45;&gt;Node4</title>
<path fill="none" stroke="midnightblue" d="M198.312,-177.125C226.391,-166.752 264.173,-152.794 289.664,-143.377"/>
<polygon fill="midnightblue" stroke="midnightblue" points="196.989,-173.882 188.822,-180.631 199.415,-180.448 196.989,-173.882"/>
</g>
<!-- Node4&#45;&gt;Node1 -->
<g id="edge40" class="edge"><title>Node4&#45;&gt;Node1</title>
<path fill="none" stroke="midnightblue" d="M325.541,-153.288C335.091,-191.309 347.873,-272.027 348.444,-300.661"/>
<polygon fill="midnightblue" stroke="midnightblue" points="328.841,-152.087 322.822,-143.368 322.09,-153.937 328.841,-152.087"/>
</g>
<!-- Node4&#45;&gt;Node2 -->
<g id="edge8" class="edge"><title>Node4&#45;&gt;Node2</title>
<path fill="none" stroke="midnightblue" d="M311.793,-152.978C300.031,-178.267 275.798,-220.897 261.657,-240.528"/>
<polygon fill="midnightblue" stroke="midnightblue" points="315.086,-154.183 315.885,-143.618 308.672,-151.378 315.086,-154.183"/>
</g>
<!-- Node5 -->
<g id="node10" class="node"><title>Node5</title>
<a xlink:href="buffer_8h.html" target="_top" xlink:title="include/fa/buffer.h">
<polygon fill="none" stroke="red" points="568.98,-60.6953 568.98,-83.3047 680.526,-83.3047 680.526,-60.6953 568.98,-60.6953"/>
<text text-anchor="middle" x="624.753" y="-68.3047" font-family="Futura" font-size="11.00">include/fa/buffer.h</text>
</a>
</g>
<!-- Node4&#45;&gt;Node5 -->
<g id="edge10" class="edge"><title>Node4&#45;&gt;Node5</title>
<path fill="none" stroke="midnightblue" d="M374.115,-120.352C429.921,-109.809 514.806,-93.7718 570.033,-83.338"/>
<polygon fill="midnightblue" stroke="midnightblue" points="373.223,-116.958 364.047,-122.254 374.523,-123.837 373.223,-116.958"/>
</g>
<!-- Node6 -->
<g id="node13" class="node"><title>Node6</title>
<a xlink:href="clock_8h.html" target="_top" xlink:title="include/fa/clock.h">
<polygon fill="none" stroke="black" points="24.731,-60.6953 24.731,-83.3047 132.775,-83.3047 132.775,-60.6953 24.731,-60.6953"/>
<text text-anchor="middle" x="78.7532" y="-68.3047" font-family="Futura" font-size="11.00">include/fa/clock.h</text>
</a>
</g>
<!-- Node4&#45;&gt;Node6 -->
<g id="edge14" class="edge"><title>Node4&#45;&gt;Node6</title>
<path fill="none" stroke="midnightblue" d="M265.274,-118.264C222.129,-107.794 161.759,-93.1437 121.514,-83.3771"/>
<polygon fill="midnightblue" stroke="midnightblue" points="264.481,-121.674 275.025,-120.631 266.132,-114.871 264.481,-121.674"/>
</g>
<!-- Node7 -->
<g id="node16" class="node"><title>Node7</title>
<a xlink:href="dynamic_8h.html" target="_top" xlink:title="include/fa/dynamic.h">
<polygon fill="none" stroke="black" points="388.672,-60.6953 388.672,-83.3047 512.835,-83.3047 512.835,-60.6953 388.672,-60.6953"/>
<text text-anchor="middle" x="450.753" y="-68.3047" font-family="Futura" font-size="11.00">include/fa/dynamic.h</text>
</a>
</g>
<!-- Node4&#45;&gt;Node7 -->
<g id="edge18" class="edge"><title>Node4&#45;&gt;Node7</title>
<path fill="none" stroke="midnightblue" d="M350.795,-116.591C374.362,-106.314 405.511,-92.7296 426.733,-83.475"/>
<polygon fill="midnightblue" stroke="midnightblue" points="349.298,-113.425 341.531,-120.631 352.096,-119.842 349.298,-113.425"/>
</g>
<!-- Node8 -->
<g id="node18" class="node"><title>Node8</title>
<a xlink:href="error_8h.html" target="_top" xlink:title="include/fa/error.h">
<polygon fill="none" stroke="black" points="264.351,-60.6953 264.351,-83.3047 371.155,-83.3047 371.155,-60.6953 264.351,-60.6953"/>
<text text-anchor="middle" x="317.753" y="-68.3047" font-family="Futura" font-size="11.00">include/fa/error.h</text>
</a>
</g>
<!-- Node4&#45;&gt;Node8 -->
<g id="edge20" class="edge"><title>Node4&#45;&gt;Node8</title>
<path fill="none" stroke="midnightblue" d="M311.265,-110.459C310.69,-101.411 311.062,-91.1602 312.383,-83.6719"/>
<polygon fill="midnightblue" stroke="midnightblue" points="307.815,-111.097 312.437,-120.631 314.769,-110.296 307.815,-111.097"/>
</g>
<!-- Node10 -->
<g id="node25" class="node"><title>Node10</title>
<a xlink:href="list_8h.html" target="_top" xlink:title="include/fa/list.h">
<polygon fill="none" stroke="red" points="151.139,-60.6953 151.139,-83.3047 246.368,-83.3047 246.368,-60.6953 151.139,-60.6953"/>
<text text-anchor="middle" x="198.753" y="-68.3047" font-family="Futura" font-size="11.00">include/fa/list.h</text>
</a>
</g>
<!-- Node4&#45;&gt;Node10 -->
<g id="edge30" class="edge"><title>Node4&#45;&gt;Node10</title>
<path fill="none" stroke="midnightblue" d="M281.967,-116.454C259.662,-106.193 232.157,-92.6885 214.91,-83.475"/>
<polygon fill="midnightblue" stroke="midnightblue" points="280.61,-119.682 291.163,-120.631 283.505,-113.308 280.61,-119.682"/>
</g>
<!-- Node5&#45;&gt;Node1 -->
<g id="edge12" class="edge"><title>Node5&#45;&gt;Node1</title>
<path fill="none" stroke="midnightblue" d="M604.749,-90.1255C550.678,-136.417 402.745,-263.064 359.057,-300.466"/>
<polygon fill="midnightblue" stroke="midnightblue" points="607.271,-92.5742 612.591,-83.412 602.719,-87.2567 607.271,-92.5742"/>
</g>
<!-- Node6&#45;&gt;Node3 -->
<g id="edge16" class="edge"><title>Node6&#45;&gt;Node3</title>
<path fill="none" stroke="midnightblue" d="M91.9395,-91.9754C109.417,-117.126 139.652,-160.635 153.476,-180.528"/>
<polygon fill="midnightblue" stroke="midnightblue" points="94.7125,-89.8325 86.1317,-83.6179 88.9642,-93.8271 94.7125,-89.8325"/>
</g>
<!-- Node8&#45;&gt;Node3 -->
<g id="edge22" class="edge"><title>Node8&#45;&gt;Node3</title>
<path fill="none" stroke="midnightblue" d="M295.518,-89.7121C262.628,-114.432 201.966,-160.024 174.686,-180.528"/>
<polygon fill="midnightblue" stroke="midnightblue" points="297.735,-92.4239 303.626,-83.6179 293.529,-86.8282 297.735,-92.4239"/>
</g>
<!-- Node8&#45;&gt;Node4 -->
<g id="edge24" class="edge"><title>Node8&#45;&gt;Node4</title>
<path fill="none" stroke="midnightblue" d="M324.246,-93.6107C324.823,-102.764 324.43,-113.137 323.069,-120.631"/>
<polygon fill="midnightblue" stroke="midnightblue" points="327.723,-93.2159 323.123,-83.6719 320.768,-94.0015 327.723,-93.2159"/>
</g>
<!-- Node8&#45;&gt;Node9 -->
<g id="edge26" class="edge"><title>Node8&#45;&gt;Node9</title>
<path fill="none" stroke="midnightblue" d="M299.836,-53.6797C289.75,-43.9299 277.476,-32.0654 268.793,-23.6719"/>
<polygon fill="midnightblue" stroke="midnightblue" points="297.404,-56.197 307.026,-60.6308 302.269,-51.164 297.404,-56.197"/>
</g>
<!-- Node9&#45;&gt;Node4 -->
<g id="edge28" class="edge"><title>Node9&#45;&gt;Node4</title>
<path fill="none" stroke="midnightblue" d="M319.525,-15.1344C389.303,-18.9977 496.465,-29.8123 521.753,-60 566.785,-113.757 437.177,-126.863 364.039,-130.022"/>
<polygon fill="midnightblue" stroke="midnightblue" points="319.684,-11.6381 309.516,-14.6134 319.32,-18.6286 319.684,-11.6381"/>
</g>
<!-- Node10&#45;&gt;Node2 -->
<g id="edge32" class="edge"><title>Node10&#45;&gt;Node2</title>
<path fill="none" stroke="midnightblue" d="M204.794,-93.2881C216.115,-131.309 240.149,-212.027 248.675,-240.661"/>
<polygon fill="midnightblue" stroke="midnightblue" points="208.049,-91.9533 201.84,-83.368 201.34,-93.951 208.049,-91.9533"/>
</g>
<!-- Node10&#45;&gt;Node3 -->
<g id="edge34" class="edge"><title>Node10&#45;&gt;Node3</title>
<path fill="none" stroke="midnightblue" d="M192.211,-93.3159C184.054,-118.645 170.419,-160.984 164.125,-180.528"/>
<polygon fill="midnightblue" stroke="midnightblue" points="195.6,-94.2094 195.334,-83.6179 188.937,-92.0636 195.6,-94.2094"/>
</g>
<!-- Node10&#45;&gt;Node4 -->
<g id="edge36" class="edge"><title>Node10&#45;&gt;Node4</title>
<path fill="none" stroke="midnightblue" d="M234.796,-87.6644C257.141,-97.9501 284.626,-111.45 301.794,-120.631"/>
<polygon fill="midnightblue" stroke="midnightblue" points="236.132,-84.427 225.58,-83.475 233.235,-90.7995 236.132,-84.427"/>
</g>
<!-- Node10&#45;&gt;Node9 -->
<g id="edge38" class="edge"><title>Node10&#45;&gt;Node9</title>
<path fill="none" stroke="midnightblue" d="M216.664,-53.3924C226.526,-43.6976 238.443,-31.9831 246.897,-23.6719"/>
<polygon fill="midnightblue" stroke="midnightblue" points="213.979,-51.1244 209.301,-60.6308 218.886,-56.1163 213.979,-51.1244"/>
</g>
</g>
</svg>
