<?xml version="1.0" encoding="UTF-8" standalone="no"?>
<!DOCTYPE svg PUBLIC "-//W3C//DTD SVG 1.1//EN"
 "http://www.w3.org/Graphics/SVG/1.1/DTD/svg11.dtd">
<!-- Generated by graphviz version 2.28.0 (20121015.0031)
 -->
<!-- Title: src/fae/processor/split.c Pages: 1 -->
<svg width="736pt" height="152pt"
 viewBox="0.00 0.00 736.00 152.00" xmlns="http://www.w3.org/2000/svg" xmlns:xlink="http://www.w3.org/1999/xlink">
<g id="graph1" class="graph" transform="scale(1 1) rotate(0) translate(4 148)">
<title>src/fae/processor/split.c</title>
<!-- Node1 -->
<g id="node1" class="node"><title>Node1</title>
<polygon fill="#bfbfbf" stroke="black" points="106.34,-120.695 106.34,-143.305 245.66,-143.305 245.66,-120.695 106.34,-120.695"/>
<text text-anchor="middle" x="176" y="-128.305" font-family="Futura" font-size="11.00">src/fae/processor/split.c</text>
</g>
<!-- Node2 -->
<g id="node3" class="node"><title>Node2</title>
<polygon fill="none" stroke="#bfbfbf" points="-0.343994,-60.6953 -0.343994,-83.3047 120.344,-83.3047 120.344,-60.6953 -0.343994,-60.6953"/>
<text text-anchor="middle" x="60" y="-68.3047" font-family="Futura" font-size="11.00">fae/processor/split.h</text>
</g>
<!-- Node1&#45;&gt;Node2 -->
<g id="edge2" class="edge"><title>Node1&#45;&gt;Node2</title>
<path fill="none" stroke="midnightblue" d="M155.262,-120.631C137.147,-111.573 110.622,-98.3109 90.1587,-88.0794"/>
<polygon fill="midnightblue" stroke="midnightblue" points="91.4596,-84.8167 80.95,-83.475 88.3291,-91.0777 91.4596,-84.8167"/>
</g>
<!-- Node3 -->
<g id="node5" class="node"><title>Node3</title>
<a xlink:href="string_8h.html" target="_top" xlink:title="fae/string.h">
<polygon fill="none" stroke="black" points="138.827,-60.6953 138.827,-83.3047 213.173,-83.3047 213.173,-60.6953 138.827,-60.6953"/>
<text text-anchor="middle" x="176" y="-68.3047" font-family="Futura" font-size="11.00">fae/string.h</text>
</a>
</g>
<!-- Node1&#45;&gt;Node3 -->
<g id="edge4" class="edge"><title>Node1&#45;&gt;Node3</title>
<path fill="none" stroke="midnightblue" d="M176,-120.631C176,-113.218 176,-102.989 176,-93.9096"/>
<polygon fill="midnightblue" stroke="midnightblue" points="179.5,-93.6718 176,-83.6719 172.5,-93.6719 179.5,-93.6718"/>
</g>
<!-- Node5 -->
<g id="node9" class="node"><title>Node5</title>
<a xlink:href="util_8h.html" target="_top" xlink:title="fae/util.h">
<polygon fill="none" stroke="red" points="348.141,-60.6953 348.141,-83.3047 409.859,-83.3047 409.859,-60.6953 348.141,-60.6953"/>
<text text-anchor="middle" x="379" y="-68.3047" font-family="Futura" font-size="11.00">fae/util.h</text>
</a>
</g>
<!-- Node1&#45;&gt;Node5 -->
<g id="edge8" class="edge"><title>Node1&#45;&gt;Node5</title>
<path fill="none" stroke="midnightblue" d="M212.292,-120.631C247.631,-110.534 301.256,-95.2125 338.09,-84.6885"/>
<polygon fill="midnightblue" stroke="midnightblue" points="339.351,-87.9684 348.005,-81.8558 337.428,-81.2377 339.351,-87.9684"/>
</g>
<!-- Node4 -->
<g id="node7" class="node"><title>Node4</title>
<a xlink:href="fae_2fae_8h.html" target="_top" xlink:title="fae.h">
<polygon fill="none" stroke="red" points="96.2302,-0.695312 96.2302,-23.3047 137.77,-23.3047 137.77,-0.695312 96.2302,-0.695312"/>
<text text-anchor="middle" x="117" y="-8.30469" font-family="Futura" font-size="11.00">fae.h</text>
</a>
</g>
<!-- Node3&#45;&gt;Node4 -->
<g id="edge6" class="edge"><title>Node3&#45;&gt;Node4</title>
<path fill="none" stroke="midnightblue" d="M165.452,-60.6308C157.083,-52.4034 145.184,-40.7066 135.273,-30.9633"/>
<polygon fill="midnightblue" stroke="midnightblue" points="137.441,-28.1863 127.856,-23.6719 132.533,-33.1782 137.441,-28.1863"/>
</g>
<!-- Node6 -->
<g id="node11" class="node"><title>Node6</title>
<a xlink:href="arch_8h.html" target="_top" xlink:title="fae/util/arch.h">
<polygon fill="none" stroke="black" points="156.205,-0.695312 156.205,-23.3047 245.795,-23.3047 245.795,-0.695312 156.205,-0.695312"/>
<text text-anchor="middle" x="201" y="-8.30469" font-family="Futura" font-size="11.00">fae/util/arch.h</text>
</a>
</g>
<!-- Node5&#45;&gt;Node6 -->
<g id="edge10" class="edge"><title>Node5&#45;&gt;Node6</title>
<path fill="none" stroke="midnightblue" d="M347.995,-60.8972C318.748,-51.3673 274.702,-37.0152 242.45,-26.5061"/>
<polygon fill="midnightblue" stroke="midnightblue" points="243.441,-23.148 232.849,-23.3776 241.272,-29.8036 243.441,-23.148"/>
</g>
<!-- Node7 -->
<g id="node13" class="node"><title>Node7</title>
<a xlink:href="alignof_8h.html" target="_top" xlink:title="fae/util/alignof.h">
<polygon fill="none" stroke="black" points="264.007,-0.695312 264.007,-23.3047 365.993,-23.3047 365.993,-0.695312 264.007,-0.695312"/>
<text text-anchor="middle" x="315" y="-8.30469" font-family="Futura" font-size="11.00">fae/util/alignof.h</text>
</a>
</g>
<!-- Node5&#45;&gt;Node7 -->
<g id="edge12" class="edge"><title>Node5&#45;&gt;Node7</title>
<path fill="none" stroke="midnightblue" d="M367.558,-60.6308C358.39,-52.3219 345.317,-40.4746 334.503,-30.6745"/>
<polygon fill="midnightblue" stroke="midnightblue" points="336.536,-27.7936 326.776,-23.6719 331.835,-32.9806 336.536,-27.7936"/>
</g>
<!-- Node8 -->
<g id="node15" class="node"><title>Node8</title>
<a xlink:href="minmax_8h.html" target="_top" xlink:title="fae/util/minmax.h">
<polygon fill="none" stroke="red" points="383.837,-0.695312 383.837,-23.3047 490.163,-23.3047 490.163,-0.695312 383.837,-0.695312"/>
<text text-anchor="middle" x="437" y="-8.30469" font-family="Futura" font-size="11.00">fae/util/minmax.h</text>
</a>
</g>
<!-- Node5&#45;&gt;Node8 -->
<g id="edge14" class="edge"><title>Node5&#45;&gt;Node8</title>
<path fill="none" stroke="midnightblue" d="M389.369,-60.6308C397.597,-52.4034 409.293,-40.7066 419.037,-30.9633"/>
<polygon fill="midnightblue" stroke="midnightblue" points="421.732,-33.2179 426.328,-23.6719 416.782,-28.2681 421.732,-33.2179"/>
</g>
<!-- Node9 -->
<g id="node17" class="node"><title>Node9</title>
<a xlink:href="literals_8h.html" target="_top" xlink:title="fae/util/literals.h">
<polygon fill="none" stroke="red" points="508.038,-0.695312 508.038,-23.3047 607.962,-23.3047 607.962,-0.695312 508.038,-0.695312"/>
<text text-anchor="middle" x="558" y="-8.30469" font-family="Futura" font-size="11.00">fae/util/literals.h</text>
</a>
</g>
<!-- Node5&#45;&gt;Node9 -->
<g id="edge16" class="edge"><title>Node5&#45;&gt;Node9</title>
<path fill="none" stroke="midnightblue" d="M410.179,-60.8972C439.59,-51.3673 483.884,-37.0152 516.317,-26.5061"/>
<polygon fill="midnightblue" stroke="midnightblue" points="517.538,-29.7897 525.973,-23.3776 515.381,-23.1305 517.538,-29.7897"/>
</g>
<!-- Node10 -->
<g id="node19" class="node"><title>Node10</title>
<a xlink:href="macros_8h.html" target="_top" xlink:title="fae/util/macros.h">
<polygon fill="none" stroke="black" points="625.475,-0.695312 625.475,-23.3047 728.525,-23.3047 728.525,-0.695312 625.475,-0.695312"/>
<text text-anchor="middle" x="677" y="-8.30469" font-family="Futura" font-size="11.00">fae/util/macros.h</text>
</a>
</g>
<!-- Node5&#45;&gt;Node10 -->
<g id="edge18" class="edge"><title>Node5&#45;&gt;Node10</title>
<path fill="none" stroke="midnightblue" d="M410.048,-64.9571C458.413,-55.5438 552.674,-37.1977 615.245,-25.0194"/>
<polygon fill="midnightblue" stroke="midnightblue" points="616.24,-28.3915 625.387,-23.0455 614.903,-21.5205 616.24,-28.3915"/>
</g>
</g>
</svg>
