<?xml version="1.0" encoding="UTF-8" standalone="no"?>
<!DOCTYPE svg PUBLIC "-//W3C//DTD SVG 1.1//EN"
 "http://www.w3.org/Graphics/SVG/1.1/DTD/svg11.dtd">
<!-- Generated by graphviz version 2.28.0 (20121015.0031)
 -->
<!-- Title: include/fae/processor/split.h Pages: 1 -->
<svg width="277pt" height="106pt"
 viewBox="0.00 0.00 277.00 106.00" xmlns="http://www.w3.org/2000/svg" xmlns:xlink="http://www.w3.org/1999/xlink">
<g id="graph1" class="graph" transform="scale(1 1) rotate(0) translate(4 102)">
<title>include/fae/processor/split.h</title>
<!-- Node1 -->
<g id="node1" class="node"><title>Node1</title>
<polygon fill="#bfbfbf" stroke="black" points="77.428,-60.3906 77.428,-97.6094 204.572,-97.6094 204.572,-60.3906 77.428,-60.3906"/>
<text text-anchor="start" x="85.428" y="-82.6094" font-family="Futura" font-size="11.00">include/fae/processor</text>
<text text-anchor="middle" x="141" y="-68" font-family="Futura" font-size="11.00">/split.h</text>
</g>
<!-- Node2 -->
<g id="node3" class="node"><title>Node2</title>
<a xlink:href="split_8c.html" target="_top" xlink:title="src/fae/processor/split.c">
<polygon fill="none" stroke="black" points="-0.660156,-0.695312 -0.660156,-23.3047 138.66,-23.3047 138.66,-0.695312 -0.660156,-0.695312"/>
<text text-anchor="middle" x="69" y="-8.30469" font-family="Futura" font-size="11.00">src/fae/processor/split.c</text>
</a>
</g>
<!-- Node1&#45;&gt;Node2 -->
<g id="edge2" class="edge"><title>Node1&#45;&gt;Node2</title>
<path fill="none" stroke="midnightblue" d="M113.7,-53.3539C102.312,-43.0729 89.6879,-31.6766 80.7685,-23.6243"/>
<polygon fill="midnightblue" stroke="midnightblue" points="111.558,-56.1353 121.326,-60.2385 116.248,-50.9395 111.558,-56.1353"/>
</g>
<!-- Node3 -->
<g id="node5" class="node"><title>Node3</title>
<a xlink:href="processor_8c.html" target="_top" xlink:title="src/fae/processor.c">
<polygon fill="none" stroke="black" points="156.255,-0.695312 156.255,-23.3047 269.745,-23.3047 269.745,-0.695312 156.255,-0.695312"/>
<text text-anchor="middle" x="213" y="-8.30469" font-family="Futura" font-size="11.00">src/fae/processor.c</text>
</a>
</g>
<!-- Node1&#45;&gt;Node3 -->
<g id="edge4" class="edge"><title>Node1&#45;&gt;Node3</title>
<path fill="none" stroke="midnightblue" d="M168.3,-53.3539C179.688,-43.0729 192.312,-31.6766 201.232,-23.6243"/>
<polygon fill="midnightblue" stroke="midnightblue" points="165.752,-50.9395 160.674,-60.2385 170.442,-56.1353 165.752,-50.9395"/>
</g>
</g>
</svg>
