<?xml version="1.0" encoding="UTF-8" standalone="no"?>
<!DOCTYPE svg PUBLIC "-//W3C//DTD SVG 1.1//EN"
 "http://www.w3.org/Graphics/SVG/1.1/DTD/svg11.dtd">
<!-- Generated by graphviz version 2.28.0 (20121015.0031)
 -->
<!-- Title: include/fae/atomic/stack.h Pages: 1 -->
<svg width="904pt" height="226pt"
 viewBox="0.00 0.00 904.00 226.00" xmlns="http://www.w3.org/2000/svg" xmlns:xlink="http://www.w3.org/1999/xlink">
<g id="graph1" class="graph" transform="scale(1 1) rotate(0) translate(4 222)">
<title>include/fae/atomic/stack.h</title>
<!-- Node1 -->
<g id="node1" class="node"><title>Node1</title>
<polygon fill="#bfbfbf" stroke="black" points="668.044,-180.391 668.044,-217.609 779.956,-217.609 779.956,-180.391 668.044,-180.391"/>
<text text-anchor="start" x="676.044" y="-202.609" font-family="Futura" font-size="11.00">include/fae/atomic</text>
<text text-anchor="middle" x="724" y="-188" font-family="Futura" font-size="11.00">/stack.h</text>
</g>
<!-- Node2 -->
<g id="node3" class="node"><title>Node2</title>
<a xlink:href="fae_2fae_8h.html" target="_top" xlink:title="include/fae/fae.h">
<polygon fill="none" stroke="red" points="518.761,-120.695 518.761,-143.305 623.239,-143.305 623.239,-120.695 518.761,-120.695"/>
<text text-anchor="middle" x="571" y="-128.305" font-family="Futura" font-size="11.00">include/fae/fae.h</text>
</a>
</g>
<!-- Node1&#45;&gt;Node2 -->
<g id="edge2" class="edge"><title>Node1&#45;&gt;Node2</title>
<path fill="none" stroke="midnightblue" d="M672.824,-176.259C646.785,-165.196 616.333,-152.259 595.561,-143.434"/>
<polygon fill="midnightblue" stroke="midnightblue" points="671.62,-179.55 682.192,-180.238 674.357,-173.107 671.62,-179.55"/>
</g>
<!-- Node4 -->
<g id="node8" class="node"><title>Node4</title>
<a xlink:href="stack_8c.html" target="_top" xlink:title="src/fae/atomic/stack.c">
<polygon fill="none" stroke="black" points="767.061,-0.695312 767.061,-23.3047 896.939,-23.3047 896.939,-0.695312 767.061,-0.695312"/>
<text text-anchor="middle" x="832" y="-8.30469" font-family="Futura" font-size="11.00">src/fae/atomic/stack.c</text>
</a>
</g>
<!-- Node1&#45;&gt;Node4 -->
<g id="edge28" class="edge"><title>Node1&#45;&gt;Node4</title>
<path fill="none" stroke="midnightblue" d="M766.719,-175.02C798.166,-155.46 838.531,-124.155 857,-84 866.611,-63.1042 851.19,-37.3815 840.614,-23.3455"/>
<polygon fill="midnightblue" stroke="midnightblue" points="764.859,-172.055 758.112,-180.224 768.48,-178.046 764.859,-172.055"/>
</g>
<!-- Node3 -->
<g id="node5" class="node"><title>Node3</title>
<a xlink:href="atomic_8h.html" target="_top" xlink:title="include/fae/atomic.h">
<polygon fill="none" stroke="red" points="727.331,-60.6953 727.331,-83.3047 848.669,-83.3047 848.669,-60.6953 727.331,-60.6953"/>
<text text-anchor="middle" x="788" y="-68.3047" font-family="Futura" font-size="11.00">include/fae/atomic.h</text>
</a>
</g>
<!-- Node2&#45;&gt;Node3 -->
<g id="edge4" class="edge"><title>Node2&#45;&gt;Node3</title>
<path fill="none" stroke="midnightblue" d="M614.143,-117.932C651.759,-107.486 705.948,-93.0409 743.858,-83.3771"/>
<polygon fill="midnightblue" stroke="midnightblue" points="613.17,-114.57 604.479,-120.631 615.052,-121.312 613.17,-114.57"/>
</g>
<!-- Node5 -->
<g id="node10" class="node"><title>Node5</title>
<a xlink:href="buffer_8h.html" target="_top" xlink:title="include/fae/buffer.h">
<polygon fill="none" stroke="red" points="-0.815918,-60.6953 -0.815918,-83.3047 116.816,-83.3047 116.816,-60.6953 -0.815918,-60.6953"/>
<text text-anchor="middle" x="58" y="-68.3047" font-family="Futura" font-size="11.00">include/fae/buffer.h</text>
</a>
</g>
<!-- Node2&#45;&gt;Node5 -->
<g id="edge10" class="edge"><title>Node2&#45;&gt;Node5</title>
<path fill="none" stroke="midnightblue" d="M508.335,-125.48C422.072,-117.63 261.965,-102.163 126,-84 123.037,-83.6041 120.003,-83.1807 116.942,-82.7388"/>
<polygon fill="midnightblue" stroke="midnightblue" points="508.207,-128.982 518.482,-126.399 508.839,-122.011 508.207,-128.982"/>
</g>
<!-- Node6 -->
<g id="node12" class="node"><title>Node6</title>
<a xlink:href="device_8h.html" target="_top" xlink:title="include/fae/device.h">
<polygon fill="none" stroke="red" points="134.774,-60.6953 134.774,-83.3047 255.226,-83.3047 255.226,-60.6953 134.774,-60.6953"/>
<text text-anchor="middle" x="195" y="-68.3047" font-family="Futura" font-size="11.00">include/fae/device.h</text>
</a>
</g>
<!-- Node2&#45;&gt;Node6 -->
<g id="edge12" class="edge"><title>Node2&#45;&gt;Node6</title>
<path fill="none" stroke="midnightblue" d="M508.544,-121.554C446.499,-112.143 348.653,-97.2275 264,-84 261.243,-83.5693 258.425,-83.1272 255.579,-82.6792"/>
<polygon fill="midnightblue" stroke="midnightblue" points="508.153,-125.034 518.565,-123.073 509.202,-118.114 508.153,-125.034"/>
</g>
<!-- Node7 -->
<g id="node14" class="node"><title>Node7</title>
<a xlink:href="dynamic_8h.html" target="_top" xlink:title="include/fae/dynamic.h">
<polygon fill="none" stroke="red" points="272.876,-60.6953 272.876,-83.3047 403.124,-83.3047 403.124,-60.6953 272.876,-60.6953"/>
<text text-anchor="middle" x="338" y="-68.3047" font-family="Futura" font-size="11.00">include/fae/dynamic.h</text>
</a>
</g>
<!-- Node2&#45;&gt;Node7 -->
<g id="edge14" class="edge"><title>Node2&#45;&gt;Node7</title>
<path fill="none" stroke="midnightblue" d="M519.572,-118.198C477.529,-107.733 418.839,-93.1231 379.687,-83.3771"/>
<polygon fill="midnightblue" stroke="midnightblue" points="518.795,-121.611 529.344,-120.631 520.486,-114.819 518.795,-121.611"/>
</g>
<!-- Node8 -->
<g id="node16" class="node"><title>Node8</title>
<a xlink:href="error_8h.html" target="_top" xlink:title="include/fae/error.h">
<polygon fill="none" stroke="red" points="421.555,-60.6953 421.555,-83.3047 534.445,-83.3047 534.445,-60.6953 421.555,-60.6953"/>
<text text-anchor="middle" x="478" y="-68.3047" font-family="Futura" font-size="11.00">include/fae/error.h</text>
</a>
</g>
<!-- Node2&#45;&gt;Node8 -->
<g id="edge16" class="edge"><title>Node2&#45;&gt;Node8</title>
<path fill="none" stroke="midnightblue" d="M540.304,-115.622C522.886,-105.472 502.227,-92.4417 489.461,-83.475"/>
<polygon fill="midnightblue" stroke="midnightblue" points="538.64,-118.703 549.058,-120.631 542.116,-112.627 538.64,-118.703"/>
</g>
<!-- Node9 -->
<g id="node19" class="node"><title>Node9</title>
<a xlink:href="graph_8h.html" target="_top" xlink:title="include/fae/graph.h">
<polygon fill="none" stroke="red" points="511.894,-0.695312 511.894,-23.3047 630.106,-23.3047 630.106,-0.695312 511.894,-0.695312"/>
<text text-anchor="middle" x="571" y="-8.30469" font-family="Futura" font-size="11.00">include/fae/graph.h</text>
</a>
</g>
<!-- Node2&#45;&gt;Node9 -->
<g id="edge20" class="edge"><title>Node2&#45;&gt;Node9</title>
<path fill="none" stroke="midnightblue" d="M565.741,-110.534C563.414,-85.2504 563.811,-43.1873 566.93,-23.6179"/>
<polygon fill="midnightblue" stroke="midnightblue" points="562.275,-111.022 566.953,-120.528 569.224,-110.18 562.275,-111.022"/>
</g>
<!-- Node10 -->
<g id="node22" class="node"><title>Node10</title>
<a xlink:href="list_8h.html" target="_top" xlink:title="include/fae/list.h">
<polygon fill="none" stroke="red" points="608.343,-60.6953 608.343,-83.3047 709.657,-83.3047 709.657,-60.6953 608.343,-60.6953"/>
<text text-anchor="middle" x="659" y="-68.3047" font-family="Futura" font-size="11.00">include/fae/list.h</text>
</a>
</g>
<!-- Node2&#45;&gt;Node10 -->
<g id="edge24" class="edge"><title>Node2&#45;&gt;Node10</title>
<path fill="none" stroke="midnightblue" d="M595.184,-115.061C610.455,-104.996 629.752,-92.2772 643.107,-83.475"/>
<polygon fill="midnightblue" stroke="midnightblue" points="593.156,-112.205 586.733,-120.631 597.008,-118.05 593.156,-112.205"/>
</g>
<!-- Node3&#45;&gt;Node2 -->
<g id="edge6" class="edge"><title>Node3&#45;&gt;Node2</title>
<path fill="none" stroke="midnightblue" d="M744.826,-86.0761C707.202,-96.5243 653.012,-110.97 615.111,-120.631"/>
<polygon fill="midnightblue" stroke="midnightblue" points="745.802,-89.4375 754.493,-83.3771 743.92,-82.6954 745.802,-89.4375"/>
</g>
<!-- Node3&#45;&gt;Node4 -->
<g id="edge8" class="edge"><title>Node3&#45;&gt;Node4</title>
<path fill="none" stroke="midnightblue" d="M802.017,-52.5233C809.238,-43.0047 817.786,-31.7362 823.904,-23.6719"/>
<polygon fill="midnightblue" stroke="midnightblue" points="799.122,-50.5485 795.866,-60.6308 804.699,-54.7792 799.122,-50.5485"/>
</g>
<!-- Node8&#45;&gt;Node2 -->
<g id="edge18" class="edge"><title>Node8&#45;&gt;Node2</title>
<path fill="none" stroke="midnightblue" d="M508.902,-88.4977C526.345,-98.6702 546.986,-111.696 559.689,-120.631"/>
<polygon fill="midnightblue" stroke="midnightblue" points="510.548,-85.4071 500.131,-83.475 507.07,-91.4817 510.548,-85.4071"/>
</g>
<!-- Node9&#45;&gt;Node2 -->
<g id="edge22" class="edge"><title>Node9&#45;&gt;Node2</title>
<path fill="none" stroke="midnightblue" d="M576.276,-33.6561C578.589,-59.0228 578.18,-101.071 575.047,-120.528"/>
<polygon fill="midnightblue" stroke="midnightblue" points="579.738,-33.129 575.07,-23.6179 572.788,-33.964 579.738,-33.129"/>
</g>
<!-- Node10&#45;&gt;Node9 -->
<g id="edge26" class="edge"><title>Node10&#45;&gt;Node9</title>
<path fill="none" stroke="midnightblue" d="M634.816,-55.0608C619.545,-44.9957 600.248,-32.2772 586.893,-23.475"/>
<polygon fill="midnightblue" stroke="midnightblue" points="632.992,-58.0499 643.267,-60.6308 636.844,-52.2052 632.992,-58.0499"/>
</g>
</g>
</svg>
