<?xml version="1.0" encoding="UTF-8" standalone="no"?>
<!DOCTYPE svg PUBLIC "-//W3C//DTD SVG 1.1//EN"
 "http://www.w3.org/Graphics/SVG/1.1/DTD/svg11.dtd">
<!-- Generated by graphviz version 2.28.0 (20121015.0031)
 -->
<!-- Title: src/fae/atomic/stack.c Pages: 1 -->
<svg width="440pt" height="272pt"
 viewBox="0.00 0.00 440.00 272.00" xmlns="http://www.w3.org/2000/svg" xmlns:xlink="http://www.w3.org/1999/xlink">
<g id="graph1" class="graph" transform="scale(1 1) rotate(0) translate(4 268)">
<title>src/fae/atomic/stack.c</title>
<!-- Node1 -->
<g id="node1" class="node"><title>Node1</title>
<polygon fill="#bfbfbf" stroke="black" points="64.061,-240.695 64.061,-263.305 193.939,-263.305 193.939,-240.695 64.061,-240.695"/>
<text text-anchor="middle" x="129" y="-248.305" font-family="Futura" font-size="11.00">src/fae/atomic/stack.c</text>
</g>
<!-- Node2 -->
<g id="node3" class="node"><title>Node2</title>
<a xlink:href="stack_8h.html" target="_top" xlink:title="fae/atomic/stack.h">
<polygon fill="none" stroke="black" points="-0.622803,-60.6953 -0.622803,-83.3047 110.623,-83.3047 110.623,-60.6953 -0.622803,-60.6953"/>
<text text-anchor="middle" x="55" y="-68.3047" font-family="Futura" font-size="11.00">fae/atomic/stack.h</text>
</a>
</g>
<!-- Node1&#45;&gt;Node2 -->
<g id="edge2" class="edge"><title>Node1&#45;&gt;Node2</title>
<path fill="none" stroke="midnightblue" d="M86.8115,-240.603C67.8165,-233.589 47.1837,-222.183 36,-204 14.6481,-169.285 31.9973,-119.801 44.6742,-92.6695"/>
<polygon fill="midnightblue" stroke="midnightblue" points="47.9394,-93.961 49.2135,-83.4431 41.6584,-90.8708 47.9394,-93.961"/>
</g>
<!-- Node4 -->
<g id="node7" class="node"><title>Node4</title>
<a xlink:href="atomic_8h.html" target="_top" xlink:title="fae/atomic.h">
<polygon fill="none" stroke="black" points="136.894,-180.695 136.894,-203.305 217.106,-203.305 217.106,-180.695 136.894,-180.695"/>
<text text-anchor="middle" x="177" y="-188.305" font-family="Futura" font-size="11.00">fae/atomic.h</text>
</a>
</g>
<!-- Node1&#45;&gt;Node4 -->
<g id="edge6" class="edge"><title>Node1&#45;&gt;Node4</title>
<path fill="none" stroke="midnightblue" d="M137.581,-240.631C144.255,-232.566 153.688,-221.168 161.653,-211.544"/>
<polygon fill="midnightblue" stroke="midnightblue" points="164.489,-213.607 168.168,-203.672 159.096,-209.144 164.489,-213.607"/>
</g>
<!-- Node7 -->
<g id="node15" class="node"><title>Node7</title>
<a xlink:href="string_8h.html" target="_top" xlink:title="fae/string.h">
<polygon fill="none" stroke="black" points="44.8269,-180.695 44.8269,-203.305 119.173,-203.305 119.173,-180.695 44.8269,-180.695"/>
<text text-anchor="middle" x="82" y="-188.305" font-family="Futura" font-size="11.00">fae/string.h</text>
</a>
</g>
<!-- Node1&#45;&gt;Node7 -->
<g id="edge16" class="edge"><title>Node1&#45;&gt;Node7</title>
<path fill="none" stroke="midnightblue" d="M120.597,-240.631C114.062,-232.566 104.826,-221.168 97.0274,-211.544"/>
<polygon fill="midnightblue" stroke="midnightblue" points="99.663,-209.238 90.6479,-203.672 94.2245,-213.645 99.663,-209.238"/>
</g>
<!-- Node8 -->
<g id="node18" class="node"><title>Node8</title>
<a xlink:href="util_8h.html" target="_top" xlink:title="fae/util.h">
<polygon fill="none" stroke="red" points="237.141,-180.695 237.141,-203.305 298.859,-203.305 298.859,-180.695 237.141,-180.695"/>
<text text-anchor="middle" x="268" y="-188.305" font-family="Futura" font-size="11.00">fae/util.h</text>
</a>
</g>
<!-- Node1&#45;&gt;Node8 -->
<g id="edge20" class="edge"><title>Node1&#45;&gt;Node8</title>
<path fill="none" stroke="midnightblue" d="M153.85,-240.631C176.048,-231.368 208.784,-217.709 233.514,-207.39"/>
<polygon fill="midnightblue" stroke="midnightblue" points="235.015,-210.556 242.896,-203.475 232.319,-204.096 235.015,-210.556"/>
</g>
<!-- Node3 -->
<g id="node5" class="node"><title>Node3</title>
<polygon fill="none" stroke="#bfbfbf" points="34.2302,-0.695312 34.2302,-23.3047 75.7698,-23.3047 75.7698,-0.695312 34.2302,-0.695312"/>
<text text-anchor="middle" x="55" y="-8.30469" font-family="Futura" font-size="11.00">fae.h</text>
</g>
<!-- Node2&#45;&gt;Node3 -->
<g id="edge4" class="edge"><title>Node2&#45;&gt;Node3</title>
<path fill="none" stroke="midnightblue" d="M55,-60.6308C55,-53.218 55,-42.9888 55,-33.9096"/>
<polygon fill="midnightblue" stroke="midnightblue" points="58.5001,-33.6718 55,-23.6719 51.5001,-33.6719 58.5001,-33.6718"/>
</g>
<!-- Node5 -->
<g id="node9" class="node"><title>Node5</title>
<a xlink:href="fae_2fae_8h.html" target="_top" xlink:title="fae.h">
<polygon fill="none" stroke="red" points="73.2302,-120.695 73.2302,-143.305 114.77,-143.305 114.77,-120.695 73.2302,-120.695"/>
<text text-anchor="middle" x="94" y="-128.305" font-family="Futura" font-size="11.00">fae.h</text>
</a>
</g>
<!-- Node4&#45;&gt;Node5 -->
<g id="edge8" class="edge"><title>Node4&#45;&gt;Node5</title>
<path fill="none" stroke="midnightblue" d="M156.845,-180.631C143.052,-172.078 125.155,-159.775 111.873,-149.815"/>
<polygon fill="midnightblue" stroke="midnightblue" points="113.959,-147.004 103.902,-143.672 109.686,-152.548 113.959,-147.004"/>
</g>
<!-- Node6 -->
<g id="node13" class="node"><title>Node6</title>
<polygon fill="none" stroke="#bfbfbf" points="144.347,-120.695 144.347,-143.305 205.653,-143.305 205.653,-120.695 144.347,-120.695"/>
<text text-anchor="middle" x="175" y="-128.305" font-family="Futura" font-size="11.00">fae/std.h</text>
</g>
<!-- Node4&#45;&gt;Node6 -->
<g id="edge14" class="edge"><title>Node4&#45;&gt;Node6</title>
<path fill="none" stroke="midnightblue" d="M176.642,-180.631C176.387,-173.218 176.034,-162.989 175.721,-153.91"/>
<polygon fill="midnightblue" stroke="midnightblue" points="179.211,-153.545 175.368,-143.672 172.215,-153.787 179.211,-153.545"/>
</g>
<!-- Node5&#45;&gt;Node2 -->
<g id="edge12" class="edge"><title>Node5&#45;&gt;Node2</title>
<path fill="none" stroke="midnightblue" d="M87.0276,-120.631C81.7145,-112.729 74.2496,-101.628 67.8631,-92.1298"/>
<polygon fill="midnightblue" stroke="midnightblue" points="70.6604,-90.0173 62.1759,-83.6719 64.8515,-93.9233 70.6604,-90.0173"/>
</g>
<!-- Node5&#45;&gt;Node4 -->
<g id="edge10" class="edge"><title>Node5&#45;&gt;Node4</title>
<path fill="none" stroke="midnightblue" d="M114.325,-143.475C128.239,-152.113 146.271,-164.522 159.538,-174.494"/>
<polygon fill="midnightblue" stroke="midnightblue" points="157.425,-177.284 167.477,-180.631 161.706,-171.746 157.425,-177.284"/>
</g>
<!-- Node7&#45;&gt;Node5 -->
<g id="edge18" class="edge"><title>Node7&#45;&gt;Node5</title>
<path fill="none" stroke="midnightblue" d="M84.1454,-180.631C85.6959,-173.137 87.842,-162.764 89.7357,-153.611"/>
<polygon fill="midnightblue" stroke="midnightblue" points="93.1933,-154.174 91.792,-143.672 86.3385,-152.755 93.1933,-154.174"/>
</g>
<!-- Node9 -->
<g id="node20" class="node"><title>Node9</title>
<a xlink:href="arch_8h.html" target="_top" xlink:title="fae/util/arch.h">
<polygon fill="none" stroke="black" points="223.205,-120.695 223.205,-143.305 312.795,-143.305 312.795,-120.695 223.205,-120.695"/>
<text text-anchor="middle" x="268" y="-128.305" font-family="Futura" font-size="11.00">fae/util/arch.h</text>
</a>
</g>
<!-- Node8&#45;&gt;Node9 -->
<g id="edge22" class="edge"><title>Node8&#45;&gt;Node9</title>
<path fill="none" stroke="midnightblue" d="M268,-180.631C268,-173.218 268,-162.989 268,-153.91"/>
<polygon fill="midnightblue" stroke="midnightblue" points="271.5,-153.672 268,-143.672 264.5,-153.672 271.5,-153.672"/>
</g>
<!-- Node10 -->
<g id="node22" class="node"><title>Node10</title>
<a xlink:href="alignof_8h.html" target="_top" xlink:title="fae/util/alignof.h">
<polygon fill="none" stroke="black" points="331.007,-120.695 331.007,-143.305 432.993,-143.305 432.993,-120.695 331.007,-120.695"/>
<text text-anchor="middle" x="382" y="-128.305" font-family="Futura" font-size="11.00">fae/util/alignof.h</text>
</a>
</g>
<!-- Node8&#45;&gt;Node10 -->
<g id="edge24" class="edge"><title>Node8&#45;&gt;Node10</title>
<path fill="none" stroke="midnightblue" d="M288.381,-180.631C306.184,-171.573 332.251,-158.311 352.361,-148.079"/>
<polygon fill="midnightblue" stroke="midnightblue" points="354.085,-151.129 361.411,-143.475 350.911,-144.89 354.085,-151.129"/>
</g>
</g>
</svg>
