<?xml version="1.0" encoding="UTF-8" standalone="no"?>
<!DOCTYPE svg PUBLIC "-//W3C//DTD SVG 1.1//EN"
 "http://www.w3.org/Graphics/SVG/1.1/DTD/svg11.dtd">
<!-- Generated by graphviz version 2.28.0 (20121015.0031)
 -->
<!-- Title: include/fae/std.h Pages: 1 -->
<svg width="677pt" height="272pt"
 viewBox="0.00 0.00 677.00 272.00" xmlns="http://www.w3.org/2000/svg" xmlns:xlink="http://www.w3.org/1999/xlink">
<g id="graph1" class="graph" transform="scale(1 1) rotate(0) translate(4 268)">
<title>include/fae/std.h</title>
<!-- Node1 -->
<g id="node1" class="node"><title>Node1</title>
<polygon fill="#bfbfbf" stroke="black" points="339.784,-240.695 339.784,-263.305 442.216,-263.305 442.216,-240.695 339.784,-240.695"/>
<text text-anchor="middle" x="391" y="-248.305" font-family="Futura" font-size="11.00">include/fae/std.h</text>
</g>
<!-- Node2 -->
<g id="node3" class="node"><title>Node2</title>
<a xlink:href="atomic_8h.html" target="_top" xlink:title="include/fae/atomic.h">
<polygon fill="none" stroke="red" points="170.331,-180.695 170.331,-203.305 291.669,-203.305 291.669,-180.695 170.331,-180.695"/>
<text text-anchor="middle" x="231" y="-188.305" font-family="Futura" font-size="11.00">include/fae/atomic.h</text>
</a>
</g>
<!-- Node1&#45;&gt;Node2 -->
<g id="edge2" class="edge"><title>Node1&#45;&gt;Node2</title>
<path fill="none" stroke="midnightblue" d="M352.723,-237.125C324.108,-226.752 285.604,-212.794 259.626,-203.377"/>
<polygon fill="midnightblue" stroke="midnightblue" points="351.801,-240.513 362.395,-240.631 354.187,-233.932 351.801,-240.513"/>
</g>
<!-- Node4 -->
<g id="node8" class="node"><title>Node4</title>
<a xlink:href="buffer_8h.html" target="_top" xlink:title="include/fae/buffer.h">
<polygon fill="none" stroke="red" points="13.1841,-60.6953 13.1841,-83.3047 130.816,-83.3047 130.816,-60.6953 13.1841,-60.6953"/>
<text text-anchor="middle" x="72" y="-68.3047" font-family="Futura" font-size="11.00">include/fae/buffer.h</text>
</a>
</g>
<!-- Node1&#45;&gt;Node4 -->
<g id="edge26" class="edge"><title>Node1&#45;&gt;Node4</title>
<path fill="none" stroke="midnightblue" d="M329.537,-247.464C281.418,-242.622 213.996,-231.154 161,-204 126.01,-186.072 117.403,-176.979 96,-144 83.3914,-124.572 76.7136,-97.8356 73.8148,-83.3465"/>
<polygon fill="midnightblue" stroke="midnightblue" points="329.216,-250.949 339.499,-248.4 329.871,-243.98 329.216,-250.949"/>
</g>
<!-- Node5 -->
<g id="node10" class="node"><title>Node5</title>
<a xlink:href="midi__msg_8h.html" target="_top" xlink:title="include/fae/midi_msg.h">
<polygon fill="none" stroke="red" points="-0.554688,-0.695312 -0.554688,-23.3047 134.555,-23.3047 134.555,-0.695312 -0.554688,-0.695312"/>
<text text-anchor="middle" x="67" y="-8.30469" font-family="Futura" font-size="11.00">include/fae/midi_msg.h</text>
</a>
</g>
<!-- Node1&#45;&gt;Node5 -->
<g id="edge28" class="edge"><title>Node1&#45;&gt;Node5</title>
<path fill="none" stroke="midnightblue" d="M329.429,-250.925C272.339,-248.473 186.575,-238.574 121,-204 55.1094,-169.26 32.0692,-152.997 4,-84 -0.019507,-74.1196 -0.782413,-69.5345 4,-60 12.3207,-43.4114 29.5809,-31.1836 43.9341,-23.3649"/>
<polygon fill="midnightblue" stroke="midnightblue" points="329.624,-254.435 339.744,-251.301 329.878,-247.439 329.624,-254.435"/>
</g>
<!-- Node6 -->
<g id="node13" class="node"><title>Node6</title>
<a xlink:href="plot_8h.html" target="_top" xlink:title="include/fae/plot.h">
<polygon fill="none" stroke="red" points="152.308,-0.695312 152.308,-23.3047 259.692,-23.3047 259.692,-0.695312 152.308,-0.695312"/>
<text text-anchor="middle" x="206" y="-8.30469" font-family="Futura" font-size="11.00">include/fae/plot.h</text>
</a>
</g>
<!-- Node1&#45;&gt;Node6 -->
<g id="edge30" class="edge"><title>Node1&#45;&gt;Node6</title>
<path fill="none" stroke="midnightblue" d="M398.906,-230.943C401.745,-222.729 404.592,-213.045 406,-204 416.117,-139.023 419.209,-105.778 372,-60 342.219,-31.1211 296.074,-19.7333 259.988,-15.3634"/>
<polygon fill="midnightblue" stroke="midnightblue" points="395.594,-229.808 395.424,-240.401 402.163,-232.226 395.594,-229.808"/>
</g>
<!-- Node7 -->
<g id="node17" class="node"><title>Node7</title>
<a xlink:href="thread_8h.html" target="_top" xlink:title="include/fae/thread.h">
<polygon fill="none" stroke="red" points="242.53,-60.6953 242.53,-83.3047 363.47,-83.3047 363.47,-60.6953 242.53,-60.6953"/>
<text text-anchor="middle" x="303" y="-68.3047" font-family="Futura" font-size="11.00">include/fae/thread.h</text>
</a>
</g>
<!-- Node1&#45;&gt;Node7 -->
<g id="edge34" class="edge"><title>Node1&#45;&gt;Node7</title>
<path fill="none" stroke="midnightblue" d="M392.671,-230.208C393.853,-202.819 392.344,-154.138 371,-120 360.653,-103.451 342.108,-91.2206 326.996,-83.3909"/>
<polygon fill="midnightblue" stroke="midnightblue" points="389.156,-230.345 392.049,-240.538 396.144,-230.766 389.156,-230.345"/>
</g>
<!-- Node9 -->
<g id="node25" class="node"><title>Node9</title>
<a xlink:href="ratio_8h.html" target="_top" xlink:title="include/fae/ratio.h">
<polygon fill="none" stroke="red" points="457.321,-180.695 457.321,-203.305 568.679,-203.305 568.679,-180.695 457.321,-180.695"/>
<text text-anchor="middle" x="513" y="-188.305" font-family="Futura" font-size="11.00">include/fae/ratio.h</text>
</a>
</g>
<!-- Node1&#45;&gt;Node9 -->
<g id="edge32" class="edge"><title>Node1&#45;&gt;Node9</title>
<path fill="none" stroke="midnightblue" d="M421.887,-236.316C443.434,-226.072 471.673,-212.647 490.966,-203.475"/>
<polygon fill="midnightblue" stroke="midnightblue" points="420.34,-233.176 412.811,-240.631 423.345,-239.498 420.34,-233.176"/>
</g>
<!-- Node10 -->
<g id="node28" class="node"><title>Node10</title>
<a xlink:href="fae_8h.html" target="_top" xlink:title="include/fae.h">
<polygon fill="none" stroke="red" points="586.667,-180.695 586.667,-203.305 669.333,-203.305 669.333,-180.695 586.667,-180.695"/>
<text text-anchor="middle" x="628" y="-188.305" font-family="Futura" font-size="11.00">include/fae.h</text>
</a>
</g>
<!-- Node1&#45;&gt;Node10 -->
<g id="edge36" class="edge"><title>Node1&#45;&gt;Node10</title>
<path fill="none" stroke="midnightblue" d="M443.102,-238.249C486.167,-227.71 546.508,-212.943 586.394,-203.182"/>
<polygon fill="midnightblue" stroke="midnightblue" points="442.252,-234.854 433.371,-240.631 443.916,-241.653 442.252,-234.854"/>
</g>
<!-- Node3 -->
<g id="node5" class="node"><title>Node3</title>
<a xlink:href="fae_2fae_8h.html" target="_top" xlink:title="include/fae/fae.h">
<polygon fill="none" stroke="red" points="104.761,-120.695 104.761,-143.305 209.239,-143.305 209.239,-120.695 104.761,-120.695"/>
<text text-anchor="middle" x="157" y="-128.305" font-family="Futura" font-size="11.00">include/fae/fae.h</text>
</a>
</g>
<!-- Node2&#45;&gt;Node3 -->
<g id="edge4" class="edge"><title>Node2&#45;&gt;Node3</title>
<path fill="none" stroke="midnightblue" d="M204.226,-174.817C190.496,-164.866 174.836,-152.395 165.246,-143.672"/>
<polygon fill="midnightblue" stroke="midnightblue" points="202.268,-177.718 212.454,-180.631 206.307,-172.002 202.268,-177.718"/>
</g>
<!-- Node8 -->
<g id="node20" class="node"><title>Node8</title>
<a xlink:href="queue_8c.html" target="_top" xlink:title="src/fae/atomic/queue.c">
<polygon fill="none" stroke="black" points="227.29,-120.695 227.29,-143.305 362.71,-143.305 362.71,-120.695 227.29,-120.695"/>
<text text-anchor="middle" x="295" y="-128.305" font-family="Futura" font-size="11.00">src/fae/atomic/queue.c</text>
</a>
</g>
<!-- Node2&#45;&gt;Node8 -->
<g id="edge24" class="edge"><title>Node2&#45;&gt;Node8</title>
<path fill="none" stroke="midnightblue" d="M250.112,-173.68C260.87,-163.93 273.962,-152.065 283.224,-143.672"/>
<polygon fill="midnightblue" stroke="midnightblue" points="247.501,-171.322 242.442,-180.631 252.202,-176.509 247.501,-171.322"/>
</g>
<!-- Node3&#45;&gt;Node2 -->
<g id="edge6" class="edge"><title>Node3&#45;&gt;Node2</title>
<path fill="none" stroke="midnightblue" d="M183.995,-149.344C197.832,-159.384 213.579,-171.942 223.086,-180.631"/>
<polygon fill="midnightblue" stroke="midnightblue" points="185.885,-146.393 175.7,-143.475 181.842,-152.108 185.885,-146.393"/>
</g>
<!-- Node3&#45;&gt;Node4 -->
<g id="edge8" class="edge"><title>Node3&#45;&gt;Node4</title>
<path fill="none" stroke="midnightblue" d="M133.226,-114.778C118.542,-104.758 100.13,-92.1949 87.3513,-83.475"/>
<polygon fill="midnightblue" stroke="midnightblue" points="131.571,-117.885 141.804,-120.631 135.516,-112.103 131.571,-117.885"/>
</g>
<!-- Node3&#45;&gt;Node6 -->
<g id="edge18" class="edge"><title>Node3&#45;&gt;Node6</title>
<path fill="none" stroke="midnightblue" d="M160.131,-110.873C168.252,-85.6281 186.225,-43.275 197.521,-23.6179"/>
<polygon fill="midnightblue" stroke="midnightblue" points="156.755,-109.948 157.301,-120.528 163.472,-111.916 156.755,-109.948"/>
</g>
<!-- Node3&#45;&gt;Node7 -->
<g id="edge20" class="edge"><title>Node3&#45;&gt;Node7</title>
<path fill="none" stroke="midnightblue" d="M187.049,-116.715C211.756,-106.387 246.48,-92.6708 271.561,-83.3771"/>
<polygon fill="midnightblue" stroke="midnightblue" points="185.634,-113.513 177.786,-120.631 188.36,-119.961 185.634,-113.513"/>
</g>
<!-- Node4&#45;&gt;Node5 -->
<g id="edge10" class="edge"><title>Node4&#45;&gt;Node5</title>
<path fill="none" stroke="midnightblue" d="M70.2292,-50.4586C69.4492,-41.4112 68.5655,-31.1602 67.92,-23.6719"/>
<polygon fill="midnightblue" stroke="midnightblue" points="66.7601,-50.9684 71.1061,-60.6308 73.7342,-50.3671 66.7601,-50.9684"/>
</g>
<!-- Node4&#45;&gt;Node6 -->
<g id="edge14" class="edge"><title>Node4&#45;&gt;Node6</title>
<path fill="none" stroke="midnightblue" d="M105.29,-56.591C129.034,-46.3135 160.418,-32.7296 181.799,-23.475"/>
<polygon fill="midnightblue" stroke="midnightblue" points="103.743,-53.4464 95.9565,-60.6308 106.524,-59.8705 103.743,-53.4464"/>
</g>
<!-- Node5&#45;&gt;Node3 -->
<g id="edge12" class="edge"><title>Node5&#45;&gt;Node3</title>
<path fill="none" stroke="midnightblue" d="M101.044,-28.2829C114.685,-35.9871 129.411,-46.5788 139,-60 152.159,-78.4172 155.721,-105.549 156.67,-120.372"/>
<polygon fill="midnightblue" stroke="midnightblue" points="102.325,-25.0005 91.8497,-23.4111 99.0472,-31.1859 102.325,-25.0005"/>
</g>
<!-- Node6&#45;&gt;Node3 -->
<g id="edge16" class="edge"><title>Node6&#45;&gt;Node3</title>
<path fill="none" stroke="midnightblue" d="M202.809,-33.3159C194.639,-58.6453 176.658,-100.984 165.395,-120.528"/>
<polygon fill="midnightblue" stroke="midnightblue" points="206.197,-34.1991 205.661,-23.6179 199.482,-32.2238 206.197,-34.1991"/>
</g>
<!-- Node7&#45;&gt;Node3 -->
<g id="edge22" class="edge"><title>Node7&#45;&gt;Node3</title>
<path fill="none" stroke="midnightblue" d="M272.7,-87.3897C248.003,-97.7086 213.416,-111.368 188.418,-120.631"/>
<polygon fill="midnightblue" stroke="midnightblue" points="274.117,-90.5906 281.967,-83.475 271.393,-84.1423 274.117,-90.5906"/>
</g>
</g>
</svg>
