<?xml version="1.0" encoding="UTF-8" standalone="no"?>
<!DOCTYPE svg PUBLIC "-//W3C//DTD SVG 1.1//EN"
 "http://www.w3.org/Graphics/SVG/1.1/DTD/svg11.dtd">
<!-- Generated by graphviz version 2.28.0 (20121015.0031)
 -->
<!-- Title: include/fa/std.h Pages: 1 -->
<svg width="759pt" height="272pt"
 viewBox="0.00 0.00 759.00 272.00" xmlns="http://www.w3.org/2000/svg" xmlns:xlink="http://www.w3.org/1999/xlink">
<g id="graph1" class="graph" transform="scale(1 1) rotate(0) translate(4 268)">
<title>include/fa/std.h</title>
<!-- Node1 -->
<g id="node1" class="node"><title>Node1</title>
<polygon fill="#bfbfbf" stroke="black" points="340.827,-240.695 340.827,-263.305 437.173,-263.305 437.173,-240.695 340.827,-240.695"/>
<text text-anchor="middle" x="389" y="-248.305" font-family="Futura" font-size="11.00">include/fa/std.h</text>
</g>
<!-- Node2 -->
<g id="node3" class="node"><title>Node2</title>
<a xlink:href="atomic_8h.html" target="_top" xlink:title="include/fa/atomic.h">
<polygon fill="none" stroke="black" points="286.374,-180.695 286.374,-203.305 401.626,-203.305 401.626,-180.695 286.374,-180.695"/>
<text text-anchor="middle" x="344" y="-188.305" font-family="Futura" font-size="11.00">include/fa/atomic.h</text>
</a>
</g>
<!-- Node1&#45;&gt;Node2 -->
<g id="edge2" class="edge"><title>Node1&#45;&gt;Node2</title>
<path fill="none" stroke="midnightblue" d="M374.665,-232.523C367.279,-223.005 358.537,-211.736 352.28,-203.672"/>
<polygon fill="midnightblue" stroke="midnightblue" points="372.06,-234.875 380.955,-240.631 377.59,-230.584 372.06,-234.875"/>
</g>
<!-- Node4 -->
<g id="node8" class="node"><title>Node4</title>
<a xlink:href="buffer_8h.html" target="_top" xlink:title="include/fa/buffer.h">
<polygon fill="none" stroke="black" points="139.227,-60.6953 139.227,-83.3047 250.773,-83.3047 250.773,-60.6953 139.227,-60.6953"/>
<text text-anchor="middle" x="195" y="-68.3047" font-family="Futura" font-size="11.00">include/fa/buffer.h</text>
</a>
</g>
<!-- Node1&#45;&gt;Node4 -->
<g id="edge32" class="edge"><title>Node1&#45;&gt;Node4</title>
<path fill="none" stroke="midnightblue" d="M338.794,-237.334C318.05,-229.909 294.755,-219.09 277,-204 235.701,-168.901 208.522,-107.63 198.894,-83.3422"/>
<polygon fill="midnightblue" stroke="midnightblue" points="337.831,-240.703 348.425,-240.61 340.085,-234.076 337.831,-240.703"/>
</g>
<!-- Node5 -->
<g id="node10" class="node"><title>Node5</title>
<a xlink:href="message_8h.html" target="_top" xlink:title="include/fa/midi/message.h">
<polygon fill="none" stroke="black" points="-0.866455,-0.695312 -0.866455,-23.3047 150.866,-23.3047 150.866,-0.695312 -0.866455,-0.695312"/>
<text text-anchor="middle" x="75" y="-8.30469" font-family="Futura" font-size="11.00">include/fa/midi/message.h</text>
</a>
</g>
<!-- Node1&#45;&gt;Node5 -->
<g id="edge34" class="edge"><title>Node1&#45;&gt;Node5</title>
<path fill="none" stroke="midnightblue" d="M330.694,-243.092C294.327,-236.412 247.478,-224.528 210,-204 133.786,-162.255 90.6553,-56.8334 78.5546,-23.3654"/>
<polygon fill="midnightblue" stroke="midnightblue" points="330.203,-246.56 340.657,-244.842 331.413,-239.665 330.203,-246.56"/>
</g>
<!-- Node6 -->
<g id="node13" class="node"><title>Node6</title>
<a xlink:href="plot_8h.html" target="_top" xlink:title="include/fa/plot.h">
<polygon fill="none" stroke="black" points="169.351,-0.695312 169.351,-23.3047 270.649,-23.3047 270.649,-0.695312 169.351,-0.695312"/>
<text text-anchor="middle" x="220" y="-8.30469" font-family="Futura" font-size="11.00">include/fa/plot.h</text>
</a>
</g>
<!-- Node1&#45;&gt;Node6 -->
<g id="edge36" class="edge"><title>Node1&#45;&gt;Node6</title>
<path fill="none" stroke="midnightblue" d="M332.226,-237.938C306.246,-230.425 275.8,-219.368 251,-204 186.619,-164.105 159.129,-153.914 130,-84 125.898,-74.1538 124.472,-69.1227 130,-60 140.962,-41.9091 161.422,-30.4513 180.068,-23.3831"/>
<polygon fill="midnightblue" stroke="midnightblue" points="331.37,-241.333 341.943,-240.646 333.249,-234.59 331.37,-241.333"/>
</g>
<!-- Node8 -->
<g id="node22" class="node"><title>Node8</title>
<a xlink:href="thread_8h.html" target="_top" xlink:title="include/fa/thread.h">
<polygon fill="none" stroke="black" points="380.573,-60.6953 380.573,-83.3047 495.427,-83.3047 495.427,-60.6953 380.573,-60.6953"/>
<text text-anchor="middle" x="438" y="-68.3047" font-family="Futura" font-size="11.00">include/fa/thread.h</text>
</a>
</g>
<!-- Node1&#45;&gt;Node8 -->
<g id="edge40" class="edge"><title>Node1&#45;&gt;Node8</title>
<path fill="none" stroke="midnightblue" d="M398.932,-231.252C402.796,-222.986 407.004,-213.181 410,-204 424.283,-160.223 433.222,-105.799 436.539,-83.3846"/>
<polygon fill="midnightblue" stroke="midnightblue" points="395.698,-229.9 394.495,-240.426 402,-232.948 395.698,-229.9"/>
</g>
<!-- Node9 -->
<g id="node28" class="node"><title>Node9</title>
<a xlink:href="ratio_8h.html" target="_top" xlink:title="include/fa/ratio.h">
<polygon fill="none" stroke="red" points="551.364,-180.695 551.364,-203.305 656.636,-203.305 656.636,-180.695 551.364,-180.695"/>
<text text-anchor="middle" x="604" y="-188.305" font-family="Futura" font-size="11.00">include/fa/ratio.h</text>
</a>
</g>
<!-- Node1&#45;&gt;Node9 -->
<g id="edge38" class="edge"><title>Node1&#45;&gt;Node9</title>
<path fill="none" stroke="midnightblue" d="M437.44,-237.932C476.163,-227.486 529.711,-213.041 565.533,-203.377"/>
<polygon fill="midnightblue" stroke="midnightblue" points="436.181,-234.647 427.438,-240.631 438.004,-241.405 436.181,-234.647"/>
</g>
<!-- Node10 -->
<g id="node31" class="node"><title>Node10</title>
<a xlink:href="fa_8h.html" target="_top" xlink:title="include/fa.h">
<polygon fill="none" stroke="red" points="674.71,-180.695 674.71,-203.305 751.29,-203.305 751.29,-180.695 674.71,-180.695"/>
<text text-anchor="middle" x="713" y="-188.305" font-family="Futura" font-size="11.00">include/fa.h</text>
</a>
</g>
<!-- Node1&#45;&gt;Node10 -->
<g id="edge42" class="edge"><title>Node1&#45;&gt;Node10</title>
<path fill="none" stroke="midnightblue" d="M447.602,-242.007C503.594,-233.182 590.285,-218.91 665,-204 668.102,-203.381 671.31,-202.711 674.529,-202.018"/>
<polygon fill="midnightblue" stroke="midnightblue" points="446.851,-238.582 437.514,-243.59 447.936,-245.497 446.851,-238.582"/>
</g>
<!-- Node3 -->
<g id="node5" class="node"><title>Node3</title>
<a xlink:href="fa_2fa_8h.html" target="_top" xlink:title="include/fa/fa.h">
<polygon fill="none" stroke="red" points="297.846,-120.695 297.846,-143.305 390.154,-143.305 390.154,-120.695 297.846,-120.695"/>
<text text-anchor="middle" x="344" y="-128.305" font-family="Futura" font-size="11.00">include/fa/fa.h</text>
</a>
</g>
<!-- Node2&#45;&gt;Node3 -->
<g id="edge4" class="edge"><title>Node2&#45;&gt;Node3</title>
<path fill="none" stroke="midnightblue" d="M337.512,-170.459C336.936,-161.411 337.309,-151.16 338.63,-143.672"/>
<polygon fill="midnightblue" stroke="midnightblue" points="334.062,-171.097 338.684,-180.631 341.016,-170.296 334.062,-171.097"/>
</g>
<!-- Node3&#45;&gt;Node2 -->
<g id="edge6" class="edge"><title>Node3&#45;&gt;Node2</title>
<path fill="none" stroke="midnightblue" d="M350.492,-153.611C351.069,-162.764 350.677,-173.137 349.316,-180.631"/>
<polygon fill="midnightblue" stroke="midnightblue" points="353.97,-153.216 349.37,-143.672 347.014,-154.001 353.97,-153.216"/>
</g>
<!-- Node3&#45;&gt;Node4 -->
<g id="edge8" class="edge"><title>Node3&#45;&gt;Node4</title>
<path fill="none" stroke="midnightblue" d="M308.005,-116.989C281.394,-106.63 245.745,-92.753 221.658,-83.3771"/>
<polygon fill="midnightblue" stroke="midnightblue" points="306.773,-120.265 317.362,-120.631 309.313,-113.742 306.773,-120.265"/>
</g>
<!-- Node3&#45;&gt;Node6 -->
<g id="edge24" class="edge"><title>Node3&#45;&gt;Node6</title>
<path fill="none" stroke="midnightblue" d="M321.028,-113.83C292.32,-89.0681 245.315,-44.0648 227.087,-23.6179"/>
<polygon fill="midnightblue" stroke="midnightblue" points="319.053,-116.744 328.949,-120.528 323.573,-111.399 319.053,-116.744"/>
</g>
<!-- Node7 -->
<g id="node16" class="node"><title>Node7</title>
<a xlink:href="signal_8h.html" target="_top" xlink:title="include/fa/signal.h">
<polygon fill="none" stroke="red" points="288.283,-0.695312 288.283,-23.3047 399.717,-23.3047 399.717,-0.695312 288.283,-0.695312"/>
<text text-anchor="middle" x="344" y="-8.30469" font-family="Futura" font-size="11.00">include/fa/signal.h</text>
</a>
</g>
<!-- Node3&#45;&gt;Node7 -->
<g id="edge26" class="edge"><title>Node3&#45;&gt;Node7</title>
<path fill="none" stroke="midnightblue" d="M338.741,-110.534C336.414,-85.2504 336.811,-43.1873 339.93,-23.6179"/>
<polygon fill="midnightblue" stroke="midnightblue" points="335.275,-111.022 339.953,-120.528 342.224,-110.18 335.275,-111.022"/>
</g>
<!-- Node3&#45;&gt;Node8 -->
<g id="edge28" class="edge"><title>Node3&#45;&gt;Node8</title>
<path fill="none" stroke="midnightblue" d="M364.161,-114.778C379.362,-104.758 399.988,-92.1949 415.688,-83.475"/>
<polygon fill="midnightblue" stroke="midnightblue" points="361.82,-112.135 355.489,-120.631 365.736,-117.937 361.82,-112.135"/>
</g>
<!-- Node4&#45;&gt;Node5 -->
<g id="edge10" class="edge"><title>Node4&#45;&gt;Node5</title>
<path fill="none" stroke="midnightblue" d="M164.334,-56.1782C143.177,-45.952 115.565,-32.6062 96.6725,-23.475"/>
<polygon fill="midnightblue" stroke="midnightblue" points="163.02,-59.4302 173.546,-60.6308 166.066,-53.1278 163.02,-59.4302"/>
</g>
<!-- Node4&#45;&gt;Node6 -->
<g id="edge14" class="edge"><title>Node4&#45;&gt;Node6</title>
<path fill="none" stroke="midnightblue" d="M203.47,-51.3493C207.461,-42.0901 212.066,-31.4071 215.4,-23.6719"/>
<polygon fill="midnightblue" stroke="midnightblue" points="200.214,-50.0621 199.469,-60.6308 206.642,-52.8329 200.214,-50.0621"/>
</g>
<!-- Node4&#45;&gt;Node7 -->
<g id="edge18" class="edge"><title>Node4&#45;&gt;Node7</title>
<path fill="none" stroke="midnightblue" d="M230.995,-56.9885C257.606,-46.63 293.255,-32.753 317.342,-23.3771"/>
<polygon fill="midnightblue" stroke="midnightblue" points="229.687,-53.7416 221.638,-60.6308 232.227,-60.2648 229.687,-53.7416"/>
</g>
<!-- Node5&#45;&gt;Node3 -->
<g id="edge12" class="edge"><title>Node5&#45;&gt;Node3</title>
<path fill="none" stroke="midnightblue" d="M85.0232,-32.5064C94.4291,-48.8116 110.03,-71.3694 130,-84 181.276,-116.43 251.73,-126.694 297.559,-129.824"/>
<polygon fill="midnightblue" stroke="midnightblue" points="87.8576,-30.3954 79.9835,-23.3067 81.7184,-33.7585 87.8576,-30.3954"/>
</g>
<!-- Node6&#45;&gt;Node3 -->
<g id="edge16" class="edge"><title>Node6&#45;&gt;Node3</title>
<path fill="none" stroke="midnightblue" d="M243.178,-30.3477C271.973,-55.2062 318.953,-100.199 337.043,-120.528"/>
<polygon fill="midnightblue" stroke="midnightblue" points="245.122,-27.4074 235.228,-23.6179 240.599,-32.7503 245.122,-27.4074"/>
</g>
<!-- Node7&#45;&gt;Node1 -->
<g id="edge22" class="edge"><title>Node7&#45;&gt;Node1</title>
<path fill="none" stroke="midnightblue" d="M410.043,-24.1815C448.771,-32.234 492.335,-44.415 504,-60 552.476,-124.764 445.15,-211.086 404.107,-240.599"/>
<polygon fill="midnightblue" stroke="midnightblue" points="410.296,-20.6624 399.802,-22.1222 408.916,-27.525 410.296,-20.6624"/>
</g>
<!-- Node7&#45;&gt;Node3 -->
<g id="edge20" class="edge"><title>Node7&#45;&gt;Node3</title>
<path fill="none" stroke="midnightblue" d="M349.276,-33.6561C351.589,-59.0228 351.18,-101.071 348.047,-120.528"/>
<polygon fill="midnightblue" stroke="midnightblue" points="352.738,-33.129 348.07,-23.6179 345.788,-33.964 352.738,-33.129"/>
</g>
<!-- Node8&#45;&gt;Node3 -->
<g id="edge30" class="edge"><title>Node8&#45;&gt;Node3</title>
<path fill="none" stroke="midnightblue" d="M417.654,-89.344C402.409,-99.3841 381.781,-111.942 366.121,-120.631"/>
<polygon fill="midnightblue" stroke="midnightblue" points="420.024,-91.9676 426.358,-83.475 416.11,-86.1638 420.024,-91.9676"/>
</g>
</g>
</svg>
