<?xml version="1.0" encoding="UTF-8" standalone="no"?>
<!DOCTYPE svg PUBLIC "-//W3C//DTD SVG 1.1//EN"
 "http://www.w3.org/Graphics/SVG/1.1/DTD/svg11.dtd">
<!-- Generated by graphviz version 2.28.0 (20121015.0031)
 -->
<!-- Title: include/fa/std.h Pages: 1 -->
<svg width="425pt" height="452pt"
 viewBox="0.00 0.00 425.00 452.00" xmlns="http://www.w3.org/2000/svg" xmlns:xlink="http://www.w3.org/1999/xlink">
<g id="graph1" class="graph" transform="scale(1 1) rotate(0) translate(4 448)">
<title>include/fa/std.h</title>
<!-- Node1 -->
<g id="node1" class="node"><title>Node1</title>
<polygon fill="#bfbfbf" stroke="black" points="112.827,-420.695 112.827,-443.305 209.173,-443.305 209.173,-420.695 112.827,-420.695"/>
<text text-anchor="middle" x="161" y="-428.305" font-family="Futura" font-size="11.00">include/fa/std.h</text>
</g>
<!-- Node2 -->
<g id="node3" class="node"><title>Node2</title>
<a xlink:href="buffer_8h.html" target="_top" xlink:title="include/fa/buffer.h">
<polygon fill="none" stroke="black" points="147.227,-360.695 147.227,-383.305 258.773,-383.305 258.773,-360.695 147.227,-360.695"/>
<text text-anchor="middle" x="203" y="-368.305" font-family="Futura" font-size="11.00">include/fa/buffer.h</text>
</a>
</g>
<!-- Node1&#45;&gt;Node2 -->
<g id="edge2" class="edge"><title>Node1&#45;&gt;Node2</title>
<path fill="none" stroke="midnightblue" d="M174.38,-412.523C181.272,-403.005 189.432,-391.736 195.272,-383.672"/>
<polygon fill="midnightblue" stroke="midnightblue" points="171.539,-410.479 168.509,-420.631 177.209,-414.584 171.539,-410.479"/>
</g>
<!-- Node3 -->
<g id="node5" class="node"><title>Node3</title>
<a xlink:href="message_8h.html" target="_top" xlink:title="include/fa/midi/message.h">
<polygon fill="none" stroke="black" points="266.134,-300.695 266.134,-323.305 417.866,-323.305 417.866,-300.695 266.134,-300.695"/>
<text text-anchor="middle" x="342" y="-308.305" font-family="Futura" font-size="11.00">include/fa/midi/message.h</text>
</a>
</g>
<!-- Node1&#45;&gt;Node3 -->
<g id="edge38" class="edge"><title>Node1&#45;&gt;Node3</title>
<path fill="none" stroke="midnightblue" d="M201.064,-416.986C221.643,-408.878 246.607,-397.586 267,-384 293.859,-366.106 320.027,-338.274 333.196,-323.326"/>
<polygon fill="midnightblue" stroke="midnightblue" points="199.737,-413.746 191.653,-420.595 202.243,-420.282 199.737,-413.746"/>
</g>
<!-- Node9 -->
<g id="node29" class="node"><title>Node9</title>
<a xlink:href="ratio_8h.html" target="_top" xlink:title="include/fa/ratio.h">
<polygon fill="none" stroke="black" points="66.3635,-300.695 66.3635,-323.305 171.636,-323.305 171.636,-300.695 66.3635,-300.695"/>
<text text-anchor="middle" x="119" y="-308.305" font-family="Futura" font-size="11.00">include/fa/ratio.h</text>
</a>
</g>
<!-- Node1&#45;&gt;Node9 -->
<g id="edge40" class="edge"><title>Node1&#45;&gt;Node9</title>
<path fill="none" stroke="midnightblue" d="M150.422,-411.536C146.179,-403.216 141.48,-393.294 138,-384 130.125,-362.968 124.097,-337.297 121.1,-323.306"/>
<polygon fill="midnightblue" stroke="midnightblue" points="147.347,-413.207 155.094,-420.434 153.544,-409.954 147.347,-413.207"/>
</g>
<!-- Node10 -->
<g id="node32" class="node"><title>Node10</title>
<a xlink:href="fa_8h.html" target="_top" xlink:title="include/fa.h">
<polygon fill="none" stroke="black" points="314.71,-360.695 314.71,-383.305 391.29,-383.305 391.29,-360.695 314.71,-360.695"/>
<text text-anchor="middle" x="353" y="-368.305" font-family="Futura" font-size="11.00">include/fa.h</text>
</a>
</g>
<!-- Node1&#45;&gt;Node10 -->
<g id="edge44" class="edge"><title>Node1&#45;&gt;Node10</title>
<path fill="none" stroke="midnightblue" d="M205.144,-417.665C239.651,-407.241 286.93,-392.959 318.648,-383.377"/>
<polygon fill="midnightblue" stroke="midnightblue" points="203.886,-414.388 195.326,-420.631 205.911,-421.089 203.886,-414.388"/>
</g>
<!-- Node2&#45;&gt;Node3 -->
<g id="edge4" class="edge"><title>Node2&#45;&gt;Node3</title>
<path fill="none" stroke="midnightblue" d="M237.204,-356.728C261.873,-346.434 294.618,-332.771 316.896,-323.475"/>
<polygon fill="midnightblue" stroke="midnightblue" points="235.731,-353.55 227.85,-360.631 238.427,-360.01 235.731,-353.55"/>
</g>
<!-- Node7 -->
<g id="node16" class="node"><title>Node7</title>
<a xlink:href="signal_8h.html" target="_top" xlink:title="include/fa/signal.h">
<polygon fill="none" stroke="black" points="149.283,-120.695 149.283,-143.305 260.717,-143.305 260.717,-120.695 149.283,-120.695"/>
<text text-anchor="middle" x="205" y="-128.305" font-family="Futura" font-size="11.00">include/fa/signal.h</text>
</a>
</g>
<!-- Node2&#45;&gt;Node7 -->
<g id="edge36" class="edge"><title>Node2&#45;&gt;Node7</title>
<path fill="none" stroke="midnightblue" d="M203.173,-350.447C203.583,-301.571 204.607,-179.778 204.913,-143.412"/>
<polygon fill="midnightblue" stroke="midnightblue" points="199.673,-350.437 203.089,-360.466 206.673,-350.496 199.673,-350.437"/>
</g>
<!-- Node4 -->
<g id="node7" class="node"><title>Node4</title>
<a xlink:href="fa_2fa_8h.html" target="_top" xlink:title="include/fa/fa.h">
<polygon fill="none" stroke="red" points="227.846,-240.695 227.846,-263.305 320.154,-263.305 320.154,-240.695 227.846,-240.695"/>
<text text-anchor="middle" x="274" y="-248.305" font-family="Futura" font-size="11.00">include/fa/fa.h</text>
</a>
</g>
<!-- Node3&#45;&gt;Node4 -->
<g id="edge6" class="edge"><title>Node3&#45;&gt;Node4</title>
<path fill="none" stroke="midnightblue" d="M322.029,-293.966C310.536,-284.163 296.449,-272.148 286.512,-263.672"/>
<polygon fill="midnightblue" stroke="midnightblue" points="319.963,-296.804 329.843,-300.631 324.506,-291.478 319.963,-296.804"/>
</g>
<!-- Node4&#45;&gt;Node2 -->
<g id="edge16" class="edge"><title>Node4&#45;&gt;Node2</title>
<path fill="none" stroke="midnightblue" d="M262.383,-272.307C247.22,-297.507 221.218,-340.722 209.301,-360.528"/>
<polygon fill="midnightblue" stroke="midnightblue" points="265.455,-273.991 267.611,-263.618 259.457,-270.382 265.455,-273.991"/>
</g>
<!-- Node5 -->
<g id="node9" class="node"><title>Node5</title>
<a xlink:href="action_8h.html" target="_top" xlink:title="include/fa/action.h">
<polygon fill="none" stroke="black" points="232.746,-60.6953 232.746,-83.3047 345.254,-83.3047 345.254,-60.6953 232.746,-60.6953"/>
<text text-anchor="middle" x="289" y="-68.3047" font-family="Futura" font-size="11.00">include/fa/action.h</text>
</a>
</g>
<!-- Node4&#45;&gt;Node5 -->
<g id="edge8" class="edge"><title>Node4&#45;&gt;Node5</title>
<path fill="none" stroke="midnightblue" d="M271.226,-230.258C271.132,-192.065 278.267,-111.913 284.746,-83.368"/>
<polygon fill="midnightblue" stroke="midnightblue" points="267.737,-230.755 271.496,-240.661 274.735,-230.573 267.737,-230.755"/>
</g>
<!-- Node4&#45;&gt;Node7 -->
<g id="edge18" class="edge"><title>Node4&#45;&gt;Node7</title>
<path fill="none" stroke="midnightblue" d="M257.914,-232.208C240.756,-207.148 215.649,-163.626 207.138,-143.618"/>
<polygon fill="midnightblue" stroke="midnightblue" points="255.182,-234.407 263.83,-240.528 260.887,-230.35 255.182,-234.407"/>
</g>
<!-- Node8 -->
<g id="node22" class="node"><title>Node8</title>
<a xlink:href="time_8h.html" target="_top" xlink:title="include/fa/time.h">
<polygon fill="none" stroke="red" points="69.5935,-180.695 69.5935,-203.305 172.406,-203.305 172.406,-180.695 69.5935,-180.695"/>
<text text-anchor="middle" x="121" y="-188.305" font-family="Futura" font-size="11.00">include/fa/time.h</text>
</a>
</g>
<!-- Node4&#45;&gt;Node8 -->
<g id="edge28" class="edge"><title>Node4&#45;&gt;Node8</title>
<path fill="none" stroke="midnightblue" d="M231.572,-237.136C202.955,-226.798 166.451,-212.894 143.297,-203.475"/>
<polygon fill="midnightblue" stroke="midnightblue" points="230.736,-240.554 241.331,-240.631 233.096,-233.964 230.736,-240.554"/>
</g>
<!-- Node5&#45;&gt;Node4 -->
<g id="edge14" class="edge"><title>Node5&#45;&gt;Node4</title>
<path fill="none" stroke="midnightblue" d="M291.774,-93.78C291.863,-132.001 284.726,-212.15 278.247,-240.661"/>
<polygon fill="midnightblue" stroke="midnightblue" points="295.263,-93.2745 291.506,-83.368 288.265,-93.4548 295.263,-93.2745"/>
</g>
<!-- Node6 -->
<g id="node11" class="node"><title>Node6</title>
<a xlink:href="audio_8h.html" target="_top" xlink:title="include/fa/audio.h">
<polygon fill="none" stroke="black" points="233.592,-0.695312 233.592,-23.3047 344.408,-23.3047 344.408,-0.695312 233.592,-0.695312"/>
<text text-anchor="middle" x="289" y="-8.30469" font-family="Futura" font-size="11.00">include/fa/audio.h</text>
</a>
</g>
<!-- Node5&#45;&gt;Node6 -->
<g id="edge10" class="edge"><title>Node5&#45;&gt;Node6</title>
<path fill="none" stroke="midnightblue" d="M289,-50.4586C289,-41.4112 289,-31.1602 289,-23.6719"/>
<polygon fill="midnightblue" stroke="midnightblue" points="285.5,-50.6307 289,-60.6308 292.5,-50.6308 285.5,-50.6307"/>
</g>
<!-- Node6&#45;&gt;Node4 -->
<g id="edge12" class="edge"><title>Node6&#45;&gt;Node4</title>
<path fill="none" stroke="midnightblue" d="M321.977,-28.4007C334.371,-36.0272 347.117,-46.5287 354,-60 358.853,-69.4986 356.166,-73.5555 354,-84 340.815,-147.587 298.628,-214.803 281.417,-240.331"/>
<polygon fill="midnightblue" stroke="midnightblue" points="323.527,-25.2555 313.104,-23.3542 320.066,-31.3403 323.527,-25.2555"/>
</g>
<!-- Node7&#45;&gt;Node1 -->
<g id="edge26" class="edge"><title>Node7&#45;&gt;Node1</title>
<path fill="none" stroke="midnightblue" d="M139.435,-142.77C79.4562,-155.859 0,-185.551 0,-251 0,-313 0,-313 0,-313 0,-372.78 73.1011,-405.574 120.788,-420.608"/>
<polygon fill="midnightblue" stroke="midnightblue" points="140.172,-146.191 149.254,-140.734 138.751,-139.337 140.172,-146.191"/>
</g>
<!-- Node7&#45;&gt;Node4 -->
<g id="edge24" class="edge"><title>Node7&#45;&gt;Node4</title>
<path fill="none" stroke="midnightblue" d="M221.212,-151.975C238.409,-177.126 263.494,-220.635 271.924,-240.528"/>
<polygon fill="midnightblue" stroke="midnightblue" points="223.922,-149.746 215.279,-143.618 218.214,-153.798 223.922,-149.746"/>
</g>
<!-- Node7&#45;&gt;Node5 -->
<g id="edge20" class="edge"><title>Node7&#45;&gt;Node5</title>
<path fill="none" stroke="midnightblue" d="M228.494,-114.778C243.005,-104.758 261.2,-92.1949 273.829,-83.475"/>
<polygon fill="midnightblue" stroke="midnightblue" points="226.258,-112.069 220.018,-120.631 230.235,-117.829 226.258,-112.069"/>
</g>
<!-- Node7&#45;&gt;Node6 -->
<g id="edge22" class="edge"><title>Node7&#45;&gt;Node6</title>
<path fill="none" stroke="midnightblue" d="M206.841,-110.129C209.011,-95.0911 213.734,-74.9062 224,-60 235.058,-43.9436 253.461,-31.3925 267.868,-23.3148"/>
<polygon fill="midnightblue" stroke="midnightblue" points="203.319,-110.113 205.629,-120.452 210.271,-110.929 203.319,-110.113"/>
</g>
<!-- Node8&#45;&gt;Node1 -->
<g id="edge34" class="edge"><title>Node8&#45;&gt;Node1</title>
<path fill="none" stroke="midnightblue" d="M101.979,-210.546C77.5147,-235.353 40.077,-282.308 57,-324 74.83,-367.926 120.313,-403.729 144.802,-420.576"/>
<polygon fill="midnightblue" stroke="midnightblue" points="104.68,-212.8 109.38,-203.305 99.7844,-207.796 104.68,-212.8"/>
</g>
<!-- Node8&#45;&gt;Node4 -->
<g id="edge30" class="edge"><title>Node8&#45;&gt;Node4</title>
<path fill="none" stroke="midnightblue" d="M163.107,-206.748C191.88,-217.137 228.737,-231.175 251.963,-240.631"/>
<polygon fill="midnightblue" stroke="midnightblue" points="164.286,-203.453 153.691,-203.377 161.926,-210.043 164.286,-203.453"/>
</g>
<!-- Node8&#45;&gt;Node7 -->
<g id="edge32" class="edge"><title>Node8&#45;&gt;Node7</title>
<path fill="none" stroke="midnightblue" d="M144.494,-174.778C159.005,-164.758 177.2,-152.195 189.829,-143.475"/>
<polygon fill="midnightblue" stroke="midnightblue" points="142.258,-172.069 136.018,-180.631 146.235,-177.829 142.258,-172.069"/>
</g>
<!-- Node9&#45;&gt;Node8 -->
<g id="edge42" class="edge"><title>Node9&#45;&gt;Node8</title>
<path fill="none" stroke="midnightblue" d="M119.353,-290.192C119.782,-264.874 120.49,-223.1 120.82,-203.618"/>
<polygon fill="midnightblue" stroke="midnightblue" points="115.848,-290.47 119.177,-300.528 122.847,-290.589 115.848,-290.47"/>
</g>
</g>
</svg>
