<?xml version="1.0" encoding="UTF-8" standalone="no"?>
<!DOCTYPE svg PUBLIC "-//W3C//DTD SVG 1.1//EN"
 "http://www.w3.org/Graphics/SVG/1.1/DTD/svg11.dtd">
<!-- Generated by graphviz version 2.28.0 (20121015.0031)
 -->
<!-- Title: include/fae/string.h Pages: 1 -->
<svg width="1177pt" height="106pt"
 viewBox="0.00 0.00 1177.00 106.00" xmlns="http://www.w3.org/2000/svg" xmlns:xlink="http://www.w3.org/1999/xlink">
<g id="graph1" class="graph" transform="scale(1 1) rotate(0) translate(4 102)">
<title>include/fae/string.h</title>
<!-- Node1 -->
<g id="node1" class="node"><title>Node1</title>
<polygon fill="#bfbfbf" stroke="black" points="545.264,-74.6953 545.264,-97.3047 660.736,-97.3047 660.736,-74.6953 545.264,-74.6953"/>
<text text-anchor="middle" x="603" y="-82.3047" font-family="Futura" font-size="11.00">include/fae/string.h</text>
</g>
<!-- Node2 -->
<g id="node3" class="node"><title>Node2</title>
<a xlink:href="buffer_8h.html" target="_top" xlink:title="include/fae/buffer.h">
<polygon fill="none" stroke="red" points="-0.815918,-7.69531 -0.815918,-30.3047 116.816,-30.3047 116.816,-7.69531 -0.815918,-7.69531"/>
<text text-anchor="middle" x="58" y="-15.3047" font-family="Futura" font-size="11.00">include/fae/buffer.h</text>
</a>
</g>
<!-- Node1&#45;&gt;Node2 -->
<g id="edge2" class="edge"><title>Node1&#45;&gt;Node2</title>
<path fill="none" stroke="midnightblue" d="M535.051,-81.8406C441.926,-76.7119 269.701,-64.3663 125,-38 114.217,-36.0352 102.634,-33.1928 92.1825,-30.345"/>
<polygon fill="midnightblue" stroke="midnightblue" points="535.01,-85.3434 545.184,-82.3873 535.388,-78.3536 535.01,-85.3434"/>
</g>
<!-- Node3 -->
<g id="node5" class="node"><title>Node3</title>
<a xlink:href="file_8h.html" target="_top" xlink:title="include/fae/device\l/file.h">
<polygon fill="none" stroke="red" points="134.487,-0.390625 134.487,-37.6094 245.513,-37.6094 245.513,-0.390625 134.487,-0.390625"/>
<text text-anchor="start" x="142.487" y="-22.6094" font-family="Futura" font-size="11.00">include/fae/device</text>
<text text-anchor="middle" x="190" y="-8" font-family="Futura" font-size="11.00">/file.h</text>
</a>
</g>
<!-- Node1&#45;&gt;Node3 -->
<g id="edge4" class="edge"><title>Node1&#45;&gt;Node3</title>
<path fill="none" stroke="midnightblue" d="M534.938,-78.5731C464.45,-71.2724 351.343,-57.7504 255,-38 251.903,-37.3651 248.736,-36.6639 245.549,-35.9174"/>
<polygon fill="midnightblue" stroke="midnightblue" points="534.717,-82.0687 545.021,-79.6051 535.43,-75.1051 534.717,-82.0687"/>
</g>
<!-- Node4 -->
<g id="node7" class="node"><title>Node4</title>
<a xlink:href="dynamic_8h.html" target="_top" xlink:title="include/fae/dynamic.h">
<polygon fill="none" stroke="red" points="263.876,-7.69531 263.876,-30.3047 394.124,-30.3047 394.124,-7.69531 263.876,-7.69531"/>
<text text-anchor="middle" x="329" y="-15.3047" font-family="Futura" font-size="11.00">include/fae/dynamic.h</text>
</a>
</g>
<!-- Node1&#45;&gt;Node4 -->
<g id="edge6" class="edge"><title>Node1&#45;&gt;Node4</title>
<path fill="none" stroke="midnightblue" d="M549.295,-72.3714C509.241,-62.9391 453.186,-49.7108 404,-38 393.579,-35.5188 382.347,-32.8306 371.828,-30.307"/>
<polygon fill="midnightblue" stroke="midnightblue" points="548.584,-75.7996 559.12,-74.6844 550.188,-68.9859 548.584,-75.7996"/>
</g>
<!-- Node5 -->
<g id="node9" class="node"><title>Node5</title>
<a xlink:href="error_8h.html" target="_top" xlink:title="include/fae/error.h">
<polygon fill="none" stroke="red" points="412.555,-7.69531 412.555,-30.3047 525.445,-30.3047 525.445,-7.69531 412.555,-7.69531"/>
<text text-anchor="middle" x="469" y="-15.3047" font-family="Futura" font-size="11.00">include/fae/error.h</text>
</a>
</g>
<!-- Node1&#45;&gt;Node5 -->
<g id="edge8" class="edge"><title>Node1&#45;&gt;Node5</title>
<path fill="none" stroke="midnightblue" d="M572.403,-70.1582C547.38,-58.0201 512.629,-41.1633 490.476,-30.4175"/>
<polygon fill="midnightblue" stroke="midnightblue" points="570.946,-73.3413 581.471,-74.5566 574.001,-67.0431 570.946,-73.3413"/>
</g>
<!-- Node6 -->
<g id="node11" class="node"><title>Node6</title>
<a xlink:href="graph_8h.html" target="_top" xlink:title="include/fae/graph.h">
<polygon fill="none" stroke="red" points="543.894,-7.69531 543.894,-30.3047 662.106,-30.3047 662.106,-7.69531 543.894,-7.69531"/>
<text text-anchor="middle" x="603" y="-15.3047" font-family="Futura" font-size="11.00">include/fae/graph.h</text>
</a>
</g>
<!-- Node1&#45;&gt;Node6 -->
<g id="edge10" class="edge"><title>Node1&#45;&gt;Node6</title>
<path fill="none" stroke="midnightblue" d="M603,-64.3136C603,-53.1093 603,-39.7368 603,-30.6334"/>
<polygon fill="midnightblue" stroke="midnightblue" points="599.5,-64.5566 603,-74.5566 606.5,-64.5567 599.5,-64.5566"/>
</g>
<!-- Node7 -->
<g id="node13" class="node"><title>Node7</title>
<a xlink:href="map_8h.html" target="_top" xlink:title="include/fae/map.h">
<polygon fill="none" stroke="red" points="679.871,-7.69531 679.871,-30.3047 790.129,-30.3047 790.129,-7.69531 679.871,-7.69531"/>
<text text-anchor="middle" x="735" y="-15.3047" font-family="Futura" font-size="11.00">include/fae/map.h</text>
</a>
</g>
<!-- Node1&#45;&gt;Node7 -->
<g id="edge12" class="edge"><title>Node1&#45;&gt;Node7</title>
<path fill="none" stroke="midnightblue" d="M633.467,-69.9975C658.091,-57.8717 692.118,-41.1159 713.845,-30.4175"/>
<polygon fill="midnightblue" stroke="midnightblue" points="631.633,-66.9989 624.208,-74.5566 634.726,-73.2788 631.633,-66.9989"/>
</g>
<!-- Node8 -->
<g id="node15" class="node"><title>Node8</title>
<a xlink:href="set_8h.html" target="_top" xlink:title="include/fae/set.h">
<polygon fill="none" stroke="red" points="807.991,-7.69531 807.991,-30.3047 910.009,-30.3047 910.009,-7.69531 807.991,-7.69531"/>
<text text-anchor="middle" x="859" y="-15.3047" font-family="Futura" font-size="11.00">include/fae/set.h</text>
</a>
</g>
<!-- Node1&#45;&gt;Node8 -->
<g id="edge14" class="edge"><title>Node1&#45;&gt;Node8</title>
<path fill="none" stroke="midnightblue" d="M659.439,-72.35C698.717,-63.3308 752.225,-50.6139 799,-38 807.715,-35.6498 817.086,-32.9314 825.772,-30.3307"/>
<polygon fill="midnightblue" stroke="midnightblue" points="658.487,-68.9772 649.52,-74.6188 660.048,-75.8011 658.487,-68.9772"/>
</g>
<!-- Node9 -->
<g id="node17" class="node"><title>Node9</title>
<a xlink:href="directory_8h.html" target="_top" xlink:title="include/fae/system\l/directory.h">
<polygon fill="none" stroke="red" points="928.133,-0.390625 928.133,-37.6094 1039.87,-37.6094 1039.87,-0.390625 928.133,-0.390625"/>
<text text-anchor="start" x="936.133" y="-22.6094" font-family="Futura" font-size="11.00">include/fae/system</text>
<text text-anchor="middle" x="984" y="-8" font-family="Futura" font-size="11.00">/directory.h</text>
</a>
</g>
<!-- Node1&#45;&gt;Node9 -->
<g id="edge16" class="edge"><title>Node1&#45;&gt;Node9</title>
<path fill="none" stroke="midnightblue" d="M670.763,-77.3598C735.043,-69.5382 834.148,-55.9882 919,-38 921.978,-37.3686 925.022,-36.6798 928.087,-35.9518"/>
<polygon fill="midnightblue" stroke="midnightblue" points="670.262,-73.8947 660.752,-78.5657 671.099,-80.8444 670.262,-73.8947"/>
</g>
<!-- Node10 -->
<g id="node19" class="node"><title>Node10</title>
<a xlink:href="event_8h.html" target="_top" xlink:title="include/fae/system\l/event.h">
<polygon fill="none" stroke="red" points="1058.13,-0.390625 1058.13,-37.6094 1169.87,-37.6094 1169.87,-0.390625 1058.13,-0.390625"/>
<text text-anchor="start" x="1066.13" y="-22.6094" font-family="Futura" font-size="11.00">include/fae/system</text>
<text text-anchor="middle" x="1114" y="-8" font-family="Futura" font-size="11.00">/event.h</text>
</a>
</g>
<!-- Node1&#45;&gt;Node10 -->
<g id="edge18" class="edge"><title>Node1&#45;&gt;Node10</title>
<path fill="none" stroke="midnightblue" d="M671.126,-81.2232C758.866,-75.5793 915.803,-62.8405 1048,-38 1051.27,-37.3859 1054.61,-36.6907 1057.97,-35.9397"/>
<polygon fill="midnightblue" stroke="midnightblue" points="670.795,-77.737 661.036,-81.8605 671.237,-84.7231 670.795,-77.737"/>
</g>
</g>
</svg>
