<?xml version="1.0" encoding="UTF-8" standalone="no"?>
<!DOCTYPE svg PUBLIC "-//W3C//DTD SVG 1.1//EN"
 "http://www.w3.org/Graphics/SVG/1.1/DTD/svg11.dtd">
<!-- Generated by graphviz version 2.28.0 (20121015.0031)
 -->
<!-- Title: include/fae/string.h Pages: 1 -->
<svg width="886pt" height="152pt"
 viewBox="0.00 0.00 886.00 152.00" xmlns="http://www.w3.org/2000/svg" xmlns:xlink="http://www.w3.org/1999/xlink">
<g id="graph1" class="graph" transform="scale(1 1) rotate(0) translate(4 148)">
<title>include/fae/string.h</title>
<!-- Node1 -->
<g id="node1" class="node"><title>Node1</title>
<polygon fill="#bfbfbf" stroke="black" points="690.264,-120.695 690.264,-143.305 805.736,-143.305 805.736,-120.695 690.264,-120.695"/>
<text text-anchor="middle" x="748" y="-128.305" font-family="Futura" font-size="11.00">include/fae/string.h</text>
</g>
<!-- Node2 -->
<g id="node3" class="node"><title>Node2</title>
<a xlink:href="fae_2fae_8h.html" target="_top" xlink:title="fae.h">
<polygon fill="none" stroke="red" points="588.23,-60.6953 588.23,-83.3047 629.77,-83.3047 629.77,-60.6953 588.23,-60.6953"/>
<text text-anchor="middle" x="609" y="-68.3047" font-family="Futura" font-size="11.00">fae.h</text>
</a>
</g>
<!-- Node1&#45;&gt;Node2 -->
<g id="edge2" class="edge"><title>Node1&#45;&gt;Node2</title>
<path fill="none" stroke="midnightblue" d="M723.15,-120.631C699.711,-110.851 664.523,-96.1677 639.417,-85.6918"/>
<polygon fill="midnightblue" stroke="midnightblue" points="640.579,-82.3845 630.003,-81.7637 637.884,-88.8447 640.579,-82.3845"/>
</g>
<!-- Node3 -->
<g id="node5" class="node"><title>Node3</title>
<a xlink:href="atomic_8h.html" target="_top" xlink:title="fae/atomic.h">
<polygon fill="none" stroke="red" points="-0.105713,-0.695312 -0.105713,-23.3047 80.1057,-23.3047 80.1057,-0.695312 -0.105713,-0.695312"/>
<text text-anchor="middle" x="40" y="-8.30469" font-family="Futura" font-size="11.00">fae/atomic.h</text>
</a>
</g>
<!-- Node2&#45;&gt;Node3 -->
<g id="edge4" class="edge"><title>Node2&#45;&gt;Node3</title>
<path fill="none" stroke="midnightblue" d="M588.025,-70.2148C517.511,-67.142 284.282,-54.6369 86.9654,-24.8717"/>
<polygon fill="midnightblue" stroke="midnightblue" points="87.4179,-21.4003 77.0039,-23.3494 86.3604,-28.3199 87.4179,-21.4003"/>
</g>
<!-- Node4 -->
<g id="node8" class="node"><title>Node4</title>
<polygon fill="none" stroke="#bfbfbf" points="98.6057,-0.695312 98.6057,-23.3047 215.394,-23.3047 215.394,-0.695312 98.6057,-0.695312"/>
<text text-anchor="middle" x="157" y="-8.30469" font-family="Futura" font-size="11.00">fae/atomic/queue.h</text>
</g>
<!-- Node2&#45;&gt;Node4 -->
<g id="edge8" class="edge"><title>Node2&#45;&gt;Node4</title>
<path fill="none" stroke="midnightblue" d="M588.093,-68.7547C531.455,-62.6071 370.118,-44.6666 225.392,-24.1585"/>
<polygon fill="midnightblue" stroke="midnightblue" points="225.837,-20.6867 215.444,-22.7409 224.85,-27.6167 225.837,-20.6867"/>
</g>
<!-- Node5 -->
<g id="node10" class="node"><title>Node5</title>
<a xlink:href="stack_8h.html" target="_top" xlink:title="fae/atomic/stack.h">
<polygon fill="none" stroke="red" points="233.377,-0.695312 233.377,-23.3047 344.623,-23.3047 344.623,-0.695312 233.377,-0.695312"/>
<text text-anchor="middle" x="289" y="-8.30469" font-family="Futura" font-size="11.00">fae/atomic/stack.h</text>
</a>
</g>
<!-- Node2&#45;&gt;Node5 -->
<g id="edge10" class="edge"><title>Node2&#45;&gt;Node5</title>
<path fill="none" stroke="midnightblue" d="M588.004,-67.1945C541.391,-58.7459 427.635,-38.1277 354.643,-24.8978"/>
<polygon fill="midnightblue" stroke="midnightblue" points="355.089,-21.4218 344.625,-23.0821 353.841,-28.3095 355.089,-21.4218"/>
</g>
<!-- Node6 -->
<g id="node12" class="node"><title>Node6</title>
<polygon fill="none" stroke="#bfbfbf" points="362.483,-0.695312 362.483,-23.3047 503.517,-23.3047 503.517,-0.695312 362.483,-0.695312"/>
<text text-anchor="middle" x="433" y="-8.30469" font-family="Futura" font-size="11.00">fae/atomic/ring_buffer.h</text>
</g>
<!-- Node2&#45;&gt;Node6 -->
<g id="edge12" class="edge"><title>Node2&#45;&gt;Node6</title>
<path fill="none" stroke="midnightblue" d="M588.119,-64.1189C560.154,-54.903 509.923,-38.3496 474.201,-26.5778"/>
<polygon fill="midnightblue" stroke="midnightblue" points="475.135,-23.2001 464.541,-23.3943 472.944,-29.8484 475.135,-23.2001"/>
</g>
<!-- Node7 -->
<g id="node14" class="node"><title>Node7</title>
<a xlink:href="system_8h.html" target="_top" xlink:title="fae/system.h">
<polygon fill="none" stroke="red" points="521.983,-0.695312 521.983,-23.3047 602.017,-23.3047 602.017,-0.695312 521.983,-0.695312"/>
<text text-anchor="middle" x="562" y="-8.30469" font-family="Futura" font-size="11.00">fae/system.h</text>
</a>
</g>
<!-- Node2&#45;&gt;Node7 -->
<g id="edge14" class="edge"><title>Node2&#45;&gt;Node7</title>
<path fill="none" stroke="midnightblue" d="M600.597,-60.6308C594.062,-52.5663 584.826,-41.1685 577.027,-31.5444"/>
<polygon fill="midnightblue" stroke="midnightblue" points="579.663,-29.2377 570.648,-23.6719 574.224,-33.6448 579.663,-29.2377"/>
</g>
<!-- Node8 -->
<g id="node16" class="node"><title>Node8</title>
<a xlink:href="error_8h.html" target="_top" xlink:title="fae/error.h">
<polygon fill="none" stroke="black" points="712.119,-0.695312 712.119,-23.3047 783.881,-23.3047 783.881,-0.695312 712.119,-0.695312"/>
<text text-anchor="middle" x="748" y="-8.30469" font-family="Futura" font-size="11.00">fae/error.h</text>
</a>
</g>
<!-- Node2&#45;&gt;Node8 -->
<g id="edge16" class="edge"><title>Node2&#45;&gt;Node8</title>
<path fill="none" stroke="midnightblue" d="M628.535,-60.6308C649.205,-51.2985 682.076,-37.5023 708.18,-27.1567"/>
<polygon fill="midnightblue" stroke="midnightblue" points="709.783,-30.2876 717.813,-23.3771 707.226,-23.7712 709.783,-30.2876"/>
</g>
<!-- Node9 -->
<g id="node20" class="node"><title>Node9</title>
<polygon fill="none" stroke="#bfbfbf" points="620.2,-0.695312 620.2,-23.3047 693.8,-23.3047 693.8,-0.695312 620.2,-0.695312"/>
<text text-anchor="middle" x="657" y="-8.30469" font-family="Futura" font-size="11.00">fae/event.h</text>
</g>
<!-- Node2&#45;&gt;Node9 -->
<g id="edge22" class="edge"><title>Node2&#45;&gt;Node9</title>
<path fill="none" stroke="midnightblue" d="M617.581,-60.6308C624.255,-52.5663 633.688,-41.1685 641.653,-31.5444"/>
<polygon fill="midnightblue" stroke="midnightblue" points="644.489,-33.6073 648.168,-23.6719 639.096,-29.1443 644.489,-33.6073"/>
</g>
<!-- Node10 -->
<g id="node22" class="node"><title>Node10</title>
<a xlink:href="graph_8h.html" target="_top" xlink:title="fae/graph.h">
<polygon fill="none" stroke="red" points="801.457,-0.695312 801.457,-23.3047 878.543,-23.3047 878.543,-0.695312 801.457,-0.695312"/>
<text text-anchor="middle" x="840" y="-8.30469" font-family="Futura" font-size="11.00">fae/graph.h</text>
</a>
</g>
<!-- Node2&#45;&gt;Node10 -->
<g id="edge24" class="edge"><title>Node2&#45;&gt;Node10</title>
<path fill="none" stroke="midnightblue" d="M630.171,-64.5714C666.574,-54.7482 741.386,-35.8827 791.197,-23.8955"/>
<polygon fill="midnightblue" stroke="midnightblue" points="792.205,-27.2531 801.115,-21.5211 790.575,-20.4455 792.205,-27.2531"/>
</g>
<!-- Node3&#45;&gt;Node2 -->
<g id="edge6" class="edge"><title>Node3&#45;&gt;Node2</title>
<path fill="none" stroke="midnightblue" d="M80.183,-20.5331C86.5132,-21.8316 92.9392,-23.0627 99,-24 279.18,-51.8643 497.298,-64.9841 577.581,-69.3061"/>
<polygon fill="midnightblue" stroke="midnightblue" points="577.805,-72.8229 587.977,-69.8582 578.176,-65.8327 577.805,-72.8229"/>
</g>
<!-- Node8&#45;&gt;Node1 -->
<g id="edge20" class="edge"><title>Node8&#45;&gt;Node1</title>
<path fill="none" stroke="midnightblue" d="M748,-23.6179C748,-43.0995 748,-84.8736 748,-110.192"/>
<polygon fill="midnightblue" stroke="midnightblue" points="744.5,-110.528 748,-120.528 751.5,-110.528 744.5,-110.528"/>
</g>
<!-- Node8&#45;&gt;Node2 -->
<g id="edge18" class="edge"><title>Node8&#45;&gt;Node2</title>
<path fill="none" stroke="midnightblue" d="M728.41,-23.3943C705.172,-33.884 666.567,-49.9947 639.462,-60.5162"/>
<polygon fill="midnightblue" stroke="midnightblue" points="638.134,-57.2764 630.045,-64.1189 640.636,-63.8142 638.134,-57.2764"/>
</g>
<!-- Node10&#45;&gt;Node1 -->
<g id="edge28" class="edge"><title>Node10&#45;&gt;Node1</title>
<path fill="none" stroke="midnightblue" d="M831.722,-23.6179C816.054,-43.7138 781.892,-87.5302 762.395,-112.537"/>
<polygon fill="midnightblue" stroke="midnightblue" points="759.553,-110.49 756.164,-120.528 765.073,-114.794 759.553,-110.49"/>
</g>
<!-- Node10&#45;&gt;Node2 -->
<g id="edge26" class="edge"><title>Node10&#45;&gt;Node2</title>
<path fill="none" stroke="midnightblue" d="M803.958,-23.3849C758.837,-35.2546 682.586,-54.3305 639.958,-64.3547"/>
<polygon fill="midnightblue" stroke="midnightblue" points="639.082,-60.965 630.136,-66.6406 640.669,-67.7828 639.082,-60.965"/>
</g>
</g>
</svg>
