<?xml version="1.0" encoding="UTF-8" standalone="no"?>
<!DOCTYPE svg PUBLIC "-//W3C//DTD SVG 1.1//EN"
 "http://www.w3.org/Graphics/SVG/1.1/DTD/svg11.dtd">
<!-- Generated by graphviz version 2.28.0 (20121015.0031)
 -->
<!-- Title: include/fa/string.h Pages: 1 -->
<svg width="630pt" height="392pt"
 viewBox="0.00 0.00 630.00 392.00" xmlns="http://www.w3.org/2000/svg" xmlns:xlink="http://www.w3.org/1999/xlink">
<g id="graph1" class="graph" transform="scale(1 1) rotate(0) translate(4 388)">
<title>include/fa/string.h</title>
<!-- Node1 -->
<g id="node1" class="node"><title>Node1</title>
<polygon fill="#bfbfbf" stroke="black" points="207.306,-360.695 207.306,-383.305 316.694,-383.305 316.694,-360.695 207.306,-360.695"/>
<text text-anchor="middle" x="262" y="-368.305" font-family="Futura" font-size="11.00">include/fa/string.h</text>
</g>
<!-- Node2 -->
<g id="node3" class="node"><title>Node2</title>
<a xlink:href="buffer_8h.html" target="_top" xlink:title="include/fa/buffer.h">
<polygon fill="none" stroke="black" points="263.227,-300.695 263.227,-323.305 374.773,-323.305 374.773,-300.695 263.227,-300.695"/>
<text text-anchor="middle" x="319" y="-308.305" font-family="Futura" font-size="11.00">include/fa/buffer.h</text>
</a>
</g>
<!-- Node1&#45;&gt;Node2 -->
<g id="edge2" class="edge"><title>Node1&#45;&gt;Node2</title>
<path fill="none" stroke="midnightblue" d="M279.304,-353.392C288.832,-343.698 300.344,-331.983 308.512,-323.672"/>
<polygon fill="midnightblue" stroke="midnightblue" points="276.703,-351.045 272.19,-360.631 281.696,-355.952 276.703,-351.045"/>
</g>
<!-- Node5 -->
<g id="node10" class="node"><title>Node5</title>
<a xlink:href="dynamic_8h.html" target="_top" xlink:title="include/fa/dynamic.h">
<polygon fill="none" stroke="black" points="-0.081543,-120.695 -0.081543,-143.305 124.082,-143.305 124.082,-120.695 -0.081543,-120.695"/>
<text text-anchor="middle" x="62" y="-128.305" font-family="Futura" font-size="11.00">include/fa/dynamic.h</text>
</a>
</g>
<!-- Node1&#45;&gt;Node5 -->
<g id="edge38" class="edge"><title>Node1&#45;&gt;Node5</title>
<path fill="none" stroke="midnightblue" d="M246.504,-352.56C206.688,-305.179 101.759,-180.314 70.7496,-143.412"/>
<polygon fill="midnightblue" stroke="midnightblue" points="244.035,-355.062 253.148,-360.466 249.394,-350.559 244.035,-355.062"/>
</g>
<!-- Node6 -->
<g id="node12" class="node"><title>Node6</title>
<a xlink:href="error_8h.html" target="_top" xlink:title="include/fa/error.h">
<polygon fill="none" stroke="red" points="141.598,-120.695 141.598,-143.305 248.402,-143.305 248.402,-120.695 141.598,-120.695"/>
<text text-anchor="middle" x="195" y="-128.305" font-family="Futura" font-size="11.00">include/fa/error.h</text>
</a>
</g>
<!-- Node1&#45;&gt;Node6 -->
<g id="edge40" class="edge"><title>Node1&#45;&gt;Node6</title>
<path fill="none" stroke="midnightblue" d="M254.339,-351.074C251.262,-342.762 247.79,-332.972 245,-324 223.825,-255.921 204.052,-172.38 197.381,-143.446"/>
<polygon fill="midnightblue" stroke="midnightblue" points="251.142,-352.516 257.944,-360.639 257.692,-350.047 251.142,-352.516"/>
</g>
<!-- Node8 -->
<g id="node18" class="node"><title>Node8</title>
<a xlink:href="map_8h.html" target="_top" xlink:title="include/fa/map.h">
<polygon fill="none" stroke="red" points="517.914,-120.695 517.914,-143.305 622.086,-143.305 622.086,-120.695 517.914,-120.695"/>
<text text-anchor="middle" x="570" y="-128.305" font-family="Futura" font-size="11.00">include/fa/map.h</text>
</a>
</g>
<!-- Node1&#45;&gt;Node8 -->
<g id="edge42" class="edge"><title>Node1&#45;&gt;Node8</title>
<path fill="none" stroke="midnightblue" d="M327.077,-359.255C354.877,-352.129 386.682,-341.013 412,-324 487.726,-273.115 546.386,-175.522 564.313,-143.478"/>
<polygon fill="midnightblue" stroke="midnightblue" points="325.922,-355.934 317.036,-361.703 327.58,-362.735 325.922,-355.934"/>
</g>
<!-- Node10 -->
<g id="node25" class="node"><title>Node10</title>
<a xlink:href="time_8h.html" target="_top" xlink:title="include/fa/time.h">
<polygon fill="none" stroke="red" points="359.594,-120.695 359.594,-143.305 462.406,-143.305 462.406,-120.695 359.594,-120.695"/>
<text text-anchor="middle" x="411" y="-128.305" font-family="Futura" font-size="11.00">include/fa/time.h</text>
</a>
</g>
<!-- Node1&#45;&gt;Node10 -->
<g id="edge44" class="edge"><title>Node1&#45;&gt;Node10</title>
<path fill="none" stroke="midnightblue" d="M313.393,-357.533C336.095,-350.009 362.273,-339.056 383,-324 410.856,-303.765 420.44,-296.431 432,-264 447.313,-221.041 426.376,-166.169 416.103,-143.511"/>
<polygon fill="midnightblue" stroke="midnightblue" points="312.045,-354.289 303.572,-360.65 314.163,-360.961 312.045,-354.289"/>
</g>
<!-- Node3 -->
<g id="node5" class="node"><title>Node3</title>
<a xlink:href="message_8h.html" target="_top" xlink:title="include/fa/midi/message.h">
<polygon fill="none" stroke="black" points="272.134,-240.695 272.134,-263.305 423.866,-263.305 423.866,-240.695 272.134,-240.695"/>
<text text-anchor="middle" x="348" y="-248.305" font-family="Futura" font-size="11.00">include/fa/midi/message.h</text>
</a>
</g>
<!-- Node2&#45;&gt;Node3 -->
<g id="edge4" class="edge"><title>Node2&#45;&gt;Node3</title>
<path fill="none" stroke="midnightblue" d="M328.678,-291.644C333.341,-282.318 338.755,-271.489 342.664,-263.672"/>
<polygon fill="midnightblue" stroke="midnightblue" points="325.526,-290.121 324.185,-300.631 331.787,-293.252 325.526,-290.121"/>
</g>
<!-- Node9 -->
<g id="node20" class="node"><title>Node9</title>
<a xlink:href="signal_8h.html" target="_top" xlink:title="include/fa/signal.h">
<polygon fill="none" stroke="red" points="304.283,-60.6953 304.283,-83.3047 415.717,-83.3047 415.717,-60.6953 304.283,-60.6953"/>
<text text-anchor="middle" x="360" y="-68.3047" font-family="Futura" font-size="11.00">include/fa/signal.h</text>
</a>
</g>
<!-- Node2&#45;&gt;Node9 -->
<g id="edge36" class="edge"><title>Node2&#45;&gt;Node9</title>
<path fill="none" stroke="midnightblue" d="M377.368,-297.421C396.97,-290.315 417.509,-279.698 432,-264 470.038,-222.793 462.225,-199.389 471,-144 472.669,-133.465 476.891,-128.892 471,-120 458.517,-101.159 436.811,-89.8497 415.886,-83.071"/>
<polygon fill="midnightblue" stroke="midnightblue" points="376.207,-294.119 367.852,-300.634 378.446,-300.751 376.207,-294.119"/>
</g>
<!-- Node4 -->
<g id="node7" class="node"><title>Node4</title>
<a xlink:href="fa_2fa_8h.html" target="_top" xlink:title="include/fa/fa.h">
<polygon fill="none" stroke="red" points="252.846,-180.695 252.846,-203.305 345.154,-203.305 345.154,-180.695 252.846,-180.695"/>
<text text-anchor="middle" x="299" y="-188.305" font-family="Futura" font-size="11.00">include/fa/fa.h</text>
</a>
</g>
<!-- Node3&#45;&gt;Node4 -->
<g id="edge6" class="edge"><title>Node3&#45;&gt;Node4</title>
<path fill="none" stroke="midnightblue" d="M332.636,-232.814C324.543,-223.235 314.898,-211.819 308.016,-203.672"/>
<polygon fill="midnightblue" stroke="midnightblue" points="330.113,-235.251 339.24,-240.631 335.46,-230.733 330.113,-235.251"/>
</g>
<!-- Node4&#45;&gt;Node1 -->
<g id="edge28" class="edge"><title>Node4&#45;&gt;Node1</title>
<path fill="none" stroke="midnightblue" d="M278.202,-210.418C270.068,-218.502 261.599,-228.8 257,-240 239.797,-281.897 252.36,-337.816 258.808,-360.64"/>
<polygon fill="midnightblue" stroke="midnightblue" points="280.822,-212.762 285.762,-203.389 276.055,-207.636 280.822,-212.762"/>
</g>
<!-- Node4&#45;&gt;Node2 -->
<g id="edge8" class="edge"><title>Node4&#45;&gt;Node2</title>
<path fill="none" stroke="midnightblue" d="M279.907,-211.092C267.285,-225.345 254.505,-245.781 263,-264 270.455,-279.99 286.324,-292.472 299.272,-300.542"/>
<polygon fill="midnightblue" stroke="midnightblue" points="282.796,-213.134 287.158,-203.479 277.727,-208.306 282.796,-213.134"/>
</g>
<!-- Node4&#45;&gt;Node5 -->
<g id="edge10" class="edge"><title>Node4&#45;&gt;Node5</title>
<path fill="none" stroke="midnightblue" d="M246.689,-178.198C203.924,-167.733 144.227,-153.123 104.403,-143.377"/>
<polygon fill="midnightblue" stroke="midnightblue" points="246.084,-181.653 256.629,-180.631 247.748,-174.854 246.084,-181.653"/>
</g>
<!-- Node4&#45;&gt;Node6 -->
<g id="edge12" class="edge"><title>Node4&#45;&gt;Node6</title>
<path fill="none" stroke="midnightblue" d="M266.184,-176.04C246.683,-165.832 223.113,-152.565 208.448,-143.475"/>
<polygon fill="midnightblue" stroke="midnightblue" points="264.599,-179.16 275.091,-180.631 267.806,-172.938 264.599,-179.16"/>
</g>
<!-- Node4&#45;&gt;Node8 -->
<g id="edge20" class="edge"><title>Node4&#45;&gt;Node8</title>
<path fill="none" stroke="midnightblue" d="M355.115,-178.99C404.261,-168.472 474.931,-153.347 521.628,-143.353"/>
<polygon fill="midnightblue" stroke="midnightblue" points="354.325,-175.58 345.279,-181.095 355.79,-182.425 354.325,-175.58"/>
</g>
<!-- Node4&#45;&gt;Node9 -->
<g id="edge22" class="edge"><title>Node4&#45;&gt;Node9</title>
<path fill="none" stroke="midnightblue" d="M304.035,-171.21C314.667,-146.007 337.087,-103.363 350.441,-83.6179"/>
<polygon fill="midnightblue" stroke="midnightblue" points="300.773,-169.941 300.366,-180.528 307.286,-172.506 300.773,-169.941"/>
</g>
<!-- Node4&#45;&gt;Node10 -->
<g id="edge30" class="edge"><title>Node4&#45;&gt;Node10</title>
<path fill="none" stroke="midnightblue" d="M322.656,-175.622C341.113,-165.472 366.51,-152.442 385.437,-143.475"/>
<polygon fill="midnightblue" stroke="midnightblue" points="320.724,-172.692 313.707,-180.631 324.143,-178.801 320.724,-172.692"/>
</g>
<!-- Node6&#45;&gt;Node4 -->
<g id="edge18" class="edge"><title>Node6&#45;&gt;Node4</title>
<path fill="none" stroke="midnightblue" d="M228.044,-148.079C247.576,-158.311 271.127,-171.573 285.723,-180.631"/>
<polygon fill="midnightblue" stroke="midnightblue" points="229.61,-144.949 219.118,-143.475 226.401,-151.17 229.61,-144.949"/>
</g>
<!-- Node7 -->
<g id="node14" class="node"><title>Node7</title>
<a xlink:href="audio_8h.html" target="_top" xlink:title="include/fa/audio.h">
<polygon fill="none" stroke="black" points="220.592,-0.695312 220.592,-23.3047 331.408,-23.3047 331.408,-0.695312 220.592,-0.695312"/>
<text text-anchor="middle" x="276" y="-8.30469" font-family="Futura" font-size="11.00">include/fa/audio.h</text>
</a>
</g>
<!-- Node6&#45;&gt;Node7 -->
<g id="edge14" class="edge"><title>Node6&#45;&gt;Node7</title>
<path fill="none" stroke="midnightblue" d="M207.899,-112.208C225.102,-87.148 254.977,-43.6261 268.711,-23.6179"/>
<polygon fill="midnightblue" stroke="midnightblue" points="204.962,-110.303 202.188,-120.528 210.733,-114.265 204.962,-110.303"/>
</g>
<!-- Node7&#45;&gt;Node4 -->
<g id="edge16" class="edge"><title>Node7&#45;&gt;Node4</title>
<path fill="none" stroke="midnightblue" d="M278.622,-33.2881C283.534,-71.3093 293.964,-152.027 297.664,-180.661"/>
<polygon fill="midnightblue" stroke="midnightblue" points="282.092,-32.837 277.34,-23.368 275.15,-33.7341 282.092,-32.837"/>
</g>
<!-- Node9&#45;&gt;Node4 -->
<g id="edge26" class="edge"><title>Node9&#45;&gt;Node4</title>
<path fill="none" stroke="midnightblue" d="M354.886,-92.9777C344.196,-118.267 321.769,-160.897 308.46,-180.528"/>
<polygon fill="midnightblue" stroke="midnightblue" points="358.164,-94.2045 358.581,-83.6179 351.653,-91.6337 358.164,-94.2045"/>
</g>
<!-- Node9&#45;&gt;Node7 -->
<g id="edge24" class="edge"><title>Node9&#45;&gt;Node7</title>
<path fill="none" stroke="midnightblue" d="M336.506,-54.7779C321.995,-44.7583 303.8,-32.1949 291.171,-23.475"/>
<polygon fill="midnightblue" stroke="midnightblue" points="334.765,-57.829 344.982,-60.6308 338.742,-52.0687 334.765,-57.829"/>
</g>
<!-- Node10&#45;&gt;Node4 -->
<g id="edge32" class="edge"><title>Node10&#45;&gt;Node4</title>
<path fill="none" stroke="midnightblue" d="M387.38,-148.358C368.847,-158.551 343.302,-171.655 324.339,-180.631"/>
<polygon fill="midnightblue" stroke="midnightblue" points="389.089,-151.412 396.107,-143.475 385.671,-145.303 389.089,-151.412"/>
</g>
<!-- Node10&#45;&gt;Node9 -->
<g id="edge34" class="edge"><title>Node10&#45;&gt;Node9</title>
<path fill="none" stroke="midnightblue" d="M395.264,-113.104C386.789,-103.466 376.62,-91.9008 369.384,-83.6719"/>
<polygon fill="midnightblue" stroke="midnightblue" points="392.65,-115.432 401.882,-120.631 397.907,-110.81 392.65,-115.432"/>
</g>
</g>
</svg>
