<?xml version="1.0" encoding="UTF-8" standalone="no"?>
<!DOCTYPE svg PUBLIC "-//W3C//DTD SVG 1.1//EN"
 "http://www.w3.org/Graphics/SVG/1.1/DTD/svg11.dtd">
<!-- Generated by graphviz version 2.28.0 (20121015.0031)
 -->
<!-- Title: src/doremir/string_osx.c Pages: 1 -->
<svg width="858pt" height="226pt"
 viewBox="0.00 0.00 858.00 226.00" xmlns="http://www.w3.org/2000/svg" xmlns:xlink="http://www.w3.org/1999/xlink">
<g id="graph1" class="graph" transform="scale(1 1) rotate(0) translate(4 222)">
<title>src/doremir/string_osx.c</title>
<!-- Node1 -->
<g id="node1" class="node"><title>Node1</title>
<polygon fill="#bfbfbf" stroke="black" points="463.442,-180.391 463.442,-217.609 570.558,-217.609 570.558,-180.391 463.442,-180.391"/>
<text text-anchor="start" x="471.442" y="-202.609" font-family="Futura" font-size="11.00">src/doremir/string</text>
<text text-anchor="middle" x="517" y="-188" font-family="Futura" font-size="11.00">_osx.c</text>
</g>
<!-- Node2 -->
<g id="node3" class="node"><title>Node2</title>
<a xlink:href="string_8h.html" target="_top" xlink:title="doremir/string.h">
<polygon fill="none" stroke="black" points="430.44,-60.6953 430.44,-83.3047 527.56,-83.3047 527.56,-60.6953 430.44,-60.6953"/>
<text text-anchor="middle" x="479" y="-68.3047" font-family="Futura" font-size="11.00">doremir/string.h</text>
</a>
</g>
<!-- Node1&#45;&gt;Node2 -->
<g id="edge2" class="edge"><title>Node1&#45;&gt;Node2</title>
<path fill="none" stroke="midnightblue" d="M485.406,-180.324C472.533,-171.288 459.043,-159.008 452,-144 443.834,-126.6 453.718,-105.999 463.747,-91.4814"/>
<polygon fill="midnightblue" stroke="midnightblue" points="466.669,-93.4179 469.849,-83.3116 461.06,-89.2288 466.669,-93.4179"/>
</g>
<!-- Node4 -->
<g id="node7" class="node"><title>Node4</title>
<a xlink:href="util_8h.html" target="_top" xlink:title="doremir/util.h">
<polygon fill="none" stroke="red" points="236.754,-120.695 236.754,-143.305 321.246,-143.305 321.246,-120.695 236.754,-120.695"/>
<text text-anchor="middle" x="279" y="-128.305" font-family="Futura" font-size="11.00">doremir/util.h</text>
</a>
</g>
<!-- Node1&#45;&gt;Node4 -->
<g id="edge6" class="edge"><title>Node1&#45;&gt;Node4</title>
<path fill="none" stroke="midnightblue" d="M463.291,-183.332C422.215,-172.113 366.105,-156.789 326.623,-146.006"/>
<polygon fill="midnightblue" stroke="midnightblue" points="327.531,-142.626 316.962,-143.368 325.687,-149.379 327.531,-142.626"/>
</g>
<!-- Node8 -->
<g id="node15" class="node"><title>Node8</title>
<a xlink:href="dynamic_8h.html" target="_top" xlink:title="doremir/dynamic.h">
<polygon fill="none" stroke="black" points="461.052,-120.695 461.052,-143.305 572.948,-143.305 572.948,-120.695 461.052,-120.695"/>
<text text-anchor="middle" x="517" y="-128.305" font-family="Futura" font-size="11.00">doremir/dynamic.h</text>
</a>
</g>
<!-- Node1&#45;&gt;Node8 -->
<g id="edge14" class="edge"><title>Node1&#45;&gt;Node8</title>
<path fill="none" stroke="midnightblue" d="M517,-180.238C517,-172.084 517,-162.359 517,-153.859"/>
<polygon fill="midnightblue" stroke="midnightblue" points="520.5,-153.624 517,-143.624 513.5,-153.624 520.5,-153.624"/>
</g>
<!-- Node9 -->
<g id="node19" class="node"><title>Node9</title>
<polygon fill="none" stroke="#bfbfbf" points="590.598,-120.695 590.598,-143.305 641.402,-143.305 641.402,-120.695 590.598,-120.695"/>
<text text-anchor="middle" x="616" y="-128.305" font-family="Futura" font-size="11.00">iconv.h</text>
</g>
<!-- Node1&#45;&gt;Node9 -->
<g id="edge20" class="edge"><title>Node1&#45;&gt;Node9</title>
<path fill="none" stroke="midnightblue" d="M544.052,-180.238C558.939,-170.464 577.262,-158.434 591.692,-148.96"/>
<polygon fill="midnightblue" stroke="midnightblue" points="593.669,-151.849 600.108,-143.434 589.827,-145.997 593.669,-151.849"/>
</g>
<!-- Node10 -->
<g id="node21" class="node"><title>Node10</title>
<polygon fill="none" stroke="#bfbfbf" points="659.279,-120.695 659.279,-143.305 850.721,-143.305 850.721,-120.695 659.279,-120.695"/>
<text text-anchor="middle" x="755" y="-128.305" font-family="Futura" font-size="11.00">CoreFoundation/CoreFoundation.h</text>
</g>
<!-- Node1&#45;&gt;Node10 -->
<g id="edge22" class="edge"><title>Node1&#45;&gt;Node10</title>
<path fill="none" stroke="midnightblue" d="M570.709,-183.332C611.785,-172.113 667.895,-156.789 707.377,-146.006"/>
<polygon fill="midnightblue" stroke="midnightblue" points="708.313,-149.379 717.038,-143.368 706.469,-142.626 708.313,-149.379"/>
</g>
<!-- Node3 -->
<g id="node5" class="node"><title>Node3</title>
<a xlink:href="doremir_8h.html" target="_top" xlink:title="doremir.h">
<polygon fill="none" stroke="red" points="485.136,-0.695312 485.136,-23.3047 548.864,-23.3047 548.864,-0.695312 485.136,-0.695312"/>
<text text-anchor="middle" x="517" y="-8.30469" font-family="Futura" font-size="11.00">doremir.h</text>
</a>
</g>
<!-- Node2&#45;&gt;Node3 -->
<g id="edge4" class="edge"><title>Node2&#45;&gt;Node3</title>
<path fill="none" stroke="midnightblue" d="M485.794,-60.6308C490.971,-52.7292 498.244,-41.6276 504.467,-32.1298"/>
<polygon fill="midnightblue" stroke="midnightblue" points="507.455,-33.9546 510.008,-23.6719 501.6,-30.1184 507.455,-33.9546"/>
</g>
<!-- Node5 -->
<g id="node9" class="node"><title>Node5</title>
<a xlink:href="alignof_8h.html" target="_top" xlink:title="doremir/util/alignof.h">
<polygon fill="none" stroke="black" points="-0.379639,-60.6953 -0.379639,-83.3047 124.38,-83.3047 124.38,-60.6953 -0.379639,-60.6953"/>
<text text-anchor="middle" x="62" y="-68.3047" font-family="Futura" font-size="11.00">doremir/util/alignof.h</text>
</a>
</g>
<!-- Node4&#45;&gt;Node5 -->
<g id="edge8" class="edge"><title>Node4&#45;&gt;Node5</title>
<path fill="none" stroke="midnightblue" d="M240.205,-120.631C204.059,-110.97 150.013,-96.5243 110.923,-86.0761"/>
<polygon fill="midnightblue" stroke="midnightblue" points="111.389,-82.578 100.825,-83.3771 109.582,-89.3406 111.389,-82.578"/>
</g>
<!-- Node6 -->
<g id="node11" class="node"><title>Node6</title>
<a xlink:href="minmax_8h.html" target="_top" xlink:title="doremir/util/minmax.h">
<polygon fill="none" stroke="red" points="142.45,-60.6953 142.45,-83.3047 271.55,-83.3047 271.55,-60.6953 142.45,-60.6953"/>
<text text-anchor="middle" x="207" y="-68.3047" font-family="Futura" font-size="11.00">doremir/util/minmax.h</text>
</a>
</g>
<!-- Node4&#45;&gt;Node6 -->
<g id="edge10" class="edge"><title>Node4&#45;&gt;Node6</title>
<path fill="none" stroke="midnightblue" d="M266.128,-120.631C255.611,-112.159 240.528,-100.009 228.228,-90.1004"/>
<polygon fill="midnightblue" stroke="midnightblue" points="230.231,-87.2196 220.248,-83.6719 225.84,-92.6708 230.231,-87.2196"/>
</g>
<!-- Node7 -->
<g id="node13" class="node"><title>Node7</title>
<a xlink:href="literals_8h.html" target="_top" xlink:title="doremir/util/literals.h">
<polygon fill="none" stroke="red" points="289.652,-60.6953 289.652,-83.3047 412.348,-83.3047 412.348,-60.6953 289.652,-60.6953"/>
<text text-anchor="middle" x="351" y="-68.3047" font-family="Futura" font-size="11.00">doremir/util/literals.h</text>
</a>
</g>
<!-- Node4&#45;&gt;Node7 -->
<g id="edge12" class="edge"><title>Node4&#45;&gt;Node7</title>
<path fill="none" stroke="midnightblue" d="M291.872,-120.631C302.389,-112.159 317.472,-100.009 329.772,-90.1004"/>
<polygon fill="midnightblue" stroke="midnightblue" points="332.16,-92.6708 337.752,-83.6719 327.769,-87.2196 332.16,-92.6708"/>
</g>
<!-- Node8&#45;&gt;Node2 -->
<g id="edge18" class="edge"><title>Node8&#45;&gt;Node2</title>
<path fill="none" stroke="midnightblue" d="M510.206,-120.631C505.029,-112.729 497.756,-101.628 491.533,-92.1298"/>
<polygon fill="midnightblue" stroke="midnightblue" points="494.4,-90.1184 485.992,-83.6719 488.545,-93.9546 494.4,-90.1184"/>
</g>
<!-- Node8&#45;&gt;Node3 -->
<g id="edge16" class="edge"><title>Node8&#45;&gt;Node3</title>
<path fill="none" stroke="midnightblue" d="M522.595,-120.534C527.227,-111.239 533.446,-97.1319 536,-84 538.036,-73.5295 538.036,-70.4705 536,-60 534.184,-50.6641 530.516,-40.8352 526.883,-32.5931"/>
<polygon fill="midnightblue" stroke="midnightblue" points="530.015,-31.029 522.595,-23.4663 523.679,-34.0055 530.015,-31.029"/>
</g>
</g>
</svg>
