<?xml version="1.0" encoding="UTF-8" standalone="no"?>
<!DOCTYPE svg PUBLIC "-//W3C//DTD SVG 1.1//EN"
 "http://www.w3.org/Graphics/SVG/1.1/DTD/svg11.dtd">
<!-- Generated by graphviz version 2.28.0 (20121015.0031)
 -->
<!-- Title: src/doremir/string.c Pages: 1 -->
<svg width="740pt" height="212pt"
 viewBox="0.00 0.00 740.00 212.00" xmlns="http://www.w3.org/2000/svg" xmlns:xlink="http://www.w3.org/1999/xlink">
<g id="graph1" class="graph" transform="scale(1 1) rotate(0) translate(4 208)">
<title>src/doremir/string.c</title>
<!-- Node1 -->
<g id="node1" class="node"><title>Node1</title>
<polygon fill="#bfbfbf" stroke="black" points="459.124,-180.695 459.124,-203.305 574.876,-203.305 574.876,-180.695 459.124,-180.695"/>
<text text-anchor="middle" x="517" y="-188.305" font-family="Futura" font-size="11.00">src/doremir/string.c</text>
</g>
<!-- Node2 -->
<g id="node3" class="node"><title>Node2</title>
<a xlink:href="string_8h.html" target="_top" xlink:title="doremir/string.h">
<polygon fill="none" stroke="black" points="430.44,-60.6953 430.44,-83.3047 527.56,-83.3047 527.56,-60.6953 430.44,-60.6953"/>
<text text-anchor="middle" x="479" y="-68.3047" font-family="Futura" font-size="11.00">doremir/string.h</text>
</a>
</g>
<!-- Node1&#45;&gt;Node2 -->
<g id="edge2" class="edge"><title>Node1&#45;&gt;Node2</title>
<path fill="none" stroke="midnightblue" d="M492.896,-180.646C478.162,-172.896 460.554,-160.741 452,-144 443.254,-126.884 453.219,-106.243 463.424,-91.6394"/>
<polygon fill="midnightblue" stroke="midnightblue" points="466.405,-93.4998 469.644,-83.4121 460.821,-89.2783 466.405,-93.4998"/>
</g>
<!-- Node4 -->
<g id="node7" class="node"><title>Node4</title>
<a xlink:href="util_8h.html" target="_top" xlink:title="doremir/util.h">
<polygon fill="none" stroke="red" points="236.754,-120.695 236.754,-143.305 321.246,-143.305 321.246,-120.695 236.754,-120.695"/>
<text text-anchor="middle" x="279" y="-128.305" font-family="Futura" font-size="11.00">doremir/util.h</text>
</a>
</g>
<!-- Node1&#45;&gt;Node4 -->
<g id="edge6" class="edge"><title>Node1&#45;&gt;Node4</title>
<path fill="none" stroke="midnightblue" d="M474.45,-180.631C434.469,-170.887 374.521,-156.278 331.566,-145.81"/>
<polygon fill="midnightblue" stroke="midnightblue" points="332.126,-142.344 321.582,-143.377 330.469,-149.145 332.126,-142.344"/>
</g>
<!-- Node8 -->
<g id="node15" class="node"><title>Node8</title>
<a xlink:href="dynamic_8h.html" target="_top" xlink:title="doremir/dynamic.h">
<polygon fill="none" stroke="black" points="461.052,-120.695 461.052,-143.305 572.948,-143.305 572.948,-120.695 461.052,-120.695"/>
<text text-anchor="middle" x="517" y="-128.305" font-family="Futura" font-size="11.00">doremir/dynamic.h</text>
</a>
</g>
<!-- Node1&#45;&gt;Node8 -->
<g id="edge14" class="edge"><title>Node1&#45;&gt;Node8</title>
<path fill="none" stroke="midnightblue" d="M517,-180.631C517,-173.218 517,-162.989 517,-153.91"/>
<polygon fill="midnightblue" stroke="midnightblue" points="520.5,-153.672 517,-143.672 513.5,-153.672 520.5,-153.672"/>
</g>
<!-- Node9 -->
<g id="node19" class="node"><title>Node9</title>
<polygon fill="none" stroke="#bfbfbf" points="590.598,-120.695 590.598,-143.305 641.402,-143.305 641.402,-120.695 590.598,-120.695"/>
<text text-anchor="middle" x="616" y="-128.305" font-family="Futura" font-size="11.00">iconv.h</text>
</g>
<!-- Node1&#45;&gt;Node9 -->
<g id="edge20" class="edge"><title>Node1&#45;&gt;Node9</title>
<path fill="none" stroke="midnightblue" d="M534.699,-180.631C549.81,-171.778 571.776,-158.909 589.068,-148.778"/>
<polygon fill="midnightblue" stroke="midnightblue" points="591.261,-151.55 598.12,-143.475 587.723,-145.51 591.261,-151.55"/>
</g>
<!-- Node10 -->
<g id="node21" class="node"><title>Node10</title>
<a xlink:href="parson_8h.html" target="_top" xlink:title="../parson.h">
<polygon fill="none" stroke="red" points="659.837,-120.695 659.837,-143.305 732.163,-143.305 732.163,-120.695 659.837,-120.695"/>
<text text-anchor="middle" x="696" y="-128.305" font-family="Futura" font-size="11.00">../parson.h</text>
</a>
</g>
<!-- Node1&#45;&gt;Node10 -->
<g id="edge22" class="edge"><title>Node1&#45;&gt;Node10</title>
<path fill="none" stroke="midnightblue" d="M549.002,-180.631C578.437,-171.093 622.263,-156.892 654.404,-146.478"/>
<polygon fill="midnightblue" stroke="midnightblue" points="655.54,-149.789 663.974,-143.377 653.382,-143.13 655.54,-149.789"/>
</g>
<!-- Node3 -->
<g id="node5" class="node"><title>Node3</title>
<a xlink:href="doremir_8h.html" target="_top" xlink:title="doremir.h">
<polygon fill="none" stroke="red" points="485.136,-0.695312 485.136,-23.3047 548.864,-23.3047 548.864,-0.695312 485.136,-0.695312"/>
<text text-anchor="middle" x="517" y="-8.30469" font-family="Futura" font-size="11.00">doremir.h</text>
</a>
</g>
<!-- Node2&#45;&gt;Node3 -->
<g id="edge4" class="edge"><title>Node2&#45;&gt;Node3</title>
<path fill="none" stroke="midnightblue" d="M485.794,-60.6308C490.971,-52.7292 498.244,-41.6276 504.467,-32.1298"/>
<polygon fill="midnightblue" stroke="midnightblue" points="507.455,-33.9546 510.008,-23.6719 501.6,-30.1184 507.455,-33.9546"/>
</g>
<!-- Node5 -->
<g id="node9" class="node"><title>Node5</title>
<a xlink:href="alignof_8h.html" target="_top" xlink:title="doremir/util/alignof.h">
<polygon fill="none" stroke="black" points="-0.379639,-60.6953 -0.379639,-83.3047 124.38,-83.3047 124.38,-60.6953 -0.379639,-60.6953"/>
<text text-anchor="middle" x="62" y="-68.3047" font-family="Futura" font-size="11.00">doremir/util/alignof.h</text>
</a>
</g>
<!-- Node4&#45;&gt;Node5 -->
<g id="edge8" class="edge"><title>Node4&#45;&gt;Node5</title>
<path fill="none" stroke="midnightblue" d="M240.205,-120.631C204.059,-110.97 150.013,-96.5243 110.923,-86.0761"/>
<polygon fill="midnightblue" stroke="midnightblue" points="111.389,-82.578 100.825,-83.3771 109.582,-89.3406 111.389,-82.578"/>
</g>
<!-- Node6 -->
<g id="node11" class="node"><title>Node6</title>
<a xlink:href="minmax_8h.html" target="_top" xlink:title="doremir/util/minmax.h">
<polygon fill="none" stroke="red" points="142.45,-60.6953 142.45,-83.3047 271.55,-83.3047 271.55,-60.6953 142.45,-60.6953"/>
<text text-anchor="middle" x="207" y="-68.3047" font-family="Futura" font-size="11.00">doremir/util/minmax.h</text>
</a>
</g>
<!-- Node4&#45;&gt;Node6 -->
<g id="edge10" class="edge"><title>Node4&#45;&gt;Node6</title>
<path fill="none" stroke="midnightblue" d="M266.128,-120.631C255.611,-112.159 240.528,-100.009 228.228,-90.1004"/>
<polygon fill="midnightblue" stroke="midnightblue" points="230.231,-87.2196 220.248,-83.6719 225.84,-92.6708 230.231,-87.2196"/>
</g>
<!-- Node7 -->
<g id="node13" class="node"><title>Node7</title>
<a xlink:href="literals_8h.html" target="_top" xlink:title="doremir/util/literals.h">
<polygon fill="none" stroke="red" points="289.652,-60.6953 289.652,-83.3047 412.348,-83.3047 412.348,-60.6953 289.652,-60.6953"/>
<text text-anchor="middle" x="351" y="-68.3047" font-family="Futura" font-size="11.00">doremir/util/literals.h</text>
</a>
</g>
<!-- Node4&#45;&gt;Node7 -->
<g id="edge12" class="edge"><title>Node4&#45;&gt;Node7</title>
<path fill="none" stroke="midnightblue" d="M291.872,-120.631C302.389,-112.159 317.472,-100.009 329.772,-90.1004"/>
<polygon fill="midnightblue" stroke="midnightblue" points="332.16,-92.6708 337.752,-83.6719 327.769,-87.2196 332.16,-92.6708"/>
</g>
<!-- Node8&#45;&gt;Node2 -->
<g id="edge18" class="edge"><title>Node8&#45;&gt;Node2</title>
<path fill="none" stroke="midnightblue" d="M510.206,-120.631C505.029,-112.729 497.756,-101.628 491.533,-92.1298"/>
<polygon fill="midnightblue" stroke="midnightblue" points="494.4,-90.1184 485.992,-83.6719 488.545,-93.9546 494.4,-90.1184"/>
</g>
<!-- Node8&#45;&gt;Node3 -->
<g id="edge16" class="edge"><title>Node8&#45;&gt;Node3</title>
<path fill="none" stroke="midnightblue" d="M522.595,-120.534C527.227,-111.239 533.446,-97.1319 536,-84 538.036,-73.5295 538.036,-70.4705 536,-60 534.184,-50.6641 530.516,-40.8352 526.883,-32.5931"/>
<polygon fill="midnightblue" stroke="midnightblue" points="530.015,-31.029 522.595,-23.4663 523.679,-34.0055 530.015,-31.029"/>
</g>
</g>
</svg>
