<?xml version="1.0" encoding="UTF-8" standalone="no"?>
<!DOCTYPE svg PUBLIC "-//W3C//DTD SVG 1.1//EN"
 "http://www.w3.org/Graphics/SVG/1.1/DTD/svg11.dtd">
<!-- Generated by graphviz version 2.28.0 (20121015.0031)
 -->
<!-- Title: _doremir_list_t Pages: 1 -->
<svg width="114pt" height="127pt"
 viewBox="0.00 0.00 114.45 126.91" xmlns="http://www.w3.org/2000/svg" xmlns:xlink="http://www.w3.org/1999/xlink">
<g id="graph1" class="graph" transform="scale(1 1) rotate(0) translate(4 122.914)">
<title>_doremir_list_t</title>
<!-- Node1 -->
<g id="node1" class="node"><title>Node1</title>
<polygon fill="#bfbfbf" stroke="black" points="-0.751709,-0.695312 -0.751709,-23.3047 88.7517,-23.3047 88.7517,-0.695312 -0.751709,-0.695312"/>
<text text-anchor="middle" x="44" y="-8.30469" font-family="Futura" font-size="11.00">_doremir_list_t</text>
</g>
<!-- Node2 -->
<g id="node2" class="node"><title>Node2</title>
<a xlink:href="structnode.html" target="_top" xlink:title="node">
<polygon fill="none" stroke="black" points="23.3376,-85.6953 23.3376,-108.305 64.6624,-108.305 64.6624,-85.6953 23.3376,-85.6953"/>
<text text-anchor="middle" x="44" y="-93.3047" font-family="Futura" font-size="11.00">node</text>
</a>
</g>
<!-- Node2&#45;&gt;Node1 -->
<g id="edge2" class="edge"><title>Node2&#45;&gt;Node1</title>
<path fill="none" stroke="#9a32cd" stroke-dasharray="5,2" d="M44,-75.1959C44,-58.7061 44,-36.3573 44,-23.4267"/>
<polygon fill="#9a32cd" stroke="#9a32cd" points="40.5001,-75.488 44,-85.488 47.5001,-75.488 40.5001,-75.488"/>
<text text-anchor="middle" x="58.3596" y="-46.3047" font-family="Futura" font-size="11.00"> node</text>
</g>
<!-- Node2&#45;&gt;Node2 -->
<g id="edge4" class="edge"><title>Node2&#45;&gt;Node2</title>
<path fill="none" stroke="#9a32cd" stroke-dasharray="5,2" d="M74.9382,-104.674C79.1742,-103.399 82,-100.841 82,-97 82,-90.5312 73.9844,-87.7012 64.7163,-88.5098"/>
<polygon fill="#9a32cd" stroke="#9a32cd" points="74.406,-101.205 64.7163,-105.49 74.9632,-108.183 74.406,-101.205"/>
<text text-anchor="middle" x="94.2246" y="-107.914" font-family="Futura" font-size="11.00"> next</text>
<text text-anchor="middle" x="94.2246" y="-93.3047" font-family="Futura" font-size="11.00">right</text>
<text text-anchor="middle" x="94.2246" y="-78.6953" font-family="Futura" font-size="11.00">left</text>
</g>
</g>
</svg>
