<?xml version="1.0" encoding="UTF-8" standalone="no"?>
<!DOCTYPE svg PUBLIC "-//W3C//DTD SVG 1.1//EN"
 "http://www.w3.org/Graphics/SVG/1.1/DTD/svg11.dtd">
<!-- Generated by graphviz version 2.28.0 (20121015.0031)
 -->
<!-- Title: _doremir_priority_queue_t Pages: 1 -->
<svg width="156pt" height="127pt"
 viewBox="0.00 0.00 156.00 126.91" xmlns="http://www.w3.org/2000/svg" xmlns:xlink="http://www.w3.org/1999/xlink">
<g id="graph1" class="graph" transform="scale(1 1) rotate(0) translate(4 122.914)">
<title>_doremir_priority_queue_t</title>
<!-- Node1 -->
<g id="node1" class="node"><title>Node1</title>
<polygon fill="#bfbfbf" stroke="black" points="-0.942627,-0.695312 -0.942627,-23.3047 148.943,-23.3047 148.943,-0.695312 -0.942627,-0.695312"/>
<text text-anchor="middle" x="74" y="-8.30469" font-family="Futura" font-size="11.00">_doremir_priority_queue_t</text>
</g>
<!-- Node2 -->
<g id="node2" class="node"><title>Node2</title>
<a xlink:href="structnode.html" target="_top" xlink:title="node">
<polygon fill="none" stroke="black" points="53.3376,-85.6953 53.3376,-108.305 94.6624,-108.305 94.6624,-85.6953 53.3376,-85.6953"/>
<text text-anchor="middle" x="74" y="-93.3047" font-family="Futura" font-size="11.00">node</text>
</a>
</g>
<!-- Node2&#45;&gt;Node1 -->
<g id="edge2" class="edge"><title>Node2&#45;&gt;Node1</title>
<path fill="none" stroke="#9a32cd" stroke-dasharray="5,2" d="M74,-75.1959C74,-58.7061 74,-36.3573 74,-23.4267"/>
<polygon fill="#9a32cd" stroke="#9a32cd" points="70.5001,-75.488 74,-85.488 77.5001,-75.488 70.5001,-75.488"/>
<text text-anchor="middle" x="88.3596" y="-46.3047" font-family="Futura" font-size="11.00"> node</text>
</g>
<!-- Node2&#45;&gt;Node2 -->
<g id="edge4" class="edge"><title>Node2&#45;&gt;Node2</title>
<path fill="none" stroke="#9a32cd" stroke-dasharray="5,2" d="M104.938,-104.674C109.174,-103.399 112,-100.841 112,-97 112,-90.5312 103.984,-87.7012 94.7163,-88.5098"/>
<polygon fill="#9a32cd" stroke="#9a32cd" points="104.406,-101.205 94.7163,-105.49 104.963,-108.183 104.406,-101.205"/>
<text text-anchor="middle" x="124.225" y="-107.914" font-family="Futura" font-size="11.00"> next</text>
<text text-anchor="middle" x="124.225" y="-93.3047" font-family="Futura" font-size="11.00">right</text>
<text text-anchor="middle" x="124.225" y="-78.6953" font-family="Futura" font-size="11.00">left</text>
</g>
</g>
</svg>
