<?xml version="1.0" encoding="UTF-8" standalone="no"?>
<!DOCTYPE svg PUBLIC "-//W3C//DTD SVG 1.1//EN"
 "http://www.w3.org/Graphics/SVG/1.1/DTD/svg11.dtd">
<!-- Generated by graphviz version 2.28.0 (20121015.0031)
 -->
<!-- Title: include/fae/system.h Pages: 1 -->
<svg width="333pt" height="272pt"
 viewBox="0.00 0.00 332.75 272.00" xmlns="http://www.w3.org/2000/svg" xmlns:xlink="http://www.w3.org/1999/xlink">
<g id="graph1" class="graph" transform="scale(1 1) rotate(0) translate(4 268)">
<title>include/fae/system.h</title>
<!-- Node1 -->
<g id="node1" class="node"><title>Node1</title>
<polygon fill="#bfbfbf" stroke="black" points="187.42,-240.695 187.42,-263.305 308.58,-263.305 308.58,-240.695 187.42,-240.695"/>
<text text-anchor="middle" x="248" y="-248.305" font-family="Futura" font-size="11.00">include/fae/system.h</text>
</g>
<!-- Node2 -->
<g id="node3" class="node"><title>Node2</title>
<a xlink:href="event_8h.html" target="_top" xlink:title="fae/system/event.h">
<polygon fill="none" stroke="black" points="52.9529,-180.695 52.9529,-203.305 165.047,-203.305 165.047,-180.695 52.9529,-180.695"/>
<text text-anchor="middle" x="109" y="-188.305" font-family="Futura" font-size="11.00">fae/system/event.h</text>
</a>
</g>
<!-- Node1&#45;&gt;Node2 -->
<g id="edge2" class="edge"><title>Node1&#45;&gt;Node2</title>
<path fill="none" stroke="midnightblue" d="M223.15,-240.631C200.952,-231.368 168.216,-217.709 143.486,-207.39"/>
<polygon fill="midnightblue" stroke="midnightblue" points="144.681,-204.096 134.104,-203.475 141.985,-210.556 144.681,-204.096"/>
</g>
<!-- Node10 -->
<g id="node22" class="node"><title>Node10</title>
<a xlink:href="directory_8h.html" target="_top" xlink:title="fae/system/directory.h">
<polygon fill="none" stroke="black" points="182.972,-180.695 182.972,-203.305 313.028,-203.305 313.028,-180.695 182.972,-180.695"/>
<text text-anchor="middle" x="248" y="-188.305" font-family="Futura" font-size="11.00">fae/system/directory.h</text>
</a>
</g>
<!-- Node1&#45;&gt;Node10 -->
<g id="edge24" class="edge"><title>Node1&#45;&gt;Node10</title>
<path fill="none" stroke="midnightblue" d="M248,-240.631C248,-233.218 248,-222.989 248,-213.91"/>
<polygon fill="midnightblue" stroke="midnightblue" points="251.5,-213.672 248,-203.672 244.5,-213.672 251.5,-213.672"/>
</g>
<!-- Node3 -->
<g id="node5" class="node"><title>Node3</title>
<polygon fill="none" stroke="#bfbfbf" points="264.23,-120.695 264.23,-143.305 305.77,-143.305 305.77,-120.695 264.23,-120.695"/>
<text text-anchor="middle" x="285" y="-128.305" font-family="Futura" font-size="11.00">fae.h</text>
</g>
<!-- Node2&#45;&gt;Node3 -->
<g id="edge4" class="edge"><title>Node2&#45;&gt;Node3</title>
<path fill="none" stroke="midnightblue" d="M142.468,-180.644C170.113,-171.998 210.593,-159.126 254.371,-144.134"/>
<polygon fill="midnightblue" stroke="midnightblue" points="255.741,-147.364 264.057,-140.8 253.463,-140.745 255.741,-147.364"/>
</g>
<!-- Node4 -->
<g id="node7" class="node"><title>Node4</title>
<polygon fill="none" stroke="#bfbfbf" points="63.8911,-120.695 63.8911,-143.305 154.109,-143.305 154.109,-120.695 63.8911,-120.695"/>
<text text-anchor="middle" x="109" y="-128.305" font-family="Futura" font-size="11.00">fae/message.h</text>
</g>
<!-- Node2&#45;&gt;Node4 -->
<g id="edge6" class="edge"><title>Node2&#45;&gt;Node4</title>
<path fill="none" stroke="midnightblue" d="M109,-180.631C109,-173.218 109,-162.989 109,-153.91"/>
<polygon fill="midnightblue" stroke="midnightblue" points="112.5,-153.672 109,-143.672 105.5,-153.672 112.5,-153.672"/>
</g>
<!-- Node5 -->
<g id="node9" class="node"><title>Node5</title>
<polygon fill="none" stroke="#bfbfbf" points="-0.799805,-0.695312 -0.799805,-23.3047 72.7998,-23.3047 72.7998,-0.695312 -0.799805,-0.695312"/>
<text text-anchor="middle" x="36" y="-8.30469" font-family="Futura" font-size="11.00">fae/event.h</text>
</g>
<!-- Node2&#45;&gt;Node5 -->
<g id="edge8" class="edge"><title>Node2&#45;&gt;Node5</title>
<path fill="none" stroke="midnightblue" d="M91.4394,-180.558C79.141,-172.26 63.4506,-159.494 55,-144 35.8395,-108.87 33.9539,-60.9233 34.7076,-33.8478"/>
<polygon fill="midnightblue" stroke="midnightblue" points="38.2145,-33.7618 35.1496,-23.62 31.221,-33.4596 38.2145,-33.7618"/>
</g>
<!-- Node6 -->
<g id="node11" class="node"><title>Node6</title>
<a xlink:href="string_8h.html" target="_top" xlink:title="fae/string.h">
<polygon fill="none" stroke="black" points="171.827,-120.695 171.827,-143.305 246.173,-143.305 246.173,-120.695 171.827,-120.695"/>
<text text-anchor="middle" x="209" y="-128.305" font-family="Futura" font-size="11.00">fae/string.h</text>
</a>
</g>
<!-- Node2&#45;&gt;Node6 -->
<g id="edge10" class="edge"><title>Node2&#45;&gt;Node6</title>
<path fill="none" stroke="midnightblue" d="M126.878,-180.631C142.282,-171.696 164.741,-158.67 182.28,-148.498"/>
<polygon fill="midnightblue" stroke="midnightblue" points="184.045,-151.52 190.94,-143.475 180.533,-145.465 184.045,-151.52"/>
</g>
<!-- Node7 -->
<g id="node13" class="node"><title>Node7</title>
<a xlink:href="fae_2fae_8h.html" target="_top" xlink:title="fae.h">
<polygon fill="none" stroke="red" points="216.23,-60.6953 216.23,-83.3047 257.77,-83.3047 257.77,-60.6953 216.23,-60.6953"/>
<text text-anchor="middle" x="237" y="-68.3047" font-family="Futura" font-size="11.00">fae.h</text>
</a>
</g>
<!-- Node6&#45;&gt;Node7 -->
<g id="edge12" class="edge"><title>Node6&#45;&gt;Node7</title>
<path fill="none" stroke="midnightblue" d="M214.006,-120.631C217.742,-112.892 222.959,-102.084 227.48,-92.7193"/>
<polygon fill="midnightblue" stroke="midnightblue" points="230.652,-94.199 231.848,-83.6719 224.349,-91.1558 230.652,-94.199"/>
</g>
<!-- Node7&#45;&gt;Node1 -->
<g id="edge20" class="edge"><title>Node7&#45;&gt;Node1</title>
<path fill="none" stroke="midnightblue" d="M258.01,-79.9539C275.967,-87.0585 300.915,-99.9258 314,-120 328.691,-142.537 320.218,-153.156 322,-180 322.706,-190.643 327.137,-194.652 322,-204 314.184,-218.224 300.038,-228.753 286.193,-236.198"/>
<polygon fill="midnightblue" stroke="midnightblue" points="284.613,-233.075 277.208,-240.652 287.722,-239.346 284.613,-233.075"/>
</g>
<!-- Node7&#45;&gt;Node5 -->
<g id="edge22" class="edge"><title>Node7&#45;&gt;Node5</title>
<path fill="none" stroke="midnightblue" d="M215.869,-64.9026C184.237,-55.7747 123.801,-38.3357 81.7588,-26.204"/>
<polygon fill="midnightblue" stroke="midnightblue" points="82.6047,-22.8054 72.0263,-23.3956 80.6639,-29.531 82.6047,-22.8054"/>
</g>
<!-- Node8 -->
<g id="node15" class="node"><title>Node8</title>
<a xlink:href="atomic_8h.html" target="_top" xlink:title="fae/atomic.h">
<polygon fill="none" stroke="red" points="225.894,-0.695312 225.894,-23.3047 306.106,-23.3047 306.106,-0.695312 225.894,-0.695312"/>
<text text-anchor="middle" x="266" y="-8.30469" font-family="Futura" font-size="11.00">fae/atomic.h</text>
</a>
</g>
<!-- Node7&#45;&gt;Node8 -->
<g id="edge14" class="edge"><title>Node7&#45;&gt;Node8</title>
<path fill="none" stroke="midnightblue" d="M236.869,-60.6308C239.358,-52.8107 244.47,-41.8562 249.876,-32.4241"/>
<polygon fill="midnightblue" stroke="midnightblue" points="253.007,-34.0168 255.294,-23.6719 247.055,-30.3325 253.007,-34.0168"/>
</g>
<!-- Node9 -->
<g id="node18" class="node"><title>Node9</title>
<polygon fill="none" stroke="#bfbfbf" points="90.6057,-0.695312 90.6057,-23.3047 207.394,-23.3047 207.394,-0.695312 90.6057,-0.695312"/>
<text text-anchor="middle" x="149" y="-8.30469" font-family="Futura" font-size="11.00">fae/atomic/queue.h</text>
</g>
<!-- Node7&#45;&gt;Node9 -->
<g id="edge18" class="edge"><title>Node7&#45;&gt;Node9</title>
<path fill="none" stroke="midnightblue" d="M221.267,-60.6308C207.96,-51.8601 188.671,-39.1468 173.368,-29.0605"/>
<polygon fill="midnightblue" stroke="midnightblue" points="175.169,-26.0558 164.893,-23.475 171.317,-31.9006 175.169,-26.0558"/>
</g>
<!-- Node8&#45;&gt;Node7 -->
<g id="edge16" class="edge"><title>Node8&#45;&gt;Node7</title>
<path fill="none" stroke="midnightblue" d="M266.034,-23.6719C263.478,-31.5716 258.329,-42.5461 252.915,-51.9383"/>
<polygon fill="midnightblue" stroke="midnightblue" points="249.817,-50.2923 247.5,-60.6308 255.759,-53.9936 249.817,-50.2923"/>
</g>
<!-- Node10&#45;&gt;Node3 -->
<g id="edge26" class="edge"><title>Node10&#45;&gt;Node3</title>
<path fill="none" stroke="midnightblue" d="M254.615,-180.631C259.656,-172.729 266.738,-161.628 272.797,-152.13"/>
<polygon fill="midnightblue" stroke="midnightblue" points="275.765,-153.985 278.192,-143.672 269.863,-150.22 275.765,-153.985"/>
</g>
<!-- Node10&#45;&gt;Node6 -->
<g id="edge28" class="edge"><title>Node10&#45;&gt;Node6</title>
<path fill="none" stroke="midnightblue" d="M241.028,-180.631C235.714,-172.729 228.25,-161.628 221.863,-152.13"/>
<polygon fill="midnightblue" stroke="midnightblue" points="224.66,-150.017 216.176,-143.672 218.851,-153.923 224.66,-150.017"/>
</g>
</g>
</svg>
