<?xml version="1.0" encoding="UTF-8" standalone="no"?>
<!DOCTYPE svg PUBLIC "-//W3C//DTD SVG 1.1//EN"
 "http://www.w3.org/Graphics/SVG/1.1/DTD/svg11.dtd">
<!-- Generated by graphviz version 2.28.0 (20121015.0031)
 -->
<!-- Title: include/doremir/system/directory.h Pages: 1 -->
<svg width="481pt" height="240pt"
 viewBox="0.00 0.00 481.00 240.00" xmlns="http://www.w3.org/2000/svg" xmlns:xlink="http://www.w3.org/1999/xlink">
<g id="graph1" class="graph" transform="scale(1 1) rotate(0) translate(4 236)">
<title>include/doremir/system/directory.h</title>
<!-- Node1 -->
<g id="node1" class="node"><title>Node1</title>
<polygon fill="#bfbfbf" stroke="black" points="175.746,-194.391 175.746,-231.609 310.254,-231.609 310.254,-194.391 175.746,-194.391"/>
<text text-anchor="start" x="183.746" y="-216.609" font-family="Futura" font-size="11.00">include/doremir/system</text>
<text text-anchor="middle" x="243" y="-202" font-family="Futura" font-size="11.00">/directory.h</text>
</g>
<!-- Node2 -->
<g id="node3" class="node"><title>Node2</title>
<a xlink:href="system_8h.html" target="_top" xlink:title="include/doremir/system.h">
<polygon fill="none" stroke="black" points="6.03296,-134.695 6.03296,-157.305 149.967,-157.305 149.967,-134.695 6.03296,-134.695"/>
<text text-anchor="middle" x="78" y="-142.305" font-family="Futura" font-size="11.00">include/doremir/system.h</text>
</a>
</g>
<!-- Node1&#45;&gt;Node2 -->
<g id="edge2" class="edge"><title>Node1&#45;&gt;Node2</title>
<path fill="none" stroke="midnightblue" d="M188.548,-190.549C160.306,-179.423 127.085,-166.336 104.487,-157.434"/>
<polygon fill="midnightblue" stroke="midnightblue" points="187.326,-193.83 197.913,-194.238 189.892,-187.317 187.326,-193.83"/>
</g>
<!-- Node5 -->
<g id="node9" class="node"><title>Node5</title>
<a xlink:href="gnuplot_8c.html" target="_top" xlink:title="src/doremir/plot/gnuplot.c">
<polygon fill="none" stroke="black" points="167.504,-134.695 167.504,-157.305 318.496,-157.305 318.496,-134.695 167.504,-134.695"/>
<text text-anchor="middle" x="243" y="-142.305" font-family="Futura" font-size="11.00">src/doremir/plot/gnuplot.c</text>
</a>
</g>
<!-- Node1&#45;&gt;Node5 -->
<g id="edge8" class="edge"><title>Node1&#45;&gt;Node5</title>
<path fill="none" stroke="midnightblue" d="M243,-184.06C243,-174.7 243,-164.825 243,-157.624"/>
<polygon fill="midnightblue" stroke="midnightblue" points="239.5,-184.238 243,-194.238 246.5,-184.238 239.5,-184.238"/>
</g>
<!-- Node6 -->
<g id="node11" class="node"><title>Node6</title>
<a xlink:href="processor_8c.html" target="_top" xlink:title="src/doremir/processor.c">
<polygon fill="none" stroke="black" points="336.868,-134.695 336.868,-157.305 473.132,-157.305 473.132,-134.695 336.868,-134.695"/>
<text text-anchor="middle" x="405" y="-142.305" font-family="Futura" font-size="11.00">src/doremir/processor.c</text>
</a>
</g>
<!-- Node1&#45;&gt;Node6 -->
<g id="edge10" class="edge"><title>Node1&#45;&gt;Node6</title>
<path fill="none" stroke="midnightblue" d="M296.824,-190.404C324.474,-179.31 356.904,-166.298 378.994,-157.434"/>
<polygon fill="midnightblue" stroke="midnightblue" points="295.245,-187.266 287.267,-194.238 297.851,-193.763 295.245,-187.266"/>
</g>
<!-- Node3 -->
<g id="node5" class="node"><title>Node3</title>
<a xlink:href="audio__engine_8h.html" target="_top" xlink:title="include/doremir/audio\l_engine.h">
<polygon fill="none" stroke="black" points="12.8757,-60.3906 12.8757,-97.6094 143.124,-97.6094 143.124,-60.3906 12.8757,-60.3906"/>
<text text-anchor="start" x="20.8757" y="-82.6094" font-family="Futura" font-size="11.00">include/doremir/audio</text>
<text text-anchor="middle" x="78" y="-68" font-family="Futura" font-size="11.00">_engine.h</text>
</a>
</g>
<!-- Node2&#45;&gt;Node3 -->
<g id="edge4" class="edge"><title>Node2&#45;&gt;Node3</title>
<path fill="none" stroke="midnightblue" d="M78,-124.301C78,-115.767 78,-105.978 78,-97.775"/>
<polygon fill="midnightblue" stroke="midnightblue" points="74.5001,-124.557 78,-134.557 81.5001,-124.557 74.5001,-124.557"/>
</g>
<!-- Node4 -->
<g id="node7" class="node"><title>Node4</title>
<a xlink:href="audio__engine_8c.html" target="_top" xlink:title="src/doremir/audio_engine.c">
<polygon fill="none" stroke="black" points="-0.479492,-0.695312 -0.479492,-23.3047 156.479,-23.3047 156.479,-0.695312 -0.479492,-0.695312"/>
<text text-anchor="middle" x="78" y="-8.30469" font-family="Futura" font-size="11.00">src/doremir/audio_engine.c</text>
</a>
</g>
<!-- Node3&#45;&gt;Node4 -->
<g id="edge6" class="edge"><title>Node3&#45;&gt;Node4</title>
<path fill="none" stroke="midnightblue" d="M78,-50.0595C78,-40.6996 78,-30.8249 78,-23.6243"/>
<polygon fill="midnightblue" stroke="midnightblue" points="74.5001,-50.2384 78,-60.2385 81.5001,-50.2385 74.5001,-50.2384"/>
</g>
</g>
</svg>
