<?xml version="1.0" encoding="UTF-8" standalone="no"?>
<!DOCTYPE svg PUBLIC "-//W3C//DTD SVG 1.1//EN"
 "http://www.w3.org/Graphics/SVG/1.1/DTD/svg11.dtd">
<!-- Generated by graphviz version 2.28.0 (20121015.0031)
 -->
<!-- Title: include/fae/system/event.h Pages: 1 -->
<svg width="369pt" height="526pt"
 viewBox="0.00 0.00 369.00 526.00" xmlns="http://www.w3.org/2000/svg" xmlns:xlink="http://www.w3.org/1999/xlink">
<g id="graph1" class="graph" transform="scale(1 1) rotate(0) translate(4 522)">
<title>include/fae/system/event.h</title>
<!-- Node1 -->
<g id="node1" class="node"><title>Node1</title>
<polygon fill="#bfbfbf" stroke="black" points="70.1328,-480.391 70.1328,-517.609 181.867,-517.609 181.867,-480.391 70.1328,-480.391"/>
<text text-anchor="start" x="78.1328" y="-502.609" font-family="Futura" font-size="11.00">include/fae/system</text>
<text text-anchor="middle" x="126" y="-488" font-family="Futura" font-size="11.00">/event.h</text>
</g>
<!-- Node2 -->
<g id="node3" class="node"><title>Node2</title>
<polygon fill="none" stroke="#bfbfbf" points="-0.769775,-420.695 -0.769775,-443.305 40.7698,-443.305 40.7698,-420.695 -0.769775,-420.695"/>
<text text-anchor="middle" x="20" y="-428.305" font-family="Futura" font-size="11.00">fae.h</text>
</g>
<!-- Node1&#45;&gt;Node2 -->
<g id="edge2" class="edge"><title>Node1&#45;&gt;Node2</title>
<path fill="none" stroke="midnightblue" d="M97.035,-480.238C80.9452,-470.372 61.106,-458.207 45.5906,-448.692"/>
<polygon fill="midnightblue" stroke="midnightblue" points="47.3705,-445.678 37.016,-443.434 43.7113,-451.646 47.3705,-445.678"/>
</g>
<!-- Node3 -->
<g id="node5" class="node"><title>Node3</title>
<a xlink:href="message_8h.html" target="_top" xlink:title="fae/message.h">
<polygon fill="none" stroke="black" points="137.891,-420.695 137.891,-443.305 228.109,-443.305 228.109,-420.695 137.891,-420.695"/>
<text text-anchor="middle" x="183" y="-428.305" font-family="Futura" font-size="11.00">fae/message.h</text>
</a>
</g>
<!-- Node1&#45;&gt;Node3 -->
<g id="edge4" class="edge"><title>Node1&#45;&gt;Node3</title>
<path fill="none" stroke="midnightblue" d="M141.576,-480.238C149.449,-471.26 158.993,-460.376 166.934,-451.32"/>
<polygon fill="midnightblue" stroke="midnightblue" points="169.722,-453.451 173.683,-443.624 164.459,-448.835 169.722,-453.451"/>
</g>
<!-- Node5 -->
<g id="node9" class="node"><title>Node5</title>
<a xlink:href="event_8h.html" target="_top" xlink:title="fae/event.h">
<polygon fill="none" stroke="black" points="139.2,-180.695 139.2,-203.305 212.8,-203.305 212.8,-180.695 139.2,-180.695"/>
<text text-anchor="middle" x="176" y="-188.305" font-family="Futura" font-size="11.00">fae/event.h</text>
</a>
</g>
<!-- Node1&#45;&gt;Node5 -->
<g id="edge44" class="edge"><title>Node1&#45;&gt;Node5</title>
<path fill="none" stroke="midnightblue" d="M111.91,-480.113C95.0308,-456.841 69,-414.263 69,-373 69,-373 69,-373 69,-311 69,-264.436 115.289,-228.077 146.976,-208.643"/>
<polygon fill="midnightblue" stroke="midnightblue" points="149.043,-211.487 155.874,-203.389 145.484,-205.46 149.043,-211.487"/>
</g>
<!-- Node7 -->
<g id="node14" class="node"><title>Node7</title>
<a xlink:href="string_8h.html" target="_top" xlink:title="fae/string.h">
<polygon fill="none" stroke="black" points="232.827,-0.695312 232.827,-23.3047 307.173,-23.3047 307.173,-0.695312 232.827,-0.695312"/>
<text text-anchor="middle" x="270" y="-8.30469" font-family="Futura" font-size="11.00">fae/string.h</text>
</a>
</g>
<!-- Node1&#45;&gt;Node7 -->
<g id="edge46" class="edge"><title>Node1&#45;&gt;Node7</title>
<path fill="none" stroke="midnightblue" d="M181.99,-492.622C251.498,-482.506 361,-453.754 361,-373 361,-373 361,-373 361,-131 361,-87.3468 321.464,-49.9742 294.512,-29.5682"/>
<polygon fill="midnightblue" stroke="midnightblue" points="296.41,-26.6206 286.269,-23.5526 292.283,-32.2749 296.41,-26.6206"/>
</g>
<!-- Node4 -->
<g id="node7" class="node"><title>Node4</title>
<a xlink:href="fae_2fae_8h.html" target="_top" xlink:title="fae.h">
<polygon fill="none" stroke="red" points="233.23,-240.695 233.23,-263.305 274.77,-263.305 274.77,-240.695 233.23,-240.695"/>
<text text-anchor="middle" x="254" y="-248.305" font-family="Futura" font-size="11.00">fae.h</text>
</a>
</g>
<!-- Node3&#45;&gt;Node4 -->
<g id="edge6" class="edge"><title>Node3&#45;&gt;Node4</title>
<path fill="none" stroke="midnightblue" d="M224.559,-420.694C243.892,-413.829 265.095,-402.518 277,-384 299.452,-349.075 275.44,-299.672 261.557,-272.61"/>
<polygon fill="midnightblue" stroke="midnightblue" points="264.521,-270.718 256.85,-263.409 258.289,-273.906 264.521,-270.718"/>
</g>
<!-- Node6 -->
<g id="node12" class="node"><title>Node6</title>
<a xlink:href="std_8h.html" target="_top" xlink:title="fae/std.h">
<polygon fill="none" stroke="red" points="117.347,-120.695 117.347,-143.305 178.653,-143.305 178.653,-120.695 117.347,-120.695"/>
<text text-anchor="middle" x="148" y="-128.305" font-family="Futura" font-size="11.00">fae/std.h</text>
</a>
</g>
<!-- Node3&#45;&gt;Node6 -->
<g id="edge32" class="edge"><title>Node3&#45;&gt;Node6</title>
<path fill="none" stroke="midnightblue" d="M170.108,-420.447C148.424,-401.424 107,-359.055 107,-313 107,-313 107,-313 107,-251 107,-214.539 124.683,-175.076 136.823,-152.279"/>
<polygon fill="midnightblue" stroke="midnightblue" points="140.002,-153.763 141.773,-143.317 133.874,-150.378 140.002,-153.763"/>
</g>
<!-- Node9 -->
<g id="node26" class="node"><title>Node9</title>
<a xlink:href="pair_8h.html" target="_top" xlink:title="fae/pair.h">
<polygon fill="none" stroke="black" points="210.651,-360.695 210.651,-383.305 277.349,-383.305 277.349,-360.695 210.651,-360.695"/>
<text text-anchor="middle" x="244" y="-368.305" font-family="Futura" font-size="11.00">fae/pair.h</text>
</a>
</g>
<!-- Node3&#45;&gt;Node9 -->
<g id="edge34" class="edge"><title>Node3&#45;&gt;Node9</title>
<path fill="none" stroke="midnightblue" d="M193.906,-420.631C202.644,-412.322 215.104,-400.475 225.411,-390.675"/>
<polygon fill="midnightblue" stroke="midnightblue" points="227.941,-393.099 232.776,-383.672 223.117,-388.026 227.941,-393.099"/>
</g>
<!-- Node10 -->
<g id="node29" class="node"><title>Node10</title>
<a xlink:href="list_8h.html" target="_top" xlink:title="fae/list.h">
<polygon fill="none" stroke="black" points="172.906,-300.695 172.906,-323.305 233.094,-323.305 233.094,-300.695 172.906,-300.695"/>
<text text-anchor="middle" x="203" y="-308.305" font-family="Futura" font-size="11.00">fae/list.h</text>
</a>
</g>
<!-- Node3&#45;&gt;Node10 -->
<g id="edge42" class="edge"><title>Node3&#45;&gt;Node10</title>
<path fill="none" stroke="midnightblue" d="M184.775,-420.528C188.073,-401.071 195.2,-359.023 199.499,-333.656"/>
<polygon fill="midnightblue" stroke="midnightblue" points="202.98,-334.062 201.2,-323.618 196.078,-332.892 202.98,-334.062"/>
</g>
<!-- Node4&#45;&gt;Node3 -->
<g id="edge28" class="edge"><title>Node4&#45;&gt;Node3</title>
<path fill="none" stroke="midnightblue" d="M266.267,-263.409C286.547,-286.812 320.321,-344.613 295,-384 282.556,-403.356 259.954,-414.838 238.225,-421.599"/>
<polygon fill="midnightblue" stroke="midnightblue" points="237.018,-418.303 228.343,-424.385 238.917,-425.041 237.018,-418.303"/>
</g>
<!-- Node4&#45;&gt;Node5 -->
<g id="edge8" class="edge"><title>Node4&#45;&gt;Node5</title>
<path fill="none" stroke="midnightblue" d="M234.739,-240.631C221.807,-232.159 205.167,-220.009 192.78,-210.1"/>
<polygon fill="midnightblue" stroke="midnightblue" points="194.924,-207.332 184.982,-203.672 190.472,-212.734 194.924,-207.332"/>
</g>
<!-- Node8 -->
<g id="node17" class="node"><title>Node8</title>
<a xlink:href="time_8h.html" target="_top" xlink:title="fae/time.h">
<polygon fill="none" stroke="red" points="205.114,-60.6953 205.114,-83.3047 272.886,-83.3047 272.886,-60.6953 205.114,-60.6953"/>
<text text-anchor="middle" x="239" y="-68.3047" font-family="Futura" font-size="11.00">fae/time.h</text>
</a>
</g>
<!-- Node4&#45;&gt;Node8 -->
<g id="edge30" class="edge"><title>Node4&#45;&gt;Node8</title>
<path fill="none" stroke="midnightblue" d="M249.753,-240.661C243.274,-212.15 236.137,-132.001 236.226,-93.78"/>
<polygon fill="midnightblue" stroke="midnightblue" points="239.735,-93.4548 236.494,-83.368 232.737,-93.2745 239.735,-93.4548"/>
</g>
<!-- Node5&#45;&gt;Node3 -->
<g id="edge26" class="edge"><title>Node5&#45;&gt;Node3</title>
<path fill="none" stroke="midnightblue" d="M173.752,-203.526C169.286,-225.766 160.052,-279.182 164,-324 166.679,-354.408 173.561,-389.12 178.263,-410.549"/>
<polygon fill="midnightblue" stroke="midnightblue" points="174.881,-411.463 180.49,-420.452 181.711,-409.927 174.881,-411.463"/>
</g>
<!-- Node5&#45;&gt;Node4 -->
<g id="edge10" class="edge"><title>Node5&#45;&gt;Node4</title>
<path fill="none" stroke="midnightblue" d="M195.422,-203.475C208.466,-212.03 225.231,-224.286 237.605,-234.208"/>
<polygon fill="midnightblue" stroke="midnightblue" points="235.434,-236.955 245.371,-240.631 239.896,-231.56 235.434,-236.955"/>
</g>
<!-- Node5&#45;&gt;Node6 -->
<g id="edge12" class="edge"><title>Node5&#45;&gt;Node6</title>
<path fill="none" stroke="midnightblue" d="M170.994,-180.631C167.258,-172.892 162.041,-162.084 157.52,-152.719"/>
<polygon fill="midnightblue" stroke="midnightblue" points="160.651,-151.156 153.152,-143.672 154.348,-154.199 160.651,-151.156"/>
</g>
<!-- Node5&#45;&gt;Node8 -->
<g id="edge24" class="edge"><title>Node5&#45;&gt;Node8</title>
<path fill="none" stroke="midnightblue" d="M181.591,-180.528C192.119,-160.81 215.035,-117.887 228.513,-92.6415"/>
<polygon fill="midnightblue" stroke="midnightblue" points="231.709,-94.0878 233.331,-83.6179 225.534,-90.7909 231.709,-94.0878"/>
</g>
<!-- Node6&#45;&gt;Node7 -->
<g id="edge14" class="edge"><title>Node6&#45;&gt;Node7</title>
<path fill="none" stroke="midnightblue" d="M153.363,-120.383C161.22,-105.573 177.006,-78.4575 196,-60 208.893,-47.4709 225.643,-36.4973 239.946,-28.3114"/>
<polygon fill="midnightblue" stroke="midnightblue" points="241.868,-31.2479 248.926,-23.3463 238.481,-25.1219 241.868,-31.2479"/>
</g>
<!-- Node6&#45;&gt;Node8 -->
<g id="edge18" class="edge"><title>Node6&#45;&gt;Node8</title>
<path fill="none" stroke="midnightblue" d="M164.269,-120.631C178.03,-111.86 197.977,-99.1468 213.802,-89.0605"/>
<polygon fill="midnightblue" stroke="midnightblue" points="216.013,-91.8013 222.565,-83.475 212.251,-85.8983 216.013,-91.8013"/>
</g>
<!-- Node7&#45;&gt;Node4 -->
<g id="edge16" class="edge"><title>Node7&#45;&gt;Node4</title>
<path fill="none" stroke="midnightblue" d="M273.142,-23.3325C275.84,-32.7755 279.52,-47.1796 281,-60 288.355,-123.702 286.013,-141.425 272,-204 269.959,-213.113 266.485,-222.808 263.13,-231.012"/>
<polygon fill="midnightblue" stroke="midnightblue" points="259.807,-229.88 259.061,-240.449 266.235,-232.652 259.807,-229.88"/>
</g>
<!-- Node8&#45;&gt;Node4 -->
<g id="edge20" class="edge"><title>Node8&#45;&gt;Node4</title>
<path fill="none" stroke="midnightblue" d="M243.254,-83.368C249.733,-111.913 256.868,-192.065 256.774,-230.258"/>
<polygon fill="midnightblue" stroke="midnightblue" points="253.265,-230.573 256.504,-240.661 260.263,-230.755 253.265,-230.573"/>
</g>
<!-- Node8&#45;&gt;Node7 -->
<g id="edge22" class="edge"><title>Node8&#45;&gt;Node7</title>
<path fill="none" stroke="midnightblue" d="M244.542,-60.6308C248.678,-52.8921 254.455,-42.0841 259.46,-32.7193"/>
<polygon fill="midnightblue" stroke="midnightblue" points="262.669,-34.141 264.296,-23.6719 256.495,-30.8414 262.669,-34.141"/>
</g>
<!-- Node9&#45;&gt;Node4 -->
<g id="edge36" class="edge"><title>Node9&#45;&gt;Node4</title>
<path fill="none" stroke="midnightblue" d="M244.887,-360.528C246.536,-341.071 250.1,-299.023 252.249,-273.656"/>
<polygon fill="midnightblue" stroke="midnightblue" points="255.743,-273.878 253.1,-263.618 248.768,-273.287 255.743,-273.878"/>
</g>
<!-- Node9&#45;&gt;Node10 -->
<g id="edge38" class="edge"><title>Node9&#45;&gt;Node10</title>
<path fill="none" stroke="midnightblue" d="M236.67,-360.631C231.084,-352.729 223.237,-341.628 216.523,-332.13"/>
<polygon fill="midnightblue" stroke="midnightblue" points="219.174,-329.817 210.544,-323.672 213.458,-333.858 219.174,-329.817"/>
</g>
<!-- Node10&#45;&gt;Node4 -->
<g id="edge40" class="edge"><title>Node10&#45;&gt;Node4</title>
<path fill="none" stroke="midnightblue" d="M212.118,-300.631C219.281,-292.485 229.434,-280.938 237.95,-271.253"/>
<polygon fill="midnightblue" stroke="midnightblue" points="240.641,-273.493 244.616,-263.672 235.384,-268.87 240.641,-273.493"/>
</g>
</g>
</svg>
