<?xml version="1.0" encoding="UTF-8" standalone="no"?>
<!DOCTYPE svg PUBLIC "-//W3C//DTD SVG 1.1//EN"
 "http://www.w3.org/Graphics/SVG/1.1/DTD/svg11.dtd">
<!-- Generated by graphviz version 2.28.0 (20121015.0031)
 -->
<!-- Title: include/fae/system.h Pages: 1 -->
<svg width="856pt" height="212pt"
 viewBox="0.00 0.00 856.00 212.00" xmlns="http://www.w3.org/2000/svg" xmlns:xlink="http://www.w3.org/1999/xlink">
<g id="graph1" class="graph" transform="scale(1 1) rotate(0) translate(4 208)">
<title>include/fae/system.h</title>
<!-- Node1 -->
<g id="node1" class="node"><title>Node1</title>
<polygon fill="#bfbfbf" stroke="black" points="553.42,-180.695 553.42,-203.305 674.58,-203.305 674.58,-180.695 553.42,-180.695"/>
<text text-anchor="middle" x="614" y="-188.305" font-family="Futura" font-size="11.00">include/fae/system.h</text>
</g>
<!-- Node2 -->
<g id="node3" class="node"><title>Node2</title>
<a xlink:href="fae_2fae_8h.html" target="_top" xlink:title="include/fae/fae.h">
<polygon fill="none" stroke="red" points="494.761,-120.695 494.761,-143.305 599.239,-143.305 599.239,-120.695 494.761,-120.695"/>
<text text-anchor="middle" x="547" y="-128.305" font-family="Futura" font-size="11.00">include/fae/fae.h</text>
</a>
</g>
<!-- Node1&#45;&gt;Node2 -->
<g id="edge2" class="edge"><title>Node1&#45;&gt;Node2</title>
<path fill="none" stroke="midnightblue" d="M594.323,-173.966C582.998,-164.163 569.119,-152.148 559.328,-143.672"/>
<polygon fill="midnightblue" stroke="midnightblue" points="592.17,-176.732 602.022,-180.631 596.752,-171.439 592.17,-176.732"/>
</g>
<!-- Node10 -->
<g id="node23" class="node"><title>Node10</title>
<a xlink:href="gnuplot_8c.html" target="_top" xlink:title="src/fae/plot/gnuplot.c">
<polygon fill="none" stroke="black" points="616.891,-120.695 616.891,-143.305 745.109,-143.305 745.109,-120.695 616.891,-120.695"/>
<text text-anchor="middle" x="681" y="-128.305" font-family="Futura" font-size="11.00">src/fae/plot/gnuplot.c</text>
</a>
</g>
<!-- Node1&#45;&gt;Node10 -->
<g id="edge26" class="edge"><title>Node1&#45;&gt;Node10</title>
<path fill="none" stroke="midnightblue" d="M633.677,-173.966C645.002,-164.163 658.881,-152.148 668.672,-143.672"/>
<polygon fill="midnightblue" stroke="midnightblue" points="631.248,-171.439 625.978,-180.631 635.83,-176.732 631.248,-171.439"/>
</g>
<!-- Node3 -->
<g id="node5" class="node"><title>Node3</title>
<a xlink:href="atomic_8h.html" target="_top" xlink:title="include/fae/atomic.h">
<polygon fill="none" stroke="red" points="-0.668945,-60.6953 -0.668945,-83.3047 120.669,-83.3047 120.669,-60.6953 -0.668945,-60.6953"/>
<text text-anchor="middle" x="60" y="-68.3047" font-family="Futura" font-size="11.00">include/fae/atomic.h</text>
</a>
</g>
<!-- Node2&#45;&gt;Node3 -->
<g id="edge4" class="edge"><title>Node2&#45;&gt;Node3</title>
<path fill="none" stroke="midnightblue" d="M484.57,-125.485C401.11,-117.442 249.031,-101.53 120,-84 118.437,-83.7877 116.856,-83.5686 115.262,-83.344"/>
<polygon fill="midnightblue" stroke="midnightblue" points="484.36,-128.981 494.648,-126.45 485.027,-122.013 484.36,-128.981"/>
</g>
<!-- Node4 -->
<g id="node8" class="node"><title>Node4</title>
<a xlink:href="buffer_8h.html" target="_top" xlink:title="include/fae/buffer.h">
<polygon fill="none" stroke="red" points="138.184,-60.6953 138.184,-83.3047 255.816,-83.3047 255.816,-60.6953 138.184,-60.6953"/>
<text text-anchor="middle" x="197" y="-68.3047" font-family="Futura" font-size="11.00">include/fae/buffer.h</text>
</a>
</g>
<!-- Node2&#45;&gt;Node4 -->
<g id="edge8" class="edge"><title>Node2&#45;&gt;Node4</title>
<path fill="none" stroke="midnightblue" d="M484.526,-120.647C419.767,-109.916 319.313,-93.269 255.905,-82.7614"/>
<polygon fill="midnightblue" stroke="midnightblue" points="484.164,-124.135 494.601,-122.317 485.308,-117.229 484.164,-124.135"/>
</g>
<!-- Node5 -->
<g id="node10" class="node"><title>Node5</title>
<a xlink:href="device_8h.html" target="_top" xlink:title="include/fae/device.h">
<polygon fill="none" stroke="red" points="273.774,-60.6953 273.774,-83.3047 394.226,-83.3047 394.226,-60.6953 273.774,-60.6953"/>
<text text-anchor="middle" x="334" y="-68.3047" font-family="Futura" font-size="11.00">include/fae/device.h</text>
</a>
</g>
<!-- Node2&#45;&gt;Node5 -->
<g id="edge10" class="edge"><title>Node2&#45;&gt;Node5</title>
<path fill="none" stroke="midnightblue" d="M499.01,-117.932C460.648,-107.486 407.598,-93.0409 372.109,-83.3771"/>
<polygon fill="midnightblue" stroke="midnightblue" points="498.352,-121.38 508.92,-120.631 500.191,-114.626 498.352,-121.38"/>
</g>
<!-- Node6 -->
<g id="node12" class="node"><title>Node6</title>
<a xlink:href="dynamic_8h.html" target="_top" xlink:title="include/fae/dynamic.h">
<polygon fill="none" stroke="red" points="411.876,-60.6953 411.876,-83.3047 542.124,-83.3047 542.124,-60.6953 411.876,-60.6953"/>
<text text-anchor="middle" x="477" y="-68.3047" font-family="Futura" font-size="11.00">include/fae/dynamic.h</text>
</a>
</g>
<!-- Node2&#45;&gt;Node6 -->
<g id="edge12" class="edge"><title>Node2&#45;&gt;Node6</title>
<path fill="none" stroke="midnightblue" d="M526.442,-113.966C514.61,-104.163 500.109,-92.1477 489.88,-83.6719"/>
<polygon fill="midnightblue" stroke="midnightblue" points="524.552,-116.946 534.485,-120.631 529.018,-111.555 524.552,-116.946"/>
</g>
<!-- Node7 -->
<g id="node14" class="node"><title>Node7</title>
<a xlink:href="error_8h.html" target="_top" xlink:title="include/fae/error.h">
<polygon fill="none" stroke="red" points="560.555,-60.6953 560.555,-83.3047 673.445,-83.3047 673.445,-60.6953 560.555,-60.6953"/>
<text text-anchor="middle" x="617" y="-68.3047" font-family="Futura" font-size="11.00">include/fae/error.h</text>
</a>
</g>
<!-- Node2&#45;&gt;Node7 -->
<g id="edge14" class="edge"><title>Node2&#45;&gt;Node7</title>
<path fill="none" stroke="midnightblue" d="M561.718,-113.633C572.663,-103.816 587.387,-91.8659 599.023,-83.475"/>
<polygon fill="midnightblue" stroke="midnightblue" points="559.135,-111.256 554.199,-120.631 563.904,-116.38 559.135,-111.256"/>
</g>
<!-- Node8 -->
<g id="node17" class="node"><title>Node8</title>
<a xlink:href="graph_8h.html" target="_top" xlink:title="include/fae/graph.h">
<polygon fill="none" stroke="red" points="650.894,-0.695312 650.894,-23.3047 769.106,-23.3047 769.106,-0.695312 650.894,-0.695312"/>
<text text-anchor="middle" x="710" y="-8.30469" font-family="Futura" font-size="11.00">include/fae/graph.h</text>
</a>
</g>
<!-- Node2&#45;&gt;Node8 -->
<g id="edge18" class="edge"><title>Node2&#45;&gt;Node8</title>
<path fill="none" stroke="midnightblue" d="M591.103,-117.82C622.351,-108.602 660.643,-95.8651 673,-84 690.299,-67.3893 697.133,-38.7748 702.834,-23.4341"/>
<polygon fill="midnightblue" stroke="midnightblue" points="589.873,-114.532 581.247,-120.683 591.826,-121.254 589.873,-114.532"/>
</g>
<!-- Node9 -->
<g id="node20" class="node"><title>Node9</title>
<a xlink:href="list_8h.html" target="_top" xlink:title="include/fae/list.h">
<polygon fill="none" stroke="red" points="747.343,-60.6953 747.343,-83.3047 848.657,-83.3047 848.657,-60.6953 747.343,-60.6953"/>
<text text-anchor="middle" x="798" y="-68.3047" font-family="Futura" font-size="11.00">include/fae/list.h</text>
</a>
</g>
<!-- Node2&#45;&gt;Node9 -->
<g id="edge22" class="edge"><title>Node2&#45;&gt;Node9</title>
<path fill="none" stroke="midnightblue" d="M601.828,-118.33C647.158,-107.856 710.738,-93.1642 753.092,-83.3771"/>
<polygon fill="midnightblue" stroke="midnightblue" points="600.829,-114.969 591.874,-120.631 602.405,-121.789 600.829,-114.969"/>
</g>
<!-- Node3&#45;&gt;Node2 -->
<g id="edge6" class="edge"><title>Node3&#45;&gt;Node2</title>
<path fill="none" stroke="midnightblue" d="M130.89,-83.0079C133.292,-83.351 135.667,-83.6831 138,-84 265.9,-101.376 416.446,-117.163 494.436,-125.272"/>
<polygon fill="midnightblue" stroke="midnightblue" points="131.304,-79.5314 120.903,-81.5457 130.29,-86.4576 131.304,-79.5314"/>
</g>
<!-- Node7&#45;&gt;Node2 -->
<g id="edge16" class="edge"><title>Node7&#45;&gt;Node2</title>
<path fill="none" stroke="midnightblue" d="M601.939,-90.6745C590.984,-100.475 576.368,-112.322 564.83,-120.631"/>
<polygon fill="midnightblue" stroke="midnightblue" points="604.537,-93.0379 609.49,-83.6719 599.778,-87.9051 604.537,-93.0379"/>
</g>
<!-- Node8&#45;&gt;Node2 -->
<g id="edge20" class="edge"><title>Node8&#45;&gt;Node2</title>
<path fill="none" stroke="midnightblue" d="M713.98,-33.7535C712.065,-49.4944 704.921,-70.6336 691,-84 677.306,-97.1492 631.759,-111.369 595.404,-120.683"/>
<polygon fill="midnightblue" stroke="midnightblue" points="717.491,-33.5896 714.472,-23.4341 710.499,-33.2559 717.491,-33.5896"/>
</g>
<!-- Node9&#45;&gt;Node8 -->
<g id="edge24" class="edge"><title>Node9&#45;&gt;Node8</title>
<path fill="none" stroke="midnightblue" d="M773.816,-55.0608C758.545,-44.9957 739.248,-32.2772 725.893,-23.475"/>
<polygon fill="midnightblue" stroke="midnightblue" points="771.992,-58.0499 782.267,-60.6308 775.844,-52.2052 771.992,-58.0499"/>
</g>
</g>
</svg>
