<?xml version="1.0" encoding="UTF-8" standalone="no"?>
<!DOCTYPE svg PUBLIC "-//W3C//DTD SVG 1.1//EN"
 "http://www.w3.org/Graphics/SVG/1.1/DTD/svg11.dtd">
<!-- Generated by graphviz version 2.28.0 (20121015.0031)
 -->
<!-- Title: include/fa/system.h Pages: 1 -->
<svg width="573pt" height="272pt"
 viewBox="0.00 0.00 573.00 272.00" xmlns="http://www.w3.org/2000/svg" xmlns:xlink="http://www.w3.org/1999/xlink">
<g id="graph1" class="graph" transform="scale(1 1) rotate(0) translate(4 268)">
<title>include/fa/system.h</title>
<!-- Node1 -->
<g id="node1" class="node"><title>Node1</title>
<polygon fill="#bfbfbf" stroke="black" points="48.4624,-240.695 48.4624,-263.305 163.538,-263.305 163.538,-240.695 48.4624,-240.695"/>
<text text-anchor="middle" x="106" y="-248.305" font-family="Futura" font-size="11.00">include/fa/system.h</text>
</g>
<!-- Node2 -->
<g id="node3" class="node"><title>Node2</title>
<a xlink:href="directory_8h.html" target="_top" xlink:title="fa/system/directory.h">
<polygon fill="none" stroke="black" points="-0.984863,-180.695 -0.984863,-203.305 122.985,-203.305 122.985,-180.695 -0.984863,-180.695"/>
<text text-anchor="middle" x="61" y="-188.305" font-family="Futura" font-size="11.00">fa/system/directory.h</text>
</a>
</g>
<!-- Node1&#45;&gt;Node2 -->
<g id="edge2" class="edge"><title>Node1&#45;&gt;Node2</title>
<path fill="none" stroke="midnightblue" d="M97.9549,-240.631C91.7612,-232.648 83.0332,-221.398 75.6146,-211.837"/>
<polygon fill="midnightblue" stroke="midnightblue" points="78.1752,-209.427 69.2799,-203.672 72.6446,-213.718 78.1752,-209.427"/>
</g>
<!-- Node3 -->
<g id="node5" class="node"><title>Node3</title>
<polygon fill="none" stroke="#bfbfbf" points="87.2729,-120.695 87.2729,-143.305 122.727,-143.305 122.727,-120.695 87.2729,-120.695"/>
<text text-anchor="middle" x="105" y="-128.305" font-family="Futura" font-size="11.00">fa.h</text>
</g>
<!-- Node2&#45;&gt;Node3 -->
<g id="edge4" class="edge"><title>Node2&#45;&gt;Node3</title>
<path fill="none" stroke="midnightblue" d="M68.8663,-180.631C74.9224,-172.648 83.4564,-161.398 90.7102,-151.837"/>
<polygon fill="midnightblue" stroke="midnightblue" points="93.6486,-153.754 96.9041,-143.672 88.0718,-149.523 93.6486,-153.754"/>
</g>
<!-- Node4 -->
<g id="node7" class="node"><title>Node4</title>
<a xlink:href="string_8h.html" target="_top" xlink:title="fa/string.h">
<polygon fill="none" stroke="black" points="0.869629,-120.695 0.869629,-143.305 69.1304,-143.305 69.1304,-120.695 0.869629,-120.695"/>
<text text-anchor="middle" x="35" y="-128.305" font-family="Futura" font-size="11.00">fa/string.h</text>
</a>
</g>
<!-- Node2&#45;&gt;Node4 -->
<g id="edge6" class="edge"><title>Node2&#45;&gt;Node4</title>
<path fill="none" stroke="midnightblue" d="M56.3517,-180.631C52.9192,-172.974 48.1395,-162.311 43.9725,-153.016"/>
<polygon fill="midnightblue" stroke="midnightblue" points="47.0683,-151.365 39.7839,-143.672 40.6808,-154.229 47.0683,-151.365"/>
</g>
<!-- Node5 -->
<g id="node9" class="node"><title>Node5</title>
<a xlink:href="fa_2fa_8h.html" target="_top" xlink:title="fa.h">
<polygon fill="none" stroke="red" points="128.273,-60.6953 128.273,-83.3047 163.727,-83.3047 163.727,-60.6953 128.273,-60.6953"/>
<text text-anchor="middle" x="146" y="-68.3047" font-family="Futura" font-size="11.00">fa.h</text>
</a>
</g>
<!-- Node4&#45;&gt;Node5 -->
<g id="edge8" class="edge"><title>Node4&#45;&gt;Node5</title>
<path fill="none" stroke="midnightblue" d="M54.8446,-120.631C72.7434,-111.278 99.2222,-97.4424 119.036,-87.0894"/>
<polygon fill="midnightblue" stroke="midnightblue" points="120.918,-90.0549 128.16,-82.3217 117.676,-83.8508 120.918,-90.0549"/>
</g>
<!-- Node5&#45;&gt;Node1 -->
<g id="edge18" class="edge"><title>Node5&#45;&gt;Node1</title>
<path fill="none" stroke="midnightblue" d="M146.111,-83.4609C146.071,-106.023 144.456,-160.718 131,-204 128.002,-213.642 123.01,-223.614 118.272,-231.879"/>
<polygon fill="midnightblue" stroke="midnightblue" points="115.134,-230.304 112.961,-240.674 121.126,-233.923 115.134,-230.304"/>
</g>
<!-- Node6 -->
<g id="node11" class="node"><title>Node6</title>
<polygon fill="none" stroke="#bfbfbf" points="490.937,-0.695312 490.937,-23.3047 565.063,-23.3047 565.063,-0.695312 490.937,-0.695312"/>
<text text-anchor="middle" x="528" y="-8.30469" font-family="Futura" font-size="11.00">fa/atomic.h</text>
</g>
<!-- Node5&#45;&gt;Node6 -->
<g id="edge10" class="edge"><title>Node5&#45;&gt;Node6</title>
<path fill="none" stroke="midnightblue" d="M163.888,-69.0682C214.115,-63.5196 360.631,-46.4818 481,-24 481.1,-23.9812 481.201,-23.9624 481.302,-23.9435"/>
<polygon fill="midnightblue" stroke="midnightblue" points="481.753,-27.423 490.865,-22.0184 480.371,-20.5607 481.753,-27.423"/>
</g>
<!-- Node7 -->
<g id="node13" class="node"><title>Node7</title>
<polygon fill="none" stroke="#bfbfbf" points="85.6484,-0.695312 85.6484,-23.3047 196.352,-23.3047 196.352,-0.695312 85.6484,-0.695312"/>
<text text-anchor="middle" x="141" y="-8.30469" font-family="Futura" font-size="11.00">fa/atomic/queue.h</text>
</g>
<!-- Node5&#45;&gt;Node7 -->
<g id="edge12" class="edge"><title>Node5&#45;&gt;Node7</title>
<path fill="none" stroke="midnightblue" d="M145.106,-60.6308C144.467,-53.218 143.585,-42.9888 142.803,-33.9096"/>
<polygon fill="midnightblue" stroke="midnightblue" points="146.266,-33.3343 141.92,-23.6719 139.292,-33.9356 146.266,-33.3343"/>
</g>
<!-- Node8 -->
<g id="node15" class="node"><title>Node8</title>
<polygon fill="none" stroke="#bfbfbf" points="214.42,-0.695312 214.42,-23.3047 319.58,-23.3047 319.58,-0.695312 214.42,-0.695312"/>
<text text-anchor="middle" x="267" y="-8.30469" font-family="Futura" font-size="11.00">fa/atomic/stack.h</text>
</g>
<!-- Node5&#45;&gt;Node8 -->
<g id="edge14" class="edge"><title>Node5&#45;&gt;Node8</title>
<path fill="none" stroke="midnightblue" d="M163.854,-62.4419C182.836,-53.3431 213.214,-38.7818 236.097,-27.8132"/>
<polygon fill="midnightblue" stroke="midnightblue" points="237.885,-30.8375 245.389,-23.3588 234.859,-24.5252 237.885,-30.8375"/>
</g>
<!-- Node9 -->
<g id="node17" class="node"><title>Node9</title>
<polygon fill="none" stroke="#bfbfbf" points="337.526,-0.695312 337.526,-23.3047 472.474,-23.3047 472.474,-0.695312 337.526,-0.695312"/>
<text text-anchor="middle" x="405" y="-8.30469" font-family="Futura" font-size="11.00">fa/atomic/ring_buffer.h</text>
</g>
<!-- Node5&#45;&gt;Node9 -->
<g id="edge16" class="edge"><title>Node5&#45;&gt;Node9</title>
<path fill="none" stroke="midnightblue" d="M163.802,-67.0134C201.399,-58.594 290.256,-38.6955 348.981,-25.5448"/>
<polygon fill="midnightblue" stroke="midnightblue" points="349.861,-28.9345 358.855,-23.3337 348.331,-22.1036 349.861,-28.9345"/>
</g>
<!-- Node10 -->
<g id="node20" class="node"><title>Node10</title>
<a xlink:href="error_8h.html" target="_top" xlink:title="fa/error.h">
<polygon fill="none" stroke="black" points="2.16138,-0.695312 2.16138,-23.3047 67.8386,-23.3047 67.8386,-0.695312 2.16138,-0.695312"/>
<text text-anchor="middle" x="35" y="-8.30469" font-family="Futura" font-size="11.00">fa/error.h</text>
</a>
</g>
<!-- Node5&#45;&gt;Node10 -->
<g id="edge20" class="edge"><title>Node5&#45;&gt;Node10</title>
<path fill="none" stroke="midnightblue" d="M127.775,-63.8881C108.77,-55.1266 79.3273,-39.9927 58.6111,-28.5"/>
<polygon fill="midnightblue" stroke="midnightblue" points="60.2045,-25.3804 49.7758,-23.5118 56.7631,-31.476 60.2045,-25.3804"/>
</g>
<!-- Node10&#45;&gt;Node4 -->
<g id="edge24" class="edge"><title>Node10&#45;&gt;Node4</title>
<path fill="none" stroke="midnightblue" d="M35,-23.6179C35,-43.0995 35,-84.8736 35,-110.192"/>
<polygon fill="midnightblue" stroke="midnightblue" points="31.5001,-110.528 35,-120.528 38.5001,-110.528 31.5001,-110.528"/>
</g>
<!-- Node10&#45;&gt;Node5 -->
<g id="edge22" class="edge"><title>Node10&#45;&gt;Node5</title>
<path fill="none" stroke="midnightblue" d="M60.382,-23.475C79.1544,-32.4417 104.327,-45.4725 122.609,-55.6224"/>
<polygon fill="midnightblue" stroke="midnightblue" points="121.043,-58.7576 131.471,-60.6308 124.488,-52.6635 121.043,-58.7576"/>
</g>
</g>
</svg>
