<?xml version="1.0" encoding="UTF-8" standalone="no"?>
<!DOCTYPE svg PUBLIC "-//W3C//DTD SVG 1.1//EN"
 "http://www.w3.org/Graphics/SVG/1.1/DTD/svg11.dtd">
<!-- Generated by graphviz version 2.28.0 (20121015.0031)
 -->
<!-- Title: src/platform/osx/doremir/thread.c Pages: 1 -->
<svg width="539pt" height="226pt"
 viewBox="0.00 0.00 539.00 226.00" xmlns="http://www.w3.org/2000/svg" xmlns:xlink="http://www.w3.org/1999/xlink">
<g id="graph1" class="graph" transform="scale(1 1) rotate(0) translate(4 222)">
<title>src/platform/osx/doremir/thread.c</title>
<!-- Node1 -->
<g id="node1" class="node"><title>Node1</title>
<polygon fill="#bfbfbf" stroke="black" points="237.574,-180.391 237.574,-217.609 382.426,-217.609 382.426,-180.391 237.574,-180.391"/>
<text text-anchor="start" x="245.574" y="-202.609" font-family="Futura" font-size="11.00">src/platform/osx/doremir</text>
<text text-anchor="middle" x="310" y="-188" font-family="Futura" font-size="11.00">/thread.c</text>
</g>
<!-- Node2 -->
<g id="node3" class="node"><title>Node2</title>
<a xlink:href="thread_8h.html" target="_top" xlink:title="doremir/thread.h">
<polygon fill="none" stroke="black" points="39.7063,-120.695 39.7063,-143.305 142.294,-143.305 142.294,-120.695 39.7063,-120.695"/>
<text text-anchor="middle" x="91" y="-128.305" font-family="Futura" font-size="11.00">doremir/thread.h</text>
</a>
</g>
<!-- Node1&#45;&gt;Node2 -->
<g id="edge2" class="edge"><title>Node1&#45;&gt;Node2</title>
<path fill="none" stroke="midnightblue" d="M250.447,-180.324C214.289,-169.593 168.884,-156.116 135.784,-146.292"/>
<polygon fill="midnightblue" stroke="midnightblue" points="136.513,-142.858 125.931,-143.368 134.521,-149.568 136.513,-142.858"/>
</g>
<!-- Node5 -->
<g id="node10" class="node"><title>Node5</title>
<a xlink:href="util_8h.html" target="_top" xlink:title="doremir/util.h">
<polygon fill="none" stroke="red" points="221.754,-120.695 221.754,-143.305 306.246,-143.305 306.246,-120.695 221.754,-120.695"/>
<text text-anchor="middle" x="264" y="-128.305" font-family="Futura" font-size="11.00">doremir/util.h</text>
</a>
</g>
<!-- Node1&#45;&gt;Node5 -->
<g id="edge10" class="edge"><title>Node1&#45;&gt;Node5</title>
<path fill="none" stroke="midnightblue" d="M297.43,-180.238C291.206,-171.443 283.688,-160.82 277.359,-151.877"/>
<polygon fill="midnightblue" stroke="midnightblue" points="280.152,-149.765 271.519,-143.624 274.439,-153.809 280.152,-149.765"/>
</g>
<!-- Node9 -->
<g id="node18" class="node"><title>Node9</title>
<polygon fill="none" stroke="#bfbfbf" points="324.653,-120.695 324.653,-143.305 389.347,-143.305 389.347,-120.695 324.653,-120.695"/>
<text text-anchor="middle" x="357" y="-128.305" font-family="Futura" font-size="11.00">pthread.h</text>
</g>
<!-- Node1&#45;&gt;Node9 -->
<g id="edge18" class="edge"><title>Node1&#45;&gt;Node9</title>
<path fill="none" stroke="midnightblue" d="M322.843,-180.238C329.203,-171.443 336.884,-160.82 343.35,-151.877"/>
<polygon fill="midnightblue" stroke="midnightblue" points="346.295,-153.779 349.318,-143.624 340.622,-149.677 346.295,-153.779"/>
</g>
<!-- Node10 -->
<g id="node20" class="node"><title>Node10</title>
<polygon fill="none" stroke="#bfbfbf" points="406.871,-120.695 406.871,-143.305 461.129,-143.305 461.129,-120.695 406.871,-120.695"/>
<text text-anchor="middle" x="434" y="-128.305" font-family="Futura" font-size="11.00">unistd.h</text>
</g>
<!-- Node1&#45;&gt;Node10 -->
<g id="edge20" class="edge"><title>Node1&#45;&gt;Node10</title>
<path fill="none" stroke="midnightblue" d="M343.884,-180.238C363.057,-170.188 386.783,-157.751 405.076,-148.162"/>
<polygon fill="midnightblue" stroke="midnightblue" points="406.863,-151.177 414.094,-143.434 403.613,-144.977 406.863,-151.177"/>
</g>
<!-- Node3 -->
<g id="node5" class="node"><title>Node3</title>
<a xlink:href="doremir_8h.html" target="_top" xlink:title="doremir.h">
<polygon fill="none" stroke="red" points="-0.86377,-60.6953 -0.86377,-83.3047 62.8638,-83.3047 62.8638,-60.6953 -0.86377,-60.6953"/>
<text text-anchor="middle" x="31" y="-68.3047" font-family="Futura" font-size="11.00">doremir.h</text>
</a>
</g>
<!-- Node2&#45;&gt;Node3 -->
<g id="edge4" class="edge"><title>Node2&#45;&gt;Node3</title>
<path fill="none" stroke="midnightblue" d="M80.2732,-120.631C71.6778,-112.322 59.422,-100.475 49.284,-90.6745"/>
<polygon fill="midnightblue" stroke="midnightblue" points="51.6624,-88.1057 42.0399,-83.6719 46.7972,-93.1386 51.6624,-88.1057"/>
</g>
<!-- Node4 -->
<g id="node7" class="node"><title>Node4</title>
<a xlink:href="std_8h.html" target="_top" xlink:title="doremir/std.h">
<polygon fill="none" stroke="red" points="18.9607,-0.695312 18.9607,-23.3047 103.039,-23.3047 103.039,-0.695312 18.9607,-0.695312"/>
<text text-anchor="middle" x="61" y="-8.30469" font-family="Futura" font-size="11.00">doremir/std.h</text>
</a>
</g>
<!-- Node2&#45;&gt;Node4 -->
<g id="edge8" class="edge"><title>Node2&#45;&gt;Node4</title>
<path fill="none" stroke="midnightblue" d="M88.3377,-120.528C83.3689,-100.984 72.6047,-58.6453 66.1651,-33.3159"/>
<polygon fill="midnightblue" stroke="midnightblue" points="69.5556,-32.4471 63.6995,-23.6179 62.7714,-34.172 69.5556,-32.4471"/>
</g>
<!-- Node3&#45;&gt;Node4 -->
<g id="edge6" class="edge"><title>Node3&#45;&gt;Node4</title>
<path fill="none" stroke="midnightblue" d="M36.3634,-60.6308C40.3661,-52.8921 45.9565,-42.0841 50.8004,-32.7193"/>
<polygon fill="midnightblue" stroke="midnightblue" points="53.9946,-34.1621 55.4801,-23.6719 47.777,-30.9461 53.9946,-34.1621"/>
</g>
<!-- Node6 -->
<g id="node12" class="node"><title>Node6</title>
<a xlink:href="alignof_8h.html" target="_top" xlink:title="doremir/util/alignof.h">
<polygon fill="none" stroke="black" points="118.62,-60.6953 118.62,-83.3047 243.38,-83.3047 243.38,-60.6953 118.62,-60.6953"/>
<text text-anchor="middle" x="181" y="-68.3047" font-family="Futura" font-size="11.00">doremir/util/alignof.h</text>
</a>
</g>
<!-- Node5&#45;&gt;Node6 -->
<g id="edge12" class="edge"><title>Node5&#45;&gt;Node6</title>
<path fill="none" stroke="midnightblue" d="M249.161,-120.631C236.728,-111.942 218.757,-99.3841 204.389,-89.344"/>
<polygon fill="midnightblue" stroke="midnightblue" points="206.192,-86.3341 195.99,-83.475 202.182,-92.072 206.192,-86.3341"/>
</g>
<!-- Node7 -->
<g id="node14" class="node"><title>Node7</title>
<a xlink:href="minmax_8h.html" target="_top" xlink:title="doremir/util/minmax.h">
<polygon fill="none" stroke="red" points="261.45,-60.6953 261.45,-83.3047 390.55,-83.3047 390.55,-60.6953 261.45,-60.6953"/>
<text text-anchor="middle" x="326" y="-68.3047" font-family="Futura" font-size="11.00">doremir/util/minmax.h</text>
</a>
</g>
<!-- Node5&#45;&gt;Node7 -->
<g id="edge14" class="edge"><title>Node5&#45;&gt;Node7</title>
<path fill="none" stroke="midnightblue" d="M275.084,-120.631C283.966,-112.322 296.631,-100.475 307.107,-90.6745"/>
<polygon fill="midnightblue" stroke="midnightblue" points="309.68,-93.0594 314.592,-83.6719 304.898,-87.9475 309.68,-93.0594"/>
</g>
<!-- Node8 -->
<g id="node16" class="node"><title>Node8</title>
<a xlink:href="literals_8h.html" target="_top" xlink:title="doremir/util/literals.h">
<polygon fill="none" stroke="red" points="408.652,-60.6953 408.652,-83.3047 531.348,-83.3047 531.348,-60.6953 408.652,-60.6953"/>
<text text-anchor="middle" x="470" y="-68.3047" font-family="Futura" font-size="11.00">doremir/util/literals.h</text>
</a>
</g>
<!-- Node5&#45;&gt;Node8 -->
<g id="edge16" class="edge"><title>Node5&#45;&gt;Node8</title>
<path fill="none" stroke="midnightblue" d="M300.829,-120.631C334.997,-111.011 386.012,-96.6472 423.083,-86.2097"/>
<polygon fill="midnightblue" stroke="midnightblue" points="424.466,-89.4563 433.143,-83.3771 422.569,-82.7183 424.466,-89.4563"/>
</g>
</g>
</svg>
