<?xml version="1.0" encoding="UTF-8" standalone="no"?>
<!DOCTYPE svg PUBLIC "-//W3C//DTD SVG 1.1//EN"
 "http://www.w3.org/Graphics/SVG/1.1/DTD/svg11.dtd">
<!-- Generated by graphviz version 2.28.0 (20121015.0031)
 -->
<!-- Title: include/fae/thread.h Pages: 1 -->
<svg width="1168pt" height="106pt"
 viewBox="0.00 0.00 1168.00 106.00" xmlns="http://www.w3.org/2000/svg" xmlns:xlink="http://www.w3.org/1999/xlink">
<g id="graph1" class="graph" transform="scale(1 1) rotate(0) translate(4 102)">
<title>include/fae/thread.h</title>
<!-- Node1 -->
<g id="node1" class="node"><title>Node1</title>
<polygon fill="#bfbfbf" stroke="black" points="452.53,-74.6953 452.53,-97.3047 573.47,-97.3047 573.47,-74.6953 452.53,-74.6953"/>
<text text-anchor="middle" x="513" y="-82.3047" font-family="Futura" font-size="11.00">include/fae/thread.h</text>
</g>
<!-- Node2 -->
<g id="node3" class="node"><title>Node2</title>
<a xlink:href="fae_2fae_8h.html" target="_top" xlink:title="include/fae/fae.h">
<polygon fill="none" stroke="red" points="-0.239014,-7.69531 -0.239014,-30.3047 104.239,-30.3047 104.239,-7.69531 -0.239014,-7.69531"/>
<text text-anchor="middle" x="52" y="-15.3047" font-family="Futura" font-size="11.00">include/fae/fae.h</text>
</a>
</g>
<!-- Node1&#45;&gt;Node2 -->
<g id="edge2" class="edge"><title>Node1&#45;&gt;Node2</title>
<path fill="none" stroke="midnightblue" d="M442.231,-80.8151C360.053,-74.8775 221.05,-61.9651 104,-38 94.2644,-36.0067 83.8348,-33.1902 74.7935,-30.3757"/>
<polygon fill="midnightblue" stroke="midnightblue" points="441.989,-84.3066 452.211,-81.5219 442.483,-77.3241 441.989,-84.3066"/>
</g>
<!-- Node3 -->
<g id="node6" class="node"><title>Node3</title>
<a xlink:href="audio_8c.html" target="_top" xlink:title="src/fae/device/audio.c">
<polygon fill="none" stroke="black" points="121.904,-7.69531 121.904,-30.3047 254.096,-30.3047 254.096,-7.69531 121.904,-7.69531"/>
<text text-anchor="middle" x="188" y="-15.3047" font-family="Futura" font-size="11.00">src/fae/device/audio.c</text>
</a>
</g>
<!-- Node1&#45;&gt;Node3 -->
<g id="edge6" class="edge"><title>Node1&#45;&gt;Node3</title>
<path fill="none" stroke="midnightblue" d="M443.377,-72.8684C393.12,-63.8784 323.706,-50.9826 263,-38 252.132,-35.6757 240.427,-32.9664 229.57,-30.3661"/>
<polygon fill="midnightblue" stroke="midnightblue" points="443.023,-76.3605 453.482,-74.6696 444.251,-69.4691 443.023,-76.3605"/>
</g>
<!-- Node4 -->
<g id="node8" class="node"><title>Node4</title>
<a xlink:href="file_8c.html" target="_top" xlink:title="src/fae/device/file.c">
<polygon fill="none" stroke="black" points="271.84,-7.69531 271.84,-30.3047 390.16,-30.3047 390.16,-7.69531 271.84,-7.69531"/>
<text text-anchor="middle" x="331" y="-15.3047" font-family="Futura" font-size="11.00">src/fae/device/file.c</text>
</a>
</g>
<!-- Node1&#45;&gt;Node4 -->
<g id="edge8" class="edge"><title>Node1&#45;&gt;Node4</title>
<path fill="none" stroke="midnightblue" d="M474.08,-71.0999C439.824,-58.8657 390.725,-41.3305 359.868,-30.3101"/>
<polygon fill="midnightblue" stroke="midnightblue" points="473.164,-74.4893 483.759,-74.5566 475.518,-67.8971 473.164,-74.4893"/>
</g>
<!-- Node5 -->
<g id="node10" class="node"><title>Node5</title>
<a xlink:href="midi_8c.html" target="_top" xlink:title="src/fae/midi.c">
<polygon fill="none" stroke="black" points="407.677,-7.69531 407.677,-30.3047 494.323,-30.3047 494.323,-7.69531 407.677,-7.69531"/>
<text text-anchor="middle" x="451" y="-15.3047" font-family="Futura" font-size="11.00">src/fae/midi.c</text>
</a>
</g>
<!-- Node1&#45;&gt;Node5 -->
<g id="edge10" class="edge"><title>Node1&#45;&gt;Node5</title>
<path fill="none" stroke="midnightblue" d="M495.893,-67.0657C484.735,-55.3677 470.549,-40.4954 461.143,-30.6334"/>
<polygon fill="midnightblue" stroke="midnightblue" points="493.604,-69.7363 503.039,-74.5566 498.669,-64.9048 493.604,-69.7363"/>
</g>
<!-- Node6 -->
<g id="node12" class="node"><title>Node6</title>
<a xlink:href="gnuplot_8c.html" target="_top" xlink:title="src/fae/plot/gnuplot.c">
<polygon fill="none" stroke="black" points="511.891,-7.69531 511.891,-30.3047 640.109,-30.3047 640.109,-7.69531 511.891,-7.69531"/>
<text text-anchor="middle" x="576" y="-15.3047" font-family="Futura" font-size="11.00">src/fae/plot/gnuplot.c</text>
</a>
</g>
<!-- Node1&#45;&gt;Node6 -->
<g id="edge12" class="edge"><title>Node1&#45;&gt;Node6</title>
<path fill="none" stroke="midnightblue" d="M530.382,-67.0657C541.721,-55.3677 556.135,-40.4954 565.694,-30.6334"/>
<polygon fill="midnightblue" stroke="midnightblue" points="527.569,-64.94 523.122,-74.5566 532.595,-69.8118 527.569,-64.94"/>
</g>
<!-- Node7 -->
<g id="node14" class="node"><title>Node7</title>
<a xlink:href="plot_8c.html" target="_top" xlink:title="src/fae/plot.c">
<polygon fill="none" stroke="black" points="658.555,-7.69531 658.555,-30.3047 743.445,-30.3047 743.445,-7.69531 658.555,-7.69531"/>
<text text-anchor="middle" x="701" y="-15.3047" font-family="Futura" font-size="11.00">src/fae/plot.c</text>
</a>
</g>
<!-- Node1&#45;&gt;Node7 -->
<g id="edge14" class="edge"><title>Node1&#45;&gt;Node7</title>
<path fill="none" stroke="midnightblue" d="M552.517,-71.3495C579.658,-61.9722 616.514,-49.2361 649,-38 656.133,-35.5331 663.815,-32.8745 671.029,-30.3776"/>
<polygon fill="midnightblue" stroke="midnightblue" points="551.291,-68.0697 542.982,-74.6433 553.577,-74.6859 551.291,-68.0697"/>
</g>
<!-- Node8 -->
<g id="node16" class="node"><title>Node8</title>
<a xlink:href="device_8c.html" target="_top" xlink:title="src/platform/macosx\l/fae/device.c">
<polygon fill="none" stroke="black" points="761.597,-0.390625 761.597,-37.6094 882.403,-37.6094 882.403,-0.390625 761.597,-0.390625"/>
<text text-anchor="start" x="769.597" y="-22.6094" font-family="Futura" font-size="11.00">src/platform/macosx</text>
<text text-anchor="middle" x="822" y="-8" font-family="Futura" font-size="11.00">/fae/device.c</text>
</a>
</g>
<!-- Node1&#45;&gt;Node8 -->
<g id="edge16" class="edge"><title>Node1&#45;&gt;Node8</title>
<path fill="none" stroke="midnightblue" d="M580.621,-72.7755C628.6,-63.8401 694.439,-51.0492 752,-38 755.059,-37.3064 758.189,-36.5767 761.345,-35.8244"/>
<polygon fill="midnightblue" stroke="midnightblue" points="579.857,-69.3574 570.663,-74.6224 581.133,-76.24 579.857,-69.3574"/>
</g>
<!-- Node9 -->
<g id="node18" class="node"><title>Node9</title>
<a xlink:href="coreplot_8m.html" target="_top" xlink:title="src/platform/macosx\l/fae/plot/coreplot.m">
<polygon fill="none" stroke="black" points="900.339,-0.390625 900.339,-37.6094 1021.66,-37.6094 1021.66,-0.390625 900.339,-0.390625"/>
<text text-anchor="start" x="908.339" y="-22.6094" font-family="Futura" font-size="11.00">src/platform/macosx</text>
<text text-anchor="middle" x="961" y="-8" font-family="Futura" font-size="11.00">/fae/plot/coreplot.m</text>
</a>
</g>
<!-- Node1&#45;&gt;Node9 -->
<g id="edge18" class="edge"><title>Node1&#45;&gt;Node9</title>
<path fill="none" stroke="midnightblue" d="M583.571,-78.9479C659.817,-71.7766 784.677,-58.1942 891,-38 893.959,-37.4381 896.978,-36.8233 900.02,-36.1705"/>
<polygon fill="midnightblue" stroke="midnightblue" points="583.234,-75.4641 573.601,-79.8751 583.882,-82.434 583.234,-75.4641"/>
</g>
<!-- Node10 -->
<g id="node20" class="node"><title>Node10</title>
<a xlink:href="event_8c.html" target="_top" xlink:title="src/platform/macosx\l/fae/system/event.c">
<polygon fill="none" stroke="black" points="1039.6,-0.390625 1039.6,-37.6094 1160.4,-37.6094 1160.4,-0.390625 1039.6,-0.390625"/>
<text text-anchor="start" x="1047.6" y="-22.6094" font-family="Futura" font-size="11.00">src/platform/macosx</text>
<text text-anchor="middle" x="1100" y="-8" font-family="Futura" font-size="11.00">/fae/system/event.c</text>
</a>
</g>
<!-- Node1&#45;&gt;Node10 -->
<g id="edge20" class="edge"><title>Node1&#45;&gt;Node10</title>
<path fill="none" stroke="midnightblue" d="M583.793,-82.176C683.821,-77.3686 871.961,-65.3197 1030,-38 1033.09,-37.4656 1036.25,-36.864 1039.42,-36.2133"/>
<polygon fill="midnightblue" stroke="midnightblue" points="583.334,-78.6936 573.51,-82.6595 583.663,-85.6859 583.334,-78.6936"/>
</g>
<!-- Node2&#45;&gt;Node1 -->
<g id="edge4" class="edge"><title>Node2&#45;&gt;Node1</title>
<path fill="none" stroke="midnightblue" d="M101.831,-33.1177C108.605,-34.9499 115.459,-36.6608 122,-38 237.767,-61.7024 375.008,-74.5931 452.329,-80.6173"/>
<polygon fill="midnightblue" stroke="midnightblue" points="102.584,-29.6942 92.0113,-30.3757 100.702,-36.4363 102.584,-29.6942"/>
</g>
</g>
</svg>
