<?xml version="1.0" encoding="UTF-8" standalone="no"?>
<!DOCTYPE svg PUBLIC "-//W3C//DTD SVG 1.1//EN"
 "http://www.w3.org/Graphics/SVG/1.1/DTD/svg11.dtd">
<!-- Generated by graphviz version 2.28.0 (20121015.0031)
 -->
<!-- Title: include/fa/thread.h Pages: 1 -->
<svg width="746pt" height="272pt"
 viewBox="0.00 0.00 746.28 272.00" xmlns="http://www.w3.org/2000/svg" xmlns:xlink="http://www.w3.org/1999/xlink">
<g id="graph1" class="graph" transform="scale(1 1) rotate(0) translate(4 268)">
<title>include/fa/thread.h</title>
<!-- Node1 -->
<g id="node1" class="node"><title>Node1</title>
<polygon fill="#bfbfbf" stroke="black" points="610.573,-240.695 610.573,-263.305 725.427,-263.305 725.427,-240.695 610.573,-240.695"/>
<text text-anchor="middle" x="668" y="-248.305" font-family="Futura" font-size="11.00">include/fa/thread.h</text>
</g>
<!-- Node2 -->
<g id="node3" class="node"><title>Node2</title>
<a xlink:href="fa_2fa_8h.html" target="_top" xlink:title="fa.h">
<polygon fill="none" stroke="red" points="546.273,-180.695 546.273,-203.305 581.727,-203.305 581.727,-180.695 546.273,-180.695"/>
<text text-anchor="middle" x="564" y="-188.305" font-family="Futura" font-size="11.00">fa.h</text>
</a>
</g>
<!-- Node1&#45;&gt;Node2 -->
<g id="edge2" class="edge"><title>Node1&#45;&gt;Node2</title>
<path fill="none" stroke="midnightblue" d="M644.091,-240.631C626.609,-231.778 603.278,-218.909 586.209,-208.778"/>
<polygon fill="midnightblue" stroke="midnightblue" points="587.815,-205.659 577.448,-203.475 584.19,-211.648 587.815,-205.659"/>
</g>
<!-- Node4 -->
<g id="node8" class="node"><title>Node4</title>
<a xlink:href="std_8h.html" target="_top" xlink:title="fa/std.h">
<polygon fill="none" stroke="red" points="645.39,-60.6953 645.39,-83.3047 700.61,-83.3047 700.61,-60.6953 645.39,-60.6953"/>
<text text-anchor="middle" x="673" y="-68.3047" font-family="Futura" font-size="11.00">fa/std.h</text>
</a>
</g>
<!-- Node1&#45;&gt;Node4 -->
<g id="edge30" class="edge"><title>Node1&#45;&gt;Node4</title>
<path fill="none" stroke="midnightblue" d="M674.889,-240.644C686.712,-222.178 710.422,-181.936 719,-144 721.353,-133.596 723.029,-129.877 719,-120 714.197,-108.226 704.866,-97.8005 695.857,-89.7791"/>
<polygon fill="midnightblue" stroke="midnightblue" points="698.074,-87.0704 688.144,-83.3752 693.602,-92.456 698.074,-87.0704"/>
</g>
<!-- Node5 -->
<g id="node10" class="node"><title>Node5</title>
<a xlink:href="time_8h.html" target="_top" xlink:title="fa/time.h">
<polygon fill="none" stroke="red" points="605.157,-0.695312 605.157,-23.3047 666.843,-23.3047 666.843,-0.695312 605.157,-0.695312"/>
<text text-anchor="middle" x="636" y="-8.30469" font-family="Futura" font-size="11.00">fa/time.h</text>
</a>
</g>
<!-- Node1&#45;&gt;Node5 -->
<g id="edge32" class="edge"><title>Node1&#45;&gt;Node5</title>
<path fill="none" stroke="midnightblue" d="M682.031,-240.459C692.723,-231.752 707.081,-218.505 716,-204 736.049,-171.394 742.771,-157.479 735,-120 729.099,-91.5426 727.808,-82.1564 709,-60 697.877,-46.8973 682.181,-36.1425 668.191,-28.2434"/>
<polygon fill="midnightblue" stroke="midnightblue" points="669.775,-25.1212 659.31,-23.469 666.461,-31.2868 669.775,-25.1212"/>
</g>
<!-- Node2&#45;&gt;Node1 -->
<g id="edge26" class="edge"><title>Node2&#45;&gt;Node1</title>
<path fill="none" stroke="midnightblue" d="M581.834,-200.34C599.722,-209.101 626.89,-223.993 646.041,-235.37"/>
<polygon fill="midnightblue" stroke="midnightblue" points="644.357,-238.442 654.723,-240.631 647.984,-232.455 644.357,-238.442"/>
</g>
<!-- Node3 -->
<g id="node5" class="node"><title>Node3</title>
<a xlink:href="atomic_8h.html" target="_top" xlink:title="fa/atomic.h">
<polygon fill="none" stroke="black" points="635.937,-120.695 635.937,-143.305 710.063,-143.305 710.063,-120.695 635.937,-120.695"/>
<text text-anchor="middle" x="673" y="-128.305" font-family="Futura" font-size="11.00">fa/atomic.h</text>
</a>
</g>
<!-- Node2&#45;&gt;Node3 -->
<g id="edge4" class="edge"><title>Node2&#45;&gt;Node3</title>
<path fill="none" stroke="midnightblue" d="M578.171,-180.631C593.617,-171.532 618.466,-158.191 638.933,-147.941"/>
<polygon fill="midnightblue" stroke="midnightblue" points="640.562,-151.04 647.979,-143.475 637.463,-144.763 640.562,-151.04"/>
</g>
<!-- Node2&#45;&gt;Node5 -->
<g id="edge28" class="edge"><title>Node2&#45;&gt;Node5</title>
<path fill="none" stroke="midnightblue" d="M564.807,-180.661C572.359,-151.781 605.132,-69.9197 623.791,-32.3185"/>
<polygon fill="midnightblue" stroke="midnightblue" points="626.935,-33.8573 628.426,-23.368 620.719,-30.6379 626.935,-33.8573"/>
</g>
<!-- Node6 -->
<g id="node13" class="node"><title>Node6</title>
<a xlink:href="queue_8h.html" target="_top" xlink:title="fa/atomic/queue.h">
<polygon fill="none" stroke="red" points="-0.351562,-120.695 -0.351562,-143.305 110.352,-143.305 110.352,-120.695 -0.351562,-120.695"/>
<text text-anchor="middle" x="55" y="-128.305" font-family="Futura" font-size="11.00">fa/atomic/queue.h</text>
</a>
</g>
<!-- Node2&#45;&gt;Node6 -->
<g id="edge14" class="edge"><title>Node2&#45;&gt;Node6</title>
<path fill="none" stroke="midnightblue" d="M546.144,-189.534C487.017,-184.592 292.065,-167.595 120.436,-144.134"/>
<polygon fill="midnightblue" stroke="midnightblue" points="120.853,-140.659 110.469,-142.761 119.897,-147.593 120.853,-140.659"/>
</g>
<!-- Node7 -->
<g id="node15" class="node"><title>Node7</title>
<a xlink:href="stack_8h.html" target="_top" xlink:title="fa/atomic/stack.h">
<polygon fill="none" stroke="red" points="128.42,-120.695 128.42,-143.305 233.58,-143.305 233.58,-120.695 128.42,-120.695"/>
<text text-anchor="middle" x="181" y="-128.305" font-family="Futura" font-size="11.00">fa/atomic/stack.h</text>
</a>
</g>
<!-- Node2&#45;&gt;Node7 -->
<g id="edge16" class="edge"><title>Node2&#45;&gt;Node7</title>
<path fill="none" stroke="midnightblue" d="M546.224,-188.589C498.889,-182.13 365.649,-163.684 243.633,-144.066"/>
<polygon fill="midnightblue" stroke="midnightblue" points="244.177,-140.609 233.747,-142.47 243.061,-147.519 244.177,-140.609"/>
</g>
<!-- Node8 -->
<g id="node17" class="node"><title>Node8</title>
<a xlink:href="ring__buffer_8h.html" target="_top" xlink:title="fa/atomic/ring_buffer.h">
<polygon fill="none" stroke="red" points="251.526,-120.695 251.526,-143.305 386.474,-143.305 386.474,-120.695 251.526,-120.695"/>
<text text-anchor="middle" x="319" y="-128.305" font-family="Futura" font-size="11.00">fa/atomic/ring_buffer.h</text>
</a>
</g>
<!-- Node2&#45;&gt;Node8 -->
<g id="edge18" class="edge"><title>Node2&#45;&gt;Node8</title>
<path fill="none" stroke="midnightblue" d="M545.985,-186.735C509.885,-178.189 427.451,-158.674 372.502,-145.666"/>
<polygon fill="midnightblue" stroke="midnightblue" points="373.117,-142.215 362.579,-143.317 371.504,-149.026 373.117,-142.215"/>
</g>
<!-- Node9 -->
<g id="node19" class="node"><title>Node9</title>
<a xlink:href="system_8h.html" target="_top" xlink:title="fa/system.h">
<polygon fill="none" stroke="red" points="404.026,-120.695 404.026,-143.305 477.974,-143.305 477.974,-120.695 404.026,-120.695"/>
<text text-anchor="middle" x="441" y="-128.305" font-family="Futura" font-size="11.00">fa/system.h</text>
</a>
</g>
<!-- Node2&#45;&gt;Node9 -->
<g id="edge20" class="edge"><title>Node2&#45;&gt;Node9</title>
<path fill="none" stroke="midnightblue" d="M546.115,-182.566C526.79,-173.454 495.628,-158.759 472.241,-147.732"/>
<polygon fill="midnightblue" stroke="midnightblue" points="473.606,-144.506 463.069,-143.406 470.621,-150.837 473.606,-144.506"/>
</g>
<!-- Node10 -->
<g id="node21" class="node"><title>Node10</title>
<a xlink:href="error_8h.html" target="_top" xlink:title="fa/error.h">
<polygon fill="none" stroke="red" points="496.161,-120.695 496.161,-143.305 561.839,-143.305 561.839,-120.695 496.161,-120.695"/>
<text text-anchor="middle" x="529" y="-128.305" font-family="Futura" font-size="11.00">fa/error.h</text>
</a>
</g>
<!-- Node2&#45;&gt;Node10 -->
<g id="edge22" class="edge"><title>Node2&#45;&gt;Node10</title>
<path fill="none" stroke="midnightblue" d="M552.427,-180.631C546.351,-172.892 539.457,-162.084 534.467,-152.719"/>
<polygon fill="midnightblue" stroke="midnightblue" points="537.589,-151.136 530.07,-143.672 531.293,-154.196 537.589,-151.136"/>
</g>
<!-- Node3&#45;&gt;Node2 -->
<g id="edge6" class="edge"><title>Node3&#45;&gt;Node2</title>
<path fill="none" stroke="midnightblue" d="M658.587,-143.512C641.343,-153.654 612.616,-168.972 591.224,-179.45"/>
<polygon fill="midnightblue" stroke="midnightblue" points="589.48,-176.405 581.98,-183.888 592.51,-182.716 589.48,-176.405"/>
</g>
<!-- Node3&#45;&gt;Node4 -->
<g id="edge8" class="edge"><title>Node3&#45;&gt;Node4</title>
<path fill="none" stroke="midnightblue" d="M673,-120.631C673,-113.218 673,-102.989 673,-93.9096"/>
<polygon fill="midnightblue" stroke="midnightblue" points="676.5,-93.6718 673,-83.6719 669.5,-93.6719 676.5,-93.6718"/>
</g>
<!-- Node4&#45;&gt;Node5 -->
<g id="edge10" class="edge"><title>Node4&#45;&gt;Node5</title>
<path fill="none" stroke="midnightblue" d="M666.385,-60.6308C661.344,-52.7292 654.262,-41.6276 648.203,-32.1298"/>
<polygon fill="midnightblue" stroke="midnightblue" points="651.137,-30.2201 642.808,-23.6719 645.235,-33.9849 651.137,-30.2201"/>
</g>
<!-- Node5&#45;&gt;Node2 -->
<g id="edge12" class="edge"><title>Node5&#45;&gt;Node2</title>
<path fill="none" stroke="midnightblue" d="M635.186,-23.368C627.617,-52.2822 594.84,-134.147 576.191,-171.719"/>
<polygon fill="midnightblue" stroke="midnightblue" points="573.051,-170.171 571.558,-180.661 579.266,-173.392 573.051,-170.171"/>
</g>
<!-- Node10&#45;&gt;Node2 -->
<g id="edge24" class="edge"><title>Node10&#45;&gt;Node2</title>
<path fill="none" stroke="midnightblue" d="M540.81,-143.672C546.842,-151.407 553.641,-162.09 558.57,-171.349"/>
<polygon fill="midnightblue" stroke="midnightblue" points="555.554,-173.152 563.059,-180.631 561.856,-170.104 555.554,-173.152"/>
</g>
</g>
</svg>
