<?xml version="1.0" encoding="UTF-8" standalone="no"?>
<!DOCTYPE svg PUBLIC "-//W3C//DTD SVG 1.1//EN"
 "http://www.w3.org/Graphics/SVG/1.1/DTD/svg11.dtd">
<!-- Generated by graphviz version 2.28.0 (20121015.0031)
 -->
<!-- Title: include/fa/thread.h Pages: 1 -->
<svg width="740pt" height="152pt"
 viewBox="0.00 0.00 740.00 152.00" xmlns="http://www.w3.org/2000/svg" xmlns:xlink="http://www.w3.org/1999/xlink">
<g id="graph1" class="graph" transform="scale(1 1) rotate(0) translate(4 148)">
<title>include/fa/thread.h</title>
<!-- Node1 -->
<g id="node1" class="node"><title>Node1</title>
<polygon fill="#bfbfbf" stroke="black" points="475.573,-120.695 475.573,-143.305 590.427,-143.305 590.427,-120.695 475.573,-120.695"/>
<text text-anchor="middle" x="533" y="-128.305" font-family="Futura" font-size="11.00">include/fa/thread.h</text>
</g>
<!-- Node2 -->
<g id="node3" class="node"><title>Node2</title>
<a xlink:href="fa_2fa_8h.html" target="_top" xlink:title="fa.h">
<polygon fill="none" stroke="red" points="515.273,-60.6953 515.273,-83.3047 550.727,-83.3047 550.727,-60.6953 515.273,-60.6953"/>
<text text-anchor="middle" x="533" y="-68.3047" font-family="Futura" font-size="11.00">fa.h</text>
</a>
</g>
<!-- Node1&#45;&gt;Node2 -->
<g id="edge2" class="edge"><title>Node1&#45;&gt;Node2</title>
<path fill="none" stroke="midnightblue" d="M527.684,-120.631C526.323,-113.137 525.931,-102.764 526.508,-93.6107"/>
<polygon fill="midnightblue" stroke="midnightblue" points="529.986,-94.0015 527.63,-83.6719 523.03,-93.2159 529.986,-94.0015"/>
</g>
<!-- Node10 -->
<g id="node22" class="node"><title>Node10</title>
<a xlink:href="std_8h.html" target="_top" xlink:title="fa/std.h">
<polygon fill="none" stroke="red" points="568.39,-60.6953 568.39,-83.3047 623.61,-83.3047 623.61,-60.6953 568.39,-60.6953"/>
<text text-anchor="middle" x="596" y="-68.3047" font-family="Futura" font-size="11.00">fa/std.h</text>
</a>
</g>
<!-- Node1&#45;&gt;Node10 -->
<g id="edge24" class="edge"><title>Node1&#45;&gt;Node10</title>
<path fill="none" stroke="midnightblue" d="M544.263,-120.631C553.288,-112.322 566.157,-100.475 576.802,-90.6745"/>
<polygon fill="midnightblue" stroke="midnightblue" points="579.422,-93.0199 584.408,-83.6719 574.681,-87.87 579.422,-93.0199"/>
</g>
<!-- Node2&#45;&gt;Node1 -->
<g id="edge22" class="edge"><title>Node2&#45;&gt;Node1</title>
<path fill="none" stroke="midnightblue" d="M538.37,-83.6719C539.691,-91.1602 540.064,-101.411 539.488,-110.459"/>
<polygon fill="midnightblue" stroke="midnightblue" points="535.984,-110.296 538.316,-120.631 542.938,-111.097 535.984,-110.296"/>
</g>
<!-- Node3 -->
<g id="node5" class="node"><title>Node3</title>
<polygon fill="none" stroke="#bfbfbf" points="-0.0629883,-0.695312 -0.0629883,-23.3047 74.063,-23.3047 74.063,-0.695312 -0.0629883,-0.695312"/>
<text text-anchor="middle" x="37" y="-8.30469" font-family="Futura" font-size="11.00">fa/atomic.h</text>
</g>
<!-- Node2&#45;&gt;Node3 -->
<g id="edge4" class="edge"><title>Node2&#45;&gt;Node3</title>
<path fill="none" stroke="midnightblue" d="M514.879,-69.9604C454.887,-66.3408 257.193,-52.9931 84.1215,-24.0101"/>
<polygon fill="midnightblue" stroke="midnightblue" points="84.5159,-20.5271 74.0712,-22.3045 83.3446,-27.4284 84.5159,-20.5271"/>
</g>
<!-- Node4 -->
<g id="node7" class="node"><title>Node4</title>
<polygon fill="none" stroke="#bfbfbf" points="91.6484,-0.695312 91.6484,-23.3047 202.352,-23.3047 202.352,-0.695312 91.6484,-0.695312"/>
<text text-anchor="middle" x="147" y="-8.30469" font-family="Futura" font-size="11.00">fa/atomic/queue.h</text>
</g>
<!-- Node2&#45;&gt;Node4 -->
<g id="edge6" class="edge"><title>Node2&#45;&gt;Node4</title>
<path fill="none" stroke="midnightblue" d="M515.173,-68.5592C467.751,-62.0321 334.344,-43.4501 212.716,-24.2462"/>
<polygon fill="midnightblue" stroke="midnightblue" points="212.913,-20.7338 202.489,-22.6254 211.818,-27.6476 212.913,-20.7338"/>
</g>
<!-- Node5 -->
<g id="node9" class="node"><title>Node5</title>
<polygon fill="none" stroke="#bfbfbf" points="220.42,-0.695312 220.42,-23.3047 325.58,-23.3047 325.58,-0.695312 220.42,-0.695312"/>
<text text-anchor="middle" x="273" y="-8.30469" font-family="Futura" font-size="11.00">fa/atomic/stack.h</text>
</g>
<!-- Node2&#45;&gt;Node5 -->
<g id="edge8" class="edge"><title>Node2&#45;&gt;Node5</title>
<path fill="none" stroke="midnightblue" d="M515.129,-67.0134C477.387,-58.594 388.187,-38.6955 329.235,-25.5448"/>
<polygon fill="midnightblue" stroke="midnightblue" points="329.846,-22.095 319.324,-23.3337 328.322,-28.9271 329.846,-22.095"/>
</g>
<!-- Node6 -->
<g id="node11" class="node"><title>Node6</title>
<polygon fill="none" stroke="#bfbfbf" points="343.526,-0.695312 343.526,-23.3047 478.474,-23.3047 478.474,-0.695312 343.526,-0.695312"/>
<text text-anchor="middle" x="411" y="-8.30469" font-family="Futura" font-size="11.00">fa/atomic/ring_buffer.h</text>
</g>
<!-- Node2&#45;&gt;Node6 -->
<g id="edge10" class="edge"><title>Node2&#45;&gt;Node6</title>
<path fill="none" stroke="midnightblue" d="M515.26,-62.5663C496.092,-53.4538 465.184,-38.7595 441.987,-27.7316"/>
<polygon fill="midnightblue" stroke="midnightblue" points="443.423,-24.539 432.889,-23.4064 440.418,-30.861 443.423,-24.539"/>
</g>
<!-- Node7 -->
<g id="node13" class="node"><title>Node7</title>
<a xlink:href="system_8h.html" target="_top" xlink:title="fa/system.h">
<polygon fill="none" stroke="red" points="496.026,-0.695312 496.026,-23.3047 569.974,-23.3047 569.974,-0.695312 496.026,-0.695312"/>
<text text-anchor="middle" x="533" y="-8.30469" font-family="Futura" font-size="11.00">fa/system.h</text>
</a>
</g>
<!-- Node2&#45;&gt;Node7 -->
<g id="edge12" class="edge"><title>Node2&#45;&gt;Node7</title>
<path fill="none" stroke="midnightblue" d="M533,-60.6308C533,-53.218 533,-42.9888 533,-33.9096"/>
<polygon fill="midnightblue" stroke="midnightblue" points="536.5,-33.6718 533,-23.6719 529.5,-33.6719 536.5,-33.6718"/>
</g>
<!-- Node8 -->
<g id="node15" class="node"><title>Node8</title>
<a xlink:href="error_8h.html" target="_top" xlink:title="fa/error.h">
<polygon fill="none" stroke="red" points="588.161,-0.695312 588.161,-23.3047 653.839,-23.3047 653.839,-0.695312 588.161,-0.695312"/>
<text text-anchor="middle" x="621" y="-8.30469" font-family="Futura" font-size="11.00">fa/error.h</text>
</a>
</g>
<!-- Node2&#45;&gt;Node8 -->
<g id="edge14" class="edge"><title>Node2&#45;&gt;Node8</title>
<path fill="none" stroke="midnightblue" d="M543.417,-60.6308C555.24,-51.7782 574.51,-38.9089 590.977,-28.7784"/>
<polygon fill="midnightblue" stroke="midnightblue" points="593.016,-31.6362 599.772,-23.475 589.401,-25.6418 593.016,-31.6362"/>
</g>
<!-- Node9 -->
<g id="node18" class="node"><title>Node9</title>
<a xlink:href="pair_8h.html" target="_top" xlink:title="fa/pair.h">
<polygon fill="none" stroke="red" points="671.694,-0.695312 671.694,-23.3047 732.306,-23.3047 732.306,-0.695312 671.694,-0.695312"/>
<text text-anchor="middle" x="702" y="-8.30469" font-family="Futura" font-size="11.00">fa/pair.h</text>
</a>
</g>
<!-- Node2&#45;&gt;Node9 -->
<g id="edge18" class="edge"><title>Node2&#45;&gt;Node9</title>
<path fill="none" stroke="midnightblue" d="M548.334,-60.6332C548.893,-60.418 549.449,-60.2066 550,-60 587.313,-46.0025 630.915,-32.0036 661.975,-22.9719"/>
<polygon fill="midnightblue" stroke="midnightblue" points="662.943,-26.3355 671.595,-20.2204 661.018,-19.6053 662.943,-26.3355"/>
</g>
<!-- Node8&#45;&gt;Node2 -->
<g id="edge16" class="edge"><title>Node8&#45;&gt;Node2</title>
<path fill="none" stroke="midnightblue" d="M610.597,-23.3588C598.033,-32.7676 577.046,-46.7199 559.956,-57.0965"/>
<polygon fill="midnightblue" stroke="midnightblue" points="557.757,-54.3312 550.94,-62.4419 561.327,-60.3524 557.757,-54.3312"/>
</g>
<!-- Node9&#45;&gt;Node2 -->
<g id="edge20" class="edge"><title>Node9&#45;&gt;Node2</title>
<path fill="none" stroke="midnightblue" d="M675.092,-23.3291C647.774,-32.3701 604.824,-46.1857 568,-60 565.546,-60.9205 562.983,-61.9363 560.382,-62.9675"/>
<polygon fill="midnightblue" stroke="midnightblue" points="558.983,-59.756 550.918,-66.6277 561.508,-66.2847 558.983,-59.756"/>
</g>
</g>
</svg>
