<?xml version="1.0" encoding="UTF-8" standalone="no"?>
<!DOCTYPE svg PUBLIC "-//W3C//DTD SVG 1.1//EN"
 "http://www.w3.org/Graphics/SVG/1.1/DTD/svg11.dtd">
<!-- Generated by graphviz version 2.28.0 (20121015.0031)
 -->
<!-- Title: include/fae/thread.h Pages: 1 -->
<svg width="1130pt" height="106pt"
 viewBox="0.00 0.00 1130.00 106.00" xmlns="http://www.w3.org/2000/svg" xmlns:xlink="http://www.w3.org/1999/xlink">
<g id="graph1" class="graph" transform="scale(1 1) rotate(0) translate(4 102)">
<title>include/fae/thread.h</title>
<!-- Node1 -->
<g id="node1" class="node"><title>Node1</title>
<polygon fill="#bfbfbf" stroke="black" points="414.53,-74.6953 414.53,-97.3047 535.47,-97.3047 535.47,-74.6953 414.53,-74.6953"/>
<text text-anchor="middle" x="475" y="-82.3047" font-family="Futura" font-size="11.00">include/fae/thread.h</text>
</g>
<!-- Node2 -->
<g id="node3" class="node"><title>Node2</title>
<a xlink:href="fae_2fae_8h.html" target="_top" xlink:title="include/fae/fae.h">
<polygon fill="none" stroke="red" points="-0.239014,-7.69531 -0.239014,-30.3047 104.239,-30.3047 104.239,-7.69531 -0.239014,-7.69531"/>
<text text-anchor="middle" x="52" y="-15.3047" font-family="Futura" font-size="11.00">include/fae/fae.h</text>
</a>
</g>
<!-- Node1&#45;&gt;Node2 -->
<g id="edge2" class="edge"><title>Node1&#45;&gt;Node2</title>
<path fill="none" stroke="midnightblue" d="M404.104,-79.7357C328.855,-73.0685 207.048,-59.7512 104,-38 94.3847,-35.9704 84.0823,-33.1765 75.1109,-30.3949"/>
<polygon fill="midnightblue" stroke="midnightblue" points="404.14,-83.252 414.406,-80.6325 404.747,-76.2784 404.14,-83.252"/>
</g>
<!-- Node3 -->
<g id="node6" class="node"><title>Node3</title>
<a xlink:href="audio_8c.html" target="_top" xlink:title="src/fae/audio.c">
<polygon fill="none" stroke="black" points="121.796,-7.69531 121.796,-30.3047 216.204,-30.3047 216.204,-7.69531 121.796,-7.69531"/>
<text text-anchor="middle" x="169" y="-15.3047" font-family="Futura" font-size="11.00">src/fae/audio.c</text>
</a>
</g>
<!-- Node1&#45;&gt;Node3 -->
<g id="edge6" class="edge"><title>Node1&#45;&gt;Node3</title>
<path fill="none" stroke="midnightblue" d="M404.295,-74.1345C353.946,-65.8083 284.872,-53.1869 225,-38 216.388,-35.8156 207.162,-33.037 198.734,-30.3204"/>
<polygon fill="midnightblue" stroke="midnightblue" points="403.992,-77.6313 414.426,-75.7936 405.123,-70.7233 403.992,-77.6313"/>
</g>
<!-- Node4 -->
<g id="node8" class="node"><title>Node4</title>
<a xlink:href="file_8c.html" target="_top" xlink:title="src/fae/device/file.c">
<polygon fill="none" stroke="black" points="233.84,-7.69531 233.84,-30.3047 352.16,-30.3047 352.16,-7.69531 233.84,-7.69531"/>
<text text-anchor="middle" x="293" y="-15.3047" font-family="Futura" font-size="11.00">src/fae/device/file.c</text>
</a>
</g>
<!-- Node1&#45;&gt;Node4 -->
<g id="edge8" class="edge"><title>Node1&#45;&gt;Node4</title>
<path fill="none" stroke="midnightblue" d="M436.08,-71.0999C401.824,-58.8657 352.725,-41.3305 321.868,-30.3101"/>
<polygon fill="midnightblue" stroke="midnightblue" points="435.164,-74.4893 445.759,-74.5566 437.518,-67.8971 435.164,-74.4893"/>
</g>
<!-- Node5 -->
<g id="node10" class="node"><title>Node5</title>
<a xlink:href="midi_8c.html" target="_top" xlink:title="src/fae/midi.c">
<polygon fill="none" stroke="black" points="369.677,-7.69531 369.677,-30.3047 456.323,-30.3047 456.323,-7.69531 369.677,-7.69531"/>
<text text-anchor="middle" x="413" y="-15.3047" font-family="Futura" font-size="11.00">src/fae/midi.c</text>
</a>
</g>
<!-- Node1&#45;&gt;Node5 -->
<g id="edge10" class="edge"><title>Node1&#45;&gt;Node5</title>
<path fill="none" stroke="midnightblue" d="M457.893,-67.0657C446.735,-55.3677 432.549,-40.4954 423.143,-30.6334"/>
<polygon fill="midnightblue" stroke="midnightblue" points="455.604,-69.7363 465.039,-74.5566 460.669,-64.9048 455.604,-69.7363"/>
</g>
<!-- Node6 -->
<g id="node12" class="node"><title>Node6</title>
<a xlink:href="gnuplot_8c.html" target="_top" xlink:title="src/fae/plot/gnuplot.c">
<polygon fill="none" stroke="black" points="473.891,-7.69531 473.891,-30.3047 602.109,-30.3047 602.109,-7.69531 473.891,-7.69531"/>
<text text-anchor="middle" x="538" y="-15.3047" font-family="Futura" font-size="11.00">src/fae/plot/gnuplot.c</text>
</a>
</g>
<!-- Node1&#45;&gt;Node6 -->
<g id="edge12" class="edge"><title>Node1&#45;&gt;Node6</title>
<path fill="none" stroke="midnightblue" d="M492.382,-67.0657C503.721,-55.3677 518.135,-40.4954 527.694,-30.6334"/>
<polygon fill="midnightblue" stroke="midnightblue" points="489.569,-64.94 485.122,-74.5566 494.595,-69.8118 489.569,-64.94"/>
</g>
<!-- Node7 -->
<g id="node14" class="node"><title>Node7</title>
<a xlink:href="plot_8c.html" target="_top" xlink:title="src/fae/plot.c">
<polygon fill="none" stroke="black" points="620.555,-7.69531 620.555,-30.3047 705.445,-30.3047 705.445,-7.69531 620.555,-7.69531"/>
<text text-anchor="middle" x="663" y="-15.3047" font-family="Futura" font-size="11.00">src/fae/plot.c</text>
</a>
</g>
<!-- Node1&#45;&gt;Node7 -->
<g id="edge14" class="edge"><title>Node1&#45;&gt;Node7</title>
<path fill="none" stroke="midnightblue" d="M514.517,-71.3495C541.658,-61.9722 578.514,-49.2361 611,-38 618.133,-35.5331 625.815,-32.8745 633.029,-30.3776"/>
<polygon fill="midnightblue" stroke="midnightblue" points="513.291,-68.0697 504.982,-74.6433 515.577,-74.6859 513.291,-68.0697"/>
</g>
<!-- Node8 -->
<g id="node16" class="node"><title>Node8</title>
<a xlink:href="device_8c.html" target="_top" xlink:title="src/platform/macosx\l/fae/device.c">
<polygon fill="none" stroke="black" points="723.597,-0.390625 723.597,-37.6094 844.403,-37.6094 844.403,-0.390625 723.597,-0.390625"/>
<text text-anchor="start" x="731.597" y="-22.6094" font-family="Futura" font-size="11.00">src/platform/macosx</text>
<text text-anchor="middle" x="784" y="-8" font-family="Futura" font-size="11.00">/fae/device.c</text>
</a>
</g>
<!-- Node1&#45;&gt;Node8 -->
<g id="edge16" class="edge"><title>Node1&#45;&gt;Node8</title>
<path fill="none" stroke="midnightblue" d="M542.621,-72.7755C590.6,-63.8401 656.439,-51.0492 714,-38 717.059,-37.3064 720.189,-36.5767 723.345,-35.8244"/>
<polygon fill="midnightblue" stroke="midnightblue" points="541.857,-69.3574 532.663,-74.6224 543.133,-76.24 541.857,-69.3574"/>
</g>
<!-- Node9 -->
<g id="node18" class="node"><title>Node9</title>
<a xlink:href="coreplot_8m.html" target="_top" xlink:title="src/platform/macosx\l/fae/plot/coreplot.m">
<polygon fill="none" stroke="black" points="862.339,-0.390625 862.339,-37.6094 983.661,-37.6094 983.661,-0.390625 862.339,-0.390625"/>
<text text-anchor="start" x="870.339" y="-22.6094" font-family="Futura" font-size="11.00">src/platform/macosx</text>
<text text-anchor="middle" x="923" y="-8" font-family="Futura" font-size="11.00">/fae/plot/coreplot.m</text>
</a>
</g>
<!-- Node1&#45;&gt;Node9 -->
<g id="edge18" class="edge"><title>Node1&#45;&gt;Node9</title>
<path fill="none" stroke="midnightblue" d="M545.571,-78.9479C621.817,-71.7766 746.677,-58.1942 853,-38 855.959,-37.4381 858.978,-36.8233 862.02,-36.1705"/>
<polygon fill="midnightblue" stroke="midnightblue" points="545.234,-75.4641 535.601,-79.8751 545.882,-82.434 545.234,-75.4641"/>
</g>
<!-- Node10 -->
<g id="node20" class="node"><title>Node10</title>
<a xlink:href="event_8c.html" target="_top" xlink:title="src/platform/macosx\l/fae/system/event.c">
<polygon fill="none" stroke="black" points="1001.6,-0.390625 1001.6,-37.6094 1122.4,-37.6094 1122.4,-0.390625 1001.6,-0.390625"/>
<text text-anchor="start" x="1009.6" y="-22.6094" font-family="Futura" font-size="11.00">src/platform/macosx</text>
<text text-anchor="middle" x="1062" y="-8" font-family="Futura" font-size="11.00">/fae/system/event.c</text>
</a>
</g>
<!-- Node1&#45;&gt;Node10 -->
<g id="edge20" class="edge"><title>Node1&#45;&gt;Node10</title>
<path fill="none" stroke="midnightblue" d="M545.793,-82.176C645.821,-77.3686 833.961,-65.3197 992,-38 995.091,-37.4656 998.246,-36.864 1001.42,-36.2133"/>
<polygon fill="midnightblue" stroke="midnightblue" points="545.334,-78.6936 535.51,-82.6595 545.663,-85.6859 545.334,-78.6936"/>
</g>
<!-- Node2&#45;&gt;Node1 -->
<g id="edge4" class="edge"><title>Node2&#45;&gt;Node1</title>
<path fill="none" stroke="midnightblue" d="M102.071,-33.1096C108.769,-34.9277 115.54,-36.6364 122,-38 223.694,-59.4654 343.657,-72.7171 414.381,-79.4695"/>
<polygon fill="midnightblue" stroke="midnightblue" points="102.928,-29.7148 92.3545,-30.3949 101.044,-36.4566 102.928,-29.7148"/>
</g>
</g>
</svg>
