<?xml version="1.0" encoding="UTF-8" standalone="no"?>
<!DOCTYPE svg PUBLIC "-//W3C//DTD SVG 1.1//EN"
 "http://www.w3.org/Graphics/SVG/1.1/DTD/svg11.dtd">
<!-- Generated by graphviz version 2.28.0 (20121015.0031)
 -->
<!-- Title: include/fae/thread.h Pages: 1 -->
<svg width="815pt" height="212pt"
 viewBox="0.00 0.00 815.14 212.00" xmlns="http://www.w3.org/2000/svg" xmlns:xlink="http://www.w3.org/1999/xlink">
<g id="graph1" class="graph" transform="scale(1 1) rotate(0) translate(4 208)">
<title>include/fae/thread.h</title>
<!-- Node1 -->
<g id="node1" class="node"><title>Node1</title>
<polygon fill="#bfbfbf" stroke="black" points="436.53,-180.695 436.53,-203.305 557.47,-203.305 557.47,-180.695 436.53,-180.695"/>
<text text-anchor="middle" x="497" y="-188.305" font-family="Futura" font-size="11.00">include/fae/thread.h</text>
</g>
<!-- Node2 -->
<g id="node3" class="node"><title>Node2</title>
<a xlink:href="fae_2fae_8h.html" target="_top" xlink:title="fae.h">
<polygon fill="none" stroke="red" points="476.23,-120.695 476.23,-143.305 517.77,-143.305 517.77,-120.695 476.23,-120.695"/>
<text text-anchor="middle" x="497" y="-128.305" font-family="Futura" font-size="11.00">fae.h</text>
</a>
</g>
<!-- Node1&#45;&gt;Node2 -->
<g id="edge2" class="edge"><title>Node1&#45;&gt;Node2</title>
<path fill="none" stroke="midnightblue" d="M491.684,-180.631C490.323,-173.137 489.931,-162.764 490.508,-153.611"/>
<polygon fill="midnightblue" stroke="midnightblue" points="493.986,-154.001 491.63,-143.672 487.03,-153.216 493.986,-154.001"/>
</g>
<!-- Node4 -->
<g id="node8" class="node"><title>Node4</title>
<polygon fill="none" stroke="#bfbfbf" points="395.347,-0.695312 395.347,-23.3047 456.653,-23.3047 456.653,-0.695312 395.347,-0.695312"/>
<text text-anchor="middle" x="426" y="-8.30469" font-family="Futura" font-size="11.00">fae/std.h</text>
</g>
<!-- Node1&#45;&gt;Node4 -->
<g id="edge26" class="edge"><title>Node1&#45;&gt;Node4</title>
<path fill="none" stroke="midnightblue" d="M557.656,-185.54C663.167,-173.816 862.792,-140.464 792,-60 770.783,-35.8837 558.171,-20.7073 467.077,-15.265"/>
<polygon fill="midnightblue" stroke="midnightblue" points="467.035,-11.7567 456.847,-14.6644 466.625,-18.7446 467.035,-11.7567"/>
</g>
<!-- Node2&#45;&gt;Node1 -->
<g id="edge24" class="edge"><title>Node2&#45;&gt;Node1</title>
<path fill="none" stroke="midnightblue" d="M502.37,-143.672C503.691,-151.16 504.064,-161.411 503.488,-170.459"/>
<polygon fill="midnightblue" stroke="midnightblue" points="499.984,-170.296 502.316,-180.631 506.938,-171.097 499.984,-170.296"/>
</g>
<!-- Node3 -->
<g id="node5" class="node"><title>Node3</title>
<a xlink:href="atomic_8h.html" target="_top" xlink:title="fae/atomic.h">
<polygon fill="none" stroke="black" points="-0.105713,-60.6953 -0.105713,-83.3047 80.1057,-83.3047 80.1057,-60.6953 -0.105713,-60.6953"/>
<text text-anchor="middle" x="40" y="-68.3047" font-family="Futura" font-size="11.00">fae/atomic.h</text>
</a>
</g>
<!-- Node2&#45;&gt;Node3 -->
<g id="edge4" class="edge"><title>Node2&#45;&gt;Node3</title>
<path fill="none" stroke="midnightblue" d="M476.11,-129.648C415.99,-125.182 238.96,-109.797 86.9836,-84.9561"/>
<polygon fill="midnightblue" stroke="midnightblue" points="87.448,-81.4855 77.0108,-83.3062 86.3054,-88.3916 87.448,-81.4855"/>
</g>
<!-- Node5 -->
<g id="node10" class="node"><title>Node5</title>
<polygon fill="none" stroke="#bfbfbf" points="98.6057,-60.6953 98.6057,-83.3047 215.394,-83.3047 215.394,-60.6953 98.6057,-60.6953"/>
<text text-anchor="middle" x="157" y="-68.3047" font-family="Futura" font-size="11.00">fae/atomic/queue.h</text>
</g>
<!-- Node2&#45;&gt;Node5 -->
<g id="edge10" class="edge"><title>Node2&#45;&gt;Node5</title>
<path fill="none" stroke="midnightblue" d="M475.988,-127.416C427.077,-119.072 303.833,-98.0479 225.644,-84.7099"/>
<polygon fill="midnightblue" stroke="midnightblue" points="225.842,-81.1932 215.396,-82.9617 224.665,-88.0935 225.842,-81.1932"/>
</g>
<!-- Node6 -->
<g id="node12" class="node"><title>Node6</title>
<a xlink:href="stack_8h.html" target="_top" xlink:title="fae/atomic/stack.h">
<polygon fill="none" stroke="red" points="233.377,-60.6953 233.377,-83.3047 344.623,-83.3047 344.623,-60.6953 233.377,-60.6953"/>
<text text-anchor="middle" x="289" y="-68.3047" font-family="Futura" font-size="11.00">fae/atomic/stack.h</text>
</a>
</g>
<!-- Node2&#45;&gt;Node6 -->
<g id="edge12" class="edge"><title>Node2&#45;&gt;Node6</title>
<path fill="none" stroke="midnightblue" d="M475.911,-125.119C443.333,-116.035 379.955,-98.3624 336.091,-86.1312"/>
<polygon fill="midnightblue" stroke="midnightblue" points="336.793,-82.6933 326.22,-83.3786 334.912,-89.4361 336.793,-82.6933"/>
</g>
<!-- Node7 -->
<g id="node14" class="node"><title>Node7</title>
<polygon fill="none" stroke="#bfbfbf" points="362.483,-60.6953 362.483,-83.3047 503.517,-83.3047 503.517,-60.6953 362.483,-60.6953"/>
<text text-anchor="middle" x="433" y="-68.3047" font-family="Futura" font-size="11.00">fae/atomic/ring_buffer.h</text>
</g>
<!-- Node2&#45;&gt;Node7 -->
<g id="edge14" class="edge"><title>Node2&#45;&gt;Node7</title>
<path fill="none" stroke="midnightblue" d="M485.558,-120.631C476.39,-112.322 463.317,-100.475 452.503,-90.6745"/>
<polygon fill="midnightblue" stroke="midnightblue" points="454.536,-87.7936 444.776,-83.6719 449.835,-92.9806 454.536,-87.7936"/>
</g>
<!-- Node8 -->
<g id="node16" class="node"><title>Node8</title>
<a xlink:href="system_8h.html" target="_top" xlink:title="fae/system.h">
<polygon fill="none" stroke="red" points="521.983,-60.6953 521.983,-83.3047 602.017,-83.3047 602.017,-60.6953 521.983,-60.6953"/>
<text text-anchor="middle" x="562" y="-68.3047" font-family="Futura" font-size="11.00">fae/system.h</text>
</a>
</g>
<!-- Node2&#45;&gt;Node8 -->
<g id="edge16" class="edge"><title>Node2&#45;&gt;Node8</title>
<path fill="none" stroke="midnightblue" d="M508.621,-120.631C518.024,-112.24 531.47,-100.242 542.515,-90.3869"/>
<polygon fill="midnightblue" stroke="midnightblue" points="544.909,-92.9413 550.04,-83.6719 540.248,-87.7183 544.909,-92.9413"/>
</g>
<!-- Node9 -->
<g id="node18" class="node"><title>Node9</title>
<a xlink:href="error_8h.html" target="_top" xlink:title="fae/error.h">
<polygon fill="none" stroke="red" points="620.119,-60.6953 620.119,-83.3047 691.881,-83.3047 691.881,-60.6953 620.119,-60.6953"/>
<text text-anchor="middle" x="656" y="-68.3047" font-family="Futura" font-size="11.00">fae/error.h</text>
</a>
</g>
<!-- Node2&#45;&gt;Node9 -->
<g id="edge18" class="edge"><title>Node2&#45;&gt;Node9</title>
<path fill="none" stroke="midnightblue" d="M518.089,-121.422C542.177,-111.958 581.905,-97.3847 612.616,-86.6975"/>
<polygon fill="midnightblue" stroke="midnightblue" points="613.929,-89.947 622.24,-83.3755 611.645,-83.3302 613.929,-89.947"/>
</g>
<!-- Node10 -->
<g id="node21" class="node"><title>Node10</title>
<polygon fill="none" stroke="#bfbfbf" points="710.2,-60.6953 710.2,-83.3047 783.8,-83.3047 783.8,-60.6953 710.2,-60.6953"/>
<text text-anchor="middle" x="747" y="-68.3047" font-family="Futura" font-size="11.00">fae/event.h</text>
</g>
<!-- Node2&#45;&gt;Node10 -->
<g id="edge22" class="edge"><title>Node2&#45;&gt;Node10</title>
<path fill="none" stroke="midnightblue" d="M518.045,-126.145C554.914,-117.635 633.585,-99.4603 700,-84 700.102,-83.9763 700.204,-83.9525 700.306,-83.9287"/>
<polygon fill="midnightblue" stroke="midnightblue" points="701.113,-87.3346 710.057,-81.6551 699.523,-80.5175 701.113,-87.3346"/>
</g>
<!-- Node3&#45;&gt;Node2 -->
<g id="edge6" class="edge"><title>Node3&#45;&gt;Node2</title>
<path fill="none" stroke="midnightblue" d="M80.2022,-80.4136C86.5308,-81.7225 92.9512,-82.9881 99,-84 234.9,-106.735 398.176,-121.975 465.681,-128.045"/>
<polygon fill="midnightblue" stroke="midnightblue" points="465.771,-131.567 476.044,-128.973 466.396,-124.595 465.771,-131.567"/>
</g>
<!-- Node3&#45;&gt;Node4 -->
<g id="edge8" class="edge"><title>Node3&#45;&gt;Node4</title>
<path fill="none" stroke="midnightblue" d="M80.3343,-61.845C83.5984,-61.19 86.8507,-60.5658 90,-60 195.988,-40.9581 321.956,-25.1433 385.313,-17.6579"/>
<polygon fill="midnightblue" stroke="midnightblue" points="385.774,-21.1279 395.297,-16.486 384.958,-14.1756 385.774,-21.1279"/>
</g>
<!-- Node9&#45;&gt;Node2 -->
<g id="edge20" class="edge"><title>Node9&#45;&gt;Node2</title>
<path fill="none" stroke="midnightblue" d="M632.822,-83.3956C605.012,-94.2582 558.648,-111.147 527.852,-121.616"/>
<polygon fill="midnightblue" stroke="midnightblue" points="526.422,-118.404 518.054,-124.903 528.648,-125.041 526.422,-118.404"/>
</g>
</g>
</svg>
