<?xml version="1.0" encoding="UTF-8" standalone="no"?>
<!DOCTYPE svg PUBLIC "-//W3C//DTD SVG 1.1//EN"
 "http://www.w3.org/Graphics/SVG/1.1/DTD/svg11.dtd">
<!-- Generated by graphviz version 2.28.0 (20121015.0031)
 -->
<!-- Title: src/doremir/thread_win.c Pages: 1 -->
<svg width="404pt" height="286pt"
 viewBox="0.00 0.00 404.00 286.00" xmlns="http://www.w3.org/2000/svg" xmlns:xlink="http://www.w3.org/1999/xlink">
<g id="graph1" class="graph" transform="scale(1 1) rotate(0) translate(4 282)">
<title>src/doremir/thread_win.c</title>
<!-- Node1 -->
<g id="node1" class="node"><title>Node1</title>
<polygon fill="#bfbfbf" stroke="black" points="160.708,-240.391 160.708,-277.609 273.292,-277.609 273.292,-240.391 160.708,-240.391"/>
<text text-anchor="start" x="168.708" y="-262.609" font-family="Futura" font-size="11.00">src/doremir/thread</text>
<text text-anchor="middle" x="217" y="-248" font-family="Futura" font-size="11.00">_win.c</text>
</g>
<!-- Node2 -->
<g id="node3" class="node"><title>Node2</title>
<a xlink:href="thread_8h.html" target="_top" xlink:title="doremir/thread.h">
<polygon fill="none" stroke="black" points="113.706,-180.695 113.706,-203.305 216.294,-203.305 216.294,-180.695 113.706,-180.695"/>
<text text-anchor="middle" x="165" y="-188.305" font-family="Futura" font-size="11.00">doremir/thread.h</text>
</a>
</g>
<!-- Node1&#45;&gt;Node2 -->
<g id="edge2" class="edge"><title>Node1&#45;&gt;Node2</title>
<path fill="none" stroke="midnightblue" d="M202.791,-240.238C195.681,-231.351 187.079,-220.598 179.879,-211.598"/>
<polygon fill="midnightblue" stroke="midnightblue" points="182.479,-209.247 173.499,-203.624 177.013,-213.619 182.479,-209.247"/>
</g>
<!-- Node10 -->
<g id="node20" class="node"><title>Node10</title>
<polygon fill="none" stroke="#bfbfbf" points="234.027,-180.695 234.027,-203.305 305.973,-203.305 305.973,-180.695 234.027,-180.695"/>
<text text-anchor="middle" x="270" y="-188.305" font-family="Futura" font-size="11.00">Windows.h</text>
</g>
<!-- Node1&#45;&gt;Node10 -->
<g id="edge20" class="edge"><title>Node1&#45;&gt;Node10</title>
<path fill="none" stroke="midnightblue" d="M231.482,-240.238C238.729,-231.351 247.497,-220.598 254.835,-211.598"/>
<polygon fill="midnightblue" stroke="midnightblue" points="257.73,-213.586 261.337,-203.624 252.305,-209.163 257.73,-213.586"/>
</g>
<!-- Node3 -->
<g id="node5" class="node"><title>Node3</title>
<a xlink:href="doremir_8h.html" target="_top" xlink:title="doremir.h">
<polygon fill="none" stroke="black" points="169.136,-120.695 169.136,-143.305 232.864,-143.305 232.864,-120.695 169.136,-120.695"/>
<text text-anchor="middle" x="201" y="-128.305" font-family="Futura" font-size="11.00">doremir.h</text>
</a>
</g>
<!-- Node2&#45;&gt;Node3 -->
<g id="edge4" class="edge"><title>Node2&#45;&gt;Node3</title>
<path fill="none" stroke="midnightblue" d="M171.436,-180.631C176.29,-172.811 183.089,-161.856 188.944,-152.424"/>
<polygon fill="midnightblue" stroke="midnightblue" points="192.076,-154.014 194.376,-143.672 186.129,-150.323 192.076,-154.014"/>
</g>
<!-- Node4 -->
<g id="node7" class="node"><title>Node4</title>
<a xlink:href="std_8h.html" target="_top" xlink:title="doremir/std.h">
<polygon fill="none" stroke="red" points="63.9607,-60.6953 63.9607,-83.3047 148.039,-83.3047 148.039,-60.6953 63.9607,-60.6953"/>
<text text-anchor="middle" x="106" y="-68.3047" font-family="Futura" font-size="11.00">doremir/std.h</text>
</a>
</g>
<!-- Node2&#45;&gt;Node4 -->
<g id="edge18" class="edge"><title>Node2&#45;&gt;Node4</title>
<path fill="none" stroke="midnightblue" d="M159.764,-180.528C149.905,-160.81 128.444,-117.887 115.821,-92.6415"/>
<polygon fill="midnightblue" stroke="midnightblue" points="118.912,-90.9969 111.309,-83.6179 112.651,-94.1274 118.912,-90.9969"/>
</g>
<!-- Node3&#45;&gt;Node4 -->
<g id="edge6" class="edge"><title>Node3&#45;&gt;Node4</title>
<path fill="none" stroke="midnightblue" d="M184.016,-120.631C169.516,-111.778 148.437,-98.9089 131.844,-88.7784"/>
<polygon fill="midnightblue" stroke="midnightblue" points="133.516,-85.6987 123.157,-83.475 129.869,-91.6732 133.516,-85.6987"/>
</g>
<!-- Node8 -->
<g id="node15" class="node"><title>Node8</title>
<a xlink:href="alloc_8h.html" target="_top" xlink:title="doremir/alloc.h">
<polygon fill="none" stroke="black" points="166.03,-60.6953 166.03,-83.3047 259.97,-83.3047 259.97,-60.6953 166.03,-60.6953"/>
<text text-anchor="middle" x="213" y="-68.3047" font-family="Futura" font-size="11.00">doremir/alloc.h</text>
</a>
</g>
<!-- Node3&#45;&gt;Node8 -->
<g id="edge14" class="edge"><title>Node3&#45;&gt;Node8</title>
<path fill="none" stroke="midnightblue" d="M203.145,-120.631C204.696,-113.137 206.842,-102.764 208.736,-93.6107"/>
<polygon fill="midnightblue" stroke="midnightblue" points="212.193,-94.1736 210.792,-83.6719 205.338,-92.7553 212.193,-94.1736"/>
</g>
<!-- Node9 -->
<g id="node17" class="node"><title>Node9</title>
<a xlink:href="interfaces_8h.html" target="_top" xlink:title="doremir/interfaces.h">
<polygon fill="none" stroke="black" points="277.865,-60.6953 277.865,-83.3047 396.135,-83.3047 396.135,-60.6953 277.865,-60.6953"/>
<text text-anchor="middle" x="337" y="-68.3047" font-family="Futura" font-size="11.00">doremir/interfaces.h</text>
</a>
</g>
<!-- Node3&#45;&gt;Node9 -->
<g id="edge16" class="edge"><title>Node3&#45;&gt;Node9</title>
<path fill="none" stroke="midnightblue" d="M225.314,-120.631C246.937,-111.409 278.779,-97.8294 302.937,-87.5268"/>
<polygon fill="midnightblue" stroke="midnightblue" points="304.612,-90.6174 312.438,-83.475 301.866,-84.1785 304.612,-90.6174"/>
</g>
<!-- Node5 -->
<g id="node9" class="node"><title>Node5</title>
<polygon fill="none" stroke="#bfbfbf" points="-0.276855,-0.695312 -0.276855,-23.3047 54.2769,-23.3047 54.2769,-0.695312 -0.276855,-0.695312"/>
<text text-anchor="middle" x="27" y="-8.30469" font-family="Futura" font-size="11.00">assert.h</text>
</g>
<!-- Node4&#45;&gt;Node5 -->
<g id="edge8" class="edge"><title>Node4&#45;&gt;Node5</title>
<path fill="none" stroke="midnightblue" d="M91.8764,-60.6308C80.1535,-52.0241 63.2593,-39.6207 49.6496,-29.6288"/>
<polygon fill="midnightblue" stroke="midnightblue" points="51.3999,-26.5718 41.2677,-23.475 47.2572,-32.2144 51.3999,-26.5718"/>
</g>
<!-- Node6 -->
<g id="node11" class="node"><title>Node6</title>
<polygon fill="none" stroke="#bfbfbf" points="72.2671,-0.695312 72.2671,-23.3047 139.733,-23.3047 139.733,-0.695312 72.2671,-0.695312"/>
<text text-anchor="middle" x="106" y="-8.30469" font-family="Futura" font-size="11.00">complex.h</text>
</g>
<!-- Node4&#45;&gt;Node6 -->
<g id="edge10" class="edge"><title>Node4&#45;&gt;Node6</title>
<path fill="none" stroke="midnightblue" d="M106,-60.6308C106,-53.218 106,-42.9888 106,-33.9096"/>
<polygon fill="midnightblue" stroke="midnightblue" points="109.5,-33.6718 106,-23.6719 102.5,-33.6719 109.5,-33.6718"/>
</g>
<!-- Node7 -->
<g id="node13" class="node"><title>Node7</title>
<polygon fill="none" stroke="#bfbfbf" points="157.832,-0.695312 157.832,-23.3047 210.168,-23.3047 210.168,-0.695312 157.832,-0.695312"/>
<text text-anchor="middle" x="184" y="-8.30469" font-family="Futura" font-size="11.00">ctype.h</text>
</g>
<!-- Node4&#45;&gt;Node7 -->
<g id="edge12" class="edge"><title>Node4&#45;&gt;Node7</title>
<path fill="none" stroke="midnightblue" d="M119.945,-60.6308C131.519,-52.0241 148.2,-39.6207 161.637,-29.6288"/>
<polygon fill="midnightblue" stroke="midnightblue" points="163.977,-32.2507 169.913,-23.475 159.8,-26.6335 163.977,-32.2507"/>
</g>
</g>
</svg>
