<?xml version="1.0" encoding="UTF-8" standalone="no"?>
<!DOCTYPE svg PUBLIC "-//W3C//DTD SVG 1.1//EN"
 "http://www.w3.org/Graphics/SVG/1.1/DTD/svg11.dtd">
<!-- Generated by graphviz version 2.28.0 (20121015.0031)
 -->
<!-- Title: include/fa/time.h Pages: 1 -->
<svg width="765pt" height="332pt"
 viewBox="0.00 0.00 765.00 332.00" xmlns="http://www.w3.org/2000/svg" xmlns:xlink="http://www.w3.org/1999/xlink">
<g id="graph1" class="graph" transform="scale(1 1) rotate(0) translate(4 328)">
<title>include/fa/time.h</title>
<!-- Node1 -->
<g id="node1" class="node"><title>Node1</title>
<polygon fill="#bfbfbf" stroke="black" points="543.594,-300.695 543.594,-323.305 646.406,-323.305 646.406,-300.695 543.594,-300.695"/>
<text text-anchor="middle" x="595" y="-308.305" font-family="Futura" font-size="11.00">include/fa/time.h</text>
</g>
<!-- Node2 -->
<g id="node3" class="node"><title>Node2</title>
<a xlink:href="fa_2fa_8h.html" target="_top" xlink:title="include/fa/fa.h">
<polygon fill="none" stroke="red" points="315.846,-240.695 315.846,-263.305 408.154,-263.305 408.154,-240.695 315.846,-240.695"/>
<text text-anchor="middle" x="362" y="-248.305" font-family="Futura" font-size="11.00">include/fa/fa.h</text>
</a>
</g>
<!-- Node1&#45;&gt;Node2 -->
<g id="edge2" class="edge"><title>Node1&#45;&gt;Node2</title>
<path fill="none" stroke="midnightblue" d="M538.138,-298.264C494.559,-287.794 435.832,-273.144 398.37,-263.377"/>
<polygon fill="midnightblue" stroke="midnightblue" points="537.488,-301.708 548.028,-300.631 539.117,-294.9 537.488,-301.708"/>
</g>
<!-- Node4 -->
<g id="node8" class="node"><title>Node4</title>
<a xlink:href="midi_8h.html" target="_top" xlink:title="include/fa/midi.h">
<polygon fill="none" stroke="black" points="263.473,-0.695312 263.473,-23.3047 366.527,-23.3047 366.527,-0.695312 263.473,-0.695312"/>
<text text-anchor="middle" x="315" y="-8.30469" font-family="Futura" font-size="11.00">include/fa/midi.h</text>
</a>
</g>
<!-- Node1&#45;&gt;Node4 -->
<g id="edge36" class="edge"><title>Node1&#45;&gt;Node4</title>
<path fill="none" stroke="midnightblue" d="M605.359,-291.623C616.611,-268.733 633,-229.183 633,-193 633,-193 633,-193 633,-131 633,-74.9104 456.909,-36.956 366.8,-21.2058"/>
<polygon fill="midnightblue" stroke="midnightblue" points="602.194,-290.126 600.771,-300.625 608.431,-293.305 602.194,-290.126"/>
</g>
<!-- Node6 -->
<g id="node13" class="node"><title>Node6</title>
<a xlink:href="signal_8h.html" target="_top" xlink:title="include/fa/signal.h">
<polygon fill="none" stroke="red" points="492.283,-120.695 492.283,-143.305 603.717,-143.305 603.717,-120.695 492.283,-120.695"/>
<text text-anchor="middle" x="548" y="-128.305" font-family="Futura" font-size="11.00">include/fa/signal.h</text>
</a>
</g>
<!-- Node1&#45;&gt;Node6 -->
<g id="edge38" class="edge"><title>Node1&#45;&gt;Node6</title>
<path fill="none" stroke="midnightblue" d="M589.653,-290.75C579.621,-252.757 558.307,-172.036 550.738,-143.368"/>
<polygon fill="midnightblue" stroke="midnightblue" points="586.333,-291.886 592.27,-300.661 593.101,-290.098 586.333,-291.886"/>
</g>
<!-- Node10 -->
<g id="node30" class="node"><title>Node10</title>
<a xlink:href="util_8h.html" target="_top" xlink:title="include/fa/util.h">
<polygon fill="none" stroke="black" points="660.62,-240.695 660.62,-263.305 757.38,-263.305 757.38,-240.695 660.62,-240.695"/>
<text text-anchor="middle" x="709" y="-248.305" font-family="Futura" font-size="11.00">include/fa/util.h</text>
</a>
</g>
<!-- Node1&#45;&gt;Node10 -->
<g id="edge40" class="edge"><title>Node1&#45;&gt;Node10</title>
<path fill="none" stroke="midnightblue" d="M624.405,-296.04C644.468,-285.832 670.544,-272.565 688.411,-263.475"/>
<polygon fill="midnightblue" stroke="midnightblue" points="622.707,-292.977 615.381,-300.631 625.881,-299.216 622.707,-292.977"/>
</g>
<!-- Node2&#45;&gt;Node1 -->
<g id="edge34" class="edge"><title>Node2&#45;&gt;Node1</title>
<path fill="none" stroke="midnightblue" d="M418.089,-265.55C461.756,-276.035 520.978,-290.806 558.66,-300.631"/>
<polygon fill="midnightblue" stroke="midnightblue" points="418.726,-262.103 408.186,-263.182 417.098,-268.912 418.726,-262.103"/>
</g>
<!-- Node3 -->
<g id="node5" class="node"><title>Node3</title>
<a xlink:href="action_8h.html" target="_top" xlink:title="include/fa/action.h">
<polygon fill="none" stroke="red" points="342.746,-60.6953 342.746,-83.3047 455.254,-83.3047 455.254,-60.6953 342.746,-60.6953"/>
<text text-anchor="middle" x="399" y="-68.3047" font-family="Futura" font-size="11.00">include/fa/action.h</text>
</a>
</g>
<!-- Node2&#45;&gt;Node3 -->
<g id="edge4" class="edge"><title>Node2&#45;&gt;Node3</title>
<path fill="none" stroke="midnightblue" d="M361.789,-230.258C366.416,-192.065 383.458,-111.913 393.465,-83.368"/>
<polygon fill="midnightblue" stroke="midnightblue" points="358.262,-230.368 360.773,-240.661 365.229,-231.048 358.262,-230.368"/>
</g>
<!-- Node5 -->
<g id="node11" class="node"><title>Node5</title>
<a xlink:href="buffer_8h.html" target="_top" xlink:title="include/fa/buffer.h">
<polygon fill="none" stroke="red" points="399.227,-180.695 399.227,-203.305 510.773,-203.305 510.773,-180.695 399.227,-180.695"/>
<text text-anchor="middle" x="455" y="-188.305" font-family="Futura" font-size="11.00">include/fa/buffer.h</text>
</a>
</g>
<!-- Node2&#45;&gt;Node5 -->
<g id="edge12" class="edge"><title>Node2&#45;&gt;Node5</title>
<path fill="none" stroke="midnightblue" d="M387.558,-235.061C403.697,-224.996 424.09,-212.277 438.204,-203.475"/>
<polygon fill="midnightblue" stroke="midnightblue" points="385.26,-232.369 378.627,-240.631 388.964,-238.309 385.26,-232.369"/>
</g>
<!-- Node2&#45;&gt;Node6 -->
<g id="edge32" class="edge"><title>Node2&#45;&gt;Node6</title>
<path fill="none" stroke="midnightblue" d="M418.414,-244.718C448.675,-238.695 484.729,-226.934 510,-204 527.847,-187.804 534.954,-159.018 540.768,-143.541"/>
<polygon fill="midnightblue" stroke="midnightblue" points="417.606,-241.308 408.398,-246.548 418.864,-248.193 417.606,-241.308"/>
</g>
<!-- Node7 -->
<g id="node17" class="node"><title>Node7</title>
<a xlink:href="device_8h.html" target="_top" xlink:title="include/fa/device.h">
<polygon fill="none" stroke="red" points="-0.183105,-120.695 -0.183105,-143.305 114.183,-143.305 114.183,-120.695 -0.183105,-120.695"/>
<text text-anchor="middle" x="57" y="-128.305" font-family="Futura" font-size="11.00">include/fa/device.h</text>
</a>
</g>
<!-- Node2&#45;&gt;Node7 -->
<g id="edge20" class="edge"><title>Node2&#45;&gt;Node7</title>
<path fill="none" stroke="midnightblue" d="M305.68,-251.53C220.483,-250.993 65.0279,-244.336 30,-204 14.4357,-186.077 34.1071,-158.257 47.1587,-143.318"/>
<polygon fill="midnightblue" stroke="midnightblue" points="305.696,-255.03 315.708,-251.567 305.721,-248.03 305.696,-255.03"/>
</g>
<!-- Node8 -->
<g id="node20" class="node"><title>Node8</title>
<a xlink:href="dynamic_8h.html" target="_top" xlink:title="include/fa/dynamic.h">
<polygon fill="none" stroke="black" points="162.918,-180.695 162.918,-203.305 287.082,-203.305 287.082,-180.695 162.918,-180.695"/>
<text text-anchor="middle" x="225" y="-188.305" font-family="Futura" font-size="11.00">include/fa/dynamic.h</text>
</a>
</g>
<!-- Node2&#45;&gt;Node8 -->
<g id="edge24" class="edge"><title>Node2&#45;&gt;Node8</title>
<path fill="none" stroke="midnightblue" d="M328.288,-236.728C303.974,-226.434 271.7,-212.771 249.743,-203.475"/>
<polygon fill="midnightblue" stroke="midnightblue" points="326.934,-239.955 337.507,-240.631 329.663,-233.509 326.934,-239.955"/>
</g>
<!-- Node9 -->
<g id="node22" class="node"><title>Node9</title>
<a xlink:href="error_8h.html" target="_top" xlink:title="include/fa/error.h">
<polygon fill="none" stroke="red" points="38.5981,-180.695 38.5981,-203.305 145.402,-203.305 145.402,-180.695 38.5981,-180.695"/>
<text text-anchor="middle" x="92" y="-188.305" font-family="Futura" font-size="11.00">include/fa/error.h</text>
</a>
</g>
<!-- Node2&#45;&gt;Node9 -->
<g id="edge26" class="edge"><title>Node2&#45;&gt;Node9</title>
<path fill="none" stroke="midnightblue" d="M305.815,-240.093C254.911,-229.549 181.118,-213.69 134.827,-203.341"/>
<polygon fill="midnightblue" stroke="midnightblue" points="305.175,-243.535 315.676,-242.128 306.59,-236.679 305.175,-243.535"/>
</g>
<!-- Node3&#45;&gt;Node2 -->
<g id="edge6" class="edge"><title>Node3&#45;&gt;Node2</title>
<path fill="none" stroke="midnightblue" d="M399.206,-93.78C394.571,-132.001 377.527,-212.15 367.525,-240.661"/>
<polygon fill="midnightblue" stroke="midnightblue" points="402.734,-93.6613 400.225,-83.368 395.768,-92.9796 402.734,-93.6613"/>
</g>
<!-- Node3&#45;&gt;Node4 -->
<g id="edge8" class="edge"><title>Node3&#45;&gt;Node4</title>
<path fill="none" stroke="midnightblue" d="M375.506,-54.7779C360.995,-44.7583 342.8,-32.1949 330.171,-23.475"/>
<polygon fill="midnightblue" stroke="midnightblue" points="373.765,-57.829 383.982,-60.6308 377.742,-52.0687 373.765,-57.829"/>
</g>
<!-- Node4&#45;&gt;Node2 -->
<g id="edge10" class="edge"><title>Node4&#45;&gt;Node2</title>
<path fill="none" stroke="midnightblue" d="M319.027,-33.3903C328.647,-82.1039 352.701,-203.911 359.92,-240.466"/>
<polygon fill="midnightblue" stroke="midnightblue" points="322.427,-32.5444 317.056,-23.412 315.56,-33.9007 322.427,-32.5444"/>
</g>
<!-- Node5&#45;&gt;Node6 -->
<g id="edge14" class="edge"><title>Node5&#45;&gt;Node6</title>
<path fill="none" stroke="midnightblue" d="M480.558,-175.061C496.697,-164.996 517.09,-152.277 531.204,-143.475"/>
<polygon fill="midnightblue" stroke="midnightblue" points="478.26,-172.369 471.627,-180.631 481.964,-178.309 478.26,-172.369"/>
</g>
<!-- Node6&#45;&gt;Node2 -->
<g id="edge18" class="edge"><title>Node6&#45;&gt;Node2</title>
<path fill="none" stroke="midnightblue" d="M551.828,-153.94C549.768,-169.782 542.361,-190.967 528,-204 495.553,-233.446 445.329,-244.473 408.499,-248.586"/>
<polygon fill="midnightblue" stroke="midnightblue" points="555.345,-153.72 552.406,-143.541 548.356,-153.331 555.345,-153.72"/>
</g>
<!-- Node6&#45;&gt;Node3 -->
<g id="edge16" class="edge"><title>Node6&#45;&gt;Node3</title>
<path fill="none" stroke="midnightblue" d="M512.005,-116.989C485.394,-106.63 449.745,-92.753 425.658,-83.3771"/>
<polygon fill="midnightblue" stroke="midnightblue" points="510.773,-120.265 521.362,-120.631 513.313,-113.742 510.773,-120.265"/>
</g>
<!-- Node7&#45;&gt;Node4 -->
<g id="edge22" class="edge"><title>Node7&#45;&gt;Node4</title>
<path fill="none" stroke="midnightblue" d="M79.714,-114.923C102.488,-99.3358 138.965,-75.7925 173,-60 206.567,-44.4247 246.763,-31.6262 275.807,-23.3391"/>
<polygon fill="midnightblue" stroke="midnightblue" points="77.6375,-112.103 71.407,-120.673 81.6215,-117.859 77.6375,-112.103"/>
</g>
<!-- Node9&#45;&gt;Node2 -->
<g id="edge28" class="edge"><title>Node9&#45;&gt;Node2</title>
<path fill="none" stroke="midnightblue" d="M155.446,-205.415C205.859,-215.907 274.906,-230.764 319.045,-240.631"/>
<polygon fill="midnightblue" stroke="midnightblue" points="156.127,-201.982 145.624,-203.377 154.705,-208.836 156.127,-201.982"/>
</g>
<!-- Node9&#45;&gt;Node4 -->
<g id="edge30" class="edge"><title>Node9&#45;&gt;Node4</title>
<path fill="none" stroke="midnightblue" d="M112.944,-174.283C158.389,-138.008 264.939,-52.9589 302.011,-23.368"/>
<polygon fill="midnightblue" stroke="midnightblue" points="110.585,-171.687 104.953,-180.661 114.952,-177.158 110.585,-171.687"/>
</g>
</g>
</svg>
