<?xml version="1.0" encoding="UTF-8" standalone="no"?>
<!DOCTYPE svg PUBLIC "-//W3C//DTD SVG 1.1//EN"
 "http://www.w3.org/Graphics/SVG/1.1/DTD/svg11.dtd">
<!-- Generated by graphviz version 2.28.0 (20121015.0031)
 -->
<!-- Title: include/fa/time.h Pages: 1 -->
<svg width="820pt" height="212pt"
 viewBox="0.00 0.00 820.00 212.00" xmlns="http://www.w3.org/2000/svg" xmlns:xlink="http://www.w3.org/1999/xlink">
<g id="graph1" class="graph" transform="scale(1 1) rotate(0) translate(4 208)">
<title>include/fa/time.h</title>
<!-- Node1 -->
<g id="node1" class="node"><title>Node1</title>
<polygon fill="#bfbfbf" stroke="black" points="618.594,-180.695 618.594,-203.305 721.406,-203.305 721.406,-180.695 618.594,-180.695"/>
<text text-anchor="middle" x="670" y="-188.305" font-family="Futura" font-size="11.00">include/fa/time.h</text>
</g>
<!-- Node2 -->
<g id="node3" class="node"><title>Node2</title>
<a xlink:href="fa_2fa_8h.html" target="_top" xlink:title="fa.h">
<polygon fill="none" stroke="red" points="559.273,-120.695 559.273,-143.305 594.727,-143.305 594.727,-120.695 559.273,-120.695"/>
<text text-anchor="middle" x="577" y="-128.305" font-family="Futura" font-size="11.00">fa.h</text>
</a>
</g>
<!-- Node1&#45;&gt;Node2 -->
<g id="edge2" class="edge"><title>Node1&#45;&gt;Node2</title>
<path fill="none" stroke="midnightblue" d="M648.058,-180.631C632.548,-171.942 612.136,-159.384 597.064,-149.344"/>
<polygon fill="midnightblue" stroke="midnightblue" points="598.694,-146.219 588.461,-143.475 594.749,-152.002 598.694,-146.219"/>
</g>
<!-- Node9 -->
<g id="node18" class="node"><title>Node9</title>
<a xlink:href="string_8h.html" target="_top" xlink:title="fa/string.h">
<polygon fill="none" stroke="black" points="647.87,-0.695312 647.87,-23.3047 716.13,-23.3047 716.13,-0.695312 647.87,-0.695312"/>
<text text-anchor="middle" x="682" y="-8.30469" font-family="Futura" font-size="11.00">fa/string.h</text>
</a>
</g>
<!-- Node1&#45;&gt;Node9 -->
<g id="edge26" class="edge"><title>Node1&#45;&gt;Node9</title>
<path fill="none" stroke="midnightblue" d="M671.586,-180.402C674.368,-161.225 680.018,-119.461 682,-84 682.945,-67.1026 682.876,-47.9079 682.609,-33.7402"/>
<polygon fill="midnightblue" stroke="midnightblue" points="686.105,-33.5098 682.368,-23.5957 679.107,-33.676 686.105,-33.5098"/>
</g>
<!-- Node10 -->
<g id="node22" class="node"><title>Node10</title>
<a xlink:href="ratio_8h.html" target="_top" xlink:title="fa/ratio.h">
<polygon fill="none" stroke="red" points="747.927,-120.695 747.927,-143.305 812.073,-143.305 812.073,-120.695 747.927,-120.695"/>
<text text-anchor="middle" x="780" y="-128.305" font-family="Futura" font-size="11.00">fa/ratio.h</text>
</a>
</g>
<!-- Node1&#45;&gt;Node10 -->
<g id="edge24" class="edge"><title>Node1&#45;&gt;Node10</title>
<path fill="none" stroke="midnightblue" d="M689.666,-180.631C706.766,-171.614 731.769,-158.431 751.137,-148.218"/>
<polygon fill="midnightblue" stroke="midnightblue" points="752.92,-151.235 760.134,-143.475 749.655,-145.043 752.92,-151.235"/>
</g>
<!-- Node2&#45;&gt;Node1 -->
<g id="edge22" class="edge"><title>Node2&#45;&gt;Node1</title>
<path fill="none" stroke="midnightblue" d="M594.731,-141.04C610.702,-149.75 633.777,-163.874 650.283,-174.887"/>
<polygon fill="midnightblue" stroke="midnightblue" points="648.458,-177.879 658.689,-180.631 652.407,-172.1 648.458,-177.879"/>
</g>
<!-- Node3 -->
<g id="node5" class="node"><title>Node3</title>
<polygon fill="none" stroke="#bfbfbf" points="-0.0629883,-60.6953 -0.0629883,-83.3047 74.063,-83.3047 74.063,-60.6953 -0.0629883,-60.6953"/>
<text text-anchor="middle" x="37" y="-68.3047" font-family="Futura" font-size="11.00">fa/atomic.h</text>
</g>
<!-- Node2&#45;&gt;Node3 -->
<g id="edge4" class="edge"><title>Node2&#45;&gt;Node3</title>
<path fill="none" stroke="midnightblue" d="M558.938,-130.195C495.246,-127.167 275.117,-115.091 84.0074,-83.9746"/>
<polygon fill="midnightblue" stroke="midnightblue" points="84.5026,-80.509 74.0662,-82.3342 83.3629,-87.4156 84.5026,-80.509"/>
</g>
<!-- Node4 -->
<g id="node7" class="node"><title>Node4</title>
<polygon fill="none" stroke="#bfbfbf" points="91.6484,-60.6953 91.6484,-83.3047 202.352,-83.3047 202.352,-60.6953 91.6484,-60.6953"/>
<text text-anchor="middle" x="147" y="-68.3047" font-family="Futura" font-size="11.00">fa/atomic/queue.h</text>
</g>
<!-- Node2&#45;&gt;Node4 -->
<g id="edge6" class="edge"><title>Node2&#45;&gt;Node4</title>
<path fill="none" stroke="midnightblue" d="M559.063,-128.97C507.112,-123.035 351.871,-104.892 212.486,-84.1796"/>
<polygon fill="midnightblue" stroke="midnightblue" points="212.887,-80.7007 202.48,-82.684 211.852,-87.6238 212.887,-80.7007"/>
</g>
<!-- Node5 -->
<g id="node9" class="node"><title>Node5</title>
<polygon fill="none" stroke="#bfbfbf" points="220.42,-60.6953 220.42,-83.3047 325.58,-83.3047 325.58,-60.6953 220.42,-60.6953"/>
<text text-anchor="middle" x="273" y="-68.3047" font-family="Futura" font-size="11.00">fa/atomic/stack.h</text>
</g>
<!-- Node2&#45;&gt;Node5 -->
<g id="edge8" class="edge"><title>Node2&#45;&gt;Node5</title>
<path fill="none" stroke="midnightblue" d="M558.894,-127.546C515.948,-119.352 406.258,-98.4242 335.911,-85.0029"/>
<polygon fill="midnightblue" stroke="midnightblue" points="336.309,-81.5157 325.831,-83.0795 334.998,-88.3917 336.309,-81.5157"/>
</g>
<!-- Node6 -->
<g id="node11" class="node"><title>Node6</title>
<polygon fill="none" stroke="#bfbfbf" points="343.526,-60.6953 343.526,-83.3047 478.474,-83.3047 478.474,-60.6953 343.526,-60.6953"/>
<text text-anchor="middle" x="411" y="-68.3047" font-family="Futura" font-size="11.00">fa/atomic/ring_buffer.h</text>
</g>
<!-- Node2&#45;&gt;Node6 -->
<g id="edge10" class="edge"><title>Node2&#45;&gt;Node6</title>
<path fill="none" stroke="midnightblue" d="M559.235,-124.793C533.429,-115.776 484.893,-98.8181 450.394,-86.7643"/>
<polygon fill="midnightblue" stroke="midnightblue" points="451.218,-83.3448 440.624,-83.3504 448.91,-89.9531 451.218,-83.3448"/>
</g>
<!-- Node7 -->
<g id="node13" class="node"><title>Node7</title>
<polygon fill="none" stroke="#bfbfbf" points="496.026,-60.6953 496.026,-83.3047 569.974,-83.3047 569.974,-60.6953 496.026,-60.6953"/>
<text text-anchor="middle" x="533" y="-68.3047" font-family="Futura" font-size="11.00">fa/system.h</text>
</g>
<!-- Node2&#45;&gt;Node7 -->
<g id="edge12" class="edge"><title>Node2&#45;&gt;Node7</title>
<path fill="none" stroke="midnightblue" d="M569.134,-120.631C563.078,-112.648 554.544,-101.398 547.29,-91.8366"/>
<polygon fill="midnightblue" stroke="midnightblue" points="549.928,-89.5234 541.096,-83.6719 544.351,-93.7542 549.928,-89.5234"/>
</g>
<!-- Node8 -->
<g id="node15" class="node"><title>Node8</title>
<a xlink:href="error_8h.html" target="_top" xlink:title="fa/error.h">
<polygon fill="none" stroke="black" points="588.161,-60.6953 588.161,-83.3047 653.839,-83.3047 653.839,-60.6953 588.161,-60.6953"/>
<text text-anchor="middle" x="621" y="-68.3047" font-family="Futura" font-size="11.00">fa/error.h</text>
</a>
</g>
<!-- Node2&#45;&gt;Node8 -->
<g id="edge14" class="edge"><title>Node2&#45;&gt;Node8</title>
<path fill="none" stroke="midnightblue" d="M579.55,-120.631C584.25,-112.485 592.676,-100.938 600.833,-91.2533"/>
<polygon fill="midnightblue" stroke="midnightblue" points="603.534,-93.4825 607.534,-83.6719 598.289,-88.8465 603.534,-93.4825"/>
</g>
<!-- Node8&#45;&gt;Node2 -->
<g id="edge16" class="edge"><title>Node8&#45;&gt;Node2</title>
<path fill="none" stroke="midnightblue" d="M618.274,-83.6719C613.483,-91.9008 605.016,-103.466 596.866,-113.104"/>
<polygon fill="midnightblue" stroke="midnightblue" points="594.205,-110.829 590.182,-120.631 599.439,-115.477 594.205,-110.829"/>
</g>
<!-- Node8&#45;&gt;Node9 -->
<g id="edge18" class="edge"><title>Node8&#45;&gt;Node9</title>
<path fill="none" stroke="midnightblue" d="M631.906,-60.6308C640.644,-52.3219 653.104,-40.4746 663.411,-30.6745"/>
<polygon fill="midnightblue" stroke="midnightblue" points="665.941,-33.099 670.776,-23.6719 661.117,-28.026 665.941,-33.099"/>
</g>
<!-- Node9&#45;&gt;Node2 -->
<g id="edge20" class="edge"><title>Node9&#45;&gt;Node2</title>
<path fill="none" stroke="midnightblue" d="M681.524,-23.53C680.343,-38.4802 676.237,-66.0345 662,-84 647.352,-102.484 623.338,-114.8 604.564,-122.17"/>
<polygon fill="midnightblue" stroke="midnightblue" points="603.214,-118.937 595.035,-125.672 605.628,-125.508 603.214,-118.937"/>
</g>
</g>
</svg>
