<?xml version="1.0" encoding="UTF-8" standalone="no"?>
<!DOCTYPE svg PUBLIC "-//W3C//DTD SVG 1.1//EN"
 "http://www.w3.org/Graphics/SVG/1.1/DTD/svg11.dtd">
<!-- Generated by graphviz version 2.28.0 (20121015.0031)
 -->
<!-- Title: include/fa/time.h Pages: 1 -->
<svg width="668pt" height="452pt"
 viewBox="0.00 0.00 668.00 452.00" xmlns="http://www.w3.org/2000/svg" xmlns:xlink="http://www.w3.org/1999/xlink">
<g id="graph1" class="graph" transform="scale(1 1) rotate(0) translate(4 448)">
<title>include/fa/time.h</title>
<!-- Node1 -->
<g id="node1" class="node"><title>Node1</title>
<polygon fill="#bfbfbf" stroke="black" points="343.594,-420.695 343.594,-443.305 446.406,-443.305 446.406,-420.695 343.594,-420.695"/>
<text text-anchor="middle" x="395" y="-428.305" font-family="Futura" font-size="11.00">include/fa/time.h</text>
</g>
<!-- Node2 -->
<g id="node3" class="node"><title>Node2</title>
<a xlink:href="clock_8h.html" target="_top" xlink:title="include/fa/clock.h">
<polygon fill="none" stroke="black" points="249.978,-360.695 249.978,-383.305 358.022,-383.305 358.022,-360.695 249.978,-360.695"/>
<text text-anchor="middle" x="304" y="-368.305" font-family="Futura" font-size="11.00">include/fa/clock.h</text>
</a>
</g>
<!-- Node1&#45;&gt;Node2 -->
<g id="edge2" class="edge"><title>Node1&#45;&gt;Node2</title>
<path fill="none" stroke="midnightblue" d="M369.992,-415.061C354.2,-404.996 334.245,-392.277 320.435,-383.475"/>
<polygon fill="midnightblue" stroke="midnightblue" points="368.417,-418.207 378.731,-420.631 372.179,-412.304 368.417,-418.207"/>
</g>
<!-- Node4 -->
<g id="node7" class="node"><title>Node4</title>
<a xlink:href="fa_2fa_8h.html" target="_top" xlink:title="include/fa/fa.h">
<polygon fill="none" stroke="red" points="348.846,-240.695 348.846,-263.305 441.154,-263.305 441.154,-240.695 348.846,-240.695"/>
<text text-anchor="middle" x="395" y="-248.305" font-family="Futura" font-size="11.00">include/fa/fa.h</text>
</a>
</g>
<!-- Node1&#45;&gt;Node4 -->
<g id="edge36" class="edge"><title>Node1&#45;&gt;Node4</title>
<path fill="none" stroke="midnightblue" d="M390.478,-410.258C387.166,-372.065 387.547,-291.913 391.62,-263.368"/>
<polygon fill="midnightblue" stroke="midnightblue" points="387.05,-411.104 391.624,-420.661 394.008,-410.337 387.05,-411.104"/>
</g>
<!-- Node6 -->
<g id="node13" class="node"><title>Node6</title>
<a xlink:href="midi_8h.html" target="_top" xlink:title="include/fa/midi.h">
<polygon fill="none" stroke="black" points="446.473,-0.695312 446.473,-23.3047 549.527,-23.3047 549.527,-0.695312 446.473,-0.695312"/>
<text text-anchor="middle" x="498" y="-8.30469" font-family="Futura" font-size="11.00">include/fa/midi.h</text>
</a>
</g>
<!-- Node1&#45;&gt;Node6 -->
<g id="edge38" class="edge"><title>Node1&#45;&gt;Node6</title>
<path fill="none" stroke="midnightblue" d="M435.68,-416.878C477.329,-399.52 536,-365.712 536,-313 536,-313 536,-313 536,-131 536,-89.4622 514.402,-43.4874 503.771,-23.3748"/>
<polygon fill="midnightblue" stroke="midnightblue" points="434.275,-413.67 426.292,-420.636 436.877,-420.169 434.275,-413.67"/>
</g>
<!-- Node8 -->
<g id="node18" class="node"><title>Node8</title>
<a xlink:href="signal_8h.html" target="_top" xlink:title="include/fa/signal.h">
<polygon fill="none" stroke="black" points="203.283,-120.695 203.283,-143.305 314.717,-143.305 314.717,-120.695 203.283,-120.695"/>
<text text-anchor="middle" x="259" y="-128.305" font-family="Futura" font-size="11.00">include/fa/signal.h</text>
</a>
</g>
<!-- Node1&#45;&gt;Node8 -->
<g id="edge40" class="edge"><title>Node1&#45;&gt;Node8</title>
<path fill="none" stroke="midnightblue" d="M333.291,-425.446C222.201,-413.731 0,-381.71 0,-313 0,-313 0,-313 0,-251 0,-162.429 126.981,-140.04 203.12,-134.576"/>
<polygon fill="midnightblue" stroke="midnightblue" points="333.054,-428.94 343.361,-426.485 333.772,-421.977 333.054,-428.94"/>
</g>
<!-- Node10 -->
<g id="node31" class="node"><title>Node10</title>
<a xlink:href="util_8h.html" target="_top" xlink:title="include/fa/util.h">
<polygon fill="none" stroke="black" points="563.62,-360.695 563.62,-383.305 660.38,-383.305 660.38,-360.695 563.62,-360.695"/>
<text text-anchor="middle" x="612" y="-368.305" font-family="Futura" font-size="11.00">include/fa/util.h</text>
</a>
</g>
<!-- Node1&#45;&gt;Node10 -->
<g id="edge42" class="edge"><title>Node1&#45;&gt;Node10</title>
<path fill="none" stroke="midnightblue" d="M443.891,-417.932C482.974,-407.486 537.02,-393.041 573.175,-383.377"/>
<polygon fill="midnightblue" stroke="midnightblue" points="442.552,-414.667 433.795,-420.631 444.36,-421.43 442.552,-414.667"/>
</g>
<!-- Node3 -->
<g id="node5" class="node"><title>Node3</title>
<a xlink:href="audio_8h.html" target="_top" xlink:title="include/fa/audio.h">
<polygon fill="none" stroke="black" points="96.592,-300.695 96.592,-323.305 207.408,-323.305 207.408,-300.695 96.592,-300.695"/>
<text text-anchor="middle" x="152" y="-308.305" font-family="Futura" font-size="11.00">include/fa/audio.h</text>
</a>
</g>
<!-- Node2&#45;&gt;Node3 -->
<g id="edge4" class="edge"><title>Node2&#45;&gt;Node3</title>
<path fill="none" stroke="midnightblue" d="M267.28,-356.989C240.134,-346.63 203.766,-332.753 179.195,-323.377"/>
<polygon fill="midnightblue" stroke="midnightblue" points="266.235,-360.336 276.825,-360.631 268.73,-353.796 266.235,-360.336"/>
</g>
<!-- Node3&#45;&gt;Node4 -->
<g id="edge6" class="edge"><title>Node3&#45;&gt;Node4</title>
<path fill="none" stroke="midnightblue" d="M205.358,-298.264C249.224,-287.794 310.605,-273.144 351.524,-263.377"/>
<polygon fill="midnightblue" stroke="midnightblue" points="204.358,-294.905 195.444,-300.631 205.983,-301.713 204.358,-294.905"/>
</g>
<!-- Node4&#45;&gt;Node1 -->
<g id="edge34" class="edge"><title>Node4&#45;&gt;Node1</title>
<path fill="none" stroke="midnightblue" d="M399.525,-273.78C402.835,-312.001 402.452,-392.15 398.376,-420.661"/>
<polygon fill="midnightblue" stroke="midnightblue" points="402.953,-272.925 398.38,-263.368 395.995,-273.691 402.953,-272.925"/>
</g>
<!-- Node4&#45;&gt;Node2 -->
<g id="edge28" class="edge"><title>Node4&#45;&gt;Node2</title>
<path fill="none" stroke="midnightblue" d="M380.621,-271.646C361.265,-296.744 327.484,-340.548 312.076,-360.528"/>
<polygon fill="midnightblue" stroke="midnightblue" points="383.476,-273.674 386.812,-263.618 377.933,-269.399 383.476,-273.674"/>
</g>
<!-- Node5 -->
<g id="node9" class="node"><title>Node5</title>
<a xlink:href="action_8h.html" target="_top" xlink:title="include/fa/action.h">
<polygon fill="none" stroke="black" points="357.746,-60.6953 357.746,-83.3047 470.254,-83.3047 470.254,-60.6953 357.746,-60.6953"/>
<text text-anchor="middle" x="414" y="-68.3047" font-family="Futura" font-size="11.00">include/fa/action.h</text>
</a>
</g>
<!-- Node4&#45;&gt;Node5 -->
<g id="edge8" class="edge"><title>Node4&#45;&gt;Node5</title>
<path fill="none" stroke="midnightblue" d="M392.692,-230.258C393.457,-192.065 402.393,-111.913 409.514,-83.368"/>
<polygon fill="midnightblue" stroke="midnightblue" points="389.193,-230.673 392.728,-240.661 396.193,-230.648 389.193,-230.673"/>
</g>
<!-- Node7 -->
<g id="node16" class="node"><title>Node7</title>
<a xlink:href="buffer_8h.html" target="_top" xlink:title="include/fa/buffer.h">
<polygon fill="none" stroke="red" points="104.227,-180.695 104.227,-203.305 215.773,-203.305 215.773,-180.695 104.227,-180.695"/>
<text text-anchor="middle" x="160" y="-188.305" font-family="Futura" font-size="11.00">include/fa/buffer.h</text>
</a>
</g>
<!-- Node4&#45;&gt;Node7 -->
<g id="edge18" class="edge"><title>Node4&#45;&gt;Node7</title>
<path fill="none" stroke="midnightblue" d="M343.131,-238.198C300.727,-227.733 241.533,-213.123 202.045,-203.377"/>
<polygon fill="midnightblue" stroke="midnightblue" points="342.439,-241.633 352.987,-240.631 344.117,-234.836 342.439,-241.633"/>
</g>
<!-- Node4&#45;&gt;Node8 -->
<g id="edge32" class="edge"><title>Node4&#45;&gt;Node8</title>
<path fill="none" stroke="midnightblue" d="M384.075,-230.727C378.681,-215.124 371.462,-193.939 358,-180 340.598,-161.982 315.121,-150.445 294.268,-143.314"/>
<polygon fill="midnightblue" stroke="midnightblue" points="380.901,-232.247 387.571,-240.479 387.491,-229.884 380.901,-232.247"/>
</g>
<!-- Node9 -->
<g id="node24" class="node"><title>Node9</title>
<a xlink:href="dynamic_8h.html" target="_top" xlink:title="include/fa/dynamic.h">
<polygon fill="none" stroke="black" points="233.918,-180.695 233.918,-203.305 358.082,-203.305 358.082,-180.695 233.918,-180.695"/>
<text text-anchor="middle" x="296" y="-188.305" font-family="Futura" font-size="11.00">include/fa/dynamic.h</text>
</a>
</g>
<!-- Node4&#45;&gt;Node9 -->
<g id="edge30" class="edge"><title>Node4&#45;&gt;Node9</title>
<path fill="none" stroke="midnightblue" d="M368.274,-235.342C351.02,-225.234 329.045,-212.359 313.88,-203.475"/>
<polygon fill="midnightblue" stroke="midnightblue" points="366.903,-238.596 377.301,-240.631 370.442,-232.556 366.903,-238.596"/>
</g>
<!-- Node5&#45;&gt;Node3 -->
<g id="edge10" class="edge"><title>Node5&#45;&gt;Node3</title>
<path fill="none" stroke="midnightblue" d="M347.522,-82.1339C303.143,-89.4522 243.979,-101.585 194,-120 141.379,-139.388 111.718,-131.832 83,-180 63.7953,-212.212 72.2543,-231.519 91,-264 100.289,-280.095 117.474,-292.568 131.243,-300.608"/>
<polygon fill="midnightblue" stroke="midnightblue" points="348.295,-85.5547 357.612,-80.5107 347.183,-78.6435 348.295,-85.5547"/>
</g>
<!-- Node5&#45;&gt;Node4 -->
<g id="edge12" class="edge"><title>Node5&#45;&gt;Node4</title>
<path fill="none" stroke="midnightblue" d="M416.307,-93.78C415.537,-132.001 406.599,-212.15 399.479,-240.661"/>
<polygon fill="midnightblue" stroke="midnightblue" points="419.806,-93.3564 416.273,-83.368 412.806,-93.3794 419.806,-93.3564"/>
</g>
<!-- Node5&#45;&gt;Node6 -->
<g id="edge14" class="edge"><title>Node5&#45;&gt;Node6</title>
<path fill="none" stroke="midnightblue" d="M437.494,-54.7779C452.005,-44.7583 470.2,-32.1949 482.829,-23.475"/>
<polygon fill="midnightblue" stroke="midnightblue" points="435.258,-52.0687 429.018,-60.6308 439.235,-57.829 435.258,-52.0687"/>
</g>
<!-- Node6&#45;&gt;Node4 -->
<g id="edge16" class="edge"><title>Node6&#45;&gt;Node4</title>
<path fill="none" stroke="midnightblue" d="M493.425,-33.5715C490.016,-47.892 484.936,-67.3329 479,-84 459.377,-139.094 452.807,-152.549 425,-204 418.004,-216.945 408.74,-231.087 402.367,-240.441"/>
<polygon fill="midnightblue" stroke="midnightblue" points="496.854,-34.2804 495.694,-23.7493 490.033,-32.7054 496.854,-34.2804"/>
</g>
<!-- Node7&#45;&gt;Node8 -->
<g id="edge20" class="edge"><title>Node7&#45;&gt;Node8</title>
<path fill="none" stroke="midnightblue" d="M186.726,-175.342C203.98,-165.234 225.955,-152.359 241.12,-143.475"/>
<polygon fill="midnightblue" stroke="midnightblue" points="184.558,-172.556 177.699,-180.631 188.097,-178.596 184.558,-172.556"/>
</g>
<!-- Node8&#45;&gt;Node3 -->
<g id="edge24" class="edge"><title>Node8&#45;&gt;Node3</title>
<path fill="none" stroke="midnightblue" d="M193.054,-143.621C152.943,-151.578 107.161,-163.864 95,-180 65.1438,-219.614 116.728,-277.287 140.725,-300.624"/>
<polygon fill="midnightblue" stroke="midnightblue" points="193.945,-147.014 203.106,-141.691 192.625,-140.139 193.945,-147.014"/>
</g>
<!-- Node8&#45;&gt;Node4 -->
<g id="edge26" class="edge"><title>Node8&#45;&gt;Node4</title>
<path fill="none" stroke="midnightblue" d="M319.779,-146.491C339.937,-153.721 360.978,-164.445 376,-180 392.569,-197.156 399.68,-225.288 399.314,-240.479"/>
<polygon fill="midnightblue" stroke="midnightblue" points="320.889,-143.172 310.295,-143.314 318.665,-149.809 320.889,-143.172"/>
</g>
<!-- Node8&#45;&gt;Node5 -->
<g id="edge22" class="edge"><title>Node8&#45;&gt;Node5</title>
<path fill="none" stroke="midnightblue" d="M296.081,-117.125C323.801,-106.752 361.102,-92.7941 386.268,-83.3771"/>
<polygon fill="midnightblue" stroke="midnightblue" points="294.85,-113.848 286.711,-120.631 297.303,-120.404 294.85,-113.848"/>
</g>
</g>
</svg>
