<?xml version="1.0" encoding="UTF-8" standalone="no"?>
<!DOCTYPE svg PUBLIC "-//W3C//DTD SVG 1.1//EN"
 "http://www.w3.org/Graphics/SVG/1.1/DTD/svg11.dtd">
<!-- Generated by graphviz version 2.28.0 (20121015.0031)
 -->
<!-- Title: include/fa/time.h Pages: 1 -->
<svg width="751pt" height="272pt"
 viewBox="0.00 0.00 751.20 272.00" xmlns="http://www.w3.org/2000/svg" xmlns:xlink="http://www.w3.org/1999/xlink">
<g id="graph1" class="graph" transform="scale(1 1) rotate(0) translate(4 268)">
<title>include/fa/time.h</title>
<!-- Node1 -->
<g id="node1" class="node"><title>Node1</title>
<polygon fill="#bfbfbf" stroke="black" points="278.594,-240.695 278.594,-263.305 381.406,-263.305 381.406,-240.695 278.594,-240.695"/>
<text text-anchor="middle" x="330" y="-248.305" font-family="Futura" font-size="11.00">include/fa/time.h</text>
</g>
<!-- Node2 -->
<g id="node3" class="node"><title>Node2</title>
<a xlink:href="fa_2fa_8h.html" target="_top" xlink:title="include/fa/fa.h">
<polygon fill="none" stroke="red" points="283.846,-180.695 283.846,-203.305 376.154,-203.305 376.154,-180.695 283.846,-180.695"/>
<text text-anchor="middle" x="330" y="-188.305" font-family="Futura" font-size="11.00">include/fa/fa.h</text>
</a>
</g>
<!-- Node1&#45;&gt;Node2 -->
<g id="edge2" class="edge"><title>Node1&#45;&gt;Node2</title>
<path fill="none" stroke="midnightblue" d="M323.512,-230.459C322.936,-221.411 323.309,-211.16 324.63,-203.672"/>
<polygon fill="midnightblue" stroke="midnightblue" points="320.062,-231.097 324.684,-240.631 327.016,-230.296 320.062,-231.097"/>
</g>
<!-- Node5 -->
<g id="node10" class="node"><title>Node5</title>
<a xlink:href="signal_8h.html" target="_top" xlink:title="include/fa/signal.h">
<polygon fill="none" stroke="red" points="-0.716797,-60.6953 -0.716797,-83.3047 110.717,-83.3047 110.717,-60.6953 -0.716797,-60.6953"/>
<text text-anchor="middle" x="55" y="-68.3047" font-family="Futura" font-size="11.00">include/fa/signal.h</text>
</a>
</g>
<!-- Node1&#45;&gt;Node5 -->
<g id="edge34" class="edge"><title>Node1&#45;&gt;Node5</title>
<path fill="none" stroke="midnightblue" d="M268.247,-244.343C205.898,-234.105 112.013,-208.35 63,-144 49.471,-126.238 51.0121,-98.3523 53.1195,-83.3608"/>
<polygon fill="midnightblue" stroke="midnightblue" points="267.935,-247.836 278.354,-245.913 269.009,-240.919 267.935,-247.836"/>
</g>
<!-- Node10 -->
<g id="node28" class="node"><title>Node10</title>
<a xlink:href="util_8h.html" target="_top" xlink:title="include/fa/util.h">
<polygon fill="none" stroke="black" points="394.62,-180.695 394.62,-203.305 491.38,-203.305 491.38,-180.695 394.62,-180.695"/>
<text text-anchor="middle" x="443" y="-188.305" font-family="Futura" font-size="11.00">include/fa/util.h</text>
</a>
</g>
<!-- Node1&#45;&gt;Node10 -->
<g id="edge36" class="edge"><title>Node1&#45;&gt;Node10</title>
<path fill="none" stroke="midnightblue" d="M359.147,-236.04C379.034,-225.832 404.882,-212.565 422.592,-203.475"/>
<polygon fill="midnightblue" stroke="midnightblue" points="357.5,-232.951 350.202,-240.631 360.697,-239.178 357.5,-232.951"/>
</g>
<!-- Node2&#45;&gt;Node1 -->
<g id="edge32" class="edge"><title>Node2&#45;&gt;Node1</title>
<path fill="none" stroke="midnightblue" d="M336.492,-213.611C337.069,-222.764 336.677,-233.137 335.316,-240.631"/>
<polygon fill="midnightblue" stroke="midnightblue" points="339.97,-213.216 335.37,-203.672 333.014,-214.001 339.97,-213.216"/>
</g>
<!-- Node3 -->
<g id="node5" class="node"><title>Node3</title>
<a xlink:href="action_8h.html" target="_top" xlink:title="include/fa/action.h">
<polygon fill="none" stroke="red" points="562.746,-0.695312 562.746,-23.3047 675.254,-23.3047 675.254,-0.695312 562.746,-0.695312"/>
<text text-anchor="middle" x="619" y="-8.30469" font-family="Futura" font-size="11.00">include/fa/action.h</text>
</a>
</g>
<!-- Node2&#45;&gt;Node3 -->
<g id="edge4" class="edge"><title>Node2&#45;&gt;Node3</title>
<path fill="none" stroke="midnightblue" d="M382.937,-179.417C468.468,-171.088 666.518,-197.92 715,-144 753.684,-100.977 669.248,-45.9121 633.562,-23.3463"/>
<polygon fill="midnightblue" stroke="midnightblue" points="382.342,-175.963 372.84,-180.651 383.191,-182.912 382.342,-175.963"/>
</g>
<!-- Node4 -->
<g id="node8" class="node"><title>Node4</title>
<a xlink:href="buffer_8h.html" target="_top" xlink:title="include/fa/buffer.h">
<polygon fill="none" stroke="red" points="92.2268,-120.695 92.2268,-143.305 203.773,-143.305 203.773,-120.695 92.2268,-120.695"/>
<text text-anchor="middle" x="148" y="-128.305" font-family="Futura" font-size="11.00">include/fa/buffer.h</text>
</a>
</g>
<!-- Node2&#45;&gt;Node4 -->
<g id="edge8" class="edge"><title>Node2&#45;&gt;Node4</title>
<path fill="none" stroke="midnightblue" d="M287.733,-177.53C255.061,-167.118 210.5,-152.917 180.563,-143.377"/>
<polygon fill="midnightblue" stroke="midnightblue" points="286.871,-180.929 297.462,-180.631 288.997,-174.26 286.871,-180.929"/>
</g>
<!-- Node2&#45;&gt;Node5 -->
<g id="edge30" class="edge"><title>Node2&#45;&gt;Node5</title>
<path fill="none" stroke="midnightblue" d="M273.515,-187.12C207.346,-181.292 103.321,-168.279 74,-144 55.4255,-128.62 49.1095,-99.2227 50.2441,-83.5126"/>
<polygon fill="midnightblue" stroke="midnightblue" points="273.532,-190.634 283.792,-187.994 274.125,-183.659 273.532,-190.634"/>
</g>
<!-- Node6 -->
<g id="node14" class="node"><title>Node6</title>
<a xlink:href="device_8h.html" target="_top" xlink:title="include/fa/device.h">
<polygon fill="none" stroke="red" points="334.817,-120.695 334.817,-143.305 449.183,-143.305 449.183,-120.695 334.817,-120.695"/>
<text text-anchor="middle" x="392" y="-128.305" font-family="Futura" font-size="11.00">include/fa/device.h</text>
</a>
</g>
<!-- Node2&#45;&gt;Node6 -->
<g id="edge16" class="edge"><title>Node2&#45;&gt;Node6</title>
<path fill="none" stroke="midnightblue" d="M348.515,-173.68C358.937,-163.93 371.62,-152.065 380.592,-143.672"/>
<polygon fill="midnightblue" stroke="midnightblue" points="345.996,-171.243 341.084,-180.631 350.778,-176.355 345.996,-171.243"/>
</g>
<!-- Node7 -->
<g id="node16" class="node"><title>Node7</title>
<a xlink:href="dynamic_8h.html" target="_top" xlink:title="include/fa/dynamic.h">
<polygon fill="none" stroke="black" points="466.918,-120.695 466.918,-143.305 591.082,-143.305 591.082,-120.695 466.918,-120.695"/>
<text text-anchor="middle" x="529" y="-128.305" font-family="Futura" font-size="11.00">include/fa/dynamic.h</text>
</a>
</g>
<!-- Node2&#45;&gt;Node7 -->
<g id="edge18" class="edge"><title>Node2&#45;&gt;Node7</title>
<path fill="none" stroke="midnightblue" d="M375.294,-177.799C411.098,-167.363 460.38,-153 493.396,-143.377"/>
<polygon fill="midnightblue" stroke="midnightblue" points="374.198,-174.472 365.577,-180.631 376.157,-181.193 374.198,-174.472"/>
</g>
<!-- Node8 -->
<g id="node18" class="node"><title>Node8</title>
<a xlink:href="error_8h.html" target="_top" xlink:title="include/fa/error.h">
<polygon fill="none" stroke="red" points="608.598,-120.695 608.598,-143.305 715.402,-143.305 715.402,-120.695 608.598,-120.695"/>
<text text-anchor="middle" x="662" y="-128.305" font-family="Futura" font-size="11.00">include/fa/error.h</text>
</a>
</g>
<!-- Node2&#45;&gt;Node8 -->
<g id="edge20" class="edge"><title>Node2&#45;&gt;Node8</title>
<path fill="none" stroke="midnightblue" d="M383.567,-178.815C473.665,-162.526 499.302,-159.847 591,-144 596.602,-143.032 602.486,-142.003 608.382,-140.979"/>
<polygon fill="midnightblue" stroke="midnightblue" points="382.669,-175.421 373.456,-180.651 383.92,-182.308 382.669,-175.421"/>
</g>
<!-- Node9 -->
<g id="node21" class="node"><title>Node9</title>
<a xlink:href="list_8h.html" target="_top" xlink:title="include/fa/list.h">
<polygon fill="none" stroke="red" points="221.385,-120.695 221.385,-143.305 316.615,-143.305 316.615,-120.695 221.385,-120.695"/>
<text text-anchor="middle" x="269" y="-128.305" font-family="Futura" font-size="11.00">include/fa/list.h</text>
</a>
</g>
<!-- Node2&#45;&gt;Node9 -->
<g id="edge24" class="edge"><title>Node2&#45;&gt;Node9</title>
<path fill="none" stroke="midnightblue" d="M305.874,-173.966C294.629,-164.163 282.273,-152.148 274.854,-143.672"/>
<polygon fill="midnightblue" stroke="midnightblue" points="303.877,-176.86 313.779,-180.631 308.39,-171.509 303.877,-176.86"/>
</g>
<!-- Node3&#45;&gt;Node2 -->
<g id="edge6" class="edge"><title>Node3&#45;&gt;Node2</title>
<path fill="none" stroke="midnightblue" d="M652.153,-28.1027C697.621,-52.9603 769.191,-103.75 733,-144 682.496,-200.169 469.687,-168.71 395,-180 389.024,-180.903 382.716,-182.001 376.453,-183.149"/>
<polygon fill="midnightblue" stroke="midnightblue" points="653.646,-24.9331 643.171,-23.3463 650.37,-31.1193 653.646,-24.9331"/>
</g>
<!-- Node4&#45;&gt;Node5 -->
<g id="edge10" class="edge"><title>Node4&#45;&gt;Node5</title>
<path fill="none" stroke="midnightblue" d="M122.442,-115.061C106.303,-104.996 85.91,-92.2772 71.7962,-83.475"/>
<polygon fill="midnightblue" stroke="midnightblue" points="121.036,-118.309 131.373,-120.631 124.74,-112.369 121.036,-118.309"/>
</g>
<!-- Node5&#45;&gt;Node2 -->
<g id="edge14" class="edge"><title>Node5&#45;&gt;Node2</title>
<path fill="none" stroke="midnightblue" d="M64.8118,-93.1463C69.7751,-109.335 76.7631,-131.384 92,-144 120.999,-168.011 223.066,-181.004 283.81,-186.925"/>
<polygon fill="midnightblue" stroke="midnightblue" points="68.1198,-91.9984 61.7761,-83.5126 61.4434,-94.1022 68.1198,-91.9984"/>
</g>
<!-- Node5&#45;&gt;Node3 -->
<g id="edge12" class="edge"><title>Node5&#45;&gt;Node3</title>
<path fill="none" stroke="midnightblue" d="M121.018,-64.2109C232.862,-52.7093 457.649,-29.5929 562.605,-18.7994"/>
<polygon fill="midnightblue" stroke="midnightblue" points="120.47,-60.7487 110.881,-65.2534 121.187,-67.712 120.47,-60.7487"/>
</g>
<!-- Node8&#45;&gt;Node2 -->
<g id="edge22" class="edge"><title>Node8&#45;&gt;Node2</title>
<path fill="none" stroke="midnightblue" d="M603.028,-145.024C512.233,-160.598 486.641,-163.295 395,-180 388.957,-181.102 382.556,-182.315 376.197,-183.521"/>
<polygon fill="midnightblue" stroke="midnightblue" points="603.657,-148.467 612.918,-143.321 602.469,-141.569 603.657,-148.467"/>
</g>
<!-- Node9&#45;&gt;Node2 -->
<g id="edge28" class="edge"><title>Node9&#45;&gt;Node2</title>
<path fill="none" stroke="midnightblue" d="M293.53,-150.387C304.8,-160.242 317.11,-172.24 324.41,-180.631"/>
<polygon fill="midnightblue" stroke="midnightblue" points="295.489,-147.459 285.594,-143.672 290.967,-152.803 295.489,-147.459"/>
</g>
<!-- Node9&#45;&gt;Node3 -->
<g id="edge26" class="edge"><title>Node9&#45;&gt;Node3</title>
<path fill="none" stroke="midnightblue" d="M309.649,-117.295C380.468,-93.4195 524.945,-44.7099 588.191,-23.3869"/>
<polygon fill="midnightblue" stroke="midnightblue" points="308.111,-114.12 299.753,-120.632 310.348,-120.753 308.111,-114.12"/>
</g>
</g>
</svg>
