<?xml version="1.0" encoding="UTF-8" standalone="no"?>
<!DOCTYPE svg PUBLIC "-//W3C//DTD SVG 1.1//EN"
 "http://www.w3.org/Graphics/SVG/1.1/DTD/svg11.dtd">
<!-- Generated by graphviz version 2.28.0 (20121015.0031)
 -->
<!-- Title: include/fae/time.h Pages: 1 -->
<svg width="864pt" height="212pt"
 viewBox="0.00 0.00 864.00 212.00" xmlns="http://www.w3.org/2000/svg" xmlns:xlink="http://www.w3.org/1999/xlink">
<g id="graph1" class="graph" transform="scale(1 1) rotate(0) translate(4 208)">
<title>include/fae/time.h</title>
<!-- Node1 -->
<g id="node1" class="node"><title>Node1</title>
<polygon fill="#bfbfbf" stroke="black" points="605.551,-180.695 605.551,-203.305 714.449,-203.305 714.449,-180.695 605.551,-180.695"/>
<text text-anchor="middle" x="660" y="-188.305" font-family="Futura" font-size="11.00">include/fae/time.h</text>
</g>
<!-- Node2 -->
<g id="node3" class="node"><title>Node2</title>
<a xlink:href="fae_2fae_8h.html" target="_top" xlink:title="fae.h">
<polygon fill="none" stroke="red" points="541.23,-120.695 541.23,-143.305 582.77,-143.305 582.77,-120.695 541.23,-120.695"/>
<text text-anchor="middle" x="562" y="-128.305" font-family="Futura" font-size="11.00">fae.h</text>
</a>
</g>
<!-- Node1&#45;&gt;Node2 -->
<g id="edge2" class="edge"><title>Node1&#45;&gt;Node2</title>
<path fill="none" stroke="midnightblue" d="M637.164,-180.631C620.751,-171.86 599.004,-159.147 583.023,-149.06"/>
<polygon fill="midnightblue" stroke="midnightblue" points="584.665,-145.954 574.364,-143.475 580.87,-151.837 584.665,-145.954"/>
</g>
<!-- Node9 -->
<g id="node19" class="node"><title>Node9</title>
<a xlink:href="string_8h.html" target="_top" xlink:title="fae/string.h">
<polygon fill="none" stroke="black" points="682.827,-0.695312 682.827,-23.3047 757.173,-23.3047 757.173,-0.695312 682.827,-0.695312"/>
<text text-anchor="middle" x="720" y="-8.30469" font-family="Futura" font-size="11.00">fae/string.h</text>
</a>
</g>
<!-- Node1&#45;&gt;Node9 -->
<g id="edge28" class="edge"><title>Node1&#45;&gt;Node9</title>
<path fill="none" stroke="midnightblue" d="M668.309,-180.562C682.265,-162.286 709.88,-122.739 720,-84 724.327,-67.4376 723.959,-47.9505 722.717,-33.586"/>
<polygon fill="midnightblue" stroke="midnightblue" points="726.162,-32.8835 721.606,-23.3179 719.202,-33.6363 726.162,-32.8835"/>
</g>
<!-- Node10 -->
<g id="node23" class="node"><title>Node10</title>
<a xlink:href="ratio_8h.html" target="_top" xlink:title="fae/ratio.h">
<polygon fill="none" stroke="red" points="785.884,-120.695 785.884,-143.305 856.116,-143.305 856.116,-120.695 785.884,-120.695"/>
<text text-anchor="middle" x="821" y="-128.305" font-family="Futura" font-size="11.00">fae/ratio.h</text>
</a>
</g>
<!-- Node1&#45;&gt;Node10 -->
<g id="edge26" class="edge"><title>Node1&#45;&gt;Node10</title>
<path fill="none" stroke="midnightblue" d="M688.784,-180.631C714.917,-171.216 753.661,-157.259 782.46,-146.884"/>
<polygon fill="midnightblue" stroke="midnightblue" points="783.973,-150.059 792.195,-143.377 781.6,-143.474 783.973,-150.059"/>
</g>
<!-- Node2&#45;&gt;Node1 -->
<g id="edge24" class="edge"><title>Node2&#45;&gt;Node1</title>
<path fill="none" stroke="midnightblue" d="M582.866,-142.322C599.577,-151.158 622.629,-164.608 639.282,-175.133"/>
<polygon fill="midnightblue" stroke="midnightblue" points="637.496,-178.145 647.795,-180.631 641.294,-172.265 637.496,-178.145"/>
</g>
<!-- Node3 -->
<g id="node5" class="node"><title>Node3</title>
<a xlink:href="atomic_8h.html" target="_top" xlink:title="fae/atomic.h">
<polygon fill="none" stroke="red" points="-0.105713,-60.6953 -0.105713,-83.3047 80.1057,-83.3047 80.1057,-60.6953 -0.105713,-60.6953"/>
<text text-anchor="middle" x="40" y="-68.3047" font-family="Futura" font-size="11.00">fae/atomic.h</text>
</a>
</g>
<!-- Node2&#45;&gt;Node3 -->
<g id="edge4" class="edge"><title>Node2&#45;&gt;Node3</title>
<path fill="none" stroke="midnightblue" d="M540.775,-129.991C474.174,-126.335 265.028,-112.559 87.0652,-84.9164"/>
<polygon fill="midnightblue" stroke="midnightblue" points="87.4289,-81.4307 77.0064,-83.3337 86.3408,-88.3456 87.4289,-81.4307"/>
</g>
<!-- Node4 -->
<g id="node8" class="node"><title>Node4</title>
<polygon fill="none" stroke="#bfbfbf" points="98.6057,-60.6953 98.6057,-83.3047 215.394,-83.3047 215.394,-60.6953 98.6057,-60.6953"/>
<text text-anchor="middle" x="157" y="-68.3047" font-family="Futura" font-size="11.00">fae/atomic/queue.h</text>
</g>
<!-- Node2&#45;&gt;Node4 -->
<g id="edge8" class="edge"><title>Node2&#45;&gt;Node4</title>
<path fill="none" stroke="midnightblue" d="M541.01,-128.264C489.283,-121.482 351.323,-103.16 225.635,-84.223"/>
<polygon fill="midnightblue" stroke="midnightblue" points="225.863,-80.7178 215.452,-82.6834 224.816,-87.6392 225.863,-80.7178"/>
</g>
<!-- Node5 -->
<g id="node10" class="node"><title>Node5</title>
<a xlink:href="stack_8h.html" target="_top" xlink:title="fae/atomic/stack.h">
<polygon fill="none" stroke="red" points="233.377,-60.6953 233.377,-83.3047 344.623,-83.3047 344.623,-60.6953 233.377,-60.6953"/>
<text text-anchor="middle" x="289" y="-68.3047" font-family="Futura" font-size="11.00">fae/atomic/stack.h</text>
</a>
</g>
<!-- Node2&#45;&gt;Node5 -->
<g id="edge10" class="edge"><title>Node2&#45;&gt;Node5</title>
<path fill="none" stroke="midnightblue" d="M541.031,-126.545C500.109,-117.851 408.301,-98.3459 347.524,-85.4337"/>
<polygon fill="midnightblue" stroke="midnightblue" points="348.186,-81.9962 337.677,-83.3415 346.731,-88.8434 348.186,-81.9962"/>
</g>
<!-- Node6 -->
<g id="node12" class="node"><title>Node6</title>
<polygon fill="none" stroke="#bfbfbf" points="362.483,-60.6953 362.483,-83.3047 503.517,-83.3047 503.517,-60.6953 362.483,-60.6953"/>
<text text-anchor="middle" x="433" y="-68.3047" font-family="Futura" font-size="11.00">fae/atomic/ring_buffer.h</text>
</g>
<!-- Node2&#45;&gt;Node6 -->
<g id="edge12" class="edge"><title>Node2&#45;&gt;Node6</title>
<path fill="none" stroke="midnightblue" d="M540.987,-121.552C520.531,-112.355 489.152,-98.2464 465.481,-87.6038"/>
<polygon fill="midnightblue" stroke="midnightblue" points="466.741,-84.3327 456.185,-83.4242 463.87,-90.7171 466.741,-84.3327"/>
</g>
<!-- Node7 -->
<g id="node14" class="node"><title>Node7</title>
<a xlink:href="system_8h.html" target="_top" xlink:title="fae/system.h">
<polygon fill="none" stroke="red" points="521.983,-60.6953 521.983,-83.3047 602.017,-83.3047 602.017,-60.6953 521.983,-60.6953"/>
<text text-anchor="middle" x="562" y="-68.3047" font-family="Futura" font-size="11.00">fae/system.h</text>
</a>
</g>
<!-- Node2&#45;&gt;Node7 -->
<g id="edge14" class="edge"><title>Node2&#45;&gt;Node7</title>
<path fill="none" stroke="midnightblue" d="M562,-120.631C562,-113.218 562,-102.989 562,-93.9096"/>
<polygon fill="midnightblue" stroke="midnightblue" points="565.5,-93.6718 562,-83.6719 558.5,-93.6719 565.5,-93.6718"/>
</g>
<!-- Node8 -->
<g id="node16" class="node"><title>Node8</title>
<a xlink:href="error_8h.html" target="_top" xlink:title="fae/error.h">
<polygon fill="none" stroke="black" points="620.119,-60.6953 620.119,-83.3047 691.881,-83.3047 691.881,-60.6953 620.119,-60.6953"/>
<text text-anchor="middle" x="656" y="-68.3047" font-family="Futura" font-size="11.00">fae/error.h</text>
</a>
</g>
<!-- Node2&#45;&gt;Node8 -->
<g id="edge16" class="edge"><title>Node2&#45;&gt;Node8</title>
<path fill="none" stroke="midnightblue" d="M573.489,-120.631C586.347,-111.696 607.212,-98.6702 624.831,-88.4977"/>
<polygon fill="midnightblue" stroke="midnightblue" points="626.716,-91.4523 633.688,-83.475 623.263,-85.3631 626.716,-91.4523"/>
</g>
<!-- Node3&#45;&gt;Node2 -->
<g id="edge6" class="edge"><title>Node3&#45;&gt;Node2</title>
<path fill="none" stroke="midnightblue" d="M80.1898,-80.4897C86.5194,-81.792 92.9435,-83.0356 99,-84 260.615,-109.733 455.743,-123.837 530.754,-128.859"/>
<polygon fill="midnightblue" stroke="midnightblue" points="530.722,-132.365 540.931,-129.535 531.185,-125.38 530.722,-132.365"/>
</g>
<!-- Node8&#45;&gt;Node2 -->
<g id="edge18" class="edge"><title>Node8&#45;&gt;Node2</title>
<path fill="none" stroke="midnightblue" d="M644.357,-83.4761C631.217,-92.5953 609.84,-105.917 592.066,-116.138"/>
<polygon fill="midnightblue" stroke="midnightblue" points="590.152,-113.199 583.163,-121.161 593.592,-119.296 590.152,-113.199"/>
</g>
<!-- Node8&#45;&gt;Node9 -->
<g id="edge20" class="edge"><title>Node8&#45;&gt;Node9</title>
<path fill="none" stroke="midnightblue" d="M667.442,-60.6308C676.61,-52.3219 689.683,-40.4746 700.497,-30.6745"/>
<polygon fill="midnightblue" stroke="midnightblue" points="703.165,-32.9806 708.224,-23.6719 698.464,-27.7936 703.165,-32.9806"/>
</g>
<!-- Node9&#45;&gt;Node2 -->
<g id="edge22" class="edge"><title>Node9&#45;&gt;Node2</title>
<path fill="none" stroke="midnightblue" d="M719.962,-23.3792C719.34,-38.6498 715.944,-67.176 700,-84 671.967,-113.579 624.605,-124.543 593.318,-128.607"/>
<polygon fill="midnightblue" stroke="midnightblue" points="592.524,-125.174 582.98,-129.776 593.31,-132.13 592.524,-125.174"/>
</g>
</g>
</svg>
