<?xml version="1.0" encoding="UTF-8" standalone="no"?>
<!DOCTYPE svg PUBLIC "-//W3C//DTD SVG 1.1//EN"
 "http://www.w3.org/Graphics/SVG/1.1/DTD/svg11.dtd">
<!-- Generated by graphviz version 2.28.0 (20121015.0031)
 -->
<!-- Title: src/fae/time.c Pages: 1 -->
<svg width="450pt" height="272pt"
 viewBox="0.00 0.00 450.00 272.00" xmlns="http://www.w3.org/2000/svg" xmlns:xlink="http://www.w3.org/1999/xlink">
<g id="graph1" class="graph" transform="scale(1 1) rotate(0) translate(4 268)">
<title>src/fae/time.c</title>
<!-- Node1 -->
<g id="node1" class="node"><title>Node1</title>
<polygon fill="#bfbfbf" stroke="black" points="109.798,-240.695 109.798,-263.305 196.202,-263.305 196.202,-240.695 109.798,-240.695"/>
<text text-anchor="middle" x="153" y="-248.305" font-family="Futura" font-size="11.00">src/fae/time.c</text>
</g>
<!-- Node2 -->
<g id="node3" class="node"><title>Node2</title>
<a xlink:href="time_8h.html" target="_top" xlink:title="fae/time.h">
<polygon fill="none" stroke="black" points="22.114,-120.695 22.114,-143.305 89.886,-143.305 89.886,-120.695 22.114,-120.695"/>
<text text-anchor="middle" x="56" y="-128.305" font-family="Futura" font-size="11.00">fae/time.h</text>
</a>
</g>
<!-- Node1&#45;&gt;Node2 -->
<g id="edge2" class="edge"><title>Node1&#45;&gt;Node2</title>
<path fill="none" stroke="midnightblue" d="M144.017,-240.619C135.853,-231.143 123.513,-216.718 113,-204 98.4877,-186.445 82.2537,-166.158 70.834,-151.776"/>
<polygon fill="midnightblue" stroke="midnightblue" points="73.358,-149.326 64.4041,-143.662 67.8717,-153.673 73.358,-149.326"/>
</g>
<!-- Node6 -->
<g id="node13" class="node"><title>Node6</title>
<a xlink:href="util_8h.html" target="_top" xlink:title="fae/util.h">
<polygon fill="none" stroke="red" points="122.141,-180.695 122.141,-203.305 183.859,-203.305 183.859,-180.695 122.141,-180.695"/>
<text text-anchor="middle" x="153" y="-188.305" font-family="Futura" font-size="11.00">fae/util.h</text>
</a>
</g>
<!-- Node1&#45;&gt;Node6 -->
<g id="edge14" class="edge"><title>Node1&#45;&gt;Node6</title>
<path fill="none" stroke="midnightblue" d="M153,-240.631C153,-233.218 153,-222.989 153,-213.91"/>
<polygon fill="midnightblue" stroke="midnightblue" points="156.5,-213.672 153,-203.672 149.5,-213.672 156.5,-213.672"/>
</g>
<!-- Node10 -->
<g id="node22" class="node"><title>Node10</title>
<polygon fill="none" stroke="#bfbfbf" points="201.718,-180.695 201.718,-203.305 268.282,-203.305 268.282,-180.695 201.718,-180.695"/>
<text text-anchor="middle" x="235" y="-188.305" font-family="Futura" font-size="11.00">sys/time.h</text>
</g>
<!-- Node1&#45;&gt;Node10 -->
<g id="edge24" class="edge"><title>Node1&#45;&gt;Node10</title>
<path fill="none" stroke="midnightblue" d="M167.66,-240.631C179.944,-231.942 197.698,-219.384 211.893,-209.344"/>
<polygon fill="midnightblue" stroke="midnightblue" points="214.047,-212.107 220.19,-203.475 210.005,-206.392 214.047,-212.107"/>
</g>
<!-- Node3 -->
<g id="node5" class="node"><title>Node3</title>
<a xlink:href="fae_2fae_8h.html" target="_top" xlink:title="fae.h">
<polygon fill="none" stroke="red" points="-0.769775,-0.695312 -0.769775,-23.3047 40.7698,-23.3047 40.7698,-0.695312 -0.769775,-0.695312"/>
<text text-anchor="middle" x="20" y="-8.30469" font-family="Futura" font-size="11.00">fae.h</text>
</a>
</g>
<!-- Node2&#45;&gt;Node3 -->
<g id="edge4" class="edge"><title>Node2&#45;&gt;Node3</title>
<path fill="none" stroke="midnightblue" d="M48.7583,-120.528C39.6896,-101.071 26.4515,-59.0228 21.0257,-33.6561"/>
<polygon fill="midnightblue" stroke="midnightblue" points="24.4295,-32.8145 19.169,-23.6179 17.5462,-34.0877 24.4295,-32.8145"/>
</g>
<!-- Node4 -->
<g id="node8" class="node"><title>Node4</title>
<a xlink:href="ratio_8h.html" target="_top" xlink:title="fae/ratio.h">
<polygon fill="none" stroke="red" points="56.884,-60.6953 56.884,-83.3047 127.116,-83.3047 127.116,-60.6953 56.884,-60.6953"/>
<text text-anchor="middle" x="92" y="-68.3047" font-family="Futura" font-size="11.00">fae/ratio.h</text>
</a>
</g>
<!-- Node2&#45;&gt;Node4 -->
<g id="edge8" class="edge"><title>Node2&#45;&gt;Node4</title>
<path fill="none" stroke="midnightblue" d="M62.4361,-120.631C67.2899,-112.811 74.0893,-101.856 79.9437,-92.4241"/>
<polygon fill="midnightblue" stroke="midnightblue" points="83.0762,-94.0141 85.3761,-83.6719 77.1287,-90.3225 83.0762,-94.0141"/>
</g>
<!-- Node5 -->
<g id="node10" class="node"><title>Node5</title>
<a xlink:href="string_8h.html" target="_top" xlink:title="fae/string.h">
<polygon fill="none" stroke="black" points="144.827,-60.6953 144.827,-83.3047 219.173,-83.3047 219.173,-60.6953 144.827,-60.6953"/>
<text text-anchor="middle" x="182" y="-68.3047" font-family="Futura" font-size="11.00">fae/string.h</text>
</a>
</g>
<!-- Node2&#45;&gt;Node5 -->
<g id="edge10" class="edge"><title>Node2&#45;&gt;Node5</title>
<path fill="none" stroke="midnightblue" d="M78.5263,-120.631C98.47,-111.45 127.798,-97.9501 150.143,-87.6644"/>
<polygon fill="midnightblue" stroke="midnightblue" points="151.624,-90.8359 159.244,-83.475 148.697,-84.4772 151.624,-90.8359"/>
</g>
<!-- Node3&#45;&gt;Node2 -->
<g id="edge6" class="edge"><title>Node3&#45;&gt;Node2</title>
<path fill="none" stroke="midnightblue" d="M27.3097,-23.6179C36.3991,-43.1873 49.6281,-85.2504 55.0148,-110.534"/>
<polygon fill="midnightblue" stroke="midnightblue" points="51.6017,-111.326 56.8522,-120.528 58.4864,-110.06 51.6017,-111.326"/>
</g>
<!-- Node5&#45;&gt;Node3 -->
<g id="edge12" class="edge"><title>Node5&#45;&gt;Node3</title>
<path fill="none" stroke="midnightblue" d="M153.038,-60.6308C124.218,-50.3127 80.1575,-34.5379 50.7327,-24.0031"/>
<polygon fill="midnightblue" stroke="midnightblue" points="51.5787,-20.5884 40.9841,-20.5128 49.2191,-27.1788 51.5787,-20.5884"/>
</g>
<!-- Node6&#45;&gt;Node2 -->
<g id="edge22" class="edge"><title>Node6&#45;&gt;Node2</title>
<path fill="none" stroke="midnightblue" d="M135.658,-180.631C120.853,-171.778 99.3303,-158.909 82.388,-148.778"/>
<polygon fill="midnightblue" stroke="midnightblue" points="83.8975,-145.603 73.5186,-143.475 80.3051,-151.611 83.8975,-145.603"/>
</g>
<!-- Node7 -->
<g id="node15" class="node"><title>Node7</title>
<a xlink:href="arch_8h.html" target="_top" xlink:title="fae/util/arch.h">
<polygon fill="none" stroke="black" points="108.205,-120.695 108.205,-143.305 197.795,-143.305 197.795,-120.695 108.205,-120.695"/>
<text text-anchor="middle" x="153" y="-128.305" font-family="Futura" font-size="11.00">fae/util/arch.h</text>
</a>
</g>
<!-- Node6&#45;&gt;Node7 -->
<g id="edge16" class="edge"><title>Node6&#45;&gt;Node7</title>
<path fill="none" stroke="midnightblue" d="M153,-180.631C153,-173.218 153,-162.989 153,-153.91"/>
<polygon fill="midnightblue" stroke="midnightblue" points="156.5,-153.672 153,-143.672 149.5,-153.672 156.5,-153.672"/>
</g>
<!-- Node8 -->
<g id="node17" class="node"><title>Node8</title>
<a xlink:href="alignof_8h.html" target="_top" xlink:title="fae/util/alignof.h">
<polygon fill="none" stroke="black" points="216.007,-120.695 216.007,-143.305 317.993,-143.305 317.993,-120.695 216.007,-120.695"/>
<text text-anchor="middle" x="267" y="-128.305" font-family="Futura" font-size="11.00">fae/util/alignof.h</text>
</a>
</g>
<!-- Node6&#45;&gt;Node8 -->
<g id="edge18" class="edge"><title>Node6&#45;&gt;Node8</title>
<path fill="none" stroke="midnightblue" d="M173.381,-180.631C191.184,-171.573 217.251,-158.311 237.361,-148.079"/>
<polygon fill="midnightblue" stroke="midnightblue" points="239.085,-151.129 246.411,-143.475 235.911,-144.89 239.085,-151.129"/>
</g>
<!-- Node9 -->
<g id="node19" class="node"><title>Node9</title>
<a xlink:href="minmax_8h.html" target="_top" xlink:title="fae/util/minmax.h">
<polygon fill="none" stroke="red" points="335.837,-120.695 335.837,-143.305 442.163,-143.305 442.163,-120.695 335.837,-120.695"/>
<text text-anchor="middle" x="389" y="-128.305" font-family="Futura" font-size="11.00">fae/util/minmax.h</text>
</a>
</g>
<!-- Node6&#45;&gt;Node9 -->
<g id="edge20" class="edge"><title>Node6&#45;&gt;Node9</title>
<path fill="none" stroke="midnightblue" d="M183.982,-182.371C187.026,-181.556 190.07,-180.754 193,-180 240.541,-167.766 294.837,-154.827 334.207,-145.628"/>
<polygon fill="midnightblue" stroke="midnightblue" points="335.191,-148.993 344.135,-143.314 333.602,-142.176 335.191,-148.993"/>
</g>
</g>
</svg>
