<?xml version="1.0" encoding="UTF-8" standalone="no"?>
<!DOCTYPE svg PUBLIC "-//W3C//DTD SVG 1.1//EN"
 "http://www.w3.org/Graphics/SVG/1.1/DTD/svg11.dtd">
<!-- Generated by graphviz version 2.28.0 (20121015.0031)
 -->
<!-- Title: include/fae/time.h Pages: 1 -->
<svg width="921pt" height="152pt"
 viewBox="0.00 0.00 921.00 152.00" xmlns="http://www.w3.org/2000/svg" xmlns:xlink="http://www.w3.org/1999/xlink">
<g id="graph1" class="graph" transform="scale(1 1) rotate(0) translate(4 148)">
<title>include/fae/time.h</title>
<!-- Node1 -->
<g id="node1" class="node"><title>Node1</title>
<polygon fill="#bfbfbf" stroke="black" points="657.551,-120.695 657.551,-143.305 766.449,-143.305 766.449,-120.695 657.551,-120.695"/>
<text text-anchor="middle" x="712" y="-128.305" font-family="Futura" font-size="11.00">include/fae/time.h</text>
</g>
<!-- Node2 -->
<g id="node3" class="node"><title>Node2</title>
<a xlink:href="fae_2fae_8h.html" target="_top" xlink:title="include/fae/fae.h">
<polygon fill="none" stroke="red" points="494.761,-60.6953 494.761,-83.3047 599.239,-83.3047 599.239,-60.6953 494.761,-60.6953"/>
<text text-anchor="middle" x="547" y="-68.3047" font-family="Futura" font-size="11.00">include/fae/fae.h</text>
</a>
</g>
<!-- Node1&#45;&gt;Node2 -->
<g id="edge2" class="edge"><title>Node1&#45;&gt;Node2</title>
<path fill="none" stroke="midnightblue" d="M667.476,-117.396C636.503,-106.996 596.503,-92.8764 571.204,-83.3771"/>
<polygon fill="midnightblue" stroke="midnightblue" points="666.592,-120.79 677.185,-120.631 668.805,-114.149 666.592,-120.79"/>
</g>
<!-- Node8 -->
<g id="node17" class="node"><title>Node8</title>
<a xlink:href="signal_8h.html" target="_top" xlink:title="include/fae/signal.h">
<polygon fill="none" stroke="red" points="691.24,-0.695312 691.24,-23.3047 808.76,-23.3047 808.76,-0.695312 691.24,-0.695312"/>
<text text-anchor="middle" x="750" y="-8.30469" font-family="Futura" font-size="11.00">include/fae/signal.h</text>
</a>
</g>
<!-- Node1&#45;&gt;Node8 -->
<g id="edge22" class="edge"><title>Node1&#45;&gt;Node8</title>
<path fill="none" stroke="midnightblue" d="M716.778,-110.499C720.281,-96.2104 725.387,-76.7788 731,-60 735.3,-47.1462 741.302,-32.7489 745.403,-23.3166"/>
<polygon fill="midnightblue" stroke="midnightblue" points="713.358,-109.753 714.431,-120.294 720.165,-111.385 713.358,-109.753"/>
</g>
<!-- Node9 -->
<g id="node21" class="node"><title>Node9</title>
<a xlink:href="util_8h.html" target="_top" xlink:title="include/fae/util.h">
<polygon fill="none" stroke="red" points="739.577,-60.6953 739.577,-83.3047 842.423,-83.3047 842.423,-60.6953 739.577,-60.6953"/>
<text text-anchor="middle" x="791" y="-68.3047" font-family="Futura" font-size="11.00">include/fae/util.h</text>
</a>
</g>
<!-- Node1&#45;&gt;Node9 -->
<g id="edge24" class="edge"><title>Node1&#45;&gt;Node9</title>
<path fill="none" stroke="midnightblue" d="M734.483,-114.494C748.065,-104.522 764.967,-92.1126 776.732,-83.475"/>
<polygon fill="midnightblue" stroke="midnightblue" points="732.113,-111.891 726.124,-120.631 736.256,-117.534 732.113,-111.891"/>
</g>
<!-- Node10 -->
<g id="node23" class="node"><title>Node10</title>
<a xlink:href="time_8c.html" target="_top" xlink:title="src/fae/time.c">
<polygon fill="none" stroke="black" points="826.798,-0.695312 826.798,-23.3047 913.202,-23.3047 913.202,-0.695312 826.798,-0.695312"/>
<text text-anchor="middle" x="870" y="-8.30469" font-family="Futura" font-size="11.00">src/fae/time.c</text>
</a>
</g>
<!-- Node1&#45;&gt;Node10 -->
<g id="edge28" class="edge"><title>Node1&#45;&gt;Node10</title>
<path fill="none" stroke="midnightblue" d="M776.451,-122.75C802.814,-116.264 831.612,-104.682 851,-84 866.795,-67.15 869.753,-38.6346 870.13,-23.3725"/>
<polygon fill="midnightblue" stroke="midnightblue" points="775.476,-119.382 766.491,-124.995 777.015,-126.211 775.476,-119.382"/>
</g>
<!-- Node2&#45;&gt;Node1 -->
<g id="edge20" class="edge"><title>Node2&#45;&gt;Node1</title>
<path fill="none" stroke="midnightblue" d="M591.549,-86.613C622.527,-97.0147 662.526,-111.134 687.817,-120.631"/>
<polygon fill="midnightblue" stroke="midnightblue" points="592.432,-83.2181 581.838,-83.3771 590.219,-89.859 592.432,-83.2181"/>
</g>
<!-- Node3 -->
<g id="node5" class="node"><title>Node3</title>
<a xlink:href="atomic_8h.html" target="_top" xlink:title="include/fae/atomic.h">
<polygon fill="none" stroke="red" points="-0.668945,-0.695312 -0.668945,-23.3047 120.669,-23.3047 120.669,-0.695312 -0.668945,-0.695312"/>
<text text-anchor="middle" x="60" y="-8.30469" font-family="Futura" font-size="11.00">include/fae/atomic.h</text>
</a>
</g>
<!-- Node2&#45;&gt;Node3 -->
<g id="edge4" class="edge"><title>Node2&#45;&gt;Node3</title>
<path fill="none" stroke="midnightblue" d="M484.57,-65.4851C401.11,-57.4418 249.031,-41.5297 120,-24 118.437,-23.7877 116.856,-23.5686 115.262,-23.344"/>
<polygon fill="midnightblue" stroke="midnightblue" points="484.36,-68.9809 494.648,-66.45 485.027,-62.0128 484.36,-68.9809"/>
</g>
<!-- Node4 -->
<g id="node8" class="node"><title>Node4</title>
<a xlink:href="buffer_8h.html" target="_top" xlink:title="include/fae/buffer.h">
<polygon fill="none" stroke="red" points="138.184,-0.695312 138.184,-23.3047 255.816,-23.3047 255.816,-0.695312 138.184,-0.695312"/>
<text text-anchor="middle" x="197" y="-8.30469" font-family="Futura" font-size="11.00">include/fae/buffer.h</text>
</a>
</g>
<!-- Node2&#45;&gt;Node4 -->
<g id="edge8" class="edge"><title>Node2&#45;&gt;Node4</title>
<path fill="none" stroke="midnightblue" d="M484.526,-60.6471C419.767,-49.9158 319.313,-33.269 255.905,-22.7614"/>
<polygon fill="midnightblue" stroke="midnightblue" points="484.164,-64.1348 494.601,-62.3168 485.308,-57.229 484.164,-64.1348"/>
</g>
<!-- Node5 -->
<g id="node10" class="node"><title>Node5</title>
<a xlink:href="device_8h.html" target="_top" xlink:title="include/fae/device.h">
<polygon fill="none" stroke="red" points="273.774,-0.695312 273.774,-23.3047 394.226,-23.3047 394.226,-0.695312 273.774,-0.695312"/>
<text text-anchor="middle" x="334" y="-8.30469" font-family="Futura" font-size="11.00">include/fae/device.h</text>
</a>
</g>
<!-- Node2&#45;&gt;Node5 -->
<g id="edge10" class="edge"><title>Node2&#45;&gt;Node5</title>
<path fill="none" stroke="midnightblue" d="M499.01,-57.9324C460.648,-47.4863 407.598,-33.0409 372.109,-23.3771"/>
<polygon fill="midnightblue" stroke="midnightblue" points="498.352,-61.3804 508.92,-60.6308 500.191,-54.6263 498.352,-61.3804"/>
</g>
<!-- Node6 -->
<g id="node12" class="node"><title>Node6</title>
<a xlink:href="dynamic_8h.html" target="_top" xlink:title="include/fae/dynamic.h">
<polygon fill="none" stroke="red" points="411.876,-0.695312 411.876,-23.3047 542.124,-23.3047 542.124,-0.695312 411.876,-0.695312"/>
<text text-anchor="middle" x="477" y="-8.30469" font-family="Futura" font-size="11.00">include/fae/dynamic.h</text>
</a>
</g>
<!-- Node2&#45;&gt;Node6 -->
<g id="edge12" class="edge"><title>Node2&#45;&gt;Node6</title>
<path fill="none" stroke="midnightblue" d="M526.442,-53.9659C514.61,-44.1629 500.109,-32.1477 489.88,-23.6719"/>
<polygon fill="midnightblue" stroke="midnightblue" points="524.552,-56.9456 534.485,-60.6308 529.018,-51.5555 524.552,-56.9456"/>
</g>
<!-- Node7 -->
<g id="node14" class="node"><title>Node7</title>
<a xlink:href="error_8h.html" target="_top" xlink:title="include/fae/error.h">
<polygon fill="none" stroke="red" points="560.555,-0.695312 560.555,-23.3047 673.445,-23.3047 673.445,-0.695312 560.555,-0.695312"/>
<text text-anchor="middle" x="617" y="-8.30469" font-family="Futura" font-size="11.00">include/fae/error.h</text>
</a>
</g>
<!-- Node2&#45;&gt;Node7 -->
<g id="edge14" class="edge"><title>Node2&#45;&gt;Node7</title>
<path fill="none" stroke="midnightblue" d="M561.718,-53.6331C572.663,-43.8156 587.387,-31.8659 599.023,-23.475"/>
<polygon fill="midnightblue" stroke="midnightblue" points="559.135,-51.256 554.199,-60.6308 563.904,-56.3803 559.135,-51.256"/>
</g>
<!-- Node2&#45;&gt;Node8 -->
<g id="edge18" class="edge"><title>Node2&#45;&gt;Node8</title>
<path fill="none" stroke="midnightblue" d="M593.204,-57.7988C629.728,-47.3635 680.001,-32.9997 713.68,-23.3771"/>
<polygon fill="midnightblue" stroke="midnightblue" points="591.946,-54.5181 583.292,-60.6308 593.869,-61.2488 591.946,-54.5181"/>
</g>
<!-- Node3&#45;&gt;Node2 -->
<g id="edge6" class="edge"><title>Node3&#45;&gt;Node2</title>
<path fill="none" stroke="midnightblue" d="M130.89,-23.0079C133.292,-23.351 135.667,-23.6831 138,-24 265.9,-41.376 416.446,-57.1628 494.436,-65.2718"/>
<polygon fill="midnightblue" stroke="midnightblue" points="131.304,-19.5314 120.903,-21.5457 130.29,-26.4576 131.304,-19.5314"/>
</g>
<!-- Node7&#45;&gt;Node2 -->
<g id="edge16" class="edge"><title>Node7&#45;&gt;Node2</title>
<path fill="none" stroke="midnightblue" d="M601.939,-30.6745C590.984,-40.4746 576.368,-52.3219 564.83,-60.6308"/>
<polygon fill="midnightblue" stroke="midnightblue" points="604.537,-33.0379 609.49,-23.6719 599.778,-27.9051 604.537,-33.0379"/>
</g>
<!-- Node9&#45;&gt;Node10 -->
<g id="edge26" class="edge"><title>Node9&#45;&gt;Node10</title>
<path fill="none" stroke="midnightblue" d="M813.483,-54.4937C827.065,-44.5216 843.967,-32.1126 855.732,-23.475"/>
<polygon fill="midnightblue" stroke="midnightblue" points="811.113,-51.8914 805.124,-60.6308 815.256,-57.534 811.113,-51.8914"/>
</g>
</g>
</svg>
