<?xml version="1.0" encoding="UTF-8" standalone="no"?>
<!DOCTYPE svg PUBLIC "-//W3C//DTD SVG 1.1//EN"
 "http://www.w3.org/Graphics/SVG/1.1/DTD/svg11.dtd">
<!-- Generated by graphviz version 2.28.0 (20121015.0031)
 -->
<!-- Title: src/fae/string/trex.h Pages: 1 -->
<svg width="235pt" height="92pt"
 viewBox="0.00 0.00 235.00 92.00" xmlns="http://www.w3.org/2000/svg" xmlns:xlink="http://www.w3.org/1999/xlink">
<g id="graph1" class="graph" transform="scale(1 1) rotate(0) translate(4 88)">
<title>src/fae/string/trex.h</title>
<!-- Node1 -->
<g id="node1" class="node"><title>Node1</title>
<polygon fill="#bfbfbf" stroke="black" points="59.7356,-60.6953 59.7356,-83.3047 178.264,-83.3047 178.264,-60.6953 59.7356,-60.6953"/>
<text text-anchor="middle" x="119" y="-68.3047" font-family="Futura" font-size="11.00">src/fae/string/trex.h</text>
</g>
<!-- Node2 -->
<g id="node3" class="node"><title>Node2</title>
<a xlink:href="trex_8c.html" target="_top" xlink:title="src/fae/string/trex.c">
<polygon fill="none" stroke="black" points="-0.869629,-0.695312 -0.869629,-23.3047 116.87,-23.3047 116.87,-0.695312 -0.869629,-0.695312"/>
<text text-anchor="middle" x="58" y="-8.30469" font-family="Futura" font-size="11.00">src/fae/string/trex.c</text>
</a>
</g>
<!-- Node1&#45;&gt;Node2 -->
<g id="edge2" class="edge"><title>Node1&#45;&gt;Node2</title>
<path fill="none" stroke="midnightblue" d="M100.784,-53.6797C90.5297,-43.9299 78.0515,-32.0654 69.2239,-23.6719"/>
<polygon fill="midnightblue" stroke="midnightblue" points="98.4356,-56.2766 108.094,-60.6308 103.259,-51.2036 98.4356,-56.2766"/>
</g>
<!-- Node3 -->
<g id="node5" class="node"><title>Node3</title>
<a xlink:href="fae_2string_8c.html" target="_top" xlink:title="src/fae/string.c">
<polygon fill="none" stroke="black" points="134.511,-0.695312 134.511,-23.3047 227.489,-23.3047 227.489,-0.695312 134.511,-0.695312"/>
<text text-anchor="middle" x="181" y="-8.30469" font-family="Futura" font-size="11.00">src/fae/string.c</text>
</a>
</g>
<!-- Node1&#45;&gt;Node3 -->
<g id="edge4" class="edge"><title>Node1&#45;&gt;Node3</title>
<path fill="none" stroke="midnightblue" d="M137.515,-53.6797C147.937,-43.9299 160.62,-32.0654 169.592,-23.6719"/>
<polygon fill="midnightblue" stroke="midnightblue" points="134.996,-51.2432 130.084,-60.6308 139.778,-56.3551 134.996,-51.2432"/>
</g>
</g>
</svg>
