<?xml version="1.0" encoding="UTF-8" standalone="no"?>
<!DOCTYPE svg PUBLIC "-//W3C//DTD SVG 1.1//EN"
 "http://www.w3.org/Graphics/SVG/1.1/DTD/svg11.dtd">
<!-- Generated by graphviz version 2.28.0 (20121015.0031)
 -->
<!-- Title: src/fae/string/trex.c Pages: 1 -->
<svg width="410pt" height="212pt"
 viewBox="0.00 0.00 410.00 212.00" xmlns="http://www.w3.org/2000/svg" xmlns:xlink="http://www.w3.org/1999/xlink">
<g id="graph1" class="graph" transform="scale(1 1) rotate(0) translate(4 208)">
<title>src/fae/string/trex.c</title>
<!-- Node1 -->
<g id="node1" class="node"><title>Node1</title>
<polygon fill="#bfbfbf" stroke="black" points="179.13,-180.695 179.13,-203.305 296.87,-203.305 296.87,-180.695 179.13,-180.695"/>
<text text-anchor="middle" x="238" y="-188.305" font-family="Futura" font-size="11.00">src/fae/string/trex.c</text>
</g>
<!-- Node2 -->
<g id="node3" class="node"><title>Node2</title>
<a xlink:href="string_8h.html" target="_top" xlink:title="string.h">
<polygon fill="none" stroke="black" points="71.7329,-120.695 71.7329,-143.305 124.267,-143.305 124.267,-120.695 71.7329,-120.695"/>
<text text-anchor="middle" x="98" y="-128.305" font-family="Futura" font-size="11.00">string.h</text>
</a>
</g>
<!-- Node1&#45;&gt;Node2 -->
<g id="edge2" class="edge"><title>Node1&#45;&gt;Node2</title>
<path fill="none" stroke="midnightblue" d="M212.971,-180.631C190.613,-171.368 157.642,-157.709 132.734,-147.39"/>
<polygon fill="midnightblue" stroke="midnightblue" points="133.863,-144.069 123.285,-143.475 131.183,-150.536 133.863,-144.069"/>
</g>
<!-- Node7 -->
<g id="node14" class="node"><title>Node7</title>
<polygon fill="none" stroke="#bfbfbf" points="142.216,-120.695 142.216,-143.305 193.784,-143.305 193.784,-120.695 142.216,-120.695"/>
<text text-anchor="middle" x="168" y="-128.305" font-family="Futura" font-size="11.00">stdlib.h</text>
</g>
<!-- Node1&#45;&gt;Node7 -->
<g id="edge14" class="edge"><title>Node1&#45;&gt;Node7</title>
<path fill="none" stroke="midnightblue" d="M225.485,-180.631C215.261,-172.159 200.597,-160.009 188.638,-150.1"/>
<polygon fill="midnightblue" stroke="midnightblue" points="190.813,-147.357 180.88,-143.672 186.347,-152.747 190.813,-147.357"/>
</g>
<!-- Node8 -->
<g id="node16" class="node"><title>Node8</title>
<polygon fill="none" stroke="#bfbfbf" points="211.832,-120.695 211.832,-143.305 264.168,-143.305 264.168,-120.695 211.832,-120.695"/>
<text text-anchor="middle" x="238" y="-128.305" font-family="Futura" font-size="11.00">ctype.h</text>
</g>
<!-- Node1&#45;&gt;Node8 -->
<g id="edge16" class="edge"><title>Node1&#45;&gt;Node8</title>
<path fill="none" stroke="midnightblue" d="M238,-180.631C238,-173.218 238,-162.989 238,-153.91"/>
<polygon fill="midnightblue" stroke="midnightblue" points="241.5,-153.672 238,-143.672 234.5,-153.672 241.5,-153.672"/>
</g>
<!-- Node9 -->
<g id="node18" class="node"><title>Node9</title>
<polygon fill="none" stroke="#bfbfbf" points="282.375,-120.695 282.375,-143.305 339.625,-143.305 339.625,-120.695 282.375,-120.695"/>
<text text-anchor="middle" x="311" y="-128.305" font-family="Futura" font-size="11.00">setjmp.h</text>
</g>
<!-- Node1&#45;&gt;Node9 -->
<g id="edge18" class="edge"><title>Node1&#45;&gt;Node9</title>
<path fill="none" stroke="midnightblue" d="M251.051,-180.631C261.714,-172.159 277.006,-160.009 289.477,-150.1"/>
<polygon fill="midnightblue" stroke="midnightblue" points="291.916,-152.633 297.568,-143.672 287.561,-147.152 291.916,-152.633"/>
</g>
<!-- Node10 -->
<g id="node20" class="node"><title>Node10</title>
<a xlink:href="trex_8h.html" target="_top" xlink:title="trex.h">
<polygon fill="none" stroke="black" points="357.756,-120.695 357.756,-143.305 402.244,-143.305 402.244,-120.695 357.756,-120.695"/>
<text text-anchor="middle" x="380" y="-128.305" font-family="Futura" font-size="11.00">trex.h</text>
</a>
</g>
<!-- Node1&#45;&gt;Node10 -->
<g id="edge20" class="edge"><title>Node1&#45;&gt;Node10</title>
<path fill="none" stroke="midnightblue" d="M263.387,-180.631C287.154,-170.923 322.748,-156.385 348.356,-145.925"/>
<polygon fill="midnightblue" stroke="midnightblue" points="349.703,-149.156 357.637,-142.134 347.056,-142.675 349.703,-149.156"/>
</g>
<!-- Node3 -->
<g id="node5" class="node"><title>Node3</title>
<a xlink:href="fae_2fae_8h.html" target="_top" xlink:title="fae.h">
<polygon fill="none" stroke="red" points="77.2302,-60.6953 77.2302,-83.3047 118.77,-83.3047 118.77,-60.6953 77.2302,-60.6953"/>
<text text-anchor="middle" x="98" y="-68.3047" font-family="Futura" font-size="11.00">fae.h</text>
</a>
</g>
<!-- Node2&#45;&gt;Node3 -->
<g id="edge4" class="edge"><title>Node2&#45;&gt;Node3</title>
<path fill="none" stroke="midnightblue" d="M98,-120.631C98,-113.218 98,-102.989 98,-93.9096"/>
<polygon fill="midnightblue" stroke="midnightblue" points="101.5,-93.6718 98,-83.6719 94.5001,-93.6719 101.5,-93.6718"/>
</g>
<!-- Node4 -->
<g id="node7" class="node"><title>Node4</title>
<a xlink:href="atomic_8h.html" target="_top" xlink:title="fae/atomic.h">
<polygon fill="none" stroke="red" points="-0.105713,-0.695312 -0.105713,-23.3047 80.1057,-23.3047 80.1057,-0.695312 -0.105713,-0.695312"/>
<text text-anchor="middle" x="40" y="-8.30469" font-family="Futura" font-size="11.00">fae/atomic.h</text>
</a>
</g>
<!-- Node3&#45;&gt;Node4 -->
<g id="edge6" class="edge"><title>Node3&#45;&gt;Node4</title>
<path fill="none" stroke="midnightblue" d="M82.3149,-60.6308C72.6893,-52.4848 60.8077,-40.9379 51.9334,-31.2533"/>
<polygon fill="midnightblue" stroke="midnightblue" points="54.5201,-28.8944 45.3018,-23.6719 49.2512,-33.5031 54.5201,-28.8944"/>
</g>
<!-- Node5 -->
<g id="node10" class="node"><title>Node5</title>
<polygon fill="none" stroke="#bfbfbf" points="98.6057,-0.695312 98.6057,-23.3047 215.394,-23.3047 215.394,-0.695312 98.6057,-0.695312"/>
<text text-anchor="middle" x="157" y="-8.30469" font-family="Futura" font-size="11.00">fae/atomic/queue.h</text>
</g>
<!-- Node3&#45;&gt;Node5 -->
<g id="edge10" class="edge"><title>Node3&#45;&gt;Node5</title>
<path fill="none" stroke="midnightblue" d="M108.548,-60.6308C116.917,-52.4034 128.816,-40.7066 138.727,-30.9633"/>
<polygon fill="midnightblue" stroke="midnightblue" points="141.467,-33.1782 146.144,-23.6719 136.559,-28.1863 141.467,-33.1782"/>
</g>
<!-- Node6 -->
<g id="node12" class="node"><title>Node6</title>
<a xlink:href="stack_8h.html" target="_top" xlink:title="fae/atomic/stack.h">
<polygon fill="none" stroke="red" points="233.377,-0.695312 233.377,-23.3047 344.623,-23.3047 344.623,-0.695312 233.377,-0.695312"/>
<text text-anchor="middle" x="289" y="-8.30469" font-family="Futura" font-size="11.00">fae/atomic/stack.h</text>
</a>
</g>
<!-- Node3&#45;&gt;Node6 -->
<g id="edge12" class="edge"><title>Node3&#45;&gt;Node6</title>
<path fill="none" stroke="midnightblue" d="M118.804,-64.6826C149.02,-55.5071 205.758,-38.2775 245.385,-26.2445"/>
<polygon fill="midnightblue" stroke="midnightblue" points="246.512,-29.56 255.064,-23.3053 244.478,-22.862 246.512,-29.56"/>
</g>
<!-- Node4&#45;&gt;Node3 -->
<g id="edge8" class="edge"><title>Node4&#45;&gt;Node3</title>
<path fill="none" stroke="midnightblue" d="M56.0419,-23.6719C65.6255,-31.8185 77.3567,-43.235 86.1284,-52.8141"/>
<polygon fill="midnightblue" stroke="midnightblue" points="83.7356,-55.3955 92.9466,-60.6308 89.0108,-50.7941 83.7356,-55.3955"/>
</g>
</g>
</svg>
