<?xml version="1.0" encoding="UTF-8" standalone="no"?>
<!DOCTYPE svg PUBLIC "-//W3C//DTD SVG 1.1//EN"
 "http://www.w3.org/Graphics/SVG/1.1/DTD/svg11.dtd">
<!-- Generated by graphviz version 2.28.0 (20121015.0031)
 -->
<!-- Title: include/fae/type.h Pages: 1 -->
<svg width="670pt" height="346pt"
 viewBox="0.00 0.00 670.00 346.00" xmlns="http://www.w3.org/2000/svg" xmlns:xlink="http://www.w3.org/1999/xlink">
<g id="graph1" class="graph" transform="scale(1 1) rotate(0) translate(4 342)">
<title>include/fae/type.h</title>
<!-- Node1 -->
<g id="node1" class="node"><title>Node1</title>
<polygon fill="#bfbfbf" stroke="black" points="466.984,-314.695 466.984,-337.305 577.016,-337.305 577.016,-314.695 466.984,-314.695"/>
<text text-anchor="middle" x="522" y="-322.305" font-family="Futura" font-size="11.00">include/fae/type.h</text>
</g>
<!-- Node2 -->
<g id="node3" class="node"><title>Node2</title>
<a xlink:href="buffer_8h.html" target="_top" xlink:title="include/fae/buffer.h">
<polygon fill="none" stroke="black" points="245.184,-254.695 245.184,-277.305 362.816,-277.305 362.816,-254.695 245.184,-254.695"/>
<text text-anchor="middle" x="304" y="-262.305" font-family="Futura" font-size="11.00">include/fae/buffer.h</text>
</a>
</g>
<!-- Node1&#45;&gt;Node2 -->
<g id="edge2" class="edge"><title>Node1&#45;&gt;Node2</title>
<path fill="none" stroke="midnightblue" d="M473.134,-311.999C433.852,-301.548 379.403,-287.061 343.004,-277.377"/>
<polygon fill="midnightblue" stroke="midnightblue" points="472.462,-315.442 483.026,-314.631 474.262,-308.677 472.462,-315.442"/>
</g>
<!-- Node6 -->
<g id="node13" class="node"><title>Node6</title>
<a xlink:href="signal_8h.html" target="_top" xlink:title="include/fae/signal.h">
<polygon fill="none" stroke="black" points="545.24,-60.6953 545.24,-83.3047 662.76,-83.3047 662.76,-60.6953 545.24,-60.6953"/>
<text text-anchor="middle" x="604" y="-68.3047" font-family="Futura" font-size="11.00">include/fae/signal.h</text>
</a>
</g>
<!-- Node1&#45;&gt;Node6 -->
<g id="edge26" class="edge"><title>Node1&#45;&gt;Node6</title>
<path fill="none" stroke="midnightblue" d="M570.191,-310.504C585.655,-303.318 601.075,-292.885 610,-278 648.817,-213.262 619.229,-115.159 607.911,-83.3487"/>
<polygon fill="midnightblue" stroke="midnightblue" points="568.452,-307.44 560.615,-314.57 571.187,-313.883 568.452,-307.44"/>
</g>
<!-- Node10 -->
<g id="node24" class="node"><title>Node10</title>
<a xlink:href="type_8c.html" target="_top" xlink:title="src/fae/type.c">
<polygon fill="none" stroke="black" points="514.231,-254.695 514.231,-277.305 601.769,-277.305 601.769,-254.695 514.231,-254.695"/>
<text text-anchor="middle" x="558" y="-262.305" font-family="Futura" font-size="11.00">src/fae/type.c</text>
</a>
</g>
<!-- Node1&#45;&gt;Node10 -->
<g id="edge28" class="edge"><title>Node1&#45;&gt;Node10</title>
<path fill="none" stroke="midnightblue" d="M533.831,-305.938C539.661,-296.546 546.473,-285.572 551.376,-277.672"/>
<polygon fill="midnightblue" stroke="midnightblue" points="530.736,-304.289 528.436,-314.631 536.683,-307.98 530.736,-304.289"/>
</g>
<!-- Node3 -->
<g id="node5" class="node"><title>Node3</title>
<a xlink:href="midi__msg_8h.html" target="_top" xlink:title="include/fae/midi_msg.h">
<polygon fill="none" stroke="red" points="284.445,-187.695 284.445,-210.305 419.555,-210.305 419.555,-187.695 284.445,-187.695"/>
<text text-anchor="middle" x="352" y="-195.305" font-family="Futura" font-size="11.00">include/fae/midi_msg.h</text>
</a>
</g>
<!-- Node2&#45;&gt;Node3 -->
<g id="edge4" class="edge"><title>Node2&#45;&gt;Node3</title>
<path fill="none" stroke="midnightblue" d="M317.745,-246.387C326.303,-234.798 337.005,-220.306 344.148,-210.633"/>
<polygon fill="midnightblue" stroke="midnightblue" points="314.837,-244.433 311.712,-254.557 320.468,-248.591 314.837,-244.433"/>
</g>
<!-- Node5 -->
<g id="node10" class="node"><title>Node5</title>
<a xlink:href="plot_8h.html" target="_top" xlink:title="include/fae/plot.h">
<polygon fill="none" stroke="red" points="394.308,-60.6953 394.308,-83.3047 501.692,-83.3047 501.692,-60.6953 394.308,-60.6953"/>
<text text-anchor="middle" x="448" y="-68.3047" font-family="Futura" font-size="11.00">include/fae/plot.h</text>
</a>
</g>
<!-- Node2&#45;&gt;Node5 -->
<g id="edge20" class="edge"><title>Node2&#45;&gt;Node5</title>
<path fill="none" stroke="midnightblue" d="M288.923,-246.184C276.636,-228.4 263.107,-201.341 275,-180 304.227,-127.558 370.926,-97.5811 412.441,-83.3583"/>
<polygon fill="midnightblue" stroke="midnightblue" points="286.344,-248.584 295.094,-254.558 291.98,-244.431 286.344,-248.584"/>
</g>
<!-- Node8 -->
<g id="node19" class="node"><title>Node8</title>
<a xlink:href="ring__buffer_8c.html" target="_top" xlink:title="src/fae/atomic/ring\l_buffer.c">
<polygon fill="none" stroke="black" points="-0.77124,-180.391 -0.77124,-217.609 114.771,-217.609 114.771,-180.391 -0.77124,-180.391"/>
<text text-anchor="start" x="7.22876" y="-202.609" font-family="Futura" font-size="11.00">src/fae/atomic/ring</text>
<text text-anchor="middle" x="57" y="-188" font-family="Futura" font-size="11.00">_buffer.c</text>
</a>
</g>
<!-- Node2&#45;&gt;Node8 -->
<g id="edge22" class="edge"><title>Node2&#45;&gt;Node8</title>
<path fill="none" stroke="midnightblue" d="M253.839,-252.15C217.484,-242.794 167.163,-229.756 123,-218 120.36,-217.297 117.662,-216.576 114.937,-215.844"/>
<polygon fill="midnightblue" stroke="midnightblue" points="253.149,-255.586 263.705,-254.687 254.892,-248.807 253.149,-255.586"/>
</g>
<!-- Node9 -->
<g id="node21" class="node"><title>Node9</title>
<a xlink:href="buffer_8c.html" target="_top" xlink:title="src/fae/buffer.c">
<polygon fill="none" stroke="black" points="132.431,-187.695 132.431,-210.305 227.569,-210.305 227.569,-187.695 132.431,-187.695"/>
<text text-anchor="middle" x="180" y="-195.305" font-family="Futura" font-size="11.00">src/fae/buffer.c</text>
</a>
</g>
<!-- Node2&#45;&gt;Node9 -->
<g id="edge24" class="edge"><title>Node2&#45;&gt;Node9</title>
<path fill="none" stroke="midnightblue" d="M275.072,-249.836C251.965,-237.724 220.192,-221.069 199.873,-210.417"/>
<polygon fill="midnightblue" stroke="midnightblue" points="273.595,-253.014 284.077,-254.557 276.845,-246.814 273.595,-253.014"/>
</g>
<!-- Node4 -->
<g id="node7" class="node"><title>Node4</title>
<a xlink:href="fae_2fae_8h.html" target="_top" xlink:title="include/fae/fae.h">
<polygon fill="none" stroke="red" points="395.761,-120.695 395.761,-143.305 500.239,-143.305 500.239,-120.695 395.761,-120.695"/>
<text text-anchor="middle" x="448" y="-128.305" font-family="Futura" font-size="11.00">include/fae/fae.h</text>
</a>
</g>
<!-- Node3&#45;&gt;Node4 -->
<g id="edge6" class="edge"><title>Node3&#45;&gt;Node4</title>
<path fill="none" stroke="midnightblue" d="M376.084,-181.693C393.807,-169.693 417.373,-153.737 432.614,-143.417"/>
<polygon fill="midnightblue" stroke="midnightblue" points="373.742,-179.052 367.424,-187.557 377.667,-184.848 373.742,-179.052"/>
</g>
<!-- Node4&#45;&gt;Node1 -->
<g id="edge18" class="edge"><title>Node4&#45;&gt;Node1</title>
<path fill="none" stroke="midnightblue" d="M455.69,-152.953C471.302,-193.458 506.227,-284.074 518.021,-314.677"/>
<polygon fill="midnightblue" stroke="midnightblue" points="458.86,-151.446 451.998,-143.374 452.329,-153.963 458.86,-151.446"/>
</g>
<!-- Node4&#45;&gt;Node2 -->
<g id="edge8" class="edge"><title>Node4&#45;&gt;Node2</title>
<path fill="none" stroke="midnightblue" d="M448.36,-153.786C447.586,-172.689 443.549,-200.264 428,-218 411.381,-236.956 386.293,-248.295 363.02,-255.064"/>
<polygon fill="midnightblue" stroke="midnightblue" points="451.862,-153.597 448.497,-143.55 444.863,-153.502 451.862,-153.597"/>
</g>
<!-- Node4&#45;&gt;Node5 -->
<g id="edge10" class="edge"><title>Node4&#45;&gt;Node5</title>
<path fill="none" stroke="midnightblue" d="M441.512,-110.459C440.936,-101.411 441.309,-91.1602 442.63,-83.6719"/>
<polygon fill="midnightblue" stroke="midnightblue" points="438.062,-111.097 442.684,-120.631 445.016,-110.296 438.062,-111.097"/>
</g>
<!-- Node4&#45;&gt;Node6 -->
<g id="edge14" class="edge"><title>Node4&#45;&gt;Node6</title>
<path fill="none" stroke="midnightblue" d="M485.32,-117.125C513.219,-106.752 550.761,-92.7941 576.089,-83.3771"/>
<polygon fill="midnightblue" stroke="midnightblue" points="484.043,-113.865 475.89,-120.631 486.483,-120.426 484.043,-113.865"/>
</g>
<!-- Node5&#45;&gt;Node4 -->
<g id="edge12" class="edge"><title>Node5&#45;&gt;Node4</title>
<path fill="none" stroke="midnightblue" d="M454.492,-93.6107C455.069,-102.764 454.677,-113.137 453.316,-120.631"/>
<polygon fill="midnightblue" stroke="midnightblue" points="457.97,-93.2159 453.37,-83.6719 451.014,-94.0015 457.97,-93.2159"/>
</g>
<!-- Node7 -->
<g id="node15" class="node"><title>Node7</title>
<a xlink:href="signal_8c.html" target="_top" xlink:title="src/fae/signal.c">
<polygon fill="none" stroke="black" points="556.488,-0.695312 556.488,-23.3047 651.512,-23.3047 651.512,-0.695312 556.488,-0.695312"/>
<text text-anchor="middle" x="604" y="-8.30469" font-family="Futura" font-size="11.00">src/fae/signal.c</text>
</a>
</g>
<!-- Node6&#45;&gt;Node7 -->
<g id="edge16" class="edge"><title>Node6&#45;&gt;Node7</title>
<path fill="none" stroke="midnightblue" d="M604,-50.4586C604,-41.4112 604,-31.1602 604,-23.6719"/>
<polygon fill="midnightblue" stroke="midnightblue" points="600.5,-50.6307 604,-60.6308 607.5,-50.6308 600.5,-50.6307"/>
</g>
</g>
</svg>
