<?xml version="1.0" encoding="UTF-8" standalone="no"?>
<!DOCTYPE svg PUBLIC "-//W3C//DTD SVG 1.1//EN"
 "http://www.w3.org/Graphics/SVG/1.1/DTD/svg11.dtd">
<!-- Generated by graphviz version 2.28.0 (20121015.0031)
 -->
<!-- Title: src/fae/type.c Pages: 1 -->
<svg width="682pt" height="212pt"
 viewBox="0.00 0.00 682.00 212.00" xmlns="http://www.w3.org/2000/svg" xmlns:xlink="http://www.w3.org/1999/xlink">
<g id="graph1" class="graph" transform="scale(1 1) rotate(0) translate(4 208)">
<title>src/fae/type.c</title>
<!-- Node1 -->
<g id="node1" class="node"><title>Node1</title>
<polygon fill="#bfbfbf" stroke="black" points="112.231,-180.695 112.231,-203.305 199.769,-203.305 199.769,-180.695 112.231,-180.695"/>
<text text-anchor="middle" x="156" y="-188.305" font-family="Futura" font-size="11.00">src/fae/type.c</text>
</g>
<!-- Node2 -->
<g id="node3" class="node"><title>Node2</title>
<a xlink:href="type_8h.html" target="_top" xlink:title="fae/type.h">
<polygon fill="none" stroke="black" points="16.5474,-120.695 16.5474,-143.305 85.4526,-143.305 85.4526,-120.695 16.5474,-120.695"/>
<text text-anchor="middle" x="51" y="-128.305" font-family="Futura" font-size="11.00">fae/type.h</text>
</a>
</g>
<!-- Node1&#45;&gt;Node2 -->
<g id="edge2" class="edge"><title>Node1&#45;&gt;Node2</title>
<path fill="none" stroke="midnightblue" d="M137.228,-180.631C120.979,-171.655 97.2554,-158.551 78.8031,-148.358"/>
<polygon fill="midnightblue" stroke="midnightblue" points="80.4091,-145.247 69.9634,-143.475 77.0244,-151.374 80.4091,-145.247"/>
</g>
<!-- Node5 -->
<g id="node10" class="node"><title>Node5</title>
<a xlink:href="util_8h.html" target="_top" xlink:title="fae/util.h">
<polygon fill="none" stroke="red" points="291.141,-120.695 291.141,-143.305 352.859,-143.305 352.859,-120.695 291.141,-120.695"/>
<text text-anchor="middle" x="322" y="-128.305" font-family="Futura" font-size="11.00">fae/util.h</text>
</a>
</g>
<!-- Node1&#45;&gt;Node5 -->
<g id="edge10" class="edge"><title>Node1&#45;&gt;Node5</title>
<path fill="none" stroke="midnightblue" d="M185.677,-180.631C212.74,-171.175 252.919,-157.137 282.651,-146.748"/>
<polygon fill="midnightblue" stroke="midnightblue" points="284.014,-149.98 292.3,-143.377 281.705,-143.371 284.014,-149.98"/>
</g>
<!-- Node3 -->
<g id="node5" class="node"><title>Node3</title>
<a xlink:href="fae_2fae_8h.html" target="_top" xlink:title="fae.h">
<polygon fill="none" stroke="red" points="-0.769775,-0.695312 -0.769775,-23.3047 40.7698,-23.3047 40.7698,-0.695312 -0.769775,-0.695312"/>
<text text-anchor="middle" x="20" y="-8.30469" font-family="Futura" font-size="11.00">fae.h</text>
</a>
</g>
<!-- Node2&#45;&gt;Node3 -->
<g id="edge4" class="edge"><title>Node2&#45;&gt;Node3</title>
<path fill="none" stroke="midnightblue" d="M37.5563,-120.692C27.5571,-112.114 14.6975,-98.9264 9,-84 2.70027,-67.4959 6.73745,-47.5228 11.6024,-32.9701"/>
<polygon fill="midnightblue" stroke="midnightblue" points="14.9347,-34.0511 15.1551,-23.4585 8.37725,-31.6017 14.9347,-34.0511"/>
</g>
<!-- Node4 -->
<g id="node7" class="node"><title>Node4</title>
<a xlink:href="pair_8h.html" target="_top" xlink:title="fae/pair.h">
<polygon fill="none" stroke="red" points="17.6511,-60.6953 17.6511,-83.3047 84.3489,-83.3047 84.3489,-60.6953 17.6511,-60.6953"/>
<text text-anchor="middle" x="51" y="-68.3047" font-family="Futura" font-size="11.00">fae/pair.h</text>
</a>
</g>
<!-- Node2&#45;&gt;Node4 -->
<g id="edge6" class="edge"><title>Node2&#45;&gt;Node4</title>
<path fill="none" stroke="midnightblue" d="M51,-120.631C51,-113.218 51,-102.989 51,-93.9096"/>
<polygon fill="midnightblue" stroke="midnightblue" points="54.5001,-93.6718 51,-83.6719 47.5001,-93.6719 54.5001,-93.6718"/>
</g>
<!-- Node4&#45;&gt;Node3 -->
<g id="edge8" class="edge"><title>Node4&#45;&gt;Node3</title>
<path fill="none" stroke="midnightblue" d="M45.4578,-60.6308C41.3217,-52.8921 35.5449,-42.0841 30.5396,-32.7193"/>
<polygon fill="midnightblue" stroke="midnightblue" points="33.5045,-30.8414 25.7039,-23.6719 27.331,-34.141 33.5045,-30.8414"/>
</g>
<!-- Node6 -->
<g id="node12" class="node"><title>Node6</title>
<a xlink:href="arch_8h.html" target="_top" xlink:title="fae/util/arch.h">
<polygon fill="none" stroke="black" points="102.205,-60.6953 102.205,-83.3047 191.795,-83.3047 191.795,-60.6953 102.205,-60.6953"/>
<text text-anchor="middle" x="147" y="-68.3047" font-family="Futura" font-size="11.00">fae/util/arch.h</text>
</a>
</g>
<!-- Node5&#45;&gt;Node6 -->
<g id="edge12" class="edge"><title>Node5&#45;&gt;Node6</title>
<path fill="none" stroke="midnightblue" d="M291.116,-120.764C262.429,-111.257 219.513,-97.033 187.972,-86.5793"/>
<polygon fill="midnightblue" stroke="midnightblue" points="188.757,-83.1523 178.164,-83.3285 186.555,-89.7968 188.757,-83.1523"/>
</g>
<!-- Node7 -->
<g id="node14" class="node"><title>Node7</title>
<a xlink:href="alignof_8h.html" target="_top" xlink:title="fae/util/alignof.h">
<polygon fill="none" stroke="black" points="210.007,-60.6953 210.007,-83.3047 311.993,-83.3047 311.993,-60.6953 210.007,-60.6953"/>
<text text-anchor="middle" x="261" y="-68.3047" font-family="Futura" font-size="11.00">fae/util/alignof.h</text>
</a>
</g>
<!-- Node5&#45;&gt;Node7 -->
<g id="edge14" class="edge"><title>Node5&#45;&gt;Node7</title>
<path fill="none" stroke="midnightblue" d="M311.094,-120.631C302.356,-112.322 289.896,-100.475 279.589,-90.6745"/>
<polygon fill="midnightblue" stroke="midnightblue" points="281.883,-88.026 272.224,-83.6719 277.059,-93.099 281.883,-88.026"/>
</g>
<!-- Node8 -->
<g id="node16" class="node"><title>Node8</title>
<a xlink:href="minmax_8h.html" target="_top" xlink:title="fae/util/minmax.h">
<polygon fill="none" stroke="red" points="329.837,-60.6953 329.837,-83.3047 436.163,-83.3047 436.163,-60.6953 329.837,-60.6953"/>
<text text-anchor="middle" x="383" y="-68.3047" font-family="Futura" font-size="11.00">fae/util/minmax.h</text>
</a>
</g>
<!-- Node5&#45;&gt;Node8 -->
<g id="edge16" class="edge"><title>Node5&#45;&gt;Node8</title>
<path fill="none" stroke="midnightblue" d="M332.906,-120.631C341.644,-112.322 354.104,-100.475 364.411,-90.6745"/>
<polygon fill="midnightblue" stroke="midnightblue" points="366.941,-93.099 371.776,-83.6719 362.117,-88.026 366.941,-93.099"/>
</g>
<!-- Node9 -->
<g id="node18" class="node"><title>Node9</title>
<a xlink:href="literals_8h.html" target="_top" xlink:title="fae/util/literals.h">
<polygon fill="none" stroke="red" points="454.038,-60.6953 454.038,-83.3047 553.962,-83.3047 553.962,-60.6953 454.038,-60.6953"/>
<text text-anchor="middle" x="504" y="-68.3047" font-family="Futura" font-size="11.00">fae/util/literals.h</text>
</a>
</g>
<!-- Node5&#45;&gt;Node9 -->
<g id="edge18" class="edge"><title>Node5&#45;&gt;Node9</title>
<path fill="none" stroke="midnightblue" d="M352.874,-121.161C382.744,-111.642 428.259,-97.1372 461.534,-86.533"/>
<polygon fill="midnightblue" stroke="midnightblue" points="462.972,-89.7483 471.437,-83.3771 460.847,-83.0787 462.972,-89.7483"/>
</g>
<!-- Node10 -->
<g id="node20" class="node"><title>Node10</title>
<a xlink:href="macros_8h.html" target="_top" xlink:title="fae/util/macros.h">
<polygon fill="none" stroke="black" points="571.475,-60.6953 571.475,-83.3047 674.525,-83.3047 674.525,-60.6953 571.475,-60.6953"/>
<text text-anchor="middle" x="623" y="-68.3047" font-family="Futura" font-size="11.00">fae/util/macros.h</text>
</a>
</g>
<!-- Node5&#45;&gt;Node10 -->
<g id="edge20" class="edge"><title>Node5&#45;&gt;Node10</title>
<path fill="none" stroke="midnightblue" d="M353.079,-125.011C402.054,-115.574 498.118,-97.0635 561.435,-84.8631"/>
<polygon fill="midnightblue" stroke="midnightblue" points="562.146,-88.2905 571.303,-82.9615 560.821,-81.4169 562.146,-88.2905"/>
</g>
</g>
</svg>
