<?xml version="1.0" encoding="UTF-8" standalone="no"?>
<!DOCTYPE svg PUBLIC "-//W3C//DTD SVG 1.1//EN"
 "http://www.w3.org/Graphics/SVG/1.1/DTD/svg11.dtd">
<!-- Generated by graphviz version 2.28.0 (20121015.0031)
 -->
<!-- Title: include/fae/type.h Pages: 1 -->
<svg width="791pt" height="212pt"
 viewBox="0.00 0.00 791.00 212.00" xmlns="http://www.w3.org/2000/svg" xmlns:xlink="http://www.w3.org/1999/xlink">
<g id="graph1" class="graph" transform="scale(1 1) rotate(0) translate(4 208)">
<title>include/fae/type.h</title>
<!-- Node1 -->
<g id="node1" class="node"><title>Node1</title>
<polygon fill="#bfbfbf" stroke="black" points="377.984,-180.695 377.984,-203.305 488.016,-203.305 488.016,-180.695 377.984,-180.695"/>
<text text-anchor="middle" x="433" y="-188.305" font-family="Futura" font-size="11.00">include/fae/type.h</text>
</g>
<!-- Node2 -->
<g id="node3" class="node"><title>Node2</title>
<a xlink:href="fae_2fae_8h.html" target="_top" xlink:title="fae.h">
<polygon fill="none" stroke="red" points="412.23,-60.6953 412.23,-83.3047 453.77,-83.3047 453.77,-60.6953 412.23,-60.6953"/>
<text text-anchor="middle" x="433" y="-68.3047" font-family="Futura" font-size="11.00">fae.h</text>
</a>
</g>
<!-- Node1&#45;&gt;Node2 -->
<g id="edge2" class="edge"><title>Node1&#45;&gt;Node2</title>
<path fill="none" stroke="midnightblue" d="M429.858,-180.667C427.16,-171.224 423.48,-156.82 422,-144 420.777,-133.404 420.777,-130.596 422,-120 423.029,-111.086 425.122,-101.406 427.208,-93.1606"/>
<polygon fill="midnightblue" stroke="midnightblue" points="430.634,-93.8989 429.858,-83.3325 423.876,-92.0769 430.634,-93.8989"/>
</g>
<!-- Node10 -->
<g id="node21" class="node"><title>Node10</title>
<a xlink:href="pair_8h.html" target="_top" xlink:title="fae/pair.h">
<polygon fill="none" stroke="red" points="430.651,-120.695 430.651,-143.305 497.349,-143.305 497.349,-120.695 430.651,-120.695"/>
<text text-anchor="middle" x="464" y="-128.305" font-family="Futura" font-size="11.00">fae/pair.h</text>
</a>
</g>
<!-- Node1&#45;&gt;Node10 -->
<g id="edge22" class="edge"><title>Node1&#45;&gt;Node10</title>
<path fill="none" stroke="midnightblue" d="M438.542,-180.631C442.678,-172.892 448.455,-162.084 453.46,-152.719"/>
<polygon fill="midnightblue" stroke="midnightblue" points="456.669,-154.141 458.296,-143.672 450.495,-150.841 456.669,-154.141"/>
</g>
<!-- Node3 -->
<g id="node5" class="node"><title>Node3</title>
<a xlink:href="atomic_8h.html" target="_top" xlink:title="fae/atomic.h">
<polygon fill="none" stroke="red" points="-0.105713,-0.695312 -0.105713,-23.3047 80.1057,-23.3047 80.1057,-0.695312 -0.105713,-0.695312"/>
<text text-anchor="middle" x="40" y="-8.30469" font-family="Futura" font-size="11.00">fae/atomic.h</text>
</a>
</g>
<!-- Node2&#45;&gt;Node3 -->
<g id="edge4" class="edge"><title>Node2&#45;&gt;Node3</title>
<path fill="none" stroke="midnightblue" d="M412.154,-69.1773C358.635,-63.8137 213.487,-47.1113 87.4782,-25.118"/>
<polygon fill="midnightblue" stroke="midnightblue" points="87.7411,-21.6104 77.2851,-23.3196 86.5249,-28.5039 87.7411,-21.6104"/>
</g>
<!-- Node4 -->
<g id="node8" class="node"><title>Node4</title>
<polygon fill="none" stroke="#bfbfbf" points="98.6057,-0.695312 98.6057,-23.3047 215.394,-23.3047 215.394,-0.695312 98.6057,-0.695312"/>
<text text-anchor="middle" x="157" y="-8.30469" font-family="Futura" font-size="11.00">fae/atomic/queue.h</text>
</g>
<!-- Node2&#45;&gt;Node4 -->
<g id="edge8" class="edge"><title>Node2&#45;&gt;Node4</title>
<path fill="none" stroke="midnightblue" d="M411.801,-66.5451C370.429,-57.8511 277.612,-38.3459 216.167,-25.4337"/>
<polygon fill="midnightblue" stroke="midnightblue" points="216.718,-21.973 206.211,-23.3415 215.278,-28.8233 216.718,-21.973"/>
</g>
<!-- Node5 -->
<g id="node10" class="node"><title>Node5</title>
<a xlink:href="stack_8h.html" target="_top" xlink:title="fae/atomic/stack.h">
<polygon fill="none" stroke="red" points="233.377,-0.695312 233.377,-23.3047 344.623,-23.3047 344.623,-0.695312 233.377,-0.695312"/>
<text text-anchor="middle" x="289" y="-8.30469" font-family="Futura" font-size="11.00">fae/atomic/stack.h</text>
</a>
</g>
<!-- Node2&#45;&gt;Node5 -->
<g id="edge10" class="edge"><title>Node2&#45;&gt;Node5</title>
<path fill="none" stroke="midnightblue" d="M412.061,-62.5663C388.965,-53.2637 351.426,-38.1439 323.873,-27.0463"/>
<polygon fill="midnightblue" stroke="midnightblue" points="325.168,-23.7944 314.584,-23.3048 322.552,-30.2875 325.168,-23.7944"/>
</g>
<!-- Node6 -->
<g id="node12" class="node"><title>Node6</title>
<polygon fill="none" stroke="#bfbfbf" points="362.483,-0.695312 362.483,-23.3047 503.517,-23.3047 503.517,-0.695312 362.483,-0.695312"/>
<text text-anchor="middle" x="433" y="-8.30469" font-family="Futura" font-size="11.00">fae/atomic/ring_buffer.h</text>
</g>
<!-- Node2&#45;&gt;Node6 -->
<g id="edge12" class="edge"><title>Node2&#45;&gt;Node6</title>
<path fill="none" stroke="midnightblue" d="M433,-60.6308C433,-53.218 433,-42.9888 433,-33.9096"/>
<polygon fill="midnightblue" stroke="midnightblue" points="436.5,-33.6718 433,-23.6719 429.5,-33.6719 436.5,-33.6718"/>
</g>
<!-- Node7 -->
<g id="node14" class="node"><title>Node7</title>
<a xlink:href="system_8h.html" target="_top" xlink:title="fae/system.h">
<polygon fill="none" stroke="red" points="521.983,-0.695312 521.983,-23.3047 602.017,-23.3047 602.017,-0.695312 521.983,-0.695312"/>
<text text-anchor="middle" x="562" y="-8.30469" font-family="Futura" font-size="11.00">fae/system.h</text>
</a>
</g>
<!-- Node2&#45;&gt;Node7 -->
<g id="edge14" class="edge"><title>Node2&#45;&gt;Node7</title>
<path fill="none" stroke="midnightblue" d="M454.013,-61.5522C474.469,-52.3549 505.848,-38.2464 529.519,-27.6038"/>
<polygon fill="midnightblue" stroke="midnightblue" points="531.13,-30.7171 538.815,-23.4242 528.259,-24.3327 531.13,-30.7171"/>
</g>
<!-- Node8 -->
<g id="node16" class="node"><title>Node8</title>
<a xlink:href="error_8h.html" target="_top" xlink:title="fae/error.h">
<polygon fill="none" stroke="red" points="620.119,-0.695312 620.119,-23.3047 691.881,-23.3047 691.881,-0.695312 620.119,-0.695312"/>
<text text-anchor="middle" x="656" y="-8.30469" font-family="Futura" font-size="11.00">fae/error.h</text>
</a>
</g>
<!-- Node2&#45;&gt;Node8 -->
<g id="edge16" class="edge"><title>Node2&#45;&gt;Node8</title>
<path fill="none" stroke="midnightblue" d="M454.087,-64.3467C489.743,-54.3739 562.197,-35.4549 609.985,-23.5757"/>
<polygon fill="midnightblue" stroke="midnightblue" points="610.918,-26.9506 619.786,-21.1535 609.238,-20.155 610.918,-26.9506"/>
</g>
<!-- Node9 -->
<g id="node19" class="node"><title>Node9</title>
<polygon fill="none" stroke="#bfbfbf" points="710.2,-0.695312 710.2,-23.3047 783.8,-23.3047 783.8,-0.695312 710.2,-0.695312"/>
<text text-anchor="middle" x="747" y="-8.30469" font-family="Futura" font-size="11.00">fae/event.h</text>
</g>
<!-- Node2&#45;&gt;Node9 -->
<g id="edge20" class="edge"><title>Node2&#45;&gt;Node9</title>
<path fill="none" stroke="midnightblue" d="M453.847,-67.7358C498.911,-60.5909 608.704,-42.7039 700,-24 700.103,-23.979 700.205,-23.9579 700.308,-23.9368"/>
<polygon fill="midnightblue" stroke="midnightblue" points="701.051,-27.357 710.097,-21.8414 699.586,-20.5121 701.051,-27.357"/>
</g>
<!-- Node3&#45;&gt;Node2 -->
<g id="edge6" class="edge"><title>Node3&#45;&gt;Node2</title>
<path fill="none" stroke="midnightblue" d="M80.2199,-20.311C86.547,-21.6289 92.9623,-22.924 99,-24 209.854,-43.756 342.148,-59.767 401.611,-66.9343"/>
<polygon fill="midnightblue" stroke="midnightblue" points="401.497,-70.4459 411.845,-68.1685 402.336,-63.4962 401.497,-70.4459"/>
</g>
<!-- Node8&#45;&gt;Node2 -->
<g id="edge18" class="edge"><title>Node8&#45;&gt;Node2</title>
<path fill="none" stroke="midnightblue" d="M621.549,-23.3415C578.332,-35.1408 505.172,-54.1019 463.747,-64.1832"/>
<polygon fill="midnightblue" stroke="midnightblue" points="462.839,-60.8016 453.936,-66.5451 464.478,-67.6072 462.839,-60.8016"/>
</g>
<!-- Node10&#45;&gt;Node2 -->
<g id="edge24" class="edge"><title>Node10&#45;&gt;Node2</title>
<path fill="none" stroke="midnightblue" d="M458.458,-120.631C454.322,-112.892 448.545,-102.084 443.54,-92.7193"/>
<polygon fill="midnightblue" stroke="midnightblue" points="446.505,-90.8414 438.704,-83.6719 440.331,-94.141 446.505,-90.8414"/>
</g>
</g>
</svg>
