<?xml version="1.0" encoding="UTF-8" standalone="no"?>
<!DOCTYPE svg PUBLIC "-//W3C//DTD SVG 1.1//EN"
 "http://www.w3.org/Graphics/SVG/1.1/DTD/svg11.dtd">
<!-- Generated by graphviz version 2.28.0 (20121015.0031)
 -->
<!-- Title: include/fa/type.h Pages: 1 -->
<svg width="790pt" height="272pt"
 viewBox="0.00 0.00 789.86 272.00" xmlns="http://www.w3.org/2000/svg" xmlns:xlink="http://www.w3.org/1999/xlink">
<g id="graph1" class="graph" transform="scale(1 1) rotate(0) translate(4 268)">
<title>include/fa/type.h</title>
<!-- Node1 -->
<g id="node1" class="node"><title>Node1</title>
<polygon fill="#bfbfbf" stroke="black" points="457.027,-240.695 457.027,-263.305 560.973,-263.305 560.973,-240.695 457.027,-240.695"/>
<text text-anchor="middle" x="509" y="-248.305" font-family="Futura" font-size="11.00">include/fa/type.h</text>
</g>
<!-- Node2 -->
<g id="node3" class="node"><title>Node2</title>
<a xlink:href="audio_8h.html" target="_top" xlink:title="include/fa/audio.h">
<polygon fill="none" stroke="black" points="496.592,-180.695 496.592,-203.305 607.408,-203.305 607.408,-180.695 496.592,-180.695"/>
<text text-anchor="middle" x="552" y="-188.305" font-family="Futura" font-size="11.00">include/fa/audio.h</text>
</a>
</g>
<!-- Node1&#45;&gt;Node2 -->
<g id="edge2" class="edge"><title>Node1&#45;&gt;Node2</title>
<path fill="none" stroke="midnightblue" d="M522.698,-232.523C529.755,-223.005 538.109,-211.736 544.088,-203.672"/>
<polygon fill="midnightblue" stroke="midnightblue" points="519.832,-230.513 516.688,-240.631 525.455,-234.682 519.832,-230.513"/>
</g>
<!-- Node5 -->
<g id="node10" class="node"><title>Node5</title>
<a xlink:href="buffer_8h.html" target="_top" xlink:title="include/fa/buffer.h">
<polygon fill="none" stroke="black" points="-0.773193,-60.6953 -0.773193,-83.3047 110.773,-83.3047 110.773,-60.6953 -0.773193,-60.6953"/>
<text text-anchor="middle" x="55" y="-68.3047" font-family="Futura" font-size="11.00">include/fa/buffer.h</text>
</a>
</g>
<!-- Node1&#45;&gt;Node5 -->
<g id="edge38" class="edge"><title>Node1&#45;&gt;Node5</title>
<path fill="none" stroke="midnightblue" d="M473.318,-237.01C385.209,-202.465 158.879,-113.728 81.4441,-83.368"/>
<polygon fill="midnightblue" stroke="midnightblue" points="472.041,-240.269 482.629,-240.661 474.596,-233.752 472.041,-240.269"/>
</g>
<!-- Node7 -->
<g id="node15" class="node"><title>Node7</title>
<a xlink:href="signal_8h.html" target="_top" xlink:title="include/fa/signal.h">
<polygon fill="none" stroke="black" points="406.283,-0.695312 406.283,-23.3047 517.717,-23.3047 517.717,-0.695312 406.283,-0.695312"/>
<text text-anchor="middle" x="462" y="-8.30469" font-family="Futura" font-size="11.00">include/fa/signal.h</text>
</a>
</g>
<!-- Node1&#45;&gt;Node7 -->
<g id="edge40" class="edge"><title>Node1&#45;&gt;Node7</title>
<path fill="none" stroke="midnightblue" d="M557.298,-237.814C649.78,-210.307 836.691,-142.46 766,-60 734.674,-23.4585 596.751,-15.0742 517.871,-13.3118"/>
<polygon fill="midnightblue" stroke="midnightblue" points="556.195,-234.49 547.581,-240.659 558.162,-241.208 556.195,-234.49"/>
</g>
<!-- Node3 -->
<g id="node5" class="node"><title>Node3</title>
<a xlink:href="fa_2fa_8h.html" target="_top" xlink:title="include/fa/fa.h">
<polygon fill="none" stroke="red" points="415.846,-120.695 415.846,-143.305 508.154,-143.305 508.154,-120.695 415.846,-120.695"/>
<text text-anchor="middle" x="462" y="-128.305" font-family="Futura" font-size="11.00">include/fa/fa.h</text>
</a>
</g>
<!-- Node2&#45;&gt;Node3 -->
<g id="edge4" class="edge"><title>Node2&#45;&gt;Node3</title>
<path fill="none" stroke="midnightblue" d="M527.267,-175.061C511.648,-164.996 491.913,-152.277 478.254,-143.475"/>
<polygon fill="midnightblue" stroke="midnightblue" points="525.608,-178.156 535.91,-180.631 529.4,-172.272 525.608,-178.156"/>
</g>
<!-- Node3&#45;&gt;Node1 -->
<g id="edge36" class="edge"><title>Node3&#45;&gt;Node1</title>
<path fill="none" stroke="midnightblue" d="M469.065,-153.447C474.097,-167.711 481.154,-187.135 488,-204 493.177,-216.753 499.725,-231.17 504.121,-240.635"/>
<polygon fill="midnightblue" stroke="midnightblue" points="472.253,-151.958 465.65,-143.673 465.645,-154.268 472.253,-151.958"/>
</g>
<!-- Node4 -->
<g id="node7" class="node"><title>Node4</title>
<a xlink:href="atomic_8h.html" target="_top" xlink:title="include/fa/atomic.h">
<polygon fill="none" stroke="black" points="167.374,-60.6953 167.374,-83.3047 282.626,-83.3047 282.626,-60.6953 167.374,-60.6953"/>
<text text-anchor="middle" x="225" y="-68.3047" font-family="Futura" font-size="11.00">include/fa/atomic.h</text>
</a>
</g>
<!-- Node3&#45;&gt;Node4 -->
<g id="edge6" class="edge"><title>Node3&#45;&gt;Node4</title>
<path fill="none" stroke="midnightblue" d="M405.951,-118.664C361.527,-108.178 300.812,-93.2937 262.184,-83.4022"/>
<polygon fill="midnightblue" stroke="midnightblue" points="405.198,-122.082 415.734,-120.963 406.8,-115.268 405.198,-122.082"/>
</g>
<!-- Node3&#45;&gt;Node5 -->
<g id="edge10" class="edge"><title>Node3&#45;&gt;Node5</title>
<path fill="none" stroke="midnightblue" d="M405.708,-123.452C338.761,-114.405 223.656,-98.63 125,-84 120.498,-83.3323 115.834,-82.6279 111.151,-81.9112"/>
<polygon fill="midnightblue" stroke="midnightblue" points="405.25,-126.922 415.629,-124.791 406.187,-119.985 405.25,-126.922"/>
</g>
<!-- Node3&#45;&gt;Node7 -->
<g id="edge34" class="edge"><title>Node3&#45;&gt;Node7</title>
<path fill="none" stroke="midnightblue" d="M456.741,-110.534C454.414,-85.2504 454.811,-43.1873 457.93,-23.6179"/>
<polygon fill="midnightblue" stroke="midnightblue" points="453.275,-111.022 457.953,-120.528 460.224,-110.18 453.275,-111.022"/>
</g>
<!-- Node8 -->
<g id="node19" class="node"><title>Node8</title>
<a xlink:href="device_8h.html" target="_top" xlink:title="include/fa/device.h">
<polygon fill="none" stroke="red" points="623.817,-60.6953 623.817,-83.3047 738.183,-83.3047 738.183,-60.6953 623.817,-60.6953"/>
<text text-anchor="middle" x="681" y="-68.3047" font-family="Futura" font-size="11.00">include/fa/device.h</text>
</a>
</g>
<!-- Node3&#45;&gt;Node8 -->
<g id="edge22" class="edge"><title>Node3&#45;&gt;Node8</title>
<path fill="none" stroke="midnightblue" d="M510.839,-118.066C550.32,-107.609 605.173,-93.082 641.818,-83.3771"/>
<polygon fill="midnightblue" stroke="midnightblue" points="509.923,-114.687 501.153,-120.631 511.716,-121.454 509.923,-114.687"/>
</g>
<!-- Node9 -->
<g id="node22" class="node"><title>Node9</title>
<a xlink:href="dynamic_8h.html" target="_top" xlink:title="include/fa/dynamic.h">
<polygon fill="none" stroke="black" points="300.918,-60.6953 300.918,-83.3047 425.082,-83.3047 425.082,-60.6953 300.918,-60.6953"/>
<text text-anchor="middle" x="363" y="-68.3047" font-family="Futura" font-size="11.00">include/fa/dynamic.h</text>
</a>
</g>
<!-- Node3&#45;&gt;Node9 -->
<g id="edge26" class="edge"><title>Node3&#45;&gt;Node9</title>
<path fill="none" stroke="midnightblue" d="M435.274,-115.342C418.02,-105.234 396.045,-92.3594 380.88,-83.475"/>
<polygon fill="midnightblue" stroke="midnightblue" points="433.903,-118.596 444.301,-120.631 437.442,-112.556 433.903,-118.596"/>
</g>
<!-- Node10 -->
<g id="node24" class="node"><title>Node10</title>
<a xlink:href="error_8h.html" target="_top" xlink:title="include/fa/error.h">
<polygon fill="none" stroke="red" points="498.598,-60.6953 498.598,-83.3047 605.402,-83.3047 605.402,-60.6953 498.598,-60.6953"/>
<text text-anchor="middle" x="552" y="-68.3047" font-family="Futura" font-size="11.00">include/fa/error.h</text>
</a>
</g>
<!-- Node3&#45;&gt;Node10 -->
<g id="edge28" class="edge"><title>Node3&#45;&gt;Node10</title>
<path fill="none" stroke="midnightblue" d="M481.042,-114.778C495.552,-104.758 515.312,-92.1949 530.411,-83.475"/>
<polygon fill="midnightblue" stroke="midnightblue" points="478.914,-111.996 472.774,-120.631 482.958,-117.709 478.914,-111.996"/>
</g>
<!-- Node4&#45;&gt;Node3 -->
<g id="edge8" class="edge"><title>Node4&#45;&gt;Node3</title>
<path fill="none" stroke="midnightblue" d="M282.497,-85.6779C326.834,-96.1547 386.741,-110.846 424.945,-120.631"/>
<polygon fill="midnightblue" stroke="midnightblue" points="283.256,-82.2611 272.72,-83.3771 281.652,-89.075 283.256,-82.2611"/>
</g>
<!-- Node6 -->
<g id="node12" class="node"><title>Node6</title>
<a xlink:href="message_8h.html" target="_top" xlink:title="include/fa/midi/message.h">
<polygon fill="none" stroke="black" points="21.1335,-0.695312 21.1335,-23.3047 172.866,-23.3047 172.866,-0.695312 21.1335,-0.695312"/>
<text text-anchor="middle" x="97" y="-8.30469" font-family="Futura" font-size="11.00">include/fa/midi/message.h</text>
</a>
</g>
<!-- Node5&#45;&gt;Node6 -->
<g id="edge12" class="edge"><title>Node5&#45;&gt;Node6</title>
<path fill="none" stroke="midnightblue" d="M68.3797,-52.5233C75.2725,-43.0047 83.4324,-31.7362 89.2721,-23.6719"/>
<polygon fill="midnightblue" stroke="midnightblue" points="65.5391,-50.4785 62.5088,-60.6308 71.2087,-54.5841 65.5391,-50.4785"/>
</g>
<!-- Node5&#45;&gt;Node7 -->
<g id="edge16" class="edge"><title>Node5&#45;&gt;Node7</title>
<path fill="none" stroke="midnightblue" d="M121.518,-61.5207C200.786,-50.2247 331.812,-31.5525 406.086,-20.9681"/>
<polygon fill="midnightblue" stroke="midnightblue" points="120.57,-58.1204 111.164,-62.9962 121.558,-65.0503 120.57,-58.1204"/>
</g>
<!-- Node6&#45;&gt;Node3 -->
<g id="edge14" class="edge"><title>Node6&#45;&gt;Node3</title>
<path fill="none" stroke="midnightblue" d="M108.128,-32.3743C118.728,-48.9279 136.27,-71.9246 158,-84 201.355,-108.092 341.843,-121.967 415.682,-127.767"/>
<polygon fill="midnightblue" stroke="midnightblue" points="110.91,-30.2134 102.71,-23.5035 104.936,-33.862 110.91,-30.2134"/>
</g>
<!-- Node7&#45;&gt;Node2 -->
<g id="edge18" class="edge"><title>Node7&#45;&gt;Node2</title>
<path fill="none" stroke="midnightblue" d="M528.173,-14.3713C603.44,-17.494 719.497,-27.5901 747,-60 796.676,-118.539 667.849,-161.822 596.182,-180.631"/>
<polygon fill="midnightblue" stroke="midnightblue" points="527.963,-10.8608 517.836,-13.9753 527.695,-17.8556 527.963,-10.8608"/>
</g>
<!-- Node7&#45;&gt;Node3 -->
<g id="edge20" class="edge"><title>Node7&#45;&gt;Node3</title>
<path fill="none" stroke="midnightblue" d="M467.276,-33.6561C469.589,-59.0228 469.18,-101.071 466.047,-120.528"/>
<polygon fill="midnightblue" stroke="midnightblue" points="470.738,-33.129 466.07,-23.6179 463.788,-33.964 470.738,-33.129"/>
</g>
<!-- Node8&#45;&gt;Node2 -->
<g id="edge24" class="edge"><title>Node8&#45;&gt;Node2</title>
<path fill="none" stroke="midnightblue" d="M661.684,-90.6689C634.438,-115.592 585.577,-160.286 563.448,-180.528"/>
<polygon fill="midnightblue" stroke="midnightblue" points="664.376,-92.9499 669.392,-83.6179 659.651,-87.7848 664.376,-92.9499"/>
</g>
<!-- Node10&#45;&gt;Node2 -->
<g id="edge30" class="edge"><title>Node10&#45;&gt;Node2</title>
<path fill="none" stroke="midnightblue" d="M552,-93.6561C552,-119.023 552,-161.071 552,-180.528"/>
<polygon fill="midnightblue" stroke="midnightblue" points="555.5,-93.6178 552,-83.6179 548.5,-93.6179 555.5,-93.6178"/>
</g>
<!-- Node10&#45;&gt;Node3 -->
<g id="edge32" class="edge"><title>Node10&#45;&gt;Node3</title>
<path fill="none" stroke="midnightblue" d="M532.781,-89.344C518.229,-99.3841 498.467,-111.942 483.406,-120.631"/>
<polygon fill="midnightblue" stroke="midnightblue" points="534.937,-92.1066 541.081,-83.475 530.895,-86.3912 534.937,-92.1066"/>
</g>
</g>
</svg>
