<?xml version="1.0" encoding="UTF-8" standalone="no"?>
<!DOCTYPE svg PUBLIC "-//W3C//DTD SVG 1.1//EN"
 "http://www.w3.org/Graphics/SVG/1.1/DTD/svg11.dtd">
<!-- Generated by graphviz version 2.28.0 (20121015.0031)
 -->
<!-- Title: include/fae/type.h Pages: 1 -->
<svg width="692pt" height="346pt"
 viewBox="0.00 0.00 692.00 346.00" xmlns="http://www.w3.org/2000/svg" xmlns:xlink="http://www.w3.org/1999/xlink">
<g id="graph1" class="graph" transform="scale(1 1) rotate(0) translate(4 342)">
<title>include/fae/type.h</title>
<!-- Node1 -->
<g id="node1" class="node"><title>Node1</title>
<polygon fill="#bfbfbf" stroke="black" points="488.984,-314.695 488.984,-337.305 599.016,-337.305 599.016,-314.695 488.984,-314.695"/>
<text text-anchor="middle" x="544" y="-322.305" font-family="Futura" font-size="11.00">include/fae/type.h</text>
</g>
<!-- Node2 -->
<g id="node3" class="node"><title>Node2</title>
<a xlink:href="buffer_8h.html" target="_top" xlink:title="include/fae/buffer.h">
<polygon fill="none" stroke="black" points="251.184,-254.695 251.184,-277.305 368.816,-277.305 368.816,-254.695 251.184,-254.695"/>
<text text-anchor="middle" x="310" y="-262.305" font-family="Futura" font-size="11.00">include/fae/buffer.h</text>
</a>
</g>
<!-- Node1&#45;&gt;Node2 -->
<g id="edge2" class="edge"><title>Node1&#45;&gt;Node2</title>
<path fill="none" stroke="midnightblue" d="M492.351,-312.198C450.128,-301.733 391.186,-287.123 351.866,-277.377"/>
<polygon fill="midnightblue" stroke="midnightblue" points="491.617,-315.622 502.165,-314.631 493.301,-308.828 491.617,-315.622"/>
</g>
<!-- Node6 -->
<g id="node13" class="node"><title>Node6</title>
<a xlink:href="signal_8h.html" target="_top" xlink:title="include/fae/signal.h">
<polygon fill="none" stroke="black" points="567.24,-60.6953 567.24,-83.3047 684.76,-83.3047 684.76,-60.6953 567.24,-60.6953"/>
<text text-anchor="middle" x="626" y="-68.3047" font-family="Futura" font-size="11.00">include/fae/signal.h</text>
</a>
</g>
<!-- Node1&#45;&gt;Node6 -->
<g id="edge26" class="edge"><title>Node1&#45;&gt;Node6</title>
<path fill="none" stroke="midnightblue" d="M592.191,-310.504C607.655,-303.318 623.075,-292.885 632,-278 670.817,-213.262 641.229,-115.159 629.911,-83.3487"/>
<polygon fill="midnightblue" stroke="midnightblue" points="590.452,-307.44 582.615,-314.57 593.187,-313.883 590.452,-307.44"/>
</g>
<!-- Node10 -->
<g id="node24" class="node"><title>Node10</title>
<a xlink:href="type_8c.html" target="_top" xlink:title="src/fae/type.c">
<polygon fill="none" stroke="black" points="536.231,-254.695 536.231,-277.305 623.769,-277.305 623.769,-254.695 536.231,-254.695"/>
<text text-anchor="middle" x="580" y="-262.305" font-family="Futura" font-size="11.00">src/fae/type.c</text>
</a>
</g>
<!-- Node1&#45;&gt;Node10 -->
<g id="edge28" class="edge"><title>Node1&#45;&gt;Node10</title>
<path fill="none" stroke="midnightblue" d="M555.831,-305.938C561.661,-296.546 568.473,-285.572 573.376,-277.672"/>
<polygon fill="midnightblue" stroke="midnightblue" points="552.736,-304.289 550.436,-314.631 558.683,-307.98 552.736,-304.289"/>
</g>
<!-- Node3 -->
<g id="node5" class="node"><title>Node3</title>
<a xlink:href="message_8h.html" target="_top" xlink:title="include/fae/midi/message.h">
<polygon fill="none" stroke="red" points="284.091,-187.695 284.091,-210.305 441.909,-210.305 441.909,-187.695 284.091,-187.695"/>
<text text-anchor="middle" x="363" y="-195.305" font-family="Futura" font-size="11.00">include/fae/midi/message.h</text>
</a>
</g>
<!-- Node2&#45;&gt;Node3 -->
<g id="edge4" class="edge"><title>Node2&#45;&gt;Node3</title>
<path fill="none" stroke="midnightblue" d="M324.899,-246.727C334.395,-235.082 346.366,-220.401 354.33,-210.633"/>
<polygon fill="midnightblue" stroke="midnightblue" points="322.122,-244.595 318.515,-254.557 327.547,-249.018 322.122,-244.595"/>
</g>
<!-- Node5 -->
<g id="node10" class="node"><title>Node5</title>
<a xlink:href="plot_8h.html" target="_top" xlink:title="include/fae/plot.h">
<polygon fill="none" stroke="red" points="416.308,-60.6953 416.308,-83.3047 523.692,-83.3047 523.692,-60.6953 416.308,-60.6953"/>
<text text-anchor="middle" x="470" y="-68.3047" font-family="Futura" font-size="11.00">include/fae/plot.h</text>
</a>
</g>
<!-- Node2&#45;&gt;Node5 -->
<g id="edge20" class="edge"><title>Node2&#45;&gt;Node5</title>
<path fill="none" stroke="midnightblue" d="M292.927,-246.749C278.524,-229.034 262.146,-201.716 275,-180 307.259,-125.502 378.214,-96.9167 425.047,-83.4095"/>
<polygon fill="midnightblue" stroke="midnightblue" points="290.521,-249.319 299.702,-254.608 295.823,-244.748 290.521,-249.319"/>
</g>
<!-- Node8 -->
<g id="node19" class="node"><title>Node8</title>
<a xlink:href="ring__buffer_8c.html" target="_top" xlink:title="src/fae/atomic/ring\l_buffer.c">
<polygon fill="none" stroke="black" points="-0.77124,-180.391 -0.77124,-217.609 114.771,-217.609 114.771,-180.391 -0.77124,-180.391"/>
<text text-anchor="start" x="7.22876" y="-202.609" font-family="Futura" font-size="11.00">src/fae/atomic/ring</text>
<text text-anchor="middle" x="57" y="-188" font-family="Futura" font-size="11.00">_buffer.c</text>
</a>
</g>
<!-- Node2&#45;&gt;Node8 -->
<g id="edge22" class="edge"><title>Node2&#45;&gt;Node8</title>
<path fill="none" stroke="midnightblue" d="M258.263,-252.292C220.682,-242.989 168.629,-229.955 123,-218 120.358,-217.308 117.657,-216.594 114.931,-215.87"/>
<polygon fill="midnightblue" stroke="midnightblue" points="257.429,-255.691 267.976,-254.693 259.109,-248.895 257.429,-255.691"/>
</g>
<!-- Node9 -->
<g id="node21" class="node"><title>Node9</title>
<a xlink:href="buffer_8c.html" target="_top" xlink:title="src/fae/buffer.c">
<polygon fill="none" stroke="black" points="132.431,-187.695 132.431,-210.305 227.569,-210.305 227.569,-187.695 132.431,-187.695"/>
<text text-anchor="middle" x="180" y="-195.305" font-family="Futura" font-size="11.00">src/fae/buffer.c</text>
</a>
</g>
<!-- Node2&#45;&gt;Node9 -->
<g id="edge24" class="edge"><title>Node2&#45;&gt;Node9</title>
<path fill="none" stroke="midnightblue" d="M279.995,-249.998C255.743,-237.872 222.232,-221.116 200.835,-210.417"/>
<polygon fill="midnightblue" stroke="midnightblue" points="278.604,-253.215 289.113,-254.557 281.734,-246.954 278.604,-253.215"/>
</g>
<!-- Node4 -->
<g id="node7" class="node"><title>Node4</title>
<a xlink:href="fae_2fae_8h.html" target="_top" xlink:title="include/fae/fae.h">
<polygon fill="none" stroke="red" points="417.761,-120.695 417.761,-143.305 522.239,-143.305 522.239,-120.695 417.761,-120.695"/>
<text text-anchor="middle" x="470" y="-128.305" font-family="Futura" font-size="11.00">include/fae/fae.h</text>
</a>
</g>
<!-- Node3&#45;&gt;Node4 -->
<g id="edge6" class="edge"><title>Node3&#45;&gt;Node4</title>
<path fill="none" stroke="midnightblue" d="M388.763,-182.349C408.631,-170.281 435.552,-153.927 452.851,-143.417"/>
<polygon fill="midnightblue" stroke="midnightblue" points="386.921,-179.373 380.191,-187.557 390.555,-185.356 386.921,-179.373"/>
</g>
<!-- Node4&#45;&gt;Node1 -->
<g id="edge18" class="edge"><title>Node4&#45;&gt;Node1</title>
<path fill="none" stroke="midnightblue" d="M477.69,-152.953C493.302,-193.458 528.227,-284.074 540.021,-314.677"/>
<polygon fill="midnightblue" stroke="midnightblue" points="480.86,-151.446 473.998,-143.374 474.329,-153.963 480.86,-151.446"/>
</g>
<!-- Node4&#45;&gt;Node2 -->
<g id="edge8" class="edge"><title>Node4&#45;&gt;Node2</title>
<path fill="none" stroke="midnightblue" d="M470.535,-153.354C469.929,-172.368 466.047,-200.39 450,-218 429.277,-240.741 397.22,-252.489 369.009,-258.554"/>
<polygon fill="midnightblue" stroke="midnightblue" points="474.034,-153.362 470.58,-143.347 467.035,-153.331 474.034,-153.362"/>
</g>
<!-- Node4&#45;&gt;Node5 -->
<g id="edge10" class="edge"><title>Node4&#45;&gt;Node5</title>
<path fill="none" stroke="midnightblue" d="M463.512,-110.459C462.936,-101.411 463.309,-91.1602 464.63,-83.6719"/>
<polygon fill="midnightblue" stroke="midnightblue" points="460.062,-111.097 464.684,-120.631 467.016,-110.296 460.062,-111.097"/>
</g>
<!-- Node4&#45;&gt;Node6 -->
<g id="edge14" class="edge"><title>Node4&#45;&gt;Node6</title>
<path fill="none" stroke="midnightblue" d="M507.32,-117.125C535.219,-106.752 572.761,-92.7941 598.089,-83.3771"/>
<polygon fill="midnightblue" stroke="midnightblue" points="506.043,-113.865 497.89,-120.631 508.483,-120.426 506.043,-113.865"/>
</g>
<!-- Node5&#45;&gt;Node4 -->
<g id="edge12" class="edge"><title>Node5&#45;&gt;Node4</title>
<path fill="none" stroke="midnightblue" d="M476.492,-93.6107C477.069,-102.764 476.677,-113.137 475.316,-120.631"/>
<polygon fill="midnightblue" stroke="midnightblue" points="479.97,-93.2159 475.37,-83.6719 473.014,-94.0015 479.97,-93.2159"/>
</g>
<!-- Node7 -->
<g id="node15" class="node"><title>Node7</title>
<a xlink:href="signal_8c.html" target="_top" xlink:title="src/fae/signal.c">
<polygon fill="none" stroke="black" points="578.488,-0.695312 578.488,-23.3047 673.512,-23.3047 673.512,-0.695312 578.488,-0.695312"/>
<text text-anchor="middle" x="626" y="-8.30469" font-family="Futura" font-size="11.00">src/fae/signal.c</text>
</a>
</g>
<!-- Node6&#45;&gt;Node7 -->
<g id="edge16" class="edge"><title>Node6&#45;&gt;Node7</title>
<path fill="none" stroke="midnightblue" d="M626,-50.4586C626,-41.4112 626,-31.1602 626,-23.6719"/>
<polygon fill="midnightblue" stroke="midnightblue" points="622.5,-50.6307 626,-60.6308 629.5,-50.6308 622.5,-50.6307"/>
</g>
</g>
</svg>
