<?xml version="1.0" encoding="UTF-8" standalone="no"?>
<!DOCTYPE svg PUBLIC "-//W3C//DTD SVG 1.1//EN"
 "http://www.w3.org/Graphics/SVG/1.1/DTD/svg11.dtd">
<!-- Generated by graphviz version 2.28.0 (20121015.0031)
 -->
<!-- Title: src/fae/processor/unary.c Pages: 1 -->
<svg width="744pt" height="152pt"
 viewBox="0.00 0.00 744.00 152.00" xmlns="http://www.w3.org/2000/svg" xmlns:xlink="http://www.w3.org/1999/xlink">
<g id="graph1" class="graph" transform="scale(1 1) rotate(0) translate(4 148)">
<title>src/fae/processor/unary.c</title>
<!-- Node1 -->
<g id="node1" class="node"><title>Node1</title>
<polygon fill="#bfbfbf" stroke="black" points="109.839,-120.695 109.839,-143.305 258.161,-143.305 258.161,-120.695 109.839,-120.695"/>
<text text-anchor="middle" x="184" y="-128.305" font-family="Futura" font-size="11.00">src/fae/processor/unary.c</text>
</g>
<!-- Node2 -->
<g id="node3" class="node"><title>Node2</title>
<polygon fill="none" stroke="#bfbfbf" points="-0.844971,-60.6953 -0.844971,-83.3047 128.845,-83.3047 128.845,-60.6953 -0.844971,-60.6953"/>
<text text-anchor="middle" x="64" y="-68.3047" font-family="Futura" font-size="11.00">fae/processor/unary.h</text>
</g>
<!-- Node1&#45;&gt;Node2 -->
<g id="edge2" class="edge"><title>Node1&#45;&gt;Node2</title>
<path fill="none" stroke="midnightblue" d="M162.546,-120.631C143.722,-111.532 116.119,-98.1908 94.9117,-87.9407"/>
<polygon fill="midnightblue" stroke="midnightblue" points="96.1991,-84.6755 85.6725,-83.475 93.1528,-90.978 96.1991,-84.6755"/>
</g>
<!-- Node3 -->
<g id="node5" class="node"><title>Node3</title>
<a xlink:href="string_8h.html" target="_top" xlink:title="fae/string.h">
<polygon fill="none" stroke="black" points="146.827,-60.6953 146.827,-83.3047 221.173,-83.3047 221.173,-60.6953 146.827,-60.6953"/>
<text text-anchor="middle" x="184" y="-68.3047" font-family="Futura" font-size="11.00">fae/string.h</text>
</a>
</g>
<!-- Node1&#45;&gt;Node3 -->
<g id="edge4" class="edge"><title>Node1&#45;&gt;Node3</title>
<path fill="none" stroke="midnightblue" d="M184,-120.631C184,-113.218 184,-102.989 184,-93.9096"/>
<polygon fill="midnightblue" stroke="midnightblue" points="187.5,-93.6718 184,-83.6719 180.5,-93.6719 187.5,-93.6718"/>
</g>
<!-- Node5 -->
<g id="node9" class="node"><title>Node5</title>
<a xlink:href="util_8h.html" target="_top" xlink:title="fae/util.h">
<polygon fill="none" stroke="red" points="356.141,-60.6953 356.141,-83.3047 417.859,-83.3047 417.859,-60.6953 356.141,-60.6953"/>
<text text-anchor="middle" x="387" y="-68.3047" font-family="Futura" font-size="11.00">fae/util.h</text>
</a>
</g>
<!-- Node1&#45;&gt;Node5 -->
<g id="edge8" class="edge"><title>Node1&#45;&gt;Node5</title>
<path fill="none" stroke="midnightblue" d="M220.292,-120.631C255.631,-110.534 309.256,-95.2125 346.09,-84.6885"/>
<polygon fill="midnightblue" stroke="midnightblue" points="347.351,-87.9684 356.005,-81.8558 345.428,-81.2377 347.351,-87.9684"/>
</g>
<!-- Node4 -->
<g id="node7" class="node"><title>Node4</title>
<a xlink:href="fae_2fae_8h.html" target="_top" xlink:title="fae.h">
<polygon fill="none" stroke="red" points="104.23,-0.695312 104.23,-23.3047 145.77,-23.3047 145.77,-0.695312 104.23,-0.695312"/>
<text text-anchor="middle" x="125" y="-8.30469" font-family="Futura" font-size="11.00">fae.h</text>
</a>
</g>
<!-- Node3&#45;&gt;Node4 -->
<g id="edge6" class="edge"><title>Node3&#45;&gt;Node4</title>
<path fill="none" stroke="midnightblue" d="M173.452,-60.6308C165.083,-52.4034 153.184,-40.7066 143.273,-30.9633"/>
<polygon fill="midnightblue" stroke="midnightblue" points="145.441,-28.1863 135.856,-23.6719 140.533,-33.1782 145.441,-28.1863"/>
</g>
<!-- Node6 -->
<g id="node11" class="node"><title>Node6</title>
<a xlink:href="arch_8h.html" target="_top" xlink:title="fae/util/arch.h">
<polygon fill="none" stroke="black" points="164.205,-0.695312 164.205,-23.3047 253.795,-23.3047 253.795,-0.695312 164.205,-0.695312"/>
<text text-anchor="middle" x="209" y="-8.30469" font-family="Futura" font-size="11.00">fae/util/arch.h</text>
</a>
</g>
<!-- Node5&#45;&gt;Node6 -->
<g id="edge10" class="edge"><title>Node5&#45;&gt;Node6</title>
<path fill="none" stroke="midnightblue" d="M355.995,-60.8972C326.748,-51.3673 282.702,-37.0152 250.45,-26.5061"/>
<polygon fill="midnightblue" stroke="midnightblue" points="251.441,-23.148 240.849,-23.3776 249.272,-29.8036 251.441,-23.148"/>
</g>
<!-- Node7 -->
<g id="node13" class="node"><title>Node7</title>
<a xlink:href="alignof_8h.html" target="_top" xlink:title="fae/util/alignof.h">
<polygon fill="none" stroke="black" points="272.007,-0.695312 272.007,-23.3047 373.993,-23.3047 373.993,-0.695312 272.007,-0.695312"/>
<text text-anchor="middle" x="323" y="-8.30469" font-family="Futura" font-size="11.00">fae/util/alignof.h</text>
</a>
</g>
<!-- Node5&#45;&gt;Node7 -->
<g id="edge12" class="edge"><title>Node5&#45;&gt;Node7</title>
<path fill="none" stroke="midnightblue" d="M375.558,-60.6308C366.39,-52.3219 353.317,-40.4746 342.503,-30.6745"/>
<polygon fill="midnightblue" stroke="midnightblue" points="344.536,-27.7936 334.776,-23.6719 339.835,-32.9806 344.536,-27.7936"/>
</g>
<!-- Node8 -->
<g id="node15" class="node"><title>Node8</title>
<a xlink:href="minmax_8h.html" target="_top" xlink:title="fae/util/minmax.h">
<polygon fill="none" stroke="red" points="391.837,-0.695312 391.837,-23.3047 498.163,-23.3047 498.163,-0.695312 391.837,-0.695312"/>
<text text-anchor="middle" x="445" y="-8.30469" font-family="Futura" font-size="11.00">fae/util/minmax.h</text>
</a>
</g>
<!-- Node5&#45;&gt;Node8 -->
<g id="edge14" class="edge"><title>Node5&#45;&gt;Node8</title>
<path fill="none" stroke="midnightblue" d="M397.369,-60.6308C405.597,-52.4034 417.293,-40.7066 427.037,-30.9633"/>
<polygon fill="midnightblue" stroke="midnightblue" points="429.732,-33.2179 434.328,-23.6719 424.782,-28.2681 429.732,-33.2179"/>
</g>
<!-- Node9 -->
<g id="node17" class="node"><title>Node9</title>
<a xlink:href="literals_8h.html" target="_top" xlink:title="fae/util/literals.h">
<polygon fill="none" stroke="red" points="516.038,-0.695312 516.038,-23.3047 615.962,-23.3047 615.962,-0.695312 516.038,-0.695312"/>
<text text-anchor="middle" x="566" y="-8.30469" font-family="Futura" font-size="11.00">fae/util/literals.h</text>
</a>
</g>
<!-- Node5&#45;&gt;Node9 -->
<g id="edge16" class="edge"><title>Node5&#45;&gt;Node9</title>
<path fill="none" stroke="midnightblue" d="M418.179,-60.8972C447.59,-51.3673 491.884,-37.0152 524.317,-26.5061"/>
<polygon fill="midnightblue" stroke="midnightblue" points="525.538,-29.7897 533.973,-23.3776 523.381,-23.1305 525.538,-29.7897"/>
</g>
<!-- Node10 -->
<g id="node19" class="node"><title>Node10</title>
<a xlink:href="macros_8h.html" target="_top" xlink:title="fae/util/macros.h">
<polygon fill="none" stroke="black" points="633.475,-0.695312 633.475,-23.3047 736.525,-23.3047 736.525,-0.695312 633.475,-0.695312"/>
<text text-anchor="middle" x="685" y="-8.30469" font-family="Futura" font-size="11.00">fae/util/macros.h</text>
</a>
</g>
<!-- Node5&#45;&gt;Node10 -->
<g id="edge18" class="edge"><title>Node5&#45;&gt;Node10</title>
<path fill="none" stroke="midnightblue" d="M418.048,-64.9571C466.413,-55.5438 560.674,-37.1977 623.245,-25.0194"/>
<polygon fill="midnightblue" stroke="midnightblue" points="624.24,-28.3915 633.387,-23.0455 622.903,-21.5205 624.24,-28.3915"/>
</g>
</g>
</svg>
