<?xml version="1.0" encoding="UTF-8" standalone="no"?>
<!DOCTYPE svg PUBLIC "-//W3C//DTD SVG 1.1//EN"
 "http://www.w3.org/Graphics/SVG/1.1/DTD/svg11.dtd">
<!-- Generated by graphviz version 2.28.0 (20121015.0031)
 -->
<!-- Title: include/fae/processor/unary.h Pages: 1 -->
<svg width="287pt" height="106pt"
 viewBox="0.00 0.00 287.00 106.00" xmlns="http://www.w3.org/2000/svg" xmlns:xlink="http://www.w3.org/1999/xlink">
<g id="graph1" class="graph" transform="scale(1 1) rotate(0) translate(4 102)">
<title>include/fae/processor/unary.h</title>
<!-- Node1 -->
<g id="node1" class="node"><title>Node1</title>
<polygon fill="#bfbfbf" stroke="black" points="84.428,-60.3906 84.428,-97.6094 211.572,-97.6094 211.572,-60.3906 84.428,-60.3906"/>
<text text-anchor="start" x="92.428" y="-82.6094" font-family="Futura" font-size="11.00">include/fae/processor</text>
<text text-anchor="middle" x="148" y="-68" font-family="Futura" font-size="11.00">/unary.h</text>
</g>
<!-- Node2 -->
<g id="node3" class="node"><title>Node2</title>
<a xlink:href="unary_8c.html" target="_top" xlink:title="src/fae/processor/unary.c">
<polygon fill="none" stroke="black" points="-0.161133,-0.695312 -0.161133,-23.3047 148.161,-23.3047 148.161,-0.695312 -0.161133,-0.695312"/>
<text text-anchor="middle" x="74" y="-8.30469" font-family="Futura" font-size="11.00">src/fae/processor/unary.c</text>
</a>
</g>
<!-- Node1&#45;&gt;Node2 -->
<g id="edge2" class="edge"><title>Node1&#45;&gt;Node2</title>
<path fill="none" stroke="midnightblue" d="M119.941,-53.3539C108.237,-43.0729 95.2626,-31.6766 86.0954,-23.6243"/>
<polygon fill="midnightblue" stroke="midnightblue" points="117.956,-56.2686 127.779,-60.2385 122.576,-51.0094 117.956,-56.2686"/>
</g>
<!-- Node3 -->
<g id="node5" class="node"><title>Node3</title>
<a xlink:href="processor_8c.html" target="_top" xlink:title="src/fae/processor.c">
<polygon fill="none" stroke="black" points="166.255,-0.695312 166.255,-23.3047 279.745,-23.3047 279.745,-0.695312 166.255,-0.695312"/>
<text text-anchor="middle" x="223" y="-8.30469" font-family="Futura" font-size="11.00">src/fae/processor.c</text>
</a>
</g>
<!-- Node1&#45;&gt;Node3 -->
<g id="edge4" class="edge"><title>Node1&#45;&gt;Node3</title>
<path fill="none" stroke="midnightblue" d="M176.096,-53.6501C188.047,-43.2924 201.361,-31.754 210.741,-23.6243"/>
<polygon fill="midnightblue" stroke="midnightblue" points="173.759,-51.0442 168.494,-60.2385 178.343,-56.334 173.759,-51.0442"/>
</g>
</g>
</svg>
