<?xml version="1.0" encoding="UTF-8" standalone="no"?>
<!DOCTYPE svg PUBLIC "-//W3C//DTD SVG 1.1//EN"
 "http://www.w3.org/Graphics/SVG/1.1/DTD/svg11.dtd">
<!-- Generated by graphviz version 2.28.0 (20121015.0031)
 -->
<!-- Title: include/fae/util.h Pages: 1 -->
<svg width="1157pt" height="106pt"
 viewBox="0.00 0.00 1157.00 106.00" xmlns="http://www.w3.org/2000/svg" xmlns:xlink="http://www.w3.org/1999/xlink">
<g id="graph1" class="graph" transform="scale(1 1) rotate(0) translate(4 102)">
<title>include/fae/util.h</title>
<!-- Node1 -->
<g id="node1" class="node"><title>Node1</title>
<polygon fill="#bfbfbf" stroke="black" points="562.577,-74.6953 562.577,-97.3047 665.423,-97.3047 665.423,-74.6953 562.577,-74.6953"/>
<text text-anchor="middle" x="614" y="-82.3047" font-family="Futura" font-size="11.00">include/fae/util.h</text>
</g>
<!-- Node2 -->
<g id="node3" class="node"><title>Node2</title>
<a xlink:href="queue_8c.html" target="_top" xlink:title="src/fae/atomic/queue.c">
<polygon fill="none" stroke="black" points="-0.710449,-7.69531 -0.710449,-30.3047 134.71,-30.3047 134.71,-7.69531 -0.710449,-7.69531"/>
<text text-anchor="middle" x="67" y="-15.3047" font-family="Futura" font-size="11.00">src/fae/atomic/queue.c</text>
</a>
</g>
<!-- Node1&#45;&gt;Node2 -->
<g id="edge2" class="edge"><title>Node1&#45;&gt;Node2</title>
<path fill="none" stroke="midnightblue" d="M552.414,-81.4781C462.127,-75.7225 288.739,-62.4185 143,-38 130.964,-35.9834 117.998,-33.16 106.243,-30.3463"/>
<polygon fill="midnightblue" stroke="midnightblue" points="552.277,-84.9762 562.477,-82.1101 552.716,-77.99 552.277,-84.9762"/>
</g>
<!-- Node3 -->
<g id="node5" class="node"><title>Node3</title>
<a xlink:href="ring__buffer_8c.html" target="_top" xlink:title="src/fae/atomic/ring\l_buffer.c">
<polygon fill="none" stroke="black" points="152.229,-0.390625 152.229,-37.6094 267.771,-37.6094 267.771,-0.390625 152.229,-0.390625"/>
<text text-anchor="start" x="160.229" y="-22.6094" font-family="Futura" font-size="11.00">src/fae/atomic/ring</text>
<text text-anchor="middle" x="210" y="-8" font-family="Futura" font-size="11.00">_buffer.c</text>
</a>
</g>
<!-- Node1&#45;&gt;Node3 -->
<g id="edge4" class="edge"><title>Node1&#45;&gt;Node3</title>
<path fill="none" stroke="midnightblue" d="M552.475,-78.7365C484.619,-71.2914 372.397,-57.3891 277,-38 274.049,-37.4003 271.036,-36.746 268,-36.0536"/>
<polygon fill="midnightblue" stroke="midnightblue" points="552.247,-82.2322 562.567,-79.8319 553.003,-75.2731 552.247,-82.2322"/>
</g>
<!-- Node4 -->
<g id="node7" class="node"><title>Node4</title>
<a xlink:href="stack_8c.html" target="_top" xlink:title="src/fae/atomic/stack.c">
<polygon fill="none" stroke="black" points="286.061,-7.69531 286.061,-30.3047 415.939,-30.3047 415.939,-7.69531 286.061,-7.69531"/>
<text text-anchor="middle" x="351" y="-15.3047" font-family="Futura" font-size="11.00">src/fae/atomic/stack.c</text>
</a>
</g>
<!-- Node1&#45;&gt;Node4 -->
<g id="edge6" class="edge"><title>Node1&#45;&gt;Node4</title>
<path fill="none" stroke="midnightblue" d="M562.151,-72.1855C512.569,-59.9315 438.748,-41.6869 392.814,-30.3344"/>
<polygon fill="midnightblue" stroke="midnightblue" points="561.488,-75.6271 572.036,-74.6287 563.168,-68.8315 561.488,-75.6271"/>
</g>
<!-- Node5 -->
<g id="node9" class="node"><title>Node5</title>
<a xlink:href="buffer_8c.html" target="_top" xlink:title="src/fae/buffer.c">
<polygon fill="none" stroke="black" points="434.431,-7.69531 434.431,-30.3047 529.569,-30.3047 529.569,-7.69531 434.431,-7.69531"/>
<text text-anchor="middle" x="482" y="-15.3047" font-family="Futura" font-size="11.00">src/fae/buffer.c</text>
</a>
</g>
<!-- Node1&#45;&gt;Node5 -->
<g id="edge8" class="edge"><title>Node1&#45;&gt;Node5</title>
<path fill="none" stroke="midnightblue" d="M583.533,-69.9975C558.909,-57.8717 524.882,-41.1159 503.155,-30.4175"/>
<polygon fill="midnightblue" stroke="midnightblue" points="582.274,-73.2788 592.792,-74.5566 585.367,-66.9989 582.274,-73.2788"/>
</g>
<!-- Node6 -->
<g id="node11" class="node"><title>Node6</title>
<a xlink:href="audio_8c.html" target="_top" xlink:title="src/fae/device/audio.c">
<polygon fill="none" stroke="black" points="547.904,-7.69531 547.904,-30.3047 680.096,-30.3047 680.096,-7.69531 547.904,-7.69531"/>
<text text-anchor="middle" x="614" y="-15.3047" font-family="Futura" font-size="11.00">src/fae/device/audio.c</text>
</a>
</g>
<!-- Node1&#45;&gt;Node6 -->
<g id="edge10" class="edge"><title>Node1&#45;&gt;Node6</title>
<path fill="none" stroke="midnightblue" d="M614,-64.3136C614,-53.1093 614,-39.7368 614,-30.6334"/>
<polygon fill="midnightblue" stroke="midnightblue" points="610.5,-64.5566 614,-74.5566 617.5,-64.5567 610.5,-64.5566"/>
</g>
<!-- Node7 -->
<g id="node13" class="node"><title>Node7</title>
<a xlink:href="file_8c.html" target="_top" xlink:title="src/fae/device/file.c">
<polygon fill="none" stroke="black" points="697.84,-7.69531 697.84,-30.3047 816.16,-30.3047 816.16,-7.69531 697.84,-7.69531"/>
<text text-anchor="middle" x="757" y="-15.3047" font-family="Futura" font-size="11.00">src/fae/device/file.c</text>
</a>
</g>
<!-- Node1&#45;&gt;Node7 -->
<g id="edge12" class="edge"><title>Node1&#45;&gt;Node7</title>
<path fill="none" stroke="midnightblue" d="M646.3,-70.3184C673.029,-58.1688 710.337,-41.2106 734.082,-30.4175"/>
<polygon fill="midnightblue" stroke="midnightblue" points="644.631,-67.2323 636.975,-74.5566 647.527,-73.6048 644.631,-67.2323"/>
</g>
<!-- Node8 -->
<g id="node15" class="node"><title>Node8</title>
<a xlink:href="dynamic_8c.html" target="_top" xlink:title="src/fae/dynamic.c">
<polygon fill="none" stroke="black" points="834.123,-7.69531 834.123,-30.3047 941.877,-30.3047 941.877,-7.69531 834.123,-7.69531"/>
<text text-anchor="middle" x="888" y="-15.3047" font-family="Futura" font-size="11.00">src/fae/dynamic.c</text>
</a>
</g>
<!-- Node1&#45;&gt;Node8 -->
<g id="edge14" class="edge"><title>Node1&#45;&gt;Node8</title>
<path fill="none" stroke="midnightblue" d="M674.372,-72.5435C716.689,-63.5705 774.487,-50.8299 825,-38 834.151,-35.6757 843.99,-32.9665 853.11,-30.3662"/>
<polygon fill="midnightblue" stroke="midnightblue" points="673.566,-69.1364 664.505,-74.627 675.012,-75.9854 673.566,-69.1364"/>
</g>
<!-- Node9 -->
<g id="node17" class="node"><title>Node9</title>
<a xlink:href="error_8c.html" target="_top" xlink:title="src/fae/error.c">
<polygon fill="none" stroke="black" points="959.802,-7.69531 959.802,-30.3047 1050.2,-30.3047 1050.2,-7.69531 959.802,-7.69531"/>
<text text-anchor="middle" x="1005" y="-15.3047" font-family="Futura" font-size="11.00">src/fae/error.c</text>
</a>
</g>
<!-- Node1&#45;&gt;Node9 -->
<g id="edge16" class="edge"><title>Node1&#45;&gt;Node9</title>
<path fill="none" stroke="midnightblue" d="M675.553,-79.6945C743.392,-73.0838 855.44,-59.9045 950,-38 958.809,-35.9594 968.222,-33.1289 976.725,-30.316"/>
<polygon fill="midnightblue" stroke="midnightblue" points="675.084,-76.2233 665.463,-80.6609 675.751,-83.1914 675.084,-76.2233"/>
</g>
<!-- Node10 -->
<g id="node19" class="node"><title>Node10</title>
<a xlink:href="fae_2fae_8c.html" target="_top" xlink:title="src/fae/fae.c">
<polygon fill="none" stroke="black" points="1068.01,-7.69531 1068.01,-30.3047 1149.99,-30.3047 1149.99,-7.69531 1068.01,-7.69531"/>
<text text-anchor="middle" x="1109" y="-15.3047" font-family="Futura" font-size="11.00">src/fae/fae.c</text>
</a>
</g>
<!-- Node1&#45;&gt;Node10 -->
<g id="edge18" class="edge"><title>Node1&#45;&gt;Node10</title>
<path fill="none" stroke="midnightblue" d="M675.904,-83.1475C762.578,-79.499 924.569,-68.8234 1059,-38 1067.27,-36.1031 1076.06,-33.2448 1083.92,-30.3613"/>
<polygon fill="midnightblue" stroke="midnightblue" points="675.565,-79.6583 665.714,-83.5585 675.847,-86.6526 675.565,-79.6583"/>
</g>
</g>
</svg>
