<?xml version="1.0" encoding="UTF-8" standalone="no"?>
<!DOCTYPE svg PUBLIC "-//W3C//DTD SVG 1.1//EN"
 "http://www.w3.org/Graphics/SVG/1.1/DTD/svg11.dtd">
<!-- Generated by graphviz version 2.28.0 (20121015.0031)
 -->
<!-- Title: include/fae/util.h Pages: 1 -->
<svg width="778pt" height="152pt"
 viewBox="0.00 0.00 778.00 152.00" xmlns="http://www.w3.org/2000/svg" xmlns:xlink="http://www.w3.org/1999/xlink">
<g id="graph1" class="graph" transform="scale(1 1) rotate(0) translate(4 148)">
<title>include/fae/util.h</title>
<!-- Node1 -->
<g id="node1" class="node"><title>Node1</title>
<polygon fill="#bfbfbf" stroke="black" points="349.577,-120.695 349.577,-143.305 452.423,-143.305 452.423,-120.695 349.577,-120.695"/>
<text text-anchor="middle" x="401" y="-128.305" font-family="Futura" font-size="11.00">include/fae/util.h</text>
</g>
<!-- Node2 -->
<g id="node3" class="node"><title>Node2</title>
<a xlink:href="arch_8h.html" target="_top" xlink:title="fae/util/arch.h">
<polygon fill="none" stroke="black" points="-0.794678,-60.6953 -0.794678,-83.3047 88.7947,-83.3047 88.7947,-60.6953 -0.794678,-60.6953"/>
<text text-anchor="middle" x="44" y="-68.3047" font-family="Futura" font-size="11.00">fae/util/arch.h</text>
</a>
</g>
<!-- Node1&#45;&gt;Node2 -->
<g id="edge2" class="edge"><title>Node1&#45;&gt;Node2</title>
<path fill="none" stroke="midnightblue" d="M349.409,-123.752C291.075,-115.389 193.018,-100.823 99.0139,-84.1229"/>
<polygon fill="midnightblue" stroke="midnightblue" points="99.5107,-80.6563 89.0508,-82.3421 98.2789,-87.5471 99.5107,-80.6563"/>
</g>
<!-- Node3 -->
<g id="node5" class="node"><title>Node3</title>
<a xlink:href="alignof_8h.html" target="_top" xlink:title="fae/util/alignof.h">
<polygon fill="none" stroke="black" points="107.007,-60.6953 107.007,-83.3047 208.993,-83.3047 208.993,-60.6953 107.007,-60.6953"/>
<text text-anchor="middle" x="158" y="-68.3047" font-family="Futura" font-size="11.00">fae/util/alignof.h</text>
</a>
</g>
<!-- Node1&#45;&gt;Node3 -->
<g id="edge4" class="edge"><title>Node1&#45;&gt;Node3</title>
<path fill="none" stroke="midnightblue" d="M357.556,-120.631C316.649,-110.867 255.269,-96.2165 211.393,-85.744"/>
<polygon fill="midnightblue" stroke="midnightblue" points="212.016,-82.2944 201.476,-83.3771 210.391,-89.1031 212.016,-82.2944"/>
</g>
<!-- Node4 -->
<g id="node7" class="node"><title>Node4</title>
<a xlink:href="minmax_8h.html" target="_top" xlink:title="fae/util/minmax.h">
<polygon fill="none" stroke="black" points="226.837,-60.6953 226.837,-83.3047 333.163,-83.3047 333.163,-60.6953 226.837,-60.6953"/>
<text text-anchor="middle" x="280" y="-68.3047" font-family="Futura" font-size="11.00">fae/util/minmax.h</text>
</a>
</g>
<!-- Node1&#45;&gt;Node4 -->
<g id="edge6" class="edge"><title>Node1&#45;&gt;Node4</title>
<path fill="none" stroke="midnightblue" d="M379.368,-120.631C360.301,-111.491 332.302,-98.0705 310.881,-87.8023"/>
<polygon fill="midnightblue" stroke="midnightblue" points="312.384,-84.6414 301.853,-83.475 309.358,-90.9537 312.384,-84.6414"/>
</g>
<!-- Node6 -->
<g id="node11" class="node"><title>Node6</title>
<a xlink:href="literals_8h.html" target="_top" xlink:title="fae/util/literals.h">
<polygon fill="none" stroke="red" points="351.038,-60.6953 351.038,-83.3047 450.962,-83.3047 450.962,-60.6953 351.038,-60.6953"/>
<text text-anchor="middle" x="401" y="-68.3047" font-family="Futura" font-size="11.00">fae/util/literals.h</text>
</a>
</g>
<!-- Node1&#45;&gt;Node6 -->
<g id="edge10" class="edge"><title>Node1&#45;&gt;Node6</title>
<path fill="none" stroke="midnightblue" d="M401,-120.631C401,-113.218 401,-102.989 401,-93.9096"/>
<polygon fill="midnightblue" stroke="midnightblue" points="404.5,-93.6718 401,-83.6719 397.5,-93.6719 404.5,-93.6718"/>
</g>
<!-- Node8 -->
<g id="node15" class="node"><title>Node8</title>
<a xlink:href="macros_8h.html" target="_top" xlink:title="fae/util/macros.h">
<polygon fill="none" stroke="black" points="468.475,-60.6953 468.475,-83.3047 571.525,-83.3047 571.525,-60.6953 468.475,-60.6953"/>
<text text-anchor="middle" x="520" y="-68.3047" font-family="Futura" font-size="11.00">fae/util/macros.h</text>
</a>
</g>
<!-- Node1&#45;&gt;Node8 -->
<g id="edge14" class="edge"><title>Node1&#45;&gt;Node8</title>
<path fill="none" stroke="midnightblue" d="M422.275,-120.631C440.942,-111.532 468.315,-98.1908 489.346,-87.9407"/>
<polygon fill="midnightblue" stroke="midnightblue" points="491.052,-91.0025 498.508,-83.475 487.986,-84.7101 491.052,-91.0025"/>
</g>
<!-- Node9 -->
<g id="node17" class="node"><title>Node9</title>
<a xlink:href="apply_8h.html" target="_top" xlink:title="fae/util/apply.h">
<polygon fill="none" stroke="black" points="589.316,-60.6953 589.316,-83.3047 684.684,-83.3047 684.684,-60.6953 589.316,-60.6953"/>
<text text-anchor="middle" x="637" y="-68.3047" font-family="Futura" font-size="11.00">fae/util/apply.h</text>
</a>
</g>
<!-- Node1&#45;&gt;Node9 -->
<g id="edge16" class="edge"><title>Node1&#45;&gt;Node9</title>
<path fill="none" stroke="midnightblue" d="M443.192,-120.631C482.838,-110.887 542.282,-96.2781 584.876,-85.8102"/>
<polygon fill="midnightblue" stroke="midnightblue" points="585.9,-89.1626 594.776,-83.3771 584.23,-82.3649 585.9,-89.1626"/>
</g>
<!-- Node10 -->
<g id="node19" class="node"><title>Node10</title>
<a xlink:href="time_8h.html" target="_top" xlink:title="fae/time.h">
<polygon fill="none" stroke="red" points="703.114,-60.6953 703.114,-83.3047 770.886,-83.3047 770.886,-60.6953 703.114,-60.6953"/>
<text text-anchor="middle" x="737" y="-68.3047" font-family="Futura" font-size="11.00">fae/time.h</text>
</a>
</g>
<!-- Node1&#45;&gt;Node10 -->
<g id="edge18" class="edge"><title>Node1&#45;&gt;Node10</title>
<path fill="none" stroke="midnightblue" d="M452.67,-124.044C511.218,-115.847 609.376,-101.15 693,-84 693.101,-83.9792 693.203,-83.9584 693.304,-83.9375"/>
<polygon fill="midnightblue" stroke="midnightblue" points="693.94,-87.3813 702.956,-81.816 692.438,-80.5444 693.94,-87.3813"/>
</g>
<!-- Node5 -->
<g id="node9" class="node"><title>Node5</title>
<polygon fill="none" stroke="#bfbfbf" points="252.28,-0.695312 252.28,-23.3047 307.72,-23.3047 307.72,-0.695312 252.28,-0.695312"/>
<text text-anchor="middle" x="280" y="-8.30469" font-family="Futura" font-size="11.00">stddef.h</text>
</g>
<!-- Node4&#45;&gt;Node5 -->
<g id="edge8" class="edge"><title>Node4&#45;&gt;Node5</title>
<path fill="none" stroke="midnightblue" d="M280,-60.6308C280,-53.218 280,-42.9888 280,-33.9096"/>
<polygon fill="midnightblue" stroke="midnightblue" points="283.5,-33.6718 280,-23.6719 276.5,-33.6719 283.5,-33.6718"/>
</g>
<!-- Node7 -->
<g id="node13" class="node"><title>Node7</title>
<a xlink:href="list_8h.html" target="_top" xlink:title="fae/list.h">
<polygon fill="none" stroke="red" points="370.906,-0.695312 370.906,-23.3047 431.094,-23.3047 431.094,-0.695312 370.906,-0.695312"/>
<text text-anchor="middle" x="401" y="-8.30469" font-family="Futura" font-size="11.00">fae/list.h</text>
</a>
</g>
<!-- Node6&#45;&gt;Node7 -->
<g id="edge12" class="edge"><title>Node6&#45;&gt;Node7</title>
<path fill="none" stroke="midnightblue" d="M401,-60.6308C401,-53.218 401,-42.9888 401,-33.9096"/>
<polygon fill="midnightblue" stroke="midnightblue" points="404.5,-33.6718 401,-23.6719 397.5,-33.6719 404.5,-33.6718"/>
</g>
</g>
</svg>
