<?xml version="1.0" encoding="UTF-8" standalone="no"?>
<!DOCTYPE svg PUBLIC "-//W3C//DTD SVG 1.1//EN"
 "http://www.w3.org/Graphics/SVG/1.1/DTD/svg11.dtd">
<!-- Generated by graphviz version 2.28.0 (20121015.0031)
 -->
<!-- Title: include/fae/util.h Pages: 1 -->
<svg width="1119pt" height="106pt"
 viewBox="0.00 0.00 1119.00 106.00" xmlns="http://www.w3.org/2000/svg" xmlns:xlink="http://www.w3.org/1999/xlink">
<g id="graph1" class="graph" transform="scale(1 1) rotate(0) translate(4 102)">
<title>include/fae/util.h</title>
<!-- Node1 -->
<g id="node1" class="node"><title>Node1</title>
<polygon fill="#bfbfbf" stroke="black" points="542.577,-74.6953 542.577,-97.3047 645.423,-97.3047 645.423,-74.6953 542.577,-74.6953"/>
<text text-anchor="middle" x="594" y="-82.3047" font-family="Futura" font-size="11.00">include/fae/util.h</text>
</g>
<!-- Node2 -->
<g id="node3" class="node"><title>Node2</title>
<a xlink:href="queue_8c.html" target="_top" xlink:title="src/fae/atomic/queue.c">
<polygon fill="none" stroke="black" points="-0.710449,-7.69531 -0.710449,-30.3047 134.71,-30.3047 134.71,-7.69531 -0.710449,-7.69531"/>
<text text-anchor="middle" x="67" y="-15.3047" font-family="Futura" font-size="11.00">src/fae/atomic/queue.c</text>
</a>
</g>
<!-- Node1&#45;&gt;Node2 -->
<g id="edge2" class="edge"><title>Node1&#45;&gt;Node2</title>
<path fill="none" stroke="midnightblue" d="M532.316,-81.0976C445.14,-75.0103 281.113,-61.4519 143,-38 130.969,-35.9571 118.004,-33.1258 106.248,-30.3131"/>
<polygon fill="midnightblue" stroke="midnightblue" points="532.086,-84.5899 542.303,-81.7857 532.567,-77.6065 532.086,-84.5899"/>
</g>
<!-- Node3 -->
<g id="node5" class="node"><title>Node3</title>
<a xlink:href="ring__buffer_8c.html" target="_top" xlink:title="src/fae/atomic/ring\l_buffer.c">
<polygon fill="none" stroke="black" points="152.229,-0.390625 152.229,-37.6094 267.771,-37.6094 267.771,-0.390625 152.229,-0.390625"/>
<text text-anchor="start" x="160.229" y="-22.6094" font-family="Futura" font-size="11.00">src/fae/atomic/ring</text>
<text text-anchor="middle" x="210" y="-8" font-family="Futura" font-size="11.00">_buffer.c</text>
</a>
</g>
<!-- Node1&#45;&gt;Node3 -->
<g id="edge4" class="edge"><title>Node1&#45;&gt;Node3</title>
<path fill="none" stroke="midnightblue" d="M532.391,-78.0011C468.244,-70.2159 365.031,-56.2876 277,-38 274.052,-37.3876 271.041,-36.7231 268.007,-36.0225"/>
<polygon fill="midnightblue" stroke="midnightblue" points="531.996,-81.4787 542.342,-79.1975 532.832,-74.5288 531.996,-81.4787"/>
</g>
<!-- Node4 -->
<g id="node7" class="node"><title>Node4</title>
<a xlink:href="stack_8c.html" target="_top" xlink:title="src/fae/atomic/stack.c">
<polygon fill="none" stroke="black" points="286.061,-7.69531 286.061,-30.3047 415.939,-30.3047 415.939,-7.69531 286.061,-7.69531"/>
<text text-anchor="middle" x="351" y="-15.3047" font-family="Futura" font-size="11.00">src/fae/atomic/stack.c</text>
</a>
</g>
<!-- Node1&#45;&gt;Node4 -->
<g id="edge6" class="edge"><title>Node1&#45;&gt;Node4</title>
<path fill="none" stroke="midnightblue" d="M545.519,-72.0317C499.713,-59.7793 431.898,-41.6395 389.635,-30.3344"/>
<polygon fill="midnightblue" stroke="midnightblue" points="544.662,-75.4257 555.227,-74.6287 546.471,-68.6634 544.662,-75.4257"/>
</g>
<!-- Node5 -->
<g id="node9" class="node"><title>Node5</title>
<a xlink:href="audio_8c.html" target="_top" xlink:title="src/fae/audio.c">
<polygon fill="none" stroke="black" points="433.796,-7.69531 433.796,-30.3047 528.204,-30.3047 528.204,-7.69531 433.796,-7.69531"/>
<text text-anchor="middle" x="481" y="-15.3047" font-family="Futura" font-size="11.00">src/fae/audio.c</text>
</a>
</g>
<!-- Node1&#45;&gt;Node5 -->
<g id="edge8" class="edge"><title>Node1&#45;&gt;Node5</title>
<path fill="none" stroke="midnightblue" d="M567.075,-69.5122C546.067,-57.428 517.462,-40.9739 499.11,-30.4175"/>
<polygon fill="midnightblue" stroke="midnightblue" points="565.431,-72.6043 575.845,-74.5566 568.922,-66.5365 565.431,-72.6043"/>
</g>
<!-- Node6 -->
<g id="node11" class="node"><title>Node6</title>
<a xlink:href="buffer_8c.html" target="_top" xlink:title="src/fae/buffer.c">
<polygon fill="none" stroke="black" points="546.431,-7.69531 546.431,-30.3047 641.569,-30.3047 641.569,-7.69531 546.431,-7.69531"/>
<text text-anchor="middle" x="594" y="-15.3047" font-family="Futura" font-size="11.00">src/fae/buffer.c</text>
</a>
</g>
<!-- Node1&#45;&gt;Node6 -->
<g id="edge10" class="edge"><title>Node1&#45;&gt;Node6</title>
<path fill="none" stroke="midnightblue" d="M594,-64.3136C594,-53.1093 594,-39.7368 594,-30.6334"/>
<polygon fill="midnightblue" stroke="midnightblue" points="590.5,-64.5566 594,-74.5566 597.5,-64.5567 590.5,-64.5566"/>
</g>
<!-- Node7 -->
<g id="node13" class="node"><title>Node7</title>
<a xlink:href="file_8c.html" target="_top" xlink:title="src/fae/device/file.c">
<polygon fill="none" stroke="black" points="659.84,-7.69531 659.84,-30.3047 778.16,-30.3047 778.16,-7.69531 659.84,-7.69531"/>
<text text-anchor="middle" x="719" y="-15.3047" font-family="Futura" font-size="11.00">src/fae/device/file.c</text>
</a>
</g>
<!-- Node1&#45;&gt;Node7 -->
<g id="edge12" class="edge"><title>Node1&#45;&gt;Node7</title>
<path fill="none" stroke="midnightblue" d="M623.161,-69.8363C646.455,-57.7236 678.483,-41.0686 698.966,-30.4175"/>
<polygon fill="midnightblue" stroke="midnightblue" points="621.341,-66.8378 614.083,-74.5566 624.57,-73.0483 621.341,-66.8378"/>
</g>
<!-- Node8 -->
<g id="node15" class="node"><title>Node8</title>
<a xlink:href="dynamic_8c.html" target="_top" xlink:title="src/fae/dynamic.c">
<polygon fill="none" stroke="black" points="796.123,-7.69531 796.123,-30.3047 903.877,-30.3047 903.877,-7.69531 796.123,-7.69531"/>
<text text-anchor="middle" x="850" y="-15.3047" font-family="Futura" font-size="11.00">src/fae/dynamic.c</text>
</a>
</g>
<!-- Node1&#45;&gt;Node8 -->
<g id="edge14" class="edge"><title>Node1&#45;&gt;Node8</title>
<path fill="none" stroke="midnightblue" d="M648.609,-72.3077C687.337,-63.1586 740.481,-50.3047 787,-38 796.018,-35.6148 805.722,-32.9108 814.748,-30.337"/>
<polygon fill="midnightblue" stroke="midnightblue" points="647.518,-68.9688 638.587,-74.6686 649.123,-75.7823 647.518,-68.9688"/>
</g>
<!-- Node9 -->
<g id="node17" class="node"><title>Node9</title>
<a xlink:href="error_8c.html" target="_top" xlink:title="src/fae/error.c">
<polygon fill="none" stroke="black" points="921.802,-7.69531 921.802,-30.3047 1012.2,-30.3047 1012.2,-7.69531 921.802,-7.69531"/>
<text text-anchor="middle" x="967" y="-15.3047" font-family="Futura" font-size="11.00">src/fae/error.c</text>
</a>
</g>
<!-- Node1&#45;&gt;Node9 -->
<g id="edge16" class="edge"><title>Node1&#45;&gt;Node9</title>
<path fill="none" stroke="midnightblue" d="M655.451,-79.0439C719.932,-72.0683 823.96,-58.7544 912,-38 920.703,-35.9483 930.003,-33.1476 938.432,-30.3667"/>
<polygon fill="midnightblue" stroke="midnightblue" points="655.023,-75.5696 645.45,-80.1092 655.765,-82.5302 655.023,-75.5696"/>
</g>
<!-- Node10 -->
<g id="node19" class="node"><title>Node10</title>
<a xlink:href="fae_2fae_8c.html" target="_top" xlink:title="src/fae/fae.c">
<polygon fill="none" stroke="black" points="1030.01,-7.69531 1030.01,-30.3047 1111.99,-30.3047 1111.99,-7.69531 1030.01,-7.69531"/>
<text text-anchor="middle" x="1071" y="-15.3047" font-family="Futura" font-size="11.00">src/fae/fae.c</text>
</a>
</g>
<!-- Node1&#45;&gt;Node10 -->
<g id="edge18" class="edge"><title>Node1&#45;&gt;Node10</title>
<path fill="none" stroke="midnightblue" d="M655.697,-82.7698C739.406,-78.7142 893.188,-67.6019 1021,-38 1029.27,-36.0849 1038.05,-33.2215 1045.91,-30.3388"/>
<polygon fill="midnightblue" stroke="midnightblue" points="655.421,-79.2788 645.595,-83.2413 655.747,-86.2712 655.421,-79.2788"/>
</g>
</g>
</svg>
