<?xml version="1.0" encoding="UTF-8" standalone="no"?>
<!DOCTYPE svg PUBLIC "-//W3C//DTD SVG 1.1//EN"
 "http://www.w3.org/Graphics/SVG/1.1/DTD/svg11.dtd">
<!-- Generated by graphviz version 2.28.0 (20121015.0031)
 -->
<!-- Title: include/fa/util.h Pages: 1 -->
<svg width="735pt" height="152pt"
 viewBox="0.00 0.00 735.00 152.00" xmlns="http://www.w3.org/2000/svg" xmlns:xlink="http://www.w3.org/1999/xlink">
<g id="graph1" class="graph" transform="scale(1 1) rotate(0) translate(4 148)">
<title>include/fa/util.h</title>
<!-- Node1 -->
<g id="node1" class="node"><title>Node1</title>
<polygon fill="#bfbfbf" stroke="black" points="331.62,-120.695 331.62,-143.305 428.38,-143.305 428.38,-120.695 331.62,-120.695"/>
<text text-anchor="middle" x="380" y="-128.305" font-family="Futura" font-size="11.00">include/fa/util.h</text>
</g>
<!-- Node2 -->
<g id="node3" class="node"><title>Node2</title>
<a xlink:href="arch_8h.html" target="_top" xlink:title="fa/util/arch.h">
<polygon fill="none" stroke="black" points="-0.751953,-60.6953 -0.751953,-83.3047 82.752,-83.3047 82.752,-60.6953 -0.751953,-60.6953"/>
<text text-anchor="middle" x="41" y="-68.3047" font-family="Futura" font-size="11.00">fa/util/arch.h</text>
</a>
</g>
<!-- Node1&#45;&gt;Node2 -->
<g id="edge2" class="edge"><title>Node1&#45;&gt;Node2</title>
<path fill="none" stroke="midnightblue" d="M331.459,-123.846C276.179,-115.528 182.92,-100.978 93.0778,-84.1366"/>
<polygon fill="midnightblue" stroke="midnightblue" points="93.4661,-80.6482 82.9905,-82.2331 92.168,-87.5268 93.4661,-80.6482"/>
</g>
<!-- Node3 -->
<g id="node5" class="node"><title>Node3</title>
<a xlink:href="alignof_8h.html" target="_top" xlink:title="fa/util/alignof.h">
<polygon fill="none" stroke="black" points="101.05,-60.6953 101.05,-83.3047 196.95,-83.3047 196.95,-60.6953 101.05,-60.6953"/>
<text text-anchor="middle" x="149" y="-68.3047" font-family="Futura" font-size="11.00">fa/util/alignof.h</text>
</a>
</g>
<!-- Node1&#45;&gt;Node3 -->
<g id="edge4" class="edge"><title>Node1&#45;&gt;Node3</title>
<path fill="none" stroke="midnightblue" d="M338.702,-120.631C299.978,-110.908 241.957,-96.3397 200.284,-85.8765"/>
<polygon fill="midnightblue" stroke="midnightblue" points="200.881,-82.4178 190.329,-83.3771 199.176,-89.207 200.881,-82.4178"/>
</g>
<!-- Node4 -->
<g id="node7" class="node"><title>Node4</title>
<a xlink:href="minmax_8h.html" target="_top" xlink:title="fa/util/minmax.h">
<polygon fill="none" stroke="black" points="214.88,-60.6953 214.88,-83.3047 315.12,-83.3047 315.12,-60.6953 214.88,-60.6953"/>
<text text-anchor="middle" x="265" y="-68.3047" font-family="Futura" font-size="11.00">fa/util/minmax.h</text>
</a>
</g>
<!-- Node1&#45;&gt;Node4 -->
<g id="edge6" class="edge"><title>Node1&#45;&gt;Node4</title>
<path fill="none" stroke="midnightblue" d="M359.44,-120.631C341.481,-111.573 315.185,-98.3109 294.899,-88.0794"/>
<polygon fill="midnightblue" stroke="midnightblue" points="296.274,-84.8532 285.769,-83.475 293.122,-91.1033 296.274,-84.8532"/>
</g>
<!-- Node6 -->
<g id="node11" class="node"><title>Node6</title>
<a xlink:href="literals_8h.html" target="_top" xlink:title="fa/util/literals.h">
<polygon fill="none" stroke="red" points="333.081,-60.6953 333.081,-83.3047 426.919,-83.3047 426.919,-60.6953 333.081,-60.6953"/>
<text text-anchor="middle" x="380" y="-68.3047" font-family="Futura" font-size="11.00">fa/util/literals.h</text>
</a>
</g>
<!-- Node1&#45;&gt;Node6 -->
<g id="edge10" class="edge"><title>Node1&#45;&gt;Node6</title>
<path fill="none" stroke="midnightblue" d="M380,-120.631C380,-113.218 380,-102.989 380,-93.9096"/>
<polygon fill="midnightblue" stroke="midnightblue" points="383.5,-93.6718 380,-83.6719 376.5,-93.6719 383.5,-93.6718"/>
</g>
<!-- Node8 -->
<g id="node15" class="node"><title>Node8</title>
<a xlink:href="macros_8h.html" target="_top" xlink:title="fa/util/macros.h">
<polygon fill="none" stroke="black" points="444.518,-60.6953 444.518,-83.3047 541.482,-83.3047 541.482,-60.6953 444.518,-60.6953"/>
<text text-anchor="middle" x="493" y="-68.3047" font-family="Futura" font-size="11.00">fa/util/macros.h</text>
</a>
</g>
<!-- Node1&#45;&gt;Node8 -->
<g id="edge14" class="edge"><title>Node1&#45;&gt;Node8</title>
<path fill="none" stroke="midnightblue" d="M400.202,-120.631C417.849,-111.573 443.687,-98.3109 463.621,-88.0794"/>
<polygon fill="midnightblue" stroke="midnightblue" points="465.293,-91.1552 472.592,-83.475 462.097,-84.9276 465.293,-91.1552"/>
</g>
<!-- Node9 -->
<g id="node17" class="node"><title>Node9</title>
<a xlink:href="apply_8h.html" target="_top" xlink:title="fa/util/apply.h">
<polygon fill="none" stroke="black" points="559.358,-60.6953 559.358,-83.3047 648.642,-83.3047 648.642,-60.6953 559.358,-60.6953"/>
<text text-anchor="middle" x="604" y="-68.3047" font-family="Futura" font-size="11.00">fa/util/apply.h</text>
</a>
</g>
<!-- Node1&#45;&gt;Node9 -->
<g id="edge16" class="edge"><title>Node1&#45;&gt;Node9</title>
<path fill="none" stroke="midnightblue" d="M420.047,-120.631C457.518,-110.928 513.623,-96.4013 554.014,-85.9429"/>
<polygon fill="midnightblue" stroke="midnightblue" points="555.12,-89.272 563.923,-83.3771 553.365,-82.4955 555.12,-89.272"/>
</g>
<!-- Node10 -->
<g id="node19" class="node"><title>Node10</title>
<a xlink:href="time_8h.html" target="_top" xlink:title="fa/time.h">
<polygon fill="none" stroke="red" points="666.157,-60.6953 666.157,-83.3047 727.843,-83.3047 727.843,-60.6953 666.157,-60.6953"/>
<text text-anchor="middle" x="697" y="-68.3047" font-family="Futura" font-size="11.00">fa/time.h</text>
</a>
</g>
<!-- Node1&#45;&gt;Node10 -->
<g id="edge18" class="edge"><title>Node1&#45;&gt;Node10</title>
<path fill="none" stroke="midnightblue" d="M428.824,-124.23C482.325,-116.474 570.837,-102.656 656.213,-84.013"/>
<polygon fill="midnightblue" stroke="midnightblue" points="657.058,-87.4107 666.068,-81.836 655.548,-80.5755 657.058,-87.4107"/>
</g>
<!-- Node5 -->
<g id="node9" class="node"><title>Node5</title>
<polygon fill="none" stroke="#bfbfbf" points="237.28,-0.695312 237.28,-23.3047 292.72,-23.3047 292.72,-0.695312 237.28,-0.695312"/>
<text text-anchor="middle" x="265" y="-8.30469" font-family="Futura" font-size="11.00">stddef.h</text>
</g>
<!-- Node4&#45;&gt;Node5 -->
<g id="edge8" class="edge"><title>Node4&#45;&gt;Node5</title>
<path fill="none" stroke="midnightblue" d="M265,-60.6308C265,-53.218 265,-42.9888 265,-33.9096"/>
<polygon fill="midnightblue" stroke="midnightblue" points="268.5,-33.6718 265,-23.6719 261.5,-33.6719 268.5,-33.6718"/>
</g>
<!-- Node7 -->
<g id="node13" class="node"><title>Node7</title>
<a xlink:href="list_8h.html" target="_top" xlink:title="fa/list.h">
<polygon fill="none" stroke="red" points="352.949,-0.695312 352.949,-23.3047 407.051,-23.3047 407.051,-0.695312 352.949,-0.695312"/>
<text text-anchor="middle" x="380" y="-8.30469" font-family="Futura" font-size="11.00">fa/list.h</text>
</a>
</g>
<!-- Node6&#45;&gt;Node7 -->
<g id="edge12" class="edge"><title>Node6&#45;&gt;Node7</title>
<path fill="none" stroke="midnightblue" d="M380,-60.6308C380,-53.218 380,-42.9888 380,-33.9096"/>
<polygon fill="midnightblue" stroke="midnightblue" points="383.5,-33.6718 380,-23.6719 376.5,-33.6719 383.5,-33.6718"/>
</g>
</g>
</svg>
