<?xml version="1.0" encoding="UTF-8" standalone="no"?>
<!DOCTYPE svg PUBLIC "-//W3C//DTD SVG 1.1//EN"
 "http://www.w3.org/Graphics/SVG/1.1/DTD/svg11.dtd">
<!-- Generated by graphviz version 2.28.0 (20121015.0031)
 -->
<!-- Title: include/fae/util/vararg.h Pages: 1 -->
<svg width="911pt" height="226pt"
 viewBox="0.00 0.00 911.00 226.00" xmlns="http://www.w3.org/2000/svg" xmlns:xlink="http://www.w3.org/1999/xlink">
<g id="graph1" class="graph" transform="scale(1 1) rotate(0) translate(4 222)">
<title>include/fae/util/vararg.h</title>
<!-- Node1 -->
<g id="node1" class="node"><title>Node1</title>
<polygon fill="#bfbfbf" stroke="black" points="410.094,-194.695 410.094,-217.305 551.906,-217.305 551.906,-194.695 410.094,-194.695"/>
<text text-anchor="middle" x="481" y="-202.305" font-family="Futura" font-size="11.00">include/fae/util/vararg.h</text>
</g>
<!-- Node2 -->
<g id="node3" class="node"><title>Node2</title>
<a xlink:href="literals_8h.html" target="_top" xlink:title="include/fae/util/literals.h">
<polygon fill="none" stroke="black" points="410.475,-134.695 410.475,-157.305 551.525,-157.305 551.525,-134.695 410.475,-134.695"/>
<text text-anchor="middle" x="481" y="-142.305" font-family="Futura" font-size="11.00">include/fae/util/literals.h</text>
</a>
</g>
<!-- Node1&#45;&gt;Node2 -->
<g id="edge2" class="edge"><title>Node1&#45;&gt;Node2</title>
<path fill="none" stroke="midnightblue" d="M481,-184.459C481,-175.411 481,-165.16 481,-157.672"/>
<polygon fill="midnightblue" stroke="midnightblue" points="477.5,-184.631 481,-194.631 484.5,-184.631 477.5,-184.631"/>
</g>
<!-- Node3 -->
<g id="node5" class="node"><title>Node3</title>
<a xlink:href="util_8h.html" target="_top" xlink:title="include/fae/util.h">
<polygon fill="none" stroke="red" points="429.577,-74.6953 429.577,-97.3047 532.423,-97.3047 532.423,-74.6953 429.577,-74.6953"/>
<text text-anchor="middle" x="481" y="-82.3047" font-family="Futura" font-size="11.00">include/fae/util.h</text>
</a>
</g>
<!-- Node2&#45;&gt;Node3 -->
<g id="edge4" class="edge"><title>Node2&#45;&gt;Node3</title>
<path fill="none" stroke="midnightblue" d="M481,-124.459C481,-115.411 481,-105.16 481,-97.6719"/>
<polygon fill="midnightblue" stroke="midnightblue" points="477.5,-124.631 481,-134.631 484.5,-124.631 477.5,-124.631"/>
</g>
<!-- Node4 -->
<g id="node7" class="node"><title>Node4</title>
<a xlink:href="queue_8c.html" target="_top" xlink:title="src/fae/atomic/queue.c">
<polygon fill="none" stroke="black" points="-0.710449,-7.69531 -0.710449,-30.3047 134.71,-30.3047 134.71,-7.69531 -0.710449,-7.69531"/>
<text text-anchor="middle" x="67" y="-15.3047" font-family="Futura" font-size="11.00">src/fae/atomic/queue.c</text>
</a>
</g>
<!-- Node3&#45;&gt;Node4 -->
<g id="edge6" class="edge"><title>Node3&#45;&gt;Node4</title>
<path fill="none" stroke="midnightblue" d="M419.399,-78.2051C351.433,-70.2969 238.958,-55.9935 143,-38 131.405,-35.8258 118.914,-33.0505 107.474,-30.3338"/>
<polygon fill="midnightblue" stroke="midnightblue" points="419.17,-81.7019 429.506,-79.372 419.973,-74.748 419.17,-81.7019"/>
</g>
<!-- Node5 -->
<g id="node9" class="node"><title>Node5</title>
<a xlink:href="ring__buffer_8c.html" target="_top" xlink:title="src/fae/atomic/ring\l_buffer.c">
<polygon fill="none" stroke="black" points="152.229,-0.390625 152.229,-37.6094 267.771,-37.6094 267.771,-0.390625 152.229,-0.390625"/>
<text text-anchor="start" x="160.229" y="-22.6094" font-family="Futura" font-size="11.00">src/fae/atomic/ring</text>
<text text-anchor="middle" x="210" y="-8" font-family="Futura" font-size="11.00">_buffer.c</text>
</a>
</g>
<!-- Node3&#45;&gt;Node5 -->
<g id="edge8" class="edge"><title>Node3&#45;&gt;Node5</title>
<path fill="none" stroke="midnightblue" d="M424.082,-72.4632C383.092,-63.2943 326.518,-50.3518 277,-38 274.078,-37.2712 271.088,-36.5132 268.071,-35.7384"/>
<polygon fill="midnightblue" stroke="midnightblue" points="423.368,-75.8899 433.89,-74.6517 424.892,-69.0579 423.368,-75.8899"/>
</g>
<!-- Node6 -->
<g id="node11" class="node"><title>Node6</title>
<a xlink:href="stack_8c.html" target="_top" xlink:title="src/fae/atomic/stack.c">
<polygon fill="none" stroke="black" points="286.061,-7.69531 286.061,-30.3047 415.939,-30.3047 415.939,-7.69531 286.061,-7.69531"/>
<text text-anchor="middle" x="351" y="-15.3047" font-family="Futura" font-size="11.00">src/fae/atomic/stack.c</text>
</a>
</g>
<!-- Node3&#45;&gt;Node6 -->
<g id="edge10" class="edge"><title>Node3&#45;&gt;Node6</title>
<path fill="none" stroke="midnightblue" d="M450.995,-69.9975C426.743,-57.8717 393.232,-41.1159 371.835,-30.4175"/>
<polygon fill="midnightblue" stroke="midnightblue" points="449.604,-73.2149 460.113,-74.5566 452.734,-66.9539 449.604,-73.2149"/>
</g>
<!-- Node7 -->
<g id="node13" class="node"><title>Node7</title>
<a xlink:href="audio_8c.html" target="_top" xlink:title="src/fae/audio.c">
<polygon fill="none" stroke="black" points="433.796,-7.69531 433.796,-30.3047 528.204,-30.3047 528.204,-7.69531 433.796,-7.69531"/>
<text text-anchor="middle" x="481" y="-15.3047" font-family="Futura" font-size="11.00">src/fae/audio.c</text>
</a>
</g>
<!-- Node3&#45;&gt;Node7 -->
<g id="edge12" class="edge"><title>Node3&#45;&gt;Node7</title>
<path fill="none" stroke="midnightblue" d="M481,-64.3136C481,-53.1093 481,-39.7368 481,-30.6334"/>
<polygon fill="midnightblue" stroke="midnightblue" points="477.5,-64.5566 481,-74.5566 484.5,-64.5567 477.5,-64.5566"/>
</g>
<!-- Node8 -->
<g id="node15" class="node"><title>Node8</title>
<a xlink:href="buffer_8c.html" target="_top" xlink:title="src/fae/buffer.c">
<polygon fill="none" stroke="black" points="546.431,-7.69531 546.431,-30.3047 641.569,-30.3047 641.569,-7.69531 546.431,-7.69531"/>
<text text-anchor="middle" x="594" y="-15.3047" font-family="Futura" font-size="11.00">src/fae/buffer.c</text>
</a>
</g>
<!-- Node3&#45;&gt;Node8 -->
<g id="edge14" class="edge"><title>Node3&#45;&gt;Node8</title>
<path fill="none" stroke="midnightblue" d="M507.925,-69.5122C528.933,-57.428 557.538,-40.9739 575.89,-30.4175"/>
<polygon fill="midnightblue" stroke="midnightblue" points="506.078,-66.5365 499.155,-74.5566 509.569,-72.6043 506.078,-66.5365"/>
</g>
<!-- Node9 -->
<g id="node17" class="node"><title>Node9</title>
<a xlink:href="file_8c.html" target="_top" xlink:title="src/fae/device/file.c">
<polygon fill="none" stroke="black" points="659.84,-7.69531 659.84,-30.3047 778.16,-30.3047 778.16,-7.69531 659.84,-7.69531"/>
<text text-anchor="middle" x="719" y="-15.3047" font-family="Futura" font-size="11.00">src/fae/device/file.c</text>
</a>
</g>
<!-- Node3&#45;&gt;Node9 -->
<g id="edge16" class="edge"><title>Node3&#45;&gt;Node9</title>
<path fill="none" stroke="midnightblue" d="M528.766,-71.9546C573.625,-59.7033 639.853,-41.6158 681.16,-30.3344"/>
<polygon fill="midnightblue" stroke="midnightblue" points="527.7,-68.6177 518.975,-74.6287 529.544,-75.3704 527.7,-68.6177"/>
</g>
<!-- Node10 -->
<g id="node19" class="node"><title>Node10</title>
<a xlink:href="dynamic_8c.html" target="_top" xlink:title="src/fae/dynamic.c">
<polygon fill="none" stroke="black" points="796.123,-7.69531 796.123,-30.3047 903.877,-30.3047 903.877,-7.69531 796.123,-7.69531"/>
<text text-anchor="middle" x="850" y="-15.3047" font-family="Futura" font-size="11.00">src/fae/dynamic.c</text>
</a>
</g>
<!-- Node3&#45;&gt;Node10 -->
<g id="edge18" class="edge"><title>Node3&#45;&gt;Node10</title>
<path fill="none" stroke="midnightblue" d="M542.552,-77.86C604.644,-70.1163 703.068,-56.3596 787,-38 796.779,-35.8609 807.279,-33.0655 816.849,-30.3177"/>
<polygon fill="midnightblue" stroke="midnightblue" points="542.024,-74.3984 532.528,-79.0971 542.882,-81.3457 542.024,-74.3984"/>
</g>
</g>
</svg>
