<?xml version="1.0" encoding="UTF-8" standalone="no"?>
<!DOCTYPE svg PUBLIC "-//W3C//DTD SVG 1.1//EN"
 "http://www.w3.org/Graphics/SVG/1.1/DTD/svg11.dtd">
<!-- Generated by graphviz version 2.28.0 (20121015.0031)
 -->
<!-- Title: include/fae/util/vararg.h Pages: 1 -->
<svg width="949pt" height="226pt"
 viewBox="0.00 0.00 949.00 226.00" xmlns="http://www.w3.org/2000/svg" xmlns:xlink="http://www.w3.org/1999/xlink">
<g id="graph1" class="graph" transform="scale(1 1) rotate(0) translate(4 222)">
<title>include/fae/util/vararg.h</title>
<!-- Node1 -->
<g id="node1" class="node"><title>Node1</title>
<polygon fill="#bfbfbf" stroke="black" points="411.094,-194.695 411.094,-217.305 552.906,-217.305 552.906,-194.695 411.094,-194.695"/>
<text text-anchor="middle" x="482" y="-202.305" font-family="Futura" font-size="11.00">include/fae/util/vararg.h</text>
</g>
<!-- Node2 -->
<g id="node3" class="node"><title>Node2</title>
<a xlink:href="literals_8h.html" target="_top" xlink:title="include/fae/util/literals.h">
<polygon fill="none" stroke="black" points="411.475,-134.695 411.475,-157.305 552.525,-157.305 552.525,-134.695 411.475,-134.695"/>
<text text-anchor="middle" x="482" y="-142.305" font-family="Futura" font-size="11.00">include/fae/util/literals.h</text>
</a>
</g>
<!-- Node1&#45;&gt;Node2 -->
<g id="edge2" class="edge"><title>Node1&#45;&gt;Node2</title>
<path fill="none" stroke="midnightblue" d="M482,-184.459C482,-175.411 482,-165.16 482,-157.672"/>
<polygon fill="midnightblue" stroke="midnightblue" points="478.5,-184.631 482,-194.631 485.5,-184.631 478.5,-184.631"/>
</g>
<!-- Node3 -->
<g id="node5" class="node"><title>Node3</title>
<a xlink:href="util_8h.html" target="_top" xlink:title="include/fae/util.h">
<polygon fill="none" stroke="red" points="430.577,-74.6953 430.577,-97.3047 533.423,-97.3047 533.423,-74.6953 430.577,-74.6953"/>
<text text-anchor="middle" x="482" y="-82.3047" font-family="Futura" font-size="11.00">include/fae/util.h</text>
</a>
</g>
<!-- Node2&#45;&gt;Node3 -->
<g id="edge4" class="edge"><title>Node2&#45;&gt;Node3</title>
<path fill="none" stroke="midnightblue" d="M482,-124.459C482,-115.411 482,-105.16 482,-97.6719"/>
<polygon fill="midnightblue" stroke="midnightblue" points="478.5,-124.631 482,-134.631 485.5,-124.631 478.5,-124.631"/>
</g>
<!-- Node4 -->
<g id="node7" class="node"><title>Node4</title>
<a xlink:href="queue_8c.html" target="_top" xlink:title="src/fae/atomic/queue.c">
<polygon fill="none" stroke="black" points="-0.710449,-7.69531 -0.710449,-30.3047 134.71,-30.3047 134.71,-7.69531 -0.710449,-7.69531"/>
<text text-anchor="middle" x="67" y="-15.3047" font-family="Futura" font-size="11.00">src/fae/atomic/queue.c</text>
</a>
</g>
<!-- Node3&#45;&gt;Node4 -->
<g id="edge6" class="edge"><title>Node3&#45;&gt;Node4</title>
<path fill="none" stroke="midnightblue" d="M420.216,-78.2176C352.048,-70.3204 239.24,-56.0264 143,-38 131.405,-35.8282 118.913,-33.0536 107.474,-30.3368"/>
<polygon fill="midnightblue" stroke="midnightblue" points="420.018,-81.7179 430.353,-79.3829 420.818,-74.7637 420.018,-81.7179"/>
</g>
<!-- Node5 -->
<g id="node9" class="node"><title>Node5</title>
<a xlink:href="ring__buffer_8c.html" target="_top" xlink:title="src/fae/atomic/ring\l_buffer.c">
<polygon fill="none" stroke="black" points="152.229,-0.390625 152.229,-37.6094 267.771,-37.6094 267.771,-0.390625 152.229,-0.390625"/>
<text text-anchor="start" x="160.229" y="-22.6094" font-family="Futura" font-size="11.00">src/fae/atomic/ring</text>
<text text-anchor="middle" x="210" y="-8" font-family="Futura" font-size="11.00">_buffer.c</text>
</a>
</g>
<!-- Node3&#45;&gt;Node5 -->
<g id="edge8" class="edge"><title>Node3&#45;&gt;Node5</title>
<path fill="none" stroke="midnightblue" d="M424.799,-72.4821C383.607,-63.3223 326.755,-50.3827 277,-38 274.078,-37.2728 271.088,-36.516 268.07,-35.7422"/>
<polygon fill="midnightblue" stroke="midnightblue" points="424.136,-75.9199 434.656,-74.6683 425.651,-69.086 424.136,-75.9199"/>
</g>
<!-- Node6 -->
<g id="node11" class="node"><title>Node6</title>
<a xlink:href="stack_8c.html" target="_top" xlink:title="src/fae/atomic/stack.c">
<polygon fill="none" stroke="black" points="286.061,-7.69531 286.061,-30.3047 415.939,-30.3047 415.939,-7.69531 286.061,-7.69531"/>
<text text-anchor="middle" x="351" y="-15.3047" font-family="Futura" font-size="11.00">src/fae/atomic/stack.c</text>
</a>
</g>
<!-- Node3&#45;&gt;Node6 -->
<g id="edge10" class="edge"><title>Node3&#45;&gt;Node6</title>
<path fill="none" stroke="midnightblue" d="M451.764,-69.9975C427.326,-57.8717 393.557,-41.1159 371.995,-30.4175"/>
<polygon fill="midnightblue" stroke="midnightblue" points="450.439,-73.2471 460.953,-74.5566 453.55,-66.9765 450.439,-73.2471"/>
</g>
<!-- Node7 -->
<g id="node13" class="node"><title>Node7</title>
<a xlink:href="buffer_8c.html" target="_top" xlink:title="src/fae/buffer.c">
<polygon fill="none" stroke="black" points="434.431,-7.69531 434.431,-30.3047 529.569,-30.3047 529.569,-7.69531 434.431,-7.69531"/>
<text text-anchor="middle" x="482" y="-15.3047" font-family="Futura" font-size="11.00">src/fae/buffer.c</text>
</a>
</g>
<!-- Node3&#45;&gt;Node7 -->
<g id="edge12" class="edge"><title>Node3&#45;&gt;Node7</title>
<path fill="none" stroke="midnightblue" d="M482,-64.3136C482,-53.1093 482,-39.7368 482,-30.6334"/>
<polygon fill="midnightblue" stroke="midnightblue" points="478.5,-64.5566 482,-74.5566 485.5,-64.5567 478.5,-64.5566"/>
</g>
<!-- Node8 -->
<g id="node15" class="node"><title>Node8</title>
<a xlink:href="audio_8c.html" target="_top" xlink:title="src/fae/device/audio.c">
<polygon fill="none" stroke="black" points="547.904,-7.69531 547.904,-30.3047 680.096,-30.3047 680.096,-7.69531 547.904,-7.69531"/>
<text text-anchor="middle" x="614" y="-15.3047" font-family="Futura" font-size="11.00">src/fae/device/audio.c</text>
</a>
</g>
<!-- Node3&#45;&gt;Node8 -->
<g id="edge14" class="edge"><title>Node3&#45;&gt;Node8</title>
<path fill="none" stroke="midnightblue" d="M512.467,-69.9975C537.091,-57.8717 571.118,-41.1159 592.845,-30.4175"/>
<polygon fill="midnightblue" stroke="midnightblue" points="510.633,-66.9989 503.208,-74.5566 513.726,-73.2788 510.633,-66.9989"/>
</g>
<!-- Node9 -->
<g id="node17" class="node"><title>Node9</title>
<a xlink:href="file_8c.html" target="_top" xlink:title="src/fae/device/file.c">
<polygon fill="none" stroke="black" points="697.84,-7.69531 697.84,-30.3047 816.16,-30.3047 816.16,-7.69531 697.84,-7.69531"/>
<text text-anchor="middle" x="757" y="-15.3047" font-family="Futura" font-size="11.00">src/fae/device/file.c</text>
</a>
</g>
<!-- Node3&#45;&gt;Node9 -->
<g id="edge16" class="edge"><title>Node3&#45;&gt;Node9</title>
<path fill="none" stroke="midnightblue" d="M539.752,-72.4633C581.342,-63.2945 638.747,-50.352 689,-38 698.725,-35.6097 709.196,-32.9039 718.938,-30.33"/>
<polygon fill="midnightblue" stroke="midnightblue" points="538.814,-69.0858 529.799,-74.6519 540.318,-75.9224 538.814,-69.0858"/>
</g>
<!-- Node10 -->
<g id="node19" class="node"><title>Node10</title>
<a xlink:href="dynamic_8c.html" target="_top" xlink:title="src/fae/dynamic.c">
<polygon fill="none" stroke="black" points="834.123,-7.69531 834.123,-30.3047 941.877,-30.3047 941.877,-7.69531 834.123,-7.69531"/>
<text text-anchor="middle" x="888" y="-15.3047" font-family="Futura" font-size="11.00">src/fae/dynamic.c</text>
</a>
</g>
<!-- Node3&#45;&gt;Node10 -->
<g id="edge18" class="edge"><title>Node3&#45;&gt;Node10</title>
<path fill="none" stroke="midnightblue" d="M543.788,-79.2059C612.814,-72.1152 727.652,-58.4681 825,-38 834.907,-35.9169 845.54,-33.1067 855.197,-30.3266"/>
<polygon fill="midnightblue" stroke="midnightblue" points="543.125,-75.7552 533.529,-80.2461 543.831,-82.7194 543.125,-75.7552"/>
</g>
</g>
</svg>
