<?xml version="1.0" encoding="UTF-8" standalone="no"?>
<!DOCTYPE svg PUBLIC "-//W3C//DTD SVG 1.1//EN"
 "http://www.w3.org/Graphics/SVG/1.1/DTD/svg11.dtd">
<!-- Generated by graphviz version 2.28.0 (20121015.0031)
 -->
<!-- Title: include/fa/util/vararg.h Pages: 1 -->
<svg width="142pt" height="152pt"
 viewBox="0.00 0.00 142.00 152.00" xmlns="http://www.w3.org/2000/svg" xmlns:xlink="http://www.w3.org/1999/xlink">
<g id="graph1" class="graph" transform="scale(1 1) rotate(0) translate(4 148)">
<title>include/fa/util/vararg.h</title>
<!-- Node1 -->
<g id="node1" class="node"><title>Node1</title>
<polygon fill="#bfbfbf" stroke="black" points="-0.863525,-120.695 -0.863525,-143.305 134.864,-143.305 134.864,-120.695 -0.863525,-120.695"/>
<text text-anchor="middle" x="67" y="-128.305" font-family="Futura" font-size="11.00">include/fa/util/vararg.h</text>
</g>
<!-- Node2 -->
<g id="node3" class="node"><title>Node2</title>
<a xlink:href="literals_8h.html" target="_top" xlink:title="include/fa/util/literals.h">
<polygon fill="none" stroke="black" points="-0.482178,-60.6953 -0.482178,-83.3047 134.482,-83.3047 134.482,-60.6953 -0.482178,-60.6953"/>
<text text-anchor="middle" x="67" y="-68.3047" font-family="Futura" font-size="11.00">include/fa/util/literals.h</text>
</a>
</g>
<!-- Node1&#45;&gt;Node2 -->
<g id="edge2" class="edge"><title>Node1&#45;&gt;Node2</title>
<path fill="none" stroke="midnightblue" d="M67,-110.459C67,-101.411 67,-91.1602 67,-83.6719"/>
<polygon fill="midnightblue" stroke="midnightblue" points="63.5001,-110.631 67,-120.631 70.5001,-110.631 63.5001,-110.631"/>
</g>
<!-- Node3 -->
<g id="node5" class="node"><title>Node3</title>
<a xlink:href="util_8h.html" target="_top" xlink:title="include/fa/util.h">
<polygon fill="none" stroke="black" points="18.6201,-0.695312 18.6201,-23.3047 115.38,-23.3047 115.38,-0.695312 18.6201,-0.695312"/>
<text text-anchor="middle" x="67" y="-8.30469" font-family="Futura" font-size="11.00">include/fa/util.h</text>
</a>
</g>
<!-- Node2&#45;&gt;Node3 -->
<g id="edge4" class="edge"><title>Node2&#45;&gt;Node3</title>
<path fill="none" stroke="midnightblue" d="M67,-50.4586C67,-41.4112 67,-31.1602 67,-23.6719"/>
<polygon fill="midnightblue" stroke="midnightblue" points="63.5001,-50.6307 67,-60.6308 70.5001,-50.6308 63.5001,-50.6307"/>
</g>
</g>
</svg>
