<?xml version="1.0" encoding="UTF-8" standalone="no"?>
<!DOCTYPE svg PUBLIC "-//W3C//DTD SVG 1.1//EN"
 "http://www.w3.org/Graphics/SVG/1.1/DTD/svg11.dtd">
<!-- Generated by graphviz version 2.28.0 (20121015.0031)
 -->
<!-- Title: src/fae/processor/vm.c Pages: 1 -->
<svg width="639pt" height="212pt"
 viewBox="0.00 0.00 639.00 212.00" xmlns="http://www.w3.org/2000/svg" xmlns:xlink="http://www.w3.org/1999/xlink">
<g id="graph1" class="graph" transform="scale(1 1) rotate(0) translate(4 208)">
<title>src/fae/processor/vm.c</title>
<!-- Node1 -->
<g id="node1" class="node"><title>Node1</title>
<polygon fill="#bfbfbf" stroke="black" points="163.999,-180.695 163.999,-203.305 298.001,-203.305 298.001,-180.695 163.999,-180.695"/>
<text text-anchor="middle" x="231" y="-188.305" font-family="Futura" font-size="11.00">src/fae/processor/vm.c</text>
</g>
<!-- Node2 -->
<g id="node3" class="node"><title>Node2</title>
<a xlink:href="string_8h.html" target="_top" xlink:title="fae/string.h">
<polygon fill="none" stroke="black" points="145.827,-60.6953 145.827,-83.3047 220.173,-83.3047 220.173,-60.6953 145.827,-60.6953"/>
<text text-anchor="middle" x="183" y="-68.3047" font-family="Futura" font-size="11.00">fae/string.h</text>
</a>
</g>
<!-- Node1&#45;&gt;Node2 -->
<g id="edge2" class="edge"><title>Node1&#45;&gt;Node2</title>
<path fill="none" stroke="midnightblue" d="M223.388,-180.658C216.913,-171.442 207.771,-157.382 202,-144 194.913,-127.567 189.889,-107.83 186.794,-93.3407"/>
<polygon fill="midnightblue" stroke="midnightblue" points="190.203,-92.5401 184.801,-83.4257 183.34,-93.9193 190.203,-92.5401"/>
</g>
<!-- Node4 -->
<g id="node7" class="node"><title>Node4</title>
<a xlink:href="util_8h.html" target="_top" xlink:title="fae/util.h">
<polygon fill="none" stroke="red" points="248.141,-60.6953 248.141,-83.3047 309.859,-83.3047 309.859,-60.6953 248.141,-60.6953"/>
<text text-anchor="middle" x="279" y="-68.3047" font-family="Futura" font-size="11.00">fae/util.h</text>
</a>
</g>
<!-- Node1&#45;&gt;Node4 -->
<g id="edge6" class="edge"><title>Node1&#45;&gt;Node4</title>
<path fill="none" stroke="midnightblue" d="M238.286,-180.599C244.497,-171.346 253.299,-157.264 259,-144 266.092,-127.499 271.416,-107.768 274.781,-93.2991"/>
<polygon fill="midnightblue" stroke="midnightblue" points="278.228,-93.9205 276.969,-83.4007 271.393,-92.4097 278.228,-93.9205"/>
</g>
<!-- Node10 -->
<g id="node19" class="node"><title>Node10</title>
<a xlink:href="vm_8h.html" target="_top" xlink:title="vm.h">
<polygon fill="none" stroke="black" points="211.173,-120.695 211.173,-143.305 250.827,-143.305 250.827,-120.695 211.173,-120.695"/>
<text text-anchor="middle" x="231" y="-128.305" font-family="Futura" font-size="11.00">vm.h</text>
</a>
</g>
<!-- Node1&#45;&gt;Node10 -->
<g id="edge18" class="edge"><title>Node1&#45;&gt;Node10</title>
<path fill="none" stroke="midnightblue" d="M231,-180.631C231,-173.218 231,-162.989 231,-153.91"/>
<polygon fill="midnightblue" stroke="midnightblue" points="234.5,-153.672 231,-143.672 227.5,-153.672 234.5,-153.672"/>
</g>
<!-- Node3 -->
<g id="node5" class="node"><title>Node3</title>
<a xlink:href="fae_2fae_8h.html" target="_top" xlink:title="fae.h">
<polygon fill="none" stroke="red" points="-0.769775,-0.695312 -0.769775,-23.3047 40.7698,-23.3047 40.7698,-0.695312 -0.769775,-0.695312"/>
<text text-anchor="middle" x="20" y="-8.30469" font-family="Futura" font-size="11.00">fae.h</text>
</a>
</g>
<!-- Node2&#45;&gt;Node3 -->
<g id="edge4" class="edge"><title>Node2&#45;&gt;Node3</title>
<path fill="none" stroke="midnightblue" d="M153.383,-60.6458C128.356,-51.8716 91.3262,-38.8321 50.56,-24.1772"/>
<polygon fill="midnightblue" stroke="midnightblue" points="51.5638,-20.8187 40.9694,-20.7244 49.1926,-27.4049 51.5638,-20.8187"/>
</g>
<!-- Node5 -->
<g id="node9" class="node"><title>Node5</title>
<a xlink:href="arch_8h.html" target="_top" xlink:title="fae/util/arch.h">
<polygon fill="none" stroke="black" points="59.2053,-0.695312 59.2053,-23.3047 148.795,-23.3047 148.795,-0.695312 59.2053,-0.695312"/>
<text text-anchor="middle" x="104" y="-8.30469" font-family="Futura" font-size="11.00">fae/util/arch.h</text>
</a>
</g>
<!-- Node4&#45;&gt;Node5 -->
<g id="edge8" class="edge"><title>Node4&#45;&gt;Node5</title>
<path fill="none" stroke="midnightblue" d="M248.116,-60.7643C219.429,-51.2565 176.513,-37.033 144.972,-26.5793"/>
<polygon fill="midnightblue" stroke="midnightblue" points="145.757,-23.1523 135.164,-23.3285 143.555,-29.7968 145.757,-23.1523"/>
</g>
<!-- Node6 -->
<g id="node11" class="node"><title>Node6</title>
<a xlink:href="alignof_8h.html" target="_top" xlink:title="fae/util/alignof.h">
<polygon fill="none" stroke="black" points="167.007,-0.695312 167.007,-23.3047 268.993,-23.3047 268.993,-0.695312 167.007,-0.695312"/>
<text text-anchor="middle" x="218" y="-8.30469" font-family="Futura" font-size="11.00">fae/util/alignof.h</text>
</a>
</g>
<!-- Node4&#45;&gt;Node6 -->
<g id="edge10" class="edge"><title>Node4&#45;&gt;Node6</title>
<path fill="none" stroke="midnightblue" d="M268.094,-60.6308C259.356,-52.3219 246.896,-40.4746 236.589,-30.6745"/>
<polygon fill="midnightblue" stroke="midnightblue" points="238.883,-28.026 229.224,-23.6719 234.059,-33.099 238.883,-28.026"/>
</g>
<!-- Node7 -->
<g id="node13" class="node"><title>Node7</title>
<a xlink:href="minmax_8h.html" target="_top" xlink:title="fae/util/minmax.h">
<polygon fill="none" stroke="red" points="286.837,-0.695312 286.837,-23.3047 393.163,-23.3047 393.163,-0.695312 286.837,-0.695312"/>
<text text-anchor="middle" x="340" y="-8.30469" font-family="Futura" font-size="11.00">fae/util/minmax.h</text>
</a>
</g>
<!-- Node4&#45;&gt;Node7 -->
<g id="edge12" class="edge"><title>Node4&#45;&gt;Node7</title>
<path fill="none" stroke="midnightblue" d="M289.906,-60.6308C298.644,-52.3219 311.104,-40.4746 321.411,-30.6745"/>
<polygon fill="midnightblue" stroke="midnightblue" points="323.941,-33.099 328.776,-23.6719 319.117,-28.026 323.941,-33.099"/>
</g>
<!-- Node8 -->
<g id="node15" class="node"><title>Node8</title>
<a xlink:href="literals_8h.html" target="_top" xlink:title="fae/util/literals.h">
<polygon fill="none" stroke="red" points="411.038,-0.695312 411.038,-23.3047 510.962,-23.3047 510.962,-0.695312 411.038,-0.695312"/>
<text text-anchor="middle" x="461" y="-8.30469" font-family="Futura" font-size="11.00">fae/util/literals.h</text>
</a>
</g>
<!-- Node4&#45;&gt;Node8 -->
<g id="edge14" class="edge"><title>Node4&#45;&gt;Node8</title>
<path fill="none" stroke="midnightblue" d="M309.874,-61.1611C339.744,-51.6419 385.259,-37.1372 418.534,-26.533"/>
<polygon fill="midnightblue" stroke="midnightblue" points="419.972,-29.7483 428.437,-23.3771 417.847,-23.0787 419.972,-29.7483"/>
</g>
<!-- Node9 -->
<g id="node17" class="node"><title>Node9</title>
<a xlink:href="macros_8h.html" target="_top" xlink:title="fae/util/macros.h">
<polygon fill="none" stroke="black" points="528.475,-0.695312 528.475,-23.3047 631.525,-23.3047 631.525,-0.695312 528.475,-0.695312"/>
<text text-anchor="middle" x="580" y="-8.30469" font-family="Futura" font-size="11.00">fae/util/macros.h</text>
</a>
</g>
<!-- Node4&#45;&gt;Node9 -->
<g id="edge16" class="edge"><title>Node4&#45;&gt;Node9</title>
<path fill="none" stroke="midnightblue" d="M310.079,-65.0114C359.054,-55.5743 455.118,-37.0635 518.435,-24.8631"/>
<polygon fill="midnightblue" stroke="midnightblue" points="519.146,-28.2905 528.303,-22.9615 517.821,-21.4169 519.146,-28.2905"/>
</g>
<!-- Node10&#45;&gt;Node2 -->
<g id="edge20" class="edge"><title>Node10&#45;&gt;Node2</title>
<path fill="none" stroke="midnightblue" d="M222.419,-120.631C215.745,-112.566 206.312,-101.168 198.347,-91.5444"/>
<polygon fill="midnightblue" stroke="midnightblue" points="200.904,-89.1443 191.832,-83.6719 195.511,-93.6073 200.904,-89.1443"/>
</g>
<!-- Node10&#45;&gt;Node4 -->
<g id="edge22" class="edge"><title>Node10&#45;&gt;Node4</title>
<path fill="none" stroke="midnightblue" d="M239.581,-120.631C246.255,-112.566 255.688,-101.168 263.653,-91.5444"/>
<polygon fill="midnightblue" stroke="midnightblue" points="266.489,-93.6073 270.168,-83.6719 261.096,-89.1443 266.489,-93.6073"/>
</g>
</g>
</svg>
