<?xml version="1.0" encoding="UTF-8" standalone="no"?>
<!DOCTYPE svg PUBLIC "-//W3C//DTD SVG 1.1//EN"
 "http://www.w3.org/Graphics/SVG/1.1/DTD/svg11.dtd">
<!-- Generated by graphviz version 2.28.0 (20121015.0031)
 -->
<!-- Title: src/fae/processor/vm.h Pages: 1 -->
<svg width="278pt" height="92pt"
 viewBox="0.00 0.00 278.00 92.00" xmlns="http://www.w3.org/2000/svg" xmlns:xlink="http://www.w3.org/1999/xlink">
<g id="graph1" class="graph" transform="scale(1 1) rotate(0) translate(4 88)">
<title>src/fae/processor/vm.h</title>
<!-- Node1 -->
<g id="node1" class="node"><title>Node1</title>
<polygon fill="#bfbfbf" stroke="black" points="63.6038,-60.6953 63.6038,-83.3047 198.396,-83.3047 198.396,-60.6953 63.6038,-60.6953"/>
<text text-anchor="middle" x="131" y="-68.3047" font-family="Futura" font-size="11.00">src/fae/processor/vm.h</text>
</g>
<!-- Node2 -->
<g id="node3" class="node"><title>Node2</title>
<a xlink:href="file_8c.html" target="_top" xlink:title="src/fae/device/file.c">
<polygon fill="none" stroke="black" points="-0.159668,-0.695312 -0.159668,-23.3047 118.16,-23.3047 118.16,-0.695312 -0.159668,-0.695312"/>
<text text-anchor="middle" x="59" y="-8.30469" font-family="Futura" font-size="11.00">src/fae/device/file.c</text>
</a>
</g>
<!-- Node1&#45;&gt;Node2 -->
<g id="edge2" class="edge"><title>Node1&#45;&gt;Node2</title>
<path fill="none" stroke="midnightblue" d="M110.208,-54.2508C97.975,-44.3965 82.8717,-32.23 72.2478,-23.6719"/>
<polygon fill="midnightblue" stroke="midnightblue" points="108.145,-57.0831 118.128,-60.6308 112.536,-51.6318 108.145,-57.0831"/>
</g>
<!-- Node3 -->
<g id="node5" class="node"><title>Node3</title>
<a xlink:href="vm_8c.html" target="_top" xlink:title="src/fae/processor/vm.c">
<polygon fill="none" stroke="black" points="135.999,-0.695312 135.999,-23.3047 270.001,-23.3047 270.001,-0.695312 135.999,-0.695312"/>
<text text-anchor="middle" x="203" y="-8.30469" font-family="Futura" font-size="11.00">src/fae/processor/vm.c</text>
</a>
</g>
<!-- Node1&#45;&gt;Node3 -->
<g id="edge4" class="edge"><title>Node1&#45;&gt;Node3</title>
<path fill="none" stroke="midnightblue" d="M151.792,-54.2508C164.025,-44.3965 179.128,-32.23 189.752,-23.6719"/>
<polygon fill="midnightblue" stroke="midnightblue" points="149.464,-51.6318 143.872,-60.6308 153.855,-57.0831 149.464,-51.6318"/>
</g>
</g>
</svg>
