<?xml version="1.0" encoding="UTF-8" standalone="no"?>
<!DOCTYPE svg PUBLIC "-//W3C//DTD SVG 1.1//EN"
 "http://www.w3.org/Graphics/SVG/1.1/DTD/svg11.dtd">
<!-- Generated by graphviz version 2.28.0 (20121015.0031)
 -->
<!-- Title: src/fae/processor/vm.h Pages: 1 -->
<svg width="752pt" height="152pt"
 viewBox="0.00 0.00 752.00 152.00" xmlns="http://www.w3.org/2000/svg" xmlns:xlink="http://www.w3.org/1999/xlink">
<g id="graph1" class="graph" transform="scale(1 1) rotate(0) translate(4 148)">
<title>src/fae/processor/vm.h</title>
<!-- Node1 -->
<g id="node1" class="node"><title>Node1</title>
<polygon fill="#bfbfbf" stroke="black" points="192.604,-120.695 192.604,-143.305 327.396,-143.305 327.396,-120.695 192.604,-120.695"/>
<text text-anchor="middle" x="260" y="-128.305" font-family="Futura" font-size="11.00">src/fae/processor/vm.h</text>
</g>
<!-- Node2 -->
<g id="node3" class="node"><title>Node2</title>
<a xlink:href="string_8h.html" target="_top" xlink:title="fae/string.h">
<polygon fill="none" stroke="black" points="62.8269,-60.6953 62.8269,-83.3047 137.173,-83.3047 137.173,-60.6953 62.8269,-60.6953"/>
<text text-anchor="middle" x="100" y="-68.3047" font-family="Futura" font-size="11.00">fae/string.h</text>
</a>
</g>
<!-- Node1&#45;&gt;Node2 -->
<g id="edge2" class="edge"><title>Node1&#45;&gt;Node2</title>
<path fill="none" stroke="midnightblue" d="M231.395,-120.631C205.424,-111.216 166.921,-97.2588 138.301,-86.884"/>
<polygon fill="midnightblue" stroke="midnightblue" points="139.221,-83.4947 128.626,-83.3771 136.835,-90.0756 139.221,-83.4947"/>
</g>
<!-- Node4 -->
<g id="node7" class="node"><title>Node4</title>
<a xlink:href="util_8h.html" target="_top" xlink:title="fae/util.h">
<polygon fill="none" stroke="red" points="309.141,-60.6953 309.141,-83.3047 370.859,-83.3047 370.859,-60.6953 309.141,-60.6953"/>
<text text-anchor="middle" x="340" y="-68.3047" font-family="Futura" font-size="11.00">fae/util.h</text>
</a>
</g>
<!-- Node1&#45;&gt;Node4 -->
<g id="edge6" class="edge"><title>Node1&#45;&gt;Node4</title>
<path fill="none" stroke="midnightblue" d="M274.302,-120.631C286.174,-112.024 303.282,-99.6207 317.064,-89.6288"/>
<polygon fill="midnightblue" stroke="midnightblue" points="319.51,-92.1784 325.552,-83.475 315.401,-86.5111 319.51,-92.1784"/>
</g>
<!-- Node3 -->
<g id="node5" class="node"><title>Node3</title>
<a xlink:href="fae_2fae_8h.html" target="_top" xlink:title="fae.h">
<polygon fill="none" stroke="red" points="-0.769775,-0.695312 -0.769775,-23.3047 40.7698,-23.3047 40.7698,-0.695312 -0.769775,-0.695312"/>
<text text-anchor="middle" x="20" y="-8.30469" font-family="Futura" font-size="11.00">fae.h</text>
</a>
</g>
<!-- Node2&#45;&gt;Node3 -->
<g id="edge4" class="edge"><title>Node2&#45;&gt;Node3</title>
<path fill="none" stroke="midnightblue" d="M85.6976,-60.6308C73.8263,-52.0241 56.7182,-39.6207 42.9363,-29.6288"/>
<polygon fill="midnightblue" stroke="midnightblue" points="44.5988,-26.5111 34.4483,-23.475 40.49,-32.1784 44.5988,-26.5111"/>
</g>
<!-- Node5 -->
<g id="node9" class="node"><title>Node5</title>
<a xlink:href="arch_8h.html" target="_top" xlink:title="fae/util/arch.h">
<polygon fill="none" stroke="black" points="59.2053,-0.695312 59.2053,-23.3047 148.795,-23.3047 148.795,-0.695312 59.2053,-0.695312"/>
<text text-anchor="middle" x="104" y="-8.30469" font-family="Futura" font-size="11.00">fae/util/arch.h</text>
</a>
</g>
<!-- Node4&#45;&gt;Node5 -->
<g id="edge8" class="edge"><title>Node4&#45;&gt;Node5</title>
<path fill="none" stroke="midnightblue" d="M308.661,-63.298C269.762,-53.7382 202.862,-37.2966 156.176,-25.8228"/>
<polygon fill="midnightblue" stroke="midnightblue" points="156.791,-22.3699 146.244,-23.382 155.12,-29.1676 156.791,-22.3699"/>
</g>
<!-- Node6 -->
<g id="node11" class="node"><title>Node6</title>
<a xlink:href="alignof_8h.html" target="_top" xlink:title="fae/util/alignof.h">
<polygon fill="none" stroke="black" points="167.007,-0.695312 167.007,-23.3047 268.993,-23.3047 268.993,-0.695312 167.007,-0.695312"/>
<text text-anchor="middle" x="218" y="-8.30469" font-family="Futura" font-size="11.00">fae/util/alignof.h</text>
</a>
</g>
<!-- Node4&#45;&gt;Node6 -->
<g id="edge10" class="edge"><title>Node4&#45;&gt;Node6</title>
<path fill="none" stroke="midnightblue" d="M318.189,-60.6308C298.964,-51.4913 270.735,-38.0705 249.136,-27.8023"/>
<polygon fill="midnightblue" stroke="midnightblue" points="250.568,-24.6077 240.034,-23.475 247.562,-30.9296 250.568,-24.6077"/>
</g>
<!-- Node7 -->
<g id="node13" class="node"><title>Node7</title>
<a xlink:href="minmax_8h.html" target="_top" xlink:title="fae/util/minmax.h">
<polygon fill="none" stroke="red" points="286.837,-0.695312 286.837,-23.3047 393.163,-23.3047 393.163,-0.695312 286.837,-0.695312"/>
<text text-anchor="middle" x="340" y="-8.30469" font-family="Futura" font-size="11.00">fae/util/minmax.h</text>
</a>
</g>
<!-- Node4&#45;&gt;Node7 -->
<g id="edge12" class="edge"><title>Node4&#45;&gt;Node7</title>
<path fill="none" stroke="midnightblue" d="M340,-60.6308C340,-53.218 340,-42.9888 340,-33.9096"/>
<polygon fill="midnightblue" stroke="midnightblue" points="343.5,-33.6718 340,-23.6719 336.5,-33.6719 343.5,-33.6718"/>
</g>
<!-- Node8 -->
<g id="node15" class="node"><title>Node8</title>
<a xlink:href="literals_8h.html" target="_top" xlink:title="fae/util/literals.h">
<polygon fill="none" stroke="red" points="411.038,-0.695312 411.038,-23.3047 510.962,-23.3047 510.962,-0.695312 411.038,-0.695312"/>
<text text-anchor="middle" x="461" y="-8.30469" font-family="Futura" font-size="11.00">fae/util/literals.h</text>
</a>
</g>
<!-- Node4&#45;&gt;Node8 -->
<g id="edge14" class="edge"><title>Node4&#45;&gt;Node8</title>
<path fill="none" stroke="midnightblue" d="M361.632,-60.6308C380.699,-51.4913 408.698,-38.0705 430.119,-27.8023"/>
<polygon fill="midnightblue" stroke="midnightblue" points="431.642,-30.9537 439.147,-23.475 428.616,-24.6414 431.642,-30.9537"/>
</g>
<!-- Node9 -->
<g id="node17" class="node"><title>Node9</title>
<a xlink:href="macros_8h.html" target="_top" xlink:title="fae/util/macros.h">
<polygon fill="none" stroke="black" points="528.475,-0.695312 528.475,-23.3047 631.525,-23.3047 631.525,-0.695312 528.475,-0.695312"/>
<text text-anchor="middle" x="580" y="-8.30469" font-family="Futura" font-size="11.00">fae/util/macros.h</text>
</a>
</g>
<!-- Node4&#45;&gt;Node9 -->
<g id="edge16" class="edge"><title>Node4&#45;&gt;Node9</title>
<path fill="none" stroke="midnightblue" d="M370.884,-63.5363C410.362,-53.996 479.317,-37.3318 527.202,-25.7596"/>
<polygon fill="midnightblue" stroke="midnightblue" points="528.184,-29.123 537.082,-23.3719 526.54,-22.3189 528.184,-29.123"/>
</g>
<!-- Node10 -->
<g id="node19" class="node"><title>Node10</title>
<a xlink:href="apply_8h.html" target="_top" xlink:title="fae/util/apply.h">
<polygon fill="none" stroke="black" points="649.316,-0.695312 649.316,-23.3047 744.684,-23.3047 744.684,-0.695312 649.316,-0.695312"/>
<text text-anchor="middle" x="697" y="-8.30469" font-family="Futura" font-size="11.00">fae/util/apply.h</text>
</a>
</g>
<!-- Node4&#45;&gt;Node10 -->
<g id="edge18" class="edge"><title>Node4&#45;&gt;Node10</title>
<path fill="none" stroke="midnightblue" d="M371.155,-66.4887C424.019,-58.7539 534.895,-42.1863 639.07,-24.1182"/>
<polygon fill="midnightblue" stroke="midnightblue" points="639.878,-27.5302 649.129,-22.3652 638.676,-20.6342 639.878,-27.5302"/>
</g>
</g>
</svg>
