<?xml version="1.0" encoding="UTF-8" standalone="no"?>
<!DOCTYPE svg PUBLIC "-//W3C//DTD SVG 1.1//EN"
 "http://www.w3.org/Graphics/SVG/1.1/DTD/svg11.dtd">
<!-- Generated by graphviz version 2.28.0 (20121015.0031)
 -->
<!-- Title: src/platform/windows/fae/atomic.c Pages: 1 -->
<svg width="600pt" height="226pt"
 viewBox="0.00 0.00 600.00 226.00" xmlns="http://www.w3.org/2000/svg" xmlns:xlink="http://www.w3.org/1999/xlink">
<g id="graph1" class="graph" transform="scale(1 1) rotate(0) translate(4 222)">
<title>src/platform/windows/fae/atomic.c</title>
<!-- Node1 -->
<g id="node1" class="node"><title>Node1</title>
<polygon fill="#bfbfbf" stroke="black" points="381.844,-180.391 381.844,-217.609 508.156,-217.609 508.156,-180.391 381.844,-180.391"/>
<text text-anchor="start" x="389.844" y="-202.609" font-family="Futura" font-size="11.00">src/platform/windows</text>
<text text-anchor="middle" x="445" y="-188" font-family="Futura" font-size="11.00">/fae/atomic.c</text>
</g>
<!-- Node2 -->
<g id="node3" class="node"><title>Node2</title>
<a xlink:href="atomic_8h.html" target="_top" xlink:title="fae/atomic.h">
<polygon fill="none" stroke="black" points="357.894,-120.695 357.894,-143.305 438.106,-143.305 438.106,-120.695 357.894,-120.695"/>
<text text-anchor="middle" x="398" y="-128.305" font-family="Futura" font-size="11.00">fae/atomic.h</text>
</a>
</g>
<!-- Node1&#45;&gt;Node2 -->
<g id="edge2" class="edge"><title>Node1&#45;&gt;Node2</title>
<path fill="none" stroke="midnightblue" d="M432.157,-180.238C425.797,-171.443 418.116,-160.82 411.65,-151.877"/>
<polygon fill="midnightblue" stroke="midnightblue" points="414.378,-149.677 405.682,-143.624 408.705,-153.779 414.378,-149.677"/>
</g>
<!-- Node10 -->
<g id="node21" class="node"><title>Node10</title>
<polygon fill="none" stroke="#bfbfbf" points="456.027,-120.695 456.027,-143.305 527.973,-143.305 527.973,-120.695 456.027,-120.695"/>
<text text-anchor="middle" x="492" y="-128.305" font-family="Futura" font-size="11.00">Windows.h</text>
</g>
<!-- Node1&#45;&gt;Node10 -->
<g id="edge22" class="edge"><title>Node1&#45;&gt;Node10</title>
<path fill="none" stroke="midnightblue" d="M457.843,-180.238C464.203,-171.443 471.884,-160.82 478.35,-151.877"/>
<polygon fill="midnightblue" stroke="midnightblue" points="481.295,-153.779 484.318,-143.624 475.622,-149.677 481.295,-153.779"/>
</g>
<!-- Node3 -->
<g id="node5" class="node"><title>Node3</title>
<a xlink:href="fae_2fae_8h.html" target="_top" xlink:title="fae.h">
<polygon fill="none" stroke="red" points="377.23,-60.6953 377.23,-83.3047 418.77,-83.3047 418.77,-60.6953 377.23,-60.6953"/>
<text text-anchor="middle" x="398" y="-68.3047" font-family="Futura" font-size="11.00">fae.h</text>
</a>
</g>
<!-- Node2&#45;&gt;Node3 -->
<g id="edge4" class="edge"><title>Node2&#45;&gt;Node3</title>
<path fill="none" stroke="midnightblue" d="M392.684,-120.631C391.323,-113.137 390.931,-102.764 391.508,-93.6107"/>
<polygon fill="midnightblue" stroke="midnightblue" points="394.986,-94.0015 392.63,-83.6719 388.03,-93.2159 394.986,-94.0015"/>
</g>
<!-- Node9 -->
<g id="node19" class="node"><title>Node9</title>
<polygon fill="none" stroke="#bfbfbf" points="436.347,-60.6953 436.347,-83.3047 497.653,-83.3047 497.653,-60.6953 436.347,-60.6953"/>
<text text-anchor="middle" x="467" y="-68.3047" font-family="Futura" font-size="11.00">fae/std.h</text>
</g>
<!-- Node2&#45;&gt;Node9 -->
<g id="edge20" class="edge"><title>Node2&#45;&gt;Node9</title>
<path fill="none" stroke="midnightblue" d="M410.336,-120.631C420.317,-112.24 434.591,-100.242 446.316,-90.3869"/>
<polygon fill="midnightblue" stroke="midnightblue" points="448.901,-92.7856 454.304,-83.6719 444.397,-87.4272 448.901,-92.7856"/>
</g>
<!-- Node3&#45;&gt;Node2 -->
<g id="edge6" class="edge"><title>Node3&#45;&gt;Node2</title>
<path fill="none" stroke="midnightblue" d="M403.37,-83.6719C404.691,-91.1602 405.064,-101.411 404.488,-110.459"/>
<polygon fill="midnightblue" stroke="midnightblue" points="400.984,-110.296 403.316,-120.631 407.938,-111.097 400.984,-110.296"/>
</g>
<!-- Node4 -->
<g id="node8" class="node"><title>Node4</title>
<polygon fill="none" stroke="#bfbfbf" points="-0.394287,-0.695312 -0.394287,-23.3047 116.394,-23.3047 116.394,-0.695312 -0.394287,-0.695312"/>
<text text-anchor="middle" x="58" y="-8.30469" font-family="Futura" font-size="11.00">fae/atomic/queue.h</text>
</g>
<!-- Node3&#45;&gt;Node4 -->
<g id="edge8" class="edge"><title>Node3&#45;&gt;Node4</title>
<path fill="none" stroke="midnightblue" d="M376.988,-67.4156C328.077,-59.0719 204.833,-38.0479 126.644,-24.7099"/>
<polygon fill="midnightblue" stroke="midnightblue" points="126.842,-21.1932 116.396,-22.9617 125.665,-28.0935 126.842,-21.1932"/>
</g>
<!-- Node5 -->
<g id="node10" class="node"><title>Node5</title>
<a xlink:href="stack_8h.html" target="_top" xlink:title="fae/atomic/stack.h">
<polygon fill="none" stroke="red" points="134.377,-0.695312 134.377,-23.3047 245.623,-23.3047 245.623,-0.695312 134.377,-0.695312"/>
<text text-anchor="middle" x="190" y="-8.30469" font-family="Futura" font-size="11.00">fae/atomic/stack.h</text>
</a>
</g>
<!-- Node3&#45;&gt;Node5 -->
<g id="edge10" class="edge"><title>Node3&#45;&gt;Node5</title>
<path fill="none" stroke="midnightblue" d="M376.911,-65.1195C344.333,-56.0353 280.955,-38.3624 237.091,-26.1312"/>
<polygon fill="midnightblue" stroke="midnightblue" points="237.793,-22.6933 227.22,-23.3786 235.912,-29.4361 237.793,-22.6933"/>
</g>
<!-- Node6 -->
<g id="node12" class="node"><title>Node6</title>
<polygon fill="none" stroke="#bfbfbf" points="263.483,-0.695312 263.483,-23.3047 404.517,-23.3047 404.517,-0.695312 263.483,-0.695312"/>
<text text-anchor="middle" x="334" y="-8.30469" font-family="Futura" font-size="11.00">fae/atomic/ring_buffer.h</text>
</g>
<!-- Node3&#45;&gt;Node6 -->
<g id="edge12" class="edge"><title>Node3&#45;&gt;Node6</title>
<path fill="none" stroke="midnightblue" d="M386.558,-60.6308C377.39,-52.3219 364.317,-40.4746 353.503,-30.6745"/>
<polygon fill="midnightblue" stroke="midnightblue" points="355.536,-27.7936 345.776,-23.6719 350.835,-32.9806 355.536,-27.7936"/>
</g>
<!-- Node7 -->
<g id="node14" class="node"><title>Node7</title>
<a xlink:href="system_8h.html" target="_top" xlink:title="fae/system.h">
<polygon fill="none" stroke="red" points="422.983,-0.695312 422.983,-23.3047 503.017,-23.3047 503.017,-0.695312 422.983,-0.695312"/>
<text text-anchor="middle" x="463" y="-8.30469" font-family="Futura" font-size="11.00">fae/system.h</text>
</a>
</g>
<!-- Node3&#45;&gt;Node7 -->
<g id="edge14" class="edge"><title>Node3&#45;&gt;Node7</title>
<path fill="none" stroke="midnightblue" d="M409.621,-60.6308C419.024,-52.2405 432.47,-40.242 443.515,-30.3869"/>
<polygon fill="midnightblue" stroke="midnightblue" points="445.909,-32.9413 451.04,-23.6719 441.248,-27.7183 445.909,-32.9413"/>
</g>
<!-- Node8 -->
<g id="node16" class="node"><title>Node8</title>
<a xlink:href="error_8h.html" target="_top" xlink:title="fae/error.h">
<polygon fill="none" stroke="red" points="521.119,-0.695312 521.119,-23.3047 592.881,-23.3047 592.881,-0.695312 521.119,-0.695312"/>
<text text-anchor="middle" x="557" y="-8.30469" font-family="Futura" font-size="11.00">fae/error.h</text>
</a>
</g>
<!-- Node3&#45;&gt;Node8 -->
<g id="edge16" class="edge"><title>Node3&#45;&gt;Node8</title>
<path fill="none" stroke="midnightblue" d="M416.164,-60.6819C416.781,-60.452 417.394,-60.2244 418,-60 448.867,-48.5669 483.975,-35.8936 511.303,-26.5908"/>
<polygon fill="midnightblue" stroke="midnightblue" points="512.639,-29.8344 520.998,-23.3245 510.403,-23.2008 512.639,-29.8344"/>
</g>
<!-- Node8&#45;&gt;Node3 -->
<g id="edge18" class="edge"><title>Node8&#45;&gt;Node3</title>
<path fill="none" stroke="midnightblue" d="M535.079,-23.3245C510.662,-32.7621 470.658,-47.1628 436,-60 433.658,-60.8674 431.213,-61.7815 428.726,-62.6969"/>
<polygon fill="midnightblue" stroke="midnightblue" points="427.299,-59.4895 419.05,-66.138 429.644,-66.0849 427.299,-59.4895"/>
</g>
</g>
</svg>
