<?xml version="1.0" encoding="UTF-8" standalone="no"?>
<!DOCTYPE svg PUBLIC "-//W3C//DTD SVG 1.1//EN"
 "http://www.w3.org/Graphics/SVG/1.1/DTD/svg11.dtd">
<!-- Generated by graphviz version 2.28.0 (20121015.0031)
 -->
<!-- Title: src/platform/windows/fae/thread.c Pages: 1 -->
<svg width="624pt" height="286pt"
 viewBox="0.00 0.00 624.00 286.00" xmlns="http://www.w3.org/2000/svg" xmlns:xlink="http://www.w3.org/1999/xlink">
<g id="graph1" class="graph" transform="scale(1 1) rotate(0) translate(4 282)">
<title>src/platform/windows/fae/thread.c</title>
<!-- Node1 -->
<g id="node1" class="node"><title>Node1</title>
<polygon fill="#bfbfbf" stroke="black" points="272.844,-240.391 272.844,-277.609 399.156,-277.609 399.156,-240.391 272.844,-240.391"/>
<text text-anchor="start" x="280.844" y="-262.609" font-family="Futura" font-size="11.00">src/platform/windows</text>
<text text-anchor="middle" x="336" y="-248" font-family="Futura" font-size="11.00">/fae/thread.c</text>
</g>
<!-- Node2 -->
<g id="node3" class="node"><title>Node2</title>
<a xlink:href="thread_8h.html" target="_top" xlink:title="fae/thread.h">
<polygon fill="none" stroke="black" points="249.093,-180.695 249.093,-203.305 328.907,-203.305 328.907,-180.695 249.093,-180.695"/>
<text text-anchor="middle" x="289" y="-188.305" font-family="Futura" font-size="11.00">fae/thread.h</text>
</a>
</g>
<!-- Node1&#45;&gt;Node2 -->
<g id="edge2" class="edge"><title>Node1&#45;&gt;Node2</title>
<path fill="none" stroke="midnightblue" d="M323.157,-240.238C316.797,-231.443 309.116,-220.82 302.65,-211.877"/>
<polygon fill="midnightblue" stroke="midnightblue" points="305.378,-209.677 296.682,-203.624 299.705,-213.779 305.378,-209.677"/>
</g>
<!-- Node10 -->
<g id="node22" class="node"><title>Node10</title>
<polygon fill="none" stroke="#bfbfbf" points="347.027,-180.695 347.027,-203.305 418.973,-203.305 418.973,-180.695 347.027,-180.695"/>
<text text-anchor="middle" x="383" y="-188.305" font-family="Futura" font-size="11.00">Windows.h</text>
</g>
<!-- Node1&#45;&gt;Node10 -->
<g id="edge24" class="edge"><title>Node1&#45;&gt;Node10</title>
<path fill="none" stroke="midnightblue" d="M348.843,-240.238C355.203,-231.443 362.884,-220.82 369.35,-211.877"/>
<polygon fill="midnightblue" stroke="midnightblue" points="372.295,-213.779 375.318,-203.624 366.622,-209.677 372.295,-213.779"/>
</g>
<!-- Node3 -->
<g id="node5" class="node"><title>Node3</title>
<a xlink:href="fae_2fae_8h.html" target="_top" xlink:title="fae.h">
<polygon fill="none" stroke="red" points="268.23,-120.695 268.23,-143.305 309.77,-143.305 309.77,-120.695 268.23,-120.695"/>
<text text-anchor="middle" x="289" y="-128.305" font-family="Futura" font-size="11.00">fae.h</text>
</a>
</g>
<!-- Node2&#45;&gt;Node3 -->
<g id="edge4" class="edge"><title>Node2&#45;&gt;Node3</title>
<path fill="none" stroke="midnightblue" d="M283.684,-180.631C282.323,-173.137 281.931,-162.764 282.508,-153.611"/>
<polygon fill="midnightblue" stroke="midnightblue" points="285.986,-154.001 283.63,-143.672 279.03,-153.216 285.986,-154.001"/>
</g>
<!-- Node5 -->
<g id="node10" class="node"><title>Node5</title>
<polygon fill="none" stroke="#bfbfbf" points="304.347,-0.695312 304.347,-23.3047 365.653,-23.3047 365.653,-0.695312 304.347,-0.695312"/>
<text text-anchor="middle" x="335" y="-8.30469" font-family="Futura" font-size="11.00">fae/std.h</text>
</g>
<!-- Node2&#45;&gt;Node5 -->
<g id="edge22" class="edge"><title>Node2&#45;&gt;Node5</title>
<path fill="none" stroke="midnightblue" d="M328.469,-180.653C410.647,-158.723 593.939,-107.648 611,-84 617.241,-75.3497 617.88,-68.151 611,-60 581.402,-24.9356 445.333,-16.0276 375.943,-13.7671"/>
<polygon fill="midnightblue" stroke="midnightblue" points="375.906,-10.2646 365.808,-13.4688 375.7,-17.2615 375.906,-10.2646"/>
</g>
<!-- Node3&#45;&gt;Node2 -->
<g id="edge20" class="edge"><title>Node3&#45;&gt;Node2</title>
<path fill="none" stroke="midnightblue" d="M294.37,-143.672C295.691,-151.16 296.064,-161.411 295.488,-170.459"/>
<polygon fill="midnightblue" stroke="midnightblue" points="291.984,-170.296 294.316,-180.631 298.938,-171.097 291.984,-170.296"/>
</g>
<!-- Node4 -->
<g id="node7" class="node"><title>Node4</title>
<a xlink:href="atomic_8h.html" target="_top" xlink:title="fae/atomic.h">
<polygon fill="none" stroke="black" points="-0.105713,-60.6953 -0.105713,-83.3047 80.1057,-83.3047 80.1057,-60.6953 -0.105713,-60.6953"/>
<text text-anchor="middle" x="40" y="-68.3047" font-family="Futura" font-size="11.00">fae/atomic.h</text>
</a>
</g>
<!-- Node3&#45;&gt;Node4 -->
<g id="edge6" class="edge"><title>Node3&#45;&gt;Node4</title>
<path fill="none" stroke="midnightblue" d="M267.823,-126.922C228.41,-118.498 143.479,-98.8735 89.1163,-85.7697"/>
<polygon fill="midnightblue" stroke="midnightblue" points="89.8818,-82.354 79.3391,-83.403 88.2349,-89.1575 89.8818,-82.354"/>
</g>
<!-- Node6 -->
<g id="node12" class="node"><title>Node6</title>
<polygon fill="none" stroke="#bfbfbf" points="98.6057,-60.6953 98.6057,-83.3047 215.394,-83.3047 215.394,-60.6953 98.6057,-60.6953"/>
<text text-anchor="middle" x="157" y="-68.3047" font-family="Futura" font-size="11.00">fae/atomic/queue.h</text>
</g>
<!-- Node3&#45;&gt;Node6 -->
<g id="edge12" class="edge"><title>Node3&#45;&gt;Node6</title>
<path fill="none" stroke="midnightblue" d="M268.084,-121.81C247.034,-112.56 214.264,-98.1613 189.763,-87.3957"/>
<polygon fill="midnightblue" stroke="midnightblue" points="191.053,-84.1397 180.49,-83.3212 188.237,-90.5483 191.053,-84.1397"/>
</g>
<!-- Node7 -->
<g id="node14" class="node"><title>Node7</title>
<a xlink:href="stack_8h.html" target="_top" xlink:title="fae/atomic/stack.h">
<polygon fill="none" stroke="red" points="233.377,-60.6953 233.377,-83.3047 344.623,-83.3047 344.623,-60.6953 233.377,-60.6953"/>
<text text-anchor="middle" x="289" y="-68.3047" font-family="Futura" font-size="11.00">fae/atomic/stack.h</text>
</a>
</g>
<!-- Node3&#45;&gt;Node7 -->
<g id="edge14" class="edge"><title>Node3&#45;&gt;Node7</title>
<path fill="none" stroke="midnightblue" d="M289,-120.631C289,-113.218 289,-102.989 289,-93.9096"/>
<polygon fill="midnightblue" stroke="midnightblue" points="292.5,-93.6718 289,-83.6719 285.5,-93.6719 292.5,-93.6718"/>
</g>
<!-- Node8 -->
<g id="node16" class="node"><title>Node8</title>
<polygon fill="none" stroke="#bfbfbf" points="362.483,-60.6953 362.483,-83.3047 503.517,-83.3047 503.517,-60.6953 362.483,-60.6953"/>
<text text-anchor="middle" x="433" y="-68.3047" font-family="Futura" font-size="11.00">fae/atomic/ring_buffer.h</text>
</g>
<!-- Node3&#45;&gt;Node8 -->
<g id="edge16" class="edge"><title>Node3&#45;&gt;Node8</title>
<path fill="none" stroke="midnightblue" d="M309.939,-122.566C333.035,-113.264 370.574,-98.1439 398.127,-87.0463"/>
<polygon fill="midnightblue" stroke="midnightblue" points="399.448,-90.2875 407.416,-83.3048 396.832,-83.7944 399.448,-90.2875"/>
</g>
<!-- Node9 -->
<g id="node18" class="node"><title>Node9</title>
<a xlink:href="system_8h.html" target="_top" xlink:title="fae/system.h">
<polygon fill="none" stroke="red" points="521.983,-60.6953 521.983,-83.3047 602.017,-83.3047 602.017,-60.6953 521.983,-60.6953"/>
<text text-anchor="middle" x="562" y="-68.3047" font-family="Futura" font-size="11.00">fae/system.h</text>
</a>
</g>
<!-- Node3&#45;&gt;Node9 -->
<g id="edge18" class="edge"><title>Node3&#45;&gt;Node9</title>
<path fill="none" stroke="midnightblue" d="M309.919,-126.655C349.431,-118.435 437.737,-99.9946 512,-84 512.1,-83.9784 512.201,-83.9567 512.302,-83.935"/>
<polygon fill="midnightblue" stroke="midnightblue" points="512.858,-87.3958 521.89,-81.8569 511.375,-80.5546 512.858,-87.3958"/>
</g>
<!-- Node4&#45;&gt;Node3 -->
<g id="edge8" class="edge"><title>Node4&#45;&gt;Node3</title>
<path fill="none" stroke="midnightblue" d="M80.1385,-81.2131C129.878,-92.2194 213.283,-111.645 258.254,-122.697"/>
<polygon fill="midnightblue" stroke="midnightblue" points="257.481,-126.112 268.03,-125.119 259.165,-119.317 257.481,-126.112"/>
</g>
<!-- Node4&#45;&gt;Node5 -->
<g id="edge10" class="edge"><title>Node4&#45;&gt;Node5</title>
<path fill="none" stroke="midnightblue" d="M80.3682,-62.021C83.6247,-61.3265 86.866,-60.6452 90,-60 161.683,-45.2421 245.481,-29.4888 294.167,-20.4843"/>
<polygon fill="midnightblue" stroke="midnightblue" points="294.808,-23.9253 304.006,-18.6681 293.537,-17.0415 294.808,-23.9253"/>
</g>
</g>
</svg>
