<?xml version="1.0" encoding="UTF-8" standalone="no"?>
<!DOCTYPE svg PUBLIC "-//W3C//DTD SVG 1.1//EN"
 "http://www.w3.org/Graphics/SVG/1.1/DTD/svg11.dtd">
<!-- Generated by graphviz version 2.28.0 (20121015.0031)
 -->
<!-- Title: include/fa/audio/stream.h Pages: 1 -->
<svg width="814pt" height="272pt"
 viewBox="0.00 0.00 814.00 272.00" xmlns="http://www.w3.org/2000/svg" xmlns:xlink="http://www.w3.org/1999/xlink">
<g id="graph1" class="graph" transform="scale(1 1) rotate(0) translate(4 268)">
<title>include/fa/audio/stream.h</title>
<!-- Node1 -->
<g id="node1" class="node"><title>Node1</title>
<polygon fill="#bfbfbf" stroke="black" points="479.296,-240.695 479.296,-263.305 628.704,-263.305 628.704,-240.695 479.296,-240.695"/>
<text text-anchor="middle" x="554" y="-248.305" font-family="Futura" font-size="11.00">include/fa/audio/stream.h</text>
</g>
<!-- Node2 -->
<g id="node3" class="node"><title>Node2</title>
<a xlink:href="audio_8h.html" target="_top" xlink:title="include/fa/audio.h">
<polygon fill="none" stroke="black" points="446.592,-180.695 446.592,-203.305 557.408,-203.305 557.408,-180.695 446.592,-180.695"/>
<text text-anchor="middle" x="502" y="-188.305" font-family="Futura" font-size="11.00">include/fa/audio.h</text>
</a>
</g>
<!-- Node1&#45;&gt;Node2 -->
<g id="edge2" class="edge"><title>Node1&#45;&gt;Node2</title>
<path fill="none" stroke="midnightblue" d="M537.955,-233.104C529.314,-223.466 518.946,-211.901 511.568,-203.672"/>
<polygon fill="midnightblue" stroke="midnightblue" points="535.422,-235.521 544.703,-240.631 540.634,-230.849 535.422,-235.521"/>
</g>
<!-- Node3 -->
<g id="node5" class="node"><title>Node3</title>
<a xlink:href="fa_2fa_8h.html" target="_top" xlink:title="include/fa/fa.h">
<polygon fill="none" stroke="red" points="451.846,-120.695 451.846,-143.305 544.154,-143.305 544.154,-120.695 451.846,-120.695"/>
<text text-anchor="middle" x="498" y="-128.305" font-family="Futura" font-size="11.00">include/fa/fa.h</text>
</a>
</g>
<!-- Node2&#45;&gt;Node3 -->
<g id="edge4" class="edge"><title>Node2&#45;&gt;Node3</title>
<path fill="none" stroke="midnightblue" d="M500.583,-170.459C499.959,-161.411 499.252,-151.16 498.736,-143.672"/>
<polygon fill="midnightblue" stroke="midnightblue" points="497.105,-170.895 501.285,-180.631 504.088,-170.414 497.105,-170.895"/>
</g>
<!-- Node4 -->
<g id="node7" class="node"><title>Node4</title>
<a xlink:href="action_8h.html" target="_top" xlink:title="include/fa/action.h">
<polygon fill="none" stroke="red" points="-0.253906,-60.6953 -0.253906,-83.3047 112.254,-83.3047 112.254,-60.6953 -0.253906,-60.6953"/>
<text text-anchor="middle" x="56" y="-68.3047" font-family="Futura" font-size="11.00">include/fa/action.h</text>
</a>
</g>
<!-- Node3&#45;&gt;Node4 -->
<g id="edge6" class="edge"><title>Node3&#45;&gt;Node4</title>
<path fill="none" stroke="midnightblue" d="M441.47,-125.403C365.971,-117.227 228.55,-101.119 112,-84 110.528,-83.7838 109.038,-83.5612 107.536,-83.3333"/>
<polygon fill="midnightblue" stroke="midnightblue" points="441.387,-128.915 451.704,-126.504 442.135,-121.955 441.387,-128.915"/>
</g>
<!-- Node5 -->
<g id="node11" class="node"><title>Node5</title>
<a xlink:href="atomic_8h.html" target="_top" xlink:title="include/fa/atomic.h">
<polygon fill="none" stroke="black" points="440.374,-60.6953 440.374,-83.3047 555.626,-83.3047 555.626,-60.6953 440.374,-60.6953"/>
<text text-anchor="middle" x="498" y="-68.3047" font-family="Futura" font-size="11.00">include/fa/atomic.h</text>
</a>
</g>
<!-- Node3&#45;&gt;Node5 -->
<g id="edge12" class="edge"><title>Node3&#45;&gt;Node5</title>
<path fill="none" stroke="midnightblue" d="M491.512,-110.459C490.936,-101.411 491.309,-91.1602 492.63,-83.6719"/>
<polygon fill="midnightblue" stroke="midnightblue" points="488.062,-111.097 492.684,-120.631 495.016,-110.296 488.062,-111.097"/>
</g>
<!-- Node6 -->
<g id="node14" class="node"><title>Node6</title>
<a xlink:href="buffer_8h.html" target="_top" xlink:title="include/fa/buffer.h">
<polygon fill="none" stroke="red" points="130.227,-60.6953 130.227,-83.3047 241.773,-83.3047 241.773,-60.6953 130.227,-60.6953"/>
<text text-anchor="middle" x="186" y="-68.3047" font-family="Futura" font-size="11.00">include/fa/buffer.h</text>
</a>
</g>
<!-- Node3&#45;&gt;Node6 -->
<g id="edge16" class="edge"><title>Node3&#45;&gt;Node6</title>
<path fill="none" stroke="midnightblue" d="M441.755,-120.544C385.053,-110.003 298.064,-93.8324 241.595,-83.335"/>
<polygon fill="midnightblue" stroke="midnightblue" points="441.156,-123.993 451.627,-122.379 442.435,-117.111 441.156,-123.993"/>
</g>
<!-- Node7 -->
<g id="node16" class="node"><title>Node7</title>
<a xlink:href="io_8h.html" target="_top" xlink:title="include/fa/io.h">
<polygon fill="none" stroke="black" points="182.185,-0.695312 182.185,-23.3047 273.815,-23.3047 273.815,-0.695312 182.185,-0.695312"/>
<text text-anchor="middle" x="228" y="-8.30469" font-family="Futura" font-size="11.00">include/fa/io.h</text>
</a>
</g>
<!-- Node3&#45;&gt;Node7 -->
<g id="edge32" class="edge"><title>Node3&#45;&gt;Node7</title>
<path fill="none" stroke="midnightblue" d="M441.705,-127.971C397.465,-123.413 335.727,-112.08 289,-84 263.649,-68.7655 243.512,-39.3069 233.989,-23.5491"/>
<polygon fill="midnightblue" stroke="midnightblue" points="441.423,-131.459 451.709,-128.917 442.083,-124.491 441.423,-131.459"/>
</g>
<!-- Node8 -->
<g id="node18" class="node"><title>Node8</title>
<a xlink:href="clock_8h.html" target="_top" xlink:title="include/fa/clock.h">
<polygon fill="none" stroke="red" points="697.978,-60.6953 697.978,-83.3047 806.022,-83.3047 806.022,-60.6953 697.978,-60.6953"/>
<text text-anchor="middle" x="752" y="-68.3047" font-family="Futura" font-size="11.00">include/fa/clock.h</text>
</a>
</g>
<!-- Node3&#45;&gt;Node8 -->
<g id="edge20" class="edge"><title>Node3&#45;&gt;Node8</title>
<path fill="none" stroke="midnightblue" d="M553.195,-118.396C599.085,-107.918 663.605,-93.1848 706.556,-83.3771"/>
<polygon fill="midnightblue" stroke="midnightblue" points="552.38,-114.992 543.41,-120.631 553.938,-121.817 552.38,-114.992"/>
</g>
<!-- Node9 -->
<g id="node21" class="node"><title>Node9</title>
<a xlink:href="dynamic_8h.html" target="_top" xlink:title="include/fa/dynamic.h">
<polygon fill="none" stroke="black" points="297.918,-60.6953 297.918,-83.3047 422.082,-83.3047 422.082,-60.6953 297.918,-60.6953"/>
<text text-anchor="middle" x="360" y="-68.3047" font-family="Futura" font-size="11.00">include/fa/dynamic.h</text>
</a>
</g>
<!-- Node3&#45;&gt;Node9 -->
<g id="edge24" class="edge"><title>Node3&#45;&gt;Node9</title>
<path fill="none" stroke="midnightblue" d="M464.042,-116.728C439.551,-106.434 407.041,-92.7708 384.923,-83.475"/>
<polygon fill="midnightblue" stroke="midnightblue" points="462.753,-119.983 473.328,-120.631 465.466,-113.529 462.753,-119.983"/>
</g>
<!-- Node10 -->
<g id="node23" class="node"><title>Node10</title>
<a xlink:href="error_8h.html" target="_top" xlink:title="include/fa/error.h">
<polygon fill="none" stroke="red" points="573.598,-60.6953 573.598,-83.3047 680.402,-83.3047 680.402,-60.6953 573.598,-60.6953"/>
<text text-anchor="middle" x="627" y="-68.3047" font-family="Futura" font-size="11.00">include/fa/error.h</text>
</a>
</g>
<!-- Node3&#45;&gt;Node10 -->
<g id="edge26" class="edge"><title>Node3&#45;&gt;Node10</title>
<path fill="none" stroke="midnightblue" d="M524.991,-116.178C546.52,-105.952 576.416,-92.6062 598.367,-83.475"/>
<polygon fill="midnightblue" stroke="midnightblue" points="523.237,-113.138 515.747,-120.631 526.275,-119.445 523.237,-113.138"/>
</g>
<!-- Node4&#45;&gt;Node1 -->
<g id="edge8" class="edge"><title>Node4&#45;&gt;Node1</title>
<path fill="none" stroke="midnightblue" d="M94.6452,-86.8129C190.967,-121.241 440.064,-210.276 525.073,-240.661"/>
<polygon fill="midnightblue" stroke="midnightblue" points="95.6016,-83.438 85.007,-83.368 93.2455,-90.0296 95.6016,-83.438"/>
</g>
<!-- Node4&#45;&gt;Node3 -->
<g id="edge10" class="edge"><title>Node4&#45;&gt;Node3</title>
<path fill="none" stroke="midnightblue" d="M122.436,-82.8599C124.995,-83.2542 127.523,-83.6362 130,-84 245.67,-100.989 381.895,-116.984 451.773,-125.217"/>
<polygon fill="midnightblue" stroke="midnightblue" points="122.887,-79.3878 112.464,-81.2896 121.798,-86.3026 122.887,-79.3878"/>
</g>
<!-- Node5&#45;&gt;Node3 -->
<g id="edge14" class="edge"><title>Node5&#45;&gt;Node3</title>
<path fill="none" stroke="midnightblue" d="M504.492,-93.6107C505.069,-102.764 504.677,-113.137 503.316,-120.631"/>
<polygon fill="midnightblue" stroke="midnightblue" points="507.97,-93.2159 503.37,-83.6719 501.014,-94.0015 507.97,-93.2159"/>
</g>
<!-- Node6&#45;&gt;Node7 -->
<g id="edge18" class="edge"><title>Node6&#45;&gt;Node7</title>
<path fill="none" stroke="midnightblue" d="M199.38,-52.5233C206.272,-43.0047 214.432,-31.7362 220.272,-23.6719"/>
<polygon fill="midnightblue" stroke="midnightblue" points="196.539,-50.4785 193.509,-60.6308 202.209,-54.5841 196.539,-50.4785"/>
</g>
<!-- Node8&#45;&gt;Node1 -->
<g id="edge22" class="edge"><title>Node8&#45;&gt;Node1</title>
<path fill="none" stroke="midnightblue" d="M732.859,-90.2079C692.194,-126.765 598.241,-211.228 565.501,-240.661"/>
<polygon fill="midnightblue" stroke="midnightblue" points="735.37,-92.6563 740.467,-83.368 730.69,-87.4506 735.37,-92.6563"/>
</g>
<!-- Node10&#45;&gt;Node1 -->
<g id="edge28" class="edge"><title>Node10&#45;&gt;Node1</title>
<path fill="none" stroke="midnightblue" d="M618.879,-92.801C603.371,-130.615 570.034,-211.904 558.24,-240.661"/>
<polygon fill="midnightblue" stroke="midnightblue" points="622.192,-93.9482 622.748,-83.368 615.715,-91.292 622.192,-93.9482"/>
</g>
<!-- Node10&#45;&gt;Node3 -->
<g id="edge30" class="edge"><title>Node10&#45;&gt;Node3</title>
<path fill="none" stroke="midnightblue" d="M599.759,-87.9407C578.165,-98.1908 548.267,-111.532 526.378,-120.631"/>
<polygon fill="midnightblue" stroke="midnightblue" points="601.544,-90.9656 609.037,-83.475 598.509,-84.6581 601.544,-90.9656"/>
</g>
</g>
</svg>
