<?xml version="1.0" encoding="UTF-8" standalone="no"?>
<!DOCTYPE svg PUBLIC "-//W3C//DTD SVG 1.1//EN"
 "http://www.w3.org/Graphics/SVG/1.1/DTD/svg11.dtd">
<!-- Generated by graphviz version 2.28.0 (20121015.0031)
 -->
<!-- Title: include/fa/map.h Pages: 1 -->
<svg width="724pt" height="272pt"
 viewBox="0.00 0.00 724.03 272.00" xmlns="http://www.w3.org/2000/svg" xmlns:xlink="http://www.w3.org/1999/xlink">
<g id="graph1" class="graph" transform="scale(1 1) rotate(0) translate(4 268)">
<title>include/fa/map.h</title>
<!-- Node1 -->
<g id="node1" class="node"><title>Node1</title>
<polygon fill="#bfbfbf" stroke="black" points="587.914,-240.695 587.914,-263.305 692.086,-263.305 692.086,-240.695 587.914,-240.695"/>
<text text-anchor="middle" x="640" y="-248.305" font-family="Futura" font-size="11.00">include/fa/map.h</text>
</g>
<!-- Node2 -->
<g id="node3" class="node"><title>Node2</title>
<a xlink:href="fa_2fa_8h.html" target="_top" xlink:title="fa.h">
<polygon fill="none" stroke="red" points="516.273,-120.695 516.273,-143.305 551.727,-143.305 551.727,-120.695 516.273,-120.695"/>
<text text-anchor="middle" x="534" y="-128.305" font-family="Futura" font-size="11.00">fa.h</text>
</a>
</g>
<!-- Node1&#45;&gt;Node2 -->
<g id="edge2" class="edge"><title>Node1&#45;&gt;Node2</title>
<path fill="none" stroke="midnightblue" d="M616.06,-240.66C599.857,-232.645 578.944,-220.179 565,-204 552.423,-189.407 544.215,-168.917 539.425,-153.698"/>
<polygon fill="midnightblue" stroke="midnightblue" points="542.674,-152.336 536.527,-143.706 535.951,-154.286 542.674,-152.336"/>
</g>
<!-- Node8 -->
<g id="node16" class="node"><title>Node8</title>
<a xlink:href="pair_8h.html" target="_top" xlink:title="fa/pair.h">
<polygon fill="none" stroke="black" points="643.694,-60.6953 643.694,-83.3047 704.306,-83.3047 704.306,-60.6953 643.694,-60.6953"/>
<text text-anchor="middle" x="674" y="-68.3047" font-family="Futura" font-size="11.00">fa/pair.h</text>
</a>
</g>
<!-- Node1&#45;&gt;Node8 -->
<g id="edge26" class="edge"><title>Node1&#45;&gt;Node8</title>
<path fill="none" stroke="midnightblue" d="M642.615,-240.583C644.958,-231.084 648.413,-216.644 651,-204 658.944,-165.179 666.573,-119.54 670.739,-93.6671"/>
<polygon fill="midnightblue" stroke="midnightblue" points="674.232,-93.9925 672.351,-83.5658 667.319,-92.8893 674.232,-93.9925"/>
</g>
<!-- Node9 -->
<g id="node19" class="node"><title>Node9</title>
<a xlink:href="list_8h.html" target="_top" xlink:title="fa/list.h">
<polygon fill="none" stroke="black" points="612.949,-0.695312 612.949,-23.3047 667.051,-23.3047 667.051,-0.695312 612.949,-0.695312"/>
<text text-anchor="middle" x="640" y="-8.30469" font-family="Futura" font-size="11.00">fa/list.h</text>
</a>
</g>
<!-- Node1&#45;&gt;Node9 -->
<g id="edge28" class="edge"><title>Node1&#45;&gt;Node9</title>
<path fill="none" stroke="midnightblue" d="M647.012,-240.474C653.048,-231.142 661.746,-217.012 668,-204 692.674,-152.662 702.837,-140.046 713,-84 714.903,-73.5045 718.108,-69.364 713,-60 705.065,-45.4547 690.486,-34.735 676.431,-27.2374"/>
<polygon fill="midnightblue" stroke="midnightblue" points="677.863,-24.0415 667.345,-22.7678 674.773,-30.3226 677.863,-24.0415"/>
</g>
<!-- Node10 -->
<g id="node25" class="node"><title>Node10</title>
<a xlink:href="string_8h.html" target="_top" xlink:title="fa/string.h">
<polygon fill="none" stroke="black" points="573.87,-180.695 573.87,-203.305 642.13,-203.305 642.13,-180.695 573.87,-180.695"/>
<text text-anchor="middle" x="608" y="-188.305" font-family="Futura" font-size="11.00">fa/string.h</text>
</a>
</g>
<!-- Node1&#45;&gt;Node10 -->
<g id="edge30" class="edge"><title>Node1&#45;&gt;Node10</title>
<path fill="none" stroke="midnightblue" d="M634.279,-240.631C630.009,-232.892 624.046,-222.084 618.88,-212.719"/>
<polygon fill="midnightblue" stroke="midnightblue" points="621.783,-210.737 613.888,-203.672 615.654,-214.118 621.783,-210.737"/>
</g>
<!-- Node3 -->
<g id="node5" class="node"><title>Node3</title>
<a xlink:href="atomic_8h.html" target="_top" xlink:title="fa/atomic.h">
<polygon fill="none" stroke="red" points="-0.0629883,-60.6953 -0.0629883,-83.3047 74.063,-83.3047 74.063,-60.6953 -0.0629883,-60.6953"/>
<text text-anchor="middle" x="37" y="-68.3047" font-family="Futura" font-size="11.00">fa/atomic.h</text>
</a>
</g>
<!-- Node2&#45;&gt;Node3 -->
<g id="edge4" class="edge"><title>Node2&#45;&gt;Node3</title>
<path fill="none" stroke="midnightblue" d="M516.17,-130.182C455.314,-126.918 252.263,-113.631 80.5307,-85.0665"/>
<polygon fill="midnightblue" stroke="midnightblue" points="81.0089,-81.5978 70.566,-83.3857 79.8445,-88.5003 81.0089,-81.5978"/>
</g>
<!-- Node4 -->
<g id="node8" class="node"><title>Node4</title>
<a xlink:href="queue_8h.html" target="_top" xlink:title="fa/atomic/queue.h">
<polygon fill="none" stroke="red" points="91.6484,-60.6953 91.6484,-83.3047 202.352,-83.3047 202.352,-60.6953 91.6484,-60.6953"/>
<text text-anchor="middle" x="147" y="-68.3047" font-family="Futura" font-size="11.00">fa/atomic/queue.h</text>
</a>
</g>
<!-- Node2&#45;&gt;Node4 -->
<g id="edge8" class="edge"><title>Node2&#45;&gt;Node4</title>
<path fill="none" stroke="midnightblue" d="M516.118,-128.562C468.499,-122.037 334.455,-103.442 212.378,-84.1921"/>
<polygon fill="midnightblue" stroke="midnightblue" points="212.913,-80.7332 202.489,-82.6269 211.818,-87.6471 212.913,-80.7332"/>
</g>
<!-- Node5 -->
<g id="node10" class="node"><title>Node5</title>
<a xlink:href="stack_8h.html" target="_top" xlink:title="fa/atomic/stack.h">
<polygon fill="none" stroke="red" points="220.42,-60.6953 220.42,-83.3047 325.58,-83.3047 325.58,-60.6953 220.42,-60.6953"/>
<text text-anchor="middle" x="273" y="-68.3047" font-family="Futura" font-size="11.00">fa/atomic/stack.h</text>
</a>
</g>
<!-- Node2&#45;&gt;Node5 -->
<g id="edge10" class="edge"><title>Node2&#45;&gt;Node5</title>
<path fill="none" stroke="midnightblue" d="M516.06,-127.013C478.173,-118.594 388.63,-98.6955 329.452,-85.5448"/>
<polygon fill="midnightblue" stroke="midnightblue" points="330.023,-82.0864 319.502,-83.3337 328.504,-88.9198 330.023,-82.0864"/>
</g>
<!-- Node6 -->
<g id="node12" class="node"><title>Node6</title>
<a xlink:href="ring__buffer_8h.html" target="_top" xlink:title="fa/atomic/ring_buffer.h">
<polygon fill="none" stroke="red" points="343.526,-60.6953 343.526,-83.3047 478.474,-83.3047 478.474,-60.6953 343.526,-60.6953"/>
<text text-anchor="middle" x="411" y="-68.3047" font-family="Futura" font-size="11.00">fa/atomic/ring_buffer.h</text>
</a>
</g>
<!-- Node2&#45;&gt;Node6 -->
<g id="edge12" class="edge"><title>Node2&#45;&gt;Node6</title>
<path fill="none" stroke="midnightblue" d="M516.115,-122.566C496.79,-113.454 465.628,-98.7595 442.241,-87.7316"/>
<polygon fill="midnightblue" stroke="midnightblue" points="443.606,-84.5058 433.069,-83.4064 440.621,-90.8372 443.606,-84.5058"/>
</g>
<!-- Node7 -->
<g id="node14" class="node"><title>Node7</title>
<a xlink:href="system_8h.html" target="_top" xlink:title="fa/system.h">
<polygon fill="none" stroke="red" points="496.026,-60.6953 496.026,-83.3047 569.974,-83.3047 569.974,-60.6953 496.026,-60.6953"/>
<text text-anchor="middle" x="533" y="-68.3047" font-family="Futura" font-size="11.00">fa/system.h</text>
</a>
</g>
<!-- Node2&#45;&gt;Node7 -->
<g id="edge14" class="edge"><title>Node2&#45;&gt;Node7</title>
<path fill="none" stroke="midnightblue" d="M533.821,-120.631C533.693,-113.218 533.517,-102.989 533.361,-93.9096"/>
<polygon fill="midnightblue" stroke="midnightblue" points="536.856,-93.61 533.184,-83.6719 529.857,-93.7308 536.856,-93.61"/>
</g>
<!-- Node2&#45;&gt;Node8 -->
<g id="edge16" class="edge"><title>Node2&#45;&gt;Node8</title>
<path fill="none" stroke="midnightblue" d="M551.952,-121.422C572.666,-112.081 606.987,-97.7624 634.04,-87.1158"/>
<polygon fill="midnightblue" stroke="midnightblue" points="635.592,-90.2674 643.639,-83.3755 633.05,-83.745 635.592,-90.2674"/>
</g>
<!-- Node2&#45;&gt;Node9 -->
<g id="edge24" class="edge"><title>Node2&#45;&gt;Node9</title>
<path fill="none" stroke="midnightblue" d="M536.85,-120.642C543.878,-111.182 557.455,-96.7677 569,-84 585.206,-66.0771 603.343,-45.2093 617.52,-30.7563"/>
<polygon fill="midnightblue" stroke="midnightblue" points="620.276,-32.9542 624.951,-23.4462 615.367,-27.9641 620.276,-32.9542"/>
</g>
<!-- Node3&#45;&gt;Node2 -->
<g id="edge6" class="edge"><title>Node3&#45;&gt;Node2</title>
<path fill="none" stroke="midnightblue" d="M74.1525,-80.3922C80.156,-81.7343 86.2533,-83.0178 92,-84 247.416,-110.563 435.702,-124.331 505.987,-129.065"/>
<polygon fill="midnightblue" stroke="midnightblue" points="506.02,-132.575 516.231,-129.748 506.486,-125.59 506.02,-132.575"/>
</g>
<!-- Node8&#45;&gt;Node2 -->
<g id="edge18" class="edge"><title>Node8&#45;&gt;Node2</title>
<path fill="none" stroke="midnightblue" d="M654.065,-83.4687C629.642,-94.4012 588.577,-111.38 561.271,-121.81"/>
<polygon fill="midnightblue" stroke="midnightblue" points="560.021,-118.541 551.89,-125.333 562.482,-125.094 560.021,-118.541"/>
</g>
<!-- Node8&#45;&gt;Node9 -->
<g id="edge20" class="edge"><title>Node8&#45;&gt;Node9</title>
<path fill="none" stroke="midnightblue" d="M667.921,-60.6308C663.337,-52.8107 656.916,-41.8562 651.387,-32.4241"/>
<polygon fill="midnightblue" stroke="midnightblue" points="654.333,-30.5288 646.256,-23.6719 648.294,-34.0689 654.333,-30.5288"/>
</g>
<!-- Node9&#45;&gt;Node2 -->
<g id="edge22" class="edge"><title>Node9&#45;&gt;Node2</title>
<path fill="none" stroke="midnightblue" d="M637.044,-23.6862C627.877,-37.6694 606.098,-62.8794 587,-84 577.981,-93.9747 567.721,-104.955 558.444,-113.792"/>
<polygon fill="midnightblue" stroke="midnightblue" points="555.963,-111.318 550.932,-120.642 560.679,-116.491 555.963,-111.318"/>
</g>
<!-- Node10&#45;&gt;Node2 -->
<g id="edge32" class="edge"><title>Node10&#45;&gt;Node2</title>
<path fill="none" stroke="midnightblue" d="M594.77,-180.631C583.961,-172.159 568.459,-160.009 555.818,-150.1"/>
<polygon fill="midnightblue" stroke="midnightblue" points="557.646,-147.086 547.616,-143.672 553.327,-152.595 557.646,-147.086"/>
</g>
</g>
</svg>
